0, 0, Header, 1, 32, 192
1, 0, Start_track
1, 0, Sequencer_specific, 10, 0, 0, 91, 35, 2, 0, 3, 0, 51, 0
1, 0, Title_t, "La Mer: 3. Dialogue du vent et de la mer"
1, 0, MIDI_port, 0
1, 0, Tempo, 480000
1, 0, Copyright_t, "Copyright © 2004 by Dario Galimberti"
1, 0, Time_signature, 2, 1, 48, 8
1, 0, Key_signature, 4, "major"
1, 768, Text_t, "La Mer: 3. Dialogue du vent et de la mer"
1, 768, Text_t, "by Claude Debussy (1862-1918)"
1, 3840, Tempo, 441176
1, 4608, Tempo, 405405
1, 10752, Tempo, 444444
1, 12288, Tempo, 422535
1, 13056, Tempo, 397350
1, 24576, Tempo, 384615
1, 25248, Tempo, 370370
1, 26112, Tempo, 365853
1, 26880, Tempo, 363636
1, 27648, Tempo, 368098
1, 28416, Tempo, 394736
1, 33792, Tempo, 419580
1, 34560, Tempo, 400000
1, 35328, Tempo, 377358
1, 36096, Tempo, 368098
1, 39168, Tempo, 379746
1, 39936, Tempo, 392156
1, 40704, Tempo, 375000
1, 41472, Tempo, 387096
1, 43008, Tempo, 405405
1, 43392, Tempo, 923076
1, 43776, Tempo, 491803
1, 44928, Tempo, 530973
1, 45312, Tempo, 540540
1, 45696, Tempo, 512820
1, 46080, Tempo, 500000
1, 46464, Tempo, 480000
1, 46848, Tempo, 465116
1, 47232, Tempo, 447761
1, 47616, Tempo, 422535
1, 49920, Tempo, 447761
1, 50304, Tempo, 461538
1, 50688, Tempo, 530973
1, 53760, Tempo, 472440
1, 54144, Tempo, 451127
1, 54528, Tempo, 431654
1, 54912, Tempo, 408163
1, 55296, Tempo, 394736
1, 56064, Tempo, 377358
1, 69888, Tempo, 397350
1, 71424, Tempo, 419580
1, 72192, Tempo, 402684
1, 72576, Tempo, 389610
1, 72960, Tempo, 379746
1, 73344, Tempo, 363636
1, 79104, Tempo, 400000
1, 80640, Tempo, 370370
1, 83712, Tempo, 394736
1, 86784, Tempo, 379746
1, 93696, Tempo, 402684
1, 101376, Tempo, 476190
1, 101760, Tempo, 512820
1, 102144, Tempo, 594059
1, 102528, Tempo, 689655
1, 102912, Tempo, 504201
1, 102912, Key_signature, -5, "major"
1, 105216, Tempo, 545454
1, 105600, Tempo, 588235
1, 105984, Tempo, 800000
1, 107520, Tempo, 550458
1, 110592, Tempo, 800000
1, 112128, Tempo, 447761
1, 113664, Tempo, 419580
1, 114432, Tempo, 400000
1, 115200, Tempo, 419580
1, 115968, Tempo, 437956
1, 118272, Tempo, 465116
1, 119808, Tempo, 495867
1, 121344, Tempo, 600000
1, 125952, Tempo, 555555
1, 126336, Tempo, 530973
1, 126720, Tempo, 512820
1, 127104, Tempo, 491803
1, 127488, Tempo, 465116
1, 127872, Tempo, 441176
1, 132096, Tempo, 545454
1, 133632, Tempo, 517241
1, 134400, Tempo, 487804
1, 135168, Tempo, 458015
1, 135936, Tempo, 434782
1, 136704, Tempo, 410958
1, 137472, Tempo, 375000
1, 138240, Key_signature, 0, "major"
1, 149760, Tempo, 397350
1, 150528, Tempo, 405405
1, 150528, Key_signature, -5, "major"
1, 152448, Tempo, 389610
1, 152832, Tempo, 368098
1, 153600, Tempo, 348837
1, 154368, Tempo, 333333
1, 155136, Tempo, 324324
1, 156672, Tempo, 397350
1, 157536, Tempo, 428571
1, 157824, Tempo, 454545
1, 158208, Tempo, 437956
1, 158976, Tempo, 468750
1, 159360, Tempo, 508474
1, 159744, Tempo, 495867
1, 161280, Tempo, 530973
1, 162048, Tempo, 571428
1, 162816, Tempo, 389610
1, 162816, Key_signature, 0, "major"
1, 165888, Tempo, 372670
1, 170496, Tempo, 361445
1, 175872, Tempo, 375000
1, 176640, Tempo, 392156
1, 177408, Tempo, 363636
1, 178944, Tempo, 350877
1, 181248, Tempo, 365853
1, 182784, Tempo, 400000
1, 185856, Tempo, 384615
1, 187392, Tempo, 365853
1, 188928, Tempo, 405405
1, 188928, Key_signature, 4, "major"
1, 189696, Tempo, 389610
1, 190464, Tempo, 375000
1, 191232, Tempo, 359281
1, 195840, Tempo, 394736
1, 195840, Key_signature, -5, "major"
1, 196608, Tempo, 375000
1, 197376, Tempo, 363636
1, 198912, Tempo, 400000
1, 201216, Tempo, 389610
1, 201984, Tempo, 382165
1, 202752, Tempo, 368098
1, 203520, Tempo, 355029
1, 211200, Tempo, 372670
1, 212352, Tempo, 392156
1, 212736, Tempo, 405405
1, 213504, Tempo, 389610
1, 214272, Tempo, 377358
1, 215040, Tempo, 368098
1, 215808, Tempo, 350877
1, 217344, Tempo, 361445
1, 218112, Tempo, 375000
1, 220416, Tempo, 368098
1, 220416, End_track
2, 0, Start_track
2, 0, Title_t, "Flauti I - II"
2, 0, MIDI_port, 0
2, 35328, Control_c, 0, 11, 64
2, 35328, Note_on_c, 0, 88, 95
2, 35328, Note_on_c, 0, 92, 90
2, 35349, Control_c, 0, 11, 65
2, 35370, Control_c, 0, 11, 66
2, 35392, Control_c, 0, 11, 67
2, 35413, Control_c, 0, 11, 68
2, 35434, Control_c, 0, 11, 69
2, 35456, Control_c, 0, 11, 70
2, 35477, Control_c, 0, 11, 71
2, 35498, Control_c, 0, 11, 72
2, 35520, Control_c, 0, 11, 73
2, 35541, Control_c, 0, 11, 74
2, 35562, Control_c, 0, 11, 75
2, 35584, Control_c, 0, 11, 76
2, 35605, Control_c, 0, 11, 77
2, 35626, Control_c, 0, 11, 78
2, 35648, Control_c, 0, 11, 79
2, 35669, Control_c, 0, 11, 80
2, 35690, Control_c, 0, 11, 81
2, 35712, Control_c, 0, 11, 82
2, 35733, Control_c, 0, 11, 83
2, 35754, Control_c, 0, 11, 84
2, 35776, Control_c, 0, 11, 85
2, 35797, Control_c, 0, 11, 86
2, 35818, Control_c, 0, 11, 87
2, 35840, Control_c, 0, 11, 88
2, 35861, Control_c, 0, 11, 89
2, 35882, Control_c, 0, 11, 90
2, 35904, Control_c, 0, 11, 91
2, 35925, Control_c, 0, 11, 92
2, 35946, Control_c, 0, 11, 93
2, 35968, Control_c, 0, 11, 94
2, 35989, Control_c, 0, 11, 95
2, 36010, Control_c, 0, 11, 96
2, 36032, Control_c, 0, 11, 97
2, 36053, Control_c, 0, 11, 98
2, 36074, Control_c, 0, 11, 99
2, 36096, Control_c, 0, 11, 100
2, 36117, Control_c, 0, 11, 101
2, 36138, Control_c, 0, 11, 102
2, 36160, Control_c, 0, 11, 103
2, 36181, Control_c, 0, 11, 104
2, 36202, Control_c, 0, 11, 105
2, 36224, Control_c, 0, 11, 106
2, 36245, Control_c, 0, 11, 107
2, 36266, Control_c, 0, 11, 108
2, 36288, Control_c, 0, 11, 109
2, 36309, Control_c, 0, 11, 110
2, 36330, Control_c, 0, 11, 111
2, 36352, Control_c, 0, 11, 112
2, 36373, Control_c, 0, 11, 113
2, 36394, Control_c, 0, 11, 114
2, 36416, Control_c, 0, 11, 115
2, 36437, Control_c, 0, 11, 116
2, 36458, Control_c, 0, 11, 117
2, 36480, Control_c, 0, 11, 118
2, 36501, Control_c, 0, 11, 119
2, 36522, Control_c, 0, 11, 120
2, 36544, Control_c, 0, 11, 121
2, 36565, Control_c, 0, 11, 122
2, 36586, Control_c, 0, 11, 123
2, 36608, Control_c, 0, 11, 124
2, 36629, Control_c, 0, 11, 125
2, 36650, Control_c, 0, 11, 126
2, 36672, Control_c, 0, 11, 127
2, 36816, Note_on_c, 0, 88, 0
2, 36816, Note_on_c, 0, 92, 0
2, 38400, Control_c, 0, 11, 64
2, 38400, Note_on_c, 0, 88, 96
2, 38400, Note_on_c, 0, 92, 87
2, 38421, Control_c, 0, 11, 65
2, 38442, Control_c, 0, 11, 66
2, 38464, Control_c, 0, 11, 67
2, 38485, Control_c, 0, 11, 68
2, 38506, Control_c, 0, 11, 69
2, 38528, Control_c, 0, 11, 70
2, 38549, Control_c, 0, 11, 71
2, 38570, Control_c, 0, 11, 72
2, 38592, Control_c, 0, 11, 73
2, 38613, Control_c, 0, 11, 74
2, 38634, Control_c, 0, 11, 75
2, 38656, Control_c, 0, 11, 76
2, 38677, Control_c, 0, 11, 77
2, 38698, Control_c, 0, 11, 78
2, 38720, Control_c, 0, 11, 79
2, 38741, Control_c, 0, 11, 80
2, 38762, Control_c, 0, 11, 81
2, 38784, Control_c, 0, 11, 82
2, 38805, Control_c, 0, 11, 83
2, 38826, Control_c, 0, 11, 84
2, 38848, Control_c, 0, 11, 85
2, 38869, Control_c, 0, 11, 86
2, 38890, Control_c, 0, 11, 87
2, 38912, Control_c, 0, 11, 88
2, 38933, Control_c, 0, 11, 89
2, 38954, Control_c, 0, 11, 90
2, 38976, Control_c, 0, 11, 91
2, 38997, Control_c, 0, 11, 92
2, 39018, Control_c, 0, 11, 93
2, 39040, Control_c, 0, 11, 94
2, 39061, Control_c, 0, 11, 95
2, 39082, Control_c, 0, 11, 96
2, 39104, Control_c, 0, 11, 97
2, 39125, Control_c, 0, 11, 98
2, 39146, Control_c, 0, 11, 99
2, 39168, Control_c, 0, 11, 100
2, 39189, Control_c, 0, 11, 101
2, 39210, Control_c, 0, 11, 102
2, 39232, Control_c, 0, 11, 103
2, 39253, Control_c, 0, 11, 104
2, 39274, Control_c, 0, 11, 105
2, 39296, Control_c, 0, 11, 106
2, 39317, Control_c, 0, 11, 107
2, 39338, Control_c, 0, 11, 108
2, 39360, Control_c, 0, 11, 109
2, 39381, Control_c, 0, 11, 110
2, 39402, Control_c, 0, 11, 111
2, 39424, Control_c, 0, 11, 112
2, 39445, Control_c, 0, 11, 113
2, 39466, Control_c, 0, 11, 114
2, 39488, Control_c, 0, 11, 115
2, 39509, Control_c, 0, 11, 116
2, 39530, Control_c, 0, 11, 117
2, 39552, Control_c, 0, 11, 118
2, 39573, Control_c, 0, 11, 119
2, 39594, Control_c, 0, 11, 120
2, 39616, Control_c, 0, 11, 121
2, 39637, Control_c, 0, 11, 122
2, 39658, Control_c, 0, 11, 123
2, 39680, Control_c, 0, 11, 124
2, 39701, Control_c, 0, 11, 125
2, 39722, Control_c, 0, 11, 126
2, 39744, Control_c, 0, 11, 127
2, 39888, Note_on_c, 0, 88, 0
2, 39888, Note_on_c, 0, 92, 0
2, 39936, Control_c, 0, 11, 64
2, 39936, Note_on_c, 0, 88, 90
2, 39936, Note_on_c, 0, 92, 94
2, 39957, Control_c, 0, 11, 65
2, 39978, Control_c, 0, 11, 66
2, 40000, Control_c, 0, 11, 67
2, 40021, Control_c, 0, 11, 68
2, 40042, Control_c, 0, 11, 69
2, 40064, Control_c, 0, 11, 70
2, 40085, Control_c, 0, 11, 71
2, 40106, Control_c, 0, 11, 72
2, 40128, Control_c, 0, 11, 73
2, 40149, Control_c, 0, 11, 74
2, 40170, Control_c, 0, 11, 75
2, 40192, Control_c, 0, 11, 76
2, 40213, Control_c, 0, 11, 77
2, 40234, Control_c, 0, 11, 78
2, 40256, Control_c, 0, 11, 79
2, 40277, Control_c, 0, 11, 80
2, 40298, Control_c, 0, 11, 81
2, 40320, Control_c, 0, 11, 82
2, 40341, Control_c, 0, 11, 83
2, 40362, Control_c, 0, 11, 84
2, 40384, Control_c, 0, 11, 85
2, 40405, Control_c, 0, 11, 86
2, 40426, Control_c, 0, 11, 87
2, 40448, Control_c, 0, 11, 88
2, 40469, Control_c, 0, 11, 89
2, 40490, Control_c, 0, 11, 90
2, 40512, Control_c, 0, 11, 91
2, 40533, Control_c, 0, 11, 92
2, 40554, Control_c, 0, 11, 93
2, 40576, Control_c, 0, 11, 94
2, 40597, Control_c, 0, 11, 95
2, 40618, Control_c, 0, 11, 96
2, 40640, Control_c, 0, 11, 97
2, 40661, Control_c, 0, 11, 98
2, 40682, Control_c, 0, 11, 99
2, 40704, Control_c, 0, 11, 100
2, 40725, Control_c, 0, 11, 101
2, 40746, Control_c, 0, 11, 102
2, 40768, Control_c, 0, 11, 103
2, 40789, Control_c, 0, 11, 104
2, 40810, Control_c, 0, 11, 105
2, 40832, Control_c, 0, 11, 106
2, 40853, Control_c, 0, 11, 107
2, 40874, Control_c, 0, 11, 108
2, 40896, Control_c, 0, 11, 109
2, 40917, Control_c, 0, 11, 110
2, 40938, Control_c, 0, 11, 111
2, 40960, Control_c, 0, 11, 112
2, 40981, Control_c, 0, 11, 113
2, 41002, Control_c, 0, 11, 114
2, 41024, Control_c, 0, 11, 115
2, 41045, Control_c, 0, 11, 116
2, 41066, Control_c, 0, 11, 117
2, 41088, Control_c, 0, 11, 118
2, 41109, Control_c, 0, 11, 119
2, 41130, Control_c, 0, 11, 120
2, 41152, Control_c, 0, 11, 121
2, 41173, Control_c, 0, 11, 122
2, 41194, Control_c, 0, 11, 123
2, 41216, Control_c, 0, 11, 124
2, 41237, Control_c, 0, 11, 125
2, 41258, Control_c, 0, 11, 126
2, 41280, Control_c, 0, 11, 127
2, 41424, Note_on_c, 0, 88, 0
2, 41424, Note_on_c, 0, 92, 0
2, 42240, Control_c, 0, 7, 92
2, 43008, Control_c, 0, 11, 127
2, 56064, Control_c, 0, 11, 92
2, 56064, Note_on_c, 0, 80, 59
2, 56069, Control_c, 0, 11, 93
2, 56074, Control_c, 0, 11, 94
2, 56080, Control_c, 0, 11, 95
2, 56085, Control_c, 0, 11, 96
2, 56091, Control_c, 0, 11, 97
2, 56096, Control_c, 0, 11, 98
2, 56102, Control_c, 0, 11, 99
2, 56107, Control_c, 0, 11, 100
2, 56112, Note_on_c, 0, 80, 0
2, 56112, Note_on_c, 0, 78, 62
2, 56113, Control_c, 0, 11, 101
2, 56118, Control_c, 0, 11, 102
2, 56124, Control_c, 0, 11, 103
2, 56129, Control_c, 0, 11, 104
2, 56135, Control_c, 0, 11, 105
2, 56140, Control_c, 0, 11, 106
2, 56146, Control_c, 0, 11, 107
2, 56151, Control_c, 0, 11, 108
2, 56157, Control_c, 0, 11, 109
2, 56162, Control_c, 0, 11, 110
2, 56168, Control_c, 0, 11, 111
2, 56173, Control_c, 0, 11, 112
2, 56179, Control_c, 0, 11, 113
2, 56184, Control_c, 0, 11, 114
2, 56190, Control_c, 0, 11, 115
2, 56195, Control_c, 0, 11, 116
2, 56201, Control_c, 0, 11, 117
2, 56206, Control_c, 0, 11, 118
2, 56212, Control_c, 0, 11, 119
2, 56217, Control_c, 0, 11, 120
2, 56223, Control_c, 0, 11, 121
2, 56228, Control_c, 0, 11, 122
2, 56234, Control_c, 0, 11, 123
2, 56239, Control_c, 0, 11, 124
2, 56245, Control_c, 0, 11, 125
2, 56250, Control_c, 0, 11, 126
2, 56256, Control_c, 0, 11, 127
2, 56261, Control_c, 0, 11, 126
2, 56266, Control_c, 0, 11, 125
2, 56272, Control_c, 0, 11, 124
2, 56277, Control_c, 0, 11, 123
2, 56283, Control_c, 0, 11, 122
2, 56288, Control_c, 0, 11, 121
2, 56294, Control_c, 0, 11, 120
2, 56299, Control_c, 0, 11, 119
2, 56305, Control_c, 0, 11, 118
2, 56310, Control_c, 0, 11, 117
2, 56316, Control_c, 0, 11, 116
2, 56321, Control_c, 0, 11, 115
2, 56327, Control_c, 0, 11, 114
2, 56332, Control_c, 0, 11, 113
2, 56338, Control_c, 0, 11, 112
2, 56343, Control_c, 0, 11, 111
2, 56349, Control_c, 0, 11, 110
2, 56354, Control_c, 0, 11, 109
2, 56360, Control_c, 0, 11, 108
2, 56365, Control_c, 0, 11, 107
2, 56371, Control_c, 0, 11, 106
2, 56376, Control_c, 0, 11, 105
2, 56382, Control_c, 0, 11, 104
2, 56387, Control_c, 0, 11, 103
2, 56393, Control_c, 0, 11, 102
2, 56398, Control_c, 0, 11, 101
2, 56404, Control_c, 0, 11, 100
2, 56409, Control_c, 0, 11, 99
2, 56415, Control_c, 0, 11, 98
2, 56420, Control_c, 0, 11, 97
2, 56426, Control_c, 0, 11, 96
2, 56431, Control_c, 0, 11, 95
2, 56437, Control_c, 0, 11, 94
2, 56442, Control_c, 0, 11, 93
2, 56448, Control_c, 0, 11, 92
2, 56832, Control_c, 0, 11, 92
2, 56842, Control_c, 0, 11, 93
2, 56853, Control_c, 0, 11, 94
2, 56864, Control_c, 0, 11, 95
2, 56875, Control_c, 0, 11, 96
2, 56886, Control_c, 0, 11, 97
2, 56897, Control_c, 0, 11, 98
2, 56908, Control_c, 0, 11, 99
2, 56919, Control_c, 0, 11, 100
2, 56930, Control_c, 0, 11, 101
2, 56941, Control_c, 0, 11, 102
2, 56952, Control_c, 0, 11, 103
2, 56963, Control_c, 0, 11, 104
2, 56974, Control_c, 0, 11, 105
2, 56985, Control_c, 0, 11, 106
2, 56996, Control_c, 0, 11, 107
2, 57007, Control_c, 0, 11, 108
2, 57018, Control_c, 0, 11, 109
2, 57029, Control_c, 0, 11, 110
2, 57040, Control_c, 0, 11, 111
2, 57051, Control_c, 0, 11, 112
2, 57062, Control_c, 0, 11, 113
2, 57073, Control_c, 0, 11, 114
2, 57084, Control_c, 0, 11, 115
2, 57095, Control_c, 0, 11, 116
2, 57106, Control_c, 0, 11, 117
2, 57117, Control_c, 0, 11, 118
2, 57128, Control_c, 0, 11, 119
2, 57139, Control_c, 0, 11, 120
2, 57150, Control_c, 0, 11, 121
2, 57161, Control_c, 0, 11, 122
2, 57172, Control_c, 0, 11, 123
2, 57183, Control_c, 0, 11, 124
2, 57194, Control_c, 0, 11, 125
2, 57205, Control_c, 0, 11, 126
2, 57216, Note_on_c, 0, 78, 0
2, 57216, Control_c, 0, 11, 127
2, 57216, Note_on_c, 0, 80, 64
2, 57552, Note_on_c, 0, 80, 0
2, 57600, Control_c, 0, 11, 127
2, 57600, Note_on_c, 0, 80, 58
2, 57605, Control_c, 0, 11, 126
2, 57610, Control_c, 0, 11, 125
2, 57616, Control_c, 0, 11, 124
2, 57621, Control_c, 0, 11, 123
2, 57627, Control_c, 0, 11, 122
2, 57632, Control_c, 0, 11, 121
2, 57638, Control_c, 0, 11, 120
2, 57643, Control_c, 0, 11, 119
2, 57648, Note_on_c, 0, 80, 0
2, 57648, Note_on_c, 0, 78, 61
2, 57649, Control_c, 0, 11, 118
2, 57654, Control_c, 0, 11, 117
2, 57660, Control_c, 0, 11, 116
2, 57665, Control_c, 0, 11, 115
2, 57671, Control_c, 0, 11, 114
2, 57676, Control_c, 0, 11, 113
2, 57682, Control_c, 0, 11, 112
2, 57687, Control_c, 0, 11, 111
2, 57693, Control_c, 0, 11, 110
2, 57698, Control_c, 0, 11, 109
2, 57704, Control_c, 0, 11, 108
2, 57709, Control_c, 0, 11, 107
2, 57715, Control_c, 0, 11, 106
2, 57720, Control_c, 0, 11, 105
2, 57726, Control_c, 0, 11, 104
2, 57731, Control_c, 0, 11, 103
2, 57737, Control_c, 0, 11, 102
2, 57742, Control_c, 0, 11, 101
2, 57748, Control_c, 0, 11, 100
2, 57753, Control_c, 0, 11, 99
2, 57759, Control_c, 0, 11, 98
2, 57764, Control_c, 0, 11, 97
2, 57770, Control_c, 0, 11, 96
2, 57775, Control_c, 0, 11, 95
2, 57781, Control_c, 0, 11, 94
2, 57786, Control_c, 0, 11, 93
2, 57792, Control_c, 0, 11, 92
2, 58368, Control_c, 0, 11, 92
2, 58389, Control_c, 0, 11, 93
2, 58411, Control_c, 0, 11, 94
2, 58433, Control_c, 0, 11, 95
2, 58455, Control_c, 0, 11, 96
2, 58477, Control_c, 0, 11, 97
2, 58499, Control_c, 0, 11, 98
2, 58521, Control_c, 0, 11, 99
2, 58543, Control_c, 0, 11, 100
2, 58565, Control_c, 0, 11, 101
2, 58587, Control_c, 0, 11, 102
2, 58609, Control_c, 0, 11, 103
2, 58631, Control_c, 0, 11, 104
2, 58653, Control_c, 0, 11, 105
2, 58675, Control_c, 0, 11, 106
2, 58697, Control_c, 0, 11, 107
2, 58719, Control_c, 0, 11, 108
2, 58741, Control_c, 0, 11, 109
2, 58752, Note_on_c, 0, 78, 0
2, 58752, Note_on_c, 0, 80, 65
2, 58762, Control_c, 0, 11, 110
2, 58784, Control_c, 0, 11, 111
2, 58806, Control_c, 0, 11, 112
2, 58828, Control_c, 0, 11, 113
2, 58850, Control_c, 0, 11, 114
2, 58872, Control_c, 0, 11, 115
2, 58894, Control_c, 0, 11, 116
2, 58916, Control_c, 0, 11, 117
2, 58938, Control_c, 0, 11, 118
2, 58944, Note_on_c, 0, 80, 0
2, 58944, Note_on_c, 0, 83, 55
2, 58960, Control_c, 0, 11, 119
2, 58982, Control_c, 0, 11, 120
2, 59004, Control_c, 0, 11, 121
2, 59026, Control_c, 0, 11, 122
2, 59048, Control_c, 0, 11, 123
2, 59070, Control_c, 0, 11, 124
2, 59092, Control_c, 0, 11, 125
2, 59104, Note_on_c, 0, 83, 0
2, 59114, Control_c, 0, 11, 126
2, 59136, Control_c, 0, 11, 127
2, 59136, Note_on_c, 0, 80, 55
2, 59141, Control_c, 0, 11, 126
2, 59146, Control_c, 0, 11, 125
2, 59152, Control_c, 0, 11, 124
2, 59157, Control_c, 0, 11, 123
2, 59163, Control_c, 0, 11, 122
2, 59168, Control_c, 0, 11, 121
2, 59174, Control_c, 0, 11, 120
2, 59179, Control_c, 0, 11, 119
2, 59184, Note_on_c, 0, 80, 0
2, 59184, Note_on_c, 0, 78, 61
2, 59185, Control_c, 0, 11, 118
2, 59190, Control_c, 0, 11, 117
2, 59196, Control_c, 0, 11, 116
2, 59201, Control_c, 0, 11, 115
2, 59207, Control_c, 0, 11, 114
2, 59212, Control_c, 0, 11, 113
2, 59218, Control_c, 0, 11, 112
2, 59223, Control_c, 0, 11, 111
2, 59229, Control_c, 0, 11, 110
2, 59234, Control_c, 0, 11, 109
2, 59240, Control_c, 0, 11, 108
2, 59245, Control_c, 0, 11, 107
2, 59251, Control_c, 0, 11, 106
2, 59256, Control_c, 0, 11, 105
2, 59262, Control_c, 0, 11, 104
2, 59267, Control_c, 0, 11, 103
2, 59273, Control_c, 0, 11, 102
2, 59278, Control_c, 0, 11, 101
2, 59284, Control_c, 0, 11, 100
2, 59289, Control_c, 0, 11, 99
2, 59295, Control_c, 0, 11, 98
2, 59300, Control_c, 0, 11, 97
2, 59306, Control_c, 0, 11, 96
2, 59311, Control_c, 0, 11, 95
2, 59317, Control_c, 0, 11, 94
2, 59322, Control_c, 0, 11, 93
2, 59328, Control_c, 0, 11, 92
2, 60288, Note_on_c, 0, 78, 0
2, 60288, Note_on_c, 0, 80, 55
2, 60624, Note_on_c, 0, 80, 0
2, 60672, Control_c, 0, 11, 92
2, 60672, Note_on_c, 0, 75, 70
2, 60715, Control_c, 0, 11, 93
2, 60720, Note_on_c, 0, 75, 0
2, 60720, Note_on_c, 0, 76, 72
2, 60759, Control_c, 0, 11, 94
2, 60803, Control_c, 0, 11, 95
2, 60847, Control_c, 0, 11, 96
2, 60891, Control_c, 0, 11, 97
2, 60935, Control_c, 0, 11, 98
2, 60979, Control_c, 0, 11, 99
2, 61023, Control_c, 0, 11, 100
2, 61066, Control_c, 0, 11, 101
2, 61110, Control_c, 0, 11, 102
2, 61154, Control_c, 0, 11, 103
2, 61198, Control_c, 0, 11, 104
2, 61242, Control_c, 0, 11, 105
2, 61286, Control_c, 0, 11, 106
2, 61330, Control_c, 0, 11, 107
2, 61374, Control_c, 0, 11, 108
2, 61418, Control_c, 0, 11, 109
2, 61461, Control_c, 0, 11, 110
2, 61505, Control_c, 0, 11, 111
2, 61549, Control_c, 0, 11, 112
2, 61593, Control_c, 0, 11, 113
2, 61637, Control_c, 0, 11, 114
2, 61681, Control_c, 0, 11, 115
2, 61725, Control_c, 0, 11, 116
2, 61769, Control_c, 0, 11, 117
2, 61813, Control_c, 0, 11, 118
2, 61824, Note_on_c, 0, 76, 0
2, 61824, Note_on_c, 0, 80, 70
2, 61856, Control_c, 0, 11, 119
2, 61900, Control_c, 0, 11, 120
2, 61944, Control_c, 0, 11, 121
2, 61988, Control_c, 0, 11, 122
2, 62032, Control_c, 0, 11, 123
2, 62076, Control_c, 0, 11, 124
2, 62120, Control_c, 0, 11, 125
2, 62160, Note_on_c, 0, 80, 0
2, 62164, Control_c, 0, 11, 126
2, 62208, Control_c, 0, 11, 127
2, 62976, Control_c, 0, 11, 92
2, 62976, Note_on_c, 0, 84, 110
2, 62976, Note_on_c, 0, 88, 108
2, 62997, Control_c, 0, 11, 93
2, 63019, Control_c, 0, 11, 94
2, 63041, Control_c, 0, 11, 95
2, 63063, Control_c, 0, 11, 96
2, 63085, Control_c, 0, 11, 97
2, 63107, Control_c, 0, 11, 98
2, 63129, Control_c, 0, 11, 99
2, 63151, Control_c, 0, 11, 100
2, 63173, Control_c, 0, 11, 101
2, 63195, Control_c, 0, 11, 102
2, 63217, Control_c, 0, 11, 103
2, 63239, Control_c, 0, 11, 104
2, 63261, Control_c, 0, 11, 105
2, 63283, Control_c, 0, 11, 106
2, 63305, Control_c, 0, 11, 107
2, 63327, Control_c, 0, 11, 108
2, 63349, Control_c, 0, 11, 109
2, 63370, Control_c, 0, 11, 110
2, 63392, Control_c, 0, 11, 111
2, 63414, Control_c, 0, 11, 112
2, 63436, Control_c, 0, 11, 113
2, 63458, Control_c, 0, 11, 114
2, 63480, Control_c, 0, 11, 115
2, 63502, Control_c, 0, 11, 116
2, 63524, Control_c, 0, 11, 117
2, 63546, Control_c, 0, 11, 118
2, 63552, Note_on_c, 0, 84, 0
2, 63552, Note_on_c, 0, 88, 0
2, 63552, Note_on_c, 0, 87, 105
2, 63552, Note_on_c, 0, 91, 111
2, 63568, Control_c, 0, 11, 119
2, 63590, Control_c, 0, 11, 120
2, 63612, Control_c, 0, 11, 121
2, 63634, Control_c, 0, 11, 122
2, 63656, Control_c, 0, 11, 123
2, 63678, Control_c, 0, 11, 124
2, 63700, Control_c, 0, 11, 125
2, 63712, Note_on_c, 0, 87, 0
2, 63712, Note_on_c, 0, 91, 0
2, 63722, Control_c, 0, 11, 126
2, 63744, Control_c, 0, 11, 127
2, 65280, Control_c, 0, 11, 92
2, 65280, Note_on_c, 0, 79, 109
2, 65280, Note_on_c, 0, 83, 110
2, 65568, Note_on_c, 0, 79, 0
2, 65568, Note_on_c, 0, 83, 0
2, 65568, Note_on_c, 0, 78, 113
2, 65568, Note_on_c, 0, 82, 113
2, 65664, Note_on_c, 0, 78, 0
2, 65664, Note_on_c, 0, 82, 0
2, 65664, Note_on_c, 0, 78, 113
2, 65664, Note_on_c, 0, 82, 107
2, 66048, Control_c, 0, 11, 92
2, 66069, Control_c, 0, 11, 93
2, 66091, Control_c, 0, 11, 94
2, 66113, Control_c, 0, 11, 95
2, 66135, Control_c, 0, 11, 96
2, 66157, Control_c, 0, 11, 97
2, 66179, Control_c, 0, 11, 98
2, 66201, Control_c, 0, 11, 99
2, 66223, Control_c, 0, 11, 100
2, 66240, Note_on_c, 0, 78, 0
2, 66240, Note_on_c, 0, 82, 0
2, 66240, Note_on_c, 0, 81, 110
2, 66240, Note_on_c, 0, 85, 107
2, 66245, Control_c, 0, 11, 101
2, 66267, Control_c, 0, 11, 102
2, 66289, Control_c, 0, 11, 103
2, 66311, Control_c, 0, 11, 104
2, 66333, Control_c, 0, 11, 105
2, 66355, Control_c, 0, 11, 106
2, 66377, Control_c, 0, 11, 107
2, 66399, Control_c, 0, 11, 108
2, 66421, Control_c, 0, 11, 109
2, 66432, Note_on_c, 0, 81, 0
2, 66432, Note_on_c, 0, 85, 0
2, 66432, Note_on_c, 0, 80, 104
2, 66432, Note_on_c, 0, 84, 112
2, 66442, Control_c, 0, 11, 110
2, 66464, Control_c, 0, 11, 111
2, 66486, Control_c, 0, 11, 112
2, 66508, Control_c, 0, 11, 113
2, 66530, Control_c, 0, 11, 114
2, 66552, Control_c, 0, 11, 115
2, 66574, Control_c, 0, 11, 116
2, 66596, Control_c, 0, 11, 117
2, 66618, Control_c, 0, 11, 118
2, 66624, Note_on_c, 0, 80, 0
2, 66624, Note_on_c, 0, 84, 0
2, 66624, Note_on_c, 0, 84, 108
2, 66624, Note_on_c, 0, 87, 112
2, 66640, Control_c, 0, 11, 119
2, 66662, Control_c, 0, 11, 120
2, 66684, Control_c, 0, 11, 121
2, 66706, Control_c, 0, 11, 122
2, 66728, Control_c, 0, 11, 123
2, 66750, Control_c, 0, 11, 124
2, 66772, Control_c, 0, 11, 125
2, 66784, Note_on_c, 0, 84, 0
2, 66784, Note_on_c, 0, 87, 0
2, 66794, Control_c, 0, 11, 126
2, 66816, Control_c, 0, 11, 127
2, 66816, Control_c, 0, 11, 92
2, 66816, Note_on_c, 0, 79, 110
2, 66816, Note_on_c, 0, 83, 113
2, 67104, Note_on_c, 0, 79, 0
2, 67104, Note_on_c, 0, 83, 0
2, 67104, Note_on_c, 0, 78, 104
2, 67104, Note_on_c, 0, 82, 109
2, 67200, Note_on_c, 0, 78, 0
2, 67200, Note_on_c, 0, 82, 0
2, 67200, Note_on_c, 0, 78, 113
2, 67200, Note_on_c, 0, 82, 103
2, 67584, Control_c, 0, 11, 92
2, 67605, Control_c, 0, 11, 93
2, 67627, Control_c, 0, 11, 94
2, 67649, Control_c, 0, 11, 95
2, 67671, Control_c, 0, 11, 96
2, 67693, Control_c, 0, 11, 97
2, 67715, Control_c, 0, 11, 98
2, 67737, Control_c, 0, 11, 99
2, 67759, Control_c, 0, 11, 100
2, 67776, Note_on_c, 0, 78, 0
2, 67776, Note_on_c, 0, 82, 0
2, 67776, Note_on_c, 0, 75, 108
2, 67776, Note_on_c, 0, 77, 104
2, 67781, Control_c, 0, 11, 101
2, 67803, Control_c, 0, 11, 102
2, 67825, Control_c, 0, 11, 103
2, 67847, Control_c, 0, 11, 104
2, 67869, Control_c, 0, 11, 105
2, 67891, Control_c, 0, 11, 106
2, 67913, Control_c, 0, 11, 107
2, 67935, Control_c, 0, 11, 108
2, 67957, Control_c, 0, 11, 109
2, 67968, Note_on_c, 0, 75, 0
2, 67968, Note_on_c, 0, 77, 0
2, 67968, Note_on_c, 0, 74, 112
2, 67968, Note_on_c, 0, 78, 110
2, 67978, Control_c, 0, 11, 110
2, 68000, Control_c, 0, 11, 111
2, 68022, Control_c, 0, 11, 112
2, 68044, Control_c, 0, 11, 113
2, 68066, Control_c, 0, 11, 114
2, 68088, Control_c, 0, 11, 115
2, 68110, Control_c, 0, 11, 116
2, 68132, Control_c, 0, 11, 117
2, 68154, Control_c, 0, 11, 118
2, 68176, Control_c, 0, 11, 119
2, 68198, Control_c, 0, 11, 120
2, 68220, Control_c, 0, 11, 121
2, 68242, Control_c, 0, 11, 122
2, 68256, Note_on_c, 0, 74, 0
2, 68256, Note_on_c, 0, 78, 0
2, 68256, Note_on_c, 0, 72, 108
2, 68256, Note_on_c, 0, 74, 103
2, 68264, Control_c, 0, 11, 123
2, 68286, Control_c, 0, 11, 124
2, 68308, Control_c, 0, 11, 125
2, 68330, Control_c, 0, 11, 126
2, 68352, Note_on_c, 0, 72, 0
2, 68352, Note_on_c, 0, 74, 0
2, 68352, Control_c, 0, 11, 127
2, 68352, Note_on_c, 0, 71, 105
2, 68352, Note_on_c, 0, 75, 112
2, 68512, Note_on_c, 0, 71, 0
2, 68512, Note_on_c, 0, 75, 0
2, 68544, Control_c, 0, 11, 127
2, 68544, Note_on_c, 0, 67, 105
2, 68544, Note_on_c, 0, 70, 113
2, 68555, Control_c, 0, 11, 126
2, 68567, Control_c, 0, 11, 125
2, 68579, Control_c, 0, 11, 124
2, 68590, Control_c, 0, 11, 123
2, 68602, Control_c, 0, 11, 122
2, 68614, Control_c, 0, 11, 121
2, 68625, Control_c, 0, 11, 120
2, 68637, Control_c, 0, 11, 119
2, 68649, Control_c, 0, 11, 118
2, 68661, Control_c, 0, 11, 117
2, 68672, Control_c, 0, 11, 116
2, 68684, Control_c, 0, 11, 115
2, 68696, Control_c, 0, 11, 114
2, 68707, Control_c, 0, 11, 113
2, 68719, Control_c, 0, 11, 112
2, 68731, Control_c, 0, 11, 111
2, 68736, Note_on_c, 0, 67, 0
2, 68736, Note_on_c, 0, 70, 0
2, 68736, Note_on_c, 0, 68, 110
2, 68736, Note_on_c, 0, 72, 103
2, 68743, Control_c, 0, 11, 110
2, 68754, Control_c, 0, 11, 109
2, 68766, Control_c, 0, 11, 108
2, 68778, Control_c, 0, 11, 107
2, 68789, Control_c, 0, 11, 106
2, 68801, Control_c, 0, 11, 105
2, 68813, Control_c, 0, 11, 104
2, 68824, Control_c, 0, 11, 103
2, 68836, Control_c, 0, 11, 102
2, 68848, Control_c, 0, 11, 101
2, 68860, Control_c, 0, 11, 100
2, 68871, Control_c, 0, 11, 99
2, 68883, Control_c, 0, 11, 98
2, 68895, Control_c, 0, 11, 97
2, 68906, Control_c, 0, 11, 96
2, 68918, Control_c, 0, 11, 95
2, 68930, Control_c, 0, 11, 94
2, 68942, Control_c, 0, 11, 93
2, 68953, Control_c, 0, 11, 92
2, 68965, Control_c, 0, 11, 91
2, 68977, Control_c, 0, 11, 90
2, 68988, Control_c, 0, 11, 89
2, 69000, Control_c, 0, 11, 88
2, 69012, Control_c, 0, 11, 87
2, 69024, Control_c, 0, 11, 86
2, 69035, Control_c, 0, 11, 85
2, 69047, Control_c, 0, 11, 84
2, 69059, Control_c, 0, 11, 83
2, 69070, Control_c, 0, 11, 82
2, 69082, Control_c, 0, 11, 81
2, 69094, Control_c, 0, 11, 80
2, 69105, Control_c, 0, 11, 79
2, 69117, Control_c, 0, 11, 78
2, 69129, Control_c, 0, 11, 77
2, 69141, Control_c, 0, 11, 76
2, 69152, Control_c, 0, 11, 75
2, 69164, Control_c, 0, 11, 74
2, 69176, Control_c, 0, 11, 73
2, 69187, Control_c, 0, 11, 72
2, 69199, Control_c, 0, 11, 71
2, 69211, Control_c, 0, 11, 70
2, 69223, Control_c, 0, 11, 69
2, 69234, Control_c, 0, 11, 68
2, 69246, Control_c, 0, 11, 67
2, 69258, Control_c, 0, 11, 66
2, 69269, Control_c, 0, 11, 65
2, 69281, Control_c, 0, 11, 64
2, 69293, Control_c, 0, 11, 63
2, 69304, Control_c, 0, 11, 62
2, 69316, Control_c, 0, 11, 61
2, 69328, Control_c, 0, 11, 60
2, 69340, Control_c, 0, 11, 59
2, 69351, Control_c, 0, 11, 58
2, 69363, Control_c, 0, 11, 57
2, 69375, Control_c, 0, 11, 56
2, 69386, Control_c, 0, 11, 55
2, 69398, Control_c, 0, 11, 54
2, 69410, Control_c, 0, 11, 53
2, 69422, Control_c, 0, 11, 52
2, 69433, Control_c, 0, 11, 51
2, 69445, Control_c, 0, 11, 50
2, 69457, Control_c, 0, 11, 49
2, 69468, Control_c, 0, 11, 48
2, 69480, Control_c, 0, 11, 47
2, 69492, Control_c, 0, 11, 46
2, 69504, Note_on_c, 0, 68, 0
2, 69504, Note_on_c, 0, 72, 0
2, 69504, Control_c, 0, 11, 45
2, 69504, Note_on_c, 0, 65, 103
2, 69504, Note_on_c, 0, 67, 109
2, 69888, Note_on_c, 0, 65, 0
2, 69888, Note_on_c, 0, 67, 0
2, 69888, Note_on_c, 0, 64, 109
2, 69888, Note_on_c, 0, 68, 106
2, 70048, Note_on_c, 0, 64, 0
2, 70048, Note_on_c, 0, 68, 0
2, 72960, Note_on_c, 0, 83, 97
2, 73056, Note_on_c, 0, 83, 0
2, 73056, Note_on_c, 0, 81, 89
2, 73888, Note_on_c, 0, 81, 0
2, 75264, Control_c, 0, 11, 127
2, 75264, Note_on_c, 0, 81, 87
2, 75264, Note_on_c, 0, 83, 95
2, 75276, Control_c, 0, 11, 126
2, 75288, Control_c, 0, 11, 125
2, 75300, Control_c, 0, 11, 124
2, 75312, Control_c, 0, 11, 123
2, 75324, Control_c, 0, 11, 122
2, 75337, Control_c, 0, 11, 121
2, 75349, Control_c, 0, 11, 120
2, 75361, Control_c, 0, 11, 119
2, 75373, Control_c, 0, 11, 118
2, 75385, Control_c, 0, 11, 117
2, 75398, Control_c, 0, 11, 116
2, 75410, Control_c, 0, 11, 115
2, 75422, Control_c, 0, 11, 114
2, 75434, Control_c, 0, 11, 113
2, 75446, Control_c, 0, 11, 112
2, 75459, Control_c, 0, 11, 111
2, 75471, Control_c, 0, 11, 110
2, 75483, Control_c, 0, 11, 109
2, 75495, Control_c, 0, 11, 108
2, 75507, Control_c, 0, 11, 107
2, 75520, Control_c, 0, 11, 106
2, 75532, Control_c, 0, 11, 105
2, 75544, Control_c, 0, 11, 104
2, 75556, Control_c, 0, 11, 103
2, 75568, Control_c, 0, 11, 102
2, 75580, Control_c, 0, 11, 101
2, 75593, Control_c, 0, 11, 100
2, 75605, Control_c, 0, 11, 99
2, 75617, Control_c, 0, 11, 98
2, 75629, Control_c, 0, 11, 97
2, 75641, Control_c, 0, 11, 96
2, 75654, Control_c, 0, 11, 95
2, 75666, Control_c, 0, 11, 94
2, 75678, Control_c, 0, 11, 93
2, 75690, Control_c, 0, 11, 92
2, 75702, Control_c, 0, 11, 91
2, 75715, Control_c, 0, 11, 90
2, 75727, Control_c, 0, 11, 89
2, 75739, Control_c, 0, 11, 88
2, 75751, Control_c, 0, 11, 87
2, 75763, Control_c, 0, 11, 86
2, 75776, Control_c, 0, 11, 85
2, 75788, Control_c, 0, 11, 84
2, 75800, Control_c, 0, 11, 83
2, 75812, Control_c, 0, 11, 82
2, 75824, Control_c, 0, 11, 81
2, 75836, Control_c, 0, 11, 80
2, 75849, Control_c, 0, 11, 79
2, 75861, Control_c, 0, 11, 78
2, 75873, Control_c, 0, 11, 77
2, 75885, Control_c, 0, 11, 76
2, 75897, Control_c, 0, 11, 75
2, 75910, Control_c, 0, 11, 74
2, 75922, Control_c, 0, 11, 73
2, 75934, Control_c, 0, 11, 72
2, 75946, Control_c, 0, 11, 71
2, 75958, Control_c, 0, 11, 70
2, 75971, Control_c, 0, 11, 69
2, 75983, Control_c, 0, 11, 68
2, 75984, Note_on_c, 0, 81, 0
2, 75984, Note_on_c, 0, 83, 0
2, 75995, Control_c, 0, 11, 67
2, 76007, Control_c, 0, 11, 66
2, 76019, Control_c, 0, 11, 65
2, 76032, Control_c, 0, 11, 64
2, 76800, Control_c, 0, 11, 127
2, 77184, Note_on_c, 0, 81, 49
2, 77184, Note_on_c, 0, 83, 50
2, 77728, Note_on_c, 0, 81, 0
2, 77728, Note_on_c, 0, 83, 0
2, 78720, Note_on_c, 0, 81, 41
2, 78720, Note_on_c, 0, 83, 47
2, 79056, Note_on_c, 0, 81, 0
2, 79056, Note_on_c, 0, 83, 0
2, 79872, Note_on_c, 0, 81, 95
2, 79872, Note_on_c, 0, 83, 95
2, 80064, Control_c, 0, 11, 127
2, 80073, Control_c, 0, 11, 126
2, 80082, Control_c, 0, 11, 125
2, 80091, Control_c, 0, 11, 124
2, 80100, Control_c, 0, 11, 123
2, 80109, Control_c, 0, 11, 122
2, 80118, Control_c, 0, 11, 121
2, 80128, Control_c, 0, 11, 120
2, 80137, Control_c, 0, 11, 119
2, 80146, Control_c, 0, 11, 118
2, 80155, Control_c, 0, 11, 117
2, 80164, Control_c, 0, 11, 116
2, 80173, Control_c, 0, 11, 115
2, 80182, Control_c, 0, 11, 114
2, 80192, Control_c, 0, 11, 113
2, 80201, Control_c, 0, 11, 112
2, 80210, Control_c, 0, 11, 111
2, 80219, Control_c, 0, 11, 110
2, 80228, Control_c, 0, 11, 109
2, 80237, Control_c, 0, 11, 108
2, 80246, Control_c, 0, 11, 107
2, 80256, Control_c, 0, 11, 106
2, 80265, Control_c, 0, 11, 105
2, 80274, Control_c, 0, 11, 104
2, 80283, Control_c, 0, 11, 103
2, 80292, Control_c, 0, 11, 102
2, 80301, Control_c, 0, 11, 101
2, 80310, Control_c, 0, 11, 100
2, 80320, Control_c, 0, 11, 99
2, 80329, Control_c, 0, 11, 98
2, 80338, Control_c, 0, 11, 97
2, 80347, Control_c, 0, 11, 96
2, 80356, Control_c, 0, 11, 95
2, 80365, Control_c, 0, 11, 94
2, 80374, Control_c, 0, 11, 93
2, 80384, Control_c, 0, 11, 92
2, 80393, Control_c, 0, 11, 91
2, 80402, Control_c, 0, 11, 90
2, 80411, Control_c, 0, 11, 89
2, 80420, Control_c, 0, 11, 88
2, 80429, Control_c, 0, 11, 87
2, 80438, Control_c, 0, 11, 86
2, 80448, Control_c, 0, 11, 85
2, 80457, Control_c, 0, 11, 84
2, 80466, Control_c, 0, 11, 83
2, 80475, Control_c, 0, 11, 82
2, 80484, Control_c, 0, 11, 81
2, 80493, Control_c, 0, 11, 80
2, 80502, Control_c, 0, 11, 79
2, 80512, Control_c, 0, 11, 78
2, 80521, Control_c, 0, 11, 77
2, 80530, Control_c, 0, 11, 76
2, 80539, Control_c, 0, 11, 75
2, 80548, Control_c, 0, 11, 74
2, 80557, Control_c, 0, 11, 73
2, 80566, Control_c, 0, 11, 72
2, 80576, Control_c, 0, 11, 71
2, 80585, Control_c, 0, 11, 70
2, 80592, Note_on_c, 0, 81, 0
2, 80592, Note_on_c, 0, 83, 0
2, 80594, Control_c, 0, 11, 69
2, 80603, Control_c, 0, 11, 68
2, 80612, Control_c, 0, 11, 67
2, 80621, Control_c, 0, 11, 66
2, 80630, Control_c, 0, 11, 65
2, 80640, Control_c, 0, 11, 64
2, 80640, Control_c, 0, 11, 127
2, 81792, Note_on_c, 0, 81, 42
2, 81792, Note_on_c, 0, 83, 50
2, 82336, Note_on_c, 0, 81, 0
2, 82336, Note_on_c, 0, 83, 0
2, 83328, Note_on_c, 0, 81, 46
2, 83328, Note_on_c, 0, 83, 47
2, 83664, Note_on_c, 0, 81, 0
2, 83664, Note_on_c, 0, 83, 0
2, 84480, Note_on_c, 0, 81, 88
2, 84480, Note_on_c, 0, 83, 90
2, 84864, Control_c, 0, 11, 127
2, 84870, Control_c, 0, 11, 126
2, 84876, Control_c, 0, 11, 125
2, 84882, Control_c, 0, 11, 124
2, 84888, Control_c, 0, 11, 123
2, 84894, Control_c, 0, 11, 122
2, 84900, Control_c, 0, 11, 121
2, 84906, Control_c, 0, 11, 120
2, 84912, Control_c, 0, 11, 119
2, 84918, Control_c, 0, 11, 118
2, 84924, Control_c, 0, 11, 117
2, 84931, Control_c, 0, 11, 116
2, 84937, Control_c, 0, 11, 115
2, 84943, Control_c, 0, 11, 114
2, 84949, Control_c, 0, 11, 113
2, 84955, Control_c, 0, 11, 112
2, 84961, Control_c, 0, 11, 111
2, 84967, Control_c, 0, 11, 110
2, 84973, Control_c, 0, 11, 109
2, 84979, Control_c, 0, 11, 108
2, 84985, Control_c, 0, 11, 107
2, 84992, Control_c, 0, 11, 106
2, 84998, Control_c, 0, 11, 105
2, 85004, Control_c, 0, 11, 104
2, 85010, Control_c, 0, 11, 103
2, 85016, Control_c, 0, 11, 102
2, 85022, Control_c, 0, 11, 101
2, 85028, Control_c, 0, 11, 100
2, 85034, Control_c, 0, 11, 99
2, 85040, Control_c, 0, 11, 98
2, 85046, Control_c, 0, 11, 97
2, 85052, Control_c, 0, 11, 96
2, 85059, Control_c, 0, 11, 95
2, 85065, Control_c, 0, 11, 94
2, 85071, Control_c, 0, 11, 93
2, 85077, Control_c, 0, 11, 92
2, 85083, Control_c, 0, 11, 91
2, 85089, Control_c, 0, 11, 90
2, 85095, Control_c, 0, 11, 89
2, 85101, Control_c, 0, 11, 88
2, 85107, Control_c, 0, 11, 87
2, 85113, Control_c, 0, 11, 86
2, 85120, Control_c, 0, 11, 85
2, 85126, Control_c, 0, 11, 84
2, 85132, Control_c, 0, 11, 83
2, 85138, Control_c, 0, 11, 82
2, 85144, Control_c, 0, 11, 81
2, 85150, Control_c, 0, 11, 80
2, 85156, Control_c, 0, 11, 79
2, 85162, Control_c, 0, 11, 78
2, 85168, Control_c, 0, 11, 77
2, 85174, Control_c, 0, 11, 76
2, 85180, Control_c, 0, 11, 75
2, 85187, Control_c, 0, 11, 74
2, 85193, Control_c, 0, 11, 73
2, 85199, Control_c, 0, 11, 72
2, 85200, Note_on_c, 0, 81, 0
2, 85200, Note_on_c, 0, 83, 0
2, 85205, Control_c, 0, 11, 71
2, 85211, Control_c, 0, 11, 70
2, 85217, Control_c, 0, 11, 69
2, 85223, Control_c, 0, 11, 68
2, 85229, Control_c, 0, 11, 67
2, 85235, Control_c, 0, 11, 66
2, 85241, Control_c, 0, 11, 65
2, 85248, Control_c, 0, 11, 64
2, 85632, Control_c, 0, 11, 127
2, 86016, Note_on_c, 0, 81, 78
2, 86016, Note_on_c, 0, 83, 70
2, 86064, Note_on_c, 0, 81, 0
2, 86064, Note_on_c, 0, 83, 0
2, 86160, Note_on_c, 0, 81, 76
2, 86160, Note_on_c, 0, 83, 74
2, 86206, Note_on_c, 0, 81, 0
2, 86206, Note_on_c, 0, 83, 0
2, 86208, Note_on_c, 0, 81, 74
2, 86208, Note_on_c, 0, 83, 79
2, 86256, Note_on_c, 0, 81, 0
2, 86256, Note_on_c, 0, 83, 0
2, 86352, Note_on_c, 0, 81, 74
2, 86352, Note_on_c, 0, 83, 73
2, 86398, Note_on_c, 0, 81, 0
2, 86398, Note_on_c, 0, 83, 0
2, 86400, Note_on_c, 0, 69, 73
2, 86400, Note_on_c, 0, 71, 75
2, 86560, Note_on_c, 0, 69, 0
2, 86560, Note_on_c, 0, 71, 0
2, 87936, Control_c, 0, 11, 75
2, 87936, Note_on_c, 0, 80, 112
2, 87936, Note_on_c, 0, 84, 104
2, 87958, Control_c, 0, 11, 76
2, 87980, Control_c, 0, 11, 77
2, 88002, Control_c, 0, 11, 78
2, 88024, Control_c, 0, 11, 79
2, 88046, Control_c, 0, 11, 80
2, 88068, Control_c, 0, 11, 81
2, 88091, Control_c, 0, 11, 82
2, 88113, Control_c, 0, 11, 83
2, 88135, Control_c, 0, 11, 84
2, 88157, Control_c, 0, 11, 85
2, 88179, Control_c, 0, 11, 86
2, 88201, Control_c, 0, 11, 87
2, 88224, Control_c, 0, 11, 88
2, 88246, Control_c, 0, 11, 89
2, 88268, Control_c, 0, 11, 90
2, 88290, Control_c, 0, 11, 91
2, 88312, Control_c, 0, 11, 92
2, 88334, Control_c, 0, 11, 93
2, 88356, Control_c, 0, 11, 94
2, 88379, Control_c, 0, 11, 95
2, 88401, Control_c, 0, 11, 96
2, 88423, Control_c, 0, 11, 97
2, 88445, Control_c, 0, 11, 98
2, 88467, Control_c, 0, 11, 99
2, 88489, Control_c, 0, 11, 100
2, 88512, Control_c, 0, 11, 101
2, 88534, Control_c, 0, 11, 102
2, 88556, Control_c, 0, 11, 103
2, 88578, Control_c, 0, 11, 104
2, 88600, Control_c, 0, 11, 105
2, 88622, Control_c, 0, 11, 106
2, 88644, Control_c, 0, 11, 107
2, 88667, Control_c, 0, 11, 108
2, 88689, Control_c, 0, 11, 109
2, 88704, Note_on_c, 0, 80, 0
2, 88704, Note_on_c, 0, 84, 0
2, 88704, Note_on_c, 0, 79, 104
2, 88704, Note_on_c, 0, 85, 110
2, 88711, Control_c, 0, 11, 110
2, 88733, Control_c, 0, 11, 111
2, 88755, Control_c, 0, 11, 112
2, 88777, Control_c, 0, 11, 113
2, 88800, Control_c, 0, 11, 114
2, 88822, Control_c, 0, 11, 115
2, 88844, Control_c, 0, 11, 116
2, 88866, Control_c, 0, 11, 117
2, 88888, Control_c, 0, 11, 118
2, 88910, Control_c, 0, 11, 119
2, 88932, Control_c, 0, 11, 120
2, 88955, Control_c, 0, 11, 121
2, 88977, Control_c, 0, 11, 122
2, 88999, Control_c, 0, 11, 123
2, 89021, Control_c, 0, 11, 124
2, 89040, Note_on_c, 0, 79, 0
2, 89040, Note_on_c, 0, 85, 0
2, 89043, Control_c, 0, 11, 125
2, 89065, Control_c, 0, 11, 126
2, 89088, Control_c, 0, 11, 127
2, 91776, Note_on_c, 0, 84, 108
2, 91776, Note_on_c, 0, 88, 106
2, 92448, Note_on_c, 0, 84, 0
2, 92448, Note_on_c, 0, 88, 0
2, 92448, Note_on_c, 0, 83, 105
2, 92448, Note_on_c, 0, 87, 106
2, 92544, Note_on_c, 0, 83, 0
2, 92544, Note_on_c, 0, 87, 0
2, 92544, Note_on_c, 0, 82, 112
2, 92544, Note_on_c, 0, 86, 109
2, 93216, Note_on_c, 0, 82, 0
2, 93216, Note_on_c, 0, 86, 0
2, 93216, Note_on_c, 0, 81, 104
2, 93216, Note_on_c, 0, 85, 106
2, 93312, Note_on_c, 0, 81, 0
2, 93312, Note_on_c, 0, 85, 0
2, 93312, Note_on_c, 0, 80, 110
2, 93312, Note_on_c, 0, 84, 104
2, 93600, Note_on_c, 0, 80, 0
2, 93600, Note_on_c, 0, 84, 0
2, 93600, Note_on_c, 0, 79, 106
2, 93600, Note_on_c, 0, 82, 108
2, 93696, Note_on_c, 0, 79, 0
2, 93696, Note_on_c, 0, 82, 0
2, 93696, Note_on_c, 0, 78, 112
2, 93696, Note_on_c, 0, 82, 103
2, 95184, Note_on_c, 0, 78, 0
2, 95184, Note_on_c, 0, 82, 0
2, 112896, Control_c, 0, 11, 127
2, 113664, Note_on_c, 0, 84, 75
2, 113856, Note_on_c, 0, 84, 0
2, 113856, Note_on_c, 0, 85, 73
2, 114048, Note_on_c, 0, 85, 0
2, 114048, Note_on_c, 0, 82, 73
2, 114176, Note_on_c, 0, 82, 0
2, 114176, Note_on_c, 0, 80, 70
2, 114304, Note_on_c, 0, 80, 0
2, 114304, Note_on_c, 0, 82, 75
2, 114430, Note_on_c, 0, 82, 0
2, 122880, Control_c, 0, 11, 92
2, 122880, Note_on_c, 0, 81, 55
2, 123136, Note_on_c, 0, 81, 0
2, 123136, Note_on_c, 0, 80, 60
2, 123648, Control_c, 0, 11, 92
2, 123669, Control_c, 0, 11, 93
2, 123691, Control_c, 0, 11, 94
2, 123713, Control_c, 0, 11, 95
2, 123735, Control_c, 0, 11, 96
2, 123757, Control_c, 0, 11, 97
2, 123779, Control_c, 0, 11, 98
2, 123801, Control_c, 0, 11, 99
2, 123823, Control_c, 0, 11, 100
2, 123845, Control_c, 0, 11, 101
2, 123867, Control_c, 0, 11, 102
2, 123889, Control_c, 0, 11, 103
2, 123911, Control_c, 0, 11, 104
2, 123933, Control_c, 0, 11, 105
2, 123955, Control_c, 0, 11, 106
2, 123977, Control_c, 0, 11, 107
2, 123999, Control_c, 0, 11, 108
2, 124021, Control_c, 0, 11, 109
2, 124032, Note_on_c, 0, 80, 0
2, 124032, Note_on_c, 0, 81, 57
2, 124042, Control_c, 0, 11, 110
2, 124064, Control_c, 0, 11, 111
2, 124086, Control_c, 0, 11, 112
2, 124108, Control_c, 0, 11, 113
2, 124130, Control_c, 0, 11, 114
2, 124152, Control_c, 0, 11, 115
2, 124174, Control_c, 0, 11, 116
2, 124196, Control_c, 0, 11, 117
2, 124218, Control_c, 0, 11, 118
2, 124240, Control_c, 0, 11, 119
2, 124262, Control_c, 0, 11, 120
2, 124284, Control_c, 0, 11, 121
2, 124288, Note_on_c, 0, 81, 0
2, 124288, Note_on_c, 0, 80, 57
2, 124306, Control_c, 0, 11, 122
2, 124328, Control_c, 0, 11, 123
2, 124350, Control_c, 0, 11, 124
2, 124372, Control_c, 0, 11, 125
2, 124394, Control_c, 0, 11, 126
2, 124414, Note_on_c, 0, 80, 0
2, 124416, Control_c, 0, 11, 127
2, 124416, Control_c, 0, 11, 92
2, 124416, Note_on_c, 0, 82, 59
2, 124672, Note_on_c, 0, 82, 0
2, 124672, Note_on_c, 0, 80, 56
2, 125184, Control_c, 0, 11, 92
2, 125205, Control_c, 0, 11, 93
2, 125227, Control_c, 0, 11, 94
2, 125249, Control_c, 0, 11, 95
2, 125271, Control_c, 0, 11, 96
2, 125293, Control_c, 0, 11, 97
2, 125315, Control_c, 0, 11, 98
2, 125337, Control_c, 0, 11, 99
2, 125359, Control_c, 0, 11, 100
2, 125381, Control_c, 0, 11, 101
2, 125403, Control_c, 0, 11, 102
2, 125425, Control_c, 0, 11, 103
2, 125447, Control_c, 0, 11, 104
2, 125469, Control_c, 0, 11, 105
2, 125491, Control_c, 0, 11, 106
2, 125513, Control_c, 0, 11, 107
2, 125535, Control_c, 0, 11, 108
2, 125557, Control_c, 0, 11, 109
2, 125568, Note_on_c, 0, 80, 0
2, 125568, Note_on_c, 0, 82, 57
2, 125578, Control_c, 0, 11, 110
2, 125600, Control_c, 0, 11, 111
2, 125622, Control_c, 0, 11, 112
2, 125644, Control_c, 0, 11, 113
2, 125666, Control_c, 0, 11, 114
2, 125688, Control_c, 0, 11, 115
2, 125710, Control_c, 0, 11, 116
2, 125732, Control_c, 0, 11, 117
2, 125754, Control_c, 0, 11, 118
2, 125776, Control_c, 0, 11, 119
2, 125798, Control_c, 0, 11, 120
2, 125820, Control_c, 0, 11, 121
2, 125824, Note_on_c, 0, 82, 0
2, 125824, Note_on_c, 0, 80, 63
2, 125842, Control_c, 0, 11, 122
2, 125864, Control_c, 0, 11, 123
2, 125886, Control_c, 0, 11, 124
2, 125908, Control_c, 0, 11, 125
2, 125930, Control_c, 0, 11, 126
2, 125950, Note_on_c, 0, 80, 0
2, 125952, Control_c, 0, 11, 127
2, 125952, Control_c, 0, 11, 64
2, 125952, Note_on_c, 0, 83, 94
2, 125976, Control_c, 0, 11, 65
2, 126000, Control_c, 0, 11, 66
2, 126025, Control_c, 0, 11, 67
2, 126049, Control_c, 0, 11, 68
2, 126073, Control_c, 0, 11, 69
2, 126098, Control_c, 0, 11, 70
2, 126122, Control_c, 0, 11, 71
2, 126147, Control_c, 0, 11, 72
2, 126171, Control_c, 0, 11, 73
2, 126195, Control_c, 0, 11, 74
2, 126220, Control_c, 0, 11, 75
2, 126240, Note_on_c, 0, 83, 0
2, 126240, Note_on_c, 0, 82, 95
2, 126244, Control_c, 0, 11, 76
2, 126268, Control_c, 0, 11, 77
2, 126293, Control_c, 0, 11, 78
2, 126317, Control_c, 0, 11, 79
2, 126334, Note_on_c, 0, 82, 0
2, 126336, Note_on_c, 0, 81, 89
2, 126342, Control_c, 0, 11, 80
2, 126366, Control_c, 0, 11, 81
2, 126390, Control_c, 0, 11, 82
2, 126415, Control_c, 0, 11, 83
2, 126439, Control_c, 0, 11, 84
2, 126464, Control_c, 0, 11, 85
2, 126488, Control_c, 0, 11, 86
2, 126512, Control_c, 0, 11, 87
2, 126537, Control_c, 0, 11, 88
2, 126561, Control_c, 0, 11, 89
2, 126585, Control_c, 0, 11, 90
2, 126610, Control_c, 0, 11, 91
2, 126624, Note_on_c, 0, 81, 0
2, 126624, Note_on_c, 0, 80, 90
2, 126634, Control_c, 0, 11, 92
2, 126659, Control_c, 0, 11, 93
2, 126683, Control_c, 0, 11, 94
2, 126707, Control_c, 0, 11, 95
2, 126718, Note_on_c, 0, 80, 0
2, 126720, Note_on_c, 0, 79, 95
2, 126732, Control_c, 0, 11, 96
2, 126756, Control_c, 0, 11, 97
2, 126780, Control_c, 0, 11, 98
2, 126805, Control_c, 0, 11, 99
2, 126829, Control_c, 0, 11, 100
2, 126854, Control_c, 0, 11, 101
2, 126878, Control_c, 0, 11, 102
2, 126902, Control_c, 0, 11, 103
2, 126927, Control_c, 0, 11, 104
2, 126951, Control_c, 0, 11, 105
2, 126976, Control_c, 0, 11, 106
2, 127000, Control_c, 0, 11, 107
2, 127008, Note_on_c, 0, 79, 0
2, 127008, Note_on_c, 0, 78, 94
2, 127024, Control_c, 0, 11, 108
2, 127049, Control_c, 0, 11, 109
2, 127073, Control_c, 0, 11, 110
2, 127097, Control_c, 0, 11, 111
2, 127102, Note_on_c, 0, 78, 0
2, 127104, Note_on_c, 0, 77, 88
2, 127122, Control_c, 0, 11, 112
2, 127146, Control_c, 0, 11, 113
2, 127171, Control_c, 0, 11, 114
2, 127195, Control_c, 0, 11, 115
2, 127219, Control_c, 0, 11, 116
2, 127244, Control_c, 0, 11, 117
2, 127268, Control_c, 0, 11, 118
2, 127292, Control_c, 0, 11, 119
2, 127317, Control_c, 0, 11, 120
2, 127341, Control_c, 0, 11, 121
2, 127366, Control_c, 0, 11, 122
2, 127390, Control_c, 0, 11, 123
2, 127392, Note_on_c, 0, 77, 0
2, 127392, Note_on_c, 0, 76, 92
2, 127414, Control_c, 0, 11, 124
2, 127439, Control_c, 0, 11, 125
2, 127463, Control_c, 0, 11, 126
2, 127486, Note_on_c, 0, 76, 0
2, 127488, Control_c, 0, 11, 127
2, 127488, Control_c, 0, 11, 64
2, 127488, Note_on_c, 0, 75, 90
2, 127501, Control_c, 0, 11, 65
2, 127515, Control_c, 0, 11, 66
2, 127529, Control_c, 0, 11, 67
2, 127542, Control_c, 0, 11, 68
2, 127556, Control_c, 0, 11, 69
2, 127570, Control_c, 0, 11, 70
2, 127584, Control_c, 0, 11, 71
2, 127597, Control_c, 0, 11, 72
2, 127611, Control_c, 0, 11, 73
2, 127625, Control_c, 0, 11, 74
2, 127638, Control_c, 0, 11, 75
2, 127652, Control_c, 0, 11, 76
2, 127666, Control_c, 0, 11, 77
2, 127680, Control_c, 0, 11, 78
2, 127693, Control_c, 0, 11, 79
2, 127707, Control_c, 0, 11, 80
2, 127721, Control_c, 0, 11, 81
2, 127734, Control_c, 0, 11, 82
2, 127748, Control_c, 0, 11, 83
2, 127762, Control_c, 0, 11, 84
2, 127776, Note_on_c, 0, 75, 0
2, 127776, Control_c, 0, 11, 85
2, 127776, Note_on_c, 0, 74, 90
2, 127789, Control_c, 0, 11, 86
2, 127803, Control_c, 0, 11, 87
2, 127817, Control_c, 0, 11, 88
2, 127830, Control_c, 0, 11, 89
2, 127844, Control_c, 0, 11, 90
2, 127858, Control_c, 0, 11, 91
2, 127870, Note_on_c, 0, 74, 0
2, 127872, Control_c, 0, 11, 92
2, 127872, Note_on_c, 0, 73, 95
2, 127885, Control_c, 0, 11, 91
2, 127899, Control_c, 0, 11, 90
2, 127913, Control_c, 0, 11, 89
2, 127926, Control_c, 0, 11, 88
2, 127940, Control_c, 0, 11, 87
2, 127954, Control_c, 0, 11, 86
2, 127968, Control_c, 0, 11, 85
2, 127981, Control_c, 0, 11, 84
2, 127995, Control_c, 0, 11, 83
2, 128009, Control_c, 0, 11, 82
2, 128022, Control_c, 0, 11, 81
2, 128036, Control_c, 0, 11, 80
2, 128050, Control_c, 0, 11, 79
2, 128064, Control_c, 0, 11, 78
2, 128077, Control_c, 0, 11, 77
2, 128091, Control_c, 0, 11, 76
2, 128105, Control_c, 0, 11, 75
2, 128118, Control_c, 0, 11, 74
2, 128132, Control_c, 0, 11, 73
2, 128146, Control_c, 0, 11, 72
2, 128160, Note_on_c, 0, 73, 0
2, 128160, Control_c, 0, 11, 71
2, 128160, Note_on_c, 0, 74, 89
2, 128173, Control_c, 0, 11, 70
2, 128187, Control_c, 0, 11, 69
2, 128201, Control_c, 0, 11, 68
2, 128214, Control_c, 0, 11, 67
2, 128228, Control_c, 0, 11, 66
2, 128242, Control_c, 0, 11, 65
2, 128254, Note_on_c, 0, 74, 0
2, 128256, Control_c, 0, 11, 64
2, 128256, Control_c, 0, 11, 64
2, 128256, Note_on_c, 0, 75, 93
2, 128269, Control_c, 0, 11, 65
2, 128283, Control_c, 0, 11, 66
2, 128297, Control_c, 0, 11, 67
2, 128310, Control_c, 0, 11, 68
2, 128324, Control_c, 0, 11, 69
2, 128338, Control_c, 0, 11, 70
2, 128352, Control_c, 0, 11, 71
2, 128365, Control_c, 0, 11, 72
2, 128379, Control_c, 0, 11, 73
2, 128393, Control_c, 0, 11, 74
2, 128406, Control_c, 0, 11, 75
2, 128420, Control_c, 0, 11, 76
2, 128434, Control_c, 0, 11, 77
2, 128448, Control_c, 0, 11, 78
2, 128461, Control_c, 0, 11, 79
2, 128475, Control_c, 0, 11, 80
2, 128489, Control_c, 0, 11, 81
2, 128502, Control_c, 0, 11, 82
2, 128516, Control_c, 0, 11, 83
2, 128530, Control_c, 0, 11, 84
2, 128544, Note_on_c, 0, 75, 0
2, 128544, Control_c, 0, 11, 85
2, 128544, Note_on_c, 0, 74, 88
2, 128557, Control_c, 0, 11, 86
2, 128571, Control_c, 0, 11, 87
2, 128585, Control_c, 0, 11, 88
2, 128598, Control_c, 0, 11, 89
2, 128612, Control_c, 0, 11, 90
2, 128626, Control_c, 0, 11, 91
2, 128640, Note_on_c, 0, 74, 0
2, 128640, Control_c, 0, 11, 92
2, 128640, Note_on_c, 0, 73, 90
2, 128653, Control_c, 0, 11, 91
2, 128667, Control_c, 0, 11, 90
2, 128681, Control_c, 0, 11, 89
2, 128694, Control_c, 0, 11, 88
2, 128708, Control_c, 0, 11, 87
2, 128722, Control_c, 0, 11, 86
2, 128736, Note_on_c, 0, 73, 0
2, 128736, Control_c, 0, 11, 85
2, 128736, Note_on_c, 0, 72, 93
2, 128749, Control_c, 0, 11, 84
2, 128763, Control_c, 0, 11, 83
2, 128777, Control_c, 0, 11, 82
2, 128790, Control_c, 0, 11, 81
2, 128804, Control_c, 0, 11, 80
2, 128818, Control_c, 0, 11, 79
2, 128832, Note_on_c, 0, 72, 0
2, 128832, Control_c, 0, 11, 78
2, 128832, Note_on_c, 0, 71, 88
2, 128845, Control_c, 0, 11, 77
2, 128859, Control_c, 0, 11, 76
2, 128873, Control_c, 0, 11, 75
2, 128886, Control_c, 0, 11, 74
2, 128900, Control_c, 0, 11, 73
2, 128914, Control_c, 0, 11, 72
2, 128928, Note_on_c, 0, 71, 0
2, 128928, Control_c, 0, 11, 71
2, 128928, Note_on_c, 0, 70, 97
2, 128941, Control_c, 0, 11, 70
2, 128955, Control_c, 0, 11, 69
2, 128969, Control_c, 0, 11, 68
2, 128982, Control_c, 0, 11, 67
2, 128996, Control_c, 0, 11, 66
2, 129010, Control_c, 0, 11, 65
2, 129022, Note_on_c, 0, 70, 0
2, 129024, Control_c, 0, 11, 64
2, 129024, Note_on_c, 0, 69, 92
2, 129312, Note_on_c, 0, 69, 0
2, 129312, Note_on_c, 0, 68, 94
2, 129406, Note_on_c, 0, 68, 0
2, 129408, Note_on_c, 0, 67, 87
2, 129696, Note_on_c, 0, 67, 0
2, 129696, Note_on_c, 0, 68, 93
2, 129790, Note_on_c, 0, 68, 0
2, 129792, Note_on_c, 0, 69, 92
2, 130080, Note_on_c, 0, 69, 0
2, 130080, Note_on_c, 0, 68, 96
2, 130174, Note_on_c, 0, 68, 0
2, 130176, Note_on_c, 0, 67, 97
2, 130464, Note_on_c, 0, 67, 0
2, 130464, Note_on_c, 0, 68, 91
2, 130558, Note_on_c, 0, 68, 0
2, 130560, Note_on_c, 0, 65, 93
2, 130848, Note_on_c, 0, 65, 0
2, 130848, Note_on_c, 0, 64, 91
2, 130942, Note_on_c, 0, 64, 0
2, 130944, Note_on_c, 0, 63, 91
2, 131232, Note_on_c, 0, 63, 0
2, 131232, Note_on_c, 0, 64, 93
2, 131326, Note_on_c, 0, 64, 0
2, 131328, Note_on_c, 0, 65, 91
2, 131616, Note_on_c, 0, 65, 0
2, 131616, Note_on_c, 0, 69, 95
2, 131710, Note_on_c, 0, 69, 0
2, 131712, Note_on_c, 0, 65, 97
2, 132000, Note_on_c, 0, 65, 0
2, 132000, Note_on_c, 0, 69, 96
2, 132094, Note_on_c, 0, 69, 0
2, 132096, Control_c, 0, 11, 92
2, 132096, Note_on_c, 0, 81, 56
2, 132352, Note_on_c, 0, 81, 0
2, 132352, Note_on_c, 0, 80, 58
2, 132864, Control_c, 0, 11, 92
2, 132885, Control_c, 0, 11, 93
2, 132907, Control_c, 0, 11, 94
2, 132929, Control_c, 0, 11, 95
2, 132951, Control_c, 0, 11, 96
2, 132973, Control_c, 0, 11, 97
2, 132995, Control_c, 0, 11, 98
2, 133017, Control_c, 0, 11, 99
2, 133039, Control_c, 0, 11, 100
2, 133061, Control_c, 0, 11, 101
2, 133083, Control_c, 0, 11, 102
2, 133105, Control_c, 0, 11, 103
2, 133127, Control_c, 0, 11, 104
2, 133149, Control_c, 0, 11, 105
2, 133171, Control_c, 0, 11, 106
2, 133193, Control_c, 0, 11, 107
2, 133215, Control_c, 0, 11, 108
2, 133237, Control_c, 0, 11, 109
2, 133248, Note_on_c, 0, 80, 0
2, 133248, Note_on_c, 0, 81, 58
2, 133258, Control_c, 0, 11, 110
2, 133280, Control_c, 0, 11, 111
2, 133302, Control_c, 0, 11, 112
2, 133324, Control_c, 0, 11, 113
2, 133346, Control_c, 0, 11, 114
2, 133368, Control_c, 0, 11, 115
2, 133376, Note_on_c, 0, 81, 0
2, 133376, Note_on_c, 0, 81, 57
2, 133390, Control_c, 0, 11, 116
2, 133412, Control_c, 0, 11, 117
2, 133434, Control_c, 0, 11, 118
2, 133456, Control_c, 0, 11, 119
2, 133478, Control_c, 0, 11, 120
2, 133500, Control_c, 0, 11, 121
2, 133504, Note_on_c, 0, 81, 0
2, 133504, Note_on_c, 0, 80, 62
2, 133522, Control_c, 0, 11, 122
2, 133544, Control_c, 0, 11, 123
2, 133566, Control_c, 0, 11, 124
2, 133588, Control_c, 0, 11, 125
2, 133610, Control_c, 0, 11, 126
2, 133630, Note_on_c, 0, 80, 0
2, 133632, Control_c, 0, 11, 127
2, 133632, Control_c, 0, 11, 92
2, 133632, Note_on_c, 0, 82, 60
2, 133888, Note_on_c, 0, 82, 0
2, 133888, Note_on_c, 0, 80, 65
2, 134400, Control_c, 0, 11, 92
2, 134421, Control_c, 0, 11, 93
2, 134443, Control_c, 0, 11, 94
2, 134465, Control_c, 0, 11, 95
2, 134487, Control_c, 0, 11, 96
2, 134509, Control_c, 0, 11, 97
2, 134531, Control_c, 0, 11, 98
2, 134553, Control_c, 0, 11, 99
2, 134575, Control_c, 0, 11, 100
2, 134597, Control_c, 0, 11, 101
2, 134619, Control_c, 0, 11, 102
2, 134641, Control_c, 0, 11, 103
2, 134663, Control_c, 0, 11, 104
2, 134685, Control_c, 0, 11, 105
2, 134707, Control_c, 0, 11, 106
2, 134729, Control_c, 0, 11, 107
2, 134751, Control_c, 0, 11, 108
2, 134773, Control_c, 0, 11, 109
2, 134784, Note_on_c, 0, 80, 0
2, 134784, Note_on_c, 0, 82, 57
2, 134794, Control_c, 0, 11, 110
2, 134816, Control_c, 0, 11, 111
2, 134838, Control_c, 0, 11, 112
2, 134860, Control_c, 0, 11, 113
2, 134882, Control_c, 0, 11, 114
2, 134904, Control_c, 0, 11, 115
2, 134912, Note_on_c, 0, 82, 0
2, 134912, Note_on_c, 0, 82, 57
2, 134926, Control_c, 0, 11, 116
2, 134948, Control_c, 0, 11, 117
2, 134970, Control_c, 0, 11, 118
2, 134992, Control_c, 0, 11, 119
2, 135014, Control_c, 0, 11, 120
2, 135036, Control_c, 0, 11, 121
2, 135040, Note_on_c, 0, 82, 0
2, 135040, Note_on_c, 0, 80, 65
2, 135058, Control_c, 0, 11, 122
2, 135080, Control_c, 0, 11, 123
2, 135102, Control_c, 0, 11, 124
2, 135124, Control_c, 0, 11, 125
2, 135146, Control_c, 0, 11, 126
2, 135166, Note_on_c, 0, 80, 0
2, 135168, Control_c, 0, 11, 127
2, 135168, Control_c, 0, 11, 64
2, 135168, Note_on_c, 0, 83, 96
2, 135192, Control_c, 0, 11, 65
2, 135216, Control_c, 0, 11, 66
2, 135241, Control_c, 0, 11, 67
2, 135265, Control_c, 0, 11, 68
2, 135289, Control_c, 0, 11, 69
2, 135314, Control_c, 0, 11, 70
2, 135338, Control_c, 0, 11, 71
2, 135363, Control_c, 0, 11, 72
2, 135387, Control_c, 0, 11, 73
2, 135411, Control_c, 0, 11, 74
2, 135436, Control_c, 0, 11, 75
2, 135456, Note_on_c, 0, 83, 0
2, 135456, Note_on_c, 0, 82, 94
2, 135460, Control_c, 0, 11, 76
2, 135484, Control_c, 0, 11, 77
2, 135509, Control_c, 0, 11, 78
2, 135533, Control_c, 0, 11, 79
2, 135550, Note_on_c, 0, 82, 0
2, 135552, Note_on_c, 0, 81, 94
2, 135558, Control_c, 0, 11, 80
2, 135582, Control_c, 0, 11, 81
2, 135606, Control_c, 0, 11, 82
2, 135631, Control_c, 0, 11, 83
2, 135655, Control_c, 0, 11, 84
2, 135680, Control_c, 0, 11, 85
2, 135704, Control_c, 0, 11, 86
2, 135728, Control_c, 0, 11, 87
2, 135753, Control_c, 0, 11, 88
2, 135777, Control_c, 0, 11, 89
2, 135801, Control_c, 0, 11, 90
2, 135826, Control_c, 0, 11, 91
2, 135840, Note_on_c, 0, 81, 0
2, 135840, Note_on_c, 0, 80, 90
2, 135850, Control_c, 0, 11, 92
2, 135875, Control_c, 0, 11, 93
2, 135899, Control_c, 0, 11, 94
2, 135923, Control_c, 0, 11, 95
2, 135934, Note_on_c, 0, 80, 0
2, 135936, Note_on_c, 0, 79, 92
2, 135948, Control_c, 0, 11, 96
2, 135972, Control_c, 0, 11, 97
2, 135996, Control_c, 0, 11, 98
2, 136021, Control_c, 0, 11, 99
2, 136045, Control_c, 0, 11, 100
2, 136070, Control_c, 0, 11, 101
2, 136094, Control_c, 0, 11, 102
2, 136118, Control_c, 0, 11, 103
2, 136143, Control_c, 0, 11, 104
2, 136167, Control_c, 0, 11, 105
2, 136192, Control_c, 0, 11, 106
2, 136216, Control_c, 0, 11, 107
2, 136224, Note_on_c, 0, 79, 0
2, 136224, Note_on_c, 0, 78, 96
2, 136240, Control_c, 0, 11, 108
2, 136265, Control_c, 0, 11, 109
2, 136289, Control_c, 0, 11, 110
2, 136313, Control_c, 0, 11, 111
2, 136318, Note_on_c, 0, 78, 0
2, 136320, Note_on_c, 0, 77, 92
2, 136338, Control_c, 0, 11, 112
2, 136362, Control_c, 0, 11, 113
2, 136387, Control_c, 0, 11, 114
2, 136411, Control_c, 0, 11, 115
2, 136435, Control_c, 0, 11, 116
2, 136460, Control_c, 0, 11, 117
2, 136484, Control_c, 0, 11, 118
2, 136508, Control_c, 0, 11, 119
2, 136533, Control_c, 0, 11, 120
2, 136557, Control_c, 0, 11, 121
2, 136582, Control_c, 0, 11, 122
2, 136606, Control_c, 0, 11, 123
2, 136608, Note_on_c, 0, 77, 0
2, 136608, Note_on_c, 0, 76, 97
2, 136630, Control_c, 0, 11, 124
2, 136655, Control_c, 0, 11, 125
2, 136679, Control_c, 0, 11, 126
2, 136702, Note_on_c, 0, 76, 0
2, 136704, Control_c, 0, 11, 127
2, 136704, Control_c, 0, 11, 64
2, 136704, Note_on_c, 0, 75, 89
2, 136717, Control_c, 0, 11, 65
2, 136731, Control_c, 0, 11, 66
2, 136745, Control_c, 0, 11, 67
2, 136758, Control_c, 0, 11, 68
2, 136772, Control_c, 0, 11, 69
2, 136786, Control_c, 0, 11, 70
2, 136800, Control_c, 0, 11, 71
2, 136813, Control_c, 0, 11, 72
2, 136827, Control_c, 0, 11, 73
2, 136841, Control_c, 0, 11, 74
2, 136854, Control_c, 0, 11, 75
2, 136868, Control_c, 0, 11, 76
2, 136882, Control_c, 0, 11, 77
2, 136896, Control_c, 0, 11, 78
2, 136909, Control_c, 0, 11, 79
2, 136923, Control_c, 0, 11, 80
2, 136937, Control_c, 0, 11, 81
2, 136950, Control_c, 0, 11, 82
2, 136964, Control_c, 0, 11, 83
2, 136978, Control_c, 0, 11, 84
2, 136992, Note_on_c, 0, 75, 0
2, 136992, Control_c, 0, 11, 85
2, 136992, Note_on_c, 0, 74, 89
2, 137005, Control_c, 0, 11, 86
2, 137019, Control_c, 0, 11, 87
2, 137033, Control_c, 0, 11, 88
2, 137046, Control_c, 0, 11, 89
2, 137060, Control_c, 0, 11, 90
2, 137074, Control_c, 0, 11, 91
2, 137086, Note_on_c, 0, 74, 0
2, 137088, Control_c, 0, 11, 92
2, 137088, Note_on_c, 0, 73, 90
2, 137101, Control_c, 0, 11, 91
2, 137115, Control_c, 0, 11, 90
2, 137129, Control_c, 0, 11, 89
2, 137142, Control_c, 0, 11, 88
2, 137156, Control_c, 0, 11, 87
2, 137170, Control_c, 0, 11, 86
2, 137184, Control_c, 0, 11, 85
2, 137197, Control_c, 0, 11, 84
2, 137211, Control_c, 0, 11, 83
2, 137225, Control_c, 0, 11, 82
2, 137238, Control_c, 0, 11, 81
2, 137252, Control_c, 0, 11, 80
2, 137266, Control_c, 0, 11, 79
2, 137280, Control_c, 0, 11, 78
2, 137293, Control_c, 0, 11, 77
2, 137307, Control_c, 0, 11, 76
2, 137321, Control_c, 0, 11, 75
2, 137334, Control_c, 0, 11, 74
2, 137348, Control_c, 0, 11, 73
2, 137362, Control_c, 0, 11, 72
2, 137376, Note_on_c, 0, 73, 0
2, 137376, Control_c, 0, 11, 71
2, 137376, Note_on_c, 0, 74, 97
2, 137389, Control_c, 0, 11, 70
2, 137403, Control_c, 0, 11, 69
2, 137417, Control_c, 0, 11, 68
2, 137430, Control_c, 0, 11, 67
2, 137444, Control_c, 0, 11, 66
2, 137458, Control_c, 0, 11, 65
2, 137470, Note_on_c, 0, 74, 0
2, 137472, Control_c, 0, 11, 64
2, 137472, Control_c, 0, 11, 64
2, 137472, Note_on_c, 0, 75, 90
2, 137485, Control_c, 0, 11, 65
2, 137499, Control_c, 0, 11, 66
2, 137513, Control_c, 0, 11, 67
2, 137526, Control_c, 0, 11, 68
2, 137540, Control_c, 0, 11, 69
2, 137554, Control_c, 0, 11, 70
2, 137568, Control_c, 0, 11, 71
2, 137581, Control_c, 0, 11, 72
2, 137595, Control_c, 0, 11, 73
2, 137609, Control_c, 0, 11, 74
2, 137622, Control_c, 0, 11, 75
2, 137636, Control_c, 0, 11, 76
2, 137650, Control_c, 0, 11, 77
2, 137664, Control_c, 0, 11, 78
2, 137677, Control_c, 0, 11, 79
2, 137691, Control_c, 0, 11, 80
2, 137705, Control_c, 0, 11, 81
2, 137718, Control_c, 0, 11, 82
2, 137732, Control_c, 0, 11, 83
2, 137746, Control_c, 0, 11, 84
2, 137760, Note_on_c, 0, 75, 0
2, 137760, Control_c, 0, 11, 85
2, 137760, Note_on_c, 0, 74, 92
2, 137773, Control_c, 0, 11, 86
2, 137787, Control_c, 0, 11, 87
2, 137801, Control_c, 0, 11, 88
2, 137814, Control_c, 0, 11, 89
2, 137828, Control_c, 0, 11, 90
2, 137842, Control_c, 0, 11, 91
2, 137856, Note_on_c, 0, 74, 0
2, 137856, Control_c, 0, 11, 92
2, 137856, Note_on_c, 0, 73, 97
2, 137869, Control_c, 0, 11, 91
2, 137883, Control_c, 0, 11, 90
2, 137897, Control_c, 0, 11, 89
2, 137910, Control_c, 0, 11, 88
2, 137924, Control_c, 0, 11, 87
2, 137938, Control_c, 0, 11, 86
2, 137952, Note_on_c, 0, 73, 0
2, 137952, Control_c, 0, 11, 85
2, 137952, Note_on_c, 0, 72, 88
2, 137965, Control_c, 0, 11, 84
2, 137979, Control_c, 0, 11, 83
2, 137993, Control_c, 0, 11, 82
2, 138006, Control_c, 0, 11, 81
2, 138020, Control_c, 0, 11, 80
2, 138034, Control_c, 0, 11, 79
2, 138048, Note_on_c, 0, 72, 0
2, 138048, Control_c, 0, 11, 78
2, 138048, Note_on_c, 0, 71, 93
2, 138061, Control_c, 0, 11, 77
2, 138075, Control_c, 0, 11, 76
2, 138089, Control_c, 0, 11, 75
2, 138102, Control_c, 0, 11, 74
2, 138116, Control_c, 0, 11, 73
2, 138130, Control_c, 0, 11, 72
2, 138144, Note_on_c, 0, 71, 0
2, 138144, Control_c, 0, 11, 71
2, 138144, Note_on_c, 0, 70, 90
2, 138157, Control_c, 0, 11, 70
2, 138171, Control_c, 0, 11, 69
2, 138185, Control_c, 0, 11, 68
2, 138198, Control_c, 0, 11, 67
2, 138212, Control_c, 0, 11, 66
2, 138226, Control_c, 0, 11, 65
2, 138238, Note_on_c, 0, 70, 0
2, 138240, Control_c, 0, 11, 64
2, 138240, Note_on_c, 0, 69, 87
2, 138400, Note_on_c, 0, 69, 0
2, 144384, Note_on_c, 0, 74, 40
2, 144452, Note_on_c, 0, 74, 0
2, 144480, Note_on_c, 0, 74, 45
2, 144548, Note_on_c, 0, 74, 0
2, 144576, Note_on_c, 0, 74, 50
2, 144644, Note_on_c, 0, 74, 0
2, 144672, Note_on_c, 0, 73, 40
2, 144740, Note_on_c, 0, 73, 0
2, 144768, Note_on_c, 0, 72, 48
2, 144836, Note_on_c, 0, 72, 0
2, 144864, Note_on_c, 0, 72, 46
2, 144932, Note_on_c, 0, 72, 0
2, 144960, Note_on_c, 0, 72, 45
2, 145028, Note_on_c, 0, 72, 0
2, 145056, Note_on_c, 0, 73, 47
2, 145124, Note_on_c, 0, 73, 0
2, 145152, Note_on_c, 0, 74, 49
2, 145220, Note_on_c, 0, 74, 0
2, 145248, Note_on_c, 0, 74, 44
2, 145316, Note_on_c, 0, 74, 0
2, 145344, Note_on_c, 0, 74, 45
2, 145412, Note_on_c, 0, 74, 0
2, 145440, Note_on_c, 0, 73, 40
2, 145508, Note_on_c, 0, 73, 0
2, 145536, Note_on_c, 0, 72, 45
2, 145604, Note_on_c, 0, 72, 0
2, 145632, Note_on_c, 0, 72, 43
2, 145700, Note_on_c, 0, 72, 0
2, 145728, Note_on_c, 0, 72, 50
2, 145796, Note_on_c, 0, 72, 0
2, 145824, Note_on_c, 0, 76, 47
2, 145892, Note_on_c, 0, 76, 0
2, 145920, Note_on_c, 0, 74, 44
2, 145920, Note_on_c, 0, 86, 48
2, 145988, Note_on_c, 0, 74, 0
2, 145988, Note_on_c, 0, 86, 0
2, 146016, Note_on_c, 0, 74, 50
2, 146016, Note_on_c, 0, 86, 50
2, 146084, Note_on_c, 0, 74, 0
2, 146084, Note_on_c, 0, 86, 0
2, 146112, Note_on_c, 0, 74, 50
2, 146112, Note_on_c, 0, 86, 44
2, 146180, Note_on_c, 0, 74, 0
2, 146180, Note_on_c, 0, 86, 0
2, 146208, Note_on_c, 0, 73, 49
2, 146208, Note_on_c, 0, 85, 45
2, 146276, Note_on_c, 0, 73, 0
2, 146276, Note_on_c, 0, 85, 0
2, 146304, Note_on_c, 0, 72, 51
2, 146304, Note_on_c, 0, 84, 41
2, 146372, Note_on_c, 0, 72, 0
2, 146372, Note_on_c, 0, 84, 0
2, 146400, Note_on_c, 0, 72, 42
2, 146400, Note_on_c, 0, 84, 44
2, 146468, Note_on_c, 0, 72, 0
2, 146468, Note_on_c, 0, 84, 0
2, 146496, Note_on_c, 0, 72, 53
2, 146496, Note_on_c, 0, 84, 46
2, 146564, Note_on_c, 0, 72, 0
2, 146564, Note_on_c, 0, 84, 0
2, 146592, Note_on_c, 0, 73, 51
2, 146592, Note_on_c, 0, 85, 53
2, 146660, Note_on_c, 0, 73, 0
2, 146660, Note_on_c, 0, 85, 0
2, 146688, Note_on_c, 0, 74, 50
2, 146688, Note_on_c, 0, 86, 49
2, 146756, Note_on_c, 0, 74, 0
2, 146756, Note_on_c, 0, 86, 0
2, 146784, Note_on_c, 0, 74, 53
2, 146784, Note_on_c, 0, 86, 55
2, 146852, Note_on_c, 0, 74, 0
2, 146852, Note_on_c, 0, 86, 0
2, 146880, Note_on_c, 0, 74, 54
2, 146880, Note_on_c, 0, 86, 51
2, 146948, Note_on_c, 0, 74, 0
2, 146948, Note_on_c, 0, 86, 0
2, 146976, Note_on_c, 0, 73, 58
2, 146976, Note_on_c, 0, 85, 55
2, 147044, Note_on_c, 0, 73, 0
2, 147044, Note_on_c, 0, 85, 0
2, 147072, Note_on_c, 0, 72, 57
2, 147072, Note_on_c, 0, 84, 52
2, 147140, Note_on_c, 0, 72, 0
2, 147140, Note_on_c, 0, 84, 0
2, 147168, Note_on_c, 0, 72, 52
2, 147168, Note_on_c, 0, 84, 58
2, 147236, Note_on_c, 0, 72, 0
2, 147236, Note_on_c, 0, 84, 0
2, 147264, Note_on_c, 0, 72, 55
2, 147264, Note_on_c, 0, 84, 61
2, 147332, Note_on_c, 0, 72, 0
2, 147332, Note_on_c, 0, 84, 0
2, 147360, Note_on_c, 0, 76, 59
2, 147360, Note_on_c, 0, 88, 52
2, 147428, Note_on_c, 0, 76, 0
2, 147428, Note_on_c, 0, 88, 0
2, 147456, Note_on_c, 0, 76, 60
2, 147456, Note_on_c, 0, 88, 57
2, 147524, Note_on_c, 0, 76, 0
2, 147524, Note_on_c, 0, 88, 0
2, 147552, Note_on_c, 0, 76, 63
2, 147552, Note_on_c, 0, 88, 57
2, 147620, Note_on_c, 0, 76, 0
2, 147620, Note_on_c, 0, 88, 0
2, 147648, Note_on_c, 0, 76, 60
2, 147648, Note_on_c, 0, 88, 56
2, 147716, Note_on_c, 0, 76, 0
2, 147716, Note_on_c, 0, 88, 0
2, 147744, Note_on_c, 0, 74, 63
2, 147744, Note_on_c, 0, 86, 66
2, 147812, Note_on_c, 0, 74, 0
2, 147812, Note_on_c, 0, 86, 0
2, 147840, Note_on_c, 0, 76, 60
2, 147840, Note_on_c, 0, 88, 63
2, 147908, Note_on_c, 0, 76, 0
2, 147908, Note_on_c, 0, 88, 0
2, 147936, Note_on_c, 0, 76, 63
2, 147936, Note_on_c, 0, 88, 61
2, 148004, Note_on_c, 0, 76, 0
2, 148004, Note_on_c, 0, 88, 0
2, 148032, Note_on_c, 0, 76, 62
2, 148032, Note_on_c, 0, 88, 62
2, 148100, Note_on_c, 0, 76, 0
2, 148100, Note_on_c, 0, 88, 0
2, 148128, Note_on_c, 0, 78, 66
2, 148128, Note_on_c, 0, 90, 70
2, 148196, Note_on_c, 0, 78, 0
2, 148196, Note_on_c, 0, 90, 0
2, 148224, Note_on_c, 0, 78, 69
2, 148224, Note_on_c, 0, 90, 69
2, 148292, Note_on_c, 0, 78, 0
2, 148292, Note_on_c, 0, 90, 0
2, 148320, Note_on_c, 0, 78, 72
2, 148320, Note_on_c, 0, 90, 63
2, 148388, Note_on_c, 0, 78, 0
2, 148388, Note_on_c, 0, 90, 0
2, 148416, Note_on_c, 0, 78, 69
2, 148416, Note_on_c, 0, 90, 72
2, 148484, Note_on_c, 0, 78, 0
2, 148484, Note_on_c, 0, 90, 0
2, 148512, Note_on_c, 0, 76, 65
2, 148512, Note_on_c, 0, 88, 73
2, 148580, Note_on_c, 0, 76, 0
2, 148580, Note_on_c, 0, 88, 0
2, 148608, Note_on_c, 0, 78, 72
2, 148608, Note_on_c, 0, 90, 75
2, 148676, Note_on_c, 0, 78, 0
2, 148676, Note_on_c, 0, 90, 0
2, 148704, Note_on_c, 0, 78, 71
2, 148704, Note_on_c, 0, 90, 76
2, 148772, Note_on_c, 0, 78, 0
2, 148772, Note_on_c, 0, 90, 0
2, 148800, Note_on_c, 0, 78, 74
2, 148800, Note_on_c, 0, 90, 74
2, 148868, Note_on_c, 0, 78, 0
2, 148868, Note_on_c, 0, 90, 0
2, 148896, Note_on_c, 0, 79, 70
2, 148896, Note_on_c, 0, 91, 76
2, 148964, Note_on_c, 0, 79, 0
2, 148964, Note_on_c, 0, 91, 0
2, 148992, Note_on_c, 0, 84, 76
2, 148992, Note_on_c, 0, 88, 78
2, 149060, Note_on_c, 0, 84, 0
2, 149060, Note_on_c, 0, 88, 0
2, 149088, Note_on_c, 0, 84, 71
2, 149088, Note_on_c, 0, 88, 71
2, 149156, Note_on_c, 0, 84, 0
2, 149156, Note_on_c, 0, 88, 0
2, 149184, Note_on_c, 0, 84, 78
2, 149184, Note_on_c, 0, 88, 77
2, 149229, Note_on_c, 0, 84, 0
2, 149229, Note_on_c, 0, 88, 0
2, 149248, Note_on_c, 0, 84, 74
2, 149248, Note_on_c, 0, 88, 71
2, 149293, Note_on_c, 0, 84, 0
2, 149293, Note_on_c, 0, 88, 0
2, 149312, Note_on_c, 0, 84, 80
2, 149312, Note_on_c, 0, 88, 78
2, 149357, Note_on_c, 0, 84, 0
2, 149357, Note_on_c, 0, 88, 0
2, 149376, Note_on_c, 0, 84, 71
2, 149376, Note_on_c, 0, 88, 76
2, 149444, Note_on_c, 0, 84, 0
2, 149444, Note_on_c, 0, 88, 0
2, 149472, Note_on_c, 0, 84, 77
2, 149472, Note_on_c, 0, 88, 73
2, 149540, Note_on_c, 0, 84, 0
2, 149540, Note_on_c, 0, 88, 0
2, 149568, Note_on_c, 0, 84, 77
2, 149568, Note_on_c, 0, 88, 79
2, 149613, Note_on_c, 0, 84, 0
2, 149613, Note_on_c, 0, 88, 0
2, 149632, Note_on_c, 0, 84, 74
2, 149632, Note_on_c, 0, 88, 81
2, 149677, Note_on_c, 0, 84, 0
2, 149677, Note_on_c, 0, 88, 0
2, 149696, Note_on_c, 0, 84, 82
2, 149696, Note_on_c, 0, 88, 80
2, 149741, Note_on_c, 0, 84, 0
2, 149741, Note_on_c, 0, 88, 0
2, 149760, Note_on_c, 0, 84, 77
2, 149760, Note_on_c, 0, 88, 79
2, 149828, Note_on_c, 0, 84, 0
2, 149828, Note_on_c, 0, 88, 0
2, 149856, Note_on_c, 0, 84, 82
2, 149856, Note_on_c, 0, 88, 76
2, 149924, Note_on_c, 0, 84, 0
2, 149924, Note_on_c, 0, 88, 0
2, 149952, Note_on_c, 0, 84, 80
2, 149952, Note_on_c, 0, 88, 83
2, 149997, Note_on_c, 0, 84, 0
2, 149997, Note_on_c, 0, 88, 0
2, 150016, Note_on_c, 0, 84, 83
2, 150016, Note_on_c, 0, 88, 80
2, 150061, Note_on_c, 0, 84, 0
2, 150061, Note_on_c, 0, 88, 0
2, 150080, Note_on_c, 0, 84, 83
2, 150080, Note_on_c, 0, 88, 87
2, 150125, Note_on_c, 0, 84, 0
2, 150125, Note_on_c, 0, 88, 0
2, 150144, Note_on_c, 0, 83, 87
2, 150144, Note_on_c, 0, 88, 82
2, 150212, Note_on_c, 0, 83, 0
2, 150212, Note_on_c, 0, 88, 0
2, 150240, Note_on_c, 0, 83, 86
2, 150240, Note_on_c, 0, 88, 83
2, 150308, Note_on_c, 0, 83, 0
2, 150308, Note_on_c, 0, 88, 0
2, 150336, Note_on_c, 0, 83, 91
2, 150336, Note_on_c, 0, 88, 83
2, 150381, Note_on_c, 0, 83, 0
2, 150381, Note_on_c, 0, 88, 0
2, 150400, Note_on_c, 0, 83, 91
2, 150400, Note_on_c, 0, 88, 85
2, 150445, Note_on_c, 0, 83, 0
2, 150445, Note_on_c, 0, 88, 0
2, 150464, Note_on_c, 0, 83, 91
2, 150464, Note_on_c, 0, 88, 87
2, 150506, Note_on_c, 0, 83, 0
2, 150506, Note_on_c, 0, 88, 0
2, 150528, Note_on_c, 0, 89, 87
2, 150574, Note_on_c, 0, 89, 0
2, 150576, Note_on_c, 0, 85, 94
2, 150622, Note_on_c, 0, 85, 0
2, 150624, Note_on_c, 0, 89, 86
2, 150670, Note_on_c, 0, 89, 0
2, 150672, Note_on_c, 0, 85, 79
2, 150718, Note_on_c, 0, 85, 0
2, 150720, Note_on_c, 0, 89, 82
2, 150766, Note_on_c, 0, 89, 0
2, 150768, Note_on_c, 0, 85, 77
2, 150814, Note_on_c, 0, 85, 0
2, 150816, Note_on_c, 0, 89, 64
2, 150862, Note_on_c, 0, 89, 0
2, 150864, Note_on_c, 0, 85, 62
2, 150910, Note_on_c, 0, 85, 0
2, 150912, Note_on_c, 0, 89, 89
2, 150958, Note_on_c, 0, 89, 0
2, 150960, Note_on_c, 0, 85, 90
2, 151006, Note_on_c, 0, 85, 0
2, 151008, Note_on_c, 0, 89, 84
2, 151054, Note_on_c, 0, 89, 0
2, 151056, Note_on_c, 0, 85, 78
2, 151102, Note_on_c, 0, 85, 0
2, 151104, Note_on_c, 0, 89, 82
2, 151150, Note_on_c, 0, 89, 0
2, 151152, Note_on_c, 0, 85, 72
2, 151198, Note_on_c, 0, 85, 0
2, 151200, Note_on_c, 0, 89, 62
2, 151246, Note_on_c, 0, 89, 0
2, 151248, Note_on_c, 0, 85, 63
2, 151294, Note_on_c, 0, 85, 0
2, 151296, Note_on_c, 0, 89, 95
2, 151342, Note_on_c, 0, 89, 0
2, 151344, Note_on_c, 0, 85, 93
2, 151390, Note_on_c, 0, 85, 0
2, 151392, Note_on_c, 0, 89, 89
2, 151438, Note_on_c, 0, 89, 0
2, 151440, Note_on_c, 0, 85, 77
2, 151486, Note_on_c, 0, 85, 0
2, 151488, Note_on_c, 0, 89, 76
2, 151534, Note_on_c, 0, 89, 0
2, 151536, Note_on_c, 0, 85, 77
2, 151582, Note_on_c, 0, 85, 0
2, 151584, Note_on_c, 0, 89, 66
2, 151630, Note_on_c, 0, 89, 0
2, 151632, Note_on_c, 0, 85, 61
2, 151678, Note_on_c, 0, 85, 0
2, 151680, Note_on_c, 0, 89, 95
2, 151726, Note_on_c, 0, 89, 0
2, 151728, Note_on_c, 0, 85, 88
2, 151774, Note_on_c, 0, 85, 0
2, 151776, Note_on_c, 0, 89, 85
2, 151822, Note_on_c, 0, 89, 0
2, 151824, Note_on_c, 0, 85, 78
2, 151870, Note_on_c, 0, 85, 0
2, 151872, Note_on_c, 0, 89, 80
2, 151918, Note_on_c, 0, 89, 0
2, 151920, Note_on_c, 0, 85, 70
2, 151966, Note_on_c, 0, 85, 0
2, 151968, Note_on_c, 0, 89, 61
2, 152014, Note_on_c, 0, 89, 0
2, 152016, Note_on_c, 0, 85, 58
2, 152062, Note_on_c, 0, 85, 0
2, 152064, Note_on_c, 0, 89, 88
2, 152110, Note_on_c, 0, 89, 0
2, 152112, Note_on_c, 0, 85, 92
2, 152158, Note_on_c, 0, 85, 0
2, 152160, Note_on_c, 0, 89, 92
2, 152206, Note_on_c, 0, 89, 0
2, 152208, Note_on_c, 0, 85, 77
2, 152254, Note_on_c, 0, 85, 0
2, 152256, Note_on_c, 0, 89, 75
2, 152302, Note_on_c, 0, 89, 0
2, 152304, Note_on_c, 0, 85, 73
2, 152350, Note_on_c, 0, 85, 0
2, 152352, Note_on_c, 0, 89, 69
2, 152398, Note_on_c, 0, 89, 0
2, 152400, Note_on_c, 0, 85, 61
2, 152446, Note_on_c, 0, 85, 0
2, 152448, Note_on_c, 0, 89, 87
2, 152494, Note_on_c, 0, 89, 0
2, 152496, Note_on_c, 0, 85, 96
2, 152542, Note_on_c, 0, 85, 0
2, 152544, Note_on_c, 0, 89, 84
2, 152590, Note_on_c, 0, 89, 0
2, 152592, Note_on_c, 0, 85, 84
2, 152638, Note_on_c, 0, 85, 0
2, 152640, Note_on_c, 0, 89, 82
2, 152686, Note_on_c, 0, 89, 0
2, 152688, Note_on_c, 0, 85, 70
2, 152734, Note_on_c, 0, 85, 0
2, 152736, Note_on_c, 0, 89, 65
2, 152782, Note_on_c, 0, 89, 0
2, 152784, Note_on_c, 0, 85, 62
2, 152830, Note_on_c, 0, 85, 0
2, 152832, Note_on_c, 0, 89, 97
2, 152878, Note_on_c, 0, 89, 0
2, 152880, Note_on_c, 0, 85, 92
2, 152926, Note_on_c, 0, 85, 0
2, 152928, Note_on_c, 0, 89, 84
2, 152974, Note_on_c, 0, 89, 0
2, 152976, Note_on_c, 0, 85, 80
2, 153022, Note_on_c, 0, 85, 0
2, 153024, Note_on_c, 0, 89, 77
2, 153070, Note_on_c, 0, 89, 0
2, 153072, Note_on_c, 0, 85, 70
2, 153118, Note_on_c, 0, 85, 0
2, 153120, Note_on_c, 0, 89, 61
2, 153166, Note_on_c, 0, 89, 0
2, 153168, Note_on_c, 0, 85, 62
2, 153214, Note_on_c, 0, 85, 0
2, 153216, Note_on_c, 0, 89, 90
2, 153262, Note_on_c, 0, 89, 0
2, 153264, Note_on_c, 0, 85, 94
2, 153310, Note_on_c, 0, 85, 0
2, 153312, Note_on_c, 0, 89, 92
2, 153358, Note_on_c, 0, 89, 0
2, 153360, Note_on_c, 0, 85, 83
2, 153406, Note_on_c, 0, 85, 0
2, 153408, Note_on_c, 0, 89, 80
2, 153454, Note_on_c, 0, 89, 0
2, 153456, Note_on_c, 0, 85, 69
2, 153502, Note_on_c, 0, 85, 0
2, 153504, Note_on_c, 0, 89, 69
2, 153550, Note_on_c, 0, 89, 0
2, 153552, Note_on_c, 0, 85, 58
2, 153598, Note_on_c, 0, 85, 0
2, 153600, Note_on_c, 0, 86, 90
2, 153600, Note_on_c, 0, 89, 89
2, 153694, Note_on_c, 0, 86, 0
2, 153694, Note_on_c, 0, 89, 0
2, 153696, Note_on_c, 0, 86, 94
2, 153696, Note_on_c, 0, 89, 87
2, 153952, Note_on_c, 0, 86, 0
2, 153952, Note_on_c, 0, 89, 0
2, 153984, Note_on_c, 0, 84, 94
2, 153984, Note_on_c, 0, 87, 90
2, 154078, Note_on_c, 0, 84, 0
2, 154078, Note_on_c, 0, 87, 0
2, 154080, Note_on_c, 0, 84, 91
2, 154080, Note_on_c, 0, 87, 94
2, 154336, Note_on_c, 0, 84, 0
2, 154336, Note_on_c, 0, 87, 0
2, 154368, Note_on_c, 0, 82, 93
2, 154368, Note_on_c, 0, 85, 98
2, 154462, Note_on_c, 0, 82, 0
2, 154462, Note_on_c, 0, 85, 0
2, 154464, Note_on_c, 0, 82, 91
2, 154464, Note_on_c, 0, 85, 96
2, 154720, Note_on_c, 0, 82, 0
2, 154720, Note_on_c, 0, 85, 0
2, 154752, Note_on_c, 0, 80, 91
2, 154752, Note_on_c, 0, 83, 92
2, 154846, Note_on_c, 0, 80, 0
2, 154846, Note_on_c, 0, 83, 0
2, 154848, Note_on_c, 0, 80, 95
2, 154848, Note_on_c, 0, 83, 96
2, 155104, Note_on_c, 0, 80, 0
2, 155104, Note_on_c, 0, 83, 0
2, 155136, Note_on_c, 0, 78, 91
2, 155136, Note_on_c, 0, 81, 92
2, 155230, Note_on_c, 0, 78, 0
2, 155230, Note_on_c, 0, 81, 0
2, 155232, Note_on_c, 0, 78, 100
2, 155232, Note_on_c, 0, 81, 99
2, 155488, Note_on_c, 0, 78, 0
2, 155488, Note_on_c, 0, 81, 0
2, 155520, Note_on_c, 0, 76, 103
2, 155520, Note_on_c, 0, 79, 101
2, 155614, Note_on_c, 0, 76, 0
2, 155614, Note_on_c, 0, 79, 0
2, 155616, Note_on_c, 0, 76, 96
2, 155616, Note_on_c, 0, 79, 96
2, 155872, Note_on_c, 0, 76, 0
2, 155872, Note_on_c, 0, 79, 0
2, 155904, Note_on_c, 0, 74, 100
2, 155904, Note_on_c, 0, 77, 98
2, 155998, Note_on_c, 0, 74, 0
2, 155998, Note_on_c, 0, 77, 0
2, 156000, Note_on_c, 0, 74, 103
2, 156000, Note_on_c, 0, 77, 107
2, 156256, Note_on_c, 0, 74, 0
2, 156256, Note_on_c, 0, 77, 0
2, 156288, Note_on_c, 0, 72, 105
2, 156288, Note_on_c, 0, 75, 104
2, 156382, Note_on_c, 0, 72, 0
2, 156382, Note_on_c, 0, 75, 0
2, 156384, Note_on_c, 0, 72, 108
2, 156384, Note_on_c, 0, 75, 103
2, 156640, Note_on_c, 0, 72, 0
2, 156640, Note_on_c, 0, 75, 0
2, 169728, Control_c, 0, 11, 127
2, 173568, Control_c, 0, 11, 75
2, 173568, Note_on_c, 0, 85, 77
2, 173575, Control_c, 0, 11, 76
2, 173582, Control_c, 0, 11, 77
2, 173590, Control_c, 0, 11, 78
2, 173597, Control_c, 0, 11, 79
2, 173604, Control_c, 0, 11, 80
2, 173612, Control_c, 0, 11, 81
2, 173619, Control_c, 0, 11, 82
2, 173627, Control_c, 0, 11, 83
2, 173634, Control_c, 0, 11, 84
2, 173641, Control_c, 0, 11, 85
2, 173649, Control_c, 0, 11, 86
2, 173656, Control_c, 0, 11, 87
2, 173664, Control_c, 0, 11, 88
2, 173671, Control_c, 0, 11, 89
2, 173678, Control_c, 0, 11, 90
2, 173686, Control_c, 0, 11, 91
2, 173693, Control_c, 0, 11, 92
2, 173700, Control_c, 0, 11, 93
2, 173708, Control_c, 0, 11, 94
2, 173715, Control_c, 0, 11, 95
2, 173723, Control_c, 0, 11, 96
2, 173730, Control_c, 0, 11, 97
2, 173737, Control_c, 0, 11, 98
2, 173745, Control_c, 0, 11, 99
2, 173752, Control_c, 0, 11, 100
2, 173760, Note_on_c, 0, 85, 0
2, 173760, Control_c, 0, 11, 101
2, 173760, Note_on_c, 0, 87, 76
2, 173767, Control_c, 0, 11, 102
2, 173774, Control_c, 0, 11, 103
2, 173782, Control_c, 0, 11, 104
2, 173789, Control_c, 0, 11, 105
2, 173796, Control_c, 0, 11, 106
2, 173804, Control_c, 0, 11, 107
2, 173811, Control_c, 0, 11, 108
2, 173819, Control_c, 0, 11, 109
2, 173826, Control_c, 0, 11, 110
2, 173833, Control_c, 0, 11, 111
2, 173841, Control_c, 0, 11, 112
2, 173848, Control_c, 0, 11, 113
2, 173856, Control_c, 0, 11, 114
2, 173863, Control_c, 0, 11, 115
2, 173870, Control_c, 0, 11, 116
2, 173878, Control_c, 0, 11, 117
2, 173885, Control_c, 0, 11, 118
2, 173892, Control_c, 0, 11, 119
2, 173900, Control_c, 0, 11, 120
2, 173907, Control_c, 0, 11, 121
2, 173915, Control_c, 0, 11, 122
2, 173922, Control_c, 0, 11, 123
2, 173929, Control_c, 0, 11, 124
2, 173937, Control_c, 0, 11, 125
2, 173944, Control_c, 0, 11, 126
2, 173952, Note_on_c, 0, 87, 0
2, 173952, Control_c, 0, 11, 127
2, 173952, Note_on_c, 0, 90, 72
2, 174464, Note_on_c, 0, 90, 0
2, 174464, Note_on_c, 0, 88, 70
2, 174592, Note_on_c, 0, 88, 0
2, 174592, Note_on_c, 0, 87, 75
2, 174720, Note_on_c, 0, 87, 0
2, 174720, Note_on_c, 0, 85, 72
2, 174912, Note_on_c, 0, 85, 0
2, 174912, Note_on_c, 0, 83, 76
2, 175104, Note_on_c, 0, 83, 0
2, 175104, Note_on_c, 0, 81, 77
2, 175264, Note_on_c, 0, 81, 0
2, 175296, Control_c, 0, 11, 92
2, 175296, Note_on_c, 0, 85, 75
2, 175312, Control_c, 0, 11, 93
2, 175328, Control_c, 0, 11, 94
2, 175345, Control_c, 0, 11, 95
2, 175361, Control_c, 0, 11, 96
2, 175378, Control_c, 0, 11, 97
2, 175394, Control_c, 0, 11, 98
2, 175411, Control_c, 0, 11, 99
2, 175427, Control_c, 0, 11, 100
2, 175444, Control_c, 0, 11, 101
2, 175460, Control_c, 0, 11, 102
2, 175477, Control_c, 0, 11, 103
2, 175493, Control_c, 0, 11, 104
2, 175509, Control_c, 0, 11, 105
2, 175526, Control_c, 0, 11, 106
2, 175542, Control_c, 0, 11, 107
2, 175559, Control_c, 0, 11, 108
2, 175575, Control_c, 0, 11, 109
2, 175592, Control_c, 0, 11, 110
2, 175608, Control_c, 0, 11, 111
2, 175625, Control_c, 0, 11, 112
2, 175641, Control_c, 0, 11, 113
2, 175658, Control_c, 0, 11, 114
2, 175674, Control_c, 0, 11, 115
2, 175680, Note_on_c, 0, 85, 0
2, 175680, Note_on_c, 0, 87, 77
2, 175690, Control_c, 0, 11, 116
2, 175707, Control_c, 0, 11, 117
2, 175723, Control_c, 0, 11, 118
2, 175740, Control_c, 0, 11, 119
2, 175756, Control_c, 0, 11, 120
2, 175773, Control_c, 0, 11, 121
2, 175789, Control_c, 0, 11, 122
2, 175806, Control_c, 0, 11, 123
2, 175822, Control_c, 0, 11, 124
2, 175839, Control_c, 0, 11, 125
2, 175855, Control_c, 0, 11, 126
2, 175872, Note_on_c, 0, 87, 0
2, 175872, Control_c, 0, 11, 127
2, 175872, Note_on_c, 0, 90, 74
2, 176000, Note_on_c, 0, 90, 0
2, 176000, Note_on_c, 0, 88, 75
2, 176128, Note_on_c, 0, 88, 0
2, 176128, Note_on_c, 0, 87, 77
2, 176256, Note_on_c, 0, 87, 0
2, 176256, Control_c, 0, 11, 127
2, 176256, Note_on_c, 0, 85, 74
2, 176263, Control_c, 0, 11, 126
2, 176270, Control_c, 0, 11, 125
2, 176278, Control_c, 0, 11, 124
2, 176285, Control_c, 0, 11, 123
2, 176292, Control_c, 0, 11, 122
2, 176300, Control_c, 0, 11, 121
2, 176307, Control_c, 0, 11, 120
2, 176315, Control_c, 0, 11, 119
2, 176322, Control_c, 0, 11, 118
2, 176329, Control_c, 0, 11, 117
2, 176337, Control_c, 0, 11, 116
2, 176344, Control_c, 0, 11, 115
2, 176352, Control_c, 0, 11, 114
2, 176359, Control_c, 0, 11, 113
2, 176366, Control_c, 0, 11, 112
2, 176374, Control_c, 0, 11, 111
2, 176381, Control_c, 0, 11, 110
2, 176388, Control_c, 0, 11, 109
2, 176396, Control_c, 0, 11, 108
2, 176403, Control_c, 0, 11, 107
2, 176411, Control_c, 0, 11, 106
2, 176418, Control_c, 0, 11, 105
2, 176425, Control_c, 0, 11, 104
2, 176433, Control_c, 0, 11, 103
2, 176440, Control_c, 0, 11, 102
2, 176448, Control_c, 0, 11, 101
2, 176455, Control_c, 0, 11, 100
2, 176462, Control_c, 0, 11, 99
2, 176470, Control_c, 0, 11, 98
2, 176477, Control_c, 0, 11, 97
2, 176484, Control_c, 0, 11, 96
2, 176492, Control_c, 0, 11, 95
2, 176499, Control_c, 0, 11, 94
2, 176507, Control_c, 0, 11, 93
2, 176514, Control_c, 0, 11, 92
2, 176521, Control_c, 0, 11, 91
2, 176529, Control_c, 0, 11, 90
2, 176536, Control_c, 0, 11, 89
2, 176544, Control_c, 0, 11, 88
2, 176551, Control_c, 0, 11, 87
2, 176558, Control_c, 0, 11, 86
2, 176566, Control_c, 0, 11, 85
2, 176573, Control_c, 0, 11, 84
2, 176580, Control_c, 0, 11, 83
2, 176588, Control_c, 0, 11, 82
2, 176595, Control_c, 0, 11, 81
2, 176603, Control_c, 0, 11, 80
2, 176610, Control_c, 0, 11, 79
2, 176617, Control_c, 0, 11, 78
2, 176625, Control_c, 0, 11, 77
2, 176632, Control_c, 0, 11, 76
2, 176640, Control_c, 0, 11, 75
2, 176976, Note_on_c, 0, 85, 0
2, 189120, Note_on_c, 0, 85, 43
2, 189166, Note_on_c, 0, 85, 0
2, 189168, Note_on_c, 0, 88, 42
2, 189472, Note_on_c, 0, 88, 0
2, 189504, Note_on_c, 0, 85, 48
2, 189550, Note_on_c, 0, 85, 0
2, 189552, Note_on_c, 0, 88, 50
2, 190416, Note_on_c, 0, 88, 0
2, 190656, Note_on_c, 0, 85, 50
2, 190702, Note_on_c, 0, 85, 0
2, 190704, Note_on_c, 0, 88, 50
2, 191008, Note_on_c, 0, 88, 0
2, 191040, Note_on_c, 0, 85, 43
2, 191086, Note_on_c, 0, 85, 0
2, 191088, Note_on_c, 0, 88, 49
2, 191952, Note_on_c, 0, 88, 0
2, 195840, Control_c, 0, 11, 92
2, 195840, Note_on_c, 0, 81, 112
2, 195931, Note_on_c, 0, 81, 0
2, 195968, Note_on_c, 0, 81, 106
2, 196059, Note_on_c, 0, 81, 0
2, 196096, Note_on_c, 0, 80, 104
2, 196224, Note_on_c, 0, 80, 0
2, 196224, Note_on_c, 0, 80, 109
2, 196992, Note_on_c, 0, 80, 0
2, 196992, Control_c, 0, 11, 92
2, 196992, Note_on_c, 0, 81, 105
2, 197002, Control_c, 0, 11, 93
2, 197013, Control_c, 0, 11, 94
2, 197024, Control_c, 0, 11, 95
2, 197035, Control_c, 0, 11, 96
2, 197046, Control_c, 0, 11, 97
2, 197057, Control_c, 0, 11, 98
2, 197068, Control_c, 0, 11, 99
2, 197079, Control_c, 0, 11, 100
2, 197083, Note_on_c, 0, 81, 0
2, 197090, Control_c, 0, 11, 101
2, 197101, Control_c, 0, 11, 102
2, 197112, Control_c, 0, 11, 103
2, 197120, Note_on_c, 0, 81, 107
2, 197123, Control_c, 0, 11, 104
2, 197134, Control_c, 0, 11, 105
2, 197145, Control_c, 0, 11, 106
2, 197156, Control_c, 0, 11, 107
2, 197167, Control_c, 0, 11, 108
2, 197178, Control_c, 0, 11, 109
2, 197189, Control_c, 0, 11, 110
2, 197200, Control_c, 0, 11, 111
2, 197211, Note_on_c, 0, 81, 0
2, 197211, Control_c, 0, 11, 112
2, 197222, Control_c, 0, 11, 113
2, 197233, Control_c, 0, 11, 114
2, 197244, Control_c, 0, 11, 115
2, 197248, Note_on_c, 0, 80, 103
2, 197255, Control_c, 0, 11, 116
2, 197266, Control_c, 0, 11, 117
2, 197277, Control_c, 0, 11, 118
2, 197288, Control_c, 0, 11, 119
2, 197299, Control_c, 0, 11, 120
2, 197310, Control_c, 0, 11, 121
2, 197321, Control_c, 0, 11, 122
2, 197332, Control_c, 0, 11, 123
2, 197343, Control_c, 0, 11, 124
2, 197354, Control_c, 0, 11, 125
2, 197365, Control_c, 0, 11, 126
2, 197374, Note_on_c, 0, 80, 0
2, 197376, Control_c, 0, 11, 127
2, 197376, Control_c, 0, 11, 92
2, 197376, Note_on_c, 0, 82, 108
2, 197467, Note_on_c, 0, 82, 0
2, 197504, Note_on_c, 0, 82, 107
2, 197595, Note_on_c, 0, 82, 0
2, 197632, Note_on_c, 0, 80, 107
2, 197760, Note_on_c, 0, 80, 0
2, 197760, Note_on_c, 0, 80, 113
2, 198528, Note_on_c, 0, 80, 0
2, 198528, Control_c, 0, 11, 92
2, 198528, Note_on_c, 0, 82, 113
2, 198538, Control_c, 0, 11, 93
2, 198549, Control_c, 0, 11, 94
2, 198560, Control_c, 0, 11, 95
2, 198571, Control_c, 0, 11, 96
2, 198582, Control_c, 0, 11, 97
2, 198593, Control_c, 0, 11, 98
2, 198604, Control_c, 0, 11, 99
2, 198615, Control_c, 0, 11, 100
2, 198619, Note_on_c, 0, 82, 0
2, 198626, Control_c, 0, 11, 101
2, 198637, Control_c, 0, 11, 102
2, 198648, Control_c, 0, 11, 103
2, 198656, Note_on_c, 0, 82, 108
2, 198659, Control_c, 0, 11, 104
2, 198670, Control_c, 0, 11, 105
2, 198681, Control_c, 0, 11, 106
2, 198692, Control_c, 0, 11, 107
2, 198703, Control_c, 0, 11, 108
2, 198714, Control_c, 0, 11, 109
2, 198725, Control_c, 0, 11, 110
2, 198736, Control_c, 0, 11, 111
2, 198747, Note_on_c, 0, 82, 0
2, 198747, Control_c, 0, 11, 112
2, 198758, Control_c, 0, 11, 113
2, 198769, Control_c, 0, 11, 114
2, 198780, Control_c, 0, 11, 115
2, 198784, Note_on_c, 0, 80, 110
2, 198791, Control_c, 0, 11, 116
2, 198802, Control_c, 0, 11, 117
2, 198813, Control_c, 0, 11, 118
2, 198824, Control_c, 0, 11, 119
2, 198835, Control_c, 0, 11, 120
2, 198846, Control_c, 0, 11, 121
2, 198857, Control_c, 0, 11, 122
2, 198868, Control_c, 0, 11, 123
2, 198879, Control_c, 0, 11, 124
2, 198890, Control_c, 0, 11, 125
2, 198901, Control_c, 0, 11, 126
2, 198910, Note_on_c, 0, 80, 0
2, 198912, Control_c, 0, 11, 127
2, 198912, Note_on_c, 0, 87, 78
2, 199003, Note_on_c, 0, 87, 0
2, 199040, Note_on_c, 0, 87, 70
2, 199131, Note_on_c, 0, 87, 0
2, 199168, Note_on_c, 0, 85, 70
2, 199259, Note_on_c, 0, 85, 0
2, 199296, Note_on_c, 0, 87, 77
2, 199387, Note_on_c, 0, 87, 0
2, 199424, Note_on_c, 0, 87, 78
2, 199515, Note_on_c, 0, 87, 0
2, 199552, Note_on_c, 0, 85, 71
2, 199643, Note_on_c, 0, 85, 0
2, 199680, Note_on_c, 0, 87, 73
2, 199771, Note_on_c, 0, 87, 0
2, 199808, Note_on_c, 0, 87, 71
2, 199899, Note_on_c, 0, 87, 0
2, 199936, Note_on_c, 0, 85, 71
2, 200027, Note_on_c, 0, 85, 0
2, 200064, Note_on_c, 0, 87, 71
2, 200155, Note_on_c, 0, 87, 0
2, 200192, Note_on_c, 0, 87, 79
2, 200283, Note_on_c, 0, 87, 0
2, 200320, Note_on_c, 0, 85, 73
2, 200411, Note_on_c, 0, 85, 0
2, 200448, Note_on_c, 0, 87, 73
2, 200539, Note_on_c, 0, 87, 0
2, 200576, Note_on_c, 0, 87, 71
2, 200667, Note_on_c, 0, 87, 0
2, 200704, Note_on_c, 0, 85, 76
2, 200795, Note_on_c, 0, 85, 0
2, 200832, Note_on_c, 0, 87, 79
2, 200923, Note_on_c, 0, 87, 0
2, 200960, Note_on_c, 0, 87, 77
2, 201051, Note_on_c, 0, 87, 0
2, 201088, Note_on_c, 0, 85, 77
2, 201179, Note_on_c, 0, 85, 0
2, 201216, Note_on_c, 0, 87, 77
2, 201307, Note_on_c, 0, 87, 0
2, 201344, Note_on_c, 0, 87, 75
2, 201435, Note_on_c, 0, 87, 0
2, 201472, Note_on_c, 0, 85, 82
2, 201563, Note_on_c, 0, 85, 0
2, 201600, Note_on_c, 0, 87, 82
2, 201691, Note_on_c, 0, 87, 0
2, 201728, Note_on_c, 0, 87, 83
2, 201819, Note_on_c, 0, 87, 0
2, 201856, Note_on_c, 0, 85, 87
2, 201947, Note_on_c, 0, 85, 0
2, 201984, Note_on_c, 0, 80, 91
2, 201984, Note_on_c, 0, 85, 90
2, 202075, Note_on_c, 0, 80, 0
2, 202075, Note_on_c, 0, 85, 0
2, 202112, Note_on_c, 0, 80, 93
2, 202112, Note_on_c, 0, 85, 93
2, 202203, Note_on_c, 0, 80, 0
2, 202203, Note_on_c, 0, 85, 0
2, 202240, Note_on_c, 0, 78, 96
2, 202240, Note_on_c, 0, 82, 97
2, 202331, Note_on_c, 0, 78, 0
2, 202331, Note_on_c, 0, 82, 0
2, 202368, Note_on_c, 0, 80, 92
2, 202368, Note_on_c, 0, 85, 89
2, 202459, Note_on_c, 0, 80, 0
2, 202459, Note_on_c, 0, 85, 0
2, 202496, Note_on_c, 0, 80, 92
2, 202496, Note_on_c, 0, 85, 87
2, 202587, Note_on_c, 0, 80, 0
2, 202587, Note_on_c, 0, 85, 0
2, 202624, Note_on_c, 0, 78, 95
2, 202624, Note_on_c, 0, 82, 95
2, 202715, Note_on_c, 0, 78, 0
2, 202715, Note_on_c, 0, 82, 0
2, 202752, Note_on_c, 0, 80, 95
2, 202752, Note_on_c, 0, 85, 89
2, 202843, Note_on_c, 0, 80, 0
2, 202843, Note_on_c, 0, 85, 0
2, 202880, Note_on_c, 0, 80, 89
2, 202880, Note_on_c, 0, 85, 91
2, 202971, Note_on_c, 0, 80, 0
2, 202971, Note_on_c, 0, 85, 0
2, 203008, Note_on_c, 0, 78, 91
2, 203008, Note_on_c, 0, 82, 93
2, 203099, Note_on_c, 0, 78, 0
2, 203099, Note_on_c, 0, 82, 0
2, 203136, Note_on_c, 0, 82, 92
2, 203136, Note_on_c, 0, 87, 96
2, 203227, Note_on_c, 0, 82, 0
2, 203227, Note_on_c, 0, 87, 0
2, 203264, Note_on_c, 0, 82, 95
2, 203264, Note_on_c, 0, 87, 95
2, 203355, Note_on_c, 0, 82, 0
2, 203355, Note_on_c, 0, 87, 0
2, 203392, Note_on_c, 0, 80, 87
2, 203392, Note_on_c, 0, 84, 93
2, 203483, Note_on_c, 0, 80, 0
2, 203483, Note_on_c, 0, 84, 0
2, 203520, Note_on_c, 0, 80, 90
2, 203520, Note_on_c, 0, 85, 88
2, 203611, Note_on_c, 0, 80, 0
2, 203611, Note_on_c, 0, 85, 0
2, 203648, Note_on_c, 0, 80, 95
2, 203648, Note_on_c, 0, 85, 97
2, 203739, Note_on_c, 0, 80, 0
2, 203739, Note_on_c, 0, 85, 0
2, 203776, Note_on_c, 0, 78, 90
2, 203776, Note_on_c, 0, 82, 95
2, 203867, Note_on_c, 0, 78, 0
2, 203867, Note_on_c, 0, 82, 0
2, 203904, Note_on_c, 0, 80, 96
2, 203904, Note_on_c, 0, 85, 92
2, 203995, Note_on_c, 0, 80, 0
2, 203995, Note_on_c, 0, 85, 0
2, 204032, Note_on_c, 0, 80, 96
2, 204032, Note_on_c, 0, 85, 96
2, 204123, Note_on_c, 0, 80, 0
2, 204123, Note_on_c, 0, 85, 0
2, 204160, Note_on_c, 0, 78, 89
2, 204160, Note_on_c, 0, 82, 93
2, 204251, Note_on_c, 0, 78, 0
2, 204251, Note_on_c, 0, 82, 0
2, 204288, Note_on_c, 0, 77, 97
2, 204288, Note_on_c, 0, 82, 94
2, 204379, Note_on_c, 0, 77, 0
2, 204379, Note_on_c, 0, 82, 0
2, 204416, Note_on_c, 0, 77, 82
2, 204416, Note_on_c, 0, 82, 84
2, 204507, Note_on_c, 0, 77, 0
2, 204507, Note_on_c, 0, 82, 0
2, 204544, Note_on_c, 0, 75, 70
2, 204544, Note_on_c, 0, 84, 73
2, 204635, Note_on_c, 0, 75, 0
2, 204635, Note_on_c, 0, 84, 0
2, 204672, Note_on_c, 0, 77, 63
2, 204672, Note_on_c, 0, 82, 62
2, 204763, Note_on_c, 0, 77, 0
2, 204763, Note_on_c, 0, 82, 0
2, 204800, Note_on_c, 0, 77, 60
2, 204800, Note_on_c, 0, 82, 55
2, 204891, Note_on_c, 0, 77, 0
2, 204891, Note_on_c, 0, 82, 0
2, 204928, Note_on_c, 0, 75, 41
2, 204928, Note_on_c, 0, 84, 45
2, 205019, Note_on_c, 0, 75, 0
2, 205019, Note_on_c, 0, 84, 0
2, 205056, Note_on_c, 0, 87, 92
2, 205147, Note_on_c, 0, 87, 0
2, 205184, Note_on_c, 0, 87, 97
2, 205275, Note_on_c, 0, 87, 0
2, 205312, Note_on_c, 0, 85, 90
2, 205403, Note_on_c, 0, 85, 0
2, 205440, Note_on_c, 0, 87, 96
2, 205531, Note_on_c, 0, 87, 0
2, 205568, Note_on_c, 0, 87, 89
2, 205659, Note_on_c, 0, 87, 0
2, 205696, Note_on_c, 0, 85, 97
2, 205787, Note_on_c, 0, 85, 0
2, 205824, Note_on_c, 0, 87, 94
2, 205915, Note_on_c, 0, 87, 0
2, 205952, Note_on_c, 0, 87, 93
2, 206043, Note_on_c, 0, 87, 0
2, 206080, Note_on_c, 0, 85, 97
2, 206171, Note_on_c, 0, 85, 0
2, 206208, Note_on_c, 0, 87, 96
2, 206299, Note_on_c, 0, 87, 0
2, 206336, Note_on_c, 0, 87, 92
2, 206427, Note_on_c, 0, 87, 0
2, 206464, Note_on_c, 0, 85, 92
2, 206555, Note_on_c, 0, 85, 0
2, 206592, Note_on_c, 0, 87, 91
2, 206683, Note_on_c, 0, 87, 0
2, 206720, Note_on_c, 0, 87, 92
2, 206811, Note_on_c, 0, 87, 0
2, 206848, Note_on_c, 0, 85, 93
2, 206939, Note_on_c, 0, 85, 0
2, 206976, Note_on_c, 0, 87, 90
2, 207067, Note_on_c, 0, 87, 0
2, 207104, Note_on_c, 0, 87, 89
2, 207195, Note_on_c, 0, 87, 0
2, 207232, Note_on_c, 0, 85, 88
2, 207323, Note_on_c, 0, 85, 0
2, 207360, Note_on_c, 0, 87, 94
2, 207451, Note_on_c, 0, 87, 0
2, 207488, Note_on_c, 0, 87, 90
2, 207579, Note_on_c, 0, 87, 0
2, 207616, Note_on_c, 0, 85, 93
2, 207707, Note_on_c, 0, 85, 0
2, 207744, Note_on_c, 0, 87, 94
2, 207835, Note_on_c, 0, 87, 0
2, 207872, Note_on_c, 0, 87, 88
2, 207963, Note_on_c, 0, 87, 0
2, 208000, Note_on_c, 0, 85, 94
2, 208091, Note_on_c, 0, 85, 0
2, 208128, Control_c, 0, 11, 127
2, 208128, Note_on_c, 0, 85, 108
2, 208128, Note_on_c, 0, 89, 107
2, 208138, Control_c, 0, 11, 126
2, 208149, Control_c, 0, 11, 125
2, 208160, Control_c, 0, 11, 124
2, 208171, Control_c, 0, 11, 123
2, 208182, Control_c, 0, 11, 122
2, 208193, Control_c, 0, 11, 121
2, 208204, Control_c, 0, 11, 120
2, 208215, Control_c, 0, 11, 119
2, 208226, Control_c, 0, 11, 118
2, 208237, Control_c, 0, 11, 117
2, 208248, Control_c, 0, 11, 116
2, 208259, Control_c, 0, 11, 115
2, 208270, Control_c, 0, 11, 114
2, 208281, Control_c, 0, 11, 113
2, 208292, Control_c, 0, 11, 112
2, 208303, Control_c, 0, 11, 111
2, 208314, Control_c, 0, 11, 110
2, 208325, Control_c, 0, 11, 109
2, 208336, Control_c, 0, 11, 108
2, 208347, Control_c, 0, 11, 107
2, 208358, Control_c, 0, 11, 106
2, 208369, Control_c, 0, 11, 105
2, 208380, Control_c, 0, 11, 104
2, 208391, Control_c, 0, 11, 103
2, 208402, Control_c, 0, 11, 102
2, 208413, Control_c, 0, 11, 101
2, 208424, Control_c, 0, 11, 100
2, 208435, Control_c, 0, 11, 99
2, 208446, Control_c, 0, 11, 98
2, 208457, Control_c, 0, 11, 97
2, 208468, Control_c, 0, 11, 96
2, 208479, Control_c, 0, 11, 95
2, 208490, Control_c, 0, 11, 94
2, 208501, Control_c, 0, 11, 93
2, 208512, Control_c, 0, 11, 92
2, 209056, Note_on_c, 0, 85, 0
2, 209056, Note_on_c, 0, 89, 0
2, 209280, Control_c, 0, 11, 127
2, 212736, Note_on_c, 0, 85, 103
2, 212736, Note_on_c, 0, 89, 111
2, 213664, Note_on_c, 0, 85, 0
2, 213664, Note_on_c, 0, 89, 0
2, 217344, Note_on_c, 0, 87, 91
2, 217486, Note_on_c, 0, 87, 0
2, 217488, Note_on_c, 0, 85, 90
2, 217534, Note_on_c, 0, 85, 0
2, 217536, Note_on_c, 0, 82, 91
2, 217678, Note_on_c, 0, 82, 0
2, 217680, Note_on_c, 0, 85, 95
2, 217726, Note_on_c, 0, 85, 0
2, 217728, Note_on_c, 0, 87, 88
2, 217870, Note_on_c, 0, 87, 0
2, 217872, Note_on_c, 0, 85, 91
2, 217918, Note_on_c, 0, 85, 0
2, 217920, Note_on_c, 0, 82, 95
2, 218062, Note_on_c, 0, 82, 0
2, 218064, Note_on_c, 0, 85, 87
2, 218110, Note_on_c, 0, 85, 0
2, 218112, Note_on_c, 0, 87, 90
2, 218254, Note_on_c, 0, 87, 0
2, 218256, Note_on_c, 0, 85, 97
2, 218302, Note_on_c, 0, 85, 0
2, 218304, Note_on_c, 0, 82, 87
2, 218446, Note_on_c, 0, 82, 0
2, 218448, Note_on_c, 0, 85, 91
2, 218494, Note_on_c, 0, 85, 0
2, 218496, Note_on_c, 0, 87, 93
2, 218638, Note_on_c, 0, 87, 0
2, 218640, Note_on_c, 0, 85, 93
2, 218686, Note_on_c, 0, 85, 0
2, 218688, Note_on_c, 0, 82, 93
2, 218830, Note_on_c, 0, 82, 0
2, 218832, Note_on_c, 0, 85, 90
2, 218878, Note_on_c, 0, 85, 0
2, 218880, Note_on_c, 0, 91, 97
2, 219022, Note_on_c, 0, 91, 0
2, 219024, Note_on_c, 0, 89, 97
2, 219070, Note_on_c, 0, 89, 0
2, 219072, Note_on_c, 0, 86, 96
2, 219214, Note_on_c, 0, 86, 0
2, 219216, Note_on_c, 0, 89, 90
2, 219262, Note_on_c, 0, 89, 0
2, 219264, Note_on_c, 0, 91, 94
2, 219406, Note_on_c, 0, 91, 0
2, 219408, Note_on_c, 0, 89, 91
2, 219454, Note_on_c, 0, 89, 0
2, 219456, Note_on_c, 0, 86, 90
2, 219598, Note_on_c, 0, 86, 0
2, 219600, Note_on_c, 0, 89, 89
2, 219646, Note_on_c, 0, 89, 0
2, 219648, Note_on_c, 0, 91, 88
2, 219790, Note_on_c, 0, 91, 0
2, 219792, Note_on_c, 0, 89, 91
2, 219838, Note_on_c, 0, 89, 0
2, 219840, Note_on_c, 0, 86, 94
2, 219982, Note_on_c, 0, 86, 0
2, 219984, Note_on_c, 0, 89, 101
2, 220030, Note_on_c, 0, 89, 0
2, 220032, Note_on_c, 0, 91, 104
2, 220174, Note_on_c, 0, 91, 0
2, 220176, Note_on_c, 0, 89, 102
2, 220222, Note_on_c, 0, 89, 0
2, 220224, Note_on_c, 0, 86, 106
2, 220366, Note_on_c, 0, 86, 0
2, 220368, Note_on_c, 0, 89, 103
2, 220414, Note_on_c, 0, 89, 0
2, 220416, Note_on_c, 0, 94, 106
2, 220558, Note_on_c, 0, 94, 0
2, 220560, Note_on_c, 0, 92, 104
2, 220606, Note_on_c, 0, 92, 0
2, 220608, Note_on_c, 0, 89, 113
2, 220750, Note_on_c, 0, 89, 0
2, 220752, Note_on_c, 0, 92, 103
2, 220798, Note_on_c, 0, 92, 0
2, 220800, Note_on_c, 0, 94, 103
2, 220942, Note_on_c, 0, 94, 0
2, 220944, Note_on_c, 0, 92, 112
2, 220990, Note_on_c, 0, 92, 0
2, 220992, Note_on_c, 0, 89, 107
2, 221134, Note_on_c, 0, 89, 0
2, 221136, Note_on_c, 0, 92, 110
2, 221182, Note_on_c, 0, 92, 0
2, 221184, Note_on_c, 0, 94, 110
2, 221326, Note_on_c, 0, 94, 0
2, 221328, Note_on_c, 0, 92, 108
2, 221374, Note_on_c, 0, 92, 0
2, 221376, Note_on_c, 0, 89, 109
2, 221518, Note_on_c, 0, 89, 0
2, 221520, Note_on_c, 0, 92, 112
2, 221566, Note_on_c, 0, 92, 0
2, 221568, Note_on_c, 0, 94, 107
2, 221710, Note_on_c, 0, 94, 0
2, 221712, Note_on_c, 0, 92, 104
2, 221758, Note_on_c, 0, 92, 0
2, 221760, Note_on_c, 0, 89, 107
2, 221902, Note_on_c, 0, 89, 0
2, 221904, Note_on_c, 0, 92, 105
2, 221950, Note_on_c, 0, 92, 0
2, 221952, Note_on_c, 0, 94, 103
2, 222094, Note_on_c, 0, 94, 0
2, 222096, Note_on_c, 0, 92, 103
2, 222142, Note_on_c, 0, 92, 0
2, 222144, Note_on_c, 0, 89, 105
2, 222286, Note_on_c, 0, 89, 0
2, 222288, Note_on_c, 0, 92, 106
2, 222334, Note_on_c, 0, 92, 0
2, 222336, Note_on_c, 0, 94, 111
2, 222478, Note_on_c, 0, 94, 0
2, 222480, Note_on_c, 0, 92, 110
2, 222526, Note_on_c, 0, 92, 0
2, 222528, Note_on_c, 0, 89, 110
2, 222670, Note_on_c, 0, 89, 0
2, 222672, Note_on_c, 0, 92, 110
2, 222718, Note_on_c, 0, 92, 0
2, 222720, Note_on_c, 0, 94, 107
2, 222862, Note_on_c, 0, 94, 0
2, 222864, Note_on_c, 0, 92, 109
2, 222910, Note_on_c, 0, 92, 0
2, 222912, Note_on_c, 0, 89, 113
2, 223054, Note_on_c, 0, 89, 0
2, 223056, Note_on_c, 0, 92, 103
2, 223102, Note_on_c, 0, 92, 0
2, 223104, Note_on_c, 0, 94, 111
2, 223246, Note_on_c, 0, 94, 0
2, 223248, Note_on_c, 0, 92, 108
2, 223294, Note_on_c, 0, 92, 0
2, 223296, Note_on_c, 0, 89, 108
2, 223438, Note_on_c, 0, 89, 0
2, 223440, Note_on_c, 0, 94, 107
2, 223486, Note_on_c, 0, 94, 0
2, 223488, Note_on_c, 0, 92, 109
2, 223518, Note_on_c, 0, 92, 0
2, 223520, Note_on_c, 0, 93, 112
2, 223550, Note_on_c, 0, 93, 0
2, 223552, Note_on_c, 0, 92, 108
2, 223582, Note_on_c, 0, 92, 0
2, 223584, Note_on_c, 0, 93, 112
2, 223614, Note_on_c, 0, 93, 0
2, 223616, Note_on_c, 0, 92, 109
2, 223646, Note_on_c, 0, 92, 0
2, 223648, Note_on_c, 0, 93, 108
2, 223678, Note_on_c, 0, 93, 0
2, 223680, Note_on_c, 0, 92, 108
2, 223710, Note_on_c, 0, 92, 0
2, 223712, Note_on_c, 0, 93, 112
2, 223742, Note_on_c, 0, 93, 0
2, 223744, Note_on_c, 0, 92, 112
2, 223774, Note_on_c, 0, 92, 0
2, 223776, Note_on_c, 0, 93, 104
2, 223806, Note_on_c, 0, 93, 0
2, 223808, Note_on_c, 0, 92, 103
2, 223838, Note_on_c, 0, 92, 0
2, 223840, Note_on_c, 0, 93, 111
2, 223870, Note_on_c, 0, 93, 0
2, 223872, Note_on_c, 0, 92, 105
2, 223902, Note_on_c, 0, 92, 0
2, 223904, Note_on_c, 0, 93, 104
2, 223934, Note_on_c, 0, 93, 0
2, 223936, Note_on_c, 0, 92, 111
2, 223966, Note_on_c, 0, 92, 0
2, 223968, Note_on_c, 0, 93, 103
2, 223998, Note_on_c, 0, 93, 0
2, 224000, Note_on_c, 0, 92, 107
2, 224030, Note_on_c, 0, 92, 0
2, 224032, Note_on_c, 0, 93, 113
2, 224062, Note_on_c, 0, 93, 0
2, 224064, Note_on_c, 0, 92, 108
2, 224094, Note_on_c, 0, 92, 0
2, 224096, Note_on_c, 0, 93, 103
2, 224126, Note_on_c, 0, 93, 0
2, 224128, Note_on_c, 0, 92, 107
2, 224158, Note_on_c, 0, 92, 0
2, 224160, Note_on_c, 0, 93, 113
2, 224190, Note_on_c, 0, 93, 0
2, 224192, Note_on_c, 0, 92, 108
2, 224222, Note_on_c, 0, 92, 0
2, 224224, Note_on_c, 0, 93, 107
2, 224254, Note_on_c, 0, 93, 0
2, 224256, Note_on_c, 0, 92, 107
2, 224286, Note_on_c, 0, 92, 0
2, 224288, Note_on_c, 0, 93, 113
2, 224318, Note_on_c, 0, 93, 0
2, 224320, Note_on_c, 0, 92, 112
2, 224350, Note_on_c, 0, 92, 0
2, 224352, Note_on_c, 0, 93, 107
2, 224382, Note_on_c, 0, 93, 0
2, 224384, Note_on_c, 0, 92, 113
2, 224414, Note_on_c, 0, 92, 0
2, 224416, Note_on_c, 0, 93, 112
2, 224446, Note_on_c, 0, 93, 0
2, 224448, Note_on_c, 0, 92, 111
2, 224478, Note_on_c, 0, 92, 0
2, 224480, Note_on_c, 0, 93, 111
2, 224510, Note_on_c, 0, 93, 0
2, 224512, Note_on_c, 0, 92, 113
2, 224542, Note_on_c, 0, 92, 0
2, 224544, Note_on_c, 0, 93, 104
2, 224574, Note_on_c, 0, 93, 0
2, 224576, Note_on_c, 0, 92, 107
2, 224606, Note_on_c, 0, 92, 0
2, 224608, Note_on_c, 0, 93, 108
2, 224638, Note_on_c, 0, 93, 0
2, 224640, Note_on_c, 0, 92, 107
2, 224670, Note_on_c, 0, 92, 0
2, 224672, Note_on_c, 0, 93, 106
2, 224702, Note_on_c, 0, 93, 0
2, 224704, Note_on_c, 0, 92, 103
2, 224734, Note_on_c, 0, 92, 0
2, 224736, Note_on_c, 0, 93, 107
2, 224766, Note_on_c, 0, 93, 0
2, 224768, Note_on_c, 0, 92, 107
2, 224798, Note_on_c, 0, 92, 0
2, 224800, Note_on_c, 0, 93, 106
2, 224830, Note_on_c, 0, 93, 0
2, 224832, Note_on_c, 0, 92, 104
2, 224862, Note_on_c, 0, 92, 0
2, 224864, Note_on_c, 0, 93, 111
2, 224894, Note_on_c, 0, 93, 0
2, 224896, Note_on_c, 0, 92, 104
2, 224926, Note_on_c, 0, 92, 0
2, 224928, Note_on_c, 0, 93, 104
2, 224958, Note_on_c, 0, 93, 0
2, 224960, Note_on_c, 0, 92, 109
2, 224990, Note_on_c, 0, 92, 0
2, 224992, Note_on_c, 0, 93, 113
2, 225022, Note_on_c, 0, 93, 0
2, 225024, Note_on_c, 0, 92, 112
2, 225184, Note_on_c, 0, 92, 0
2, 225184, End_track
3, 0, Start_track
3, 0, Title_t, "Ottavino"
3, 0, MIDI_port, 0
3, 101, Control_c, 0, 0, 0
3, 102, Control_c, 0, 32, 0
3, 103, Program_c, 0, 73
3, 104, Control_c, 0, 7, 127
3, 105, Control_c, 0, 10, 44
3, 106, Control_c, 0, 91, 64
3, 81720, Note_on_c, 0, 83, 47
3, 81742, Note_on_c, 0, 83, 0
3, 81744, Note_on_c, 0, 81, 48
3, 81766, Note_on_c, 0, 81, 0
3, 81768, Note_on_c, 0, 79, 40
3, 81790, Note_on_c, 0, 79, 0
3, 81792, Note_on_c, 0, 77, 50
3, 82336, Note_on_c, 0, 77, 0
3, 83256, Note_on_c, 0, 83, 44
3, 83278, Note_on_c, 0, 83, 0
3, 83280, Note_on_c, 0, 81, 47
3, 83302, Note_on_c, 0, 81, 0
3, 83304, Note_on_c, 0, 79, 42
3, 83326, Note_on_c, 0, 79, 0
3, 83328, Note_on_c, 0, 77, 43
3, 83664, Note_on_c, 0, 77, 0
3, 84480, Note_on_c, 0, 93, 89
3, 84576, Note_on_c, 0, 93, 0
3, 84576, Note_on_c, 0, 95, 92
3, 85200, Note_on_c, 0, 95, 0
3, 85752, Note_on_c, 0, 95, 72
3, 85774, Note_on_c, 0, 95, 0
3, 85776, Note_on_c, 0, 93, 70
3, 85798, Note_on_c, 0, 93, 0
3, 85800, Note_on_c, 0, 91, 71
3, 85822, Note_on_c, 0, 91, 0
3, 85824, Note_on_c, 0, 89, 79
3, 86176, Note_on_c, 0, 89, 0
3, 86520, Note_on_c, 0, 95, 72
3, 86542, Note_on_c, 0, 95, 0
3, 86544, Note_on_c, 0, 93, 77
3, 86566, Note_on_c, 0, 93, 0
3, 86568, Note_on_c, 0, 91, 72
3, 86590, Note_on_c, 0, 91, 0
3, 86592, Note_on_c, 0, 89, 73
3, 86944, Note_on_c, 0, 89, 0
3, 87288, Note_on_c, 0, 95, 73
3, 87310, Note_on_c, 0, 95, 0
3, 87312, Note_on_c, 0, 93, 77
3, 87334, Note_on_c, 0, 93, 0
3, 87336, Note_on_c, 0, 91, 80
3, 87358, Note_on_c, 0, 91, 0
3, 87360, Note_on_c, 0, 89, 74
3, 87712, Note_on_c, 0, 89, 0
3, 89208, Note_on_c, 0, 95, 49
3, 89230, Note_on_c, 0, 95, 0
3, 89232, Note_on_c, 0, 93, 47
3, 89254, Note_on_c, 0, 93, 0
3, 89256, Note_on_c, 0, 91, 44
3, 89278, Note_on_c, 0, 91, 0
3, 89280, Note_on_c, 0, 89, 40
3, 89440, Note_on_c, 0, 89, 0
3, 89592, Note_on_c, 0, 95, 51
3, 89614, Note_on_c, 0, 95, 0
3, 89616, Note_on_c, 0, 93, 51
3, 89638, Note_on_c, 0, 93, 0
3, 89640, Note_on_c, 0, 91, 55
3, 89662, Note_on_c, 0, 91, 0
3, 89664, Note_on_c, 0, 89, 50
3, 89824, Note_on_c, 0, 89, 0
3, 89976, Note_on_c, 0, 95, 62
3, 89998, Note_on_c, 0, 95, 0
3, 90000, Note_on_c, 0, 93, 61
3, 90022, Note_on_c, 0, 93, 0
3, 90024, Note_on_c, 0, 91, 55
3, 90046, Note_on_c, 0, 91, 0
3, 90048, Note_on_c, 0, 89, 52
3, 90208, Note_on_c, 0, 89, 0
3, 90360, Note_on_c, 0, 95, 62
3, 90382, Note_on_c, 0, 95, 0
3, 90384, Note_on_c, 0, 93, 63
3, 90406, Note_on_c, 0, 93, 0
3, 90408, Note_on_c, 0, 91, 64
3, 90430, Note_on_c, 0, 91, 0
3, 90432, Note_on_c, 0, 89, 63
3, 90592, Note_on_c, 0, 89, 0
3, 90744, Note_on_c, 0, 95, 69
3, 90766, Note_on_c, 0, 95, 0
3, 90768, Note_on_c, 0, 93, 75
3, 90790, Note_on_c, 0, 93, 0
3, 90792, Note_on_c, 0, 91, 74
3, 90814, Note_on_c, 0, 91, 0
3, 90816, Note_on_c, 0, 89, 73
3, 90976, Note_on_c, 0, 89, 0
3, 91128, Note_on_c, 0, 95, 79
3, 91150, Note_on_c, 0, 95, 0
3, 91152, Note_on_c, 0, 93, 80
3, 91174, Note_on_c, 0, 93, 0
3, 91176, Note_on_c, 0, 91, 76
3, 91198, Note_on_c, 0, 91, 0
3, 91200, Note_on_c, 0, 89, 80
3, 91360, Note_on_c, 0, 89, 0
3, 91512, Note_on_c, 0, 95, 88
3, 91534, Note_on_c, 0, 95, 0
3, 91536, Note_on_c, 0, 93, 88
3, 91558, Note_on_c, 0, 93, 0
3, 91560, Note_on_c, 0, 91, 93
3, 91582, Note_on_c, 0, 91, 0
3, 91584, Note_on_c, 0, 89, 98
3, 91744, Note_on_c, 0, 89, 0
3, 91776, Note_on_c, 0, 100, 112
3, 92448, Note_on_c, 0, 100, 0
3, 92448, Note_on_c, 0, 99, 110
3, 92544, Note_on_c, 0, 99, 0
3, 92544, Note_on_c, 0, 98, 106
3, 93216, Note_on_c, 0, 98, 0
3, 93216, Note_on_c, 0, 97, 110
3, 93312, Note_on_c, 0, 97, 0
3, 93312, Note_on_c, 0, 96, 112
3, 93600, Note_on_c, 0, 96, 0
3, 93600, Note_on_c, 0, 95, 109
3, 93696, Note_on_c, 0, 95, 0
3, 93696, Note_on_c, 0, 94, 103
3, 95184, Note_on_c, 0, 94, 0
3, 138336, Control_c, 0, 11, 127
3, 138336, Note_on_c, 0, 85, 47
3, 138404, Note_on_c, 0, 85, 0
3, 138432, Note_on_c, 0, 85, 46
3, 138500, Note_on_c, 0, 85, 0
3, 138528, Note_on_c, 0, 84, 44
3, 138596, Note_on_c, 0, 84, 0
3, 138720, Note_on_c, 0, 83, 48
3, 138788, Note_on_c, 0, 83, 0
3, 138816, Note_on_c, 0, 83, 49
3, 138884, Note_on_c, 0, 83, 0
3, 138912, Note_on_c, 0, 84, 58
3, 138980, Note_on_c, 0, 84, 0
3, 139104, Note_on_c, 0, 85, 64
3, 139172, Note_on_c, 0, 85, 0
3, 139200, Note_on_c, 0, 85, 66
3, 139268, Note_on_c, 0, 85, 0
3, 139296, Note_on_c, 0, 84, 65
3, 139364, Note_on_c, 0, 84, 0
3, 139488, Note_on_c, 0, 83, 73
3, 139556, Note_on_c, 0, 83, 0
3, 139584, Note_on_c, 0, 83, 74
3, 139652, Note_on_c, 0, 83, 0
3, 139680, Note_on_c, 0, 79, 73
3, 139712, Note_on_c, 0, 79, 0
3, 139872, Note_on_c, 0, 81, 43
3, 139940, Note_on_c, 0, 81, 0
3, 139968, Note_on_c, 0, 81, 43
3, 140036, Note_on_c, 0, 81, 0
3, 140064, Note_on_c, 0, 80, 51
3, 140132, Note_on_c, 0, 80, 0
3, 140256, Note_on_c, 0, 79, 55
3, 140324, Note_on_c, 0, 79, 0
3, 140352, Note_on_c, 0, 79, 52
3, 140420, Note_on_c, 0, 79, 0
3, 140448, Note_on_c, 0, 80, 59
3, 140516, Note_on_c, 0, 80, 0
3, 140640, Note_on_c, 0, 81, 55
3, 140708, Note_on_c, 0, 81, 0
3, 140736, Note_on_c, 0, 81, 65
3, 140804, Note_on_c, 0, 81, 0
3, 140832, Note_on_c, 0, 80, 64
3, 140900, Note_on_c, 0, 80, 0
3, 141024, Note_on_c, 0, 79, 70
3, 141092, Note_on_c, 0, 79, 0
3, 141120, Note_on_c, 0, 79, 75
3, 141188, Note_on_c, 0, 79, 0
3, 141216, Note_on_c, 0, 76, 76
3, 141248, Note_on_c, 0, 76, 0
3, 148992, Note_on_c, 0, 91, 74
3, 149060, Note_on_c, 0, 91, 0
3, 149088, Note_on_c, 0, 91, 76
3, 149156, Note_on_c, 0, 91, 0
3, 149184, Note_on_c, 0, 91, 75
3, 149252, Note_on_c, 0, 91, 0
3, 149280, Note_on_c, 0, 90, 71
3, 149348, Note_on_c, 0, 90, 0
3, 149376, Note_on_c, 0, 90, 78
3, 149444, Note_on_c, 0, 90, 0
3, 149472, Note_on_c, 0, 90, 74
3, 149540, Note_on_c, 0, 90, 0
3, 149568, Note_on_c, 0, 90, 73
3, 149636, Note_on_c, 0, 90, 0
3, 149664, Note_on_c, 0, 91, 72
3, 149732, Note_on_c, 0, 91, 0
3, 149760, Note_on_c, 0, 92, 75
3, 149828, Note_on_c, 0, 92, 0
3, 149856, Note_on_c, 0, 92, 74
3, 149924, Note_on_c, 0, 92, 0
3, 149952, Note_on_c, 0, 92, 75
3, 150020, Note_on_c, 0, 92, 0
3, 150048, Note_on_c, 0, 91, 79
3, 150116, Note_on_c, 0, 91, 0
3, 150144, Note_on_c, 0, 91, 76
3, 150212, Note_on_c, 0, 91, 0
3, 150240, Note_on_c, 0, 91, 70
3, 150308, Note_on_c, 0, 91, 0
3, 150336, Note_on_c, 0, 91, 71
3, 150404, Note_on_c, 0, 91, 0
3, 150432, Note_on_c, 0, 92, 80
3, 150464, Note_on_c, 0, 92, 0
3, 150528, Control_c, 0, 11, 92
3, 150528, Note_on_c, 0, 93, 107
3, 150656, Note_on_c, 0, 93, 0
3, 150656, Note_on_c, 0, 93, 112
3, 150784, Note_on_c, 0, 93, 0
3, 150784, Note_on_c, 0, 92, 103
3, 151296, Control_c, 0, 11, 92
3, 151317, Control_c, 0, 11, 93
3, 151339, Control_c, 0, 11, 94
3, 151361, Control_c, 0, 11, 95
3, 151383, Control_c, 0, 11, 96
3, 151405, Control_c, 0, 11, 97
3, 151427, Control_c, 0, 11, 98
3, 151449, Control_c, 0, 11, 99
3, 151471, Control_c, 0, 11, 100
3, 151493, Control_c, 0, 11, 101
3, 151515, Control_c, 0, 11, 102
3, 151537, Control_c, 0, 11, 103
3, 151559, Control_c, 0, 11, 104
3, 151581, Control_c, 0, 11, 105
3, 151603, Control_c, 0, 11, 106
3, 151625, Control_c, 0, 11, 107
3, 151647, Control_c, 0, 11, 108
3, 151669, Control_c, 0, 11, 109
3, 151680, Note_on_c, 0, 92, 0
3, 151680, Note_on_c, 0, 93, 113
3, 151690, Control_c, 0, 11, 110
3, 151712, Control_c, 0, 11, 111
3, 151734, Control_c, 0, 11, 112
3, 151756, Control_c, 0, 11, 113
3, 151778, Control_c, 0, 11, 114
3, 151800, Control_c, 0, 11, 115
3, 151808, Note_on_c, 0, 93, 0
3, 151808, Note_on_c, 0, 93, 108
3, 151822, Control_c, 0, 11, 116
3, 151844, Control_c, 0, 11, 117
3, 151866, Control_c, 0, 11, 118
3, 151888, Control_c, 0, 11, 119
3, 151910, Control_c, 0, 11, 120
3, 151932, Control_c, 0, 11, 121
3, 151936, Note_on_c, 0, 93, 0
3, 151936, Note_on_c, 0, 92, 111
3, 151954, Control_c, 0, 11, 122
3, 151976, Control_c, 0, 11, 123
3, 151998, Control_c, 0, 11, 124
3, 152020, Control_c, 0, 11, 125
3, 152042, Control_c, 0, 11, 126
3, 152062, Note_on_c, 0, 92, 0
3, 152064, Control_c, 0, 11, 127
3, 152064, Control_c, 0, 11, 92
3, 152064, Note_on_c, 0, 94, 111
3, 152074, Control_c, 0, 11, 93
3, 152085, Control_c, 0, 11, 94
3, 152096, Control_c, 0, 11, 95
3, 152107, Control_c, 0, 11, 96
3, 152118, Control_c, 0, 11, 97
3, 152129, Control_c, 0, 11, 98
3, 152140, Control_c, 0, 11, 99
3, 152151, Control_c, 0, 11, 100
3, 152162, Control_c, 0, 11, 101
3, 152173, Control_c, 0, 11, 102
3, 152184, Control_c, 0, 11, 103
3, 152192, Note_on_c, 0, 94, 0
3, 152192, Note_on_c, 0, 94, 106
3, 152195, Control_c, 0, 11, 104
3, 152206, Control_c, 0, 11, 105
3, 152217, Control_c, 0, 11, 106
3, 152228, Control_c, 0, 11, 107
3, 152239, Control_c, 0, 11, 108
3, 152250, Control_c, 0, 11, 109
3, 152261, Control_c, 0, 11, 110
3, 152272, Control_c, 0, 11, 111
3, 152283, Control_c, 0, 11, 112
3, 152294, Control_c, 0, 11, 113
3, 152305, Control_c, 0, 11, 114
3, 152316, Control_c, 0, 11, 115
3, 152320, Note_on_c, 0, 94, 0
3, 152320, Note_on_c, 0, 92, 103
3, 152327, Control_c, 0, 11, 116
3, 152338, Control_c, 0, 11, 117
3, 152349, Control_c, 0, 11, 118
3, 152360, Control_c, 0, 11, 119
3, 152371, Control_c, 0, 11, 120
3, 152382, Control_c, 0, 11, 121
3, 152393, Control_c, 0, 11, 122
3, 152404, Control_c, 0, 11, 123
3, 152415, Control_c, 0, 11, 124
3, 152426, Control_c, 0, 11, 125
3, 152437, Control_c, 0, 11, 126
3, 152448, Control_c, 0, 11, 127
3, 152832, Control_c, 0, 11, 92
3, 152853, Control_c, 0, 11, 93
3, 152875, Control_c, 0, 11, 94
3, 152897, Control_c, 0, 11, 95
3, 152919, Control_c, 0, 11, 96
3, 152941, Control_c, 0, 11, 97
3, 152963, Control_c, 0, 11, 98
3, 152985, Control_c, 0, 11, 99
3, 153007, Control_c, 0, 11, 100
3, 153029, Control_c, 0, 11, 101
3, 153051, Control_c, 0, 11, 102
3, 153073, Control_c, 0, 11, 103
3, 153095, Control_c, 0, 11, 104
3, 153117, Control_c, 0, 11, 105
3, 153139, Control_c, 0, 11, 106
3, 153161, Control_c, 0, 11, 107
3, 153183, Control_c, 0, 11, 108
3, 153205, Control_c, 0, 11, 109
3, 153216, Note_on_c, 0, 92, 0
3, 153216, Note_on_c, 0, 94, 106
3, 153226, Control_c, 0, 11, 110
3, 153248, Control_c, 0, 11, 111
3, 153270, Control_c, 0, 11, 112
3, 153292, Control_c, 0, 11, 113
3, 153314, Control_c, 0, 11, 114
3, 153336, Control_c, 0, 11, 115
3, 153344, Note_on_c, 0, 94, 0
3, 153344, Note_on_c, 0, 94, 111
3, 153358, Control_c, 0, 11, 116
3, 153380, Control_c, 0, 11, 117
3, 153402, Control_c, 0, 11, 118
3, 153424, Control_c, 0, 11, 119
3, 153446, Control_c, 0, 11, 120
3, 153468, Control_c, 0, 11, 121
3, 153472, Note_on_c, 0, 94, 0
3, 153472, Note_on_c, 0, 92, 112
3, 153490, Control_c, 0, 11, 122
3, 153512, Control_c, 0, 11, 123
3, 153534, Control_c, 0, 11, 124
3, 153556, Control_c, 0, 11, 125
3, 153578, Control_c, 0, 11, 126
3, 153598, Note_on_c, 0, 92, 0
3, 153600, Control_c, 0, 11, 127
3, 153600, Note_on_c, 0, 95, 90
3, 153888, Note_on_c, 0, 95, 0
3, 153888, Note_on_c, 0, 94, 89
3, 153982, Note_on_c, 0, 94, 0
3, 153984, Note_on_c, 0, 93, 88
3, 154272, Note_on_c, 0, 93, 0
3, 154272, Note_on_c, 0, 92, 97
3, 154366, Note_on_c, 0, 92, 0
3, 154368, Note_on_c, 0, 91, 96
3, 154656, Note_on_c, 0, 91, 0
3, 154656, Note_on_c, 0, 90, 90
3, 154750, Note_on_c, 0, 90, 0
3, 154752, Note_on_c, 0, 89, 91
3, 155040, Note_on_c, 0, 89, 0
3, 155040, Note_on_c, 0, 88, 91
3, 155134, Note_on_c, 0, 88, 0
3, 155136, Note_on_c, 0, 87, 95
3, 155424, Note_on_c, 0, 87, 0
3, 155424, Note_on_c, 0, 86, 87
3, 155518, Note_on_c, 0, 86, 0
3, 155520, Note_on_c, 0, 85, 90
3, 155808, Note_on_c, 0, 85, 0
3, 155808, Note_on_c, 0, 84, 92
3, 155902, Note_on_c, 0, 84, 0
3, 155904, Note_on_c, 0, 83, 90
3, 156192, Note_on_c, 0, 83, 0
3, 156192, Note_on_c, 0, 82, 88
3, 156288, Note_on_c, 0, 82, 0
3, 156288, Note_on_c, 0, 81, 94
3, 156384, Note_on_c, 0, 81, 0
3, 156384, Note_on_c, 0, 80, 93
3, 156480, Note_on_c, 0, 80, 0
3, 156480, Note_on_c, 0, 79, 93
3, 156576, Note_on_c, 0, 79, 0
3, 156576, Note_on_c, 0, 78, 109
3, 156670, Note_on_c, 0, 78, 0
3, 163584, Control_c, 0, 11, 92
3, 163584, Note_on_c, 0, 92, 94
3, 163589, Control_c, 0, 11, 93
3, 163594, Control_c, 0, 11, 94
3, 163600, Control_c, 0, 11, 95
3, 163605, Control_c, 0, 11, 96
3, 163611, Control_c, 0, 11, 97
3, 163616, Control_c, 0, 11, 98
3, 163622, Control_c, 0, 11, 99
3, 163627, Control_c, 0, 11, 100
3, 163630, Note_on_c, 0, 92, 0
3, 163632, Note_on_c, 0, 94, 94
3, 163633, Control_c, 0, 11, 101
3, 163638, Control_c, 0, 11, 102
3, 163644, Control_c, 0, 11, 103
3, 163649, Control_c, 0, 11, 104
3, 163655, Control_c, 0, 11, 105
3, 163660, Control_c, 0, 11, 106
3, 163666, Control_c, 0, 11, 107
3, 163671, Control_c, 0, 11, 108
3, 163677, Control_c, 0, 11, 109
3, 163682, Control_c, 0, 11, 110
3, 163688, Control_c, 0, 11, 111
3, 163693, Control_c, 0, 11, 112
3, 163699, Control_c, 0, 11, 113
3, 163704, Control_c, 0, 11, 114
3, 163710, Control_c, 0, 11, 115
3, 163715, Control_c, 0, 11, 116
3, 163721, Control_c, 0, 11, 117
3, 163726, Control_c, 0, 11, 118
3, 163732, Control_c, 0, 11, 119
3, 163737, Control_c, 0, 11, 120
3, 163743, Control_c, 0, 11, 121
3, 163748, Control_c, 0, 11, 122
3, 163754, Control_c, 0, 11, 123
3, 163759, Control_c, 0, 11, 124
3, 163765, Control_c, 0, 11, 125
3, 163770, Control_c, 0, 11, 126
3, 163776, Control_c, 0, 11, 127
3, 163779, Control_c, 0, 11, 126
3, 163782, Control_c, 0, 11, 125
3, 163785, Control_c, 0, 11, 124
3, 163788, Control_c, 0, 11, 123
3, 163791, Control_c, 0, 11, 122
3, 163794, Control_c, 0, 11, 121
3, 163797, Control_c, 0, 11, 120
3, 163800, Control_c, 0, 11, 119
3, 163803, Control_c, 0, 11, 118
3, 163806, Control_c, 0, 11, 117
3, 163809, Control_c, 0, 11, 116
3, 163812, Control_c, 0, 11, 115
3, 163815, Control_c, 0, 11, 114
3, 163818, Control_c, 0, 11, 113
3, 163821, Control_c, 0, 11, 112
3, 163824, Control_c, 0, 11, 111
3, 163827, Control_c, 0, 11, 110
3, 163830, Control_c, 0, 11, 109
3, 163833, Control_c, 0, 11, 108
3, 163836, Control_c, 0, 11, 107
3, 163840, Control_c, 0, 11, 106
3, 163843, Control_c, 0, 11, 105
3, 163846, Control_c, 0, 11, 104
3, 163849, Control_c, 0, 11, 103
3, 163852, Control_c, 0, 11, 102
3, 163855, Control_c, 0, 11, 101
3, 163858, Control_c, 0, 11, 100
3, 163861, Control_c, 0, 11, 99
3, 163864, Control_c, 0, 11, 98
3, 163867, Control_c, 0, 11, 97
3, 163870, Control_c, 0, 11, 96
3, 163873, Control_c, 0, 11, 95
3, 163876, Control_c, 0, 11, 94
3, 163879, Control_c, 0, 11, 93
3, 163882, Control_c, 0, 11, 92
3, 163885, Control_c, 0, 11, 91
3, 163888, Control_c, 0, 11, 90
3, 163891, Control_c, 0, 11, 89
3, 163894, Control_c, 0, 11, 88
3, 163897, Control_c, 0, 11, 87
3, 163900, Control_c, 0, 11, 86
3, 163904, Control_c, 0, 11, 85
3, 163907, Control_c, 0, 11, 84
3, 163910, Control_c, 0, 11, 83
3, 163913, Control_c, 0, 11, 82
3, 163916, Control_c, 0, 11, 81
3, 163919, Control_c, 0, 11, 80
3, 163922, Control_c, 0, 11, 79
3, 163925, Control_c, 0, 11, 78
3, 163928, Control_c, 0, 11, 77
3, 163931, Control_c, 0, 11, 76
3, 163934, Control_c, 0, 11, 75
3, 163937, Control_c, 0, 11, 74
3, 163940, Control_c, 0, 11, 73
3, 163943, Control_c, 0, 11, 72
3, 163946, Control_c, 0, 11, 71
3, 163949, Control_c, 0, 11, 70
3, 163952, Control_c, 0, 11, 69
3, 163955, Control_c, 0, 11, 68
3, 163958, Control_c, 0, 11, 67
3, 163961, Control_c, 0, 11, 66
3, 163964, Control_c, 0, 11, 65
3, 163968, Control_c, 0, 11, 64
3, 164112, Note_on_c, 0, 94, 0
3, 165120, Control_c, 0, 11, 92
3, 165120, Note_on_c, 0, 92, 96
3, 165125, Control_c, 0, 11, 93
3, 165130, Control_c, 0, 11, 94
3, 165136, Control_c, 0, 11, 95
3, 165141, Control_c, 0, 11, 96
3, 165147, Control_c, 0, 11, 97
3, 165152, Control_c, 0, 11, 98
3, 165158, Control_c, 0, 11, 99
3, 165163, Control_c, 0, 11, 100
3, 165166, Note_on_c, 0, 92, 0
3, 165168, Note_on_c, 0, 94, 93
3, 165169, Control_c, 0, 11, 101
3, 165174, Control_c, 0, 11, 102
3, 165180, Control_c, 0, 11, 103
3, 165185, Control_c, 0, 11, 104
3, 165191, Control_c, 0, 11, 105
3, 165196, Control_c, 0, 11, 106
3, 165202, Control_c, 0, 11, 107
3, 165207, Control_c, 0, 11, 108
3, 165213, Control_c, 0, 11, 109
3, 165218, Control_c, 0, 11, 110
3, 165224, Control_c, 0, 11, 111
3, 165229, Control_c, 0, 11, 112
3, 165235, Control_c, 0, 11, 113
3, 165240, Control_c, 0, 11, 114
3, 165246, Control_c, 0, 11, 115
3, 165251, Control_c, 0, 11, 116
3, 165257, Control_c, 0, 11, 117
3, 165262, Control_c, 0, 11, 118
3, 165268, Control_c, 0, 11, 119
3, 165273, Control_c, 0, 11, 120
3, 165279, Control_c, 0, 11, 121
3, 165284, Control_c, 0, 11, 122
3, 165290, Control_c, 0, 11, 123
3, 165295, Control_c, 0, 11, 124
3, 165301, Control_c, 0, 11, 125
3, 165306, Control_c, 0, 11, 126
3, 165312, Control_c, 0, 11, 127
3, 165315, Control_c, 0, 11, 126
3, 165318, Control_c, 0, 11, 125
3, 165321, Control_c, 0, 11, 124
3, 165324, Control_c, 0, 11, 123
3, 165327, Control_c, 0, 11, 122
3, 165330, Control_c, 0, 11, 121
3, 165333, Control_c, 0, 11, 120
3, 165336, Control_c, 0, 11, 119
3, 165339, Control_c, 0, 11, 118
3, 165342, Control_c, 0, 11, 117
3, 165345, Control_c, 0, 11, 116
3, 165348, Control_c, 0, 11, 115
3, 165351, Control_c, 0, 11, 114
3, 165354, Control_c, 0, 11, 113
3, 165357, Control_c, 0, 11, 112
3, 165360, Control_c, 0, 11, 111
3, 165363, Control_c, 0, 11, 110
3, 165366, Control_c, 0, 11, 109
3, 165369, Control_c, 0, 11, 108
3, 165372, Control_c, 0, 11, 107
3, 165376, Control_c, 0, 11, 106
3, 165379, Control_c, 0, 11, 105
3, 165382, Control_c, 0, 11, 104
3, 165385, Control_c, 0, 11, 103
3, 165388, Control_c, 0, 11, 102
3, 165391, Control_c, 0, 11, 101
3, 165394, Control_c, 0, 11, 100
3, 165397, Control_c, 0, 11, 99
3, 165400, Control_c, 0, 11, 98
3, 165403, Control_c, 0, 11, 97
3, 165406, Control_c, 0, 11, 96
3, 165409, Control_c, 0, 11, 95
3, 165412, Control_c, 0, 11, 94
3, 165415, Control_c, 0, 11, 93
3, 165418, Control_c, 0, 11, 92
3, 165421, Control_c, 0, 11, 91
3, 165424, Control_c, 0, 11, 90
3, 165427, Control_c, 0, 11, 89
3, 165430, Control_c, 0, 11, 88
3, 165433, Control_c, 0, 11, 87
3, 165436, Control_c, 0, 11, 86
3, 165440, Control_c, 0, 11, 85
3, 165443, Control_c, 0, 11, 84
3, 165446, Control_c, 0, 11, 83
3, 165449, Control_c, 0, 11, 82
3, 165452, Control_c, 0, 11, 81
3, 165455, Control_c, 0, 11, 80
3, 165458, Control_c, 0, 11, 79
3, 165461, Control_c, 0, 11, 78
3, 165464, Control_c, 0, 11, 77
3, 165467, Control_c, 0, 11, 76
3, 165470, Control_c, 0, 11, 75
3, 165473, Control_c, 0, 11, 74
3, 165476, Control_c, 0, 11, 73
3, 165479, Control_c, 0, 11, 72
3, 165482, Control_c, 0, 11, 71
3, 165485, Control_c, 0, 11, 70
3, 165488, Control_c, 0, 11, 69
3, 165491, Control_c, 0, 11, 68
3, 165494, Control_c, 0, 11, 67
3, 165497, Control_c, 0, 11, 66
3, 165500, Control_c, 0, 11, 65
3, 165504, Control_c, 0, 11, 64
3, 165648, Note_on_c, 0, 94, 0
3, 168192, Control_c, 0, 11, 92
3, 168192, Note_on_c, 0, 92, 93
3, 168197, Control_c, 0, 11, 93
3, 168202, Control_c, 0, 11, 94
3, 168208, Control_c, 0, 11, 95
3, 168213, Control_c, 0, 11, 96
3, 168219, Control_c, 0, 11, 97
3, 168224, Control_c, 0, 11, 98
3, 168230, Control_c, 0, 11, 99
3, 168235, Control_c, 0, 11, 100
3, 168238, Note_on_c, 0, 92, 0
3, 168240, Note_on_c, 0, 94, 95
3, 168241, Control_c, 0, 11, 101
3, 168246, Control_c, 0, 11, 102
3, 168252, Control_c, 0, 11, 103
3, 168257, Control_c, 0, 11, 104
3, 168263, Control_c, 0, 11, 105
3, 168268, Control_c, 0, 11, 106
3, 168274, Control_c, 0, 11, 107
3, 168279, Control_c, 0, 11, 108
3, 168285, Control_c, 0, 11, 109
3, 168290, Control_c, 0, 11, 110
3, 168296, Control_c, 0, 11, 111
3, 168301, Control_c, 0, 11, 112
3, 168307, Control_c, 0, 11, 113
3, 168312, Control_c, 0, 11, 114
3, 168318, Control_c, 0, 11, 115
3, 168323, Control_c, 0, 11, 116
3, 168329, Control_c, 0, 11, 117
3, 168334, Control_c, 0, 11, 118
3, 168340, Control_c, 0, 11, 119
3, 168345, Control_c, 0, 11, 120
3, 168351, Control_c, 0, 11, 121
3, 168356, Control_c, 0, 11, 122
3, 168362, Control_c, 0, 11, 123
3, 168367, Control_c, 0, 11, 124
3, 168373, Control_c, 0, 11, 125
3, 168378, Control_c, 0, 11, 126
3, 168384, Control_c, 0, 11, 127
3, 168387, Control_c, 0, 11, 126
3, 168390, Control_c, 0, 11, 125
3, 168393, Control_c, 0, 11, 124
3, 168396, Control_c, 0, 11, 123
3, 168399, Control_c, 0, 11, 122
3, 168402, Control_c, 0, 11, 121
3, 168405, Control_c, 0, 11, 120
3, 168408, Control_c, 0, 11, 119
3, 168411, Control_c, 0, 11, 118
3, 168414, Control_c, 0, 11, 117
3, 168417, Control_c, 0, 11, 116
3, 168420, Control_c, 0, 11, 115
3, 168423, Control_c, 0, 11, 114
3, 168426, Control_c, 0, 11, 113
3, 168429, Control_c, 0, 11, 112
3, 168432, Control_c, 0, 11, 111
3, 168435, Control_c, 0, 11, 110
3, 168438, Control_c, 0, 11, 109
3, 168441, Control_c, 0, 11, 108
3, 168444, Control_c, 0, 11, 107
3, 168448, Control_c, 0, 11, 106
3, 168451, Control_c, 0, 11, 105
3, 168454, Control_c, 0, 11, 104
3, 168457, Control_c, 0, 11, 103
3, 168460, Control_c, 0, 11, 102
3, 168463, Control_c, 0, 11, 101
3, 168466, Control_c, 0, 11, 100
3, 168469, Control_c, 0, 11, 99
3, 168472, Control_c, 0, 11, 98
3, 168475, Control_c, 0, 11, 97
3, 168478, Control_c, 0, 11, 96
3, 168481, Control_c, 0, 11, 95
3, 168484, Control_c, 0, 11, 94
3, 168487, Control_c, 0, 11, 93
3, 168490, Control_c, 0, 11, 92
3, 168493, Control_c, 0, 11, 91
3, 168496, Control_c, 0, 11, 90
3, 168499, Control_c, 0, 11, 89
3, 168502, Control_c, 0, 11, 88
3, 168505, Control_c, 0, 11, 87
3, 168508, Control_c, 0, 11, 86
3, 168512, Control_c, 0, 11, 85
3, 168515, Control_c, 0, 11, 84
3, 168518, Control_c, 0, 11, 83
3, 168521, Control_c, 0, 11, 82
3, 168524, Control_c, 0, 11, 81
3, 168527, Control_c, 0, 11, 80
3, 168530, Control_c, 0, 11, 79
3, 168533, Control_c, 0, 11, 78
3, 168536, Control_c, 0, 11, 77
3, 168539, Control_c, 0, 11, 76
3, 168542, Control_c, 0, 11, 75
3, 168545, Control_c, 0, 11, 74
3, 168548, Control_c, 0, 11, 73
3, 168551, Control_c, 0, 11, 72
3, 168554, Control_c, 0, 11, 71
3, 168557, Control_c, 0, 11, 70
3, 168560, Control_c, 0, 11, 69
3, 168563, Control_c, 0, 11, 68
3, 168566, Control_c, 0, 11, 67
3, 168569, Control_c, 0, 11, 66
3, 168572, Control_c, 0, 11, 65
3, 168576, Control_c, 0, 11, 64
3, 168720, Note_on_c, 0, 94, 0
3, 180480, Note_on_c, 0, 85, 79
3, 180606, Note_on_c, 0, 85, 0
3, 180608, Note_on_c, 0, 85, 80
3, 180650, Note_on_c, 0, 85, 0
3, 180672, Note_on_c, 0, 84, 79
3, 180714, Note_on_c, 0, 84, 0
3, 180736, Note_on_c, 0, 83, 77
3, 180778, Note_on_c, 0, 83, 0
3, 180800, Note_on_c, 0, 82, 81
3, 180842, Note_on_c, 0, 82, 0
3, 180864, Note_on_c, 0, 85, 80
3, 180990, Note_on_c, 0, 85, 0
3, 180992, Note_on_c, 0, 85, 75
3, 181034, Note_on_c, 0, 85, 0
3, 181056, Note_on_c, 0, 84, 83
3, 181098, Note_on_c, 0, 84, 0
3, 181120, Note_on_c, 0, 83, 81
3, 181162, Note_on_c, 0, 83, 0
3, 181184, Note_on_c, 0, 82, 80
3, 181226, Note_on_c, 0, 82, 0
3, 181248, Note_on_c, 0, 85, 81
3, 181374, Note_on_c, 0, 85, 0
3, 181376, Note_on_c, 0, 85, 83
3, 181418, Note_on_c, 0, 85, 0
3, 181440, Note_on_c, 0, 84, 86
3, 181482, Note_on_c, 0, 84, 0
3, 181504, Note_on_c, 0, 83, 91
3, 181546, Note_on_c, 0, 83, 0
3, 181568, Note_on_c, 0, 82, 87
3, 181610, Note_on_c, 0, 82, 0
3, 181632, Note_on_c, 0, 85, 92
3, 181758, Note_on_c, 0, 85, 0
3, 181760, Note_on_c, 0, 85, 89
3, 181802, Note_on_c, 0, 85, 0
3, 181824, Note_on_c, 0, 84, 94
3, 181866, Note_on_c, 0, 84, 0
3, 181888, Note_on_c, 0, 83, 91
3, 181930, Note_on_c, 0, 83, 0
3, 181952, Note_on_c, 0, 82, 93
3, 181994, Note_on_c, 0, 82, 0
3, 182016, Note_on_c, 0, 85, 98
3, 182142, Note_on_c, 0, 85, 0
3, 182144, Note_on_c, 0, 85, 96
3, 182186, Note_on_c, 0, 85, 0
3, 182208, Note_on_c, 0, 84, 102
3, 182250, Note_on_c, 0, 84, 0
3, 182272, Note_on_c, 0, 83, 103
3, 182314, Note_on_c, 0, 83, 0
3, 182336, Note_on_c, 0, 82, 105
3, 182378, Note_on_c, 0, 82, 0
3, 182400, Note_on_c, 0, 85, 97
3, 182526, Note_on_c, 0, 85, 0
3, 182528, Note_on_c, 0, 85, 103
3, 182570, Note_on_c, 0, 85, 0
3, 182592, Note_on_c, 0, 84, 102
3, 182634, Note_on_c, 0, 84, 0
3, 182656, Note_on_c, 0, 83, 106
3, 182698, Note_on_c, 0, 83, 0
3, 182720, Note_on_c, 0, 82, 109
3, 182762, Note_on_c, 0, 82, 0
3, 182784, Control_c, 0, 11, 92
3, 182784, Note_on_c, 0, 91, 106
3, 184272, Note_on_c, 0, 91, 0
3, 184320, Control_c, 0, 11, 92
3, 184320, Note_on_c, 0, 92, 113
3, 184363, Control_c, 0, 11, 93
3, 184407, Control_c, 0, 11, 94
3, 184451, Control_c, 0, 11, 95
3, 184495, Control_c, 0, 11, 96
3, 184539, Control_c, 0, 11, 97
3, 184583, Control_c, 0, 11, 98
3, 184627, Control_c, 0, 11, 99
3, 184671, Control_c, 0, 11, 100
3, 184714, Control_c, 0, 11, 101
3, 184758, Control_c, 0, 11, 102
3, 184802, Control_c, 0, 11, 103
3, 184846, Control_c, 0, 11, 104
3, 184890, Control_c, 0, 11, 105
3, 184934, Control_c, 0, 11, 106
3, 184978, Control_c, 0, 11, 107
3, 185022, Control_c, 0, 11, 108
3, 185066, Control_c, 0, 11, 109
3, 185088, Note_on_c, 0, 92, 0
3, 185088, Note_on_c, 0, 94, 111
3, 185109, Control_c, 0, 11, 110
3, 185153, Control_c, 0, 11, 111
3, 185197, Control_c, 0, 11, 112
3, 185241, Control_c, 0, 11, 113
3, 185285, Control_c, 0, 11, 114
3, 185329, Control_c, 0, 11, 115
3, 185373, Control_c, 0, 11, 116
3, 185417, Control_c, 0, 11, 117
3, 185461, Control_c, 0, 11, 118
3, 185504, Control_c, 0, 11, 119
3, 185548, Control_c, 0, 11, 120
3, 185592, Control_c, 0, 11, 121
3, 185636, Control_c, 0, 11, 122
3, 185680, Control_c, 0, 11, 123
3, 185724, Control_c, 0, 11, 124
3, 185768, Control_c, 0, 11, 125
3, 185808, Note_on_c, 0, 94, 0
3, 185812, Control_c, 0, 11, 126
3, 185856, Control_c, 0, 11, 127
3, 196032, Note_on_c, 0, 97, 93
3, 196078, Note_on_c, 0, 97, 0
3, 196080, Note_on_c, 0, 101, 91
3, 196384, Note_on_c, 0, 101, 0
3, 196416, Note_on_c, 0, 97, 94
3, 196462, Note_on_c, 0, 97, 0
3, 196464, Note_on_c, 0, 101, 96
3, 197328, Note_on_c, 0, 101, 0
3, 197568, Note_on_c, 0, 97, 91
3, 197614, Note_on_c, 0, 97, 0
3, 197616, Note_on_c, 0, 101, 95
3, 197920, Note_on_c, 0, 101, 0
3, 197952, Note_on_c, 0, 97, 87
3, 197998, Note_on_c, 0, 97, 0
3, 198000, Note_on_c, 0, 101, 92
3, 198864, Note_on_c, 0, 101, 0
3, 201984, Note_on_c, 0, 92, 93
3, 202075, Note_on_c, 0, 92, 0
3, 202112, Note_on_c, 0, 92, 93
3, 202203, Note_on_c, 0, 92, 0
3, 202240, Note_on_c, 0, 90, 95
3, 202331, Note_on_c, 0, 90, 0
3, 202368, Note_on_c, 0, 92, 88
3, 202459, Note_on_c, 0, 92, 0
3, 202496, Note_on_c, 0, 92, 91
3, 202587, Note_on_c, 0, 92, 0
3, 202624, Note_on_c, 0, 90, 89
3, 202715, Note_on_c, 0, 90, 0
3, 202752, Note_on_c, 0, 92, 95
3, 202843, Note_on_c, 0, 92, 0
3, 202880, Note_on_c, 0, 92, 92
3, 202971, Note_on_c, 0, 92, 0
3, 203008, Note_on_c, 0, 90, 97
3, 203099, Note_on_c, 0, 90, 0
3, 203136, Note_on_c, 0, 94, 90
3, 203227, Note_on_c, 0, 94, 0
3, 203264, Note_on_c, 0, 94, 87
3, 203355, Note_on_c, 0, 94, 0
3, 203392, Note_on_c, 0, 92, 95
3, 203483, Note_on_c, 0, 92, 0
3, 203520, Note_on_c, 0, 92, 97
3, 203611, Note_on_c, 0, 92, 0
3, 203648, Note_on_c, 0, 92, 96
3, 203739, Note_on_c, 0, 92, 0
3, 203776, Note_on_c, 0, 90, 88
3, 203867, Note_on_c, 0, 90, 0
3, 203904, Note_on_c, 0, 92, 90
3, 203995, Note_on_c, 0, 92, 0
3, 204032, Note_on_c, 0, 92, 95
3, 204123, Note_on_c, 0, 92, 0
3, 204160, Note_on_c, 0, 90, 87
3, 204251, Note_on_c, 0, 90, 0
3, 204288, Note_on_c, 0, 89, 93
3, 204379, Note_on_c, 0, 89, 0
3, 204416, Note_on_c, 0, 89, 79
3, 204507, Note_on_c, 0, 89, 0
3, 204544, Note_on_c, 0, 87, 74
3, 204635, Note_on_c, 0, 87, 0
3, 204672, Note_on_c, 0, 89, 68
3, 204763, Note_on_c, 0, 89, 0
3, 204800, Note_on_c, 0, 89, 56
3, 204891, Note_on_c, 0, 89, 0
3, 204928, Note_on_c, 0, 87, 49
3, 205054, Note_on_c, 0, 87, 0
3, 208032, Note_on_c, 0, 85, 103
3, 208056, Note_on_c, 0, 85, 0
3, 208056, Note_on_c, 0, 87, 113
3, 208080, Note_on_c, 0, 87, 0
3, 208080, Note_on_c, 0, 89, 111
3, 208104, Note_on_c, 0, 89, 0
3, 208104, Note_on_c, 0, 90, 106
3, 208128, Note_on_c, 0, 90, 0
3, 208128, Note_on_c, 0, 92, 108
3, 209056, Note_on_c, 0, 92, 0
3, 212640, Note_on_c, 0, 85, 93
3, 212662, Note_on_c, 0, 85, 0
3, 212664, Note_on_c, 0, 87, 88
3, 212686, Note_on_c, 0, 87, 0
3, 212688, Note_on_c, 0, 89, 93
3, 212710, Note_on_c, 0, 89, 0
3, 212712, Note_on_c, 0, 90, 104
3, 212734, Note_on_c, 0, 90, 0
3, 212736, Note_on_c, 0, 92, 108
3, 213664, Note_on_c, 0, 92, 0
3, 220416, Note_on_c, 0, 89, 109
3, 220448, Note_on_c, 0, 89, 0
3, 220512, Note_on_c, 0, 91, 106
3, 220544, Note_on_c, 0, 91, 0
3, 220608, Note_on_c, 0, 94, 103
3, 220670, Note_on_c, 0, 94, 0
3, 220672, Note_on_c, 0, 92, 107
3, 220734, Note_on_c, 0, 92, 0
3, 220736, Note_on_c, 0, 91, 111
3, 220798, Note_on_c, 0, 91, 0
3, 220800, Note_on_c, 0, 89, 111
3, 220832, Note_on_c, 0, 89, 0
3, 220896, Note_on_c, 0, 91, 103
3, 220928, Note_on_c, 0, 91, 0
3, 220992, Note_on_c, 0, 94, 106
3, 221054, Note_on_c, 0, 94, 0
3, 221056, Note_on_c, 0, 92, 111
3, 221118, Note_on_c, 0, 92, 0
3, 221120, Note_on_c, 0, 91, 111
3, 221182, Note_on_c, 0, 91, 0
3, 221184, Note_on_c, 0, 89, 109
3, 221216, Note_on_c, 0, 89, 0
3, 221280, Note_on_c, 0, 91, 105
3, 221312, Note_on_c, 0, 91, 0
3, 221376, Note_on_c, 0, 94, 109
3, 221438, Note_on_c, 0, 94, 0
3, 221440, Note_on_c, 0, 92, 111
3, 221502, Note_on_c, 0, 92, 0
3, 221504, Note_on_c, 0, 91, 103
3, 221566, Note_on_c, 0, 91, 0
3, 221568, Note_on_c, 0, 89, 110
3, 221600, Note_on_c, 0, 89, 0
3, 221664, Note_on_c, 0, 91, 110
3, 221696, Note_on_c, 0, 91, 0
3, 221760, Note_on_c, 0, 94, 103
3, 221822, Note_on_c, 0, 94, 0
3, 221824, Note_on_c, 0, 92, 103
3, 221886, Note_on_c, 0, 92, 0
3, 221888, Note_on_c, 0, 91, 104
3, 221950, Note_on_c, 0, 91, 0
3, 221952, Note_on_c, 0, 89, 107
3, 221984, Note_on_c, 0, 89, 0
3, 222048, Note_on_c, 0, 91, 109
3, 222080, Note_on_c, 0, 91, 0
3, 222144, Note_on_c, 0, 94, 108
3, 222206, Note_on_c, 0, 94, 0
3, 222208, Note_on_c, 0, 92, 104
3, 222270, Note_on_c, 0, 92, 0
3, 222272, Note_on_c, 0, 91, 107
3, 222334, Note_on_c, 0, 91, 0
3, 222336, Note_on_c, 0, 89, 108
3, 222368, Note_on_c, 0, 89, 0
3, 222432, Note_on_c, 0, 91, 104
3, 222464, Note_on_c, 0, 91, 0
3, 222528, Note_on_c, 0, 94, 109
3, 222590, Note_on_c, 0, 94, 0
3, 222592, Note_on_c, 0, 92, 105
3, 222654, Note_on_c, 0, 92, 0
3, 222656, Note_on_c, 0, 91, 109
3, 222718, Note_on_c, 0, 91, 0
3, 222720, Note_on_c, 0, 89, 107
3, 222752, Note_on_c, 0, 89, 0
3, 222816, Note_on_c, 0, 91, 109
3, 222848, Note_on_c, 0, 91, 0
3, 222912, Note_on_c, 0, 94, 109
3, 222974, Note_on_c, 0, 94, 0
3, 222976, Note_on_c, 0, 92, 109
3, 223038, Note_on_c, 0, 92, 0
3, 223040, Note_on_c, 0, 91, 112
3, 223102, Note_on_c, 0, 91, 0
3, 223104, Note_on_c, 0, 89, 113
3, 223136, Note_on_c, 0, 89, 0
3, 223200, Note_on_c, 0, 91, 104
3, 223232, Note_on_c, 0, 91, 0
3, 223296, Note_on_c, 0, 94, 104
3, 223358, Note_on_c, 0, 94, 0
3, 223360, Note_on_c, 0, 92, 111
3, 223422, Note_on_c, 0, 92, 0
3, 223424, Note_on_c, 0, 94, 111
3, 223486, Note_on_c, 0, 94, 0
3, 223488, Note_on_c, 0, 97, 104
3, 224976, Note_on_c, 0, 97, 0
3, 225024, Note_on_c, 0, 97, 107
3, 225184, Note_on_c, 0, 97, 0
3, 225184, End_track
4, 0, Start_track
4, 0, Title_t, "Oboi I - II"
4, 0, MIDI_port, 0
4, 108, Control_c, 1, 0, 0
4, 109, Control_c, 1, 32, 0
4, 110, Program_c, 1, 68
4, 111, Control_c, 1, 7, 127
4, 112, Control_c, 1, 10, 54
4, 113, Control_c, 1, 91, 64
4, 8064, Control_c, 1, 11, 92
4, 8064, Note_on_c, 1, 76, 72
4, 8064, Note_on_c, 1, 80, 71
4, 8069, Control_c, 1, 11, 93
4, 8074, Control_c, 1, 11, 94
4, 8080, Control_c, 1, 11, 95
4, 8085, Control_c, 1, 11, 96
4, 8091, Control_c, 1, 11, 97
4, 8096, Control_c, 1, 11, 98
4, 8102, Control_c, 1, 11, 99
4, 8107, Control_c, 1, 11, 100
4, 8113, Control_c, 1, 11, 101
4, 8118, Control_c, 1, 11, 102
4, 8124, Control_c, 1, 11, 103
4, 8129, Control_c, 1, 11, 104
4, 8135, Control_c, 1, 11, 105
4, 8140, Control_c, 1, 11, 106
4, 8146, Control_c, 1, 11, 107
4, 8151, Control_c, 1, 11, 108
4, 8157, Control_c, 1, 11, 109
4, 8162, Control_c, 1, 11, 110
4, 8168, Control_c, 1, 11, 111
4, 8173, Control_c, 1, 11, 112
4, 8179, Control_c, 1, 11, 113
4, 8184, Control_c, 1, 11, 114
4, 8190, Control_c, 1, 11, 115
4, 8195, Control_c, 1, 11, 116
4, 8201, Control_c, 1, 11, 117
4, 8206, Control_c, 1, 11, 118
4, 8212, Control_c, 1, 11, 119
4, 8217, Control_c, 1, 11, 120
4, 8223, Control_c, 1, 11, 121
4, 8228, Control_c, 1, 11, 122
4, 8234, Control_c, 1, 11, 123
4, 8239, Control_c, 1, 11, 124
4, 8245, Control_c, 1, 11, 125
4, 8250, Control_c, 1, 11, 126
4, 8256, Control_c, 1, 11, 127
4, 8265, Control_c, 1, 11, 126
4, 8274, Control_c, 1, 11, 125
4, 8283, Control_c, 1, 11, 124
4, 8292, Control_c, 1, 11, 123
4, 8301, Control_c, 1, 11, 122
4, 8310, Control_c, 1, 11, 121
4, 8320, Control_c, 1, 11, 120
4, 8329, Control_c, 1, 11, 119
4, 8338, Control_c, 1, 11, 118
4, 8347, Control_c, 1, 11, 117
4, 8356, Control_c, 1, 11, 116
4, 8365, Control_c, 1, 11, 115
4, 8374, Control_c, 1, 11, 114
4, 8384, Control_c, 1, 11, 113
4, 8393, Control_c, 1, 11, 112
4, 8402, Control_c, 1, 11, 111
4, 8411, Control_c, 1, 11, 110
4, 8420, Control_c, 1, 11, 109
4, 8429, Control_c, 1, 11, 108
4, 8438, Control_c, 1, 11, 107
4, 8448, Control_c, 1, 11, 106
4, 8457, Control_c, 1, 11, 105
4, 8466, Control_c, 1, 11, 104
4, 8475, Control_c, 1, 11, 103
4, 8484, Control_c, 1, 11, 102
4, 8493, Control_c, 1, 11, 101
4, 8502, Control_c, 1, 11, 100
4, 8512, Control_c, 1, 11, 99
4, 8521, Control_c, 1, 11, 98
4, 8530, Control_c, 1, 11, 97
4, 8539, Control_c, 1, 11, 96
4, 8548, Control_c, 1, 11, 95
4, 8557, Control_c, 1, 11, 94
4, 8566, Control_c, 1, 11, 93
4, 8576, Control_c, 1, 11, 92
4, 8585, Control_c, 1, 11, 91
4, 8594, Control_c, 1, 11, 90
4, 8603, Control_c, 1, 11, 89
4, 8612, Control_c, 1, 11, 88
4, 8621, Control_c, 1, 11, 87
4, 8630, Control_c, 1, 11, 86
4, 8640, Control_c, 1, 11, 85
4, 8649, Control_c, 1, 11, 84
4, 8658, Control_c, 1, 11, 83
4, 8667, Control_c, 1, 11, 82
4, 8676, Control_c, 1, 11, 81
4, 8685, Control_c, 1, 11, 80
4, 8694, Control_c, 1, 11, 79
4, 8704, Control_c, 1, 11, 78
4, 8713, Control_c, 1, 11, 77
4, 8722, Control_c, 1, 11, 76
4, 8731, Control_c, 1, 11, 75
4, 8740, Control_c, 1, 11, 74
4, 8749, Control_c, 1, 11, 73
4, 8758, Control_c, 1, 11, 72
4, 8768, Control_c, 1, 11, 71
4, 8777, Control_c, 1, 11, 70
4, 8784, Note_on_c, 1, 76, 0
4, 8784, Note_on_c, 1, 80, 0
4, 8786, Control_c, 1, 11, 69
4, 8795, Control_c, 1, 11, 68
4, 8804, Control_c, 1, 11, 67
4, 8813, Control_c, 1, 11, 66
4, 8822, Control_c, 1, 11, 65
4, 8832, Control_c, 1, 11, 64
4, 8832, Note_on_c, 1, 75, 72
4, 8832, Note_on_c, 1, 79, 72
4, 9216, Control_c, 1, 11, 64
4, 9225, Control_c, 1, 11, 65
4, 9234, Control_c, 1, 11, 66
4, 9243, Control_c, 1, 11, 67
4, 9252, Control_c, 1, 11, 68
4, 9261, Control_c, 1, 11, 69
4, 9270, Control_c, 1, 11, 70
4, 9280, Control_c, 1, 11, 71
4, 9289, Control_c, 1, 11, 72
4, 9298, Control_c, 1, 11, 73
4, 9307, Control_c, 1, 11, 74
4, 9316, Control_c, 1, 11, 75
4, 9325, Control_c, 1, 11, 76
4, 9334, Control_c, 1, 11, 77
4, 9342, Note_on_c, 1, 75, 0
4, 9342, Note_on_c, 1, 79, 0
4, 9344, Control_c, 1, 11, 78
4, 9344, Note_on_c, 1, 74, 79
4, 9344, Note_on_c, 1, 78, 76
4, 9353, Control_c, 1, 11, 79
4, 9362, Control_c, 1, 11, 80
4, 9371, Control_c, 1, 11, 81
4, 9380, Control_c, 1, 11, 82
4, 9389, Control_c, 1, 11, 83
4, 9398, Control_c, 1, 11, 84
4, 9408, Control_c, 1, 11, 85
4, 9417, Control_c, 1, 11, 86
4, 9426, Control_c, 1, 11, 87
4, 9435, Control_c, 1, 11, 88
4, 9444, Control_c, 1, 11, 89
4, 9453, Control_c, 1, 11, 90
4, 9462, Control_c, 1, 11, 91
4, 9472, Control_c, 1, 11, 92
4, 9481, Control_c, 1, 11, 93
4, 9490, Control_c, 1, 11, 94
4, 9499, Control_c, 1, 11, 95
4, 9508, Control_c, 1, 11, 96
4, 9517, Control_c, 1, 11, 97
4, 9526, Control_c, 1, 11, 98
4, 9534, Note_on_c, 1, 74, 0
4, 9534, Note_on_c, 1, 78, 0
4, 9536, Control_c, 1, 11, 99
4, 9536, Note_on_c, 1, 75, 71
4, 9536, Note_on_c, 1, 79, 70
4, 9545, Control_c, 1, 11, 100
4, 9554, Control_c, 1, 11, 101
4, 9563, Control_c, 1, 11, 102
4, 9572, Control_c, 1, 11, 103
4, 9578, Note_on_c, 1, 75, 0
4, 9578, Note_on_c, 1, 79, 0
4, 9581, Control_c, 1, 11, 104
4, 9590, Control_c, 1, 11, 105
4, 9600, Control_c, 1, 11, 106
4, 9600, Note_on_c, 1, 76, 74
4, 9600, Note_on_c, 1, 80, 76
4, 9609, Control_c, 1, 11, 107
4, 9618, Control_c, 1, 11, 108
4, 9627, Control_c, 1, 11, 109
4, 9636, Control_c, 1, 11, 110
4, 9645, Control_c, 1, 11, 111
4, 9654, Control_c, 1, 11, 112
4, 9664, Control_c, 1, 11, 113
4, 9673, Control_c, 1, 11, 114
4, 9682, Control_c, 1, 11, 115
4, 9691, Control_c, 1, 11, 116
4, 9700, Control_c, 1, 11, 117
4, 9709, Control_c, 1, 11, 118
4, 9718, Control_c, 1, 11, 119
4, 9728, Control_c, 1, 11, 120
4, 9737, Control_c, 1, 11, 121
4, 9746, Control_c, 1, 11, 122
4, 9755, Control_c, 1, 11, 123
4, 9764, Control_c, 1, 11, 124
4, 9773, Control_c, 1, 11, 125
4, 9782, Control_c, 1, 11, 126
4, 9792, Control_c, 1, 11, 127
4, 9801, Control_c, 1, 11, 126
4, 9810, Control_c, 1, 11, 125
4, 9819, Control_c, 1, 11, 124
4, 9828, Control_c, 1, 11, 123
4, 9837, Control_c, 1, 11, 122
4, 9846, Control_c, 1, 11, 121
4, 9856, Control_c, 1, 11, 120
4, 9865, Control_c, 1, 11, 119
4, 9874, Control_c, 1, 11, 118
4, 9883, Control_c, 1, 11, 117
4, 9892, Control_c, 1, 11, 116
4, 9901, Control_c, 1, 11, 115
4, 9910, Control_c, 1, 11, 114
4, 9920, Control_c, 1, 11, 113
4, 9929, Control_c, 1, 11, 112
4, 9938, Control_c, 1, 11, 111
4, 9947, Control_c, 1, 11, 110
4, 9956, Control_c, 1, 11, 109
4, 9965, Control_c, 1, 11, 108
4, 9974, Control_c, 1, 11, 107
4, 9984, Control_c, 1, 11, 106
4, 9993, Control_c, 1, 11, 105
4, 10002, Control_c, 1, 11, 104
4, 10011, Control_c, 1, 11, 103
4, 10020, Control_c, 1, 11, 102
4, 10029, Control_c, 1, 11, 101
4, 10038, Control_c, 1, 11, 100
4, 10048, Control_c, 1, 11, 99
4, 10057, Control_c, 1, 11, 98
4, 10066, Control_c, 1, 11, 97
4, 10075, Control_c, 1, 11, 96
4, 10084, Control_c, 1, 11, 95
4, 10093, Control_c, 1, 11, 94
4, 10102, Control_c, 1, 11, 93
4, 10112, Control_c, 1, 11, 92
4, 10121, Control_c, 1, 11, 91
4, 10130, Control_c, 1, 11, 90
4, 10139, Control_c, 1, 11, 89
4, 10148, Control_c, 1, 11, 88
4, 10157, Control_c, 1, 11, 87
4, 10166, Control_c, 1, 11, 86
4, 10176, Control_c, 1, 11, 85
4, 10185, Control_c, 1, 11, 84
4, 10194, Control_c, 1, 11, 83
4, 10203, Control_c, 1, 11, 82
4, 10212, Control_c, 1, 11, 81
4, 10221, Control_c, 1, 11, 80
4, 10230, Control_c, 1, 11, 79
4, 10240, Control_c, 1, 11, 78
4, 10249, Control_c, 1, 11, 77
4, 10258, Control_c, 1, 11, 76
4, 10267, Control_c, 1, 11, 75
4, 10276, Control_c, 1, 11, 74
4, 10285, Control_c, 1, 11, 73
4, 10294, Control_c, 1, 11, 72
4, 10304, Control_c, 1, 11, 71
4, 10313, Control_c, 1, 11, 70
4, 10322, Control_c, 1, 11, 69
4, 10331, Control_c, 1, 11, 68
4, 10340, Control_c, 1, 11, 67
4, 10349, Control_c, 1, 11, 66
4, 10358, Control_c, 1, 11, 65
4, 10368, Note_on_c, 1, 76, 0
4, 10368, Note_on_c, 1, 80, 0
4, 10368, Control_c, 1, 11, 64
4, 10368, Note_on_c, 1, 75, 73
4, 10368, Note_on_c, 1, 79, 70
4, 10704, Note_on_c, 1, 75, 0
4, 10704, Note_on_c, 1, 79, 0
4, 14976, Control_c, 1, 11, 64
4, 14976, Note_on_c, 1, 79, 75
4, 14976, Note_on_c, 1, 83, 74
4, 14994, Control_c, 1, 11, 65
4, 15012, Control_c, 1, 11, 66
4, 15030, Control_c, 1, 11, 67
4, 15049, Control_c, 1, 11, 68
4, 15067, Control_c, 1, 11, 69
4, 15085, Control_c, 1, 11, 70
4, 15104, Control_c, 1, 11, 71
4, 15122, Control_c, 1, 11, 72
4, 15140, Control_c, 1, 11, 73
4, 15158, Control_c, 1, 11, 74
4, 15177, Control_c, 1, 11, 75
4, 15195, Control_c, 1, 11, 76
4, 15213, Control_c, 1, 11, 77
4, 15232, Control_c, 1, 11, 78
4, 15250, Control_c, 1, 11, 79
4, 15268, Control_c, 1, 11, 80
4, 15286, Control_c, 1, 11, 81
4, 15305, Control_c, 1, 11, 82
4, 15323, Control_c, 1, 11, 83
4, 15341, Control_c, 1, 11, 84
4, 15360, Control_c, 1, 11, 85
4, 15378, Control_c, 1, 11, 86
4, 15396, Control_c, 1, 11, 87
4, 15414, Control_c, 1, 11, 88
4, 15433, Control_c, 1, 11, 89
4, 15451, Control_c, 1, 11, 90
4, 15469, Control_c, 1, 11, 91
4, 15488, Control_c, 1, 11, 92
4, 15506, Control_c, 1, 11, 93
4, 15524, Control_c, 1, 11, 94
4, 15542, Control_c, 1, 11, 95
4, 15561, Control_c, 1, 11, 96
4, 15579, Control_c, 1, 11, 97
4, 15597, Control_c, 1, 11, 98
4, 15616, Control_c, 1, 11, 99
4, 15634, Control_c, 1, 11, 100
4, 15652, Control_c, 1, 11, 101
4, 15670, Control_c, 1, 11, 102
4, 15689, Control_c, 1, 11, 103
4, 15696, Note_on_c, 1, 79, 0
4, 15696, Note_on_c, 1, 83, 0
4, 15707, Control_c, 1, 11, 104
4, 15725, Control_c, 1, 11, 105
4, 15744, Control_c, 1, 11, 106
4, 15744, Note_on_c, 1, 78, 72
4, 15744, Note_on_c, 1, 82, 72
4, 15762, Control_c, 1, 11, 107
4, 15780, Control_c, 1, 11, 108
4, 15798, Control_c, 1, 11, 109
4, 15817, Control_c, 1, 11, 110
4, 15835, Control_c, 1, 11, 111
4, 15853, Control_c, 1, 11, 112
4, 15872, Control_c, 1, 11, 113
4, 15890, Control_c, 1, 11, 114
4, 15908, Control_c, 1, 11, 115
4, 15926, Control_c, 1, 11, 116
4, 15945, Control_c, 1, 11, 117
4, 15963, Control_c, 1, 11, 118
4, 15981, Control_c, 1, 11, 119
4, 16000, Control_c, 1, 11, 120
4, 16018, Control_c, 1, 11, 121
4, 16036, Control_c, 1, 11, 122
4, 16054, Control_c, 1, 11, 123
4, 16073, Control_c, 1, 11, 124
4, 16091, Control_c, 1, 11, 125
4, 16109, Control_c, 1, 11, 126
4, 16128, Control_c, 1, 11, 127
4, 16254, Note_on_c, 1, 78, 0
4, 16254, Note_on_c, 1, 82, 0
4, 16256, Note_on_c, 1, 77, 74
4, 16256, Note_on_c, 1, 81, 76
4, 16320, Control_c, 1, 11, 92
4, 16325, Control_c, 1, 11, 93
4, 16330, Control_c, 1, 11, 94
4, 16336, Control_c, 1, 11, 95
4, 16341, Control_c, 1, 11, 96
4, 16347, Control_c, 1, 11, 97
4, 16352, Control_c, 1, 11, 98
4, 16358, Control_c, 1, 11, 99
4, 16363, Control_c, 1, 11, 100
4, 16369, Control_c, 1, 11, 101
4, 16374, Control_c, 1, 11, 102
4, 16380, Control_c, 1, 11, 103
4, 16385, Control_c, 1, 11, 104
4, 16391, Control_c, 1, 11, 105
4, 16396, Control_c, 1, 11, 106
4, 16402, Control_c, 1, 11, 107
4, 16407, Control_c, 1, 11, 108
4, 16413, Control_c, 1, 11, 109
4, 16418, Control_c, 1, 11, 110
4, 16424, Control_c, 1, 11, 111
4, 16429, Control_c, 1, 11, 112
4, 16435, Control_c, 1, 11, 113
4, 16440, Control_c, 1, 11, 114
4, 16446, Note_on_c, 1, 77, 0
4, 16446, Note_on_c, 1, 81, 0
4, 16446, Control_c, 1, 11, 115
4, 16448, Note_on_c, 1, 78, 71
4, 16448, Note_on_c, 1, 82, 70
4, 16451, Control_c, 1, 11, 116
4, 16457, Control_c, 1, 11, 117
4, 16462, Control_c, 1, 11, 118
4, 16468, Control_c, 1, 11, 119
4, 16473, Control_c, 1, 11, 120
4, 16479, Control_c, 1, 11, 121
4, 16484, Control_c, 1, 11, 122
4, 16490, Note_on_c, 1, 78, 0
4, 16490, Note_on_c, 1, 82, 0
4, 16490, Control_c, 1, 11, 123
4, 16495, Control_c, 1, 11, 124
4, 16501, Control_c, 1, 11, 125
4, 16506, Control_c, 1, 11, 126
4, 16512, Control_c, 1, 11, 127
4, 16512, Note_on_c, 1, 79, 75
4, 16512, Note_on_c, 1, 83, 72
4, 16527, Control_c, 1, 11, 126
4, 16542, Control_c, 1, 11, 125
4, 16557, Control_c, 1, 11, 124
4, 16572, Control_c, 1, 11, 123
4, 16588, Control_c, 1, 11, 122
4, 16603, Control_c, 1, 11, 121
4, 16618, Control_c, 1, 11, 120
4, 16633, Control_c, 1, 11, 119
4, 16649, Control_c, 1, 11, 118
4, 16664, Control_c, 1, 11, 117
4, 16679, Control_c, 1, 11, 116
4, 16694, Control_c, 1, 11, 115
4, 16710, Control_c, 1, 11, 114
4, 16725, Control_c, 1, 11, 113
4, 16740, Control_c, 1, 11, 112
4, 16755, Control_c, 1, 11, 111
4, 16771, Control_c, 1, 11, 110
4, 16786, Control_c, 1, 11, 109
4, 16801, Control_c, 1, 11, 108
4, 16816, Control_c, 1, 11, 107
4, 16832, Control_c, 1, 11, 106
4, 16847, Control_c, 1, 11, 105
4, 16862, Control_c, 1, 11, 104
4, 16877, Control_c, 1, 11, 103
4, 16892, Control_c, 1, 11, 102
4, 16908, Control_c, 1, 11, 101
4, 16923, Control_c, 1, 11, 100
4, 16938, Control_c, 1, 11, 99
4, 16953, Control_c, 1, 11, 98
4, 16969, Control_c, 1, 11, 97
4, 16984, Control_c, 1, 11, 96
4, 16999, Control_c, 1, 11, 95
4, 17014, Control_c, 1, 11, 94
4, 17030, Control_c, 1, 11, 93
4, 17045, Control_c, 1, 11, 92
4, 17060, Control_c, 1, 11, 91
4, 17075, Control_c, 1, 11, 90
4, 17091, Control_c, 1, 11, 89
4, 17106, Control_c, 1, 11, 88
4, 17121, Control_c, 1, 11, 87
4, 17136, Control_c, 1, 11, 86
4, 17152, Control_c, 1, 11, 85
4, 17167, Control_c, 1, 11, 84
4, 17182, Control_c, 1, 11, 83
4, 17197, Control_c, 1, 11, 82
4, 17212, Control_c, 1, 11, 81
4, 17228, Control_c, 1, 11, 80
4, 17243, Control_c, 1, 11, 79
4, 17258, Control_c, 1, 11, 78
4, 17273, Control_c, 1, 11, 77
4, 17280, Note_on_c, 1, 79, 0
4, 17280, Note_on_c, 1, 83, 0
4, 17280, Note_on_c, 1, 78, 79
4, 17280, Note_on_c, 1, 82, 71
4, 17289, Control_c, 1, 11, 76
4, 17304, Control_c, 1, 11, 75
4, 17319, Control_c, 1, 11, 74
4, 17334, Control_c, 1, 11, 73
4, 17350, Control_c, 1, 11, 72
4, 17365, Control_c, 1, 11, 71
4, 17380, Control_c, 1, 11, 70
4, 17395, Control_c, 1, 11, 69
4, 17411, Control_c, 1, 11, 68
4, 17426, Control_c, 1, 11, 67
4, 17440, Note_on_c, 1, 78, 0
4, 17440, Note_on_c, 1, 82, 0
4, 17441, Control_c, 1, 11, 66
4, 17456, Control_c, 1, 11, 65
4, 17472, Control_c, 1, 11, 64
4, 20736, Control_c, 1, 11, 75
4, 20736, Note_on_c, 1, 61, 93
4, 20736, Note_on_c, 1, 73, 96
4, 20743, Control_c, 1, 11, 76
4, 20750, Control_c, 1, 11, 77
4, 20758, Control_c, 1, 11, 78
4, 20765, Control_c, 1, 11, 79
4, 20772, Control_c, 1, 11, 80
4, 20780, Control_c, 1, 11, 81
4, 20787, Control_c, 1, 11, 82
4, 20795, Control_c, 1, 11, 83
4, 20802, Control_c, 1, 11, 84
4, 20809, Control_c, 1, 11, 85
4, 20817, Control_c, 1, 11, 86
4, 20824, Control_c, 1, 11, 87
4, 20832, Note_on_c, 1, 61, 0
4, 20832, Note_on_c, 1, 73, 0
4, 20832, Control_c, 1, 11, 88
4, 20832, Note_on_c, 1, 63, 96
4, 20832, Note_on_c, 1, 75, 88
4, 20839, Control_c, 1, 11, 89
4, 20846, Control_c, 1, 11, 90
4, 20854, Control_c, 1, 11, 91
4, 20861, Control_c, 1, 11, 92
4, 20868, Control_c, 1, 11, 93
4, 20876, Control_c, 1, 11, 94
4, 20883, Control_c, 1, 11, 95
4, 20891, Control_c, 1, 11, 96
4, 20898, Control_c, 1, 11, 97
4, 20905, Control_c, 1, 11, 98
4, 20913, Control_c, 1, 11, 99
4, 20920, Control_c, 1, 11, 100
4, 20928, Control_c, 1, 11, 101
4, 20935, Control_c, 1, 11, 102
4, 20942, Control_c, 1, 11, 103
4, 20950, Control_c, 1, 11, 104
4, 20957, Control_c, 1, 11, 105
4, 20964, Control_c, 1, 11, 106
4, 20972, Control_c, 1, 11, 107
4, 20979, Control_c, 1, 11, 108
4, 20987, Control_c, 1, 11, 109
4, 20994, Control_c, 1, 11, 110
4, 21001, Control_c, 1, 11, 111
4, 21009, Control_c, 1, 11, 112
4, 21016, Control_c, 1, 11, 113
4, 21024, Control_c, 1, 11, 114
4, 21031, Control_c, 1, 11, 115
4, 21038, Control_c, 1, 11, 116
4, 21046, Control_c, 1, 11, 117
4, 21053, Control_c, 1, 11, 118
4, 21060, Control_c, 1, 11, 119
4, 21068, Control_c, 1, 11, 120
4, 21075, Control_c, 1, 11, 121
4, 21083, Control_c, 1, 11, 122
4, 21090, Control_c, 1, 11, 123
4, 21097, Control_c, 1, 11, 124
4, 21105, Control_c, 1, 11, 125
4, 21112, Control_c, 1, 11, 126
4, 21120, Control_c, 1, 11, 127
4, 21126, Control_c, 1, 11, 126
4, 21132, Control_c, 1, 11, 125
4, 21138, Control_c, 1, 11, 124
4, 21144, Control_c, 1, 11, 123
4, 21150, Control_c, 1, 11, 122
4, 21156, Control_c, 1, 11, 121
4, 21162, Control_c, 1, 11, 120
4, 21168, Control_c, 1, 11, 119
4, 21174, Control_c, 1, 11, 118
4, 21180, Control_c, 1, 11, 117
4, 21187, Control_c, 1, 11, 116
4, 21193, Control_c, 1, 11, 115
4, 21199, Control_c, 1, 11, 114
4, 21205, Control_c, 1, 11, 113
4, 21211, Control_c, 1, 11, 112
4, 21217, Control_c, 1, 11, 111
4, 21223, Control_c, 1, 11, 110
4, 21229, Control_c, 1, 11, 109
4, 21235, Control_c, 1, 11, 108
4, 21241, Control_c, 1, 11, 107
4, 21248, Control_c, 1, 11, 106
4, 21254, Control_c, 1, 11, 105
4, 21260, Control_c, 1, 11, 104
4, 21266, Control_c, 1, 11, 103
4, 21272, Control_c, 1, 11, 102
4, 21278, Control_c, 1, 11, 101
4, 21284, Control_c, 1, 11, 100
4, 21290, Control_c, 1, 11, 99
4, 21296, Control_c, 1, 11, 98
4, 21302, Control_c, 1, 11, 97
4, 21308, Control_c, 1, 11, 96
4, 21315, Control_c, 1, 11, 95
4, 21321, Control_c, 1, 11, 94
4, 21327, Control_c, 1, 11, 93
4, 21333, Control_c, 1, 11, 92
4, 21339, Control_c, 1, 11, 91
4, 21345, Control_c, 1, 11, 90
4, 21351, Control_c, 1, 11, 89
4, 21357, Control_c, 1, 11, 88
4, 21363, Control_c, 1, 11, 87
4, 21369, Control_c, 1, 11, 86
4, 21376, Control_c, 1, 11, 85
4, 21382, Control_c, 1, 11, 84
4, 21388, Control_c, 1, 11, 83
4, 21394, Control_c, 1, 11, 82
4, 21400, Control_c, 1, 11, 81
4, 21406, Control_c, 1, 11, 80
4, 21412, Control_c, 1, 11, 79
4, 21418, Control_c, 1, 11, 78
4, 21424, Control_c, 1, 11, 77
4, 21430, Control_c, 1, 11, 76
4, 21436, Control_c, 1, 11, 75
4, 21443, Control_c, 1, 11, 74
4, 21449, Control_c, 1, 11, 73
4, 21455, Control_c, 1, 11, 72
4, 21456, Note_on_c, 1, 63, 0
4, 21456, Note_on_c, 1, 75, 0
4, 21461, Control_c, 1, 11, 71
4, 21467, Control_c, 1, 11, 70
4, 21473, Control_c, 1, 11, 69
4, 21479, Control_c, 1, 11, 68
4, 21485, Control_c, 1, 11, 67
4, 21491, Control_c, 1, 11, 66
4, 21497, Control_c, 1, 11, 65
4, 21504, Control_c, 1, 11, 64
4, 23040, Control_c, 1, 11, 92
4, 23040, Note_on_c, 1, 60, 63
4, 23040, Note_on_c, 1, 62, 64
4, 23061, Control_c, 1, 11, 93
4, 23083, Control_c, 1, 11, 94
4, 23105, Control_c, 1, 11, 95
4, 23127, Control_c, 1, 11, 96
4, 23149, Control_c, 1, 11, 97
4, 23171, Control_c, 1, 11, 98
4, 23193, Control_c, 1, 11, 99
4, 23215, Control_c, 1, 11, 100
4, 23232, Note_on_c, 1, 60, 0
4, 23232, Note_on_c, 1, 62, 0
4, 23232, Note_on_c, 1, 59, 60
4, 23232, Note_on_c, 1, 63, 56
4, 23237, Control_c, 1, 11, 101
4, 23259, Control_c, 1, 11, 102
4, 23281, Control_c, 1, 11, 103
4, 23303, Control_c, 1, 11, 104
4, 23325, Control_c, 1, 11, 105
4, 23347, Control_c, 1, 11, 106
4, 23369, Control_c, 1, 11, 107
4, 23391, Control_c, 1, 11, 108
4, 23413, Control_c, 1, 11, 109
4, 23424, Note_on_c, 1, 59, 0
4, 23424, Note_on_c, 1, 63, 0
4, 23424, Note_on_c, 1, 66, 58
4, 23424, Note_on_c, 1, 68, 59
4, 23434, Control_c, 1, 11, 110
4, 23456, Control_c, 1, 11, 111
4, 23478, Control_c, 1, 11, 112
4, 23500, Control_c, 1, 11, 113
4, 23522, Control_c, 1, 11, 114
4, 23544, Control_c, 1, 11, 115
4, 23566, Control_c, 1, 11, 116
4, 23588, Control_c, 1, 11, 117
4, 23610, Control_c, 1, 11, 118
4, 23632, Control_c, 1, 11, 119
4, 23654, Control_c, 1, 11, 120
4, 23676, Control_c, 1, 11, 121
4, 23698, Control_c, 1, 11, 122
4, 23712, Note_on_c, 1, 66, 0
4, 23712, Note_on_c, 1, 68, 0
4, 23712, Note_on_c, 1, 65, 57
4, 23712, Note_on_c, 1, 69, 62
4, 23720, Control_c, 1, 11, 123
4, 23742, Control_c, 1, 11, 124
4, 23764, Control_c, 1, 11, 125
4, 23786, Control_c, 1, 11, 126
4, 23806, Note_on_c, 1, 65, 0
4, 23806, Note_on_c, 1, 69, 0
4, 23808, Control_c, 1, 11, 127
4, 29952, Control_c, 1, 11, 92
4, 29968, Control_c, 1, 11, 93
4, 29984, Control_c, 1, 11, 94
4, 30001, Control_c, 1, 11, 95
4, 30017, Control_c, 1, 11, 96
4, 30034, Control_c, 1, 11, 97
4, 30050, Control_c, 1, 11, 98
4, 30067, Control_c, 1, 11, 99
4, 30083, Control_c, 1, 11, 100
4, 30100, Control_c, 1, 11, 101
4, 30116, Control_c, 1, 11, 102
4, 30133, Control_c, 1, 11, 103
4, 30149, Control_c, 1, 11, 104
4, 30165, Control_c, 1, 11, 105
4, 30182, Control_c, 1, 11, 106
4, 30198, Control_c, 1, 11, 107
4, 30215, Control_c, 1, 11, 108
4, 30231, Control_c, 1, 11, 109
4, 30248, Control_c, 1, 11, 110
4, 30264, Control_c, 1, 11, 111
4, 30281, Control_c, 1, 11, 112
4, 30297, Control_c, 1, 11, 113
4, 30314, Control_c, 1, 11, 114
4, 30330, Control_c, 1, 11, 115
4, 30346, Control_c, 1, 11, 116
4, 30363, Control_c, 1, 11, 117
4, 30379, Control_c, 1, 11, 118
4, 30396, Control_c, 1, 11, 119
4, 30412, Control_c, 1, 11, 120
4, 30429, Control_c, 1, 11, 121
4, 30445, Control_c, 1, 11, 122
4, 30462, Control_c, 1, 11, 123
4, 30464, Note_on_c, 1, 83, 91
4, 30478, Control_c, 1, 11, 124
4, 30495, Control_c, 1, 11, 125
4, 30511, Control_c, 1, 11, 126
4, 30528, Control_c, 1, 11, 127
4, 30656, Note_on_c, 1, 83, 0
4, 30656, Note_on_c, 1, 82, 87
4, 30720, Note_on_c, 1, 82, 0
4, 30720, Control_c, 1, 11, 127
4, 30720, Note_on_c, 1, 81, 50
4, 30880, Note_on_c, 1, 81, 0
4, 33792, Control_c, 1, 11, 30
4, 33792, Note_on_c, 1, 78, 90
4, 33792, Note_on_c, 1, 80, 88
4, 34720, Note_on_c, 1, 78, 0
4, 34720, Note_on_c, 1, 80, 0
4, 34752, Control_c, 1, 11, 45
4, 34752, Note_on_c, 1, 66, 92
4, 34752, Note_on_c, 1, 68, 88
4, 34775, Control_c, 1, 11, 46
4, 34798, Control_c, 1, 11, 47
4, 34822, Control_c, 1, 11, 48
4, 34845, Control_c, 1, 11, 49
4, 34869, Control_c, 1, 11, 50
4, 34892, Control_c, 1, 11, 51
4, 34915, Control_c, 1, 11, 52
4, 34939, Control_c, 1, 11, 53
4, 34962, Control_c, 1, 11, 54
4, 34986, Control_c, 1, 11, 55
4, 35009, Control_c, 1, 11, 56
4, 35032, Control_c, 1, 11, 57
4, 35056, Control_c, 1, 11, 58
4, 35079, Control_c, 1, 11, 59
4, 35103, Control_c, 1, 11, 60
4, 35126, Control_c, 1, 11, 61
4, 35150, Control_c, 1, 11, 62
4, 35173, Control_c, 1, 11, 63
4, 35196, Control_c, 1, 11, 64
4, 35220, Control_c, 1, 11, 65
4, 35243, Control_c, 1, 11, 66
4, 35267, Control_c, 1, 11, 67
4, 35278, Note_on_c, 1, 66, 0
4, 35278, Note_on_c, 1, 68, 0
4, 35280, Note_on_c, 1, 78, 93
4, 35280, Note_on_c, 1, 80, 93
4, 35290, Control_c, 1, 11, 68
4, 35313, Control_c, 1, 11, 69
4, 35326, Note_on_c, 1, 78, 0
4, 35326, Note_on_c, 1, 80, 0
4, 35328, Note_on_c, 1, 76, 96
4, 35328, Note_on_c, 1, 80, 95
4, 35337, Control_c, 1, 11, 70
4, 35360, Control_c, 1, 11, 71
4, 35384, Control_c, 1, 11, 72
4, 35407, Control_c, 1, 11, 73
4, 35431, Control_c, 1, 11, 74
4, 35454, Control_c, 1, 11, 75
4, 35477, Control_c, 1, 11, 76
4, 35501, Control_c, 1, 11, 77
4, 35524, Control_c, 1, 11, 78
4, 35548, Control_c, 1, 11, 79
4, 35571, Control_c, 1, 11, 80
4, 35594, Control_c, 1, 11, 81
4, 35618, Control_c, 1, 11, 82
4, 35641, Control_c, 1, 11, 83
4, 35665, Control_c, 1, 11, 84
4, 35688, Control_c, 1, 11, 85
4, 35712, Control_c, 1, 11, 86
4, 35735, Control_c, 1, 11, 87
4, 35758, Control_c, 1, 11, 88
4, 35782, Control_c, 1, 11, 89
4, 35805, Control_c, 1, 11, 90
4, 35829, Control_c, 1, 11, 91
4, 35852, Control_c, 1, 11, 92
4, 35875, Control_c, 1, 11, 93
4, 35899, Control_c, 1, 11, 94
4, 35922, Control_c, 1, 11, 95
4, 35946, Control_c, 1, 11, 96
4, 35969, Control_c, 1, 11, 97
4, 35992, Control_c, 1, 11, 98
4, 36016, Control_c, 1, 11, 99
4, 36039, Control_c, 1, 11, 100
4, 36063, Control_c, 1, 11, 101
4, 36086, Control_c, 1, 11, 102
4, 36110, Control_c, 1, 11, 103
4, 36133, Control_c, 1, 11, 104
4, 36156, Control_c, 1, 11, 105
4, 36180, Control_c, 1, 11, 106
4, 36203, Control_c, 1, 11, 107
4, 36227, Control_c, 1, 11, 108
4, 36250, Control_c, 1, 11, 109
4, 36273, Control_c, 1, 11, 110
4, 36297, Control_c, 1, 11, 111
4, 36320, Control_c, 1, 11, 112
4, 36344, Control_c, 1, 11, 113
4, 36367, Control_c, 1, 11, 114
4, 36391, Control_c, 1, 11, 115
4, 36414, Control_c, 1, 11, 116
4, 36437, Control_c, 1, 11, 117
4, 36461, Control_c, 1, 11, 118
4, 36484, Control_c, 1, 11, 119
4, 36508, Control_c, 1, 11, 120
4, 36531, Control_c, 1, 11, 121
4, 36554, Control_c, 1, 11, 122
4, 36578, Control_c, 1, 11, 123
4, 36601, Control_c, 1, 11, 124
4, 36625, Control_c, 1, 11, 125
4, 36648, Control_c, 1, 11, 126
4, 36672, Control_c, 1, 11, 127
4, 36816, Note_on_c, 1, 76, 0
4, 36816, Note_on_c, 1, 80, 0
4, 36864, Control_c, 1, 11, 30
4, 36864, Note_on_c, 1, 78, 92
4, 36864, Note_on_c, 1, 80, 93
4, 37792, Note_on_c, 1, 78, 0
4, 37792, Note_on_c, 1, 80, 0
4, 37824, Control_c, 1, 11, 45
4, 37824, Note_on_c, 1, 66, 93
4, 37824, Note_on_c, 1, 68, 95
4, 37847, Control_c, 1, 11, 46
4, 37870, Control_c, 1, 11, 47
4, 37894, Control_c, 1, 11, 48
4, 37917, Control_c, 1, 11, 49
4, 37941, Control_c, 1, 11, 50
4, 37964, Control_c, 1, 11, 51
4, 37987, Control_c, 1, 11, 52
4, 38011, Control_c, 1, 11, 53
4, 38034, Control_c, 1, 11, 54
4, 38058, Control_c, 1, 11, 55
4, 38081, Control_c, 1, 11, 56
4, 38104, Control_c, 1, 11, 57
4, 38128, Control_c, 1, 11, 58
4, 38151, Control_c, 1, 11, 59
4, 38175, Control_c, 1, 11, 60
4, 38198, Control_c, 1, 11, 61
4, 38222, Control_c, 1, 11, 62
4, 38245, Control_c, 1, 11, 63
4, 38268, Control_c, 1, 11, 64
4, 38292, Control_c, 1, 11, 65
4, 38315, Control_c, 1, 11, 66
4, 38339, Control_c, 1, 11, 67
4, 38350, Note_on_c, 1, 66, 0
4, 38350, Note_on_c, 1, 68, 0
4, 38352, Note_on_c, 1, 78, 94
4, 38352, Note_on_c, 1, 80, 92
4, 38362, Control_c, 1, 11, 68
4, 38385, Control_c, 1, 11, 69
4, 38398, Note_on_c, 1, 78, 0
4, 38398, Note_on_c, 1, 80, 0
4, 38400, Note_on_c, 1, 76, 87
4, 38400, Note_on_c, 1, 80, 95
4, 38409, Control_c, 1, 11, 70
4, 38432, Control_c, 1, 11, 71
4, 38456, Control_c, 1, 11, 72
4, 38479, Control_c, 1, 11, 73
4, 38503, Control_c, 1, 11, 74
4, 38526, Control_c, 1, 11, 75
4, 38549, Control_c, 1, 11, 76
4, 38573, Control_c, 1, 11, 77
4, 38596, Control_c, 1, 11, 78
4, 38620, Control_c, 1, 11, 79
4, 38643, Control_c, 1, 11, 80
4, 38666, Control_c, 1, 11, 81
4, 38690, Control_c, 1, 11, 82
4, 38713, Control_c, 1, 11, 83
4, 38737, Control_c, 1, 11, 84
4, 38760, Control_c, 1, 11, 85
4, 38784, Control_c, 1, 11, 86
4, 38807, Control_c, 1, 11, 87
4, 38830, Control_c, 1, 11, 88
4, 38854, Control_c, 1, 11, 89
4, 38877, Control_c, 1, 11, 90
4, 38901, Control_c, 1, 11, 91
4, 38924, Control_c, 1, 11, 92
4, 38947, Control_c, 1, 11, 93
4, 38971, Control_c, 1, 11, 94
4, 38994, Control_c, 1, 11, 95
4, 39018, Control_c, 1, 11, 96
4, 39041, Control_c, 1, 11, 97
4, 39064, Control_c, 1, 11, 98
4, 39088, Control_c, 1, 11, 99
4, 39111, Control_c, 1, 11, 100
4, 39135, Control_c, 1, 11, 101
4, 39158, Control_c, 1, 11, 102
4, 39182, Control_c, 1, 11, 103
4, 39205, Control_c, 1, 11, 104
4, 39228, Control_c, 1, 11, 105
4, 39252, Control_c, 1, 11, 106
4, 39275, Control_c, 1, 11, 107
4, 39299, Control_c, 1, 11, 108
4, 39322, Control_c, 1, 11, 109
4, 39345, Control_c, 1, 11, 110
4, 39369, Control_c, 1, 11, 111
4, 39392, Control_c, 1, 11, 112
4, 39416, Control_c, 1, 11, 113
4, 39439, Control_c, 1, 11, 114
4, 39463, Control_c, 1, 11, 115
4, 39486, Control_c, 1, 11, 116
4, 39509, Control_c, 1, 11, 117
4, 39533, Control_c, 1, 11, 118
4, 39556, Control_c, 1, 11, 119
4, 39580, Control_c, 1, 11, 120
4, 39603, Control_c, 1, 11, 121
4, 39626, Control_c, 1, 11, 122
4, 39650, Control_c, 1, 11, 123
4, 39673, Control_c, 1, 11, 124
4, 39697, Control_c, 1, 11, 125
4, 39720, Control_c, 1, 11, 126
4, 39744, Control_c, 1, 11, 127
4, 39888, Note_on_c, 1, 76, 0
4, 39888, Note_on_c, 1, 80, 0
4, 39936, Control_c, 1, 11, 64
4, 39936, Note_on_c, 1, 76, 93
4, 39936, Note_on_c, 1, 80, 91
4, 39957, Control_c, 1, 11, 65
4, 39978, Control_c, 1, 11, 66
4, 40000, Control_c, 1, 11, 67
4, 40021, Control_c, 1, 11, 68
4, 40042, Control_c, 1, 11, 69
4, 40064, Control_c, 1, 11, 70
4, 40085, Control_c, 1, 11, 71
4, 40106, Control_c, 1, 11, 72
4, 40128, Control_c, 1, 11, 73
4, 40149, Control_c, 1, 11, 74
4, 40170, Control_c, 1, 11, 75
4, 40192, Control_c, 1, 11, 76
4, 40213, Control_c, 1, 11, 77
4, 40234, Control_c, 1, 11, 78
4, 40256, Control_c, 1, 11, 79
4, 40277, Control_c, 1, 11, 80
4, 40298, Control_c, 1, 11, 81
4, 40320, Control_c, 1, 11, 82
4, 40341, Control_c, 1, 11, 83
4, 40362, Control_c, 1, 11, 84
4, 40384, Control_c, 1, 11, 85
4, 40405, Control_c, 1, 11, 86
4, 40426, Control_c, 1, 11, 87
4, 40448, Control_c, 1, 11, 88
4, 40469, Control_c, 1, 11, 89
4, 40490, Control_c, 1, 11, 90
4, 40512, Control_c, 1, 11, 91
4, 40533, Control_c, 1, 11, 92
4, 40554, Control_c, 1, 11, 93
4, 40576, Control_c, 1, 11, 94
4, 40597, Control_c, 1, 11, 95
4, 40618, Control_c, 1, 11, 96
4, 40640, Control_c, 1, 11, 97
4, 40661, Control_c, 1, 11, 98
4, 40682, Control_c, 1, 11, 99
4, 40704, Control_c, 1, 11, 100
4, 40725, Control_c, 1, 11, 101
4, 40746, Control_c, 1, 11, 102
4, 40768, Control_c, 1, 11, 103
4, 40789, Control_c, 1, 11, 104
4, 40810, Control_c, 1, 11, 105
4, 40832, Control_c, 1, 11, 106
4, 40853, Control_c, 1, 11, 107
4, 40874, Control_c, 1, 11, 108
4, 40896, Control_c, 1, 11, 109
4, 40917, Control_c, 1, 11, 110
4, 40938, Control_c, 1, 11, 111
4, 40960, Control_c, 1, 11, 112
4, 40981, Control_c, 1, 11, 113
4, 41002, Control_c, 1, 11, 114
4, 41024, Control_c, 1, 11, 115
4, 41045, Control_c, 1, 11, 116
4, 41066, Control_c, 1, 11, 117
4, 41088, Control_c, 1, 11, 118
4, 41109, Control_c, 1, 11, 119
4, 41130, Control_c, 1, 11, 120
4, 41152, Control_c, 1, 11, 121
4, 41173, Control_c, 1, 11, 122
4, 41194, Control_c, 1, 11, 123
4, 41216, Control_c, 1, 11, 124
4, 41237, Control_c, 1, 11, 125
4, 41258, Control_c, 1, 11, 126
4, 41280, Control_c, 1, 11, 127
4, 41424, Note_on_c, 1, 76, 0
4, 41424, Note_on_c, 1, 80, 0
4, 42240, Control_c, 1, 7, 92
4, 43008, Control_c, 1, 11, 127
4, 43776, Control_c, 1, 11, 92
4, 43776, Note_on_c, 1, 81, 88
4, 43786, Control_c, 1, 11, 93
4, 43797, Control_c, 1, 11, 94
4, 43808, Control_c, 1, 11, 95
4, 43819, Control_c, 1, 11, 96
4, 43830, Control_c, 1, 11, 97
4, 43841, Control_c, 1, 11, 98
4, 43852, Control_c, 1, 11, 99
4, 43863, Control_c, 1, 11, 100
4, 43874, Control_c, 1, 11, 101
4, 43885, Control_c, 1, 11, 102
4, 43896, Control_c, 1, 11, 103
4, 43904, Note_on_c, 1, 81, 0
4, 43904, Note_on_c, 1, 81, 89
4, 43907, Control_c, 1, 11, 104
4, 43918, Control_c, 1, 11, 105
4, 43929, Control_c, 1, 11, 106
4, 43940, Control_c, 1, 11, 107
4, 43951, Control_c, 1, 11, 108
4, 43962, Control_c, 1, 11, 109
4, 43973, Control_c, 1, 11, 110
4, 43984, Control_c, 1, 11, 111
4, 43995, Control_c, 1, 11, 112
4, 44006, Control_c, 1, 11, 113
4, 44017, Control_c, 1, 11, 114
4, 44028, Control_c, 1, 11, 115
4, 44032, Note_on_c, 1, 81, 0
4, 44032, Note_on_c, 1, 80, 97
4, 44039, Control_c, 1, 11, 116
4, 44050, Control_c, 1, 11, 117
4, 44061, Control_c, 1, 11, 118
4, 44072, Control_c, 1, 11, 119
4, 44083, Control_c, 1, 11, 120
4, 44094, Control_c, 1, 11, 121
4, 44105, Control_c, 1, 11, 122
4, 44116, Control_c, 1, 11, 123
4, 44127, Control_c, 1, 11, 124
4, 44138, Control_c, 1, 11, 125
4, 44149, Control_c, 1, 11, 126
4, 44160, Control_c, 1, 11, 127
4, 44928, Note_on_c, 1, 80, 0
4, 44928, Control_c, 1, 11, 92
4, 44928, Note_on_c, 1, 81, 92
4, 44938, Control_c, 1, 11, 93
4, 44949, Control_c, 1, 11, 94
4, 44960, Control_c, 1, 11, 95
4, 44971, Control_c, 1, 11, 96
4, 44982, Control_c, 1, 11, 97
4, 44993, Control_c, 1, 11, 98
4, 45004, Control_c, 1, 11, 99
4, 45015, Control_c, 1, 11, 100
4, 45026, Control_c, 1, 11, 101
4, 45037, Control_c, 1, 11, 102
4, 45048, Control_c, 1, 11, 103
4, 45056, Note_on_c, 1, 81, 0
4, 45056, Note_on_c, 1, 81, 93
4, 45059, Control_c, 1, 11, 104
4, 45070, Control_c, 1, 11, 105
4, 45081, Control_c, 1, 11, 106
4, 45092, Control_c, 1, 11, 107
4, 45103, Control_c, 1, 11, 108
4, 45114, Control_c, 1, 11, 109
4, 45125, Control_c, 1, 11, 110
4, 45136, Control_c, 1, 11, 111
4, 45147, Control_c, 1, 11, 112
4, 45158, Control_c, 1, 11, 113
4, 45169, Control_c, 1, 11, 114
4, 45180, Control_c, 1, 11, 115
4, 45184, Note_on_c, 1, 81, 0
4, 45184, Note_on_c, 1, 80, 90
4, 45191, Control_c, 1, 11, 116
4, 45202, Control_c, 1, 11, 117
4, 45213, Control_c, 1, 11, 118
4, 45224, Control_c, 1, 11, 119
4, 45235, Control_c, 1, 11, 120
4, 45246, Control_c, 1, 11, 121
4, 45257, Control_c, 1, 11, 122
4, 45268, Control_c, 1, 11, 123
4, 45279, Control_c, 1, 11, 124
4, 45290, Control_c, 1, 11, 125
4, 45301, Control_c, 1, 11, 126
4, 45310, Note_on_c, 1, 80, 0
4, 45312, Control_c, 1, 11, 127
4, 45312, Control_c, 1, 11, 92
4, 45312, Note_on_c, 1, 82, 91
4, 45322, Control_c, 1, 11, 93
4, 45333, Control_c, 1, 11, 94
4, 45344, Control_c, 1, 11, 95
4, 45355, Control_c, 1, 11, 96
4, 45366, Control_c, 1, 11, 97
4, 45377, Control_c, 1, 11, 98
4, 45388, Control_c, 1, 11, 99
4, 45399, Control_c, 1, 11, 100
4, 45410, Control_c, 1, 11, 101
4, 45421, Control_c, 1, 11, 102
4, 45432, Control_c, 1, 11, 103
4, 45440, Note_on_c, 1, 82, 0
4, 45440, Note_on_c, 1, 82, 91
4, 45443, Control_c, 1, 11, 104
4, 45454, Control_c, 1, 11, 105
4, 45465, Control_c, 1, 11, 106
4, 45476, Control_c, 1, 11, 107
4, 45487, Control_c, 1, 11, 108
4, 45498, Control_c, 1, 11, 109
4, 45509, Control_c, 1, 11, 110
4, 45520, Control_c, 1, 11, 111
4, 45531, Control_c, 1, 11, 112
4, 45542, Control_c, 1, 11, 113
4, 45553, Control_c, 1, 11, 114
4, 45564, Control_c, 1, 11, 115
4, 45568, Note_on_c, 1, 82, 0
4, 45568, Note_on_c, 1, 80, 93
4, 45575, Control_c, 1, 11, 116
4, 45586, Control_c, 1, 11, 117
4, 45597, Control_c, 1, 11, 118
4, 45608, Control_c, 1, 11, 119
4, 45619, Control_c, 1, 11, 120
4, 45630, Control_c, 1, 11, 121
4, 45641, Control_c, 1, 11, 122
4, 45652, Control_c, 1, 11, 123
4, 45663, Control_c, 1, 11, 124
4, 45674, Control_c, 1, 11, 125
4, 45685, Control_c, 1, 11, 126
4, 45696, Control_c, 1, 11, 127
4, 46464, Note_on_c, 1, 80, 0
4, 46464, Control_c, 1, 11, 92
4, 46464, Note_on_c, 1, 82, 92
4, 46474, Control_c, 1, 11, 93
4, 46485, Control_c, 1, 11, 94
4, 46496, Control_c, 1, 11, 95
4, 46507, Control_c, 1, 11, 96
4, 46518, Control_c, 1, 11, 97
4, 46529, Control_c, 1, 11, 98
4, 46540, Control_c, 1, 11, 99
4, 46551, Control_c, 1, 11, 100
4, 46562, Control_c, 1, 11, 101
4, 46573, Control_c, 1, 11, 102
4, 46584, Control_c, 1, 11, 103
4, 46592, Note_on_c, 1, 82, 0
4, 46592, Note_on_c, 1, 82, 94
4, 46595, Control_c, 1, 11, 104
4, 46606, Control_c, 1, 11, 105
4, 46617, Control_c, 1, 11, 106
4, 46628, Control_c, 1, 11, 107
4, 46639, Control_c, 1, 11, 108
4, 46650, Control_c, 1, 11, 109
4, 46661, Control_c, 1, 11, 110
4, 46672, Control_c, 1, 11, 111
4, 46683, Control_c, 1, 11, 112
4, 46694, Control_c, 1, 11, 113
4, 46705, Control_c, 1, 11, 114
4, 46716, Control_c, 1, 11, 115
4, 46720, Note_on_c, 1, 82, 0
4, 46720, Note_on_c, 1, 80, 88
4, 46727, Control_c, 1, 11, 116
4, 46738, Control_c, 1, 11, 117
4, 46749, Control_c, 1, 11, 118
4, 46760, Control_c, 1, 11, 119
4, 46771, Control_c, 1, 11, 120
4, 46782, Control_c, 1, 11, 121
4, 46793, Control_c, 1, 11, 122
4, 46804, Control_c, 1, 11, 123
4, 46815, Control_c, 1, 11, 124
4, 46826, Control_c, 1, 11, 125
4, 46837, Control_c, 1, 11, 126
4, 46846, Note_on_c, 1, 80, 0
4, 46848, Control_c, 1, 11, 127
4, 46848, Note_on_c, 1, 83, 71
4, 46976, Note_on_c, 1, 83, 0
4, 46976, Note_on_c, 1, 83, 75
4, 47104, Note_on_c, 1, 83, 0
4, 47104, Note_on_c, 1, 82, 77
4, 47232, Note_on_c, 1, 82, 0
4, 47232, Note_on_c, 1, 81, 76
4, 47360, Note_on_c, 1, 81, 0
4, 47360, Note_on_c, 1, 81, 79
4, 47488, Note_on_c, 1, 81, 0
4, 47488, Note_on_c, 1, 78, 74
4, 47616, Note_on_c, 1, 78, 0
4, 47616, Control_c, 1, 11, 92
4, 47616, Note_on_c, 1, 74, 75
4, 47626, Control_c, 1, 11, 93
4, 47637, Control_c, 1, 11, 94
4, 47648, Control_c, 1, 11, 95
4, 47659, Control_c, 1, 11, 96
4, 47670, Control_c, 1, 11, 97
4, 47681, Control_c, 1, 11, 98
4, 47692, Control_c, 1, 11, 99
4, 47703, Control_c, 1, 11, 100
4, 47714, Control_c, 1, 11, 101
4, 47725, Control_c, 1, 11, 102
4, 47736, Control_c, 1, 11, 103
4, 47747, Control_c, 1, 11, 104
4, 47758, Control_c, 1, 11, 105
4, 47769, Control_c, 1, 11, 106
4, 47780, Control_c, 1, 11, 107
4, 47791, Control_c, 1, 11, 108
4, 47802, Control_c, 1, 11, 109
4, 47808, Note_on_c, 1, 74, 0
4, 47808, Note_on_c, 1, 76, 79
4, 47813, Control_c, 1, 11, 110
4, 47824, Control_c, 1, 11, 111
4, 47835, Control_c, 1, 11, 112
4, 47846, Control_c, 1, 11, 113
4, 47857, Control_c, 1, 11, 114
4, 47868, Control_c, 1, 11, 115
4, 47879, Control_c, 1, 11, 116
4, 47890, Control_c, 1, 11, 117
4, 47901, Control_c, 1, 11, 118
4, 47912, Control_c, 1, 11, 119
4, 47923, Control_c, 1, 11, 120
4, 47934, Control_c, 1, 11, 121
4, 47945, Control_c, 1, 11, 122
4, 47956, Control_c, 1, 11, 123
4, 47967, Control_c, 1, 11, 124
4, 47978, Control_c, 1, 11, 125
4, 47989, Control_c, 1, 11, 126
4, 48000, Note_on_c, 1, 76, 0
4, 48000, Control_c, 1, 11, 127
4, 48000, Note_on_c, 1, 77, 70
4, 48336, Note_on_c, 1, 77, 0
4, 48384, Note_on_c, 1, 76, 74
4, 48512, Note_on_c, 1, 76, 0
4, 48512, Note_on_c, 1, 76, 73
4, 48640, Note_on_c, 1, 76, 0
4, 48640, Note_on_c, 1, 75, 72
4, 48768, Note_on_c, 1, 75, 0
4, 48768, Note_on_c, 1, 74, 80
4, 48896, Note_on_c, 1, 74, 0
4, 48896, Note_on_c, 1, 74, 82
4, 49024, Note_on_c, 1, 74, 0
4, 49024, Note_on_c, 1, 71, 88
4, 49152, Note_on_c, 1, 71, 0
4, 49152, Note_on_c, 1, 68, 89
4, 49344, Note_on_c, 1, 68, 0
4, 49344, Note_on_c, 1, 72, 88
4, 49536, Note_on_c, 1, 72, 0
4, 49536, Control_c, 1, 11, 92
4, 49536, Note_on_c, 1, 76, 94
4, 49920, Control_c, 1, 11, 92
4, 49941, Control_c, 1, 11, 93
4, 49963, Control_c, 1, 11, 94
4, 49985, Control_c, 1, 11, 95
4, 50007, Control_c, 1, 11, 96
4, 50029, Control_c, 1, 11, 97
4, 50051, Control_c, 1, 11, 98
4, 50073, Control_c, 1, 11, 99
4, 50095, Control_c, 1, 11, 100
4, 50117, Control_c, 1, 11, 101
4, 50139, Control_c, 1, 11, 102
4, 50161, Control_c, 1, 11, 103
4, 50183, Control_c, 1, 11, 104
4, 50205, Control_c, 1, 11, 105
4, 50227, Control_c, 1, 11, 106
4, 50249, Control_c, 1, 11, 107
4, 50271, Control_c, 1, 11, 108
4, 50293, Control_c, 1, 11, 109
4, 50304, Note_on_c, 1, 76, 0
4, 50304, Note_on_c, 1, 79, 87
4, 50314, Control_c, 1, 11, 110
4, 50336, Control_c, 1, 11, 111
4, 50358, Control_c, 1, 11, 112
4, 50380, Control_c, 1, 11, 113
4, 50402, Control_c, 1, 11, 114
4, 50424, Control_c, 1, 11, 115
4, 50446, Control_c, 1, 11, 116
4, 50468, Control_c, 1, 11, 117
4, 50490, Control_c, 1, 11, 118
4, 50496, Note_on_c, 1, 79, 0
4, 50496, Note_on_c, 1, 80, 92
4, 50512, Control_c, 1, 11, 119
4, 50534, Control_c, 1, 11, 120
4, 50556, Control_c, 1, 11, 121
4, 50578, Control_c, 1, 11, 122
4, 50600, Control_c, 1, 11, 123
4, 50622, Control_c, 1, 11, 124
4, 50644, Control_c, 1, 11, 125
4, 50656, Note_on_c, 1, 80, 0
4, 50666, Control_c, 1, 11, 126
4, 50688, Control_c, 1, 11, 127
4, 50688, Control_c, 1, 11, 92
4, 50688, Note_on_c, 1, 81, 95
4, 50698, Control_c, 1, 11, 93
4, 50709, Control_c, 1, 11, 94
4, 50720, Control_c, 1, 11, 95
4, 50731, Control_c, 1, 11, 96
4, 50742, Control_c, 1, 11, 97
4, 50753, Control_c, 1, 11, 98
4, 50764, Control_c, 1, 11, 99
4, 50775, Control_c, 1, 11, 100
4, 50786, Control_c, 1, 11, 101
4, 50797, Control_c, 1, 11, 102
4, 50808, Control_c, 1, 11, 103
4, 50816, Note_on_c, 1, 81, 0
4, 50816, Note_on_c, 1, 81, 94
4, 50819, Control_c, 1, 11, 104
4, 50830, Control_c, 1, 11, 105
4, 50841, Control_c, 1, 11, 106
4, 50852, Control_c, 1, 11, 107
4, 50863, Control_c, 1, 11, 108
4, 50874, Control_c, 1, 11, 109
4, 50885, Control_c, 1, 11, 110
4, 50896, Control_c, 1, 11, 111
4, 50907, Control_c, 1, 11, 112
4, 50918, Control_c, 1, 11, 113
4, 50929, Control_c, 1, 11, 114
4, 50940, Control_c, 1, 11, 115
4, 50944, Note_on_c, 1, 81, 0
4, 50944, Note_on_c, 1, 80, 95
4, 50951, Control_c, 1, 11, 116
4, 50962, Control_c, 1, 11, 117
4, 50973, Control_c, 1, 11, 118
4, 50984, Control_c, 1, 11, 119
4, 50995, Control_c, 1, 11, 120
4, 51006, Control_c, 1, 11, 121
4, 51017, Control_c, 1, 11, 122
4, 51028, Control_c, 1, 11, 123
4, 51039, Control_c, 1, 11, 124
4, 51050, Control_c, 1, 11, 125
4, 51061, Control_c, 1, 11, 126
4, 51072, Control_c, 1, 11, 127
4, 51840, Note_on_c, 1, 80, 0
4, 51840, Control_c, 1, 11, 92
4, 51840, Note_on_c, 1, 81, 95
4, 51850, Control_c, 1, 11, 93
4, 51861, Control_c, 1, 11, 94
4, 51872, Control_c, 1, 11, 95
4, 51883, Control_c, 1, 11, 96
4, 51894, Control_c, 1, 11, 97
4, 51905, Control_c, 1, 11, 98
4, 51916, Control_c, 1, 11, 99
4, 51927, Control_c, 1, 11, 100
4, 51938, Control_c, 1, 11, 101
4, 51949, Control_c, 1, 11, 102
4, 51960, Control_c, 1, 11, 103
4, 51968, Note_on_c, 1, 81, 0
4, 51968, Note_on_c, 1, 81, 97
4, 51971, Control_c, 1, 11, 104
4, 51982, Control_c, 1, 11, 105
4, 51993, Control_c, 1, 11, 106
4, 52004, Control_c, 1, 11, 107
4, 52015, Control_c, 1, 11, 108
4, 52026, Control_c, 1, 11, 109
4, 52037, Control_c, 1, 11, 110
4, 52048, Control_c, 1, 11, 111
4, 52059, Control_c, 1, 11, 112
4, 52070, Control_c, 1, 11, 113
4, 52081, Control_c, 1, 11, 114
4, 52092, Control_c, 1, 11, 115
4, 52096, Note_on_c, 1, 81, 0
4, 52096, Note_on_c, 1, 80, 92
4, 52103, Control_c, 1, 11, 116
4, 52114, Control_c, 1, 11, 117
4, 52125, Control_c, 1, 11, 118
4, 52136, Control_c, 1, 11, 119
4, 52147, Control_c, 1, 11, 120
4, 52158, Control_c, 1, 11, 121
4, 52169, Control_c, 1, 11, 122
4, 52180, Control_c, 1, 11, 123
4, 52191, Control_c, 1, 11, 124
4, 52202, Control_c, 1, 11, 125
4, 52213, Control_c, 1, 11, 126
4, 52222, Note_on_c, 1, 80, 0
4, 52224, Control_c, 1, 11, 127
4, 52224, Control_c, 1, 11, 92
4, 52224, Note_on_c, 1, 82, 96
4, 52234, Control_c, 1, 11, 93
4, 52245, Control_c, 1, 11, 94
4, 52256, Control_c, 1, 11, 95
4, 52267, Control_c, 1, 11, 96
4, 52278, Control_c, 1, 11, 97
4, 52289, Control_c, 1, 11, 98
4, 52300, Control_c, 1, 11, 99
4, 52311, Control_c, 1, 11, 100
4, 52322, Control_c, 1, 11, 101
4, 52333, Control_c, 1, 11, 102
4, 52344, Control_c, 1, 11, 103
4, 52352, Note_on_c, 1, 82, 0
4, 52352, Note_on_c, 1, 82, 89
4, 52355, Control_c, 1, 11, 104
4, 52366, Control_c, 1, 11, 105
4, 52377, Control_c, 1, 11, 106
4, 52388, Control_c, 1, 11, 107
4, 52399, Control_c, 1, 11, 108
4, 52410, Control_c, 1, 11, 109
4, 52421, Control_c, 1, 11, 110
4, 52432, Control_c, 1, 11, 111
4, 52443, Control_c, 1, 11, 112
4, 52454, Control_c, 1, 11, 113
4, 52465, Control_c, 1, 11, 114
4, 52476, Control_c, 1, 11, 115
4, 52480, Note_on_c, 1, 82, 0
4, 52480, Note_on_c, 1, 80, 92
4, 52487, Control_c, 1, 11, 116
4, 52498, Control_c, 1, 11, 117
4, 52509, Control_c, 1, 11, 118
4, 52520, Control_c, 1, 11, 119
4, 52531, Control_c, 1, 11, 120
4, 52542, Control_c, 1, 11, 121
4, 52553, Control_c, 1, 11, 122
4, 52564, Control_c, 1, 11, 123
4, 52575, Control_c, 1, 11, 124
4, 52586, Control_c, 1, 11, 125
4, 52597, Control_c, 1, 11, 126
4, 52608, Control_c, 1, 11, 127
4, 53376, Note_on_c, 1, 80, 0
4, 53376, Control_c, 1, 11, 92
4, 53376, Note_on_c, 1, 82, 88
4, 53386, Control_c, 1, 11, 93
4, 53397, Control_c, 1, 11, 94
4, 53408, Control_c, 1, 11, 95
4, 53419, Control_c, 1, 11, 96
4, 53430, Control_c, 1, 11, 97
4, 53441, Control_c, 1, 11, 98
4, 53452, Control_c, 1, 11, 99
4, 53463, Control_c, 1, 11, 100
4, 53474, Control_c, 1, 11, 101
4, 53485, Control_c, 1, 11, 102
4, 53496, Control_c, 1, 11, 103
4, 53504, Note_on_c, 1, 82, 0
4, 53504, Note_on_c, 1, 82, 95
4, 53507, Control_c, 1, 11, 104
4, 53518, Control_c, 1, 11, 105
4, 53529, Control_c, 1, 11, 106
4, 53540, Control_c, 1, 11, 107
4, 53551, Control_c, 1, 11, 108
4, 53562, Control_c, 1, 11, 109
4, 53573, Control_c, 1, 11, 110
4, 53584, Control_c, 1, 11, 111
4, 53595, Control_c, 1, 11, 112
4, 53606, Control_c, 1, 11, 113
4, 53617, Control_c, 1, 11, 114
4, 53628, Control_c, 1, 11, 115
4, 53632, Note_on_c, 1, 82, 0
4, 53632, Note_on_c, 1, 80, 92
4, 53639, Control_c, 1, 11, 116
4, 53650, Control_c, 1, 11, 117
4, 53661, Control_c, 1, 11, 118
4, 53672, Control_c, 1, 11, 119
4, 53683, Control_c, 1, 11, 120
4, 53694, Control_c, 1, 11, 121
4, 53705, Control_c, 1, 11, 122
4, 53716, Control_c, 1, 11, 123
4, 53727, Control_c, 1, 11, 124
4, 53738, Control_c, 1, 11, 125
4, 53749, Control_c, 1, 11, 126
4, 53758, Note_on_c, 1, 80, 0
4, 53760, Control_c, 1, 11, 127
4, 53760, Control_c, 1, 11, 92
4, 53760, Note_on_c, 1, 83, 88
4, 53792, Control_c, 1, 11, 93
4, 53825, Control_c, 1, 11, 94
4, 53858, Control_c, 1, 11, 95
4, 53888, Note_on_c, 1, 83, 0
4, 53888, Note_on_c, 1, 83, 92
4, 53891, Control_c, 1, 11, 96
4, 53924, Control_c, 1, 11, 97
4, 53957, Control_c, 1, 11, 98
4, 53990, Control_c, 1, 11, 99
4, 54016, Note_on_c, 1, 83, 0
4, 54016, Note_on_c, 1, 82, 96
4, 54023, Control_c, 1, 11, 100
4, 54056, Control_c, 1, 11, 101
4, 54089, Control_c, 1, 11, 102
4, 54122, Control_c, 1, 11, 103
4, 54142, Note_on_c, 1, 82, 0
4, 54144, Note_on_c, 1, 81, 92
4, 54154, Control_c, 1, 11, 104
4, 54187, Control_c, 1, 11, 105
4, 54220, Control_c, 1, 11, 106
4, 54253, Control_c, 1, 11, 107
4, 54272, Note_on_c, 1, 81, 0
4, 54272, Note_on_c, 1, 81, 95
4, 54286, Control_c, 1, 11, 108
4, 54319, Control_c, 1, 11, 109
4, 54352, Control_c, 1, 11, 110
4, 54385, Control_c, 1, 11, 111
4, 54400, Note_on_c, 1, 81, 0
4, 54400, Note_on_c, 1, 78, 92
4, 54418, Control_c, 1, 11, 112
4, 54451, Control_c, 1, 11, 113
4, 54484, Control_c, 1, 11, 114
4, 54517, Control_c, 1, 11, 115
4, 54526, Note_on_c, 1, 78, 0
4, 54528, Note_on_c, 1, 74, 93
4, 54549, Control_c, 1, 11, 116
4, 54582, Control_c, 1, 11, 117
4, 54615, Control_c, 1, 11, 118
4, 54648, Control_c, 1, 11, 119
4, 54681, Control_c, 1, 11, 120
4, 54714, Control_c, 1, 11, 121
4, 54720, Note_on_c, 1, 74, 0
4, 54720, Note_on_c, 1, 76, 93
4, 54747, Control_c, 1, 11, 122
4, 54780, Control_c, 1, 11, 123
4, 54813, Control_c, 1, 11, 124
4, 54846, Control_c, 1, 11, 125
4, 54879, Control_c, 1, 11, 126
4, 54912, Note_on_c, 1, 76, 0
4, 54912, Control_c, 1, 11, 127
4, 54912, Note_on_c, 1, 77, 94
4, 55296, Control_c, 1, 11, 127
4, 55308, Control_c, 1, 11, 126
4, 55320, Control_c, 1, 11, 125
4, 55332, Control_c, 1, 11, 124
4, 55344, Control_c, 1, 11, 123
4, 55356, Control_c, 1, 11, 122
4, 55369, Control_c, 1, 11, 121
4, 55381, Control_c, 1, 11, 120
4, 55393, Control_c, 1, 11, 119
4, 55405, Control_c, 1, 11, 118
4, 55417, Control_c, 1, 11, 117
4, 55430, Control_c, 1, 11, 116
4, 55442, Control_c, 1, 11, 115
4, 55454, Control_c, 1, 11, 114
4, 55466, Control_c, 1, 11, 113
4, 55478, Control_c, 1, 11, 112
4, 55491, Control_c, 1, 11, 111
4, 55503, Control_c, 1, 11, 110
4, 55515, Control_c, 1, 11, 109
4, 55527, Control_c, 1, 11, 108
4, 55539, Control_c, 1, 11, 107
4, 55552, Control_c, 1, 11, 106
4, 55564, Control_c, 1, 11, 105
4, 55576, Control_c, 1, 11, 104
4, 55588, Control_c, 1, 11, 103
4, 55600, Control_c, 1, 11, 102
4, 55612, Control_c, 1, 11, 101
4, 55625, Control_c, 1, 11, 100
4, 55637, Control_c, 1, 11, 99
4, 55649, Control_c, 1, 11, 98
4, 55661, Control_c, 1, 11, 97
4, 55673, Control_c, 1, 11, 96
4, 55680, Note_on_c, 1, 77, 0
4, 55680, Note_on_c, 1, 79, 95
4, 55686, Control_c, 1, 11, 95
4, 55698, Control_c, 1, 11, 94
4, 55710, Control_c, 1, 11, 93
4, 55722, Control_c, 1, 11, 92
4, 55734, Control_c, 1, 11, 91
4, 55747, Control_c, 1, 11, 90
4, 55759, Control_c, 1, 11, 89
4, 55771, Control_c, 1, 11, 88
4, 55783, Control_c, 1, 11, 87
4, 55795, Control_c, 1, 11, 86
4, 55808, Control_c, 1, 11, 85
4, 55820, Control_c, 1, 11, 84
4, 55832, Control_c, 1, 11, 83
4, 55844, Control_c, 1, 11, 82
4, 55856, Control_c, 1, 11, 81
4, 55868, Control_c, 1, 11, 80
4, 55881, Control_c, 1, 11, 79
4, 55893, Control_c, 1, 11, 78
4, 55905, Control_c, 1, 11, 77
4, 55917, Control_c, 1, 11, 76
4, 55929, Control_c, 1, 11, 75
4, 55942, Control_c, 1, 11, 74
4, 55954, Control_c, 1, 11, 73
4, 55966, Control_c, 1, 11, 72
4, 55978, Control_c, 1, 11, 71
4, 55990, Control_c, 1, 11, 70
4, 56003, Control_c, 1, 11, 69
4, 56015, Control_c, 1, 11, 68
4, 56027, Control_c, 1, 11, 67
4, 56039, Control_c, 1, 11, 66
4, 56051, Control_c, 1, 11, 65
4, 56064, Note_on_c, 1, 79, 0
4, 56064, Control_c, 1, 11, 64
4, 56064, Note_on_c, 1, 71, 91
4, 56064, Note_on_c, 1, 74, 88
4, 57552, Note_on_c, 1, 71, 0
4, 57552, Note_on_c, 1, 74, 0
4, 57600, Control_c, 1, 11, 92
4, 57600, Note_on_c, 1, 72, 55
4, 57600, Note_on_c, 1, 75, 62
4, 58368, Note_on_c, 1, 75, 0
4, 58368, Control_c, 1, 11, 92
4, 58368, Note_on_c, 1, 76, 61
4, 58389, Control_c, 1, 11, 93
4, 58411, Control_c, 1, 11, 94
4, 58433, Control_c, 1, 11, 95
4, 58455, Control_c, 1, 11, 96
4, 58477, Control_c, 1, 11, 97
4, 58499, Control_c, 1, 11, 98
4, 58521, Control_c, 1, 11, 99
4, 58543, Control_c, 1, 11, 100
4, 58565, Control_c, 1, 11, 101
4, 58587, Control_c, 1, 11, 102
4, 58609, Control_c, 1, 11, 103
4, 58631, Control_c, 1, 11, 104
4, 58653, Control_c, 1, 11, 105
4, 58675, Control_c, 1, 11, 106
4, 58697, Control_c, 1, 11, 107
4, 58719, Control_c, 1, 11, 108
4, 58741, Control_c, 1, 11, 109
4, 58752, Note_on_c, 1, 76, 0
4, 58752, Note_on_c, 1, 75, 60
4, 58762, Control_c, 1, 11, 110
4, 58784, Control_c, 1, 11, 111
4, 58806, Control_c, 1, 11, 112
4, 58828, Control_c, 1, 11, 113
4, 58850, Control_c, 1, 11, 114
4, 58872, Control_c, 1, 11, 115
4, 58894, Control_c, 1, 11, 116
4, 58916, Control_c, 1, 11, 117
4, 58938, Control_c, 1, 11, 118
4, 58960, Control_c, 1, 11, 119
4, 58982, Control_c, 1, 11, 120
4, 59004, Control_c, 1, 11, 121
4, 59026, Control_c, 1, 11, 122
4, 59048, Control_c, 1, 11, 123
4, 59070, Control_c, 1, 11, 124
4, 59088, Note_on_c, 1, 72, 0
4, 59088, Note_on_c, 1, 75, 0
4, 59092, Control_c, 1, 11, 125
4, 59114, Control_c, 1, 11, 126
4, 59136, Control_c, 1, 11, 127
4, 59136, Note_on_c, 1, 71, 55
4, 59136, Note_on_c, 1, 74, 65
4, 60624, Note_on_c, 1, 71, 0
4, 60624, Note_on_c, 1, 74, 0
4, 60672, Control_c, 1, 11, 92
4, 60672, Note_on_c, 1, 69, 73
4, 60672, Note_on_c, 1, 72, 74
4, 60715, Control_c, 1, 11, 93
4, 60718, Note_on_c, 1, 72, 0
4, 60720, Note_on_c, 1, 73, 72
4, 60759, Control_c, 1, 11, 94
4, 60803, Control_c, 1, 11, 95
4, 60847, Control_c, 1, 11, 96
4, 60891, Control_c, 1, 11, 97
4, 60935, Control_c, 1, 11, 98
4, 60979, Control_c, 1, 11, 99
4, 61023, Control_c, 1, 11, 100
4, 61066, Control_c, 1, 11, 101
4, 61110, Control_c, 1, 11, 102
4, 61154, Control_c, 1, 11, 103
4, 61198, Control_c, 1, 11, 104
4, 61242, Control_c, 1, 11, 105
4, 61286, Control_c, 1, 11, 106
4, 61330, Control_c, 1, 11, 107
4, 61374, Control_c, 1, 11, 108
4, 61418, Control_c, 1, 11, 109
4, 61461, Control_c, 1, 11, 110
4, 61505, Control_c, 1, 11, 111
4, 61549, Control_c, 1, 11, 112
4, 61593, Control_c, 1, 11, 113
4, 61637, Control_c, 1, 11, 114
4, 61681, Control_c, 1, 11, 115
4, 61725, Control_c, 1, 11, 116
4, 61769, Control_c, 1, 11, 117
4, 61813, Control_c, 1, 11, 118
4, 61856, Control_c, 1, 11, 119
4, 61900, Control_c, 1, 11, 120
4, 61944, Control_c, 1, 11, 121
4, 61988, Control_c, 1, 11, 122
4, 62032, Control_c, 1, 11, 123
4, 62076, Control_c, 1, 11, 124
4, 62120, Control_c, 1, 11, 125
4, 62160, Note_on_c, 1, 69, 0
4, 62160, Note_on_c, 1, 73, 0
4, 62164, Control_c, 1, 11, 126
4, 62208, Control_c, 1, 11, 127
4, 62976, Control_c, 1, 11, 92
4, 62976, Note_on_c, 1, 76, 112
4, 62997, Control_c, 1, 11, 93
4, 63019, Control_c, 1, 11, 94
4, 63041, Control_c, 1, 11, 95
4, 63063, Control_c, 1, 11, 96
4, 63085, Control_c, 1, 11, 97
4, 63107, Control_c, 1, 11, 98
4, 63129, Control_c, 1, 11, 99
4, 63151, Control_c, 1, 11, 100
4, 63173, Control_c, 1, 11, 101
4, 63195, Control_c, 1, 11, 102
4, 63217, Control_c, 1, 11, 103
4, 63239, Control_c, 1, 11, 104
4, 63261, Control_c, 1, 11, 105
4, 63283, Control_c, 1, 11, 106
4, 63305, Control_c, 1, 11, 107
4, 63327, Control_c, 1, 11, 108
4, 63349, Control_c, 1, 11, 109
4, 63370, Control_c, 1, 11, 110
4, 63392, Control_c, 1, 11, 111
4, 63414, Control_c, 1, 11, 112
4, 63436, Control_c, 1, 11, 113
4, 63458, Control_c, 1, 11, 114
4, 63480, Control_c, 1, 11, 115
4, 63502, Control_c, 1, 11, 116
4, 63524, Control_c, 1, 11, 117
4, 63546, Control_c, 1, 11, 118
4, 63552, Note_on_c, 1, 76, 0
4, 63552, Note_on_c, 1, 79, 112
4, 63568, Control_c, 1, 11, 119
4, 63590, Control_c, 1, 11, 120
4, 63612, Control_c, 1, 11, 121
4, 63634, Control_c, 1, 11, 122
4, 63656, Control_c, 1, 11, 123
4, 63678, Control_c, 1, 11, 124
4, 63700, Control_c, 1, 11, 125
4, 63712, Note_on_c, 1, 79, 0
4, 63722, Control_c, 1, 11, 126
4, 63744, Control_c, 1, 11, 127
4, 65280, Control_c, 1, 11, 92
4, 65280, Note_on_c, 1, 79, 108
4, 65280, Note_on_c, 1, 83, 106
4, 65568, Note_on_c, 1, 79, 0
4, 65568, Note_on_c, 1, 83, 0
4, 65568, Note_on_c, 1, 78, 103
4, 65568, Note_on_c, 1, 82, 111
4, 65664, Note_on_c, 1, 78, 0
4, 65664, Note_on_c, 1, 82, 0
4, 65664, Note_on_c, 1, 78, 109
4, 65664, Note_on_c, 1, 82, 103
4, 66048, Control_c, 1, 11, 92
4, 66069, Control_c, 1, 11, 93
4, 66091, Control_c, 1, 11, 94
4, 66113, Control_c, 1, 11, 95
4, 66135, Control_c, 1, 11, 96
4, 66157, Control_c, 1, 11, 97
4, 66179, Control_c, 1, 11, 98
4, 66201, Control_c, 1, 11, 99
4, 66223, Control_c, 1, 11, 100
4, 66240, Note_on_c, 1, 78, 0
4, 66240, Note_on_c, 1, 82, 0
4, 66240, Note_on_c, 1, 81, 104
4, 66240, Note_on_c, 1, 85, 111
4, 66245, Control_c, 1, 11, 101
4, 66267, Control_c, 1, 11, 102
4, 66289, Control_c, 1, 11, 103
4, 66311, Control_c, 1, 11, 104
4, 66333, Control_c, 1, 11, 105
4, 66355, Control_c, 1, 11, 106
4, 66377, Control_c, 1, 11, 107
4, 66399, Control_c, 1, 11, 108
4, 66421, Control_c, 1, 11, 109
4, 66432, Note_on_c, 1, 81, 0
4, 66432, Note_on_c, 1, 85, 0
4, 66432, Note_on_c, 1, 80, 109
4, 66432, Note_on_c, 1, 84, 110
4, 66442, Control_c, 1, 11, 110
4, 66464, Control_c, 1, 11, 111
4, 66486, Control_c, 1, 11, 112
4, 66508, Control_c, 1, 11, 113
4, 66530, Control_c, 1, 11, 114
4, 66552, Control_c, 1, 11, 115
4, 66574, Control_c, 1, 11, 116
4, 66596, Control_c, 1, 11, 117
4, 66618, Control_c, 1, 11, 118
4, 66624, Note_on_c, 1, 80, 0
4, 66624, Note_on_c, 1, 84, 0
4, 66624, Note_on_c, 1, 84, 112
4, 66624, Note_on_c, 1, 87, 107
4, 66640, Control_c, 1, 11, 119
4, 66662, Control_c, 1, 11, 120
4, 66684, Control_c, 1, 11, 121
4, 66706, Control_c, 1, 11, 122
4, 66728, Control_c, 1, 11, 123
4, 66750, Control_c, 1, 11, 124
4, 66772, Control_c, 1, 11, 125
4, 66784, Note_on_c, 1, 84, 0
4, 66784, Note_on_c, 1, 87, 0
4, 66794, Control_c, 1, 11, 126
4, 66816, Control_c, 1, 11, 127
4, 66816, Control_c, 1, 11, 92
4, 66816, Note_on_c, 1, 79, 107
4, 66816, Note_on_c, 1, 83, 111
4, 67104, Note_on_c, 1, 79, 0
4, 67104, Note_on_c, 1, 83, 0
4, 67104, Note_on_c, 1, 78, 106
4, 67104, Note_on_c, 1, 82, 110
4, 67200, Note_on_c, 1, 78, 0
4, 67200, Note_on_c, 1, 82, 0
4, 67200, Note_on_c, 1, 78, 109
4, 67200, Note_on_c, 1, 82, 105
4, 67584, Control_c, 1, 11, 92
4, 67605, Control_c, 1, 11, 93
4, 67627, Control_c, 1, 11, 94
4, 67649, Control_c, 1, 11, 95
4, 67671, Control_c, 1, 11, 96
4, 67693, Control_c, 1, 11, 97
4, 67715, Control_c, 1, 11, 98
4, 67737, Control_c, 1, 11, 99
4, 67759, Control_c, 1, 11, 100
4, 67776, Note_on_c, 1, 78, 0
4, 67776, Note_on_c, 1, 82, 0
4, 67776, Note_on_c, 1, 75, 112
4, 67776, Note_on_c, 1, 77, 108
4, 67781, Control_c, 1, 11, 101
4, 67803, Control_c, 1, 11, 102
4, 67825, Control_c, 1, 11, 103
4, 67847, Control_c, 1, 11, 104
4, 67869, Control_c, 1, 11, 105
4, 67891, Control_c, 1, 11, 106
4, 67913, Control_c, 1, 11, 107
4, 67935, Control_c, 1, 11, 108
4, 67957, Control_c, 1, 11, 109
4, 67968, Note_on_c, 1, 75, 0
4, 67968, Note_on_c, 1, 77, 0
4, 67968, Note_on_c, 1, 74, 106
4, 67968, Note_on_c, 1, 78, 103
4, 67978, Control_c, 1, 11, 110
4, 68000, Control_c, 1, 11, 111
4, 68022, Control_c, 1, 11, 112
4, 68044, Control_c, 1, 11, 113
4, 68066, Control_c, 1, 11, 114
4, 68088, Control_c, 1, 11, 115
4, 68110, Control_c, 1, 11, 116
4, 68132, Control_c, 1, 11, 117
4, 68154, Control_c, 1, 11, 118
4, 68176, Control_c, 1, 11, 119
4, 68198, Control_c, 1, 11, 120
4, 68220, Control_c, 1, 11, 121
4, 68242, Control_c, 1, 11, 122
4, 68256, Note_on_c, 1, 74, 0
4, 68256, Note_on_c, 1, 78, 0
4, 68256, Note_on_c, 1, 72, 112
4, 68256, Note_on_c, 1, 74, 108
4, 68264, Control_c, 1, 11, 123
4, 68286, Control_c, 1, 11, 124
4, 68308, Control_c, 1, 11, 125
4, 68330, Control_c, 1, 11, 126
4, 68352, Note_on_c, 1, 72, 0
4, 68352, Note_on_c, 1, 74, 0
4, 68352, Control_c, 1, 11, 127
4, 68352, Note_on_c, 1, 71, 111
4, 68352, Note_on_c, 1, 75, 107
4, 68512, Note_on_c, 1, 71, 0
4, 68512, Note_on_c, 1, 75, 0
4, 68544, Control_c, 1, 11, 127
4, 68544, Note_on_c, 1, 67, 106
4, 68544, Note_on_c, 1, 70, 103
4, 68555, Control_c, 1, 11, 126
4, 68567, Control_c, 1, 11, 125
4, 68579, Control_c, 1, 11, 124
4, 68590, Control_c, 1, 11, 123
4, 68602, Control_c, 1, 11, 122
4, 68614, Control_c, 1, 11, 121
4, 68625, Control_c, 1, 11, 120
4, 68637, Control_c, 1, 11, 119
4, 68649, Control_c, 1, 11, 118
4, 68661, Control_c, 1, 11, 117
4, 68672, Control_c, 1, 11, 116
4, 68684, Control_c, 1, 11, 115
4, 68696, Control_c, 1, 11, 114
4, 68707, Control_c, 1, 11, 113
4, 68719, Control_c, 1, 11, 112
4, 68731, Control_c, 1, 11, 111
4, 68736, Note_on_c, 1, 67, 0
4, 68736, Note_on_c, 1, 70, 0
4, 68736, Note_on_c, 1, 68, 113
4, 68736, Note_on_c, 1, 72, 103
4, 68743, Control_c, 1, 11, 110
4, 68754, Control_c, 1, 11, 109
4, 68766, Control_c, 1, 11, 108
4, 68778, Control_c, 1, 11, 107
4, 68789, Control_c, 1, 11, 106
4, 68801, Control_c, 1, 11, 105
4, 68813, Control_c, 1, 11, 104
4, 68824, Control_c, 1, 11, 103
4, 68836, Control_c, 1, 11, 102
4, 68848, Control_c, 1, 11, 101
4, 68860, Control_c, 1, 11, 100
4, 68871, Control_c, 1, 11, 99
4, 68883, Control_c, 1, 11, 98
4, 68895, Control_c, 1, 11, 97
4, 68906, Control_c, 1, 11, 96
4, 68918, Control_c, 1, 11, 95
4, 68930, Control_c, 1, 11, 94
4, 68942, Control_c, 1, 11, 93
4, 68953, Control_c, 1, 11, 92
4, 68965, Control_c, 1, 11, 91
4, 68977, Control_c, 1, 11, 90
4, 68988, Control_c, 1, 11, 89
4, 69000, Control_c, 1, 11, 88
4, 69012, Control_c, 1, 11, 87
4, 69024, Control_c, 1, 11, 86
4, 69035, Control_c, 1, 11, 85
4, 69047, Control_c, 1, 11, 84
4, 69059, Control_c, 1, 11, 83
4, 69070, Control_c, 1, 11, 82
4, 69082, Control_c, 1, 11, 81
4, 69094, Control_c, 1, 11, 80
4, 69105, Control_c, 1, 11, 79
4, 69117, Control_c, 1, 11, 78
4, 69129, Control_c, 1, 11, 77
4, 69141, Control_c, 1, 11, 76
4, 69152, Control_c, 1, 11, 75
4, 69164, Control_c, 1, 11, 74
4, 69176, Control_c, 1, 11, 73
4, 69187, Control_c, 1, 11, 72
4, 69199, Control_c, 1, 11, 71
4, 69211, Control_c, 1, 11, 70
4, 69223, Control_c, 1, 11, 69
4, 69234, Control_c, 1, 11, 68
4, 69246, Control_c, 1, 11, 67
4, 69258, Control_c, 1, 11, 66
4, 69269, Control_c, 1, 11, 65
4, 69281, Control_c, 1, 11, 64
4, 69293, Control_c, 1, 11, 63
4, 69304, Control_c, 1, 11, 62
4, 69316, Control_c, 1, 11, 61
4, 69328, Control_c, 1, 11, 60
4, 69340, Control_c, 1, 11, 59
4, 69351, Control_c, 1, 11, 58
4, 69363, Control_c, 1, 11, 57
4, 69375, Control_c, 1, 11, 56
4, 69386, Control_c, 1, 11, 55
4, 69398, Control_c, 1, 11, 54
4, 69410, Control_c, 1, 11, 53
4, 69422, Control_c, 1, 11, 52
4, 69433, Control_c, 1, 11, 51
4, 69445, Control_c, 1, 11, 50
4, 69457, Control_c, 1, 11, 49
4, 69468, Control_c, 1, 11, 48
4, 69480, Control_c, 1, 11, 47
4, 69492, Control_c, 1, 11, 46
4, 69504, Note_on_c, 1, 68, 0
4, 69504, Note_on_c, 1, 72, 0
4, 69504, Control_c, 1, 11, 45
4, 69504, Note_on_c, 1, 65, 107
4, 69504, Note_on_c, 1, 67, 106
4, 69840, Note_on_c, 1, 65, 0
4, 69840, Note_on_c, 1, 67, 0
4, 69888, Control_c, 1, 11, 92
4, 69888, Note_on_c, 1, 64, 43
4, 69888, Note_on_c, 1, 68, 49
4, 69909, Control_c, 1, 11, 93
4, 69931, Control_c, 1, 11, 94
4, 69953, Control_c, 1, 11, 95
4, 69975, Control_c, 1, 11, 96
4, 69997, Control_c, 1, 11, 97
4, 70019, Control_c, 1, 11, 98
4, 70041, Control_c, 1, 11, 99
4, 70063, Control_c, 1, 11, 100
4, 70085, Control_c, 1, 11, 101
4, 70107, Control_c, 1, 11, 102
4, 70129, Control_c, 1, 11, 103
4, 70151, Control_c, 1, 11, 104
4, 70173, Control_c, 1, 11, 105
4, 70195, Control_c, 1, 11, 106
4, 70217, Control_c, 1, 11, 107
4, 70239, Control_c, 1, 11, 108
4, 70261, Control_c, 1, 11, 109
4, 70282, Control_c, 1, 11, 110
4, 70304, Control_c, 1, 11, 111
4, 70326, Control_c, 1, 11, 112
4, 70348, Control_c, 1, 11, 113
4, 70370, Control_c, 1, 11, 114
4, 70392, Control_c, 1, 11, 115
4, 70414, Control_c, 1, 11, 116
4, 70436, Control_c, 1, 11, 117
4, 70458, Control_c, 1, 11, 118
4, 70480, Control_c, 1, 11, 119
4, 70502, Control_c, 1, 11, 120
4, 70524, Control_c, 1, 11, 121
4, 70546, Control_c, 1, 11, 122
4, 70568, Control_c, 1, 11, 123
4, 70590, Control_c, 1, 11, 124
4, 70612, Control_c, 1, 11, 125
4, 70634, Control_c, 1, 11, 126
4, 70656, Control_c, 1, 11, 127
4, 70677, Control_c, 1, 11, 126
4, 70699, Control_c, 1, 11, 125
4, 70721, Control_c, 1, 11, 124
4, 70743, Control_c, 1, 11, 123
4, 70765, Control_c, 1, 11, 122
4, 70787, Control_c, 1, 11, 121
4, 70809, Control_c, 1, 11, 120
4, 70831, Control_c, 1, 11, 119
4, 70853, Control_c, 1, 11, 118
4, 70875, Control_c, 1, 11, 117
4, 70897, Control_c, 1, 11, 116
4, 70919, Control_c, 1, 11, 115
4, 70941, Control_c, 1, 11, 114
4, 70963, Control_c, 1, 11, 113
4, 70985, Control_c, 1, 11, 112
4, 71007, Control_c, 1, 11, 111
4, 71029, Control_c, 1, 11, 110
4, 71050, Control_c, 1, 11, 109
4, 71072, Control_c, 1, 11, 108
4, 71094, Control_c, 1, 11, 107
4, 71116, Control_c, 1, 11, 106
4, 71138, Control_c, 1, 11, 105
4, 71160, Control_c, 1, 11, 104
4, 71182, Control_c, 1, 11, 103
4, 71204, Control_c, 1, 11, 102
4, 71226, Control_c, 1, 11, 101
4, 71248, Control_c, 1, 11, 100
4, 71270, Control_c, 1, 11, 99
4, 71292, Control_c, 1, 11, 98
4, 71314, Control_c, 1, 11, 97
4, 71336, Control_c, 1, 11, 96
4, 71358, Control_c, 1, 11, 95
4, 71376, Note_on_c, 1, 64, 0
4, 71376, Note_on_c, 1, 68, 0
4, 71380, Control_c, 1, 11, 94
4, 71402, Control_c, 1, 11, 93
4, 71424, Control_c, 1, 11, 92
4, 71424, Control_c, 1, 11, 64
4, 71424, Note_on_c, 1, 64, 87
4, 71430, Control_c, 1, 11, 65
4, 71436, Control_c, 1, 11, 66
4, 71442, Control_c, 1, 11, 67
4, 71448, Control_c, 1, 11, 68
4, 71454, Control_c, 1, 11, 69
4, 71460, Control_c, 1, 11, 70
4, 71466, Control_c, 1, 11, 71
4, 71472, Control_c, 1, 11, 72
4, 71478, Control_c, 1, 11, 73
4, 71484, Control_c, 1, 11, 74
4, 71491, Control_c, 1, 11, 75
4, 71497, Control_c, 1, 11, 76
4, 71503, Control_c, 1, 11, 77
4, 71509, Control_c, 1, 11, 78
4, 71515, Control_c, 1, 11, 79
4, 71521, Control_c, 1, 11, 80
4, 71527, Control_c, 1, 11, 81
4, 71533, Control_c, 1, 11, 82
4, 71539, Control_c, 1, 11, 83
4, 71545, Control_c, 1, 11, 84
4, 71552, Control_c, 1, 11, 85
4, 71558, Control_c, 1, 11, 86
4, 71564, Control_c, 1, 11, 87
4, 71570, Control_c, 1, 11, 88
4, 71576, Control_c, 1, 11, 89
4, 71582, Control_c, 1, 11, 90
4, 71588, Control_c, 1, 11, 91
4, 71594, Control_c, 1, 11, 92
4, 71600, Control_c, 1, 11, 93
4, 71606, Control_c, 1, 11, 94
4, 71612, Control_c, 1, 11, 95
4, 71619, Control_c, 1, 11, 96
4, 71625, Control_c, 1, 11, 97
4, 71631, Control_c, 1, 11, 98
4, 71637, Control_c, 1, 11, 99
4, 71643, Control_c, 1, 11, 100
4, 71649, Control_c, 1, 11, 101
4, 71655, Control_c, 1, 11, 102
4, 71661, Control_c, 1, 11, 103
4, 71667, Control_c, 1, 11, 104
4, 71673, Control_c, 1, 11, 105
4, 71680, Control_c, 1, 11, 106
4, 71686, Control_c, 1, 11, 107
4, 71692, Control_c, 1, 11, 108
4, 71698, Control_c, 1, 11, 109
4, 71704, Control_c, 1, 11, 110
4, 71710, Control_c, 1, 11, 111
4, 71712, Note_on_c, 1, 64, 0
4, 71712, Note_on_c, 1, 66, 91
4, 71716, Control_c, 1, 11, 112
4, 71722, Control_c, 1, 11, 113
4, 71728, Control_c, 1, 11, 114
4, 71734, Control_c, 1, 11, 115
4, 71740, Control_c, 1, 11, 116
4, 71747, Control_c, 1, 11, 117
4, 71753, Control_c, 1, 11, 118
4, 71759, Control_c, 1, 11, 119
4, 71765, Control_c, 1, 11, 120
4, 71771, Control_c, 1, 11, 121
4, 71777, Control_c, 1, 11, 122
4, 71783, Control_c, 1, 11, 123
4, 71789, Control_c, 1, 11, 124
4, 71795, Control_c, 1, 11, 125
4, 71801, Control_c, 1, 11, 126
4, 71808, Note_on_c, 1, 66, 0
4, 71808, Control_c, 1, 11, 127
4, 71808, Note_on_c, 1, 69, 91
4, 71928, Note_on_c, 1, 69, 0
4, 72000, Note_on_c, 1, 70, 91
4, 72000, Note_on_c, 1, 72, 89
4, 72120, Note_on_c, 1, 70, 0
4, 72120, Note_on_c, 1, 72, 0
4, 72192, Control_c, 1, 11, 64
4, 72192, Note_on_c, 1, 64, 97
4, 72198, Control_c, 1, 11, 65
4, 72204, Control_c, 1, 11, 66
4, 72210, Control_c, 1, 11, 67
4, 72216, Control_c, 1, 11, 68
4, 72222, Control_c, 1, 11, 69
4, 72228, Control_c, 1, 11, 70
4, 72234, Control_c, 1, 11, 71
4, 72240, Control_c, 1, 11, 72
4, 72246, Control_c, 1, 11, 73
4, 72252, Control_c, 1, 11, 74
4, 72259, Control_c, 1, 11, 75
4, 72265, Control_c, 1, 11, 76
4, 72271, Control_c, 1, 11, 77
4, 72277, Control_c, 1, 11, 78
4, 72283, Control_c, 1, 11, 79
4, 72289, Control_c, 1, 11, 80
4, 72295, Control_c, 1, 11, 81
4, 72301, Control_c, 1, 11, 82
4, 72307, Control_c, 1, 11, 83
4, 72313, Control_c, 1, 11, 84
4, 72320, Control_c, 1, 11, 85
4, 72326, Control_c, 1, 11, 86
4, 72332, Control_c, 1, 11, 87
4, 72338, Control_c, 1, 11, 88
4, 72344, Control_c, 1, 11, 89
4, 72350, Control_c, 1, 11, 90
4, 72356, Control_c, 1, 11, 91
4, 72362, Control_c, 1, 11, 92
4, 72368, Control_c, 1, 11, 93
4, 72374, Control_c, 1, 11, 94
4, 72380, Control_c, 1, 11, 95
4, 72387, Control_c, 1, 11, 96
4, 72393, Control_c, 1, 11, 97
4, 72399, Control_c, 1, 11, 98
4, 72405, Control_c, 1, 11, 99
4, 72411, Control_c, 1, 11, 100
4, 72417, Control_c, 1, 11, 101
4, 72423, Control_c, 1, 11, 102
4, 72429, Control_c, 1, 11, 103
4, 72435, Control_c, 1, 11, 104
4, 72441, Control_c, 1, 11, 105
4, 72448, Control_c, 1, 11, 106
4, 72454, Control_c, 1, 11, 107
4, 72460, Control_c, 1, 11, 108
4, 72466, Control_c, 1, 11, 109
4, 72472, Control_c, 1, 11, 110
4, 72478, Control_c, 1, 11, 111
4, 72480, Note_on_c, 1, 64, 0
4, 72480, Note_on_c, 1, 65, 97
4, 72484, Control_c, 1, 11, 112
4, 72490, Control_c, 1, 11, 113
4, 72496, Control_c, 1, 11, 114
4, 72502, Control_c, 1, 11, 115
4, 72508, Control_c, 1, 11, 116
4, 72515, Control_c, 1, 11, 117
4, 72521, Control_c, 1, 11, 118
4, 72527, Control_c, 1, 11, 119
4, 72533, Control_c, 1, 11, 120
4, 72539, Control_c, 1, 11, 121
4, 72545, Control_c, 1, 11, 122
4, 72551, Control_c, 1, 11, 123
4, 72557, Control_c, 1, 11, 124
4, 72563, Control_c, 1, 11, 125
4, 72569, Control_c, 1, 11, 126
4, 72576, Note_on_c, 1, 65, 0
4, 72576, Control_c, 1, 11, 127
4, 72576, Note_on_c, 1, 69, 92
4, 72696, Note_on_c, 1, 69, 0
4, 72768, Note_on_c, 1, 70, 87
4, 72768, Note_on_c, 1, 72, 88
4, 72888, Note_on_c, 1, 70, 0
4, 72888, Note_on_c, 1, 72, 0
4, 72960, Note_on_c, 1, 65, 89
4, 72960, Note_on_c, 1, 75, 87
4, 73888, Note_on_c, 1, 65, 0
4, 73888, Note_on_c, 1, 75, 0
4, 74880, Control_c, 1, 11, 92
4, 74880, Note_on_c, 1, 67, 111
4, 74880, Note_on_c, 1, 73, 112
4, 74890, Control_c, 1, 11, 93
4, 74901, Control_c, 1, 11, 94
4, 74912, Control_c, 1, 11, 95
4, 74923, Control_c, 1, 11, 96
4, 74926, Note_on_c, 1, 67, 0
4, 74926, Note_on_c, 1, 73, 0
4, 74928, Note_on_c, 1, 69, 105
4, 74928, Note_on_c, 1, 71, 103
4, 74934, Control_c, 1, 11, 97
4, 74945, Control_c, 1, 11, 98
4, 74956, Control_c, 1, 11, 99
4, 74967, Control_c, 1, 11, 100
4, 74978, Control_c, 1, 11, 101
4, 74989, Control_c, 1, 11, 102
4, 75000, Control_c, 1, 11, 103
4, 75011, Control_c, 1, 11, 104
4, 75022, Control_c, 1, 11, 105
4, 75033, Control_c, 1, 11, 106
4, 75044, Control_c, 1, 11, 107
4, 75055, Control_c, 1, 11, 108
4, 75066, Control_c, 1, 11, 109
4, 75077, Control_c, 1, 11, 110
4, 75088, Control_c, 1, 11, 111
4, 75099, Control_c, 1, 11, 112
4, 75110, Control_c, 1, 11, 113
4, 75121, Control_c, 1, 11, 114
4, 75132, Control_c, 1, 11, 115
4, 75143, Control_c, 1, 11, 116
4, 75154, Control_c, 1, 11, 117
4, 75165, Control_c, 1, 11, 118
4, 75176, Control_c, 1, 11, 119
4, 75187, Control_c, 1, 11, 120
4, 75198, Control_c, 1, 11, 121
4, 75209, Control_c, 1, 11, 122
4, 75220, Control_c, 1, 11, 123
4, 75231, Control_c, 1, 11, 124
4, 75242, Control_c, 1, 11, 125
4, 75253, Control_c, 1, 11, 126
4, 75264, Control_c, 1, 11, 127
4, 75276, Control_c, 1, 11, 126
4, 75288, Control_c, 1, 11, 125
4, 75300, Control_c, 1, 11, 124
4, 75312, Control_c, 1, 11, 123
4, 75324, Control_c, 1, 11, 122
4, 75337, Control_c, 1, 11, 121
4, 75349, Control_c, 1, 11, 120
4, 75361, Control_c, 1, 11, 119
4, 75373, Control_c, 1, 11, 118
4, 75385, Control_c, 1, 11, 117
4, 75398, Control_c, 1, 11, 116
4, 75410, Control_c, 1, 11, 115
4, 75422, Control_c, 1, 11, 114
4, 75434, Control_c, 1, 11, 113
4, 75446, Control_c, 1, 11, 112
4, 75459, Control_c, 1, 11, 111
4, 75471, Control_c, 1, 11, 110
4, 75483, Control_c, 1, 11, 109
4, 75495, Control_c, 1, 11, 108
4, 75507, Control_c, 1, 11, 107
4, 75520, Control_c, 1, 11, 106
4, 75532, Control_c, 1, 11, 105
4, 75544, Control_c, 1, 11, 104
4, 75556, Control_c, 1, 11, 103
4, 75568, Control_c, 1, 11, 102
4, 75580, Control_c, 1, 11, 101
4, 75593, Control_c, 1, 11, 100
4, 75605, Control_c, 1, 11, 99
4, 75617, Control_c, 1, 11, 98
4, 75629, Control_c, 1, 11, 97
4, 75641, Control_c, 1, 11, 96
4, 75654, Control_c, 1, 11, 95
4, 75666, Control_c, 1, 11, 94
4, 75678, Control_c, 1, 11, 93
4, 75690, Control_c, 1, 11, 92
4, 75702, Control_c, 1, 11, 91
4, 75715, Control_c, 1, 11, 90
4, 75727, Control_c, 1, 11, 89
4, 75739, Control_c, 1, 11, 88
4, 75751, Control_c, 1, 11, 87
4, 75763, Control_c, 1, 11, 86
4, 75776, Control_c, 1, 11, 85
4, 75788, Control_c, 1, 11, 84
4, 75800, Control_c, 1, 11, 83
4, 75812, Control_c, 1, 11, 82
4, 75824, Control_c, 1, 11, 81
4, 75836, Control_c, 1, 11, 80
4, 75849, Control_c, 1, 11, 79
4, 75861, Control_c, 1, 11, 78
4, 75873, Control_c, 1, 11, 77
4, 75885, Control_c, 1, 11, 76
4, 75897, Control_c, 1, 11, 75
4, 75910, Control_c, 1, 11, 74
4, 75922, Control_c, 1, 11, 73
4, 75934, Control_c, 1, 11, 72
4, 75946, Control_c, 1, 11, 71
4, 75958, Control_c, 1, 11, 70
4, 75971, Control_c, 1, 11, 69
4, 75983, Control_c, 1, 11, 68
4, 75984, Note_on_c, 1, 69, 0
4, 75984, Note_on_c, 1, 71, 0
4, 75995, Control_c, 1, 11, 67
4, 76007, Control_c, 1, 11, 66
4, 76019, Control_c, 1, 11, 65
4, 76032, Control_c, 1, 11, 64
4, 76032, Control_c, 1, 11, 127
4, 76416, Note_on_c, 1, 69, 50
4, 76416, Note_on_c, 1, 71, 45
4, 77520, Note_on_c, 1, 69, 0
4, 77520, Note_on_c, 1, 71, 0
4, 77952, Note_on_c, 1, 69, 49
4, 77952, Note_on_c, 1, 71, 46
4, 79056, Note_on_c, 1, 69, 0
4, 79056, Note_on_c, 1, 71, 0
4, 79488, Control_c, 1, 11, 92
4, 79488, Note_on_c, 1, 67, 111
4, 79488, Note_on_c, 1, 73, 109
4, 79498, Control_c, 1, 11, 93
4, 79509, Control_c, 1, 11, 94
4, 79520, Control_c, 1, 11, 95
4, 79531, Control_c, 1, 11, 96
4, 79534, Note_on_c, 1, 67, 0
4, 79534, Note_on_c, 1, 73, 0
4, 79536, Note_on_c, 1, 69, 108
4, 79536, Note_on_c, 1, 71, 107
4, 79542, Control_c, 1, 11, 97
4, 79553, Control_c, 1, 11, 98
4, 79564, Control_c, 1, 11, 99
4, 79575, Control_c, 1, 11, 100
4, 79586, Control_c, 1, 11, 101
4, 79597, Control_c, 1, 11, 102
4, 79608, Control_c, 1, 11, 103
4, 79619, Control_c, 1, 11, 104
4, 79630, Control_c, 1, 11, 105
4, 79641, Control_c, 1, 11, 106
4, 79652, Control_c, 1, 11, 107
4, 79663, Control_c, 1, 11, 108
4, 79674, Control_c, 1, 11, 109
4, 79685, Control_c, 1, 11, 110
4, 79696, Control_c, 1, 11, 111
4, 79707, Control_c, 1, 11, 112
4, 79718, Control_c, 1, 11, 113
4, 79729, Control_c, 1, 11, 114
4, 79740, Control_c, 1, 11, 115
4, 79751, Control_c, 1, 11, 116
4, 79762, Control_c, 1, 11, 117
4, 79773, Control_c, 1, 11, 118
4, 79784, Control_c, 1, 11, 119
4, 79795, Control_c, 1, 11, 120
4, 79806, Control_c, 1, 11, 121
4, 79817, Control_c, 1, 11, 122
4, 79828, Control_c, 1, 11, 123
4, 79839, Control_c, 1, 11, 124
4, 79850, Control_c, 1, 11, 125
4, 79861, Control_c, 1, 11, 126
4, 79872, Control_c, 1, 11, 127
4, 80064, Control_c, 1, 11, 127
4, 80073, Control_c, 1, 11, 126
4, 80082, Control_c, 1, 11, 125
4, 80091, Control_c, 1, 11, 124
4, 80100, Control_c, 1, 11, 123
4, 80109, Control_c, 1, 11, 122
4, 80118, Control_c, 1, 11, 121
4, 80128, Control_c, 1, 11, 120
4, 80137, Control_c, 1, 11, 119
4, 80146, Control_c, 1, 11, 118
4, 80155, Control_c, 1, 11, 117
4, 80164, Control_c, 1, 11, 116
4, 80173, Control_c, 1, 11, 115
4, 80182, Control_c, 1, 11, 114
4, 80192, Control_c, 1, 11, 113
4, 80201, Control_c, 1, 11, 112
4, 80210, Control_c, 1, 11, 111
4, 80219, Control_c, 1, 11, 110
4, 80228, Control_c, 1, 11, 109
4, 80237, Control_c, 1, 11, 108
4, 80246, Control_c, 1, 11, 107
4, 80256, Control_c, 1, 11, 106
4, 80265, Control_c, 1, 11, 105
4, 80274, Control_c, 1, 11, 104
4, 80283, Control_c, 1, 11, 103
4, 80292, Control_c, 1, 11, 102
4, 80301, Control_c, 1, 11, 101
4, 80310, Control_c, 1, 11, 100
4, 80320, Control_c, 1, 11, 99
4, 80329, Control_c, 1, 11, 98
4, 80338, Control_c, 1, 11, 97
4, 80347, Control_c, 1, 11, 96
4, 80356, Control_c, 1, 11, 95
4, 80365, Control_c, 1, 11, 94
4, 80374, Control_c, 1, 11, 93
4, 80384, Control_c, 1, 11, 92
4, 80393, Control_c, 1, 11, 91
4, 80402, Control_c, 1, 11, 90
4, 80411, Control_c, 1, 11, 89
4, 80420, Control_c, 1, 11, 88
4, 80429, Control_c, 1, 11, 87
4, 80438, Control_c, 1, 11, 86
4, 80448, Control_c, 1, 11, 85
4, 80457, Control_c, 1, 11, 84
4, 80466, Control_c, 1, 11, 83
4, 80475, Control_c, 1, 11, 82
4, 80484, Control_c, 1, 11, 81
4, 80493, Control_c, 1, 11, 80
4, 80502, Control_c, 1, 11, 79
4, 80512, Control_c, 1, 11, 78
4, 80521, Control_c, 1, 11, 77
4, 80530, Control_c, 1, 11, 76
4, 80539, Control_c, 1, 11, 75
4, 80548, Control_c, 1, 11, 74
4, 80557, Control_c, 1, 11, 73
4, 80566, Control_c, 1, 11, 72
4, 80576, Control_c, 1, 11, 71
4, 80585, Control_c, 1, 11, 70
4, 80592, Note_on_c, 1, 69, 0
4, 80592, Note_on_c, 1, 71, 0
4, 80594, Control_c, 1, 11, 69
4, 80603, Control_c, 1, 11, 68
4, 80612, Control_c, 1, 11, 67
4, 80621, Control_c, 1, 11, 66
4, 80630, Control_c, 1, 11, 65
4, 80640, Control_c, 1, 11, 64
4, 80640, Control_c, 1, 11, 127
4, 81024, Note_on_c, 1, 69, 49
4, 81024, Note_on_c, 1, 71, 48
4, 82128, Note_on_c, 1, 69, 0
4, 82128, Note_on_c, 1, 71, 0
4, 82560, Note_on_c, 1, 69, 50
4, 82560, Note_on_c, 1, 71, 44
4, 83664, Note_on_c, 1, 69, 0
4, 83664, Note_on_c, 1, 71, 0
4, 84096, Control_c, 1, 11, 92
4, 84096, Note_on_c, 1, 67, 107
4, 84096, Note_on_c, 1, 73, 104
4, 84106, Control_c, 1, 11, 93
4, 84117, Control_c, 1, 11, 94
4, 84128, Control_c, 1, 11, 95
4, 84139, Control_c, 1, 11, 96
4, 84142, Note_on_c, 1, 67, 0
4, 84142, Note_on_c, 1, 73, 0
4, 84144, Note_on_c, 1, 69, 108
4, 84144, Note_on_c, 1, 71, 109
4, 84150, Control_c, 1, 11, 97
4, 84161, Control_c, 1, 11, 98
4, 84172, Control_c, 1, 11, 99
4, 84183, Control_c, 1, 11, 100
4, 84194, Control_c, 1, 11, 101
4, 84205, Control_c, 1, 11, 102
4, 84216, Control_c, 1, 11, 103
4, 84227, Control_c, 1, 11, 104
4, 84238, Control_c, 1, 11, 105
4, 84249, Control_c, 1, 11, 106
4, 84260, Control_c, 1, 11, 107
4, 84271, Control_c, 1, 11, 108
4, 84282, Control_c, 1, 11, 109
4, 84293, Control_c, 1, 11, 110
4, 84304, Control_c, 1, 11, 111
4, 84315, Control_c, 1, 11, 112
4, 84326, Control_c, 1, 11, 113
4, 84337, Control_c, 1, 11, 114
4, 84348, Control_c, 1, 11, 115
4, 84359, Control_c, 1, 11, 116
4, 84370, Control_c, 1, 11, 117
4, 84381, Control_c, 1, 11, 118
4, 84392, Control_c, 1, 11, 119
4, 84403, Control_c, 1, 11, 120
4, 84414, Control_c, 1, 11, 121
4, 84425, Control_c, 1, 11, 122
4, 84436, Control_c, 1, 11, 123
4, 84447, Control_c, 1, 11, 124
4, 84458, Control_c, 1, 11, 125
4, 84469, Control_c, 1, 11, 126
4, 84480, Control_c, 1, 11, 127
4, 84864, Control_c, 1, 11, 127
4, 84870, Control_c, 1, 11, 126
4, 84876, Control_c, 1, 11, 125
4, 84882, Control_c, 1, 11, 124
4, 84888, Control_c, 1, 11, 123
4, 84894, Control_c, 1, 11, 122
4, 84900, Control_c, 1, 11, 121
4, 84906, Control_c, 1, 11, 120
4, 84912, Control_c, 1, 11, 119
4, 84918, Control_c, 1, 11, 118
4, 84924, Control_c, 1, 11, 117
4, 84931, Control_c, 1, 11, 116
4, 84937, Control_c, 1, 11, 115
4, 84943, Control_c, 1, 11, 114
4, 84949, Control_c, 1, 11, 113
4, 84955, Control_c, 1, 11, 112
4, 84961, Control_c, 1, 11, 111
4, 84967, Control_c, 1, 11, 110
4, 84973, Control_c, 1, 11, 109
4, 84979, Control_c, 1, 11, 108
4, 84985, Control_c, 1, 11, 107
4, 84992, Control_c, 1, 11, 106
4, 84998, Control_c, 1, 11, 105
4, 85004, Control_c, 1, 11, 104
4, 85010, Control_c, 1, 11, 103
4, 85016, Control_c, 1, 11, 102
4, 85022, Control_c, 1, 11, 101
4, 85028, Control_c, 1, 11, 100
4, 85034, Control_c, 1, 11, 99
4, 85040, Control_c, 1, 11, 98
4, 85046, Control_c, 1, 11, 97
4, 85052, Control_c, 1, 11, 96
4, 85059, Control_c, 1, 11, 95
4, 85065, Control_c, 1, 11, 94
4, 85071, Control_c, 1, 11, 93
4, 85077, Control_c, 1, 11, 92
4, 85083, Control_c, 1, 11, 91
4, 85089, Control_c, 1, 11, 90
4, 85095, Control_c, 1, 11, 89
4, 85101, Control_c, 1, 11, 88
4, 85107, Control_c, 1, 11, 87
4, 85113, Control_c, 1, 11, 86
4, 85120, Control_c, 1, 11, 85
4, 85126, Control_c, 1, 11, 84
4, 85132, Control_c, 1, 11, 83
4, 85138, Control_c, 1, 11, 82
4, 85144, Control_c, 1, 11, 81
4, 85150, Control_c, 1, 11, 80
4, 85156, Control_c, 1, 11, 79
4, 85162, Control_c, 1, 11, 78
4, 85168, Control_c, 1, 11, 77
4, 85174, Control_c, 1, 11, 76
4, 85180, Control_c, 1, 11, 75
4, 85187, Control_c, 1, 11, 74
4, 85193, Control_c, 1, 11, 73
4, 85199, Control_c, 1, 11, 72
4, 85200, Note_on_c, 1, 69, 0
4, 85200, Note_on_c, 1, 71, 0
4, 85205, Control_c, 1, 11, 71
4, 85211, Control_c, 1, 11, 70
4, 85217, Control_c, 1, 11, 69
4, 85223, Control_c, 1, 11, 68
4, 85229, Control_c, 1, 11, 67
4, 85235, Control_c, 1, 11, 66
4, 85241, Control_c, 1, 11, 65
4, 85248, Control_c, 1, 11, 64
4, 85632, Control_c, 1, 11, 127
4, 85632, Note_on_c, 1, 69, 70
4, 85632, Note_on_c, 1, 71, 80
4, 85680, Note_on_c, 1, 69, 0
4, 85680, Note_on_c, 1, 71, 0
4, 85776, Note_on_c, 1, 69, 77
4, 85776, Note_on_c, 1, 71, 73
4, 85822, Note_on_c, 1, 69, 0
4, 85822, Note_on_c, 1, 71, 0
4, 85824, Note_on_c, 1, 69, 70
4, 85824, Note_on_c, 1, 71, 72
4, 85872, Note_on_c, 1, 69, 0
4, 85872, Note_on_c, 1, 71, 0
4, 85968, Note_on_c, 1, 69, 70
4, 85968, Note_on_c, 1, 71, 78
4, 86014, Note_on_c, 1, 69, 0
4, 86014, Note_on_c, 1, 71, 0
4, 86016, Note_on_c, 1, 81, 78
4, 86016, Note_on_c, 1, 83, 76
4, 86176, Note_on_c, 1, 81, 0
4, 86176, Note_on_c, 1, 83, 0
4, 86400, Note_on_c, 1, 69, 80
4, 86400, Note_on_c, 1, 71, 77
4, 86448, Note_on_c, 1, 69, 0
4, 86448, Note_on_c, 1, 71, 0
4, 86544, Note_on_c, 1, 69, 77
4, 86544, Note_on_c, 1, 71, 77
4, 86590, Note_on_c, 1, 69, 0
4, 86590, Note_on_c, 1, 71, 0
4, 86592, Note_on_c, 1, 69, 75
4, 86592, Note_on_c, 1, 71, 80
4, 86640, Note_on_c, 1, 69, 0
4, 86640, Note_on_c, 1, 71, 0
4, 86736, Note_on_c, 1, 69, 79
4, 86736, Note_on_c, 1, 71, 70
4, 86782, Note_on_c, 1, 69, 0
4, 86782, Note_on_c, 1, 71, 0
4, 86784, Note_on_c, 1, 81, 74
4, 86784, Note_on_c, 1, 83, 80
4, 86944, Note_on_c, 1, 81, 0
4, 86944, Note_on_c, 1, 83, 0
4, 87168, Note_on_c, 1, 69, 71
4, 87168, Note_on_c, 1, 71, 76
4, 87216, Note_on_c, 1, 69, 0
4, 87216, Note_on_c, 1, 71, 0
4, 87312, Note_on_c, 1, 69, 74
4, 87312, Note_on_c, 1, 71, 71
4, 87358, Note_on_c, 1, 69, 0
4, 87358, Note_on_c, 1, 71, 0
4, 87360, Note_on_c, 1, 69, 79
4, 87360, Note_on_c, 1, 71, 72
4, 87408, Note_on_c, 1, 69, 0
4, 87408, Note_on_c, 1, 71, 0
4, 87504, Note_on_c, 1, 69, 75
4, 87504, Note_on_c, 1, 71, 70
4, 87550, Note_on_c, 1, 69, 0
4, 87550, Note_on_c, 1, 71, 0
4, 87552, Note_on_c, 1, 81, 71
4, 87552, Note_on_c, 1, 83, 75
4, 87712, Note_on_c, 1, 81, 0
4, 87712, Note_on_c, 1, 83, 0
4, 87936, Control_c, 1, 11, 75
4, 87936, Note_on_c, 1, 80, 112
4, 87936, Note_on_c, 1, 84, 109
4, 87958, Control_c, 1, 11, 76
4, 87980, Control_c, 1, 11, 77
4, 88002, Control_c, 1, 11, 78
4, 88024, Control_c, 1, 11, 79
4, 88046, Control_c, 1, 11, 80
4, 88068, Control_c, 1, 11, 81
4, 88091, Control_c, 1, 11, 82
4, 88113, Control_c, 1, 11, 83
4, 88135, Control_c, 1, 11, 84
4, 88157, Control_c, 1, 11, 85
4, 88179, Control_c, 1, 11, 86
4, 88201, Control_c, 1, 11, 87
4, 88224, Control_c, 1, 11, 88
4, 88246, Control_c, 1, 11, 89
4, 88268, Control_c, 1, 11, 90
4, 88290, Control_c, 1, 11, 91
4, 88312, Control_c, 1, 11, 92
4, 88334, Control_c, 1, 11, 93
4, 88356, Control_c, 1, 11, 94
4, 88379, Control_c, 1, 11, 95
4, 88401, Control_c, 1, 11, 96
4, 88423, Control_c, 1, 11, 97
4, 88445, Control_c, 1, 11, 98
4, 88467, Control_c, 1, 11, 99
4, 88489, Control_c, 1, 11, 100
4, 88512, Control_c, 1, 11, 101
4, 88534, Control_c, 1, 11, 102
4, 88556, Control_c, 1, 11, 103
4, 88578, Control_c, 1, 11, 104
4, 88600, Control_c, 1, 11, 105
4, 88622, Control_c, 1, 11, 106
4, 88644, Control_c, 1, 11, 107
4, 88667, Control_c, 1, 11, 108
4, 88689, Control_c, 1, 11, 109
4, 88704, Note_on_c, 1, 80, 0
4, 88704, Note_on_c, 1, 84, 0
4, 88704, Note_on_c, 1, 79, 112
4, 88704, Note_on_c, 1, 85, 111
4, 88711, Control_c, 1, 11, 110
4, 88733, Control_c, 1, 11, 111
4, 88755, Control_c, 1, 11, 112
4, 88777, Control_c, 1, 11, 113
4, 88800, Control_c, 1, 11, 114
4, 88822, Control_c, 1, 11, 115
4, 88844, Control_c, 1, 11, 116
4, 88866, Control_c, 1, 11, 117
4, 88888, Control_c, 1, 11, 118
4, 88910, Control_c, 1, 11, 119
4, 88932, Control_c, 1, 11, 120
4, 88955, Control_c, 1, 11, 121
4, 88977, Control_c, 1, 11, 122
4, 88999, Control_c, 1, 11, 123
4, 89021, Control_c, 1, 11, 124
4, 89040, Note_on_c, 1, 79, 0
4, 89040, Note_on_c, 1, 85, 0
4, 89043, Control_c, 1, 11, 125
4, 89065, Control_c, 1, 11, 126
4, 89088, Control_c, 1, 11, 127
4, 89088, Note_on_c, 1, 75, 45
4, 89088, Note_on_c, 1, 81, 41
4, 89136, Note_on_c, 1, 75, 0
4, 89136, Note_on_c, 1, 81, 0
4, 89232, Note_on_c, 1, 75, 41
4, 89232, Note_on_c, 1, 79, 40
4, 89264, Note_on_c, 1, 75, 0
4, 89264, Note_on_c, 1, 79, 0
4, 89280, Note_on_c, 1, 75, 46
4, 89280, Note_on_c, 1, 81, 47
4, 89328, Note_on_c, 1, 75, 0
4, 89328, Note_on_c, 1, 81, 0
4, 89424, Note_on_c, 1, 75, 44
4, 89424, Note_on_c, 1, 79, 48
4, 89456, Note_on_c, 1, 75, 0
4, 89456, Note_on_c, 1, 79, 0
4, 89472, Note_on_c, 1, 75, 50
4, 89472, Note_on_c, 1, 81, 48
4, 89520, Note_on_c, 1, 75, 0
4, 89520, Note_on_c, 1, 81, 0
4, 89616, Note_on_c, 1, 75, 53
4, 89616, Note_on_c, 1, 79, 49
4, 89648, Note_on_c, 1, 75, 0
4, 89648, Note_on_c, 1, 79, 0
4, 89664, Note_on_c, 1, 75, 50
4, 89664, Note_on_c, 1, 81, 56
4, 89712, Note_on_c, 1, 75, 0
4, 89712, Note_on_c, 1, 81, 0
4, 89808, Note_on_c, 1, 75, 56
4, 89808, Note_on_c, 1, 79, 61
4, 89840, Note_on_c, 1, 75, 0
4, 89840, Note_on_c, 1, 79, 0
4, 89856, Note_on_c, 1, 75, 60
4, 89856, Note_on_c, 1, 81, 61
4, 89904, Note_on_c, 1, 75, 0
4, 89904, Note_on_c, 1, 81, 0
4, 90000, Note_on_c, 1, 75, 58
4, 90000, Note_on_c, 1, 79, 59
4, 90032, Note_on_c, 1, 75, 0
4, 90032, Note_on_c, 1, 79, 0
4, 90048, Note_on_c, 1, 75, 61
4, 90048, Note_on_c, 1, 81, 57
4, 90096, Note_on_c, 1, 75, 0
4, 90096, Note_on_c, 1, 81, 0
4, 90192, Note_on_c, 1, 75, 61
4, 90192, Note_on_c, 1, 79, 69
4, 90224, Note_on_c, 1, 75, 0
4, 90224, Note_on_c, 1, 79, 0
4, 90240, Note_on_c, 1, 75, 66
4, 90240, Note_on_c, 1, 81, 68
4, 90288, Note_on_c, 1, 75, 0
4, 90288, Note_on_c, 1, 81, 0
4, 90384, Note_on_c, 1, 75, 69
4, 90384, Note_on_c, 1, 79, 68
4, 90416, Note_on_c, 1, 75, 0
4, 90416, Note_on_c, 1, 79, 0
4, 90432, Note_on_c, 1, 75, 75
4, 90432, Note_on_c, 1, 81, 72
4, 90480, Note_on_c, 1, 75, 0
4, 90480, Note_on_c, 1, 81, 0
4, 90576, Note_on_c, 1, 75, 75
4, 90576, Note_on_c, 1, 79, 77
4, 90608, Note_on_c, 1, 75, 0
4, 90608, Note_on_c, 1, 79, 0
4, 90624, Note_on_c, 1, 75, 70
4, 90624, Note_on_c, 1, 81, 79
4, 90672, Note_on_c, 1, 75, 0
4, 90672, Note_on_c, 1, 81, 0
4, 90768, Note_on_c, 1, 75, 79
4, 90768, Note_on_c, 1, 79, 82
4, 90800, Note_on_c, 1, 75, 0
4, 90800, Note_on_c, 1, 79, 0
4, 90816, Note_on_c, 1, 75, 81
4, 90816, Note_on_c, 1, 81, 77
4, 90864, Note_on_c, 1, 75, 0
4, 90864, Note_on_c, 1, 81, 0
4, 90960, Note_on_c, 1, 75, 80
4, 90960, Note_on_c, 1, 79, 77
4, 90992, Note_on_c, 1, 75, 0
4, 90992, Note_on_c, 1, 79, 0
4, 91008, Note_on_c, 1, 75, 77
4, 91008, Note_on_c, 1, 81, 83
4, 91056, Note_on_c, 1, 75, 0
4, 91056, Note_on_c, 1, 81, 0
4, 91152, Note_on_c, 1, 75, 87
4, 91152, Note_on_c, 1, 79, 89
4, 91184, Note_on_c, 1, 75, 0
4, 91184, Note_on_c, 1, 79, 0
4, 91200, Note_on_c, 1, 75, 84
4, 91200, Note_on_c, 1, 81, 85
4, 91248, Note_on_c, 1, 75, 0
4, 91248, Note_on_c, 1, 81, 0
4, 91344, Note_on_c, 1, 75, 87
4, 91344, Note_on_c, 1, 79, 91
4, 91376, Note_on_c, 1, 75, 0
4, 91376, Note_on_c, 1, 79, 0
4, 91392, Note_on_c, 1, 75, 91
4, 91392, Note_on_c, 1, 81, 93
4, 91440, Note_on_c, 1, 75, 0
4, 91440, Note_on_c, 1, 81, 0
4, 91536, Note_on_c, 1, 75, 92
4, 91536, Note_on_c, 1, 81, 94
4, 91568, Note_on_c, 1, 75, 0
4, 91568, Note_on_c, 1, 81, 0
4, 91584, Note_on_c, 1, 75, 94
4, 91584, Note_on_c, 1, 81, 98
4, 91632, Note_on_c, 1, 75, 0
4, 91632, Note_on_c, 1, 81, 0
4, 91728, Note_on_c, 1, 75, 107
4, 91728, Note_on_c, 1, 81, 101
4, 91760, Note_on_c, 1, 75, 0
4, 91760, Note_on_c, 1, 81, 0
4, 91776, Note_on_c, 1, 80, 104
4, 91776, Note_on_c, 1, 84, 109
4, 92448, Note_on_c, 1, 80, 0
4, 92448, Note_on_c, 1, 84, 0
4, 92448, Note_on_c, 1, 79, 106
4, 92448, Note_on_c, 1, 83, 111
4, 92544, Note_on_c, 1, 79, 0
4, 92544, Note_on_c, 1, 83, 0
4, 92544, Note_on_c, 1, 78, 108
4, 92544, Note_on_c, 1, 82, 107
4, 93216, Note_on_c, 1, 78, 0
4, 93216, Note_on_c, 1, 82, 0
4, 93216, Note_on_c, 1, 77, 103
4, 93216, Note_on_c, 1, 81, 108
4, 93312, Note_on_c, 1, 77, 0
4, 93312, Note_on_c, 1, 81, 0
4, 93312, Note_on_c, 1, 76, 112
4, 93312, Note_on_c, 1, 80, 110
4, 93600, Note_on_c, 1, 76, 0
4, 93600, Note_on_c, 1, 80, 0
4, 93600, Note_on_c, 1, 75, 113
4, 93600, Note_on_c, 1, 79, 107
4, 93696, Note_on_c, 1, 75, 0
4, 93696, Note_on_c, 1, 79, 0
4, 93696, Note_on_c, 1, 74, 104
4, 93696, Note_on_c, 1, 78, 112
4, 95184, Note_on_c, 1, 74, 0
4, 95184, Note_on_c, 1, 78, 0
4, 112896, Control_c, 1, 11, 64
4, 112896, Note_on_c, 1, 70, 74
4, 112896, Note_on_c, 1, 72, 71
4, 112911, Control_c, 1, 11, 65
4, 112926, Control_c, 1, 11, 66
4, 112941, Control_c, 1, 11, 67
4, 112956, Control_c, 1, 11, 68
4, 112972, Control_c, 1, 11, 69
4, 112987, Control_c, 1, 11, 70
4, 113002, Control_c, 1, 11, 71
4, 113017, Control_c, 1, 11, 72
4, 113033, Control_c, 1, 11, 73
4, 113048, Control_c, 1, 11, 74
4, 113063, Control_c, 1, 11, 75
4, 113078, Control_c, 1, 11, 76
4, 113094, Control_c, 1, 11, 77
4, 113109, Control_c, 1, 11, 78
4, 113124, Control_c, 1, 11, 79
4, 113139, Control_c, 1, 11, 80
4, 113155, Control_c, 1, 11, 81
4, 113170, Control_c, 1, 11, 82
4, 113185, Control_c, 1, 11, 83
4, 113200, Control_c, 1, 11, 84
4, 113216, Control_c, 1, 11, 85
4, 113231, Control_c, 1, 11, 86
4, 113246, Control_c, 1, 11, 87
4, 113261, Control_c, 1, 11, 88
4, 113276, Control_c, 1, 11, 89
4, 113280, Note_on_c, 1, 70, 0
4, 113280, Note_on_c, 1, 72, 0
4, 113280, Note_on_c, 1, 70, 78
4, 113280, Note_on_c, 1, 73, 74
4, 113292, Control_c, 1, 11, 90
4, 113307, Control_c, 1, 11, 91
4, 113322, Control_c, 1, 11, 92
4, 113337, Control_c, 1, 11, 93
4, 113353, Control_c, 1, 11, 94
4, 113368, Control_c, 1, 11, 95
4, 113383, Control_c, 1, 11, 96
4, 113398, Control_c, 1, 11, 97
4, 113408, Note_on_c, 1, 70, 0
4, 113408, Note_on_c, 1, 73, 0
4, 113408, Note_on_c, 1, 75, 74
4, 113408, Note_on_c, 1, 78, 78
4, 113414, Control_c, 1, 11, 98
4, 113429, Control_c, 1, 11, 99
4, 113444, Control_c, 1, 11, 100
4, 113459, Control_c, 1, 11, 101
4, 113475, Control_c, 1, 11, 102
4, 113490, Control_c, 1, 11, 103
4, 113505, Control_c, 1, 11, 104
4, 113520, Control_c, 1, 11, 105
4, 113536, Note_on_c, 1, 75, 0
4, 113536, Note_on_c, 1, 78, 0
4, 113536, Control_c, 1, 11, 106
4, 113536, Note_on_c, 1, 78, 77
4, 113536, Note_on_c, 1, 82, 77
4, 113551, Control_c, 1, 11, 107
4, 113566, Control_c, 1, 11, 108
4, 113581, Control_c, 1, 11, 109
4, 113596, Control_c, 1, 11, 110
4, 113612, Control_c, 1, 11, 111
4, 113627, Control_c, 1, 11, 112
4, 113642, Control_c, 1, 11, 113
4, 113657, Control_c, 1, 11, 114
4, 113664, Note_on_c, 1, 78, 0
4, 113664, Note_on_c, 1, 72, 77
4, 113673, Control_c, 1, 11, 115
4, 113688, Control_c, 1, 11, 116
4, 113703, Control_c, 1, 11, 117
4, 113718, Control_c, 1, 11, 118
4, 113734, Control_c, 1, 11, 119
4, 113749, Control_c, 1, 11, 120
4, 113764, Control_c, 1, 11, 121
4, 113779, Control_c, 1, 11, 122
4, 113795, Control_c, 1, 11, 123
4, 113810, Control_c, 1, 11, 124
4, 113825, Control_c, 1, 11, 125
4, 113840, Control_c, 1, 11, 126
4, 113856, Note_on_c, 1, 82, 0
4, 113856, Note_on_c, 1, 72, 0
4, 113856, Control_c, 1, 11, 127
4, 113856, Note_on_c, 1, 73, 80
4, 113856, Note_on_c, 1, 80, 73
4, 114048, Note_on_c, 1, 73, 0
4, 114048, Note_on_c, 1, 80, 0
4, 114048, Note_on_c, 1, 70, 78
4, 114048, Note_on_c, 1, 78, 78
4, 114176, Note_on_c, 1, 70, 0
4, 114176, Note_on_c, 1, 78, 0
4, 114176, Note_on_c, 1, 68, 70
4, 114176, Note_on_c, 1, 75, 77
4, 114304, Note_on_c, 1, 68, 0
4, 114304, Note_on_c, 1, 75, 0
4, 114304, Note_on_c, 1, 70, 80
4, 114304, Note_on_c, 1, 78, 70
4, 114430, Note_on_c, 1, 70, 0
4, 114430, Note_on_c, 1, 78, 0
4, 114432, Control_c, 1, 11, 127
4, 114432, Note_on_c, 1, 75, 79
4, 114432, Note_on_c, 1, 77, 77
4, 114444, Control_c, 1, 11, 126
4, 114456, Control_c, 1, 11, 125
4, 114468, Control_c, 1, 11, 124
4, 114480, Control_c, 1, 11, 123
4, 114492, Control_c, 1, 11, 122
4, 114505, Control_c, 1, 11, 121
4, 114517, Control_c, 1, 11, 120
4, 114529, Control_c, 1, 11, 119
4, 114541, Control_c, 1, 11, 118
4, 114553, Control_c, 1, 11, 117
4, 114566, Control_c, 1, 11, 116
4, 114578, Control_c, 1, 11, 115
4, 114590, Control_c, 1, 11, 114
4, 114602, Control_c, 1, 11, 113
4, 114614, Control_c, 1, 11, 112
4, 114624, Note_on_c, 1, 75, 0
4, 114624, Note_on_c, 1, 77, 0
4, 114624, Note_on_c, 1, 73, 69
4, 114624, Note_on_c, 1, 78, 65
4, 114627, Control_c, 1, 11, 111
4, 114639, Control_c, 1, 11, 110
4, 114651, Control_c, 1, 11, 109
4, 114663, Control_c, 1, 11, 108
4, 114675, Control_c, 1, 11, 107
4, 114688, Control_c, 1, 11, 106
4, 114700, Control_c, 1, 11, 105
4, 114712, Control_c, 1, 11, 104
4, 114724, Control_c, 1, 11, 103
4, 114736, Control_c, 1, 11, 102
4, 114748, Control_c, 1, 11, 101
4, 114761, Control_c, 1, 11, 100
4, 114773, Control_c, 1, 11, 99
4, 114785, Control_c, 1, 11, 98
4, 114797, Control_c, 1, 11, 97
4, 114809, Control_c, 1, 11, 96
4, 114816, Note_on_c, 1, 73, 0
4, 114816, Note_on_c, 1, 78, 0
4, 114816, Note_on_c, 1, 71, 57
4, 114816, Note_on_c, 1, 75, 53
4, 114822, Control_c, 1, 11, 95
4, 114834, Control_c, 1, 11, 94
4, 114846, Control_c, 1, 11, 93
4, 114858, Control_c, 1, 11, 92
4, 114870, Control_c, 1, 11, 91
4, 114883, Control_c, 1, 11, 90
4, 114895, Control_c, 1, 11, 89
4, 114907, Control_c, 1, 11, 88
4, 114919, Control_c, 1, 11, 87
4, 114931, Control_c, 1, 11, 86
4, 114944, Note_on_c, 1, 71, 0
4, 114944, Note_on_c, 1, 75, 0
4, 114944, Control_c, 1, 11, 85
4, 114944, Note_on_c, 1, 68, 54
4, 114944, Note_on_c, 1, 73, 55
4, 114956, Control_c, 1, 11, 84
4, 114968, Control_c, 1, 11, 83
4, 114980, Control_c, 1, 11, 82
4, 114992, Control_c, 1, 11, 81
4, 115004, Control_c, 1, 11, 80
4, 115017, Control_c, 1, 11, 79
4, 115029, Control_c, 1, 11, 78
4, 115041, Control_c, 1, 11, 77
4, 115053, Control_c, 1, 11, 76
4, 115065, Control_c, 1, 11, 75
4, 115072, Note_on_c, 1, 68, 0
4, 115072, Note_on_c, 1, 73, 0
4, 115072, Note_on_c, 1, 71, 48
4, 115072, Note_on_c, 1, 75, 41
4, 115078, Control_c, 1, 11, 74
4, 115090, Control_c, 1, 11, 73
4, 115102, Control_c, 1, 11, 72
4, 115114, Control_c, 1, 11, 71
4, 115126, Control_c, 1, 11, 70
4, 115139, Control_c, 1, 11, 69
4, 115151, Control_c, 1, 11, 68
4, 115163, Control_c, 1, 11, 67
4, 115175, Control_c, 1, 11, 66
4, 115187, Control_c, 1, 11, 65
4, 115198, Note_on_c, 1, 71, 0
4, 115198, Note_on_c, 1, 75, 0
4, 115200, Control_c, 1, 11, 64
4, 115968, Control_c, 1, 11, 127
4, 122880, Control_c, 1, 11, 92
4, 122880, Note_on_c, 1, 81, 65
4, 123008, Note_on_c, 1, 81, 0
4, 123008, Note_on_c, 1, 81, 55
4, 123136, Note_on_c, 1, 81, 0
4, 123136, Note_on_c, 1, 80, 65
4, 123648, Control_c, 1, 11, 92
4, 123669, Control_c, 1, 11, 93
4, 123691, Control_c, 1, 11, 94
4, 123713, Control_c, 1, 11, 95
4, 123735, Control_c, 1, 11, 96
4, 123757, Control_c, 1, 11, 97
4, 123779, Control_c, 1, 11, 98
4, 123801, Control_c, 1, 11, 99
4, 123823, Control_c, 1, 11, 100
4, 123845, Control_c, 1, 11, 101
4, 123867, Control_c, 1, 11, 102
4, 123889, Control_c, 1, 11, 103
4, 123911, Control_c, 1, 11, 104
4, 123933, Control_c, 1, 11, 105
4, 123955, Control_c, 1, 11, 106
4, 123977, Control_c, 1, 11, 107
4, 123999, Control_c, 1, 11, 108
4, 124021, Control_c, 1, 11, 109
4, 124032, Note_on_c, 1, 80, 0
4, 124032, Note_on_c, 1, 81, 64
4, 124042, Control_c, 1, 11, 110
4, 124064, Control_c, 1, 11, 111
4, 124086, Control_c, 1, 11, 112
4, 124108, Control_c, 1, 11, 113
4, 124130, Control_c, 1, 11, 114
4, 124152, Control_c, 1, 11, 115
4, 124160, Note_on_c, 1, 81, 0
4, 124160, Note_on_c, 1, 81, 55
4, 124174, Control_c, 1, 11, 116
4, 124196, Control_c, 1, 11, 117
4, 124218, Control_c, 1, 11, 118
4, 124240, Control_c, 1, 11, 119
4, 124262, Control_c, 1, 11, 120
4, 124284, Control_c, 1, 11, 121
4, 124288, Note_on_c, 1, 81, 0
4, 124288, Note_on_c, 1, 80, 58
4, 124306, Control_c, 1, 11, 122
4, 124328, Control_c, 1, 11, 123
4, 124350, Control_c, 1, 11, 124
4, 124372, Control_c, 1, 11, 125
4, 124394, Control_c, 1, 11, 126
4, 124414, Note_on_c, 1, 80, 0
4, 124416, Control_c, 1, 11, 127
4, 124416, Control_c, 1, 11, 92
4, 124416, Note_on_c, 1, 82, 55
4, 124544, Note_on_c, 1, 82, 0
4, 124544, Note_on_c, 1, 82, 64
4, 124672, Note_on_c, 1, 82, 0
4, 124672, Note_on_c, 1, 80, 65
4, 125184, Control_c, 1, 11, 92
4, 125205, Control_c, 1, 11, 93
4, 125227, Control_c, 1, 11, 94
4, 125249, Control_c, 1, 11, 95
4, 125271, Control_c, 1, 11, 96
4, 125293, Control_c, 1, 11, 97
4, 125315, Control_c, 1, 11, 98
4, 125337, Control_c, 1, 11, 99
4, 125359, Control_c, 1, 11, 100
4, 125381, Control_c, 1, 11, 101
4, 125403, Control_c, 1, 11, 102
4, 125425, Control_c, 1, 11, 103
4, 125447, Control_c, 1, 11, 104
4, 125469, Control_c, 1, 11, 105
4, 125491, Control_c, 1, 11, 106
4, 125513, Control_c, 1, 11, 107
4, 125535, Control_c, 1, 11, 108
4, 125557, Control_c, 1, 11, 109
4, 125568, Note_on_c, 1, 80, 0
4, 125568, Note_on_c, 1, 82, 65
4, 125578, Control_c, 1, 11, 110
4, 125600, Control_c, 1, 11, 111
4, 125622, Control_c, 1, 11, 112
4, 125644, Control_c, 1, 11, 113
4, 125666, Control_c, 1, 11, 114
4, 125688, Control_c, 1, 11, 115
4, 125696, Note_on_c, 1, 82, 0
4, 125696, Note_on_c, 1, 82, 58
4, 125710, Control_c, 1, 11, 116
4, 125732, Control_c, 1, 11, 117
4, 125754, Control_c, 1, 11, 118
4, 125776, Control_c, 1, 11, 119
4, 125798, Control_c, 1, 11, 120
4, 125820, Control_c, 1, 11, 121
4, 125824, Note_on_c, 1, 82, 0
4, 125824, Note_on_c, 1, 80, 64
4, 125842, Control_c, 1, 11, 122
4, 125864, Control_c, 1, 11, 123
4, 125886, Control_c, 1, 11, 124
4, 125908, Control_c, 1, 11, 125
4, 125930, Control_c, 1, 11, 126
4, 125950, Note_on_c, 1, 80, 0
4, 125952, Control_c, 1, 11, 127
4, 125952, Note_on_c, 1, 83, 63
4, 126020, Note_on_c, 1, 83, 0
4, 126048, Note_on_c, 1, 83, 56
4, 126116, Note_on_c, 1, 83, 0
4, 126144, Note_on_c, 1, 83, 61
4, 126212, Note_on_c, 1, 83, 0
4, 126240, Note_on_c, 1, 82, 64
4, 126308, Note_on_c, 1, 82, 0
4, 126336, Note_on_c, 1, 81, 61
4, 126404, Note_on_c, 1, 81, 0
4, 126432, Note_on_c, 1, 81, 63
4, 126500, Note_on_c, 1, 81, 0
4, 126528, Note_on_c, 1, 81, 71
4, 126596, Note_on_c, 1, 81, 0
4, 126624, Note_on_c, 1, 80, 67
4, 126692, Note_on_c, 1, 80, 0
4, 126720, Note_on_c, 1, 79, 75
4, 126788, Note_on_c, 1, 79, 0
4, 126816, Note_on_c, 1, 79, 80
4, 126884, Note_on_c, 1, 79, 0
4, 126912, Note_on_c, 1, 79, 76
4, 126980, Note_on_c, 1, 79, 0
4, 127008, Note_on_c, 1, 78, 79
4, 127076, Note_on_c, 1, 78, 0
4, 127104, Note_on_c, 1, 77, 88
4, 127172, Note_on_c, 1, 77, 0
4, 127200, Note_on_c, 1, 77, 82
4, 127268, Note_on_c, 1, 77, 0
4, 127296, Note_on_c, 1, 77, 93
4, 127364, Note_on_c, 1, 77, 0
4, 127392, Note_on_c, 1, 76, 91
4, 127460, Note_on_c, 1, 76, 0
4, 127488, Note_on_c, 1, 75, 40
4, 127556, Note_on_c, 1, 75, 0
4, 127584, Note_on_c, 1, 75, 42
4, 127652, Note_on_c, 1, 75, 0
4, 127680, Note_on_c, 1, 75, 61
4, 127748, Note_on_c, 1, 75, 0
4, 127776, Note_on_c, 1, 74, 74
4, 127844, Note_on_c, 1, 74, 0
4, 127872, Note_on_c, 1, 73, 97
4, 127940, Note_on_c, 1, 73, 0
4, 127968, Note_on_c, 1, 73, 94
4, 128036, Note_on_c, 1, 73, 0
4, 128064, Note_on_c, 1, 73, 81
4, 128132, Note_on_c, 1, 73, 0
4, 128160, Note_on_c, 1, 74, 60
4, 128228, Note_on_c, 1, 74, 0
4, 128256, Note_on_c, 1, 75, 48
4, 128324, Note_on_c, 1, 75, 0
4, 128352, Note_on_c, 1, 75, 44
4, 128420, Note_on_c, 1, 75, 0
4, 128448, Note_on_c, 1, 75, 59
4, 128516, Note_on_c, 1, 75, 0
4, 128544, Note_on_c, 1, 74, 79
4, 128612, Note_on_c, 1, 74, 0
4, 128640, Note_on_c, 1, 73, 93
4, 128736, Note_on_c, 1, 73, 0
4, 128736, Note_on_c, 1, 72, 88
4, 128832, Note_on_c, 1, 72, 0
4, 128832, Note_on_c, 1, 71, 73
4, 128928, Note_on_c, 1, 71, 0
4, 128928, Note_on_c, 1, 70, 58
4, 129024, Note_on_c, 1, 70, 0
4, 129024, Note_on_c, 1, 69, 41
4, 129092, Note_on_c, 1, 69, 0
4, 129120, Note_on_c, 1, 69, 41
4, 129188, Note_on_c, 1, 69, 0
4, 129216, Note_on_c, 1, 69, 40
4, 129284, Note_on_c, 1, 69, 0
4, 129312, Note_on_c, 1, 68, 42
4, 129380, Note_on_c, 1, 68, 0
4, 129408, Note_on_c, 1, 67, 35
4, 129476, Note_on_c, 1, 67, 0
4, 129504, Note_on_c, 1, 67, 36
4, 129572, Note_on_c, 1, 67, 0
4, 129600, Note_on_c, 1, 67, 39
4, 129668, Note_on_c, 1, 67, 0
4, 129696, Note_on_c, 1, 68, 34
4, 129764, Note_on_c, 1, 68, 0
4, 129792, Note_on_c, 1, 69, 35
4, 129860, Note_on_c, 1, 69, 0
4, 129888, Note_on_c, 1, 69, 27
4, 129956, Note_on_c, 1, 69, 0
4, 129984, Note_on_c, 1, 69, 33
4, 130052, Note_on_c, 1, 69, 0
4, 130080, Note_on_c, 1, 68, 34
4, 130148, Note_on_c, 1, 68, 0
4, 130176, Note_on_c, 1, 67, 31
4, 130244, Note_on_c, 1, 67, 0
4, 130272, Note_on_c, 1, 67, 35
4, 130340, Note_on_c, 1, 67, 0
4, 130368, Note_on_c, 1, 67, 29
4, 130436, Note_on_c, 1, 67, 0
4, 130464, Note_on_c, 1, 68, 31
4, 130532, Note_on_c, 1, 68, 0
4, 130560, Note_on_c, 1, 65, 30
4, 130628, Note_on_c, 1, 65, 0
4, 130656, Note_on_c, 1, 65, 34
4, 130724, Note_on_c, 1, 65, 0
4, 130752, Note_on_c, 1, 65, 29
4, 130820, Note_on_c, 1, 65, 0
4, 130848, Note_on_c, 1, 64, 25
4, 130916, Note_on_c, 1, 64, 0
4, 130944, Note_on_c, 1, 63, 34
4, 131012, Note_on_c, 1, 63, 0
4, 131040, Note_on_c, 1, 63, 31
4, 131108, Note_on_c, 1, 63, 0
4, 131136, Note_on_c, 1, 63, 32
4, 131204, Note_on_c, 1, 63, 0
4, 131232, Note_on_c, 1, 64, 29
4, 131300, Note_on_c, 1, 64, 0
4, 131328, Note_on_c, 1, 65, 31
4, 131396, Note_on_c, 1, 65, 0
4, 131424, Note_on_c, 1, 65, 30
4, 131492, Note_on_c, 1, 65, 0
4, 131520, Note_on_c, 1, 65, 28
4, 131588, Note_on_c, 1, 65, 0
4, 131616, Note_on_c, 1, 69, 35
4, 131684, Note_on_c, 1, 69, 0
4, 131712, Note_on_c, 1, 65, 32
4, 131780, Note_on_c, 1, 65, 0
4, 131808, Note_on_c, 1, 65, 33
4, 131876, Note_on_c, 1, 65, 0
4, 131904, Note_on_c, 1, 65, 30
4, 131972, Note_on_c, 1, 65, 0
4, 132000, Note_on_c, 1, 69, 34
4, 132032, Note_on_c, 1, 69, 0
4, 132096, Control_c, 1, 11, 92
4, 132096, Note_on_c, 1, 81, 60
4, 132224, Note_on_c, 1, 81, 0
4, 132224, Note_on_c, 1, 81, 60
4, 132352, Note_on_c, 1, 81, 0
4, 132352, Note_on_c, 1, 80, 57
4, 132864, Control_c, 1, 11, 92
4, 132885, Control_c, 1, 11, 93
4, 132907, Control_c, 1, 11, 94
4, 132929, Control_c, 1, 11, 95
4, 132951, Control_c, 1, 11, 96
4, 132973, Control_c, 1, 11, 97
4, 132995, Control_c, 1, 11, 98
4, 133017, Control_c, 1, 11, 99
4, 133039, Control_c, 1, 11, 100
4, 133061, Control_c, 1, 11, 101
4, 133083, Control_c, 1, 11, 102
4, 133105, Control_c, 1, 11, 103
4, 133127, Control_c, 1, 11, 104
4, 133149, Control_c, 1, 11, 105
4, 133171, Control_c, 1, 11, 106
4, 133193, Control_c, 1, 11, 107
4, 133215, Control_c, 1, 11, 108
4, 133237, Control_c, 1, 11, 109
4, 133248, Note_on_c, 1, 80, 0
4, 133248, Note_on_c, 1, 81, 62
4, 133258, Control_c, 1, 11, 110
4, 133280, Control_c, 1, 11, 111
4, 133302, Control_c, 1, 11, 112
4, 133324, Control_c, 1, 11, 113
4, 133346, Control_c, 1, 11, 114
4, 133368, Control_c, 1, 11, 115
4, 133376, Note_on_c, 1, 81, 0
4, 133376, Note_on_c, 1, 81, 60
4, 133390, Control_c, 1, 11, 116
4, 133412, Control_c, 1, 11, 117
4, 133434, Control_c, 1, 11, 118
4, 133456, Control_c, 1, 11, 119
4, 133478, Control_c, 1, 11, 120
4, 133500, Control_c, 1, 11, 121
4, 133504, Note_on_c, 1, 81, 0
4, 133504, Note_on_c, 1, 80, 64
4, 133522, Control_c, 1, 11, 122
4, 133544, Control_c, 1, 11, 123
4, 133566, Control_c, 1, 11, 124
4, 133588, Control_c, 1, 11, 125
4, 133610, Control_c, 1, 11, 126
4, 133630, Note_on_c, 1, 80, 0
4, 133632, Control_c, 1, 11, 127
4, 133632, Control_c, 1, 11, 92
4, 133632, Note_on_c, 1, 82, 64
4, 133760, Note_on_c, 1, 82, 0
4, 133760, Note_on_c, 1, 82, 55
4, 133888, Note_on_c, 1, 82, 0
4, 133888, Note_on_c, 1, 80, 59
4, 134400, Control_c, 1, 11, 92
4, 134421, Control_c, 1, 11, 93
4, 134443, Control_c, 1, 11, 94
4, 134465, Control_c, 1, 11, 95
4, 134487, Control_c, 1, 11, 96
4, 134509, Control_c, 1, 11, 97
4, 134531, Control_c, 1, 11, 98
4, 134553, Control_c, 1, 11, 99
4, 134575, Control_c, 1, 11, 100
4, 134597, Control_c, 1, 11, 101
4, 134619, Control_c, 1, 11, 102
4, 134641, Control_c, 1, 11, 103
4, 134663, Control_c, 1, 11, 104
4, 134685, Control_c, 1, 11, 105
4, 134707, Control_c, 1, 11, 106
4, 134729, Control_c, 1, 11, 107
4, 134751, Control_c, 1, 11, 108
4, 134773, Control_c, 1, 11, 109
4, 134784, Note_on_c, 1, 80, 0
4, 134784, Note_on_c, 1, 82, 62
4, 134794, Control_c, 1, 11, 110
4, 134816, Control_c, 1, 11, 111
4, 134838, Control_c, 1, 11, 112
4, 134860, Control_c, 1, 11, 113
4, 134882, Control_c, 1, 11, 114
4, 134904, Control_c, 1, 11, 115
4, 134912, Note_on_c, 1, 82, 0
4, 134912, Note_on_c, 1, 82, 64
4, 134926, Control_c, 1, 11, 116
4, 134948, Control_c, 1, 11, 117
4, 134970, Control_c, 1, 11, 118
4, 134992, Control_c, 1, 11, 119
4, 135014, Control_c, 1, 11, 120
4, 135036, Control_c, 1, 11, 121
4, 135040, Note_on_c, 1, 82, 0
4, 135040, Note_on_c, 1, 80, 61
4, 135058, Control_c, 1, 11, 122
4, 135080, Control_c, 1, 11, 123
4, 135102, Control_c, 1, 11, 124
4, 135124, Control_c, 1, 11, 125
4, 135146, Control_c, 1, 11, 126
4, 135166, Note_on_c, 1, 80, 0
4, 135168, Control_c, 1, 11, 127
4, 135168, Note_on_c, 1, 83, 65
4, 135236, Note_on_c, 1, 83, 0
4, 135264, Note_on_c, 1, 83, 55
4, 135332, Note_on_c, 1, 83, 0
4, 135360, Note_on_c, 1, 83, 60
4, 135428, Note_on_c, 1, 83, 0
4, 135456, Note_on_c, 1, 82, 64
4, 135524, Note_on_c, 1, 82, 0
4, 135552, Note_on_c, 1, 81, 68
4, 135620, Note_on_c, 1, 81, 0
4, 135648, Note_on_c, 1, 81, 69
4, 135716, Note_on_c, 1, 81, 0
4, 135744, Note_on_c, 1, 81, 75
4, 135812, Note_on_c, 1, 81, 0
4, 135840, Note_on_c, 1, 80, 77
4, 135908, Note_on_c, 1, 80, 0
4, 135936, Note_on_c, 1, 79, 72
4, 136004, Note_on_c, 1, 79, 0
4, 136032, Note_on_c, 1, 79, 75
4, 136100, Note_on_c, 1, 79, 0
4, 136128, Note_on_c, 1, 79, 79
4, 136196, Note_on_c, 1, 79, 0
4, 136224, Note_on_c, 1, 78, 79
4, 136292, Note_on_c, 1, 78, 0
4, 136320, Note_on_c, 1, 77, 88
4, 136388, Note_on_c, 1, 77, 0
4, 136416, Note_on_c, 1, 77, 89
4, 136484, Note_on_c, 1, 77, 0
4, 136512, Note_on_c, 1, 77, 88
4, 136580, Note_on_c, 1, 77, 0
4, 136608, Note_on_c, 1, 76, 87
4, 136676, Note_on_c, 1, 76, 0
4, 136704, Note_on_c, 1, 75, 43
4, 136772, Note_on_c, 1, 75, 0
4, 136800, Note_on_c, 1, 75, 44
4, 136868, Note_on_c, 1, 75, 0
4, 136896, Note_on_c, 1, 75, 58
4, 136964, Note_on_c, 1, 75, 0
4, 136992, Note_on_c, 1, 74, 75
4, 137060, Note_on_c, 1, 74, 0
4, 137088, Note_on_c, 1, 73, 87
4, 137156, Note_on_c, 1, 73, 0
4, 137184, Note_on_c, 1, 73, 88
4, 137252, Note_on_c, 1, 73, 0
4, 137280, Note_on_c, 1, 73, 78
4, 137348, Note_on_c, 1, 73, 0
4, 137376, Note_on_c, 1, 74, 56
4, 137444, Note_on_c, 1, 74, 0
4, 137472, Note_on_c, 1, 75, 41
4, 137540, Note_on_c, 1, 75, 0
4, 137568, Note_on_c, 1, 75, 45
4, 137636, Note_on_c, 1, 75, 0
4, 137664, Note_on_c, 1, 75, 64
4, 137732, Note_on_c, 1, 75, 0
4, 137760, Note_on_c, 1, 74, 75
4, 137828, Note_on_c, 1, 74, 0
4, 137856, Note_on_c, 1, 73, 93
4, 137952, Note_on_c, 1, 73, 0
4, 137952, Note_on_c, 1, 72, 97
4, 138048, Note_on_c, 1, 72, 0
4, 138048, Note_on_c, 1, 71, 87
4, 138144, Note_on_c, 1, 71, 0
4, 138144, Note_on_c, 1, 70, 87
4, 138238, Note_on_c, 1, 70, 0
4, 138240, Note_on_c, 1, 69, 96
4, 138400, Note_on_c, 1, 69, 0
4, 145920, Note_on_c, 1, 74, 45
4, 145988, Note_on_c, 1, 74, 0
4, 146016, Note_on_c, 1, 74, 41
4, 146084, Note_on_c, 1, 74, 0
4, 146112, Note_on_c, 1, 74, 49
4, 146180, Note_on_c, 1, 74, 0
4, 146208, Note_on_c, 1, 73, 47
4, 146276, Note_on_c, 1, 73, 0
4, 146304, Note_on_c, 1, 72, 47
4, 146372, Note_on_c, 1, 72, 0
4, 146400, Note_on_c, 1, 72, 42
4, 146468, Note_on_c, 1, 72, 0
4, 146496, Note_on_c, 1, 72, 49
4, 146564, Note_on_c, 1, 72, 0
4, 146592, Note_on_c, 1, 73, 46
4, 146660, Note_on_c, 1, 73, 0
4, 146688, Note_on_c, 1, 74, 44
4, 146756, Note_on_c, 1, 74, 0
4, 146784, Note_on_c, 1, 74, 41
4, 146852, Note_on_c, 1, 74, 0
4, 146880, Note_on_c, 1, 74, 44
4, 146948, Note_on_c, 1, 74, 0
4, 146976, Note_on_c, 1, 73, 46
4, 147044, Note_on_c, 1, 73, 0
4, 147072, Note_on_c, 1, 72, 47
4, 147140, Note_on_c, 1, 72, 0
4, 147168, Note_on_c, 1, 72, 41
4, 147236, Note_on_c, 1, 72, 0
4, 147264, Note_on_c, 1, 72, 46
4, 147332, Note_on_c, 1, 72, 0
4, 147360, Note_on_c, 1, 76, 42
4, 147428, Note_on_c, 1, 76, 0
4, 147456, Note_on_c, 1, 76, 46
4, 147456, Note_on_c, 1, 83, 44
4, 147524, Note_on_c, 1, 76, 0
4, 147552, Note_on_c, 1, 76, 42
4, 147620, Note_on_c, 1, 76, 0
4, 147648, Note_on_c, 1, 76, 41
4, 147716, Note_on_c, 1, 76, 0
4, 147744, Note_on_c, 1, 74, 43
4, 147792, Note_on_c, 1, 83, 0
4, 147812, Note_on_c, 1, 74, 0
4, 147840, Note_on_c, 1, 76, 41
4, 147840, Note_on_c, 1, 81, 43
4, 147908, Note_on_c, 1, 76, 0
4, 147936, Note_on_c, 1, 76, 50
4, 148004, Note_on_c, 1, 76, 0
4, 148032, Note_on_c, 1, 76, 42
4, 148100, Note_on_c, 1, 76, 0
4, 148128, Note_on_c, 1, 78, 43
4, 148176, Note_on_c, 1, 81, 0
4, 148196, Note_on_c, 1, 78, 0
4, 148224, Note_on_c, 1, 78, 46
4, 148224, Note_on_c, 1, 86, 45
4, 148292, Note_on_c, 1, 78, 0
4, 148320, Note_on_c, 1, 78, 41
4, 148388, Note_on_c, 1, 78, 0
4, 148416, Note_on_c, 1, 78, 44
4, 148484, Note_on_c, 1, 78, 0
4, 148512, Note_on_c, 1, 76, 40
4, 148560, Note_on_c, 1, 86, 0
4, 148580, Note_on_c, 1, 76, 0
4, 148608, Note_on_c, 1, 78, 40
4, 148608, Note_on_c, 1, 84, 41
4, 148676, Note_on_c, 1, 78, 0
4, 148704, Note_on_c, 1, 78, 49
4, 148772, Note_on_c, 1, 78, 0
4, 148800, Note_on_c, 1, 78, 42
4, 148868, Note_on_c, 1, 78, 0
4, 148896, Note_on_c, 1, 79, 43
4, 148928, Note_on_c, 1, 79, 0
4, 148944, Note_on_c, 1, 84, 0
4, 148992, Note_on_c, 1, 79, 78
4, 149060, Note_on_c, 1, 79, 0
4, 149088, Note_on_c, 1, 79, 73
4, 149156, Note_on_c, 1, 79, 0
4, 149184, Note_on_c, 1, 79, 77
4, 149252, Note_on_c, 1, 79, 0
4, 149280, Note_on_c, 1, 78, 72
4, 149348, Note_on_c, 1, 78, 0
4, 149376, Note_on_c, 1, 78, 79
4, 149444, Note_on_c, 1, 78, 0
4, 149472, Note_on_c, 1, 78, 74
4, 149540, Note_on_c, 1, 78, 0
4, 149568, Note_on_c, 1, 78, 79
4, 149636, Note_on_c, 1, 78, 0
4, 149664, Note_on_c, 1, 79, 76
4, 149732, Note_on_c, 1, 79, 0
4, 149760, Note_on_c, 1, 80, 79
4, 149828, Note_on_c, 1, 80, 0
4, 149856, Note_on_c, 1, 80, 76
4, 149924, Note_on_c, 1, 80, 0
4, 149952, Note_on_c, 1, 80, 74
4, 150020, Note_on_c, 1, 80, 0
4, 150048, Note_on_c, 1, 79, 79
4, 150116, Note_on_c, 1, 79, 0
4, 150144, Note_on_c, 1, 79, 78
4, 150212, Note_on_c, 1, 79, 0
4, 150240, Note_on_c, 1, 79, 73
4, 150308, Note_on_c, 1, 79, 0
4, 150336, Note_on_c, 1, 79, 77
4, 150404, Note_on_c, 1, 79, 0
4, 150432, Note_on_c, 1, 80, 73
4, 150464, Note_on_c, 1, 80, 0
4, 150528, Note_on_c, 1, 77, 96
4, 150574, Note_on_c, 1, 77, 0
4, 150576, Note_on_c, 1, 73, 91
4, 150622, Note_on_c, 1, 73, 0
4, 150624, Note_on_c, 1, 77, 91
4, 150670, Note_on_c, 1, 77, 0
4, 150672, Note_on_c, 1, 73, 80
4, 150718, Note_on_c, 1, 73, 0
4, 150720, Note_on_c, 1, 77, 77
4, 150766, Note_on_c, 1, 77, 0
4, 150768, Note_on_c, 1, 73, 74
4, 150814, Note_on_c, 1, 73, 0
4, 150816, Note_on_c, 1, 77, 66
4, 150862, Note_on_c, 1, 77, 0
4, 150864, Note_on_c, 1, 73, 56
4, 150910, Note_on_c, 1, 73, 0
4, 150912, Note_on_c, 1, 77, 96
4, 150958, Note_on_c, 1, 77, 0
4, 150960, Note_on_c, 1, 73, 90
4, 151006, Note_on_c, 1, 73, 0
4, 151008, Note_on_c, 1, 77, 85
4, 151054, Note_on_c, 1, 77, 0
4, 151056, Note_on_c, 1, 73, 83
4, 151102, Note_on_c, 1, 73, 0
4, 151104, Note_on_c, 1, 77, 80
4, 151150, Note_on_c, 1, 77, 0
4, 151152, Note_on_c, 1, 73, 68
4, 151198, Note_on_c, 1, 73, 0
4, 151200, Note_on_c, 1, 77, 70
4, 151246, Note_on_c, 1, 77, 0
4, 151248, Note_on_c, 1, 73, 55
4, 151294, Note_on_c, 1, 73, 0
4, 151296, Note_on_c, 1, 77, 95
4, 151342, Note_on_c, 1, 77, 0
4, 151344, Note_on_c, 1, 73, 88
4, 151390, Note_on_c, 1, 73, 0
4, 151392, Note_on_c, 1, 77, 84
4, 151438, Note_on_c, 1, 77, 0
4, 151440, Note_on_c, 1, 73, 86
4, 151486, Note_on_c, 1, 73, 0
4, 151488, Note_on_c, 1, 77, 82
4, 151534, Note_on_c, 1, 77, 0
4, 151536, Note_on_c, 1, 73, 77
4, 151582, Note_on_c, 1, 73, 0
4, 151584, Note_on_c, 1, 77, 71
4, 151630, Note_on_c, 1, 77, 0
4, 151632, Note_on_c, 1, 73, 55
4, 151678, Note_on_c, 1, 73, 0
4, 151680, Note_on_c, 1, 77, 94
4, 151726, Note_on_c, 1, 77, 0
4, 151728, Note_on_c, 1, 73, 89
4, 151774, Note_on_c, 1, 73, 0
4, 151776, Note_on_c, 1, 77, 88
4, 151822, Note_on_c, 1, 77, 0
4, 151824, Note_on_c, 1, 73, 82
4, 151870, Note_on_c, 1, 73, 0
4, 151872, Note_on_c, 1, 77, 81
4, 151918, Note_on_c, 1, 77, 0
4, 151920, Note_on_c, 1, 73, 72
4, 151966, Note_on_c, 1, 73, 0
4, 151968, Note_on_c, 1, 77, 67
4, 152014, Note_on_c, 1, 77, 0
4, 152016, Note_on_c, 1, 73, 59
4, 152062, Note_on_c, 1, 73, 0
4, 152064, Note_on_c, 1, 77, 93
4, 152110, Note_on_c, 1, 77, 0
4, 152112, Note_on_c, 1, 73, 97
4, 152158, Note_on_c, 1, 73, 0
4, 152160, Note_on_c, 1, 77, 84
4, 152206, Note_on_c, 1, 77, 0
4, 152208, Note_on_c, 1, 73, 84
4, 152254, Note_on_c, 1, 73, 0
4, 152256, Note_on_c, 1, 77, 73
4, 152302, Note_on_c, 1, 77, 0
4, 152304, Note_on_c, 1, 73, 72
4, 152350, Note_on_c, 1, 73, 0
4, 152352, Note_on_c, 1, 77, 66
4, 152398, Note_on_c, 1, 77, 0
4, 152400, Note_on_c, 1, 73, 65
4, 152446, Note_on_c, 1, 73, 0
4, 152448, Note_on_c, 1, 77, 95
4, 152494, Note_on_c, 1, 77, 0
4, 152496, Note_on_c, 1, 73, 89
4, 152542, Note_on_c, 1, 73, 0
4, 152544, Note_on_c, 1, 77, 91
4, 152590, Note_on_c, 1, 77, 0
4, 152592, Note_on_c, 1, 73, 85
4, 152638, Note_on_c, 1, 73, 0
4, 152640, Note_on_c, 1, 77, 82
4, 152686, Note_on_c, 1, 77, 0
4, 152688, Note_on_c, 1, 73, 76
4, 152734, Note_on_c, 1, 73, 0
4, 152736, Note_on_c, 1, 77, 67
4, 152782, Note_on_c, 1, 77, 0
4, 152784, Note_on_c, 1, 73, 56
4, 152830, Note_on_c, 1, 73, 0
4, 152832, Note_on_c, 1, 77, 96
4, 152878, Note_on_c, 1, 77, 0
4, 152880, Note_on_c, 1, 73, 91
4, 152926, Note_on_c, 1, 73, 0
4, 152928, Note_on_c, 1, 77, 87
4, 152974, Note_on_c, 1, 77, 0
4, 152976, Note_on_c, 1, 73, 78
4, 153022, Note_on_c, 1, 73, 0
4, 153024, Note_on_c, 1, 77, 75
4, 153070, Note_on_c, 1, 77, 0
4, 153072, Note_on_c, 1, 73, 75
4, 153118, Note_on_c, 1, 73, 0
4, 153120, Note_on_c, 1, 77, 68
4, 153166, Note_on_c, 1, 77, 0
4, 153168, Note_on_c, 1, 73, 60
4, 153214, Note_on_c, 1, 73, 0
4, 153216, Note_on_c, 1, 77, 93
4, 153262, Note_on_c, 1, 77, 0
4, 153264, Note_on_c, 1, 73, 89
4, 153310, Note_on_c, 1, 73, 0
4, 153312, Note_on_c, 1, 77, 88
4, 153358, Note_on_c, 1, 77, 0
4, 153360, Note_on_c, 1, 73, 77
4, 153406, Note_on_c, 1, 73, 0
4, 153408, Note_on_c, 1, 77, 72
4, 153454, Note_on_c, 1, 77, 0
4, 153456, Note_on_c, 1, 73, 73
4, 153502, Note_on_c, 1, 73, 0
4, 153504, Note_on_c, 1, 77, 67
4, 153550, Note_on_c, 1, 77, 0
4, 153552, Note_on_c, 1, 73, 61
4, 153598, Note_on_c, 1, 73, 0
4, 153792, Note_on_c, 1, 71, 89
4, 153792, Note_on_c, 1, 74, 97
4, 153834, Note_on_c, 1, 71, 0
4, 153834, Note_on_c, 1, 74, 0
4, 153856, Note_on_c, 1, 71, 97
4, 153856, Note_on_c, 1, 74, 95
4, 153898, Note_on_c, 1, 71, 0
4, 153898, Note_on_c, 1, 74, 0
4, 153920, Note_on_c, 1, 71, 97
4, 153920, Note_on_c, 1, 74, 88
4, 153962, Note_on_c, 1, 71, 0
4, 153962, Note_on_c, 1, 74, 0
4, 154176, Note_on_c, 1, 72, 96
4, 154176, Note_on_c, 1, 75, 90
4, 154218, Note_on_c, 1, 72, 0
4, 154218, Note_on_c, 1, 75, 0
4, 154240, Note_on_c, 1, 72, 89
4, 154240, Note_on_c, 1, 75, 90
4, 154282, Note_on_c, 1, 72, 0
4, 154282, Note_on_c, 1, 75, 0
4, 154304, Note_on_c, 1, 72, 94
4, 154304, Note_on_c, 1, 75, 92
4, 154346, Note_on_c, 1, 72, 0
4, 154346, Note_on_c, 1, 75, 0
4, 154560, Note_on_c, 1, 71, 90
4, 154560, Note_on_c, 1, 74, 96
4, 154602, Note_on_c, 1, 71, 0
4, 154602, Note_on_c, 1, 74, 0
4, 154624, Note_on_c, 1, 71, 94
4, 154624, Note_on_c, 1, 74, 93
4, 154666, Note_on_c, 1, 71, 0
4, 154666, Note_on_c, 1, 74, 0
4, 154688, Note_on_c, 1, 71, 98
4, 154688, Note_on_c, 1, 74, 92
4, 154730, Note_on_c, 1, 71, 0
4, 154730, Note_on_c, 1, 74, 0
4, 154944, Note_on_c, 1, 72, 100
4, 154944, Note_on_c, 1, 75, 94
4, 154986, Note_on_c, 1, 72, 0
4, 154986, Note_on_c, 1, 75, 0
4, 155008, Note_on_c, 1, 72, 100
4, 155008, Note_on_c, 1, 75, 92
4, 155050, Note_on_c, 1, 72, 0
4, 155050, Note_on_c, 1, 75, 0
4, 155072, Note_on_c, 1, 72, 92
4, 155072, Note_on_c, 1, 75, 95
4, 155114, Note_on_c, 1, 72, 0
4, 155114, Note_on_c, 1, 75, 0
4, 155328, Note_on_c, 1, 75, 95
4, 155328, Note_on_c, 1, 78, 100
4, 155370, Note_on_c, 1, 75, 0
4, 155370, Note_on_c, 1, 78, 0
4, 155392, Note_on_c, 1, 75, 99
4, 155392, Note_on_c, 1, 78, 91
4, 155434, Note_on_c, 1, 75, 0
4, 155434, Note_on_c, 1, 78, 0
4, 155456, Note_on_c, 1, 75, 91
4, 155456, Note_on_c, 1, 78, 99
4, 155498, Note_on_c, 1, 75, 0
4, 155498, Note_on_c, 1, 78, 0
4, 155712, Note_on_c, 1, 76, 102
4, 155712, Note_on_c, 1, 79, 94
4, 155754, Note_on_c, 1, 76, 0
4, 155754, Note_on_c, 1, 79, 0
4, 155776, Note_on_c, 1, 76, 98
4, 155776, Note_on_c, 1, 79, 102
4, 155818, Note_on_c, 1, 76, 0
4, 155818, Note_on_c, 1, 79, 0
4, 155840, Note_on_c, 1, 76, 101
4, 155840, Note_on_c, 1, 79, 99
4, 155882, Note_on_c, 1, 76, 0
4, 155882, Note_on_c, 1, 79, 0
4, 156096, Note_on_c, 1, 77, 101
4, 156096, Note_on_c, 1, 80, 97
4, 156138, Note_on_c, 1, 77, 0
4, 156138, Note_on_c, 1, 80, 0
4, 156160, Note_on_c, 1, 77, 105
4, 156160, Note_on_c, 1, 80, 104
4, 156202, Note_on_c, 1, 77, 0
4, 156202, Note_on_c, 1, 80, 0
4, 156224, Note_on_c, 1, 77, 102
4, 156224, Note_on_c, 1, 80, 103
4, 156266, Note_on_c, 1, 77, 0
4, 156266, Note_on_c, 1, 80, 0
4, 156480, Note_on_c, 1, 79, 107
4, 156480, Note_on_c, 1, 81, 109
4, 156522, Note_on_c, 1, 79, 0
4, 156522, Note_on_c, 1, 81, 0
4, 156544, Note_on_c, 1, 79, 107
4, 156544, Note_on_c, 1, 81, 104
4, 156586, Note_on_c, 1, 79, 0
4, 156586, Note_on_c, 1, 81, 0
4, 156608, Note_on_c, 1, 79, 112
4, 156608, Note_on_c, 1, 81, 113
4, 156650, Note_on_c, 1, 79, 0
4, 156650, Note_on_c, 1, 81, 0
4, 163584, Control_c, 1, 11, 92
4, 163584, Note_on_c, 1, 80, 92
4, 163584, Note_on_c, 1, 82, 91
4, 163589, Control_c, 1, 11, 93
4, 163594, Control_c, 1, 11, 94
4, 163600, Control_c, 1, 11, 95
4, 163605, Control_c, 1, 11, 96
4, 163611, Control_c, 1, 11, 97
4, 163616, Control_c, 1, 11, 98
4, 163622, Control_c, 1, 11, 99
4, 163627, Control_c, 1, 11, 100
4, 163630, Note_on_c, 1, 80, 0
4, 163630, Note_on_c, 1, 82, 0
4, 163632, Note_on_c, 1, 80, 92
4, 163632, Note_on_c, 1, 82, 95
4, 163633, Control_c, 1, 11, 101
4, 163638, Control_c, 1, 11, 102
4, 163644, Control_c, 1, 11, 103
4, 163649, Control_c, 1, 11, 104
4, 163655, Control_c, 1, 11, 105
4, 163660, Control_c, 1, 11, 106
4, 163666, Control_c, 1, 11, 107
4, 163671, Control_c, 1, 11, 108
4, 163677, Control_c, 1, 11, 109
4, 163682, Control_c, 1, 11, 110
4, 163688, Control_c, 1, 11, 111
4, 163693, Control_c, 1, 11, 112
4, 163699, Control_c, 1, 11, 113
4, 163704, Control_c, 1, 11, 114
4, 163710, Control_c, 1, 11, 115
4, 163715, Control_c, 1, 11, 116
4, 163721, Control_c, 1, 11, 117
4, 163726, Control_c, 1, 11, 118
4, 163732, Control_c, 1, 11, 119
4, 163737, Control_c, 1, 11, 120
4, 163743, Control_c, 1, 11, 121
4, 163748, Control_c, 1, 11, 122
4, 163754, Control_c, 1, 11, 123
4, 163759, Control_c, 1, 11, 124
4, 163765, Control_c, 1, 11, 125
4, 163770, Control_c, 1, 11, 126
4, 163776, Control_c, 1, 11, 127
4, 163779, Control_c, 1, 11, 126
4, 163782, Control_c, 1, 11, 125
4, 163785, Control_c, 1, 11, 124
4, 163788, Control_c, 1, 11, 123
4, 163791, Control_c, 1, 11, 122
4, 163794, Control_c, 1, 11, 121
4, 163797, Control_c, 1, 11, 120
4, 163800, Control_c, 1, 11, 119
4, 163803, Control_c, 1, 11, 118
4, 163806, Control_c, 1, 11, 117
4, 163809, Control_c, 1, 11, 116
4, 163812, Control_c, 1, 11, 115
4, 163815, Control_c, 1, 11, 114
4, 163818, Control_c, 1, 11, 113
4, 163821, Control_c, 1, 11, 112
4, 163824, Control_c, 1, 11, 111
4, 163827, Control_c, 1, 11, 110
4, 163830, Control_c, 1, 11, 109
4, 163833, Control_c, 1, 11, 108
4, 163836, Control_c, 1, 11, 107
4, 163840, Control_c, 1, 11, 106
4, 163843, Control_c, 1, 11, 105
4, 163846, Control_c, 1, 11, 104
4, 163849, Control_c, 1, 11, 103
4, 163852, Control_c, 1, 11, 102
4, 163855, Control_c, 1, 11, 101
4, 163858, Control_c, 1, 11, 100
4, 163861, Control_c, 1, 11, 99
4, 163864, Control_c, 1, 11, 98
4, 163867, Control_c, 1, 11, 97
4, 163870, Control_c, 1, 11, 96
4, 163873, Control_c, 1, 11, 95
4, 163876, Control_c, 1, 11, 94
4, 163879, Control_c, 1, 11, 93
4, 163882, Control_c, 1, 11, 92
4, 163885, Control_c, 1, 11, 91
4, 163888, Control_c, 1, 11, 90
4, 163891, Control_c, 1, 11, 89
4, 163894, Control_c, 1, 11, 88
4, 163897, Control_c, 1, 11, 87
4, 163900, Control_c, 1, 11, 86
4, 163904, Control_c, 1, 11, 85
4, 163907, Control_c, 1, 11, 84
4, 163910, Control_c, 1, 11, 83
4, 163913, Control_c, 1, 11, 82
4, 163916, Control_c, 1, 11, 81
4, 163919, Control_c, 1, 11, 80
4, 163922, Control_c, 1, 11, 79
4, 163925, Control_c, 1, 11, 78
4, 163928, Control_c, 1, 11, 77
4, 163931, Control_c, 1, 11, 76
4, 163934, Control_c, 1, 11, 75
4, 163937, Control_c, 1, 11, 74
4, 163940, Control_c, 1, 11, 73
4, 163943, Control_c, 1, 11, 72
4, 163946, Control_c, 1, 11, 71
4, 163949, Control_c, 1, 11, 70
4, 163952, Control_c, 1, 11, 69
4, 163955, Control_c, 1, 11, 68
4, 163958, Control_c, 1, 11, 67
4, 163961, Control_c, 1, 11, 66
4, 163964, Control_c, 1, 11, 65
4, 163968, Control_c, 1, 11, 64
4, 164112, Note_on_c, 1, 80, 0
4, 164112, Note_on_c, 1, 82, 0
4, 165120, Control_c, 1, 11, 92
4, 165120, Note_on_c, 1, 80, 92
4, 165120, Note_on_c, 1, 82, 90
4, 165125, Control_c, 1, 11, 93
4, 165130, Control_c, 1, 11, 94
4, 165136, Control_c, 1, 11, 95
4, 165141, Control_c, 1, 11, 96
4, 165147, Control_c, 1, 11, 97
4, 165152, Control_c, 1, 11, 98
4, 165158, Control_c, 1, 11, 99
4, 165163, Control_c, 1, 11, 100
4, 165166, Note_on_c, 1, 80, 0
4, 165166, Note_on_c, 1, 82, 0
4, 165168, Note_on_c, 1, 80, 93
4, 165168, Note_on_c, 1, 82, 95
4, 165169, Control_c, 1, 11, 101
4, 165174, Control_c, 1, 11, 102
4, 165180, Control_c, 1, 11, 103
4, 165185, Control_c, 1, 11, 104
4, 165191, Control_c, 1, 11, 105
4, 165196, Control_c, 1, 11, 106
4, 165202, Control_c, 1, 11, 107
4, 165207, Control_c, 1, 11, 108
4, 165213, Control_c, 1, 11, 109
4, 165218, Control_c, 1, 11, 110
4, 165224, Control_c, 1, 11, 111
4, 165229, Control_c, 1, 11, 112
4, 165235, Control_c, 1, 11, 113
4, 165240, Control_c, 1, 11, 114
4, 165246, Control_c, 1, 11, 115
4, 165251, Control_c, 1, 11, 116
4, 165257, Control_c, 1, 11, 117
4, 165262, Control_c, 1, 11, 118
4, 165268, Control_c, 1, 11, 119
4, 165273, Control_c, 1, 11, 120
4, 165279, Control_c, 1, 11, 121
4, 165284, Control_c, 1, 11, 122
4, 165290, Control_c, 1, 11, 123
4, 165295, Control_c, 1, 11, 124
4, 165301, Control_c, 1, 11, 125
4, 165306, Control_c, 1, 11, 126
4, 165312, Control_c, 1, 11, 127
4, 165315, Control_c, 1, 11, 126
4, 165318, Control_c, 1, 11, 125
4, 165321, Control_c, 1, 11, 124
4, 165324, Control_c, 1, 11, 123
4, 165327, Control_c, 1, 11, 122
4, 165330, Control_c, 1, 11, 121
4, 165333, Control_c, 1, 11, 120
4, 165336, Control_c, 1, 11, 119
4, 165339, Control_c, 1, 11, 118
4, 165342, Control_c, 1, 11, 117
4, 165345, Control_c, 1, 11, 116
4, 165348, Control_c, 1, 11, 115
4, 165351, Control_c, 1, 11, 114
4, 165354, Control_c, 1, 11, 113
4, 165357, Control_c, 1, 11, 112
4, 165360, Control_c, 1, 11, 111
4, 165363, Control_c, 1, 11, 110
4, 165366, Control_c, 1, 11, 109
4, 165369, Control_c, 1, 11, 108
4, 165372, Control_c, 1, 11, 107
4, 165376, Control_c, 1, 11, 106
4, 165379, Control_c, 1, 11, 105
4, 165382, Control_c, 1, 11, 104
4, 165385, Control_c, 1, 11, 103
4, 165388, Control_c, 1, 11, 102
4, 165391, Control_c, 1, 11, 101
4, 165394, Control_c, 1, 11, 100
4, 165397, Control_c, 1, 11, 99
4, 165400, Control_c, 1, 11, 98
4, 165403, Control_c, 1, 11, 97
4, 165406, Control_c, 1, 11, 96
4, 165409, Control_c, 1, 11, 95
4, 165412, Control_c, 1, 11, 94
4, 165415, Control_c, 1, 11, 93
4, 165418, Control_c, 1, 11, 92
4, 165421, Control_c, 1, 11, 91
4, 165424, Control_c, 1, 11, 90
4, 165427, Control_c, 1, 11, 89
4, 165430, Control_c, 1, 11, 88
4, 165433, Control_c, 1, 11, 87
4, 165436, Control_c, 1, 11, 86
4, 165440, Control_c, 1, 11, 85
4, 165443, Control_c, 1, 11, 84
4, 165446, Control_c, 1, 11, 83
4, 165449, Control_c, 1, 11, 82
4, 165452, Control_c, 1, 11, 81
4, 165455, Control_c, 1, 11, 80
4, 165458, Control_c, 1, 11, 79
4, 165461, Control_c, 1, 11, 78
4, 165464, Control_c, 1, 11, 77
4, 165467, Control_c, 1, 11, 76
4, 165470, Control_c, 1, 11, 75
4, 165473, Control_c, 1, 11, 74
4, 165476, Control_c, 1, 11, 73
4, 165479, Control_c, 1, 11, 72
4, 165482, Control_c, 1, 11, 71
4, 165485, Control_c, 1, 11, 70
4, 165488, Control_c, 1, 11, 69
4, 165491, Control_c, 1, 11, 68
4, 165494, Control_c, 1, 11, 67
4, 165497, Control_c, 1, 11, 66
4, 165500, Control_c, 1, 11, 65
4, 165504, Control_c, 1, 11, 64
4, 165648, Note_on_c, 1, 80, 0
4, 165648, Note_on_c, 1, 82, 0
4, 168192, Control_c, 1, 11, 92
4, 168192, Note_on_c, 1, 80, 89
4, 168192, Note_on_c, 1, 82, 91
4, 168197, Control_c, 1, 11, 93
4, 168202, Control_c, 1, 11, 94
4, 168208, Control_c, 1, 11, 95
4, 168213, Control_c, 1, 11, 96
4, 168219, Control_c, 1, 11, 97
4, 168224, Control_c, 1, 11, 98
4, 168230, Control_c, 1, 11, 99
4, 168235, Control_c, 1, 11, 100
4, 168238, Note_on_c, 1, 80, 0
4, 168238, Note_on_c, 1, 82, 0
4, 168240, Note_on_c, 1, 80, 90
4, 168240, Note_on_c, 1, 82, 97
4, 168241, Control_c, 1, 11, 101
4, 168246, Control_c, 1, 11, 102
4, 168252, Control_c, 1, 11, 103
4, 168257, Control_c, 1, 11, 104
4, 168263, Control_c, 1, 11, 105
4, 168268, Control_c, 1, 11, 106
4, 168274, Control_c, 1, 11, 107
4, 168279, Control_c, 1, 11, 108
4, 168285, Control_c, 1, 11, 109
4, 168290, Control_c, 1, 11, 110
4, 168296, Control_c, 1, 11, 111
4, 168301, Control_c, 1, 11, 112
4, 168307, Control_c, 1, 11, 113
4, 168312, Control_c, 1, 11, 114
4, 168318, Control_c, 1, 11, 115
4, 168323, Control_c, 1, 11, 116
4, 168329, Control_c, 1, 11, 117
4, 168334, Control_c, 1, 11, 118
4, 168340, Control_c, 1, 11, 119
4, 168345, Control_c, 1, 11, 120
4, 168351, Control_c, 1, 11, 121
4, 168356, Control_c, 1, 11, 122
4, 168362, Control_c, 1, 11, 123
4, 168367, Control_c, 1, 11, 124
4, 168373, Control_c, 1, 11, 125
4, 168378, Control_c, 1, 11, 126
4, 168384, Control_c, 1, 11, 127
4, 168387, Control_c, 1, 11, 126
4, 168390, Control_c, 1, 11, 125
4, 168393, Control_c, 1, 11, 124
4, 168396, Control_c, 1, 11, 123
4, 168399, Control_c, 1, 11, 122
4, 168402, Control_c, 1, 11, 121
4, 168405, Control_c, 1, 11, 120
4, 168408, Control_c, 1, 11, 119
4, 168411, Control_c, 1, 11, 118
4, 168414, Control_c, 1, 11, 117
4, 168417, Control_c, 1, 11, 116
4, 168420, Control_c, 1, 11, 115
4, 168423, Control_c, 1, 11, 114
4, 168426, Control_c, 1, 11, 113
4, 168429, Control_c, 1, 11, 112
4, 168432, Control_c, 1, 11, 111
4, 168435, Control_c, 1, 11, 110
4, 168438, Control_c, 1, 11, 109
4, 168441, Control_c, 1, 11, 108
4, 168444, Control_c, 1, 11, 107
4, 168448, Control_c, 1, 11, 106
4, 168451, Control_c, 1, 11, 105
4, 168454, Control_c, 1, 11, 104
4, 168457, Control_c, 1, 11, 103
4, 168460, Control_c, 1, 11, 102
4, 168463, Control_c, 1, 11, 101
4, 168466, Control_c, 1, 11, 100
4, 168469, Control_c, 1, 11, 99
4, 168472, Control_c, 1, 11, 98
4, 168475, Control_c, 1, 11, 97
4, 168478, Control_c, 1, 11, 96
4, 168481, Control_c, 1, 11, 95
4, 168484, Control_c, 1, 11, 94
4, 168487, Control_c, 1, 11, 93
4, 168490, Control_c, 1, 11, 92
4, 168493, Control_c, 1, 11, 91
4, 168496, Control_c, 1, 11, 90
4, 168499, Control_c, 1, 11, 89
4, 168502, Control_c, 1, 11, 88
4, 168505, Control_c, 1, 11, 87
4, 168508, Control_c, 1, 11, 86
4, 168512, Control_c, 1, 11, 85
4, 168515, Control_c, 1, 11, 84
4, 168518, Control_c, 1, 11, 83
4, 168521, Control_c, 1, 11, 82
4, 168524, Control_c, 1, 11, 81
4, 168527, Control_c, 1, 11, 80
4, 168530, Control_c, 1, 11, 79
4, 168533, Control_c, 1, 11, 78
4, 168536, Control_c, 1, 11, 77
4, 168539, Control_c, 1, 11, 76
4, 168542, Control_c, 1, 11, 75
4, 168545, Control_c, 1, 11, 74
4, 168548, Control_c, 1, 11, 73
4, 168551, Control_c, 1, 11, 72
4, 168554, Control_c, 1, 11, 71
4, 168557, Control_c, 1, 11, 70
4, 168560, Control_c, 1, 11, 69
4, 168563, Control_c, 1, 11, 68
4, 168566, Control_c, 1, 11, 67
4, 168569, Control_c, 1, 11, 66
4, 168572, Control_c, 1, 11, 65
4, 168576, Control_c, 1, 11, 64
4, 168720, Note_on_c, 1, 80, 0
4, 168720, Note_on_c, 1, 82, 0
4, 169728, Control_c, 1, 11, 127
4, 173568, Control_c, 1, 11, 75
4, 173568, Note_on_c, 1, 73, 77
4, 173575, Control_c, 1, 11, 76
4, 173582, Control_c, 1, 11, 77
4, 173590, Control_c, 1, 11, 78
4, 173597, Control_c, 1, 11, 79
4, 173604, Control_c, 1, 11, 80
4, 173612, Control_c, 1, 11, 81
4, 173619, Control_c, 1, 11, 82
4, 173627, Control_c, 1, 11, 83
4, 173634, Control_c, 1, 11, 84
4, 173641, Control_c, 1, 11, 85
4, 173649, Control_c, 1, 11, 86
4, 173656, Control_c, 1, 11, 87
4, 173664, Control_c, 1, 11, 88
4, 173671, Control_c, 1, 11, 89
4, 173678, Control_c, 1, 11, 90
4, 173686, Control_c, 1, 11, 91
4, 173693, Control_c, 1, 11, 92
4, 173700, Control_c, 1, 11, 93
4, 173708, Control_c, 1, 11, 94
4, 173715, Control_c, 1, 11, 95
4, 173723, Control_c, 1, 11, 96
4, 173730, Control_c, 1, 11, 97
4, 173737, Control_c, 1, 11, 98
4, 173745, Control_c, 1, 11, 99
4, 173752, Control_c, 1, 11, 100
4, 173760, Note_on_c, 1, 73, 0
4, 173760, Control_c, 1, 11, 101
4, 173760, Note_on_c, 1, 75, 78
4, 173767, Control_c, 1, 11, 102
4, 173774, Control_c, 1, 11, 103
4, 173782, Control_c, 1, 11, 104
4, 173789, Control_c, 1, 11, 105
4, 173796, Control_c, 1, 11, 106
4, 173804, Control_c, 1, 11, 107
4, 173811, Control_c, 1, 11, 108
4, 173819, Control_c, 1, 11, 109
4, 173826, Control_c, 1, 11, 110
4, 173833, Control_c, 1, 11, 111
4, 173841, Control_c, 1, 11, 112
4, 173848, Control_c, 1, 11, 113
4, 173856, Control_c, 1, 11, 114
4, 173863, Control_c, 1, 11, 115
4, 173870, Control_c, 1, 11, 116
4, 173878, Control_c, 1, 11, 117
4, 173885, Control_c, 1, 11, 118
4, 173892, Control_c, 1, 11, 119
4, 173900, Control_c, 1, 11, 120
4, 173907, Control_c, 1, 11, 121
4, 173915, Control_c, 1, 11, 122
4, 173922, Control_c, 1, 11, 123
4, 173929, Control_c, 1, 11, 124
4, 173937, Control_c, 1, 11, 125
4, 173944, Control_c, 1, 11, 126
4, 173952, Note_on_c, 1, 75, 0
4, 173952, Control_c, 1, 11, 127
4, 173952, Note_on_c, 1, 78, 71
4, 174464, Note_on_c, 1, 78, 0
4, 174464, Note_on_c, 1, 76, 76
4, 174592, Note_on_c, 1, 76, 0
4, 174592, Note_on_c, 1, 75, 76
4, 174720, Note_on_c, 1, 75, 0
4, 174720, Note_on_c, 1, 73, 70
4, 174912, Note_on_c, 1, 73, 0
4, 174912, Note_on_c, 1, 71, 75
4, 175104, Note_on_c, 1, 71, 0
4, 175104, Note_on_c, 1, 69, 73
4, 175264, Note_on_c, 1, 69, 0
4, 175296, Control_c, 1, 11, 92
4, 175296, Note_on_c, 1, 73, 78
4, 175312, Control_c, 1, 11, 93
4, 175328, Control_c, 1, 11, 94
4, 175345, Control_c, 1, 11, 95
4, 175361, Control_c, 1, 11, 96
4, 175378, Control_c, 1, 11, 97
4, 175394, Control_c, 1, 11, 98
4, 175411, Control_c, 1, 11, 99
4, 175427, Control_c, 1, 11, 100
4, 175444, Control_c, 1, 11, 101
4, 175460, Control_c, 1, 11, 102
4, 175477, Control_c, 1, 11, 103
4, 175493, Control_c, 1, 11, 104
4, 175509, Control_c, 1, 11, 105
4, 175526, Control_c, 1, 11, 106
4, 175542, Control_c, 1, 11, 107
4, 175559, Control_c, 1, 11, 108
4, 175575, Control_c, 1, 11, 109
4, 175592, Control_c, 1, 11, 110
4, 175608, Control_c, 1, 11, 111
4, 175625, Control_c, 1, 11, 112
4, 175641, Control_c, 1, 11, 113
4, 175658, Control_c, 1, 11, 114
4, 175674, Control_c, 1, 11, 115
4, 175680, Note_on_c, 1, 73, 0
4, 175680, Note_on_c, 1, 75, 70
4, 175690, Control_c, 1, 11, 116
4, 175707, Control_c, 1, 11, 117
4, 175723, Control_c, 1, 11, 118
4, 175740, Control_c, 1, 11, 119
4, 175756, Control_c, 1, 11, 120
4, 175773, Control_c, 1, 11, 121
4, 175789, Control_c, 1, 11, 122
4, 175806, Control_c, 1, 11, 123
4, 175822, Control_c, 1, 11, 124
4, 175839, Control_c, 1, 11, 125
4, 175855, Control_c, 1, 11, 126
4, 175872, Note_on_c, 1, 75, 0
4, 175872, Control_c, 1, 11, 127
4, 175872, Note_on_c, 1, 78, 71
4, 176000, Note_on_c, 1, 78, 0
4, 176000, Note_on_c, 1, 76, 78
4, 176128, Note_on_c, 1, 76, 0
4, 176128, Note_on_c, 1, 75, 75
4, 176256, Note_on_c, 1, 75, 0
4, 176256, Control_c, 1, 11, 127
4, 176256, Note_on_c, 1, 73, 76
4, 176263, Control_c, 1, 11, 126
4, 176270, Control_c, 1, 11, 125
4, 176278, Control_c, 1, 11, 124
4, 176285, Control_c, 1, 11, 123
4, 176292, Control_c, 1, 11, 122
4, 176300, Control_c, 1, 11, 121
4, 176307, Control_c, 1, 11, 120
4, 176315, Control_c, 1, 11, 119
4, 176322, Control_c, 1, 11, 118
4, 176329, Control_c, 1, 11, 117
4, 176337, Control_c, 1, 11, 116
4, 176344, Control_c, 1, 11, 115
4, 176352, Control_c, 1, 11, 114
4, 176359, Control_c, 1, 11, 113
4, 176366, Control_c, 1, 11, 112
4, 176374, Control_c, 1, 11, 111
4, 176381, Control_c, 1, 11, 110
4, 176388, Control_c, 1, 11, 109
4, 176396, Control_c, 1, 11, 108
4, 176403, Control_c, 1, 11, 107
4, 176411, Control_c, 1, 11, 106
4, 176418, Control_c, 1, 11, 105
4, 176425, Control_c, 1, 11, 104
4, 176433, Control_c, 1, 11, 103
4, 176440, Control_c, 1, 11, 102
4, 176448, Control_c, 1, 11, 101
4, 176455, Control_c, 1, 11, 100
4, 176462, Control_c, 1, 11, 99
4, 176470, Control_c, 1, 11, 98
4, 176477, Control_c, 1, 11, 97
4, 176484, Control_c, 1, 11, 96
4, 176492, Control_c, 1, 11, 95
4, 176499, Control_c, 1, 11, 94
4, 176507, Control_c, 1, 11, 93
4, 176514, Control_c, 1, 11, 92
4, 176521, Control_c, 1, 11, 91
4, 176529, Control_c, 1, 11, 90
4, 176536, Control_c, 1, 11, 89
4, 176544, Control_c, 1, 11, 88
4, 176551, Control_c, 1, 11, 87
4, 176558, Control_c, 1, 11, 86
4, 176566, Control_c, 1, 11, 85
4, 176573, Control_c, 1, 11, 84
4, 176580, Control_c, 1, 11, 83
4, 176588, Control_c, 1, 11, 82
4, 176595, Control_c, 1, 11, 81
4, 176603, Control_c, 1, 11, 80
4, 176610, Control_c, 1, 11, 79
4, 176617, Control_c, 1, 11, 78
4, 176625, Control_c, 1, 11, 77
4, 176632, Control_c, 1, 11, 76
4, 176640, Control_c, 1, 11, 75
4, 176976, Note_on_c, 1, 73, 0
4, 180480, Note_on_c, 1, 73, 71
4, 180606, Note_on_c, 1, 73, 0
4, 180608, Note_on_c, 1, 73, 72
4, 180650, Note_on_c, 1, 73, 0
4, 180672, Note_on_c, 1, 72, 73
4, 180714, Note_on_c, 1, 72, 0
4, 180736, Note_on_c, 1, 71, 74
4, 180778, Note_on_c, 1, 71, 0
4, 180800, Note_on_c, 1, 70, 81
4, 180842, Note_on_c, 1, 70, 0
4, 180864, Note_on_c, 1, 73, 78
4, 180990, Note_on_c, 1, 73, 0
4, 180992, Note_on_c, 1, 73, 78
4, 181034, Note_on_c, 1, 73, 0
4, 181056, Note_on_c, 1, 72, 82
4, 181098, Note_on_c, 1, 72, 0
4, 181120, Note_on_c, 1, 71, 82
4, 181162, Note_on_c, 1, 71, 0
4, 181184, Note_on_c, 1, 70, 87
4, 181226, Note_on_c, 1, 70, 0
4, 181248, Note_on_c, 1, 73, 80
4, 181374, Note_on_c, 1, 73, 0
4, 181376, Note_on_c, 1, 73, 85
4, 181418, Note_on_c, 1, 73, 0
4, 181440, Note_on_c, 1, 72, 84
4, 181482, Note_on_c, 1, 72, 0
4, 181504, Note_on_c, 1, 71, 89
4, 181546, Note_on_c, 1, 71, 0
4, 181568, Note_on_c, 1, 70, 90
4, 181610, Note_on_c, 1, 70, 0
4, 181632, Note_on_c, 1, 73, 94
4, 181758, Note_on_c, 1, 73, 0
4, 181760, Note_on_c, 1, 73, 88
4, 181802, Note_on_c, 1, 73, 0
4, 181824, Note_on_c, 1, 72, 95
4, 181866, Note_on_c, 1, 72, 0
4, 181888, Note_on_c, 1, 71, 93
4, 181930, Note_on_c, 1, 71, 0
4, 181952, Note_on_c, 1, 70, 97
4, 181994, Note_on_c, 1, 70, 0
4, 182016, Note_on_c, 1, 73, 96
4, 182142, Note_on_c, 1, 73, 0
4, 182144, Note_on_c, 1, 73, 100
4, 182186, Note_on_c, 1, 73, 0
4, 182208, Note_on_c, 1, 72, 102
4, 182250, Note_on_c, 1, 72, 0
4, 182272, Note_on_c, 1, 71, 100
4, 182314, Note_on_c, 1, 71, 0
4, 182336, Note_on_c, 1, 70, 104
4, 182378, Note_on_c, 1, 70, 0
4, 182400, Note_on_c, 1, 73, 96
4, 182526, Note_on_c, 1, 73, 0
4, 182528, Note_on_c, 1, 73, 106
4, 182570, Note_on_c, 1, 73, 0
4, 182592, Note_on_c, 1, 72, 99
4, 182634, Note_on_c, 1, 72, 0
4, 182656, Note_on_c, 1, 71, 105
4, 182698, Note_on_c, 1, 71, 0
4, 182720, Note_on_c, 1, 70, 102
4, 182762, Note_on_c, 1, 70, 0
4, 182784, Control_c, 1, 11, 92
4, 182784, Note_on_c, 1, 77, 110
4, 182789, Control_c, 1, 11, 93
4, 182794, Control_c, 1, 11, 94
4, 182800, Control_c, 1, 11, 95
4, 182805, Control_c, 1, 11, 96
4, 182811, Control_c, 1, 11, 97
4, 182816, Control_c, 1, 11, 98
4, 182822, Control_c, 1, 11, 99
4, 182827, Control_c, 1, 11, 100
4, 182832, Note_on_c, 1, 77, 0
4, 182832, Note_on_c, 1, 76, 106
4, 182833, Control_c, 1, 11, 101
4, 182838, Control_c, 1, 11, 102
4, 182844, Control_c, 1, 11, 103
4, 182849, Control_c, 1, 11, 104
4, 182855, Control_c, 1, 11, 105
4, 182860, Control_c, 1, 11, 106
4, 182866, Control_c, 1, 11, 107
4, 182871, Control_c, 1, 11, 108
4, 182877, Control_c, 1, 11, 109
4, 182882, Control_c, 1, 11, 110
4, 182888, Control_c, 1, 11, 111
4, 182893, Control_c, 1, 11, 112
4, 182899, Control_c, 1, 11, 113
4, 182904, Control_c, 1, 11, 114
4, 182910, Control_c, 1, 11, 115
4, 182915, Control_c, 1, 11, 116
4, 182921, Control_c, 1, 11, 117
4, 182926, Control_c, 1, 11, 118
4, 182932, Control_c, 1, 11, 119
4, 182937, Control_c, 1, 11, 120
4, 182943, Control_c, 1, 11, 121
4, 182948, Control_c, 1, 11, 122
4, 182954, Control_c, 1, 11, 123
4, 182959, Control_c, 1, 11, 124
4, 182965, Control_c, 1, 11, 125
4, 182970, Control_c, 1, 11, 126
4, 182976, Control_c, 1, 11, 127
4, 183552, Control_c, 1, 11, 92
4, 183573, Control_c, 1, 11, 93
4, 183595, Control_c, 1, 11, 94
4, 183617, Control_c, 1, 11, 95
4, 183639, Control_c, 1, 11, 96
4, 183661, Control_c, 1, 11, 97
4, 183683, Control_c, 1, 11, 98
4, 183705, Control_c, 1, 11, 99
4, 183727, Control_c, 1, 11, 100
4, 183749, Control_c, 1, 11, 101
4, 183771, Control_c, 1, 11, 102
4, 183793, Control_c, 1, 11, 103
4, 183815, Control_c, 1, 11, 104
4, 183837, Control_c, 1, 11, 105
4, 183859, Control_c, 1, 11, 106
4, 183881, Control_c, 1, 11, 107
4, 183903, Control_c, 1, 11, 108
4, 183925, Control_c, 1, 11, 109
4, 183936, Note_on_c, 1, 76, 0
4, 183936, Note_on_c, 1, 77, 107
4, 183946, Control_c, 1, 11, 110
4, 183968, Control_c, 1, 11, 111
4, 183990, Control_c, 1, 11, 112
4, 184012, Control_c, 1, 11, 113
4, 184034, Control_c, 1, 11, 114
4, 184056, Control_c, 1, 11, 115
4, 184078, Control_c, 1, 11, 116
4, 184100, Control_c, 1, 11, 117
4, 184122, Control_c, 1, 11, 118
4, 184144, Control_c, 1, 11, 119
4, 184166, Control_c, 1, 11, 120
4, 184188, Control_c, 1, 11, 121
4, 184210, Control_c, 1, 11, 122
4, 184232, Control_c, 1, 11, 123
4, 184254, Control_c, 1, 11, 124
4, 184272, Note_on_c, 1, 77, 0
4, 184276, Control_c, 1, 11, 125
4, 184298, Control_c, 1, 11, 126
4, 184320, Control_c, 1, 11, 127
4, 184320, Control_c, 1, 11, 92
4, 184320, Note_on_c, 1, 77, 109
4, 184325, Control_c, 1, 11, 93
4, 184330, Control_c, 1, 11, 94
4, 184336, Control_c, 1, 11, 95
4, 184341, Control_c, 1, 11, 96
4, 184347, Control_c, 1, 11, 97
4, 184352, Control_c, 1, 11, 98
4, 184358, Control_c, 1, 11, 99
4, 184363, Control_c, 1, 11, 100
4, 184368, Note_on_c, 1, 77, 0
4, 184368, Note_on_c, 1, 76, 108
4, 184369, Control_c, 1, 11, 101
4, 184374, Control_c, 1, 11, 102
4, 184380, Control_c, 1, 11, 103
4, 184385, Control_c, 1, 11, 104
4, 184391, Control_c, 1, 11, 105
4, 184396, Control_c, 1, 11, 106
4, 184402, Control_c, 1, 11, 107
4, 184407, Control_c, 1, 11, 108
4, 184413, Control_c, 1, 11, 109
4, 184418, Control_c, 1, 11, 110
4, 184424, Control_c, 1, 11, 111
4, 184429, Control_c, 1, 11, 112
4, 184435, Control_c, 1, 11, 113
4, 184440, Control_c, 1, 11, 114
4, 184446, Control_c, 1, 11, 115
4, 184451, Control_c, 1, 11, 116
4, 184457, Control_c, 1, 11, 117
4, 184462, Control_c, 1, 11, 118
4, 184468, Control_c, 1, 11, 119
4, 184473, Control_c, 1, 11, 120
4, 184479, Control_c, 1, 11, 121
4, 184484, Control_c, 1, 11, 122
4, 184490, Control_c, 1, 11, 123
4, 184495, Control_c, 1, 11, 124
4, 184501, Control_c, 1, 11, 125
4, 184506, Control_c, 1, 11, 126
4, 184512, Control_c, 1, 11, 127
4, 185088, Control_c, 1, 11, 92
4, 185109, Control_c, 1, 11, 93
4, 185131, Control_c, 1, 11, 94
4, 185153, Control_c, 1, 11, 95
4, 185175, Control_c, 1, 11, 96
4, 185197, Control_c, 1, 11, 97
4, 185219, Control_c, 1, 11, 98
4, 185241, Control_c, 1, 11, 99
4, 185263, Control_c, 1, 11, 100
4, 185285, Control_c, 1, 11, 101
4, 185307, Control_c, 1, 11, 102
4, 185329, Control_c, 1, 11, 103
4, 185351, Control_c, 1, 11, 104
4, 185373, Control_c, 1, 11, 105
4, 185395, Control_c, 1, 11, 106
4, 185417, Control_c, 1, 11, 107
4, 185439, Control_c, 1, 11, 108
4, 185461, Control_c, 1, 11, 109
4, 185472, Note_on_c, 1, 76, 0
4, 185472, Note_on_c, 1, 77, 107
4, 185482, Control_c, 1, 11, 110
4, 185504, Control_c, 1, 11, 111
4, 185526, Control_c, 1, 11, 112
4, 185548, Control_c, 1, 11, 113
4, 185570, Control_c, 1, 11, 114
4, 185592, Control_c, 1, 11, 115
4, 185614, Control_c, 1, 11, 116
4, 185636, Control_c, 1, 11, 117
4, 185658, Control_c, 1, 11, 118
4, 185664, Note_on_c, 1, 77, 0
4, 185664, Note_on_c, 1, 80, 113
4, 185680, Control_c, 1, 11, 119
4, 185702, Control_c, 1, 11, 120
4, 185724, Control_c, 1, 11, 121
4, 185746, Control_c, 1, 11, 122
4, 185768, Control_c, 1, 11, 123
4, 185790, Control_c, 1, 11, 124
4, 185812, Control_c, 1, 11, 125
4, 185824, Note_on_c, 1, 80, 0
4, 185834, Control_c, 1, 11, 126
4, 185856, Control_c, 1, 11, 127
4, 185856, Control_c, 1, 11, 92
4, 185856, Note_on_c, 1, 77, 113
4, 185861, Control_c, 1, 11, 93
4, 185866, Control_c, 1, 11, 94
4, 185872, Control_c, 1, 11, 95
4, 185877, Control_c, 1, 11, 96
4, 185883, Control_c, 1, 11, 97
4, 185888, Control_c, 1, 11, 98
4, 185894, Control_c, 1, 11, 99
4, 185899, Control_c, 1, 11, 100
4, 185904, Note_on_c, 1, 77, 0
4, 185904, Note_on_c, 1, 76, 112
4, 185905, Control_c, 1, 11, 101
4, 185910, Control_c, 1, 11, 102
4, 185916, Control_c, 1, 11, 103
4, 185921, Control_c, 1, 11, 104
4, 185927, Control_c, 1, 11, 105
4, 185932, Control_c, 1, 11, 106
4, 185938, Control_c, 1, 11, 107
4, 185943, Control_c, 1, 11, 108
4, 185949, Control_c, 1, 11, 109
4, 185954, Control_c, 1, 11, 110
4, 185960, Control_c, 1, 11, 111
4, 185965, Control_c, 1, 11, 112
4, 185971, Control_c, 1, 11, 113
4, 185976, Control_c, 1, 11, 114
4, 185982, Control_c, 1, 11, 115
4, 185987, Control_c, 1, 11, 116
4, 185993, Control_c, 1, 11, 117
4, 185998, Control_c, 1, 11, 118
4, 186004, Control_c, 1, 11, 119
4, 186009, Control_c, 1, 11, 120
4, 186015, Control_c, 1, 11, 121
4, 186020, Control_c, 1, 11, 122
4, 186026, Control_c, 1, 11, 123
4, 186031, Control_c, 1, 11, 124
4, 186037, Control_c, 1, 11, 125
4, 186042, Control_c, 1, 11, 126
4, 186048, Control_c, 1, 11, 127
4, 186624, Control_c, 1, 11, 92
4, 186645, Control_c, 1, 11, 93
4, 186667, Control_c, 1, 11, 94
4, 186689, Control_c, 1, 11, 95
4, 186711, Control_c, 1, 11, 96
4, 186733, Control_c, 1, 11, 97
4, 186755, Control_c, 1, 11, 98
4, 186777, Control_c, 1, 11, 99
4, 186799, Control_c, 1, 11, 100
4, 186821, Control_c, 1, 11, 101
4, 186843, Control_c, 1, 11, 102
4, 186865, Control_c, 1, 11, 103
4, 186887, Control_c, 1, 11, 104
4, 186909, Control_c, 1, 11, 105
4, 186931, Control_c, 1, 11, 106
4, 186953, Control_c, 1, 11, 107
4, 186975, Control_c, 1, 11, 108
4, 186997, Control_c, 1, 11, 109
4, 187008, Note_on_c, 1, 76, 0
4, 187008, Note_on_c, 1, 77, 111
4, 187018, Control_c, 1, 11, 110
4, 187040, Control_c, 1, 11, 111
4, 187062, Control_c, 1, 11, 112
4, 187084, Control_c, 1, 11, 113
4, 187106, Control_c, 1, 11, 114
4, 187128, Control_c, 1, 11, 115
4, 187150, Control_c, 1, 11, 116
4, 187172, Control_c, 1, 11, 117
4, 187194, Control_c, 1, 11, 118
4, 187216, Control_c, 1, 11, 119
4, 187238, Control_c, 1, 11, 120
4, 187260, Control_c, 1, 11, 121
4, 187282, Control_c, 1, 11, 122
4, 187304, Control_c, 1, 11, 123
4, 187326, Control_c, 1, 11, 124
4, 187344, Note_on_c, 1, 77, 0
4, 187348, Control_c, 1, 11, 125
4, 187370, Control_c, 1, 11, 126
4, 187392, Control_c, 1, 11, 127
4, 187392, Control_c, 1, 11, 92
4, 187392, Note_on_c, 1, 77, 110
4, 187397, Control_c, 1, 11, 93
4, 187402, Control_c, 1, 11, 94
4, 187408, Control_c, 1, 11, 95
4, 187413, Control_c, 1, 11, 96
4, 187419, Control_c, 1, 11, 97
4, 187424, Control_c, 1, 11, 98
4, 187430, Control_c, 1, 11, 99
4, 187435, Control_c, 1, 11, 100
4, 187440, Note_on_c, 1, 77, 0
4, 187440, Note_on_c, 1, 76, 107
4, 187441, Control_c, 1, 11, 101
4, 187446, Control_c, 1, 11, 102
4, 187452, Control_c, 1, 11, 103
4, 187457, Control_c, 1, 11, 104
4, 187463, Control_c, 1, 11, 105
4, 187468, Control_c, 1, 11, 106
4, 187474, Control_c, 1, 11, 107
4, 187479, Control_c, 1, 11, 108
4, 187485, Control_c, 1, 11, 109
4, 187490, Control_c, 1, 11, 110
4, 187496, Control_c, 1, 11, 111
4, 187501, Control_c, 1, 11, 112
4, 187507, Control_c, 1, 11, 113
4, 187512, Control_c, 1, 11, 114
4, 187518, Control_c, 1, 11, 115
4, 187523, Control_c, 1, 11, 116
4, 187529, Control_c, 1, 11, 117
4, 187534, Control_c, 1, 11, 118
4, 187540, Control_c, 1, 11, 119
4, 187545, Control_c, 1, 11, 120
4, 187551, Control_c, 1, 11, 121
4, 187556, Control_c, 1, 11, 122
4, 187562, Control_c, 1, 11, 123
4, 187567, Control_c, 1, 11, 124
4, 187573, Control_c, 1, 11, 125
4, 187578, Control_c, 1, 11, 126
4, 187584, Control_c, 1, 11, 127
4, 188160, Control_c, 1, 11, 92
4, 188181, Control_c, 1, 11, 93
4, 188203, Control_c, 1, 11, 94
4, 188225, Control_c, 1, 11, 95
4, 188247, Control_c, 1, 11, 96
4, 188269, Control_c, 1, 11, 97
4, 188291, Control_c, 1, 11, 98
4, 188313, Control_c, 1, 11, 99
4, 188335, Control_c, 1, 11, 100
4, 188357, Control_c, 1, 11, 101
4, 188379, Control_c, 1, 11, 102
4, 188401, Control_c, 1, 11, 103
4, 188423, Control_c, 1, 11, 104
4, 188445, Control_c, 1, 11, 105
4, 188467, Control_c, 1, 11, 106
4, 188489, Control_c, 1, 11, 107
4, 188511, Control_c, 1, 11, 108
4, 188533, Control_c, 1, 11, 109
4, 188544, Note_on_c, 1, 76, 0
4, 188544, Note_on_c, 1, 77, 109
4, 188554, Control_c, 1, 11, 110
4, 188576, Control_c, 1, 11, 111
4, 188598, Control_c, 1, 11, 112
4, 188620, Control_c, 1, 11, 113
4, 188642, Control_c, 1, 11, 114
4, 188664, Control_c, 1, 11, 115
4, 188686, Control_c, 1, 11, 116
4, 188708, Control_c, 1, 11, 117
4, 188730, Control_c, 1, 11, 118
4, 188736, Note_on_c, 1, 77, 0
4, 188736, Note_on_c, 1, 80, 108
4, 188752, Control_c, 1, 11, 119
4, 188774, Control_c, 1, 11, 120
4, 188796, Control_c, 1, 11, 121
4, 188818, Control_c, 1, 11, 122
4, 188840, Control_c, 1, 11, 123
4, 188862, Control_c, 1, 11, 124
4, 188884, Control_c, 1, 11, 125
4, 188896, Note_on_c, 1, 80, 0
4, 188906, Control_c, 1, 11, 126
4, 188928, Control_c, 1, 11, 127
4, 188928, Control_c, 1, 11, 75
4, 188928, Note_on_c, 1, 81, 77
4, 189056, Note_on_c, 1, 81, 0
4, 189056, Note_on_c, 1, 81, 72
4, 189184, Note_on_c, 1, 81, 0
4, 189184, Note_on_c, 1, 80, 76
4, 189312, Note_on_c, 1, 80, 0
4, 189312, Note_on_c, 1, 80, 76
4, 189696, Control_c, 1, 11, 75
4, 189703, Control_c, 1, 11, 76
4, 189710, Control_c, 1, 11, 77
4, 189718, Control_c, 1, 11, 78
4, 189725, Control_c, 1, 11, 79
4, 189732, Control_c, 1, 11, 80
4, 189740, Control_c, 1, 11, 81
4, 189747, Control_c, 1, 11, 82
4, 189755, Control_c, 1, 11, 83
4, 189762, Control_c, 1, 11, 84
4, 189769, Control_c, 1, 11, 85
4, 189777, Control_c, 1, 11, 86
4, 189784, Control_c, 1, 11, 87
4, 189792, Control_c, 1, 11, 88
4, 189799, Control_c, 1, 11, 89
4, 189806, Control_c, 1, 11, 90
4, 189814, Control_c, 1, 11, 91
4, 189821, Control_c, 1, 11, 92
4, 189828, Control_c, 1, 11, 93
4, 189836, Control_c, 1, 11, 94
4, 189843, Control_c, 1, 11, 95
4, 189851, Control_c, 1, 11, 96
4, 189858, Control_c, 1, 11, 97
4, 189865, Control_c, 1, 11, 98
4, 189873, Control_c, 1, 11, 99
4, 189880, Control_c, 1, 11, 100
4, 189888, Control_c, 1, 11, 101
4, 189895, Control_c, 1, 11, 102
4, 189902, Control_c, 1, 11, 103
4, 189910, Control_c, 1, 11, 104
4, 189917, Control_c, 1, 11, 105
4, 189924, Control_c, 1, 11, 106
4, 189932, Control_c, 1, 11, 107
4, 189939, Control_c, 1, 11, 108
4, 189947, Control_c, 1, 11, 109
4, 189954, Control_c, 1, 11, 110
4, 189961, Control_c, 1, 11, 111
4, 189969, Control_c, 1, 11, 112
4, 189976, Control_c, 1, 11, 113
4, 189984, Control_c, 1, 11, 114
4, 189991, Control_c, 1, 11, 115
4, 189998, Control_c, 1, 11, 116
4, 190006, Control_c, 1, 11, 117
4, 190013, Control_c, 1, 11, 118
4, 190020, Control_c, 1, 11, 119
4, 190028, Control_c, 1, 11, 120
4, 190035, Control_c, 1, 11, 121
4, 190043, Control_c, 1, 11, 122
4, 190050, Control_c, 1, 11, 123
4, 190057, Control_c, 1, 11, 124
4, 190065, Control_c, 1, 11, 125
4, 190072, Control_c, 1, 11, 126
4, 190080, Note_on_c, 1, 80, 0
4, 190080, Control_c, 1, 11, 127
4, 190080, Note_on_c, 1, 81, 80
4, 190208, Note_on_c, 1, 81, 0
4, 190208, Note_on_c, 1, 81, 73
4, 190336, Note_on_c, 1, 81, 0
4, 190336, Note_on_c, 1, 80, 78
4, 190462, Note_on_c, 1, 80, 0
4, 190464, Control_c, 1, 11, 75
4, 190464, Note_on_c, 1, 82, 73
4, 190592, Note_on_c, 1, 82, 0
4, 190592, Note_on_c, 1, 82, 74
4, 190720, Note_on_c, 1, 82, 0
4, 190720, Note_on_c, 1, 80, 75
4, 190848, Note_on_c, 1, 80, 0
4, 190848, Note_on_c, 1, 80, 72
4, 191232, Control_c, 1, 11, 75
4, 191239, Control_c, 1, 11, 76
4, 191246, Control_c, 1, 11, 77
4, 191254, Control_c, 1, 11, 78
4, 191261, Control_c, 1, 11, 79
4, 191268, Control_c, 1, 11, 80
4, 191276, Control_c, 1, 11, 81
4, 191283, Control_c, 1, 11, 82
4, 191291, Control_c, 1, 11, 83
4, 191298, Control_c, 1, 11, 84
4, 191305, Control_c, 1, 11, 85
4, 191313, Control_c, 1, 11, 86
4, 191320, Control_c, 1, 11, 87
4, 191328, Control_c, 1, 11, 88
4, 191335, Control_c, 1, 11, 89
4, 191342, Control_c, 1, 11, 90
4, 191350, Control_c, 1, 11, 91
4, 191357, Control_c, 1, 11, 92
4, 191364, Control_c, 1, 11, 93
4, 191372, Control_c, 1, 11, 94
4, 191379, Control_c, 1, 11, 95
4, 191387, Control_c, 1, 11, 96
4, 191394, Control_c, 1, 11, 97
4, 191401, Control_c, 1, 11, 98
4, 191409, Control_c, 1, 11, 99
4, 191416, Control_c, 1, 11, 100
4, 191424, Control_c, 1, 11, 101
4, 191431, Control_c, 1, 11, 102
4, 191438, Control_c, 1, 11, 103
4, 191446, Control_c, 1, 11, 104
4, 191453, Control_c, 1, 11, 105
4, 191460, Control_c, 1, 11, 106
4, 191468, Control_c, 1, 11, 107
4, 191475, Control_c, 1, 11, 108
4, 191483, Control_c, 1, 11, 109
4, 191490, Control_c, 1, 11, 110
4, 191497, Control_c, 1, 11, 111
4, 191505, Control_c, 1, 11, 112
4, 191512, Control_c, 1, 11, 113
4, 191520, Control_c, 1, 11, 114
4, 191527, Control_c, 1, 11, 115
4, 191534, Control_c, 1, 11, 116
4, 191542, Control_c, 1, 11, 117
4, 191549, Control_c, 1, 11, 118
4, 191556, Control_c, 1, 11, 119
4, 191564, Control_c, 1, 11, 120
4, 191571, Control_c, 1, 11, 121
4, 191579, Control_c, 1, 11, 122
4, 191586, Control_c, 1, 11, 123
4, 191593, Control_c, 1, 11, 124
4, 191601, Control_c, 1, 11, 125
4, 191608, Control_c, 1, 11, 126
4, 191616, Note_on_c, 1, 80, 0
4, 191616, Control_c, 1, 11, 127
4, 191616, Note_on_c, 1, 82, 80
4, 191744, Note_on_c, 1, 82, 0
4, 191744, Note_on_c, 1, 82, 70
4, 191872, Note_on_c, 1, 82, 0
4, 191872, Note_on_c, 1, 80, 78
4, 191998, Note_on_c, 1, 80, 0
4, 192000, Note_on_c, 1, 83, 79
4, 192126, Note_on_c, 1, 83, 0
4, 192128, Note_on_c, 1, 83, 76
4, 192254, Note_on_c, 1, 83, 0
4, 192256, Note_on_c, 1, 82, 75
4, 192382, Note_on_c, 1, 82, 0
4, 192384, Note_on_c, 1, 81, 78
4, 192510, Note_on_c, 1, 81, 0
4, 192512, Note_on_c, 1, 81, 76
4, 192638, Note_on_c, 1, 81, 0
4, 192640, Note_on_c, 1, 78, 84
4, 192766, Note_on_c, 1, 78, 0
4, 192768, Note_on_c, 1, 74, 85
4, 192888, Note_on_c, 1, 74, 0
4, 192960, Note_on_c, 1, 76, 84
4, 193080, Note_on_c, 1, 76, 0
4, 193152, Note_on_c, 1, 77, 84
4, 193488, Note_on_c, 1, 77, 0
4, 193536, Note_on_c, 1, 76, 82
4, 193664, Note_on_c, 1, 76, 0
4, 193664, Note_on_c, 1, 76, 88
4, 193792, Note_on_c, 1, 76, 0
4, 193792, Note_on_c, 1, 75, 88
4, 193920, Note_on_c, 1, 75, 0
4, 193920, Note_on_c, 1, 74, 86
4, 194048, Note_on_c, 1, 74, 0
4, 194048, Note_on_c, 1, 74, 90
4, 194176, Note_on_c, 1, 74, 0
4, 194176, Note_on_c, 1, 71, 88
4, 194302, Note_on_c, 1, 71, 0
4, 194304, Note_on_c, 1, 68, 91
4, 194424, Note_on_c, 1, 68, 0
4, 194496, Note_on_c, 1, 72, 96
4, 194616, Note_on_c, 1, 72, 0
4, 194688, Note_on_c, 1, 76, 98
4, 195456, Note_on_c, 1, 76, 0
4, 195456, Note_on_c, 1, 78, 100
4, 195648, Note_on_c, 1, 78, 0
4, 195648, Note_on_c, 1, 79, 103
4, 195808, Note_on_c, 1, 79, 0
4, 195840, Control_c, 1, 11, 92
4, 195840, Note_on_c, 1, 81, 105
4, 195931, Note_on_c, 1, 81, 0
4, 195968, Note_on_c, 1, 81, 109
4, 196059, Note_on_c, 1, 81, 0
4, 196096, Note_on_c, 1, 80, 113
4, 196224, Note_on_c, 1, 80, 0
4, 196224, Note_on_c, 1, 80, 103
4, 196992, Note_on_c, 1, 80, 0
4, 196992, Control_c, 1, 11, 92
4, 196992, Note_on_c, 1, 81, 109
4, 197002, Control_c, 1, 11, 93
4, 197013, Control_c, 1, 11, 94
4, 197024, Control_c, 1, 11, 95
4, 197035, Control_c, 1, 11, 96
4, 197046, Control_c, 1, 11, 97
4, 197057, Control_c, 1, 11, 98
4, 197068, Control_c, 1, 11, 99
4, 197079, Control_c, 1, 11, 100
4, 197083, Note_on_c, 1, 81, 0
4, 197090, Control_c, 1, 11, 101
4, 197101, Control_c, 1, 11, 102
4, 197112, Control_c, 1, 11, 103
4, 197120, Note_on_c, 1, 81, 108
4, 197123, Control_c, 1, 11, 104
4, 197134, Control_c, 1, 11, 105
4, 197145, Control_c, 1, 11, 106
4, 197156, Control_c, 1, 11, 107
4, 197167, Control_c, 1, 11, 108
4, 197178, Control_c, 1, 11, 109
4, 197189, Control_c, 1, 11, 110
4, 197200, Control_c, 1, 11, 111
4, 197211, Note_on_c, 1, 81, 0
4, 197211, Control_c, 1, 11, 112
4, 197222, Control_c, 1, 11, 113
4, 197233, Control_c, 1, 11, 114
4, 197244, Control_c, 1, 11, 115
4, 197248, Note_on_c, 1, 80, 113
4, 197255, Control_c, 1, 11, 116
4, 197266, Control_c, 1, 11, 117
4, 197277, Control_c, 1, 11, 118
4, 197288, Control_c, 1, 11, 119
4, 197299, Control_c, 1, 11, 120
4, 197310, Control_c, 1, 11, 121
4, 197321, Control_c, 1, 11, 122
4, 197332, Control_c, 1, 11, 123
4, 197343, Control_c, 1, 11, 124
4, 197354, Control_c, 1, 11, 125
4, 197365, Control_c, 1, 11, 126
4, 197374, Note_on_c, 1, 80, 0
4, 197376, Control_c, 1, 11, 127
4, 197376, Control_c, 1, 11, 92
4, 197376, Note_on_c, 1, 82, 103
4, 197467, Note_on_c, 1, 82, 0
4, 197504, Note_on_c, 1, 82, 113
4, 197595, Note_on_c, 1, 82, 0
4, 197632, Note_on_c, 1, 80, 106
4, 197760, Note_on_c, 1, 80, 0
4, 197760, Note_on_c, 1, 80, 113
4, 198528, Note_on_c, 1, 80, 0
4, 198528, Control_c, 1, 11, 92
4, 198528, Note_on_c, 1, 82, 103
4, 198538, Control_c, 1, 11, 93
4, 198549, Control_c, 1, 11, 94
4, 198560, Control_c, 1, 11, 95
4, 198571, Control_c, 1, 11, 96
4, 198582, Control_c, 1, 11, 97
4, 198593, Control_c, 1, 11, 98
4, 198604, Control_c, 1, 11, 99
4, 198615, Control_c, 1, 11, 100
4, 198619, Note_on_c, 1, 82, 0
4, 198626, Control_c, 1, 11, 101
4, 198637, Control_c, 1, 11, 102
4, 198648, Control_c, 1, 11, 103
4, 198656, Note_on_c, 1, 82, 103
4, 198659, Control_c, 1, 11, 104
4, 198670, Control_c, 1, 11, 105
4, 198681, Control_c, 1, 11, 106
4, 198692, Control_c, 1, 11, 107
4, 198703, Control_c, 1, 11, 108
4, 198714, Control_c, 1, 11, 109
4, 198725, Control_c, 1, 11, 110
4, 198736, Control_c, 1, 11, 111
4, 198747, Note_on_c, 1, 82, 0
4, 198747, Control_c, 1, 11, 112
4, 198758, Control_c, 1, 11, 113
4, 198769, Control_c, 1, 11, 114
4, 198780, Control_c, 1, 11, 115
4, 198784, Note_on_c, 1, 80, 112
4, 198791, Control_c, 1, 11, 116
4, 198802, Control_c, 1, 11, 117
4, 198813, Control_c, 1, 11, 118
4, 198824, Control_c, 1, 11, 119
4, 198835, Control_c, 1, 11, 120
4, 198846, Control_c, 1, 11, 121
4, 198857, Control_c, 1, 11, 122
4, 198868, Control_c, 1, 11, 123
4, 198879, Control_c, 1, 11, 124
4, 198890, Control_c, 1, 11, 125
4, 198901, Control_c, 1, 11, 126
4, 198910, Note_on_c, 1, 80, 0
4, 198912, Control_c, 1, 11, 127
4, 198912, Note_on_c, 1, 75, 76
4, 198912, Note_on_c, 1, 82, 73
4, 199003, Note_on_c, 1, 75, 0
4, 199003, Note_on_c, 1, 82, 0
4, 199040, Note_on_c, 1, 75, 73
4, 199040, Note_on_c, 1, 82, 73
4, 199131, Note_on_c, 1, 75, 0
4, 199131, Note_on_c, 1, 82, 0
4, 199168, Note_on_c, 1, 73, 78
4, 199168, Note_on_c, 1, 77, 78
4, 199259, Note_on_c, 1, 73, 0
4, 199259, Note_on_c, 1, 77, 0
4, 199296, Note_on_c, 1, 75, 76
4, 199296, Note_on_c, 1, 82, 72
4, 199387, Note_on_c, 1, 75, 0
4, 199387, Note_on_c, 1, 82, 0
4, 199424, Note_on_c, 1, 75, 73
4, 199424, Note_on_c, 1, 82, 70
4, 199515, Note_on_c, 1, 75, 0
4, 199515, Note_on_c, 1, 82, 0
4, 199552, Note_on_c, 1, 73, 76
4, 199552, Note_on_c, 1, 77, 75
4, 199643, Note_on_c, 1, 73, 0
4, 199643, Note_on_c, 1, 77, 0
4, 199680, Note_on_c, 1, 75, 78
4, 199680, Note_on_c, 1, 82, 77
4, 199771, Note_on_c, 1, 75, 0
4, 199771, Note_on_c, 1, 82, 0
4, 199808, Note_on_c, 1, 75, 74
4, 199808, Note_on_c, 1, 82, 80
4, 199899, Note_on_c, 1, 75, 0
4, 199899, Note_on_c, 1, 82, 0
4, 199936, Note_on_c, 1, 73, 74
4, 199936, Note_on_c, 1, 77, 72
4, 200027, Note_on_c, 1, 73, 0
4, 200027, Note_on_c, 1, 77, 0
4, 200064, Note_on_c, 1, 75, 71
4, 200064, Note_on_c, 1, 82, 80
4, 200155, Note_on_c, 1, 75, 0
4, 200155, Note_on_c, 1, 82, 0
4, 200192, Note_on_c, 1, 75, 77
4, 200192, Note_on_c, 1, 82, 72
4, 200283, Note_on_c, 1, 75, 0
4, 200283, Note_on_c, 1, 82, 0
4, 200320, Note_on_c, 1, 73, 73
4, 200320, Note_on_c, 1, 77, 77
4, 200411, Note_on_c, 1, 73, 0
4, 200411, Note_on_c, 1, 77, 0
4, 200448, Note_on_c, 1, 75, 73
4, 200448, Note_on_c, 1, 82, 79
4, 200539, Note_on_c, 1, 75, 0
4, 200539, Note_on_c, 1, 82, 0
4, 200576, Note_on_c, 1, 75, 73
4, 200576, Note_on_c, 1, 82, 79
4, 200667, Note_on_c, 1, 75, 0
4, 200667, Note_on_c, 1, 82, 0
4, 200704, Note_on_c, 1, 73, 78
4, 200704, Note_on_c, 1, 77, 70
4, 200795, Note_on_c, 1, 73, 0
4, 200795, Note_on_c, 1, 77, 0
4, 200832, Note_on_c, 1, 75, 71
4, 200832, Note_on_c, 1, 82, 71
4, 200923, Note_on_c, 1, 75, 0
4, 200923, Note_on_c, 1, 82, 0
4, 200960, Note_on_c, 1, 75, 80
4, 200960, Note_on_c, 1, 82, 74
4, 201051, Note_on_c, 1, 75, 0
4, 201051, Note_on_c, 1, 82, 0
4, 201088, Note_on_c, 1, 73, 80
4, 201088, Note_on_c, 1, 77, 79
4, 201179, Note_on_c, 1, 73, 0
4, 201179, Note_on_c, 1, 77, 0
4, 201216, Note_on_c, 1, 75, 78
4, 201216, Note_on_c, 1, 82, 80
4, 201307, Note_on_c, 1, 75, 0
4, 201307, Note_on_c, 1, 82, 0
4, 201344, Note_on_c, 1, 75, 81
4, 201344, Note_on_c, 1, 82, 81
4, 201435, Note_on_c, 1, 75, 0
4, 201435, Note_on_c, 1, 82, 0
4, 201472, Note_on_c, 1, 73, 85
4, 201472, Note_on_c, 1, 77, 81
4, 201563, Note_on_c, 1, 73, 0
4, 201563, Note_on_c, 1, 77, 0
4, 201600, Note_on_c, 1, 75, 86
4, 201600, Note_on_c, 1, 82, 85
4, 201691, Note_on_c, 1, 75, 0
4, 201691, Note_on_c, 1, 82, 0
4, 201728, Note_on_c, 1, 75, 83
4, 201728, Note_on_c, 1, 82, 83
4, 201819, Note_on_c, 1, 75, 0
4, 201819, Note_on_c, 1, 82, 0
4, 201856, Note_on_c, 1, 73, 91
4, 201856, Note_on_c, 1, 77, 89
4, 201947, Note_on_c, 1, 73, 0
4, 201947, Note_on_c, 1, 77, 0
4, 201984, Note_on_c, 1, 73, 89
4, 201984, Note_on_c, 1, 80, 88
4, 202075, Note_on_c, 1, 73, 0
4, 202075, Note_on_c, 1, 80, 0
4, 202112, Note_on_c, 1, 73, 87
4, 202112, Note_on_c, 1, 80, 94
4, 202203, Note_on_c, 1, 73, 0
4, 202203, Note_on_c, 1, 80, 0
4, 202240, Note_on_c, 1, 75, 93
4, 202240, Note_on_c, 1, 78, 96
4, 202331, Note_on_c, 1, 75, 0
4, 202331, Note_on_c, 1, 78, 0
4, 202368, Note_on_c, 1, 73, 95
4, 202368, Note_on_c, 1, 80, 89
4, 202459, Note_on_c, 1, 73, 0
4, 202459, Note_on_c, 1, 80, 0
4, 202496, Note_on_c, 1, 73, 90
4, 202496, Note_on_c, 1, 80, 93
4, 202587, Note_on_c, 1, 73, 0
4, 202587, Note_on_c, 1, 80, 0
4, 202624, Note_on_c, 1, 75, 90
4, 202624, Note_on_c, 1, 78, 95
4, 202715, Note_on_c, 1, 75, 0
4, 202715, Note_on_c, 1, 78, 0
4, 202752, Note_on_c, 1, 73, 95
4, 202752, Note_on_c, 1, 80, 96
4, 202843, Note_on_c, 1, 73, 0
4, 202843, Note_on_c, 1, 80, 0
4, 202880, Note_on_c, 1, 73, 97
4, 202880, Note_on_c, 1, 80, 96
4, 202971, Note_on_c, 1, 73, 0
4, 202971, Note_on_c, 1, 80, 0
4, 203008, Note_on_c, 1, 75, 95
4, 203008, Note_on_c, 1, 78, 97
4, 203099, Note_on_c, 1, 75, 0
4, 203099, Note_on_c, 1, 78, 0
4, 203136, Note_on_c, 1, 75, 96
4, 203136, Note_on_c, 1, 82, 92
4, 203227, Note_on_c, 1, 75, 0
4, 203227, Note_on_c, 1, 82, 0
4, 203264, Note_on_c, 1, 75, 95
4, 203264, Note_on_c, 1, 82, 87
4, 203355, Note_on_c, 1, 75, 0
4, 203355, Note_on_c, 1, 82, 0
4, 203392, Note_on_c, 1, 77, 95
4, 203392, Note_on_c, 1, 80, 96
4, 203483, Note_on_c, 1, 77, 0
4, 203483, Note_on_c, 1, 80, 0
4, 203520, Note_on_c, 1, 73, 96
4, 203520, Note_on_c, 1, 80, 91
4, 203611, Note_on_c, 1, 73, 0
4, 203611, Note_on_c, 1, 80, 0
4, 203648, Note_on_c, 1, 73, 95
4, 203648, Note_on_c, 1, 80, 92
4, 203739, Note_on_c, 1, 73, 0
4, 203739, Note_on_c, 1, 80, 0
4, 203776, Note_on_c, 1, 75, 89
4, 203776, Note_on_c, 1, 78, 87
4, 203867, Note_on_c, 1, 75, 0
4, 203867, Note_on_c, 1, 78, 0
4, 203904, Note_on_c, 1, 73, 88
4, 203904, Note_on_c, 1, 80, 88
4, 203995, Note_on_c, 1, 73, 0
4, 203995, Note_on_c, 1, 80, 0
4, 204032, Note_on_c, 1, 73, 87
4, 204032, Note_on_c, 1, 80, 89
4, 204123, Note_on_c, 1, 73, 0
4, 204123, Note_on_c, 1, 80, 0
4, 204160, Note_on_c, 1, 75, 91
4, 204160, Note_on_c, 1, 78, 96
4, 204251, Note_on_c, 1, 75, 0
4, 204251, Note_on_c, 1, 78, 0
4, 204288, Note_on_c, 1, 77, 93
4, 204288, Note_on_c, 1, 82, 92
4, 204379, Note_on_c, 1, 77, 0
4, 204379, Note_on_c, 1, 82, 0
4, 204416, Note_on_c, 1, 77, 85
4, 204416, Note_on_c, 1, 82, 82
4, 204507, Note_on_c, 1, 77, 0
4, 204507, Note_on_c, 1, 82, 0
4, 204544, Note_on_c, 1, 75, 69
4, 204544, Note_on_c, 1, 84, 79
4, 204635, Note_on_c, 1, 75, 0
4, 204635, Note_on_c, 1, 84, 0
4, 204672, Note_on_c, 1, 77, 62
4, 204672, Note_on_c, 1, 82, 61
4, 204763, Note_on_c, 1, 77, 0
4, 204763, Note_on_c, 1, 82, 0
4, 204800, Note_on_c, 1, 77, 53
4, 204800, Note_on_c, 1, 82, 50
4, 204891, Note_on_c, 1, 77, 0
4, 204891, Note_on_c, 1, 82, 0
4, 204928, Note_on_c, 1, 75, 41
4, 204928, Note_on_c, 1, 84, 42
4, 205019, Note_on_c, 1, 75, 0
4, 205019, Note_on_c, 1, 84, 0
4, 205056, Note_on_c, 1, 75, 94
4, 205056, Note_on_c, 1, 82, 89
4, 205147, Note_on_c, 1, 75, 0
4, 205147, Note_on_c, 1, 82, 0
4, 205184, Note_on_c, 1, 75, 96
4, 205184, Note_on_c, 1, 82, 97
4, 205275, Note_on_c, 1, 75, 0
4, 205275, Note_on_c, 1, 82, 0
4, 205312, Note_on_c, 1, 73, 88
4, 205312, Note_on_c, 1, 77, 91
4, 205403, Note_on_c, 1, 73, 0
4, 205403, Note_on_c, 1, 77, 0
4, 205440, Note_on_c, 1, 75, 91
4, 205440, Note_on_c, 1, 82, 92
4, 205531, Note_on_c, 1, 75, 0
4, 205531, Note_on_c, 1, 82, 0
4, 205568, Note_on_c, 1, 75, 90
4, 205568, Note_on_c, 1, 82, 87
4, 205659, Note_on_c, 1, 75, 0
4, 205659, Note_on_c, 1, 82, 0
4, 205696, Note_on_c, 1, 73, 87
4, 205696, Note_on_c, 1, 77, 92
4, 205787, Note_on_c, 1, 73, 0
4, 205787, Note_on_c, 1, 77, 0
4, 205824, Note_on_c, 1, 75, 94
4, 205824, Note_on_c, 1, 82, 91
4, 205915, Note_on_c, 1, 75, 0
4, 205915, Note_on_c, 1, 82, 0
4, 205952, Note_on_c, 1, 75, 89
4, 205952, Note_on_c, 1, 82, 97
4, 206043, Note_on_c, 1, 75, 0
4, 206043, Note_on_c, 1, 82, 0
4, 206080, Note_on_c, 1, 73, 87
4, 206080, Note_on_c, 1, 77, 95
4, 206171, Note_on_c, 1, 73, 0
4, 206171, Note_on_c, 1, 77, 0
4, 206208, Note_on_c, 1, 75, 95
4, 206208, Note_on_c, 1, 82, 91
4, 206299, Note_on_c, 1, 75, 0
4, 206299, Note_on_c, 1, 82, 0
4, 206336, Note_on_c, 1, 75, 91
4, 206336, Note_on_c, 1, 82, 94
4, 206427, Note_on_c, 1, 75, 0
4, 206427, Note_on_c, 1, 82, 0
4, 206464, Note_on_c, 1, 73, 93
4, 206464, Note_on_c, 1, 77, 89
4, 206555, Note_on_c, 1, 73, 0
4, 206555, Note_on_c, 1, 77, 0
4, 206592, Note_on_c, 1, 75, 94
4, 206592, Note_on_c, 1, 82, 88
4, 206683, Note_on_c, 1, 75, 0
4, 206683, Note_on_c, 1, 82, 0
4, 206720, Note_on_c, 1, 75, 92
4, 206720, Note_on_c, 1, 82, 87
4, 206811, Note_on_c, 1, 75, 0
4, 206811, Note_on_c, 1, 82, 0
4, 206848, Note_on_c, 1, 73, 95
4, 206848, Note_on_c, 1, 77, 90
4, 206939, Note_on_c, 1, 73, 0
4, 206939, Note_on_c, 1, 77, 0
4, 206976, Note_on_c, 1, 75, 89
4, 206976, Note_on_c, 1, 82, 90
4, 207067, Note_on_c, 1, 75, 0
4, 207067, Note_on_c, 1, 82, 0
4, 207104, Note_on_c, 1, 75, 91
4, 207104, Note_on_c, 1, 82, 94
4, 207195, Note_on_c, 1, 75, 0
4, 207195, Note_on_c, 1, 82, 0
4, 207232, Note_on_c, 1, 73, 90
4, 207232, Note_on_c, 1, 77, 93
4, 207323, Note_on_c, 1, 73, 0
4, 207323, Note_on_c, 1, 77, 0
4, 207360, Note_on_c, 1, 75, 96
4, 207360, Note_on_c, 1, 82, 93
4, 207451, Note_on_c, 1, 75, 0
4, 207451, Note_on_c, 1, 82, 0
4, 207488, Note_on_c, 1, 75, 97
4, 207488, Note_on_c, 1, 82, 91
4, 207579, Note_on_c, 1, 75, 0
4, 207579, Note_on_c, 1, 82, 0
4, 207616, Note_on_c, 1, 73, 87
4, 207616, Note_on_c, 1, 77, 87
4, 207707, Note_on_c, 1, 73, 0
4, 207707, Note_on_c, 1, 77, 0
4, 207744, Note_on_c, 1, 75, 88
4, 207744, Note_on_c, 1, 82, 92
4, 207835, Note_on_c, 1, 75, 0
4, 207835, Note_on_c, 1, 82, 0
4, 207872, Note_on_c, 1, 75, 93
4, 207872, Note_on_c, 1, 82, 88
4, 207963, Note_on_c, 1, 75, 0
4, 207963, Note_on_c, 1, 82, 0
4, 208000, Note_on_c, 1, 73, 92
4, 208000, Note_on_c, 1, 77, 96
4, 208091, Note_on_c, 1, 73, 0
4, 208091, Note_on_c, 1, 77, 0
4, 208128, Control_c, 1, 11, 127
4, 208128, Note_on_c, 1, 73, 103
4, 208128, Note_on_c, 1, 80, 108
4, 208138, Control_c, 1, 11, 126
4, 208149, Control_c, 1, 11, 125
4, 208160, Control_c, 1, 11, 124
4, 208171, Control_c, 1, 11, 123
4, 208182, Control_c, 1, 11, 122
4, 208193, Control_c, 1, 11, 121
4, 208204, Control_c, 1, 11, 120
4, 208215, Control_c, 1, 11, 119
4, 208226, Control_c, 1, 11, 118
4, 208237, Control_c, 1, 11, 117
4, 208248, Control_c, 1, 11, 116
4, 208259, Control_c, 1, 11, 115
4, 208270, Control_c, 1, 11, 114
4, 208281, Control_c, 1, 11, 113
4, 208292, Control_c, 1, 11, 112
4, 208303, Control_c, 1, 11, 111
4, 208314, Control_c, 1, 11, 110
4, 208325, Control_c, 1, 11, 109
4, 208336, Control_c, 1, 11, 108
4, 208347, Control_c, 1, 11, 107
4, 208358, Control_c, 1, 11, 106
4, 208369, Control_c, 1, 11, 105
4, 208380, Control_c, 1, 11, 104
4, 208391, Control_c, 1, 11, 103
4, 208402, Control_c, 1, 11, 102
4, 208413, Control_c, 1, 11, 101
4, 208424, Control_c, 1, 11, 100
4, 208435, Control_c, 1, 11, 99
4, 208446, Control_c, 1, 11, 98
4, 208457, Control_c, 1, 11, 97
4, 208468, Control_c, 1, 11, 96
4, 208479, Control_c, 1, 11, 95
4, 208490, Control_c, 1, 11, 94
4, 208501, Control_c, 1, 11, 93
4, 208512, Control_c, 1, 11, 92
4, 209056, Note_on_c, 1, 73, 0
4, 209056, Note_on_c, 1, 80, 0
4, 209280, Control_c, 1, 11, 127
4, 211200, Note_on_c, 1, 68, 80
4, 211242, Note_on_c, 1, 68, 0
4, 211264, Note_on_c, 1, 68, 73
4, 211306, Note_on_c, 1, 68, 0
4, 211328, Note_on_c, 1, 66, 80
4, 211370, Note_on_c, 1, 66, 0
4, 211392, Note_on_c, 1, 63, 74
4, 211434, Note_on_c, 1, 63, 0
4, 211456, Note_on_c, 1, 63, 71
4, 211498, Note_on_c, 1, 63, 0
4, 211520, Note_on_c, 1, 66, 70
4, 211562, Note_on_c, 1, 66, 0
4, 211584, Note_on_c, 1, 68, 76
4, 211744, Note_on_c, 1, 68, 0
4, 211968, Note_on_c, 1, 80, 91
4, 212010, Note_on_c, 1, 80, 0
4, 212032, Note_on_c, 1, 80, 87
4, 212074, Note_on_c, 1, 80, 0
4, 212096, Note_on_c, 1, 78, 97
4, 212138, Note_on_c, 1, 78, 0
4, 212160, Note_on_c, 1, 75, 100
4, 212202, Note_on_c, 1, 75, 0
4, 212224, Note_on_c, 1, 75, 103
4, 212266, Note_on_c, 1, 75, 0
4, 212288, Note_on_c, 1, 78, 101
4, 212330, Note_on_c, 1, 78, 0
4, 212352, Note_on_c, 1, 80, 107
4, 212512, Note_on_c, 1, 80, 0
4, 212736, Note_on_c, 1, 73, 109
4, 212736, Note_on_c, 1, 80, 103
4, 213664, Note_on_c, 1, 73, 0
4, 213664, Note_on_c, 1, 80, 0
4, 215808, Note_on_c, 1, 75, 77
4, 215854, Note_on_c, 1, 75, 0
4, 215856, Note_on_c, 1, 73, 72
4, 215902, Note_on_c, 1, 73, 0
4, 215904, Note_on_c, 1, 75, 80
4, 215950, Note_on_c, 1, 75, 0
4, 215952, Note_on_c, 1, 77, 73
4, 215998, Note_on_c, 1, 77, 0
4, 216000, Note_on_c, 1, 75, 80
4, 216046, Note_on_c, 1, 75, 0
4, 216048, Note_on_c, 1, 73, 78
4, 216094, Note_on_c, 1, 73, 0
4, 216096, Note_on_c, 1, 70, 71
4, 216142, Note_on_c, 1, 70, 0
4, 216144, Note_on_c, 1, 73, 72
4, 216190, Note_on_c, 1, 73, 0
4, 216192, Note_on_c, 1, 75, 72
4, 216238, Note_on_c, 1, 75, 0
4, 216240, Note_on_c, 1, 73, 79
4, 216286, Note_on_c, 1, 73, 0
4, 216288, Note_on_c, 1, 75, 70
4, 216334, Note_on_c, 1, 75, 0
4, 216336, Note_on_c, 1, 77, 76
4, 216382, Note_on_c, 1, 77, 0
4, 216384, Note_on_c, 1, 75, 80
4, 216430, Note_on_c, 1, 75, 0
4, 216432, Note_on_c, 1, 73, 77
4, 216478, Note_on_c, 1, 73, 0
4, 216480, Note_on_c, 1, 70, 72
4, 216526, Note_on_c, 1, 70, 0
4, 216528, Note_on_c, 1, 73, 72
4, 216574, Note_on_c, 1, 73, 0
4, 216576, Note_on_c, 1, 75, 75
4, 216622, Note_on_c, 1, 75, 0
4, 216624, Note_on_c, 1, 73, 78
4, 216670, Note_on_c, 1, 73, 0
4, 216672, Note_on_c, 1, 75, 74
4, 216718, Note_on_c, 1, 75, 0
4, 216720, Note_on_c, 1, 77, 78
4, 216766, Note_on_c, 1, 77, 0
4, 216768, Note_on_c, 1, 75, 78
4, 216814, Note_on_c, 1, 75, 0
4, 216816, Note_on_c, 1, 73, 85
4, 216862, Note_on_c, 1, 73, 0
4, 216864, Note_on_c, 1, 70, 85
4, 216910, Note_on_c, 1, 70, 0
4, 216912, Note_on_c, 1, 73, 80
4, 216958, Note_on_c, 1, 73, 0
4, 216960, Note_on_c, 1, 75, 80
4, 217006, Note_on_c, 1, 75, 0
4, 217008, Note_on_c, 1, 73, 80
4, 217054, Note_on_c, 1, 73, 0
4, 217056, Note_on_c, 1, 75, 89
4, 217102, Note_on_c, 1, 75, 0
4, 217104, Note_on_c, 1, 77, 92
4, 217150, Note_on_c, 1, 77, 0
4, 217152, Note_on_c, 1, 75, 88
4, 217198, Note_on_c, 1, 75, 0
4, 217200, Note_on_c, 1, 73, 90
4, 217246, Note_on_c, 1, 73, 0
4, 217248, Note_on_c, 1, 70, 85
4, 217294, Note_on_c, 1, 70, 0
4, 217296, Note_on_c, 1, 73, 87
4, 217342, Note_on_c, 1, 73, 0
4, 217344, Note_on_c, 1, 73, 87
4, 217344, Note_on_c, 1, 75, 94
4, 217486, Note_on_c, 1, 73, 0
4, 217486, Note_on_c, 1, 75, 0
4, 217488, Note_on_c, 1, 70, 90
4, 217488, Note_on_c, 1, 77, 91
4, 217534, Note_on_c, 1, 70, 0
4, 217534, Note_on_c, 1, 77, 0
4, 217536, Note_on_c, 1, 73, 91
4, 217536, Note_on_c, 1, 75, 88
4, 217678, Note_on_c, 1, 73, 0
4, 217678, Note_on_c, 1, 75, 0
4, 217680, Note_on_c, 1, 70, 94
4, 217680, Note_on_c, 1, 77, 96
4, 217726, Note_on_c, 1, 70, 0
4, 217726, Note_on_c, 1, 77, 0
4, 217728, Note_on_c, 1, 73, 94
4, 217728, Note_on_c, 1, 75, 89
4, 217870, Note_on_c, 1, 73, 0
4, 217870, Note_on_c, 1, 75, 0
4, 217872, Note_on_c, 1, 70, 89
4, 217872, Note_on_c, 1, 77, 89
4, 217918, Note_on_c, 1, 70, 0
4, 217918, Note_on_c, 1, 77, 0
4, 217920, Note_on_c, 1, 73, 95
4, 217920, Note_on_c, 1, 75, 89
4, 218062, Note_on_c, 1, 73, 0
4, 218062, Note_on_c, 1, 75, 0
4, 218064, Note_on_c, 1, 70, 93
4, 218064, Note_on_c, 1, 77, 96
4, 218110, Note_on_c, 1, 70, 0
4, 218110, Note_on_c, 1, 77, 0
4, 218112, Note_on_c, 1, 73, 92
4, 218112, Note_on_c, 1, 75, 87
4, 218254, Note_on_c, 1, 73, 0
4, 218254, Note_on_c, 1, 75, 0
4, 218256, Note_on_c, 1, 70, 87
4, 218256, Note_on_c, 1, 77, 90
4, 218302, Note_on_c, 1, 70, 0
4, 218302, Note_on_c, 1, 77, 0
4, 218304, Note_on_c, 1, 73, 92
4, 218304, Note_on_c, 1, 75, 97
4, 218446, Note_on_c, 1, 73, 0
4, 218446, Note_on_c, 1, 75, 0
4, 218448, Note_on_c, 1, 70, 97
4, 218448, Note_on_c, 1, 77, 91
4, 218494, Note_on_c, 1, 70, 0
4, 218494, Note_on_c, 1, 77, 0
4, 218496, Note_on_c, 1, 73, 89
4, 218496, Note_on_c, 1, 75, 88
4, 218638, Note_on_c, 1, 73, 0
4, 218638, Note_on_c, 1, 75, 0
4, 218640, Note_on_c, 1, 70, 94
4, 218640, Note_on_c, 1, 77, 95
4, 218686, Note_on_c, 1, 70, 0
4, 218686, Note_on_c, 1, 77, 0
4, 218688, Note_on_c, 1, 73, 95
4, 218688, Note_on_c, 1, 75, 94
4, 218830, Note_on_c, 1, 73, 0
4, 218830, Note_on_c, 1, 75, 0
4, 218832, Note_on_c, 1, 70, 96
4, 218832, Note_on_c, 1, 77, 89
4, 218878, Note_on_c, 1, 70, 0
4, 218878, Note_on_c, 1, 77, 0
4, 218880, Note_on_c, 1, 77, 94
4, 218880, Note_on_c, 1, 79, 96
4, 219022, Note_on_c, 1, 77, 0
4, 219022, Note_on_c, 1, 79, 0
4, 219024, Note_on_c, 1, 74, 88
4, 219024, Note_on_c, 1, 81, 88
4, 219070, Note_on_c, 1, 74, 0
4, 219070, Note_on_c, 1, 81, 0
4, 219072, Note_on_c, 1, 77, 95
4, 219072, Note_on_c, 1, 79, 95
4, 219214, Note_on_c, 1, 77, 0
4, 219214, Note_on_c, 1, 79, 0
4, 219216, Note_on_c, 1, 74, 97
4, 219216, Note_on_c, 1, 81, 90
4, 219262, Note_on_c, 1, 74, 0
4, 219262, Note_on_c, 1, 81, 0
4, 219264, Note_on_c, 1, 77, 90
4, 219264, Note_on_c, 1, 79, 87
4, 219406, Note_on_c, 1, 77, 0
4, 219406, Note_on_c, 1, 79, 0
4, 219408, Note_on_c, 1, 74, 90
4, 219408, Note_on_c, 1, 81, 95
4, 219454, Note_on_c, 1, 74, 0
4, 219454, Note_on_c, 1, 81, 0
4, 219456, Note_on_c, 1, 77, 94
4, 219456, Note_on_c, 1, 79, 93
4, 219598, Note_on_c, 1, 77, 0
4, 219598, Note_on_c, 1, 79, 0
4, 219600, Note_on_c, 1, 74, 92
4, 219600, Note_on_c, 1, 81, 97
4, 219646, Note_on_c, 1, 74, 0
4, 219646, Note_on_c, 1, 81, 0
4, 219648, Note_on_c, 1, 77, 92
4, 219648, Note_on_c, 1, 79, 93
4, 219790, Note_on_c, 1, 77, 0
4, 219790, Note_on_c, 1, 79, 0
4, 219792, Note_on_c, 1, 74, 98
4, 219792, Note_on_c, 1, 81, 95
4, 219838, Note_on_c, 1, 74, 0
4, 219838, Note_on_c, 1, 81, 0
4, 219840, Note_on_c, 1, 77, 97
4, 219840, Note_on_c, 1, 79, 92
4, 219982, Note_on_c, 1, 77, 0
4, 219982, Note_on_c, 1, 79, 0
4, 219984, Note_on_c, 1, 74, 98
4, 219984, Note_on_c, 1, 81, 103
4, 220030, Note_on_c, 1, 74, 0
4, 220030, Note_on_c, 1, 81, 0
4, 220032, Note_on_c, 1, 77, 100
4, 220032, Note_on_c, 1, 79, 104
4, 220174, Note_on_c, 1, 77, 0
4, 220174, Note_on_c, 1, 79, 0
4, 220176, Note_on_c, 1, 74, 100
4, 220176, Note_on_c, 1, 81, 104
4, 220222, Note_on_c, 1, 74, 0
4, 220222, Note_on_c, 1, 81, 0
4, 220224, Note_on_c, 1, 77, 100
4, 220224, Note_on_c, 1, 79, 102
4, 220366, Note_on_c, 1, 77, 0
4, 220366, Note_on_c, 1, 79, 0
4, 220368, Note_on_c, 1, 74, 102
4, 220368, Note_on_c, 1, 81, 110
4, 220414, Note_on_c, 1, 74, 0
4, 220414, Note_on_c, 1, 81, 0
4, 220416, Note_on_c, 1, 75, 104
4, 220416, Note_on_c, 1, 82, 110
4, 220558, Note_on_c, 1, 75, 0
4, 220558, Note_on_c, 1, 82, 0
4, 220560, Note_on_c, 1, 73, 109
4, 220560, Note_on_c, 1, 80, 110
4, 220606, Note_on_c, 1, 73, 0
4, 220606, Note_on_c, 1, 80, 0
4, 220608, Note_on_c, 1, 75, 109
4, 220608, Note_on_c, 1, 77, 113
4, 220750, Note_on_c, 1, 75, 0
4, 220750, Note_on_c, 1, 77, 0
4, 220752, Note_on_c, 1, 73, 103
4, 220752, Note_on_c, 1, 80, 103
4, 220798, Note_on_c, 1, 73, 0
4, 220798, Note_on_c, 1, 80, 0
4, 220800, Note_on_c, 1, 75, 104
4, 220800, Note_on_c, 1, 82, 111
4, 220942, Note_on_c, 1, 75, 0
4, 220942, Note_on_c, 1, 82, 0
4, 220944, Note_on_c, 1, 73, 111
4, 220944, Note_on_c, 1, 80, 103
4, 220990, Note_on_c, 1, 73, 0
4, 220990, Note_on_c, 1, 80, 0
4, 220992, Note_on_c, 1, 70, 109
4, 220992, Note_on_c, 1, 77, 104
4, 221134, Note_on_c, 1, 70, 0
4, 221134, Note_on_c, 1, 77, 0
4, 221136, Note_on_c, 1, 73, 105
4, 221136, Note_on_c, 1, 80, 110
4, 221182, Note_on_c, 1, 73, 0
4, 221182, Note_on_c, 1, 80, 0
4, 221184, Note_on_c, 1, 75, 109
4, 221184, Note_on_c, 1, 82, 113
4, 221326, Note_on_c, 1, 75, 0
4, 221326, Note_on_c, 1, 82, 0
4, 221328, Note_on_c, 1, 73, 111
4, 221328, Note_on_c, 1, 80, 111
4, 221374, Note_on_c, 1, 73, 0
4, 221374, Note_on_c, 1, 80, 0
4, 221376, Note_on_c, 1, 75, 106
4, 221376, Note_on_c, 1, 77, 111
4, 221518, Note_on_c, 1, 75, 0
4, 221518, Note_on_c, 1, 77, 0
4, 221520, Note_on_c, 1, 73, 113
4, 221520, Note_on_c, 1, 80, 109
4, 221566, Note_on_c, 1, 73, 0
4, 221566, Note_on_c, 1, 80, 0
4, 221568, Note_on_c, 1, 75, 113
4, 221568, Note_on_c, 1, 82, 106
4, 221710, Note_on_c, 1, 75, 0
4, 221710, Note_on_c, 1, 82, 0
4, 221712, Note_on_c, 1, 73, 105
4, 221712, Note_on_c, 1, 80, 105
4, 221758, Note_on_c, 1, 73, 0
4, 221758, Note_on_c, 1, 80, 0
4, 221760, Note_on_c, 1, 70, 113
4, 221760, Note_on_c, 1, 77, 104
4, 221902, Note_on_c, 1, 70, 0
4, 221902, Note_on_c, 1, 77, 0
4, 221904, Note_on_c, 1, 73, 111
4, 221904, Note_on_c, 1, 80, 104
4, 221950, Note_on_c, 1, 73, 0
4, 221950, Note_on_c, 1, 80, 0
4, 221952, Note_on_c, 1, 75, 107
4, 221952, Note_on_c, 1, 82, 112
4, 222094, Note_on_c, 1, 75, 0
4, 222094, Note_on_c, 1, 82, 0
4, 222096, Note_on_c, 1, 73, 113
4, 222096, Note_on_c, 1, 80, 113
4, 222142, Note_on_c, 1, 73, 0
4, 222142, Note_on_c, 1, 80, 0
4, 222144, Note_on_c, 1, 75, 111
4, 222144, Note_on_c, 1, 77, 113
4, 222286, Note_on_c, 1, 75, 0
4, 222286, Note_on_c, 1, 77, 0
4, 222288, Note_on_c, 1, 73, 111
4, 222288, Note_on_c, 1, 80, 112
4, 222334, Note_on_c, 1, 73, 0
4, 222334, Note_on_c, 1, 80, 0
4, 222336, Note_on_c, 1, 75, 111
4, 222336, Note_on_c, 1, 82, 112
4, 222478, Note_on_c, 1, 75, 0
4, 222478, Note_on_c, 1, 82, 0
4, 222480, Note_on_c, 1, 73, 104
4, 222480, Note_on_c, 1, 80, 106
4, 222526, Note_on_c, 1, 73, 0
4, 222526, Note_on_c, 1, 80, 0
4, 222528, Note_on_c, 1, 70, 113
4, 222528, Note_on_c, 1, 77, 104
4, 222670, Note_on_c, 1, 70, 0
4, 222670, Note_on_c, 1, 77, 0
4, 222672, Note_on_c, 1, 73, 105
4, 222672, Note_on_c, 1, 80, 111
4, 222718, Note_on_c, 1, 73, 0
4, 222718, Note_on_c, 1, 80, 0
4, 222720, Note_on_c, 1, 75, 105
4, 222720, Note_on_c, 1, 82, 113
4, 222862, Note_on_c, 1, 75, 0
4, 222862, Note_on_c, 1, 82, 0
4, 222864, Note_on_c, 1, 73, 106
4, 222864, Note_on_c, 1, 80, 113
4, 222910, Note_on_c, 1, 73, 0
4, 222910, Note_on_c, 1, 80, 0
4, 222912, Note_on_c, 1, 75, 106
4, 222912, Note_on_c, 1, 77, 109
4, 223054, Note_on_c, 1, 75, 0
4, 223054, Note_on_c, 1, 77, 0
4, 223056, Note_on_c, 1, 73, 106
4, 223056, Note_on_c, 1, 80, 105
4, 223102, Note_on_c, 1, 73, 0
4, 223102, Note_on_c, 1, 80, 0
4, 223104, Note_on_c, 1, 75, 106
4, 223104, Note_on_c, 1, 82, 106
4, 223246, Note_on_c, 1, 75, 0
4, 223246, Note_on_c, 1, 82, 0
4, 223248, Note_on_c, 1, 73, 112
4, 223248, Note_on_c, 1, 80, 108
4, 223294, Note_on_c, 1, 73, 0
4, 223294, Note_on_c, 1, 80, 0
4, 223296, Note_on_c, 1, 70, 103
4, 223296, Note_on_c, 1, 77, 106
4, 223438, Note_on_c, 1, 70, 0
4, 223438, Note_on_c, 1, 77, 0
4, 223440, Note_on_c, 1, 75, 113
4, 223440, Note_on_c, 1, 82, 107
4, 223486, Note_on_c, 1, 75, 0
4, 223486, Note_on_c, 1, 82, 0
4, 223488, Note_on_c, 1, 85, 112
4, 223518, Note_on_c, 1, 85, 0
4, 223520, Note_on_c, 1, 87, 105
4, 223550, Note_on_c, 1, 87, 0
4, 223552, Note_on_c, 1, 85, 110
4, 223582, Note_on_c, 1, 85, 0
4, 223584, Note_on_c, 1, 87, 107
4, 223614, Note_on_c, 1, 87, 0
4, 223616, Note_on_c, 1, 85, 110
4, 223646, Note_on_c, 1, 85, 0
4, 223648, Note_on_c, 1, 87, 104
4, 223678, Note_on_c, 1, 87, 0
4, 223680, Note_on_c, 1, 85, 107
4, 223710, Note_on_c, 1, 85, 0
4, 223712, Note_on_c, 1, 87, 110
4, 223742, Note_on_c, 1, 87, 0
4, 223744, Note_on_c, 1, 85, 111
4, 223774, Note_on_c, 1, 85, 0
4, 223776, Note_on_c, 1, 87, 111
4, 223806, Note_on_c, 1, 87, 0
4, 223808, Note_on_c, 1, 85, 110
4, 223838, Note_on_c, 1, 85, 0
4, 223840, Note_on_c, 1, 87, 112
4, 223870, Note_on_c, 1, 87, 0
4, 223872, Note_on_c, 1, 85, 105
4, 223902, Note_on_c, 1, 85, 0
4, 223904, Note_on_c, 1, 87, 103
4, 223934, Note_on_c, 1, 87, 0
4, 223936, Note_on_c, 1, 85, 113
4, 223966, Note_on_c, 1, 85, 0
4, 223968, Note_on_c, 1, 87, 106
4, 223998, Note_on_c, 1, 87, 0
4, 224000, Note_on_c, 1, 85, 110
4, 224030, Note_on_c, 1, 85, 0
4, 224032, Note_on_c, 1, 87, 107
4, 224062, Note_on_c, 1, 87, 0
4, 224064, Note_on_c, 1, 85, 111
4, 224094, Note_on_c, 1, 85, 0
4, 224096, Note_on_c, 1, 87, 106
4, 224126, Note_on_c, 1, 87, 0
4, 224128, Note_on_c, 1, 85, 107
4, 224158, Note_on_c, 1, 85, 0
4, 224160, Note_on_c, 1, 87, 112
4, 224190, Note_on_c, 1, 87, 0
4, 224192, Note_on_c, 1, 85, 104
4, 224222, Note_on_c, 1, 85, 0
4, 224224, Note_on_c, 1, 87, 105
4, 224254, Note_on_c, 1, 87, 0
4, 224256, Note_on_c, 1, 85, 109
4, 224286, Note_on_c, 1, 85, 0
4, 224288, Note_on_c, 1, 87, 110
4, 224318, Note_on_c, 1, 87, 0
4, 224320, Note_on_c, 1, 85, 104
4, 224350, Note_on_c, 1, 85, 0
4, 224352, Note_on_c, 1, 87, 113
4, 224382, Note_on_c, 1, 87, 0
4, 224384, Note_on_c, 1, 85, 108
4, 224414, Note_on_c, 1, 85, 0
4, 224416, Note_on_c, 1, 87, 109
4, 224446, Note_on_c, 1, 87, 0
4, 224448, Note_on_c, 1, 85, 108
4, 224478, Note_on_c, 1, 85, 0
4, 224480, Note_on_c, 1, 87, 106
4, 224510, Note_on_c, 1, 87, 0
4, 224512, Note_on_c, 1, 85, 105
4, 224542, Note_on_c, 1, 85, 0
4, 224544, Note_on_c, 1, 87, 109
4, 224574, Note_on_c, 1, 87, 0
4, 224576, Note_on_c, 1, 85, 105
4, 224606, Note_on_c, 1, 85, 0
4, 224608, Note_on_c, 1, 87, 106
4, 224638, Note_on_c, 1, 87, 0
4, 224640, Note_on_c, 1, 85, 104
4, 224670, Note_on_c, 1, 85, 0
4, 224672, Note_on_c, 1, 87, 109
4, 224702, Note_on_c, 1, 87, 0
4, 224704, Note_on_c, 1, 85, 109
4, 224734, Note_on_c, 1, 85, 0
4, 224736, Note_on_c, 1, 87, 111
4, 224766, Note_on_c, 1, 87, 0
4, 224768, Note_on_c, 1, 85, 106
4, 224798, Note_on_c, 1, 85, 0
4, 224800, Note_on_c, 1, 87, 110
4, 224830, Note_on_c, 1, 87, 0
4, 224832, Note_on_c, 1, 85, 105
4, 224862, Note_on_c, 1, 85, 0
4, 224864, Note_on_c, 1, 87, 107
4, 224894, Note_on_c, 1, 87, 0
4, 224896, Note_on_c, 1, 85, 110
4, 224926, Note_on_c, 1, 85, 0
4, 224928, Note_on_c, 1, 87, 110
4, 224958, Note_on_c, 1, 87, 0
4, 224960, Note_on_c, 1, 85, 106
4, 224990, Note_on_c, 1, 85, 0
4, 224992, Note_on_c, 1, 87, 106
4, 225022, Note_on_c, 1, 87, 0
4, 225024, Note_on_c, 1, 85, 104
4, 225184, Note_on_c, 1, 85, 0
4, 225184, End_track
5, 0, Start_track
5, 0, Title_t, "Corno inglese"
5, 0, MIDI_port, 0
5, 115, Control_c, 2, 0, 0
5, 116, Control_c, 2, 32, 0
5, 117, Program_c, 2, 69
5, 118, Control_c, 2, 7, 127
5, 119, Control_c, 2, 91, 64
5, 12480, Control_c, 2, 11, 64
5, 12480, Note_on_c, 2, 60, 75
5, 12492, Control_c, 2, 11, 65
5, 12504, Control_c, 2, 11, 66
5, 12516, Control_c, 2, 11, 67
5, 12528, Control_c, 2, 11, 68
5, 12540, Control_c, 2, 11, 69
5, 12553, Control_c, 2, 11, 70
5, 12565, Control_c, 2, 11, 71
5, 12577, Control_c, 2, 11, 72
5, 12589, Control_c, 2, 11, 73
5, 12601, Control_c, 2, 11, 74
5, 12614, Control_c, 2, 11, 75
5, 12626, Control_c, 2, 11, 76
5, 12638, Control_c, 2, 11, 77
5, 12650, Control_c, 2, 11, 78
5, 12662, Control_c, 2, 11, 79
5, 12675, Control_c, 2, 11, 80
5, 12687, Control_c, 2, 11, 81
5, 12699, Control_c, 2, 11, 82
5, 12711, Control_c, 2, 11, 83
5, 12723, Control_c, 2, 11, 84
5, 12736, Control_c, 2, 11, 85
5, 12748, Control_c, 2, 11, 86
5, 12760, Control_c, 2, 11, 87
5, 12772, Control_c, 2, 11, 88
5, 12784, Control_c, 2, 11, 89
5, 12796, Control_c, 2, 11, 90
5, 12809, Control_c, 2, 11, 91
5, 12821, Control_c, 2, 11, 92
5, 12833, Control_c, 2, 11, 93
5, 12845, Control_c, 2, 11, 94
5, 12857, Control_c, 2, 11, 95
5, 12870, Control_c, 2, 11, 96
5, 12882, Control_c, 2, 11, 97
5, 12894, Control_c, 2, 11, 98
5, 12906, Control_c, 2, 11, 99
5, 12918, Control_c, 2, 11, 100
5, 12931, Control_c, 2, 11, 101
5, 12943, Control_c, 2, 11, 102
5, 12955, Control_c, 2, 11, 103
5, 12967, Control_c, 2, 11, 104
5, 12979, Control_c, 2, 11, 105
5, 12992, Control_c, 2, 11, 106
5, 13004, Control_c, 2, 11, 107
5, 13016, Control_c, 2, 11, 108
5, 13028, Control_c, 2, 11, 109
5, 13040, Control_c, 2, 11, 110
5, 13052, Control_c, 2, 11, 111
5, 13065, Control_c, 2, 11, 112
5, 13077, Control_c, 2, 11, 113
5, 13089, Control_c, 2, 11, 114
5, 13101, Control_c, 2, 11, 115
5, 13113, Control_c, 2, 11, 116
5, 13126, Control_c, 2, 11, 117
5, 13138, Control_c, 2, 11, 118
5, 13150, Control_c, 2, 11, 119
5, 13162, Control_c, 2, 11, 120
5, 13174, Control_c, 2, 11, 121
5, 13187, Control_c, 2, 11, 122
5, 13199, Control_c, 2, 11, 123
5, 13211, Control_c, 2, 11, 124
5, 13216, Note_on_c, 2, 60, 0
5, 13223, Control_c, 2, 11, 125
5, 13235, Control_c, 2, 11, 126
5, 13248, Control_c, 2, 11, 127
5, 14016, Control_c, 2, 11, 64
5, 14016, Note_on_c, 2, 60, 72
5, 14028, Control_c, 2, 11, 65
5, 14040, Control_c, 2, 11, 66
5, 14052, Control_c, 2, 11, 67
5, 14064, Control_c, 2, 11, 68
5, 14076, Control_c, 2, 11, 69
5, 14089, Control_c, 2, 11, 70
5, 14101, Control_c, 2, 11, 71
5, 14113, Control_c, 2, 11, 72
5, 14125, Control_c, 2, 11, 73
5, 14137, Control_c, 2, 11, 74
5, 14150, Control_c, 2, 11, 75
5, 14162, Control_c, 2, 11, 76
5, 14174, Control_c, 2, 11, 77
5, 14186, Control_c, 2, 11, 78
5, 14198, Control_c, 2, 11, 79
5, 14211, Control_c, 2, 11, 80
5, 14223, Control_c, 2, 11, 81
5, 14235, Control_c, 2, 11, 82
5, 14247, Control_c, 2, 11, 83
5, 14259, Control_c, 2, 11, 84
5, 14272, Control_c, 2, 11, 85
5, 14284, Control_c, 2, 11, 86
5, 14296, Control_c, 2, 11, 87
5, 14308, Control_c, 2, 11, 88
5, 14320, Control_c, 2, 11, 89
5, 14332, Control_c, 2, 11, 90
5, 14345, Control_c, 2, 11, 91
5, 14357, Control_c, 2, 11, 92
5, 14369, Control_c, 2, 11, 93
5, 14381, Control_c, 2, 11, 94
5, 14393, Control_c, 2, 11, 95
5, 14406, Control_c, 2, 11, 96
5, 14418, Control_c, 2, 11, 97
5, 14430, Control_c, 2, 11, 98
5, 14442, Control_c, 2, 11, 99
5, 14454, Control_c, 2, 11, 100
5, 14467, Control_c, 2, 11, 101
5, 14479, Control_c, 2, 11, 102
5, 14491, Control_c, 2, 11, 103
5, 14503, Control_c, 2, 11, 104
5, 14515, Control_c, 2, 11, 105
5, 14528, Control_c, 2, 11, 106
5, 14540, Control_c, 2, 11, 107
5, 14552, Control_c, 2, 11, 108
5, 14564, Control_c, 2, 11, 109
5, 14576, Control_c, 2, 11, 110
5, 14588, Control_c, 2, 11, 111
5, 14601, Control_c, 2, 11, 112
5, 14613, Control_c, 2, 11, 113
5, 14625, Control_c, 2, 11, 114
5, 14637, Control_c, 2, 11, 115
5, 14649, Control_c, 2, 11, 116
5, 14662, Control_c, 2, 11, 117
5, 14674, Control_c, 2, 11, 118
5, 14686, Control_c, 2, 11, 119
5, 14698, Control_c, 2, 11, 120
5, 14710, Control_c, 2, 11, 121
5, 14723, Control_c, 2, 11, 122
5, 14735, Control_c, 2, 11, 123
5, 14747, Control_c, 2, 11, 124
5, 14752, Note_on_c, 2, 60, 0
5, 14759, Control_c, 2, 11, 125
5, 14771, Control_c, 2, 11, 126
5, 14784, Control_c, 2, 11, 127
5, 19968, Control_c, 2, 11, 92
5, 19968, Note_on_c, 2, 65, 63
5, 19978, Control_c, 2, 11, 93
5, 19989, Control_c, 2, 11, 94
5, 20000, Control_c, 2, 11, 95
5, 20011, Control_c, 2, 11, 96
5, 20022, Control_c, 2, 11, 97
5, 20033, Control_c, 2, 11, 98
5, 20044, Control_c, 2, 11, 99
5, 20055, Control_c, 2, 11, 100
5, 20066, Control_c, 2, 11, 101
5, 20077, Control_c, 2, 11, 102
5, 20088, Control_c, 2, 11, 103
5, 20099, Control_c, 2, 11, 104
5, 20110, Control_c, 2, 11, 105
5, 20112, Note_on_c, 2, 65, 0
5, 20112, Note_on_c, 2, 67, 59
5, 20121, Control_c, 2, 11, 106
5, 20132, Control_c, 2, 11, 107
5, 20143, Control_c, 2, 11, 108
5, 20154, Control_c, 2, 11, 109
5, 20165, Control_c, 2, 11, 110
5, 20176, Control_c, 2, 11, 111
5, 20187, Control_c, 2, 11, 112
5, 20198, Control_c, 2, 11, 113
5, 20209, Control_c, 2, 11, 114
5, 20220, Control_c, 2, 11, 115
5, 20231, Control_c, 2, 11, 116
5, 20242, Control_c, 2, 11, 117
5, 20253, Control_c, 2, 11, 118
5, 20264, Control_c, 2, 11, 119
5, 20275, Control_c, 2, 11, 120
5, 20286, Control_c, 2, 11, 121
5, 20297, Control_c, 2, 11, 122
5, 20308, Control_c, 2, 11, 123
5, 20319, Control_c, 2, 11, 124
5, 20330, Control_c, 2, 11, 125
5, 20341, Control_c, 2, 11, 126
5, 20352, Control_c, 2, 11, 127
5, 20736, Control_c, 2, 11, 127
5, 20748, Control_c, 2, 11, 126
5, 20760, Control_c, 2, 11, 125
5, 20772, Control_c, 2, 11, 124
5, 20784, Control_c, 2, 11, 123
5, 20796, Control_c, 2, 11, 122
5, 20809, Control_c, 2, 11, 121
5, 20821, Control_c, 2, 11, 120
5, 20833, Control_c, 2, 11, 119
5, 20845, Control_c, 2, 11, 118
5, 20857, Control_c, 2, 11, 117
5, 20870, Control_c, 2, 11, 116
5, 20882, Control_c, 2, 11, 115
5, 20894, Control_c, 2, 11, 114
5, 20906, Control_c, 2, 11, 113
5, 20918, Control_c, 2, 11, 112
5, 20931, Control_c, 2, 11, 111
5, 20943, Control_c, 2, 11, 110
5, 20955, Control_c, 2, 11, 109
5, 20967, Control_c, 2, 11, 108
5, 20979, Control_c, 2, 11, 107
5, 20992, Control_c, 2, 11, 106
5, 21004, Control_c, 2, 11, 105
5, 21016, Control_c, 2, 11, 104
5, 21028, Control_c, 2, 11, 103
5, 21040, Control_c, 2, 11, 102
5, 21052, Control_c, 2, 11, 101
5, 21065, Control_c, 2, 11, 100
5, 21077, Control_c, 2, 11, 99
5, 21089, Control_c, 2, 11, 98
5, 21101, Control_c, 2, 11, 97
5, 21113, Control_c, 2, 11, 96
5, 21120, Note_on_c, 2, 67, 0
5, 21120, Note_on_c, 2, 69, 60
5, 21126, Control_c, 2, 11, 95
5, 21138, Control_c, 2, 11, 94
5, 21150, Control_c, 2, 11, 93
5, 21162, Control_c, 2, 11, 92
5, 21174, Control_c, 2, 11, 91
5, 21187, Control_c, 2, 11, 90
5, 21199, Control_c, 2, 11, 89
5, 21211, Control_c, 2, 11, 88
5, 21223, Control_c, 2, 11, 87
5, 21235, Control_c, 2, 11, 86
5, 21248, Control_c, 2, 11, 85
5, 21260, Control_c, 2, 11, 84
5, 21272, Control_c, 2, 11, 83
5, 21284, Control_c, 2, 11, 82
5, 21296, Control_c, 2, 11, 81
5, 21308, Control_c, 2, 11, 80
5, 21321, Control_c, 2, 11, 79
5, 21333, Control_c, 2, 11, 78
5, 21345, Control_c, 2, 11, 77
5, 21357, Control_c, 2, 11, 76
5, 21369, Control_c, 2, 11, 75
5, 21382, Control_c, 2, 11, 74
5, 21394, Control_c, 2, 11, 73
5, 21406, Control_c, 2, 11, 72
5, 21418, Control_c, 2, 11, 71
5, 21430, Control_c, 2, 11, 70
5, 21443, Control_c, 2, 11, 69
5, 21455, Control_c, 2, 11, 68
5, 21456, Note_on_c, 2, 69, 0
5, 21467, Control_c, 2, 11, 67
5, 21479, Control_c, 2, 11, 66
5, 21491, Control_c, 2, 11, 65
5, 21504, Control_c, 2, 11, 64
5, 21504, Control_c, 2, 11, 127
5, 29952, Control_c, 2, 11, 64
5, 29952, Note_on_c, 2, 69, 94
5, 29961, Control_c, 2, 11, 65
5, 29970, Control_c, 2, 11, 66
5, 29979, Control_c, 2, 11, 67
5, 29988, Control_c, 2, 11, 68
5, 29997, Control_c, 2, 11, 69
5, 30006, Control_c, 2, 11, 70
5, 30016, Control_c, 2, 11, 71
5, 30025, Control_c, 2, 11, 72
5, 30034, Control_c, 2, 11, 73
5, 30043, Control_c, 2, 11, 74
5, 30052, Control_c, 2, 11, 75
5, 30061, Control_c, 2, 11, 76
5, 30070, Control_c, 2, 11, 77
5, 30080, Control_c, 2, 11, 78
5, 30089, Control_c, 2, 11, 79
5, 30098, Control_c, 2, 11, 80
5, 30107, Control_c, 2, 11, 81
5, 30116, Control_c, 2, 11, 82
5, 30125, Control_c, 2, 11, 83
5, 30134, Control_c, 2, 11, 84
5, 30144, Control_c, 2, 11, 85
5, 30153, Control_c, 2, 11, 86
5, 30162, Control_c, 2, 11, 87
5, 30171, Control_c, 2, 11, 88
5, 30180, Control_c, 2, 11, 89
5, 30189, Control_c, 2, 11, 90
5, 30198, Control_c, 2, 11, 91
5, 30208, Control_c, 2, 11, 92
5, 30217, Control_c, 2, 11, 93
5, 30226, Control_c, 2, 11, 94
5, 30235, Control_c, 2, 11, 95
5, 30244, Control_c, 2, 11, 96
5, 30253, Control_c, 2, 11, 97
5, 30262, Control_c, 2, 11, 98
5, 30272, Control_c, 2, 11, 99
5, 30281, Control_c, 2, 11, 100
5, 30290, Control_c, 2, 11, 101
5, 30299, Control_c, 2, 11, 102
5, 30308, Control_c, 2, 11, 103
5, 30317, Control_c, 2, 11, 104
5, 30326, Control_c, 2, 11, 105
5, 30336, Note_on_c, 2, 69, 0
5, 30336, Control_c, 2, 11, 106
5, 30336, Note_on_c, 2, 69, 92
5, 30345, Control_c, 2, 11, 107
5, 30354, Control_c, 2, 11, 108
5, 30363, Control_c, 2, 11, 109
5, 30372, Control_c, 2, 11, 110
5, 30381, Control_c, 2, 11, 111
5, 30390, Control_c, 2, 11, 112
5, 30400, Control_c, 2, 11, 113
5, 30409, Control_c, 2, 11, 114
5, 30418, Control_c, 2, 11, 115
5, 30427, Control_c, 2, 11, 116
5, 30436, Control_c, 2, 11, 117
5, 30445, Control_c, 2, 11, 118
5, 30454, Control_c, 2, 11, 119
5, 30464, Note_on_c, 2, 69, 0
5, 30464, Control_c, 2, 11, 120
5, 30464, Note_on_c, 2, 71, 95
5, 30473, Control_c, 2, 11, 121
5, 30482, Control_c, 2, 11, 122
5, 30491, Control_c, 2, 11, 123
5, 30500, Control_c, 2, 11, 124
5, 30509, Control_c, 2, 11, 125
5, 30518, Control_c, 2, 11, 126
5, 30528, Control_c, 2, 11, 127
5, 30656, Note_on_c, 2, 71, 0
5, 30656, Note_on_c, 2, 70, 96
5, 30720, Note_on_c, 2, 70, 0
5, 30720, Control_c, 2, 11, 127
5, 30720, Note_on_c, 2, 69, 42
5, 30880, Note_on_c, 2, 69, 0
5, 33792, Control_c, 2, 11, 30
5, 33792, Note_on_c, 2, 68, 87
5, 34720, Note_on_c, 2, 68, 0
5, 34752, Control_c, 2, 11, 45
5, 34752, Note_on_c, 2, 56, 97
5, 34775, Control_c, 2, 11, 46
5, 34798, Control_c, 2, 11, 47
5, 34822, Control_c, 2, 11, 48
5, 34845, Control_c, 2, 11, 49
5, 34869, Control_c, 2, 11, 50
5, 34892, Control_c, 2, 11, 51
5, 34915, Control_c, 2, 11, 52
5, 34939, Control_c, 2, 11, 53
5, 34962, Control_c, 2, 11, 54
5, 34986, Control_c, 2, 11, 55
5, 35009, Control_c, 2, 11, 56
5, 35032, Control_c, 2, 11, 57
5, 35056, Control_c, 2, 11, 58
5, 35079, Control_c, 2, 11, 59
5, 35103, Control_c, 2, 11, 60
5, 35126, Control_c, 2, 11, 61
5, 35150, Control_c, 2, 11, 62
5, 35173, Control_c, 2, 11, 63
5, 35196, Control_c, 2, 11, 64
5, 35220, Control_c, 2, 11, 65
5, 35243, Control_c, 2, 11, 66
5, 35267, Control_c, 2, 11, 67
5, 35278, Note_on_c, 2, 56, 0
5, 35280, Note_on_c, 2, 68, 91
5, 35290, Control_c, 2, 11, 68
5, 35313, Control_c, 2, 11, 69
5, 35326, Note_on_c, 2, 68, 0
5, 35328, Note_on_c, 2, 68, 96
5, 35337, Control_c, 2, 11, 70
5, 35360, Control_c, 2, 11, 71
5, 35384, Control_c, 2, 11, 72
5, 35407, Control_c, 2, 11, 73
5, 35431, Control_c, 2, 11, 74
5, 35454, Control_c, 2, 11, 75
5, 35477, Control_c, 2, 11, 76
5, 35501, Control_c, 2, 11, 77
5, 35524, Control_c, 2, 11, 78
5, 35548, Control_c, 2, 11, 79
5, 35571, Control_c, 2, 11, 80
5, 35594, Control_c, 2, 11, 81
5, 35618, Control_c, 2, 11, 82
5, 35641, Control_c, 2, 11, 83
5, 35665, Control_c, 2, 11, 84
5, 35688, Control_c, 2, 11, 85
5, 35712, Control_c, 2, 11, 86
5, 35735, Control_c, 2, 11, 87
5, 35758, Control_c, 2, 11, 88
5, 35782, Control_c, 2, 11, 89
5, 35805, Control_c, 2, 11, 90
5, 35829, Control_c, 2, 11, 91
5, 35852, Control_c, 2, 11, 92
5, 35875, Control_c, 2, 11, 93
5, 35899, Control_c, 2, 11, 94
5, 35922, Control_c, 2, 11, 95
5, 35946, Control_c, 2, 11, 96
5, 35969, Control_c, 2, 11, 97
5, 35992, Control_c, 2, 11, 98
5, 36016, Control_c, 2, 11, 99
5, 36039, Control_c, 2, 11, 100
5, 36063, Control_c, 2, 11, 101
5, 36086, Control_c, 2, 11, 102
5, 36110, Control_c, 2, 11, 103
5, 36133, Control_c, 2, 11, 104
5, 36156, Control_c, 2, 11, 105
5, 36180, Control_c, 2, 11, 106
5, 36203, Control_c, 2, 11, 107
5, 36227, Control_c, 2, 11, 108
5, 36250, Control_c, 2, 11, 109
5, 36273, Control_c, 2, 11, 110
5, 36297, Control_c, 2, 11, 111
5, 36320, Control_c, 2, 11, 112
5, 36344, Control_c, 2, 11, 113
5, 36367, Control_c, 2, 11, 114
5, 36391, Control_c, 2, 11, 115
5, 36414, Control_c, 2, 11, 116
5, 36437, Control_c, 2, 11, 117
5, 36461, Control_c, 2, 11, 118
5, 36484, Control_c, 2, 11, 119
5, 36508, Control_c, 2, 11, 120
5, 36531, Control_c, 2, 11, 121
5, 36554, Control_c, 2, 11, 122
5, 36578, Control_c, 2, 11, 123
5, 36601, Control_c, 2, 11, 124
5, 36625, Control_c, 2, 11, 125
5, 36648, Control_c, 2, 11, 126
5, 36672, Control_c, 2, 11, 127
5, 36816, Note_on_c, 2, 68, 0
5, 36864, Control_c, 2, 11, 30
5, 36864, Note_on_c, 2, 68, 87
5, 37792, Note_on_c, 2, 68, 0
5, 37824, Control_c, 2, 11, 45
5, 37824, Note_on_c, 2, 56, 95
5, 37847, Control_c, 2, 11, 46
5, 37870, Control_c, 2, 11, 47
5, 37894, Control_c, 2, 11, 48
5, 37917, Control_c, 2, 11, 49
5, 37941, Control_c, 2, 11, 50
5, 37964, Control_c, 2, 11, 51
5, 37987, Control_c, 2, 11, 52
5, 38011, Control_c, 2, 11, 53
5, 38034, Control_c, 2, 11, 54
5, 38058, Control_c, 2, 11, 55
5, 38081, Control_c, 2, 11, 56
5, 38104, Control_c, 2, 11, 57
5, 38128, Control_c, 2, 11, 58
5, 38151, Control_c, 2, 11, 59
5, 38175, Control_c, 2, 11, 60
5, 38198, Control_c, 2, 11, 61
5, 38222, Control_c, 2, 11, 62
5, 38245, Control_c, 2, 11, 63
5, 38268, Control_c, 2, 11, 64
5, 38292, Control_c, 2, 11, 65
5, 38315, Control_c, 2, 11, 66
5, 38339, Control_c, 2, 11, 67
5, 38350, Note_on_c, 2, 56, 0
5, 38352, Note_on_c, 2, 68, 97
5, 38362, Control_c, 2, 11, 68
5, 38385, Control_c, 2, 11, 69
5, 38398, Note_on_c, 2, 68, 0
5, 38400, Note_on_c, 2, 68, 88
5, 38409, Control_c, 2, 11, 70
5, 38432, Control_c, 2, 11, 71
5, 38456, Control_c, 2, 11, 72
5, 38479, Control_c, 2, 11, 73
5, 38503, Control_c, 2, 11, 74
5, 38526, Control_c, 2, 11, 75
5, 38549, Control_c, 2, 11, 76
5, 38573, Control_c, 2, 11, 77
5, 38596, Control_c, 2, 11, 78
5, 38620, Control_c, 2, 11, 79
5, 38643, Control_c, 2, 11, 80
5, 38666, Control_c, 2, 11, 81
5, 38690, Control_c, 2, 11, 82
5, 38713, Control_c, 2, 11, 83
5, 38737, Control_c, 2, 11, 84
5, 38760, Control_c, 2, 11, 85
5, 38784, Control_c, 2, 11, 86
5, 38807, Control_c, 2, 11, 87
5, 38830, Control_c, 2, 11, 88
5, 38854, Control_c, 2, 11, 89
5, 38877, Control_c, 2, 11, 90
5, 38901, Control_c, 2, 11, 91
5, 38924, Control_c, 2, 11, 92
5, 38947, Control_c, 2, 11, 93
5, 38971, Control_c, 2, 11, 94
5, 38994, Control_c, 2, 11, 95
5, 39018, Control_c, 2, 11, 96
5, 39041, Control_c, 2, 11, 97
5, 39064, Control_c, 2, 11, 98
5, 39088, Control_c, 2, 11, 99
5, 39111, Control_c, 2, 11, 100
5, 39135, Control_c, 2, 11, 101
5, 39158, Control_c, 2, 11, 102
5, 39182, Control_c, 2, 11, 103
5, 39205, Control_c, 2, 11, 104
5, 39228, Control_c, 2, 11, 105
5, 39252, Control_c, 2, 11, 106
5, 39275, Control_c, 2, 11, 107
5, 39299, Control_c, 2, 11, 108
5, 39322, Control_c, 2, 11, 109
5, 39345, Control_c, 2, 11, 110
5, 39369, Control_c, 2, 11, 111
5, 39392, Control_c, 2, 11, 112
5, 39416, Control_c, 2, 11, 113
5, 39439, Control_c, 2, 11, 114
5, 39463, Control_c, 2, 11, 115
5, 39486, Control_c, 2, 11, 116
5, 39509, Control_c, 2, 11, 117
5, 39533, Control_c, 2, 11, 118
5, 39556, Control_c, 2, 11, 119
5, 39580, Control_c, 2, 11, 120
5, 39603, Control_c, 2, 11, 121
5, 39626, Control_c, 2, 11, 122
5, 39650, Control_c, 2, 11, 123
5, 39673, Control_c, 2, 11, 124
5, 39697, Control_c, 2, 11, 125
5, 39720, Control_c, 2, 11, 126
5, 39744, Control_c, 2, 11, 127
5, 39888, Note_on_c, 2, 68, 0
5, 39936, Control_c, 2, 11, 64
5, 39936, Note_on_c, 2, 68, 93
5, 39957, Control_c, 2, 11, 65
5, 39978, Control_c, 2, 11, 66
5, 40000, Control_c, 2, 11, 67
5, 40021, Control_c, 2, 11, 68
5, 40042, Control_c, 2, 11, 69
5, 40064, Control_c, 2, 11, 70
5, 40085, Control_c, 2, 11, 71
5, 40106, Control_c, 2, 11, 72
5, 40128, Control_c, 2, 11, 73
5, 40149, Control_c, 2, 11, 74
5, 40170, Control_c, 2, 11, 75
5, 40192, Control_c, 2, 11, 76
5, 40213, Control_c, 2, 11, 77
5, 40234, Control_c, 2, 11, 78
5, 40256, Control_c, 2, 11, 79
5, 40277, Control_c, 2, 11, 80
5, 40298, Control_c, 2, 11, 81
5, 40320, Control_c, 2, 11, 82
5, 40341, Control_c, 2, 11, 83
5, 40362, Control_c, 2, 11, 84
5, 40384, Control_c, 2, 11, 85
5, 40405, Control_c, 2, 11, 86
5, 40426, Control_c, 2, 11, 87
5, 40448, Control_c, 2, 11, 88
5, 40469, Control_c, 2, 11, 89
5, 40490, Control_c, 2, 11, 90
5, 40512, Control_c, 2, 11, 91
5, 40533, Control_c, 2, 11, 92
5, 40554, Control_c, 2, 11, 93
5, 40576, Control_c, 2, 11, 94
5, 40597, Control_c, 2, 11, 95
5, 40618, Control_c, 2, 11, 96
5, 40640, Control_c, 2, 11, 97
5, 40661, Control_c, 2, 11, 98
5, 40682, Control_c, 2, 11, 99
5, 40704, Control_c, 2, 11, 100
5, 40725, Control_c, 2, 11, 101
5, 40746, Control_c, 2, 11, 102
5, 40768, Control_c, 2, 11, 103
5, 40789, Control_c, 2, 11, 104
5, 40810, Control_c, 2, 11, 105
5, 40832, Control_c, 2, 11, 106
5, 40853, Control_c, 2, 11, 107
5, 40874, Control_c, 2, 11, 108
5, 40896, Control_c, 2, 11, 109
5, 40917, Control_c, 2, 11, 110
5, 40938, Control_c, 2, 11, 111
5, 40960, Control_c, 2, 11, 112
5, 40981, Control_c, 2, 11, 113
5, 41002, Control_c, 2, 11, 114
5, 41024, Control_c, 2, 11, 115
5, 41045, Control_c, 2, 11, 116
5, 41066, Control_c, 2, 11, 117
5, 41088, Control_c, 2, 11, 118
5, 41109, Control_c, 2, 11, 119
5, 41130, Control_c, 2, 11, 120
5, 41152, Control_c, 2, 11, 121
5, 41173, Control_c, 2, 11, 122
5, 41194, Control_c, 2, 11, 123
5, 41216, Control_c, 2, 11, 124
5, 41237, Control_c, 2, 11, 125
5, 41258, Control_c, 2, 11, 126
5, 41280, Control_c, 2, 11, 127
5, 41424, Note_on_c, 2, 68, 0
5, 42240, Control_c, 2, 7, 92
5, 43008, Control_c, 2, 11, 127
5, 43776, Control_c, 2, 11, 92
5, 43786, Control_c, 2, 11, 93
5, 43797, Control_c, 2, 11, 94
5, 43808, Control_c, 2, 11, 95
5, 43819, Control_c, 2, 11, 96
5, 43830, Control_c, 2, 11, 97
5, 43841, Control_c, 2, 11, 98
5, 43852, Control_c, 2, 11, 99
5, 43863, Control_c, 2, 11, 100
5, 43874, Control_c, 2, 11, 101
5, 43885, Control_c, 2, 11, 102
5, 43896, Control_c, 2, 11, 103
5, 43904, Note_on_c, 2, 69, 97
5, 43907, Control_c, 2, 11, 104
5, 43918, Control_c, 2, 11, 105
5, 43929, Control_c, 2, 11, 106
5, 43940, Control_c, 2, 11, 107
5, 43951, Control_c, 2, 11, 108
5, 43962, Control_c, 2, 11, 109
5, 43973, Control_c, 2, 11, 110
5, 43984, Control_c, 2, 11, 111
5, 43995, Control_c, 2, 11, 112
5, 44006, Control_c, 2, 11, 113
5, 44017, Control_c, 2, 11, 114
5, 44028, Control_c, 2, 11, 115
5, 44032, Note_on_c, 2, 69, 0
5, 44032, Note_on_c, 2, 68, 94
5, 44039, Control_c, 2, 11, 116
5, 44050, Control_c, 2, 11, 117
5, 44061, Control_c, 2, 11, 118
5, 44072, Control_c, 2, 11, 119
5, 44083, Control_c, 2, 11, 120
5, 44094, Control_c, 2, 11, 121
5, 44105, Control_c, 2, 11, 122
5, 44116, Control_c, 2, 11, 123
5, 44127, Control_c, 2, 11, 124
5, 44138, Control_c, 2, 11, 125
5, 44149, Control_c, 2, 11, 126
5, 44160, Control_c, 2, 11, 127
5, 44928, Note_on_c, 2, 68, 0
5, 44928, Control_c, 2, 11, 92
5, 44928, Note_on_c, 2, 69, 95
5, 44938, Control_c, 2, 11, 93
5, 44949, Control_c, 2, 11, 94
5, 44960, Control_c, 2, 11, 95
5, 44971, Control_c, 2, 11, 96
5, 44982, Control_c, 2, 11, 97
5, 44993, Control_c, 2, 11, 98
5, 45004, Control_c, 2, 11, 99
5, 45015, Control_c, 2, 11, 100
5, 45026, Control_c, 2, 11, 101
5, 45037, Control_c, 2, 11, 102
5, 45048, Control_c, 2, 11, 103
5, 45056, Note_on_c, 2, 69, 0
5, 45056, Note_on_c, 2, 69, 94
5, 45059, Control_c, 2, 11, 104
5, 45070, Control_c, 2, 11, 105
5, 45081, Control_c, 2, 11, 106
5, 45092, Control_c, 2, 11, 107
5, 45103, Control_c, 2, 11, 108
5, 45114, Control_c, 2, 11, 109
5, 45125, Control_c, 2, 11, 110
5, 45136, Control_c, 2, 11, 111
5, 45147, Control_c, 2, 11, 112
5, 45158, Control_c, 2, 11, 113
5, 45169, Control_c, 2, 11, 114
5, 45180, Control_c, 2, 11, 115
5, 45184, Note_on_c, 2, 69, 0
5, 45184, Note_on_c, 2, 68, 97
5, 45191, Control_c, 2, 11, 116
5, 45202, Control_c, 2, 11, 117
5, 45213, Control_c, 2, 11, 118
5, 45224, Control_c, 2, 11, 119
5, 45235, Control_c, 2, 11, 120
5, 45246, Control_c, 2, 11, 121
5, 45257, Control_c, 2, 11, 122
5, 45268, Control_c, 2, 11, 123
5, 45279, Control_c, 2, 11, 124
5, 45290, Control_c, 2, 11, 125
5, 45301, Control_c, 2, 11, 126
5, 45310, Note_on_c, 2, 68, 0
5, 45312, Control_c, 2, 11, 127
5, 45312, Control_c, 2, 11, 92
5, 45322, Control_c, 2, 11, 93
5, 45333, Control_c, 2, 11, 94
5, 45344, Control_c, 2, 11, 95
5, 45355, Control_c, 2, 11, 96
5, 45366, Control_c, 2, 11, 97
5, 45377, Control_c, 2, 11, 98
5, 45388, Control_c, 2, 11, 99
5, 45399, Control_c, 2, 11, 100
5, 45410, Control_c, 2, 11, 101
5, 45421, Control_c, 2, 11, 102
5, 45432, Control_c, 2, 11, 103
5, 45440, Note_on_c, 2, 70, 88
5, 45443, Control_c, 2, 11, 104
5, 45454, Control_c, 2, 11, 105
5, 45465, Control_c, 2, 11, 106
5, 45476, Control_c, 2, 11, 107
5, 45487, Control_c, 2, 11, 108
5, 45498, Control_c, 2, 11, 109
5, 45509, Control_c, 2, 11, 110
5, 45520, Control_c, 2, 11, 111
5, 45531, Control_c, 2, 11, 112
5, 45542, Control_c, 2, 11, 113
5, 45553, Control_c, 2, 11, 114
5, 45564, Control_c, 2, 11, 115
5, 45568, Note_on_c, 2, 70, 0
5, 45568, Note_on_c, 2, 68, 93
5, 45575, Control_c, 2, 11, 116
5, 45586, Control_c, 2, 11, 117
5, 45597, Control_c, 2, 11, 118
5, 45608, Control_c, 2, 11, 119
5, 45619, Control_c, 2, 11, 120
5, 45630, Control_c, 2, 11, 121
5, 45641, Control_c, 2, 11, 122
5, 45652, Control_c, 2, 11, 123
5, 45663, Control_c, 2, 11, 124
5, 45674, Control_c, 2, 11, 125
5, 45685, Control_c, 2, 11, 126
5, 45696, Control_c, 2, 11, 127
5, 46464, Note_on_c, 2, 68, 0
5, 46464, Control_c, 2, 11, 92
5, 46464, Note_on_c, 2, 70, 94
5, 46474, Control_c, 2, 11, 93
5, 46485, Control_c, 2, 11, 94
5, 46496, Control_c, 2, 11, 95
5, 46507, Control_c, 2, 11, 96
5, 46518, Control_c, 2, 11, 97
5, 46529, Control_c, 2, 11, 98
5, 46540, Control_c, 2, 11, 99
5, 46551, Control_c, 2, 11, 100
5, 46562, Control_c, 2, 11, 101
5, 46573, Control_c, 2, 11, 102
5, 46584, Control_c, 2, 11, 103
5, 46592, Note_on_c, 2, 70, 0
5, 46592, Note_on_c, 2, 70, 88
5, 46595, Control_c, 2, 11, 104
5, 46606, Control_c, 2, 11, 105
5, 46617, Control_c, 2, 11, 106
5, 46628, Control_c, 2, 11, 107
5, 46639, Control_c, 2, 11, 108
5, 46650, Control_c, 2, 11, 109
5, 46661, Control_c, 2, 11, 110
5, 46672, Control_c, 2, 11, 111
5, 46683, Control_c, 2, 11, 112
5, 46694, Control_c, 2, 11, 113
5, 46705, Control_c, 2, 11, 114
5, 46716, Control_c, 2, 11, 115
5, 46720, Note_on_c, 2, 70, 0
5, 46720, Note_on_c, 2, 68, 96
5, 46727, Control_c, 2, 11, 116
5, 46738, Control_c, 2, 11, 117
5, 46749, Control_c, 2, 11, 118
5, 46760, Control_c, 2, 11, 119
5, 46771, Control_c, 2, 11, 120
5, 46782, Control_c, 2, 11, 121
5, 46793, Control_c, 2, 11, 122
5, 46804, Control_c, 2, 11, 123
5, 46815, Control_c, 2, 11, 124
5, 46826, Control_c, 2, 11, 125
5, 46837, Control_c, 2, 11, 126
5, 46846, Note_on_c, 2, 68, 0
5, 46848, Control_c, 2, 11, 127
5, 46848, Note_on_c, 2, 71, 74
5, 46976, Note_on_c, 2, 71, 0
5, 46976, Note_on_c, 2, 71, 76
5, 47104, Note_on_c, 2, 71, 0
5, 47104, Note_on_c, 2, 70, 76
5, 47232, Note_on_c, 2, 70, 0
5, 47232, Note_on_c, 2, 69, 73
5, 47360, Note_on_c, 2, 69, 0
5, 47360, Note_on_c, 2, 69, 73
5, 47488, Note_on_c, 2, 69, 0
5, 47488, Note_on_c, 2, 66, 80
5, 47616, Note_on_c, 2, 66, 0
5, 47616, Control_c, 2, 11, 92
5, 47616, Note_on_c, 2, 62, 71
5, 47626, Control_c, 2, 11, 93
5, 47637, Control_c, 2, 11, 94
5, 47648, Control_c, 2, 11, 95
5, 47659, Control_c, 2, 11, 96
5, 47670, Control_c, 2, 11, 97
5, 47681, Control_c, 2, 11, 98
5, 47692, Control_c, 2, 11, 99
5, 47703, Control_c, 2, 11, 100
5, 47714, Control_c, 2, 11, 101
5, 47725, Control_c, 2, 11, 102
5, 47736, Control_c, 2, 11, 103
5, 47747, Control_c, 2, 11, 104
5, 47758, Control_c, 2, 11, 105
5, 47769, Control_c, 2, 11, 106
5, 47780, Control_c, 2, 11, 107
5, 47791, Control_c, 2, 11, 108
5, 47802, Control_c, 2, 11, 109
5, 47808, Note_on_c, 2, 62, 0
5, 47808, Note_on_c, 2, 64, 70
5, 47813, Control_c, 2, 11, 110
5, 47824, Control_c, 2, 11, 111
5, 47835, Control_c, 2, 11, 112
5, 47846, Control_c, 2, 11, 113
5, 47857, Control_c, 2, 11, 114
5, 47868, Control_c, 2, 11, 115
5, 47879, Control_c, 2, 11, 116
5, 47890, Control_c, 2, 11, 117
5, 47901, Control_c, 2, 11, 118
5, 47912, Control_c, 2, 11, 119
5, 47923, Control_c, 2, 11, 120
5, 47934, Control_c, 2, 11, 121
5, 47945, Control_c, 2, 11, 122
5, 47956, Control_c, 2, 11, 123
5, 47967, Control_c, 2, 11, 124
5, 47978, Control_c, 2, 11, 125
5, 47989, Control_c, 2, 11, 126
5, 48000, Note_on_c, 2, 64, 0
5, 48000, Control_c, 2, 11, 127
5, 48000, Note_on_c, 2, 65, 73
5, 48336, Note_on_c, 2, 65, 0
5, 48384, Note_on_c, 2, 64, 72
5, 48512, Note_on_c, 2, 64, 0
5, 48512, Note_on_c, 2, 64, 73
5, 48640, Note_on_c, 2, 64, 0
5, 48640, Note_on_c, 2, 63, 77
5, 48768, Note_on_c, 2, 63, 0
5, 48768, Note_on_c, 2, 62, 75
5, 48896, Note_on_c, 2, 62, 0
5, 48896, Note_on_c, 2, 62, 79
5, 49024, Note_on_c, 2, 62, 0
5, 49024, Note_on_c, 2, 59, 80
5, 49152, Note_on_c, 2, 59, 0
5, 49152, Note_on_c, 2, 56, 86
5, 49344, Note_on_c, 2, 56, 0
5, 49344, Note_on_c, 2, 60, 92
5, 49536, Note_on_c, 2, 60, 0
5, 49536, Control_c, 2, 11, 92
5, 49536, Note_on_c, 2, 64, 95
5, 49920, Control_c, 2, 11, 92
5, 49941, Control_c, 2, 11, 93
5, 49963, Control_c, 2, 11, 94
5, 49985, Control_c, 2, 11, 95
5, 50007, Control_c, 2, 11, 96
5, 50029, Control_c, 2, 11, 97
5, 50051, Control_c, 2, 11, 98
5, 50073, Control_c, 2, 11, 99
5, 50095, Control_c, 2, 11, 100
5, 50117, Control_c, 2, 11, 101
5, 50139, Control_c, 2, 11, 102
5, 50161, Control_c, 2, 11, 103
5, 50183, Control_c, 2, 11, 104
5, 50205, Control_c, 2, 11, 105
5, 50227, Control_c, 2, 11, 106
5, 50249, Control_c, 2, 11, 107
5, 50271, Control_c, 2, 11, 108
5, 50293, Control_c, 2, 11, 109
5, 50304, Note_on_c, 2, 64, 0
5, 50304, Note_on_c, 2, 67, 93
5, 50314, Control_c, 2, 11, 110
5, 50336, Control_c, 2, 11, 111
5, 50358, Control_c, 2, 11, 112
5, 50380, Control_c, 2, 11, 113
5, 50402, Control_c, 2, 11, 114
5, 50424, Control_c, 2, 11, 115
5, 50446, Control_c, 2, 11, 116
5, 50468, Control_c, 2, 11, 117
5, 50490, Control_c, 2, 11, 118
5, 50496, Note_on_c, 2, 67, 0
5, 50496, Note_on_c, 2, 68, 90
5, 50512, Control_c, 2, 11, 119
5, 50534, Control_c, 2, 11, 120
5, 50556, Control_c, 2, 11, 121
5, 50578, Control_c, 2, 11, 122
5, 50600, Control_c, 2, 11, 123
5, 50622, Control_c, 2, 11, 124
5, 50644, Control_c, 2, 11, 125
5, 50656, Note_on_c, 2, 68, 0
5, 50666, Control_c, 2, 11, 126
5, 50688, Control_c, 2, 11, 127
5, 50688, Control_c, 2, 11, 92
5, 50688, Note_on_c, 2, 69, 90
5, 50698, Control_c, 2, 11, 93
5, 50709, Control_c, 2, 11, 94
5, 50720, Control_c, 2, 11, 95
5, 50731, Control_c, 2, 11, 96
5, 50742, Control_c, 2, 11, 97
5, 50753, Control_c, 2, 11, 98
5, 50764, Control_c, 2, 11, 99
5, 50775, Control_c, 2, 11, 100
5, 50786, Control_c, 2, 11, 101
5, 50797, Control_c, 2, 11, 102
5, 50808, Control_c, 2, 11, 103
5, 50816, Note_on_c, 2, 69, 0
5, 50816, Note_on_c, 2, 69, 97
5, 50819, Control_c, 2, 11, 104
5, 50830, Control_c, 2, 11, 105
5, 50841, Control_c, 2, 11, 106
5, 50852, Control_c, 2, 11, 107
5, 50863, Control_c, 2, 11, 108
5, 50874, Control_c, 2, 11, 109
5, 50885, Control_c, 2, 11, 110
5, 50896, Control_c, 2, 11, 111
5, 50907, Control_c, 2, 11, 112
5, 50918, Control_c, 2, 11, 113
5, 50929, Control_c, 2, 11, 114
5, 50940, Control_c, 2, 11, 115
5, 50944, Note_on_c, 2, 69, 0
5, 50944, Note_on_c, 2, 68, 94
5, 50951, Control_c, 2, 11, 116
5, 50962, Control_c, 2, 11, 117
5, 50973, Control_c, 2, 11, 118
5, 50984, Control_c, 2, 11, 119
5, 50995, Control_c, 2, 11, 120
5, 51006, Control_c, 2, 11, 121
5, 51017, Control_c, 2, 11, 122
5, 51028, Control_c, 2, 11, 123
5, 51039, Control_c, 2, 11, 124
5, 51050, Control_c, 2, 11, 125
5, 51061, Control_c, 2, 11, 126
5, 51072, Control_c, 2, 11, 127
5, 51792, Note_on_c, 2, 68, 0
5, 51840, Control_c, 2, 11, 92
5, 51840, Note_on_c, 2, 69, 97
5, 51850, Control_c, 2, 11, 93
5, 51861, Control_c, 2, 11, 94
5, 51872, Control_c, 2, 11, 95
5, 51883, Control_c, 2, 11, 96
5, 51894, Control_c, 2, 11, 97
5, 51905, Control_c, 2, 11, 98
5, 51916, Control_c, 2, 11, 99
5, 51927, Control_c, 2, 11, 100
5, 51938, Control_c, 2, 11, 101
5, 51949, Control_c, 2, 11, 102
5, 51960, Control_c, 2, 11, 103
5, 51966, Note_on_c, 2, 69, 0
5, 51968, Note_on_c, 2, 69, 96
5, 51971, Control_c, 2, 11, 104
5, 51982, Control_c, 2, 11, 105
5, 51993, Control_c, 2, 11, 106
5, 52004, Control_c, 2, 11, 107
5, 52015, Control_c, 2, 11, 108
5, 52026, Control_c, 2, 11, 109
5, 52037, Control_c, 2, 11, 110
5, 52048, Control_c, 2, 11, 111
5, 52059, Control_c, 2, 11, 112
5, 52070, Control_c, 2, 11, 113
5, 52081, Control_c, 2, 11, 114
5, 52092, Control_c, 2, 11, 115
5, 52094, Note_on_c, 2, 69, 0
5, 52096, Note_on_c, 2, 68, 88
5, 52103, Control_c, 2, 11, 116
5, 52114, Control_c, 2, 11, 117
5, 52125, Control_c, 2, 11, 118
5, 52136, Control_c, 2, 11, 119
5, 52147, Control_c, 2, 11, 120
5, 52158, Control_c, 2, 11, 121
5, 52169, Control_c, 2, 11, 122
5, 52180, Control_c, 2, 11, 123
5, 52191, Control_c, 2, 11, 124
5, 52202, Control_c, 2, 11, 125
5, 52213, Control_c, 2, 11, 126
5, 52222, Note_on_c, 2, 68, 0
5, 52224, Control_c, 2, 11, 127
5, 52224, Control_c, 2, 11, 92
5, 52224, Note_on_c, 2, 70, 93
5, 52234, Control_c, 2, 11, 93
5, 52245, Control_c, 2, 11, 94
5, 52256, Control_c, 2, 11, 95
5, 52267, Control_c, 2, 11, 96
5, 52278, Control_c, 2, 11, 97
5, 52289, Control_c, 2, 11, 98
5, 52300, Control_c, 2, 11, 99
5, 52311, Control_c, 2, 11, 100
5, 52322, Control_c, 2, 11, 101
5, 52333, Control_c, 2, 11, 102
5, 52344, Control_c, 2, 11, 103
5, 52352, Note_on_c, 2, 70, 0
5, 52352, Note_on_c, 2, 70, 87
5, 52355, Control_c, 2, 11, 104
5, 52366, Control_c, 2, 11, 105
5, 52377, Control_c, 2, 11, 106
5, 52388, Control_c, 2, 11, 107
5, 52399, Control_c, 2, 11, 108
5, 52410, Control_c, 2, 11, 109
5, 52421, Control_c, 2, 11, 110
5, 52432, Control_c, 2, 11, 111
5, 52443, Control_c, 2, 11, 112
5, 52454, Control_c, 2, 11, 113
5, 52465, Control_c, 2, 11, 114
5, 52476, Control_c, 2, 11, 115
5, 52480, Note_on_c, 2, 70, 0
5, 52480, Note_on_c, 2, 68, 94
5, 52487, Control_c, 2, 11, 116
5, 52498, Control_c, 2, 11, 117
5, 52509, Control_c, 2, 11, 118
5, 52520, Control_c, 2, 11, 119
5, 52531, Control_c, 2, 11, 120
5, 52542, Control_c, 2, 11, 121
5, 52553, Control_c, 2, 11, 122
5, 52564, Control_c, 2, 11, 123
5, 52575, Control_c, 2, 11, 124
5, 52586, Control_c, 2, 11, 125
5, 52597, Control_c, 2, 11, 126
5, 52608, Control_c, 2, 11, 127
5, 53328, Note_on_c, 2, 68, 0
5, 53376, Control_c, 2, 11, 92
5, 53376, Note_on_c, 2, 70, 92
5, 53386, Control_c, 2, 11, 93
5, 53397, Control_c, 2, 11, 94
5, 53408, Control_c, 2, 11, 95
5, 53419, Control_c, 2, 11, 96
5, 53430, Control_c, 2, 11, 97
5, 53441, Control_c, 2, 11, 98
5, 53452, Control_c, 2, 11, 99
5, 53463, Control_c, 2, 11, 100
5, 53474, Control_c, 2, 11, 101
5, 53485, Control_c, 2, 11, 102
5, 53496, Control_c, 2, 11, 103
5, 53502, Note_on_c, 2, 70, 0
5, 53504, Note_on_c, 2, 70, 94
5, 53507, Control_c, 2, 11, 104
5, 53518, Control_c, 2, 11, 105
5, 53529, Control_c, 2, 11, 106
5, 53540, Control_c, 2, 11, 107
5, 53551, Control_c, 2, 11, 108
5, 53562, Control_c, 2, 11, 109
5, 53573, Control_c, 2, 11, 110
5, 53584, Control_c, 2, 11, 111
5, 53595, Control_c, 2, 11, 112
5, 53606, Control_c, 2, 11, 113
5, 53617, Control_c, 2, 11, 114
5, 53628, Control_c, 2, 11, 115
5, 53630, Note_on_c, 2, 70, 0
5, 53632, Note_on_c, 2, 68, 92
5, 53639, Control_c, 2, 11, 116
5, 53650, Control_c, 2, 11, 117
5, 53661, Control_c, 2, 11, 118
5, 53672, Control_c, 2, 11, 119
5, 53683, Control_c, 2, 11, 120
5, 53694, Control_c, 2, 11, 121
5, 53705, Control_c, 2, 11, 122
5, 53716, Control_c, 2, 11, 123
5, 53727, Control_c, 2, 11, 124
5, 53738, Control_c, 2, 11, 125
5, 53749, Control_c, 2, 11, 126
5, 53758, Note_on_c, 2, 68, 0
5, 53760, Control_c, 2, 11, 127
5, 53760, Control_c, 2, 11, 92
5, 53760, Note_on_c, 2, 71, 87
5, 53792, Control_c, 2, 11, 93
5, 53825, Control_c, 2, 11, 94
5, 53858, Control_c, 2, 11, 95
5, 53888, Note_on_c, 2, 71, 0
5, 53888, Note_on_c, 2, 71, 94
5, 53891, Control_c, 2, 11, 96
5, 53924, Control_c, 2, 11, 97
5, 53957, Control_c, 2, 11, 98
5, 53990, Control_c, 2, 11, 99
5, 54016, Note_on_c, 2, 71, 0
5, 54016, Note_on_c, 2, 71, 97
5, 54023, Control_c, 2, 11, 100
5, 54056, Control_c, 2, 11, 101
5, 54089, Control_c, 2, 11, 102
5, 54122, Control_c, 2, 11, 103
5, 54142, Note_on_c, 2, 71, 0
5, 54144, Note_on_c, 2, 69, 96
5, 54154, Control_c, 2, 11, 104
5, 54187, Control_c, 2, 11, 105
5, 54220, Control_c, 2, 11, 106
5, 54253, Control_c, 2, 11, 107
5, 54272, Note_on_c, 2, 69, 0
5, 54272, Note_on_c, 2, 69, 95
5, 54286, Control_c, 2, 11, 108
5, 54319, Control_c, 2, 11, 109
5, 54352, Control_c, 2, 11, 110
5, 54385, Control_c, 2, 11, 111
5, 54400, Note_on_c, 2, 69, 0
5, 54400, Note_on_c, 2, 66, 92
5, 54418, Control_c, 2, 11, 112
5, 54451, Control_c, 2, 11, 113
5, 54484, Control_c, 2, 11, 114
5, 54517, Control_c, 2, 11, 115
5, 54526, Note_on_c, 2, 66, 0
5, 54528, Note_on_c, 2, 62, 94
5, 54549, Control_c, 2, 11, 116
5, 54582, Control_c, 2, 11, 117
5, 54615, Control_c, 2, 11, 118
5, 54648, Control_c, 2, 11, 119
5, 54681, Control_c, 2, 11, 120
5, 54714, Control_c, 2, 11, 121
5, 54720, Note_on_c, 2, 62, 0
5, 54720, Note_on_c, 2, 64, 93
5, 54747, Control_c, 2, 11, 122
5, 54780, Control_c, 2, 11, 123
5, 54813, Control_c, 2, 11, 124
5, 54846, Control_c, 2, 11, 125
5, 54879, Control_c, 2, 11, 126
5, 54912, Note_on_c, 2, 64, 0
5, 54912, Control_c, 2, 11, 127
5, 54912, Note_on_c, 2, 65, 94
5, 55296, Control_c, 2, 11, 127
5, 55308, Control_c, 2, 11, 126
5, 55320, Control_c, 2, 11, 125
5, 55332, Control_c, 2, 11, 124
5, 55344, Control_c, 2, 11, 123
5, 55356, Control_c, 2, 11, 122
5, 55369, Control_c, 2, 11, 121
5, 55381, Control_c, 2, 11, 120
5, 55393, Control_c, 2, 11, 119
5, 55405, Control_c, 2, 11, 118
5, 55417, Control_c, 2, 11, 117
5, 55430, Control_c, 2, 11, 116
5, 55442, Control_c, 2, 11, 115
5, 55454, Control_c, 2, 11, 114
5, 55466, Control_c, 2, 11, 113
5, 55478, Control_c, 2, 11, 112
5, 55491, Control_c, 2, 11, 111
5, 55503, Control_c, 2, 11, 110
5, 55515, Control_c, 2, 11, 109
5, 55527, Control_c, 2, 11, 108
5, 55539, Control_c, 2, 11, 107
5, 55552, Control_c, 2, 11, 106
5, 55564, Control_c, 2, 11, 105
5, 55576, Control_c, 2, 11, 104
5, 55588, Control_c, 2, 11, 103
5, 55600, Control_c, 2, 11, 102
5, 55612, Control_c, 2, 11, 101
5, 55625, Control_c, 2, 11, 100
5, 55637, Control_c, 2, 11, 99
5, 55649, Control_c, 2, 11, 98
5, 55661, Control_c, 2, 11, 97
5, 55673, Control_c, 2, 11, 96
5, 55680, Note_on_c, 2, 65, 0
5, 55680, Note_on_c, 2, 67, 88
5, 55686, Control_c, 2, 11, 95
5, 55698, Control_c, 2, 11, 94
5, 55710, Control_c, 2, 11, 93
5, 55722, Control_c, 2, 11, 92
5, 55734, Control_c, 2, 11, 91
5, 55747, Control_c, 2, 11, 90
5, 55759, Control_c, 2, 11, 89
5, 55771, Control_c, 2, 11, 88
5, 55783, Control_c, 2, 11, 87
5, 55795, Control_c, 2, 11, 86
5, 55808, Control_c, 2, 11, 85
5, 55820, Control_c, 2, 11, 84
5, 55832, Control_c, 2, 11, 83
5, 55844, Control_c, 2, 11, 82
5, 55856, Control_c, 2, 11, 81
5, 55868, Control_c, 2, 11, 80
5, 55881, Control_c, 2, 11, 79
5, 55893, Control_c, 2, 11, 78
5, 55905, Control_c, 2, 11, 77
5, 55917, Control_c, 2, 11, 76
5, 55929, Control_c, 2, 11, 75
5, 55942, Control_c, 2, 11, 74
5, 55954, Control_c, 2, 11, 73
5, 55966, Control_c, 2, 11, 72
5, 55978, Control_c, 2, 11, 71
5, 55990, Control_c, 2, 11, 70
5, 56003, Control_c, 2, 11, 69
5, 56015, Control_c, 2, 11, 68
5, 56027, Control_c, 2, 11, 67
5, 56039, Control_c, 2, 11, 66
5, 56051, Control_c, 2, 11, 65
5, 56064, Note_on_c, 2, 67, 0
5, 56064, Control_c, 2, 11, 64
5, 56064, Note_on_c, 2, 68, 90
5, 56224, Note_on_c, 2, 68, 0
5, 56832, Control_c, 2, 11, 92
5, 56832, Note_on_c, 2, 66, 60
5, 56842, Control_c, 2, 11, 93
5, 56853, Control_c, 2, 11, 94
5, 56864, Control_c, 2, 11, 95
5, 56875, Control_c, 2, 11, 96
5, 56886, Control_c, 2, 11, 97
5, 56897, Control_c, 2, 11, 98
5, 56908, Control_c, 2, 11, 99
5, 56919, Control_c, 2, 11, 100
5, 56930, Control_c, 2, 11, 101
5, 56941, Control_c, 2, 11, 102
5, 56952, Control_c, 2, 11, 103
5, 56963, Control_c, 2, 11, 104
5, 56974, Control_c, 2, 11, 105
5, 56985, Control_c, 2, 11, 106
5, 56996, Control_c, 2, 11, 107
5, 57007, Control_c, 2, 11, 108
5, 57018, Control_c, 2, 11, 109
5, 57029, Control_c, 2, 11, 110
5, 57040, Control_c, 2, 11, 111
5, 57051, Control_c, 2, 11, 112
5, 57062, Control_c, 2, 11, 113
5, 57073, Control_c, 2, 11, 114
5, 57084, Control_c, 2, 11, 115
5, 57095, Control_c, 2, 11, 116
5, 57106, Control_c, 2, 11, 117
5, 57117, Control_c, 2, 11, 118
5, 57128, Control_c, 2, 11, 119
5, 57139, Control_c, 2, 11, 120
5, 57150, Control_c, 2, 11, 121
5, 57161, Control_c, 2, 11, 122
5, 57172, Control_c, 2, 11, 123
5, 57183, Control_c, 2, 11, 124
5, 57194, Control_c, 2, 11, 125
5, 57205, Control_c, 2, 11, 126
5, 57216, Note_on_c, 2, 66, 0
5, 57216, Control_c, 2, 11, 127
5, 57216, Note_on_c, 2, 68, 61
5, 57552, Note_on_c, 2, 68, 0
5, 58368, Control_c, 2, 11, 92
5, 58368, Note_on_c, 2, 66, 63
5, 58389, Control_c, 2, 11, 93
5, 58411, Control_c, 2, 11, 94
5, 58433, Control_c, 2, 11, 95
5, 58455, Control_c, 2, 11, 96
5, 58477, Control_c, 2, 11, 97
5, 58499, Control_c, 2, 11, 98
5, 58521, Control_c, 2, 11, 99
5, 58543, Control_c, 2, 11, 100
5, 58565, Control_c, 2, 11, 101
5, 58587, Control_c, 2, 11, 102
5, 58609, Control_c, 2, 11, 103
5, 58631, Control_c, 2, 11, 104
5, 58653, Control_c, 2, 11, 105
5, 58675, Control_c, 2, 11, 106
5, 58697, Control_c, 2, 11, 107
5, 58719, Control_c, 2, 11, 108
5, 58741, Control_c, 2, 11, 109
5, 58752, Note_on_c, 2, 66, 0
5, 58752, Note_on_c, 2, 68, 59
5, 58762, Control_c, 2, 11, 110
5, 58784, Control_c, 2, 11, 111
5, 58806, Control_c, 2, 11, 112
5, 58828, Control_c, 2, 11, 113
5, 58850, Control_c, 2, 11, 114
5, 58872, Control_c, 2, 11, 115
5, 58894, Control_c, 2, 11, 116
5, 58916, Control_c, 2, 11, 117
5, 58938, Control_c, 2, 11, 118
5, 58944, Note_on_c, 2, 68, 0
5, 58944, Note_on_c, 2, 71, 65
5, 58960, Control_c, 2, 11, 119
5, 58982, Control_c, 2, 11, 120
5, 59004, Control_c, 2, 11, 121
5, 59026, Control_c, 2, 11, 122
5, 59048, Control_c, 2, 11, 123
5, 59070, Control_c, 2, 11, 124
5, 59092, Control_c, 2, 11, 125
5, 59104, Note_on_c, 2, 71, 0
5, 59114, Control_c, 2, 11, 126
5, 59136, Control_c, 2, 11, 127
5, 59904, Note_on_c, 2, 66, 63
5, 60240, Note_on_c, 2, 66, 0
5, 60288, Note_on_c, 2, 68, 65
5, 60624, Note_on_c, 2, 68, 0
5, 60672, Control_c, 2, 11, 92
5, 60672, Note_on_c, 2, 60, 76
5, 60715, Control_c, 2, 11, 93
5, 60720, Note_on_c, 2, 60, 0
5, 60720, Note_on_c, 2, 61, 76
5, 60759, Control_c, 2, 11, 94
5, 60803, Control_c, 2, 11, 95
5, 60847, Control_c, 2, 11, 96
5, 60891, Control_c, 2, 11, 97
5, 60935, Control_c, 2, 11, 98
5, 60979, Control_c, 2, 11, 99
5, 61023, Control_c, 2, 11, 100
5, 61066, Control_c, 2, 11, 101
5, 61110, Control_c, 2, 11, 102
5, 61154, Control_c, 2, 11, 103
5, 61198, Control_c, 2, 11, 104
5, 61242, Control_c, 2, 11, 105
5, 61286, Control_c, 2, 11, 106
5, 61330, Control_c, 2, 11, 107
5, 61374, Control_c, 2, 11, 108
5, 61418, Control_c, 2, 11, 109
5, 61461, Control_c, 2, 11, 110
5, 61505, Control_c, 2, 11, 111
5, 61549, Control_c, 2, 11, 112
5, 61593, Control_c, 2, 11, 113
5, 61637, Control_c, 2, 11, 114
5, 61681, Control_c, 2, 11, 115
5, 61725, Control_c, 2, 11, 116
5, 61769, Control_c, 2, 11, 117
5, 61813, Control_c, 2, 11, 118
5, 61824, Note_on_c, 2, 61, 0
5, 61824, Note_on_c, 2, 64, 73
5, 61856, Control_c, 2, 11, 119
5, 61900, Control_c, 2, 11, 120
5, 61944, Control_c, 2, 11, 121
5, 61988, Control_c, 2, 11, 122
5, 62032, Control_c, 2, 11, 123
5, 62076, Control_c, 2, 11, 124
5, 62120, Control_c, 2, 11, 125
5, 62160, Note_on_c, 2, 64, 0
5, 62164, Control_c, 2, 11, 126
5, 62208, Control_c, 2, 11, 127
5, 62208, Control_c, 2, 11, 92
5, 62208, Note_on_c, 2, 68, 107
5, 62229, Control_c, 2, 11, 93
5, 62251, Control_c, 2, 11, 94
5, 62273, Control_c, 2, 11, 95
5, 62295, Control_c, 2, 11, 96
5, 62317, Control_c, 2, 11, 97
5, 62339, Control_c, 2, 11, 98
5, 62361, Control_c, 2, 11, 99
5, 62383, Control_c, 2, 11, 100
5, 62405, Control_c, 2, 11, 101
5, 62427, Control_c, 2, 11, 102
5, 62449, Control_c, 2, 11, 103
5, 62471, Control_c, 2, 11, 104
5, 62493, Control_c, 2, 11, 105
5, 62515, Control_c, 2, 11, 106
5, 62537, Control_c, 2, 11, 107
5, 62559, Control_c, 2, 11, 108
5, 62581, Control_c, 2, 11, 109
5, 62602, Control_c, 2, 11, 110
5, 62624, Control_c, 2, 11, 111
5, 62646, Control_c, 2, 11, 112
5, 62668, Control_c, 2, 11, 113
5, 62690, Control_c, 2, 11, 114
5, 62712, Control_c, 2, 11, 115
5, 62734, Control_c, 2, 11, 116
5, 62756, Control_c, 2, 11, 117
5, 62778, Control_c, 2, 11, 118
5, 62784, Note_on_c, 2, 68, 0
5, 62784, Note_on_c, 2, 71, 109
5, 62800, Control_c, 2, 11, 119
5, 62822, Control_c, 2, 11, 120
5, 62844, Control_c, 2, 11, 121
5, 62866, Control_c, 2, 11, 122
5, 62888, Control_c, 2, 11, 123
5, 62910, Control_c, 2, 11, 124
5, 62932, Control_c, 2, 11, 125
5, 62944, Note_on_c, 2, 71, 0
5, 62954, Control_c, 2, 11, 126
5, 62976, Control_c, 2, 11, 127
5, 62976, Control_c, 2, 11, 92
5, 62976, Note_on_c, 2, 64, 111
5, 62997, Control_c, 2, 11, 93
5, 63019, Control_c, 2, 11, 94
5, 63041, Control_c, 2, 11, 95
5, 63063, Control_c, 2, 11, 96
5, 63085, Control_c, 2, 11, 97
5, 63107, Control_c, 2, 11, 98
5, 63129, Control_c, 2, 11, 99
5, 63151, Control_c, 2, 11, 100
5, 63173, Control_c, 2, 11, 101
5, 63195, Control_c, 2, 11, 102
5, 63217, Control_c, 2, 11, 103
5, 63239, Control_c, 2, 11, 104
5, 63261, Control_c, 2, 11, 105
5, 63283, Control_c, 2, 11, 106
5, 63305, Control_c, 2, 11, 107
5, 63327, Control_c, 2, 11, 108
5, 63349, Control_c, 2, 11, 109
5, 63370, Control_c, 2, 11, 110
5, 63392, Control_c, 2, 11, 111
5, 63414, Control_c, 2, 11, 112
5, 63436, Control_c, 2, 11, 113
5, 63458, Control_c, 2, 11, 114
5, 63480, Control_c, 2, 11, 115
5, 63502, Control_c, 2, 11, 116
5, 63524, Control_c, 2, 11, 117
5, 63546, Control_c, 2, 11, 118
5, 63552, Note_on_c, 2, 64, 0
5, 63552, Note_on_c, 2, 67, 105
5, 63568, Control_c, 2, 11, 119
5, 63590, Control_c, 2, 11, 120
5, 63612, Control_c, 2, 11, 121
5, 63634, Control_c, 2, 11, 122
5, 63656, Control_c, 2, 11, 123
5, 63678, Control_c, 2, 11, 124
5, 63700, Control_c, 2, 11, 125
5, 63712, Note_on_c, 2, 67, 0
5, 63722, Control_c, 2, 11, 126
5, 63744, Control_c, 2, 11, 127
5, 65280, Control_c, 2, 11, 92
5, 65280, Note_on_c, 2, 75, 103
5, 65568, Note_on_c, 2, 75, 0
5, 65568, Note_on_c, 2, 76, 109
5, 65664, Note_on_c, 2, 76, 0
5, 65664, Note_on_c, 2, 76, 111
5, 66048, Control_c, 2, 11, 92
5, 66069, Control_c, 2, 11, 93
5, 66091, Control_c, 2, 11, 94
5, 66113, Control_c, 2, 11, 95
5, 66135, Control_c, 2, 11, 96
5, 66157, Control_c, 2, 11, 97
5, 66179, Control_c, 2, 11, 98
5, 66201, Control_c, 2, 11, 99
5, 66208, Note_on_c, 2, 76, 0
5, 66223, Control_c, 2, 11, 100
5, 66240, Note_on_c, 2, 77, 103
5, 66245, Control_c, 2, 11, 101
5, 66267, Control_c, 2, 11, 102
5, 66289, Control_c, 2, 11, 103
5, 66311, Control_c, 2, 11, 104
5, 66333, Control_c, 2, 11, 105
5, 66355, Control_c, 2, 11, 106
5, 66377, Control_c, 2, 11, 107
5, 66399, Control_c, 2, 11, 108
5, 66400, Note_on_c, 2, 77, 0
5, 66421, Control_c, 2, 11, 109
5, 66432, Note_on_c, 2, 78, 110
5, 66442, Control_c, 2, 11, 110
5, 66464, Control_c, 2, 11, 111
5, 66486, Control_c, 2, 11, 112
5, 66508, Control_c, 2, 11, 113
5, 66530, Control_c, 2, 11, 114
5, 66552, Control_c, 2, 11, 115
5, 66574, Control_c, 2, 11, 116
5, 66592, Note_on_c, 2, 78, 0
5, 66596, Control_c, 2, 11, 117
5, 66618, Control_c, 2, 11, 118
5, 66624, Note_on_c, 2, 80, 109
5, 66640, Control_c, 2, 11, 119
5, 66662, Control_c, 2, 11, 120
5, 66684, Control_c, 2, 11, 121
5, 66706, Control_c, 2, 11, 122
5, 66728, Control_c, 2, 11, 123
5, 66750, Control_c, 2, 11, 124
5, 66772, Control_c, 2, 11, 125
5, 66784, Note_on_c, 2, 80, 0
5, 66794, Control_c, 2, 11, 126
5, 66816, Control_c, 2, 11, 127
5, 66816, Control_c, 2, 11, 92
5, 66816, Note_on_c, 2, 75, 104
5, 67104, Note_on_c, 2, 75, 0
5, 67104, Note_on_c, 2, 76, 103
5, 67200, Note_on_c, 2, 76, 0
5, 67200, Note_on_c, 2, 76, 103
5, 67584, Control_c, 2, 11, 92
5, 67605, Control_c, 2, 11, 93
5, 67627, Control_c, 2, 11, 94
5, 67649, Control_c, 2, 11, 95
5, 67671, Control_c, 2, 11, 96
5, 67693, Control_c, 2, 11, 97
5, 67715, Control_c, 2, 11, 98
5, 67737, Control_c, 2, 11, 99
5, 67759, Control_c, 2, 11, 100
5, 67776, Note_on_c, 2, 76, 0
5, 67776, Note_on_c, 2, 71, 112
5, 67781, Control_c, 2, 11, 101
5, 67803, Control_c, 2, 11, 102
5, 67825, Control_c, 2, 11, 103
5, 67847, Control_c, 2, 11, 104
5, 67869, Control_c, 2, 11, 105
5, 67891, Control_c, 2, 11, 106
5, 67913, Control_c, 2, 11, 107
5, 67935, Control_c, 2, 11, 108
5, 67957, Control_c, 2, 11, 109
5, 67968, Note_on_c, 2, 71, 0
5, 67968, Note_on_c, 2, 70, 108
5, 67978, Control_c, 2, 11, 110
5, 68000, Control_c, 2, 11, 111
5, 68022, Control_c, 2, 11, 112
5, 68044, Control_c, 2, 11, 113
5, 68066, Control_c, 2, 11, 114
5, 68088, Control_c, 2, 11, 115
5, 68110, Control_c, 2, 11, 116
5, 68132, Control_c, 2, 11, 117
5, 68154, Control_c, 2, 11, 118
5, 68176, Control_c, 2, 11, 119
5, 68198, Control_c, 2, 11, 120
5, 68220, Control_c, 2, 11, 121
5, 68242, Control_c, 2, 11, 122
5, 68256, Note_on_c, 2, 70, 0
5, 68256, Note_on_c, 2, 68, 107
5, 68264, Control_c, 2, 11, 123
5, 68286, Control_c, 2, 11, 124
5, 68308, Control_c, 2, 11, 125
5, 68330, Control_c, 2, 11, 126
5, 68352, Note_on_c, 2, 68, 0
5, 68352, Control_c, 2, 11, 127
5, 68352, Note_on_c, 2, 67, 106
5, 68512, Note_on_c, 2, 67, 0
5, 68544, Control_c, 2, 11, 127
5, 68544, Note_on_c, 2, 65, 109
5, 68555, Control_c, 2, 11, 126
5, 68567, Control_c, 2, 11, 125
5, 68579, Control_c, 2, 11, 124
5, 68590, Control_c, 2, 11, 123
5, 68602, Control_c, 2, 11, 122
5, 68614, Control_c, 2, 11, 121
5, 68625, Control_c, 2, 11, 120
5, 68637, Control_c, 2, 11, 119
5, 68649, Control_c, 2, 11, 118
5, 68661, Control_c, 2, 11, 117
5, 68672, Control_c, 2, 11, 116
5, 68684, Control_c, 2, 11, 115
5, 68696, Control_c, 2, 11, 114
5, 68707, Control_c, 2, 11, 113
5, 68719, Control_c, 2, 11, 112
5, 68731, Control_c, 2, 11, 111
5, 68736, Note_on_c, 2, 65, 0
5, 68736, Note_on_c, 2, 64, 110
5, 68743, Control_c, 2, 11, 110
5, 68754, Control_c, 2, 11, 109
5, 68766, Control_c, 2, 11, 108
5, 68778, Control_c, 2, 11, 107
5, 68789, Control_c, 2, 11, 106
5, 68801, Control_c, 2, 11, 105
5, 68813, Control_c, 2, 11, 104
5, 68824, Control_c, 2, 11, 103
5, 68836, Control_c, 2, 11, 102
5, 68848, Control_c, 2, 11, 101
5, 68860, Control_c, 2, 11, 100
5, 68871, Control_c, 2, 11, 99
5, 68883, Control_c, 2, 11, 98
5, 68895, Control_c, 2, 11, 97
5, 68906, Control_c, 2, 11, 96
5, 68918, Control_c, 2, 11, 95
5, 68930, Control_c, 2, 11, 94
5, 68942, Control_c, 2, 11, 93
5, 68953, Control_c, 2, 11, 92
5, 68965, Control_c, 2, 11, 91
5, 68977, Control_c, 2, 11, 90
5, 68988, Control_c, 2, 11, 89
5, 69000, Control_c, 2, 11, 88
5, 69012, Control_c, 2, 11, 87
5, 69024, Control_c, 2, 11, 86
5, 69035, Control_c, 2, 11, 85
5, 69047, Control_c, 2, 11, 84
5, 69059, Control_c, 2, 11, 83
5, 69070, Control_c, 2, 11, 82
5, 69082, Control_c, 2, 11, 81
5, 69094, Control_c, 2, 11, 80
5, 69105, Control_c, 2, 11, 79
5, 69117, Control_c, 2, 11, 78
5, 69129, Control_c, 2, 11, 77
5, 69141, Control_c, 2, 11, 76
5, 69152, Control_c, 2, 11, 75
5, 69164, Control_c, 2, 11, 74
5, 69176, Control_c, 2, 11, 73
5, 69187, Control_c, 2, 11, 72
5, 69199, Control_c, 2, 11, 71
5, 69211, Control_c, 2, 11, 70
5, 69223, Control_c, 2, 11, 69
5, 69234, Control_c, 2, 11, 68
5, 69246, Control_c, 2, 11, 67
5, 69258, Control_c, 2, 11, 66
5, 69269, Control_c, 2, 11, 65
5, 69281, Control_c, 2, 11, 64
5, 69293, Control_c, 2, 11, 63
5, 69304, Control_c, 2, 11, 62
5, 69316, Control_c, 2, 11, 61
5, 69328, Control_c, 2, 11, 60
5, 69340, Control_c, 2, 11, 59
5, 69351, Control_c, 2, 11, 58
5, 69363, Control_c, 2, 11, 57
5, 69375, Control_c, 2, 11, 56
5, 69386, Control_c, 2, 11, 55
5, 69398, Control_c, 2, 11, 54
5, 69410, Control_c, 2, 11, 53
5, 69422, Control_c, 2, 11, 52
5, 69433, Control_c, 2, 11, 51
5, 69445, Control_c, 2, 11, 50
5, 69457, Control_c, 2, 11, 49
5, 69468, Control_c, 2, 11, 48
5, 69480, Control_c, 2, 11, 47
5, 69492, Control_c, 2, 11, 46
5, 69504, Note_on_c, 2, 64, 0
5, 69504, Control_c, 2, 11, 45
5, 69504, Note_on_c, 2, 62, 105
5, 69840, Note_on_c, 2, 62, 0
5, 69888, Control_c, 2, 11, 92
5, 69888, Note_on_c, 2, 61, 45
5, 69909, Control_c, 2, 11, 93
5, 69931, Control_c, 2, 11, 94
5, 69953, Control_c, 2, 11, 95
5, 69975, Control_c, 2, 11, 96
5, 69997, Control_c, 2, 11, 97
5, 70019, Control_c, 2, 11, 98
5, 70041, Control_c, 2, 11, 99
5, 70063, Control_c, 2, 11, 100
5, 70085, Control_c, 2, 11, 101
5, 70107, Control_c, 2, 11, 102
5, 70129, Control_c, 2, 11, 103
5, 70151, Control_c, 2, 11, 104
5, 70173, Control_c, 2, 11, 105
5, 70195, Control_c, 2, 11, 106
5, 70217, Control_c, 2, 11, 107
5, 70239, Control_c, 2, 11, 108
5, 70261, Control_c, 2, 11, 109
5, 70282, Control_c, 2, 11, 110
5, 70304, Control_c, 2, 11, 111
5, 70326, Control_c, 2, 11, 112
5, 70348, Control_c, 2, 11, 113
5, 70370, Control_c, 2, 11, 114
5, 70392, Control_c, 2, 11, 115
5, 70414, Control_c, 2, 11, 116
5, 70436, Control_c, 2, 11, 117
5, 70458, Control_c, 2, 11, 118
5, 70480, Control_c, 2, 11, 119
5, 70502, Control_c, 2, 11, 120
5, 70524, Control_c, 2, 11, 121
5, 70546, Control_c, 2, 11, 122
5, 70568, Control_c, 2, 11, 123
5, 70590, Control_c, 2, 11, 124
5, 70612, Control_c, 2, 11, 125
5, 70634, Control_c, 2, 11, 126
5, 70656, Control_c, 2, 11, 127
5, 70677, Control_c, 2, 11, 126
5, 70699, Control_c, 2, 11, 125
5, 70721, Control_c, 2, 11, 124
5, 70743, Control_c, 2, 11, 123
5, 70765, Control_c, 2, 11, 122
5, 70787, Control_c, 2, 11, 121
5, 70809, Control_c, 2, 11, 120
5, 70831, Control_c, 2, 11, 119
5, 70853, Control_c, 2, 11, 118
5, 70875, Control_c, 2, 11, 117
5, 70897, Control_c, 2, 11, 116
5, 70919, Control_c, 2, 11, 115
5, 70941, Control_c, 2, 11, 114
5, 70963, Control_c, 2, 11, 113
5, 70985, Control_c, 2, 11, 112
5, 71007, Control_c, 2, 11, 111
5, 71029, Control_c, 2, 11, 110
5, 71050, Control_c, 2, 11, 109
5, 71072, Control_c, 2, 11, 108
5, 71094, Control_c, 2, 11, 107
5, 71116, Control_c, 2, 11, 106
5, 71138, Control_c, 2, 11, 105
5, 71160, Control_c, 2, 11, 104
5, 71182, Control_c, 2, 11, 103
5, 71204, Control_c, 2, 11, 102
5, 71226, Control_c, 2, 11, 101
5, 71248, Control_c, 2, 11, 100
5, 71270, Control_c, 2, 11, 99
5, 71292, Control_c, 2, 11, 98
5, 71314, Control_c, 2, 11, 97
5, 71336, Control_c, 2, 11, 96
5, 71358, Control_c, 2, 11, 95
5, 71376, Note_on_c, 2, 61, 0
5, 71380, Control_c, 2, 11, 94
5, 71402, Control_c, 2, 11, 93
5, 71424, Control_c, 2, 11, 92
5, 71424, Control_c, 2, 11, 64
5, 71424, Note_on_c, 2, 60, 94
5, 71430, Control_c, 2, 11, 65
5, 71436, Control_c, 2, 11, 66
5, 71442, Control_c, 2, 11, 67
5, 71448, Control_c, 2, 11, 68
5, 71454, Control_c, 2, 11, 69
5, 71460, Control_c, 2, 11, 70
5, 71466, Control_c, 2, 11, 71
5, 71472, Control_c, 2, 11, 72
5, 71478, Control_c, 2, 11, 73
5, 71484, Control_c, 2, 11, 74
5, 71491, Control_c, 2, 11, 75
5, 71497, Control_c, 2, 11, 76
5, 71503, Control_c, 2, 11, 77
5, 71509, Control_c, 2, 11, 78
5, 71515, Control_c, 2, 11, 79
5, 71521, Control_c, 2, 11, 80
5, 71527, Control_c, 2, 11, 81
5, 71533, Control_c, 2, 11, 82
5, 71539, Control_c, 2, 11, 83
5, 71545, Control_c, 2, 11, 84
5, 71552, Control_c, 2, 11, 85
5, 71558, Control_c, 2, 11, 86
5, 71564, Control_c, 2, 11, 87
5, 71570, Control_c, 2, 11, 88
5, 71576, Control_c, 2, 11, 89
5, 71582, Control_c, 2, 11, 90
5, 71588, Control_c, 2, 11, 91
5, 71594, Control_c, 2, 11, 92
5, 71600, Control_c, 2, 11, 93
5, 71606, Control_c, 2, 11, 94
5, 71612, Control_c, 2, 11, 95
5, 71619, Control_c, 2, 11, 96
5, 71625, Control_c, 2, 11, 97
5, 71631, Control_c, 2, 11, 98
5, 71637, Control_c, 2, 11, 99
5, 71643, Control_c, 2, 11, 100
5, 71649, Control_c, 2, 11, 101
5, 71655, Control_c, 2, 11, 102
5, 71661, Control_c, 2, 11, 103
5, 71667, Control_c, 2, 11, 104
5, 71673, Control_c, 2, 11, 105
5, 71680, Control_c, 2, 11, 106
5, 71686, Control_c, 2, 11, 107
5, 71692, Control_c, 2, 11, 108
5, 71698, Control_c, 2, 11, 109
5, 71704, Control_c, 2, 11, 110
5, 71710, Control_c, 2, 11, 111
5, 71716, Control_c, 2, 11, 112
5, 71722, Control_c, 2, 11, 113
5, 71728, Control_c, 2, 11, 114
5, 71734, Control_c, 2, 11, 115
5, 71740, Control_c, 2, 11, 116
5, 71747, Control_c, 2, 11, 117
5, 71753, Control_c, 2, 11, 118
5, 71759, Control_c, 2, 11, 119
5, 71765, Control_c, 2, 11, 120
5, 71771, Control_c, 2, 11, 121
5, 71777, Control_c, 2, 11, 122
5, 71783, Control_c, 2, 11, 123
5, 71789, Control_c, 2, 11, 124
5, 71795, Control_c, 2, 11, 125
5, 71801, Control_c, 2, 11, 126
5, 71808, Note_on_c, 2, 60, 0
5, 71808, Control_c, 2, 11, 127
5, 71808, Note_on_c, 2, 65, 97
5, 71928, Note_on_c, 2, 65, 0
5, 72000, Note_on_c, 2, 64, 93
5, 72120, Note_on_c, 2, 64, 0
5, 72192, Control_c, 2, 11, 64
5, 72192, Note_on_c, 2, 64, 97
5, 72198, Control_c, 2, 11, 65
5, 72204, Control_c, 2, 11, 66
5, 72210, Control_c, 2, 11, 67
5, 72216, Control_c, 2, 11, 68
5, 72222, Control_c, 2, 11, 69
5, 72228, Control_c, 2, 11, 70
5, 72234, Control_c, 2, 11, 71
5, 72240, Control_c, 2, 11, 72
5, 72246, Control_c, 2, 11, 73
5, 72252, Control_c, 2, 11, 74
5, 72259, Control_c, 2, 11, 75
5, 72265, Control_c, 2, 11, 76
5, 72271, Control_c, 2, 11, 77
5, 72277, Control_c, 2, 11, 78
5, 72283, Control_c, 2, 11, 79
5, 72289, Control_c, 2, 11, 80
5, 72295, Control_c, 2, 11, 81
5, 72301, Control_c, 2, 11, 82
5, 72307, Control_c, 2, 11, 83
5, 72313, Control_c, 2, 11, 84
5, 72320, Control_c, 2, 11, 85
5, 72326, Control_c, 2, 11, 86
5, 72332, Control_c, 2, 11, 87
5, 72338, Control_c, 2, 11, 88
5, 72344, Control_c, 2, 11, 89
5, 72350, Control_c, 2, 11, 90
5, 72356, Control_c, 2, 11, 91
5, 72362, Control_c, 2, 11, 92
5, 72368, Control_c, 2, 11, 93
5, 72374, Control_c, 2, 11, 94
5, 72380, Control_c, 2, 11, 95
5, 72387, Control_c, 2, 11, 96
5, 72393, Control_c, 2, 11, 97
5, 72399, Control_c, 2, 11, 98
5, 72405, Control_c, 2, 11, 99
5, 72411, Control_c, 2, 11, 100
5, 72417, Control_c, 2, 11, 101
5, 72423, Control_c, 2, 11, 102
5, 72429, Control_c, 2, 11, 103
5, 72435, Control_c, 2, 11, 104
5, 72441, Control_c, 2, 11, 105
5, 72448, Control_c, 2, 11, 106
5, 72454, Control_c, 2, 11, 107
5, 72460, Control_c, 2, 11, 108
5, 72466, Control_c, 2, 11, 109
5, 72472, Control_c, 2, 11, 110
5, 72478, Control_c, 2, 11, 111
5, 72480, Note_on_c, 2, 64, 0
5, 72480, Note_on_c, 2, 65, 87
5, 72484, Control_c, 2, 11, 112
5, 72490, Control_c, 2, 11, 113
5, 72496, Control_c, 2, 11, 114
5, 72502, Control_c, 2, 11, 115
5, 72508, Control_c, 2, 11, 116
5, 72515, Control_c, 2, 11, 117
5, 72521, Control_c, 2, 11, 118
5, 72527, Control_c, 2, 11, 119
5, 72533, Control_c, 2, 11, 120
5, 72539, Control_c, 2, 11, 121
5, 72545, Control_c, 2, 11, 122
5, 72551, Control_c, 2, 11, 123
5, 72557, Control_c, 2, 11, 124
5, 72563, Control_c, 2, 11, 125
5, 72569, Control_c, 2, 11, 126
5, 72576, Note_on_c, 2, 65, 0
5, 72576, Control_c, 2, 11, 127
5, 72576, Note_on_c, 2, 65, 91
5, 72696, Note_on_c, 2, 65, 0
5, 72768, Note_on_c, 2, 64, 92
5, 72888, Note_on_c, 2, 64, 0
5, 72960, Note_on_c, 2, 63, 88
5, 73054, Note_on_c, 2, 63, 0
5, 74880, Control_c, 2, 11, 92
5, 74880, Note_on_c, 2, 73, 109
5, 74890, Control_c, 2, 11, 93
5, 74901, Control_c, 2, 11, 94
5, 74912, Control_c, 2, 11, 95
5, 74923, Control_c, 2, 11, 96
5, 74926, Note_on_c, 2, 73, 0
5, 74928, Note_on_c, 2, 71, 109
5, 74934, Control_c, 2, 11, 97
5, 74945, Control_c, 2, 11, 98
5, 74956, Control_c, 2, 11, 99
5, 74967, Control_c, 2, 11, 100
5, 74978, Control_c, 2, 11, 101
5, 74989, Control_c, 2, 11, 102
5, 75000, Control_c, 2, 11, 103
5, 75011, Control_c, 2, 11, 104
5, 75022, Control_c, 2, 11, 105
5, 75033, Control_c, 2, 11, 106
5, 75044, Control_c, 2, 11, 107
5, 75055, Control_c, 2, 11, 108
5, 75066, Control_c, 2, 11, 109
5, 75077, Control_c, 2, 11, 110
5, 75088, Control_c, 2, 11, 111
5, 75099, Control_c, 2, 11, 112
5, 75110, Control_c, 2, 11, 113
5, 75121, Control_c, 2, 11, 114
5, 75132, Control_c, 2, 11, 115
5, 75143, Control_c, 2, 11, 116
5, 75154, Control_c, 2, 11, 117
5, 75165, Control_c, 2, 11, 118
5, 75176, Control_c, 2, 11, 119
5, 75187, Control_c, 2, 11, 120
5, 75198, Control_c, 2, 11, 121
5, 75209, Control_c, 2, 11, 122
5, 75220, Control_c, 2, 11, 123
5, 75231, Control_c, 2, 11, 124
5, 75242, Control_c, 2, 11, 125
5, 75253, Control_c, 2, 11, 126
5, 75264, Control_c, 2, 11, 127
5, 75276, Control_c, 2, 11, 126
5, 75288, Control_c, 2, 11, 125
5, 75300, Control_c, 2, 11, 124
5, 75312, Control_c, 2, 11, 123
5, 75324, Control_c, 2, 11, 122
5, 75337, Control_c, 2, 11, 121
5, 75349, Control_c, 2, 11, 120
5, 75361, Control_c, 2, 11, 119
5, 75373, Control_c, 2, 11, 118
5, 75385, Control_c, 2, 11, 117
5, 75398, Control_c, 2, 11, 116
5, 75410, Control_c, 2, 11, 115
5, 75422, Control_c, 2, 11, 114
5, 75434, Control_c, 2, 11, 113
5, 75446, Control_c, 2, 11, 112
5, 75459, Control_c, 2, 11, 111
5, 75471, Control_c, 2, 11, 110
5, 75483, Control_c, 2, 11, 109
5, 75495, Control_c, 2, 11, 108
5, 75507, Control_c, 2, 11, 107
5, 75520, Control_c, 2, 11, 106
5, 75532, Control_c, 2, 11, 105
5, 75544, Control_c, 2, 11, 104
5, 75556, Control_c, 2, 11, 103
5, 75568, Control_c, 2, 11, 102
5, 75580, Control_c, 2, 11, 101
5, 75593, Control_c, 2, 11, 100
5, 75605, Control_c, 2, 11, 99
5, 75617, Control_c, 2, 11, 98
5, 75629, Control_c, 2, 11, 97
5, 75641, Control_c, 2, 11, 96
5, 75654, Control_c, 2, 11, 95
5, 75666, Control_c, 2, 11, 94
5, 75678, Control_c, 2, 11, 93
5, 75690, Control_c, 2, 11, 92
5, 75702, Control_c, 2, 11, 91
5, 75715, Control_c, 2, 11, 90
5, 75727, Control_c, 2, 11, 89
5, 75739, Control_c, 2, 11, 88
5, 75751, Control_c, 2, 11, 87
5, 75763, Control_c, 2, 11, 86
5, 75776, Control_c, 2, 11, 85
5, 75788, Control_c, 2, 11, 84
5, 75800, Control_c, 2, 11, 83
5, 75812, Control_c, 2, 11, 82
5, 75824, Control_c, 2, 11, 81
5, 75836, Control_c, 2, 11, 80
5, 75849, Control_c, 2, 11, 79
5, 75861, Control_c, 2, 11, 78
5, 75873, Control_c, 2, 11, 77
5, 75885, Control_c, 2, 11, 76
5, 75897, Control_c, 2, 11, 75
5, 75910, Control_c, 2, 11, 74
5, 75922, Control_c, 2, 11, 73
5, 75934, Control_c, 2, 11, 72
5, 75946, Control_c, 2, 11, 71
5, 75958, Control_c, 2, 11, 70
5, 75971, Control_c, 2, 11, 69
5, 75983, Control_c, 2, 11, 68
5, 75984, Note_on_c, 2, 71, 0
5, 75995, Control_c, 2, 11, 67
5, 76007, Control_c, 2, 11, 66
5, 76019, Control_c, 2, 11, 65
5, 76032, Control_c, 2, 11, 64
5, 79488, Control_c, 2, 11, 92
5, 79488, Note_on_c, 2, 73, 104
5, 79498, Control_c, 2, 11, 93
5, 79509, Control_c, 2, 11, 94
5, 79520, Control_c, 2, 11, 95
5, 79531, Control_c, 2, 11, 96
5, 79534, Note_on_c, 2, 73, 0
5, 79536, Note_on_c, 2, 71, 108
5, 79542, Control_c, 2, 11, 97
5, 79553, Control_c, 2, 11, 98
5, 79564, Control_c, 2, 11, 99
5, 79575, Control_c, 2, 11, 100
5, 79586, Control_c, 2, 11, 101
5, 79597, Control_c, 2, 11, 102
5, 79608, Control_c, 2, 11, 103
5, 79619, Control_c, 2, 11, 104
5, 79630, Control_c, 2, 11, 105
5, 79641, Control_c, 2, 11, 106
5, 79652, Control_c, 2, 11, 107
5, 79663, Control_c, 2, 11, 108
5, 79674, Control_c, 2, 11, 109
5, 79685, Control_c, 2, 11, 110
5, 79696, Control_c, 2, 11, 111
5, 79707, Control_c, 2, 11, 112
5, 79718, Control_c, 2, 11, 113
5, 79729, Control_c, 2, 11, 114
5, 79740, Control_c, 2, 11, 115
5, 79751, Control_c, 2, 11, 116
5, 79762, Control_c, 2, 11, 117
5, 79773, Control_c, 2, 11, 118
5, 79784, Control_c, 2, 11, 119
5, 79795, Control_c, 2, 11, 120
5, 79806, Control_c, 2, 11, 121
5, 79817, Control_c, 2, 11, 122
5, 79828, Control_c, 2, 11, 123
5, 79839, Control_c, 2, 11, 124
5, 79850, Control_c, 2, 11, 125
5, 79861, Control_c, 2, 11, 126
5, 79872, Control_c, 2, 11, 127
5, 80064, Control_c, 2, 11, 127
5, 80073, Control_c, 2, 11, 126
5, 80082, Control_c, 2, 11, 125
5, 80091, Control_c, 2, 11, 124
5, 80100, Control_c, 2, 11, 123
5, 80109, Control_c, 2, 11, 122
5, 80118, Control_c, 2, 11, 121
5, 80128, Control_c, 2, 11, 120
5, 80137, Control_c, 2, 11, 119
5, 80146, Control_c, 2, 11, 118
5, 80155, Control_c, 2, 11, 117
5, 80164, Control_c, 2, 11, 116
5, 80173, Control_c, 2, 11, 115
5, 80182, Control_c, 2, 11, 114
5, 80192, Control_c, 2, 11, 113
5, 80201, Control_c, 2, 11, 112
5, 80210, Control_c, 2, 11, 111
5, 80219, Control_c, 2, 11, 110
5, 80228, Control_c, 2, 11, 109
5, 80237, Control_c, 2, 11, 108
5, 80246, Control_c, 2, 11, 107
5, 80256, Control_c, 2, 11, 106
5, 80265, Control_c, 2, 11, 105
5, 80274, Control_c, 2, 11, 104
5, 80283, Control_c, 2, 11, 103
5, 80292, Control_c, 2, 11, 102
5, 80301, Control_c, 2, 11, 101
5, 80310, Control_c, 2, 11, 100
5, 80320, Control_c, 2, 11, 99
5, 80329, Control_c, 2, 11, 98
5, 80338, Control_c, 2, 11, 97
5, 80347, Control_c, 2, 11, 96
5, 80356, Control_c, 2, 11, 95
5, 80365, Control_c, 2, 11, 94
5, 80374, Control_c, 2, 11, 93
5, 80384, Control_c, 2, 11, 92
5, 80393, Control_c, 2, 11, 91
5, 80402, Control_c, 2, 11, 90
5, 80411, Control_c, 2, 11, 89
5, 80420, Control_c, 2, 11, 88
5, 80429, Control_c, 2, 11, 87
5, 80438, Control_c, 2, 11, 86
5, 80448, Control_c, 2, 11, 85
5, 80457, Control_c, 2, 11, 84
5, 80466, Control_c, 2, 11, 83
5, 80475, Control_c, 2, 11, 82
5, 80484, Control_c, 2, 11, 81
5, 80493, Control_c, 2, 11, 80
5, 80502, Control_c, 2, 11, 79
5, 80512, Control_c, 2, 11, 78
5, 80521, Control_c, 2, 11, 77
5, 80530, Control_c, 2, 11, 76
5, 80539, Control_c, 2, 11, 75
5, 80548, Control_c, 2, 11, 74
5, 80557, Control_c, 2, 11, 73
5, 80566, Control_c, 2, 11, 72
5, 80576, Control_c, 2, 11, 71
5, 80585, Control_c, 2, 11, 70
5, 80592, Note_on_c, 2, 71, 0
5, 80594, Control_c, 2, 11, 69
5, 80603, Control_c, 2, 11, 68
5, 80612, Control_c, 2, 11, 67
5, 80621, Control_c, 2, 11, 66
5, 80630, Control_c, 2, 11, 65
5, 80640, Control_c, 2, 11, 64
5, 80640, Control_c, 2, 11, 127
5, 80952, Note_on_c, 2, 71, 41
5, 80976, Note_on_c, 2, 71, 0
5, 80976, Note_on_c, 2, 69, 42
5, 81000, Note_on_c, 2, 69, 0
5, 81000, Note_on_c, 2, 67, 42
5, 81024, Note_on_c, 2, 67, 0
5, 81024, Note_on_c, 2, 65, 43
5, 81744, Note_on_c, 2, 65, 0
5, 82488, Note_on_c, 2, 71, 41
5, 82510, Note_on_c, 2, 71, 0
5, 82512, Note_on_c, 2, 69, 47
5, 82534, Note_on_c, 2, 69, 0
5, 82536, Note_on_c, 2, 67, 45
5, 82558, Note_on_c, 2, 67, 0
5, 82560, Note_on_c, 2, 65, 43
5, 83280, Note_on_c, 2, 65, 0
5, 84096, Control_c, 2, 11, 92
5, 84096, Note_on_c, 2, 73, 105
5, 84106, Control_c, 2, 11, 93
5, 84117, Control_c, 2, 11, 94
5, 84128, Control_c, 2, 11, 95
5, 84139, Control_c, 2, 11, 96
5, 84142, Note_on_c, 2, 73, 0
5, 84144, Note_on_c, 2, 71, 112
5, 84150, Control_c, 2, 11, 97
5, 84161, Control_c, 2, 11, 98
5, 84172, Control_c, 2, 11, 99
5, 84183, Control_c, 2, 11, 100
5, 84194, Control_c, 2, 11, 101
5, 84205, Control_c, 2, 11, 102
5, 84216, Control_c, 2, 11, 103
5, 84227, Control_c, 2, 11, 104
5, 84238, Control_c, 2, 11, 105
5, 84249, Control_c, 2, 11, 106
5, 84260, Control_c, 2, 11, 107
5, 84271, Control_c, 2, 11, 108
5, 84282, Control_c, 2, 11, 109
5, 84293, Control_c, 2, 11, 110
5, 84304, Control_c, 2, 11, 111
5, 84315, Control_c, 2, 11, 112
5, 84326, Control_c, 2, 11, 113
5, 84337, Control_c, 2, 11, 114
5, 84348, Control_c, 2, 11, 115
5, 84359, Control_c, 2, 11, 116
5, 84370, Control_c, 2, 11, 117
5, 84381, Control_c, 2, 11, 118
5, 84392, Control_c, 2, 11, 119
5, 84403, Control_c, 2, 11, 120
5, 84414, Control_c, 2, 11, 121
5, 84425, Control_c, 2, 11, 122
5, 84436, Control_c, 2, 11, 123
5, 84447, Control_c, 2, 11, 124
5, 84458, Control_c, 2, 11, 125
5, 84469, Control_c, 2, 11, 126
5, 84480, Control_c, 2, 11, 127
5, 84864, Control_c, 2, 11, 127
5, 84870, Control_c, 2, 11, 126
5, 84876, Control_c, 2, 11, 125
5, 84882, Control_c, 2, 11, 124
5, 84888, Control_c, 2, 11, 123
5, 84894, Control_c, 2, 11, 122
5, 84900, Control_c, 2, 11, 121
5, 84906, Control_c, 2, 11, 120
5, 84912, Control_c, 2, 11, 119
5, 84918, Control_c, 2, 11, 118
5, 84924, Control_c, 2, 11, 117
5, 84931, Control_c, 2, 11, 116
5, 84937, Control_c, 2, 11, 115
5, 84943, Control_c, 2, 11, 114
5, 84949, Control_c, 2, 11, 113
5, 84955, Control_c, 2, 11, 112
5, 84961, Control_c, 2, 11, 111
5, 84967, Control_c, 2, 11, 110
5, 84973, Control_c, 2, 11, 109
5, 84979, Control_c, 2, 11, 108
5, 84985, Control_c, 2, 11, 107
5, 84992, Control_c, 2, 11, 106
5, 84998, Control_c, 2, 11, 105
5, 85004, Control_c, 2, 11, 104
5, 85010, Control_c, 2, 11, 103
5, 85016, Control_c, 2, 11, 102
5, 85022, Control_c, 2, 11, 101
5, 85028, Control_c, 2, 11, 100
5, 85034, Control_c, 2, 11, 99
5, 85040, Control_c, 2, 11, 98
5, 85046, Control_c, 2, 11, 97
5, 85052, Control_c, 2, 11, 96
5, 85059, Control_c, 2, 11, 95
5, 85065, Control_c, 2, 11, 94
5, 85071, Control_c, 2, 11, 93
5, 85077, Control_c, 2, 11, 92
5, 85083, Control_c, 2, 11, 91
5, 85089, Control_c, 2, 11, 90
5, 85095, Control_c, 2, 11, 89
5, 85101, Control_c, 2, 11, 88
5, 85107, Control_c, 2, 11, 87
5, 85113, Control_c, 2, 11, 86
5, 85120, Control_c, 2, 11, 85
5, 85126, Control_c, 2, 11, 84
5, 85132, Control_c, 2, 11, 83
5, 85138, Control_c, 2, 11, 82
5, 85144, Control_c, 2, 11, 81
5, 85150, Control_c, 2, 11, 80
5, 85156, Control_c, 2, 11, 79
5, 85162, Control_c, 2, 11, 78
5, 85168, Control_c, 2, 11, 77
5, 85174, Control_c, 2, 11, 76
5, 85180, Control_c, 2, 11, 75
5, 85187, Control_c, 2, 11, 74
5, 85193, Control_c, 2, 11, 73
5, 85199, Control_c, 2, 11, 72
5, 85200, Note_on_c, 2, 71, 0
5, 85205, Control_c, 2, 11, 71
5, 85211, Control_c, 2, 11, 70
5, 85217, Control_c, 2, 11, 69
5, 85223, Control_c, 2, 11, 68
5, 85229, Control_c, 2, 11, 67
5, 85235, Control_c, 2, 11, 66
5, 85241, Control_c, 2, 11, 65
5, 85248, Control_c, 2, 11, 64
5, 85368, Note_on_c, 2, 71, 111
5, 85390, Note_on_c, 2, 71, 0
5, 85392, Note_on_c, 2, 69, 113
5, 85414, Note_on_c, 2, 69, 0
5, 85416, Note_on_c, 2, 67, 108
5, 85438, Note_on_c, 2, 67, 0
5, 85440, Note_on_c, 2, 65, 112
5, 85632, Control_c, 2, 11, 127
5, 85968, Note_on_c, 2, 65, 0
5, 86136, Note_on_c, 2, 71, 108
5, 86158, Note_on_c, 2, 71, 0
5, 86160, Note_on_c, 2, 69, 106
5, 86182, Note_on_c, 2, 69, 0
5, 86184, Note_on_c, 2, 67, 107
5, 86206, Note_on_c, 2, 67, 0
5, 86208, Note_on_c, 2, 65, 104
5, 86736, Note_on_c, 2, 65, 0
5, 86904, Note_on_c, 2, 71, 104
5, 86926, Note_on_c, 2, 71, 0
5, 86928, Note_on_c, 2, 69, 103
5, 86950, Note_on_c, 2, 69, 0
5, 86952, Note_on_c, 2, 67, 110
5, 86974, Note_on_c, 2, 67, 0
5, 86976, Note_on_c, 2, 65, 104
5, 87504, Note_on_c, 2, 65, 0
5, 87672, Note_on_c, 2, 71, 112
5, 87694, Note_on_c, 2, 71, 0
5, 87696, Note_on_c, 2, 69, 111
5, 87718, Note_on_c, 2, 69, 0
5, 87720, Note_on_c, 2, 67, 104
5, 87742, Note_on_c, 2, 67, 0
5, 87744, Note_on_c, 2, 65, 105
5, 87904, Note_on_c, 2, 65, 0
5, 87936, Control_c, 2, 11, 75
5, 87936, Note_on_c, 2, 72, 103
5, 87958, Control_c, 2, 11, 76
5, 87980, Control_c, 2, 11, 77
5, 88002, Control_c, 2, 11, 78
5, 88024, Control_c, 2, 11, 79
5, 88046, Control_c, 2, 11, 80
5, 88068, Control_c, 2, 11, 81
5, 88091, Control_c, 2, 11, 82
5, 88113, Control_c, 2, 11, 83
5, 88135, Control_c, 2, 11, 84
5, 88157, Control_c, 2, 11, 85
5, 88179, Control_c, 2, 11, 86
5, 88201, Control_c, 2, 11, 87
5, 88224, Control_c, 2, 11, 88
5, 88246, Control_c, 2, 11, 89
5, 88268, Control_c, 2, 11, 90
5, 88290, Control_c, 2, 11, 91
5, 88312, Control_c, 2, 11, 92
5, 88334, Control_c, 2, 11, 93
5, 88356, Control_c, 2, 11, 94
5, 88379, Control_c, 2, 11, 95
5, 88401, Control_c, 2, 11, 96
5, 88423, Control_c, 2, 11, 97
5, 88445, Control_c, 2, 11, 98
5, 88467, Control_c, 2, 11, 99
5, 88489, Control_c, 2, 11, 100
5, 88512, Control_c, 2, 11, 101
5, 88534, Control_c, 2, 11, 102
5, 88556, Control_c, 2, 11, 103
5, 88578, Control_c, 2, 11, 104
5, 88600, Control_c, 2, 11, 105
5, 88622, Control_c, 2, 11, 106
5, 88644, Control_c, 2, 11, 107
5, 88667, Control_c, 2, 11, 108
5, 88689, Control_c, 2, 11, 109
5, 88704, Note_on_c, 2, 72, 0
5, 88704, Note_on_c, 2, 73, 104
5, 88711, Control_c, 2, 11, 110
5, 88733, Control_c, 2, 11, 111
5, 88755, Control_c, 2, 11, 112
5, 88777, Control_c, 2, 11, 113
5, 88800, Control_c, 2, 11, 114
5, 88822, Control_c, 2, 11, 115
5, 88844, Control_c, 2, 11, 116
5, 88866, Control_c, 2, 11, 117
5, 88888, Control_c, 2, 11, 118
5, 88910, Control_c, 2, 11, 119
5, 88932, Control_c, 2, 11, 120
5, 88955, Control_c, 2, 11, 121
5, 88977, Control_c, 2, 11, 122
5, 88999, Control_c, 2, 11, 123
5, 89021, Control_c, 2, 11, 124
5, 89040, Note_on_c, 2, 73, 0
5, 89043, Control_c, 2, 11, 125
5, 89065, Control_c, 2, 11, 126
5, 89088, Control_c, 2, 11, 127
5, 89088, Note_on_c, 2, 65, 49
5, 89136, Note_on_c, 2, 65, 0
5, 89232, Note_on_c, 2, 67, 44
5, 89264, Note_on_c, 2, 67, 0
5, 89280, Note_on_c, 2, 65, 46
5, 89328, Note_on_c, 2, 65, 0
5, 89424, Note_on_c, 2, 67, 44
5, 89456, Note_on_c, 2, 67, 0
5, 89472, Note_on_c, 2, 65, 47
5, 89520, Note_on_c, 2, 65, 0
5, 89616, Note_on_c, 2, 67, 55
5, 89648, Note_on_c, 2, 67, 0
5, 89664, Note_on_c, 2, 65, 52
5, 89712, Note_on_c, 2, 65, 0
5, 89808, Note_on_c, 2, 67, 57
5, 89840, Note_on_c, 2, 67, 0
5, 89856, Note_on_c, 2, 65, 62
5, 89904, Note_on_c, 2, 65, 0
5, 90000, Note_on_c, 2, 67, 60
5, 90032, Note_on_c, 2, 67, 0
5, 90048, Note_on_c, 2, 65, 61
5, 90096, Note_on_c, 2, 65, 0
5, 90192, Note_on_c, 2, 67, 64
5, 90224, Note_on_c, 2, 67, 0
5, 90240, Note_on_c, 2, 65, 71
5, 90288, Note_on_c, 2, 65, 0
5, 90384, Note_on_c, 2, 67, 74
5, 90416, Note_on_c, 2, 67, 0
5, 90432, Note_on_c, 2, 65, 75
5, 90480, Note_on_c, 2, 65, 0
5, 90576, Note_on_c, 2, 67, 73
5, 90608, Note_on_c, 2, 67, 0
5, 90624, Note_on_c, 2, 65, 77
5, 90672, Note_on_c, 2, 65, 0
5, 90768, Note_on_c, 2, 67, 73
5, 90800, Note_on_c, 2, 67, 0
5, 90816, Note_on_c, 2, 65, 82
5, 90864, Note_on_c, 2, 65, 0
5, 90960, Note_on_c, 2, 67, 84
5, 90992, Note_on_c, 2, 67, 0
5, 91008, Note_on_c, 2, 65, 77
5, 91056, Note_on_c, 2, 65, 0
5, 91152, Note_on_c, 2, 67, 80
5, 91184, Note_on_c, 2, 67, 0
5, 91200, Note_on_c, 2, 65, 81
5, 91248, Note_on_c, 2, 65, 0
5, 91344, Note_on_c, 2, 67, 90
5, 91376, Note_on_c, 2, 67, 0
5, 91392, Note_on_c, 2, 65, 96
5, 91440, Note_on_c, 2, 65, 0
5, 91536, Note_on_c, 2, 65, 93
5, 91568, Note_on_c, 2, 65, 0
5, 91584, Note_on_c, 2, 65, 94
5, 91632, Note_on_c, 2, 65, 0
5, 91728, Note_on_c, 2, 65, 106
5, 91760, Note_on_c, 2, 65, 0
5, 91776, Note_on_c, 2, 72, 108
5, 92448, Note_on_c, 2, 72, 0
5, 92448, Note_on_c, 2, 71, 113
5, 92544, Note_on_c, 2, 71, 0
5, 92544, Note_on_c, 2, 70, 107
5, 93216, Note_on_c, 2, 70, 0
5, 93216, Note_on_c, 2, 69, 113
5, 93312, Note_on_c, 2, 69, 0
5, 93312, Note_on_c, 2, 68, 112
5, 93600, Note_on_c, 2, 68, 0
5, 93600, Note_on_c, 2, 67, 108
5, 93696, Note_on_c, 2, 67, 0
5, 93696, Note_on_c, 2, 66, 106
5, 95184, Note_on_c, 2, 66, 0
5, 112896, Control_c, 2, 11, 64
5, 112896, Note_on_c, 2, 60, 78
5, 112911, Control_c, 2, 11, 65
5, 112926, Control_c, 2, 11, 66
5, 112941, Control_c, 2, 11, 67
5, 112956, Control_c, 2, 11, 68
5, 112972, Control_c, 2, 11, 69
5, 112987, Control_c, 2, 11, 70
5, 113002, Control_c, 2, 11, 71
5, 113017, Control_c, 2, 11, 72
5, 113033, Control_c, 2, 11, 73
5, 113048, Control_c, 2, 11, 74
5, 113063, Control_c, 2, 11, 75
5, 113078, Control_c, 2, 11, 76
5, 113094, Control_c, 2, 11, 77
5, 113109, Control_c, 2, 11, 78
5, 113124, Control_c, 2, 11, 79
5, 113139, Control_c, 2, 11, 80
5, 113155, Control_c, 2, 11, 81
5, 113170, Control_c, 2, 11, 82
5, 113185, Control_c, 2, 11, 83
5, 113200, Control_c, 2, 11, 84
5, 113216, Control_c, 2, 11, 85
5, 113231, Control_c, 2, 11, 86
5, 113246, Control_c, 2, 11, 87
5, 113261, Control_c, 2, 11, 88
5, 113276, Control_c, 2, 11, 89
5, 113280, Note_on_c, 2, 60, 0
5, 113280, Note_on_c, 2, 61, 79
5, 113292, Control_c, 2, 11, 90
5, 113307, Control_c, 2, 11, 91
5, 113322, Control_c, 2, 11, 92
5, 113337, Control_c, 2, 11, 93
5, 113353, Control_c, 2, 11, 94
5, 113368, Control_c, 2, 11, 95
5, 113383, Control_c, 2, 11, 96
5, 113398, Control_c, 2, 11, 97
5, 113408, Note_on_c, 2, 61, 0
5, 113408, Note_on_c, 2, 66, 71
5, 113414, Control_c, 2, 11, 98
5, 113429, Control_c, 2, 11, 99
5, 113444, Control_c, 2, 11, 100
5, 113459, Control_c, 2, 11, 101
5, 113475, Control_c, 2, 11, 102
5, 113490, Control_c, 2, 11, 103
5, 113505, Control_c, 2, 11, 104
5, 113520, Control_c, 2, 11, 105
5, 113536, Note_on_c, 2, 66, 0
5, 113536, Control_c, 2, 11, 106
5, 113536, Note_on_c, 2, 70, 79
5, 113551, Control_c, 2, 11, 107
5, 113566, Control_c, 2, 11, 108
5, 113581, Control_c, 2, 11, 109
5, 113596, Control_c, 2, 11, 110
5, 113612, Control_c, 2, 11, 111
5, 113627, Control_c, 2, 11, 112
5, 113642, Control_c, 2, 11, 113
5, 113657, Control_c, 2, 11, 114
5, 113673, Control_c, 2, 11, 115
5, 113688, Control_c, 2, 11, 116
5, 113703, Control_c, 2, 11, 117
5, 113718, Control_c, 2, 11, 118
5, 113734, Control_c, 2, 11, 119
5, 113749, Control_c, 2, 11, 120
5, 113764, Control_c, 2, 11, 121
5, 113779, Control_c, 2, 11, 122
5, 113795, Control_c, 2, 11, 123
5, 113810, Control_c, 2, 11, 124
5, 113825, Control_c, 2, 11, 125
5, 113840, Control_c, 2, 11, 126
5, 113856, Note_on_c, 2, 70, 0
5, 113856, Control_c, 2, 11, 127
5, 113856, Note_on_c, 2, 68, 72
5, 114048, Note_on_c, 2, 68, 0
5, 114048, Note_on_c, 2, 66, 72
5, 114176, Note_on_c, 2, 66, 0
5, 114176, Note_on_c, 2, 63, 72
5, 114304, Note_on_c, 2, 63, 0
5, 114304, Note_on_c, 2, 66, 75
5, 114430, Note_on_c, 2, 66, 0
5, 114432, Control_c, 2, 11, 127
5, 114432, Note_on_c, 2, 65, 71
5, 114444, Control_c, 2, 11, 126
5, 114456, Control_c, 2, 11, 125
5, 114468, Control_c, 2, 11, 124
5, 114480, Control_c, 2, 11, 123
5, 114492, Control_c, 2, 11, 122
5, 114505, Control_c, 2, 11, 121
5, 114517, Control_c, 2, 11, 120
5, 114529, Control_c, 2, 11, 119
5, 114541, Control_c, 2, 11, 118
5, 114553, Control_c, 2, 11, 117
5, 114566, Control_c, 2, 11, 116
5, 114578, Control_c, 2, 11, 115
5, 114590, Control_c, 2, 11, 114
5, 114602, Control_c, 2, 11, 113
5, 114614, Control_c, 2, 11, 112
5, 114624, Note_on_c, 2, 65, 0
5, 114624, Note_on_c, 2, 66, 65
5, 114627, Control_c, 2, 11, 111
5, 114639, Control_c, 2, 11, 110
5, 114651, Control_c, 2, 11, 109
5, 114663, Control_c, 2, 11, 108
5, 114675, Control_c, 2, 11, 107
5, 114688, Control_c, 2, 11, 106
5, 114700, Control_c, 2, 11, 105
5, 114712, Control_c, 2, 11, 104
5, 114724, Control_c, 2, 11, 103
5, 114736, Control_c, 2, 11, 102
5, 114748, Control_c, 2, 11, 101
5, 114761, Control_c, 2, 11, 100
5, 114773, Control_c, 2, 11, 99
5, 114785, Control_c, 2, 11, 98
5, 114797, Control_c, 2, 11, 97
5, 114809, Control_c, 2, 11, 96
5, 114816, Note_on_c, 2, 66, 0
5, 114816, Note_on_c, 2, 63, 56
5, 114822, Control_c, 2, 11, 95
5, 114834, Control_c, 2, 11, 94
5, 114846, Control_c, 2, 11, 93
5, 114858, Control_c, 2, 11, 92
5, 114870, Control_c, 2, 11, 91
5, 114883, Control_c, 2, 11, 90
5, 114895, Control_c, 2, 11, 89
5, 114907, Control_c, 2, 11, 88
5, 114919, Control_c, 2, 11, 87
5, 114931, Control_c, 2, 11, 86
5, 114944, Note_on_c, 2, 63, 0
5, 114944, Control_c, 2, 11, 85
5, 114944, Note_on_c, 2, 61, 55
5, 114956, Control_c, 2, 11, 84
5, 114968, Control_c, 2, 11, 83
5, 114980, Control_c, 2, 11, 82
5, 114992, Control_c, 2, 11, 81
5, 115004, Control_c, 2, 11, 80
5, 115017, Control_c, 2, 11, 79
5, 115029, Control_c, 2, 11, 78
5, 115041, Control_c, 2, 11, 77
5, 115053, Control_c, 2, 11, 76
5, 115065, Control_c, 2, 11, 75
5, 115072, Note_on_c, 2, 61, 0
5, 115072, Note_on_c, 2, 63, 41
5, 115078, Control_c, 2, 11, 74
5, 115090, Control_c, 2, 11, 73
5, 115102, Control_c, 2, 11, 72
5, 115114, Control_c, 2, 11, 71
5, 115126, Control_c, 2, 11, 70
5, 115139, Control_c, 2, 11, 69
5, 115151, Control_c, 2, 11, 68
5, 115163, Control_c, 2, 11, 67
5, 115175, Control_c, 2, 11, 66
5, 115187, Control_c, 2, 11, 65
5, 115198, Note_on_c, 2, 63, 0
5, 115200, Control_c, 2, 11, 64
5, 115968, Control_c, 2, 11, 127
5, 138240, Control_c, 2, 11, 75
5, 138240, Note_on_c, 2, 73, 70
5, 138269, Control_c, 2, 11, 76
5, 138299, Control_c, 2, 11, 77
5, 138328, Control_c, 2, 11, 78
5, 138358, Control_c, 2, 11, 79
5, 138387, Control_c, 2, 11, 80
5, 138417, Control_c, 2, 11, 81
5, 138446, Control_c, 2, 11, 82
5, 138476, Control_c, 2, 11, 83
5, 138505, Control_c, 2, 11, 84
5, 138528, Note_on_c, 2, 73, 0
5, 138528, Note_on_c, 2, 72, 76
5, 138535, Control_c, 2, 11, 85
5, 138564, Control_c, 2, 11, 86
5, 138594, Control_c, 2, 11, 87
5, 138624, Note_on_c, 2, 72, 0
5, 138624, Control_c, 2, 11, 88
5, 138624, Note_on_c, 2, 71, 79
5, 138653, Control_c, 2, 11, 89
5, 138683, Control_c, 2, 11, 90
5, 138712, Control_c, 2, 11, 91
5, 138742, Control_c, 2, 11, 92
5, 138771, Control_c, 2, 11, 93
5, 138801, Control_c, 2, 11, 94
5, 138830, Control_c, 2, 11, 95
5, 138860, Control_c, 2, 11, 96
5, 138889, Control_c, 2, 11, 97
5, 138912, Note_on_c, 2, 71, 0
5, 138912, Note_on_c, 2, 72, 74
5, 138919, Control_c, 2, 11, 98
5, 138948, Control_c, 2, 11, 99
5, 138978, Control_c, 2, 11, 100
5, 139008, Note_on_c, 2, 72, 0
5, 139008, Control_c, 2, 11, 101
5, 139008, Note_on_c, 2, 73, 76
5, 139037, Control_c, 2, 11, 102
5, 139067, Control_c, 2, 11, 103
5, 139096, Control_c, 2, 11, 104
5, 139126, Control_c, 2, 11, 105
5, 139155, Control_c, 2, 11, 106
5, 139185, Control_c, 2, 11, 107
5, 139214, Control_c, 2, 11, 108
5, 139244, Control_c, 2, 11, 109
5, 139273, Control_c, 2, 11, 110
5, 139296, Note_on_c, 2, 73, 0
5, 139296, Note_on_c, 2, 72, 78
5, 139303, Control_c, 2, 11, 111
5, 139332, Control_c, 2, 11, 112
5, 139362, Control_c, 2, 11, 113
5, 139392, Note_on_c, 2, 72, 0
5, 139392, Control_c, 2, 11, 114
5, 139392, Note_on_c, 2, 71, 70
5, 139421, Control_c, 2, 11, 115
5, 139451, Control_c, 2, 11, 116
5, 139480, Control_c, 2, 11, 117
5, 139510, Control_c, 2, 11, 118
5, 139539, Control_c, 2, 11, 119
5, 139569, Control_c, 2, 11, 120
5, 139598, Control_c, 2, 11, 121
5, 139628, Control_c, 2, 11, 122
5, 139657, Control_c, 2, 11, 123
5, 139680, Note_on_c, 2, 71, 0
5, 139680, Note_on_c, 2, 67, 77
5, 139687, Control_c, 2, 11, 124
5, 139716, Control_c, 2, 11, 125
5, 139746, Control_c, 2, 11, 126
5, 139774, Note_on_c, 2, 67, 0
5, 139776, Control_c, 2, 11, 127
5, 139776, Control_c, 2, 11, 75
5, 139776, Note_on_c, 2, 69, 74
5, 139805, Control_c, 2, 11, 76
5, 139835, Control_c, 2, 11, 77
5, 139864, Control_c, 2, 11, 78
5, 139894, Control_c, 2, 11, 79
5, 139923, Control_c, 2, 11, 80
5, 139953, Control_c, 2, 11, 81
5, 139982, Control_c, 2, 11, 82
5, 140012, Control_c, 2, 11, 83
5, 140041, Control_c, 2, 11, 84
5, 140064, Note_on_c, 2, 69, 0
5, 140064, Note_on_c, 2, 68, 73
5, 140071, Control_c, 2, 11, 85
5, 140100, Control_c, 2, 11, 86
5, 140130, Control_c, 2, 11, 87
5, 140160, Note_on_c, 2, 68, 0
5, 140160, Control_c, 2, 11, 88
5, 140160, Note_on_c, 2, 67, 78
5, 140189, Control_c, 2, 11, 89
5, 140219, Control_c, 2, 11, 90
5, 140248, Control_c, 2, 11, 91
5, 140278, Control_c, 2, 11, 92
5, 140307, Control_c, 2, 11, 93
5, 140337, Control_c, 2, 11, 94
5, 140366, Control_c, 2, 11, 95
5, 140396, Control_c, 2, 11, 96
5, 140425, Control_c, 2, 11, 97
5, 140448, Note_on_c, 2, 67, 0
5, 140448, Note_on_c, 2, 68, 80
5, 140455, Control_c, 2, 11, 98
5, 140484, Control_c, 2, 11, 99
5, 140514, Control_c, 2, 11, 100
5, 140544, Note_on_c, 2, 68, 0
5, 140544, Control_c, 2, 11, 101
5, 140544, Note_on_c, 2, 69, 75
5, 140573, Control_c, 2, 11, 102
5, 140603, Control_c, 2, 11, 103
5, 140632, Control_c, 2, 11, 104
5, 140662, Control_c, 2, 11, 105
5, 140691, Control_c, 2, 11, 106
5, 140721, Control_c, 2, 11, 107
5, 140750, Control_c, 2, 11, 108
5, 140780, Control_c, 2, 11, 109
5, 140809, Control_c, 2, 11, 110
5, 140832, Note_on_c, 2, 69, 0
5, 140832, Note_on_c, 2, 68, 75
5, 140839, Control_c, 2, 11, 111
5, 140868, Control_c, 2, 11, 112
5, 140898, Control_c, 2, 11, 113
5, 140928, Note_on_c, 2, 68, 0
5, 140928, Control_c, 2, 11, 114
5, 140928, Note_on_c, 2, 67, 76
5, 140957, Control_c, 2, 11, 115
5, 140987, Control_c, 2, 11, 116
5, 141016, Control_c, 2, 11, 117
5, 141046, Control_c, 2, 11, 118
5, 141075, Control_c, 2, 11, 119
5, 141105, Control_c, 2, 11, 120
5, 141134, Control_c, 2, 11, 121
5, 141164, Control_c, 2, 11, 122
5, 141193, Control_c, 2, 11, 123
5, 141216, Note_on_c, 2, 67, 0
5, 141216, Note_on_c, 2, 64, 72
5, 141223, Control_c, 2, 11, 124
5, 141252, Control_c, 2, 11, 125
5, 141282, Control_c, 2, 11, 126
5, 141310, Note_on_c, 2, 64, 0
5, 141312, Control_c, 2, 11, 127
5, 141312, Note_on_c, 2, 69, 29
5, 141600, Note_on_c, 2, 69, 0
5, 141600, Note_on_c, 2, 68, 34
5, 141694, Note_on_c, 2, 68, 0
5, 141696, Note_on_c, 2, 67, 26
5, 141984, Note_on_c, 2, 67, 0
5, 141984, Note_on_c, 2, 68, 34
5, 142078, Note_on_c, 2, 68, 0
5, 142080, Note_on_c, 2, 69, 25
5, 142368, Note_on_c, 2, 69, 0
5, 142368, Note_on_c, 2, 68, 31
5, 142462, Note_on_c, 2, 68, 0
5, 142464, Note_on_c, 2, 67, 25
5, 142752, Note_on_c, 2, 67, 0
5, 142752, Note_on_c, 2, 64, 30
5, 142846, Note_on_c, 2, 64, 0
5, 142848, Note_on_c, 2, 69, 30
5, 143136, Note_on_c, 2, 69, 0
5, 143136, Note_on_c, 2, 68, 28
5, 143230, Note_on_c, 2, 68, 0
5, 143232, Note_on_c, 2, 67, 26
5, 143520, Note_on_c, 2, 67, 0
5, 143520, Note_on_c, 2, 68, 30
5, 143614, Note_on_c, 2, 68, 0
5, 143616, Note_on_c, 2, 69, 31
5, 143904, Note_on_c, 2, 69, 0
5, 143904, Note_on_c, 2, 68, 26
5, 143998, Note_on_c, 2, 68, 0
5, 144000, Note_on_c, 2, 68, 35
5, 144288, Note_on_c, 2, 68, 0
5, 144288, Note_on_c, 2, 71, 30
5, 144382, Note_on_c, 2, 71, 0
5, 144384, Control_c, 2, 11, 64
5, 144384, Note_on_c, 2, 70, 94
5, 144530, Control_c, 2, 11, 65
5, 144676, Control_c, 2, 11, 66
5, 144822, Control_c, 2, 11, 67
5, 144969, Control_c, 2, 11, 68
5, 145115, Control_c, 2, 11, 69
5, 145261, Control_c, 2, 11, 70
5, 145408, Control_c, 2, 11, 71
5, 145554, Control_c, 2, 11, 72
5, 145700, Control_c, 2, 11, 73
5, 145846, Control_c, 2, 11, 74
5, 145872, Note_on_c, 2, 70, 0
5, 145920, Control_c, 2, 11, 85
5, 145920, Note_on_c, 2, 70, 88
5, 145974, Control_c, 2, 11, 86
5, 145993, Control_c, 2, 11, 75
5, 146029, Control_c, 2, 11, 87
5, 146084, Control_c, 2, 11, 88
5, 146139, Control_c, 2, 11, 76
5, 146139, Control_c, 2, 11, 89
5, 146194, Control_c, 2, 11, 90
5, 146249, Control_c, 2, 11, 91
5, 146285, Control_c, 2, 11, 77
5, 146304, Control_c, 2, 11, 92
5, 146358, Control_c, 2, 11, 93
5, 146413, Control_c, 2, 11, 94
5, 146432, Control_c, 2, 11, 78
5, 146468, Control_c, 2, 11, 95
5, 146523, Control_c, 2, 11, 96
5, 146578, Control_c, 2, 11, 79
5, 146578, Control_c, 2, 11, 97
5, 146633, Control_c, 2, 11, 98
5, 146688, Control_c, 2, 11, 99
5, 146724, Control_c, 2, 11, 80
5, 146742, Control_c, 2, 11, 100
5, 146797, Control_c, 2, 11, 101
5, 146852, Control_c, 2, 11, 102
5, 146870, Control_c, 2, 11, 81
5, 146907, Control_c, 2, 11, 103
5, 146962, Control_c, 2, 11, 104
5, 147017, Control_c, 2, 11, 82
5, 147017, Control_c, 2, 11, 105
5, 147072, Control_c, 2, 11, 106
5, 147126, Control_c, 2, 11, 107
5, 147163, Control_c, 2, 11, 83
5, 147181, Control_c, 2, 11, 108
5, 147236, Control_c, 2, 11, 109
5, 147291, Control_c, 2, 11, 110
5, 147309, Control_c, 2, 11, 84
5, 147346, Control_c, 2, 11, 111
5, 147401, Control_c, 2, 11, 112
5, 147408, Note_on_c, 2, 70, 0
5, 147456, Control_c, 2, 11, 85
5, 147456, Control_c, 2, 11, 113
5, 147456, Note_on_c, 2, 71, 88
5, 147510, Control_c, 2, 11, 114
5, 147565, Control_c, 2, 11, 115
5, 147620, Control_c, 2, 11, 116
5, 147675, Control_c, 2, 11, 117
5, 147730, Control_c, 2, 11, 118
5, 147785, Control_c, 2, 11, 119
5, 147840, Note_on_c, 2, 71, 0
5, 147840, Control_c, 2, 11, 120
5, 147840, Note_on_c, 2, 69, 96
5, 147894, Control_c, 2, 11, 121
5, 147949, Control_c, 2, 11, 122
5, 148004, Control_c, 2, 11, 123
5, 148059, Control_c, 2, 11, 124
5, 148114, Control_c, 2, 11, 125
5, 148169, Control_c, 2, 11, 126
5, 148176, Note_on_c, 2, 69, 0
5, 148224, Control_c, 2, 11, 127
5, 148224, Note_on_c, 2, 74, 91
5, 148608, Note_on_c, 2, 74, 0
5, 148608, Note_on_c, 2, 72, 90
5, 148944, Note_on_c, 2, 72, 0
5, 148992, Control_c, 2, 11, 92
5, 148992, Note_on_c, 2, 72, 92
5, 149035, Control_c, 2, 11, 93
5, 149079, Control_c, 2, 11, 94
5, 149123, Control_c, 2, 11, 95
5, 149167, Control_c, 2, 11, 96
5, 149211, Control_c, 2, 11, 97
5, 149255, Control_c, 2, 11, 98
5, 149299, Control_c, 2, 11, 99
5, 149343, Control_c, 2, 11, 100
5, 149386, Control_c, 2, 11, 101
5, 149430, Control_c, 2, 11, 102
5, 149474, Control_c, 2, 11, 103
5, 149518, Control_c, 2, 11, 104
5, 149562, Control_c, 2, 11, 105
5, 149606, Control_c, 2, 11, 106
5, 149650, Control_c, 2, 11, 107
5, 149694, Control_c, 2, 11, 108
5, 149738, Control_c, 2, 11, 109
5, 149781, Control_c, 2, 11, 110
5, 149825, Control_c, 2, 11, 111
5, 149869, Control_c, 2, 11, 112
5, 149913, Control_c, 2, 11, 113
5, 149957, Control_c, 2, 11, 114
5, 150001, Control_c, 2, 11, 115
5, 150045, Control_c, 2, 11, 116
5, 150089, Control_c, 2, 11, 117
5, 150133, Control_c, 2, 11, 118
5, 150144, Note_on_c, 2, 72, 0
5, 150144, Note_on_c, 2, 71, 90
5, 150176, Control_c, 2, 11, 119
5, 150220, Control_c, 2, 11, 120
5, 150264, Control_c, 2, 11, 121
5, 150308, Control_c, 2, 11, 122
5, 150352, Control_c, 2, 11, 123
5, 150396, Control_c, 2, 11, 124
5, 150440, Control_c, 2, 11, 125
5, 150480, Note_on_c, 2, 71, 0
5, 150484, Control_c, 2, 11, 126
5, 150528, Control_c, 2, 11, 127
5, 150528, Control_c, 2, 11, 92
5, 150528, Note_on_c, 2, 69, 107
5, 150654, Note_on_c, 2, 69, 0
5, 150656, Note_on_c, 2, 69, 112
5, 150782, Note_on_c, 2, 69, 0
5, 150784, Note_on_c, 2, 68, 112
5, 151296, Control_c, 2, 11, 92
5, 151317, Control_c, 2, 11, 93
5, 151339, Control_c, 2, 11, 94
5, 151361, Control_c, 2, 11, 95
5, 151383, Control_c, 2, 11, 96
5, 151405, Control_c, 2, 11, 97
5, 151427, Control_c, 2, 11, 98
5, 151449, Control_c, 2, 11, 99
5, 151471, Control_c, 2, 11, 100
5, 151493, Control_c, 2, 11, 101
5, 151515, Control_c, 2, 11, 102
5, 151537, Control_c, 2, 11, 103
5, 151559, Control_c, 2, 11, 104
5, 151581, Control_c, 2, 11, 105
5, 151603, Control_c, 2, 11, 106
5, 151625, Control_c, 2, 11, 107
5, 151632, Note_on_c, 2, 68, 0
5, 151647, Control_c, 2, 11, 108
5, 151669, Control_c, 2, 11, 109
5, 151680, Note_on_c, 2, 69, 107
5, 151690, Control_c, 2, 11, 110
5, 151712, Control_c, 2, 11, 111
5, 151734, Control_c, 2, 11, 112
5, 151756, Control_c, 2, 11, 113
5, 151778, Control_c, 2, 11, 114
5, 151800, Control_c, 2, 11, 115
5, 151806, Note_on_c, 2, 69, 0
5, 151808, Note_on_c, 2, 69, 111
5, 151822, Control_c, 2, 11, 116
5, 151844, Control_c, 2, 11, 117
5, 151866, Control_c, 2, 11, 118
5, 151888, Control_c, 2, 11, 119
5, 151910, Control_c, 2, 11, 120
5, 151932, Control_c, 2, 11, 121
5, 151934, Note_on_c, 2, 69, 0
5, 151936, Note_on_c, 2, 68, 107
5, 151954, Control_c, 2, 11, 122
5, 151976, Control_c, 2, 11, 123
5, 151998, Control_c, 2, 11, 124
5, 152020, Control_c, 2, 11, 125
5, 152042, Control_c, 2, 11, 126
5, 152062, Note_on_c, 2, 68, 0
5, 152064, Control_c, 2, 11, 127
5, 152064, Control_c, 2, 11, 92
5, 152064, Note_on_c, 2, 70, 106
5, 152074, Control_c, 2, 11, 93
5, 152085, Control_c, 2, 11, 94
5, 152096, Control_c, 2, 11, 95
5, 152107, Control_c, 2, 11, 96
5, 152118, Control_c, 2, 11, 97
5, 152129, Control_c, 2, 11, 98
5, 152140, Control_c, 2, 11, 99
5, 152151, Control_c, 2, 11, 100
5, 152162, Control_c, 2, 11, 101
5, 152173, Control_c, 2, 11, 102
5, 152184, Control_c, 2, 11, 103
5, 152192, Note_on_c, 2, 70, 0
5, 152192, Note_on_c, 2, 70, 106
5, 152195, Control_c, 2, 11, 104
5, 152206, Control_c, 2, 11, 105
5, 152217, Control_c, 2, 11, 106
5, 152228, Control_c, 2, 11, 107
5, 152239, Control_c, 2, 11, 108
5, 152250, Control_c, 2, 11, 109
5, 152261, Control_c, 2, 11, 110
5, 152272, Control_c, 2, 11, 111
5, 152283, Control_c, 2, 11, 112
5, 152294, Control_c, 2, 11, 113
5, 152305, Control_c, 2, 11, 114
5, 152316, Control_c, 2, 11, 115
5, 152320, Note_on_c, 2, 70, 0
5, 152320, Note_on_c, 2, 68, 113
5, 152327, Control_c, 2, 11, 116
5, 152338, Control_c, 2, 11, 117
5, 152349, Control_c, 2, 11, 118
5, 152360, Control_c, 2, 11, 119
5, 152371, Control_c, 2, 11, 120
5, 152382, Control_c, 2, 11, 121
5, 152393, Control_c, 2, 11, 122
5, 152404, Control_c, 2, 11, 123
5, 152415, Control_c, 2, 11, 124
5, 152426, Control_c, 2, 11, 125
5, 152437, Control_c, 2, 11, 126
5, 152448, Note_on_c, 2, 68, 0
5, 152448, Control_c, 2, 11, 127
5, 152448, Note_on_c, 2, 68, 107
5, 152832, Control_c, 2, 11, 92
5, 152853, Control_c, 2, 11, 93
5, 152875, Control_c, 2, 11, 94
5, 152897, Control_c, 2, 11, 95
5, 152919, Control_c, 2, 11, 96
5, 152941, Control_c, 2, 11, 97
5, 152963, Control_c, 2, 11, 98
5, 152985, Control_c, 2, 11, 99
5, 153007, Control_c, 2, 11, 100
5, 153029, Control_c, 2, 11, 101
5, 153051, Control_c, 2, 11, 102
5, 153073, Control_c, 2, 11, 103
5, 153095, Control_c, 2, 11, 104
5, 153117, Control_c, 2, 11, 105
5, 153139, Control_c, 2, 11, 106
5, 153161, Control_c, 2, 11, 107
5, 153183, Control_c, 2, 11, 108
5, 153205, Control_c, 2, 11, 109
5, 153216, Note_on_c, 2, 68, 0
5, 153216, Note_on_c, 2, 70, 104
5, 153226, Control_c, 2, 11, 110
5, 153248, Control_c, 2, 11, 111
5, 153270, Control_c, 2, 11, 112
5, 153292, Control_c, 2, 11, 113
5, 153314, Control_c, 2, 11, 114
5, 153336, Control_c, 2, 11, 115
5, 153344, Note_on_c, 2, 70, 0
5, 153344, Note_on_c, 2, 70, 113
5, 153358, Control_c, 2, 11, 116
5, 153380, Control_c, 2, 11, 117
5, 153402, Control_c, 2, 11, 118
5, 153424, Control_c, 2, 11, 119
5, 153446, Control_c, 2, 11, 120
5, 153468, Control_c, 2, 11, 121
5, 153472, Note_on_c, 2, 70, 0
5, 153472, Note_on_c, 2, 68, 107
5, 153490, Control_c, 2, 11, 122
5, 153512, Control_c, 2, 11, 123
5, 153534, Control_c, 2, 11, 124
5, 153556, Control_c, 2, 11, 125
5, 153578, Control_c, 2, 11, 126
5, 153598, Note_on_c, 2, 68, 0
5, 153600, Control_c, 2, 11, 127
5, 153600, Note_on_c, 2, 71, 93
5, 153888, Note_on_c, 2, 71, 0
5, 153888, Note_on_c, 2, 70, 88
5, 153982, Note_on_c, 2, 70, 0
5, 153984, Note_on_c, 2, 69, 89
5, 154272, Note_on_c, 2, 69, 0
5, 154272, Note_on_c, 2, 68, 93
5, 154366, Note_on_c, 2, 68, 0
5, 154368, Note_on_c, 2, 67, 94
5, 154656, Note_on_c, 2, 67, 0
5, 154656, Note_on_c, 2, 66, 97
5, 154750, Note_on_c, 2, 66, 0
5, 154752, Note_on_c, 2, 65, 88
5, 155040, Note_on_c, 2, 65, 0
5, 155040, Note_on_c, 2, 64, 91
5, 155134, Note_on_c, 2, 64, 0
5, 155136, Note_on_c, 2, 63, 94
5, 155424, Note_on_c, 2, 63, 0
5, 155424, Note_on_c, 2, 62, 94
5, 155518, Note_on_c, 2, 62, 0
5, 155520, Note_on_c, 2, 61, 88
5, 155808, Note_on_c, 2, 61, 0
5, 155808, Note_on_c, 2, 60, 92
5, 155902, Note_on_c, 2, 60, 0
5, 155904, Note_on_c, 2, 59, 94
5, 156192, Note_on_c, 2, 59, 0
5, 156192, Note_on_c, 2, 70, 87
5, 156288, Note_on_c, 2, 70, 0
5, 156288, Note_on_c, 2, 69, 88
5, 156384, Note_on_c, 2, 69, 0
5, 156384, Note_on_c, 2, 68, 97
5, 156480, Note_on_c, 2, 68, 0
5, 156480, Note_on_c, 2, 67, 95
5, 156576, Note_on_c, 2, 67, 0
5, 156576, Note_on_c, 2, 66, 94
5, 156670, Note_on_c, 2, 66, 0
5, 169728, Control_c, 2, 11, 127
5, 170496, Control_c, 2, 11, 75
5, 170496, Note_on_c, 2, 62, 61
5, 170499, Control_c, 2, 11, 76
5, 170503, Control_c, 2, 11, 77
5, 170507, Control_c, 2, 11, 78
5, 170510, Control_c, 2, 11, 79
5, 170514, Control_c, 2, 11, 80
5, 170518, Control_c, 2, 11, 81
5, 170521, Control_c, 2, 11, 82
5, 170525, Control_c, 2, 11, 83
5, 170529, Control_c, 2, 11, 84
5, 170532, Control_c, 2, 11, 85
5, 170536, Control_c, 2, 11, 86
5, 170540, Control_c, 2, 11, 87
5, 170544, Control_c, 2, 11, 88
5, 170547, Control_c, 2, 11, 89
5, 170551, Control_c, 2, 11, 90
5, 170555, Control_c, 2, 11, 91
5, 170558, Control_c, 2, 11, 92
5, 170562, Control_c, 2, 11, 93
5, 170566, Control_c, 2, 11, 94
5, 170569, Control_c, 2, 11, 95
5, 170573, Control_c, 2, 11, 96
5, 170577, Control_c, 2, 11, 97
5, 170580, Control_c, 2, 11, 98
5, 170584, Control_c, 2, 11, 99
5, 170588, Control_c, 2, 11, 100
5, 170592, Control_c, 2, 11, 101
5, 170595, Control_c, 2, 11, 102
5, 170599, Control_c, 2, 11, 103
5, 170603, Control_c, 2, 11, 104
5, 170606, Control_c, 2, 11, 105
5, 170610, Control_c, 2, 11, 106
5, 170614, Control_c, 2, 11, 107
5, 170617, Control_c, 2, 11, 108
5, 170621, Control_c, 2, 11, 109
5, 170622, Note_on_c, 2, 62, 0
5, 170624, Note_on_c, 2, 63, 63
5, 170625, Control_c, 2, 11, 110
5, 170628, Control_c, 2, 11, 111
5, 170632, Control_c, 2, 11, 112
5, 170636, Control_c, 2, 11, 113
5, 170640, Control_c, 2, 11, 114
5, 170643, Control_c, 2, 11, 115
5, 170647, Control_c, 2, 11, 116
5, 170651, Control_c, 2, 11, 117
5, 170654, Control_c, 2, 11, 118
5, 170658, Control_c, 2, 11, 119
5, 170662, Control_c, 2, 11, 120
5, 170665, Control_c, 2, 11, 121
5, 170666, Note_on_c, 2, 63, 0
5, 170669, Control_c, 2, 11, 122
5, 170673, Control_c, 2, 11, 123
5, 170676, Control_c, 2, 11, 124
5, 170680, Control_c, 2, 11, 125
5, 170684, Control_c, 2, 11, 126
5, 170688, Control_c, 2, 11, 127
5, 170688, Note_on_c, 2, 64, 61
5, 170848, Note_on_c, 2, 64, 0
5, 170880, Control_c, 2, 11, 75
5, 170880, Note_on_c, 2, 62, 58
5, 170883, Control_c, 2, 11, 76
5, 170887, Control_c, 2, 11, 77
5, 170891, Control_c, 2, 11, 78
5, 170894, Control_c, 2, 11, 79
5, 170898, Control_c, 2, 11, 80
5, 170902, Control_c, 2, 11, 81
5, 170905, Control_c, 2, 11, 82
5, 170909, Control_c, 2, 11, 83
5, 170913, Control_c, 2, 11, 84
5, 170916, Control_c, 2, 11, 85
5, 170920, Control_c, 2, 11, 86
5, 170924, Control_c, 2, 11, 87
5, 170928, Control_c, 2, 11, 88
5, 170931, Control_c, 2, 11, 89
5, 170935, Control_c, 2, 11, 90
5, 170939, Control_c, 2, 11, 91
5, 170942, Control_c, 2, 11, 92
5, 170946, Control_c, 2, 11, 93
5, 170950, Control_c, 2, 11, 94
5, 170953, Control_c, 2, 11, 95
5, 170957, Control_c, 2, 11, 96
5, 170961, Control_c, 2, 11, 97
5, 170964, Control_c, 2, 11, 98
5, 170968, Control_c, 2, 11, 99
5, 170972, Control_c, 2, 11, 100
5, 170976, Control_c, 2, 11, 101
5, 170979, Control_c, 2, 11, 102
5, 170983, Control_c, 2, 11, 103
5, 170987, Control_c, 2, 11, 104
5, 170990, Control_c, 2, 11, 105
5, 170994, Control_c, 2, 11, 106
5, 170998, Control_c, 2, 11, 107
5, 171001, Control_c, 2, 11, 108
5, 171005, Control_c, 2, 11, 109
5, 171006, Note_on_c, 2, 62, 0
5, 171008, Note_on_c, 2, 63, 58
5, 171009, Control_c, 2, 11, 110
5, 171012, Control_c, 2, 11, 111
5, 171016, Control_c, 2, 11, 112
5, 171020, Control_c, 2, 11, 113
5, 171024, Control_c, 2, 11, 114
5, 171027, Control_c, 2, 11, 115
5, 171031, Control_c, 2, 11, 116
5, 171035, Control_c, 2, 11, 117
5, 171038, Control_c, 2, 11, 118
5, 171042, Control_c, 2, 11, 119
5, 171046, Control_c, 2, 11, 120
5, 171049, Control_c, 2, 11, 121
5, 171050, Note_on_c, 2, 63, 0
5, 171053, Control_c, 2, 11, 122
5, 171057, Control_c, 2, 11, 123
5, 171060, Control_c, 2, 11, 124
5, 171064, Control_c, 2, 11, 125
5, 171068, Control_c, 2, 11, 126
5, 171072, Control_c, 2, 11, 127
5, 171072, Note_on_c, 2, 64, 63
5, 171232, Note_on_c, 2, 64, 0
5, 171264, Control_c, 2, 11, 75
5, 171264, Note_on_c, 2, 62, 65
5, 171267, Control_c, 2, 11, 76
5, 171271, Control_c, 2, 11, 77
5, 171275, Control_c, 2, 11, 78
5, 171278, Control_c, 2, 11, 79
5, 171282, Control_c, 2, 11, 80
5, 171286, Control_c, 2, 11, 81
5, 171289, Control_c, 2, 11, 82
5, 171293, Control_c, 2, 11, 83
5, 171297, Control_c, 2, 11, 84
5, 171300, Control_c, 2, 11, 85
5, 171304, Control_c, 2, 11, 86
5, 171308, Control_c, 2, 11, 87
5, 171312, Control_c, 2, 11, 88
5, 171315, Control_c, 2, 11, 89
5, 171319, Control_c, 2, 11, 90
5, 171323, Control_c, 2, 11, 91
5, 171326, Control_c, 2, 11, 92
5, 171330, Control_c, 2, 11, 93
5, 171334, Control_c, 2, 11, 94
5, 171337, Control_c, 2, 11, 95
5, 171341, Control_c, 2, 11, 96
5, 171345, Control_c, 2, 11, 97
5, 171348, Control_c, 2, 11, 98
5, 171352, Control_c, 2, 11, 99
5, 171356, Control_c, 2, 11, 100
5, 171360, Control_c, 2, 11, 101
5, 171363, Control_c, 2, 11, 102
5, 171367, Control_c, 2, 11, 103
5, 171371, Control_c, 2, 11, 104
5, 171374, Control_c, 2, 11, 105
5, 171378, Control_c, 2, 11, 106
5, 171382, Control_c, 2, 11, 107
5, 171385, Control_c, 2, 11, 108
5, 171389, Control_c, 2, 11, 109
5, 171390, Note_on_c, 2, 62, 0
5, 171392, Note_on_c, 2, 63, 60
5, 171393, Control_c, 2, 11, 110
5, 171396, Control_c, 2, 11, 111
5, 171400, Control_c, 2, 11, 112
5, 171404, Control_c, 2, 11, 113
5, 171408, Control_c, 2, 11, 114
5, 171411, Control_c, 2, 11, 115
5, 171415, Control_c, 2, 11, 116
5, 171419, Control_c, 2, 11, 117
5, 171422, Control_c, 2, 11, 118
5, 171426, Control_c, 2, 11, 119
5, 171430, Control_c, 2, 11, 120
5, 171433, Control_c, 2, 11, 121
5, 171434, Note_on_c, 2, 63, 0
5, 171437, Control_c, 2, 11, 122
5, 171441, Control_c, 2, 11, 123
5, 171444, Control_c, 2, 11, 124
5, 171448, Control_c, 2, 11, 125
5, 171452, Control_c, 2, 11, 126
5, 171456, Control_c, 2, 11, 127
5, 171456, Note_on_c, 2, 64, 58
5, 171616, Note_on_c, 2, 64, 0
5, 171648, Control_c, 2, 11, 75
5, 171648, Note_on_c, 2, 62, 65
5, 171651, Control_c, 2, 11, 76
5, 171655, Control_c, 2, 11, 77
5, 171659, Control_c, 2, 11, 78
5, 171662, Control_c, 2, 11, 79
5, 171666, Control_c, 2, 11, 80
5, 171670, Control_c, 2, 11, 81
5, 171673, Control_c, 2, 11, 82
5, 171677, Control_c, 2, 11, 83
5, 171681, Control_c, 2, 11, 84
5, 171684, Control_c, 2, 11, 85
5, 171688, Control_c, 2, 11, 86
5, 171692, Control_c, 2, 11, 87
5, 171696, Control_c, 2, 11, 88
5, 171699, Control_c, 2, 11, 89
5, 171703, Control_c, 2, 11, 90
5, 171707, Control_c, 2, 11, 91
5, 171710, Control_c, 2, 11, 92
5, 171714, Control_c, 2, 11, 93
5, 171718, Control_c, 2, 11, 94
5, 171721, Control_c, 2, 11, 95
5, 171725, Control_c, 2, 11, 96
5, 171729, Control_c, 2, 11, 97
5, 171732, Control_c, 2, 11, 98
5, 171736, Control_c, 2, 11, 99
5, 171740, Control_c, 2, 11, 100
5, 171744, Control_c, 2, 11, 101
5, 171747, Control_c, 2, 11, 102
5, 171751, Control_c, 2, 11, 103
5, 171755, Control_c, 2, 11, 104
5, 171758, Control_c, 2, 11, 105
5, 171762, Control_c, 2, 11, 106
5, 171766, Control_c, 2, 11, 107
5, 171769, Control_c, 2, 11, 108
5, 171773, Control_c, 2, 11, 109
5, 171774, Note_on_c, 2, 62, 0
5, 171776, Note_on_c, 2, 63, 64
5, 171777, Control_c, 2, 11, 110
5, 171780, Control_c, 2, 11, 111
5, 171784, Control_c, 2, 11, 112
5, 171788, Control_c, 2, 11, 113
5, 171792, Control_c, 2, 11, 114
5, 171795, Control_c, 2, 11, 115
5, 171799, Control_c, 2, 11, 116
5, 171803, Control_c, 2, 11, 117
5, 171806, Control_c, 2, 11, 118
5, 171810, Control_c, 2, 11, 119
5, 171814, Control_c, 2, 11, 120
5, 171817, Control_c, 2, 11, 121
5, 171818, Note_on_c, 2, 63, 0
5, 171821, Control_c, 2, 11, 122
5, 171825, Control_c, 2, 11, 123
5, 171828, Control_c, 2, 11, 124
5, 171832, Control_c, 2, 11, 125
5, 171836, Control_c, 2, 11, 126
5, 171840, Control_c, 2, 11, 127
5, 171840, Note_on_c, 2, 64, 61
5, 172000, Note_on_c, 2, 64, 0
5, 172032, Control_c, 2, 11, 75
5, 172032, Note_on_c, 2, 62, 62
5, 172035, Control_c, 2, 11, 76
5, 172039, Control_c, 2, 11, 77
5, 172043, Control_c, 2, 11, 78
5, 172046, Control_c, 2, 11, 79
5, 172050, Control_c, 2, 11, 80
5, 172054, Control_c, 2, 11, 81
5, 172057, Control_c, 2, 11, 82
5, 172061, Control_c, 2, 11, 83
5, 172065, Control_c, 2, 11, 84
5, 172068, Control_c, 2, 11, 85
5, 172072, Control_c, 2, 11, 86
5, 172076, Control_c, 2, 11, 87
5, 172080, Control_c, 2, 11, 88
5, 172083, Control_c, 2, 11, 89
5, 172087, Control_c, 2, 11, 90
5, 172091, Control_c, 2, 11, 91
5, 172094, Control_c, 2, 11, 92
5, 172098, Control_c, 2, 11, 93
5, 172102, Control_c, 2, 11, 94
5, 172105, Control_c, 2, 11, 95
5, 172109, Control_c, 2, 11, 96
5, 172113, Control_c, 2, 11, 97
5, 172116, Control_c, 2, 11, 98
5, 172120, Control_c, 2, 11, 99
5, 172124, Control_c, 2, 11, 100
5, 172128, Control_c, 2, 11, 101
5, 172131, Control_c, 2, 11, 102
5, 172135, Control_c, 2, 11, 103
5, 172139, Control_c, 2, 11, 104
5, 172142, Control_c, 2, 11, 105
5, 172146, Control_c, 2, 11, 106
5, 172150, Control_c, 2, 11, 107
5, 172153, Control_c, 2, 11, 108
5, 172157, Control_c, 2, 11, 109
5, 172158, Note_on_c, 2, 62, 0
5, 172160, Note_on_c, 2, 63, 59
5, 172161, Control_c, 2, 11, 110
5, 172164, Control_c, 2, 11, 111
5, 172168, Control_c, 2, 11, 112
5, 172172, Control_c, 2, 11, 113
5, 172176, Control_c, 2, 11, 114
5, 172179, Control_c, 2, 11, 115
5, 172183, Control_c, 2, 11, 116
5, 172187, Control_c, 2, 11, 117
5, 172190, Control_c, 2, 11, 118
5, 172194, Control_c, 2, 11, 119
5, 172198, Control_c, 2, 11, 120
5, 172201, Control_c, 2, 11, 121
5, 172202, Note_on_c, 2, 63, 0
5, 172205, Control_c, 2, 11, 122
5, 172209, Control_c, 2, 11, 123
5, 172212, Control_c, 2, 11, 124
5, 172216, Control_c, 2, 11, 125
5, 172220, Control_c, 2, 11, 126
5, 172224, Control_c, 2, 11, 127
5, 172224, Note_on_c, 2, 64, 64
5, 172384, Note_on_c, 2, 64, 0
5, 172416, Control_c, 2, 11, 75
5, 172416, Note_on_c, 2, 62, 59
5, 172419, Control_c, 2, 11, 76
5, 172423, Control_c, 2, 11, 77
5, 172427, Control_c, 2, 11, 78
5, 172430, Control_c, 2, 11, 79
5, 172434, Control_c, 2, 11, 80
5, 172438, Control_c, 2, 11, 81
5, 172441, Control_c, 2, 11, 82
5, 172445, Control_c, 2, 11, 83
5, 172449, Control_c, 2, 11, 84
5, 172452, Control_c, 2, 11, 85
5, 172456, Control_c, 2, 11, 86
5, 172460, Control_c, 2, 11, 87
5, 172464, Control_c, 2, 11, 88
5, 172467, Control_c, 2, 11, 89
5, 172471, Control_c, 2, 11, 90
5, 172475, Control_c, 2, 11, 91
5, 172478, Control_c, 2, 11, 92
5, 172482, Control_c, 2, 11, 93
5, 172486, Control_c, 2, 11, 94
5, 172489, Control_c, 2, 11, 95
5, 172493, Control_c, 2, 11, 96
5, 172497, Control_c, 2, 11, 97
5, 172500, Control_c, 2, 11, 98
5, 172504, Control_c, 2, 11, 99
5, 172508, Control_c, 2, 11, 100
5, 172512, Control_c, 2, 11, 101
5, 172515, Control_c, 2, 11, 102
5, 172519, Control_c, 2, 11, 103
5, 172523, Control_c, 2, 11, 104
5, 172526, Control_c, 2, 11, 105
5, 172530, Control_c, 2, 11, 106
5, 172534, Control_c, 2, 11, 107
5, 172537, Control_c, 2, 11, 108
5, 172541, Control_c, 2, 11, 109
5, 172542, Note_on_c, 2, 62, 0
5, 172544, Note_on_c, 2, 63, 59
5, 172545, Control_c, 2, 11, 110
5, 172548, Control_c, 2, 11, 111
5, 172552, Control_c, 2, 11, 112
5, 172556, Control_c, 2, 11, 113
5, 172560, Control_c, 2, 11, 114
5, 172563, Control_c, 2, 11, 115
5, 172567, Control_c, 2, 11, 116
5, 172571, Control_c, 2, 11, 117
5, 172574, Control_c, 2, 11, 118
5, 172578, Control_c, 2, 11, 119
5, 172582, Control_c, 2, 11, 120
5, 172585, Control_c, 2, 11, 121
5, 172586, Note_on_c, 2, 63, 0
5, 172589, Control_c, 2, 11, 122
5, 172593, Control_c, 2, 11, 123
5, 172596, Control_c, 2, 11, 124
5, 172600, Control_c, 2, 11, 125
5, 172604, Control_c, 2, 11, 126
5, 172608, Control_c, 2, 11, 127
5, 172608, Note_on_c, 2, 64, 55
5, 172768, Note_on_c, 2, 64, 0
5, 172800, Control_c, 2, 11, 75
5, 172800, Note_on_c, 2, 62, 56
5, 172803, Control_c, 2, 11, 76
5, 172807, Control_c, 2, 11, 77
5, 172811, Control_c, 2, 11, 78
5, 172814, Control_c, 2, 11, 79
5, 172818, Control_c, 2, 11, 80
5, 172822, Control_c, 2, 11, 81
5, 172825, Control_c, 2, 11, 82
5, 172829, Control_c, 2, 11, 83
5, 172833, Control_c, 2, 11, 84
5, 172836, Control_c, 2, 11, 85
5, 172840, Control_c, 2, 11, 86
5, 172844, Control_c, 2, 11, 87
5, 172848, Control_c, 2, 11, 88
5, 172851, Control_c, 2, 11, 89
5, 172855, Control_c, 2, 11, 90
5, 172859, Control_c, 2, 11, 91
5, 172862, Control_c, 2, 11, 92
5, 172866, Control_c, 2, 11, 93
5, 172870, Control_c, 2, 11, 94
5, 172873, Control_c, 2, 11, 95
5, 172877, Control_c, 2, 11, 96
5, 172881, Control_c, 2, 11, 97
5, 172884, Control_c, 2, 11, 98
5, 172888, Control_c, 2, 11, 99
5, 172892, Control_c, 2, 11, 100
5, 172896, Control_c, 2, 11, 101
5, 172899, Control_c, 2, 11, 102
5, 172903, Control_c, 2, 11, 103
5, 172907, Control_c, 2, 11, 104
5, 172910, Control_c, 2, 11, 105
5, 172914, Control_c, 2, 11, 106
5, 172918, Control_c, 2, 11, 107
5, 172921, Control_c, 2, 11, 108
5, 172925, Control_c, 2, 11, 109
5, 172926, Note_on_c, 2, 62, 0
5, 172928, Note_on_c, 2, 63, 58
5, 172929, Control_c, 2, 11, 110
5, 172932, Control_c, 2, 11, 111
5, 172936, Control_c, 2, 11, 112
5, 172940, Control_c, 2, 11, 113
5, 172944, Control_c, 2, 11, 114
5, 172947, Control_c, 2, 11, 115
5, 172951, Control_c, 2, 11, 116
5, 172955, Control_c, 2, 11, 117
5, 172958, Control_c, 2, 11, 118
5, 172962, Control_c, 2, 11, 119
5, 172966, Control_c, 2, 11, 120
5, 172969, Control_c, 2, 11, 121
5, 172970, Note_on_c, 2, 63, 0
5, 172973, Control_c, 2, 11, 122
5, 172977, Control_c, 2, 11, 123
5, 172980, Control_c, 2, 11, 124
5, 172984, Control_c, 2, 11, 125
5, 172988, Control_c, 2, 11, 126
5, 172992, Control_c, 2, 11, 127
5, 172992, Note_on_c, 2, 64, 56
5, 173152, Note_on_c, 2, 64, 0
5, 173184, Control_c, 2, 11, 75
5, 173184, Note_on_c, 2, 62, 57
5, 173187, Control_c, 2, 11, 76
5, 173191, Control_c, 2, 11, 77
5, 173195, Control_c, 2, 11, 78
5, 173198, Control_c, 2, 11, 79
5, 173202, Control_c, 2, 11, 80
5, 173206, Control_c, 2, 11, 81
5, 173209, Control_c, 2, 11, 82
5, 173213, Control_c, 2, 11, 83
5, 173217, Control_c, 2, 11, 84
5, 173220, Control_c, 2, 11, 85
5, 173224, Control_c, 2, 11, 86
5, 173228, Control_c, 2, 11, 87
5, 173232, Control_c, 2, 11, 88
5, 173235, Control_c, 2, 11, 89
5, 173239, Control_c, 2, 11, 90
5, 173243, Control_c, 2, 11, 91
5, 173246, Control_c, 2, 11, 92
5, 173250, Control_c, 2, 11, 93
5, 173254, Control_c, 2, 11, 94
5, 173257, Control_c, 2, 11, 95
5, 173261, Control_c, 2, 11, 96
5, 173265, Control_c, 2, 11, 97
5, 173268, Control_c, 2, 11, 98
5, 173272, Control_c, 2, 11, 99
5, 173276, Control_c, 2, 11, 100
5, 173280, Control_c, 2, 11, 101
5, 173283, Control_c, 2, 11, 102
5, 173287, Control_c, 2, 11, 103
5, 173291, Control_c, 2, 11, 104
5, 173294, Control_c, 2, 11, 105
5, 173298, Control_c, 2, 11, 106
5, 173302, Control_c, 2, 11, 107
5, 173305, Control_c, 2, 11, 108
5, 173309, Control_c, 2, 11, 109
5, 173310, Note_on_c, 2, 62, 0
5, 173312, Note_on_c, 2, 63, 64
5, 173313, Control_c, 2, 11, 110
5, 173316, Control_c, 2, 11, 111
5, 173320, Control_c, 2, 11, 112
5, 173324, Control_c, 2, 11, 113
5, 173328, Control_c, 2, 11, 114
5, 173331, Control_c, 2, 11, 115
5, 173335, Control_c, 2, 11, 116
5, 173339, Control_c, 2, 11, 117
5, 173342, Control_c, 2, 11, 118
5, 173346, Control_c, 2, 11, 119
5, 173350, Control_c, 2, 11, 120
5, 173353, Control_c, 2, 11, 121
5, 173354, Note_on_c, 2, 63, 0
5, 173357, Control_c, 2, 11, 122
5, 173361, Control_c, 2, 11, 123
5, 173364, Control_c, 2, 11, 124
5, 173368, Control_c, 2, 11, 125
5, 173372, Control_c, 2, 11, 126
5, 173376, Control_c, 2, 11, 127
5, 173376, Note_on_c, 2, 64, 58
5, 173536, Note_on_c, 2, 64, 0
5, 173568, Note_on_c, 2, 69, 33
5, 173694, Note_on_c, 2, 69, 0
5, 173696, Note_on_c, 2, 69, 29
5, 173738, Note_on_c, 2, 69, 0
5, 173760, Note_on_c, 2, 69, 33
5, 173802, Note_on_c, 2, 69, 0
5, 173824, Note_on_c, 2, 69, 28
5, 173866, Note_on_c, 2, 69, 0
5, 173888, Note_on_c, 2, 69, 35
5, 173930, Note_on_c, 2, 69, 0
5, 173952, Note_on_c, 2, 69, 25
5, 174078, Note_on_c, 2, 69, 0
5, 174080, Note_on_c, 2, 69, 32
5, 174122, Note_on_c, 2, 69, 0
5, 174144, Note_on_c, 2, 69, 32
5, 174186, Note_on_c, 2, 69, 0
5, 174208, Note_on_c, 2, 69, 30
5, 174250, Note_on_c, 2, 69, 0
5, 174272, Note_on_c, 2, 69, 33
5, 174314, Note_on_c, 2, 69, 0
5, 174336, Note_on_c, 2, 69, 33
5, 174462, Note_on_c, 2, 69, 0
5, 174464, Note_on_c, 2, 69, 35
5, 174506, Note_on_c, 2, 69, 0
5, 174528, Note_on_c, 2, 69, 31
5, 174570, Note_on_c, 2, 69, 0
5, 174592, Note_on_c, 2, 69, 32
5, 174634, Note_on_c, 2, 69, 0
5, 174656, Note_on_c, 2, 69, 27
5, 174698, Note_on_c, 2, 69, 0
5, 174720, Note_on_c, 2, 69, 27
5, 174846, Note_on_c, 2, 69, 0
5, 174848, Note_on_c, 2, 69, 28
5, 174890, Note_on_c, 2, 69, 0
5, 174912, Note_on_c, 2, 69, 28
5, 174954, Note_on_c, 2, 69, 0
5, 174976, Note_on_c, 2, 69, 35
5, 175018, Note_on_c, 2, 69, 0
5, 175040, Note_on_c, 2, 69, 28
5, 175082, Note_on_c, 2, 69, 0
5, 175104, Note_on_c, 2, 69, 32
5, 175230, Note_on_c, 2, 69, 0
5, 175232, Note_on_c, 2, 69, 25
5, 175274, Note_on_c, 2, 69, 0
5, 175296, Note_on_c, 2, 69, 33
5, 175338, Note_on_c, 2, 69, 0
5, 175360, Note_on_c, 2, 69, 25
5, 175402, Note_on_c, 2, 69, 0
5, 175424, Note_on_c, 2, 69, 27
5, 175466, Note_on_c, 2, 69, 0
5, 175488, Note_on_c, 2, 69, 28
5, 175614, Note_on_c, 2, 69, 0
5, 175616, Note_on_c, 2, 69, 30
5, 175658, Note_on_c, 2, 69, 0
5, 175680, Note_on_c, 2, 69, 31
5, 175722, Note_on_c, 2, 69, 0
5, 175744, Note_on_c, 2, 69, 26
5, 175786, Note_on_c, 2, 69, 0
5, 175808, Note_on_c, 2, 69, 31
5, 175850, Note_on_c, 2, 69, 0
5, 175872, Note_on_c, 2, 70, 33
5, 175998, Note_on_c, 2, 70, 0
5, 176000, Note_on_c, 2, 70, 25
5, 176042, Note_on_c, 2, 70, 0
5, 176064, Note_on_c, 2, 70, 35
5, 176106, Note_on_c, 2, 70, 0
5, 176128, Note_on_c, 2, 70, 33
5, 176170, Note_on_c, 2, 70, 0
5, 176192, Note_on_c, 2, 70, 26
5, 176234, Note_on_c, 2, 70, 0
5, 176256, Note_on_c, 2, 70, 35
5, 176382, Note_on_c, 2, 70, 0
5, 176384, Note_on_c, 2, 70, 30
5, 176426, Note_on_c, 2, 70, 0
5, 176448, Note_on_c, 2, 70, 31
5, 176490, Note_on_c, 2, 70, 0
5, 176512, Note_on_c, 2, 70, 34
5, 176554, Note_on_c, 2, 70, 0
5, 176576, Note_on_c, 2, 70, 34
5, 176618, Note_on_c, 2, 70, 0
5, 176640, Note_on_c, 2, 70, 27
5, 176766, Note_on_c, 2, 70, 0
5, 176768, Note_on_c, 2, 70, 34
5, 176810, Note_on_c, 2, 70, 0
5, 176832, Note_on_c, 2, 70, 32
5, 176874, Note_on_c, 2, 70, 0
5, 176896, Note_on_c, 2, 70, 26
5, 176938, Note_on_c, 2, 70, 0
5, 176960, Note_on_c, 2, 70, 33
5, 177002, Note_on_c, 2, 70, 0
5, 177024, Note_on_c, 2, 70, 30
5, 177150, Note_on_c, 2, 70, 0
5, 177152, Note_on_c, 2, 70, 32
5, 177194, Note_on_c, 2, 70, 0
5, 177216, Note_on_c, 2, 70, 35
5, 177258, Note_on_c, 2, 70, 0
5, 177280, Note_on_c, 2, 70, 31
5, 177322, Note_on_c, 2, 70, 0
5, 177344, Note_on_c, 2, 70, 26
5, 177386, Note_on_c, 2, 70, 0
5, 177408, Note_on_c, 2, 71, 50
5, 177534, Note_on_c, 2, 71, 0
5, 177536, Note_on_c, 2, 70, 40
5, 177578, Note_on_c, 2, 70, 0
5, 177600, Note_on_c, 2, 69, 47
5, 177642, Note_on_c, 2, 69, 0
5, 177664, Note_on_c, 2, 68, 43
5, 177706, Note_on_c, 2, 68, 0
5, 177728, Note_on_c, 2, 67, 48
5, 177770, Note_on_c, 2, 67, 0
5, 177792, Note_on_c, 2, 71, 44
5, 177918, Note_on_c, 2, 71, 0
5, 177920, Note_on_c, 2, 70, 49
5, 177962, Note_on_c, 2, 70, 0
5, 177984, Note_on_c, 2, 69, 46
5, 178026, Note_on_c, 2, 69, 0
5, 178048, Note_on_c, 2, 68, 42
5, 178090, Note_on_c, 2, 68, 0
5, 178112, Note_on_c, 2, 67, 44
5, 178154, Note_on_c, 2, 67, 0
5, 178176, Note_on_c, 2, 71, 46
5, 178302, Note_on_c, 2, 71, 0
5, 178304, Note_on_c, 2, 70, 46
5, 178346, Note_on_c, 2, 70, 0
5, 178368, Note_on_c, 2, 69, 52
5, 178410, Note_on_c, 2, 69, 0
5, 178432, Note_on_c, 2, 68, 48
5, 178474, Note_on_c, 2, 68, 0
5, 178496, Note_on_c, 2, 67, 52
5, 178538, Note_on_c, 2, 67, 0
5, 178560, Note_on_c, 2, 71, 47
5, 178686, Note_on_c, 2, 71, 0
5, 178688, Note_on_c, 2, 70, 43
5, 178730, Note_on_c, 2, 70, 0
5, 178752, Note_on_c, 2, 69, 50
5, 178794, Note_on_c, 2, 69, 0
5, 178816, Note_on_c, 2, 68, 51
5, 178858, Note_on_c, 2, 68, 0
5, 178880, Note_on_c, 2, 67, 53
5, 178922, Note_on_c, 2, 67, 0
5, 178944, Note_on_c, 2, 71, 49
5, 179070, Note_on_c, 2, 71, 0
5, 179072, Note_on_c, 2, 70, 50
5, 179114, Note_on_c, 2, 70, 0
5, 179136, Note_on_c, 2, 69, 50
5, 179178, Note_on_c, 2, 69, 0
5, 179200, Note_on_c, 2, 68, 58
5, 179242, Note_on_c, 2, 68, 0
5, 179264, Note_on_c, 2, 67, 50
5, 179306, Note_on_c, 2, 67, 0
5, 179328, Note_on_c, 2, 71, 60
5, 179454, Note_on_c, 2, 71, 0
5, 179456, Note_on_c, 2, 70, 63
5, 179498, Note_on_c, 2, 70, 0
5, 179520, Note_on_c, 2, 69, 60
5, 179562, Note_on_c, 2, 69, 0
5, 179584, Note_on_c, 2, 68, 64
5, 179626, Note_on_c, 2, 68, 0
5, 179648, Note_on_c, 2, 67, 62
5, 179690, Note_on_c, 2, 67, 0
5, 179712, Note_on_c, 2, 71, 66
5, 179838, Note_on_c, 2, 71, 0
5, 179840, Note_on_c, 2, 70, 64
5, 179882, Note_on_c, 2, 70, 0
5, 179904, Note_on_c, 2, 69, 63
5, 179946, Note_on_c, 2, 69, 0
5, 179968, Note_on_c, 2, 68, 64
5, 180010, Note_on_c, 2, 68, 0
5, 180032, Note_on_c, 2, 67, 62
5, 180074, Note_on_c, 2, 67, 0
5, 180096, Note_on_c, 2, 71, 69
5, 180222, Note_on_c, 2, 71, 0
5, 180224, Note_on_c, 2, 70, 73
5, 180266, Note_on_c, 2, 70, 0
5, 180288, Note_on_c, 2, 69, 69
5, 180330, Note_on_c, 2, 69, 0
5, 180352, Note_on_c, 2, 68, 73
5, 180394, Note_on_c, 2, 68, 0
5, 180416, Note_on_c, 2, 67, 70
5, 180458, Note_on_c, 2, 67, 0
5, 180480, Note_on_c, 2, 61, 74
5, 180606, Note_on_c, 2, 61, 0
5, 180608, Note_on_c, 2, 61, 78
5, 180650, Note_on_c, 2, 61, 0
5, 180672, Note_on_c, 2, 60, 73
5, 180714, Note_on_c, 2, 60, 0
5, 180736, Note_on_c, 2, 59, 76
5, 180778, Note_on_c, 2, 59, 0
5, 180800, Note_on_c, 2, 58, 73
5, 180842, Note_on_c, 2, 58, 0
5, 180864, Note_on_c, 2, 61, 80
5, 180990, Note_on_c, 2, 61, 0
5, 180992, Note_on_c, 2, 61, 78
5, 181034, Note_on_c, 2, 61, 0
5, 181056, Note_on_c, 2, 61, 81
5, 181098, Note_on_c, 2, 61, 0
5, 181120, Note_on_c, 2, 61, 83
5, 181162, Note_on_c, 2, 61, 0
5, 181184, Note_on_c, 2, 61, 82
5, 181226, Note_on_c, 2, 61, 0
5, 181248, Note_on_c, 2, 61, 88
5, 181374, Note_on_c, 2, 61, 0
5, 181376, Note_on_c, 2, 61, 80
5, 181418, Note_on_c, 2, 61, 0
5, 181440, Note_on_c, 2, 60, 82
5, 181482, Note_on_c, 2, 60, 0
5, 181504, Note_on_c, 2, 59, 84
5, 181546, Note_on_c, 2, 59, 0
5, 181568, Note_on_c, 2, 58, 88
5, 181610, Note_on_c, 2, 58, 0
5, 181632, Note_on_c, 2, 61, 88
5, 181758, Note_on_c, 2, 61, 0
5, 181760, Note_on_c, 2, 61, 93
5, 181802, Note_on_c, 2, 61, 0
5, 181824, Note_on_c, 2, 61, 91
5, 181866, Note_on_c, 2, 61, 0
5, 181888, Note_on_c, 2, 61, 98
5, 181930, Note_on_c, 2, 61, 0
5, 181952, Note_on_c, 2, 61, 94
5, 181994, Note_on_c, 2, 61, 0
5, 182016, Note_on_c, 2, 61, 97
5, 182142, Note_on_c, 2, 61, 0
5, 182144, Note_on_c, 2, 61, 102
5, 182186, Note_on_c, 2, 61, 0
5, 182208, Note_on_c, 2, 60, 96
5, 182250, Note_on_c, 2, 60, 0
5, 182272, Note_on_c, 2, 59, 103
5, 182314, Note_on_c, 2, 59, 0
5, 182336, Note_on_c, 2, 58, 96
5, 182378, Note_on_c, 2, 58, 0
5, 182400, Note_on_c, 2, 61, 104
5, 182526, Note_on_c, 2, 61, 0
5, 182528, Note_on_c, 2, 61, 98
5, 182570, Note_on_c, 2, 61, 0
5, 182592, Note_on_c, 2, 61, 102
5, 182634, Note_on_c, 2, 61, 0
5, 182656, Note_on_c, 2, 61, 109
5, 182698, Note_on_c, 2, 61, 0
5, 182720, Note_on_c, 2, 61, 102
5, 182762, Note_on_c, 2, 61, 0
5, 182784, Control_c, 2, 11, 92
5, 182784, Note_on_c, 2, 65, 113
5, 182789, Control_c, 2, 11, 93
5, 182794, Control_c, 2, 11, 94
5, 182800, Control_c, 2, 11, 95
5, 182805, Control_c, 2, 11, 96
5, 182811, Control_c, 2, 11, 97
5, 182816, Control_c, 2, 11, 98
5, 182822, Control_c, 2, 11, 99
5, 182827, Control_c, 2, 11, 100
5, 182832, Note_on_c, 2, 65, 0
5, 182832, Note_on_c, 2, 64, 104
5, 182833, Control_c, 2, 11, 101
5, 182838, Control_c, 2, 11, 102
5, 182844, Control_c, 2, 11, 103
5, 182849, Control_c, 2, 11, 104
5, 182855, Control_c, 2, 11, 105
5, 182860, Control_c, 2, 11, 106
5, 182866, Control_c, 2, 11, 107
5, 182871, Control_c, 2, 11, 108
5, 182877, Control_c, 2, 11, 109
5, 182882, Control_c, 2, 11, 110
5, 182888, Control_c, 2, 11, 111
5, 182893, Control_c, 2, 11, 112
5, 182899, Control_c, 2, 11, 113
5, 182904, Control_c, 2, 11, 114
5, 182910, Control_c, 2, 11, 115
5, 182915, Control_c, 2, 11, 116
5, 182921, Control_c, 2, 11, 117
5, 182926, Control_c, 2, 11, 118
5, 182932, Control_c, 2, 11, 119
5, 182937, Control_c, 2, 11, 120
5, 182943, Control_c, 2, 11, 121
5, 182948, Control_c, 2, 11, 122
5, 182954, Control_c, 2, 11, 123
5, 182959, Control_c, 2, 11, 124
5, 182965, Control_c, 2, 11, 125
5, 182970, Control_c, 2, 11, 126
5, 182976, Control_c, 2, 11, 127
5, 183552, Control_c, 2, 11, 92
5, 183573, Control_c, 2, 11, 93
5, 183595, Control_c, 2, 11, 94
5, 183617, Control_c, 2, 11, 95
5, 183639, Control_c, 2, 11, 96
5, 183661, Control_c, 2, 11, 97
5, 183683, Control_c, 2, 11, 98
5, 183705, Control_c, 2, 11, 99
5, 183727, Control_c, 2, 11, 100
5, 183749, Control_c, 2, 11, 101
5, 183771, Control_c, 2, 11, 102
5, 183793, Control_c, 2, 11, 103
5, 183815, Control_c, 2, 11, 104
5, 183837, Control_c, 2, 11, 105
5, 183859, Control_c, 2, 11, 106
5, 183881, Control_c, 2, 11, 107
5, 183903, Control_c, 2, 11, 108
5, 183925, Control_c, 2, 11, 109
5, 183936, Note_on_c, 2, 64, 0
5, 183936, Note_on_c, 2, 65, 111
5, 183946, Control_c, 2, 11, 110
5, 183968, Control_c, 2, 11, 111
5, 183990, Control_c, 2, 11, 112
5, 184012, Control_c, 2, 11, 113
5, 184034, Control_c, 2, 11, 114
5, 184056, Control_c, 2, 11, 115
5, 184078, Control_c, 2, 11, 116
5, 184100, Control_c, 2, 11, 117
5, 184122, Control_c, 2, 11, 118
5, 184144, Control_c, 2, 11, 119
5, 184166, Control_c, 2, 11, 120
5, 184188, Control_c, 2, 11, 121
5, 184210, Control_c, 2, 11, 122
5, 184232, Control_c, 2, 11, 123
5, 184254, Control_c, 2, 11, 124
5, 184272, Note_on_c, 2, 65, 0
5, 184276, Control_c, 2, 11, 125
5, 184298, Control_c, 2, 11, 126
5, 184320, Control_c, 2, 11, 127
5, 184320, Control_c, 2, 11, 92
5, 184320, Note_on_c, 2, 65, 104
5, 184325, Control_c, 2, 11, 93
5, 184330, Control_c, 2, 11, 94
5, 184336, Control_c, 2, 11, 95
5, 184341, Control_c, 2, 11, 96
5, 184347, Control_c, 2, 11, 97
5, 184352, Control_c, 2, 11, 98
5, 184358, Control_c, 2, 11, 99
5, 184363, Control_c, 2, 11, 100
5, 184368, Note_on_c, 2, 65, 0
5, 184368, Note_on_c, 2, 64, 113
5, 184369, Control_c, 2, 11, 101
5, 184374, Control_c, 2, 11, 102
5, 184380, Control_c, 2, 11, 103
5, 184385, Control_c, 2, 11, 104
5, 184391, Control_c, 2, 11, 105
5, 184396, Control_c, 2, 11, 106
5, 184402, Control_c, 2, 11, 107
5, 184407, Control_c, 2, 11, 108
5, 184413, Control_c, 2, 11, 109
5, 184418, Control_c, 2, 11, 110
5, 184424, Control_c, 2, 11, 111
5, 184429, Control_c, 2, 11, 112
5, 184435, Control_c, 2, 11, 113
5, 184440, Control_c, 2, 11, 114
5, 184446, Control_c, 2, 11, 115
5, 184451, Control_c, 2, 11, 116
5, 184457, Control_c, 2, 11, 117
5, 184462, Control_c, 2, 11, 118
5, 184468, Control_c, 2, 11, 119
5, 184473, Control_c, 2, 11, 120
5, 184479, Control_c, 2, 11, 121
5, 184484, Control_c, 2, 11, 122
5, 184490, Control_c, 2, 11, 123
5, 184495, Control_c, 2, 11, 124
5, 184501, Control_c, 2, 11, 125
5, 184506, Control_c, 2, 11, 126
5, 184512, Control_c, 2, 11, 127
5, 185088, Control_c, 2, 11, 92
5, 185109, Control_c, 2, 11, 93
5, 185131, Control_c, 2, 11, 94
5, 185153, Control_c, 2, 11, 95
5, 185175, Control_c, 2, 11, 96
5, 185197, Control_c, 2, 11, 97
5, 185219, Control_c, 2, 11, 98
5, 185241, Control_c, 2, 11, 99
5, 185263, Control_c, 2, 11, 100
5, 185285, Control_c, 2, 11, 101
5, 185307, Control_c, 2, 11, 102
5, 185329, Control_c, 2, 11, 103
5, 185351, Control_c, 2, 11, 104
5, 185373, Control_c, 2, 11, 105
5, 185395, Control_c, 2, 11, 106
5, 185417, Control_c, 2, 11, 107
5, 185439, Control_c, 2, 11, 108
5, 185461, Control_c, 2, 11, 109
5, 185472, Note_on_c, 2, 64, 0
5, 185472, Note_on_c, 2, 65, 104
5, 185482, Control_c, 2, 11, 110
5, 185504, Control_c, 2, 11, 111
5, 185526, Control_c, 2, 11, 112
5, 185548, Control_c, 2, 11, 113
5, 185570, Control_c, 2, 11, 114
5, 185592, Control_c, 2, 11, 115
5, 185614, Control_c, 2, 11, 116
5, 185636, Control_c, 2, 11, 117
5, 185658, Control_c, 2, 11, 118
5, 185664, Note_on_c, 2, 65, 0
5, 185664, Note_on_c, 2, 68, 109
5, 185680, Control_c, 2, 11, 119
5, 185702, Control_c, 2, 11, 120
5, 185724, Control_c, 2, 11, 121
5, 185746, Control_c, 2, 11, 122
5, 185768, Control_c, 2, 11, 123
5, 185790, Control_c, 2, 11, 124
5, 185812, Control_c, 2, 11, 125
5, 185824, Note_on_c, 2, 68, 0
5, 185834, Control_c, 2, 11, 126
5, 185856, Control_c, 2, 11, 127
5, 185856, Control_c, 2, 11, 92
5, 185856, Note_on_c, 2, 65, 103
5, 185861, Control_c, 2, 11, 93
5, 185866, Control_c, 2, 11, 94
5, 185872, Control_c, 2, 11, 95
5, 185877, Control_c, 2, 11, 96
5, 185883, Control_c, 2, 11, 97
5, 185888, Control_c, 2, 11, 98
5, 185894, Control_c, 2, 11, 99
5, 185899, Control_c, 2, 11, 100
5, 185904, Note_on_c, 2, 65, 0
5, 185904, Note_on_c, 2, 64, 107
5, 185905, Control_c, 2, 11, 101
5, 185910, Control_c, 2, 11, 102
5, 185916, Control_c, 2, 11, 103
5, 185921, Control_c, 2, 11, 104
5, 185927, Control_c, 2, 11, 105
5, 185932, Control_c, 2, 11, 106
5, 185938, Control_c, 2, 11, 107
5, 185943, Control_c, 2, 11, 108
5, 185949, Control_c, 2, 11, 109
5, 185954, Control_c, 2, 11, 110
5, 185960, Control_c, 2, 11, 111
5, 185965, Control_c, 2, 11, 112
5, 185971, Control_c, 2, 11, 113
5, 185976, Control_c, 2, 11, 114
5, 185982, Control_c, 2, 11, 115
5, 185987, Control_c, 2, 11, 116
5, 185993, Control_c, 2, 11, 117
5, 185998, Control_c, 2, 11, 118
5, 186004, Control_c, 2, 11, 119
5, 186009, Control_c, 2, 11, 120
5, 186015, Control_c, 2, 11, 121
5, 186020, Control_c, 2, 11, 122
5, 186026, Control_c, 2, 11, 123
5, 186031, Control_c, 2, 11, 124
5, 186037, Control_c, 2, 11, 125
5, 186042, Control_c, 2, 11, 126
5, 186048, Control_c, 2, 11, 127
5, 186624, Control_c, 2, 11, 92
5, 186645, Control_c, 2, 11, 93
5, 186667, Control_c, 2, 11, 94
5, 186689, Control_c, 2, 11, 95
5, 186711, Control_c, 2, 11, 96
5, 186733, Control_c, 2, 11, 97
5, 186755, Control_c, 2, 11, 98
5, 186777, Control_c, 2, 11, 99
5, 186799, Control_c, 2, 11, 100
5, 186821, Control_c, 2, 11, 101
5, 186843, Control_c, 2, 11, 102
5, 186865, Control_c, 2, 11, 103
5, 186887, Control_c, 2, 11, 104
5, 186909, Control_c, 2, 11, 105
5, 186931, Control_c, 2, 11, 106
5, 186953, Control_c, 2, 11, 107
5, 186975, Control_c, 2, 11, 108
5, 186997, Control_c, 2, 11, 109
5, 187008, Note_on_c, 2, 64, 0
5, 187008, Note_on_c, 2, 65, 110
5, 187018, Control_c, 2, 11, 110
5, 187040, Control_c, 2, 11, 111
5, 187062, Control_c, 2, 11, 112
5, 187084, Control_c, 2, 11, 113
5, 187106, Control_c, 2, 11, 114
5, 187128, Control_c, 2, 11, 115
5, 187150, Control_c, 2, 11, 116
5, 187172, Control_c, 2, 11, 117
5, 187194, Control_c, 2, 11, 118
5, 187216, Control_c, 2, 11, 119
5, 187238, Control_c, 2, 11, 120
5, 187260, Control_c, 2, 11, 121
5, 187282, Control_c, 2, 11, 122
5, 187304, Control_c, 2, 11, 123
5, 187326, Control_c, 2, 11, 124
5, 187344, Note_on_c, 2, 65, 0
5, 187348, Control_c, 2, 11, 125
5, 187370, Control_c, 2, 11, 126
5, 187392, Control_c, 2, 11, 127
5, 187392, Control_c, 2, 11, 92
5, 187392, Note_on_c, 2, 65, 105
5, 187397, Control_c, 2, 11, 93
5, 187402, Control_c, 2, 11, 94
5, 187408, Control_c, 2, 11, 95
5, 187413, Control_c, 2, 11, 96
5, 187419, Control_c, 2, 11, 97
5, 187424, Control_c, 2, 11, 98
5, 187430, Control_c, 2, 11, 99
5, 187435, Control_c, 2, 11, 100
5, 187440, Note_on_c, 2, 65, 0
5, 187440, Note_on_c, 2, 64, 104
5, 187441, Control_c, 2, 11, 101
5, 187446, Control_c, 2, 11, 102
5, 187452, Control_c, 2, 11, 103
5, 187457, Control_c, 2, 11, 104
5, 187463, Control_c, 2, 11, 105
5, 187468, Control_c, 2, 11, 106
5, 187474, Control_c, 2, 11, 107
5, 187479, Control_c, 2, 11, 108
5, 187485, Control_c, 2, 11, 109
5, 187490, Control_c, 2, 11, 110
5, 187496, Control_c, 2, 11, 111
5, 187501, Control_c, 2, 11, 112
5, 187507, Control_c, 2, 11, 113
5, 187512, Control_c, 2, 11, 114
5, 187518, Control_c, 2, 11, 115
5, 187523, Control_c, 2, 11, 116
5, 187529, Control_c, 2, 11, 117
5, 187534, Control_c, 2, 11, 118
5, 187540, Control_c, 2, 11, 119
5, 187545, Control_c, 2, 11, 120
5, 187551, Control_c, 2, 11, 121
5, 187556, Control_c, 2, 11, 122
5, 187562, Control_c, 2, 11, 123
5, 187567, Control_c, 2, 11, 124
5, 187573, Control_c, 2, 11, 125
5, 187578, Control_c, 2, 11, 126
5, 187584, Control_c, 2, 11, 127
5, 188160, Control_c, 2, 11, 92
5, 188181, Control_c, 2, 11, 93
5, 188203, Control_c, 2, 11, 94
5, 188225, Control_c, 2, 11, 95
5, 188247, Control_c, 2, 11, 96
5, 188269, Control_c, 2, 11, 97
5, 188291, Control_c, 2, 11, 98
5, 188313, Control_c, 2, 11, 99
5, 188335, Control_c, 2, 11, 100
5, 188357, Control_c, 2, 11, 101
5, 188379, Control_c, 2, 11, 102
5, 188401, Control_c, 2, 11, 103
5, 188423, Control_c, 2, 11, 104
5, 188445, Control_c, 2, 11, 105
5, 188467, Control_c, 2, 11, 106
5, 188489, Control_c, 2, 11, 107
5, 188511, Control_c, 2, 11, 108
5, 188533, Control_c, 2, 11, 109
5, 188544, Note_on_c, 2, 64, 0
5, 188544, Note_on_c, 2, 65, 106
5, 188554, Control_c, 2, 11, 110
5, 188576, Control_c, 2, 11, 111
5, 188598, Control_c, 2, 11, 112
5, 188620, Control_c, 2, 11, 113
5, 188642, Control_c, 2, 11, 114
5, 188664, Control_c, 2, 11, 115
5, 188686, Control_c, 2, 11, 116
5, 188708, Control_c, 2, 11, 117
5, 188730, Control_c, 2, 11, 118
5, 188736, Note_on_c, 2, 65, 0
5, 188736, Note_on_c, 2, 68, 113
5, 188752, Control_c, 2, 11, 119
5, 188774, Control_c, 2, 11, 120
5, 188796, Control_c, 2, 11, 121
5, 188818, Control_c, 2, 11, 122
5, 188840, Control_c, 2, 11, 123
5, 188862, Control_c, 2, 11, 124
5, 188884, Control_c, 2, 11, 125
5, 188896, Note_on_c, 2, 68, 0
5, 188906, Control_c, 2, 11, 126
5, 188928, Control_c, 2, 11, 127
5, 188928, Control_c, 2, 11, 75
5, 188928, Note_on_c, 2, 69, 76
5, 189056, Note_on_c, 2, 69, 0
5, 189056, Note_on_c, 2, 69, 75
5, 189184, Note_on_c, 2, 69, 0
5, 189184, Note_on_c, 2, 68, 78
5, 189312, Note_on_c, 2, 68, 0
5, 189312, Note_on_c, 2, 68, 79
5, 189696, Control_c, 2, 11, 75
5, 189703, Control_c, 2, 11, 76
5, 189710, Control_c, 2, 11, 77
5, 189718, Control_c, 2, 11, 78
5, 189725, Control_c, 2, 11, 79
5, 189732, Control_c, 2, 11, 80
5, 189740, Control_c, 2, 11, 81
5, 189747, Control_c, 2, 11, 82
5, 189755, Control_c, 2, 11, 83
5, 189762, Control_c, 2, 11, 84
5, 189769, Control_c, 2, 11, 85
5, 189777, Control_c, 2, 11, 86
5, 189784, Control_c, 2, 11, 87
5, 189792, Control_c, 2, 11, 88
5, 189799, Control_c, 2, 11, 89
5, 189806, Control_c, 2, 11, 90
5, 189814, Control_c, 2, 11, 91
5, 189821, Control_c, 2, 11, 92
5, 189828, Control_c, 2, 11, 93
5, 189836, Control_c, 2, 11, 94
5, 189843, Control_c, 2, 11, 95
5, 189851, Control_c, 2, 11, 96
5, 189858, Control_c, 2, 11, 97
5, 189865, Control_c, 2, 11, 98
5, 189873, Control_c, 2, 11, 99
5, 189880, Control_c, 2, 11, 100
5, 189888, Control_c, 2, 11, 101
5, 189895, Control_c, 2, 11, 102
5, 189902, Control_c, 2, 11, 103
5, 189910, Control_c, 2, 11, 104
5, 189917, Control_c, 2, 11, 105
5, 189924, Control_c, 2, 11, 106
5, 189932, Control_c, 2, 11, 107
5, 189939, Control_c, 2, 11, 108
5, 189947, Control_c, 2, 11, 109
5, 189954, Control_c, 2, 11, 110
5, 189961, Control_c, 2, 11, 111
5, 189969, Control_c, 2, 11, 112
5, 189976, Control_c, 2, 11, 113
5, 189984, Control_c, 2, 11, 114
5, 189991, Control_c, 2, 11, 115
5, 189998, Control_c, 2, 11, 116
5, 190006, Control_c, 2, 11, 117
5, 190013, Control_c, 2, 11, 118
5, 190020, Control_c, 2, 11, 119
5, 190028, Control_c, 2, 11, 120
5, 190035, Control_c, 2, 11, 121
5, 190043, Control_c, 2, 11, 122
5, 190050, Control_c, 2, 11, 123
5, 190057, Control_c, 2, 11, 124
5, 190065, Control_c, 2, 11, 125
5, 190072, Control_c, 2, 11, 126
5, 190080, Note_on_c, 2, 68, 0
5, 190080, Control_c, 2, 11, 127
5, 190080, Note_on_c, 2, 69, 75
5, 190208, Note_on_c, 2, 69, 0
5, 190208, Note_on_c, 2, 69, 77
5, 190336, Note_on_c, 2, 69, 0
5, 190336, Note_on_c, 2, 68, 70
5, 190462, Note_on_c, 2, 68, 0
5, 190464, Control_c, 2, 11, 75
5, 190464, Note_on_c, 2, 70, 72
5, 190592, Note_on_c, 2, 70, 0
5, 190592, Note_on_c, 2, 70, 77
5, 190720, Note_on_c, 2, 70, 0
5, 190720, Note_on_c, 2, 68, 77
5, 190848, Note_on_c, 2, 68, 0
5, 190848, Note_on_c, 2, 68, 79
5, 191232, Control_c, 2, 11, 75
5, 191239, Control_c, 2, 11, 76
5, 191246, Control_c, 2, 11, 77
5, 191254, Control_c, 2, 11, 78
5, 191261, Control_c, 2, 11, 79
5, 191268, Control_c, 2, 11, 80
5, 191276, Control_c, 2, 11, 81
5, 191283, Control_c, 2, 11, 82
5, 191291, Control_c, 2, 11, 83
5, 191298, Control_c, 2, 11, 84
5, 191305, Control_c, 2, 11, 85
5, 191313, Control_c, 2, 11, 86
5, 191320, Control_c, 2, 11, 87
5, 191328, Control_c, 2, 11, 88
5, 191335, Control_c, 2, 11, 89
5, 191342, Control_c, 2, 11, 90
5, 191350, Control_c, 2, 11, 91
5, 191357, Control_c, 2, 11, 92
5, 191364, Control_c, 2, 11, 93
5, 191372, Control_c, 2, 11, 94
5, 191379, Control_c, 2, 11, 95
5, 191387, Control_c, 2, 11, 96
5, 191394, Control_c, 2, 11, 97
5, 191401, Control_c, 2, 11, 98
5, 191409, Control_c, 2, 11, 99
5, 191416, Control_c, 2, 11, 100
5, 191424, Control_c, 2, 11, 101
5, 191431, Control_c, 2, 11, 102
5, 191438, Control_c, 2, 11, 103
5, 191446, Control_c, 2, 11, 104
5, 191453, Control_c, 2, 11, 105
5, 191460, Control_c, 2, 11, 106
5, 191468, Control_c, 2, 11, 107
5, 191475, Control_c, 2, 11, 108
5, 191483, Control_c, 2, 11, 109
5, 191490, Control_c, 2, 11, 110
5, 191497, Control_c, 2, 11, 111
5, 191505, Control_c, 2, 11, 112
5, 191512, Control_c, 2, 11, 113
5, 191520, Control_c, 2, 11, 114
5, 191527, Control_c, 2, 11, 115
5, 191534, Control_c, 2, 11, 116
5, 191542, Control_c, 2, 11, 117
5, 191549, Control_c, 2, 11, 118
5, 191556, Control_c, 2, 11, 119
5, 191564, Control_c, 2, 11, 120
5, 191571, Control_c, 2, 11, 121
5, 191579, Control_c, 2, 11, 122
5, 191586, Control_c, 2, 11, 123
5, 191593, Control_c, 2, 11, 124
5, 191601, Control_c, 2, 11, 125
5, 191608, Control_c, 2, 11, 126
5, 191616, Note_on_c, 2, 68, 0
5, 191616, Control_c, 2, 11, 127
5, 191616, Note_on_c, 2, 70, 80
5, 191744, Note_on_c, 2, 70, 0
5, 191744, Note_on_c, 2, 70, 73
5, 191872, Note_on_c, 2, 70, 0
5, 191872, Note_on_c, 2, 68, 79
5, 191998, Note_on_c, 2, 68, 0
5, 192000, Note_on_c, 2, 71, 74
5, 192126, Note_on_c, 2, 71, 0
5, 192128, Note_on_c, 2, 71, 72
5, 192254, Note_on_c, 2, 71, 0
5, 192256, Note_on_c, 2, 70, 79
5, 192382, Note_on_c, 2, 70, 0
5, 192384, Note_on_c, 2, 69, 82
5, 192510, Note_on_c, 2, 69, 0
5, 192512, Note_on_c, 2, 69, 77
5, 192638, Note_on_c, 2, 69, 0
5, 192640, Note_on_c, 2, 66, 79
5, 192766, Note_on_c, 2, 66, 0
5, 192768, Note_on_c, 2, 62, 77
5, 192888, Note_on_c, 2, 62, 0
5, 192960, Note_on_c, 2, 64, 77
5, 193080, Note_on_c, 2, 64, 0
5, 193152, Note_on_c, 2, 65, 84
5, 193488, Note_on_c, 2, 65, 0
5, 193536, Note_on_c, 2, 64, 87
5, 193662, Note_on_c, 2, 64, 0
5, 193664, Note_on_c, 2, 64, 90
5, 193790, Note_on_c, 2, 64, 0
5, 193792, Note_on_c, 2, 62, 88
5, 193918, Note_on_c, 2, 62, 0
5, 193920, Note_on_c, 2, 62, 87
5, 194046, Note_on_c, 2, 62, 0
5, 194048, Note_on_c, 2, 62, 95
5, 194174, Note_on_c, 2, 62, 0
5, 194176, Note_on_c, 2, 59, 91
5, 194302, Note_on_c, 2, 59, 0
5, 194304, Note_on_c, 2, 56, 92
5, 194424, Note_on_c, 2, 56, 0
5, 194496, Note_on_c, 2, 60, 92
5, 194616, Note_on_c, 2, 60, 0
5, 194688, Note_on_c, 2, 64, 95
5, 195456, Note_on_c, 2, 64, 0
5, 195456, Note_on_c, 2, 66, 102
5, 195648, Note_on_c, 2, 66, 0
5, 195648, Note_on_c, 2, 67, 105
5, 195808, Note_on_c, 2, 67, 0
5, 195840, Control_c, 2, 11, 92
5, 195840, Note_on_c, 2, 69, 109
5, 195931, Note_on_c, 2, 69, 0
5, 195968, Note_on_c, 2, 69, 106
5, 196059, Note_on_c, 2, 69, 0
5, 196096, Note_on_c, 2, 68, 110
5, 196224, Note_on_c, 2, 68, 0
5, 196224, Note_on_c, 2, 68, 111
5, 196992, Note_on_c, 2, 68, 0
5, 196992, Control_c, 2, 11, 92
5, 196992, Note_on_c, 2, 69, 105
5, 197002, Control_c, 2, 11, 93
5, 197013, Control_c, 2, 11, 94
5, 197024, Control_c, 2, 11, 95
5, 197035, Control_c, 2, 11, 96
5, 197046, Control_c, 2, 11, 97
5, 197057, Control_c, 2, 11, 98
5, 197068, Control_c, 2, 11, 99
5, 197079, Control_c, 2, 11, 100
5, 197083, Note_on_c, 2, 69, 0
5, 197090, Control_c, 2, 11, 101
5, 197101, Control_c, 2, 11, 102
5, 197112, Control_c, 2, 11, 103
5, 197120, Note_on_c, 2, 69, 108
5, 197123, Control_c, 2, 11, 104
5, 197134, Control_c, 2, 11, 105
5, 197145, Control_c, 2, 11, 106
5, 197156, Control_c, 2, 11, 107
5, 197167, Control_c, 2, 11, 108
5, 197178, Control_c, 2, 11, 109
5, 197189, Control_c, 2, 11, 110
5, 197200, Control_c, 2, 11, 111
5, 197211, Note_on_c, 2, 69, 0
5, 197211, Control_c, 2, 11, 112
5, 197222, Control_c, 2, 11, 113
5, 197233, Control_c, 2, 11, 114
5, 197244, Control_c, 2, 11, 115
5, 197248, Note_on_c, 2, 68, 108
5, 197255, Control_c, 2, 11, 116
5, 197266, Control_c, 2, 11, 117
5, 197277, Control_c, 2, 11, 118
5, 197288, Control_c, 2, 11, 119
5, 197299, Control_c, 2, 11, 120
5, 197310, Control_c, 2, 11, 121
5, 197321, Control_c, 2, 11, 122
5, 197332, Control_c, 2, 11, 123
5, 197343, Control_c, 2, 11, 124
5, 197354, Control_c, 2, 11, 125
5, 197365, Control_c, 2, 11, 126
5, 197374, Note_on_c, 2, 68, 0
5, 197376, Control_c, 2, 11, 127
5, 197376, Control_c, 2, 11, 92
5, 197376, Note_on_c, 2, 70, 108
5, 197467, Note_on_c, 2, 70, 0
5, 197504, Note_on_c, 2, 70, 103
5, 197595, Note_on_c, 2, 70, 0
5, 197632, Note_on_c, 2, 68, 110
5, 197760, Note_on_c, 2, 68, 0
5, 197760, Note_on_c, 2, 68, 113
5, 198528, Note_on_c, 2, 68, 0
5, 198528, Control_c, 2, 11, 92
5, 198528, Note_on_c, 2, 70, 105
5, 198538, Control_c, 2, 11, 93
5, 198549, Control_c, 2, 11, 94
5, 198560, Control_c, 2, 11, 95
5, 198571, Control_c, 2, 11, 96
5, 198582, Control_c, 2, 11, 97
5, 198593, Control_c, 2, 11, 98
5, 198604, Control_c, 2, 11, 99
5, 198615, Control_c, 2, 11, 100
5, 198619, Note_on_c, 2, 70, 0
5, 198626, Control_c, 2, 11, 101
5, 198637, Control_c, 2, 11, 102
5, 198648, Control_c, 2, 11, 103
5, 198656, Note_on_c, 2, 70, 113
5, 198659, Control_c, 2, 11, 104
5, 198670, Control_c, 2, 11, 105
5, 198681, Control_c, 2, 11, 106
5, 198692, Control_c, 2, 11, 107
5, 198703, Control_c, 2, 11, 108
5, 198714, Control_c, 2, 11, 109
5, 198725, Control_c, 2, 11, 110
5, 198736, Control_c, 2, 11, 111
5, 198747, Note_on_c, 2, 70, 0
5, 198747, Control_c, 2, 11, 112
5, 198758, Control_c, 2, 11, 113
5, 198769, Control_c, 2, 11, 114
5, 198780, Control_c, 2, 11, 115
5, 198784, Note_on_c, 2, 68, 105
5, 198791, Control_c, 2, 11, 116
5, 198802, Control_c, 2, 11, 117
5, 198813, Control_c, 2, 11, 118
5, 198824, Control_c, 2, 11, 119
5, 198835, Control_c, 2, 11, 120
5, 198846, Control_c, 2, 11, 121
5, 198857, Control_c, 2, 11, 122
5, 198868, Control_c, 2, 11, 123
5, 198879, Control_c, 2, 11, 124
5, 198890, Control_c, 2, 11, 125
5, 198901, Control_c, 2, 11, 126
5, 198910, Note_on_c, 2, 68, 0
5, 198912, Control_c, 2, 11, 127
5, 198912, Note_on_c, 2, 70, 71
5, 199003, Note_on_c, 2, 70, 0
5, 199040, Note_on_c, 2, 70, 75
5, 199131, Note_on_c, 2, 70, 0
5, 199168, Note_on_c, 2, 65, 75
5, 199259, Note_on_c, 2, 65, 0
5, 199296, Note_on_c, 2, 70, 70
5, 199387, Note_on_c, 2, 70, 0
5, 199424, Note_on_c, 2, 70, 74
5, 199515, Note_on_c, 2, 70, 0
5, 199552, Note_on_c, 2, 65, 73
5, 199643, Note_on_c, 2, 65, 0
5, 199680, Note_on_c, 2, 70, 79
5, 199771, Note_on_c, 2, 70, 0
5, 199808, Note_on_c, 2, 70, 77
5, 199899, Note_on_c, 2, 70, 0
5, 199936, Note_on_c, 2, 65, 76
5, 200027, Note_on_c, 2, 65, 0
5, 200064, Note_on_c, 2, 70, 73
5, 200155, Note_on_c, 2, 70, 0
5, 200192, Note_on_c, 2, 70, 72
5, 200283, Note_on_c, 2, 70, 0
5, 200320, Note_on_c, 2, 65, 75
5, 200411, Note_on_c, 2, 65, 0
5, 200448, Note_on_c, 2, 70, 72
5, 200539, Note_on_c, 2, 70, 0
5, 200576, Note_on_c, 2, 70, 71
5, 200667, Note_on_c, 2, 70, 0
5, 200704, Note_on_c, 2, 65, 75
5, 200795, Note_on_c, 2, 65, 0
5, 200832, Note_on_c, 2, 70, 74
5, 200923, Note_on_c, 2, 70, 0
5, 200960, Note_on_c, 2, 70, 77
5, 201051, Note_on_c, 2, 70, 0
5, 201088, Note_on_c, 2, 65, 79
5, 201179, Note_on_c, 2, 65, 0
5, 201216, Note_on_c, 2, 70, 75
5, 201307, Note_on_c, 2, 70, 0
5, 201344, Note_on_c, 2, 70, 78
5, 201435, Note_on_c, 2, 70, 0
5, 201472, Note_on_c, 2, 65, 83
5, 201563, Note_on_c, 2, 65, 0
5, 201600, Note_on_c, 2, 70, 83
5, 201691, Note_on_c, 2, 70, 0
5, 201728, Note_on_c, 2, 70, 90
5, 201819, Note_on_c, 2, 70, 0
5, 201856, Note_on_c, 2, 65, 92
5, 201947, Note_on_c, 2, 65, 0
5, 201984, Note_on_c, 2, 68, 97
5, 202075, Note_on_c, 2, 68, 0
5, 202112, Note_on_c, 2, 68, 87
5, 202203, Note_on_c, 2, 68, 0
5, 202240, Note_on_c, 2, 66, 92
5, 202331, Note_on_c, 2, 66, 0
5, 202368, Note_on_c, 2, 68, 88
5, 202459, Note_on_c, 2, 68, 0
5, 202496, Note_on_c, 2, 68, 90
5, 202587, Note_on_c, 2, 68, 0
5, 202624, Note_on_c, 2, 66, 89
5, 202715, Note_on_c, 2, 66, 0
5, 202752, Note_on_c, 2, 68, 88
5, 202843, Note_on_c, 2, 68, 0
5, 202880, Note_on_c, 2, 68, 93
5, 202971, Note_on_c, 2, 68, 0
5, 203008, Note_on_c, 2, 66, 92
5, 203099, Note_on_c, 2, 66, 0
5, 203136, Note_on_c, 2, 70, 88
5, 203227, Note_on_c, 2, 70, 0
5, 203264, Note_on_c, 2, 70, 87
5, 203355, Note_on_c, 2, 70, 0
5, 203392, Note_on_c, 2, 68, 94
5, 203483, Note_on_c, 2, 68, 0
5, 203520, Note_on_c, 2, 68, 91
5, 203611, Note_on_c, 2, 68, 0
5, 203648, Note_on_c, 2, 68, 95
5, 203739, Note_on_c, 2, 68, 0
5, 203776, Note_on_c, 2, 66, 89
5, 203867, Note_on_c, 2, 66, 0
5, 203904, Note_on_c, 2, 68, 88
5, 203995, Note_on_c, 2, 68, 0
5, 204032, Note_on_c, 2, 68, 90
5, 204123, Note_on_c, 2, 68, 0
5, 204160, Note_on_c, 2, 66, 95
5, 204251, Note_on_c, 2, 66, 0
5, 204288, Note_on_c, 2, 70, 92
5, 204379, Note_on_c, 2, 70, 0
5, 204416, Note_on_c, 2, 70, 86
5, 204507, Note_on_c, 2, 70, 0
5, 204544, Note_on_c, 2, 68, 79
5, 204635, Note_on_c, 2, 68, 0
5, 204672, Note_on_c, 2, 70, 60
5, 204763, Note_on_c, 2, 70, 0
5, 204800, Note_on_c, 2, 70, 53
5, 204891, Note_on_c, 2, 70, 0
5, 204928, Note_on_c, 2, 68, 43
5, 205019, Note_on_c, 2, 68, 0
5, 205056, Note_on_c, 2, 70, 94
5, 205147, Note_on_c, 2, 70, 0
5, 205184, Note_on_c, 2, 70, 97
5, 205275, Note_on_c, 2, 70, 0
5, 205312, Note_on_c, 2, 65, 90
5, 205403, Note_on_c, 2, 65, 0
5, 205440, Note_on_c, 2, 70, 88
5, 205531, Note_on_c, 2, 70, 0
5, 205568, Note_on_c, 2, 70, 96
5, 205659, Note_on_c, 2, 70, 0
5, 205696, Note_on_c, 2, 65, 89
5, 205787, Note_on_c, 2, 65, 0
5, 205824, Note_on_c, 2, 70, 87
5, 205915, Note_on_c, 2, 70, 0
5, 205952, Note_on_c, 2, 70, 91
5, 206043, Note_on_c, 2, 70, 0
5, 206080, Note_on_c, 2, 65, 94
5, 206171, Note_on_c, 2, 65, 0
5, 206208, Note_on_c, 2, 70, 97
5, 206299, Note_on_c, 2, 70, 0
5, 206336, Note_on_c, 2, 70, 91
5, 206427, Note_on_c, 2, 70, 0
5, 206464, Note_on_c, 2, 65, 94
5, 206555, Note_on_c, 2, 65, 0
5, 206592, Note_on_c, 2, 70, 88
5, 206683, Note_on_c, 2, 70, 0
5, 206720, Note_on_c, 2, 70, 91
5, 206811, Note_on_c, 2, 70, 0
5, 206848, Note_on_c, 2, 65, 88
5, 206939, Note_on_c, 2, 65, 0
5, 206976, Note_on_c, 2, 70, 95
5, 207067, Note_on_c, 2, 70, 0
5, 207104, Note_on_c, 2, 70, 90
5, 207195, Note_on_c, 2, 70, 0
5, 207232, Note_on_c, 2, 65, 95
5, 207323, Note_on_c, 2, 65, 0
5, 207360, Note_on_c, 2, 70, 94
5, 207451, Note_on_c, 2, 70, 0
5, 207488, Note_on_c, 2, 70, 94
5, 207579, Note_on_c, 2, 70, 0
5, 207616, Note_on_c, 2, 65, 94
5, 207707, Note_on_c, 2, 65, 0
5, 207744, Note_on_c, 2, 70, 97
5, 207835, Note_on_c, 2, 70, 0
5, 207872, Note_on_c, 2, 70, 91
5, 207963, Note_on_c, 2, 70, 0
5, 208000, Note_on_c, 2, 65, 88
5, 208126, Note_on_c, 2, 65, 0
5, 208128, Control_c, 2, 11, 127
5, 208128, Note_on_c, 2, 65, 106
5, 208138, Control_c, 2, 11, 126
5, 208149, Control_c, 2, 11, 125
5, 208160, Control_c, 2, 11, 124
5, 208171, Control_c, 2, 11, 123
5, 208182, Control_c, 2, 11, 122
5, 208193, Control_c, 2, 11, 121
5, 208204, Control_c, 2, 11, 120
5, 208215, Control_c, 2, 11, 119
5, 208226, Control_c, 2, 11, 118
5, 208237, Control_c, 2, 11, 117
5, 208248, Control_c, 2, 11, 116
5, 208259, Control_c, 2, 11, 115
5, 208270, Control_c, 2, 11, 114
5, 208281, Control_c, 2, 11, 113
5, 208292, Control_c, 2, 11, 112
5, 208303, Control_c, 2, 11, 111
5, 208314, Control_c, 2, 11, 110
5, 208325, Control_c, 2, 11, 109
5, 208336, Control_c, 2, 11, 108
5, 208347, Control_c, 2, 11, 107
5, 208358, Control_c, 2, 11, 106
5, 208369, Control_c, 2, 11, 105
5, 208380, Control_c, 2, 11, 104
5, 208391, Control_c, 2, 11, 103
5, 208402, Control_c, 2, 11, 102
5, 208413, Control_c, 2, 11, 101
5, 208424, Control_c, 2, 11, 100
5, 208435, Control_c, 2, 11, 99
5, 208446, Control_c, 2, 11, 98
5, 208457, Control_c, 2, 11, 97
5, 208468, Control_c, 2, 11, 96
5, 208479, Control_c, 2, 11, 95
5, 208490, Control_c, 2, 11, 94
5, 208501, Control_c, 2, 11, 93
5, 208512, Control_c, 2, 11, 92
5, 209056, Note_on_c, 2, 65, 0
5, 209280, Control_c, 2, 11, 127
5, 209664, Note_on_c, 2, 63, 49
5, 209706, Note_on_c, 2, 63, 0
5, 209728, Note_on_c, 2, 63, 46
5, 209770, Note_on_c, 2, 63, 0
5, 209792, Note_on_c, 2, 61, 54
5, 209834, Note_on_c, 2, 61, 0
5, 209856, Note_on_c, 2, 57, 61
5, 209898, Note_on_c, 2, 57, 0
5, 209920, Note_on_c, 2, 57, 74
5, 209962, Note_on_c, 2, 57, 0
5, 209984, Note_on_c, 2, 61, 82
5, 210026, Note_on_c, 2, 61, 0
5, 210048, Note_on_c, 2, 63, 92
5, 210208, Note_on_c, 2, 63, 0
5, 210432, Note_on_c, 2, 63, 45
5, 210474, Note_on_c, 2, 63, 0
5, 210496, Note_on_c, 2, 63, 47
5, 210538, Note_on_c, 2, 63, 0
5, 210560, Note_on_c, 2, 61, 59
5, 210602, Note_on_c, 2, 61, 0
5, 210624, Note_on_c, 2, 57, 62
5, 210666, Note_on_c, 2, 57, 0
5, 210688, Note_on_c, 2, 57, 77
5, 210730, Note_on_c, 2, 57, 0
5, 210752, Note_on_c, 2, 61, 82
5, 210794, Note_on_c, 2, 61, 0
5, 210816, Note_on_c, 2, 63, 93
5, 210976, Note_on_c, 2, 63, 0
5, 211200, Note_on_c, 2, 68, 72
5, 211242, Note_on_c, 2, 68, 0
5, 211264, Note_on_c, 2, 68, 73
5, 211306, Note_on_c, 2, 68, 0
5, 211328, Note_on_c, 2, 66, 78
5, 211370, Note_on_c, 2, 66, 0
5, 211392, Note_on_c, 2, 63, 77
5, 211434, Note_on_c, 2, 63, 0
5, 211456, Note_on_c, 2, 63, 78
5, 211498, Note_on_c, 2, 63, 0
5, 211520, Note_on_c, 2, 66, 78
5, 211562, Note_on_c, 2, 66, 0
5, 211584, Note_on_c, 2, 68, 73
5, 211744, Note_on_c, 2, 68, 0
5, 211968, Note_on_c, 2, 68, 94
5, 212010, Note_on_c, 2, 68, 0
5, 212032, Note_on_c, 2, 68, 87
5, 212074, Note_on_c, 2, 68, 0
5, 212096, Note_on_c, 2, 66, 94
5, 212138, Note_on_c, 2, 66, 0
5, 212160, Note_on_c, 2, 63, 95
5, 212202, Note_on_c, 2, 63, 0
5, 212224, Note_on_c, 2, 63, 100
5, 212266, Note_on_c, 2, 63, 0
5, 212288, Note_on_c, 2, 66, 100
5, 212330, Note_on_c, 2, 66, 0
5, 212352, Note_on_c, 2, 68, 110
5, 212512, Note_on_c, 2, 68, 0
5, 212736, Note_on_c, 2, 65, 109
5, 213664, Note_on_c, 2, 65, 0
5, 214272, Note_on_c, 2, 63, 49
5, 214318, Note_on_c, 2, 63, 0
5, 214320, Note_on_c, 2, 61, 48
5, 214366, Note_on_c, 2, 61, 0
5, 214368, Note_on_c, 2, 63, 47
5, 214414, Note_on_c, 2, 63, 0
5, 214416, Note_on_c, 2, 65, 46
5, 214462, Note_on_c, 2, 65, 0
5, 214464, Note_on_c, 2, 63, 40
5, 214510, Note_on_c, 2, 63, 0
5, 214512, Note_on_c, 2, 61, 49
5, 214558, Note_on_c, 2, 61, 0
5, 214560, Note_on_c, 2, 58, 43
5, 214606, Note_on_c, 2, 58, 0
5, 214608, Note_on_c, 2, 61, 50
5, 214654, Note_on_c, 2, 61, 0
5, 214656, Note_on_c, 2, 63, 49
5, 214702, Note_on_c, 2, 63, 0
5, 214704, Note_on_c, 2, 61, 48
5, 214750, Note_on_c, 2, 61, 0
5, 214752, Note_on_c, 2, 63, 49
5, 214798, Note_on_c, 2, 63, 0
5, 214800, Note_on_c, 2, 65, 48
5, 214846, Note_on_c, 2, 65, 0
5, 214848, Note_on_c, 2, 63, 41
5, 214894, Note_on_c, 2, 63, 0
5, 214896, Note_on_c, 2, 61, 41
5, 214942, Note_on_c, 2, 61, 0
5, 214944, Note_on_c, 2, 58, 40
5, 214990, Note_on_c, 2, 58, 0
5, 214992, Note_on_c, 2, 61, 45
5, 215038, Note_on_c, 2, 61, 0
5, 215040, Note_on_c, 2, 63, 47
5, 215086, Note_on_c, 2, 63, 0
5, 215088, Note_on_c, 2, 61, 50
5, 215134, Note_on_c, 2, 61, 0
5, 215136, Note_on_c, 2, 63, 50
5, 215182, Note_on_c, 2, 63, 0
5, 215184, Note_on_c, 2, 65, 41
5, 215230, Note_on_c, 2, 65, 0
5, 215232, Note_on_c, 2, 63, 45
5, 215278, Note_on_c, 2, 63, 0
5, 215280, Note_on_c, 2, 61, 44
5, 215326, Note_on_c, 2, 61, 0
5, 215328, Note_on_c, 2, 58, 48
5, 215374, Note_on_c, 2, 58, 0
5, 215376, Note_on_c, 2, 61, 45
5, 215422, Note_on_c, 2, 61, 0
5, 215424, Note_on_c, 2, 63, 46
5, 215470, Note_on_c, 2, 63, 0
5, 215472, Note_on_c, 2, 61, 53
5, 215518, Note_on_c, 2, 61, 0
5, 215520, Note_on_c, 2, 63, 50
5, 215566, Note_on_c, 2, 63, 0
5, 215568, Note_on_c, 2, 65, 55
5, 215614, Note_on_c, 2, 65, 0
5, 215616, Note_on_c, 2, 63, 51
5, 215662, Note_on_c, 2, 63, 0
5, 215664, Note_on_c, 2, 61, 61
5, 215710, Note_on_c, 2, 61, 0
5, 215712, Note_on_c, 2, 58, 59
5, 215758, Note_on_c, 2, 58, 0
5, 215760, Note_on_c, 2, 61, 57
5, 215806, Note_on_c, 2, 61, 0
5, 216576, Note_on_c, 2, 63, 78
5, 216622, Note_on_c, 2, 63, 0
5, 216624, Note_on_c, 2, 61, 77
5, 216670, Note_on_c, 2, 61, 0
5, 216672, Note_on_c, 2, 63, 76
5, 216718, Note_on_c, 2, 63, 0
5, 216720, Note_on_c, 2, 65, 74
5, 216766, Note_on_c, 2, 65, 0
5, 216768, Note_on_c, 2, 63, 78
5, 216814, Note_on_c, 2, 63, 0
5, 216816, Note_on_c, 2, 61, 80
5, 216862, Note_on_c, 2, 61, 0
5, 216864, Note_on_c, 2, 58, 80
5, 216910, Note_on_c, 2, 58, 0
5, 216912, Note_on_c, 2, 61, 78
5, 216958, Note_on_c, 2, 61, 0
5, 216960, Note_on_c, 2, 63, 78
5, 217006, Note_on_c, 2, 63, 0
5, 217008, Note_on_c, 2, 61, 79
5, 217054, Note_on_c, 2, 61, 0
5, 217056, Note_on_c, 2, 63, 87
5, 217102, Note_on_c, 2, 63, 0
5, 217104, Note_on_c, 2, 65, 85
5, 217150, Note_on_c, 2, 65, 0
5, 217152, Note_on_c, 2, 63, 92
5, 217198, Note_on_c, 2, 63, 0
5, 217200, Note_on_c, 2, 61, 84
5, 217246, Note_on_c, 2, 61, 0
5, 217248, Note_on_c, 2, 58, 91
5, 217294, Note_on_c, 2, 58, 0
5, 217296, Note_on_c, 2, 61, 92
5, 217342, Note_on_c, 2, 61, 0
5, 217344, Note_on_c, 2, 63, 89
5, 217486, Note_on_c, 2, 63, 0
5, 217488, Note_on_c, 2, 65, 95
5, 217534, Note_on_c, 2, 65, 0
5, 217536, Note_on_c, 2, 63, 96
5, 217678, Note_on_c, 2, 63, 0
5, 217680, Note_on_c, 2, 65, 91
5, 217726, Note_on_c, 2, 65, 0
5, 217728, Note_on_c, 2, 63, 92
5, 217870, Note_on_c, 2, 63, 0
5, 217872, Note_on_c, 2, 65, 88
5, 217918, Note_on_c, 2, 65, 0
5, 217920, Note_on_c, 2, 63, 87
5, 218062, Note_on_c, 2, 63, 0
5, 218064, Note_on_c, 2, 65, 89
5, 218110, Note_on_c, 2, 65, 0
5, 218112, Note_on_c, 2, 63, 89
5, 218254, Note_on_c, 2, 63, 0
5, 218256, Note_on_c, 2, 65, 90
5, 218302, Note_on_c, 2, 65, 0
5, 218304, Note_on_c, 2, 63, 91
5, 218446, Note_on_c, 2, 63, 0
5, 218448, Note_on_c, 2, 65, 94
5, 218494, Note_on_c, 2, 65, 0
5, 218496, Note_on_c, 2, 63, 97
5, 218638, Note_on_c, 2, 63, 0
5, 218640, Note_on_c, 2, 65, 92
5, 218686, Note_on_c, 2, 65, 0
5, 218688, Note_on_c, 2, 63, 96
5, 218830, Note_on_c, 2, 63, 0
5, 218832, Note_on_c, 2, 65, 95
5, 218878, Note_on_c, 2, 65, 0
5, 218880, Note_on_c, 2, 67, 97
5, 219022, Note_on_c, 2, 67, 0
5, 219024, Note_on_c, 2, 69, 91
5, 219070, Note_on_c, 2, 69, 0
5, 219072, Note_on_c, 2, 67, 90
5, 219214, Note_on_c, 2, 67, 0
5, 219216, Note_on_c, 2, 69, 92
5, 219262, Note_on_c, 2, 69, 0
5, 219264, Note_on_c, 2, 67, 92
5, 219406, Note_on_c, 2, 67, 0
5, 219408, Note_on_c, 2, 69, 88
5, 219454, Note_on_c, 2, 69, 0
5, 219456, Note_on_c, 2, 67, 89
5, 219598, Note_on_c, 2, 67, 0
5, 219600, Note_on_c, 2, 69, 89
5, 219646, Note_on_c, 2, 69, 0
5, 219648, Note_on_c, 2, 67, 90
5, 219790, Note_on_c, 2, 67, 0
5, 219792, Note_on_c, 2, 69, 96
5, 219838, Note_on_c, 2, 69, 0
5, 219840, Note_on_c, 2, 67, 92
5, 219982, Note_on_c, 2, 67, 0
5, 219984, Note_on_c, 2, 69, 97
5, 220030, Note_on_c, 2, 69, 0
5, 220032, Note_on_c, 2, 67, 102
5, 220174, Note_on_c, 2, 67, 0
5, 220176, Note_on_c, 2, 69, 105
5, 220222, Note_on_c, 2, 69, 0
5, 220224, Note_on_c, 2, 67, 103
5, 220366, Note_on_c, 2, 67, 0
5, 220368, Note_on_c, 2, 69, 107
5, 220414, Note_on_c, 2, 69, 0
5, 220416, Note_on_c, 2, 70, 111
5, 220558, Note_on_c, 2, 70, 0
5, 220560, Note_on_c, 2, 68, 103
5, 220606, Note_on_c, 2, 68, 0
5, 220608, Note_on_c, 2, 65, 103
5, 220750, Note_on_c, 2, 65, 0
5, 220752, Note_on_c, 2, 68, 105
5, 220798, Note_on_c, 2, 68, 0
5, 220800, Note_on_c, 2, 70, 108
5, 220942, Note_on_c, 2, 70, 0
5, 220944, Note_on_c, 2, 68, 107
5, 220990, Note_on_c, 2, 68, 0
5, 220992, Note_on_c, 2, 65, 109
5, 221134, Note_on_c, 2, 65, 0
5, 221136, Note_on_c, 2, 68, 104
5, 221182, Note_on_c, 2, 68, 0
5, 221184, Note_on_c, 2, 70, 109
5, 221326, Note_on_c, 2, 70, 0
5, 221328, Note_on_c, 2, 68, 107
5, 221374, Note_on_c, 2, 68, 0
5, 221376, Note_on_c, 2, 65, 110
5, 221518, Note_on_c, 2, 65, 0
5, 221520, Note_on_c, 2, 68, 106
5, 221566, Note_on_c, 2, 68, 0
5, 221568, Note_on_c, 2, 70, 103
5, 221710, Note_on_c, 2, 70, 0
5, 221712, Note_on_c, 2, 68, 104
5, 221758, Note_on_c, 2, 68, 0
5, 221760, Note_on_c, 2, 65, 104
5, 221902, Note_on_c, 2, 65, 0
5, 221904, Note_on_c, 2, 68, 109
5, 221950, Note_on_c, 2, 68, 0
5, 221952, Note_on_c, 2, 70, 107
5, 222094, Note_on_c, 2, 70, 0
5, 222096, Note_on_c, 2, 68, 105
5, 222142, Note_on_c, 2, 68, 0
5, 222144, Note_on_c, 2, 65, 105
5, 222286, Note_on_c, 2, 65, 0
5, 222288, Note_on_c, 2, 68, 108
5, 222334, Note_on_c, 2, 68, 0
5, 222336, Note_on_c, 2, 70, 103
5, 222478, Note_on_c, 2, 70, 0
5, 222480, Note_on_c, 2, 68, 104
5, 222526, Note_on_c, 2, 68, 0
5, 222528, Note_on_c, 2, 65, 111
5, 222670, Note_on_c, 2, 65, 0
5, 222672, Note_on_c, 2, 68, 107
5, 222718, Note_on_c, 2, 68, 0
5, 222720, Note_on_c, 2, 70, 107
5, 222862, Note_on_c, 2, 70, 0
5, 222864, Note_on_c, 2, 68, 109
5, 222910, Note_on_c, 2, 68, 0
5, 222912, Note_on_c, 2, 65, 113
5, 223054, Note_on_c, 2, 65, 0
5, 223056, Note_on_c, 2, 68, 106
5, 223102, Note_on_c, 2, 68, 0
5, 223104, Note_on_c, 2, 70, 105
5, 223246, Note_on_c, 2, 70, 0
5, 223248, Note_on_c, 2, 68, 113
5, 223294, Note_on_c, 2, 68, 0
5, 223296, Note_on_c, 2, 65, 111
5, 223438, Note_on_c, 2, 65, 0
5, 223440, Note_on_c, 2, 70, 105
5, 223486, Note_on_c, 2, 70, 0
5, 223488, Note_on_c, 2, 73, 105
5, 225184, Note_on_c, 2, 73, 0
5, 225184, End_track
6, 0, Start_track
6, 0, Title_t, "Clarinetti I - II in Si bem./La"
6, 0, MIDI_port, 0
6, 121, Control_c, 3, 0, 0
6, 122, Control_c, 3, 32, 0
6, 123, Program_c, 3, 71
6, 124, Control_c, 3, 7, 127
6, 125, Control_c, 3, 10, 74
6, 126, Control_c, 3, 91, 64
6, 8064, Note_on_c, 3, 72, 72
6, 8064, Note_on_c, 3, 69, 75
6, 8064, Control_c, 3, 11, 92
6, 8069, Control_c, 3, 11, 93
6, 8074, Control_c, 3, 11, 94
6, 8080, Control_c, 3, 11, 95
6, 8085, Control_c, 3, 11, 96
6, 8091, Control_c, 3, 11, 97
6, 8096, Control_c, 3, 11, 98
6, 8102, Control_c, 3, 11, 99
6, 8107, Control_c, 3, 11, 100
6, 8113, Control_c, 3, 11, 101
6, 8118, Control_c, 3, 11, 102
6, 8124, Control_c, 3, 11, 103
6, 8129, Control_c, 3, 11, 104
6, 8135, Control_c, 3, 11, 105
6, 8140, Control_c, 3, 11, 106
6, 8146, Control_c, 3, 11, 107
6, 8151, Control_c, 3, 11, 108
6, 8157, Control_c, 3, 11, 109
6, 8162, Control_c, 3, 11, 110
6, 8168, Control_c, 3, 11, 111
6, 8173, Control_c, 3, 11, 112
6, 8179, Control_c, 3, 11, 113
6, 8184, Control_c, 3, 11, 114
6, 8190, Control_c, 3, 11, 115
6, 8195, Control_c, 3, 11, 116
6, 8201, Control_c, 3, 11, 117
6, 8206, Control_c, 3, 11, 118
6, 8212, Control_c, 3, 11, 119
6, 8217, Control_c, 3, 11, 120
6, 8223, Control_c, 3, 11, 121
6, 8228, Control_c, 3, 11, 122
6, 8234, Control_c, 3, 11, 123
6, 8239, Control_c, 3, 11, 124
6, 8245, Control_c, 3, 11, 125
6, 8250, Control_c, 3, 11, 126
6, 8256, Control_c, 3, 11, 127
6, 8265, Control_c, 3, 11, 126
6, 8274, Control_c, 3, 11, 125
6, 8283, Control_c, 3, 11, 124
6, 8292, Control_c, 3, 11, 123
6, 8301, Control_c, 3, 11, 122
6, 8310, Control_c, 3, 11, 121
6, 8320, Control_c, 3, 11, 120
6, 8329, Control_c, 3, 11, 119
6, 8338, Control_c, 3, 11, 118
6, 8347, Control_c, 3, 11, 117
6, 8356, Control_c, 3, 11, 116
6, 8365, Control_c, 3, 11, 115
6, 8374, Control_c, 3, 11, 114
6, 8384, Control_c, 3, 11, 113
6, 8393, Control_c, 3, 11, 112
6, 8402, Control_c, 3, 11, 111
6, 8411, Control_c, 3, 11, 110
6, 8420, Control_c, 3, 11, 109
6, 8429, Control_c, 3, 11, 108
6, 8438, Control_c, 3, 11, 107
6, 8448, Control_c, 3, 11, 106
6, 8457, Control_c, 3, 11, 105
6, 8466, Control_c, 3, 11, 104
6, 8475, Control_c, 3, 11, 103
6, 8484, Control_c, 3, 11, 102
6, 8493, Control_c, 3, 11, 101
6, 8502, Control_c, 3, 11, 100
6, 8512, Control_c, 3, 11, 99
6, 8521, Control_c, 3, 11, 98
6, 8530, Control_c, 3, 11, 97
6, 8539, Control_c, 3, 11, 96
6, 8548, Control_c, 3, 11, 95
6, 8557, Control_c, 3, 11, 94
6, 8566, Control_c, 3, 11, 93
6, 8576, Control_c, 3, 11, 92
6, 8585, Control_c, 3, 11, 91
6, 8594, Control_c, 3, 11, 90
6, 8603, Control_c, 3, 11, 89
6, 8612, Control_c, 3, 11, 88
6, 8621, Control_c, 3, 11, 87
6, 8630, Control_c, 3, 11, 86
6, 8640, Control_c, 3, 11, 85
6, 8649, Control_c, 3, 11, 84
6, 8658, Control_c, 3, 11, 83
6, 8667, Control_c, 3, 11, 82
6, 8676, Control_c, 3, 11, 81
6, 8685, Control_c, 3, 11, 80
6, 8694, Control_c, 3, 11, 79
6, 8704, Control_c, 3, 11, 78
6, 8713, Control_c, 3, 11, 77
6, 8722, Control_c, 3, 11, 76
6, 8731, Control_c, 3, 11, 75
6, 8740, Control_c, 3, 11, 74
6, 8749, Control_c, 3, 11, 73
6, 8758, Control_c, 3, 11, 72
6, 8768, Control_c, 3, 11, 71
6, 8777, Control_c, 3, 11, 70
6, 8786, Control_c, 3, 11, 69
6, 8795, Control_c, 3, 11, 68
6, 8804, Control_c, 3, 11, 67
6, 8813, Control_c, 3, 11, 66
6, 8822, Control_c, 3, 11, 65
6, 8832, Control_c, 3, 11, 64
6, 9216, Control_c, 3, 11, 64
6, 9225, Control_c, 3, 11, 65
6, 9234, Control_c, 3, 11, 66
6, 9243, Control_c, 3, 11, 67
6, 9252, Control_c, 3, 11, 68
6, 9261, Control_c, 3, 11, 69
6, 9270, Control_c, 3, 11, 70
6, 9280, Control_c, 3, 11, 71
6, 9289, Control_c, 3, 11, 72
6, 9298, Control_c, 3, 11, 73
6, 9307, Control_c, 3, 11, 74
6, 9316, Control_c, 3, 11, 75
6, 9325, Control_c, 3, 11, 76
6, 9334, Control_c, 3, 11, 77
6, 9344, Control_c, 3, 11, 78
6, 9353, Control_c, 3, 11, 79
6, 9362, Control_c, 3, 11, 80
6, 9371, Control_c, 3, 11, 81
6, 9380, Control_c, 3, 11, 82
6, 9389, Control_c, 3, 11, 83
6, 9398, Control_c, 3, 11, 84
6, 9408, Control_c, 3, 11, 85
6, 9417, Control_c, 3, 11, 86
6, 9426, Control_c, 3, 11, 87
6, 9435, Control_c, 3, 11, 88
6, 9444, Control_c, 3, 11, 89
6, 9453, Control_c, 3, 11, 90
6, 9462, Control_c, 3, 11, 91
6, 9472, Control_c, 3, 11, 92
6, 9481, Control_c, 3, 11, 93
6, 9490, Control_c, 3, 11, 94
6, 9499, Control_c, 3, 11, 95
6, 9508, Control_c, 3, 11, 96
6, 9517, Control_c, 3, 11, 97
6, 9526, Control_c, 3, 11, 98
6, 9536, Control_c, 3, 11, 99
6, 9545, Control_c, 3, 11, 100
6, 9552, Note_on_c, 3, 72, 0
6, 9552, Note_on_c, 3, 69, 0
6, 9554, Control_c, 3, 11, 101
6, 9563, Control_c, 3, 11, 102
6, 9572, Control_c, 3, 11, 103
6, 9581, Control_c, 3, 11, 104
6, 9590, Control_c, 3, 11, 105
6, 9600, Control_c, 3, 11, 106
6, 9600, Note_on_c, 3, 69, 78
6, 9600, Note_on_c, 3, 72, 74
6, 9609, Control_c, 3, 11, 107
6, 9618, Control_c, 3, 11, 108
6, 9627, Control_c, 3, 11, 109
6, 9636, Control_c, 3, 11, 110
6, 9645, Control_c, 3, 11, 111
6, 9654, Control_c, 3, 11, 112
6, 9664, Control_c, 3, 11, 113
6, 9673, Control_c, 3, 11, 114
6, 9682, Control_c, 3, 11, 115
6, 9691, Control_c, 3, 11, 116
6, 9700, Control_c, 3, 11, 117
6, 9709, Control_c, 3, 11, 118
6, 9718, Control_c, 3, 11, 119
6, 9728, Control_c, 3, 11, 120
6, 9737, Control_c, 3, 11, 121
6, 9746, Control_c, 3, 11, 122
6, 9755, Control_c, 3, 11, 123
6, 9764, Control_c, 3, 11, 124
6, 9773, Control_c, 3, 11, 125
6, 9782, Control_c, 3, 11, 126
6, 9792, Control_c, 3, 11, 127
6, 9801, Control_c, 3, 11, 126
6, 9810, Control_c, 3, 11, 125
6, 9819, Control_c, 3, 11, 124
6, 9828, Control_c, 3, 11, 123
6, 9837, Control_c, 3, 11, 122
6, 9846, Control_c, 3, 11, 121
6, 9856, Control_c, 3, 11, 120
6, 9865, Control_c, 3, 11, 119
6, 9874, Control_c, 3, 11, 118
6, 9883, Control_c, 3, 11, 117
6, 9892, Control_c, 3, 11, 116
6, 9901, Control_c, 3, 11, 115
6, 9910, Control_c, 3, 11, 114
6, 9920, Control_c, 3, 11, 113
6, 9929, Control_c, 3, 11, 112
6, 9938, Control_c, 3, 11, 111
6, 9947, Control_c, 3, 11, 110
6, 9956, Control_c, 3, 11, 109
6, 9965, Control_c, 3, 11, 108
6, 9974, Control_c, 3, 11, 107
6, 9984, Control_c, 3, 11, 106
6, 9993, Control_c, 3, 11, 105
6, 10002, Control_c, 3, 11, 104
6, 10011, Control_c, 3, 11, 103
6, 10020, Control_c, 3, 11, 102
6, 10029, Control_c, 3, 11, 101
6, 10038, Control_c, 3, 11, 100
6, 10048, Control_c, 3, 11, 99
6, 10057, Control_c, 3, 11, 98
6, 10066, Control_c, 3, 11, 97
6, 10075, Control_c, 3, 11, 96
6, 10084, Control_c, 3, 11, 95
6, 10093, Control_c, 3, 11, 94
6, 10102, Control_c, 3, 11, 93
6, 10112, Control_c, 3, 11, 92
6, 10121, Control_c, 3, 11, 91
6, 10130, Control_c, 3, 11, 90
6, 10139, Control_c, 3, 11, 89
6, 10148, Control_c, 3, 11, 88
6, 10157, Control_c, 3, 11, 87
6, 10166, Control_c, 3, 11, 86
6, 10176, Control_c, 3, 11, 85
6, 10185, Control_c, 3, 11, 84
6, 10194, Control_c, 3, 11, 83
6, 10203, Control_c, 3, 11, 82
6, 10212, Control_c, 3, 11, 81
6, 10221, Control_c, 3, 11, 80
6, 10230, Control_c, 3, 11, 79
6, 10240, Control_c, 3, 11, 78
6, 10249, Control_c, 3, 11, 77
6, 10258, Control_c, 3, 11, 76
6, 10267, Control_c, 3, 11, 75
6, 10276, Control_c, 3, 11, 74
6, 10285, Control_c, 3, 11, 73
6, 10294, Control_c, 3, 11, 72
6, 10304, Control_c, 3, 11, 71
6, 10313, Control_c, 3, 11, 70
6, 10322, Control_c, 3, 11, 69
6, 10331, Control_c, 3, 11, 68
6, 10340, Control_c, 3, 11, 67
6, 10349, Control_c, 3, 11, 66
6, 10358, Control_c, 3, 11, 65
6, 10368, Control_c, 3, 11, 64
6, 10704, Note_on_c, 3, 69, 0
6, 10704, Note_on_c, 3, 72, 0
6, 14976, Control_c, 3, 11, 64
6, 14976, Note_on_c, 3, 76, 77
6, 14976, Note_on_c, 3, 72, 75
6, 14994, Control_c, 3, 11, 65
6, 15012, Control_c, 3, 11, 66
6, 15030, Control_c, 3, 11, 67
6, 15049, Control_c, 3, 11, 68
6, 15067, Control_c, 3, 11, 69
6, 15085, Control_c, 3, 11, 70
6, 15104, Control_c, 3, 11, 71
6, 15122, Control_c, 3, 11, 72
6, 15140, Control_c, 3, 11, 73
6, 15158, Control_c, 3, 11, 74
6, 15177, Control_c, 3, 11, 75
6, 15195, Control_c, 3, 11, 76
6, 15213, Control_c, 3, 11, 77
6, 15232, Control_c, 3, 11, 78
6, 15250, Control_c, 3, 11, 79
6, 15268, Control_c, 3, 11, 80
6, 15286, Control_c, 3, 11, 81
6, 15305, Control_c, 3, 11, 82
6, 15323, Control_c, 3, 11, 83
6, 15341, Control_c, 3, 11, 84
6, 15360, Control_c, 3, 11, 85
6, 15378, Control_c, 3, 11, 86
6, 15396, Control_c, 3, 11, 87
6, 15414, Control_c, 3, 11, 88
6, 15433, Control_c, 3, 11, 89
6, 15451, Control_c, 3, 11, 90
6, 15469, Control_c, 3, 11, 91
6, 15488, Control_c, 3, 11, 92
6, 15506, Control_c, 3, 11, 93
6, 15524, Control_c, 3, 11, 94
6, 15542, Control_c, 3, 11, 95
6, 15561, Control_c, 3, 11, 96
6, 15579, Control_c, 3, 11, 97
6, 15597, Control_c, 3, 11, 98
6, 15616, Control_c, 3, 11, 99
6, 15634, Control_c, 3, 11, 100
6, 15652, Control_c, 3, 11, 101
6, 15670, Control_c, 3, 11, 102
6, 15689, Control_c, 3, 11, 103
6, 15696, Note_on_c, 3, 76, 0
6, 15696, Note_on_c, 3, 72, 0
6, 15707, Control_c, 3, 11, 104
6, 15725, Control_c, 3, 11, 105
6, 15744, Control_c, 3, 11, 106
6, 15744, Note_on_c, 3, 75, 78
6, 15744, Note_on_c, 3, 73, 75
6, 15762, Control_c, 3, 11, 107
6, 15780, Control_c, 3, 11, 108
6, 15798, Control_c, 3, 11, 109
6, 15817, Control_c, 3, 11, 110
6, 15835, Control_c, 3, 11, 111
6, 15853, Control_c, 3, 11, 112
6, 15872, Control_c, 3, 11, 113
6, 15890, Control_c, 3, 11, 114
6, 15908, Control_c, 3, 11, 115
6, 15926, Control_c, 3, 11, 116
6, 15945, Control_c, 3, 11, 117
6, 15963, Control_c, 3, 11, 118
6, 15981, Control_c, 3, 11, 119
6, 16000, Control_c, 3, 11, 120
6, 16018, Control_c, 3, 11, 121
6, 16036, Control_c, 3, 11, 122
6, 16054, Control_c, 3, 11, 123
6, 16073, Control_c, 3, 11, 124
6, 16091, Control_c, 3, 11, 125
6, 16109, Control_c, 3, 11, 126
6, 16128, Control_c, 3, 11, 127
6, 16254, Note_on_c, 3, 75, 0
6, 16254, Note_on_c, 3, 73, 0
6, 16256, Note_on_c, 3, 74, 96
6, 16320, Control_c, 3, 11, 92
6, 16325, Control_c, 3, 11, 93
6, 16330, Control_c, 3, 11, 94
6, 16336, Control_c, 3, 11, 95
6, 16341, Control_c, 3, 11, 96
6, 16347, Control_c, 3, 11, 97
6, 16352, Control_c, 3, 11, 98
6, 16358, Control_c, 3, 11, 99
6, 16363, Control_c, 3, 11, 100
6, 16369, Control_c, 3, 11, 101
6, 16374, Control_c, 3, 11, 102
6, 16380, Control_c, 3, 11, 103
6, 16385, Control_c, 3, 11, 104
6, 16391, Control_c, 3, 11, 105
6, 16396, Control_c, 3, 11, 106
6, 16402, Control_c, 3, 11, 107
6, 16407, Control_c, 3, 11, 108
6, 16413, Control_c, 3, 11, 109
6, 16418, Control_c, 3, 11, 110
6, 16424, Control_c, 3, 11, 111
6, 16429, Control_c, 3, 11, 112
6, 16435, Control_c, 3, 11, 113
6, 16440, Control_c, 3, 11, 114
6, 16446, Note_on_c, 3, 74, 0
6, 16446, Control_c, 3, 11, 115
6, 16448, Note_on_c, 3, 73, 89
6, 16448, Note_on_c, 3, 75, 87
6, 16451, Control_c, 3, 11, 116
6, 16457, Control_c, 3, 11, 117
6, 16462, Control_c, 3, 11, 118
6, 16468, Control_c, 3, 11, 119
6, 16473, Control_c, 3, 11, 120
6, 16479, Control_c, 3, 11, 121
6, 16484, Control_c, 3, 11, 122
6, 16490, Note_on_c, 3, 73, 0
6, 16490, Note_on_c, 3, 75, 0
6, 16490, Control_c, 3, 11, 123
6, 16495, Control_c, 3, 11, 124
6, 16501, Control_c, 3, 11, 125
6, 16506, Control_c, 3, 11, 126
6, 16512, Control_c, 3, 11, 127
6, 16512, Note_on_c, 3, 72, 97
6, 16512, Note_on_c, 3, 76, 91
6, 16527, Control_c, 3, 11, 126
6, 16542, Control_c, 3, 11, 125
6, 16557, Control_c, 3, 11, 124
6, 16572, Control_c, 3, 11, 123
6, 16588, Control_c, 3, 11, 122
6, 16603, Control_c, 3, 11, 121
6, 16618, Control_c, 3, 11, 120
6, 16633, Control_c, 3, 11, 119
6, 16649, Control_c, 3, 11, 118
6, 16664, Control_c, 3, 11, 117
6, 16679, Control_c, 3, 11, 116
6, 16694, Control_c, 3, 11, 115
6, 16710, Control_c, 3, 11, 114
6, 16725, Control_c, 3, 11, 113
6, 16740, Control_c, 3, 11, 112
6, 16755, Control_c, 3, 11, 111
6, 16771, Control_c, 3, 11, 110
6, 16786, Control_c, 3, 11, 109
6, 16801, Control_c, 3, 11, 108
6, 16816, Control_c, 3, 11, 107
6, 16832, Control_c, 3, 11, 106
6, 16847, Control_c, 3, 11, 105
6, 16862, Control_c, 3, 11, 104
6, 16877, Control_c, 3, 11, 103
6, 16892, Control_c, 3, 11, 102
6, 16908, Control_c, 3, 11, 101
6, 16923, Control_c, 3, 11, 100
6, 16938, Control_c, 3, 11, 99
6, 16953, Control_c, 3, 11, 98
6, 16969, Control_c, 3, 11, 97
6, 16984, Control_c, 3, 11, 96
6, 16999, Control_c, 3, 11, 95
6, 17014, Control_c, 3, 11, 94
6, 17030, Control_c, 3, 11, 93
6, 17045, Control_c, 3, 11, 92
6, 17060, Control_c, 3, 11, 91
6, 17075, Control_c, 3, 11, 90
6, 17091, Control_c, 3, 11, 89
6, 17106, Control_c, 3, 11, 88
6, 17121, Control_c, 3, 11, 87
6, 17136, Control_c, 3, 11, 86
6, 17152, Control_c, 3, 11, 85
6, 17167, Control_c, 3, 11, 84
6, 17182, Control_c, 3, 11, 83
6, 17197, Control_c, 3, 11, 82
6, 17212, Control_c, 3, 11, 81
6, 17228, Control_c, 3, 11, 80
6, 17243, Control_c, 3, 11, 79
6, 17258, Control_c, 3, 11, 78
6, 17273, Control_c, 3, 11, 77
6, 17280, Note_on_c, 3, 72, 0
6, 17280, Note_on_c, 3, 76, 0
6, 17280, Note_on_c, 3, 73, 96
6, 17280, Note_on_c, 3, 75, 87
6, 17289, Control_c, 3, 11, 76
6, 17304, Control_c, 3, 11, 75
6, 17319, Control_c, 3, 11, 74
6, 17334, Control_c, 3, 11, 73
6, 17350, Control_c, 3, 11, 72
6, 17365, Control_c, 3, 11, 71
6, 17380, Control_c, 3, 11, 70
6, 17395, Control_c, 3, 11, 69
6, 17411, Control_c, 3, 11, 68
6, 17426, Control_c, 3, 11, 67
6, 17440, Note_on_c, 3, 73, 0
6, 17440, Note_on_c, 3, 75, 0
6, 17441, Control_c, 3, 11, 66
6, 17456, Control_c, 3, 11, 65
6, 17472, Control_c, 3, 11, 64
6, 19968, Note_on_c, 3, 53, 63
6, 19968, Control_c, 3, 11, 92
6, 19968, Note_on_c, 3, 77, 65
6, 19978, Control_c, 3, 11, 93
6, 19989, Control_c, 3, 11, 94
6, 20000, Control_c, 3, 11, 95
6, 20011, Control_c, 3, 11, 96
6, 20022, Control_c, 3, 11, 97
6, 20033, Control_c, 3, 11, 98
6, 20044, Control_c, 3, 11, 99
6, 20055, Control_c, 3, 11, 100
6, 20066, Control_c, 3, 11, 101
6, 20077, Control_c, 3, 11, 102
6, 20088, Control_c, 3, 11, 103
6, 20099, Control_c, 3, 11, 104
6, 20110, Control_c, 3, 11, 105
6, 20112, Note_on_c, 3, 53, 0
6, 20112, Note_on_c, 3, 77, 0
6, 20112, Note_on_c, 3, 55, 56
6, 20112, Note_on_c, 3, 79, 61
6, 20121, Control_c, 3, 11, 106
6, 20132, Control_c, 3, 11, 107
6, 20143, Control_c, 3, 11, 108
6, 20154, Control_c, 3, 11, 109
6, 20165, Control_c, 3, 11, 110
6, 20176, Control_c, 3, 11, 111
6, 20187, Control_c, 3, 11, 112
6, 20198, Control_c, 3, 11, 113
6, 20209, Control_c, 3, 11, 114
6, 20220, Control_c, 3, 11, 115
6, 20231, Control_c, 3, 11, 116
6, 20242, Control_c, 3, 11, 117
6, 20253, Control_c, 3, 11, 118
6, 20264, Control_c, 3, 11, 119
6, 20275, Control_c, 3, 11, 120
6, 20286, Control_c, 3, 11, 121
6, 20297, Control_c, 3, 11, 122
6, 20308, Control_c, 3, 11, 123
6, 20319, Control_c, 3, 11, 124
6, 20330, Control_c, 3, 11, 125
6, 20341, Control_c, 3, 11, 126
6, 20352, Control_c, 3, 11, 127
6, 20736, Control_c, 3, 11, 127
6, 20748, Control_c, 3, 11, 126
6, 20760, Control_c, 3, 11, 125
6, 20772, Control_c, 3, 11, 124
6, 20784, Control_c, 3, 11, 123
6, 20796, Control_c, 3, 11, 122
6, 20809, Control_c, 3, 11, 121
6, 20821, Control_c, 3, 11, 120
6, 20833, Control_c, 3, 11, 119
6, 20845, Control_c, 3, 11, 118
6, 20857, Control_c, 3, 11, 117
6, 20870, Control_c, 3, 11, 116
6, 20882, Control_c, 3, 11, 115
6, 20894, Control_c, 3, 11, 114
6, 20906, Control_c, 3, 11, 113
6, 20918, Control_c, 3, 11, 112
6, 20931, Control_c, 3, 11, 111
6, 20943, Control_c, 3, 11, 110
6, 20955, Control_c, 3, 11, 109
6, 20967, Control_c, 3, 11, 108
6, 20979, Control_c, 3, 11, 107
6, 20992, Control_c, 3, 11, 106
6, 21004, Control_c, 3, 11, 105
6, 21016, Control_c, 3, 11, 104
6, 21028, Control_c, 3, 11, 103
6, 21040, Control_c, 3, 11, 102
6, 21052, Control_c, 3, 11, 101
6, 21065, Control_c, 3, 11, 100
6, 21077, Control_c, 3, 11, 99
6, 21089, Control_c, 3, 11, 98
6, 21101, Control_c, 3, 11, 97
6, 21113, Control_c, 3, 11, 96
6, 21120, Note_on_c, 3, 55, 0
6, 21120, Note_on_c, 3, 79, 0
6, 21120, Note_on_c, 3, 57, 65
6, 21120, Note_on_c, 3, 81, 62
6, 21126, Control_c, 3, 11, 95
6, 21138, Control_c, 3, 11, 94
6, 21150, Control_c, 3, 11, 93
6, 21162, Control_c, 3, 11, 92
6, 21174, Control_c, 3, 11, 91
6, 21187, Control_c, 3, 11, 90
6, 21199, Control_c, 3, 11, 89
6, 21211, Control_c, 3, 11, 88
6, 21223, Control_c, 3, 11, 87
6, 21235, Control_c, 3, 11, 86
6, 21248, Control_c, 3, 11, 85
6, 21260, Control_c, 3, 11, 84
6, 21272, Control_c, 3, 11, 83
6, 21284, Control_c, 3, 11, 82
6, 21296, Control_c, 3, 11, 81
6, 21308, Control_c, 3, 11, 80
6, 21321, Control_c, 3, 11, 79
6, 21333, Control_c, 3, 11, 78
6, 21345, Control_c, 3, 11, 77
6, 21357, Control_c, 3, 11, 76
6, 21369, Control_c, 3, 11, 75
6, 21382, Control_c, 3, 11, 74
6, 21394, Control_c, 3, 11, 73
6, 21406, Control_c, 3, 11, 72
6, 21418, Control_c, 3, 11, 71
6, 21430, Control_c, 3, 11, 70
6, 21443, Control_c, 3, 11, 69
6, 21455, Control_c, 3, 11, 68
6, 21456, Note_on_c, 3, 57, 0
6, 21456, Note_on_c, 3, 81, 0
6, 21467, Control_c, 3, 11, 67
6, 21479, Control_c, 3, 11, 66
6, 21491, Control_c, 3, 11, 65
6, 21504, Control_c, 3, 11, 127
6, 21504, Control_c, 3, 11, 64
6, 29952, Note_on_c, 3, 59, 95
6, 29952, Control_c, 3, 11, 64
6, 29952, Note_on_c, 3, 63, 94
6, 29961, Control_c, 3, 11, 65
6, 29970, Control_c, 3, 11, 66
6, 29979, Control_c, 3, 11, 67
6, 29988, Control_c, 3, 11, 68
6, 29997, Control_c, 3, 11, 69
6, 30006, Control_c, 3, 11, 70
6, 30016, Control_c, 3, 11, 71
6, 30025, Control_c, 3, 11, 72
6, 30034, Control_c, 3, 11, 73
6, 30043, Control_c, 3, 11, 74
6, 30052, Control_c, 3, 11, 75
6, 30061, Control_c, 3, 11, 76
6, 30070, Control_c, 3, 11, 77
6, 30080, Control_c, 3, 11, 78
6, 30089, Control_c, 3, 11, 79
6, 30098, Control_c, 3, 11, 80
6, 30107, Control_c, 3, 11, 81
6, 30116, Control_c, 3, 11, 82
6, 30125, Control_c, 3, 11, 83
6, 30134, Control_c, 3, 11, 84
6, 30144, Control_c, 3, 11, 85
6, 30153, Control_c, 3, 11, 86
6, 30162, Control_c, 3, 11, 87
6, 30171, Control_c, 3, 11, 88
6, 30180, Control_c, 3, 11, 89
6, 30189, Control_c, 3, 11, 90
6, 30198, Control_c, 3, 11, 91
6, 30208, Control_c, 3, 11, 92
6, 30217, Control_c, 3, 11, 93
6, 30226, Control_c, 3, 11, 94
6, 30235, Control_c, 3, 11, 95
6, 30244, Control_c, 3, 11, 96
6, 30253, Control_c, 3, 11, 97
6, 30262, Control_c, 3, 11, 98
6, 30272, Control_c, 3, 11, 99
6, 30281, Control_c, 3, 11, 100
6, 30290, Control_c, 3, 11, 101
6, 30299, Control_c, 3, 11, 102
6, 30308, Control_c, 3, 11, 103
6, 30317, Control_c, 3, 11, 104
6, 30326, Control_c, 3, 11, 105
6, 30336, Note_on_c, 3, 59, 0
6, 30336, Note_on_c, 3, 63, 0
6, 30336, Note_on_c, 3, 60, 97
6, 30336, Note_on_c, 3, 64, 88
6, 30336, Control_c, 3, 11, 106
6, 30345, Control_c, 3, 11, 107
6, 30354, Control_c, 3, 11, 108
6, 30363, Control_c, 3, 11, 109
6, 30372, Control_c, 3, 11, 110
6, 30381, Control_c, 3, 11, 111
6, 30390, Control_c, 3, 11, 112
6, 30400, Control_c, 3, 11, 113
6, 30409, Control_c, 3, 11, 114
6, 30418, Control_c, 3, 11, 115
6, 30427, Control_c, 3, 11, 116
6, 30436, Control_c, 3, 11, 117
6, 30445, Control_c, 3, 11, 118
6, 30454, Control_c, 3, 11, 119
6, 30464, Note_on_c, 3, 60, 0
6, 30464, Note_on_c, 3, 64, 0
6, 30464, Note_on_c, 3, 65, 94
6, 30464, Note_on_c, 3, 63, 93
6, 30464, Control_c, 3, 11, 120
6, 30473, Control_c, 3, 11, 121
6, 30482, Control_c, 3, 11, 122
6, 30491, Control_c, 3, 11, 123
6, 30500, Control_c, 3, 11, 124
6, 30509, Control_c, 3, 11, 125
6, 30518, Control_c, 3, 11, 126
6, 30528, Control_c, 3, 11, 127
6, 30656, Note_on_c, 3, 65, 0
6, 30656, Note_on_c, 3, 63, 0
6, 30656, Note_on_c, 3, 60, 88
6, 30656, Note_on_c, 3, 64, 96
6, 30720, Note_on_c, 3, 60, 0
6, 30720, Note_on_c, 3, 64, 0
6, 30720, Control_c, 3, 11, 127
6, 30720, Note_on_c, 3, 63, 46
6, 30720, Note_on_c, 3, 59, 44
6, 30880, Note_on_c, 3, 63, 0
6, 30880, Note_on_c, 3, 59, 0
6, 33792, Note_on_c, 3, 68, 91
6, 33792, Note_on_c, 3, 66, 96
6, 33792, Control_c, 3, 11, 30
6, 35280, Note_on_c, 3, 68, 0
6, 35280, Note_on_c, 3, 66, 0
6, 35328, Note_on_c, 3, 68, 93
6, 35328, Note_on_c, 3, 64, 90
6, 35328, Control_c, 3, 11, 64
6, 35349, Control_c, 3, 11, 65
6, 35370, Control_c, 3, 11, 66
6, 35392, Control_c, 3, 11, 67
6, 35413, Control_c, 3, 11, 68
6, 35434, Control_c, 3, 11, 69
6, 35456, Control_c, 3, 11, 70
6, 35477, Control_c, 3, 11, 71
6, 35498, Control_c, 3, 11, 72
6, 35520, Control_c, 3, 11, 73
6, 35541, Control_c, 3, 11, 74
6, 35562, Control_c, 3, 11, 75
6, 35584, Control_c, 3, 11, 76
6, 35605, Control_c, 3, 11, 77
6, 35626, Control_c, 3, 11, 78
6, 35648, Control_c, 3, 11, 79
6, 35669, Control_c, 3, 11, 80
6, 35690, Control_c, 3, 11, 81
6, 35712, Control_c, 3, 11, 82
6, 35733, Control_c, 3, 11, 83
6, 35754, Control_c, 3, 11, 84
6, 35776, Control_c, 3, 11, 85
6, 35797, Control_c, 3, 11, 86
6, 35818, Control_c, 3, 11, 87
6, 35840, Control_c, 3, 11, 88
6, 35861, Control_c, 3, 11, 89
6, 35882, Control_c, 3, 11, 90
6, 35904, Control_c, 3, 11, 91
6, 35925, Control_c, 3, 11, 92
6, 35946, Control_c, 3, 11, 93
6, 35968, Control_c, 3, 11, 94
6, 35989, Control_c, 3, 11, 95
6, 36010, Control_c, 3, 11, 96
6, 36032, Control_c, 3, 11, 97
6, 36053, Control_c, 3, 11, 98
6, 36074, Control_c, 3, 11, 99
6, 36096, Control_c, 3, 11, 100
6, 36117, Control_c, 3, 11, 101
6, 36138, Control_c, 3, 11, 102
6, 36160, Control_c, 3, 11, 103
6, 36181, Control_c, 3, 11, 104
6, 36202, Control_c, 3, 11, 105
6, 36224, Control_c, 3, 11, 106
6, 36245, Control_c, 3, 11, 107
6, 36266, Control_c, 3, 11, 108
6, 36288, Control_c, 3, 11, 109
6, 36309, Control_c, 3, 11, 110
6, 36330, Control_c, 3, 11, 111
6, 36352, Control_c, 3, 11, 112
6, 36373, Control_c, 3, 11, 113
6, 36394, Control_c, 3, 11, 114
6, 36416, Control_c, 3, 11, 115
6, 36437, Control_c, 3, 11, 116
6, 36458, Control_c, 3, 11, 117
6, 36480, Control_c, 3, 11, 118
6, 36501, Control_c, 3, 11, 119
6, 36522, Control_c, 3, 11, 120
6, 36544, Control_c, 3, 11, 121
6, 36565, Control_c, 3, 11, 122
6, 36586, Control_c, 3, 11, 123
6, 36608, Control_c, 3, 11, 124
6, 36629, Control_c, 3, 11, 125
6, 36650, Control_c, 3, 11, 126
6, 36672, Control_c, 3, 11, 127
6, 36816, Note_on_c, 3, 68, 0
6, 36816, Note_on_c, 3, 64, 0
6, 36864, Control_c, 3, 11, 30
6, 36864, Note_on_c, 3, 66, 90
6, 36864, Note_on_c, 3, 68, 93
6, 38352, Note_on_c, 3, 66, 0
6, 38352, Note_on_c, 3, 68, 0
6, 38400, Control_c, 3, 11, 64
6, 38400, Note_on_c, 3, 64, 88
6, 38400, Note_on_c, 3, 68, 96
6, 38421, Control_c, 3, 11, 65
6, 38442, Control_c, 3, 11, 66
6, 38464, Control_c, 3, 11, 67
6, 38485, Control_c, 3, 11, 68
6, 38506, Control_c, 3, 11, 69
6, 38528, Control_c, 3, 11, 70
6, 38549, Control_c, 3, 11, 71
6, 38570, Control_c, 3, 11, 72
6, 38592, Control_c, 3, 11, 73
6, 38613, Control_c, 3, 11, 74
6, 38634, Control_c, 3, 11, 75
6, 38656, Control_c, 3, 11, 76
6, 38677, Control_c, 3, 11, 77
6, 38698, Control_c, 3, 11, 78
6, 38720, Control_c, 3, 11, 79
6, 38741, Control_c, 3, 11, 80
6, 38762, Control_c, 3, 11, 81
6, 38784, Control_c, 3, 11, 82
6, 38805, Control_c, 3, 11, 83
6, 38826, Control_c, 3, 11, 84
6, 38848, Control_c, 3, 11, 85
6, 38869, Control_c, 3, 11, 86
6, 38890, Control_c, 3, 11, 87
6, 38912, Control_c, 3, 11, 88
6, 38933, Control_c, 3, 11, 89
6, 38954, Control_c, 3, 11, 90
6, 38976, Control_c, 3, 11, 91
6, 38997, Control_c, 3, 11, 92
6, 39018, Control_c, 3, 11, 93
6, 39040, Control_c, 3, 11, 94
6, 39061, Control_c, 3, 11, 95
6, 39082, Control_c, 3, 11, 96
6, 39104, Control_c, 3, 11, 97
6, 39125, Control_c, 3, 11, 98
6, 39146, Control_c, 3, 11, 99
6, 39168, Control_c, 3, 11, 100
6, 39189, Control_c, 3, 11, 101
6, 39210, Control_c, 3, 11, 102
6, 39232, Control_c, 3, 11, 103
6, 39253, Control_c, 3, 11, 104
6, 39274, Control_c, 3, 11, 105
6, 39296, Control_c, 3, 11, 106
6, 39317, Control_c, 3, 11, 107
6, 39338, Control_c, 3, 11, 108
6, 39360, Control_c, 3, 11, 109
6, 39381, Control_c, 3, 11, 110
6, 39402, Control_c, 3, 11, 111
6, 39424, Control_c, 3, 11, 112
6, 39445, Control_c, 3, 11, 113
6, 39466, Control_c, 3, 11, 114
6, 39488, Control_c, 3, 11, 115
6, 39509, Control_c, 3, 11, 116
6, 39530, Control_c, 3, 11, 117
6, 39552, Control_c, 3, 11, 118
6, 39573, Control_c, 3, 11, 119
6, 39594, Control_c, 3, 11, 120
6, 39616, Control_c, 3, 11, 121
6, 39637, Control_c, 3, 11, 122
6, 39658, Control_c, 3, 11, 123
6, 39680, Control_c, 3, 11, 124
6, 39701, Control_c, 3, 11, 125
6, 39722, Control_c, 3, 11, 126
6, 39744, Control_c, 3, 11, 127
6, 39888, Note_on_c, 3, 64, 0
6, 39888, Note_on_c, 3, 68, 0
6, 39936, Note_on_c, 3, 68, 95
6, 39936, Note_on_c, 3, 64, 93
6, 39936, Control_c, 3, 11, 64
6, 39957, Control_c, 3, 11, 65
6, 39978, Control_c, 3, 11, 66
6, 40000, Control_c, 3, 11, 67
6, 40021, Control_c, 3, 11, 68
6, 40042, Control_c, 3, 11, 69
6, 40064, Control_c, 3, 11, 70
6, 40085, Control_c, 3, 11, 71
6, 40106, Control_c, 3, 11, 72
6, 40128, Control_c, 3, 11, 73
6, 40149, Control_c, 3, 11, 74
6, 40170, Control_c, 3, 11, 75
6, 40192, Control_c, 3, 11, 76
6, 40213, Control_c, 3, 11, 77
6, 40234, Control_c, 3, 11, 78
6, 40256, Control_c, 3, 11, 79
6, 40277, Control_c, 3, 11, 80
6, 40298, Control_c, 3, 11, 81
6, 40320, Control_c, 3, 11, 82
6, 40341, Control_c, 3, 11, 83
6, 40362, Control_c, 3, 11, 84
6, 40384, Control_c, 3, 11, 85
6, 40405, Control_c, 3, 11, 86
6, 40426, Control_c, 3, 11, 87
6, 40448, Control_c, 3, 11, 88
6, 40469, Control_c, 3, 11, 89
6, 40490, Control_c, 3, 11, 90
6, 40512, Control_c, 3, 11, 91
6, 40533, Control_c, 3, 11, 92
6, 40554, Control_c, 3, 11, 93
6, 40576, Control_c, 3, 11, 94
6, 40597, Control_c, 3, 11, 95
6, 40618, Control_c, 3, 11, 96
6, 40640, Control_c, 3, 11, 97
6, 40661, Control_c, 3, 11, 98
6, 40682, Control_c, 3, 11, 99
6, 40704, Control_c, 3, 11, 100
6, 40725, Control_c, 3, 11, 101
6, 40746, Control_c, 3, 11, 102
6, 40768, Control_c, 3, 11, 103
6, 40789, Control_c, 3, 11, 104
6, 40810, Control_c, 3, 11, 105
6, 40832, Control_c, 3, 11, 106
6, 40853, Control_c, 3, 11, 107
6, 40874, Control_c, 3, 11, 108
6, 40896, Control_c, 3, 11, 109
6, 40917, Control_c, 3, 11, 110
6, 40938, Control_c, 3, 11, 111
6, 40960, Control_c, 3, 11, 112
6, 40981, Control_c, 3, 11, 113
6, 41002, Control_c, 3, 11, 114
6, 41024, Control_c, 3, 11, 115
6, 41045, Control_c, 3, 11, 116
6, 41066, Control_c, 3, 11, 117
6, 41088, Control_c, 3, 11, 118
6, 41109, Control_c, 3, 11, 119
6, 41130, Control_c, 3, 11, 120
6, 41152, Control_c, 3, 11, 121
6, 41173, Control_c, 3, 11, 122
6, 41194, Control_c, 3, 11, 123
6, 41216, Control_c, 3, 11, 124
6, 41237, Control_c, 3, 11, 125
6, 41258, Control_c, 3, 11, 126
6, 41280, Control_c, 3, 11, 127
6, 41424, Note_on_c, 3, 68, 0
6, 41424, Note_on_c, 3, 64, 0
6, 42240, Control_c, 3, 7, 92
6, 43008, Control_c, 3, 11, 127
6, 43776, Note_on_c, 3, 76, 70
6, 43776, Note_on_c, 3, 73, 74
6, 43776, Control_c, 3, 11, 127
6, 43782, Control_c, 3, 11, 126
6, 43788, Control_c, 3, 11, 125
6, 43794, Control_c, 3, 11, 124
6, 43800, Control_c, 3, 11, 123
6, 43806, Control_c, 3, 11, 122
6, 43812, Control_c, 3, 11, 121
6, 43818, Control_c, 3, 11, 120
6, 43824, Control_c, 3, 11, 119
6, 43830, Control_c, 3, 11, 118
6, 43836, Control_c, 3, 11, 117
6, 43843, Control_c, 3, 11, 116
6, 43849, Control_c, 3, 11, 115
6, 43855, Control_c, 3, 11, 114
6, 43861, Control_c, 3, 11, 113
6, 43867, Control_c, 3, 11, 112
6, 43873, Control_c, 3, 11, 111
6, 43879, Control_c, 3, 11, 110
6, 43885, Control_c, 3, 11, 109
6, 43891, Control_c, 3, 11, 108
6, 43897, Control_c, 3, 11, 107
6, 43904, Control_c, 3, 11, 106
6, 43910, Control_c, 3, 11, 105
6, 43916, Control_c, 3, 11, 104
6, 43922, Control_c, 3, 11, 103
6, 43928, Control_c, 3, 11, 102
6, 43934, Control_c, 3, 11, 101
6, 43940, Control_c, 3, 11, 100
6, 43946, Control_c, 3, 11, 99
6, 43952, Control_c, 3, 11, 98
6, 43958, Control_c, 3, 11, 97
6, 43964, Control_c, 3, 11, 96
6, 43971, Control_c, 3, 11, 95
6, 43977, Control_c, 3, 11, 94
6, 43983, Control_c, 3, 11, 93
6, 43989, Control_c, 3, 11, 92
6, 43995, Control_c, 3, 11, 91
6, 44001, Control_c, 3, 11, 90
6, 44007, Control_c, 3, 11, 89
6, 44013, Control_c, 3, 11, 88
6, 44019, Control_c, 3, 11, 87
6, 44025, Control_c, 3, 11, 86
6, 44032, Control_c, 3, 11, 85
6, 44038, Control_c, 3, 11, 84
6, 44044, Control_c, 3, 11, 83
6, 44050, Control_c, 3, 11, 82
6, 44056, Control_c, 3, 11, 81
6, 44062, Control_c, 3, 11, 80
6, 44068, Control_c, 3, 11, 79
6, 44074, Control_c, 3, 11, 78
6, 44080, Control_c, 3, 11, 77
6, 44086, Control_c, 3, 11, 76
6, 44092, Control_c, 3, 11, 75
6, 44099, Control_c, 3, 11, 74
6, 44105, Control_c, 3, 11, 73
6, 44111, Control_c, 3, 11, 72
6, 44117, Control_c, 3, 11, 71
6, 44123, Control_c, 3, 11, 70
6, 44129, Control_c, 3, 11, 69
6, 44135, Control_c, 3, 11, 68
6, 44141, Control_c, 3, 11, 67
6, 44147, Control_c, 3, 11, 66
6, 44153, Control_c, 3, 11, 65
6, 44160, Control_c, 3, 11, 64
6, 45264, Note_on_c, 3, 76, 0
6, 45264, Note_on_c, 3, 73, 0
6, 45312, Control_c, 3, 11, 127
6, 45312, Note_on_c, 3, 76, 79
6, 45312, Note_on_c, 3, 73, 79
6, 45318, Control_c, 3, 11, 126
6, 45324, Control_c, 3, 11, 125
6, 45330, Control_c, 3, 11, 124
6, 45336, Control_c, 3, 11, 123
6, 45342, Control_c, 3, 11, 122
6, 45348, Control_c, 3, 11, 121
6, 45354, Control_c, 3, 11, 120
6, 45360, Control_c, 3, 11, 119
6, 45366, Control_c, 3, 11, 118
6, 45372, Control_c, 3, 11, 117
6, 45379, Control_c, 3, 11, 116
6, 45385, Control_c, 3, 11, 115
6, 45391, Control_c, 3, 11, 114
6, 45397, Control_c, 3, 11, 113
6, 45403, Control_c, 3, 11, 112
6, 45409, Control_c, 3, 11, 111
6, 45415, Control_c, 3, 11, 110
6, 45421, Control_c, 3, 11, 109
6, 45427, Control_c, 3, 11, 108
6, 45433, Control_c, 3, 11, 107
6, 45440, Control_c, 3, 11, 106
6, 45446, Control_c, 3, 11, 105
6, 45452, Control_c, 3, 11, 104
6, 45458, Control_c, 3, 11, 103
6, 45464, Control_c, 3, 11, 102
6, 45470, Control_c, 3, 11, 101
6, 45476, Control_c, 3, 11, 100
6, 45482, Control_c, 3, 11, 99
6, 45488, Control_c, 3, 11, 98
6, 45494, Control_c, 3, 11, 97
6, 45500, Control_c, 3, 11, 96
6, 45507, Control_c, 3, 11, 95
6, 45513, Control_c, 3, 11, 94
6, 45519, Control_c, 3, 11, 93
6, 45525, Control_c, 3, 11, 92
6, 45531, Control_c, 3, 11, 91
6, 45537, Control_c, 3, 11, 90
6, 45543, Control_c, 3, 11, 89
6, 45549, Control_c, 3, 11, 88
6, 45555, Control_c, 3, 11, 87
6, 45561, Control_c, 3, 11, 86
6, 45568, Control_c, 3, 11, 85
6, 45574, Control_c, 3, 11, 84
6, 45580, Control_c, 3, 11, 83
6, 45586, Control_c, 3, 11, 82
6, 45592, Control_c, 3, 11, 81
6, 45598, Control_c, 3, 11, 80
6, 45604, Control_c, 3, 11, 79
6, 45610, Control_c, 3, 11, 78
6, 45616, Control_c, 3, 11, 77
6, 45622, Control_c, 3, 11, 76
6, 45628, Control_c, 3, 11, 75
6, 45635, Control_c, 3, 11, 74
6, 45641, Control_c, 3, 11, 73
6, 45647, Control_c, 3, 11, 72
6, 45653, Control_c, 3, 11, 71
6, 45659, Control_c, 3, 11, 70
6, 45665, Control_c, 3, 11, 69
6, 45671, Control_c, 3, 11, 68
6, 45677, Control_c, 3, 11, 67
6, 45683, Control_c, 3, 11, 66
6, 45689, Control_c, 3, 11, 65
6, 45696, Control_c, 3, 11, 64
6, 46800, Note_on_c, 3, 76, 0
6, 46800, Note_on_c, 3, 73, 0
6, 46848, Note_on_c, 3, 74, 89
6, 46848, Control_c, 3, 11, 92
6, 46848, Note_on_c, 3, 77, 95
6, 46858, Control_c, 3, 11, 93
6, 46869, Control_c, 3, 11, 94
6, 46880, Control_c, 3, 11, 95
6, 46891, Control_c, 3, 11, 96
6, 46902, Control_c, 3, 11, 97
6, 46913, Control_c, 3, 11, 98
6, 46924, Control_c, 3, 11, 99
6, 46935, Control_c, 3, 11, 100
6, 46946, Control_c, 3, 11, 101
6, 46957, Control_c, 3, 11, 102
6, 46968, Control_c, 3, 11, 103
6, 46979, Control_c, 3, 11, 104
6, 46990, Control_c, 3, 11, 105
6, 47001, Control_c, 3, 11, 106
6, 47012, Control_c, 3, 11, 107
6, 47023, Control_c, 3, 11, 108
6, 47034, Control_c, 3, 11, 109
6, 47045, Control_c, 3, 11, 110
6, 47056, Control_c, 3, 11, 111
6, 47067, Control_c, 3, 11, 112
6, 47078, Control_c, 3, 11, 113
6, 47089, Control_c, 3, 11, 114
6, 47100, Control_c, 3, 11, 115
6, 47111, Control_c, 3, 11, 116
6, 47122, Control_c, 3, 11, 117
6, 47133, Control_c, 3, 11, 118
6, 47144, Control_c, 3, 11, 119
6, 47155, Control_c, 3, 11, 120
6, 47166, Control_c, 3, 11, 121
6, 47177, Control_c, 3, 11, 122
6, 47188, Control_c, 3, 11, 123
6, 47199, Control_c, 3, 11, 124
6, 47210, Control_c, 3, 11, 125
6, 47221, Control_c, 3, 11, 126
6, 47232, Note_on_c, 3, 74, 0
6, 47232, Note_on_c, 3, 77, 0
6, 47232, Note_on_c, 3, 78, 94
6, 47232, Note_on_c, 3, 75, 92
6, 47232, Control_c, 3, 11, 127
6, 47392, Note_on_c, 3, 78, 0
6, 47392, Note_on_c, 3, 75, 0
6, 47616, Control_c, 3, 11, 92
6, 47616, Note_on_c, 3, 68, 88
6, 47616, Note_on_c, 3, 71, 91
6, 47626, Control_c, 3, 11, 93
6, 47637, Control_c, 3, 11, 94
6, 47648, Control_c, 3, 11, 95
6, 47659, Control_c, 3, 11, 96
6, 47670, Control_c, 3, 11, 97
6, 47681, Control_c, 3, 11, 98
6, 47692, Control_c, 3, 11, 99
6, 47703, Control_c, 3, 11, 100
6, 47714, Control_c, 3, 11, 101
6, 47725, Control_c, 3, 11, 102
6, 47736, Control_c, 3, 11, 103
6, 47747, Control_c, 3, 11, 104
6, 47758, Control_c, 3, 11, 105
6, 47769, Control_c, 3, 11, 106
6, 47780, Control_c, 3, 11, 107
6, 47791, Control_c, 3, 11, 108
6, 47802, Control_c, 3, 11, 109
6, 47813, Control_c, 3, 11, 110
6, 47824, Control_c, 3, 11, 111
6, 47835, Control_c, 3, 11, 112
6, 47846, Control_c, 3, 11, 113
6, 47857, Control_c, 3, 11, 114
6, 47868, Control_c, 3, 11, 115
6, 47879, Control_c, 3, 11, 116
6, 47890, Control_c, 3, 11, 117
6, 47901, Control_c, 3, 11, 118
6, 47912, Control_c, 3, 11, 119
6, 47923, Control_c, 3, 11, 120
6, 47934, Control_c, 3, 11, 121
6, 47945, Control_c, 3, 11, 122
6, 47956, Control_c, 3, 11, 123
6, 47967, Control_c, 3, 11, 124
6, 47978, Control_c, 3, 11, 125
6, 47989, Control_c, 3, 11, 126
6, 48000, Note_on_c, 3, 68, 0
6, 48000, Note_on_c, 3, 71, 0
6, 48000, Note_on_c, 3, 70, 88
6, 48000, Control_c, 3, 11, 127
6, 48000, Note_on_c, 3, 73, 87
6, 48160, Note_on_c, 3, 70, 0
6, 48160, Note_on_c, 3, 73, 0
6, 48384, Note_on_c, 3, 68, 80
6, 48384, Note_on_c, 3, 72, 76
6, 48718, Note_on_c, 3, 68, 0
6, 48718, Note_on_c, 3, 72, 0
6, 48720, Note_on_c, 3, 67, 80
6, 48720, Note_on_c, 3, 71, 78
6, 48766, Note_on_c, 3, 67, 0
6, 48766, Note_on_c, 3, 71, 0
6, 48768, Note_on_c, 3, 66, 75
6, 48768, Note_on_c, 3, 70, 80
6, 49102, Note_on_c, 3, 66, 0
6, 49102, Note_on_c, 3, 70, 0
6, 49104, Note_on_c, 3, 65, 85
6, 49104, Note_on_c, 3, 69, 80
6, 49150, Note_on_c, 3, 65, 0
6, 49150, Note_on_c, 3, 69, 0
6, 49152, Note_on_c, 3, 64, 78
6, 49152, Note_on_c, 3, 68, 79
6, 49344, Note_on_c, 3, 64, 0
6, 49344, Note_on_c, 3, 68, 0
6, 49344, Note_on_c, 3, 68, 83
6, 49344, Note_on_c, 3, 72, 88
6, 49536, Note_on_c, 3, 68, 0
6, 49536, Note_on_c, 3, 72, 0
6, 49536, Note_on_c, 3, 67, 83
6, 49536, Note_on_c, 3, 71, 92
6, 50112, Note_on_c, 3, 67, 0
6, 50112, Note_on_c, 3, 71, 0
6, 50112, Note_on_c, 3, 72, 94
6, 50304, Note_on_c, 3, 72, 0
6, 50304, Note_on_c, 3, 73, 103
6, 50432, Note_on_c, 3, 73, 0
6, 50432, Note_on_c, 3, 74, 106
6, 50560, Note_on_c, 3, 74, 0
6, 50560, Note_on_c, 3, 75, 109
6, 50686, Note_on_c, 3, 75, 0
6, 50688, Control_c, 3, 11, 127
6, 50688, Note_on_c, 3, 76, 72
6, 50688, Note_on_c, 3, 73, 73
6, 50694, Control_c, 3, 11, 126
6, 50700, Control_c, 3, 11, 125
6, 50706, Control_c, 3, 11, 124
6, 50712, Control_c, 3, 11, 123
6, 50718, Control_c, 3, 11, 122
6, 50724, Control_c, 3, 11, 121
6, 50730, Control_c, 3, 11, 120
6, 50736, Control_c, 3, 11, 119
6, 50742, Control_c, 3, 11, 118
6, 50748, Control_c, 3, 11, 117
6, 50755, Control_c, 3, 11, 116
6, 50761, Control_c, 3, 11, 115
6, 50767, Control_c, 3, 11, 114
6, 50773, Control_c, 3, 11, 113
6, 50779, Control_c, 3, 11, 112
6, 50785, Control_c, 3, 11, 111
6, 50791, Control_c, 3, 11, 110
6, 50797, Control_c, 3, 11, 109
6, 50803, Control_c, 3, 11, 108
6, 50809, Control_c, 3, 11, 107
6, 50816, Control_c, 3, 11, 106
6, 50822, Control_c, 3, 11, 105
6, 50828, Control_c, 3, 11, 104
6, 50834, Control_c, 3, 11, 103
6, 50840, Control_c, 3, 11, 102
6, 50846, Control_c, 3, 11, 101
6, 50852, Control_c, 3, 11, 100
6, 50858, Control_c, 3, 11, 99
6, 50864, Control_c, 3, 11, 98
6, 50870, Control_c, 3, 11, 97
6, 50876, Control_c, 3, 11, 96
6, 50883, Control_c, 3, 11, 95
6, 50889, Control_c, 3, 11, 94
6, 50895, Control_c, 3, 11, 93
6, 50901, Control_c, 3, 11, 92
6, 50907, Control_c, 3, 11, 91
6, 50913, Control_c, 3, 11, 90
6, 50919, Control_c, 3, 11, 89
6, 50925, Control_c, 3, 11, 88
6, 50931, Control_c, 3, 11, 87
6, 50937, Control_c, 3, 11, 86
6, 50944, Control_c, 3, 11, 85
6, 50950, Control_c, 3, 11, 84
6, 50956, Control_c, 3, 11, 83
6, 50962, Control_c, 3, 11, 82
6, 50968, Control_c, 3, 11, 81
6, 50974, Control_c, 3, 11, 80
6, 50980, Control_c, 3, 11, 79
6, 50986, Control_c, 3, 11, 78
6, 50992, Control_c, 3, 11, 77
6, 50998, Control_c, 3, 11, 76
6, 51004, Control_c, 3, 11, 75
6, 51011, Control_c, 3, 11, 74
6, 51017, Control_c, 3, 11, 73
6, 51023, Control_c, 3, 11, 72
6, 51029, Control_c, 3, 11, 71
6, 51035, Control_c, 3, 11, 70
6, 51041, Control_c, 3, 11, 69
6, 51047, Control_c, 3, 11, 68
6, 51053, Control_c, 3, 11, 67
6, 51059, Control_c, 3, 11, 66
6, 51065, Control_c, 3, 11, 65
6, 51072, Control_c, 3, 11, 64
6, 52176, Note_on_c, 3, 76, 0
6, 52176, Note_on_c, 3, 73, 0
6, 52224, Control_c, 3, 11, 127
6, 52224, Note_on_c, 3, 73, 77
6, 52224, Note_on_c, 3, 76, 78
6, 52230, Control_c, 3, 11, 126
6, 52236, Control_c, 3, 11, 125
6, 52242, Control_c, 3, 11, 124
6, 52248, Control_c, 3, 11, 123
6, 52254, Control_c, 3, 11, 122
6, 52260, Control_c, 3, 11, 121
6, 52266, Control_c, 3, 11, 120
6, 52272, Control_c, 3, 11, 119
6, 52278, Control_c, 3, 11, 118
6, 52284, Control_c, 3, 11, 117
6, 52291, Control_c, 3, 11, 116
6, 52297, Control_c, 3, 11, 115
6, 52303, Control_c, 3, 11, 114
6, 52309, Control_c, 3, 11, 113
6, 52315, Control_c, 3, 11, 112
6, 52321, Control_c, 3, 11, 111
6, 52327, Control_c, 3, 11, 110
6, 52333, Control_c, 3, 11, 109
6, 52339, Control_c, 3, 11, 108
6, 52345, Control_c, 3, 11, 107
6, 52352, Control_c, 3, 11, 106
6, 52358, Control_c, 3, 11, 105
6, 52364, Control_c, 3, 11, 104
6, 52370, Control_c, 3, 11, 103
6, 52376, Control_c, 3, 11, 102
6, 52382, Control_c, 3, 11, 101
6, 52388, Control_c, 3, 11, 100
6, 52394, Control_c, 3, 11, 99
6, 52400, Control_c, 3, 11, 98
6, 52406, Control_c, 3, 11, 97
6, 52412, Control_c, 3, 11, 96
6, 52419, Control_c, 3, 11, 95
6, 52425, Control_c, 3, 11, 94
6, 52431, Control_c, 3, 11, 93
6, 52437, Control_c, 3, 11, 92
6, 52443, Control_c, 3, 11, 91
6, 52449, Control_c, 3, 11, 90
6, 52455, Control_c, 3, 11, 89
6, 52461, Control_c, 3, 11, 88
6, 52467, Control_c, 3, 11, 87
6, 52473, Control_c, 3, 11, 86
6, 52480, Control_c, 3, 11, 85
6, 52486, Control_c, 3, 11, 84
6, 52492, Control_c, 3, 11, 83
6, 52498, Control_c, 3, 11, 82
6, 52504, Control_c, 3, 11, 81
6, 52510, Control_c, 3, 11, 80
6, 52516, Control_c, 3, 11, 79
6, 52522, Control_c, 3, 11, 78
6, 52528, Control_c, 3, 11, 77
6, 52534, Control_c, 3, 11, 76
6, 52540, Control_c, 3, 11, 75
6, 52547, Control_c, 3, 11, 74
6, 52553, Control_c, 3, 11, 73
6, 52559, Control_c, 3, 11, 72
6, 52565, Control_c, 3, 11, 71
6, 52571, Control_c, 3, 11, 70
6, 52577, Control_c, 3, 11, 69
6, 52583, Control_c, 3, 11, 68
6, 52589, Control_c, 3, 11, 67
6, 52595, Control_c, 3, 11, 66
6, 52601, Control_c, 3, 11, 65
6, 52608, Control_c, 3, 11, 64
6, 53712, Note_on_c, 3, 73, 0
6, 53712, Note_on_c, 3, 76, 0
6, 53760, Note_on_c, 3, 77, 89
6, 53760, Note_on_c, 3, 74, 96
6, 53760, Control_c, 3, 11, 92
6, 53770, Control_c, 3, 11, 93
6, 53781, Control_c, 3, 11, 94
6, 53792, Control_c, 3, 11, 95
6, 53803, Control_c, 3, 11, 96
6, 53814, Control_c, 3, 11, 97
6, 53825, Control_c, 3, 11, 98
6, 53836, Control_c, 3, 11, 99
6, 53847, Control_c, 3, 11, 100
6, 53858, Control_c, 3, 11, 101
6, 53869, Control_c, 3, 11, 102
6, 53880, Control_c, 3, 11, 103
6, 53891, Control_c, 3, 11, 104
6, 53902, Control_c, 3, 11, 105
6, 53913, Control_c, 3, 11, 106
6, 53924, Control_c, 3, 11, 107
6, 53935, Control_c, 3, 11, 108
6, 53946, Control_c, 3, 11, 109
6, 53957, Control_c, 3, 11, 110
6, 53968, Control_c, 3, 11, 111
6, 53979, Control_c, 3, 11, 112
6, 53990, Control_c, 3, 11, 113
6, 54001, Control_c, 3, 11, 114
6, 54012, Control_c, 3, 11, 115
6, 54023, Control_c, 3, 11, 116
6, 54034, Control_c, 3, 11, 117
6, 54045, Control_c, 3, 11, 118
6, 54056, Control_c, 3, 11, 119
6, 54067, Control_c, 3, 11, 120
6, 54078, Control_c, 3, 11, 121
6, 54089, Control_c, 3, 11, 122
6, 54100, Control_c, 3, 11, 123
6, 54111, Control_c, 3, 11, 124
6, 54122, Control_c, 3, 11, 125
6, 54133, Control_c, 3, 11, 126
6, 54144, Note_on_c, 3, 77, 0
6, 54144, Note_on_c, 3, 74, 0
6, 54144, Note_on_c, 3, 75, 91
6, 54144, Control_c, 3, 11, 127
6, 54144, Note_on_c, 3, 78, 96
6, 54304, Note_on_c, 3, 75, 0
6, 54304, Note_on_c, 3, 78, 0
6, 54528, Note_on_c, 3, 71, 91
6, 54528, Control_c, 3, 11, 92
6, 54528, Note_on_c, 3, 68, 94
6, 54549, Control_c, 3, 11, 93
6, 54571, Control_c, 3, 11, 94
6, 54593, Control_c, 3, 11, 95
6, 54615, Control_c, 3, 11, 96
6, 54637, Control_c, 3, 11, 97
6, 54659, Control_c, 3, 11, 98
6, 54681, Control_c, 3, 11, 99
6, 54703, Control_c, 3, 11, 100
6, 54725, Control_c, 3, 11, 101
6, 54747, Control_c, 3, 11, 102
6, 54769, Control_c, 3, 11, 103
6, 54791, Control_c, 3, 11, 104
6, 54813, Control_c, 3, 11, 105
6, 54835, Control_c, 3, 11, 106
6, 54857, Control_c, 3, 11, 107
6, 54879, Control_c, 3, 11, 108
6, 54901, Control_c, 3, 11, 109
6, 54912, Note_on_c, 3, 71, 0
6, 54912, Note_on_c, 3, 68, 0
6, 54912, Note_on_c, 3, 73, 95
6, 54912, Note_on_c, 3, 70, 95
6, 54922, Control_c, 3, 11, 110
6, 54944, Control_c, 3, 11, 111
6, 54966, Control_c, 3, 11, 112
6, 54988, Control_c, 3, 11, 113
6, 55010, Control_c, 3, 11, 114
6, 55032, Control_c, 3, 11, 115
6, 55054, Control_c, 3, 11, 116
6, 55076, Control_c, 3, 11, 117
6, 55098, Control_c, 3, 11, 118
6, 55120, Control_c, 3, 11, 119
6, 55142, Control_c, 3, 11, 120
6, 55164, Control_c, 3, 11, 121
6, 55186, Control_c, 3, 11, 122
6, 55208, Control_c, 3, 11, 123
6, 55230, Control_c, 3, 11, 124
6, 55252, Control_c, 3, 11, 125
6, 55274, Control_c, 3, 11, 126
6, 55296, Control_c, 3, 11, 127
6, 55308, Control_c, 3, 11, 126
6, 55320, Control_c, 3, 11, 125
6, 55332, Control_c, 3, 11, 124
6, 55344, Control_c, 3, 11, 123
6, 55356, Control_c, 3, 11, 122
6, 55369, Control_c, 3, 11, 121
6, 55381, Control_c, 3, 11, 120
6, 55393, Control_c, 3, 11, 119
6, 55405, Control_c, 3, 11, 118
6, 55417, Control_c, 3, 11, 117
6, 55430, Control_c, 3, 11, 116
6, 55442, Control_c, 3, 11, 115
6, 55454, Control_c, 3, 11, 114
6, 55466, Control_c, 3, 11, 113
6, 55478, Control_c, 3, 11, 112
6, 55491, Control_c, 3, 11, 111
6, 55503, Control_c, 3, 11, 110
6, 55515, Control_c, 3, 11, 109
6, 55527, Control_c, 3, 11, 108
6, 55539, Control_c, 3, 11, 107
6, 55552, Control_c, 3, 11, 106
6, 55564, Control_c, 3, 11, 105
6, 55576, Control_c, 3, 11, 104
6, 55588, Control_c, 3, 11, 103
6, 55600, Control_c, 3, 11, 102
6, 55612, Control_c, 3, 11, 101
6, 55625, Control_c, 3, 11, 100
6, 55637, Control_c, 3, 11, 99
6, 55649, Control_c, 3, 11, 98
6, 55661, Control_c, 3, 11, 97
6, 55673, Control_c, 3, 11, 96
6, 55686, Control_c, 3, 11, 95
6, 55698, Control_c, 3, 11, 94
6, 55710, Control_c, 3, 11, 93
6, 55722, Control_c, 3, 11, 92
6, 55734, Control_c, 3, 11, 91
6, 55747, Control_c, 3, 11, 90
6, 55759, Control_c, 3, 11, 89
6, 55771, Control_c, 3, 11, 88
6, 55783, Control_c, 3, 11, 87
6, 55795, Control_c, 3, 11, 86
6, 55808, Control_c, 3, 11, 85
6, 55820, Control_c, 3, 11, 84
6, 55832, Control_c, 3, 11, 83
6, 55844, Control_c, 3, 11, 82
6, 55856, Control_c, 3, 11, 81
6, 55868, Control_c, 3, 11, 80
6, 55881, Control_c, 3, 11, 79
6, 55893, Control_c, 3, 11, 78
6, 55905, Control_c, 3, 11, 77
6, 55917, Control_c, 3, 11, 76
6, 55929, Control_c, 3, 11, 75
6, 55942, Control_c, 3, 11, 74
6, 55954, Control_c, 3, 11, 73
6, 55966, Control_c, 3, 11, 72
6, 55978, Control_c, 3, 11, 71
6, 55990, Control_c, 3, 11, 70
6, 56003, Control_c, 3, 11, 69
6, 56015, Control_c, 3, 11, 68
6, 56027, Control_c, 3, 11, 67
6, 56039, Control_c, 3, 11, 66
6, 56051, Control_c, 3, 11, 65
6, 56064, Note_on_c, 3, 73, 0
6, 56064, Note_on_c, 3, 70, 0
6, 56064, Note_on_c, 3, 74, 92
6, 56064, Note_on_c, 3, 71, 94
6, 56064, Control_c, 3, 11, 64
6, 56158, Note_on_c, 3, 74, 0
6, 56158, Note_on_c, 3, 71, 0
6, 63744, Control_c, 3, 11, 64
6, 63744, Note_on_c, 3, 59, 94
6, 63750, Control_c, 3, 11, 65
6, 63756, Control_c, 3, 11, 66
6, 63762, Control_c, 3, 11, 67
6, 63768, Control_c, 3, 11, 68
6, 63774, Control_c, 3, 11, 69
6, 63780, Control_c, 3, 11, 70
6, 63786, Control_c, 3, 11, 71
6, 63792, Control_c, 3, 11, 72
6, 63798, Control_c, 3, 11, 73
6, 63804, Control_c, 3, 11, 74
6, 63811, Control_c, 3, 11, 75
6, 63817, Control_c, 3, 11, 76
6, 63823, Control_c, 3, 11, 77
6, 63829, Control_c, 3, 11, 78
6, 63835, Control_c, 3, 11, 79
6, 63841, Control_c, 3, 11, 80
6, 63847, Control_c, 3, 11, 81
6, 63853, Control_c, 3, 11, 82
6, 63859, Control_c, 3, 11, 83
6, 63865, Control_c, 3, 11, 84
6, 63872, Control_c, 3, 11, 85
6, 63878, Control_c, 3, 11, 86
6, 63884, Control_c, 3, 11, 87
6, 63890, Control_c, 3, 11, 88
6, 63896, Control_c, 3, 11, 89
6, 63902, Control_c, 3, 11, 90
6, 63908, Control_c, 3, 11, 91
6, 63914, Control_c, 3, 11, 92
6, 63920, Control_c, 3, 11, 93
6, 63926, Control_c, 3, 11, 94
6, 63932, Control_c, 3, 11, 95
6, 63939, Control_c, 3, 11, 96
6, 63945, Control_c, 3, 11, 97
6, 63951, Control_c, 3, 11, 98
6, 63957, Control_c, 3, 11, 99
6, 63963, Control_c, 3, 11, 100
6, 63969, Control_c, 3, 11, 101
6, 63975, Control_c, 3, 11, 102
6, 63981, Control_c, 3, 11, 103
6, 63987, Control_c, 3, 11, 104
6, 63993, Control_c, 3, 11, 105
6, 64000, Control_c, 3, 11, 106
6, 64006, Control_c, 3, 11, 107
6, 64012, Control_c, 3, 11, 108
6, 64018, Control_c, 3, 11, 109
6, 64024, Control_c, 3, 11, 110
6, 64030, Control_c, 3, 11, 111
6, 64032, Note_on_c, 3, 59, 0
6, 64032, Note_on_c, 3, 60, 93
6, 64036, Control_c, 3, 11, 112
6, 64042, Control_c, 3, 11, 113
6, 64048, Control_c, 3, 11, 114
6, 64054, Control_c, 3, 11, 115
6, 64060, Control_c, 3, 11, 116
6, 64067, Control_c, 3, 11, 117
6, 64073, Control_c, 3, 11, 118
6, 64079, Control_c, 3, 11, 119
6, 64085, Control_c, 3, 11, 120
6, 64091, Control_c, 3, 11, 121
6, 64097, Control_c, 3, 11, 122
6, 64103, Control_c, 3, 11, 123
6, 64109, Control_c, 3, 11, 124
6, 64115, Control_c, 3, 11, 125
6, 64121, Control_c, 3, 11, 126
6, 64128, Note_on_c, 3, 60, 0
6, 64128, Control_c, 3, 11, 127
6, 64128, Note_on_c, 3, 64, 97
6, 64288, Note_on_c, 3, 64, 0
6, 64320, Note_on_c, 3, 65, 95
6, 64320, Note_on_c, 3, 67, 96
6, 64480, Note_on_c, 3, 65, 0
6, 64480, Note_on_c, 3, 67, 0
6, 64512, Control_c, 3, 11, 64
6, 64512, Note_on_c, 3, 59, 93
6, 64518, Control_c, 3, 11, 65
6, 64524, Control_c, 3, 11, 66
6, 64530, Control_c, 3, 11, 67
6, 64536, Control_c, 3, 11, 68
6, 64542, Control_c, 3, 11, 69
6, 64548, Control_c, 3, 11, 70
6, 64554, Control_c, 3, 11, 71
6, 64560, Control_c, 3, 11, 72
6, 64566, Control_c, 3, 11, 73
6, 64572, Control_c, 3, 11, 74
6, 64579, Control_c, 3, 11, 75
6, 64585, Control_c, 3, 11, 76
6, 64591, Control_c, 3, 11, 77
6, 64597, Control_c, 3, 11, 78
6, 64603, Control_c, 3, 11, 79
6, 64609, Control_c, 3, 11, 80
6, 64615, Control_c, 3, 11, 81
6, 64621, Control_c, 3, 11, 82
6, 64627, Control_c, 3, 11, 83
6, 64633, Control_c, 3, 11, 84
6, 64640, Control_c, 3, 11, 85
6, 64646, Control_c, 3, 11, 86
6, 64652, Control_c, 3, 11, 87
6, 64658, Control_c, 3, 11, 88
6, 64664, Control_c, 3, 11, 89
6, 64670, Control_c, 3, 11, 90
6, 64676, Control_c, 3, 11, 91
6, 64682, Control_c, 3, 11, 92
6, 64688, Control_c, 3, 11, 93
6, 64694, Control_c, 3, 11, 94
6, 64700, Control_c, 3, 11, 95
6, 64707, Control_c, 3, 11, 96
6, 64713, Control_c, 3, 11, 97
6, 64719, Control_c, 3, 11, 98
6, 64725, Control_c, 3, 11, 99
6, 64731, Control_c, 3, 11, 100
6, 64737, Control_c, 3, 11, 101
6, 64743, Control_c, 3, 11, 102
6, 64749, Control_c, 3, 11, 103
6, 64755, Control_c, 3, 11, 104
6, 64761, Control_c, 3, 11, 105
6, 64768, Control_c, 3, 11, 106
6, 64774, Control_c, 3, 11, 107
6, 64780, Control_c, 3, 11, 108
6, 64786, Control_c, 3, 11, 109
6, 64792, Control_c, 3, 11, 110
6, 64798, Control_c, 3, 11, 111
6, 64800, Note_on_c, 3, 59, 0
6, 64800, Note_on_c, 3, 60, 96
6, 64804, Control_c, 3, 11, 112
6, 64810, Control_c, 3, 11, 113
6, 64816, Control_c, 3, 11, 114
6, 64822, Control_c, 3, 11, 115
6, 64828, Control_c, 3, 11, 116
6, 64835, Control_c, 3, 11, 117
6, 64841, Control_c, 3, 11, 118
6, 64847, Control_c, 3, 11, 119
6, 64853, Control_c, 3, 11, 120
6, 64859, Control_c, 3, 11, 121
6, 64865, Control_c, 3, 11, 122
6, 64871, Control_c, 3, 11, 123
6, 64877, Control_c, 3, 11, 124
6, 64883, Control_c, 3, 11, 125
6, 64889, Control_c, 3, 11, 126
6, 64896, Note_on_c, 3, 60, 0
6, 64896, Note_on_c, 3, 64, 88
6, 64896, Control_c, 3, 11, 127
6, 65056, Note_on_c, 3, 64, 0
6, 65088, Note_on_c, 3, 65, 95
6, 65088, Note_on_c, 3, 67, 97
6, 65248, Note_on_c, 3, 65, 0
6, 65248, Note_on_c, 3, 67, 0
6, 65280, Note_on_c, 3, 71, 109
6, 65280, Note_on_c, 3, 67, 113
6, 65280, Control_c, 3, 11, 92
6, 65568, Note_on_c, 3, 71, 0
6, 65568, Note_on_c, 3, 67, 0
6, 65568, Note_on_c, 3, 66, 105
6, 65568, Note_on_c, 3, 70, 110
6, 65664, Note_on_c, 3, 66, 0
6, 65664, Note_on_c, 3, 70, 0
6, 65664, Note_on_c, 3, 66, 113
6, 65664, Note_on_c, 3, 70, 112
6, 66048, Control_c, 3, 11, 92
6, 66069, Control_c, 3, 11, 93
6, 66091, Control_c, 3, 11, 94
6, 66113, Control_c, 3, 11, 95
6, 66135, Control_c, 3, 11, 96
6, 66157, Control_c, 3, 11, 97
6, 66179, Control_c, 3, 11, 98
6, 66201, Control_c, 3, 11, 99
6, 66223, Control_c, 3, 11, 100
6, 66240, Note_on_c, 3, 66, 0
6, 66240, Note_on_c, 3, 70, 0
6, 66240, Note_on_c, 3, 69, 110
6, 66240, Note_on_c, 3, 73, 107
6, 66245, Control_c, 3, 11, 101
6, 66267, Control_c, 3, 11, 102
6, 66289, Control_c, 3, 11, 103
6, 66311, Control_c, 3, 11, 104
6, 66333, Control_c, 3, 11, 105
6, 66355, Control_c, 3, 11, 106
6, 66377, Control_c, 3, 11, 107
6, 66399, Control_c, 3, 11, 108
6, 66421, Control_c, 3, 11, 109
6, 66432, Note_on_c, 3, 69, 0
6, 66432, Note_on_c, 3, 73, 0
6, 66432, Note_on_c, 3, 68, 106
6, 66432, Note_on_c, 3, 72, 106
6, 66442, Control_c, 3, 11, 110
6, 66464, Control_c, 3, 11, 111
6, 66486, Control_c, 3, 11, 112
6, 66508, Control_c, 3, 11, 113
6, 66530, Control_c, 3, 11, 114
6, 66552, Control_c, 3, 11, 115
6, 66574, Control_c, 3, 11, 116
6, 66596, Control_c, 3, 11, 117
6, 66618, Control_c, 3, 11, 118
6, 66624, Note_on_c, 3, 68, 0
6, 66624, Note_on_c, 3, 72, 0
6, 66624, Note_on_c, 3, 75, 111
6, 66624, Note_on_c, 3, 72, 103
6, 66640, Control_c, 3, 11, 119
6, 66662, Control_c, 3, 11, 120
6, 66684, Control_c, 3, 11, 121
6, 66706, Control_c, 3, 11, 122
6, 66728, Control_c, 3, 11, 123
6, 66750, Control_c, 3, 11, 124
6, 66772, Control_c, 3, 11, 125
6, 66784, Note_on_c, 3, 75, 0
6, 66784, Note_on_c, 3, 72, 0
6, 66794, Control_c, 3, 11, 126
6, 66816, Note_on_c, 3, 71, 107
6, 66816, Control_c, 3, 11, 92
6, 66816, Control_c, 3, 11, 127
6, 66816, Note_on_c, 3, 67, 112
6, 67104, Note_on_c, 3, 71, 0
6, 67104, Note_on_c, 3, 67, 0
6, 67104, Note_on_c, 3, 66, 105
6, 67104, Note_on_c, 3, 70, 112
6, 67200, Note_on_c, 3, 66, 0
6, 67200, Note_on_c, 3, 70, 0
6, 67200, Note_on_c, 3, 66, 108
6, 67200, Note_on_c, 3, 70, 109
6, 67584, Control_c, 3, 11, 92
6, 67605, Control_c, 3, 11, 93
6, 67627, Control_c, 3, 11, 94
6, 67649, Control_c, 3, 11, 95
6, 67671, Control_c, 3, 11, 96
6, 67693, Control_c, 3, 11, 97
6, 67715, Control_c, 3, 11, 98
6, 67737, Control_c, 3, 11, 99
6, 67759, Control_c, 3, 11, 100
6, 67776, Note_on_c, 3, 66, 0
6, 67776, Note_on_c, 3, 70, 0
6, 67776, Note_on_c, 3, 65, 110
6, 67781, Control_c, 3, 11, 101
6, 67803, Control_c, 3, 11, 102
6, 67825, Control_c, 3, 11, 103
6, 67847, Control_c, 3, 11, 104
6, 67869, Control_c, 3, 11, 105
6, 67891, Control_c, 3, 11, 106
6, 67913, Control_c, 3, 11, 107
6, 67935, Control_c, 3, 11, 108
6, 67957, Control_c, 3, 11, 109
6, 67968, Note_on_c, 3, 65, 0
6, 67968, Note_on_c, 3, 66, 108
6, 67978, Control_c, 3, 11, 110
6, 68000, Control_c, 3, 11, 111
6, 68022, Control_c, 3, 11, 112
6, 68044, Control_c, 3, 11, 113
6, 68066, Control_c, 3, 11, 114
6, 68088, Control_c, 3, 11, 115
6, 68110, Control_c, 3, 11, 116
6, 68132, Control_c, 3, 11, 117
6, 68154, Control_c, 3, 11, 118
6, 68176, Control_c, 3, 11, 119
6, 68198, Control_c, 3, 11, 120
6, 68220, Control_c, 3, 11, 121
6, 68242, Control_c, 3, 11, 122
6, 68256, Note_on_c, 3, 66, 0
6, 68256, Note_on_c, 3, 62, 110
6, 68264, Control_c, 3, 11, 123
6, 68286, Control_c, 3, 11, 124
6, 68308, Control_c, 3, 11, 125
6, 68330, Control_c, 3, 11, 126
6, 68352, Note_on_c, 3, 62, 0
6, 68352, Control_c, 3, 11, 127
6, 68352, Note_on_c, 3, 63, 105
6, 68512, Note_on_c, 3, 63, 0
6, 68544, Control_c, 3, 11, 127
6, 68544, Note_on_c, 3, 58, 112
6, 68555, Control_c, 3, 11, 126
6, 68567, Control_c, 3, 11, 125
6, 68579, Control_c, 3, 11, 124
6, 68590, Control_c, 3, 11, 123
6, 68602, Control_c, 3, 11, 122
6, 68614, Control_c, 3, 11, 121
6, 68625, Control_c, 3, 11, 120
6, 68637, Control_c, 3, 11, 119
6, 68649, Control_c, 3, 11, 118
6, 68661, Control_c, 3, 11, 117
6, 68672, Control_c, 3, 11, 116
6, 68684, Control_c, 3, 11, 115
6, 68696, Control_c, 3, 11, 114
6, 68707, Control_c, 3, 11, 113
6, 68719, Control_c, 3, 11, 112
6, 68731, Control_c, 3, 11, 111
6, 68736, Note_on_c, 3, 58, 0
6, 68736, Note_on_c, 3, 60, 112
6, 68743, Control_c, 3, 11, 110
6, 68754, Control_c, 3, 11, 109
6, 68766, Control_c, 3, 11, 108
6, 68778, Control_c, 3, 11, 107
6, 68789, Control_c, 3, 11, 106
6, 68801, Control_c, 3, 11, 105
6, 68813, Control_c, 3, 11, 104
6, 68824, Control_c, 3, 11, 103
6, 68836, Control_c, 3, 11, 102
6, 68848, Control_c, 3, 11, 101
6, 68860, Control_c, 3, 11, 100
6, 68871, Control_c, 3, 11, 99
6, 68883, Control_c, 3, 11, 98
6, 68895, Control_c, 3, 11, 97
6, 68906, Control_c, 3, 11, 96
6, 68918, Control_c, 3, 11, 95
6, 68930, Control_c, 3, 11, 94
6, 68942, Control_c, 3, 11, 93
6, 68953, Control_c, 3, 11, 92
6, 68965, Control_c, 3, 11, 91
6, 68977, Control_c, 3, 11, 90
6, 68988, Control_c, 3, 11, 89
6, 69000, Control_c, 3, 11, 88
6, 69012, Control_c, 3, 11, 87
6, 69024, Control_c, 3, 11, 86
6, 69035, Control_c, 3, 11, 85
6, 69047, Control_c, 3, 11, 84
6, 69059, Control_c, 3, 11, 83
6, 69070, Control_c, 3, 11, 82
6, 69082, Control_c, 3, 11, 81
6, 69094, Control_c, 3, 11, 80
6, 69105, Control_c, 3, 11, 79
6, 69117, Control_c, 3, 11, 78
6, 69129, Control_c, 3, 11, 77
6, 69141, Control_c, 3, 11, 76
6, 69152, Control_c, 3, 11, 75
6, 69164, Control_c, 3, 11, 74
6, 69176, Control_c, 3, 11, 73
6, 69187, Control_c, 3, 11, 72
6, 69199, Control_c, 3, 11, 71
6, 69211, Control_c, 3, 11, 70
6, 69223, Control_c, 3, 11, 69
6, 69234, Control_c, 3, 11, 68
6, 69246, Control_c, 3, 11, 67
6, 69258, Control_c, 3, 11, 66
6, 69269, Control_c, 3, 11, 65
6, 69281, Control_c, 3, 11, 64
6, 69293, Control_c, 3, 11, 63
6, 69304, Control_c, 3, 11, 62
6, 69316, Control_c, 3, 11, 61
6, 69328, Control_c, 3, 11, 60
6, 69340, Control_c, 3, 11, 59
6, 69351, Control_c, 3, 11, 58
6, 69363, Control_c, 3, 11, 57
6, 69375, Control_c, 3, 11, 56
6, 69386, Control_c, 3, 11, 55
6, 69398, Control_c, 3, 11, 54
6, 69410, Control_c, 3, 11, 53
6, 69422, Control_c, 3, 11, 52
6, 69433, Control_c, 3, 11, 51
6, 69445, Control_c, 3, 11, 50
6, 69457, Control_c, 3, 11, 49
6, 69468, Control_c, 3, 11, 48
6, 69480, Control_c, 3, 11, 47
6, 69492, Control_c, 3, 11, 46
6, 69504, Note_on_c, 3, 60, 0
6, 69504, Note_on_c, 3, 55, 112
6, 69504, Control_c, 3, 11, 45
6, 69840, Note_on_c, 3, 55, 0
6, 69888, Note_on_c, 3, 56, 50
6, 69888, Control_c, 3, 11, 92
6, 69909, Control_c, 3, 11, 93
6, 69931, Control_c, 3, 11, 94
6, 69953, Control_c, 3, 11, 95
6, 69975, Control_c, 3, 11, 96
6, 69997, Control_c, 3, 11, 97
6, 70019, Control_c, 3, 11, 98
6, 70041, Control_c, 3, 11, 99
6, 70063, Control_c, 3, 11, 100
6, 70085, Control_c, 3, 11, 101
6, 70107, Control_c, 3, 11, 102
6, 70129, Control_c, 3, 11, 103
6, 70151, Control_c, 3, 11, 104
6, 70173, Control_c, 3, 11, 105
6, 70195, Control_c, 3, 11, 106
6, 70217, Control_c, 3, 11, 107
6, 70239, Control_c, 3, 11, 108
6, 70261, Control_c, 3, 11, 109
6, 70282, Control_c, 3, 11, 110
6, 70304, Control_c, 3, 11, 111
6, 70326, Control_c, 3, 11, 112
6, 70348, Control_c, 3, 11, 113
6, 70370, Control_c, 3, 11, 114
6, 70392, Control_c, 3, 11, 115
6, 70414, Control_c, 3, 11, 116
6, 70436, Control_c, 3, 11, 117
6, 70458, Control_c, 3, 11, 118
6, 70480, Control_c, 3, 11, 119
6, 70502, Control_c, 3, 11, 120
6, 70524, Control_c, 3, 11, 121
6, 70546, Control_c, 3, 11, 122
6, 70568, Control_c, 3, 11, 123
6, 70590, Control_c, 3, 11, 124
6, 70612, Control_c, 3, 11, 125
6, 70634, Control_c, 3, 11, 126
6, 70656, Control_c, 3, 11, 127
6, 70677, Control_c, 3, 11, 126
6, 70699, Control_c, 3, 11, 125
6, 70721, Control_c, 3, 11, 124
6, 70743, Control_c, 3, 11, 123
6, 70765, Control_c, 3, 11, 122
6, 70787, Control_c, 3, 11, 121
6, 70809, Control_c, 3, 11, 120
6, 70831, Control_c, 3, 11, 119
6, 70853, Control_c, 3, 11, 118
6, 70875, Control_c, 3, 11, 117
6, 70897, Control_c, 3, 11, 116
6, 70919, Control_c, 3, 11, 115
6, 70941, Control_c, 3, 11, 114
6, 70963, Control_c, 3, 11, 113
6, 70985, Control_c, 3, 11, 112
6, 71007, Control_c, 3, 11, 111
6, 71029, Control_c, 3, 11, 110
6, 71050, Control_c, 3, 11, 109
6, 71072, Control_c, 3, 11, 108
6, 71094, Control_c, 3, 11, 107
6, 71116, Control_c, 3, 11, 106
6, 71138, Control_c, 3, 11, 105
6, 71160, Control_c, 3, 11, 104
6, 71182, Control_c, 3, 11, 103
6, 71204, Control_c, 3, 11, 102
6, 71226, Control_c, 3, 11, 101
6, 71248, Control_c, 3, 11, 100
6, 71270, Control_c, 3, 11, 99
6, 71292, Control_c, 3, 11, 98
6, 71314, Control_c, 3, 11, 97
6, 71336, Control_c, 3, 11, 96
6, 71358, Control_c, 3, 11, 95
6, 71376, Note_on_c, 3, 56, 0
6, 71380, Control_c, 3, 11, 94
6, 71402, Control_c, 3, 11, 93
6, 71424, Control_c, 3, 11, 64
6, 71424, Control_c, 3, 11, 92
6, 71424, Note_on_c, 3, 52, 87
6, 71430, Control_c, 3, 11, 65
6, 71436, Control_c, 3, 11, 66
6, 71442, Control_c, 3, 11, 67
6, 71448, Control_c, 3, 11, 68
6, 71454, Control_c, 3, 11, 69
6, 71460, Control_c, 3, 11, 70
6, 71466, Control_c, 3, 11, 71
6, 71472, Control_c, 3, 11, 72
6, 71478, Control_c, 3, 11, 73
6, 71484, Control_c, 3, 11, 74
6, 71491, Control_c, 3, 11, 75
6, 71497, Control_c, 3, 11, 76
6, 71503, Control_c, 3, 11, 77
6, 71509, Control_c, 3, 11, 78
6, 71515, Control_c, 3, 11, 79
6, 71521, Control_c, 3, 11, 80
6, 71527, Control_c, 3, 11, 81
6, 71533, Control_c, 3, 11, 82
6, 71539, Control_c, 3, 11, 83
6, 71545, Control_c, 3, 11, 84
6, 71552, Control_c, 3, 11, 85
6, 71558, Control_c, 3, 11, 86
6, 71564, Control_c, 3, 11, 87
6, 71570, Control_c, 3, 11, 88
6, 71576, Control_c, 3, 11, 89
6, 71582, Control_c, 3, 11, 90
6, 71588, Control_c, 3, 11, 91
6, 71594, Control_c, 3, 11, 92
6, 71600, Control_c, 3, 11, 93
6, 71606, Control_c, 3, 11, 94
6, 71612, Control_c, 3, 11, 95
6, 71619, Control_c, 3, 11, 96
6, 71625, Control_c, 3, 11, 97
6, 71631, Control_c, 3, 11, 98
6, 71637, Control_c, 3, 11, 99
6, 71643, Control_c, 3, 11, 100
6, 71649, Control_c, 3, 11, 101
6, 71655, Control_c, 3, 11, 102
6, 71661, Control_c, 3, 11, 103
6, 71667, Control_c, 3, 11, 104
6, 71673, Control_c, 3, 11, 105
6, 71680, Control_c, 3, 11, 106
6, 71686, Control_c, 3, 11, 107
6, 71692, Control_c, 3, 11, 108
6, 71698, Control_c, 3, 11, 109
6, 71704, Control_c, 3, 11, 110
6, 71710, Control_c, 3, 11, 111
6, 71712, Note_on_c, 3, 52, 0
6, 71712, Note_on_c, 3, 53, 89
6, 71716, Control_c, 3, 11, 112
6, 71722, Control_c, 3, 11, 113
6, 71728, Control_c, 3, 11, 114
6, 71734, Control_c, 3, 11, 115
6, 71740, Control_c, 3, 11, 116
6, 71747, Control_c, 3, 11, 117
6, 71753, Control_c, 3, 11, 118
6, 71759, Control_c, 3, 11, 119
6, 71765, Control_c, 3, 11, 120
6, 71771, Control_c, 3, 11, 121
6, 71777, Control_c, 3, 11, 122
6, 71783, Control_c, 3, 11, 123
6, 71789, Control_c, 3, 11, 124
6, 71795, Control_c, 3, 11, 125
6, 71801, Control_c, 3, 11, 126
6, 71808, Note_on_c, 3, 53, 0
6, 71808, Control_c, 3, 11, 127
6, 71808, Note_on_c, 3, 57, 92
6, 71928, Note_on_c, 3, 57, 0
6, 72000, Note_on_c, 3, 60, 89
6, 72120, Note_on_c, 3, 60, 0
6, 72192, Note_on_c, 3, 52, 97
6, 72192, Control_c, 3, 11, 64
6, 72198, Control_c, 3, 11, 65
6, 72204, Control_c, 3, 11, 66
6, 72210, Control_c, 3, 11, 67
6, 72216, Control_c, 3, 11, 68
6, 72222, Control_c, 3, 11, 69
6, 72228, Control_c, 3, 11, 70
6, 72234, Control_c, 3, 11, 71
6, 72240, Control_c, 3, 11, 72
6, 72246, Control_c, 3, 11, 73
6, 72252, Control_c, 3, 11, 74
6, 72259, Control_c, 3, 11, 75
6, 72265, Control_c, 3, 11, 76
6, 72271, Control_c, 3, 11, 77
6, 72277, Control_c, 3, 11, 78
6, 72283, Control_c, 3, 11, 79
6, 72289, Control_c, 3, 11, 80
6, 72295, Control_c, 3, 11, 81
6, 72301, Control_c, 3, 11, 82
6, 72307, Control_c, 3, 11, 83
6, 72313, Control_c, 3, 11, 84
6, 72320, Control_c, 3, 11, 85
6, 72326, Control_c, 3, 11, 86
6, 72332, Control_c, 3, 11, 87
6, 72338, Control_c, 3, 11, 88
6, 72344, Control_c, 3, 11, 89
6, 72350, Control_c, 3, 11, 90
6, 72356, Control_c, 3, 11, 91
6, 72362, Control_c, 3, 11, 92
6, 72368, Control_c, 3, 11, 93
6, 72374, Control_c, 3, 11, 94
6, 72380, Control_c, 3, 11, 95
6, 72387, Control_c, 3, 11, 96
6, 72393, Control_c, 3, 11, 97
6, 72399, Control_c, 3, 11, 98
6, 72405, Control_c, 3, 11, 99
6, 72411, Control_c, 3, 11, 100
6, 72417, Control_c, 3, 11, 101
6, 72423, Control_c, 3, 11, 102
6, 72429, Control_c, 3, 11, 103
6, 72435, Control_c, 3, 11, 104
6, 72441, Control_c, 3, 11, 105
6, 72448, Control_c, 3, 11, 106
6, 72454, Control_c, 3, 11, 107
6, 72460, Control_c, 3, 11, 108
6, 72466, Control_c, 3, 11, 109
6, 72472, Control_c, 3, 11, 110
6, 72478, Control_c, 3, 11, 111
6, 72480, Note_on_c, 3, 52, 0
6, 72480, Note_on_c, 3, 53, 92
6, 72484, Control_c, 3, 11, 112
6, 72490, Control_c, 3, 11, 113
6, 72496, Control_c, 3, 11, 114
6, 72502, Control_c, 3, 11, 115
6, 72508, Control_c, 3, 11, 116
6, 72515, Control_c, 3, 11, 117
6, 72521, Control_c, 3, 11, 118
6, 72527, Control_c, 3, 11, 119
6, 72533, Control_c, 3, 11, 120
6, 72539, Control_c, 3, 11, 121
6, 72545, Control_c, 3, 11, 122
6, 72551, Control_c, 3, 11, 123
6, 72557, Control_c, 3, 11, 124
6, 72563, Control_c, 3, 11, 125
6, 72569, Control_c, 3, 11, 126
6, 72576, Note_on_c, 3, 53, 0
6, 72576, Note_on_c, 3, 57, 92
6, 72576, Control_c, 3, 11, 127
6, 72696, Note_on_c, 3, 57, 0
6, 72768, Note_on_c, 3, 60, 91
6, 72888, Note_on_c, 3, 60, 0
6, 72960, Note_on_c, 3, 69, 92
6, 72960, Note_on_c, 3, 71, 92
6, 73888, Note_on_c, 3, 69, 0
6, 73888, Note_on_c, 3, 71, 0
6, 74880, Note_on_c, 3, 73, 111
6, 74880, Control_c, 3, 11, 92
6, 74880, Note_on_c, 3, 67, 103
6, 74890, Control_c, 3, 11, 93
6, 74901, Control_c, 3, 11, 94
6, 74912, Control_c, 3, 11, 95
6, 74923, Control_c, 3, 11, 96
6, 74926, Note_on_c, 3, 73, 0
6, 74926, Note_on_c, 3, 67, 0
6, 74928, Note_on_c, 3, 71, 111
6, 74928, Note_on_c, 3, 69, 104
6, 74934, Control_c, 3, 11, 97
6, 74945, Control_c, 3, 11, 98
6, 74956, Control_c, 3, 11, 99
6, 74967, Control_c, 3, 11, 100
6, 74978, Control_c, 3, 11, 101
6, 74989, Control_c, 3, 11, 102
6, 75000, Control_c, 3, 11, 103
6, 75011, Control_c, 3, 11, 104
6, 75022, Control_c, 3, 11, 105
6, 75033, Control_c, 3, 11, 106
6, 75044, Control_c, 3, 11, 107
6, 75055, Control_c, 3, 11, 108
6, 75066, Control_c, 3, 11, 109
6, 75077, Control_c, 3, 11, 110
6, 75088, Control_c, 3, 11, 111
6, 75099, Control_c, 3, 11, 112
6, 75110, Control_c, 3, 11, 113
6, 75121, Control_c, 3, 11, 114
6, 75132, Control_c, 3, 11, 115
6, 75143, Control_c, 3, 11, 116
6, 75154, Control_c, 3, 11, 117
6, 75165, Control_c, 3, 11, 118
6, 75176, Control_c, 3, 11, 119
6, 75187, Control_c, 3, 11, 120
6, 75198, Control_c, 3, 11, 121
6, 75209, Control_c, 3, 11, 122
6, 75220, Control_c, 3, 11, 123
6, 75231, Control_c, 3, 11, 124
6, 75242, Control_c, 3, 11, 125
6, 75253, Control_c, 3, 11, 126
6, 75264, Control_c, 3, 11, 127
6, 75276, Control_c, 3, 11, 126
6, 75288, Control_c, 3, 11, 125
6, 75300, Control_c, 3, 11, 124
6, 75312, Control_c, 3, 11, 123
6, 75324, Control_c, 3, 11, 122
6, 75337, Control_c, 3, 11, 121
6, 75349, Control_c, 3, 11, 120
6, 75361, Control_c, 3, 11, 119
6, 75373, Control_c, 3, 11, 118
6, 75385, Control_c, 3, 11, 117
6, 75398, Control_c, 3, 11, 116
6, 75410, Control_c, 3, 11, 115
6, 75422, Control_c, 3, 11, 114
6, 75434, Control_c, 3, 11, 113
6, 75446, Control_c, 3, 11, 112
6, 75459, Control_c, 3, 11, 111
6, 75471, Control_c, 3, 11, 110
6, 75483, Control_c, 3, 11, 109
6, 75495, Control_c, 3, 11, 108
6, 75507, Control_c, 3, 11, 107
6, 75520, Control_c, 3, 11, 106
6, 75532, Control_c, 3, 11, 105
6, 75544, Control_c, 3, 11, 104
6, 75556, Control_c, 3, 11, 103
6, 75568, Control_c, 3, 11, 102
6, 75580, Control_c, 3, 11, 101
6, 75593, Control_c, 3, 11, 100
6, 75605, Control_c, 3, 11, 99
6, 75617, Control_c, 3, 11, 98
6, 75629, Control_c, 3, 11, 97
6, 75641, Control_c, 3, 11, 96
6, 75654, Control_c, 3, 11, 95
6, 75666, Control_c, 3, 11, 94
6, 75678, Control_c, 3, 11, 93
6, 75690, Control_c, 3, 11, 92
6, 75702, Control_c, 3, 11, 91
6, 75715, Control_c, 3, 11, 90
6, 75727, Control_c, 3, 11, 89
6, 75739, Control_c, 3, 11, 88
6, 75751, Control_c, 3, 11, 87
6, 75763, Control_c, 3, 11, 86
6, 75776, Control_c, 3, 11, 85
6, 75788, Control_c, 3, 11, 84
6, 75800, Control_c, 3, 11, 83
6, 75812, Control_c, 3, 11, 82
6, 75824, Control_c, 3, 11, 81
6, 75836, Control_c, 3, 11, 80
6, 75849, Control_c, 3, 11, 79
6, 75861, Control_c, 3, 11, 78
6, 75873, Control_c, 3, 11, 77
6, 75885, Control_c, 3, 11, 76
6, 75897, Control_c, 3, 11, 75
6, 75910, Control_c, 3, 11, 74
6, 75922, Control_c, 3, 11, 73
6, 75934, Control_c, 3, 11, 72
6, 75946, Control_c, 3, 11, 71
6, 75958, Control_c, 3, 11, 70
6, 75971, Control_c, 3, 11, 69
6, 75983, Control_c, 3, 11, 68
6, 75984, Note_on_c, 3, 71, 0
6, 75984, Note_on_c, 3, 69, 0
6, 75995, Control_c, 3, 11, 67
6, 76007, Control_c, 3, 11, 66
6, 76019, Control_c, 3, 11, 65
6, 76032, Note_on_c, 3, 57, 46
6, 76032, Control_c, 3, 11, 127
6, 76032, Control_c, 3, 11, 64
6, 76032, Note_on_c, 3, 59, 45
6, 77520, Note_on_c, 3, 57, 0
6, 77520, Note_on_c, 3, 59, 0
6, 77568, Note_on_c, 3, 57, 47
6, 77568, Note_on_c, 3, 59, 44
6, 79056, Note_on_c, 3, 57, 0
6, 79056, Note_on_c, 3, 59, 0
6, 79488, Control_c, 3, 11, 92
6, 79488, Note_on_c, 3, 67, 106
6, 79488, Note_on_c, 3, 73, 104
6, 79498, Control_c, 3, 11, 93
6, 79509, Control_c, 3, 11, 94
6, 79520, Control_c, 3, 11, 95
6, 79531, Control_c, 3, 11, 96
6, 79534, Note_on_c, 3, 67, 0
6, 79534, Note_on_c, 3, 73, 0
6, 79536, Note_on_c, 3, 69, 106
6, 79536, Note_on_c, 3, 71, 109
6, 79542, Control_c, 3, 11, 97
6, 79553, Control_c, 3, 11, 98
6, 79564, Control_c, 3, 11, 99
6, 79575, Control_c, 3, 11, 100
6, 79586, Control_c, 3, 11, 101
6, 79597, Control_c, 3, 11, 102
6, 79608, Control_c, 3, 11, 103
6, 79619, Control_c, 3, 11, 104
6, 79630, Control_c, 3, 11, 105
6, 79641, Control_c, 3, 11, 106
6, 79652, Control_c, 3, 11, 107
6, 79663, Control_c, 3, 11, 108
6, 79674, Control_c, 3, 11, 109
6, 79685, Control_c, 3, 11, 110
6, 79696, Control_c, 3, 11, 111
6, 79707, Control_c, 3, 11, 112
6, 79718, Control_c, 3, 11, 113
6, 79729, Control_c, 3, 11, 114
6, 79740, Control_c, 3, 11, 115
6, 79751, Control_c, 3, 11, 116
6, 79762, Control_c, 3, 11, 117
6, 79773, Control_c, 3, 11, 118
6, 79784, Control_c, 3, 11, 119
6, 79795, Control_c, 3, 11, 120
6, 79806, Control_c, 3, 11, 121
6, 79817, Control_c, 3, 11, 122
6, 79828, Control_c, 3, 11, 123
6, 79839, Control_c, 3, 11, 124
6, 79850, Control_c, 3, 11, 125
6, 79861, Control_c, 3, 11, 126
6, 79872, Control_c, 3, 11, 127
6, 80064, Control_c, 3, 11, 127
6, 80073, Control_c, 3, 11, 126
6, 80082, Control_c, 3, 11, 125
6, 80091, Control_c, 3, 11, 124
6, 80100, Control_c, 3, 11, 123
6, 80109, Control_c, 3, 11, 122
6, 80118, Control_c, 3, 11, 121
6, 80128, Control_c, 3, 11, 120
6, 80137, Control_c, 3, 11, 119
6, 80146, Control_c, 3, 11, 118
6, 80155, Control_c, 3, 11, 117
6, 80164, Control_c, 3, 11, 116
6, 80173, Control_c, 3, 11, 115
6, 80182, Control_c, 3, 11, 114
6, 80192, Control_c, 3, 11, 113
6, 80201, Control_c, 3, 11, 112
6, 80210, Control_c, 3, 11, 111
6, 80219, Control_c, 3, 11, 110
6, 80228, Control_c, 3, 11, 109
6, 80237, Control_c, 3, 11, 108
6, 80246, Control_c, 3, 11, 107
6, 80256, Control_c, 3, 11, 106
6, 80265, Control_c, 3, 11, 105
6, 80274, Control_c, 3, 11, 104
6, 80283, Control_c, 3, 11, 103
6, 80292, Control_c, 3, 11, 102
6, 80301, Control_c, 3, 11, 101
6, 80310, Control_c, 3, 11, 100
6, 80320, Control_c, 3, 11, 99
6, 80329, Control_c, 3, 11, 98
6, 80338, Control_c, 3, 11, 97
6, 80347, Control_c, 3, 11, 96
6, 80356, Control_c, 3, 11, 95
6, 80365, Control_c, 3, 11, 94
6, 80374, Control_c, 3, 11, 93
6, 80384, Control_c, 3, 11, 92
6, 80393, Control_c, 3, 11, 91
6, 80402, Control_c, 3, 11, 90
6, 80411, Control_c, 3, 11, 89
6, 80420, Control_c, 3, 11, 88
6, 80429, Control_c, 3, 11, 87
6, 80438, Control_c, 3, 11, 86
6, 80448, Control_c, 3, 11, 85
6, 80457, Control_c, 3, 11, 84
6, 80466, Control_c, 3, 11, 83
6, 80475, Control_c, 3, 11, 82
6, 80484, Control_c, 3, 11, 81
6, 80493, Control_c, 3, 11, 80
6, 80502, Control_c, 3, 11, 79
6, 80512, Control_c, 3, 11, 78
6, 80521, Control_c, 3, 11, 77
6, 80530, Control_c, 3, 11, 76
6, 80539, Control_c, 3, 11, 75
6, 80548, Control_c, 3, 11, 74
6, 80557, Control_c, 3, 11, 73
6, 80566, Control_c, 3, 11, 72
6, 80576, Control_c, 3, 11, 71
6, 80585, Control_c, 3, 11, 70
6, 80592, Note_on_c, 3, 69, 0
6, 80592, Note_on_c, 3, 71, 0
6, 80594, Control_c, 3, 11, 69
6, 80603, Control_c, 3, 11, 68
6, 80612, Control_c, 3, 11, 67
6, 80621, Control_c, 3, 11, 66
6, 80630, Control_c, 3, 11, 65
6, 80640, Control_c, 3, 11, 64
6, 80640, Note_on_c, 3, 57, 44
6, 80640, Control_c, 3, 11, 127
6, 80640, Note_on_c, 3, 59, 44
6, 82128, Note_on_c, 3, 57, 0
6, 82128, Note_on_c, 3, 59, 0
6, 82176, Note_on_c, 3, 57, 40
6, 82176, Note_on_c, 3, 59, 47
6, 83664, Note_on_c, 3, 57, 0
6, 83664, Note_on_c, 3, 59, 0
6, 84096, Note_on_c, 3, 73, 106
6, 84096, Control_c, 3, 11, 92
6, 84096, Note_on_c, 3, 67, 110
6, 84106, Control_c, 3, 11, 93
6, 84117, Control_c, 3, 11, 94
6, 84128, Control_c, 3, 11, 95
6, 84139, Control_c, 3, 11, 96
6, 84142, Note_on_c, 3, 73, 0
6, 84142, Note_on_c, 3, 67, 0
6, 84144, Note_on_c, 3, 69, 112
6, 84144, Note_on_c, 3, 71, 107
6, 84150, Control_c, 3, 11, 97
6, 84161, Control_c, 3, 11, 98
6, 84172, Control_c, 3, 11, 99
6, 84183, Control_c, 3, 11, 100
6, 84194, Control_c, 3, 11, 101
6, 84205, Control_c, 3, 11, 102
6, 84216, Control_c, 3, 11, 103
6, 84227, Control_c, 3, 11, 104
6, 84238, Control_c, 3, 11, 105
6, 84249, Control_c, 3, 11, 106
6, 84260, Control_c, 3, 11, 107
6, 84271, Control_c, 3, 11, 108
6, 84282, Control_c, 3, 11, 109
6, 84293, Control_c, 3, 11, 110
6, 84304, Control_c, 3, 11, 111
6, 84315, Control_c, 3, 11, 112
6, 84326, Control_c, 3, 11, 113
6, 84337, Control_c, 3, 11, 114
6, 84348, Control_c, 3, 11, 115
6, 84359, Control_c, 3, 11, 116
6, 84370, Control_c, 3, 11, 117
6, 84381, Control_c, 3, 11, 118
6, 84392, Control_c, 3, 11, 119
6, 84403, Control_c, 3, 11, 120
6, 84414, Control_c, 3, 11, 121
6, 84425, Control_c, 3, 11, 122
6, 84436, Control_c, 3, 11, 123
6, 84447, Control_c, 3, 11, 124
6, 84458, Control_c, 3, 11, 125
6, 84469, Control_c, 3, 11, 126
6, 84480, Control_c, 3, 11, 127
6, 84864, Control_c, 3, 11, 127
6, 84870, Control_c, 3, 11, 126
6, 84876, Control_c, 3, 11, 125
6, 84882, Control_c, 3, 11, 124
6, 84888, Control_c, 3, 11, 123
6, 84894, Control_c, 3, 11, 122
6, 84900, Control_c, 3, 11, 121
6, 84906, Control_c, 3, 11, 120
6, 84912, Control_c, 3, 11, 119
6, 84918, Control_c, 3, 11, 118
6, 84924, Control_c, 3, 11, 117
6, 84931, Control_c, 3, 11, 116
6, 84937, Control_c, 3, 11, 115
6, 84943, Control_c, 3, 11, 114
6, 84949, Control_c, 3, 11, 113
6, 84955, Control_c, 3, 11, 112
6, 84961, Control_c, 3, 11, 111
6, 84967, Control_c, 3, 11, 110
6, 84973, Control_c, 3, 11, 109
6, 84979, Control_c, 3, 11, 108
6, 84985, Control_c, 3, 11, 107
6, 84992, Control_c, 3, 11, 106
6, 84998, Control_c, 3, 11, 105
6, 85004, Control_c, 3, 11, 104
6, 85010, Control_c, 3, 11, 103
6, 85016, Control_c, 3, 11, 102
6, 85022, Control_c, 3, 11, 101
6, 85028, Control_c, 3, 11, 100
6, 85034, Control_c, 3, 11, 99
6, 85040, Control_c, 3, 11, 98
6, 85046, Control_c, 3, 11, 97
6, 85052, Control_c, 3, 11, 96
6, 85059, Control_c, 3, 11, 95
6, 85065, Control_c, 3, 11, 94
6, 85071, Control_c, 3, 11, 93
6, 85077, Control_c, 3, 11, 92
6, 85083, Control_c, 3, 11, 91
6, 85089, Control_c, 3, 11, 90
6, 85095, Control_c, 3, 11, 89
6, 85101, Control_c, 3, 11, 88
6, 85107, Control_c, 3, 11, 87
6, 85113, Control_c, 3, 11, 86
6, 85120, Control_c, 3, 11, 85
6, 85126, Control_c, 3, 11, 84
6, 85132, Control_c, 3, 11, 83
6, 85138, Control_c, 3, 11, 82
6, 85144, Control_c, 3, 11, 81
6, 85150, Control_c, 3, 11, 80
6, 85156, Control_c, 3, 11, 79
6, 85162, Control_c, 3, 11, 78
6, 85168, Control_c, 3, 11, 77
6, 85174, Control_c, 3, 11, 76
6, 85180, Control_c, 3, 11, 75
6, 85187, Control_c, 3, 11, 74
6, 85193, Control_c, 3, 11, 73
6, 85199, Control_c, 3, 11, 72
6, 85200, Note_on_c, 3, 69, 0
6, 85200, Note_on_c, 3, 71, 0
6, 85205, Control_c, 3, 11, 71
6, 85211, Control_c, 3, 11, 70
6, 85217, Control_c, 3, 11, 69
6, 85223, Control_c, 3, 11, 68
6, 85229, Control_c, 3, 11, 67
6, 85235, Control_c, 3, 11, 66
6, 85241, Control_c, 3, 11, 65
6, 85248, Control_c, 3, 11, 64
6, 85248, Note_on_c, 3, 57, 74
6, 85248, Note_on_c, 3, 59, 71
6, 85296, Note_on_c, 3, 57, 0
6, 85296, Note_on_c, 3, 59, 0
6, 85392, Note_on_c, 3, 57, 78
6, 85392, Note_on_c, 3, 59, 71
6, 85438, Note_on_c, 3, 57, 0
6, 85438, Note_on_c, 3, 59, 0
6, 85440, Note_on_c, 3, 57, 73
6, 85440, Note_on_c, 3, 59, 72
6, 85488, Note_on_c, 3, 57, 0
6, 85488, Note_on_c, 3, 59, 0
6, 85584, Note_on_c, 3, 57, 74
6, 85584, Note_on_c, 3, 59, 79
6, 85630, Note_on_c, 3, 57, 0
6, 85630, Note_on_c, 3, 59, 0
6, 85632, Control_c, 3, 11, 127
6, 85632, Note_on_c, 3, 71, 73
6, 85632, Note_on_c, 3, 69, 74
6, 85792, Note_on_c, 3, 71, 0
6, 85792, Note_on_c, 3, 69, 0
6, 86784, Note_on_c, 3, 63, 78
6, 86784, Note_on_c, 3, 65, 78
6, 86832, Note_on_c, 3, 63, 0
6, 86832, Note_on_c, 3, 65, 0
6, 86928, Note_on_c, 3, 63, 74
6, 86928, Note_on_c, 3, 65, 75
6, 86974, Note_on_c, 3, 63, 0
6, 86974, Note_on_c, 3, 65, 0
6, 86976, Note_on_c, 3, 63, 78
6, 86976, Note_on_c, 3, 65, 80
6, 87024, Note_on_c, 3, 63, 0
6, 87024, Note_on_c, 3, 65, 0
6, 87120, Note_on_c, 3, 63, 71
6, 87120, Note_on_c, 3, 65, 78
6, 87504, Note_on_c, 3, 63, 0
6, 87504, Note_on_c, 3, 65, 0
6, 87552, Note_on_c, 3, 75, 79
6, 87552, Note_on_c, 3, 77, 72
6, 87600, Note_on_c, 3, 75, 0
6, 87600, Note_on_c, 3, 77, 0
6, 87696, Note_on_c, 3, 75, 73
6, 87696, Note_on_c, 3, 77, 80
6, 87742, Note_on_c, 3, 75, 0
6, 87742, Note_on_c, 3, 77, 0
6, 87744, Note_on_c, 3, 75, 74
6, 87744, Note_on_c, 3, 77, 77
6, 87792, Note_on_c, 3, 75, 0
6, 87792, Note_on_c, 3, 77, 0
6, 87888, Note_on_c, 3, 75, 72
6, 87888, Note_on_c, 3, 77, 76
6, 87934, Note_on_c, 3, 75, 0
6, 87934, Note_on_c, 3, 77, 0
6, 87936, Note_on_c, 3, 72, 111
6, 87936, Note_on_c, 3, 76, 109
6, 87936, Control_c, 3, 11, 75
6, 87958, Control_c, 3, 11, 76
6, 87980, Control_c, 3, 11, 77
6, 88002, Control_c, 3, 11, 78
6, 88024, Control_c, 3, 11, 79
6, 88046, Control_c, 3, 11, 80
6, 88068, Control_c, 3, 11, 81
6, 88091, Control_c, 3, 11, 82
6, 88113, Control_c, 3, 11, 83
6, 88135, Control_c, 3, 11, 84
6, 88157, Control_c, 3, 11, 85
6, 88179, Control_c, 3, 11, 86
6, 88201, Control_c, 3, 11, 87
6, 88224, Control_c, 3, 11, 88
6, 88246, Control_c, 3, 11, 89
6, 88268, Control_c, 3, 11, 90
6, 88290, Control_c, 3, 11, 91
6, 88312, Control_c, 3, 11, 92
6, 88334, Control_c, 3, 11, 93
6, 88356, Control_c, 3, 11, 94
6, 88379, Control_c, 3, 11, 95
6, 88401, Control_c, 3, 11, 96
6, 88423, Control_c, 3, 11, 97
6, 88445, Control_c, 3, 11, 98
6, 88467, Control_c, 3, 11, 99
6, 88489, Control_c, 3, 11, 100
6, 88512, Control_c, 3, 11, 101
6, 88534, Control_c, 3, 11, 102
6, 88556, Control_c, 3, 11, 103
6, 88578, Control_c, 3, 11, 104
6, 88600, Control_c, 3, 11, 105
6, 88622, Control_c, 3, 11, 106
6, 88644, Control_c, 3, 11, 107
6, 88667, Control_c, 3, 11, 108
6, 88689, Control_c, 3, 11, 109
6, 88704, Note_on_c, 3, 72, 0
6, 88704, Note_on_c, 3, 76, 0
6, 88704, Note_on_c, 3, 73, 112
6, 88711, Control_c, 3, 11, 110
6, 88733, Control_c, 3, 11, 111
6, 88755, Control_c, 3, 11, 112
6, 88777, Control_c, 3, 11, 113
6, 88800, Control_c, 3, 11, 114
6, 88822, Control_c, 3, 11, 115
6, 88844, Control_c, 3, 11, 116
6, 88866, Control_c, 3, 11, 117
6, 88888, Control_c, 3, 11, 118
6, 88910, Control_c, 3, 11, 119
6, 88932, Control_c, 3, 11, 120
6, 88955, Control_c, 3, 11, 121
6, 88977, Control_c, 3, 11, 122
6, 88999, Control_c, 3, 11, 123
6, 89021, Control_c, 3, 11, 124
6, 89040, Note_on_c, 3, 73, 0
6, 89043, Control_c, 3, 11, 125
6, 89065, Control_c, 3, 11, 126
6, 89088, Note_on_c, 3, 71, 50
6, 89088, Note_on_c, 3, 69, 43
6, 89088, Control_c, 3, 11, 127
6, 89136, Note_on_c, 3, 71, 0
6, 89136, Note_on_c, 3, 69, 0
6, 89232, Note_on_c, 3, 69, 48
6, 89232, Note_on_c, 3, 71, 45
6, 89264, Note_on_c, 3, 69, 0
6, 89264, Note_on_c, 3, 71, 0
6, 89280, Note_on_c, 3, 69, 44
6, 89280, Note_on_c, 3, 71, 45
6, 89328, Note_on_c, 3, 69, 0
6, 89328, Note_on_c, 3, 71, 0
6, 89424, Note_on_c, 3, 69, 52
6, 89424, Note_on_c, 3, 71, 52
6, 89456, Note_on_c, 3, 69, 0
6, 89456, Note_on_c, 3, 71, 0
6, 89472, Note_on_c, 3, 69, 54
6, 89472, Note_on_c, 3, 71, 55
6, 89520, Note_on_c, 3, 69, 0
6, 89520, Note_on_c, 3, 71, 0
6, 89616, Note_on_c, 3, 69, 50
6, 89616, Note_on_c, 3, 71, 52
6, 89648, Note_on_c, 3, 69, 0
6, 89648, Note_on_c, 3, 71, 0
6, 89664, Note_on_c, 3, 69, 52
6, 89664, Note_on_c, 3, 71, 57
6, 89712, Note_on_c, 3, 69, 0
6, 89712, Note_on_c, 3, 71, 0
6, 89808, Note_on_c, 3, 71, 62
6, 89808, Note_on_c, 3, 69, 57
6, 89840, Note_on_c, 3, 71, 0
6, 89840, Note_on_c, 3, 69, 0
6, 89856, Note_on_c, 3, 69, 56
6, 89856, Note_on_c, 3, 71, 59
6, 89904, Note_on_c, 3, 69, 0
6, 89904, Note_on_c, 3, 71, 0
6, 90000, Note_on_c, 3, 71, 65
6, 90000, Note_on_c, 3, 69, 66
6, 90032, Note_on_c, 3, 71, 0
6, 90032, Note_on_c, 3, 69, 0
6, 90048, Note_on_c, 3, 69, 59
6, 90048, Note_on_c, 3, 71, 59
6, 90096, Note_on_c, 3, 69, 0
6, 90096, Note_on_c, 3, 71, 0
6, 90192, Note_on_c, 3, 69, 60
6, 90192, Note_on_c, 3, 71, 62
6, 90224, Note_on_c, 3, 69, 0
6, 90224, Note_on_c, 3, 71, 0
6, 90240, Note_on_c, 3, 69, 67
6, 90240, Note_on_c, 3, 71, 64
6, 90288, Note_on_c, 3, 69, 0
6, 90288, Note_on_c, 3, 71, 0
6, 90384, Note_on_c, 3, 69, 67
6, 90384, Note_on_c, 3, 71, 74
6, 90416, Note_on_c, 3, 69, 0
6, 90416, Note_on_c, 3, 71, 0
6, 90432, Note_on_c, 3, 69, 65
6, 90432, Note_on_c, 3, 71, 66
6, 90480, Note_on_c, 3, 69, 0
6, 90480, Note_on_c, 3, 71, 0
6, 90576, Note_on_c, 3, 69, 76
6, 90576, Note_on_c, 3, 71, 71
6, 90608, Note_on_c, 3, 69, 0
6, 90608, Note_on_c, 3, 71, 0
6, 90624, Note_on_c, 3, 69, 70
6, 90624, Note_on_c, 3, 71, 76
6, 90672, Note_on_c, 3, 69, 0
6, 90672, Note_on_c, 3, 71, 0
6, 90768, Note_on_c, 3, 69, 76
6, 90768, Note_on_c, 3, 71, 81
6, 90800, Note_on_c, 3, 69, 0
6, 90800, Note_on_c, 3, 71, 0
6, 90816, Note_on_c, 3, 71, 81
6, 90816, Note_on_c, 3, 69, 83
6, 90864, Note_on_c, 3, 71, 0
6, 90864, Note_on_c, 3, 69, 0
6, 90960, Note_on_c, 3, 71, 85
6, 90960, Note_on_c, 3, 69, 80
6, 90992, Note_on_c, 3, 71, 0
6, 90992, Note_on_c, 3, 69, 0
6, 91008, Note_on_c, 3, 71, 81
6, 91008, Note_on_c, 3, 69, 85
6, 91056, Note_on_c, 3, 71, 0
6, 91056, Note_on_c, 3, 69, 0
6, 91152, Note_on_c, 3, 71, 87
6, 91152, Note_on_c, 3, 69, 90
6, 91184, Note_on_c, 3, 71, 0
6, 91184, Note_on_c, 3, 69, 0
6, 91200, Note_on_c, 3, 71, 87
6, 91200, Note_on_c, 3, 69, 86
6, 91248, Note_on_c, 3, 71, 0
6, 91248, Note_on_c, 3, 69, 0
6, 91344, Note_on_c, 3, 71, 90
6, 91344, Note_on_c, 3, 69, 94
6, 91376, Note_on_c, 3, 71, 0
6, 91376, Note_on_c, 3, 69, 0
6, 91392, Note_on_c, 3, 71, 92
6, 91392, Note_on_c, 3, 69, 94
6, 91440, Note_on_c, 3, 71, 0
6, 91440, Note_on_c, 3, 69, 0
6, 91536, Note_on_c, 3, 71, 89
6, 91536, Note_on_c, 3, 69, 91
6, 91568, Note_on_c, 3, 71, 0
6, 91568, Note_on_c, 3, 69, 0
6, 91584, Note_on_c, 3, 71, 100
6, 91584, Note_on_c, 3, 69, 100
6, 91632, Note_on_c, 3, 71, 0
6, 91632, Note_on_c, 3, 69, 0
6, 91728, Note_on_c, 3, 69, 106
6, 91728, Note_on_c, 3, 71, 108
6, 91760, Note_on_c, 3, 69, 0
6, 91760, Note_on_c, 3, 71, 0
6, 91776, Note_on_c, 3, 72, 110
6, 91776, Note_on_c, 3, 76, 103
6, 92448, Note_on_c, 3, 72, 0
6, 92448, Note_on_c, 3, 76, 0
6, 92448, Note_on_c, 3, 71, 109
6, 92448, Note_on_c, 3, 75, 105
6, 92544, Note_on_c, 3, 71, 0
6, 92544, Note_on_c, 3, 75, 0
6, 92544, Note_on_c, 3, 70, 109
6, 92544, Note_on_c, 3, 74, 106
6, 93216, Note_on_c, 3, 70, 0
6, 93216, Note_on_c, 3, 74, 0
6, 93216, Note_on_c, 3, 69, 112
6, 93216, Note_on_c, 3, 73, 113
6, 93312, Note_on_c, 3, 69, 0
6, 93312, Note_on_c, 3, 73, 0
6, 93312, Note_on_c, 3, 68, 108
6, 93312, Note_on_c, 3, 72, 110
6, 93600, Note_on_c, 3, 68, 0
6, 93600, Note_on_c, 3, 72, 0
6, 93600, Note_on_c, 3, 67, 104
6, 93600, Note_on_c, 3, 71, 104
6, 93696, Note_on_c, 3, 67, 0
6, 93696, Note_on_c, 3, 71, 0
6, 93696, Note_on_c, 3, 70, 108
6, 93696, Note_on_c, 3, 66, 106
6, 95184, Note_on_c, 3, 70, 0
6, 95184, Note_on_c, 3, 66, 0
6, 101376, Note_on_c, 3, 60, 46
6, 101422, Note_on_c, 3, 60, 0
6, 101424, Note_on_c, 3, 62, 43
6, 101470, Note_on_c, 3, 62, 0
6, 101472, Note_on_c, 3, 60, 45
6, 101518, Note_on_c, 3, 60, 0
6, 101520, Note_on_c, 3, 62, 54
6, 101566, Note_on_c, 3, 62, 0
6, 101568, Note_on_c, 3, 60, 47
6, 101614, Note_on_c, 3, 60, 0
6, 101616, Note_on_c, 3, 62, 48
6, 101662, Note_on_c, 3, 62, 0
6, 101664, Note_on_c, 3, 60, 53
6, 101710, Note_on_c, 3, 60, 0
6, 101712, Note_on_c, 3, 62, 54
6, 101758, Note_on_c, 3, 62, 0
6, 101760, Note_on_c, 3, 60, 58
6, 101806, Note_on_c, 3, 60, 0
6, 101808, Note_on_c, 3, 62, 60
6, 101854, Note_on_c, 3, 62, 0
6, 101856, Note_on_c, 3, 60, 52
6, 101902, Note_on_c, 3, 60, 0
6, 101904, Note_on_c, 3, 62, 50
6, 101950, Note_on_c, 3, 62, 0
6, 101952, Note_on_c, 3, 60, 45
6, 101998, Note_on_c, 3, 60, 0
6, 102000, Note_on_c, 3, 62, 45
6, 102046, Note_on_c, 3, 62, 0
6, 102048, Note_on_c, 3, 60, 44
6, 102094, Note_on_c, 3, 60, 0
6, 102096, Note_on_c, 3, 62, 38
6, 102142, Note_on_c, 3, 62, 0
6, 102144, Note_on_c, 3, 60, 31
6, 102190, Note_on_c, 3, 60, 0
6, 102192, Note_on_c, 3, 62, 28
6, 102238, Note_on_c, 3, 62, 0
6, 102240, Note_on_c, 3, 60, 27
6, 102286, Note_on_c, 3, 60, 0
6, 102288, Note_on_c, 3, 62, 33
6, 102334, Note_on_c, 3, 62, 0
6, 102336, Note_on_c, 3, 60, 29
6, 102382, Note_on_c, 3, 60, 0
6, 102384, Note_on_c, 3, 62, 31
6, 102430, Note_on_c, 3, 62, 0
6, 102432, Note_on_c, 3, 60, 29
6, 102478, Note_on_c, 3, 60, 0
6, 102480, Note_on_c, 3, 62, 20
6, 102526, Note_on_c, 3, 62, 0
6, 102528, Note_on_c, 3, 60, 24
6, 102574, Note_on_c, 3, 60, 0
6, 102576, Note_on_c, 3, 62, 17
6, 102622, Note_on_c, 3, 62, 0
6, 102624, Note_on_c, 3, 60, 23
6, 102670, Note_on_c, 3, 60, 0
6, 102672, Note_on_c, 3, 62, 20
6, 102718, Note_on_c, 3, 62, 0
6, 102720, Note_on_c, 3, 60, 21
6, 102766, Note_on_c, 3, 60, 0
6, 102768, Note_on_c, 3, 62, 18
6, 102814, Note_on_c, 3, 62, 0
6, 102816, Note_on_c, 3, 60, 12
6, 102862, Note_on_c, 3, 60, 0
6, 102864, Note_on_c, 3, 62, 17
6, 102910, Note_on_c, 3, 62, 0
6, 112128, Control_c, 3, 11, 64
6, 112128, Note_on_c, 3, 60, 80
6, 112137, Control_c, 3, 11, 65
6, 112146, Control_c, 3, 11, 66
6, 112155, Control_c, 3, 11, 67
6, 112164, Control_c, 3, 11, 68
6, 112173, Control_c, 3, 11, 69
6, 112182, Control_c, 3, 11, 70
6, 112192, Control_c, 3, 11, 71
6, 112201, Control_c, 3, 11, 72
6, 112210, Control_c, 3, 11, 73
6, 112219, Control_c, 3, 11, 74
6, 112228, Control_c, 3, 11, 75
6, 112237, Control_c, 3, 11, 76
6, 112246, Control_c, 3, 11, 77
6, 112256, Control_c, 3, 11, 78
6, 112265, Control_c, 3, 11, 79
6, 112274, Control_c, 3, 11, 80
6, 112283, Control_c, 3, 11, 81
6, 112292, Control_c, 3, 11, 82
6, 112301, Control_c, 3, 11, 83
6, 112310, Control_c, 3, 11, 84
6, 112320, Control_c, 3, 11, 85
6, 112329, Control_c, 3, 11, 86
6, 112338, Control_c, 3, 11, 87
6, 112347, Control_c, 3, 11, 88
6, 112356, Control_c, 3, 11, 89
6, 112365, Control_c, 3, 11, 90
6, 112374, Control_c, 3, 11, 91
6, 112384, Control_c, 3, 11, 92
6, 112393, Control_c, 3, 11, 93
6, 112402, Control_c, 3, 11, 94
6, 112411, Control_c, 3, 11, 95
6, 112420, Control_c, 3, 11, 96
6, 112429, Control_c, 3, 11, 97
6, 112438, Control_c, 3, 11, 98
6, 112448, Control_c, 3, 11, 99
6, 112457, Control_c, 3, 11, 100
6, 112466, Control_c, 3, 11, 101
6, 112475, Control_c, 3, 11, 102
6, 112484, Control_c, 3, 11, 103
6, 112493, Control_c, 3, 11, 104
6, 112502, Control_c, 3, 11, 105
6, 112512, Note_on_c, 3, 60, 0
6, 112512, Note_on_c, 3, 61, 78
6, 112512, Note_on_c, 3, 58, 79
6, 112512, Control_c, 3, 11, 106
6, 112521, Control_c, 3, 11, 107
6, 112530, Control_c, 3, 11, 108
6, 112539, Control_c, 3, 11, 109
6, 112548, Control_c, 3, 11, 110
6, 112557, Control_c, 3, 11, 111
6, 112566, Control_c, 3, 11, 112
6, 112576, Control_c, 3, 11, 113
6, 112585, Control_c, 3, 11, 114
6, 112594, Control_c, 3, 11, 115
6, 112603, Control_c, 3, 11, 116
6, 112612, Control_c, 3, 11, 117
6, 112621, Control_c, 3, 11, 118
6, 112630, Control_c, 3, 11, 119
6, 112640, Note_on_c, 3, 61, 0
6, 112640, Note_on_c, 3, 58, 0
6, 112640, Control_c, 3, 11, 120
6, 112640, Note_on_c, 3, 66, 77
6, 112640, Note_on_c, 3, 63, 75
6, 112649, Control_c, 3, 11, 121
6, 112658, Control_c, 3, 11, 122
6, 112667, Control_c, 3, 11, 123
6, 112676, Control_c, 3, 11, 124
6, 112685, Control_c, 3, 11, 125
6, 112694, Control_c, 3, 11, 126
6, 112704, Control_c, 3, 11, 127
6, 112710, Control_c, 3, 11, 126
6, 112716, Control_c, 3, 11, 125
6, 112722, Control_c, 3, 11, 124
6, 112728, Control_c, 3, 11, 123
6, 112734, Control_c, 3, 11, 122
6, 112740, Control_c, 3, 11, 121
6, 112746, Control_c, 3, 11, 120
6, 112752, Control_c, 3, 11, 119
6, 112758, Control_c, 3, 11, 118
6, 112764, Control_c, 3, 11, 117
6, 112768, Note_on_c, 3, 66, 0
6, 112768, Note_on_c, 3, 63, 0
6, 112768, Note_on_c, 3, 70, 77
6, 112768, Note_on_c, 3, 66, 76
6, 112771, Control_c, 3, 11, 116
6, 112777, Control_c, 3, 11, 115
6, 112783, Control_c, 3, 11, 114
6, 112789, Control_c, 3, 11, 113
6, 112795, Control_c, 3, 11, 112
6, 112801, Control_c, 3, 11, 111
6, 112807, Control_c, 3, 11, 110
6, 112813, Control_c, 3, 11, 109
6, 112819, Control_c, 3, 11, 108
6, 112825, Control_c, 3, 11, 107
6, 112832, Control_c, 3, 11, 106
6, 112838, Control_c, 3, 11, 105
6, 112844, Control_c, 3, 11, 104
6, 112850, Control_c, 3, 11, 103
6, 112856, Control_c, 3, 11, 102
6, 112862, Control_c, 3, 11, 101
6, 112868, Control_c, 3, 11, 100
6, 112874, Control_c, 3, 11, 99
6, 112880, Control_c, 3, 11, 98
6, 112886, Control_c, 3, 11, 97
6, 112892, Control_c, 3, 11, 96
6, 112899, Control_c, 3, 11, 95
6, 112905, Control_c, 3, 11, 94
6, 112911, Control_c, 3, 11, 93
6, 112917, Control_c, 3, 11, 92
6, 112923, Control_c, 3, 11, 91
6, 112929, Control_c, 3, 11, 90
6, 112935, Control_c, 3, 11, 89
6, 112941, Control_c, 3, 11, 88
6, 112947, Control_c, 3, 11, 87
6, 112953, Control_c, 3, 11, 86
6, 112960, Control_c, 3, 11, 85
6, 112966, Control_c, 3, 11, 84
6, 112972, Control_c, 3, 11, 83
6, 112978, Control_c, 3, 11, 82
6, 112984, Control_c, 3, 11, 81
6, 112990, Control_c, 3, 11, 80
6, 112996, Control_c, 3, 11, 79
6, 113002, Control_c, 3, 11, 78
6, 113008, Control_c, 3, 11, 77
6, 113014, Control_c, 3, 11, 76
6, 113020, Control_c, 3, 11, 75
6, 113027, Control_c, 3, 11, 74
6, 113033, Control_c, 3, 11, 73
6, 113039, Control_c, 3, 11, 72
6, 113045, Control_c, 3, 11, 71
6, 113051, Control_c, 3, 11, 70
6, 113056, Note_on_c, 3, 70, 0
6, 113056, Note_on_c, 3, 66, 0
6, 113057, Control_c, 3, 11, 69
6, 113063, Control_c, 3, 11, 68
6, 113069, Control_c, 3, 11, 67
6, 113075, Control_c, 3, 11, 66
6, 113081, Control_c, 3, 11, 65
6, 113088, Control_c, 3, 11, 64
6, 113280, Control_c, 3, 11, 127
6, 113664, Note_on_c, 3, 70, 73
6, 113664, Note_on_c, 3, 58, 71
6, 113824, Note_on_c, 3, 70, 0
6, 113824, Note_on_c, 3, 58, 0
6, 113856, Note_on_c, 3, 68, 76
6, 113856, Note_on_c, 3, 56, 75
6, 114016, Note_on_c, 3, 68, 0
6, 114016, Note_on_c, 3, 56, 0
6, 114048, Note_on_c, 3, 66, 74
6, 114048, Note_on_c, 3, 54, 78
6, 114174, Note_on_c, 3, 66, 0
6, 114174, Note_on_c, 3, 54, 0
6, 114176, Note_on_c, 3, 63, 78
6, 114176, Note_on_c, 3, 51, 80
6, 114302, Note_on_c, 3, 63, 0
6, 114302, Note_on_c, 3, 51, 0
6, 114304, Note_on_c, 3, 66, 76
6, 114304, Note_on_c, 3, 54, 80
6, 114430, Note_on_c, 3, 66, 0
6, 114430, Note_on_c, 3, 54, 0
6, 126144, Note_on_c, 3, 59, 31
6, 126264, Note_on_c, 3, 59, 0
6, 126528, Note_on_c, 3, 60, 37
6, 126648, Note_on_c, 3, 60, 0
6, 126912, Note_on_c, 3, 61, 56
6, 127032, Note_on_c, 3, 61, 0
6, 127296, Note_on_c, 3, 62, 76
6, 127416, Note_on_c, 3, 62, 0
6, 127680, Control_c, 3, 11, 92
6, 127680, Note_on_c, 3, 63, 78
6, 127682, Control_c, 3, 11, 93
6, 127685, Control_c, 3, 11, 94
6, 127688, Control_c, 3, 11, 95
6, 127690, Control_c, 3, 11, 96
6, 127693, Control_c, 3, 11, 97
6, 127696, Control_c, 3, 11, 98
6, 127699, Control_c, 3, 11, 99
6, 127701, Control_c, 3, 11, 100
6, 127704, Control_c, 3, 11, 101
6, 127707, Control_c, 3, 11, 102
6, 127710, Control_c, 3, 11, 103
6, 127712, Control_c, 3, 11, 104
6, 127715, Control_c, 3, 11, 105
6, 127718, Control_c, 3, 11, 106
6, 127721, Control_c, 3, 11, 107
6, 127723, Control_c, 3, 11, 108
6, 127726, Control_c, 3, 11, 109
6, 127729, Control_c, 3, 11, 110
6, 127732, Control_c, 3, 11, 111
6, 127734, Control_c, 3, 11, 112
6, 127737, Control_c, 3, 11, 113
6, 127740, Control_c, 3, 11, 114
6, 127743, Control_c, 3, 11, 115
6, 127745, Control_c, 3, 11, 116
6, 127748, Control_c, 3, 11, 117
6, 127751, Control_c, 3, 11, 118
6, 127754, Control_c, 3, 11, 119
6, 127756, Control_c, 3, 11, 120
6, 127759, Control_c, 3, 11, 121
6, 127762, Control_c, 3, 11, 122
6, 127765, Control_c, 3, 11, 123
6, 127767, Control_c, 3, 11, 124
6, 127770, Control_c, 3, 11, 125
6, 127773, Control_c, 3, 11, 126
6, 127776, Note_on_c, 3, 63, 0
6, 127776, Control_c, 3, 11, 127
6, 127776, Note_on_c, 3, 64, 72
6, 127872, Note_on_c, 3, 64, 0
6, 128064, Control_c, 3, 11, 92
6, 128064, Note_on_c, 3, 65, 70
6, 128066, Control_c, 3, 11, 93
6, 128069, Control_c, 3, 11, 94
6, 128072, Control_c, 3, 11, 95
6, 128074, Control_c, 3, 11, 96
6, 128077, Control_c, 3, 11, 97
6, 128080, Control_c, 3, 11, 98
6, 128083, Control_c, 3, 11, 99
6, 128085, Control_c, 3, 11, 100
6, 128088, Control_c, 3, 11, 101
6, 128091, Control_c, 3, 11, 102
6, 128094, Control_c, 3, 11, 103
6, 128096, Control_c, 3, 11, 104
6, 128099, Control_c, 3, 11, 105
6, 128102, Control_c, 3, 11, 106
6, 128105, Control_c, 3, 11, 107
6, 128107, Control_c, 3, 11, 108
6, 128110, Control_c, 3, 11, 109
6, 128113, Control_c, 3, 11, 110
6, 128116, Control_c, 3, 11, 111
6, 128118, Control_c, 3, 11, 112
6, 128121, Control_c, 3, 11, 113
6, 128124, Control_c, 3, 11, 114
6, 128127, Control_c, 3, 11, 115
6, 128129, Control_c, 3, 11, 116
6, 128132, Control_c, 3, 11, 117
6, 128135, Control_c, 3, 11, 118
6, 128138, Control_c, 3, 11, 119
6, 128140, Control_c, 3, 11, 120
6, 128143, Control_c, 3, 11, 121
6, 128146, Control_c, 3, 11, 122
6, 128149, Control_c, 3, 11, 123
6, 128151, Control_c, 3, 11, 124
6, 128154, Control_c, 3, 11, 125
6, 128157, Control_c, 3, 11, 126
6, 128160, Note_on_c, 3, 65, 0
6, 128160, Note_on_c, 3, 64, 76
6, 128160, Control_c, 3, 11, 127
6, 128256, Note_on_c, 3, 64, 0
6, 128448, Note_on_c, 3, 63, 78
6, 128448, Control_c, 3, 11, 92
6, 128450, Control_c, 3, 11, 93
6, 128453, Control_c, 3, 11, 94
6, 128456, Control_c, 3, 11, 95
6, 128458, Control_c, 3, 11, 96
6, 128461, Control_c, 3, 11, 97
6, 128464, Control_c, 3, 11, 98
6, 128467, Control_c, 3, 11, 99
6, 128469, Control_c, 3, 11, 100
6, 128472, Control_c, 3, 11, 101
6, 128475, Control_c, 3, 11, 102
6, 128478, Control_c, 3, 11, 103
6, 128480, Control_c, 3, 11, 104
6, 128483, Control_c, 3, 11, 105
6, 128486, Control_c, 3, 11, 106
6, 128489, Control_c, 3, 11, 107
6, 128491, Control_c, 3, 11, 108
6, 128494, Control_c, 3, 11, 109
6, 128497, Control_c, 3, 11, 110
6, 128500, Control_c, 3, 11, 111
6, 128502, Control_c, 3, 11, 112
6, 128505, Control_c, 3, 11, 113
6, 128508, Control_c, 3, 11, 114
6, 128511, Control_c, 3, 11, 115
6, 128513, Control_c, 3, 11, 116
6, 128516, Control_c, 3, 11, 117
6, 128519, Control_c, 3, 11, 118
6, 128522, Control_c, 3, 11, 119
6, 128524, Control_c, 3, 11, 120
6, 128527, Control_c, 3, 11, 121
6, 128530, Control_c, 3, 11, 122
6, 128533, Control_c, 3, 11, 123
6, 128535, Control_c, 3, 11, 124
6, 128538, Control_c, 3, 11, 125
6, 128541, Control_c, 3, 11, 126
6, 128544, Note_on_c, 3, 63, 0
6, 128544, Control_c, 3, 11, 127
6, 128544, Note_on_c, 3, 64, 70
6, 128640, Note_on_c, 3, 64, 0
6, 128832, Control_c, 3, 11, 92
6, 128832, Note_on_c, 3, 65, 77
6, 128834, Control_c, 3, 11, 93
6, 128837, Control_c, 3, 11, 94
6, 128840, Control_c, 3, 11, 95
6, 128842, Control_c, 3, 11, 96
6, 128845, Control_c, 3, 11, 97
6, 128848, Control_c, 3, 11, 98
6, 128851, Control_c, 3, 11, 99
6, 128853, Control_c, 3, 11, 100
6, 128856, Control_c, 3, 11, 101
6, 128859, Control_c, 3, 11, 102
6, 128862, Control_c, 3, 11, 103
6, 128864, Control_c, 3, 11, 104
6, 128867, Control_c, 3, 11, 105
6, 128870, Control_c, 3, 11, 106
6, 128873, Control_c, 3, 11, 107
6, 128875, Control_c, 3, 11, 108
6, 128878, Control_c, 3, 11, 109
6, 128881, Control_c, 3, 11, 110
6, 128884, Control_c, 3, 11, 111
6, 128886, Control_c, 3, 11, 112
6, 128889, Control_c, 3, 11, 113
6, 128892, Control_c, 3, 11, 114
6, 128895, Control_c, 3, 11, 115
6, 128897, Control_c, 3, 11, 116
6, 128900, Control_c, 3, 11, 117
6, 128903, Control_c, 3, 11, 118
6, 128906, Control_c, 3, 11, 119
6, 128908, Control_c, 3, 11, 120
6, 128911, Control_c, 3, 11, 121
6, 128914, Control_c, 3, 11, 122
6, 128917, Control_c, 3, 11, 123
6, 128919, Control_c, 3, 11, 124
6, 128922, Control_c, 3, 11, 125
6, 128925, Control_c, 3, 11, 126
6, 128928, Note_on_c, 3, 65, 0
6, 128928, Control_c, 3, 11, 127
6, 128928, Note_on_c, 3, 64, 76
6, 129022, Note_on_c, 3, 64, 0
6, 130560, Control_c, 3, 11, 127
6, 130560, Note_on_c, 3, 61, 26
6, 130584, Control_c, 3, 11, 126
6, 130608, Control_c, 3, 11, 125
6, 130633, Control_c, 3, 11, 124
6, 130657, Control_c, 3, 11, 123
6, 130681, Control_c, 3, 11, 122
6, 130706, Control_c, 3, 11, 121
6, 130730, Control_c, 3, 11, 120
6, 130755, Control_c, 3, 11, 119
6, 130779, Control_c, 3, 11, 118
6, 130803, Control_c, 3, 11, 117
6, 130828, Control_c, 3, 11, 116
6, 130852, Control_c, 3, 11, 115
6, 130876, Control_c, 3, 11, 114
6, 130901, Control_c, 3, 11, 113
6, 130925, Control_c, 3, 11, 112
6, 130944, Note_on_c, 3, 61, 0
6, 130944, Note_on_c, 3, 60, 25
6, 130950, Control_c, 3, 11, 111
6, 130974, Control_c, 3, 11, 110
6, 130998, Control_c, 3, 11, 109
6, 131023, Control_c, 3, 11, 108
6, 131047, Control_c, 3, 11, 107
6, 131072, Control_c, 3, 11, 106
6, 131096, Control_c, 3, 11, 105
6, 131120, Control_c, 3, 11, 104
6, 131145, Control_c, 3, 11, 103
6, 131169, Control_c, 3, 11, 102
6, 131193, Control_c, 3, 11, 101
6, 131218, Control_c, 3, 11, 100
6, 131242, Control_c, 3, 11, 99
6, 131267, Control_c, 3, 11, 98
6, 131291, Control_c, 3, 11, 97
6, 131315, Control_c, 3, 11, 96
6, 131328, Note_on_c, 3, 60, 0
6, 131328, Note_on_c, 3, 59, 25
6, 131340, Control_c, 3, 11, 95
6, 131364, Control_c, 3, 11, 94
6, 131388, Control_c, 3, 11, 93
6, 131413, Control_c, 3, 11, 92
6, 131437, Control_c, 3, 11, 91
6, 131462, Control_c, 3, 11, 90
6, 131486, Control_c, 3, 11, 89
6, 131510, Control_c, 3, 11, 88
6, 131535, Control_c, 3, 11, 87
6, 131559, Control_c, 3, 11, 86
6, 131584, Control_c, 3, 11, 85
6, 131608, Control_c, 3, 11, 84
6, 131632, Control_c, 3, 11, 83
6, 131657, Control_c, 3, 11, 82
6, 131681, Control_c, 3, 11, 81
6, 131705, Control_c, 3, 11, 80
6, 131712, Note_on_c, 3, 59, 0
6, 131712, Note_on_c, 3, 60, 34
6, 131730, Control_c, 3, 11, 79
6, 131754, Control_c, 3, 11, 78
6, 131779, Control_c, 3, 11, 77
6, 131803, Control_c, 3, 11, 76
6, 131827, Control_c, 3, 11, 75
6, 131852, Control_c, 3, 11, 74
6, 131876, Control_c, 3, 11, 73
6, 131900, Control_c, 3, 11, 72
6, 131925, Control_c, 3, 11, 71
6, 131949, Control_c, 3, 11, 70
6, 131974, Control_c, 3, 11, 69
6, 131998, Control_c, 3, 11, 68
6, 132022, Control_c, 3, 11, 67
6, 132047, Control_c, 3, 11, 66
6, 132048, Note_on_c, 3, 60, 0
6, 132071, Control_c, 3, 11, 65
6, 132096, Control_c, 3, 11, 64
6, 132864, Control_c, 3, 11, 127
6, 135168, Control_c, 3, 11, 92
6, 135168, Note_on_c, 3, 59, 44
6, 135168, Note_on_c, 3, 53, 45
6, 135211, Control_c, 3, 11, 93
6, 135255, Control_c, 3, 11, 94
6, 135299, Control_c, 3, 11, 95
6, 135343, Control_c, 3, 11, 96
6, 135387, Control_c, 3, 11, 97
6, 135431, Control_c, 3, 11, 98
6, 135475, Control_c, 3, 11, 99
6, 135519, Control_c, 3, 11, 100
6, 135552, Note_on_c, 3, 59, 0
6, 135552, Note_on_c, 3, 60, 43
6, 135562, Control_c, 3, 11, 101
6, 135606, Control_c, 3, 11, 102
6, 135650, Control_c, 3, 11, 103
6, 135694, Control_c, 3, 11, 104
6, 135738, Control_c, 3, 11, 105
6, 135782, Control_c, 3, 11, 106
6, 135826, Control_c, 3, 11, 107
6, 135870, Control_c, 3, 11, 108
6, 135888, Note_on_c, 3, 53, 0
6, 135914, Control_c, 3, 11, 109
6, 135936, Note_on_c, 3, 60, 0
6, 135936, Note_on_c, 3, 61, 46
6, 135957, Control_c, 3, 11, 110
6, 136001, Control_c, 3, 11, 111
6, 136045, Control_c, 3, 11, 112
6, 136089, Control_c, 3, 11, 113
6, 136133, Control_c, 3, 11, 114
6, 136177, Control_c, 3, 11, 115
6, 136221, Control_c, 3, 11, 116
6, 136265, Control_c, 3, 11, 117
6, 136309, Control_c, 3, 11, 118
6, 136320, Note_on_c, 3, 61, 0
6, 136320, Note_on_c, 3, 62, 47
6, 136352, Control_c, 3, 11, 119
6, 136396, Control_c, 3, 11, 120
6, 136440, Control_c, 3, 11, 121
6, 136484, Control_c, 3, 11, 122
6, 136528, Control_c, 3, 11, 123
6, 136572, Control_c, 3, 11, 124
6, 136616, Control_c, 3, 11, 125
6, 136656, Note_on_c, 3, 62, 0
6, 136660, Control_c, 3, 11, 126
6, 136704, Note_on_c, 3, 56, 72
6, 136704, Control_c, 3, 11, 127
6, 136704, Note_on_c, 3, 63, 75
6, 136704, Control_c, 3, 11, 92
6, 136747, Control_c, 3, 11, 93
6, 136791, Control_c, 3, 11, 94
6, 136835, Control_c, 3, 11, 95
6, 136879, Control_c, 3, 11, 96
6, 136923, Control_c, 3, 11, 97
6, 136967, Control_c, 3, 11, 98
6, 136992, Note_on_c, 3, 63, 0
6, 136992, Note_on_c, 3, 64, 77
6, 137011, Control_c, 3, 11, 99
6, 137055, Control_c, 3, 11, 100
6, 137086, Note_on_c, 3, 64, 0
6, 137088, Note_on_c, 3, 65, 80
6, 137098, Control_c, 3, 11, 101
6, 137142, Control_c, 3, 11, 102
6, 137186, Control_c, 3, 11, 103
6, 137230, Control_c, 3, 11, 104
6, 137274, Control_c, 3, 11, 105
6, 137318, Control_c, 3, 11, 106
6, 137362, Control_c, 3, 11, 107
6, 137376, Note_on_c, 3, 65, 0
6, 137376, Note_on_c, 3, 64, 76
6, 137406, Control_c, 3, 11, 108
6, 137450, Control_c, 3, 11, 109
6, 137470, Note_on_c, 3, 64, 0
6, 137472, Note_on_c, 3, 63, 80
6, 137493, Control_c, 3, 11, 110
6, 137537, Control_c, 3, 11, 111
6, 137581, Control_c, 3, 11, 112
6, 137625, Control_c, 3, 11, 113
6, 137669, Control_c, 3, 11, 114
6, 137713, Control_c, 3, 11, 115
6, 137757, Control_c, 3, 11, 116
6, 137760, Note_on_c, 3, 63, 0
6, 137760, Note_on_c, 3, 64, 70
6, 137801, Control_c, 3, 11, 117
6, 137808, Note_on_c, 3, 56, 0
6, 137845, Control_c, 3, 11, 118
6, 137856, Note_on_c, 3, 64, 0
6, 137856, Note_on_c, 3, 59, 74
6, 137856, Note_on_c, 3, 65, 75
6, 137888, Control_c, 3, 11, 119
6, 137932, Control_c, 3, 11, 120
6, 137952, Note_on_c, 3, 65, 0
6, 137952, Note_on_c, 3, 66, 71
6, 137976, Control_c, 3, 11, 121
6, 138020, Control_c, 3, 11, 122
6, 138048, Note_on_c, 3, 66, 0
6, 138048, Note_on_c, 3, 66, 76
6, 138064, Control_c, 3, 11, 123
6, 138108, Control_c, 3, 11, 124
6, 138144, Note_on_c, 3, 66, 0
6, 138144, Note_on_c, 3, 68, 76
6, 138152, Control_c, 3, 11, 125
6, 138192, Note_on_c, 3, 59, 0
6, 138196, Control_c, 3, 11, 126
6, 138240, Note_on_c, 3, 68, 0
6, 138240, Control_c, 3, 11, 127
6, 138240, Note_on_c, 3, 69, 45
6, 138240, Note_on_c, 3, 57, 41
6, 138400, Note_on_c, 3, 69, 0
6, 138400, Note_on_c, 3, 57, 0
6, 139008, Control_c, 3, 11, 127
6, 141312, Note_on_c, 3, 60, 26
6, 141312, Note_on_c, 3, 64, 27
6, 141696, Note_on_c, 3, 60, 0
6, 141696, Note_on_c, 3, 59, 27
6, 142032, Note_on_c, 3, 59, 0
6, 142080, Note_on_c, 3, 60, 28
6, 142464, Note_on_c, 3, 60, 0
6, 142464, Note_on_c, 3, 59, 26
6, 142800, Note_on_c, 3, 64, 0
6, 142800, Note_on_c, 3, 59, 0
6, 142848, Note_on_c, 3, 60, 32
6, 142848, Note_on_c, 3, 64, 30
6, 143232, Note_on_c, 3, 60, 0
6, 143232, Note_on_c, 3, 59, 28
6, 143568, Note_on_c, 3, 59, 0
6, 143616, Note_on_c, 3, 60, 27
6, 144000, Note_on_c, 3, 60, 0
6, 144000, Note_on_c, 3, 59, 34
6, 144336, Note_on_c, 3, 64, 0
6, 144336, Note_on_c, 3, 59, 0
6, 144384, Note_on_c, 3, 62, 48
6, 144384, Note_on_c, 3, 64, 50
6, 144452, Note_on_c, 3, 62, 0
6, 144480, Note_on_c, 3, 62, 45
6, 144548, Note_on_c, 3, 62, 0
6, 144576, Note_on_c, 3, 62, 49
6, 144644, Note_on_c, 3, 62, 0
6, 144672, Note_on_c, 3, 61, 45
6, 144740, Note_on_c, 3, 61, 0
6, 144768, Note_on_c, 3, 60, 43
6, 144836, Note_on_c, 3, 60, 0
6, 144864, Note_on_c, 3, 60, 44
6, 144932, Note_on_c, 3, 60, 0
6, 144960, Note_on_c, 3, 60, 41
6, 145028, Note_on_c, 3, 60, 0
6, 145056, Note_on_c, 3, 61, 41
6, 145124, Note_on_c, 3, 61, 0
6, 145152, Note_on_c, 3, 62, 40
6, 145220, Note_on_c, 3, 62, 0
6, 145248, Note_on_c, 3, 62, 47
6, 145316, Note_on_c, 3, 62, 0
6, 145344, Note_on_c, 3, 62, 41
6, 145412, Note_on_c, 3, 62, 0
6, 145440, Note_on_c, 3, 61, 49
6, 145508, Note_on_c, 3, 61, 0
6, 145536, Note_on_c, 3, 60, 48
6, 145604, Note_on_c, 3, 60, 0
6, 145632, Note_on_c, 3, 60, 41
6, 145700, Note_on_c, 3, 60, 0
6, 145728, Note_on_c, 3, 60, 42
6, 145796, Note_on_c, 3, 60, 0
6, 145824, Note_on_c, 3, 64, 40
6, 145856, Note_on_c, 3, 64, 0
6, 145872, Note_on_c, 3, 64, 0
6, 145920, Note_on_c, 3, 62, 41
6, 145920, Note_on_c, 3, 64, 49
6, 145988, Note_on_c, 3, 62, 0
6, 146016, Note_on_c, 3, 62, 44
6, 146084, Note_on_c, 3, 62, 0
6, 146112, Note_on_c, 3, 62, 45
6, 146180, Note_on_c, 3, 62, 0
6, 146208, Note_on_c, 3, 61, 41
6, 146276, Note_on_c, 3, 61, 0
6, 146304, Note_on_c, 3, 60, 43
6, 146372, Note_on_c, 3, 60, 0
6, 146400, Note_on_c, 3, 60, 49
6, 146468, Note_on_c, 3, 60, 0
6, 146496, Note_on_c, 3, 60, 46
6, 146564, Note_on_c, 3, 60, 0
6, 146592, Note_on_c, 3, 61, 49
6, 146660, Note_on_c, 3, 61, 0
6, 146688, Note_on_c, 3, 62, 54
6, 146756, Note_on_c, 3, 62, 0
6, 146784, Note_on_c, 3, 62, 50
6, 146852, Note_on_c, 3, 62, 0
6, 146880, Note_on_c, 3, 62, 51
6, 146948, Note_on_c, 3, 62, 0
6, 146976, Note_on_c, 3, 61, 52
6, 147044, Note_on_c, 3, 61, 0
6, 147072, Note_on_c, 3, 60, 59
6, 147140, Note_on_c, 3, 60, 0
6, 147168, Note_on_c, 3, 60, 60
6, 147236, Note_on_c, 3, 60, 0
6, 147264, Note_on_c, 3, 60, 61
6, 147332, Note_on_c, 3, 60, 0
6, 147360, Note_on_c, 3, 64, 57
6, 147392, Note_on_c, 3, 64, 0
6, 147408, Note_on_c, 3, 64, 0
6, 147456, Note_on_c, 3, 71, 61
6, 147456, Note_on_c, 3, 76, 54
6, 147524, Note_on_c, 3, 76, 0
6, 147552, Note_on_c, 3, 76, 63
6, 147620, Note_on_c, 3, 76, 0
6, 147648, Note_on_c, 3, 76, 63
6, 147716, Note_on_c, 3, 76, 0
6, 147744, Note_on_c, 3, 74, 56
6, 147792, Note_on_c, 3, 71, 0
6, 147812, Note_on_c, 3, 74, 0
6, 147840, Note_on_c, 3, 76, 57
6, 147840, Note_on_c, 3, 69, 57
6, 147908, Note_on_c, 3, 76, 0
6, 147936, Note_on_c, 3, 76, 63
6, 148004, Note_on_c, 3, 76, 0
6, 148032, Note_on_c, 3, 76, 68
6, 148100, Note_on_c, 3, 76, 0
6, 148128, Note_on_c, 3, 78, 66
6, 148176, Note_on_c, 3, 69, 0
6, 148196, Note_on_c, 3, 78, 0
6, 148224, Note_on_c, 3, 74, 65
6, 148224, Note_on_c, 3, 78, 68
6, 148292, Note_on_c, 3, 78, 0
6, 148320, Note_on_c, 3, 78, 67
6, 148388, Note_on_c, 3, 78, 0
6, 148416, Note_on_c, 3, 78, 73
6, 148484, Note_on_c, 3, 78, 0
6, 148512, Note_on_c, 3, 76, 68
6, 148560, Note_on_c, 3, 74, 0
6, 148580, Note_on_c, 3, 76, 0
6, 148608, Note_on_c, 3, 72, 75
6, 148608, Note_on_c, 3, 78, 74
6, 148676, Note_on_c, 3, 78, 0
6, 148704, Note_on_c, 3, 78, 71
6, 148772, Note_on_c, 3, 78, 0
6, 148800, Note_on_c, 3, 78, 70
6, 148868, Note_on_c, 3, 78, 0
6, 148896, Note_on_c, 3, 79, 76
6, 148928, Note_on_c, 3, 79, 0
6, 148944, Note_on_c, 3, 72, 0
6, 148992, Note_on_c, 3, 79, 71
6, 148992, Note_on_c, 3, 76, 79
6, 149060, Note_on_c, 3, 79, 0
6, 149060, Note_on_c, 3, 76, 0
6, 149088, Note_on_c, 3, 79, 72
6, 149088, Note_on_c, 3, 76, 79
6, 149156, Note_on_c, 3, 79, 0
6, 149156, Note_on_c, 3, 76, 0
6, 149184, Note_on_c, 3, 79, 73
6, 149184, Note_on_c, 3, 76, 73
6, 149252, Note_on_c, 3, 79, 0
6, 149252, Note_on_c, 3, 76, 0
6, 149280, Note_on_c, 3, 78, 73
6, 149280, Note_on_c, 3, 76, 77
6, 149348, Note_on_c, 3, 78, 0
6, 149348, Note_on_c, 3, 76, 0
6, 149376, Note_on_c, 3, 78, 77
6, 149376, Note_on_c, 3, 76, 77
6, 149444, Note_on_c, 3, 78, 0
6, 149444, Note_on_c, 3, 76, 0
6, 149472, Note_on_c, 3, 76, 83
6, 149472, Note_on_c, 3, 78, 75
6, 149540, Note_on_c, 3, 76, 0
6, 149540, Note_on_c, 3, 78, 0
6, 149568, Note_on_c, 3, 76, 75
6, 149568, Note_on_c, 3, 78, 81
6, 149636, Note_on_c, 3, 76, 0
6, 149636, Note_on_c, 3, 78, 0
6, 149664, Note_on_c, 3, 76, 85
6, 149664, Note_on_c, 3, 79, 80
6, 149732, Note_on_c, 3, 76, 0
6, 149732, Note_on_c, 3, 79, 0
6, 149760, Note_on_c, 3, 76, 83
6, 149760, Note_on_c, 3, 80, 85
6, 149828, Note_on_c, 3, 76, 0
6, 149828, Note_on_c, 3, 80, 0
6, 149856, Note_on_c, 3, 76, 78
6, 149856, Note_on_c, 3, 80, 85
6, 149924, Note_on_c, 3, 76, 0
6, 149924, Note_on_c, 3, 80, 0
6, 149952, Note_on_c, 3, 76, 83
6, 149952, Note_on_c, 3, 80, 82
6, 150020, Note_on_c, 3, 76, 0
6, 150020, Note_on_c, 3, 80, 0
6, 150048, Note_on_c, 3, 76, 88
6, 150048, Note_on_c, 3, 79, 90
6, 150116, Note_on_c, 3, 76, 0
6, 150116, Note_on_c, 3, 79, 0
6, 150144, Note_on_c, 3, 76, 86
6, 150144, Note_on_c, 3, 79, 86
6, 150212, Note_on_c, 3, 76, 0
6, 150212, Note_on_c, 3, 79, 0
6, 150240, Note_on_c, 3, 79, 84
6, 150240, Note_on_c, 3, 76, 88
6, 150308, Note_on_c, 3, 79, 0
6, 150308, Note_on_c, 3, 76, 0
6, 150336, Note_on_c, 3, 79, 92
6, 150336, Note_on_c, 3, 76, 87
6, 150404, Note_on_c, 3, 79, 0
6, 150404, Note_on_c, 3, 76, 0
6, 150432, Note_on_c, 3, 76, 86
6, 150432, Note_on_c, 3, 80, 94
6, 150464, Note_on_c, 3, 76, 0
6, 150464, Note_on_c, 3, 80, 0
6, 150528, Note_on_c, 3, 77, 87
6, 150574, Note_on_c, 3, 77, 0
6, 150576, Note_on_c, 3, 73, 93
6, 150622, Note_on_c, 3, 73, 0
6, 150624, Note_on_c, 3, 77, 82
6, 150670, Note_on_c, 3, 77, 0
6, 150672, Note_on_c, 3, 73, 82
6, 150718, Note_on_c, 3, 73, 0
6, 150720, Note_on_c, 3, 77, 77
6, 150766, Note_on_c, 3, 77, 0
6, 150768, Note_on_c, 3, 73, 70
6, 150814, Note_on_c, 3, 73, 0
6, 150816, Note_on_c, 3, 77, 62
6, 150862, Note_on_c, 3, 77, 0
6, 150864, Note_on_c, 3, 73, 60
6, 150910, Note_on_c, 3, 73, 0
6, 150912, Note_on_c, 3, 77, 93
6, 150958, Note_on_c, 3, 77, 0
6, 150960, Note_on_c, 3, 73, 88
6, 151006, Note_on_c, 3, 73, 0
6, 151008, Note_on_c, 3, 77, 92
6, 151054, Note_on_c, 3, 77, 0
6, 151056, Note_on_c, 3, 73, 82
6, 151102, Note_on_c, 3, 73, 0
6, 151104, Note_on_c, 3, 77, 79
6, 151150, Note_on_c, 3, 77, 0
6, 151152, Note_on_c, 3, 73, 68
6, 151198, Note_on_c, 3, 73, 0
6, 151200, Note_on_c, 3, 77, 62
6, 151246, Note_on_c, 3, 77, 0
6, 151248, Note_on_c, 3, 73, 64
6, 151294, Note_on_c, 3, 73, 0
6, 151296, Note_on_c, 3, 77, 91
6, 151342, Note_on_c, 3, 77, 0
6, 151344, Note_on_c, 3, 73, 90
6, 151390, Note_on_c, 3, 73, 0
6, 151392, Note_on_c, 3, 77, 87
6, 151438, Note_on_c, 3, 77, 0
6, 151440, Note_on_c, 3, 73, 80
6, 151486, Note_on_c, 3, 73, 0
6, 151488, Note_on_c, 3, 77, 76
6, 151534, Note_on_c, 3, 77, 0
6, 151536, Note_on_c, 3, 73, 76
6, 151582, Note_on_c, 3, 73, 0
6, 151584, Note_on_c, 3, 77, 70
6, 151630, Note_on_c, 3, 77, 0
6, 151632, Note_on_c, 3, 73, 59
6, 151678, Note_on_c, 3, 73, 0
6, 151680, Note_on_c, 3, 77, 95
6, 151726, Note_on_c, 3, 77, 0
6, 151728, Note_on_c, 3, 73, 91
6, 151774, Note_on_c, 3, 73, 0
6, 151776, Note_on_c, 3, 77, 85
6, 151822, Note_on_c, 3, 77, 0
6, 151824, Note_on_c, 3, 73, 80
6, 151870, Note_on_c, 3, 73, 0
6, 151872, Note_on_c, 3, 77, 82
6, 151918, Note_on_c, 3, 77, 0
6, 151920, Note_on_c, 3, 73, 71
6, 151966, Note_on_c, 3, 73, 0
6, 151968, Note_on_c, 3, 77, 62
6, 152014, Note_on_c, 3, 77, 0
6, 152016, Note_on_c, 3, 73, 65
6, 152062, Note_on_c, 3, 73, 0
6, 152064, Note_on_c, 3, 77, 91
6, 152110, Note_on_c, 3, 77, 0
6, 152112, Note_on_c, 3, 73, 93
6, 152158, Note_on_c, 3, 73, 0
6, 152160, Note_on_c, 3, 77, 83
6, 152206, Note_on_c, 3, 77, 0
6, 152208, Note_on_c, 3, 73, 79
6, 152254, Note_on_c, 3, 73, 0
6, 152256, Note_on_c, 3, 77, 78
6, 152302, Note_on_c, 3, 77, 0
6, 152304, Note_on_c, 3, 73, 74
6, 152350, Note_on_c, 3, 73, 0
6, 152352, Note_on_c, 3, 77, 71
6, 152398, Note_on_c, 3, 77, 0
6, 152400, Note_on_c, 3, 73, 56
6, 152446, Note_on_c, 3, 73, 0
6, 152448, Note_on_c, 3, 77, 91
6, 152494, Note_on_c, 3, 77, 0
6, 152496, Note_on_c, 3, 73, 94
6, 152542, Note_on_c, 3, 73, 0
6, 152544, Note_on_c, 3, 77, 89
6, 152590, Note_on_c, 3, 77, 0
6, 152592, Note_on_c, 3, 73, 78
6, 152638, Note_on_c, 3, 73, 0
6, 152640, Note_on_c, 3, 77, 77
6, 152686, Note_on_c, 3, 77, 0
6, 152688, Note_on_c, 3, 73, 74
6, 152734, Note_on_c, 3, 73, 0
6, 152736, Note_on_c, 3, 77, 61
6, 152782, Note_on_c, 3, 77, 0
6, 152784, Note_on_c, 3, 73, 56
6, 152830, Note_on_c, 3, 73, 0
6, 152832, Note_on_c, 3, 77, 97
6, 152878, Note_on_c, 3, 77, 0
6, 152880, Note_on_c, 3, 73, 95
6, 152926, Note_on_c, 3, 73, 0
6, 152928, Note_on_c, 3, 77, 89
6, 152974, Note_on_c, 3, 77, 0
6, 152976, Note_on_c, 3, 73, 83
6, 153022, Note_on_c, 3, 73, 0
6, 153024, Note_on_c, 3, 77, 80
6, 153070, Note_on_c, 3, 77, 0
6, 153072, Note_on_c, 3, 73, 73
6, 153118, Note_on_c, 3, 73, 0
6, 153120, Note_on_c, 3, 77, 64
6, 153166, Note_on_c, 3, 77, 0
6, 153168, Note_on_c, 3, 73, 58
6, 153214, Note_on_c, 3, 73, 0
6, 153216, Note_on_c, 3, 77, 95
6, 153262, Note_on_c, 3, 77, 0
6, 153264, Note_on_c, 3, 73, 97
6, 153310, Note_on_c, 3, 73, 0
6, 153312, Note_on_c, 3, 77, 87
6, 153358, Note_on_c, 3, 77, 0
6, 153360, Note_on_c, 3, 73, 80
6, 153406, Note_on_c, 3, 73, 0
6, 153408, Note_on_c, 3, 77, 82
6, 153454, Note_on_c, 3, 77, 0
6, 153456, Note_on_c, 3, 73, 76
6, 153502, Note_on_c, 3, 73, 0
6, 153504, Note_on_c, 3, 77, 67
6, 153550, Note_on_c, 3, 77, 0
6, 153552, Note_on_c, 3, 73, 62
6, 153598, Note_on_c, 3, 73, 0
6, 153792, Note_on_c, 3, 68, 96
6, 153792, Note_on_c, 3, 65, 91
6, 153834, Note_on_c, 3, 68, 0
6, 153834, Note_on_c, 3, 65, 0
6, 153856, Note_on_c, 3, 68, 91
6, 153856, Note_on_c, 3, 65, 91
6, 153898, Note_on_c, 3, 68, 0
6, 153898, Note_on_c, 3, 65, 0
6, 153920, Note_on_c, 3, 68, 88
6, 153920, Note_on_c, 3, 65, 87
6, 153962, Note_on_c, 3, 68, 0
6, 153962, Note_on_c, 3, 65, 0
6, 154176, Note_on_c, 3, 69, 89
6, 154176, Note_on_c, 3, 66, 91
6, 154218, Note_on_c, 3, 69, 0
6, 154218, Note_on_c, 3, 66, 0
6, 154240, Note_on_c, 3, 69, 97
6, 154240, Note_on_c, 3, 66, 90
6, 154282, Note_on_c, 3, 69, 0
6, 154282, Note_on_c, 3, 66, 0
6, 154304, Note_on_c, 3, 69, 96
6, 154304, Note_on_c, 3, 66, 91
6, 154346, Note_on_c, 3, 69, 0
6, 154346, Note_on_c, 3, 66, 0
6, 154560, Note_on_c, 3, 70, 97
6, 154560, Note_on_c, 3, 67, 93
6, 154602, Note_on_c, 3, 70, 0
6, 154602, Note_on_c, 3, 67, 0
6, 154624, Note_on_c, 3, 70, 99
6, 154624, Note_on_c, 3, 67, 92
6, 154666, Note_on_c, 3, 70, 0
6, 154666, Note_on_c, 3, 67, 0
6, 154688, Note_on_c, 3, 70, 96
6, 154688, Note_on_c, 3, 67, 89
6, 154730, Note_on_c, 3, 70, 0
6, 154730, Note_on_c, 3, 67, 0
6, 154944, Note_on_c, 3, 71, 95
6, 154944, Note_on_c, 3, 68, 97
6, 154986, Note_on_c, 3, 71, 0
6, 154986, Note_on_c, 3, 68, 0
6, 155008, Note_on_c, 3, 68, 98
6, 155008, Note_on_c, 3, 71, 98
6, 155050, Note_on_c, 3, 68, 0
6, 155050, Note_on_c, 3, 71, 0
6, 155072, Note_on_c, 3, 68, 100
6, 155072, Note_on_c, 3, 71, 96
6, 155114, Note_on_c, 3, 68, 0
6, 155114, Note_on_c, 3, 71, 0
6, 155328, Note_on_c, 3, 69, 98
6, 155328, Note_on_c, 3, 72, 93
6, 155370, Note_on_c, 3, 69, 0
6, 155370, Note_on_c, 3, 72, 0
6, 155392, Note_on_c, 3, 69, 93
6, 155392, Note_on_c, 3, 72, 94
6, 155434, Note_on_c, 3, 69, 0
6, 155434, Note_on_c, 3, 72, 0
6, 155456, Note_on_c, 3, 69, 94
6, 155456, Note_on_c, 3, 72, 101
6, 155498, Note_on_c, 3, 69, 0
6, 155498, Note_on_c, 3, 72, 0
6, 155712, Note_on_c, 3, 70, 96
6, 155712, Note_on_c, 3, 73, 100
6, 155754, Note_on_c, 3, 70, 0
6, 155754, Note_on_c, 3, 73, 0
6, 155776, Note_on_c, 3, 70, 93
6, 155776, Note_on_c, 3, 73, 101
6, 155818, Note_on_c, 3, 70, 0
6, 155818, Note_on_c, 3, 73, 0
6, 155840, Note_on_c, 3, 70, 93
6, 155840, Note_on_c, 3, 73, 95
6, 155882, Note_on_c, 3, 70, 0
6, 155882, Note_on_c, 3, 73, 0
6, 156096, Note_on_c, 3, 71, 98
6, 156096, Note_on_c, 3, 74, 100
6, 156138, Note_on_c, 3, 71, 0
6, 156138, Note_on_c, 3, 74, 0
6, 156160, Note_on_c, 3, 74, 97
6, 156160, Note_on_c, 3, 71, 102
6, 156202, Note_on_c, 3, 74, 0
6, 156202, Note_on_c, 3, 71, 0
6, 156224, Note_on_c, 3, 74, 105
6, 156224, Note_on_c, 3, 71, 103
6, 156266, Note_on_c, 3, 74, 0
6, 156266, Note_on_c, 3, 71, 0
6, 156480, Note_on_c, 3, 75, 111
6, 156480, Note_on_c, 3, 72, 101
6, 156522, Note_on_c, 3, 75, 0
6, 156522, Note_on_c, 3, 72, 0
6, 156544, Note_on_c, 3, 75, 103
6, 156544, Note_on_c, 3, 72, 110
6, 156586, Note_on_c, 3, 75, 0
6, 156586, Note_on_c, 3, 72, 0
6, 156608, Note_on_c, 3, 75, 108
6, 156608, Note_on_c, 3, 72, 113
6, 156650, Note_on_c, 3, 75, 0
6, 156650, Note_on_c, 3, 72, 0
6, 163584, Note_on_c, 3, 76, 93
6, 163584, Control_c, 3, 11, 92
6, 163589, Control_c, 3, 11, 93
6, 163594, Control_c, 3, 11, 94
6, 163600, Control_c, 3, 11, 95
6, 163605, Control_c, 3, 11, 96
6, 163611, Control_c, 3, 11, 97
6, 163616, Control_c, 3, 11, 98
6, 163622, Control_c, 3, 11, 99
6, 163627, Control_c, 3, 11, 100
6, 163630, Note_on_c, 3, 76, 0
6, 163632, Note_on_c, 3, 76, 96
6, 163633, Control_c, 3, 11, 101
6, 163638, Control_c, 3, 11, 102
6, 163644, Control_c, 3, 11, 103
6, 163649, Control_c, 3, 11, 104
6, 163655, Control_c, 3, 11, 105
6, 163660, Control_c, 3, 11, 106
6, 163666, Control_c, 3, 11, 107
6, 163671, Control_c, 3, 11, 108
6, 163677, Control_c, 3, 11, 109
6, 163682, Control_c, 3, 11, 110
6, 163688, Control_c, 3, 11, 111
6, 163693, Control_c, 3, 11, 112
6, 163699, Control_c, 3, 11, 113
6, 163704, Control_c, 3, 11, 114
6, 163710, Control_c, 3, 11, 115
6, 163715, Control_c, 3, 11, 116
6, 163721, Control_c, 3, 11, 117
6, 163726, Control_c, 3, 11, 118
6, 163732, Control_c, 3, 11, 119
6, 163737, Control_c, 3, 11, 120
6, 163743, Control_c, 3, 11, 121
6, 163748, Control_c, 3, 11, 122
6, 163754, Control_c, 3, 11, 123
6, 163759, Control_c, 3, 11, 124
6, 163765, Control_c, 3, 11, 125
6, 163770, Control_c, 3, 11, 126
6, 163776, Control_c, 3, 11, 127
6, 163779, Control_c, 3, 11, 126
6, 163782, Control_c, 3, 11, 125
6, 163785, Control_c, 3, 11, 124
6, 163788, Control_c, 3, 11, 123
6, 163791, Control_c, 3, 11, 122
6, 163794, Control_c, 3, 11, 121
6, 163797, Control_c, 3, 11, 120
6, 163800, Control_c, 3, 11, 119
6, 163803, Control_c, 3, 11, 118
6, 163806, Control_c, 3, 11, 117
6, 163809, Control_c, 3, 11, 116
6, 163812, Control_c, 3, 11, 115
6, 163815, Control_c, 3, 11, 114
6, 163818, Control_c, 3, 11, 113
6, 163821, Control_c, 3, 11, 112
6, 163824, Control_c, 3, 11, 111
6, 163827, Control_c, 3, 11, 110
6, 163830, Control_c, 3, 11, 109
6, 163833, Control_c, 3, 11, 108
6, 163836, Control_c, 3, 11, 107
6, 163840, Control_c, 3, 11, 106
6, 163843, Control_c, 3, 11, 105
6, 163846, Control_c, 3, 11, 104
6, 163849, Control_c, 3, 11, 103
6, 163852, Control_c, 3, 11, 102
6, 163855, Control_c, 3, 11, 101
6, 163858, Control_c, 3, 11, 100
6, 163861, Control_c, 3, 11, 99
6, 163864, Control_c, 3, 11, 98
6, 163867, Control_c, 3, 11, 97
6, 163870, Control_c, 3, 11, 96
6, 163873, Control_c, 3, 11, 95
6, 163876, Control_c, 3, 11, 94
6, 163879, Control_c, 3, 11, 93
6, 163882, Control_c, 3, 11, 92
6, 163885, Control_c, 3, 11, 91
6, 163888, Control_c, 3, 11, 90
6, 163891, Control_c, 3, 11, 89
6, 163894, Control_c, 3, 11, 88
6, 163897, Control_c, 3, 11, 87
6, 163900, Control_c, 3, 11, 86
6, 163904, Control_c, 3, 11, 85
6, 163907, Control_c, 3, 11, 84
6, 163910, Control_c, 3, 11, 83
6, 163913, Control_c, 3, 11, 82
6, 163916, Control_c, 3, 11, 81
6, 163919, Control_c, 3, 11, 80
6, 163922, Control_c, 3, 11, 79
6, 163925, Control_c, 3, 11, 78
6, 163928, Control_c, 3, 11, 77
6, 163931, Control_c, 3, 11, 76
6, 163934, Control_c, 3, 11, 75
6, 163937, Control_c, 3, 11, 74
6, 163940, Control_c, 3, 11, 73
6, 163943, Control_c, 3, 11, 72
6, 163946, Control_c, 3, 11, 71
6, 163949, Control_c, 3, 11, 70
6, 163952, Control_c, 3, 11, 69
6, 163955, Control_c, 3, 11, 68
6, 163958, Control_c, 3, 11, 67
6, 163961, Control_c, 3, 11, 66
6, 163964, Control_c, 3, 11, 65
6, 163968, Control_c, 3, 11, 64
6, 164112, Note_on_c, 3, 76, 0
6, 165120, Control_c, 3, 11, 92
6, 165120, Note_on_c, 3, 76, 96
6, 165125, Control_c, 3, 11, 93
6, 165130, Control_c, 3, 11, 94
6, 165136, Control_c, 3, 11, 95
6, 165141, Control_c, 3, 11, 96
6, 165147, Control_c, 3, 11, 97
6, 165152, Control_c, 3, 11, 98
6, 165158, Control_c, 3, 11, 99
6, 165163, Control_c, 3, 11, 100
6, 165166, Note_on_c, 3, 76, 0
6, 165168, Note_on_c, 3, 76, 89
6, 165169, Control_c, 3, 11, 101
6, 165174, Control_c, 3, 11, 102
6, 165180, Control_c, 3, 11, 103
6, 165185, Control_c, 3, 11, 104
6, 165191, Control_c, 3, 11, 105
6, 165196, Control_c, 3, 11, 106
6, 165202, Control_c, 3, 11, 107
6, 165207, Control_c, 3, 11, 108
6, 165213, Control_c, 3, 11, 109
6, 165218, Control_c, 3, 11, 110
6, 165224, Control_c, 3, 11, 111
6, 165229, Control_c, 3, 11, 112
6, 165235, Control_c, 3, 11, 113
6, 165240, Control_c, 3, 11, 114
6, 165246, Control_c, 3, 11, 115
6, 165251, Control_c, 3, 11, 116
6, 165257, Control_c, 3, 11, 117
6, 165262, Control_c, 3, 11, 118
6, 165268, Control_c, 3, 11, 119
6, 165273, Control_c, 3, 11, 120
6, 165279, Control_c, 3, 11, 121
6, 165284, Control_c, 3, 11, 122
6, 165290, Control_c, 3, 11, 123
6, 165295, Control_c, 3, 11, 124
6, 165301, Control_c, 3, 11, 125
6, 165306, Control_c, 3, 11, 126
6, 165312, Control_c, 3, 11, 127
6, 165315, Control_c, 3, 11, 126
6, 165318, Control_c, 3, 11, 125
6, 165321, Control_c, 3, 11, 124
6, 165324, Control_c, 3, 11, 123
6, 165327, Control_c, 3, 11, 122
6, 165330, Control_c, 3, 11, 121
6, 165333, Control_c, 3, 11, 120
6, 165336, Control_c, 3, 11, 119
6, 165339, Control_c, 3, 11, 118
6, 165342, Control_c, 3, 11, 117
6, 165345, Control_c, 3, 11, 116
6, 165348, Control_c, 3, 11, 115
6, 165351, Control_c, 3, 11, 114
6, 165354, Control_c, 3, 11, 113
6, 165357, Control_c, 3, 11, 112
6, 165360, Control_c, 3, 11, 111
6, 165363, Control_c, 3, 11, 110
6, 165366, Control_c, 3, 11, 109
6, 165369, Control_c, 3, 11, 108
6, 165372, Control_c, 3, 11, 107
6, 165376, Control_c, 3, 11, 106
6, 165379, Control_c, 3, 11, 105
6, 165382, Control_c, 3, 11, 104
6, 165385, Control_c, 3, 11, 103
6, 165388, Control_c, 3, 11, 102
6, 165391, Control_c, 3, 11, 101
6, 165394, Control_c, 3, 11, 100
6, 165397, Control_c, 3, 11, 99
6, 165400, Control_c, 3, 11, 98
6, 165403, Control_c, 3, 11, 97
6, 165406, Control_c, 3, 11, 96
6, 165409, Control_c, 3, 11, 95
6, 165412, Control_c, 3, 11, 94
6, 165415, Control_c, 3, 11, 93
6, 165418, Control_c, 3, 11, 92
6, 165421, Control_c, 3, 11, 91
6, 165424, Control_c, 3, 11, 90
6, 165427, Control_c, 3, 11, 89
6, 165430, Control_c, 3, 11, 88
6, 165433, Control_c, 3, 11, 87
6, 165436, Control_c, 3, 11, 86
6, 165440, Control_c, 3, 11, 85
6, 165443, Control_c, 3, 11, 84
6, 165446, Control_c, 3, 11, 83
6, 165449, Control_c, 3, 11, 82
6, 165452, Control_c, 3, 11, 81
6, 165455, Control_c, 3, 11, 80
6, 165458, Control_c, 3, 11, 79
6, 165461, Control_c, 3, 11, 78
6, 165464, Control_c, 3, 11, 77
6, 165467, Control_c, 3, 11, 76
6, 165470, Control_c, 3, 11, 75
6, 165473, Control_c, 3, 11, 74
6, 165476, Control_c, 3, 11, 73
6, 165479, Control_c, 3, 11, 72
6, 165482, Control_c, 3, 11, 71
6, 165485, Control_c, 3, 11, 70
6, 165488, Control_c, 3, 11, 69
6, 165491, Control_c, 3, 11, 68
6, 165494, Control_c, 3, 11, 67
6, 165497, Control_c, 3, 11, 66
6, 165500, Control_c, 3, 11, 65
6, 165504, Control_c, 3, 11, 64
6, 165648, Note_on_c, 3, 76, 0
6, 168192, Control_c, 3, 11, 92
6, 168192, Note_on_c, 3, 76, 96
6, 168197, Control_c, 3, 11, 93
6, 168202, Control_c, 3, 11, 94
6, 168208, Control_c, 3, 11, 95
6, 168213, Control_c, 3, 11, 96
6, 168219, Control_c, 3, 11, 97
6, 168224, Control_c, 3, 11, 98
6, 168230, Control_c, 3, 11, 99
6, 168235, Control_c, 3, 11, 100
6, 168238, Note_on_c, 3, 76, 0
6, 168240, Note_on_c, 3, 76, 94
6, 168241, Control_c, 3, 11, 101
6, 168246, Control_c, 3, 11, 102
6, 168252, Control_c, 3, 11, 103
6, 168257, Control_c, 3, 11, 104
6, 168263, Control_c, 3, 11, 105
6, 168268, Control_c, 3, 11, 106
6, 168274, Control_c, 3, 11, 107
6, 168279, Control_c, 3, 11, 108
6, 168285, Control_c, 3, 11, 109
6, 168290, Control_c, 3, 11, 110
6, 168296, Control_c, 3, 11, 111
6, 168301, Control_c, 3, 11, 112
6, 168307, Control_c, 3, 11, 113
6, 168312, Control_c, 3, 11, 114
6, 168318, Control_c, 3, 11, 115
6, 168323, Control_c, 3, 11, 116
6, 168329, Control_c, 3, 11, 117
6, 168334, Control_c, 3, 11, 118
6, 168340, Control_c, 3, 11, 119
6, 168345, Control_c, 3, 11, 120
6, 168351, Control_c, 3, 11, 121
6, 168356, Control_c, 3, 11, 122
6, 168362, Control_c, 3, 11, 123
6, 168367, Control_c, 3, 11, 124
6, 168373, Control_c, 3, 11, 125
6, 168378, Control_c, 3, 11, 126
6, 168384, Control_c, 3, 11, 127
6, 168387, Control_c, 3, 11, 126
6, 168390, Control_c, 3, 11, 125
6, 168393, Control_c, 3, 11, 124
6, 168396, Control_c, 3, 11, 123
6, 168399, Control_c, 3, 11, 122
6, 168402, Control_c, 3, 11, 121
6, 168405, Control_c, 3, 11, 120
6, 168408, Control_c, 3, 11, 119
6, 168411, Control_c, 3, 11, 118
6, 168414, Control_c, 3, 11, 117
6, 168417, Control_c, 3, 11, 116
6, 168420, Control_c, 3, 11, 115
6, 168423, Control_c, 3, 11, 114
6, 168426, Control_c, 3, 11, 113
6, 168429, Control_c, 3, 11, 112
6, 168432, Control_c, 3, 11, 111
6, 168435, Control_c, 3, 11, 110
6, 168438, Control_c, 3, 11, 109
6, 168441, Control_c, 3, 11, 108
6, 168444, Control_c, 3, 11, 107
6, 168448, Control_c, 3, 11, 106
6, 168451, Control_c, 3, 11, 105
6, 168454, Control_c, 3, 11, 104
6, 168457, Control_c, 3, 11, 103
6, 168460, Control_c, 3, 11, 102
6, 168463, Control_c, 3, 11, 101
6, 168466, Control_c, 3, 11, 100
6, 168469, Control_c, 3, 11, 99
6, 168472, Control_c, 3, 11, 98
6, 168475, Control_c, 3, 11, 97
6, 168478, Control_c, 3, 11, 96
6, 168481, Control_c, 3, 11, 95
6, 168484, Control_c, 3, 11, 94
6, 168487, Control_c, 3, 11, 93
6, 168490, Control_c, 3, 11, 92
6, 168493, Control_c, 3, 11, 91
6, 168496, Control_c, 3, 11, 90
6, 168499, Control_c, 3, 11, 89
6, 168502, Control_c, 3, 11, 88
6, 168505, Control_c, 3, 11, 87
6, 168508, Control_c, 3, 11, 86
6, 168512, Control_c, 3, 11, 85
6, 168515, Control_c, 3, 11, 84
6, 168518, Control_c, 3, 11, 83
6, 168521, Control_c, 3, 11, 82
6, 168524, Control_c, 3, 11, 81
6, 168527, Control_c, 3, 11, 80
6, 168530, Control_c, 3, 11, 79
6, 168533, Control_c, 3, 11, 78
6, 168536, Control_c, 3, 11, 77
6, 168539, Control_c, 3, 11, 76
6, 168542, Control_c, 3, 11, 75
6, 168545, Control_c, 3, 11, 74
6, 168548, Control_c, 3, 11, 73
6, 168551, Control_c, 3, 11, 72
6, 168554, Control_c, 3, 11, 71
6, 168557, Control_c, 3, 11, 70
6, 168560, Control_c, 3, 11, 69
6, 168563, Control_c, 3, 11, 68
6, 168566, Control_c, 3, 11, 67
6, 168569, Control_c, 3, 11, 66
6, 168572, Control_c, 3, 11, 65
6, 168576, Control_c, 3, 11, 64
6, 168720, Note_on_c, 3, 76, 0
6, 169728, Control_c, 3, 11, 127
6, 170496, Note_on_c, 3, 55, 26
6, 170496, Note_on_c, 3, 58, 33
6, 170538, Note_on_c, 3, 55, 0
6, 170538, Note_on_c, 3, 58, 0
6, 170624, Note_on_c, 3, 55, 30
6, 170624, Note_on_c, 3, 58, 32
6, 170666, Note_on_c, 3, 55, 0
6, 170666, Note_on_c, 3, 58, 0
6, 170688, Note_on_c, 3, 58, 41
6, 170688, Note_on_c, 3, 55, 45
6, 170730, Note_on_c, 3, 58, 0
6, 170730, Note_on_c, 3, 55, 0
6, 170752, Note_on_c, 3, 58, 55
6, 170752, Note_on_c, 3, 55, 46
6, 170794, Note_on_c, 3, 58, 0
6, 170794, Note_on_c, 3, 55, 0
6, 170816, Note_on_c, 3, 55, 55
6, 170816, Note_on_c, 3, 58, 62
6, 170858, Note_on_c, 3, 55, 0
6, 170858, Note_on_c, 3, 58, 0
6, 170880, Note_on_c, 3, 55, 28
6, 170880, Note_on_c, 3, 58, 33
6, 170922, Note_on_c, 3, 55, 0
6, 170922, Note_on_c, 3, 58, 0
6, 171008, Note_on_c, 3, 55, 29
6, 171008, Note_on_c, 3, 58, 33
6, 171050, Note_on_c, 3, 55, 0
6, 171050, Note_on_c, 3, 58, 0
6, 171072, Note_on_c, 3, 55, 40
6, 171072, Note_on_c, 3, 58, 36
6, 171114, Note_on_c, 3, 55, 0
6, 171114, Note_on_c, 3, 58, 0
6, 171136, Note_on_c, 3, 55, 48
6, 171136, Note_on_c, 3, 58, 50
6, 171178, Note_on_c, 3, 55, 0
6, 171178, Note_on_c, 3, 58, 0
6, 171200, Note_on_c, 3, 55, 59
6, 171200, Note_on_c, 3, 58, 65
6, 171242, Note_on_c, 3, 55, 0
6, 171242, Note_on_c, 3, 58, 0
6, 171264, Note_on_c, 3, 55, 31
6, 171264, Note_on_c, 3, 58, 35
6, 171306, Note_on_c, 3, 55, 0
6, 171306, Note_on_c, 3, 58, 0
6, 171392, Note_on_c, 3, 58, 25
6, 171392, Note_on_c, 3, 55, 30
6, 171434, Note_on_c, 3, 58, 0
6, 171434, Note_on_c, 3, 55, 0
6, 171456, Note_on_c, 3, 58, 42
6, 171456, Note_on_c, 3, 55, 42
6, 171498, Note_on_c, 3, 58, 0
6, 171498, Note_on_c, 3, 55, 0
6, 171520, Note_on_c, 3, 58, 49
6, 171520, Note_on_c, 3, 55, 53
6, 171562, Note_on_c, 3, 58, 0
6, 171562, Note_on_c, 3, 55, 0
6, 171584, Note_on_c, 3, 58, 57
6, 171584, Note_on_c, 3, 55, 58
6, 171626, Note_on_c, 3, 58, 0
6, 171626, Note_on_c, 3, 55, 0
6, 171648, Note_on_c, 3, 58, 25
6, 171648, Note_on_c, 3, 55, 34
6, 171690, Note_on_c, 3, 58, 0
6, 171690, Note_on_c, 3, 55, 0
6, 171776, Note_on_c, 3, 58, 35
6, 171776, Note_on_c, 3, 55, 34
6, 171818, Note_on_c, 3, 58, 0
6, 171818, Note_on_c, 3, 55, 0
6, 171840, Note_on_c, 3, 58, 44
6, 171840, Note_on_c, 3, 55, 41
6, 171882, Note_on_c, 3, 58, 0
6, 171882, Note_on_c, 3, 55, 0
6, 171904, Note_on_c, 3, 58, 54
6, 171904, Note_on_c, 3, 55, 51
6, 171946, Note_on_c, 3, 58, 0
6, 171946, Note_on_c, 3, 55, 0
6, 171968, Note_on_c, 3, 58, 58
6, 171968, Note_on_c, 3, 55, 60
6, 172010, Note_on_c, 3, 58, 0
6, 172010, Note_on_c, 3, 55, 0
6, 172032, Note_on_c, 3, 55, 28
6, 172032, Note_on_c, 3, 58, 25
6, 172074, Note_on_c, 3, 55, 0
6, 172074, Note_on_c, 3, 58, 0
6, 172160, Note_on_c, 3, 58, 33
6, 172160, Note_on_c, 3, 55, 31
6, 172202, Note_on_c, 3, 58, 0
6, 172202, Note_on_c, 3, 55, 0
6, 172224, Note_on_c, 3, 55, 38
6, 172224, Note_on_c, 3, 58, 41
6, 172266, Note_on_c, 3, 55, 0
6, 172266, Note_on_c, 3, 58, 0
6, 172288, Note_on_c, 3, 55, 47
6, 172288, Note_on_c, 3, 58, 49
6, 172330, Note_on_c, 3, 55, 0
6, 172330, Note_on_c, 3, 58, 0
6, 172352, Note_on_c, 3, 55, 63
6, 172352, Note_on_c, 3, 58, 58
6, 172394, Note_on_c, 3, 55, 0
6, 172394, Note_on_c, 3, 58, 0
6, 172416, Note_on_c, 3, 55, 30
6, 172416, Note_on_c, 3, 58, 26
6, 172458, Note_on_c, 3, 55, 0
6, 172458, Note_on_c, 3, 58, 0
6, 172544, Note_on_c, 3, 55, 33
6, 172544, Note_on_c, 3, 58, 29
6, 172586, Note_on_c, 3, 55, 0
6, 172586, Note_on_c, 3, 58, 0
6, 172608, Note_on_c, 3, 55, 41
6, 172608, Note_on_c, 3, 58, 42
6, 172650, Note_on_c, 3, 55, 0
6, 172650, Note_on_c, 3, 58, 0
6, 172672, Note_on_c, 3, 55, 50
6, 172672, Note_on_c, 3, 58, 55
6, 172714, Note_on_c, 3, 55, 0
6, 172714, Note_on_c, 3, 58, 0
6, 172736, Note_on_c, 3, 58, 56
6, 172736, Note_on_c, 3, 55, 55
6, 172778, Note_on_c, 3, 58, 0
6, 172778, Note_on_c, 3, 55, 0
6, 172800, Note_on_c, 3, 55, 27
6, 172800, Note_on_c, 3, 58, 30
6, 172842, Note_on_c, 3, 55, 0
6, 172842, Note_on_c, 3, 58, 0
6, 172928, Note_on_c, 3, 55, 29
6, 172928, Note_on_c, 3, 58, 32
6, 172970, Note_on_c, 3, 55, 0
6, 172970, Note_on_c, 3, 58, 0
6, 172992, Note_on_c, 3, 55, 39
6, 172992, Note_on_c, 3, 58, 45
6, 173034, Note_on_c, 3, 55, 0
6, 173034, Note_on_c, 3, 58, 0
6, 173056, Note_on_c, 3, 55, 50
6, 173056, Note_on_c, 3, 58, 52
6, 173098, Note_on_c, 3, 55, 0
6, 173098, Note_on_c, 3, 58, 0
6, 173120, Note_on_c, 3, 55, 65
6, 173120, Note_on_c, 3, 58, 58
6, 173162, Note_on_c, 3, 55, 0
6, 173162, Note_on_c, 3, 58, 0
6, 173184, Note_on_c, 3, 55, 34
6, 173184, Note_on_c, 3, 58, 26
6, 173226, Note_on_c, 3, 55, 0
6, 173226, Note_on_c, 3, 58, 0
6, 173312, Note_on_c, 3, 55, 33
6, 173312, Note_on_c, 3, 58, 25
6, 173354, Note_on_c, 3, 55, 0
6, 173354, Note_on_c, 3, 58, 0
6, 173376, Note_on_c, 3, 58, 44
6, 173376, Note_on_c, 3, 55, 38
6, 173418, Note_on_c, 3, 58, 0
6, 173418, Note_on_c, 3, 55, 0
6, 173440, Note_on_c, 3, 58, 55
6, 173440, Note_on_c, 3, 55, 46
6, 173482, Note_on_c, 3, 58, 0
6, 173482, Note_on_c, 3, 55, 0
6, 173504, Note_on_c, 3, 58, 63
6, 173504, Note_on_c, 3, 55, 56
6, 173546, Note_on_c, 3, 58, 0
6, 173546, Note_on_c, 3, 55, 0
6, 173568, Note_on_c, 3, 67, 35
6, 173568, Note_on_c, 3, 57, 26
6, 173694, Note_on_c, 3, 67, 0
6, 173694, Note_on_c, 3, 57, 0
6, 173696, Note_on_c, 3, 67, 31
6, 173696, Note_on_c, 3, 57, 26
6, 173738, Note_on_c, 3, 67, 0
6, 173738, Note_on_c, 3, 57, 0
6, 173760, Note_on_c, 3, 66, 29
6, 173760, Note_on_c, 3, 57, 25
6, 173802, Note_on_c, 3, 66, 0
6, 173802, Note_on_c, 3, 57, 0
6, 173824, Note_on_c, 3, 65, 27
6, 173824, Note_on_c, 3, 57, 32
6, 173866, Note_on_c, 3, 65, 0
6, 173866, Note_on_c, 3, 57, 0
6, 173888, Note_on_c, 3, 64, 28
6, 173888, Note_on_c, 3, 57, 26
6, 173930, Note_on_c, 3, 64, 0
6, 173930, Note_on_c, 3, 57, 0
6, 173952, Note_on_c, 3, 67, 31
6, 173952, Note_on_c, 3, 57, 35
6, 174078, Note_on_c, 3, 67, 0
6, 174078, Note_on_c, 3, 57, 0
6, 174080, Note_on_c, 3, 67, 33
6, 174080, Note_on_c, 3, 57, 30
6, 174122, Note_on_c, 3, 67, 0
6, 174122, Note_on_c, 3, 57, 0
6, 174144, Note_on_c, 3, 57, 34
6, 174144, Note_on_c, 3, 66, 30
6, 174186, Note_on_c, 3, 57, 0
6, 174186, Note_on_c, 3, 66, 0
6, 174208, Note_on_c, 3, 57, 32
6, 174208, Note_on_c, 3, 65, 25
6, 174250, Note_on_c, 3, 57, 0
6, 174250, Note_on_c, 3, 65, 0
6, 174272, Note_on_c, 3, 57, 27
6, 174272, Note_on_c, 3, 64, 32
6, 174314, Note_on_c, 3, 57, 0
6, 174314, Note_on_c, 3, 64, 0
6, 174336, Note_on_c, 3, 57, 32
6, 174336, Note_on_c, 3, 67, 34
6, 174462, Note_on_c, 3, 57, 0
6, 174462, Note_on_c, 3, 67, 0
6, 174464, Note_on_c, 3, 57, 35
6, 174464, Note_on_c, 3, 67, 28
6, 174506, Note_on_c, 3, 57, 0
6, 174506, Note_on_c, 3, 67, 0
6, 174528, Note_on_c, 3, 57, 34
6, 174528, Note_on_c, 3, 66, 29
6, 174570, Note_on_c, 3, 57, 0
6, 174570, Note_on_c, 3, 66, 0
6, 174592, Note_on_c, 3, 57, 26
6, 174592, Note_on_c, 3, 65, 32
6, 174634, Note_on_c, 3, 57, 0
6, 174634, Note_on_c, 3, 65, 0
6, 174656, Note_on_c, 3, 57, 34
6, 174656, Note_on_c, 3, 64, 28
6, 174698, Note_on_c, 3, 57, 0
6, 174698, Note_on_c, 3, 64, 0
6, 174720, Note_on_c, 3, 57, 29
6, 174720, Note_on_c, 3, 67, 26
6, 174846, Note_on_c, 3, 57, 0
6, 174846, Note_on_c, 3, 67, 0
6, 174848, Note_on_c, 3, 67, 31
6, 174848, Note_on_c, 3, 57, 25
6, 174890, Note_on_c, 3, 67, 0
6, 174890, Note_on_c, 3, 57, 0
6, 174912, Note_on_c, 3, 66, 33
6, 174912, Note_on_c, 3, 57, 31
6, 174954, Note_on_c, 3, 66, 0
6, 174954, Note_on_c, 3, 57, 0
6, 174976, Note_on_c, 3, 65, 28
6, 174976, Note_on_c, 3, 57, 30
6, 175018, Note_on_c, 3, 65, 0
6, 175018, Note_on_c, 3, 57, 0
6, 175040, Note_on_c, 3, 64, 30
6, 175040, Note_on_c, 3, 57, 35
6, 175082, Note_on_c, 3, 64, 0
6, 175082, Note_on_c, 3, 57, 0
6, 175104, Note_on_c, 3, 67, 28
6, 175104, Note_on_c, 3, 57, 30
6, 175230, Note_on_c, 3, 67, 0
6, 175230, Note_on_c, 3, 57, 0
6, 175232, Note_on_c, 3, 67, 28
6, 175232, Note_on_c, 3, 57, 29
6, 175274, Note_on_c, 3, 67, 0
6, 175274, Note_on_c, 3, 57, 0
6, 175296, Note_on_c, 3, 66, 31
6, 175296, Note_on_c, 3, 57, 29
6, 175338, Note_on_c, 3, 66, 0
6, 175338, Note_on_c, 3, 57, 0
6, 175360, Note_on_c, 3, 65, 32
6, 175360, Note_on_c, 3, 57, 28
6, 175402, Note_on_c, 3, 65, 0
6, 175402, Note_on_c, 3, 57, 0
6, 175424, Note_on_c, 3, 64, 27
6, 175424, Note_on_c, 3, 57, 33
6, 175466, Note_on_c, 3, 64, 0
6, 175466, Note_on_c, 3, 57, 0
6, 175488, Note_on_c, 3, 57, 30
6, 175488, Note_on_c, 3, 67, 30
6, 175614, Note_on_c, 3, 57, 0
6, 175614, Note_on_c, 3, 67, 0
6, 175616, Note_on_c, 3, 57, 30
6, 175616, Note_on_c, 3, 67, 25
6, 175658, Note_on_c, 3, 57, 0
6, 175658, Note_on_c, 3, 67, 0
6, 175680, Note_on_c, 3, 57, 32
6, 175680, Note_on_c, 3, 66, 35
6, 175722, Note_on_c, 3, 57, 0
6, 175722, Note_on_c, 3, 66, 0
6, 175744, Note_on_c, 3, 57, 27
6, 175744, Note_on_c, 3, 65, 35
6, 175786, Note_on_c, 3, 57, 0
6, 175786, Note_on_c, 3, 65, 0
6, 175808, Note_on_c, 3, 57, 27
6, 175808, Note_on_c, 3, 64, 26
6, 175850, Note_on_c, 3, 57, 0
6, 175850, Note_on_c, 3, 64, 0
6, 175872, Note_on_c, 3, 58, 30
6, 175872, Note_on_c, 3, 67, 30
6, 175998, Note_on_c, 3, 58, 0
6, 175998, Note_on_c, 3, 67, 0
6, 176000, Note_on_c, 3, 58, 25
6, 176000, Note_on_c, 3, 67, 29
6, 176042, Note_on_c, 3, 58, 0
6, 176042, Note_on_c, 3, 67, 0
6, 176064, Note_on_c, 3, 58, 28
6, 176064, Note_on_c, 3, 66, 34
6, 176106, Note_on_c, 3, 58, 0
6, 176106, Note_on_c, 3, 66, 0
6, 176128, Note_on_c, 3, 65, 31
6, 176128, Note_on_c, 3, 58, 32
6, 176170, Note_on_c, 3, 65, 0
6, 176170, Note_on_c, 3, 58, 0
6, 176192, Note_on_c, 3, 64, 27
6, 176192, Note_on_c, 3, 58, 28
6, 176234, Note_on_c, 3, 64, 0
6, 176234, Note_on_c, 3, 58, 0
6, 176256, Note_on_c, 3, 58, 30
6, 176256, Note_on_c, 3, 67, 27
6, 176382, Note_on_c, 3, 58, 0
6, 176382, Note_on_c, 3, 67, 0
6, 176384, Note_on_c, 3, 58, 26
6, 176384, Note_on_c, 3, 67, 30
6, 176426, Note_on_c, 3, 58, 0
6, 176426, Note_on_c, 3, 67, 0
6, 176448, Note_on_c, 3, 58, 29
6, 176448, Note_on_c, 3, 66, 32
6, 176490, Note_on_c, 3, 58, 0
6, 176490, Note_on_c, 3, 66, 0
6, 176512, Note_on_c, 3, 58, 34
6, 176512, Note_on_c, 3, 65, 30
6, 176554, Note_on_c, 3, 58, 0
6, 176554, Note_on_c, 3, 65, 0
6, 176576, Note_on_c, 3, 58, 31
6, 176576, Note_on_c, 3, 64, 33
6, 176618, Note_on_c, 3, 58, 0
6, 176618, Note_on_c, 3, 64, 0
6, 176640, Note_on_c, 3, 58, 30
6, 176640, Note_on_c, 3, 67, 34
6, 176766, Note_on_c, 3, 58, 0
6, 176766, Note_on_c, 3, 67, 0
6, 176768, Note_on_c, 3, 58, 33
6, 176768, Note_on_c, 3, 67, 35
6, 176810, Note_on_c, 3, 58, 0
6, 176810, Note_on_c, 3, 67, 0
6, 176832, Note_on_c, 3, 66, 30
6, 176832, Note_on_c, 3, 58, 25
6, 176874, Note_on_c, 3, 66, 0
6, 176874, Note_on_c, 3, 58, 0
6, 176896, Note_on_c, 3, 65, 28
6, 176896, Note_on_c, 3, 58, 26
6, 176938, Note_on_c, 3, 65, 0
6, 176938, Note_on_c, 3, 58, 0
6, 176960, Note_on_c, 3, 64, 26
6, 176960, Note_on_c, 3, 58, 27
6, 177002, Note_on_c, 3, 64, 0
6, 177002, Note_on_c, 3, 58, 0
6, 177024, Note_on_c, 3, 67, 30
6, 177024, Note_on_c, 3, 58, 31
6, 177150, Note_on_c, 3, 67, 0
6, 177150, Note_on_c, 3, 58, 0
6, 177152, Note_on_c, 3, 67, 25
6, 177152, Note_on_c, 3, 58, 26
6, 177194, Note_on_c, 3, 67, 0
6, 177194, Note_on_c, 3, 58, 0
6, 177216, Note_on_c, 3, 66, 29
6, 177216, Note_on_c, 3, 58, 32
6, 177258, Note_on_c, 3, 66, 0
6, 177258, Note_on_c, 3, 58, 0
6, 177280, Note_on_c, 3, 65, 27
6, 177280, Note_on_c, 3, 58, 33
6, 177322, Note_on_c, 3, 65, 0
6, 177322, Note_on_c, 3, 58, 0
6, 177344, Note_on_c, 3, 64, 28
6, 177344, Note_on_c, 3, 58, 26
6, 177386, Note_on_c, 3, 64, 0
6, 177386, Note_on_c, 3, 58, 0
6, 177408, Note_on_c, 3, 67, 45
6, 177408, Note_on_c, 3, 64, 48
6, 177534, Note_on_c, 3, 67, 0
6, 177534, Note_on_c, 3, 64, 0
6, 177536, Note_on_c, 3, 64, 48
6, 177536, Note_on_c, 3, 67, 50
6, 177578, Note_on_c, 3, 64, 0
6, 177578, Note_on_c, 3, 67, 0
6, 177600, Note_on_c, 3, 64, 43
6, 177600, Note_on_c, 3, 61, 40
6, 177642, Note_on_c, 3, 64, 0
6, 177642, Note_on_c, 3, 61, 0
6, 177664, Note_on_c, 3, 61, 43
6, 177664, Note_on_c, 3, 64, 47
6, 177706, Note_on_c, 3, 61, 0
6, 177706, Note_on_c, 3, 64, 0
6, 177728, Note_on_c, 3, 61, 50
6, 177728, Note_on_c, 3, 64, 43
6, 177770, Note_on_c, 3, 61, 0
6, 177770, Note_on_c, 3, 64, 0
6, 177792, Note_on_c, 3, 64, 41
6, 177792, Note_on_c, 3, 67, 49
6, 177918, Note_on_c, 3, 64, 0
6, 177918, Note_on_c, 3, 67, 0
6, 177920, Note_on_c, 3, 64, 43
6, 177920, Note_on_c, 3, 67, 41
6, 177962, Note_on_c, 3, 64, 0
6, 177962, Note_on_c, 3, 67, 0
6, 177984, Note_on_c, 3, 61, 45
6, 177984, Note_on_c, 3, 64, 48
6, 178026, Note_on_c, 3, 61, 0
6, 178026, Note_on_c, 3, 64, 0
6, 178048, Note_on_c, 3, 61, 51
6, 178048, Note_on_c, 3, 64, 45
6, 178090, Note_on_c, 3, 61, 0
6, 178090, Note_on_c, 3, 64, 0
6, 178112, Note_on_c, 3, 61, 48
6, 178112, Note_on_c, 3, 64, 42
6, 178154, Note_on_c, 3, 61, 0
6, 178154, Note_on_c, 3, 64, 0
6, 178176, Note_on_c, 3, 67, 42
6, 178176, Note_on_c, 3, 64, 45
6, 178302, Note_on_c, 3, 67, 0
6, 178302, Note_on_c, 3, 64, 0
6, 178304, Note_on_c, 3, 64, 50
6, 178304, Note_on_c, 3, 67, 45
6, 178346, Note_on_c, 3, 64, 0
6, 178346, Note_on_c, 3, 67, 0
6, 178368, Note_on_c, 3, 61, 50
6, 178368, Note_on_c, 3, 64, 49
6, 178410, Note_on_c, 3, 61, 0
6, 178410, Note_on_c, 3, 64, 0
6, 178432, Note_on_c, 3, 61, 49
6, 178432, Note_on_c, 3, 64, 49
6, 178474, Note_on_c, 3, 61, 0
6, 178474, Note_on_c, 3, 64, 0
6, 178496, Note_on_c, 3, 61, 52
6, 178496, Note_on_c, 3, 64, 46
6, 178538, Note_on_c, 3, 61, 0
6, 178538, Note_on_c, 3, 64, 0
6, 178560, Note_on_c, 3, 64, 43
6, 178560, Note_on_c, 3, 67, 45
6, 178686, Note_on_c, 3, 64, 0
6, 178686, Note_on_c, 3, 67, 0
6, 178688, Note_on_c, 3, 64, 52
6, 178688, Note_on_c, 3, 67, 49
6, 178730, Note_on_c, 3, 64, 0
6, 178730, Note_on_c, 3, 67, 0
6, 178752, Note_on_c, 3, 61, 48
6, 178752, Note_on_c, 3, 64, 46
6, 178794, Note_on_c, 3, 61, 0
6, 178794, Note_on_c, 3, 64, 0
6, 178816, Note_on_c, 3, 64, 49
6, 178816, Note_on_c, 3, 61, 51
6, 178858, Note_on_c, 3, 64, 0
6, 178858, Note_on_c, 3, 61, 0
6, 178880, Note_on_c, 3, 64, 50
6, 178880, Note_on_c, 3, 61, 50
6, 178922, Note_on_c, 3, 64, 0
6, 178922, Note_on_c, 3, 61, 0
6, 178944, Note_on_c, 3, 67, 55
6, 178944, Note_on_c, 3, 64, 52
6, 179070, Note_on_c, 3, 67, 0
6, 179070, Note_on_c, 3, 64, 0
6, 179072, Note_on_c, 3, 67, 57
6, 179072, Note_on_c, 3, 64, 51
6, 179114, Note_on_c, 3, 67, 0
6, 179114, Note_on_c, 3, 64, 0
6, 179136, Note_on_c, 3, 64, 54
6, 179136, Note_on_c, 3, 61, 53
6, 179178, Note_on_c, 3, 64, 0
6, 179178, Note_on_c, 3, 61, 0
6, 179200, Note_on_c, 3, 64, 52
6, 179200, Note_on_c, 3, 61, 51
6, 179242, Note_on_c, 3, 64, 0
6, 179242, Note_on_c, 3, 61, 0
6, 179264, Note_on_c, 3, 64, 57
6, 179264, Note_on_c, 3, 61, 58
6, 179306, Note_on_c, 3, 64, 0
6, 179306, Note_on_c, 3, 61, 0
6, 179328, Note_on_c, 3, 67, 59
6, 179328, Note_on_c, 3, 64, 59
6, 179454, Note_on_c, 3, 67, 0
6, 179454, Note_on_c, 3, 64, 0
6, 179456, Note_on_c, 3, 67, 60
6, 179456, Note_on_c, 3, 64, 56
6, 179498, Note_on_c, 3, 67, 0
6, 179498, Note_on_c, 3, 64, 0
6, 179520, Note_on_c, 3, 64, 58
6, 179520, Note_on_c, 3, 61, 54
6, 179562, Note_on_c, 3, 64, 0
6, 179562, Note_on_c, 3, 61, 0
6, 179584, Note_on_c, 3, 61, 57
6, 179584, Note_on_c, 3, 64, 59
6, 179626, Note_on_c, 3, 61, 0
6, 179626, Note_on_c, 3, 64, 0
6, 179648, Note_on_c, 3, 61, 57
6, 179648, Note_on_c, 3, 64, 63
6, 179690, Note_on_c, 3, 61, 0
6, 179690, Note_on_c, 3, 64, 0
6, 179712, Note_on_c, 3, 64, 63
6, 179712, Note_on_c, 3, 67, 66
6, 179838, Note_on_c, 3, 64, 0
6, 179838, Note_on_c, 3, 67, 0
6, 179840, Note_on_c, 3, 64, 67
6, 179840, Note_on_c, 3, 67, 66
6, 179882, Note_on_c, 3, 64, 0
6, 179882, Note_on_c, 3, 67, 0
6, 179904, Note_on_c, 3, 61, 66
6, 179904, Note_on_c, 3, 64, 60
6, 179946, Note_on_c, 3, 61, 0
6, 179946, Note_on_c, 3, 64, 0
6, 179968, Note_on_c, 3, 61, 70
6, 179968, Note_on_c, 3, 64, 64
6, 180010, Note_on_c, 3, 61, 0
6, 180010, Note_on_c, 3, 64, 0
6, 180032, Note_on_c, 3, 61, 72
6, 180032, Note_on_c, 3, 64, 71
6, 180074, Note_on_c, 3, 61, 0
6, 180074, Note_on_c, 3, 64, 0
6, 180096, Note_on_c, 3, 64, 71
6, 180096, Note_on_c, 3, 67, 72
6, 180222, Note_on_c, 3, 64, 0
6, 180222, Note_on_c, 3, 67, 0
6, 180224, Note_on_c, 3, 64, 73
6, 180224, Note_on_c, 3, 67, 66
6, 180266, Note_on_c, 3, 64, 0
6, 180266, Note_on_c, 3, 67, 0
6, 180288, Note_on_c, 3, 64, 66
6, 180288, Note_on_c, 3, 61, 67
6, 180330, Note_on_c, 3, 64, 0
6, 180330, Note_on_c, 3, 61, 0
6, 180352, Note_on_c, 3, 64, 74
6, 180352, Note_on_c, 3, 61, 72
6, 180394, Note_on_c, 3, 64, 0
6, 180394, Note_on_c, 3, 61, 0
6, 180416, Note_on_c, 3, 64, 78
6, 180416, Note_on_c, 3, 61, 78
6, 180458, Note_on_c, 3, 64, 0
6, 180458, Note_on_c, 3, 61, 0
6, 180480, Note_on_c, 3, 67, 73
6, 180480, Note_on_c, 3, 63, 70
6, 180606, Note_on_c, 3, 67, 0
6, 180606, Note_on_c, 3, 63, 0
6, 180608, Note_on_c, 3, 67, 74
6, 180608, Note_on_c, 3, 63, 71
6, 180650, Note_on_c, 3, 67, 0
6, 180650, Note_on_c, 3, 63, 0
6, 180672, Note_on_c, 3, 67, 70
6, 180672, Note_on_c, 3, 63, 70
6, 180714, Note_on_c, 3, 67, 0
6, 180714, Note_on_c, 3, 63, 0
6, 180736, Note_on_c, 3, 67, 73
6, 180736, Note_on_c, 3, 63, 77
6, 180778, Note_on_c, 3, 67, 0
6, 180778, Note_on_c, 3, 63, 0
6, 180800, Note_on_c, 3, 67, 73
6, 180800, Note_on_c, 3, 63, 78
6, 180842, Note_on_c, 3, 67, 0
6, 180842, Note_on_c, 3, 63, 0
6, 180864, Note_on_c, 3, 67, 79
6, 180864, Note_on_c, 3, 63, 82
6, 180990, Note_on_c, 3, 67, 0
6, 180990, Note_on_c, 3, 63, 0
6, 180992, Note_on_c, 3, 63, 78
6, 180992, Note_on_c, 3, 67, 82
6, 181034, Note_on_c, 3, 63, 0
6, 181034, Note_on_c, 3, 67, 0
6, 181056, Note_on_c, 3, 63, 81
6, 181056, Note_on_c, 3, 67, 79
6, 181098, Note_on_c, 3, 63, 0
6, 181098, Note_on_c, 3, 67, 0
6, 181120, Note_on_c, 3, 63, 77
6, 181120, Note_on_c, 3, 67, 80
6, 181162, Note_on_c, 3, 63, 0
6, 181162, Note_on_c, 3, 67, 0
6, 181184, Note_on_c, 3, 63, 82
6, 181184, Note_on_c, 3, 67, 81
6, 181226, Note_on_c, 3, 63, 0
6, 181226, Note_on_c, 3, 67, 0
6, 181248, Note_on_c, 3, 63, 79
6, 181248, Note_on_c, 3, 67, 78
6, 181374, Note_on_c, 3, 63, 0
6, 181374, Note_on_c, 3, 67, 0
6, 181376, Note_on_c, 3, 63, 80
6, 181376, Note_on_c, 3, 67, 87
6, 181418, Note_on_c, 3, 63, 0
6, 181418, Note_on_c, 3, 67, 0
6, 181440, Note_on_c, 3, 63, 85
6, 181440, Note_on_c, 3, 67, 91
6, 181482, Note_on_c, 3, 63, 0
6, 181482, Note_on_c, 3, 67, 0
6, 181504, Note_on_c, 3, 63, 83
6, 181504, Note_on_c, 3, 67, 89
6, 181546, Note_on_c, 3, 63, 0
6, 181546, Note_on_c, 3, 67, 0
6, 181568, Note_on_c, 3, 67, 85
6, 181568, Note_on_c, 3, 63, 90
6, 181610, Note_on_c, 3, 67, 0
6, 181610, Note_on_c, 3, 63, 0
6, 181632, Note_on_c, 3, 67, 93
6, 181632, Note_on_c, 3, 63, 92
6, 181758, Note_on_c, 3, 67, 0
6, 181758, Note_on_c, 3, 63, 0
6, 181760, Note_on_c, 3, 63, 90
6, 181760, Note_on_c, 3, 67, 91
6, 181802, Note_on_c, 3, 63, 0
6, 181802, Note_on_c, 3, 67, 0
6, 181824, Note_on_c, 3, 63, 88
6, 181824, Note_on_c, 3, 67, 87
6, 181866, Note_on_c, 3, 63, 0
6, 181866, Note_on_c, 3, 67, 0
6, 181888, Note_on_c, 3, 63, 90
6, 181888, Note_on_c, 3, 67, 90
6, 181930, Note_on_c, 3, 63, 0
6, 181930, Note_on_c, 3, 67, 0
6, 181952, Note_on_c, 3, 63, 92
6, 181952, Note_on_c, 3, 67, 93
6, 181994, Note_on_c, 3, 63, 0
6, 181994, Note_on_c, 3, 67, 0
6, 182016, Note_on_c, 3, 63, 97
6, 182016, Note_on_c, 3, 67, 100
6, 182142, Note_on_c, 3, 63, 0
6, 182142, Note_on_c, 3, 67, 0
6, 182144, Note_on_c, 3, 63, 97
6, 182144, Note_on_c, 3, 67, 101
6, 182186, Note_on_c, 3, 63, 0
6, 182186, Note_on_c, 3, 67, 0
6, 182208, Note_on_c, 3, 63, 101
6, 182208, Note_on_c, 3, 67, 103
6, 182250, Note_on_c, 3, 63, 0
6, 182250, Note_on_c, 3, 67, 0
6, 182272, Note_on_c, 3, 67, 97
6, 182272, Note_on_c, 3, 63, 98
6, 182314, Note_on_c, 3, 67, 0
6, 182314, Note_on_c, 3, 63, 0
6, 182336, Note_on_c, 3, 67, 100
6, 182336, Note_on_c, 3, 63, 100
6, 182378, Note_on_c, 3, 67, 0
6, 182378, Note_on_c, 3, 63, 0
6, 182400, Note_on_c, 3, 67, 98
6, 182400, Note_on_c, 3, 63, 97
6, 182526, Note_on_c, 3, 67, 0
6, 182526, Note_on_c, 3, 63, 0
6, 182528, Note_on_c, 3, 67, 101
6, 182528, Note_on_c, 3, 63, 100
6, 182570, Note_on_c, 3, 67, 0
6, 182570, Note_on_c, 3, 63, 0
6, 182592, Note_on_c, 3, 67, 100
6, 182592, Note_on_c, 3, 63, 105
6, 182634, Note_on_c, 3, 67, 0
6, 182634, Note_on_c, 3, 63, 0
6, 182656, Note_on_c, 3, 67, 107
6, 182656, Note_on_c, 3, 63, 103
6, 182698, Note_on_c, 3, 67, 0
6, 182698, Note_on_c, 3, 63, 0
6, 182720, Note_on_c, 3, 67, 105
6, 182720, Note_on_c, 3, 63, 108
6, 182762, Note_on_c, 3, 67, 0
6, 182762, Note_on_c, 3, 63, 0
6, 182784, Note_on_c, 3, 65, 108
6, 182784, Control_c, 3, 11, 92
6, 182784, Note_on_c, 3, 77, 111
6, 182789, Control_c, 3, 11, 93
6, 182794, Control_c, 3, 11, 94
6, 182800, Control_c, 3, 11, 95
6, 182805, Control_c, 3, 11, 96
6, 182811, Control_c, 3, 11, 97
6, 182816, Control_c, 3, 11, 98
6, 182822, Control_c, 3, 11, 99
6, 182827, Control_c, 3, 11, 100
6, 182832, Note_on_c, 3, 65, 0
6, 182832, Note_on_c, 3, 77, 0
6, 182832, Note_on_c, 3, 76, 103
6, 182832, Note_on_c, 3, 64, 103
6, 182833, Control_c, 3, 11, 101
6, 182838, Control_c, 3, 11, 102
6, 182844, Control_c, 3, 11, 103
6, 182849, Control_c, 3, 11, 104
6, 182855, Control_c, 3, 11, 105
6, 182860, Control_c, 3, 11, 106
6, 182866, Control_c, 3, 11, 107
6, 182871, Control_c, 3, 11, 108
6, 182877, Control_c, 3, 11, 109
6, 182882, Control_c, 3, 11, 110
6, 182888, Control_c, 3, 11, 111
6, 182893, Control_c, 3, 11, 112
6, 182899, Control_c, 3, 11, 113
6, 182904, Control_c, 3, 11, 114
6, 182910, Control_c, 3, 11, 115
6, 182915, Control_c, 3, 11, 116
6, 182921, Control_c, 3, 11, 117
6, 182926, Control_c, 3, 11, 118
6, 182932, Control_c, 3, 11, 119
6, 182937, Control_c, 3, 11, 120
6, 182943, Control_c, 3, 11, 121
6, 182948, Control_c, 3, 11, 122
6, 182954, Control_c, 3, 11, 123
6, 182959, Control_c, 3, 11, 124
6, 182965, Control_c, 3, 11, 125
6, 182970, Control_c, 3, 11, 126
6, 182976, Control_c, 3, 11, 127
6, 183552, Control_c, 3, 11, 92
6, 183573, Control_c, 3, 11, 93
6, 183595, Control_c, 3, 11, 94
6, 183617, Control_c, 3, 11, 95
6, 183639, Control_c, 3, 11, 96
6, 183661, Control_c, 3, 11, 97
6, 183683, Control_c, 3, 11, 98
6, 183705, Control_c, 3, 11, 99
6, 183727, Control_c, 3, 11, 100
6, 183749, Control_c, 3, 11, 101
6, 183771, Control_c, 3, 11, 102
6, 183793, Control_c, 3, 11, 103
6, 183815, Control_c, 3, 11, 104
6, 183837, Control_c, 3, 11, 105
6, 183859, Control_c, 3, 11, 106
6, 183881, Control_c, 3, 11, 107
6, 183903, Control_c, 3, 11, 108
6, 183925, Control_c, 3, 11, 109
6, 183936, Note_on_c, 3, 76, 0
6, 183936, Note_on_c, 3, 64, 0
6, 183936, Note_on_c, 3, 65, 105
6, 183936, Note_on_c, 3, 77, 108
6, 183946, Control_c, 3, 11, 110
6, 183968, Control_c, 3, 11, 111
6, 183990, Control_c, 3, 11, 112
6, 184012, Control_c, 3, 11, 113
6, 184034, Control_c, 3, 11, 114
6, 184056, Control_c, 3, 11, 115
6, 184078, Control_c, 3, 11, 116
6, 184100, Control_c, 3, 11, 117
6, 184122, Control_c, 3, 11, 118
6, 184144, Control_c, 3, 11, 119
6, 184166, Control_c, 3, 11, 120
6, 184188, Control_c, 3, 11, 121
6, 184210, Control_c, 3, 11, 122
6, 184232, Control_c, 3, 11, 123
6, 184254, Control_c, 3, 11, 124
6, 184272, Note_on_c, 3, 65, 0
6, 184272, Note_on_c, 3, 77, 0
6, 184276, Control_c, 3, 11, 125
6, 184298, Control_c, 3, 11, 126
6, 184320, Control_c, 3, 11, 92
6, 184320, Note_on_c, 3, 65, 107
6, 184320, Control_c, 3, 11, 127
6, 184320, Note_on_c, 3, 77, 109
6, 184325, Control_c, 3, 11, 93
6, 184330, Control_c, 3, 11, 94
6, 184336, Control_c, 3, 11, 95
6, 184341, Control_c, 3, 11, 96
6, 184347, Control_c, 3, 11, 97
6, 184352, Control_c, 3, 11, 98
6, 184358, Control_c, 3, 11, 99
6, 184363, Control_c, 3, 11, 100
6, 184368, Note_on_c, 3, 65, 0
6, 184368, Note_on_c, 3, 77, 0
6, 184368, Note_on_c, 3, 64, 104
6, 184368, Note_on_c, 3, 76, 109
6, 184369, Control_c, 3, 11, 101
6, 184374, Control_c, 3, 11, 102
6, 184380, Control_c, 3, 11, 103
6, 184385, Control_c, 3, 11, 104
6, 184391, Control_c, 3, 11, 105
6, 184396, Control_c, 3, 11, 106
6, 184402, Control_c, 3, 11, 107
6, 184407, Control_c, 3, 11, 108
6, 184413, Control_c, 3, 11, 109
6, 184418, Control_c, 3, 11, 110
6, 184424, Control_c, 3, 11, 111
6, 184429, Control_c, 3, 11, 112
6, 184435, Control_c, 3, 11, 113
6, 184440, Control_c, 3, 11, 114
6, 184446, Control_c, 3, 11, 115
6, 184451, Control_c, 3, 11, 116
6, 184457, Control_c, 3, 11, 117
6, 184462, Control_c, 3, 11, 118
6, 184468, Control_c, 3, 11, 119
6, 184473, Control_c, 3, 11, 120
6, 184479, Control_c, 3, 11, 121
6, 184484, Control_c, 3, 11, 122
6, 184490, Control_c, 3, 11, 123
6, 184495, Control_c, 3, 11, 124
6, 184501, Control_c, 3, 11, 125
6, 184506, Control_c, 3, 11, 126
6, 184512, Control_c, 3, 11, 127
6, 185088, Control_c, 3, 11, 92
6, 185109, Control_c, 3, 11, 93
6, 185131, Control_c, 3, 11, 94
6, 185153, Control_c, 3, 11, 95
6, 185175, Control_c, 3, 11, 96
6, 185197, Control_c, 3, 11, 97
6, 185219, Control_c, 3, 11, 98
6, 185241, Control_c, 3, 11, 99
6, 185263, Control_c, 3, 11, 100
6, 185285, Control_c, 3, 11, 101
6, 185307, Control_c, 3, 11, 102
6, 185329, Control_c, 3, 11, 103
6, 185351, Control_c, 3, 11, 104
6, 185373, Control_c, 3, 11, 105
6, 185395, Control_c, 3, 11, 106
6, 185417, Control_c, 3, 11, 107
6, 185439, Control_c, 3, 11, 108
6, 185461, Control_c, 3, 11, 109
6, 185472, Note_on_c, 3, 64, 0
6, 185472, Note_on_c, 3, 76, 0
6, 185472, Note_on_c, 3, 77, 110
6, 185472, Note_on_c, 3, 65, 107
6, 185482, Control_c, 3, 11, 110
6, 185504, Control_c, 3, 11, 111
6, 185526, Control_c, 3, 11, 112
6, 185548, Control_c, 3, 11, 113
6, 185570, Control_c, 3, 11, 114
6, 185592, Control_c, 3, 11, 115
6, 185614, Control_c, 3, 11, 116
6, 185636, Control_c, 3, 11, 117
6, 185658, Control_c, 3, 11, 118
6, 185664, Note_on_c, 3, 77, 0
6, 185664, Note_on_c, 3, 65, 0
6, 185664, Note_on_c, 3, 80, 103
6, 185664, Note_on_c, 3, 68, 106
6, 185680, Control_c, 3, 11, 119
6, 185702, Control_c, 3, 11, 120
6, 185724, Control_c, 3, 11, 121
6, 185746, Control_c, 3, 11, 122
6, 185768, Control_c, 3, 11, 123
6, 185790, Control_c, 3, 11, 124
6, 185812, Control_c, 3, 11, 125
6, 185824, Note_on_c, 3, 80, 0
6, 185824, Note_on_c, 3, 68, 0
6, 185834, Control_c, 3, 11, 126
6, 185856, Control_c, 3, 11, 92
6, 185856, Control_c, 3, 11, 127
6, 185856, Note_on_c, 3, 77, 104
6, 185856, Note_on_c, 3, 65, 104
6, 185861, Control_c, 3, 11, 93
6, 185866, Control_c, 3, 11, 94
6, 185872, Control_c, 3, 11, 95
6, 185877, Control_c, 3, 11, 96
6, 185883, Control_c, 3, 11, 97
6, 185888, Control_c, 3, 11, 98
6, 185894, Control_c, 3, 11, 99
6, 185899, Control_c, 3, 11, 100
6, 185904, Note_on_c, 3, 77, 0
6, 185904, Note_on_c, 3, 65, 0
6, 185904, Note_on_c, 3, 64, 109
6, 185904, Note_on_c, 3, 76, 107
6, 185905, Control_c, 3, 11, 101
6, 185910, Control_c, 3, 11, 102
6, 185916, Control_c, 3, 11, 103
6, 185921, Control_c, 3, 11, 104
6, 185927, Control_c, 3, 11, 105
6, 185932, Control_c, 3, 11, 106
6, 185938, Control_c, 3, 11, 107
6, 185943, Control_c, 3, 11, 108
6, 185949, Control_c, 3, 11, 109
6, 185954, Control_c, 3, 11, 110
6, 185960, Control_c, 3, 11, 111
6, 185965, Control_c, 3, 11, 112
6, 185971, Control_c, 3, 11, 113
6, 185976, Control_c, 3, 11, 114
6, 185982, Control_c, 3, 11, 115
6, 185987, Control_c, 3, 11, 116
6, 185993, Control_c, 3, 11, 117
6, 185998, Control_c, 3, 11, 118
6, 186004, Control_c, 3, 11, 119
6, 186009, Control_c, 3, 11, 120
6, 186015, Control_c, 3, 11, 121
6, 186020, Control_c, 3, 11, 122
6, 186026, Control_c, 3, 11, 123
6, 186031, Control_c, 3, 11, 124
6, 186037, Control_c, 3, 11, 125
6, 186042, Control_c, 3, 11, 126
6, 186048, Control_c, 3, 11, 127
6, 186624, Control_c, 3, 11, 92
6, 186645, Control_c, 3, 11, 93
6, 186667, Control_c, 3, 11, 94
6, 186689, Control_c, 3, 11, 95
6, 186711, Control_c, 3, 11, 96
6, 186733, Control_c, 3, 11, 97
6, 186755, Control_c, 3, 11, 98
6, 186777, Control_c, 3, 11, 99
6, 186799, Control_c, 3, 11, 100
6, 186821, Control_c, 3, 11, 101
6, 186843, Control_c, 3, 11, 102
6, 186865, Control_c, 3, 11, 103
6, 186887, Control_c, 3, 11, 104
6, 186909, Control_c, 3, 11, 105
6, 186931, Control_c, 3, 11, 106
6, 186953, Control_c, 3, 11, 107
6, 186975, Control_c, 3, 11, 108
6, 186997, Control_c, 3, 11, 109
6, 187008, Note_on_c, 3, 64, 0
6, 187008, Note_on_c, 3, 76, 0
6, 187008, Note_on_c, 3, 65, 105
6, 187008, Note_on_c, 3, 77, 105
6, 187018, Control_c, 3, 11, 110
6, 187040, Control_c, 3, 11, 111
6, 187062, Control_c, 3, 11, 112
6, 187084, Control_c, 3, 11, 113
6, 187106, Control_c, 3, 11, 114
6, 187128, Control_c, 3, 11, 115
6, 187150, Control_c, 3, 11, 116
6, 187172, Control_c, 3, 11, 117
6, 187194, Control_c, 3, 11, 118
6, 187216, Control_c, 3, 11, 119
6, 187238, Control_c, 3, 11, 120
6, 187260, Control_c, 3, 11, 121
6, 187282, Control_c, 3, 11, 122
6, 187304, Control_c, 3, 11, 123
6, 187326, Control_c, 3, 11, 124
6, 187344, Note_on_c, 3, 65, 0
6, 187344, Note_on_c, 3, 77, 0
6, 187348, Control_c, 3, 11, 125
6, 187370, Control_c, 3, 11, 126
6, 187392, Control_c, 3, 11, 92
6, 187392, Note_on_c, 3, 77, 103
6, 187392, Note_on_c, 3, 65, 108
6, 187392, Control_c, 3, 11, 127
6, 187397, Control_c, 3, 11, 93
6, 187402, Control_c, 3, 11, 94
6, 187408, Control_c, 3, 11, 95
6, 187413, Control_c, 3, 11, 96
6, 187419, Control_c, 3, 11, 97
6, 187424, Control_c, 3, 11, 98
6, 187430, Control_c, 3, 11, 99
6, 187435, Control_c, 3, 11, 100
6, 187440, Note_on_c, 3, 77, 0
6, 187440, Note_on_c, 3, 65, 0
6, 187440, Note_on_c, 3, 64, 104
6, 187440, Note_on_c, 3, 76, 111
6, 187441, Control_c, 3, 11, 101
6, 187446, Control_c, 3, 11, 102
6, 187452, Control_c, 3, 11, 103
6, 187457, Control_c, 3, 11, 104
6, 187463, Control_c, 3, 11, 105
6, 187468, Control_c, 3, 11, 106
6, 187474, Control_c, 3, 11, 107
6, 187479, Control_c, 3, 11, 108
6, 187485, Control_c, 3, 11, 109
6, 187490, Control_c, 3, 11, 110
6, 187496, Control_c, 3, 11, 111
6, 187501, Control_c, 3, 11, 112
6, 187507, Control_c, 3, 11, 113
6, 187512, Control_c, 3, 11, 114
6, 187518, Control_c, 3, 11, 115
6, 187523, Control_c, 3, 11, 116
6, 187529, Control_c, 3, 11, 117
6, 187534, Control_c, 3, 11, 118
6, 187540, Control_c, 3, 11, 119
6, 187545, Control_c, 3, 11, 120
6, 187551, Control_c, 3, 11, 121
6, 187556, Control_c, 3, 11, 122
6, 187562, Control_c, 3, 11, 123
6, 187567, Control_c, 3, 11, 124
6, 187573, Control_c, 3, 11, 125
6, 187578, Control_c, 3, 11, 126
6, 187584, Control_c, 3, 11, 127
6, 188160, Control_c, 3, 11, 92
6, 188181, Control_c, 3, 11, 93
6, 188203, Control_c, 3, 11, 94
6, 188225, Control_c, 3, 11, 95
6, 188247, Control_c, 3, 11, 96
6, 188269, Control_c, 3, 11, 97
6, 188291, Control_c, 3, 11, 98
6, 188313, Control_c, 3, 11, 99
6, 188335, Control_c, 3, 11, 100
6, 188357, Control_c, 3, 11, 101
6, 188379, Control_c, 3, 11, 102
6, 188401, Control_c, 3, 11, 103
6, 188423, Control_c, 3, 11, 104
6, 188445, Control_c, 3, 11, 105
6, 188467, Control_c, 3, 11, 106
6, 188489, Control_c, 3, 11, 107
6, 188511, Control_c, 3, 11, 108
6, 188533, Control_c, 3, 11, 109
6, 188544, Note_on_c, 3, 64, 0
6, 188544, Note_on_c, 3, 76, 0
6, 188544, Note_on_c, 3, 65, 107
6, 188544, Note_on_c, 3, 77, 107
6, 188554, Control_c, 3, 11, 110
6, 188576, Control_c, 3, 11, 111
6, 188598, Control_c, 3, 11, 112
6, 188620, Control_c, 3, 11, 113
6, 188642, Control_c, 3, 11, 114
6, 188664, Control_c, 3, 11, 115
6, 188686, Control_c, 3, 11, 116
6, 188708, Control_c, 3, 11, 117
6, 188730, Control_c, 3, 11, 118
6, 188736, Note_on_c, 3, 65, 0
6, 188736, Note_on_c, 3, 77, 0
6, 188736, Note_on_c, 3, 80, 113
6, 188736, Note_on_c, 3, 68, 109
6, 188752, Control_c, 3, 11, 119
6, 188774, Control_c, 3, 11, 120
6, 188796, Control_c, 3, 11, 121
6, 188818, Control_c, 3, 11, 122
6, 188840, Control_c, 3, 11, 123
6, 188862, Control_c, 3, 11, 124
6, 188884, Control_c, 3, 11, 125
6, 188896, Note_on_c, 3, 80, 0
6, 188896, Note_on_c, 3, 68, 0
6, 188906, Control_c, 3, 11, 126
6, 188928, Note_on_c, 3, 73, 73
6, 188928, Control_c, 3, 11, 75
6, 188928, Control_c, 3, 11, 127
6, 188928, Note_on_c, 3, 76, 72
6, 190416, Note_on_c, 3, 73, 0
6, 190416, Note_on_c, 3, 76, 0
6, 190464, Note_on_c, 3, 73, 80
6, 190464, Note_on_c, 3, 76, 78
6, 191952, Note_on_c, 3, 73, 0
6, 191952, Note_on_c, 3, 76, 0
6, 192000, Note_on_c, 3, 74, 72
6, 192000, Note_on_c, 3, 77, 72
6, 192384, Note_on_c, 3, 74, 0
6, 192384, Note_on_c, 3, 77, 0
6, 192384, Note_on_c, 3, 78, 76
6, 192384, Note_on_c, 3, 75, 75
6, 192720, Note_on_c, 3, 78, 0
6, 192720, Note_on_c, 3, 75, 0
6, 192768, Note_on_c, 3, 71, 83
6, 192768, Note_on_c, 3, 68, 76
6, 193152, Note_on_c, 3, 71, 0
6, 193152, Note_on_c, 3, 68, 0
6, 193152, Note_on_c, 3, 70, 87
6, 193152, Note_on_c, 3, 73, 88
6, 193488, Note_on_c, 3, 70, 0
6, 193488, Note_on_c, 3, 73, 0
6, 193536, Note_on_c, 3, 68, 92
6, 193536, Note_on_c, 3, 72, 84
6, 193870, Note_on_c, 3, 68, 0
6, 193870, Note_on_c, 3, 72, 0
6, 193872, Note_on_c, 3, 67, 89
6, 193872, Note_on_c, 3, 71, 90
6, 193918, Note_on_c, 3, 67, 0
6, 193918, Note_on_c, 3, 71, 0
6, 193920, Note_on_c, 3, 66, 89
6, 193920, Note_on_c, 3, 70, 90
6, 194254, Note_on_c, 3, 66, 0
6, 194254, Note_on_c, 3, 70, 0
6, 194256, Note_on_c, 3, 65, 96
6, 194256, Note_on_c, 3, 68, 90
6, 194302, Note_on_c, 3, 65, 0
6, 194302, Note_on_c, 3, 68, 0
6, 194304, Note_on_c, 3, 60, 87
6, 194304, Note_on_c, 3, 64, 87
6, 194424, Note_on_c, 3, 60, 0
6, 194424, Note_on_c, 3, 64, 0
6, 194496, Note_on_c, 3, 64, 89
6, 194496, Note_on_c, 3, 68, 91
6, 194616, Note_on_c, 3, 64, 0
6, 194616, Note_on_c, 3, 68, 0
6, 194688, Note_on_c, 3, 71, 91
6, 194688, Note_on_c, 3, 68, 91
6, 195456, Note_on_c, 3, 71, 0
6, 195456, Note_on_c, 3, 68, 0
6, 195456, Note_on_c, 3, 76, 104
6, 195456, Note_on_c, 3, 72, 102
6, 195792, Note_on_c, 3, 76, 0
6, 195792, Note_on_c, 3, 72, 0
6, 195840, Note_on_c, 3, 69, 110
6, 195840, Note_on_c, 3, 81, 110
6, 195840, Control_c, 3, 11, 92
6, 195931, Note_on_c, 3, 69, 0
6, 195931, Note_on_c, 3, 81, 0
6, 195968, Note_on_c, 3, 69, 110
6, 195968, Note_on_c, 3, 81, 103
6, 196059, Note_on_c, 3, 69, 0
6, 196059, Note_on_c, 3, 81, 0
6, 196096, Note_on_c, 3, 68, 105
6, 196096, Note_on_c, 3, 80, 105
6, 196224, Note_on_c, 3, 68, 0
6, 196224, Note_on_c, 3, 80, 0
6, 196224, Note_on_c, 3, 68, 113
6, 196224, Note_on_c, 3, 80, 112
6, 196992, Note_on_c, 3, 68, 0
6, 196992, Note_on_c, 3, 80, 0
6, 196992, Control_c, 3, 11, 92
6, 196992, Note_on_c, 3, 81, 106
6, 196992, Note_on_c, 3, 69, 103
6, 197002, Control_c, 3, 11, 93
6, 197013, Control_c, 3, 11, 94
6, 197024, Control_c, 3, 11, 95
6, 197035, Control_c, 3, 11, 96
6, 197046, Control_c, 3, 11, 97
6, 197057, Control_c, 3, 11, 98
6, 197068, Control_c, 3, 11, 99
6, 197079, Control_c, 3, 11, 100
6, 197083, Note_on_c, 3, 81, 0
6, 197083, Note_on_c, 3, 69, 0
6, 197090, Control_c, 3, 11, 101
6, 197101, Control_c, 3, 11, 102
6, 197112, Control_c, 3, 11, 103
6, 197120, Note_on_c, 3, 81, 105
6, 197120, Note_on_c, 3, 69, 104
6, 197123, Control_c, 3, 11, 104
6, 197134, Control_c, 3, 11, 105
6, 197145, Control_c, 3, 11, 106
6, 197156, Control_c, 3, 11, 107
6, 197167, Control_c, 3, 11, 108
6, 197178, Control_c, 3, 11, 109
6, 197189, Control_c, 3, 11, 110
6, 197200, Control_c, 3, 11, 111
6, 197211, Note_on_c, 3, 81, 0
6, 197211, Note_on_c, 3, 69, 0
6, 197211, Control_c, 3, 11, 112
6, 197222, Control_c, 3, 11, 113
6, 197233, Control_c, 3, 11, 114
6, 197244, Control_c, 3, 11, 115
6, 197248, Note_on_c, 3, 68, 105
6, 197248, Note_on_c, 3, 80, 108
6, 197255, Control_c, 3, 11, 116
6, 197266, Control_c, 3, 11, 117
6, 197277, Control_c, 3, 11, 118
6, 197288, Control_c, 3, 11, 119
6, 197299, Control_c, 3, 11, 120
6, 197310, Control_c, 3, 11, 121
6, 197321, Control_c, 3, 11, 122
6, 197332, Control_c, 3, 11, 123
6, 197343, Control_c, 3, 11, 124
6, 197354, Control_c, 3, 11, 125
6, 197365, Control_c, 3, 11, 126
6, 197374, Note_on_c, 3, 68, 0
6, 197374, Note_on_c, 3, 80, 0
6, 197376, Note_on_c, 3, 82, 106
6, 197376, Note_on_c, 3, 70, 110
6, 197376, Control_c, 3, 11, 92
6, 197376, Control_c, 3, 11, 127
6, 197467, Note_on_c, 3, 82, 0
6, 197467, Note_on_c, 3, 70, 0
6, 197504, Note_on_c, 3, 82, 112
6, 197504, Note_on_c, 3, 70, 104
6, 197595, Note_on_c, 3, 82, 0
6, 197595, Note_on_c, 3, 70, 0
6, 197632, Note_on_c, 3, 80, 110
6, 197632, Note_on_c, 3, 68, 104
6, 197760, Note_on_c, 3, 80, 0
6, 197760, Note_on_c, 3, 68, 0
6, 197760, Note_on_c, 3, 80, 104
6, 197760, Note_on_c, 3, 68, 112
6, 198528, Note_on_c, 3, 80, 0
6, 198528, Note_on_c, 3, 68, 0
6, 198528, Note_on_c, 3, 70, 107
6, 198528, Control_c, 3, 11, 92
6, 198528, Note_on_c, 3, 82, 104
6, 198538, Control_c, 3, 11, 93
6, 198549, Control_c, 3, 11, 94
6, 198560, Control_c, 3, 11, 95
6, 198571, Control_c, 3, 11, 96
6, 198582, Control_c, 3, 11, 97
6, 198593, Control_c, 3, 11, 98
6, 198604, Control_c, 3, 11, 99
6, 198615, Control_c, 3, 11, 100
6, 198619, Note_on_c, 3, 70, 0
6, 198619, Note_on_c, 3, 82, 0
6, 198626, Control_c, 3, 11, 101
6, 198637, Control_c, 3, 11, 102
6, 198648, Control_c, 3, 11, 103
6, 198656, Note_on_c, 3, 70, 104
6, 198656, Note_on_c, 3, 82, 108
6, 198659, Control_c, 3, 11, 104
6, 198670, Control_c, 3, 11, 105
6, 198681, Control_c, 3, 11, 106
6, 198692, Control_c, 3, 11, 107
6, 198703, Control_c, 3, 11, 108
6, 198714, Control_c, 3, 11, 109
6, 198725, Control_c, 3, 11, 110
6, 198736, Control_c, 3, 11, 111
6, 198747, Note_on_c, 3, 70, 0
6, 198747, Note_on_c, 3, 82, 0
6, 198747, Control_c, 3, 11, 112
6, 198758, Control_c, 3, 11, 113
6, 198769, Control_c, 3, 11, 114
6, 198780, Control_c, 3, 11, 115
6, 198784, Note_on_c, 3, 80, 107
6, 198784, Note_on_c, 3, 68, 107
6, 198791, Control_c, 3, 11, 116
6, 198802, Control_c, 3, 11, 117
6, 198813, Control_c, 3, 11, 118
6, 198824, Control_c, 3, 11, 119
6, 198835, Control_c, 3, 11, 120
6, 198846, Control_c, 3, 11, 121
6, 198857, Control_c, 3, 11, 122
6, 198868, Control_c, 3, 11, 123
6, 198879, Control_c, 3, 11, 124
6, 198890, Control_c, 3, 11, 125
6, 198901, Control_c, 3, 11, 126
6, 198910, Note_on_c, 3, 80, 0
6, 198910, Note_on_c, 3, 68, 0
6, 198912, Control_c, 3, 11, 127
6, 198912, Note_on_c, 3, 75, 75
6, 198912, Note_on_c, 3, 70, 75
6, 199003, Note_on_c, 3, 75, 0
6, 199003, Note_on_c, 3, 70, 0
6, 199040, Note_on_c, 3, 70, 78
6, 199040, Note_on_c, 3, 75, 74
6, 199131, Note_on_c, 3, 70, 0
6, 199131, Note_on_c, 3, 75, 0
6, 199168, Note_on_c, 3, 65, 70
6, 199168, Note_on_c, 3, 73, 71
6, 199259, Note_on_c, 3, 65, 0
6, 199259, Note_on_c, 3, 73, 0
6, 199296, Note_on_c, 3, 70, 77
6, 199296, Note_on_c, 3, 75, 80
6, 199387, Note_on_c, 3, 70, 0
6, 199387, Note_on_c, 3, 75, 0
6, 199424, Note_on_c, 3, 70, 80
6, 199424, Note_on_c, 3, 75, 79
6, 199515, Note_on_c, 3, 70, 0
6, 199515, Note_on_c, 3, 75, 0
6, 199552, Note_on_c, 3, 65, 80
6, 199552, Note_on_c, 3, 73, 79
6, 199643, Note_on_c, 3, 65, 0
6, 199643, Note_on_c, 3, 73, 0
6, 199680, Note_on_c, 3, 70, 74
6, 199680, Note_on_c, 3, 75, 74
6, 199771, Note_on_c, 3, 70, 0
6, 199771, Note_on_c, 3, 75, 0
6, 199808, Note_on_c, 3, 70, 79
6, 199808, Note_on_c, 3, 75, 77
6, 199899, Note_on_c, 3, 70, 0
6, 199899, Note_on_c, 3, 75, 0
6, 199936, Note_on_c, 3, 65, 72
6, 199936, Note_on_c, 3, 73, 76
6, 200027, Note_on_c, 3, 65, 0
6, 200027, Note_on_c, 3, 73, 0
6, 200064, Note_on_c, 3, 75, 74
6, 200064, Note_on_c, 3, 70, 72
6, 200155, Note_on_c, 3, 75, 0
6, 200155, Note_on_c, 3, 70, 0
6, 200192, Note_on_c, 3, 75, 79
6, 200192, Note_on_c, 3, 70, 79
6, 200283, Note_on_c, 3, 75, 0
6, 200283, Note_on_c, 3, 70, 0
6, 200320, Note_on_c, 3, 65, 74
6, 200320, Note_on_c, 3, 73, 80
6, 200411, Note_on_c, 3, 65, 0
6, 200411, Note_on_c, 3, 73, 0
6, 200448, Note_on_c, 3, 70, 71
6, 200448, Note_on_c, 3, 75, 79
6, 200539, Note_on_c, 3, 70, 0
6, 200539, Note_on_c, 3, 75, 0
6, 200576, Note_on_c, 3, 70, 71
6, 200576, Note_on_c, 3, 75, 71
6, 200667, Note_on_c, 3, 70, 0
6, 200667, Note_on_c, 3, 75, 0
6, 200704, Note_on_c, 3, 65, 79
6, 200704, Note_on_c, 3, 73, 78
6, 200795, Note_on_c, 3, 65, 0
6, 200795, Note_on_c, 3, 73, 0
6, 200832, Note_on_c, 3, 70, 79
6, 200832, Note_on_c, 3, 75, 73
6, 200923, Note_on_c, 3, 70, 0
6, 200923, Note_on_c, 3, 75, 0
6, 200960, Note_on_c, 3, 70, 73
6, 200960, Note_on_c, 3, 75, 74
6, 201051, Note_on_c, 3, 70, 0
6, 201051, Note_on_c, 3, 75, 0
6, 201088, Note_on_c, 3, 65, 77
6, 201088, Note_on_c, 3, 73, 73
6, 201179, Note_on_c, 3, 65, 0
6, 201179, Note_on_c, 3, 73, 0
6, 201216, Note_on_c, 3, 75, 74
6, 201216, Note_on_c, 3, 70, 74
6, 201307, Note_on_c, 3, 75, 0
6, 201307, Note_on_c, 3, 70, 0
6, 201344, Note_on_c, 3, 75, 72
6, 201344, Note_on_c, 3, 70, 79
6, 201435, Note_on_c, 3, 75, 0
6, 201435, Note_on_c, 3, 70, 0
6, 201472, Note_on_c, 3, 73, 82
6, 201472, Note_on_c, 3, 65, 76
6, 201563, Note_on_c, 3, 73, 0
6, 201563, Note_on_c, 3, 65, 0
6, 201600, Note_on_c, 3, 75, 84
6, 201600, Note_on_c, 3, 70, 82
6, 201691, Note_on_c, 3, 75, 0
6, 201691, Note_on_c, 3, 70, 0
6, 201728, Note_on_c, 3, 75, 83
6, 201728, Note_on_c, 3, 70, 83
6, 201819, Note_on_c, 3, 75, 0
6, 201819, Note_on_c, 3, 70, 0
6, 201856, Note_on_c, 3, 73, 91
6, 201856, Note_on_c, 3, 65, 88
6, 201947, Note_on_c, 3, 73, 0
6, 201947, Note_on_c, 3, 65, 0
6, 201984, Note_on_c, 3, 73, 92
6, 201984, Note_on_c, 3, 68, 91
6, 202075, Note_on_c, 3, 73, 0
6, 202075, Note_on_c, 3, 68, 0
6, 202112, Note_on_c, 3, 73, 92
6, 202112, Note_on_c, 3, 68, 89
6, 202203, Note_on_c, 3, 73, 0
6, 202203, Note_on_c, 3, 68, 0
6, 202240, Note_on_c, 3, 75, 87
6, 202240, Note_on_c, 3, 66, 88
6, 202331, Note_on_c, 3, 75, 0
6, 202331, Note_on_c, 3, 66, 0
6, 202368, Note_on_c, 3, 68, 90
6, 202368, Note_on_c, 3, 73, 94
6, 202459, Note_on_c, 3, 68, 0
6, 202459, Note_on_c, 3, 73, 0
6, 202496, Note_on_c, 3, 73, 91
6, 202496, Note_on_c, 3, 68, 89
6, 202587, Note_on_c, 3, 73, 0
6, 202587, Note_on_c, 3, 68, 0
6, 202624, Note_on_c, 3, 66, 88
6, 202624, Note_on_c, 3, 75, 92
6, 202715, Note_on_c, 3, 66, 0
6, 202715, Note_on_c, 3, 75, 0
6, 202752, Note_on_c, 3, 68, 97
6, 202752, Note_on_c, 3, 73, 90
6, 202843, Note_on_c, 3, 68, 0
6, 202843, Note_on_c, 3, 73, 0
6, 202880, Note_on_c, 3, 68, 87
6, 202880, Note_on_c, 3, 73, 90
6, 202971, Note_on_c, 3, 68, 0
6, 202971, Note_on_c, 3, 73, 0
6, 203008, Note_on_c, 3, 66, 92
6, 203008, Note_on_c, 3, 75, 97
6, 203099, Note_on_c, 3, 66, 0
6, 203099, Note_on_c, 3, 75, 0
6, 203136, Note_on_c, 3, 70, 91
6, 203136, Note_on_c, 3, 75, 93
6, 203227, Note_on_c, 3, 70, 0
6, 203227, Note_on_c, 3, 75, 0
6, 203264, Note_on_c, 3, 70, 96
6, 203264, Note_on_c, 3, 75, 93
6, 203355, Note_on_c, 3, 70, 0
6, 203355, Note_on_c, 3, 75, 0
6, 203392, Note_on_c, 3, 68, 97
6, 203392, Note_on_c, 3, 77, 93
6, 203483, Note_on_c, 3, 68, 0
6, 203483, Note_on_c, 3, 77, 0
6, 203520, Note_on_c, 3, 73, 90
6, 203520, Note_on_c, 3, 68, 93
6, 203611, Note_on_c, 3, 73, 0
6, 203611, Note_on_c, 3, 68, 0
6, 203648, Note_on_c, 3, 68, 90
6, 203648, Note_on_c, 3, 73, 97
6, 203739, Note_on_c, 3, 68, 0
6, 203739, Note_on_c, 3, 73, 0
6, 203776, Note_on_c, 3, 66, 87
6, 203776, Note_on_c, 3, 75, 89
6, 203867, Note_on_c, 3, 66, 0
6, 203867, Note_on_c, 3, 75, 0
6, 203904, Note_on_c, 3, 68, 90
6, 203904, Note_on_c, 3, 73, 94
6, 203995, Note_on_c, 3, 68, 0
6, 203995, Note_on_c, 3, 73, 0
6, 204032, Note_on_c, 3, 68, 87
6, 204032, Note_on_c, 3, 73, 96
6, 204123, Note_on_c, 3, 68, 0
6, 204123, Note_on_c, 3, 73, 0
6, 204160, Note_on_c, 3, 66, 88
6, 204160, Note_on_c, 3, 75, 93
6, 204251, Note_on_c, 3, 66, 0
6, 204251, Note_on_c, 3, 75, 0
6, 204288, Note_on_c, 3, 65, 92
6, 204288, Note_on_c, 3, 70, 95
6, 204379, Note_on_c, 3, 65, 0
6, 204379, Note_on_c, 3, 70, 0
6, 204416, Note_on_c, 3, 65, 80
6, 204416, Note_on_c, 3, 70, 86
6, 204507, Note_on_c, 3, 65, 0
6, 204507, Note_on_c, 3, 70, 0
6, 204544, Note_on_c, 3, 72, 75
6, 204544, Note_on_c, 3, 63, 76
6, 204635, Note_on_c, 3, 72, 0
6, 204635, Note_on_c, 3, 63, 0
6, 204672, Note_on_c, 3, 70, 66
6, 204672, Note_on_c, 3, 65, 63
6, 204763, Note_on_c, 3, 70, 0
6, 204763, Note_on_c, 3, 65, 0
6, 204800, Note_on_c, 3, 70, 56
6, 204800, Note_on_c, 3, 65, 57
6, 204891, Note_on_c, 3, 70, 0
6, 204891, Note_on_c, 3, 65, 0
6, 204928, Note_on_c, 3, 72, 41
6, 204928, Note_on_c, 3, 63, 42
6, 205019, Note_on_c, 3, 72, 0
6, 205019, Note_on_c, 3, 63, 0
6, 205056, Note_on_c, 3, 75, 92
6, 205056, Note_on_c, 3, 70, 97
6, 205147, Note_on_c, 3, 75, 0
6, 205147, Note_on_c, 3, 70, 0
6, 205184, Note_on_c, 3, 75, 90
6, 205184, Note_on_c, 3, 70, 95
6, 205275, Note_on_c, 3, 75, 0
6, 205275, Note_on_c, 3, 70, 0
6, 205312, Note_on_c, 3, 73, 92
6, 205312, Note_on_c, 3, 65, 88
6, 205403, Note_on_c, 3, 73, 0
6, 205403, Note_on_c, 3, 65, 0
6, 205440, Note_on_c, 3, 75, 94
6, 205440, Note_on_c, 3, 70, 95
6, 205531, Note_on_c, 3, 75, 0
6, 205531, Note_on_c, 3, 70, 0
6, 205568, Note_on_c, 3, 75, 91
6, 205568, Note_on_c, 3, 70, 96
6, 205659, Note_on_c, 3, 75, 0
6, 205659, Note_on_c, 3, 70, 0
6, 205696, Note_on_c, 3, 73, 92
6, 205696, Note_on_c, 3, 65, 89
6, 205787, Note_on_c, 3, 73, 0
6, 205787, Note_on_c, 3, 65, 0
6, 205824, Note_on_c, 3, 70, 94
6, 205824, Note_on_c, 3, 75, 92
6, 205915, Note_on_c, 3, 70, 0
6, 205915, Note_on_c, 3, 75, 0
6, 205952, Note_on_c, 3, 70, 90
6, 205952, Note_on_c, 3, 75, 93
6, 206043, Note_on_c, 3, 70, 0
6, 206043, Note_on_c, 3, 75, 0
6, 206080, Note_on_c, 3, 65, 93
6, 206080, Note_on_c, 3, 73, 95
6, 206171, Note_on_c, 3, 65, 0
6, 206171, Note_on_c, 3, 73, 0
6, 206208, Note_on_c, 3, 70, 90
6, 206208, Note_on_c, 3, 75, 94
6, 206299, Note_on_c, 3, 70, 0
6, 206299, Note_on_c, 3, 75, 0
6, 206336, Note_on_c, 3, 70, 94
6, 206336, Note_on_c, 3, 75, 89
6, 206427, Note_on_c, 3, 70, 0
6, 206427, Note_on_c, 3, 75, 0
6, 206464, Note_on_c, 3, 65, 94
6, 206464, Note_on_c, 3, 73, 97
6, 206555, Note_on_c, 3, 65, 0
6, 206555, Note_on_c, 3, 73, 0
6, 206592, Note_on_c, 3, 70, 90
6, 206592, Note_on_c, 3, 75, 96
6, 206683, Note_on_c, 3, 70, 0
6, 206683, Note_on_c, 3, 75, 0
6, 206720, Note_on_c, 3, 70, 90
6, 206720, Note_on_c, 3, 75, 90
6, 206811, Note_on_c, 3, 70, 0
6, 206811, Note_on_c, 3, 75, 0
6, 206848, Note_on_c, 3, 65, 93
6, 206848, Note_on_c, 3, 73, 90
6, 206939, Note_on_c, 3, 65, 0
6, 206939, Note_on_c, 3, 73, 0
6, 206976, Note_on_c, 3, 75, 94
6, 206976, Note_on_c, 3, 70, 93
6, 207067, Note_on_c, 3, 75, 0
6, 207067, Note_on_c, 3, 70, 0
6, 207104, Note_on_c, 3, 75, 91
6, 207104, Note_on_c, 3, 70, 89
6, 207195, Note_on_c, 3, 75, 0
6, 207195, Note_on_c, 3, 70, 0
6, 207232, Note_on_c, 3, 73, 89
6, 207232, Note_on_c, 3, 65, 90
6, 207323, Note_on_c, 3, 73, 0
6, 207323, Note_on_c, 3, 65, 0
6, 207360, Note_on_c, 3, 75, 91
6, 207360, Note_on_c, 3, 70, 90
6, 207451, Note_on_c, 3, 75, 0
6, 207451, Note_on_c, 3, 70, 0
6, 207488, Note_on_c, 3, 75, 89
6, 207488, Note_on_c, 3, 70, 97
6, 207579, Note_on_c, 3, 75, 0
6, 207579, Note_on_c, 3, 70, 0
6, 207616, Note_on_c, 3, 73, 94
6, 207616, Note_on_c, 3, 65, 94
6, 207707, Note_on_c, 3, 73, 0
6, 207707, Note_on_c, 3, 65, 0
6, 207744, Note_on_c, 3, 75, 94
6, 207744, Note_on_c, 3, 70, 95
6, 207835, Note_on_c, 3, 75, 0
6, 207835, Note_on_c, 3, 70, 0
6, 207872, Note_on_c, 3, 75, 93
6, 207872, Note_on_c, 3, 70, 92
6, 207963, Note_on_c, 3, 75, 0
6, 207963, Note_on_c, 3, 70, 0
6, 208000, Note_on_c, 3, 73, 91
6, 208000, Note_on_c, 3, 65, 89
6, 208126, Note_on_c, 3, 73, 0
6, 208126, Note_on_c, 3, 65, 0
6, 208128, Note_on_c, 3, 77, 112
6, 208128, Note_on_c, 3, 68, 105
6, 208128, Control_c, 3, 11, 127
6, 208138, Control_c, 3, 11, 126
6, 208149, Control_c, 3, 11, 125
6, 208160, Control_c, 3, 11, 124
6, 208171, Control_c, 3, 11, 123
6, 208182, Control_c, 3, 11, 122
6, 208193, Control_c, 3, 11, 121
6, 208204, Control_c, 3, 11, 120
6, 208215, Control_c, 3, 11, 119
6, 208226, Control_c, 3, 11, 118
6, 208237, Control_c, 3, 11, 117
6, 208248, Control_c, 3, 11, 116
6, 208259, Control_c, 3, 11, 115
6, 208270, Control_c, 3, 11, 114
6, 208281, Control_c, 3, 11, 113
6, 208292, Control_c, 3, 11, 112
6, 208303, Control_c, 3, 11, 111
6, 208314, Control_c, 3, 11, 110
6, 208325, Control_c, 3, 11, 109
6, 208336, Control_c, 3, 11, 108
6, 208347, Control_c, 3, 11, 107
6, 208358, Control_c, 3, 11, 106
6, 208369, Control_c, 3, 11, 105
6, 208380, Control_c, 3, 11, 104
6, 208391, Control_c, 3, 11, 103
6, 208402, Control_c, 3, 11, 102
6, 208413, Control_c, 3, 11, 101
6, 208424, Control_c, 3, 11, 100
6, 208435, Control_c, 3, 11, 99
6, 208446, Control_c, 3, 11, 98
6, 208457, Control_c, 3, 11, 97
6, 208468, Control_c, 3, 11, 96
6, 208479, Control_c, 3, 11, 95
6, 208490, Control_c, 3, 11, 94
6, 208501, Control_c, 3, 11, 93
6, 208512, Control_c, 3, 11, 92
6, 209056, Note_on_c, 3, 77, 0
6, 209056, Note_on_c, 3, 68, 0
6, 209280, Control_c, 3, 11, 127
6, 209664, Note_on_c, 3, 63, 47
6, 209706, Note_on_c, 3, 63, 0
6, 209728, Note_on_c, 3, 63, 45
6, 209770, Note_on_c, 3, 63, 0
6, 209792, Note_on_c, 3, 61, 52
6, 209834, Note_on_c, 3, 61, 0
6, 209856, Note_on_c, 3, 57, 58
6, 209898, Note_on_c, 3, 57, 0
6, 209920, Note_on_c, 3, 57, 73
6, 209962, Note_on_c, 3, 57, 0
6, 209984, Note_on_c, 3, 61, 87
6, 210026, Note_on_c, 3, 61, 0
6, 210048, Note_on_c, 3, 63, 94
6, 210208, Note_on_c, 3, 63, 0
6, 210432, Note_on_c, 3, 63, 42
6, 210474, Note_on_c, 3, 63, 0
6, 210496, Note_on_c, 3, 63, 42
6, 210538, Note_on_c, 3, 63, 0
6, 210560, Note_on_c, 3, 61, 56
6, 210602, Note_on_c, 3, 61, 0
6, 210624, Note_on_c, 3, 57, 67
6, 210666, Note_on_c, 3, 57, 0
6, 210688, Note_on_c, 3, 57, 77
6, 210730, Note_on_c, 3, 57, 0
6, 210752, Note_on_c, 3, 61, 82
6, 210794, Note_on_c, 3, 61, 0
6, 210816, Note_on_c, 3, 63, 90
6, 210976, Note_on_c, 3, 63, 0
6, 211200, Note_on_c, 3, 68, 72
6, 211242, Note_on_c, 3, 68, 0
6, 211264, Note_on_c, 3, 68, 71
6, 211306, Note_on_c, 3, 68, 0
6, 211328, Note_on_c, 3, 66, 76
6, 211370, Note_on_c, 3, 66, 0
6, 211392, Note_on_c, 3, 63, 71
6, 211434, Note_on_c, 3, 63, 0
6, 211456, Note_on_c, 3, 63, 70
6, 211498, Note_on_c, 3, 63, 0
6, 211520, Note_on_c, 3, 66, 74
6, 211562, Note_on_c, 3, 66, 0
6, 211584, Note_on_c, 3, 68, 75
6, 211744, Note_on_c, 3, 68, 0
6, 211968, Note_on_c, 3, 68, 88
6, 211968, Note_on_c, 3, 80, 95
6, 212010, Note_on_c, 3, 68, 0
6, 212010, Note_on_c, 3, 80, 0
6, 212032, Note_on_c, 3, 68, 88
6, 212032, Note_on_c, 3, 80, 96
6, 212074, Note_on_c, 3, 68, 0
6, 212074, Note_on_c, 3, 80, 0
6, 212096, Note_on_c, 3, 66, 99
6, 212096, Note_on_c, 3, 78, 94
6, 212138, Note_on_c, 3, 66, 0
6, 212138, Note_on_c, 3, 78, 0
6, 212160, Note_on_c, 3, 63, 101
6, 212160, Note_on_c, 3, 75, 103
6, 212202, Note_on_c, 3, 63, 0
6, 212202, Note_on_c, 3, 75, 0
6, 212224, Note_on_c, 3, 63, 104
6, 212224, Note_on_c, 3, 75, 97
6, 212266, Note_on_c, 3, 63, 0
6, 212266, Note_on_c, 3, 75, 0
6, 212288, Note_on_c, 3, 78, 100
6, 212288, Note_on_c, 3, 66, 103
6, 212330, Note_on_c, 3, 78, 0
6, 212330, Note_on_c, 3, 66, 0
6, 212352, Note_on_c, 3, 68, 110
6, 212352, Note_on_c, 3, 80, 113
6, 212512, Note_on_c, 3, 68, 0
6, 212512, Note_on_c, 3, 80, 0
6, 212736, Note_on_c, 3, 68, 107
6, 212736, Note_on_c, 3, 77, 113
6, 213664, Note_on_c, 3, 68, 0
6, 213664, Note_on_c, 3, 77, 0
6, 214272, Note_on_c, 3, 63, 40
6, 214318, Note_on_c, 3, 63, 0
6, 214320, Note_on_c, 3, 61, 44
6, 214366, Note_on_c, 3, 61, 0
6, 214368, Note_on_c, 3, 63, 45
6, 214414, Note_on_c, 3, 63, 0
6, 214416, Note_on_c, 3, 65, 42
6, 214462, Note_on_c, 3, 65, 0
6, 214464, Note_on_c, 3, 63, 42
6, 214510, Note_on_c, 3, 63, 0
6, 214512, Note_on_c, 3, 61, 40
6, 214558, Note_on_c, 3, 61, 0
6, 214560, Note_on_c, 3, 58, 45
6, 214606, Note_on_c, 3, 58, 0
6, 214608, Note_on_c, 3, 61, 48
6, 214654, Note_on_c, 3, 61, 0
6, 214656, Note_on_c, 3, 63, 47
6, 214702, Note_on_c, 3, 63, 0
6, 214704, Note_on_c, 3, 61, 47
6, 214750, Note_on_c, 3, 61, 0
6, 214752, Note_on_c, 3, 63, 42
6, 214798, Note_on_c, 3, 63, 0
6, 214800, Note_on_c, 3, 65, 44
6, 214846, Note_on_c, 3, 65, 0
6, 214848, Note_on_c, 3, 63, 46
6, 214894, Note_on_c, 3, 63, 0
6, 214896, Note_on_c, 3, 61, 43
6, 214942, Note_on_c, 3, 61, 0
6, 214944, Note_on_c, 3, 58, 50
6, 214990, Note_on_c, 3, 58, 0
6, 214992, Note_on_c, 3, 61, 43
6, 215038, Note_on_c, 3, 61, 0
6, 215040, Note_on_c, 3, 63, 49
6, 215086, Note_on_c, 3, 63, 0
6, 215088, Note_on_c, 3, 61, 46
6, 215134, Note_on_c, 3, 61, 0
6, 215136, Note_on_c, 3, 63, 46
6, 215182, Note_on_c, 3, 63, 0
6, 215184, Note_on_c, 3, 65, 48
6, 215230, Note_on_c, 3, 65, 0
6, 215232, Note_on_c, 3, 63, 43
6, 215278, Note_on_c, 3, 63, 0
6, 215280, Note_on_c, 3, 61, 50
6, 215326, Note_on_c, 3, 61, 0
6, 215328, Note_on_c, 3, 58, 53
6, 215374, Note_on_c, 3, 58, 0
6, 215376, Note_on_c, 3, 61, 45
6, 215422, Note_on_c, 3, 61, 0
6, 215424, Note_on_c, 3, 63, 52
6, 215470, Note_on_c, 3, 63, 0
6, 215472, Note_on_c, 3, 61, 54
6, 215518, Note_on_c, 3, 61, 0
6, 215520, Note_on_c, 3, 63, 50
6, 215566, Note_on_c, 3, 63, 0
6, 215568, Note_on_c, 3, 65, 57
6, 215614, Note_on_c, 3, 65, 0
6, 215616, Note_on_c, 3, 63, 58
6, 215662, Note_on_c, 3, 63, 0
6, 215664, Note_on_c, 3, 61, 51
6, 215710, Note_on_c, 3, 61, 0
6, 215712, Note_on_c, 3, 58, 53
6, 215758, Note_on_c, 3, 58, 0
6, 215760, Note_on_c, 3, 61, 53
6, 215806, Note_on_c, 3, 61, 0
6, 215808, Note_on_c, 3, 75, 60
6, 215854, Note_on_c, 3, 75, 0
6, 215856, Note_on_c, 3, 73, 56
6, 215902, Note_on_c, 3, 73, 0
6, 215904, Note_on_c, 3, 75, 64
6, 215950, Note_on_c, 3, 75, 0
6, 215952, Note_on_c, 3, 77, 67
6, 215998, Note_on_c, 3, 77, 0
6, 216000, Note_on_c, 3, 75, 65
6, 216046, Note_on_c, 3, 75, 0
6, 216048, Note_on_c, 3, 73, 61
6, 216094, Note_on_c, 3, 73, 0
6, 216096, Note_on_c, 3, 70, 65
6, 216142, Note_on_c, 3, 70, 0
6, 216144, Note_on_c, 3, 73, 64
6, 216190, Note_on_c, 3, 73, 0
6, 216192, Note_on_c, 3, 75, 71
6, 216238, Note_on_c, 3, 75, 0
6, 216240, Note_on_c, 3, 73, 66
6, 216286, Note_on_c, 3, 73, 0
6, 216288, Note_on_c, 3, 75, 67
6, 216334, Note_on_c, 3, 75, 0
6, 216336, Note_on_c, 3, 77, 73
6, 216382, Note_on_c, 3, 77, 0
6, 216384, Note_on_c, 3, 75, 76
6, 216430, Note_on_c, 3, 75, 0
6, 216432, Note_on_c, 3, 73, 75
6, 216478, Note_on_c, 3, 73, 0
6, 216480, Note_on_c, 3, 70, 68
6, 216526, Note_on_c, 3, 70, 0
6, 216528, Note_on_c, 3, 73, 78
6, 216574, Note_on_c, 3, 73, 0
6, 216576, Note_on_c, 3, 75, 71
6, 216622, Note_on_c, 3, 75, 0
6, 216624, Note_on_c, 3, 73, 80
6, 216670, Note_on_c, 3, 73, 0
6, 216672, Note_on_c, 3, 75, 74
6, 216718, Note_on_c, 3, 75, 0
6, 216720, Note_on_c, 3, 77, 80
6, 216766, Note_on_c, 3, 77, 0
6, 216768, Note_on_c, 3, 75, 79
6, 216814, Note_on_c, 3, 75, 0
6, 216816, Note_on_c, 3, 73, 76
6, 216862, Note_on_c, 3, 73, 0
6, 216864, Note_on_c, 3, 70, 79
6, 216910, Note_on_c, 3, 70, 0
6, 216912, Note_on_c, 3, 73, 86
6, 216958, Note_on_c, 3, 73, 0
6, 216960, Note_on_c, 3, 75, 87
6, 217006, Note_on_c, 3, 75, 0
6, 217008, Note_on_c, 3, 73, 89
6, 217054, Note_on_c, 3, 73, 0
6, 217056, Note_on_c, 3, 75, 89
6, 217102, Note_on_c, 3, 75, 0
6, 217104, Note_on_c, 3, 77, 81
6, 217150, Note_on_c, 3, 77, 0
6, 217152, Note_on_c, 3, 75, 83
6, 217198, Note_on_c, 3, 75, 0
6, 217200, Note_on_c, 3, 73, 87
6, 217246, Note_on_c, 3, 73, 0
6, 217248, Note_on_c, 3, 70, 91
6, 217294, Note_on_c, 3, 70, 0
6, 217296, Note_on_c, 3, 73, 86
6, 217342, Note_on_c, 3, 73, 0
6, 217344, Note_on_c, 3, 75, 89
6, 217344, Note_on_c, 3, 73, 96
6, 217486, Note_on_c, 3, 75, 0
6, 217486, Note_on_c, 3, 73, 0
6, 217488, Note_on_c, 3, 70, 87
6, 217488, Note_on_c, 3, 77, 96
6, 217534, Note_on_c, 3, 70, 0
6, 217534, Note_on_c, 3, 77, 0
6, 217536, Note_on_c, 3, 73, 91
6, 217536, Note_on_c, 3, 75, 96
6, 217678, Note_on_c, 3, 73, 0
6, 217678, Note_on_c, 3, 75, 0
6, 217680, Note_on_c, 3, 70, 90
6, 217680, Note_on_c, 3, 77, 88
6, 217726, Note_on_c, 3, 70, 0
6, 217726, Note_on_c, 3, 77, 0
6, 217728, Note_on_c, 3, 73, 89
6, 217728, Note_on_c, 3, 75, 95
6, 217870, Note_on_c, 3, 73, 0
6, 217870, Note_on_c, 3, 75, 0
6, 217872, Note_on_c, 3, 70, 89
6, 217872, Note_on_c, 3, 77, 88
6, 217918, Note_on_c, 3, 70, 0
6, 217918, Note_on_c, 3, 77, 0
6, 217920, Note_on_c, 3, 73, 93
6, 217920, Note_on_c, 3, 75, 89
6, 218062, Note_on_c, 3, 73, 0
6, 218062, Note_on_c, 3, 75, 0
6, 218064, Note_on_c, 3, 70, 94
6, 218064, Note_on_c, 3, 77, 94
6, 218110, Note_on_c, 3, 70, 0
6, 218110, Note_on_c, 3, 77, 0
6, 218112, Note_on_c, 3, 73, 87
6, 218112, Note_on_c, 3, 75, 97
6, 218254, Note_on_c, 3, 73, 0
6, 218254, Note_on_c, 3, 75, 0
6, 218256, Note_on_c, 3, 77, 97
6, 218256, Note_on_c, 3, 70, 87
6, 218302, Note_on_c, 3, 77, 0
6, 218302, Note_on_c, 3, 70, 0
6, 218304, Note_on_c, 3, 75, 97
6, 218304, Note_on_c, 3, 73, 95
6, 218446, Note_on_c, 3, 75, 0
6, 218446, Note_on_c, 3, 73, 0
6, 218448, Note_on_c, 3, 70, 87
6, 218448, Note_on_c, 3, 77, 88
6, 218494, Note_on_c, 3, 70, 0
6, 218494, Note_on_c, 3, 77, 0
6, 218496, Note_on_c, 3, 73, 89
6, 218496, Note_on_c, 3, 75, 87
6, 218638, Note_on_c, 3, 73, 0
6, 218638, Note_on_c, 3, 75, 0
6, 218640, Note_on_c, 3, 70, 90
6, 218640, Note_on_c, 3, 77, 93
6, 218686, Note_on_c, 3, 70, 0
6, 218686, Note_on_c, 3, 77, 0
6, 218688, Note_on_c, 3, 73, 96
6, 218688, Note_on_c, 3, 75, 89
6, 218830, Note_on_c, 3, 73, 0
6, 218830, Note_on_c, 3, 75, 0
6, 218832, Note_on_c, 3, 70, 88
6, 218832, Note_on_c, 3, 77, 97
6, 218878, Note_on_c, 3, 70, 0
6, 218878, Note_on_c, 3, 77, 0
6, 218880, Note_on_c, 3, 77, 95
6, 218880, Note_on_c, 3, 79, 92
6, 219022, Note_on_c, 3, 77, 0
6, 219022, Note_on_c, 3, 79, 0
6, 219024, Note_on_c, 3, 74, 92
6, 219024, Note_on_c, 3, 81, 89
6, 219070, Note_on_c, 3, 74, 0
6, 219070, Note_on_c, 3, 81, 0
6, 219072, Note_on_c, 3, 79, 96
6, 219072, Note_on_c, 3, 77, 94
6, 219214, Note_on_c, 3, 79, 0
6, 219214, Note_on_c, 3, 77, 0
6, 219216, Note_on_c, 3, 81, 94
6, 219216, Note_on_c, 3, 74, 94
6, 219262, Note_on_c, 3, 81, 0
6, 219262, Note_on_c, 3, 74, 0
6, 219264, Note_on_c, 3, 79, 94
6, 219264, Note_on_c, 3, 77, 91
6, 219406, Note_on_c, 3, 79, 0
6, 219406, Note_on_c, 3, 77, 0
6, 219408, Note_on_c, 3, 81, 94
6, 219408, Note_on_c, 3, 74, 95
6, 219454, Note_on_c, 3, 81, 0
6, 219454, Note_on_c, 3, 74, 0
6, 219456, Note_on_c, 3, 79, 92
6, 219456, Note_on_c, 3, 77, 92
6, 219598, Note_on_c, 3, 79, 0
6, 219598, Note_on_c, 3, 77, 0
6, 219600, Note_on_c, 3, 81, 94
6, 219600, Note_on_c, 3, 74, 97
6, 219646, Note_on_c, 3, 81, 0
6, 219646, Note_on_c, 3, 74, 0
6, 219648, Note_on_c, 3, 79, 92
6, 219648, Note_on_c, 3, 77, 96
6, 219790, Note_on_c, 3, 79, 0
6, 219790, Note_on_c, 3, 77, 0
6, 219792, Note_on_c, 3, 81, 99
6, 219792, Note_on_c, 3, 74, 94
6, 219838, Note_on_c, 3, 81, 0
6, 219838, Note_on_c, 3, 74, 0
6, 219840, Note_on_c, 3, 79, 101
6, 219840, Note_on_c, 3, 77, 97
6, 219982, Note_on_c, 3, 79, 0
6, 219982, Note_on_c, 3, 77, 0
6, 219984, Note_on_c, 3, 74, 100
6, 219984, Note_on_c, 3, 81, 104
6, 220030, Note_on_c, 3, 74, 0
6, 220030, Note_on_c, 3, 81, 0
6, 220032, Note_on_c, 3, 79, 97
6, 220032, Note_on_c, 3, 77, 101
6, 220174, Note_on_c, 3, 79, 0
6, 220174, Note_on_c, 3, 77, 0
6, 220176, Note_on_c, 3, 74, 99
6, 220176, Note_on_c, 3, 81, 98
6, 220222, Note_on_c, 3, 74, 0
6, 220222, Note_on_c, 3, 81, 0
6, 220224, Note_on_c, 3, 77, 109
6, 220224, Note_on_c, 3, 79, 99
6, 220366, Note_on_c, 3, 77, 0
6, 220366, Note_on_c, 3, 79, 0
6, 220368, Note_on_c, 3, 74, 104
6, 220368, Note_on_c, 3, 81, 107
6, 220414, Note_on_c, 3, 74, 0
6, 220414, Note_on_c, 3, 81, 0
6, 220416, Note_on_c, 3, 75, 105
6, 220416, Note_on_c, 3, 82, 104
6, 220558, Note_on_c, 3, 75, 0
6, 220558, Note_on_c, 3, 82, 0
6, 220560, Note_on_c, 3, 73, 110
6, 220560, Note_on_c, 3, 80, 112
6, 220606, Note_on_c, 3, 73, 0
6, 220606, Note_on_c, 3, 80, 0
6, 220608, Note_on_c, 3, 75, 109
6, 220608, Note_on_c, 3, 77, 111
6, 220750, Note_on_c, 3, 75, 0
6, 220750, Note_on_c, 3, 77, 0
6, 220752, Note_on_c, 3, 73, 113
6, 220752, Note_on_c, 3, 80, 109
6, 220798, Note_on_c, 3, 73, 0
6, 220798, Note_on_c, 3, 80, 0
6, 220800, Note_on_c, 3, 82, 110
6, 220800, Note_on_c, 3, 75, 109
6, 220942, Note_on_c, 3, 82, 0
6, 220942, Note_on_c, 3, 75, 0
6, 220944, Note_on_c, 3, 73, 112
6, 220944, Note_on_c, 3, 80, 106
6, 220990, Note_on_c, 3, 73, 0
6, 220990, Note_on_c, 3, 80, 0
6, 220992, Note_on_c, 3, 70, 109
6, 220992, Note_on_c, 3, 77, 104
6, 221134, Note_on_c, 3, 70, 0
6, 221134, Note_on_c, 3, 77, 0
6, 221136, Note_on_c, 3, 73, 103
6, 221136, Note_on_c, 3, 80, 109
6, 221182, Note_on_c, 3, 73, 0
6, 221182, Note_on_c, 3, 80, 0
6, 221184, Note_on_c, 3, 75, 108
6, 221184, Note_on_c, 3, 82, 111
6, 221326, Note_on_c, 3, 75, 0
6, 221326, Note_on_c, 3, 82, 0
6, 221328, Note_on_c, 3, 73, 109
6, 221328, Note_on_c, 3, 80, 112
6, 221374, Note_on_c, 3, 73, 0
6, 221374, Note_on_c, 3, 80, 0
6, 221376, Note_on_c, 3, 75, 109
6, 221376, Note_on_c, 3, 77, 104
6, 221518, Note_on_c, 3, 75, 0
6, 221518, Note_on_c, 3, 77, 0
6, 221520, Note_on_c, 3, 73, 107
6, 221520, Note_on_c, 3, 80, 107
6, 221566, Note_on_c, 3, 73, 0
6, 221566, Note_on_c, 3, 80, 0
6, 221568, Note_on_c, 3, 82, 108
6, 221568, Note_on_c, 3, 75, 103
6, 221710, Note_on_c, 3, 82, 0
6, 221710, Note_on_c, 3, 75, 0
6, 221712, Note_on_c, 3, 80, 111
6, 221712, Note_on_c, 3, 73, 111
6, 221758, Note_on_c, 3, 80, 0
6, 221758, Note_on_c, 3, 73, 0
6, 221760, Note_on_c, 3, 77, 105
6, 221760, Note_on_c, 3, 70, 106
6, 221902, Note_on_c, 3, 77, 0
6, 221902, Note_on_c, 3, 70, 0
6, 221904, Note_on_c, 3, 80, 111
6, 221904, Note_on_c, 3, 73, 112
6, 221950, Note_on_c, 3, 80, 0
6, 221950, Note_on_c, 3, 73, 0
6, 221952, Note_on_c, 3, 82, 111
6, 221952, Note_on_c, 3, 75, 110
6, 222094, Note_on_c, 3, 82, 0
6, 222094, Note_on_c, 3, 75, 0
6, 222096, Note_on_c, 3, 80, 106
6, 222096, Note_on_c, 3, 73, 109
6, 222142, Note_on_c, 3, 80, 0
6, 222142, Note_on_c, 3, 73, 0
6, 222144, Note_on_c, 3, 77, 108
6, 222144, Note_on_c, 3, 75, 103
6, 222286, Note_on_c, 3, 77, 0
6, 222286, Note_on_c, 3, 75, 0
6, 222288, Note_on_c, 3, 80, 109
6, 222288, Note_on_c, 3, 73, 104
6, 222334, Note_on_c, 3, 80, 0
6, 222334, Note_on_c, 3, 73, 0
6, 222336, Note_on_c, 3, 82, 105
6, 222336, Note_on_c, 3, 75, 113
6, 222478, Note_on_c, 3, 82, 0
6, 222478, Note_on_c, 3, 75, 0
6, 222480, Note_on_c, 3, 80, 110
6, 222480, Note_on_c, 3, 73, 108
6, 222526, Note_on_c, 3, 80, 0
6, 222526, Note_on_c, 3, 73, 0
6, 222528, Note_on_c, 3, 70, 110
6, 222528, Note_on_c, 3, 77, 113
6, 222670, Note_on_c, 3, 70, 0
6, 222670, Note_on_c, 3, 77, 0
6, 222672, Note_on_c, 3, 73, 104
6, 222672, Note_on_c, 3, 80, 111
6, 222718, Note_on_c, 3, 73, 0
6, 222718, Note_on_c, 3, 80, 0
6, 222720, Note_on_c, 3, 75, 103
6, 222720, Note_on_c, 3, 82, 107
6, 222862, Note_on_c, 3, 75, 0
6, 222862, Note_on_c, 3, 82, 0
6, 222864, Note_on_c, 3, 73, 103
6, 222864, Note_on_c, 3, 80, 109
6, 222910, Note_on_c, 3, 73, 0
6, 222910, Note_on_c, 3, 80, 0
6, 222912, Note_on_c, 3, 75, 103
6, 222912, Note_on_c, 3, 77, 106
6, 223054, Note_on_c, 3, 75, 0
6, 223054, Note_on_c, 3, 77, 0
6, 223056, Note_on_c, 3, 73, 113
6, 223056, Note_on_c, 3, 80, 112
6, 223102, Note_on_c, 3, 73, 0
6, 223102, Note_on_c, 3, 80, 0
6, 223104, Note_on_c, 3, 75, 106
6, 223104, Note_on_c, 3, 82, 112
6, 223246, Note_on_c, 3, 75, 0
6, 223246, Note_on_c, 3, 82, 0
6, 223248, Note_on_c, 3, 73, 111
6, 223248, Note_on_c, 3, 80, 111
6, 223294, Note_on_c, 3, 73, 0
6, 223294, Note_on_c, 3, 80, 0
6, 223296, Note_on_c, 3, 70, 110
6, 223296, Note_on_c, 3, 77, 108
6, 223438, Note_on_c, 3, 70, 0
6, 223438, Note_on_c, 3, 77, 0
6, 223440, Note_on_c, 3, 82, 104
6, 223440, Note_on_c, 3, 75, 103
6, 223486, Note_on_c, 3, 82, 0
6, 223486, Note_on_c, 3, 75, 0
6, 223488, Note_on_c, 3, 80, 113
6, 223518, Note_on_c, 3, 80, 0
6, 223520, Note_on_c, 3, 81, 112
6, 223550, Note_on_c, 3, 81, 0
6, 223552, Note_on_c, 3, 80, 103
6, 223582, Note_on_c, 3, 80, 0
6, 223584, Note_on_c, 3, 81, 113
6, 223614, Note_on_c, 3, 81, 0
6, 223616, Note_on_c, 3, 80, 112
6, 223646, Note_on_c, 3, 80, 0
6, 223648, Note_on_c, 3, 81, 108
6, 223678, Note_on_c, 3, 81, 0
6, 223680, Note_on_c, 3, 80, 112
6, 223710, Note_on_c, 3, 80, 0
6, 223712, Note_on_c, 3, 81, 108
6, 223742, Note_on_c, 3, 81, 0
6, 223744, Note_on_c, 3, 80, 107
6, 223774, Note_on_c, 3, 80, 0
6, 223776, Note_on_c, 3, 81, 103
6, 223806, Note_on_c, 3, 81, 0
6, 223808, Note_on_c, 3, 80, 112
6, 223838, Note_on_c, 3, 80, 0
6, 223840, Note_on_c, 3, 81, 106
6, 223870, Note_on_c, 3, 81, 0
6, 223872, Note_on_c, 3, 80, 108
6, 223902, Note_on_c, 3, 80, 0
6, 223904, Note_on_c, 3, 81, 108
6, 223934, Note_on_c, 3, 81, 0
6, 223936, Note_on_c, 3, 80, 109
6, 223966, Note_on_c, 3, 80, 0
6, 223968, Note_on_c, 3, 81, 110
6, 223998, Note_on_c, 3, 81, 0
6, 224000, Note_on_c, 3, 80, 113
6, 224030, Note_on_c, 3, 80, 0
6, 224032, Note_on_c, 3, 81, 111
6, 224062, Note_on_c, 3, 81, 0
6, 224064, Note_on_c, 3, 80, 106
6, 224094, Note_on_c, 3, 80, 0
6, 224096, Note_on_c, 3, 81, 105
6, 224126, Note_on_c, 3, 81, 0
6, 224128, Note_on_c, 3, 80, 105
6, 224158, Note_on_c, 3, 80, 0
6, 224160, Note_on_c, 3, 81, 109
6, 224190, Note_on_c, 3, 81, 0
6, 224192, Note_on_c, 3, 80, 112
6, 224222, Note_on_c, 3, 80, 0
6, 224224, Note_on_c, 3, 81, 103
6, 224254, Note_on_c, 3, 81, 0
6, 224256, Note_on_c, 3, 80, 105
6, 224286, Note_on_c, 3, 80, 0
6, 224288, Note_on_c, 3, 81, 107
6, 224318, Note_on_c, 3, 81, 0
6, 224320, Note_on_c, 3, 80, 113
6, 224350, Note_on_c, 3, 80, 0
6, 224352, Note_on_c, 3, 81, 111
6, 224382, Note_on_c, 3, 81, 0
6, 224384, Note_on_c, 3, 80, 108
6, 224414, Note_on_c, 3, 80, 0
6, 224416, Note_on_c, 3, 81, 111
6, 224446, Note_on_c, 3, 81, 0
6, 224448, Note_on_c, 3, 80, 105
6, 224478, Note_on_c, 3, 80, 0
6, 224480, Note_on_c, 3, 81, 103
6, 224510, Note_on_c, 3, 81, 0
6, 224512, Note_on_c, 3, 80, 105
6, 224542, Note_on_c, 3, 80, 0
6, 224544, Note_on_c, 3, 81, 110
6, 224574, Note_on_c, 3, 81, 0
6, 224576, Note_on_c, 3, 80, 106
6, 224606, Note_on_c, 3, 80, 0
6, 224608, Note_on_c, 3, 81, 111
6, 224638, Note_on_c, 3, 81, 0
6, 224640, Note_on_c, 3, 80, 110
6, 224670, Note_on_c, 3, 80, 0
6, 224672, Note_on_c, 3, 81, 109
6, 224702, Note_on_c, 3, 81, 0
6, 224704, Note_on_c, 3, 80, 105
6, 224734, Note_on_c, 3, 80, 0
6, 224736, Note_on_c, 3, 81, 112
6, 224766, Note_on_c, 3, 81, 0
6, 224768, Note_on_c, 3, 80, 112
6, 224798, Note_on_c, 3, 80, 0
6, 224800, Note_on_c, 3, 81, 108
6, 224830, Note_on_c, 3, 81, 0
6, 224832, Note_on_c, 3, 80, 105
6, 224862, Note_on_c, 3, 80, 0
6, 224864, Note_on_c, 3, 81, 104
6, 224894, Note_on_c, 3, 81, 0
6, 224896, Note_on_c, 3, 80, 106
6, 224926, Note_on_c, 3, 80, 0
6, 224928, Note_on_c, 3, 81, 105
6, 224958, Note_on_c, 3, 81, 0
6, 224960, Note_on_c, 3, 80, 103
6, 224990, Note_on_c, 3, 80, 0
6, 224992, Note_on_c, 3, 81, 103
6, 225022, Note_on_c, 3, 81, 0
6, 225024, Note_on_c, 3, 80, 103
6, 225184, Note_on_c, 3, 80, 0
6, 225184, End_track
7, 0, Start_track
7, 0, Title_t, "Fagotti I - II"
7, 0, MIDI_port, 0
7, 12480, Control_c, 4, 11, 64
7, 12480, Note_on_c, 4, 48, 77
7, 12480, Note_on_c, 4, 60, 78
7, 12492, Control_c, 4, 11, 65
7, 12504, Control_c, 4, 11, 66
7, 12516, Control_c, 4, 11, 67
7, 12528, Control_c, 4, 11, 68
7, 12540, Control_c, 4, 11, 69
7, 12553, Control_c, 4, 11, 70
7, 12565, Control_c, 4, 11, 71
7, 12577, Control_c, 4, 11, 72
7, 12589, Control_c, 4, 11, 73
7, 12601, Control_c, 4, 11, 74
7, 12614, Control_c, 4, 11, 75
7, 12626, Control_c, 4, 11, 76
7, 12638, Control_c, 4, 11, 77
7, 12650, Control_c, 4, 11, 78
7, 12662, Control_c, 4, 11, 79
7, 12675, Control_c, 4, 11, 80
7, 12687, Control_c, 4, 11, 81
7, 12699, Control_c, 4, 11, 82
7, 12711, Control_c, 4, 11, 83
7, 12723, Control_c, 4, 11, 84
7, 12736, Control_c, 4, 11, 85
7, 12748, Control_c, 4, 11, 86
7, 12760, Control_c, 4, 11, 87
7, 12772, Control_c, 4, 11, 88
7, 12784, Control_c, 4, 11, 89
7, 12796, Control_c, 4, 11, 90
7, 12809, Control_c, 4, 11, 91
7, 12821, Control_c, 4, 11, 92
7, 12833, Control_c, 4, 11, 93
7, 12845, Control_c, 4, 11, 94
7, 12857, Control_c, 4, 11, 95
7, 12870, Control_c, 4, 11, 96
7, 12882, Control_c, 4, 11, 97
7, 12894, Control_c, 4, 11, 98
7, 12906, Control_c, 4, 11, 99
7, 12918, Control_c, 4, 11, 100
7, 12931, Control_c, 4, 11, 101
7, 12943, Control_c, 4, 11, 102
7, 12955, Control_c, 4, 11, 103
7, 12967, Control_c, 4, 11, 104
7, 12979, Control_c, 4, 11, 105
7, 12992, Control_c, 4, 11, 106
7, 13004, Control_c, 4, 11, 107
7, 13016, Control_c, 4, 11, 108
7, 13028, Control_c, 4, 11, 109
7, 13040, Control_c, 4, 11, 110
7, 13052, Control_c, 4, 11, 111
7, 13065, Control_c, 4, 11, 112
7, 13077, Control_c, 4, 11, 113
7, 13089, Control_c, 4, 11, 114
7, 13101, Control_c, 4, 11, 115
7, 13113, Control_c, 4, 11, 116
7, 13126, Control_c, 4, 11, 117
7, 13138, Control_c, 4, 11, 118
7, 13150, Control_c, 4, 11, 119
7, 13162, Control_c, 4, 11, 120
7, 13174, Control_c, 4, 11, 121
7, 13187, Control_c, 4, 11, 122
7, 13199, Control_c, 4, 11, 123
7, 13211, Control_c, 4, 11, 124
7, 13216, Note_on_c, 4, 48, 0
7, 13216, Note_on_c, 4, 60, 0
7, 13223, Control_c, 4, 11, 125
7, 13235, Control_c, 4, 11, 126
7, 13248, Control_c, 4, 11, 127
7, 14016, Control_c, 4, 11, 64
7, 14016, Note_on_c, 4, 48, 70
7, 14016, Note_on_c, 4, 60, 80
7, 14028, Control_c, 4, 11, 65
7, 14040, Control_c, 4, 11, 66
7, 14052, Control_c, 4, 11, 67
7, 14064, Control_c, 4, 11, 68
7, 14076, Control_c, 4, 11, 69
7, 14089, Control_c, 4, 11, 70
7, 14101, Control_c, 4, 11, 71
7, 14113, Control_c, 4, 11, 72
7, 14125, Control_c, 4, 11, 73
7, 14137, Control_c, 4, 11, 74
7, 14150, Control_c, 4, 11, 75
7, 14162, Control_c, 4, 11, 76
7, 14174, Control_c, 4, 11, 77
7, 14186, Control_c, 4, 11, 78
7, 14198, Control_c, 4, 11, 79
7, 14211, Control_c, 4, 11, 80
7, 14223, Control_c, 4, 11, 81
7, 14235, Control_c, 4, 11, 82
7, 14247, Control_c, 4, 11, 83
7, 14259, Control_c, 4, 11, 84
7, 14272, Control_c, 4, 11, 85
7, 14284, Control_c, 4, 11, 86
7, 14296, Control_c, 4, 11, 87
7, 14308, Control_c, 4, 11, 88
7, 14320, Control_c, 4, 11, 89
7, 14332, Control_c, 4, 11, 90
7, 14345, Control_c, 4, 11, 91
7, 14357, Control_c, 4, 11, 92
7, 14369, Control_c, 4, 11, 93
7, 14381, Control_c, 4, 11, 94
7, 14393, Control_c, 4, 11, 95
7, 14406, Control_c, 4, 11, 96
7, 14418, Control_c, 4, 11, 97
7, 14430, Control_c, 4, 11, 98
7, 14442, Control_c, 4, 11, 99
7, 14454, Control_c, 4, 11, 100
7, 14467, Control_c, 4, 11, 101
7, 14479, Control_c, 4, 11, 102
7, 14491, Control_c, 4, 11, 103
7, 14503, Control_c, 4, 11, 104
7, 14515, Control_c, 4, 11, 105
7, 14528, Control_c, 4, 11, 106
7, 14540, Control_c, 4, 11, 107
7, 14552, Control_c, 4, 11, 108
7, 14564, Control_c, 4, 11, 109
7, 14576, Control_c, 4, 11, 110
7, 14588, Control_c, 4, 11, 111
7, 14601, Control_c, 4, 11, 112
7, 14613, Control_c, 4, 11, 113
7, 14625, Control_c, 4, 11, 114
7, 14637, Control_c, 4, 11, 115
7, 14649, Control_c, 4, 11, 116
7, 14662, Control_c, 4, 11, 117
7, 14674, Control_c, 4, 11, 118
7, 14686, Control_c, 4, 11, 119
7, 14698, Control_c, 4, 11, 120
7, 14710, Control_c, 4, 11, 121
7, 14723, Control_c, 4, 11, 122
7, 14735, Control_c, 4, 11, 123
7, 14747, Control_c, 4, 11, 124
7, 14752, Note_on_c, 4, 48, 0
7, 14752, Note_on_c, 4, 60, 0
7, 14759, Control_c, 4, 11, 125
7, 14771, Control_c, 4, 11, 126
7, 14784, Control_c, 4, 11, 127
7, 17664, Control_c, 4, 11, 64
7, 17664, Note_on_c, 4, 48, 44
7, 17664, Note_on_c, 4, 50, 47
7, 17676, Control_c, 4, 11, 65
7, 17688, Control_c, 4, 11, 66
7, 17700, Control_c, 4, 11, 67
7, 17712, Control_c, 4, 11, 68
7, 17724, Control_c, 4, 11, 69
7, 17737, Control_c, 4, 11, 70
7, 17749, Control_c, 4, 11, 71
7, 17761, Control_c, 4, 11, 72
7, 17773, Control_c, 4, 11, 73
7, 17785, Control_c, 4, 11, 74
7, 17798, Control_c, 4, 11, 75
7, 17810, Control_c, 4, 11, 76
7, 17822, Control_c, 4, 11, 77
7, 17834, Control_c, 4, 11, 78
7, 17846, Control_c, 4, 11, 79
7, 17859, Control_c, 4, 11, 80
7, 17871, Control_c, 4, 11, 81
7, 17883, Control_c, 4, 11, 82
7, 17895, Control_c, 4, 11, 83
7, 17907, Control_c, 4, 11, 84
7, 17920, Control_c, 4, 11, 85
7, 17932, Control_c, 4, 11, 86
7, 17944, Control_c, 4, 11, 87
7, 17956, Control_c, 4, 11, 88
7, 17968, Control_c, 4, 11, 89
7, 17980, Control_c, 4, 11, 90
7, 17993, Control_c, 4, 11, 91
7, 18005, Control_c, 4, 11, 92
7, 18017, Control_c, 4, 11, 93
7, 18029, Control_c, 4, 11, 94
7, 18041, Control_c, 4, 11, 95
7, 18054, Control_c, 4, 11, 96
7, 18066, Control_c, 4, 11, 97
7, 18078, Control_c, 4, 11, 98
7, 18090, Control_c, 4, 11, 99
7, 18102, Control_c, 4, 11, 100
7, 18115, Control_c, 4, 11, 101
7, 18127, Control_c, 4, 11, 102
7, 18139, Control_c, 4, 11, 103
7, 18151, Control_c, 4, 11, 104
7, 18163, Control_c, 4, 11, 105
7, 18176, Control_c, 4, 11, 106
7, 18188, Control_c, 4, 11, 107
7, 18200, Control_c, 4, 11, 108
7, 18212, Control_c, 4, 11, 109
7, 18224, Control_c, 4, 11, 110
7, 18236, Control_c, 4, 11, 111
7, 18240, Note_on_c, 4, 48, 0
7, 18240, Note_on_c, 4, 50, 0
7, 18240, Note_on_c, 4, 47, 42
7, 18240, Note_on_c, 4, 51, 43
7, 18249, Control_c, 4, 11, 112
7, 18261, Control_c, 4, 11, 113
7, 18273, Control_c, 4, 11, 114
7, 18285, Control_c, 4, 11, 115
7, 18297, Control_c, 4, 11, 116
7, 18310, Control_c, 4, 11, 117
7, 18322, Control_c, 4, 11, 118
7, 18334, Control_c, 4, 11, 119
7, 18346, Control_c, 4, 11, 120
7, 18358, Control_c, 4, 11, 121
7, 18371, Control_c, 4, 11, 122
7, 18383, Control_c, 4, 11, 123
7, 18395, Control_c, 4, 11, 124
7, 18400, Note_on_c, 4, 47, 0
7, 18400, Note_on_c, 4, 51, 0
7, 18407, Control_c, 4, 11, 125
7, 18419, Control_c, 4, 11, 126
7, 18432, Control_c, 4, 11, 127
7, 18432, Control_c, 4, 11, 64
7, 18432, Note_on_c, 4, 54, 42
7, 18432, Note_on_c, 4, 56, 45
7, 18444, Control_c, 4, 11, 65
7, 18456, Control_c, 4, 11, 66
7, 18468, Control_c, 4, 11, 67
7, 18480, Control_c, 4, 11, 68
7, 18492, Control_c, 4, 11, 69
7, 18505, Control_c, 4, 11, 70
7, 18517, Control_c, 4, 11, 71
7, 18529, Control_c, 4, 11, 72
7, 18541, Control_c, 4, 11, 73
7, 18553, Control_c, 4, 11, 74
7, 18566, Control_c, 4, 11, 75
7, 18578, Control_c, 4, 11, 76
7, 18590, Control_c, 4, 11, 77
7, 18602, Control_c, 4, 11, 78
7, 18614, Control_c, 4, 11, 79
7, 18627, Control_c, 4, 11, 80
7, 18639, Control_c, 4, 11, 81
7, 18651, Control_c, 4, 11, 82
7, 18663, Control_c, 4, 11, 83
7, 18675, Control_c, 4, 11, 84
7, 18688, Control_c, 4, 11, 85
7, 18700, Control_c, 4, 11, 86
7, 18712, Control_c, 4, 11, 87
7, 18724, Control_c, 4, 11, 88
7, 18736, Control_c, 4, 11, 89
7, 18748, Control_c, 4, 11, 90
7, 18761, Control_c, 4, 11, 91
7, 18773, Control_c, 4, 11, 92
7, 18785, Control_c, 4, 11, 93
7, 18797, Control_c, 4, 11, 94
7, 18809, Control_c, 4, 11, 95
7, 18822, Control_c, 4, 11, 96
7, 18834, Control_c, 4, 11, 97
7, 18846, Control_c, 4, 11, 98
7, 18858, Control_c, 4, 11, 99
7, 18870, Control_c, 4, 11, 100
7, 18883, Control_c, 4, 11, 101
7, 18895, Control_c, 4, 11, 102
7, 18907, Control_c, 4, 11, 103
7, 18919, Control_c, 4, 11, 104
7, 18931, Control_c, 4, 11, 105
7, 18944, Control_c, 4, 11, 106
7, 18956, Control_c, 4, 11, 107
7, 18968, Control_c, 4, 11, 108
7, 18980, Control_c, 4, 11, 109
7, 18992, Control_c, 4, 11, 110
7, 19004, Control_c, 4, 11, 111
7, 19008, Note_on_c, 4, 54, 0
7, 19008, Note_on_c, 4, 56, 0
7, 19008, Note_on_c, 4, 53, 42
7, 19008, Note_on_c, 4, 57, 40
7, 19017, Control_c, 4, 11, 112
7, 19029, Control_c, 4, 11, 113
7, 19041, Control_c, 4, 11, 114
7, 19053, Control_c, 4, 11, 115
7, 19065, Control_c, 4, 11, 116
7, 19078, Control_c, 4, 11, 117
7, 19090, Control_c, 4, 11, 118
7, 19102, Control_c, 4, 11, 119
7, 19114, Control_c, 4, 11, 120
7, 19126, Control_c, 4, 11, 121
7, 19139, Control_c, 4, 11, 122
7, 19151, Control_c, 4, 11, 123
7, 19163, Control_c, 4, 11, 124
7, 19168, Note_on_c, 4, 53, 0
7, 19168, Note_on_c, 4, 57, 0
7, 19175, Control_c, 4, 11, 125
7, 19187, Control_c, 4, 11, 126
7, 19200, Control_c, 4, 11, 127
7, 19200, Control_c, 4, 11, 92
7, 19200, Note_on_c, 4, 48, 41
7, 19200, Note_on_c, 4, 50, 49
7, 19210, Control_c, 4, 11, 93
7, 19221, Control_c, 4, 11, 94
7, 19232, Control_c, 4, 11, 95
7, 19243, Control_c, 4, 11, 96
7, 19254, Control_c, 4, 11, 97
7, 19265, Control_c, 4, 11, 98
7, 19276, Control_c, 4, 11, 99
7, 19287, Control_c, 4, 11, 100
7, 19298, Control_c, 4, 11, 101
7, 19309, Control_c, 4, 11, 102
7, 19320, Control_c, 4, 11, 103
7, 19331, Control_c, 4, 11, 104
7, 19342, Control_c, 4, 11, 105
7, 19353, Control_c, 4, 11, 106
7, 19364, Control_c, 4, 11, 107
7, 19375, Control_c, 4, 11, 108
7, 19386, Control_c, 4, 11, 109
7, 19392, Note_on_c, 4, 48, 0
7, 19392, Note_on_c, 4, 50, 0
7, 19392, Note_on_c, 4, 47, 42
7, 19392, Note_on_c, 4, 51, 47
7, 19397, Control_c, 4, 11, 110
7, 19408, Control_c, 4, 11, 111
7, 19419, Control_c, 4, 11, 112
7, 19430, Control_c, 4, 11, 113
7, 19441, Control_c, 4, 11, 114
7, 19452, Control_c, 4, 11, 115
7, 19463, Control_c, 4, 11, 116
7, 19474, Control_c, 4, 11, 117
7, 19485, Control_c, 4, 11, 118
7, 19496, Control_c, 4, 11, 119
7, 19507, Control_c, 4, 11, 120
7, 19518, Control_c, 4, 11, 121
7, 19529, Control_c, 4, 11, 122
7, 19540, Control_c, 4, 11, 123
7, 19551, Control_c, 4, 11, 124
7, 19562, Control_c, 4, 11, 125
7, 19573, Control_c, 4, 11, 126
7, 19584, Note_on_c, 4, 47, 0
7, 19584, Note_on_c, 4, 51, 0
7, 19584, Control_c, 4, 11, 127
7, 19584, Note_on_c, 4, 54, 42
7, 19584, Note_on_c, 4, 56, 43
7, 19594, Control_c, 4, 11, 126
7, 19605, Control_c, 4, 11, 125
7, 19616, Control_c, 4, 11, 124
7, 19627, Control_c, 4, 11, 123
7, 19638, Control_c, 4, 11, 122
7, 19649, Control_c, 4, 11, 121
7, 19660, Control_c, 4, 11, 120
7, 19671, Control_c, 4, 11, 119
7, 19682, Control_c, 4, 11, 118
7, 19693, Control_c, 4, 11, 117
7, 19704, Control_c, 4, 11, 116
7, 19715, Control_c, 4, 11, 115
7, 19726, Control_c, 4, 11, 114
7, 19737, Control_c, 4, 11, 113
7, 19748, Control_c, 4, 11, 112
7, 19759, Control_c, 4, 11, 111
7, 19770, Control_c, 4, 11, 110
7, 19781, Control_c, 4, 11, 109
7, 19792, Control_c, 4, 11, 108
7, 19803, Control_c, 4, 11, 107
7, 19814, Control_c, 4, 11, 106
7, 19825, Control_c, 4, 11, 105
7, 19836, Control_c, 4, 11, 104
7, 19847, Control_c, 4, 11, 103
7, 19858, Control_c, 4, 11, 102
7, 19869, Control_c, 4, 11, 101
7, 19872, Note_on_c, 4, 54, 0
7, 19872, Note_on_c, 4, 56, 0
7, 19872, Note_on_c, 4, 53, 43
7, 19872, Note_on_c, 4, 57, 47
7, 19880, Control_c, 4, 11, 100
7, 19891, Control_c, 4, 11, 99
7, 19902, Control_c, 4, 11, 98
7, 19913, Control_c, 4, 11, 97
7, 19924, Control_c, 4, 11, 96
7, 19935, Control_c, 4, 11, 95
7, 19946, Control_c, 4, 11, 94
7, 19957, Control_c, 4, 11, 93
7, 19966, Note_on_c, 4, 53, 0
7, 19966, Note_on_c, 4, 57, 0
7, 19968, Control_c, 4, 11, 92
7, 19968, Note_on_c, 4, 47, 50
7, 19968, Note_on_c, 4, 51, 44
7, 20254, Note_on_c, 4, 47, 0
7, 20254, Note_on_c, 4, 51, 0
7, 21504, Control_c, 4, 11, 92
7, 21504, Note_on_c, 4, 48, 49
7, 21504, Note_on_c, 4, 50, 47
7, 21525, Control_c, 4, 11, 93
7, 21547, Control_c, 4, 11, 94
7, 21569, Control_c, 4, 11, 95
7, 21591, Control_c, 4, 11, 96
7, 21613, Control_c, 4, 11, 97
7, 21635, Control_c, 4, 11, 98
7, 21657, Control_c, 4, 11, 99
7, 21679, Control_c, 4, 11, 100
7, 21701, Control_c, 4, 11, 101
7, 21723, Control_c, 4, 11, 102
7, 21745, Control_c, 4, 11, 103
7, 21767, Control_c, 4, 11, 104
7, 21789, Control_c, 4, 11, 105
7, 21811, Control_c, 4, 11, 106
7, 21833, Control_c, 4, 11, 107
7, 21855, Control_c, 4, 11, 108
7, 21877, Control_c, 4, 11, 109
7, 21898, Control_c, 4, 11, 110
7, 21920, Control_c, 4, 11, 111
7, 21942, Control_c, 4, 11, 112
7, 21964, Control_c, 4, 11, 113
7, 21986, Control_c, 4, 11, 114
7, 22008, Control_c, 4, 11, 115
7, 22030, Control_c, 4, 11, 116
7, 22052, Control_c, 4, 11, 117
7, 22074, Control_c, 4, 11, 118
7, 22080, Note_on_c, 4, 48, 0
7, 22080, Note_on_c, 4, 50, 0
7, 22080, Note_on_c, 4, 47, 44
7, 22080, Note_on_c, 4, 51, 40
7, 22096, Control_c, 4, 11, 119
7, 22118, Control_c, 4, 11, 120
7, 22140, Control_c, 4, 11, 121
7, 22162, Control_c, 4, 11, 122
7, 22184, Control_c, 4, 11, 123
7, 22206, Control_c, 4, 11, 124
7, 22228, Control_c, 4, 11, 125
7, 22240, Note_on_c, 4, 47, 0
7, 22240, Note_on_c, 4, 51, 0
7, 22250, Control_c, 4, 11, 126
7, 22272, Control_c, 4, 11, 127
7, 22272, Control_c, 4, 11, 92
7, 22272, Note_on_c, 4, 54, 45
7, 22272, Note_on_c, 4, 56, 45
7, 22293, Control_c, 4, 11, 93
7, 22315, Control_c, 4, 11, 94
7, 22337, Control_c, 4, 11, 95
7, 22359, Control_c, 4, 11, 96
7, 22381, Control_c, 4, 11, 97
7, 22403, Control_c, 4, 11, 98
7, 22425, Control_c, 4, 11, 99
7, 22447, Control_c, 4, 11, 100
7, 22469, Control_c, 4, 11, 101
7, 22491, Control_c, 4, 11, 102
7, 22513, Control_c, 4, 11, 103
7, 22535, Control_c, 4, 11, 104
7, 22557, Control_c, 4, 11, 105
7, 22579, Control_c, 4, 11, 106
7, 22601, Control_c, 4, 11, 107
7, 22623, Control_c, 4, 11, 108
7, 22645, Control_c, 4, 11, 109
7, 22666, Control_c, 4, 11, 110
7, 22688, Control_c, 4, 11, 111
7, 22710, Control_c, 4, 11, 112
7, 22732, Control_c, 4, 11, 113
7, 22754, Control_c, 4, 11, 114
7, 22776, Control_c, 4, 11, 115
7, 22798, Control_c, 4, 11, 116
7, 22820, Control_c, 4, 11, 117
7, 22842, Control_c, 4, 11, 118
7, 22848, Note_on_c, 4, 54, 0
7, 22848, Note_on_c, 4, 56, 0
7, 22848, Note_on_c, 4, 53, 49
7, 22848, Note_on_c, 4, 57, 44
7, 22864, Control_c, 4, 11, 119
7, 22886, Control_c, 4, 11, 120
7, 22908, Control_c, 4, 11, 121
7, 22930, Control_c, 4, 11, 122
7, 22952, Control_c, 4, 11, 123
7, 22974, Control_c, 4, 11, 124
7, 22996, Control_c, 4, 11, 125
7, 23008, Note_on_c, 4, 53, 0
7, 23008, Note_on_c, 4, 57, 0
7, 23018, Control_c, 4, 11, 126
7, 23040, Control_c, 4, 11, 127
7, 23040, Control_c, 4, 11, 92
7, 23040, Note_on_c, 4, 48, 50
7, 23040, Note_on_c, 4, 50, 49
7, 23061, Control_c, 4, 11, 93
7, 23083, Control_c, 4, 11, 94
7, 23105, Control_c, 4, 11, 95
7, 23127, Control_c, 4, 11, 96
7, 23149, Control_c, 4, 11, 97
7, 23171, Control_c, 4, 11, 98
7, 23193, Control_c, 4, 11, 99
7, 23215, Control_c, 4, 11, 100
7, 23232, Note_on_c, 4, 48, 0
7, 23232, Note_on_c, 4, 50, 0
7, 23232, Note_on_c, 4, 47, 43
7, 23232, Note_on_c, 4, 51, 40
7, 23237, Control_c, 4, 11, 101
7, 23259, Control_c, 4, 11, 102
7, 23281, Control_c, 4, 11, 103
7, 23303, Control_c, 4, 11, 104
7, 23325, Control_c, 4, 11, 105
7, 23347, Control_c, 4, 11, 106
7, 23369, Control_c, 4, 11, 107
7, 23391, Control_c, 4, 11, 108
7, 23413, Control_c, 4, 11, 109
7, 23424, Note_on_c, 4, 47, 0
7, 23424, Note_on_c, 4, 51, 0
7, 23424, Note_on_c, 4, 54, 44
7, 23424, Note_on_c, 4, 56, 45
7, 23434, Control_c, 4, 11, 110
7, 23456, Control_c, 4, 11, 111
7, 23478, Control_c, 4, 11, 112
7, 23500, Control_c, 4, 11, 113
7, 23522, Control_c, 4, 11, 114
7, 23544, Control_c, 4, 11, 115
7, 23566, Control_c, 4, 11, 116
7, 23588, Control_c, 4, 11, 117
7, 23610, Control_c, 4, 11, 118
7, 23632, Control_c, 4, 11, 119
7, 23654, Control_c, 4, 11, 120
7, 23676, Control_c, 4, 11, 121
7, 23698, Control_c, 4, 11, 122
7, 23712, Note_on_c, 4, 54, 0
7, 23712, Note_on_c, 4, 56, 0
7, 23712, Note_on_c, 4, 53, 46
7, 23712, Note_on_c, 4, 57, 45
7, 23720, Control_c, 4, 11, 123
7, 23742, Control_c, 4, 11, 124
7, 23764, Control_c, 4, 11, 125
7, 23786, Control_c, 4, 11, 126
7, 23806, Note_on_c, 4, 53, 0
7, 23806, Note_on_c, 4, 57, 0
7, 23808, Control_c, 4, 11, 127
7, 27648, Control_c, 4, 11, 92
7, 28032, Note_on_c, 4, 51, 44
7, 28416, Control_c, 4, 11, 92
7, 28426, Control_c, 4, 11, 93
7, 28437, Control_c, 4, 11, 94
7, 28448, Control_c, 4, 11, 95
7, 28459, Control_c, 4, 11, 96
7, 28470, Control_c, 4, 11, 97
7, 28481, Control_c, 4, 11, 98
7, 28492, Control_c, 4, 11, 99
7, 28503, Control_c, 4, 11, 100
7, 28514, Control_c, 4, 11, 101
7, 28525, Control_c, 4, 11, 102
7, 28536, Control_c, 4, 11, 103
7, 28547, Control_c, 4, 11, 104
7, 28558, Control_c, 4, 11, 105
7, 28569, Control_c, 4, 11, 106
7, 28580, Control_c, 4, 11, 107
7, 28591, Control_c, 4, 11, 108
7, 28602, Control_c, 4, 11, 109
7, 28613, Control_c, 4, 11, 110
7, 28624, Control_c, 4, 11, 111
7, 28635, Control_c, 4, 11, 112
7, 28646, Control_c, 4, 11, 113
7, 28657, Control_c, 4, 11, 114
7, 28668, Control_c, 4, 11, 115
7, 28679, Control_c, 4, 11, 116
7, 28690, Control_c, 4, 11, 117
7, 28701, Control_c, 4, 11, 118
7, 28712, Control_c, 4, 11, 119
7, 28723, Control_c, 4, 11, 120
7, 28734, Control_c, 4, 11, 121
7, 28745, Control_c, 4, 11, 122
7, 28752, Note_on_c, 4, 51, 0
7, 28756, Control_c, 4, 11, 123
7, 28767, Control_c, 4, 11, 124
7, 28778, Control_c, 4, 11, 125
7, 28789, Control_c, 4, 11, 126
7, 28800, Control_c, 4, 11, 127
7, 28800, Note_on_c, 4, 51, 50
7, 28818, Control_c, 4, 11, 126
7, 28836, Control_c, 4, 11, 125
7, 28854, Control_c, 4, 11, 124
7, 28873, Control_c, 4, 11, 123
7, 28891, Control_c, 4, 11, 122
7, 28894, Note_on_c, 4, 51, 0
7, 28896, Note_on_c, 4, 52, 49
7, 28909, Control_c, 4, 11, 121
7, 28928, Control_c, 4, 11, 120
7, 28946, Control_c, 4, 11, 119
7, 28964, Control_c, 4, 11, 118
7, 28982, Control_c, 4, 11, 117
7, 29001, Control_c, 4, 11, 116
7, 29019, Control_c, 4, 11, 115
7, 29037, Control_c, 4, 11, 114
7, 29056, Control_c, 4, 11, 113
7, 29074, Control_c, 4, 11, 112
7, 29092, Control_c, 4, 11, 111
7, 29110, Control_c, 4, 11, 110
7, 29129, Control_c, 4, 11, 109
7, 29147, Control_c, 4, 11, 108
7, 29165, Control_c, 4, 11, 107
7, 29184, Control_c, 4, 11, 106
7, 29202, Control_c, 4, 11, 105
7, 29220, Control_c, 4, 11, 104
7, 29238, Control_c, 4, 11, 103
7, 29257, Control_c, 4, 11, 102
7, 29275, Control_c, 4, 11, 101
7, 29293, Control_c, 4, 11, 100
7, 29312, Control_c, 4, 11, 99
7, 29330, Control_c, 4, 11, 98
7, 29348, Control_c, 4, 11, 97
7, 29366, Control_c, 4, 11, 96
7, 29385, Control_c, 4, 11, 95
7, 29403, Control_c, 4, 11, 94
7, 29421, Control_c, 4, 11, 93
7, 29440, Control_c, 4, 11, 92
7, 29458, Control_c, 4, 11, 91
7, 29476, Control_c, 4, 11, 90
7, 29494, Control_c, 4, 11, 89
7, 29513, Control_c, 4, 11, 88
7, 29531, Control_c, 4, 11, 87
7, 29549, Control_c, 4, 11, 86
7, 29568, Control_c, 4, 11, 85
7, 29586, Control_c, 4, 11, 84
7, 29604, Control_c, 4, 11, 83
7, 29622, Control_c, 4, 11, 82
7, 29641, Control_c, 4, 11, 81
7, 29659, Control_c, 4, 11, 80
7, 29677, Control_c, 4, 11, 79
7, 29696, Control_c, 4, 11, 78
7, 29714, Control_c, 4, 11, 77
7, 29732, Control_c, 4, 11, 76
7, 29750, Control_c, 4, 11, 75
7, 29769, Control_c, 4, 11, 74
7, 29787, Control_c, 4, 11, 73
7, 29805, Control_c, 4, 11, 72
7, 29824, Control_c, 4, 11, 71
7, 29842, Control_c, 4, 11, 70
7, 29860, Control_c, 4, 11, 69
7, 29878, Control_c, 4, 11, 68
7, 29897, Control_c, 4, 11, 67
7, 29904, Note_on_c, 4, 52, 0
7, 29915, Control_c, 4, 11, 66
7, 29933, Control_c, 4, 11, 65
7, 29952, Control_c, 4, 11, 64
7, 33792, Control_c, 4, 11, 30
7, 33792, Note_on_c, 4, 54, 95
7, 33792, Note_on_c, 4, 56, 92
7, 35280, Note_on_c, 4, 54, 0
7, 35280, Note_on_c, 4, 56, 0
7, 35328, Control_c, 4, 11, 64
7, 35328, Note_on_c, 4, 52, 93
7, 35328, Note_on_c, 4, 56, 89
7, 35349, Control_c, 4, 11, 65
7, 35370, Control_c, 4, 11, 66
7, 35392, Control_c, 4, 11, 67
7, 35413, Control_c, 4, 11, 68
7, 35434, Control_c, 4, 11, 69
7, 35456, Control_c, 4, 11, 70
7, 35477, Control_c, 4, 11, 71
7, 35498, Control_c, 4, 11, 72
7, 35520, Control_c, 4, 11, 73
7, 35541, Control_c, 4, 11, 74
7, 35562, Control_c, 4, 11, 75
7, 35584, Control_c, 4, 11, 76
7, 35605, Control_c, 4, 11, 77
7, 35626, Control_c, 4, 11, 78
7, 35648, Control_c, 4, 11, 79
7, 35669, Control_c, 4, 11, 80
7, 35690, Control_c, 4, 11, 81
7, 35712, Control_c, 4, 11, 82
7, 35733, Control_c, 4, 11, 83
7, 35754, Control_c, 4, 11, 84
7, 35776, Control_c, 4, 11, 85
7, 35797, Control_c, 4, 11, 86
7, 35818, Control_c, 4, 11, 87
7, 35840, Control_c, 4, 11, 88
7, 35861, Control_c, 4, 11, 89
7, 35882, Control_c, 4, 11, 90
7, 35904, Control_c, 4, 11, 91
7, 35925, Control_c, 4, 11, 92
7, 35946, Control_c, 4, 11, 93
7, 35968, Control_c, 4, 11, 94
7, 35989, Control_c, 4, 11, 95
7, 36010, Control_c, 4, 11, 96
7, 36032, Control_c, 4, 11, 97
7, 36053, Control_c, 4, 11, 98
7, 36074, Control_c, 4, 11, 99
7, 36096, Control_c, 4, 11, 100
7, 36117, Control_c, 4, 11, 101
7, 36138, Control_c, 4, 11, 102
7, 36160, Control_c, 4, 11, 103
7, 36181, Control_c, 4, 11, 104
7, 36202, Control_c, 4, 11, 105
7, 36224, Control_c, 4, 11, 106
7, 36245, Control_c, 4, 11, 107
7, 36266, Control_c, 4, 11, 108
7, 36288, Control_c, 4, 11, 109
7, 36309, Control_c, 4, 11, 110
7, 36330, Control_c, 4, 11, 111
7, 36352, Control_c, 4, 11, 112
7, 36373, Control_c, 4, 11, 113
7, 36394, Control_c, 4, 11, 114
7, 36416, Control_c, 4, 11, 115
7, 36437, Control_c, 4, 11, 116
7, 36458, Control_c, 4, 11, 117
7, 36480, Control_c, 4, 11, 118
7, 36501, Control_c, 4, 11, 119
7, 36522, Control_c, 4, 11, 120
7, 36544, Control_c, 4, 11, 121
7, 36565, Control_c, 4, 11, 122
7, 36586, Control_c, 4, 11, 123
7, 36608, Control_c, 4, 11, 124
7, 36629, Control_c, 4, 11, 125
7, 36650, Control_c, 4, 11, 126
7, 36672, Control_c, 4, 11, 127
7, 36816, Note_on_c, 4, 52, 0
7, 36816, Note_on_c, 4, 56, 0
7, 36864, Control_c, 4, 11, 30
7, 36864, Note_on_c, 4, 54, 93
7, 36864, Note_on_c, 4, 56, 88
7, 38352, Note_on_c, 4, 54, 0
7, 38352, Note_on_c, 4, 56, 0
7, 38400, Control_c, 4, 11, 64
7, 38400, Note_on_c, 4, 52, 88
7, 38400, Note_on_c, 4, 56, 92
7, 38421, Control_c, 4, 11, 65
7, 38442, Control_c, 4, 11, 66
7, 38464, Control_c, 4, 11, 67
7, 38485, Control_c, 4, 11, 68
7, 38506, Control_c, 4, 11, 69
7, 38528, Control_c, 4, 11, 70
7, 38549, Control_c, 4, 11, 71
7, 38570, Control_c, 4, 11, 72
7, 38592, Control_c, 4, 11, 73
7, 38613, Control_c, 4, 11, 74
7, 38634, Control_c, 4, 11, 75
7, 38656, Control_c, 4, 11, 76
7, 38677, Control_c, 4, 11, 77
7, 38698, Control_c, 4, 11, 78
7, 38720, Control_c, 4, 11, 79
7, 38741, Control_c, 4, 11, 80
7, 38762, Control_c, 4, 11, 81
7, 38784, Control_c, 4, 11, 82
7, 38805, Control_c, 4, 11, 83
7, 38826, Control_c, 4, 11, 84
7, 38848, Control_c, 4, 11, 85
7, 38869, Control_c, 4, 11, 86
7, 38890, Control_c, 4, 11, 87
7, 38912, Control_c, 4, 11, 88
7, 38933, Control_c, 4, 11, 89
7, 38954, Control_c, 4, 11, 90
7, 38976, Control_c, 4, 11, 91
7, 38997, Control_c, 4, 11, 92
7, 39018, Control_c, 4, 11, 93
7, 39040, Control_c, 4, 11, 94
7, 39061, Control_c, 4, 11, 95
7, 39082, Control_c, 4, 11, 96
7, 39104, Control_c, 4, 11, 97
7, 39125, Control_c, 4, 11, 98
7, 39146, Control_c, 4, 11, 99
7, 39168, Control_c, 4, 11, 100
7, 39189, Control_c, 4, 11, 101
7, 39210, Control_c, 4, 11, 102
7, 39232, Control_c, 4, 11, 103
7, 39253, Control_c, 4, 11, 104
7, 39274, Control_c, 4, 11, 105
7, 39296, Control_c, 4, 11, 106
7, 39317, Control_c, 4, 11, 107
7, 39338, Control_c, 4, 11, 108
7, 39360, Control_c, 4, 11, 109
7, 39381, Control_c, 4, 11, 110
7, 39402, Control_c, 4, 11, 111
7, 39424, Control_c, 4, 11, 112
7, 39445, Control_c, 4, 11, 113
7, 39466, Control_c, 4, 11, 114
7, 39488, Control_c, 4, 11, 115
7, 39509, Control_c, 4, 11, 116
7, 39530, Control_c, 4, 11, 117
7, 39552, Control_c, 4, 11, 118
7, 39573, Control_c, 4, 11, 119
7, 39594, Control_c, 4, 11, 120
7, 39616, Control_c, 4, 11, 121
7, 39637, Control_c, 4, 11, 122
7, 39658, Control_c, 4, 11, 123
7, 39680, Control_c, 4, 11, 124
7, 39701, Control_c, 4, 11, 125
7, 39722, Control_c, 4, 11, 126
7, 39744, Control_c, 4, 11, 127
7, 39888, Note_on_c, 4, 52, 0
7, 39888, Note_on_c, 4, 56, 0
7, 39936, Control_c, 4, 11, 64
7, 39936, Note_on_c, 4, 52, 96
7, 39936, Note_on_c, 4, 56, 96
7, 39957, Control_c, 4, 11, 65
7, 39978, Control_c, 4, 11, 66
7, 40000, Control_c, 4, 11, 67
7, 40021, Control_c, 4, 11, 68
7, 40042, Control_c, 4, 11, 69
7, 40064, Control_c, 4, 11, 70
7, 40085, Control_c, 4, 11, 71
7, 40106, Control_c, 4, 11, 72
7, 40128, Control_c, 4, 11, 73
7, 40149, Control_c, 4, 11, 74
7, 40170, Control_c, 4, 11, 75
7, 40192, Control_c, 4, 11, 76
7, 40213, Control_c, 4, 11, 77
7, 40234, Control_c, 4, 11, 78
7, 40256, Control_c, 4, 11, 79
7, 40277, Control_c, 4, 11, 80
7, 40298, Control_c, 4, 11, 81
7, 40320, Control_c, 4, 11, 82
7, 40341, Control_c, 4, 11, 83
7, 40362, Control_c, 4, 11, 84
7, 40384, Control_c, 4, 11, 85
7, 40405, Control_c, 4, 11, 86
7, 40426, Control_c, 4, 11, 87
7, 40448, Control_c, 4, 11, 88
7, 40469, Control_c, 4, 11, 89
7, 40490, Control_c, 4, 11, 90
7, 40512, Control_c, 4, 11, 91
7, 40533, Control_c, 4, 11, 92
7, 40554, Control_c, 4, 11, 93
7, 40576, Control_c, 4, 11, 94
7, 40597, Control_c, 4, 11, 95
7, 40618, Control_c, 4, 11, 96
7, 40640, Control_c, 4, 11, 97
7, 40661, Control_c, 4, 11, 98
7, 40682, Control_c, 4, 11, 99
7, 40704, Control_c, 4, 11, 100
7, 40725, Control_c, 4, 11, 101
7, 40746, Control_c, 4, 11, 102
7, 40768, Control_c, 4, 11, 103
7, 40789, Control_c, 4, 11, 104
7, 40810, Control_c, 4, 11, 105
7, 40832, Control_c, 4, 11, 106
7, 40853, Control_c, 4, 11, 107
7, 40874, Control_c, 4, 11, 108
7, 40896, Control_c, 4, 11, 109
7, 40917, Control_c, 4, 11, 110
7, 40938, Control_c, 4, 11, 111
7, 40960, Control_c, 4, 11, 112
7, 40981, Control_c, 4, 11, 113
7, 41002, Control_c, 4, 11, 114
7, 41024, Control_c, 4, 11, 115
7, 41045, Control_c, 4, 11, 116
7, 41066, Control_c, 4, 11, 117
7, 41088, Control_c, 4, 11, 118
7, 41109, Control_c, 4, 11, 119
7, 41130, Control_c, 4, 11, 120
7, 41152, Control_c, 4, 11, 121
7, 41173, Control_c, 4, 11, 122
7, 41194, Control_c, 4, 11, 123
7, 41216, Control_c, 4, 11, 124
7, 41237, Control_c, 4, 11, 125
7, 41258, Control_c, 4, 11, 126
7, 41280, Control_c, 4, 11, 127
7, 41424, Note_on_c, 4, 52, 0
7, 41424, Note_on_c, 4, 56, 0
7, 42240, Control_c, 4, 7, 92
7, 43008, Control_c, 4, 11, 127
7, 43776, Control_c, 4, 11, 92
7, 43776, Note_on_c, 4, 69, 77
7, 43786, Control_c, 4, 11, 93
7, 43797, Control_c, 4, 11, 94
7, 43808, Control_c, 4, 11, 95
7, 43819, Control_c, 4, 11, 96
7, 43830, Control_c, 4, 11, 97
7, 43841, Control_c, 4, 11, 98
7, 43852, Control_c, 4, 11, 99
7, 43863, Control_c, 4, 11, 100
7, 43874, Control_c, 4, 11, 101
7, 43885, Control_c, 4, 11, 102
7, 43896, Control_c, 4, 11, 103
7, 43904, Note_on_c, 4, 69, 0
7, 43904, Note_on_c, 4, 69, 73
7, 43907, Control_c, 4, 11, 104
7, 43918, Control_c, 4, 11, 105
7, 43929, Control_c, 4, 11, 106
7, 43940, Control_c, 4, 11, 107
7, 43951, Control_c, 4, 11, 108
7, 43962, Control_c, 4, 11, 109
7, 43973, Control_c, 4, 11, 110
7, 43984, Control_c, 4, 11, 111
7, 43995, Control_c, 4, 11, 112
7, 44006, Control_c, 4, 11, 113
7, 44017, Control_c, 4, 11, 114
7, 44028, Control_c, 4, 11, 115
7, 44032, Note_on_c, 4, 69, 0
7, 44032, Note_on_c, 4, 68, 77
7, 44039, Control_c, 4, 11, 116
7, 44050, Control_c, 4, 11, 117
7, 44061, Control_c, 4, 11, 118
7, 44072, Control_c, 4, 11, 119
7, 44083, Control_c, 4, 11, 120
7, 44094, Control_c, 4, 11, 121
7, 44105, Control_c, 4, 11, 122
7, 44116, Control_c, 4, 11, 123
7, 44127, Control_c, 4, 11, 124
7, 44138, Control_c, 4, 11, 125
7, 44149, Control_c, 4, 11, 126
7, 44160, Control_c, 4, 11, 127
7, 44880, Note_on_c, 4, 68, 0
7, 44928, Control_c, 4, 11, 92
7, 44928, Note_on_c, 4, 69, 79
7, 44938, Control_c, 4, 11, 93
7, 44949, Control_c, 4, 11, 94
7, 44960, Control_c, 4, 11, 95
7, 44971, Control_c, 4, 11, 96
7, 44982, Control_c, 4, 11, 97
7, 44993, Control_c, 4, 11, 98
7, 45004, Control_c, 4, 11, 99
7, 45015, Control_c, 4, 11, 100
7, 45026, Control_c, 4, 11, 101
7, 45037, Control_c, 4, 11, 102
7, 45048, Control_c, 4, 11, 103
7, 45056, Note_on_c, 4, 69, 0
7, 45056, Note_on_c, 4, 69, 76
7, 45059, Control_c, 4, 11, 104
7, 45070, Control_c, 4, 11, 105
7, 45081, Control_c, 4, 11, 106
7, 45092, Control_c, 4, 11, 107
7, 45103, Control_c, 4, 11, 108
7, 45114, Control_c, 4, 11, 109
7, 45125, Control_c, 4, 11, 110
7, 45136, Control_c, 4, 11, 111
7, 45147, Control_c, 4, 11, 112
7, 45158, Control_c, 4, 11, 113
7, 45169, Control_c, 4, 11, 114
7, 45180, Control_c, 4, 11, 115
7, 45184, Note_on_c, 4, 69, 0
7, 45184, Note_on_c, 4, 68, 70
7, 45191, Control_c, 4, 11, 116
7, 45202, Control_c, 4, 11, 117
7, 45213, Control_c, 4, 11, 118
7, 45224, Control_c, 4, 11, 119
7, 45235, Control_c, 4, 11, 120
7, 45246, Control_c, 4, 11, 121
7, 45257, Control_c, 4, 11, 122
7, 45268, Control_c, 4, 11, 123
7, 45279, Control_c, 4, 11, 124
7, 45290, Control_c, 4, 11, 125
7, 45301, Control_c, 4, 11, 126
7, 45310, Note_on_c, 4, 68, 0
7, 45312, Control_c, 4, 11, 127
7, 45312, Control_c, 4, 11, 92
7, 45312, Note_on_c, 4, 70, 77
7, 45322, Control_c, 4, 11, 93
7, 45333, Control_c, 4, 11, 94
7, 45344, Control_c, 4, 11, 95
7, 45355, Control_c, 4, 11, 96
7, 45366, Control_c, 4, 11, 97
7, 45377, Control_c, 4, 11, 98
7, 45388, Control_c, 4, 11, 99
7, 45399, Control_c, 4, 11, 100
7, 45410, Control_c, 4, 11, 101
7, 45421, Control_c, 4, 11, 102
7, 45432, Control_c, 4, 11, 103
7, 45440, Note_on_c, 4, 70, 0
7, 45440, Note_on_c, 4, 70, 76
7, 45443, Control_c, 4, 11, 104
7, 45454, Control_c, 4, 11, 105
7, 45465, Control_c, 4, 11, 106
7, 45476, Control_c, 4, 11, 107
7, 45487, Control_c, 4, 11, 108
7, 45498, Control_c, 4, 11, 109
7, 45509, Control_c, 4, 11, 110
7, 45520, Control_c, 4, 11, 111
7, 45531, Control_c, 4, 11, 112
7, 45542, Control_c, 4, 11, 113
7, 45553, Control_c, 4, 11, 114
7, 45564, Control_c, 4, 11, 115
7, 45568, Note_on_c, 4, 70, 0
7, 45568, Note_on_c, 4, 68, 72
7, 45575, Control_c, 4, 11, 116
7, 45586, Control_c, 4, 11, 117
7, 45597, Control_c, 4, 11, 118
7, 45608, Control_c, 4, 11, 119
7, 45619, Control_c, 4, 11, 120
7, 45630, Control_c, 4, 11, 121
7, 45641, Control_c, 4, 11, 122
7, 45652, Control_c, 4, 11, 123
7, 45663, Control_c, 4, 11, 124
7, 45674, Control_c, 4, 11, 125
7, 45685, Control_c, 4, 11, 126
7, 45696, Control_c, 4, 11, 127
7, 46416, Note_on_c, 4, 68, 0
7, 46464, Control_c, 4, 11, 92
7, 46464, Note_on_c, 4, 70, 72
7, 46474, Control_c, 4, 11, 93
7, 46485, Control_c, 4, 11, 94
7, 46496, Control_c, 4, 11, 95
7, 46507, Control_c, 4, 11, 96
7, 46518, Control_c, 4, 11, 97
7, 46529, Control_c, 4, 11, 98
7, 46540, Control_c, 4, 11, 99
7, 46551, Control_c, 4, 11, 100
7, 46562, Control_c, 4, 11, 101
7, 46573, Control_c, 4, 11, 102
7, 46584, Control_c, 4, 11, 103
7, 46592, Note_on_c, 4, 70, 0
7, 46592, Note_on_c, 4, 70, 71
7, 46595, Control_c, 4, 11, 104
7, 46606, Control_c, 4, 11, 105
7, 46617, Control_c, 4, 11, 106
7, 46628, Control_c, 4, 11, 107
7, 46639, Control_c, 4, 11, 108
7, 46650, Control_c, 4, 11, 109
7, 46661, Control_c, 4, 11, 110
7, 46672, Control_c, 4, 11, 111
7, 46683, Control_c, 4, 11, 112
7, 46694, Control_c, 4, 11, 113
7, 46705, Control_c, 4, 11, 114
7, 46716, Control_c, 4, 11, 115
7, 46720, Note_on_c, 4, 70, 0
7, 46720, Note_on_c, 4, 68, 78
7, 46727, Control_c, 4, 11, 116
7, 46738, Control_c, 4, 11, 117
7, 46749, Control_c, 4, 11, 118
7, 46760, Control_c, 4, 11, 119
7, 46771, Control_c, 4, 11, 120
7, 46782, Control_c, 4, 11, 121
7, 46793, Control_c, 4, 11, 122
7, 46804, Control_c, 4, 11, 123
7, 46815, Control_c, 4, 11, 124
7, 46826, Control_c, 4, 11, 125
7, 46837, Control_c, 4, 11, 126
7, 46846, Note_on_c, 4, 68, 0
7, 46848, Control_c, 4, 11, 127
7, 46848, Control_c, 4, 11, 92
7, 46848, Note_on_c, 4, 65, 97
7, 46858, Control_c, 4, 11, 93
7, 46869, Control_c, 4, 11, 94
7, 46880, Control_c, 4, 11, 95
7, 46891, Control_c, 4, 11, 96
7, 46902, Control_c, 4, 11, 97
7, 46913, Control_c, 4, 11, 98
7, 46924, Control_c, 4, 11, 99
7, 46935, Control_c, 4, 11, 100
7, 46946, Control_c, 4, 11, 101
7, 46957, Control_c, 4, 11, 102
7, 46968, Control_c, 4, 11, 103
7, 46979, Control_c, 4, 11, 104
7, 46990, Control_c, 4, 11, 105
7, 47001, Control_c, 4, 11, 106
7, 47012, Control_c, 4, 11, 107
7, 47023, Control_c, 4, 11, 108
7, 47034, Control_c, 4, 11, 109
7, 47045, Control_c, 4, 11, 110
7, 47056, Control_c, 4, 11, 111
7, 47067, Control_c, 4, 11, 112
7, 47078, Control_c, 4, 11, 113
7, 47089, Control_c, 4, 11, 114
7, 47100, Control_c, 4, 11, 115
7, 47111, Control_c, 4, 11, 116
7, 47122, Control_c, 4, 11, 117
7, 47133, Control_c, 4, 11, 118
7, 47144, Control_c, 4, 11, 119
7, 47155, Control_c, 4, 11, 120
7, 47166, Control_c, 4, 11, 121
7, 47177, Control_c, 4, 11, 122
7, 47188, Control_c, 4, 11, 123
7, 47199, Control_c, 4, 11, 124
7, 47210, Control_c, 4, 11, 125
7, 47221, Control_c, 4, 11, 126
7, 47232, Note_on_c, 4, 65, 0
7, 47232, Control_c, 4, 11, 127
7, 47232, Note_on_c, 4, 66, 97
7, 47392, Note_on_c, 4, 66, 0
7, 47616, Control_c, 4, 11, 92
7, 47616, Note_on_c, 4, 59, 94
7, 47626, Control_c, 4, 11, 93
7, 47637, Control_c, 4, 11, 94
7, 47648, Control_c, 4, 11, 95
7, 47659, Control_c, 4, 11, 96
7, 47670, Control_c, 4, 11, 97
7, 47681, Control_c, 4, 11, 98
7, 47692, Control_c, 4, 11, 99
7, 47703, Control_c, 4, 11, 100
7, 47714, Control_c, 4, 11, 101
7, 47725, Control_c, 4, 11, 102
7, 47736, Control_c, 4, 11, 103
7, 47747, Control_c, 4, 11, 104
7, 47758, Control_c, 4, 11, 105
7, 47769, Control_c, 4, 11, 106
7, 47780, Control_c, 4, 11, 107
7, 47791, Control_c, 4, 11, 108
7, 47802, Control_c, 4, 11, 109
7, 47813, Control_c, 4, 11, 110
7, 47824, Control_c, 4, 11, 111
7, 47835, Control_c, 4, 11, 112
7, 47846, Control_c, 4, 11, 113
7, 47857, Control_c, 4, 11, 114
7, 47868, Control_c, 4, 11, 115
7, 47879, Control_c, 4, 11, 116
7, 47890, Control_c, 4, 11, 117
7, 47901, Control_c, 4, 11, 118
7, 47912, Control_c, 4, 11, 119
7, 47923, Control_c, 4, 11, 120
7, 47934, Control_c, 4, 11, 121
7, 47945, Control_c, 4, 11, 122
7, 47956, Control_c, 4, 11, 123
7, 47967, Control_c, 4, 11, 124
7, 47978, Control_c, 4, 11, 125
7, 47989, Control_c, 4, 11, 126
7, 48000, Note_on_c, 4, 59, 0
7, 48000, Control_c, 4, 11, 127
7, 48000, Note_on_c, 4, 61, 96
7, 48160, Note_on_c, 4, 61, 0
7, 48384, Note_on_c, 4, 64, 77
7, 48512, Note_on_c, 4, 64, 0
7, 48512, Note_on_c, 4, 64, 73
7, 48640, Note_on_c, 4, 64, 0
7, 48640, Note_on_c, 4, 63, 73
7, 48766, Note_on_c, 4, 63, 0
7, 48768, Note_on_c, 4, 62, 73
7, 48896, Note_on_c, 4, 62, 0
7, 48896, Note_on_c, 4, 62, 79
7, 49024, Note_on_c, 4, 62, 0
7, 49024, Note_on_c, 4, 59, 79
7, 49150, Note_on_c, 4, 59, 0
7, 49152, Note_on_c, 4, 56, 74
7, 49344, Note_on_c, 4, 56, 0
7, 49344, Note_on_c, 4, 60, 79
7, 49536, Note_on_c, 4, 60, 0
7, 49536, Note_on_c, 4, 64, 71
7, 50304, Note_on_c, 4, 64, 0
7, 50304, Note_on_c, 4, 67, 79
7, 50496, Note_on_c, 4, 67, 0
7, 50496, Note_on_c, 4, 68, 109
7, 50656, Note_on_c, 4, 68, 0
7, 50688, Control_c, 4, 11, 92
7, 50688, Note_on_c, 4, 69, 93
7, 50698, Control_c, 4, 11, 93
7, 50709, Control_c, 4, 11, 94
7, 50720, Control_c, 4, 11, 95
7, 50731, Control_c, 4, 11, 96
7, 50742, Control_c, 4, 11, 97
7, 50753, Control_c, 4, 11, 98
7, 50764, Control_c, 4, 11, 99
7, 50775, Control_c, 4, 11, 100
7, 50786, Control_c, 4, 11, 101
7, 50797, Control_c, 4, 11, 102
7, 50808, Control_c, 4, 11, 103
7, 50814, Note_on_c, 4, 69, 0
7, 50816, Note_on_c, 4, 69, 95
7, 50819, Control_c, 4, 11, 104
7, 50830, Control_c, 4, 11, 105
7, 50841, Control_c, 4, 11, 106
7, 50852, Control_c, 4, 11, 107
7, 50863, Control_c, 4, 11, 108
7, 50874, Control_c, 4, 11, 109
7, 50885, Control_c, 4, 11, 110
7, 50896, Control_c, 4, 11, 111
7, 50907, Control_c, 4, 11, 112
7, 50918, Control_c, 4, 11, 113
7, 50929, Control_c, 4, 11, 114
7, 50940, Control_c, 4, 11, 115
7, 50942, Note_on_c, 4, 69, 0
7, 50944, Note_on_c, 4, 68, 93
7, 50951, Control_c, 4, 11, 116
7, 50962, Control_c, 4, 11, 117
7, 50973, Control_c, 4, 11, 118
7, 50984, Control_c, 4, 11, 119
7, 50995, Control_c, 4, 11, 120
7, 51006, Control_c, 4, 11, 121
7, 51017, Control_c, 4, 11, 122
7, 51028, Control_c, 4, 11, 123
7, 51039, Control_c, 4, 11, 124
7, 51050, Control_c, 4, 11, 125
7, 51061, Control_c, 4, 11, 126
7, 51072, Control_c, 4, 11, 127
7, 51792, Note_on_c, 4, 68, 0
7, 51840, Control_c, 4, 11, 92
7, 51840, Note_on_c, 4, 69, 91
7, 51850, Control_c, 4, 11, 93
7, 51861, Control_c, 4, 11, 94
7, 51872, Control_c, 4, 11, 95
7, 51883, Control_c, 4, 11, 96
7, 51894, Control_c, 4, 11, 97
7, 51905, Control_c, 4, 11, 98
7, 51916, Control_c, 4, 11, 99
7, 51927, Control_c, 4, 11, 100
7, 51938, Control_c, 4, 11, 101
7, 51949, Control_c, 4, 11, 102
7, 51960, Control_c, 4, 11, 103
7, 51966, Note_on_c, 4, 69, 0
7, 51968, Note_on_c, 4, 69, 93
7, 51971, Control_c, 4, 11, 104
7, 51982, Control_c, 4, 11, 105
7, 51993, Control_c, 4, 11, 106
7, 52004, Control_c, 4, 11, 107
7, 52015, Control_c, 4, 11, 108
7, 52026, Control_c, 4, 11, 109
7, 52037, Control_c, 4, 11, 110
7, 52048, Control_c, 4, 11, 111
7, 52059, Control_c, 4, 11, 112
7, 52070, Control_c, 4, 11, 113
7, 52081, Control_c, 4, 11, 114
7, 52092, Control_c, 4, 11, 115
7, 52094, Note_on_c, 4, 69, 0
7, 52096, Note_on_c, 4, 68, 92
7, 52103, Control_c, 4, 11, 116
7, 52114, Control_c, 4, 11, 117
7, 52125, Control_c, 4, 11, 118
7, 52136, Control_c, 4, 11, 119
7, 52147, Control_c, 4, 11, 120
7, 52158, Control_c, 4, 11, 121
7, 52169, Control_c, 4, 11, 122
7, 52180, Control_c, 4, 11, 123
7, 52191, Control_c, 4, 11, 124
7, 52202, Control_c, 4, 11, 125
7, 52213, Control_c, 4, 11, 126
7, 52222, Note_on_c, 4, 68, 0
7, 52224, Control_c, 4, 11, 127
7, 52224, Control_c, 4, 11, 92
7, 52224, Note_on_c, 4, 70, 88
7, 52234, Control_c, 4, 11, 93
7, 52245, Control_c, 4, 11, 94
7, 52256, Control_c, 4, 11, 95
7, 52267, Control_c, 4, 11, 96
7, 52278, Control_c, 4, 11, 97
7, 52289, Control_c, 4, 11, 98
7, 52300, Control_c, 4, 11, 99
7, 52311, Control_c, 4, 11, 100
7, 52322, Control_c, 4, 11, 101
7, 52333, Control_c, 4, 11, 102
7, 52344, Control_c, 4, 11, 103
7, 52350, Note_on_c, 4, 70, 0
7, 52352, Note_on_c, 4, 70, 95
7, 52355, Control_c, 4, 11, 104
7, 52366, Control_c, 4, 11, 105
7, 52377, Control_c, 4, 11, 106
7, 52388, Control_c, 4, 11, 107
7, 52399, Control_c, 4, 11, 108
7, 52410, Control_c, 4, 11, 109
7, 52421, Control_c, 4, 11, 110
7, 52432, Control_c, 4, 11, 111
7, 52443, Control_c, 4, 11, 112
7, 52454, Control_c, 4, 11, 113
7, 52465, Control_c, 4, 11, 114
7, 52476, Control_c, 4, 11, 115
7, 52478, Note_on_c, 4, 70, 0
7, 52480, Note_on_c, 4, 68, 91
7, 52487, Control_c, 4, 11, 116
7, 52498, Control_c, 4, 11, 117
7, 52509, Control_c, 4, 11, 118
7, 52520, Control_c, 4, 11, 119
7, 52531, Control_c, 4, 11, 120
7, 52542, Control_c, 4, 11, 121
7, 52553, Control_c, 4, 11, 122
7, 52564, Control_c, 4, 11, 123
7, 52575, Control_c, 4, 11, 124
7, 52586, Control_c, 4, 11, 125
7, 52597, Control_c, 4, 11, 126
7, 52608, Control_c, 4, 11, 127
7, 53328, Note_on_c, 4, 68, 0
7, 53376, Control_c, 4, 11, 92
7, 53376, Note_on_c, 4, 70, 90
7, 53386, Control_c, 4, 11, 93
7, 53397, Control_c, 4, 11, 94
7, 53408, Control_c, 4, 11, 95
7, 53419, Control_c, 4, 11, 96
7, 53430, Control_c, 4, 11, 97
7, 53441, Control_c, 4, 11, 98
7, 53452, Control_c, 4, 11, 99
7, 53463, Control_c, 4, 11, 100
7, 53474, Control_c, 4, 11, 101
7, 53485, Control_c, 4, 11, 102
7, 53496, Control_c, 4, 11, 103
7, 53502, Note_on_c, 4, 70, 0
7, 53504, Note_on_c, 4, 70, 89
7, 53507, Control_c, 4, 11, 104
7, 53518, Control_c, 4, 11, 105
7, 53529, Control_c, 4, 11, 106
7, 53540, Control_c, 4, 11, 107
7, 53551, Control_c, 4, 11, 108
7, 53562, Control_c, 4, 11, 109
7, 53573, Control_c, 4, 11, 110
7, 53584, Control_c, 4, 11, 111
7, 53595, Control_c, 4, 11, 112
7, 53606, Control_c, 4, 11, 113
7, 53617, Control_c, 4, 11, 114
7, 53628, Control_c, 4, 11, 115
7, 53630, Note_on_c, 4, 70, 0
7, 53632, Note_on_c, 4, 68, 92
7, 53639, Control_c, 4, 11, 116
7, 53650, Control_c, 4, 11, 117
7, 53661, Control_c, 4, 11, 118
7, 53672, Control_c, 4, 11, 119
7, 53683, Control_c, 4, 11, 120
7, 53694, Control_c, 4, 11, 121
7, 53705, Control_c, 4, 11, 122
7, 53716, Control_c, 4, 11, 123
7, 53727, Control_c, 4, 11, 124
7, 53738, Control_c, 4, 11, 125
7, 53749, Control_c, 4, 11, 126
7, 53758, Note_on_c, 4, 68, 0
7, 53760, Control_c, 4, 11, 127
7, 53760, Control_c, 4, 11, 92
7, 53760, Note_on_c, 4, 64, 91
7, 53770, Control_c, 4, 11, 93
7, 53781, Control_c, 4, 11, 94
7, 53792, Control_c, 4, 11, 95
7, 53803, Control_c, 4, 11, 96
7, 53814, Control_c, 4, 11, 97
7, 53825, Control_c, 4, 11, 98
7, 53836, Control_c, 4, 11, 99
7, 53847, Control_c, 4, 11, 100
7, 53858, Control_c, 4, 11, 101
7, 53869, Control_c, 4, 11, 102
7, 53880, Control_c, 4, 11, 103
7, 53891, Control_c, 4, 11, 104
7, 53902, Control_c, 4, 11, 105
7, 53913, Control_c, 4, 11, 106
7, 53924, Control_c, 4, 11, 107
7, 53935, Control_c, 4, 11, 108
7, 53946, Control_c, 4, 11, 109
7, 53957, Control_c, 4, 11, 110
7, 53968, Control_c, 4, 11, 111
7, 53979, Control_c, 4, 11, 112
7, 53990, Control_c, 4, 11, 113
7, 54001, Control_c, 4, 11, 114
7, 54012, Control_c, 4, 11, 115
7, 54023, Control_c, 4, 11, 116
7, 54034, Control_c, 4, 11, 117
7, 54045, Control_c, 4, 11, 118
7, 54056, Control_c, 4, 11, 119
7, 54067, Control_c, 4, 11, 120
7, 54078, Control_c, 4, 11, 121
7, 54089, Control_c, 4, 11, 122
7, 54100, Control_c, 4, 11, 123
7, 54111, Control_c, 4, 11, 124
7, 54122, Control_c, 4, 11, 125
7, 54133, Control_c, 4, 11, 126
7, 54144, Note_on_c, 4, 64, 0
7, 54144, Control_c, 4, 11, 127
7, 54144, Note_on_c, 4, 66, 92
7, 54304, Note_on_c, 4, 66, 0
7, 54528, Control_c, 4, 11, 92
7, 54528, Note_on_c, 4, 59, 96
7, 54549, Control_c, 4, 11, 93
7, 54571, Control_c, 4, 11, 94
7, 54593, Control_c, 4, 11, 95
7, 54615, Control_c, 4, 11, 96
7, 54637, Control_c, 4, 11, 97
7, 54659, Control_c, 4, 11, 98
7, 54681, Control_c, 4, 11, 99
7, 54703, Control_c, 4, 11, 100
7, 54725, Control_c, 4, 11, 101
7, 54747, Control_c, 4, 11, 102
7, 54769, Control_c, 4, 11, 103
7, 54791, Control_c, 4, 11, 104
7, 54813, Control_c, 4, 11, 105
7, 54835, Control_c, 4, 11, 106
7, 54857, Control_c, 4, 11, 107
7, 54879, Control_c, 4, 11, 108
7, 54901, Control_c, 4, 11, 109
7, 54912, Note_on_c, 4, 59, 0
7, 54912, Note_on_c, 4, 55, 93
7, 54912, Note_on_c, 4, 61, 87
7, 54922, Control_c, 4, 11, 110
7, 54944, Control_c, 4, 11, 111
7, 54966, Control_c, 4, 11, 112
7, 54988, Control_c, 4, 11, 113
7, 55010, Control_c, 4, 11, 114
7, 55032, Control_c, 4, 11, 115
7, 55054, Control_c, 4, 11, 116
7, 55076, Control_c, 4, 11, 117
7, 55098, Control_c, 4, 11, 118
7, 55120, Control_c, 4, 11, 119
7, 55142, Control_c, 4, 11, 120
7, 55164, Control_c, 4, 11, 121
7, 55186, Control_c, 4, 11, 122
7, 55208, Control_c, 4, 11, 123
7, 55230, Control_c, 4, 11, 124
7, 55252, Control_c, 4, 11, 125
7, 55274, Control_c, 4, 11, 126
7, 55296, Control_c, 4, 11, 127
7, 55296, Note_on_c, 4, 58, 88
7, 55308, Control_c, 4, 11, 126
7, 55320, Control_c, 4, 11, 125
7, 55332, Control_c, 4, 11, 124
7, 55344, Control_c, 4, 11, 123
7, 55356, Control_c, 4, 11, 122
7, 55369, Control_c, 4, 11, 121
7, 55381, Control_c, 4, 11, 120
7, 55393, Control_c, 4, 11, 119
7, 55405, Control_c, 4, 11, 118
7, 55417, Control_c, 4, 11, 117
7, 55430, Control_c, 4, 11, 116
7, 55442, Control_c, 4, 11, 115
7, 55454, Control_c, 4, 11, 114
7, 55466, Control_c, 4, 11, 113
7, 55478, Control_c, 4, 11, 112
7, 55491, Control_c, 4, 11, 111
7, 55503, Control_c, 4, 11, 110
7, 55515, Control_c, 4, 11, 109
7, 55527, Control_c, 4, 11, 108
7, 55539, Control_c, 4, 11, 107
7, 55552, Control_c, 4, 11, 106
7, 55564, Control_c, 4, 11, 105
7, 55576, Control_c, 4, 11, 104
7, 55588, Control_c, 4, 11, 103
7, 55600, Control_c, 4, 11, 102
7, 55612, Control_c, 4, 11, 101
7, 55625, Control_c, 4, 11, 100
7, 55637, Control_c, 4, 11, 99
7, 55649, Control_c, 4, 11, 98
7, 55661, Control_c, 4, 11, 97
7, 55673, Control_c, 4, 11, 96
7, 55686, Control_c, 4, 11, 95
7, 55698, Control_c, 4, 11, 94
7, 55710, Control_c, 4, 11, 93
7, 55722, Control_c, 4, 11, 92
7, 55734, Control_c, 4, 11, 91
7, 55747, Control_c, 4, 11, 90
7, 55759, Control_c, 4, 11, 89
7, 55771, Control_c, 4, 11, 88
7, 55783, Control_c, 4, 11, 87
7, 55795, Control_c, 4, 11, 86
7, 55808, Control_c, 4, 11, 85
7, 55820, Control_c, 4, 11, 84
7, 55832, Control_c, 4, 11, 83
7, 55844, Control_c, 4, 11, 82
7, 55856, Control_c, 4, 11, 81
7, 55868, Control_c, 4, 11, 80
7, 55881, Control_c, 4, 11, 79
7, 55893, Control_c, 4, 11, 78
7, 55905, Control_c, 4, 11, 77
7, 55917, Control_c, 4, 11, 76
7, 55929, Control_c, 4, 11, 75
7, 55942, Control_c, 4, 11, 74
7, 55954, Control_c, 4, 11, 73
7, 55966, Control_c, 4, 11, 72
7, 55978, Control_c, 4, 11, 71
7, 55990, Control_c, 4, 11, 70
7, 56003, Control_c, 4, 11, 69
7, 56015, Control_c, 4, 11, 68
7, 56027, Control_c, 4, 11, 67
7, 56039, Control_c, 4, 11, 66
7, 56051, Control_c, 4, 11, 65
7, 56064, Note_on_c, 4, 55, 0
7, 56064, Note_on_c, 4, 61, 0
7, 56064, Note_on_c, 4, 58, 0
7, 56064, Control_c, 4, 11, 64
7, 56064, Note_on_c, 4, 62, 97
7, 56158, Note_on_c, 4, 62, 0
7, 61056, Control_c, 4, 11, 64
7, 61056, Note_on_c, 4, 57, 91
7, 61056, Note_on_c, 4, 61, 96
7, 61074, Control_c, 4, 11, 65
7, 61092, Control_c, 4, 11, 66
7, 61110, Control_c, 4, 11, 67
7, 61129, Control_c, 4, 11, 68
7, 61147, Control_c, 4, 11, 69
7, 61165, Control_c, 4, 11, 70
7, 61184, Control_c, 4, 11, 71
7, 61202, Control_c, 4, 11, 72
7, 61220, Control_c, 4, 11, 73
7, 61238, Control_c, 4, 11, 74
7, 61257, Control_c, 4, 11, 75
7, 61275, Control_c, 4, 11, 76
7, 61293, Control_c, 4, 11, 77
7, 61312, Control_c, 4, 11, 78
7, 61330, Control_c, 4, 11, 79
7, 61348, Control_c, 4, 11, 80
7, 61366, Control_c, 4, 11, 81
7, 61385, Control_c, 4, 11, 82
7, 61403, Control_c, 4, 11, 83
7, 61421, Control_c, 4, 11, 84
7, 61440, Control_c, 4, 11, 85
7, 61458, Control_c, 4, 11, 86
7, 61476, Control_c, 4, 11, 87
7, 61494, Control_c, 4, 11, 88
7, 61513, Control_c, 4, 11, 89
7, 61531, Control_c, 4, 11, 90
7, 61549, Control_c, 4, 11, 91
7, 61568, Control_c, 4, 11, 92
7, 61586, Control_c, 4, 11, 93
7, 61604, Control_c, 4, 11, 94
7, 61622, Control_c, 4, 11, 95
7, 61641, Control_c, 4, 11, 96
7, 61659, Control_c, 4, 11, 97
7, 61677, Control_c, 4, 11, 98
7, 61696, Control_c, 4, 11, 99
7, 61714, Control_c, 4, 11, 100
7, 61732, Control_c, 4, 11, 101
7, 61750, Control_c, 4, 11, 102
7, 61769, Control_c, 4, 11, 103
7, 61787, Control_c, 4, 11, 104
7, 61805, Control_c, 4, 11, 105
7, 61824, Control_c, 4, 11, 106
7, 61842, Control_c, 4, 11, 107
7, 61860, Control_c, 4, 11, 108
7, 61878, Control_c, 4, 11, 109
7, 61897, Control_c, 4, 11, 110
7, 61915, Control_c, 4, 11, 111
7, 61933, Control_c, 4, 11, 112
7, 61952, Control_c, 4, 11, 113
7, 61970, Control_c, 4, 11, 114
7, 61988, Control_c, 4, 11, 115
7, 62006, Control_c, 4, 11, 116
7, 62025, Control_c, 4, 11, 117
7, 62043, Control_c, 4, 11, 118
7, 62061, Control_c, 4, 11, 119
7, 62080, Control_c, 4, 11, 120
7, 62098, Control_c, 4, 11, 121
7, 62116, Control_c, 4, 11, 122
7, 62134, Control_c, 4, 11, 123
7, 62153, Control_c, 4, 11, 124
7, 62160, Note_on_c, 4, 57, 0
7, 62160, Note_on_c, 4, 61, 0
7, 62171, Control_c, 4, 11, 125
7, 62189, Control_c, 4, 11, 126
7, 62208, Control_c, 4, 11, 127
7, 62208, Control_c, 4, 11, 92
7, 62208, Note_on_c, 4, 58, 103
7, 62208, Note_on_c, 4, 64, 113
7, 62229, Control_c, 4, 11, 93
7, 62251, Control_c, 4, 11, 94
7, 62273, Control_c, 4, 11, 95
7, 62295, Control_c, 4, 11, 96
7, 62317, Control_c, 4, 11, 97
7, 62339, Control_c, 4, 11, 98
7, 62361, Control_c, 4, 11, 99
7, 62383, Control_c, 4, 11, 100
7, 62405, Control_c, 4, 11, 101
7, 62427, Control_c, 4, 11, 102
7, 62449, Control_c, 4, 11, 103
7, 62471, Control_c, 4, 11, 104
7, 62493, Control_c, 4, 11, 105
7, 62515, Control_c, 4, 11, 106
7, 62537, Control_c, 4, 11, 107
7, 62559, Control_c, 4, 11, 108
7, 62581, Control_c, 4, 11, 109
7, 62602, Control_c, 4, 11, 110
7, 62624, Control_c, 4, 11, 111
7, 62646, Control_c, 4, 11, 112
7, 62668, Control_c, 4, 11, 113
7, 62690, Control_c, 4, 11, 114
7, 62712, Control_c, 4, 11, 115
7, 62734, Control_c, 4, 11, 116
7, 62756, Control_c, 4, 11, 117
7, 62778, Control_c, 4, 11, 118
7, 62784, Note_on_c, 4, 58, 0
7, 62784, Note_on_c, 4, 64, 0
7, 62784, Note_on_c, 4, 59, 108
7, 62784, Note_on_c, 4, 61, 111
7, 62800, Control_c, 4, 11, 119
7, 62822, Control_c, 4, 11, 120
7, 62844, Control_c, 4, 11, 121
7, 62866, Control_c, 4, 11, 122
7, 62888, Control_c, 4, 11, 123
7, 62910, Control_c, 4, 11, 124
7, 62932, Control_c, 4, 11, 125
7, 62944, Note_on_c, 4, 59, 0
7, 62944, Note_on_c, 4, 61, 0
7, 62954, Control_c, 4, 11, 126
7, 62976, Control_c, 4, 11, 127
7, 62976, Control_c, 4, 11, 92
7, 62976, Note_on_c, 4, 54, 111
7, 62976, Note_on_c, 4, 60, 106
7, 62997, Control_c, 4, 11, 93
7, 63019, Control_c, 4, 11, 94
7, 63041, Control_c, 4, 11, 95
7, 63063, Control_c, 4, 11, 96
7, 63085, Control_c, 4, 11, 97
7, 63107, Control_c, 4, 11, 98
7, 63129, Control_c, 4, 11, 99
7, 63151, Control_c, 4, 11, 100
7, 63173, Control_c, 4, 11, 101
7, 63195, Control_c, 4, 11, 102
7, 63217, Control_c, 4, 11, 103
7, 63239, Control_c, 4, 11, 104
7, 63261, Control_c, 4, 11, 105
7, 63283, Control_c, 4, 11, 106
7, 63305, Control_c, 4, 11, 107
7, 63327, Control_c, 4, 11, 108
7, 63349, Control_c, 4, 11, 109
7, 63370, Control_c, 4, 11, 110
7, 63392, Control_c, 4, 11, 111
7, 63414, Control_c, 4, 11, 112
7, 63436, Control_c, 4, 11, 113
7, 63458, Control_c, 4, 11, 114
7, 63480, Control_c, 4, 11, 115
7, 63502, Control_c, 4, 11, 116
7, 63524, Control_c, 4, 11, 117
7, 63546, Control_c, 4, 11, 118
7, 63552, Note_on_c, 4, 54, 0
7, 63552, Note_on_c, 4, 60, 0
7, 63552, Note_on_c, 4, 55, 103
7, 63552, Note_on_c, 4, 57, 106
7, 63568, Control_c, 4, 11, 119
7, 63590, Control_c, 4, 11, 120
7, 63612, Control_c, 4, 11, 121
7, 63634, Control_c, 4, 11, 122
7, 63656, Control_c, 4, 11, 123
7, 63678, Control_c, 4, 11, 124
7, 63700, Control_c, 4, 11, 125
7, 63712, Note_on_c, 4, 55, 0
7, 63712, Note_on_c, 4, 57, 0
7, 63722, Control_c, 4, 11, 126
7, 63744, Control_c, 4, 11, 127
7, 63744, Control_c, 4, 11, 64
7, 63744, Note_on_c, 4, 49, 95
7, 63744, Note_on_c, 4, 55, 96
7, 63750, Control_c, 4, 11, 65
7, 63756, Control_c, 4, 11, 66
7, 63762, Control_c, 4, 11, 67
7, 63768, Control_c, 4, 11, 68
7, 63774, Control_c, 4, 11, 69
7, 63780, Control_c, 4, 11, 70
7, 63786, Control_c, 4, 11, 71
7, 63792, Control_c, 4, 11, 72
7, 63798, Control_c, 4, 11, 73
7, 63804, Control_c, 4, 11, 74
7, 63811, Control_c, 4, 11, 75
7, 63817, Control_c, 4, 11, 76
7, 63823, Control_c, 4, 11, 77
7, 63829, Control_c, 4, 11, 78
7, 63835, Control_c, 4, 11, 79
7, 63841, Control_c, 4, 11, 80
7, 63847, Control_c, 4, 11, 81
7, 63853, Control_c, 4, 11, 82
7, 63859, Control_c, 4, 11, 83
7, 63865, Control_c, 4, 11, 84
7, 63872, Control_c, 4, 11, 85
7, 63878, Control_c, 4, 11, 86
7, 63884, Control_c, 4, 11, 87
7, 63890, Control_c, 4, 11, 88
7, 63896, Control_c, 4, 11, 89
7, 63902, Control_c, 4, 11, 90
7, 63908, Control_c, 4, 11, 91
7, 63914, Control_c, 4, 11, 92
7, 63920, Control_c, 4, 11, 93
7, 63926, Control_c, 4, 11, 94
7, 63932, Control_c, 4, 11, 95
7, 63939, Control_c, 4, 11, 96
7, 63945, Control_c, 4, 11, 97
7, 63951, Control_c, 4, 11, 98
7, 63957, Control_c, 4, 11, 99
7, 63963, Control_c, 4, 11, 100
7, 63969, Control_c, 4, 11, 101
7, 63975, Control_c, 4, 11, 102
7, 63981, Control_c, 4, 11, 103
7, 63987, Control_c, 4, 11, 104
7, 63993, Control_c, 4, 11, 105
7, 64000, Control_c, 4, 11, 106
7, 64006, Control_c, 4, 11, 107
7, 64012, Control_c, 4, 11, 108
7, 64018, Control_c, 4, 11, 109
7, 64024, Control_c, 4, 11, 110
7, 64030, Control_c, 4, 11, 111
7, 64036, Control_c, 4, 11, 112
7, 64042, Control_c, 4, 11, 113
7, 64048, Control_c, 4, 11, 114
7, 64054, Control_c, 4, 11, 115
7, 64060, Control_c, 4, 11, 116
7, 64067, Control_c, 4, 11, 117
7, 64073, Control_c, 4, 11, 118
7, 64079, Control_c, 4, 11, 119
7, 64085, Control_c, 4, 11, 120
7, 64091, Control_c, 4, 11, 121
7, 64097, Control_c, 4, 11, 122
7, 64103, Control_c, 4, 11, 123
7, 64109, Control_c, 4, 11, 124
7, 64115, Control_c, 4, 11, 125
7, 64121, Control_c, 4, 11, 126
7, 64128, Note_on_c, 4, 49, 0
7, 64128, Note_on_c, 4, 55, 0
7, 64128, Control_c, 4, 11, 127
7, 64128, Note_on_c, 4, 54, 90
7, 64128, Note_on_c, 4, 60, 89
7, 64288, Note_on_c, 4, 54, 0
7, 64288, Note_on_c, 4, 60, 0
7, 64320, Note_on_c, 4, 55, 88
7, 64320, Note_on_c, 4, 59, 97
7, 64480, Note_on_c, 4, 55, 0
7, 64480, Note_on_c, 4, 59, 0
7, 64512, Control_c, 4, 11, 64
7, 64512, Note_on_c, 4, 49, 96
7, 64512, Note_on_c, 4, 55, 90
7, 64518, Control_c, 4, 11, 65
7, 64524, Control_c, 4, 11, 66
7, 64530, Control_c, 4, 11, 67
7, 64536, Control_c, 4, 11, 68
7, 64542, Control_c, 4, 11, 69
7, 64548, Control_c, 4, 11, 70
7, 64554, Control_c, 4, 11, 71
7, 64560, Control_c, 4, 11, 72
7, 64566, Control_c, 4, 11, 73
7, 64572, Control_c, 4, 11, 74
7, 64579, Control_c, 4, 11, 75
7, 64585, Control_c, 4, 11, 76
7, 64591, Control_c, 4, 11, 77
7, 64597, Control_c, 4, 11, 78
7, 64603, Control_c, 4, 11, 79
7, 64609, Control_c, 4, 11, 80
7, 64615, Control_c, 4, 11, 81
7, 64621, Control_c, 4, 11, 82
7, 64627, Control_c, 4, 11, 83
7, 64633, Control_c, 4, 11, 84
7, 64640, Control_c, 4, 11, 85
7, 64646, Control_c, 4, 11, 86
7, 64652, Control_c, 4, 11, 87
7, 64658, Control_c, 4, 11, 88
7, 64664, Control_c, 4, 11, 89
7, 64670, Control_c, 4, 11, 90
7, 64676, Control_c, 4, 11, 91
7, 64682, Control_c, 4, 11, 92
7, 64688, Control_c, 4, 11, 93
7, 64694, Control_c, 4, 11, 94
7, 64700, Control_c, 4, 11, 95
7, 64707, Control_c, 4, 11, 96
7, 64713, Control_c, 4, 11, 97
7, 64719, Control_c, 4, 11, 98
7, 64725, Control_c, 4, 11, 99
7, 64731, Control_c, 4, 11, 100
7, 64737, Control_c, 4, 11, 101
7, 64743, Control_c, 4, 11, 102
7, 64749, Control_c, 4, 11, 103
7, 64755, Control_c, 4, 11, 104
7, 64761, Control_c, 4, 11, 105
7, 64768, Control_c, 4, 11, 106
7, 64774, Control_c, 4, 11, 107
7, 64780, Control_c, 4, 11, 108
7, 64786, Control_c, 4, 11, 109
7, 64792, Control_c, 4, 11, 110
7, 64798, Control_c, 4, 11, 111
7, 64804, Control_c, 4, 11, 112
7, 64810, Control_c, 4, 11, 113
7, 64816, Control_c, 4, 11, 114
7, 64822, Control_c, 4, 11, 115
7, 64828, Control_c, 4, 11, 116
7, 64835, Control_c, 4, 11, 117
7, 64841, Control_c, 4, 11, 118
7, 64847, Control_c, 4, 11, 119
7, 64853, Control_c, 4, 11, 120
7, 64859, Control_c, 4, 11, 121
7, 64865, Control_c, 4, 11, 122
7, 64871, Control_c, 4, 11, 123
7, 64877, Control_c, 4, 11, 124
7, 64883, Control_c, 4, 11, 125
7, 64889, Control_c, 4, 11, 126
7, 64896, Note_on_c, 4, 49, 0
7, 64896, Note_on_c, 4, 55, 0
7, 64896, Control_c, 4, 11, 127
7, 64896, Note_on_c, 4, 54, 91
7, 64896, Note_on_c, 4, 60, 91
7, 65056, Note_on_c, 4, 54, 0
7, 65056, Note_on_c, 4, 60, 0
7, 65088, Note_on_c, 4, 55, 95
7, 65088, Note_on_c, 4, 59, 87
7, 65248, Note_on_c, 4, 55, 0
7, 65248, Note_on_c, 4, 59, 0
7, 65280, Control_c, 4, 11, 92
7, 65280, Note_on_c, 4, 63, 106
7, 65568, Note_on_c, 4, 63, 0
7, 65568, Note_on_c, 4, 64, 108
7, 65664, Note_on_c, 4, 64, 0
7, 65664, Note_on_c, 4, 64, 106
7, 66048, Control_c, 4, 11, 92
7, 66069, Control_c, 4, 11, 93
7, 66091, Control_c, 4, 11, 94
7, 66113, Control_c, 4, 11, 95
7, 66135, Control_c, 4, 11, 96
7, 66157, Control_c, 4, 11, 97
7, 66179, Control_c, 4, 11, 98
7, 66201, Control_c, 4, 11, 99
7, 66223, Control_c, 4, 11, 100
7, 66240, Note_on_c, 4, 64, 0
7, 66240, Note_on_c, 4, 65, 104
7, 66245, Control_c, 4, 11, 101
7, 66267, Control_c, 4, 11, 102
7, 66289, Control_c, 4, 11, 103
7, 66311, Control_c, 4, 11, 104
7, 66333, Control_c, 4, 11, 105
7, 66355, Control_c, 4, 11, 106
7, 66377, Control_c, 4, 11, 107
7, 66399, Control_c, 4, 11, 108
7, 66421, Control_c, 4, 11, 109
7, 66432, Note_on_c, 4, 65, 0
7, 66432, Note_on_c, 4, 66, 110
7, 66442, Control_c, 4, 11, 110
7, 66464, Control_c, 4, 11, 111
7, 66486, Control_c, 4, 11, 112
7, 66508, Control_c, 4, 11, 113
7, 66530, Control_c, 4, 11, 114
7, 66552, Control_c, 4, 11, 115
7, 66574, Control_c, 4, 11, 116
7, 66596, Control_c, 4, 11, 117
7, 66618, Control_c, 4, 11, 118
7, 66624, Note_on_c, 4, 66, 0
7, 66624, Note_on_c, 4, 68, 109
7, 66640, Control_c, 4, 11, 119
7, 66662, Control_c, 4, 11, 120
7, 66684, Control_c, 4, 11, 121
7, 66706, Control_c, 4, 11, 122
7, 66728, Control_c, 4, 11, 123
7, 66750, Control_c, 4, 11, 124
7, 66772, Control_c, 4, 11, 125
7, 66784, Note_on_c, 4, 68, 0
7, 66794, Control_c, 4, 11, 126
7, 66816, Control_c, 4, 11, 127
7, 66816, Control_c, 4, 11, 92
7, 66816, Note_on_c, 4, 63, 109
7, 67104, Note_on_c, 4, 63, 0
7, 67104, Note_on_c, 4, 64, 109
7, 67200, Note_on_c, 4, 64, 0
7, 67200, Note_on_c, 4, 64, 110
7, 67584, Control_c, 4, 11, 92
7, 67605, Control_c, 4, 11, 93
7, 67627, Control_c, 4, 11, 94
7, 67649, Control_c, 4, 11, 95
7, 67671, Control_c, 4, 11, 96
7, 67693, Control_c, 4, 11, 97
7, 67715, Control_c, 4, 11, 98
7, 67737, Control_c, 4, 11, 99
7, 67759, Control_c, 4, 11, 100
7, 67776, Note_on_c, 4, 64, 0
7, 67776, Note_on_c, 4, 59, 110
7, 67776, Note_on_c, 4, 63, 112
7, 67781, Control_c, 4, 11, 101
7, 67803, Control_c, 4, 11, 102
7, 67825, Control_c, 4, 11, 103
7, 67847, Control_c, 4, 11, 104
7, 67869, Control_c, 4, 11, 105
7, 67891, Control_c, 4, 11, 106
7, 67913, Control_c, 4, 11, 107
7, 67935, Control_c, 4, 11, 108
7, 67957, Control_c, 4, 11, 109
7, 67968, Note_on_c, 4, 59, 0
7, 67968, Note_on_c, 4, 63, 0
7, 67968, Note_on_c, 4, 58, 109
7, 67968, Note_on_c, 4, 62, 109
7, 67978, Control_c, 4, 11, 110
7, 68000, Control_c, 4, 11, 111
7, 68022, Control_c, 4, 11, 112
7, 68044, Control_c, 4, 11, 113
7, 68066, Control_c, 4, 11, 114
7, 68088, Control_c, 4, 11, 115
7, 68110, Control_c, 4, 11, 116
7, 68132, Control_c, 4, 11, 117
7, 68154, Control_c, 4, 11, 118
7, 68176, Control_c, 4, 11, 119
7, 68198, Control_c, 4, 11, 120
7, 68220, Control_c, 4, 11, 121
7, 68242, Control_c, 4, 11, 122
7, 68256, Note_on_c, 4, 58, 0
7, 68256, Note_on_c, 4, 62, 0
7, 68256, Note_on_c, 4, 56, 111
7, 68256, Note_on_c, 4, 60, 112
7, 68264, Control_c, 4, 11, 123
7, 68286, Control_c, 4, 11, 124
7, 68308, Control_c, 4, 11, 125
7, 68330, Control_c, 4, 11, 126
7, 68352, Note_on_c, 4, 56, 0
7, 68352, Note_on_c, 4, 60, 0
7, 68352, Control_c, 4, 11, 127
7, 68352, Note_on_c, 4, 55, 113
7, 68352, Note_on_c, 4, 59, 112
7, 68512, Note_on_c, 4, 55, 0
7, 68512, Note_on_c, 4, 59, 0
7, 68544, Control_c, 4, 11, 127
7, 68544, Note_on_c, 4, 53, 109
7, 68544, Note_on_c, 4, 55, 112
7, 68555, Control_c, 4, 11, 126
7, 68567, Control_c, 4, 11, 125
7, 68579, Control_c, 4, 11, 124
7, 68590, Control_c, 4, 11, 123
7, 68602, Control_c, 4, 11, 122
7, 68614, Control_c, 4, 11, 121
7, 68625, Control_c, 4, 11, 120
7, 68637, Control_c, 4, 11, 119
7, 68649, Control_c, 4, 11, 118
7, 68661, Control_c, 4, 11, 117
7, 68672, Control_c, 4, 11, 116
7, 68684, Control_c, 4, 11, 115
7, 68696, Control_c, 4, 11, 114
7, 68704, Note_on_c, 4, 53, 0
7, 68704, Note_on_c, 4, 55, 0
7, 68707, Control_c, 4, 11, 113
7, 68719, Control_c, 4, 11, 112
7, 68731, Control_c, 4, 11, 111
7, 68736, Note_on_c, 4, 52, 111
7, 68736, Note_on_c, 4, 56, 104
7, 68743, Control_c, 4, 11, 110
7, 68754, Control_c, 4, 11, 109
7, 68766, Control_c, 4, 11, 108
7, 68778, Control_c, 4, 11, 107
7, 68789, Control_c, 4, 11, 106
7, 68801, Control_c, 4, 11, 105
7, 68813, Control_c, 4, 11, 104
7, 68824, Control_c, 4, 11, 103
7, 68836, Control_c, 4, 11, 102
7, 68848, Control_c, 4, 11, 101
7, 68860, Control_c, 4, 11, 100
7, 68871, Control_c, 4, 11, 99
7, 68883, Control_c, 4, 11, 98
7, 68895, Control_c, 4, 11, 97
7, 68906, Control_c, 4, 11, 96
7, 68918, Control_c, 4, 11, 95
7, 68930, Control_c, 4, 11, 94
7, 68942, Control_c, 4, 11, 93
7, 68953, Control_c, 4, 11, 92
7, 68965, Control_c, 4, 11, 91
7, 68977, Control_c, 4, 11, 90
7, 68988, Control_c, 4, 11, 89
7, 69000, Control_c, 4, 11, 88
7, 69012, Control_c, 4, 11, 87
7, 69024, Control_c, 4, 11, 86
7, 69035, Control_c, 4, 11, 85
7, 69047, Control_c, 4, 11, 84
7, 69059, Control_c, 4, 11, 83
7, 69070, Control_c, 4, 11, 82
7, 69082, Control_c, 4, 11, 81
7, 69094, Control_c, 4, 11, 80
7, 69105, Control_c, 4, 11, 79
7, 69117, Control_c, 4, 11, 78
7, 69129, Control_c, 4, 11, 77
7, 69141, Control_c, 4, 11, 76
7, 69152, Control_c, 4, 11, 75
7, 69164, Control_c, 4, 11, 74
7, 69176, Control_c, 4, 11, 73
7, 69187, Control_c, 4, 11, 72
7, 69199, Control_c, 4, 11, 71
7, 69211, Control_c, 4, 11, 70
7, 69223, Control_c, 4, 11, 69
7, 69234, Control_c, 4, 11, 68
7, 69246, Control_c, 4, 11, 67
7, 69258, Control_c, 4, 11, 66
7, 69269, Control_c, 4, 11, 65
7, 69281, Control_c, 4, 11, 64
7, 69293, Control_c, 4, 11, 63
7, 69304, Control_c, 4, 11, 62
7, 69316, Control_c, 4, 11, 61
7, 69328, Control_c, 4, 11, 60
7, 69340, Control_c, 4, 11, 59
7, 69351, Control_c, 4, 11, 58
7, 69363, Control_c, 4, 11, 57
7, 69375, Control_c, 4, 11, 56
7, 69386, Control_c, 4, 11, 55
7, 69398, Control_c, 4, 11, 54
7, 69410, Control_c, 4, 11, 53
7, 69422, Control_c, 4, 11, 52
7, 69433, Control_c, 4, 11, 51
7, 69445, Control_c, 4, 11, 50
7, 69457, Control_c, 4, 11, 49
7, 69468, Control_c, 4, 11, 48
7, 69480, Control_c, 4, 11, 47
7, 69492, Control_c, 4, 11, 46
7, 69504, Note_on_c, 4, 52, 0
7, 69504, Note_on_c, 4, 56, 0
7, 69504, Control_c, 4, 11, 45
7, 69504, Note_on_c, 4, 50, 111
7, 69504, Note_on_c, 4, 53, 108
7, 69840, Note_on_c, 4, 50, 0
7, 69840, Note_on_c, 4, 53, 0
7, 69888, Control_c, 4, 11, 92
7, 69888, Note_on_c, 4, 49, 43
7, 69888, Note_on_c, 4, 52, 43
7, 69909, Control_c, 4, 11, 93
7, 69931, Control_c, 4, 11, 94
7, 69953, Control_c, 4, 11, 95
7, 69975, Control_c, 4, 11, 96
7, 69997, Control_c, 4, 11, 97
7, 70019, Control_c, 4, 11, 98
7, 70041, Control_c, 4, 11, 99
7, 70063, Control_c, 4, 11, 100
7, 70085, Control_c, 4, 11, 101
7, 70107, Control_c, 4, 11, 102
7, 70129, Control_c, 4, 11, 103
7, 70151, Control_c, 4, 11, 104
7, 70173, Control_c, 4, 11, 105
7, 70195, Control_c, 4, 11, 106
7, 70217, Control_c, 4, 11, 107
7, 70239, Control_c, 4, 11, 108
7, 70261, Control_c, 4, 11, 109
7, 70282, Control_c, 4, 11, 110
7, 70304, Control_c, 4, 11, 111
7, 70326, Control_c, 4, 11, 112
7, 70348, Control_c, 4, 11, 113
7, 70370, Control_c, 4, 11, 114
7, 70392, Control_c, 4, 11, 115
7, 70414, Control_c, 4, 11, 116
7, 70436, Control_c, 4, 11, 117
7, 70458, Control_c, 4, 11, 118
7, 70480, Control_c, 4, 11, 119
7, 70502, Control_c, 4, 11, 120
7, 70524, Control_c, 4, 11, 121
7, 70546, Control_c, 4, 11, 122
7, 70568, Control_c, 4, 11, 123
7, 70590, Control_c, 4, 11, 124
7, 70612, Control_c, 4, 11, 125
7, 70634, Control_c, 4, 11, 126
7, 70656, Control_c, 4, 11, 127
7, 70677, Control_c, 4, 11, 126
7, 70699, Control_c, 4, 11, 125
7, 70721, Control_c, 4, 11, 124
7, 70743, Control_c, 4, 11, 123
7, 70765, Control_c, 4, 11, 122
7, 70787, Control_c, 4, 11, 121
7, 70809, Control_c, 4, 11, 120
7, 70831, Control_c, 4, 11, 119
7, 70853, Control_c, 4, 11, 118
7, 70875, Control_c, 4, 11, 117
7, 70897, Control_c, 4, 11, 116
7, 70919, Control_c, 4, 11, 115
7, 70941, Control_c, 4, 11, 114
7, 70963, Control_c, 4, 11, 113
7, 70985, Control_c, 4, 11, 112
7, 71007, Control_c, 4, 11, 111
7, 71029, Control_c, 4, 11, 110
7, 71050, Control_c, 4, 11, 109
7, 71072, Control_c, 4, 11, 108
7, 71094, Control_c, 4, 11, 107
7, 71116, Control_c, 4, 11, 106
7, 71138, Control_c, 4, 11, 105
7, 71160, Control_c, 4, 11, 104
7, 71182, Control_c, 4, 11, 103
7, 71204, Control_c, 4, 11, 102
7, 71226, Control_c, 4, 11, 101
7, 71248, Control_c, 4, 11, 100
7, 71270, Control_c, 4, 11, 99
7, 71292, Control_c, 4, 11, 98
7, 71314, Control_c, 4, 11, 97
7, 71336, Control_c, 4, 11, 96
7, 71358, Control_c, 4, 11, 95
7, 71376, Note_on_c, 4, 49, 0
7, 71376, Note_on_c, 4, 52, 0
7, 71380, Control_c, 4, 11, 94
7, 71402, Control_c, 4, 11, 93
7, 71424, Control_c, 4, 11, 92
7, 71424, Control_c, 4, 11, 64
7, 71424, Note_on_c, 4, 54, 90
7, 71430, Control_c, 4, 11, 65
7, 71436, Control_c, 4, 11, 66
7, 71442, Control_c, 4, 11, 67
7, 71448, Control_c, 4, 11, 68
7, 71454, Control_c, 4, 11, 69
7, 71460, Control_c, 4, 11, 70
7, 71466, Control_c, 4, 11, 71
7, 71472, Control_c, 4, 11, 72
7, 71478, Control_c, 4, 11, 73
7, 71484, Control_c, 4, 11, 74
7, 71491, Control_c, 4, 11, 75
7, 71497, Control_c, 4, 11, 76
7, 71503, Control_c, 4, 11, 77
7, 71509, Control_c, 4, 11, 78
7, 71515, Control_c, 4, 11, 79
7, 71521, Control_c, 4, 11, 80
7, 71527, Control_c, 4, 11, 81
7, 71533, Control_c, 4, 11, 82
7, 71539, Control_c, 4, 11, 83
7, 71545, Control_c, 4, 11, 84
7, 71552, Control_c, 4, 11, 85
7, 71558, Control_c, 4, 11, 86
7, 71564, Control_c, 4, 11, 87
7, 71570, Control_c, 4, 11, 88
7, 71576, Control_c, 4, 11, 89
7, 71582, Control_c, 4, 11, 90
7, 71588, Control_c, 4, 11, 91
7, 71594, Control_c, 4, 11, 92
7, 71600, Control_c, 4, 11, 93
7, 71606, Control_c, 4, 11, 94
7, 71612, Control_c, 4, 11, 95
7, 71619, Control_c, 4, 11, 96
7, 71625, Control_c, 4, 11, 97
7, 71631, Control_c, 4, 11, 98
7, 71637, Control_c, 4, 11, 99
7, 71643, Control_c, 4, 11, 100
7, 71649, Control_c, 4, 11, 101
7, 71655, Control_c, 4, 11, 102
7, 71661, Control_c, 4, 11, 103
7, 71667, Control_c, 4, 11, 104
7, 71673, Control_c, 4, 11, 105
7, 71680, Control_c, 4, 11, 106
7, 71686, Control_c, 4, 11, 107
7, 71692, Control_c, 4, 11, 108
7, 71698, Control_c, 4, 11, 109
7, 71704, Control_c, 4, 11, 110
7, 71710, Control_c, 4, 11, 111
7, 71716, Control_c, 4, 11, 112
7, 71722, Control_c, 4, 11, 113
7, 71728, Control_c, 4, 11, 114
7, 71734, Control_c, 4, 11, 115
7, 71740, Control_c, 4, 11, 116
7, 71747, Control_c, 4, 11, 117
7, 71753, Control_c, 4, 11, 118
7, 71759, Control_c, 4, 11, 119
7, 71765, Control_c, 4, 11, 120
7, 71771, Control_c, 4, 11, 121
7, 71777, Control_c, 4, 11, 122
7, 71783, Control_c, 4, 11, 123
7, 71789, Control_c, 4, 11, 124
7, 71795, Control_c, 4, 11, 125
7, 71801, Control_c, 4, 11, 126
7, 71808, Note_on_c, 4, 54, 0
7, 71808, Control_c, 4, 11, 127
7, 71808, Note_on_c, 4, 59, 92
7, 71928, Note_on_c, 4, 59, 0
7, 72000, Note_on_c, 4, 60, 96
7, 72120, Note_on_c, 4, 60, 0
7, 72192, Control_c, 4, 11, 64
7, 72192, Note_on_c, 4, 54, 91
7, 72192, Note_on_c, 4, 60, 95
7, 72198, Control_c, 4, 11, 65
7, 72204, Control_c, 4, 11, 66
7, 72210, Control_c, 4, 11, 67
7, 72216, Control_c, 4, 11, 68
7, 72222, Control_c, 4, 11, 69
7, 72228, Control_c, 4, 11, 70
7, 72234, Control_c, 4, 11, 71
7, 72240, Control_c, 4, 11, 72
7, 72246, Control_c, 4, 11, 73
7, 72252, Control_c, 4, 11, 74
7, 72259, Control_c, 4, 11, 75
7, 72265, Control_c, 4, 11, 76
7, 72271, Control_c, 4, 11, 77
7, 72277, Control_c, 4, 11, 78
7, 72283, Control_c, 4, 11, 79
7, 72289, Control_c, 4, 11, 80
7, 72295, Control_c, 4, 11, 81
7, 72301, Control_c, 4, 11, 82
7, 72307, Control_c, 4, 11, 83
7, 72313, Control_c, 4, 11, 84
7, 72320, Control_c, 4, 11, 85
7, 72326, Control_c, 4, 11, 86
7, 72332, Control_c, 4, 11, 87
7, 72338, Control_c, 4, 11, 88
7, 72344, Control_c, 4, 11, 89
7, 72350, Control_c, 4, 11, 90
7, 72356, Control_c, 4, 11, 91
7, 72362, Control_c, 4, 11, 92
7, 72368, Control_c, 4, 11, 93
7, 72374, Control_c, 4, 11, 94
7, 72380, Control_c, 4, 11, 95
7, 72387, Control_c, 4, 11, 96
7, 72393, Control_c, 4, 11, 97
7, 72399, Control_c, 4, 11, 98
7, 72405, Control_c, 4, 11, 99
7, 72411, Control_c, 4, 11, 100
7, 72417, Control_c, 4, 11, 101
7, 72423, Control_c, 4, 11, 102
7, 72429, Control_c, 4, 11, 103
7, 72435, Control_c, 4, 11, 104
7, 72441, Control_c, 4, 11, 105
7, 72448, Control_c, 4, 11, 106
7, 72454, Control_c, 4, 11, 107
7, 72460, Control_c, 4, 11, 108
7, 72466, Control_c, 4, 11, 109
7, 72472, Control_c, 4, 11, 110
7, 72478, Control_c, 4, 11, 111
7, 72484, Control_c, 4, 11, 112
7, 72490, Control_c, 4, 11, 113
7, 72496, Control_c, 4, 11, 114
7, 72502, Control_c, 4, 11, 115
7, 72508, Control_c, 4, 11, 116
7, 72515, Control_c, 4, 11, 117
7, 72521, Control_c, 4, 11, 118
7, 72527, Control_c, 4, 11, 119
7, 72533, Control_c, 4, 11, 120
7, 72539, Control_c, 4, 11, 121
7, 72545, Control_c, 4, 11, 122
7, 72551, Control_c, 4, 11, 123
7, 72557, Control_c, 4, 11, 124
7, 72563, Control_c, 4, 11, 125
7, 72569, Control_c, 4, 11, 126
7, 72576, Note_on_c, 4, 54, 0
7, 72576, Note_on_c, 4, 60, 0
7, 72576, Control_c, 4, 11, 127
7, 72576, Note_on_c, 4, 57, 90
7, 72576, Note_on_c, 4, 59, 94
7, 72696, Note_on_c, 4, 57, 0
7, 72696, Note_on_c, 4, 59, 0
7, 72768, Note_on_c, 4, 52, 90
7, 72768, Note_on_c, 4, 58, 91
7, 72888, Note_on_c, 4, 52, 0
7, 72888, Note_on_c, 4, 58, 0
7, 72960, Note_on_c, 4, 53, 95
7, 72960, Note_on_c, 4, 57, 91
7, 73054, Note_on_c, 4, 53, 0
7, 73054, Note_on_c, 4, 57, 0
7, 75264, Control_c, 4, 11, 127
7, 76032, Note_on_c, 4, 41, 79
7, 76152, Note_on_c, 4, 41, 0
7, 76224, Note_on_c, 4, 43, 79
7, 76344, Note_on_c, 4, 43, 0
7, 76416, Note_on_c, 4, 47, 80
7, 76891, Note_on_c, 4, 47, 0
7, 76928, Note_on_c, 4, 45, 71
7, 77019, Note_on_c, 4, 45, 0
7, 77056, Note_on_c, 4, 43, 75
7, 77147, Note_on_c, 4, 43, 0
7, 77184, Note_on_c, 4, 41, 73
7, 77304, Note_on_c, 4, 41, 0
7, 77376, Note_on_c, 4, 39, 76
7, 77496, Note_on_c, 4, 39, 0
7, 77568, Note_on_c, 4, 37, 78
7, 77688, Note_on_c, 4, 37, 0
7, 77760, Note_on_c, 4, 41, 73
7, 78096, Note_on_c, 4, 41, 0
7, 78144, Note_on_c, 4, 43, 80
7, 78264, Note_on_c, 4, 43, 0
7, 78336, Note_on_c, 4, 47, 78
7, 78592, Note_on_c, 4, 47, 0
7, 78592, Note_on_c, 4, 45, 76
7, 78848, Note_on_c, 4, 45, 0
7, 78848, Note_on_c, 4, 43, 74
7, 79104, Note_on_c, 4, 43, 0
7, 79104, Note_on_c, 4, 41, 77
7, 80064, Control_c, 4, 11, 127
7, 80073, Control_c, 4, 11, 126
7, 80082, Control_c, 4, 11, 125
7, 80091, Control_c, 4, 11, 124
7, 80100, Control_c, 4, 11, 123
7, 80109, Control_c, 4, 11, 122
7, 80118, Control_c, 4, 11, 121
7, 80128, Control_c, 4, 11, 120
7, 80137, Control_c, 4, 11, 119
7, 80146, Control_c, 4, 11, 118
7, 80155, Control_c, 4, 11, 117
7, 80164, Control_c, 4, 11, 116
7, 80173, Control_c, 4, 11, 115
7, 80182, Control_c, 4, 11, 114
7, 80192, Control_c, 4, 11, 113
7, 80201, Control_c, 4, 11, 112
7, 80210, Control_c, 4, 11, 111
7, 80219, Control_c, 4, 11, 110
7, 80228, Control_c, 4, 11, 109
7, 80237, Control_c, 4, 11, 108
7, 80246, Control_c, 4, 11, 107
7, 80256, Control_c, 4, 11, 106
7, 80265, Control_c, 4, 11, 105
7, 80274, Control_c, 4, 11, 104
7, 80283, Control_c, 4, 11, 103
7, 80292, Control_c, 4, 11, 102
7, 80301, Control_c, 4, 11, 101
7, 80310, Control_c, 4, 11, 100
7, 80320, Control_c, 4, 11, 99
7, 80329, Control_c, 4, 11, 98
7, 80338, Control_c, 4, 11, 97
7, 80347, Control_c, 4, 11, 96
7, 80356, Control_c, 4, 11, 95
7, 80365, Control_c, 4, 11, 94
7, 80374, Control_c, 4, 11, 93
7, 80384, Control_c, 4, 11, 92
7, 80393, Control_c, 4, 11, 91
7, 80402, Control_c, 4, 11, 90
7, 80411, Control_c, 4, 11, 89
7, 80420, Control_c, 4, 11, 88
7, 80429, Control_c, 4, 11, 87
7, 80438, Control_c, 4, 11, 86
7, 80448, Control_c, 4, 11, 85
7, 80457, Control_c, 4, 11, 84
7, 80466, Control_c, 4, 11, 83
7, 80475, Control_c, 4, 11, 82
7, 80484, Control_c, 4, 11, 81
7, 80493, Control_c, 4, 11, 80
7, 80502, Control_c, 4, 11, 79
7, 80512, Control_c, 4, 11, 78
7, 80521, Control_c, 4, 11, 77
7, 80530, Control_c, 4, 11, 76
7, 80539, Control_c, 4, 11, 75
7, 80548, Control_c, 4, 11, 74
7, 80557, Control_c, 4, 11, 73
7, 80566, Control_c, 4, 11, 72
7, 80576, Control_c, 4, 11, 71
7, 80585, Control_c, 4, 11, 70
7, 80592, Note_on_c, 4, 41, 0
7, 80594, Control_c, 4, 11, 69
7, 80603, Control_c, 4, 11, 68
7, 80612, Control_c, 4, 11, 67
7, 80621, Control_c, 4, 11, 66
7, 80630, Control_c, 4, 11, 65
7, 80640, Control_c, 4, 11, 64
7, 80640, Control_c, 4, 11, 127
7, 80640, Note_on_c, 4, 45, 79
7, 80760, Note_on_c, 4, 45, 0
7, 80832, Note_on_c, 4, 47, 74
7, 80952, Note_on_c, 4, 47, 0
7, 81024, Note_on_c, 4, 51, 78
7, 81534, Note_on_c, 4, 51, 0
7, 81536, Note_on_c, 4, 49, 70
7, 81627, Note_on_c, 4, 49, 0
7, 81664, Note_on_c, 4, 47, 75
7, 81755, Note_on_c, 4, 47, 0
7, 81792, Note_on_c, 4, 45, 76
7, 81912, Note_on_c, 4, 45, 0
7, 81984, Note_on_c, 4, 43, 76
7, 82104, Note_on_c, 4, 43, 0
7, 82176, Note_on_c, 4, 41, 78
7, 82296, Note_on_c, 4, 41, 0
7, 82368, Note_on_c, 4, 45, 71
7, 82704, Note_on_c, 4, 45, 0
7, 82752, Note_on_c, 4, 47, 74
7, 82872, Note_on_c, 4, 47, 0
7, 82944, Note_on_c, 4, 51, 72
7, 83200, Note_on_c, 4, 51, 0
7, 83200, Note_on_c, 4, 49, 78
7, 83456, Note_on_c, 4, 49, 0
7, 83456, Note_on_c, 4, 47, 75
7, 83712, Note_on_c, 4, 47, 0
7, 83712, Note_on_c, 4, 45, 80
7, 84864, Control_c, 4, 11, 127
7, 84870, Control_c, 4, 11, 126
7, 84876, Control_c, 4, 11, 125
7, 84882, Control_c, 4, 11, 124
7, 84888, Control_c, 4, 11, 123
7, 84894, Control_c, 4, 11, 122
7, 84900, Control_c, 4, 11, 121
7, 84906, Control_c, 4, 11, 120
7, 84912, Control_c, 4, 11, 119
7, 84918, Control_c, 4, 11, 118
7, 84924, Control_c, 4, 11, 117
7, 84931, Control_c, 4, 11, 116
7, 84937, Control_c, 4, 11, 115
7, 84943, Control_c, 4, 11, 114
7, 84949, Control_c, 4, 11, 113
7, 84955, Control_c, 4, 11, 112
7, 84961, Control_c, 4, 11, 111
7, 84967, Control_c, 4, 11, 110
7, 84973, Control_c, 4, 11, 109
7, 84979, Control_c, 4, 11, 108
7, 84985, Control_c, 4, 11, 107
7, 84992, Control_c, 4, 11, 106
7, 84998, Control_c, 4, 11, 105
7, 85004, Control_c, 4, 11, 104
7, 85010, Control_c, 4, 11, 103
7, 85016, Control_c, 4, 11, 102
7, 85022, Control_c, 4, 11, 101
7, 85028, Control_c, 4, 11, 100
7, 85034, Control_c, 4, 11, 99
7, 85040, Control_c, 4, 11, 98
7, 85046, Control_c, 4, 11, 97
7, 85052, Control_c, 4, 11, 96
7, 85059, Control_c, 4, 11, 95
7, 85065, Control_c, 4, 11, 94
7, 85071, Control_c, 4, 11, 93
7, 85077, Control_c, 4, 11, 92
7, 85083, Control_c, 4, 11, 91
7, 85089, Control_c, 4, 11, 90
7, 85095, Control_c, 4, 11, 89
7, 85101, Control_c, 4, 11, 88
7, 85107, Control_c, 4, 11, 87
7, 85113, Control_c, 4, 11, 86
7, 85120, Control_c, 4, 11, 85
7, 85126, Control_c, 4, 11, 84
7, 85132, Control_c, 4, 11, 83
7, 85138, Control_c, 4, 11, 82
7, 85144, Control_c, 4, 11, 81
7, 85150, Control_c, 4, 11, 80
7, 85156, Control_c, 4, 11, 79
7, 85162, Control_c, 4, 11, 78
7, 85168, Control_c, 4, 11, 77
7, 85174, Control_c, 4, 11, 76
7, 85180, Control_c, 4, 11, 75
7, 85187, Control_c, 4, 11, 74
7, 85193, Control_c, 4, 11, 73
7, 85199, Control_c, 4, 11, 72
7, 85200, Note_on_c, 4, 45, 0
7, 85205, Control_c, 4, 11, 71
7, 85211, Control_c, 4, 11, 70
7, 85217, Control_c, 4, 11, 69
7, 85223, Control_c, 4, 11, 68
7, 85229, Control_c, 4, 11, 67
7, 85235, Control_c, 4, 11, 66
7, 85241, Control_c, 4, 11, 65
7, 85248, Control_c, 4, 11, 64
7, 85248, Note_on_c, 4, 59, 73
7, 85368, Note_on_c, 4, 59, 0
7, 85440, Note_on_c, 4, 61, 70
7, 85560, Note_on_c, 4, 61, 0
7, 85632, Control_c, 4, 11, 127
7, 85632, Note_on_c, 4, 65, 78
7, 86142, Note_on_c, 4, 65, 0
7, 86144, Note_on_c, 4, 63, 80
7, 86235, Note_on_c, 4, 63, 0
7, 86272, Note_on_c, 4, 61, 79
7, 86363, Note_on_c, 4, 61, 0
7, 86400, Note_on_c, 4, 59, 71
7, 86520, Note_on_c, 4, 59, 0
7, 86592, Note_on_c, 4, 57, 73
7, 86712, Note_on_c, 4, 57, 0
7, 86784, Note_on_c, 4, 55, 78
7, 86904, Note_on_c, 4, 55, 0
7, 86976, Note_on_c, 4, 59, 70
7, 87312, Note_on_c, 4, 59, 0
7, 87360, Note_on_c, 4, 61, 76
7, 87480, Note_on_c, 4, 61, 0
7, 87552, Note_on_c, 4, 65, 71
7, 87680, Note_on_c, 4, 65, 0
7, 87680, Note_on_c, 4, 63, 75
7, 87808, Note_on_c, 4, 63, 0
7, 87808, Note_on_c, 4, 61, 78
7, 87936, Note_on_c, 4, 61, 0
7, 87936, Note_on_c, 4, 60, 76
7, 88096, Note_on_c, 4, 60, 0
7, 89088, Note_on_c, 4, 59, 49
7, 89208, Note_on_c, 4, 59, 0
7, 89280, Note_on_c, 4, 61, 40
7, 89400, Note_on_c, 4, 61, 0
7, 89472, Note_on_c, 4, 65, 54
7, 89982, Note_on_c, 4, 65, 0
7, 89984, Note_on_c, 4, 63, 62
7, 90075, Note_on_c, 4, 63, 0
7, 90112, Note_on_c, 4, 61, 60
7, 90203, Note_on_c, 4, 61, 0
7, 90240, Note_on_c, 4, 59, 65
7, 90360, Note_on_c, 4, 59, 0
7, 90432, Note_on_c, 4, 57, 70
7, 90552, Note_on_c, 4, 57, 0
7, 90624, Note_on_c, 4, 55, 69
7, 90744, Note_on_c, 4, 55, 0
7, 90816, Note_on_c, 4, 59, 73
7, 91200, Note_on_c, 4, 59, 0
7, 91200, Note_on_c, 4, 61, 89
7, 91360, Note_on_c, 4, 61, 0
7, 91392, Note_on_c, 4, 65, 92
7, 91520, Note_on_c, 4, 65, 0
7, 91520, Note_on_c, 4, 63, 93
7, 91648, Note_on_c, 4, 63, 0
7, 91648, Note_on_c, 4, 61, 98
7, 91776, Note_on_c, 4, 61, 0
7, 91776, Note_on_c, 4, 42, 103
7, 92448, Note_on_c, 4, 42, 0
7, 92448, Note_on_c, 4, 43, 107
7, 92544, Note_on_c, 4, 43, 0
7, 92544, Note_on_c, 4, 44, 111
7, 93216, Note_on_c, 4, 44, 0
7, 93216, Note_on_c, 4, 45, 111
7, 93312, Note_on_c, 4, 45, 0
7, 93312, Note_on_c, 4, 46, 103
7, 93600, Note_on_c, 4, 46, 0
7, 93600, Note_on_c, 4, 47, 106
7, 93696, Note_on_c, 4, 47, 0
7, 93696, Note_on_c, 4, 48, 111
7, 95184, Note_on_c, 4, 48, 0
7, 95232, Note_on_c, 4, 54, 95
7, 95232, Note_on_c, 4, 60, 93
7, 95520, Note_on_c, 4, 54, 0
7, 95520, Note_on_c, 4, 60, 0
7, 95520, Note_on_c, 4, 55, 89
7, 95520, Note_on_c, 4, 61, 93
7, 95616, Note_on_c, 4, 55, 0
7, 95616, Note_on_c, 4, 61, 0
7, 95616, Note_on_c, 4, 56, 94
7, 95616, Note_on_c, 4, 62, 86
7, 96288, Note_on_c, 4, 56, 0
7, 96288, Note_on_c, 4, 62, 0
7, 96288, Note_on_c, 4, 57, 84
7, 96288, Note_on_c, 4, 63, 84
7, 96384, Note_on_c, 4, 57, 0
7, 96384, Note_on_c, 4, 63, 0
7, 96384, Note_on_c, 4, 58, 76
7, 96384, Note_on_c, 4, 64, 76
7, 96672, Note_on_c, 4, 58, 0
7, 96672, Note_on_c, 4, 64, 0
7, 96672, Note_on_c, 4, 59, 73
7, 96672, Note_on_c, 4, 65, 76
7, 96768, Note_on_c, 4, 59, 0
7, 96768, Note_on_c, 4, 65, 0
7, 96768, Note_on_c, 4, 60, 76
7, 96768, Note_on_c, 4, 66, 75
7, 96928, Note_on_c, 4, 60, 0
7, 96928, Note_on_c, 4, 66, 0
7, 101376, Note_on_c, 4, 48, 41
7, 101422, Note_on_c, 4, 48, 0
7, 101424, Note_on_c, 4, 50, 44
7, 101470, Note_on_c, 4, 50, 0
7, 101472, Note_on_c, 4, 48, 47
7, 101518, Note_on_c, 4, 48, 0
7, 101520, Note_on_c, 4, 50, 45
7, 101566, Note_on_c, 4, 50, 0
7, 101568, Note_on_c, 4, 48, 52
7, 101614, Note_on_c, 4, 48, 0
7, 101616, Note_on_c, 4, 50, 50
7, 101662, Note_on_c, 4, 50, 0
7, 101664, Note_on_c, 4, 48, 56
7, 101710, Note_on_c, 4, 48, 0
7, 101712, Note_on_c, 4, 50, 56
7, 101758, Note_on_c, 4, 50, 0
7, 101760, Note_on_c, 4, 48, 61
7, 101806, Note_on_c, 4, 48, 0
7, 101808, Note_on_c, 4, 50, 61
7, 101854, Note_on_c, 4, 50, 0
7, 101856, Note_on_c, 4, 48, 57
7, 101902, Note_on_c, 4, 48, 0
7, 101904, Note_on_c, 4, 50, 56
7, 101950, Note_on_c, 4, 50, 0
7, 101952, Note_on_c, 4, 48, 53
7, 101998, Note_on_c, 4, 48, 0
7, 102000, Note_on_c, 4, 50, 40
7, 102046, Note_on_c, 4, 50, 0
7, 102048, Note_on_c, 4, 48, 36
7, 102094, Note_on_c, 4, 48, 0
7, 102096, Note_on_c, 4, 50, 38
7, 102142, Note_on_c, 4, 50, 0
7, 102144, Note_on_c, 4, 48, 33
7, 102190, Note_on_c, 4, 48, 0
7, 102192, Note_on_c, 4, 50, 26
7, 102238, Note_on_c, 4, 50, 0
7, 102240, Note_on_c, 4, 48, 28
7, 102286, Note_on_c, 4, 48, 0
7, 102288, Note_on_c, 4, 50, 33
7, 102334, Note_on_c, 4, 50, 0
7, 102336, Note_on_c, 4, 48, 32
7, 102382, Note_on_c, 4, 48, 0
7, 102384, Note_on_c, 4, 50, 26
7, 102430, Note_on_c, 4, 50, 0
7, 102432, Note_on_c, 4, 48, 27
7, 102478, Note_on_c, 4, 48, 0
7, 102480, Note_on_c, 4, 50, 24
7, 102526, Note_on_c, 4, 50, 0
7, 102528, Note_on_c, 4, 48, 22
7, 102574, Note_on_c, 4, 48, 0
7, 102576, Note_on_c, 4, 50, 27
7, 102622, Note_on_c, 4, 50, 0
7, 102624, Note_on_c, 4, 48, 26
7, 102670, Note_on_c, 4, 48, 0
7, 102672, Note_on_c, 4, 50, 20
7, 102718, Note_on_c, 4, 50, 0
7, 102720, Note_on_c, 4, 48, 21
7, 102766, Note_on_c, 4, 48, 0
7, 102768, Note_on_c, 4, 50, 14
7, 102814, Note_on_c, 4, 50, 0
7, 102816, Note_on_c, 4, 48, 17
7, 102862, Note_on_c, 4, 48, 0
7, 102864, Note_on_c, 4, 50, 15
7, 102910, Note_on_c, 4, 50, 0
7, 105216, Control_c, 4, 11, 127
7, 105984, Note_on_c, 4, 51, 35
7, 105984, Note_on_c, 4, 60, 27
7, 106752, Control_c, 4, 11, 127
7, 106764, Control_c, 4, 11, 126
7, 106776, Control_c, 4, 11, 125
7, 106788, Control_c, 4, 11, 124
7, 106800, Control_c, 4, 11, 123
7, 106812, Control_c, 4, 11, 122
7, 106825, Control_c, 4, 11, 121
7, 106837, Control_c, 4, 11, 120
7, 106849, Control_c, 4, 11, 119
7, 106861, Control_c, 4, 11, 118
7, 106873, Control_c, 4, 11, 117
7, 106886, Control_c, 4, 11, 116
7, 106898, Control_c, 4, 11, 115
7, 106910, Control_c, 4, 11, 114
7, 106922, Control_c, 4, 11, 113
7, 106934, Control_c, 4, 11, 112
7, 106947, Control_c, 4, 11, 111
7, 106959, Control_c, 4, 11, 110
7, 106971, Control_c, 4, 11, 109
7, 106983, Control_c, 4, 11, 108
7, 106995, Control_c, 4, 11, 107
7, 107008, Control_c, 4, 11, 106
7, 107020, Control_c, 4, 11, 105
7, 107032, Control_c, 4, 11, 104
7, 107044, Control_c, 4, 11, 103
7, 107056, Control_c, 4, 11, 102
7, 107068, Control_c, 4, 11, 101
7, 107081, Control_c, 4, 11, 100
7, 107093, Control_c, 4, 11, 99
7, 107105, Control_c, 4, 11, 98
7, 107117, Control_c, 4, 11, 97
7, 107129, Control_c, 4, 11, 96
7, 107142, Control_c, 4, 11, 95
7, 107154, Control_c, 4, 11, 94
7, 107166, Control_c, 4, 11, 93
7, 107178, Control_c, 4, 11, 92
7, 107190, Control_c, 4, 11, 91
7, 107203, Control_c, 4, 11, 90
7, 107215, Control_c, 4, 11, 89
7, 107227, Control_c, 4, 11, 88
7, 107239, Control_c, 4, 11, 87
7, 107251, Control_c, 4, 11, 86
7, 107264, Control_c, 4, 11, 85
7, 107276, Control_c, 4, 11, 84
7, 107288, Control_c, 4, 11, 83
7, 107300, Control_c, 4, 11, 82
7, 107312, Control_c, 4, 11, 81
7, 107324, Control_c, 4, 11, 80
7, 107337, Control_c, 4, 11, 79
7, 107349, Control_c, 4, 11, 78
7, 107361, Control_c, 4, 11, 77
7, 107373, Control_c, 4, 11, 76
7, 107385, Control_c, 4, 11, 75
7, 107398, Control_c, 4, 11, 74
7, 107410, Control_c, 4, 11, 73
7, 107422, Control_c, 4, 11, 72
7, 107434, Control_c, 4, 11, 71
7, 107446, Control_c, 4, 11, 70
7, 107459, Control_c, 4, 11, 69
7, 107471, Control_c, 4, 11, 68
7, 107472, Note_on_c, 4, 51, 0
7, 107472, Note_on_c, 4, 60, 0
7, 107483, Control_c, 4, 11, 67
7, 107495, Control_c, 4, 11, 66
7, 107507, Control_c, 4, 11, 65
7, 107520, Control_c, 4, 11, 64
7, 110592, Control_c, 4, 11, 127
7, 110592, Note_on_c, 4, 44, 30
7, 110592, Note_on_c, 4, 50, 34
7, 110607, Control_c, 4, 11, 126
7, 110622, Control_c, 4, 11, 125
7, 110637, Control_c, 4, 11, 124
7, 110652, Control_c, 4, 11, 123
7, 110668, Control_c, 4, 11, 122
7, 110683, Control_c, 4, 11, 121
7, 110698, Control_c, 4, 11, 120
7, 110713, Control_c, 4, 11, 119
7, 110729, Control_c, 4, 11, 118
7, 110744, Control_c, 4, 11, 117
7, 110759, Control_c, 4, 11, 116
7, 110774, Control_c, 4, 11, 115
7, 110790, Control_c, 4, 11, 114
7, 110805, Control_c, 4, 11, 113
7, 110820, Control_c, 4, 11, 112
7, 110835, Control_c, 4, 11, 111
7, 110851, Control_c, 4, 11, 110
7, 110866, Control_c, 4, 11, 109
7, 110881, Control_c, 4, 11, 108
7, 110896, Control_c, 4, 11, 107
7, 110912, Control_c, 4, 11, 106
7, 110927, Control_c, 4, 11, 105
7, 110942, Control_c, 4, 11, 104
7, 110957, Control_c, 4, 11, 103
7, 110972, Control_c, 4, 11, 102
7, 110988, Control_c, 4, 11, 101
7, 111003, Control_c, 4, 11, 100
7, 111018, Control_c, 4, 11, 99
7, 111033, Control_c, 4, 11, 98
7, 111049, Control_c, 4, 11, 97
7, 111064, Control_c, 4, 11, 96
7, 111079, Control_c, 4, 11, 95
7, 111094, Control_c, 4, 11, 94
7, 111110, Control_c, 4, 11, 93
7, 111125, Control_c, 4, 11, 92
7, 111140, Control_c, 4, 11, 91
7, 111155, Control_c, 4, 11, 90
7, 111171, Control_c, 4, 11, 89
7, 111186, Control_c, 4, 11, 88
7, 111201, Control_c, 4, 11, 87
7, 111216, Control_c, 4, 11, 86
7, 111232, Control_c, 4, 11, 85
7, 111247, Control_c, 4, 11, 84
7, 111262, Control_c, 4, 11, 83
7, 111277, Control_c, 4, 11, 82
7, 111292, Control_c, 4, 11, 81
7, 111308, Control_c, 4, 11, 80
7, 111323, Control_c, 4, 11, 79
7, 111338, Control_c, 4, 11, 78
7, 111353, Control_c, 4, 11, 77
7, 111369, Control_c, 4, 11, 76
7, 111384, Control_c, 4, 11, 75
7, 111399, Control_c, 4, 11, 74
7, 111414, Control_c, 4, 11, 73
7, 111430, Control_c, 4, 11, 72
7, 111445, Control_c, 4, 11, 71
7, 111460, Control_c, 4, 11, 70
7, 111475, Control_c, 4, 11, 69
7, 111491, Control_c, 4, 11, 68
7, 111506, Control_c, 4, 11, 67
7, 111520, Note_on_c, 4, 44, 0
7, 111520, Note_on_c, 4, 50, 0
7, 111521, Control_c, 4, 11, 66
7, 111536, Control_c, 4, 11, 65
7, 111552, Control_c, 4, 11, 64
7, 112128, Control_c, 4, 11, 64
7, 112128, Note_on_c, 4, 60, 75
7, 112143, Control_c, 4, 11, 65
7, 112158, Control_c, 4, 11, 66
7, 112173, Control_c, 4, 11, 67
7, 112188, Control_c, 4, 11, 68
7, 112204, Control_c, 4, 11, 69
7, 112219, Control_c, 4, 11, 70
7, 112234, Control_c, 4, 11, 71
7, 112249, Control_c, 4, 11, 72
7, 112265, Control_c, 4, 11, 73
7, 112280, Control_c, 4, 11, 74
7, 112295, Control_c, 4, 11, 75
7, 112310, Control_c, 4, 11, 76
7, 112326, Control_c, 4, 11, 77
7, 112341, Control_c, 4, 11, 78
7, 112356, Control_c, 4, 11, 79
7, 112371, Control_c, 4, 11, 80
7, 112387, Control_c, 4, 11, 81
7, 112402, Control_c, 4, 11, 82
7, 112417, Control_c, 4, 11, 83
7, 112432, Control_c, 4, 11, 84
7, 112448, Control_c, 4, 11, 85
7, 112463, Control_c, 4, 11, 86
7, 112478, Control_c, 4, 11, 87
7, 112493, Control_c, 4, 11, 88
7, 112508, Control_c, 4, 11, 89
7, 112512, Note_on_c, 4, 60, 0
7, 112512, Note_on_c, 4, 58, 71
7, 112512, Note_on_c, 4, 61, 75
7, 112524, Control_c, 4, 11, 90
7, 112539, Control_c, 4, 11, 91
7, 112554, Control_c, 4, 11, 92
7, 112569, Control_c, 4, 11, 93
7, 112585, Control_c, 4, 11, 94
7, 112600, Control_c, 4, 11, 95
7, 112615, Control_c, 4, 11, 96
7, 112630, Control_c, 4, 11, 97
7, 112640, Note_on_c, 4, 58, 0
7, 112640, Note_on_c, 4, 61, 0
7, 112640, Note_on_c, 4, 63, 75
7, 112640, Note_on_c, 4, 66, 77
7, 112646, Control_c, 4, 11, 98
7, 112661, Control_c, 4, 11, 99
7, 112676, Control_c, 4, 11, 100
7, 112691, Control_c, 4, 11, 101
7, 112707, Control_c, 4, 11, 102
7, 112722, Control_c, 4, 11, 103
7, 112737, Control_c, 4, 11, 104
7, 112752, Control_c, 4, 11, 105
7, 112768, Note_on_c, 4, 63, 0
7, 112768, Note_on_c, 4, 66, 0
7, 112768, Control_c, 4, 11, 106
7, 112768, Note_on_c, 4, 66, 80
7, 112768, Note_on_c, 4, 70, 73
7, 112783, Control_c, 4, 11, 107
7, 112798, Control_c, 4, 11, 108
7, 112813, Control_c, 4, 11, 109
7, 112828, Control_c, 4, 11, 110
7, 112844, Control_c, 4, 11, 111
7, 112859, Control_c, 4, 11, 112
7, 112874, Control_c, 4, 11, 113
7, 112889, Control_c, 4, 11, 114
7, 112905, Control_c, 4, 11, 115
7, 112920, Control_c, 4, 11, 116
7, 112935, Control_c, 4, 11, 117
7, 112950, Control_c, 4, 11, 118
7, 112966, Control_c, 4, 11, 119
7, 112981, Control_c, 4, 11, 120
7, 112996, Control_c, 4, 11, 121
7, 113011, Control_c, 4, 11, 122
7, 113027, Control_c, 4, 11, 123
7, 113042, Control_c, 4, 11, 124
7, 113056, Note_on_c, 4, 66, 0
7, 113056, Note_on_c, 4, 70, 0
7, 113057, Control_c, 4, 11, 125
7, 113072, Control_c, 4, 11, 126
7, 113088, Control_c, 4, 11, 127
7, 113280, Control_c, 4, 11, 127
7, 113664, Note_on_c, 4, 60, 72
7, 113824, Note_on_c, 4, 60, 0
7, 113856, Note_on_c, 4, 61, 80
7, 114016, Note_on_c, 4, 61, 0
7, 114048, Note_on_c, 4, 58, 79
7, 114174, Note_on_c, 4, 58, 0
7, 114176, Note_on_c, 4, 56, 70
7, 114302, Note_on_c, 4, 56, 0
7, 114304, Note_on_c, 4, 58, 76
7, 114430, Note_on_c, 4, 58, 0
7, 114432, Control_c, 4, 11, 127
7, 114432, Note_on_c, 4, 51, 72
7, 114432, Note_on_c, 4, 53, 75
7, 114444, Control_c, 4, 11, 126
7, 114456, Control_c, 4, 11, 125
7, 114468, Control_c, 4, 11, 124
7, 114480, Control_c, 4, 11, 123
7, 114492, Control_c, 4, 11, 122
7, 114505, Control_c, 4, 11, 121
7, 114517, Control_c, 4, 11, 120
7, 114529, Control_c, 4, 11, 119
7, 114541, Control_c, 4, 11, 118
7, 114553, Control_c, 4, 11, 117
7, 114566, Control_c, 4, 11, 116
7, 114578, Control_c, 4, 11, 115
7, 114590, Control_c, 4, 11, 114
7, 114602, Control_c, 4, 11, 113
7, 114614, Control_c, 4, 11, 112
7, 114624, Note_on_c, 4, 51, 0
7, 114624, Note_on_c, 4, 53, 0
7, 114624, Note_on_c, 4, 49, 65
7, 114624, Note_on_c, 4, 54, 63
7, 114627, Control_c, 4, 11, 111
7, 114639, Control_c, 4, 11, 110
7, 114651, Control_c, 4, 11, 109
7, 114663, Control_c, 4, 11, 108
7, 114675, Control_c, 4, 11, 107
7, 114688, Control_c, 4, 11, 106
7, 114700, Control_c, 4, 11, 105
7, 114712, Control_c, 4, 11, 104
7, 114724, Control_c, 4, 11, 103
7, 114736, Control_c, 4, 11, 102
7, 114748, Control_c, 4, 11, 101
7, 114761, Control_c, 4, 11, 100
7, 114773, Control_c, 4, 11, 99
7, 114785, Control_c, 4, 11, 98
7, 114797, Control_c, 4, 11, 97
7, 114809, Control_c, 4, 11, 96
7, 114816, Note_on_c, 4, 49, 0
7, 114816, Note_on_c, 4, 54, 0
7, 114816, Note_on_c, 4, 47, 54
7, 114816, Note_on_c, 4, 51, 58
7, 114822, Control_c, 4, 11, 95
7, 114834, Control_c, 4, 11, 94
7, 114846, Control_c, 4, 11, 93
7, 114858, Control_c, 4, 11, 92
7, 114870, Control_c, 4, 11, 91
7, 114883, Control_c, 4, 11, 90
7, 114895, Control_c, 4, 11, 89
7, 114907, Control_c, 4, 11, 88
7, 114919, Control_c, 4, 11, 87
7, 114931, Control_c, 4, 11, 86
7, 114944, Note_on_c, 4, 47, 0
7, 114944, Note_on_c, 4, 51, 0
7, 114944, Control_c, 4, 11, 85
7, 114944, Note_on_c, 4, 44, 56
7, 114944, Note_on_c, 4, 49, 56
7, 114956, Control_c, 4, 11, 84
7, 114968, Control_c, 4, 11, 83
7, 114980, Control_c, 4, 11, 82
7, 114992, Control_c, 4, 11, 81
7, 115004, Control_c, 4, 11, 80
7, 115017, Control_c, 4, 11, 79
7, 115029, Control_c, 4, 11, 78
7, 115041, Control_c, 4, 11, 77
7, 115053, Control_c, 4, 11, 76
7, 115065, Control_c, 4, 11, 75
7, 115072, Note_on_c, 4, 44, 0
7, 115072, Note_on_c, 4, 49, 0
7, 115072, Note_on_c, 4, 47, 41
7, 115072, Note_on_c, 4, 51, 42
7, 115078, Control_c, 4, 11, 74
7, 115090, Control_c, 4, 11, 73
7, 115102, Control_c, 4, 11, 72
7, 115114, Control_c, 4, 11, 71
7, 115126, Control_c, 4, 11, 70
7, 115139, Control_c, 4, 11, 69
7, 115151, Control_c, 4, 11, 68
7, 115163, Control_c, 4, 11, 67
7, 115175, Control_c, 4, 11, 66
7, 115187, Control_c, 4, 11, 65
7, 115198, Note_on_c, 4, 47, 0
7, 115198, Note_on_c, 4, 51, 0
7, 115200, Control_c, 4, 11, 64
7, 115968, Control_c, 4, 11, 127
7, 115968, Note_on_c, 4, 44, 42
7, 115980, Control_c, 4, 11, 126
7, 115992, Control_c, 4, 11, 125
7, 116004, Control_c, 4, 11, 124
7, 116016, Control_c, 4, 11, 123
7, 116028, Control_c, 4, 11, 122
7, 116041, Control_c, 4, 11, 121
7, 116053, Control_c, 4, 11, 120
7, 116065, Control_c, 4, 11, 119
7, 116077, Control_c, 4, 11, 118
7, 116089, Control_c, 4, 11, 117
7, 116102, Control_c, 4, 11, 116
7, 116114, Control_c, 4, 11, 115
7, 116126, Control_c, 4, 11, 114
7, 116138, Control_c, 4, 11, 113
7, 116150, Control_c, 4, 11, 112
7, 116163, Control_c, 4, 11, 111
7, 116175, Control_c, 4, 11, 110
7, 116187, Control_c, 4, 11, 109
7, 116199, Control_c, 4, 11, 108
7, 116211, Control_c, 4, 11, 107
7, 116224, Control_c, 4, 11, 106
7, 116236, Control_c, 4, 11, 105
7, 116248, Control_c, 4, 11, 104
7, 116260, Control_c, 4, 11, 103
7, 116272, Control_c, 4, 11, 102
7, 116284, Control_c, 4, 11, 101
7, 116297, Control_c, 4, 11, 100
7, 116309, Control_c, 4, 11, 99
7, 116321, Control_c, 4, 11, 98
7, 116333, Control_c, 4, 11, 97
7, 116345, Control_c, 4, 11, 96
7, 116358, Control_c, 4, 11, 95
7, 116370, Control_c, 4, 11, 94
7, 116382, Control_c, 4, 11, 93
7, 116394, Control_c, 4, 11, 92
7, 116406, Control_c, 4, 11, 91
7, 116419, Control_c, 4, 11, 90
7, 116431, Control_c, 4, 11, 89
7, 116443, Control_c, 4, 11, 88
7, 116455, Control_c, 4, 11, 87
7, 116467, Control_c, 4, 11, 86
7, 116480, Control_c, 4, 11, 85
7, 116492, Control_c, 4, 11, 84
7, 116504, Control_c, 4, 11, 83
7, 116516, Control_c, 4, 11, 82
7, 116528, Control_c, 4, 11, 81
7, 116540, Control_c, 4, 11, 80
7, 116553, Control_c, 4, 11, 79
7, 116565, Control_c, 4, 11, 78
7, 116577, Control_c, 4, 11, 77
7, 116589, Control_c, 4, 11, 76
7, 116601, Control_c, 4, 11, 75
7, 116614, Control_c, 4, 11, 74
7, 116626, Control_c, 4, 11, 73
7, 116638, Control_c, 4, 11, 72
7, 116650, Control_c, 4, 11, 71
7, 116662, Control_c, 4, 11, 70
7, 116675, Control_c, 4, 11, 69
7, 116687, Control_c, 4, 11, 68
7, 116688, Note_on_c, 4, 44, 0
7, 116699, Control_c, 4, 11, 67
7, 116711, Control_c, 4, 11, 66
7, 116723, Control_c, 4, 11, 65
7, 116736, Control_c, 4, 11, 64
7, 117504, Control_c, 4, 11, 127
7, 138240, Control_c, 4, 11, 75
7, 138240, Note_on_c, 4, 45, 73
7, 138240, Note_on_c, 4, 52, 80
7, 138254, Control_c, 4, 11, 76
7, 138269, Control_c, 4, 11, 77
7, 138284, Control_c, 4, 11, 78
7, 138299, Control_c, 4, 11, 79
7, 138313, Control_c, 4, 11, 80
7, 138328, Control_c, 4, 11, 81
7, 138343, Control_c, 4, 11, 82
7, 138358, Control_c, 4, 11, 83
7, 138372, Control_c, 4, 11, 84
7, 138387, Control_c, 4, 11, 85
7, 138402, Control_c, 4, 11, 86
7, 138417, Control_c, 4, 11, 87
7, 138432, Control_c, 4, 11, 88
7, 138446, Control_c, 4, 11, 89
7, 138461, Control_c, 4, 11, 90
7, 138476, Control_c, 4, 11, 91
7, 138491, Control_c, 4, 11, 92
7, 138505, Control_c, 4, 11, 93
7, 138520, Control_c, 4, 11, 94
7, 138535, Control_c, 4, 11, 95
7, 138550, Control_c, 4, 11, 96
7, 138564, Control_c, 4, 11, 97
7, 138579, Control_c, 4, 11, 98
7, 138594, Control_c, 4, 11, 99
7, 138609, Control_c, 4, 11, 100
7, 138624, Note_on_c, 4, 45, 0
7, 138624, Note_on_c, 4, 52, 0
7, 138624, Control_c, 4, 11, 101
7, 138624, Note_on_c, 4, 52, 73
7, 138624, Note_on_c, 4, 59, 79
7, 138638, Control_c, 4, 11, 102
7, 138653, Control_c, 4, 11, 103
7, 138668, Control_c, 4, 11, 104
7, 138683, Control_c, 4, 11, 105
7, 138697, Control_c, 4, 11, 106
7, 138712, Control_c, 4, 11, 107
7, 138727, Control_c, 4, 11, 108
7, 138742, Control_c, 4, 11, 109
7, 138756, Control_c, 4, 11, 110
7, 138771, Control_c, 4, 11, 111
7, 138786, Control_c, 4, 11, 112
7, 138801, Control_c, 4, 11, 113
7, 138816, Control_c, 4, 11, 114
7, 138830, Control_c, 4, 11, 115
7, 138845, Control_c, 4, 11, 116
7, 138860, Control_c, 4, 11, 117
7, 138875, Control_c, 4, 11, 118
7, 138889, Control_c, 4, 11, 119
7, 138904, Control_c, 4, 11, 120
7, 138919, Control_c, 4, 11, 121
7, 138934, Control_c, 4, 11, 122
7, 138948, Control_c, 4, 11, 123
7, 138963, Control_c, 4, 11, 124
7, 138978, Control_c, 4, 11, 125
7, 138993, Control_c, 4, 11, 126
7, 139008, Note_on_c, 4, 52, 0
7, 139008, Note_on_c, 4, 59, 0
7, 139008, Control_c, 4, 11, 127
7, 139008, Note_on_c, 4, 57, 71
7, 139008, Note_on_c, 4, 64, 77
7, 139022, Control_c, 4, 11, 126
7, 139037, Control_c, 4, 11, 125
7, 139052, Control_c, 4, 11, 124
7, 139067, Control_c, 4, 11, 123
7, 139081, Control_c, 4, 11, 122
7, 139096, Control_c, 4, 11, 121
7, 139111, Control_c, 4, 11, 120
7, 139126, Control_c, 4, 11, 119
7, 139140, Control_c, 4, 11, 118
7, 139155, Control_c, 4, 11, 117
7, 139170, Control_c, 4, 11, 116
7, 139185, Control_c, 4, 11, 115
7, 139200, Control_c, 4, 11, 114
7, 139214, Control_c, 4, 11, 113
7, 139229, Control_c, 4, 11, 112
7, 139244, Control_c, 4, 11, 111
7, 139259, Control_c, 4, 11, 110
7, 139273, Control_c, 4, 11, 109
7, 139288, Control_c, 4, 11, 108
7, 139303, Control_c, 4, 11, 107
7, 139318, Control_c, 4, 11, 106
7, 139332, Control_c, 4, 11, 105
7, 139347, Control_c, 4, 11, 104
7, 139362, Control_c, 4, 11, 103
7, 139377, Control_c, 4, 11, 102
7, 139392, Note_on_c, 4, 57, 0
7, 139392, Control_c, 4, 11, 101
7, 139392, Note_on_c, 4, 59, 77
7, 139406, Control_c, 4, 11, 100
7, 139421, Control_c, 4, 11, 99
7, 139436, Control_c, 4, 11, 98
7, 139451, Control_c, 4, 11, 97
7, 139465, Control_c, 4, 11, 96
7, 139480, Control_c, 4, 11, 95
7, 139495, Control_c, 4, 11, 94
7, 139510, Control_c, 4, 11, 93
7, 139524, Control_c, 4, 11, 92
7, 139539, Control_c, 4, 11, 91
7, 139554, Control_c, 4, 11, 90
7, 139569, Control_c, 4, 11, 89
7, 139584, Control_c, 4, 11, 88
7, 139598, Control_c, 4, 11, 87
7, 139613, Control_c, 4, 11, 86
7, 139628, Control_c, 4, 11, 85
7, 139643, Control_c, 4, 11, 84
7, 139657, Control_c, 4, 11, 83
7, 139672, Control_c, 4, 11, 82
7, 139687, Control_c, 4, 11, 81
7, 139702, Control_c, 4, 11, 80
7, 139716, Control_c, 4, 11, 79
7, 139728, Note_on_c, 4, 64, 0
7, 139728, Note_on_c, 4, 59, 0
7, 139731, Control_c, 4, 11, 78
7, 139746, Control_c, 4, 11, 77
7, 139761, Control_c, 4, 11, 76
7, 139776, Control_c, 4, 11, 75
7, 139776, Control_c, 4, 11, 75
7, 139776, Note_on_c, 4, 45, 73
7, 139776, Note_on_c, 4, 52, 71
7, 139790, Control_c, 4, 11, 76
7, 139805, Control_c, 4, 11, 77
7, 139820, Control_c, 4, 11, 78
7, 139835, Control_c, 4, 11, 79
7, 139849, Control_c, 4, 11, 80
7, 139864, Control_c, 4, 11, 81
7, 139879, Control_c, 4, 11, 82
7, 139894, Control_c, 4, 11, 83
7, 139908, Control_c, 4, 11, 84
7, 139923, Control_c, 4, 11, 85
7, 139938, Control_c, 4, 11, 86
7, 139953, Control_c, 4, 11, 87
7, 139968, Control_c, 4, 11, 88
7, 139982, Control_c, 4, 11, 89
7, 139997, Control_c, 4, 11, 90
7, 140012, Control_c, 4, 11, 91
7, 140027, Control_c, 4, 11, 92
7, 140041, Control_c, 4, 11, 93
7, 140056, Control_c, 4, 11, 94
7, 140071, Control_c, 4, 11, 95
7, 140086, Control_c, 4, 11, 96
7, 140100, Control_c, 4, 11, 97
7, 140115, Control_c, 4, 11, 98
7, 140130, Control_c, 4, 11, 99
7, 140145, Control_c, 4, 11, 100
7, 140160, Note_on_c, 4, 45, 0
7, 140160, Note_on_c, 4, 52, 0
7, 140160, Control_c, 4, 11, 101
7, 140160, Note_on_c, 4, 52, 74
7, 140160, Note_on_c, 4, 59, 79
7, 140174, Control_c, 4, 11, 102
7, 140189, Control_c, 4, 11, 103
7, 140204, Control_c, 4, 11, 104
7, 140219, Control_c, 4, 11, 105
7, 140233, Control_c, 4, 11, 106
7, 140248, Control_c, 4, 11, 107
7, 140263, Control_c, 4, 11, 108
7, 140278, Control_c, 4, 11, 109
7, 140292, Control_c, 4, 11, 110
7, 140307, Control_c, 4, 11, 111
7, 140322, Control_c, 4, 11, 112
7, 140337, Control_c, 4, 11, 113
7, 140352, Control_c, 4, 11, 114
7, 140366, Control_c, 4, 11, 115
7, 140381, Control_c, 4, 11, 116
7, 140396, Control_c, 4, 11, 117
7, 140411, Control_c, 4, 11, 118
7, 140425, Control_c, 4, 11, 119
7, 140440, Control_c, 4, 11, 120
7, 140455, Control_c, 4, 11, 121
7, 140470, Control_c, 4, 11, 122
7, 140484, Control_c, 4, 11, 123
7, 140499, Control_c, 4, 11, 124
7, 140514, Control_c, 4, 11, 125
7, 140529, Control_c, 4, 11, 126
7, 140544, Note_on_c, 4, 52, 0
7, 140544, Note_on_c, 4, 59, 0
7, 140544, Control_c, 4, 11, 127
7, 140544, Note_on_c, 4, 57, 71
7, 140544, Note_on_c, 4, 64, 72
7, 140558, Control_c, 4, 11, 126
7, 140573, Control_c, 4, 11, 125
7, 140588, Control_c, 4, 11, 124
7, 140603, Control_c, 4, 11, 123
7, 140617, Control_c, 4, 11, 122
7, 140632, Control_c, 4, 11, 121
7, 140647, Control_c, 4, 11, 120
7, 140662, Control_c, 4, 11, 119
7, 140676, Control_c, 4, 11, 118
7, 140691, Control_c, 4, 11, 117
7, 140706, Control_c, 4, 11, 116
7, 140721, Control_c, 4, 11, 115
7, 140736, Control_c, 4, 11, 114
7, 140750, Control_c, 4, 11, 113
7, 140765, Control_c, 4, 11, 112
7, 140780, Control_c, 4, 11, 111
7, 140795, Control_c, 4, 11, 110
7, 140809, Control_c, 4, 11, 109
7, 140824, Control_c, 4, 11, 108
7, 140839, Control_c, 4, 11, 107
7, 140854, Control_c, 4, 11, 106
7, 140868, Control_c, 4, 11, 105
7, 140883, Control_c, 4, 11, 104
7, 140898, Control_c, 4, 11, 103
7, 140913, Control_c, 4, 11, 102
7, 140928, Note_on_c, 4, 57, 0
7, 140928, Control_c, 4, 11, 101
7, 140928, Note_on_c, 4, 59, 70
7, 140942, Control_c, 4, 11, 100
7, 140957, Control_c, 4, 11, 99
7, 140972, Control_c, 4, 11, 98
7, 140987, Control_c, 4, 11, 97
7, 141001, Control_c, 4, 11, 96
7, 141016, Control_c, 4, 11, 95
7, 141031, Control_c, 4, 11, 94
7, 141046, Control_c, 4, 11, 93
7, 141060, Control_c, 4, 11, 92
7, 141075, Control_c, 4, 11, 91
7, 141090, Control_c, 4, 11, 90
7, 141105, Control_c, 4, 11, 89
7, 141120, Control_c, 4, 11, 88
7, 141134, Control_c, 4, 11, 87
7, 141149, Control_c, 4, 11, 86
7, 141164, Control_c, 4, 11, 85
7, 141179, Control_c, 4, 11, 84
7, 141193, Control_c, 4, 11, 83
7, 141208, Control_c, 4, 11, 82
7, 141223, Control_c, 4, 11, 81
7, 141238, Control_c, 4, 11, 80
7, 141252, Control_c, 4, 11, 79
7, 141264, Note_on_c, 4, 64, 0
7, 141264, Note_on_c, 4, 59, 0
7, 141267, Control_c, 4, 11, 78
7, 141282, Control_c, 4, 11, 77
7, 141297, Control_c, 4, 11, 76
7, 141312, Control_c, 4, 11, 75
7, 150528, Control_c, 4, 11, 127
7, 150528, Note_on_c, 4, 65, 96
7, 150534, Control_c, 4, 11, 126
7, 150540, Control_c, 4, 11, 125
7, 150546, Control_c, 4, 11, 124
7, 150552, Control_c, 4, 11, 123
7, 150558, Control_c, 4, 11, 122
7, 150564, Control_c, 4, 11, 121
7, 150570, Control_c, 4, 11, 120
7, 150576, Control_c, 4, 11, 119
7, 150582, Control_c, 4, 11, 118
7, 150588, Control_c, 4, 11, 117
7, 150595, Control_c, 4, 11, 116
7, 150601, Control_c, 4, 11, 115
7, 150607, Control_c, 4, 11, 114
7, 150613, Control_c, 4, 11, 113
7, 150619, Control_c, 4, 11, 112
7, 150625, Control_c, 4, 11, 111
7, 150631, Control_c, 4, 11, 110
7, 150637, Control_c, 4, 11, 109
7, 150643, Control_c, 4, 11, 108
7, 150649, Control_c, 4, 11, 107
7, 150654, Note_on_c, 4, 65, 0
7, 150656, Control_c, 4, 11, 106
7, 150656, Note_on_c, 4, 61, 97
7, 150662, Control_c, 4, 11, 105
7, 150668, Control_c, 4, 11, 104
7, 150674, Control_c, 4, 11, 103
7, 150680, Control_c, 4, 11, 102
7, 150686, Control_c, 4, 11, 101
7, 150692, Control_c, 4, 11, 100
7, 150698, Control_c, 4, 11, 99
7, 150704, Control_c, 4, 11, 98
7, 150710, Control_c, 4, 11, 97
7, 150716, Control_c, 4, 11, 96
7, 150723, Control_c, 4, 11, 95
7, 150729, Control_c, 4, 11, 94
7, 150735, Control_c, 4, 11, 93
7, 150741, Control_c, 4, 11, 92
7, 150747, Control_c, 4, 11, 91
7, 150753, Control_c, 4, 11, 90
7, 150759, Control_c, 4, 11, 89
7, 150765, Control_c, 4, 11, 88
7, 150771, Control_c, 4, 11, 87
7, 150777, Control_c, 4, 11, 86
7, 150782, Note_on_c, 4, 61, 0
7, 150784, Control_c, 4, 11, 85
7, 150784, Note_on_c, 4, 53, 91
7, 150790, Control_c, 4, 11, 84
7, 150796, Control_c, 4, 11, 83
7, 150802, Control_c, 4, 11, 82
7, 150808, Control_c, 4, 11, 81
7, 150814, Control_c, 4, 11, 80
7, 150820, Control_c, 4, 11, 79
7, 150826, Control_c, 4, 11, 78
7, 150832, Control_c, 4, 11, 77
7, 150838, Control_c, 4, 11, 76
7, 150844, Control_c, 4, 11, 75
7, 150851, Control_c, 4, 11, 74
7, 150857, Control_c, 4, 11, 73
7, 150863, Control_c, 4, 11, 72
7, 150869, Control_c, 4, 11, 71
7, 150875, Control_c, 4, 11, 70
7, 150881, Control_c, 4, 11, 69
7, 150887, Control_c, 4, 11, 68
7, 150893, Control_c, 4, 11, 67
7, 150899, Control_c, 4, 11, 66
7, 150905, Control_c, 4, 11, 65
7, 150912, Control_c, 4, 11, 64
7, 150912, Note_on_c, 4, 44, 95
7, 151072, Note_on_c, 4, 44, 0
7, 151104, Note_on_c, 4, 37, 97
7, 151248, Note_on_c, 4, 53, 0
7, 151264, Note_on_c, 4, 37, 0
7, 151296, Control_c, 4, 11, 127
7, 151296, Note_on_c, 4, 65, 90
7, 151302, Control_c, 4, 11, 126
7, 151308, Control_c, 4, 11, 125
7, 151314, Control_c, 4, 11, 124
7, 151320, Control_c, 4, 11, 123
7, 151326, Control_c, 4, 11, 122
7, 151332, Control_c, 4, 11, 121
7, 151338, Control_c, 4, 11, 120
7, 151344, Control_c, 4, 11, 119
7, 151350, Control_c, 4, 11, 118
7, 151356, Control_c, 4, 11, 117
7, 151363, Control_c, 4, 11, 116
7, 151369, Control_c, 4, 11, 115
7, 151375, Control_c, 4, 11, 114
7, 151381, Control_c, 4, 11, 113
7, 151387, Control_c, 4, 11, 112
7, 151393, Control_c, 4, 11, 111
7, 151399, Control_c, 4, 11, 110
7, 151405, Control_c, 4, 11, 109
7, 151411, Control_c, 4, 11, 108
7, 151417, Control_c, 4, 11, 107
7, 151422, Note_on_c, 4, 65, 0
7, 151424, Control_c, 4, 11, 106
7, 151424, Note_on_c, 4, 61, 91
7, 151430, Control_c, 4, 11, 105
7, 151436, Control_c, 4, 11, 104
7, 151442, Control_c, 4, 11, 103
7, 151448, Control_c, 4, 11, 102
7, 151454, Control_c, 4, 11, 101
7, 151460, Control_c, 4, 11, 100
7, 151466, Control_c, 4, 11, 99
7, 151472, Control_c, 4, 11, 98
7, 151478, Control_c, 4, 11, 97
7, 151484, Control_c, 4, 11, 96
7, 151491, Control_c, 4, 11, 95
7, 151497, Control_c, 4, 11, 94
7, 151503, Control_c, 4, 11, 93
7, 151509, Control_c, 4, 11, 92
7, 151515, Control_c, 4, 11, 91
7, 151521, Control_c, 4, 11, 90
7, 151527, Control_c, 4, 11, 89
7, 151533, Control_c, 4, 11, 88
7, 151539, Control_c, 4, 11, 87
7, 151545, Control_c, 4, 11, 86
7, 151550, Note_on_c, 4, 61, 0
7, 151552, Control_c, 4, 11, 85
7, 151552, Note_on_c, 4, 53, 91
7, 151558, Control_c, 4, 11, 84
7, 151564, Control_c, 4, 11, 83
7, 151570, Control_c, 4, 11, 82
7, 151576, Control_c, 4, 11, 81
7, 151582, Control_c, 4, 11, 80
7, 151588, Control_c, 4, 11, 79
7, 151594, Control_c, 4, 11, 78
7, 151600, Control_c, 4, 11, 77
7, 151606, Control_c, 4, 11, 76
7, 151612, Control_c, 4, 11, 75
7, 151619, Control_c, 4, 11, 74
7, 151625, Control_c, 4, 11, 73
7, 151631, Control_c, 4, 11, 72
7, 151637, Control_c, 4, 11, 71
7, 151643, Control_c, 4, 11, 70
7, 151649, Control_c, 4, 11, 69
7, 151655, Control_c, 4, 11, 68
7, 151661, Control_c, 4, 11, 67
7, 151667, Control_c, 4, 11, 66
7, 151673, Control_c, 4, 11, 65
7, 151680, Control_c, 4, 11, 64
7, 151680, Note_on_c, 4, 44, 96
7, 151840, Note_on_c, 4, 44, 0
7, 151872, Note_on_c, 4, 37, 90
7, 152016, Note_on_c, 4, 53, 0
7, 152032, Note_on_c, 4, 37, 0
7, 152064, Control_c, 4, 11, 127
7, 152064, Note_on_c, 4, 65, 89
7, 152070, Control_c, 4, 11, 126
7, 152076, Control_c, 4, 11, 125
7, 152082, Control_c, 4, 11, 124
7, 152088, Control_c, 4, 11, 123
7, 152094, Control_c, 4, 11, 122
7, 152100, Control_c, 4, 11, 121
7, 152106, Control_c, 4, 11, 120
7, 152112, Control_c, 4, 11, 119
7, 152118, Control_c, 4, 11, 118
7, 152124, Control_c, 4, 11, 117
7, 152131, Control_c, 4, 11, 116
7, 152137, Control_c, 4, 11, 115
7, 152143, Control_c, 4, 11, 114
7, 152149, Control_c, 4, 11, 113
7, 152155, Control_c, 4, 11, 112
7, 152161, Control_c, 4, 11, 111
7, 152167, Control_c, 4, 11, 110
7, 152173, Control_c, 4, 11, 109
7, 152179, Control_c, 4, 11, 108
7, 152185, Control_c, 4, 11, 107
7, 152190, Note_on_c, 4, 65, 0
7, 152192, Control_c, 4, 11, 106
7, 152192, Note_on_c, 4, 61, 93
7, 152198, Control_c, 4, 11, 105
7, 152204, Control_c, 4, 11, 104
7, 152210, Control_c, 4, 11, 103
7, 152216, Control_c, 4, 11, 102
7, 152222, Control_c, 4, 11, 101
7, 152228, Control_c, 4, 11, 100
7, 152234, Control_c, 4, 11, 99
7, 152240, Control_c, 4, 11, 98
7, 152246, Control_c, 4, 11, 97
7, 152252, Control_c, 4, 11, 96
7, 152259, Control_c, 4, 11, 95
7, 152265, Control_c, 4, 11, 94
7, 152271, Control_c, 4, 11, 93
7, 152277, Control_c, 4, 11, 92
7, 152283, Control_c, 4, 11, 91
7, 152289, Control_c, 4, 11, 90
7, 152295, Control_c, 4, 11, 89
7, 152301, Control_c, 4, 11, 88
7, 152307, Control_c, 4, 11, 87
7, 152313, Control_c, 4, 11, 86
7, 152318, Note_on_c, 4, 61, 0
7, 152320, Control_c, 4, 11, 85
7, 152320, Note_on_c, 4, 53, 94
7, 152326, Control_c, 4, 11, 84
7, 152332, Control_c, 4, 11, 83
7, 152338, Control_c, 4, 11, 82
7, 152344, Control_c, 4, 11, 81
7, 152350, Control_c, 4, 11, 80
7, 152356, Control_c, 4, 11, 79
7, 152362, Control_c, 4, 11, 78
7, 152368, Control_c, 4, 11, 77
7, 152374, Control_c, 4, 11, 76
7, 152380, Control_c, 4, 11, 75
7, 152387, Control_c, 4, 11, 74
7, 152393, Control_c, 4, 11, 73
7, 152399, Control_c, 4, 11, 72
7, 152405, Control_c, 4, 11, 71
7, 152411, Control_c, 4, 11, 70
7, 152417, Control_c, 4, 11, 69
7, 152423, Control_c, 4, 11, 68
7, 152429, Control_c, 4, 11, 67
7, 152435, Control_c, 4, 11, 66
7, 152441, Control_c, 4, 11, 65
7, 152448, Control_c, 4, 11, 64
7, 152448, Note_on_c, 4, 44, 89
7, 152608, Note_on_c, 4, 44, 0
7, 152640, Note_on_c, 4, 37, 96
7, 152784, Note_on_c, 4, 53, 0
7, 152800, Note_on_c, 4, 37, 0
7, 152832, Control_c, 4, 11, 127
7, 152832, Note_on_c, 4, 65, 87
7, 152838, Control_c, 4, 11, 126
7, 152844, Control_c, 4, 11, 125
7, 152850, Control_c, 4, 11, 124
7, 152856, Control_c, 4, 11, 123
7, 152862, Control_c, 4, 11, 122
7, 152868, Control_c, 4, 11, 121
7, 152874, Control_c, 4, 11, 120
7, 152880, Control_c, 4, 11, 119
7, 152886, Control_c, 4, 11, 118
7, 152892, Control_c, 4, 11, 117
7, 152899, Control_c, 4, 11, 116
7, 152905, Control_c, 4, 11, 115
7, 152911, Control_c, 4, 11, 114
7, 152917, Control_c, 4, 11, 113
7, 152923, Control_c, 4, 11, 112
7, 152929, Control_c, 4, 11, 111
7, 152935, Control_c, 4, 11, 110
7, 152941, Control_c, 4, 11, 109
7, 152947, Control_c, 4, 11, 108
7, 152953, Control_c, 4, 11, 107
7, 152958, Note_on_c, 4, 65, 0
7, 152960, Control_c, 4, 11, 106
7, 152960, Note_on_c, 4, 61, 92
7, 152966, Control_c, 4, 11, 105
7, 152972, Control_c, 4, 11, 104
7, 152978, Control_c, 4, 11, 103
7, 152984, Control_c, 4, 11, 102
7, 152990, Control_c, 4, 11, 101
7, 152996, Control_c, 4, 11, 100
7, 153002, Control_c, 4, 11, 99
7, 153008, Control_c, 4, 11, 98
7, 153014, Control_c, 4, 11, 97
7, 153020, Control_c, 4, 11, 96
7, 153027, Control_c, 4, 11, 95
7, 153033, Control_c, 4, 11, 94
7, 153039, Control_c, 4, 11, 93
7, 153045, Control_c, 4, 11, 92
7, 153051, Control_c, 4, 11, 91
7, 153057, Control_c, 4, 11, 90
7, 153063, Control_c, 4, 11, 89
7, 153069, Control_c, 4, 11, 88
7, 153075, Control_c, 4, 11, 87
7, 153081, Control_c, 4, 11, 86
7, 153086, Note_on_c, 4, 61, 0
7, 153088, Control_c, 4, 11, 85
7, 153088, Note_on_c, 4, 53, 90
7, 153094, Control_c, 4, 11, 84
7, 153100, Control_c, 4, 11, 83
7, 153106, Control_c, 4, 11, 82
7, 153112, Control_c, 4, 11, 81
7, 153118, Control_c, 4, 11, 80
7, 153124, Control_c, 4, 11, 79
7, 153130, Control_c, 4, 11, 78
7, 153136, Control_c, 4, 11, 77
7, 153142, Control_c, 4, 11, 76
7, 153148, Control_c, 4, 11, 75
7, 153155, Control_c, 4, 11, 74
7, 153161, Control_c, 4, 11, 73
7, 153167, Control_c, 4, 11, 72
7, 153173, Control_c, 4, 11, 71
7, 153179, Control_c, 4, 11, 70
7, 153185, Control_c, 4, 11, 69
7, 153191, Control_c, 4, 11, 68
7, 153197, Control_c, 4, 11, 67
7, 153203, Control_c, 4, 11, 66
7, 153209, Control_c, 4, 11, 65
7, 153216, Control_c, 4, 11, 64
7, 153216, Note_on_c, 4, 44, 96
7, 153376, Note_on_c, 4, 44, 0
7, 153408, Note_on_c, 4, 37, 92
7, 153552, Note_on_c, 4, 53, 0
7, 153568, Note_on_c, 4, 37, 0
7, 155904, Control_c, 4, 11, 127
7, 156672, Note_on_c, 4, 44, 105
7, 156672, Note_on_c, 4, 54, 106
7, 156800, Note_on_c, 4, 44, 0
7, 156800, Note_on_c, 4, 45, 106
7, 156928, Note_on_c, 4, 45, 0
7, 156928, Note_on_c, 4, 46, 110
7, 157008, Note_on_c, 4, 54, 0
7, 157056, Note_on_c, 4, 46, 0
7, 157056, Note_on_c, 4, 47, 107
7, 157056, Note_on_c, 4, 57, 113
7, 157248, Note_on_c, 4, 47, 0
7, 157248, Note_on_c, 4, 45, 108
7, 157392, Note_on_c, 4, 57, 0
7, 157408, Note_on_c, 4, 45, 0
7, 157440, Note_on_c, 4, 44, 107
7, 157440, Note_on_c, 4, 54, 104
7, 157568, Note_on_c, 4, 44, 0
7, 157568, Note_on_c, 4, 45, 104
7, 157696, Note_on_c, 4, 45, 0
7, 157696, Note_on_c, 4, 46, 106
7, 157776, Note_on_c, 4, 54, 0
7, 157824, Note_on_c, 4, 46, 0
7, 157824, Note_on_c, 4, 57, 113
7, 157952, Note_on_c, 4, 57, 0
7, 157952, Note_on_c, 4, 61, 107
7, 158080, Note_on_c, 4, 61, 0
7, 158080, Note_on_c, 4, 59, 103
7, 158206, Note_on_c, 4, 59, 0
7, 158976, Note_on_c, 4, 44, 87
7, 159168, Note_on_c, 4, 44, 0
7, 159168, Note_on_c, 4, 45, 96
7, 159552, Note_on_c, 4, 45, 0
7, 159552, Note_on_c, 4, 46, 89
7, 159712, Note_on_c, 4, 46, 0
7, 159744, Note_on_c, 4, 47, 76
7, 159936, Note_on_c, 4, 47, 0
7, 159936, Note_on_c, 4, 48, 79
7, 160128, Note_on_c, 4, 48, 0
7, 160128, Note_on_c, 4, 49, 73
7, 160320, Note_on_c, 4, 49, 0
7, 160320, Note_on_c, 4, 48, 73
7, 160512, Note_on_c, 4, 48, 0
7, 160512, Note_on_c, 4, 47, 77
7, 160704, Note_on_c, 4, 47, 0
7, 160704, Note_on_c, 4, 48, 72
7, 160896, Note_on_c, 4, 48, 0
7, 160896, Note_on_c, 4, 49, 81
7, 161024, Note_on_c, 4, 49, 0
7, 161024, Note_on_c, 4, 55, 87
7, 161152, Note_on_c, 4, 55, 0
7, 161152, Note_on_c, 4, 53, 89
7, 161278, Note_on_c, 4, 53, 0
7, 169728, Control_c, 4, 11, 127
7, 170112, Note_on_c, 4, 47, 30
7, 170238, Note_on_c, 4, 47, 0
7, 170240, Note_on_c, 4, 46, 32
7, 170302, Note_on_c, 4, 46, 0
7, 170304, Note_on_c, 4, 45, 24
7, 170366, Note_on_c, 4, 45, 0
7, 170368, Note_on_c, 4, 44, 25
7, 170430, Note_on_c, 4, 44, 0
7, 170432, Note_on_c, 4, 43, 22
7, 170494, Note_on_c, 4, 43, 0
7, 170496, Note_on_c, 4, 52, 29
7, 170622, Note_on_c, 4, 52, 0
7, 170624, Note_on_c, 4, 51, 25
7, 170666, Note_on_c, 4, 51, 0
7, 170688, Note_on_c, 4, 50, 45
7, 170750, Note_on_c, 4, 50, 0
7, 170752, Note_on_c, 4, 49, 48
7, 170814, Note_on_c, 4, 49, 0
7, 170816, Note_on_c, 4, 48, 60
7, 170878, Note_on_c, 4, 48, 0
7, 170880, Note_on_c, 4, 52, 26
7, 171006, Note_on_c, 4, 52, 0
7, 171008, Note_on_c, 4, 51, 32
7, 171050, Note_on_c, 4, 51, 0
7, 171072, Note_on_c, 4, 49, 43
7, 171134, Note_on_c, 4, 49, 0
7, 171136, Note_on_c, 4, 49, 46
7, 171198, Note_on_c, 4, 49, 0
7, 171200, Note_on_c, 4, 48, 59
7, 171262, Note_on_c, 4, 48, 0
7, 171264, Note_on_c, 4, 52, 32
7, 171390, Note_on_c, 4, 52, 0
7, 171392, Note_on_c, 4, 51, 26
7, 171434, Note_on_c, 4, 51, 0
7, 171456, Note_on_c, 4, 50, 45
7, 171518, Note_on_c, 4, 50, 0
7, 171520, Note_on_c, 4, 49, 49
7, 171582, Note_on_c, 4, 49, 0
7, 171584, Note_on_c, 4, 48, 65
7, 171646, Note_on_c, 4, 48, 0
7, 171648, Note_on_c, 4, 52, 30
7, 171774, Note_on_c, 4, 52, 0
7, 171776, Note_on_c, 4, 51, 27
7, 171818, Note_on_c, 4, 51, 0
7, 171840, Note_on_c, 4, 49, 38
7, 171902, Note_on_c, 4, 49, 0
7, 171904, Note_on_c, 4, 49, 49
7, 171966, Note_on_c, 4, 49, 0
7, 171968, Note_on_c, 4, 48, 55
7, 172030, Note_on_c, 4, 48, 0
7, 172032, Note_on_c, 4, 52, 28
7, 172158, Note_on_c, 4, 52, 0
7, 172160, Note_on_c, 4, 51, 33
7, 172202, Note_on_c, 4, 51, 0
7, 172224, Note_on_c, 4, 50, 35
7, 172286, Note_on_c, 4, 50, 0
7, 172288, Note_on_c, 4, 49, 49
7, 172350, Note_on_c, 4, 49, 0
7, 172352, Note_on_c, 4, 48, 63
7, 172414, Note_on_c, 4, 48, 0
7, 172416, Note_on_c, 4, 52, 29
7, 172542, Note_on_c, 4, 52, 0
7, 172544, Note_on_c, 4, 51, 27
7, 172586, Note_on_c, 4, 51, 0
7, 172608, Note_on_c, 4, 49, 39
7, 172670, Note_on_c, 4, 49, 0
7, 172672, Note_on_c, 4, 49, 50
7, 172734, Note_on_c, 4, 49, 0
7, 172736, Note_on_c, 4, 48, 57
7, 172798, Note_on_c, 4, 48, 0
7, 172800, Note_on_c, 4, 52, 29
7, 172926, Note_on_c, 4, 52, 0
7, 172928, Note_on_c, 4, 51, 29
7, 172970, Note_on_c, 4, 51, 0
7, 172992, Note_on_c, 4, 50, 42
7, 173054, Note_on_c, 4, 50, 0
7, 173056, Note_on_c, 4, 49, 55
7, 173118, Note_on_c, 4, 49, 0
7, 173120, Note_on_c, 4, 48, 59
7, 173182, Note_on_c, 4, 48, 0
7, 173184, Note_on_c, 4, 52, 26
7, 173310, Note_on_c, 4, 52, 0
7, 173312, Note_on_c, 4, 51, 25
7, 173354, Note_on_c, 4, 51, 0
7, 173376, Note_on_c, 4, 49, 37
7, 173438, Note_on_c, 4, 49, 0
7, 173440, Note_on_c, 4, 49, 48
7, 173502, Note_on_c, 4, 49, 0
7, 173504, Note_on_c, 4, 48, 60
7, 173566, Note_on_c, 4, 48, 0
7, 173568, Note_on_c, 4, 55, 27
7, 173694, Note_on_c, 4, 55, 0
7, 173696, Note_on_c, 4, 55, 26
7, 173738, Note_on_c, 4, 55, 0
7, 173760, Note_on_c, 4, 54, 28
7, 173802, Note_on_c, 4, 54, 0
7, 173824, Note_on_c, 4, 53, 32
7, 173866, Note_on_c, 4, 53, 0
7, 173888, Note_on_c, 4, 52, 33
7, 173930, Note_on_c, 4, 52, 0
7, 173952, Note_on_c, 4, 55, 30
7, 174078, Note_on_c, 4, 55, 0
7, 174080, Note_on_c, 4, 55, 35
7, 174122, Note_on_c, 4, 55, 0
7, 174144, Note_on_c, 4, 54, 32
7, 174186, Note_on_c, 4, 54, 0
7, 174208, Note_on_c, 4, 53, 32
7, 174250, Note_on_c, 4, 53, 0
7, 174272, Note_on_c, 4, 52, 32
7, 174314, Note_on_c, 4, 52, 0
7, 174336, Note_on_c, 4, 55, 28
7, 174462, Note_on_c, 4, 55, 0
7, 174464, Note_on_c, 4, 55, 33
7, 174506, Note_on_c, 4, 55, 0
7, 174528, Note_on_c, 4, 54, 32
7, 174570, Note_on_c, 4, 54, 0
7, 174592, Note_on_c, 4, 53, 32
7, 174634, Note_on_c, 4, 53, 0
7, 174656, Note_on_c, 4, 52, 32
7, 174698, Note_on_c, 4, 52, 0
7, 174720, Note_on_c, 4, 55, 25
7, 174846, Note_on_c, 4, 55, 0
7, 174848, Note_on_c, 4, 55, 31
7, 174890, Note_on_c, 4, 55, 0
7, 174912, Note_on_c, 4, 54, 34
7, 174954, Note_on_c, 4, 54, 0
7, 174976, Note_on_c, 4, 53, 26
7, 175018, Note_on_c, 4, 53, 0
7, 175040, Note_on_c, 4, 52, 34
7, 175082, Note_on_c, 4, 52, 0
7, 175104, Note_on_c, 4, 55, 30
7, 175230, Note_on_c, 4, 55, 0
7, 175232, Note_on_c, 4, 55, 32
7, 175274, Note_on_c, 4, 55, 0
7, 175296, Note_on_c, 4, 54, 27
7, 175338, Note_on_c, 4, 54, 0
7, 175360, Note_on_c, 4, 53, 33
7, 175402, Note_on_c, 4, 53, 0
7, 175424, Note_on_c, 4, 52, 25
7, 175466, Note_on_c, 4, 52, 0
7, 175488, Note_on_c, 4, 55, 34
7, 175614, Note_on_c, 4, 55, 0
7, 175616, Note_on_c, 4, 55, 34
7, 175658, Note_on_c, 4, 55, 0
7, 175680, Note_on_c, 4, 54, 30
7, 175722, Note_on_c, 4, 54, 0
7, 175744, Note_on_c, 4, 53, 27
7, 175786, Note_on_c, 4, 53, 0
7, 175808, Note_on_c, 4, 52, 27
7, 175850, Note_on_c, 4, 52, 0
7, 175872, Note_on_c, 4, 55, 32
7, 175998, Note_on_c, 4, 55, 0
7, 176000, Note_on_c, 4, 55, 32
7, 176042, Note_on_c, 4, 55, 0
7, 176064, Note_on_c, 4, 54, 31
7, 176106, Note_on_c, 4, 54, 0
7, 176128, Note_on_c, 4, 53, 31
7, 176170, Note_on_c, 4, 53, 0
7, 176192, Note_on_c, 4, 52, 25
7, 176234, Note_on_c, 4, 52, 0
7, 176256, Note_on_c, 4, 55, 32
7, 176382, Note_on_c, 4, 55, 0
7, 176384, Note_on_c, 4, 55, 29
7, 176426, Note_on_c, 4, 55, 0
7, 176448, Note_on_c, 4, 54, 30
7, 176490, Note_on_c, 4, 54, 0
7, 176512, Note_on_c, 4, 53, 29
7, 176554, Note_on_c, 4, 53, 0
7, 176576, Note_on_c, 4, 52, 26
7, 176618, Note_on_c, 4, 52, 0
7, 176640, Note_on_c, 4, 55, 31
7, 176766, Note_on_c, 4, 55, 0
7, 176768, Note_on_c, 4, 55, 30
7, 176810, Note_on_c, 4, 55, 0
7, 176832, Note_on_c, 4, 54, 25
7, 176874, Note_on_c, 4, 54, 0
7, 176896, Note_on_c, 4, 53, 29
7, 176938, Note_on_c, 4, 53, 0
7, 176960, Note_on_c, 4, 52, 26
7, 177002, Note_on_c, 4, 52, 0
7, 177024, Note_on_c, 4, 55, 33
7, 177150, Note_on_c, 4, 55, 0
7, 177152, Note_on_c, 4, 55, 28
7, 177194, Note_on_c, 4, 55, 0
7, 177216, Note_on_c, 4, 54, 31
7, 177258, Note_on_c, 4, 54, 0
7, 177280, Note_on_c, 4, 53, 27
7, 177322, Note_on_c, 4, 53, 0
7, 177344, Note_on_c, 4, 52, 34
7, 177386, Note_on_c, 4, 52, 0
7, 177408, Note_on_c, 4, 59, 43
7, 177534, Note_on_c, 4, 59, 0
7, 177536, Note_on_c, 4, 58, 49
7, 177578, Note_on_c, 4, 58, 0
7, 177600, Note_on_c, 4, 57, 49
7, 177642, Note_on_c, 4, 57, 0
7, 177664, Note_on_c, 4, 56, 41
7, 177706, Note_on_c, 4, 56, 0
7, 177728, Note_on_c, 4, 55, 43
7, 177770, Note_on_c, 4, 55, 0
7, 177792, Note_on_c, 4, 59, 44
7, 177918, Note_on_c, 4, 59, 0
7, 177920, Note_on_c, 4, 59, 46
7, 177962, Note_on_c, 4, 59, 0
7, 177984, Note_on_c, 4, 57, 44
7, 178026, Note_on_c, 4, 57, 0
7, 178048, Note_on_c, 4, 56, 47
7, 178090, Note_on_c, 4, 56, 0
7, 178112, Note_on_c, 4, 55, 44
7, 178154, Note_on_c, 4, 55, 0
7, 178176, Note_on_c, 4, 59, 46
7, 178302, Note_on_c, 4, 59, 0
7, 178304, Note_on_c, 4, 58, 52
7, 178346, Note_on_c, 4, 58, 0
7, 178368, Note_on_c, 4, 57, 42
7, 178410, Note_on_c, 4, 57, 0
7, 178432, Note_on_c, 4, 56, 43
7, 178474, Note_on_c, 4, 56, 0
7, 178496, Note_on_c, 4, 55, 46
7, 178538, Note_on_c, 4, 55, 0
7, 178560, Note_on_c, 4, 59, 48
7, 178686, Note_on_c, 4, 59, 0
7, 178688, Note_on_c, 4, 59, 46
7, 178730, Note_on_c, 4, 59, 0
7, 178752, Note_on_c, 4, 57, 44
7, 178794, Note_on_c, 4, 57, 0
7, 178816, Note_on_c, 4, 56, 54
7, 178858, Note_on_c, 4, 56, 0
7, 178880, Note_on_c, 4, 55, 49
7, 178922, Note_on_c, 4, 55, 0
7, 178944, Note_on_c, 4, 59, 52
7, 179070, Note_on_c, 4, 59, 0
7, 179072, Note_on_c, 4, 58, 56
7, 179114, Note_on_c, 4, 58, 0
7, 179136, Note_on_c, 4, 57, 51
7, 179178, Note_on_c, 4, 57, 0
7, 179200, Note_on_c, 4, 56, 50
7, 179242, Note_on_c, 4, 56, 0
7, 179264, Note_on_c, 4, 55, 59
7, 179306, Note_on_c, 4, 55, 0
7, 179328, Note_on_c, 4, 59, 61
7, 179454, Note_on_c, 4, 59, 0
7, 179456, Note_on_c, 4, 59, 59
7, 179498, Note_on_c, 4, 59, 0
7, 179520, Note_on_c, 4, 57, 56
7, 179562, Note_on_c, 4, 57, 0
7, 179584, Note_on_c, 4, 56, 56
7, 179626, Note_on_c, 4, 56, 0
7, 179648, Note_on_c, 4, 55, 60
7, 179690, Note_on_c, 4, 55, 0
7, 179712, Note_on_c, 4, 59, 58
7, 179838, Note_on_c, 4, 59, 0
7, 179840, Note_on_c, 4, 58, 63
7, 179882, Note_on_c, 4, 58, 0
7, 179904, Note_on_c, 4, 57, 63
7, 179946, Note_on_c, 4, 57, 0
7, 179968, Note_on_c, 4, 56, 71
7, 180010, Note_on_c, 4, 56, 0
7, 180032, Note_on_c, 4, 55, 69
7, 180074, Note_on_c, 4, 55, 0
7, 180096, Note_on_c, 4, 59, 64
7, 180222, Note_on_c, 4, 59, 0
7, 180224, Note_on_c, 4, 59, 74
7, 180266, Note_on_c, 4, 59, 0
7, 180288, Note_on_c, 4, 57, 70
7, 180330, Note_on_c, 4, 57, 0
7, 180352, Note_on_c, 4, 56, 71
7, 180394, Note_on_c, 4, 56, 0
7, 180416, Note_on_c, 4, 55, 69
7, 180458, Note_on_c, 4, 55, 0
7, 180480, Note_on_c, 4, 55, 77
7, 180606, Note_on_c, 4, 55, 0
7, 180608, Note_on_c, 4, 55, 74
7, 180650, Note_on_c, 4, 55, 0
7, 180672, Note_on_c, 4, 55, 72
7, 180714, Note_on_c, 4, 55, 0
7, 180736, Note_on_c, 4, 55, 79
7, 180778, Note_on_c, 4, 55, 0
7, 180800, Note_on_c, 4, 55, 71
7, 180842, Note_on_c, 4, 55, 0
7, 180864, Note_on_c, 4, 55, 70
7, 180990, Note_on_c, 4, 55, 0
7, 180992, Note_on_c, 4, 55, 71
7, 181034, Note_on_c, 4, 55, 0
7, 181056, Note_on_c, 4, 55, 74
7, 181098, Note_on_c, 4, 55, 0
7, 181120, Note_on_c, 4, 55, 72
7, 181162, Note_on_c, 4, 55, 0
7, 181184, Note_on_c, 4, 55, 80
7, 181226, Note_on_c, 4, 55, 0
7, 181248, Note_on_c, 4, 55, 70
7, 181374, Note_on_c, 4, 55, 0
7, 181376, Note_on_c, 4, 55, 80
7, 181418, Note_on_c, 4, 55, 0
7, 181440, Note_on_c, 4, 55, 70
7, 181482, Note_on_c, 4, 55, 0
7, 181504, Note_on_c, 4, 55, 77
7, 181546, Note_on_c, 4, 55, 0
7, 181568, Note_on_c, 4, 55, 77
7, 181610, Note_on_c, 4, 55, 0
7, 181632, Note_on_c, 4, 55, 75
7, 181758, Note_on_c, 4, 55, 0
7, 181760, Note_on_c, 4, 55, 75
7, 181802, Note_on_c, 4, 55, 0
7, 181824, Note_on_c, 4, 55, 80
7, 181866, Note_on_c, 4, 55, 0
7, 181888, Note_on_c, 4, 55, 71
7, 181930, Note_on_c, 4, 55, 0
7, 181952, Note_on_c, 4, 55, 73
7, 181994, Note_on_c, 4, 55, 0
7, 182016, Note_on_c, 4, 55, 77
7, 182142, Note_on_c, 4, 55, 0
7, 182144, Note_on_c, 4, 55, 73
7, 182186, Note_on_c, 4, 55, 0
7, 182208, Note_on_c, 4, 55, 71
7, 182250, Note_on_c, 4, 55, 0
7, 182272, Note_on_c, 4, 55, 73
7, 182314, Note_on_c, 4, 55, 0
7, 182336, Note_on_c, 4, 55, 76
7, 182378, Note_on_c, 4, 55, 0
7, 182400, Note_on_c, 4, 55, 80
7, 182526, Note_on_c, 4, 55, 0
7, 182528, Note_on_c, 4, 55, 77
7, 182570, Note_on_c, 4, 55, 0
7, 182592, Note_on_c, 4, 55, 70
7, 182634, Note_on_c, 4, 55, 0
7, 182656, Note_on_c, 4, 55, 73
7, 182698, Note_on_c, 4, 55, 0
7, 182720, Note_on_c, 4, 55, 77
7, 182762, Note_on_c, 4, 55, 0
7, 182784, Note_on_c, 4, 67, 91
7, 184272, Note_on_c, 4, 67, 0
7, 184320, Note_on_c, 4, 68, 92
7, 185088, Note_on_c, 4, 68, 0
7, 185088, Note_on_c, 4, 70, 95
7, 185808, Note_on_c, 4, 70, 0
7, 185856, Control_c, 4, 11, 92
7, 185856, Note_on_c, 4, 67, 105
7, 186624, Control_c, 4, 11, 92
7, 186645, Control_c, 4, 11, 93
7, 186667, Control_c, 4, 11, 94
7, 186689, Control_c, 4, 11, 95
7, 186711, Control_c, 4, 11, 96
7, 186733, Control_c, 4, 11, 97
7, 186755, Control_c, 4, 11, 98
7, 186777, Control_c, 4, 11, 99
7, 186799, Control_c, 4, 11, 100
7, 186821, Control_c, 4, 11, 101
7, 186843, Control_c, 4, 11, 102
7, 186865, Control_c, 4, 11, 103
7, 186887, Control_c, 4, 11, 104
7, 186909, Control_c, 4, 11, 105
7, 186931, Control_c, 4, 11, 106
7, 186953, Control_c, 4, 11, 107
7, 186975, Control_c, 4, 11, 108
7, 186997, Control_c, 4, 11, 109
7, 187018, Control_c, 4, 11, 110
7, 187040, Control_c, 4, 11, 111
7, 187062, Control_c, 4, 11, 112
7, 187084, Control_c, 4, 11, 113
7, 187106, Control_c, 4, 11, 114
7, 187128, Control_c, 4, 11, 115
7, 187150, Control_c, 4, 11, 116
7, 187172, Control_c, 4, 11, 117
7, 187194, Control_c, 4, 11, 118
7, 187216, Control_c, 4, 11, 119
7, 187238, Control_c, 4, 11, 120
7, 187260, Control_c, 4, 11, 121
7, 187282, Control_c, 4, 11, 122
7, 187304, Control_c, 4, 11, 123
7, 187326, Control_c, 4, 11, 124
7, 187344, Note_on_c, 4, 67, 0
7, 187348, Control_c, 4, 11, 125
7, 187370, Control_c, 4, 11, 126
7, 187392, Control_c, 4, 11, 127
7, 187392, Control_c, 4, 11, 92
7, 187392, Note_on_c, 4, 68, 89
7, 188160, Note_on_c, 4, 68, 0
7, 188160, Control_c, 4, 11, 92
7, 188160, Note_on_c, 4, 67, 94
7, 188181, Control_c, 4, 11, 93
7, 188203, Control_c, 4, 11, 94
7, 188225, Control_c, 4, 11, 95
7, 188247, Control_c, 4, 11, 96
7, 188269, Control_c, 4, 11, 97
7, 188291, Control_c, 4, 11, 98
7, 188313, Control_c, 4, 11, 99
7, 188335, Control_c, 4, 11, 100
7, 188357, Control_c, 4, 11, 101
7, 188379, Control_c, 4, 11, 102
7, 188401, Control_c, 4, 11, 103
7, 188423, Control_c, 4, 11, 104
7, 188445, Control_c, 4, 11, 105
7, 188467, Control_c, 4, 11, 106
7, 188489, Control_c, 4, 11, 107
7, 188511, Control_c, 4, 11, 108
7, 188533, Control_c, 4, 11, 109
7, 188544, Note_on_c, 4, 67, 0
7, 188544, Note_on_c, 4, 68, 95
7, 188554, Control_c, 4, 11, 110
7, 188576, Control_c, 4, 11, 111
7, 188598, Control_c, 4, 11, 112
7, 188620, Control_c, 4, 11, 113
7, 188642, Control_c, 4, 11, 114
7, 188664, Control_c, 4, 11, 115
7, 188686, Control_c, 4, 11, 116
7, 188708, Control_c, 4, 11, 117
7, 188730, Control_c, 4, 11, 118
7, 188752, Control_c, 4, 11, 119
7, 188774, Control_c, 4, 11, 120
7, 188796, Control_c, 4, 11, 121
7, 188818, Control_c, 4, 11, 122
7, 188840, Control_c, 4, 11, 123
7, 188862, Control_c, 4, 11, 124
7, 188880, Note_on_c, 4, 68, 0
7, 188884, Control_c, 4, 11, 125
7, 188906, Control_c, 4, 11, 126
7, 188928, Control_c, 4, 11, 127
7, 188928, Control_c, 4, 11, 75
7, 188928, Note_on_c, 4, 64, 76
7, 188928, Note_on_c, 4, 69, 71
7, 189184, Note_on_c, 4, 69, 0
7, 189184, Note_on_c, 4, 68, 76
7, 189696, Control_c, 4, 11, 75
7, 189703, Control_c, 4, 11, 76
7, 189710, Control_c, 4, 11, 77
7, 189718, Control_c, 4, 11, 78
7, 189725, Control_c, 4, 11, 79
7, 189732, Control_c, 4, 11, 80
7, 189740, Control_c, 4, 11, 81
7, 189747, Control_c, 4, 11, 82
7, 189755, Control_c, 4, 11, 83
7, 189762, Control_c, 4, 11, 84
7, 189769, Control_c, 4, 11, 85
7, 189777, Control_c, 4, 11, 86
7, 189784, Control_c, 4, 11, 87
7, 189792, Control_c, 4, 11, 88
7, 189799, Control_c, 4, 11, 89
7, 189806, Control_c, 4, 11, 90
7, 189814, Control_c, 4, 11, 91
7, 189821, Control_c, 4, 11, 92
7, 189828, Control_c, 4, 11, 93
7, 189836, Control_c, 4, 11, 94
7, 189843, Control_c, 4, 11, 95
7, 189851, Control_c, 4, 11, 96
7, 189858, Control_c, 4, 11, 97
7, 189865, Control_c, 4, 11, 98
7, 189873, Control_c, 4, 11, 99
7, 189880, Control_c, 4, 11, 100
7, 189888, Control_c, 4, 11, 101
7, 189895, Control_c, 4, 11, 102
7, 189902, Control_c, 4, 11, 103
7, 189910, Control_c, 4, 11, 104
7, 189917, Control_c, 4, 11, 105
7, 189924, Control_c, 4, 11, 106
7, 189932, Control_c, 4, 11, 107
7, 189939, Control_c, 4, 11, 108
7, 189947, Control_c, 4, 11, 109
7, 189954, Control_c, 4, 11, 110
7, 189961, Control_c, 4, 11, 111
7, 189969, Control_c, 4, 11, 112
7, 189976, Control_c, 4, 11, 113
7, 189984, Control_c, 4, 11, 114
7, 189991, Control_c, 4, 11, 115
7, 189998, Control_c, 4, 11, 116
7, 190006, Control_c, 4, 11, 117
7, 190013, Control_c, 4, 11, 118
7, 190020, Control_c, 4, 11, 119
7, 190028, Control_c, 4, 11, 120
7, 190035, Control_c, 4, 11, 121
7, 190043, Control_c, 4, 11, 122
7, 190050, Control_c, 4, 11, 123
7, 190057, Control_c, 4, 11, 124
7, 190065, Control_c, 4, 11, 125
7, 190072, Control_c, 4, 11, 126
7, 190080, Note_on_c, 4, 68, 0
7, 190080, Control_c, 4, 11, 127
7, 190080, Note_on_c, 4, 69, 72
7, 190336, Note_on_c, 4, 69, 0
7, 190336, Note_on_c, 4, 68, 76
7, 190416, Note_on_c, 4, 64, 0
7, 190462, Note_on_c, 4, 68, 0
7, 190464, Control_c, 4, 11, 75
7, 190464, Note_on_c, 4, 64, 71
7, 190464, Note_on_c, 4, 70, 79
7, 190720, Note_on_c, 4, 70, 0
7, 190720, Note_on_c, 4, 68, 75
7, 191232, Control_c, 4, 11, 75
7, 191239, Control_c, 4, 11, 76
7, 191246, Control_c, 4, 11, 77
7, 191254, Control_c, 4, 11, 78
7, 191261, Control_c, 4, 11, 79
7, 191268, Control_c, 4, 11, 80
7, 191276, Control_c, 4, 11, 81
7, 191283, Control_c, 4, 11, 82
7, 191291, Control_c, 4, 11, 83
7, 191298, Control_c, 4, 11, 84
7, 191305, Control_c, 4, 11, 85
7, 191313, Control_c, 4, 11, 86
7, 191320, Control_c, 4, 11, 87
7, 191328, Control_c, 4, 11, 88
7, 191335, Control_c, 4, 11, 89
7, 191342, Control_c, 4, 11, 90
7, 191350, Control_c, 4, 11, 91
7, 191357, Control_c, 4, 11, 92
7, 191364, Control_c, 4, 11, 93
7, 191372, Control_c, 4, 11, 94
7, 191379, Control_c, 4, 11, 95
7, 191387, Control_c, 4, 11, 96
7, 191394, Control_c, 4, 11, 97
7, 191401, Control_c, 4, 11, 98
7, 191409, Control_c, 4, 11, 99
7, 191416, Control_c, 4, 11, 100
7, 191424, Control_c, 4, 11, 101
7, 191431, Control_c, 4, 11, 102
7, 191438, Control_c, 4, 11, 103
7, 191446, Control_c, 4, 11, 104
7, 191453, Control_c, 4, 11, 105
7, 191460, Control_c, 4, 11, 106
7, 191468, Control_c, 4, 11, 107
7, 191475, Control_c, 4, 11, 108
7, 191483, Control_c, 4, 11, 109
7, 191490, Control_c, 4, 11, 110
7, 191497, Control_c, 4, 11, 111
7, 191505, Control_c, 4, 11, 112
7, 191512, Control_c, 4, 11, 113
7, 191520, Control_c, 4, 11, 114
7, 191527, Control_c, 4, 11, 115
7, 191534, Control_c, 4, 11, 116
7, 191542, Control_c, 4, 11, 117
7, 191549, Control_c, 4, 11, 118
7, 191556, Control_c, 4, 11, 119
7, 191564, Control_c, 4, 11, 120
7, 191571, Control_c, 4, 11, 121
7, 191579, Control_c, 4, 11, 122
7, 191586, Control_c, 4, 11, 123
7, 191593, Control_c, 4, 11, 124
7, 191601, Control_c, 4, 11, 125
7, 191608, Control_c, 4, 11, 126
7, 191616, Note_on_c, 4, 68, 0
7, 191616, Control_c, 4, 11, 127
7, 191616, Note_on_c, 4, 70, 78
7, 191744, Note_on_c, 4, 70, 0
7, 191744, Note_on_c, 4, 70, 72
7, 191872, Note_on_c, 4, 70, 0
7, 191872, Note_on_c, 4, 68, 74
7, 191952, Note_on_c, 4, 64, 0
7, 191998, Note_on_c, 4, 68, 0
7, 192000, Note_on_c, 4, 62, 72
7, 192000, Note_on_c, 4, 65, 74
7, 192384, Note_on_c, 4, 62, 0
7, 192384, Note_on_c, 4, 65, 0
7, 192384, Note_on_c, 4, 63, 73
7, 192384, Note_on_c, 4, 66, 73
7, 192720, Note_on_c, 4, 63, 0
7, 192720, Note_on_c, 4, 66, 0
7, 192768, Note_on_c, 4, 59, 77
7, 193152, Note_on_c, 4, 59, 0
7, 193152, Note_on_c, 4, 58, 87
7, 193152, Note_on_c, 4, 61, 89
7, 193488, Note_on_c, 4, 58, 0
7, 193488, Note_on_c, 4, 61, 0
7, 193536, Note_on_c, 4, 56, 87
7, 193536, Note_on_c, 4, 60, 89
7, 193870, Note_on_c, 4, 56, 0
7, 193870, Note_on_c, 4, 60, 0
7, 193872, Note_on_c, 4, 55, 92
7, 193872, Note_on_c, 4, 59, 89
7, 193918, Note_on_c, 4, 55, 0
7, 193918, Note_on_c, 4, 59, 0
7, 193920, Note_on_c, 4, 54, 89
7, 193920, Note_on_c, 4, 58, 91
7, 194254, Note_on_c, 4, 54, 0
7, 194254, Note_on_c, 4, 58, 0
7, 194256, Note_on_c, 4, 53, 90
7, 194256, Note_on_c, 4, 57, 96
7, 194302, Note_on_c, 4, 53, 0
7, 194302, Note_on_c, 4, 57, 0
7, 194304, Note_on_c, 4, 52, 96
7, 194304, Note_on_c, 4, 56, 91
7, 194424, Note_on_c, 4, 52, 0
7, 194424, Note_on_c, 4, 56, 0
7, 194496, Note_on_c, 4, 56, 95
7, 194496, Note_on_c, 4, 60, 90
7, 194616, Note_on_c, 4, 56, 0
7, 194616, Note_on_c, 4, 60, 0
7, 194688, Note_on_c, 4, 60, 90
7, 194688, Note_on_c, 4, 64, 99
7, 195072, Note_on_c, 4, 60, 0
7, 195072, Note_on_c, 4, 54, 103
7, 195648, Note_on_c, 4, 54, 0
7, 195648, Note_on_c, 4, 55, 104
7, 195792, Note_on_c, 4, 64, 0
7, 195808, Note_on_c, 4, 55, 0
7, 195840, Note_on_c, 4, 61, 112
7, 195840, Note_on_c, 4, 65, 106
7, 197328, Note_on_c, 4, 61, 0
7, 197328, Note_on_c, 4, 65, 0
7, 197376, Note_on_c, 4, 61, 110
7, 197376, Note_on_c, 4, 65, 106
7, 198864, Note_on_c, 4, 61, 0
7, 198864, Note_on_c, 4, 65, 0
7, 208128, Control_c, 4, 11, 127
7, 208128, Note_on_c, 4, 49, 105
7, 208128, Note_on_c, 4, 56, 110
7, 208138, Control_c, 4, 11, 126
7, 208149, Control_c, 4, 11, 125
7, 208160, Control_c, 4, 11, 124
7, 208171, Control_c, 4, 11, 123
7, 208182, Control_c, 4, 11, 122
7, 208193, Control_c, 4, 11, 121
7, 208204, Control_c, 4, 11, 120
7, 208215, Control_c, 4, 11, 119
7, 208226, Control_c, 4, 11, 118
7, 208237, Control_c, 4, 11, 117
7, 208248, Control_c, 4, 11, 116
7, 208259, Control_c, 4, 11, 115
7, 208270, Control_c, 4, 11, 114
7, 208281, Control_c, 4, 11, 113
7, 208292, Control_c, 4, 11, 112
7, 208303, Control_c, 4, 11, 111
7, 208314, Control_c, 4, 11, 110
7, 208325, Control_c, 4, 11, 109
7, 208336, Control_c, 4, 11, 108
7, 208347, Control_c, 4, 11, 107
7, 208358, Control_c, 4, 11, 106
7, 208369, Control_c, 4, 11, 105
7, 208380, Control_c, 4, 11, 104
7, 208391, Control_c, 4, 11, 103
7, 208402, Control_c, 4, 11, 102
7, 208413, Control_c, 4, 11, 101
7, 208424, Control_c, 4, 11, 100
7, 208435, Control_c, 4, 11, 99
7, 208446, Control_c, 4, 11, 98
7, 208457, Control_c, 4, 11, 97
7, 208468, Control_c, 4, 11, 96
7, 208479, Control_c, 4, 11, 95
7, 208490, Control_c, 4, 11, 94
7, 208501, Control_c, 4, 11, 93
7, 208512, Control_c, 4, 11, 92
7, 209056, Note_on_c, 4, 49, 0
7, 209056, Note_on_c, 4, 56, 0
7, 209280, Control_c, 4, 11, 127
7, 209664, Note_on_c, 4, 51, 41
7, 209664, Note_on_c, 4, 63, 44
7, 209706, Note_on_c, 4, 51, 0
7, 209706, Note_on_c, 4, 63, 0
7, 209728, Note_on_c, 4, 51, 47
7, 209728, Note_on_c, 4, 63, 46
7, 209770, Note_on_c, 4, 51, 0
7, 209770, Note_on_c, 4, 63, 0
7, 209792, Note_on_c, 4, 49, 51
7, 209792, Note_on_c, 4, 61, 58
7, 209834, Note_on_c, 4, 49, 0
7, 209834, Note_on_c, 4, 61, 0
7, 209856, Note_on_c, 4, 45, 64
7, 209856, Note_on_c, 4, 57, 58
7, 209898, Note_on_c, 4, 45, 0
7, 209898, Note_on_c, 4, 57, 0
7, 209920, Note_on_c, 4, 45, 75
7, 209920, Note_on_c, 4, 57, 67
7, 209962, Note_on_c, 4, 45, 0
7, 209962, Note_on_c, 4, 57, 0
7, 209984, Note_on_c, 4, 49, 79
7, 209984, Note_on_c, 4, 61, 86
7, 210026, Note_on_c, 4, 49, 0
7, 210026, Note_on_c, 4, 61, 0
7, 210048, Note_on_c, 4, 51, 93
7, 210048, Note_on_c, 4, 54, 88
7, 210048, Note_on_c, 4, 58, 87
7, 210208, Note_on_c, 4, 51, 0
7, 210208, Note_on_c, 4, 54, 0
7, 210208, Note_on_c, 4, 58, 0
7, 210432, Note_on_c, 4, 51, 43
7, 210432, Note_on_c, 4, 63, 47
7, 210474, Note_on_c, 4, 51, 0
7, 210474, Note_on_c, 4, 63, 0
7, 210496, Note_on_c, 4, 51, 44
7, 210496, Note_on_c, 4, 63, 45
7, 210538, Note_on_c, 4, 51, 0
7, 210538, Note_on_c, 4, 63, 0
7, 210560, Note_on_c, 4, 49, 55
7, 210560, Note_on_c, 4, 61, 52
7, 210602, Note_on_c, 4, 49, 0
7, 210602, Note_on_c, 4, 61, 0
7, 210624, Note_on_c, 4, 45, 64
7, 210624, Note_on_c, 4, 57, 64
7, 210666, Note_on_c, 4, 45, 0
7, 210666, Note_on_c, 4, 57, 0
7, 210688, Note_on_c, 4, 45, 68
7, 210688, Note_on_c, 4, 57, 70
7, 210730, Note_on_c, 4, 45, 0
7, 210730, Note_on_c, 4, 57, 0
7, 210752, Note_on_c, 4, 49, 86
7, 210752, Note_on_c, 4, 61, 83
7, 210794, Note_on_c, 4, 49, 0
7, 210794, Note_on_c, 4, 61, 0
7, 210816, Note_on_c, 4, 51, 95
7, 210816, Note_on_c, 4, 63, 88
7, 210976, Note_on_c, 4, 51, 0
7, 210976, Note_on_c, 4, 63, 0
7, 211200, Note_on_c, 4, 56, 73
7, 211242, Note_on_c, 4, 56, 0
7, 211264, Note_on_c, 4, 56, 76
7, 211306, Note_on_c, 4, 56, 0
7, 211328, Note_on_c, 4, 54, 74
7, 211370, Note_on_c, 4, 54, 0
7, 211392, Note_on_c, 4, 51, 73
7, 211434, Note_on_c, 4, 51, 0
7, 211456, Note_on_c, 4, 51, 77
7, 211498, Note_on_c, 4, 51, 0
7, 211520, Note_on_c, 4, 54, 81
7, 211562, Note_on_c, 4, 54, 0
7, 211584, Note_on_c, 4, 56, 83
7, 211744, Note_on_c, 4, 56, 0
7, 211968, Note_on_c, 4, 68, 94
7, 212010, Note_on_c, 4, 68, 0
7, 212032, Note_on_c, 4, 68, 91
7, 212074, Note_on_c, 4, 68, 0
7, 212096, Note_on_c, 4, 66, 92
7, 212138, Note_on_c, 4, 66, 0
7, 212160, Note_on_c, 4, 63, 99
7, 212202, Note_on_c, 4, 63, 0
7, 212224, Note_on_c, 4, 63, 106
7, 212266, Note_on_c, 4, 63, 0
7, 212288, Note_on_c, 4, 66, 103
7, 212330, Note_on_c, 4, 66, 0
7, 212352, Note_on_c, 4, 68, 103
7, 212512, Note_on_c, 4, 68, 0
7, 212736, Note_on_c, 4, 49, 110
7, 212736, Note_on_c, 4, 56, 105
7, 213664, Note_on_c, 4, 49, 0
7, 213664, Note_on_c, 4, 56, 0
7, 214272, Note_on_c, 4, 53, 48
7, 214272, Note_on_c, 4, 58, 41
7, 214392, Note_on_c, 4, 53, 0
7, 214392, Note_on_c, 4, 58, 0
7, 214464, Note_on_c, 4, 55, 43
7, 214464, Note_on_c, 4, 58, 47
7, 214584, Note_on_c, 4, 55, 0
7, 214584, Note_on_c, 4, 58, 0
7, 214656, Note_on_c, 4, 53, 50
7, 214656, Note_on_c, 4, 58, 52
7, 214776, Note_on_c, 4, 53, 0
7, 214776, Note_on_c, 4, 58, 0
7, 214848, Note_on_c, 4, 55, 53
7, 214848, Note_on_c, 4, 58, 47
7, 214968, Note_on_c, 4, 55, 0
7, 214968, Note_on_c, 4, 58, 0
7, 215040, Note_on_c, 4, 53, 55
7, 215040, Note_on_c, 4, 58, 56
7, 215160, Note_on_c, 4, 53, 0
7, 215160, Note_on_c, 4, 58, 0
7, 215232, Note_on_c, 4, 55, 58
7, 215232, Note_on_c, 4, 58, 54
7, 215352, Note_on_c, 4, 55, 0
7, 215352, Note_on_c, 4, 58, 0
7, 215424, Note_on_c, 4, 53, 63
7, 215424, Note_on_c, 4, 58, 55
7, 215544, Note_on_c, 4, 53, 0
7, 215544, Note_on_c, 4, 58, 0
7, 215616, Note_on_c, 4, 55, 63
7, 215616, Note_on_c, 4, 58, 67
7, 215736, Note_on_c, 4, 55, 0
7, 215736, Note_on_c, 4, 58, 0
7, 215808, Note_on_c, 4, 63, 68
7, 215854, Note_on_c, 4, 63, 0
7, 215856, Note_on_c, 4, 61, 71
7, 215902, Note_on_c, 4, 61, 0
7, 215904, Note_on_c, 4, 63, 70
7, 215950, Note_on_c, 4, 63, 0
7, 215952, Note_on_c, 4, 65, 71
7, 215998, Note_on_c, 4, 65, 0
7, 216000, Note_on_c, 4, 63, 69
7, 216046, Note_on_c, 4, 63, 0
7, 216048, Note_on_c, 4, 61, 70
7, 216094, Note_on_c, 4, 61, 0
7, 216096, Note_on_c, 4, 58, 65
7, 216142, Note_on_c, 4, 58, 0
7, 216144, Note_on_c, 4, 61, 69
7, 216190, Note_on_c, 4, 61, 0
7, 216192, Note_on_c, 4, 63, 68
7, 216238, Note_on_c, 4, 63, 0
7, 216240, Note_on_c, 4, 61, 63
7, 216286, Note_on_c, 4, 61, 0
7, 216288, Note_on_c, 4, 63, 65
7, 216334, Note_on_c, 4, 63, 0
7, 216336, Note_on_c, 4, 65, 70
7, 216382, Note_on_c, 4, 65, 0
7, 216384, Note_on_c, 4, 63, 76
7, 216430, Note_on_c, 4, 63, 0
7, 216432, Note_on_c, 4, 61, 67
7, 216478, Note_on_c, 4, 61, 0
7, 216480, Note_on_c, 4, 58, 70
7, 216526, Note_on_c, 4, 58, 0
7, 216528, Note_on_c, 4, 61, 69
7, 216574, Note_on_c, 4, 61, 0
7, 216576, Note_on_c, 4, 63, 79
7, 216622, Note_on_c, 4, 63, 0
7, 216624, Note_on_c, 4, 61, 72
7, 216670, Note_on_c, 4, 61, 0
7, 216672, Note_on_c, 4, 63, 79
7, 216718, Note_on_c, 4, 63, 0
7, 216720, Note_on_c, 4, 65, 83
7, 216766, Note_on_c, 4, 65, 0
7, 216768, Note_on_c, 4, 63, 75
7, 216814, Note_on_c, 4, 63, 0
7, 216816, Note_on_c, 4, 61, 77
7, 216862, Note_on_c, 4, 61, 0
7, 216864, Note_on_c, 4, 58, 78
7, 216910, Note_on_c, 4, 58, 0
7, 216912, Note_on_c, 4, 61, 77
7, 216958, Note_on_c, 4, 61, 0
7, 216960, Note_on_c, 4, 63, 87
7, 217006, Note_on_c, 4, 63, 0
7, 217008, Note_on_c, 4, 61, 85
7, 217054, Note_on_c, 4, 61, 0
7, 217056, Note_on_c, 4, 63, 86
7, 217102, Note_on_c, 4, 63, 0
7, 217104, Note_on_c, 4, 65, 83
7, 217150, Note_on_c, 4, 65, 0
7, 217152, Note_on_c, 4, 63, 87
7, 217198, Note_on_c, 4, 63, 0
7, 217200, Note_on_c, 4, 61, 87
7, 217246, Note_on_c, 4, 61, 0
7, 217248, Note_on_c, 4, 58, 93
7, 217294, Note_on_c, 4, 58, 0
7, 217296, Note_on_c, 4, 61, 93
7, 217342, Note_on_c, 4, 61, 0
7, 217344, Note_on_c, 4, 58, 96
7, 217435, Note_on_c, 4, 58, 0
7, 217472, Note_on_c, 4, 58, 92
7, 217563, Note_on_c, 4, 58, 0
7, 217600, Note_on_c, 4, 60, 91
7, 217691, Note_on_c, 4, 60, 0
7, 217728, Note_on_c, 4, 63, 88
7, 217819, Note_on_c, 4, 63, 0
7, 217856, Note_on_c, 4, 61, 89
7, 217947, Note_on_c, 4, 61, 0
7, 217984, Note_on_c, 4, 60, 92
7, 218075, Note_on_c, 4, 60, 0
7, 218112, Note_on_c, 4, 58, 93
7, 218203, Note_on_c, 4, 58, 0
7, 218240, Note_on_c, 4, 58, 94
7, 218331, Note_on_c, 4, 58, 0
7, 218368, Note_on_c, 4, 60, 93
7, 218459, Note_on_c, 4, 60, 0
7, 218496, Note_on_c, 4, 63, 87
7, 218587, Note_on_c, 4, 63, 0
7, 218624, Note_on_c, 4, 61, 94
7, 218715, Note_on_c, 4, 61, 0
7, 218752, Note_on_c, 4, 60, 91
7, 218843, Note_on_c, 4, 60, 0
7, 218880, Note_on_c, 4, 43, 126
7, 219648, Control_c, 4, 11, 92
7, 219669, Control_c, 4, 11, 93
7, 219691, Control_c, 4, 11, 94
7, 219713, Control_c, 4, 11, 95
7, 219735, Control_c, 4, 11, 96
7, 219757, Control_c, 4, 11, 97
7, 219779, Control_c, 4, 11, 98
7, 219801, Control_c, 4, 11, 99
7, 219823, Control_c, 4, 11, 100
7, 219845, Control_c, 4, 11, 101
7, 219867, Control_c, 4, 11, 102
7, 219889, Control_c, 4, 11, 103
7, 219911, Control_c, 4, 11, 104
7, 219933, Control_c, 4, 11, 105
7, 219955, Control_c, 4, 11, 106
7, 219977, Control_c, 4, 11, 107
7, 219999, Control_c, 4, 11, 108
7, 220021, Control_c, 4, 11, 109
7, 220042, Control_c, 4, 11, 110
7, 220064, Control_c, 4, 11, 111
7, 220086, Control_c, 4, 11, 112
7, 220108, Control_c, 4, 11, 113
7, 220130, Control_c, 4, 11, 114
7, 220152, Control_c, 4, 11, 115
7, 220174, Control_c, 4, 11, 116
7, 220196, Control_c, 4, 11, 117
7, 220218, Control_c, 4, 11, 118
7, 220240, Control_c, 4, 11, 119
7, 220262, Control_c, 4, 11, 120
7, 220284, Control_c, 4, 11, 121
7, 220306, Control_c, 4, 11, 122
7, 220328, Control_c, 4, 11, 123
7, 220350, Control_c, 4, 11, 124
7, 220368, Note_on_c, 4, 43, 0
7, 220372, Control_c, 4, 11, 125
7, 220394, Control_c, 4, 11, 126
7, 220416, Control_c, 4, 11, 127
7, 221184, Note_on_c, 4, 44, 125
7, 221904, Note_on_c, 4, 44, 0
7, 222720, Note_on_c, 4, 44, 123
7, 223440, Note_on_c, 4, 44, 0
7, 223440, End_track
8, 0, Start_track
8, 0, Title_t, "Fagotto III"
8, 0, MIDI_port, 0
8, 17664, Note_on_c, 4, 38, 47
8, 18240, Note_on_c, 4, 38, 0
8, 18240, Note_on_c, 4, 39, 48
8, 18400, Note_on_c, 4, 39, 0
8, 18432, Note_on_c, 4, 44, 40
8, 19008, Note_on_c, 4, 44, 0
8, 19008, Note_on_c, 4, 45, 50
8, 19168, Note_on_c, 4, 45, 0
8, 19200, Note_on_c, 4, 38, 44
8, 19392, Note_on_c, 4, 38, 0
8, 19392, Note_on_c, 4, 39, 47
8, 19584, Note_on_c, 4, 39, 0
8, 19584, Note_on_c, 4, 44, 42
8, 19872, Note_on_c, 4, 44, 0
8, 19872, Note_on_c, 4, 45, 43
8, 19966, Note_on_c, 4, 45, 0
8, 19968, Note_on_c, 4, 39, 42
8, 20254, Note_on_c, 4, 39, 0
8, 21504, Note_on_c, 4, 38, 45
8, 22080, Note_on_c, 4, 38, 0
8, 22080, Note_on_c, 4, 39, 42
8, 22240, Note_on_c, 4, 39, 0
8, 22272, Note_on_c, 4, 44, 40
8, 22848, Note_on_c, 4, 44, 0
8, 22848, Note_on_c, 4, 45, 41
8, 23008, Note_on_c, 4, 45, 0
8, 23040, Note_on_c, 4, 38, 49
8, 23232, Note_on_c, 4, 38, 0
8, 23232, Note_on_c, 4, 39, 42
8, 23424, Note_on_c, 4, 39, 0
8, 23424, Note_on_c, 4, 44, 47
8, 23712, Note_on_c, 4, 44, 0
8, 23712, Note_on_c, 4, 45, 42
8, 23806, Note_on_c, 4, 45, 0
8, 43776, Note_on_c, 4, 61, 73
8, 43776, Note_on_c, 4, 64, 73
8, 44704, Note_on_c, 4, 61, 0
8, 44704, Note_on_c, 4, 64, 0
8, 45312, Note_on_c, 4, 61, 77
8, 45312, Note_on_c, 4, 64, 80
8, 46240, Note_on_c, 4, 61, 0
8, 46240, Note_on_c, 4, 64, 0
8, 46848, Note_on_c, 4, 62, 91
8, 47232, Note_on_c, 4, 62, 0
8, 47232, Note_on_c, 4, 60, 96
8, 47232, Note_on_c, 4, 63, 94
8, 47392, Note_on_c, 4, 60, 0
8, 47392, Note_on_c, 4, 63, 0
8, 47616, Note_on_c, 4, 56, 91
8, 48000, Note_on_c, 4, 56, 0
8, 48000, Note_on_c, 4, 55, 87
8, 48000, Note_on_c, 4, 58, 92
8, 48160, Note_on_c, 4, 55, 0
8, 48160, Note_on_c, 4, 58, 0
8, 48384, Note_on_c, 4, 56, 75
8, 48384, Note_on_c, 4, 60, 79
8, 48718, Note_on_c, 4, 56, 0
8, 48718, Note_on_c, 4, 60, 0
8, 48720, Note_on_c, 4, 55, 74
8, 48720, Note_on_c, 4, 59, 80
8, 48766, Note_on_c, 4, 55, 0
8, 48766, Note_on_c, 4, 59, 0
8, 48768, Note_on_c, 4, 54, 79
8, 48768, Note_on_c, 4, 58, 73
8, 49102, Note_on_c, 4, 54, 0
8, 49102, Note_on_c, 4, 58, 0
8, 49104, Note_on_c, 4, 53, 70
8, 49104, Note_on_c, 4, 57, 74
8, 49150, Note_on_c, 4, 53, 0
8, 49150, Note_on_c, 4, 57, 0
8, 49152, Note_on_c, 4, 48, 75
8, 49152, Note_on_c, 4, 56, 76
8, 49312, Note_on_c, 4, 48, 0
8, 49312, Note_on_c, 4, 56, 0
8, 49344, Note_on_c, 4, 46, 75
8, 49344, Note_on_c, 4, 60, 74
8, 49406, Note_on_c, 4, 46, 0
8, 49408, Note_on_c, 4, 45, 80
8, 49470, Note_on_c, 4, 45, 0
8, 49472, Note_on_c, 4, 44, 79
8, 49504, Note_on_c, 4, 60, 0
8, 49534, Note_on_c, 4, 44, 0
8, 49536, Note_on_c, 4, 43, 78
8, 49536, Note_on_c, 4, 64, 75
8, 50080, Note_on_c, 4, 64, 0
8, 50112, Note_on_c, 4, 60, 76
8, 50256, Note_on_c, 4, 43, 0
8, 50272, Note_on_c, 4, 60, 0
8, 50304, Note_on_c, 4, 61, 86
8, 50430, Note_on_c, 4, 61, 0
8, 50432, Note_on_c, 4, 62, 99
8, 50558, Note_on_c, 4, 62, 0
8, 50560, Note_on_c, 4, 63, 104
8, 50686, Note_on_c, 4, 63, 0
8, 50688, Note_on_c, 4, 61, 71
8, 50688, Note_on_c, 4, 64, 75
8, 51616, Note_on_c, 4, 61, 0
8, 51616, Note_on_c, 4, 64, 0
8, 52224, Note_on_c, 4, 61, 79
8, 52224, Note_on_c, 4, 64, 79
8, 53152, Note_on_c, 4, 61, 0
8, 53152, Note_on_c, 4, 64, 0
8, 53760, Note_on_c, 4, 62, 94
8, 54144, Note_on_c, 4, 62, 0
8, 54144, Note_on_c, 4, 60, 90
8, 54144, Note_on_c, 4, 63, 94
8, 54304, Note_on_c, 4, 60, 0
8, 54304, Note_on_c, 4, 63, 0
8, 54528, Note_on_c, 4, 56, 96
8, 54912, Note_on_c, 4, 56, 0
8, 54912, Note_on_c, 4, 55, 93
8, 54912, Note_on_c, 4, 58, 87
8, 55680, Note_on_c, 4, 55, 0
8, 55680, Note_on_c, 4, 53, 94
8, 56064, Note_on_c, 4, 58, 0
8, 56064, Note_on_c, 4, 53, 0
8, 56064, Note_on_c, 4, 52, 93
8, 56064, Note_on_c, 4, 59, 89
8, 56158, Note_on_c, 4, 52, 0
8, 56158, Note_on_c, 4, 59, 0
8, 61440, Note_on_c, 4, 53, 89
8, 61824, Note_on_c, 4, 53, 0
8, 61824, Note_on_c, 4, 52, 88
8, 62160, Note_on_c, 4, 52, 0
8, 62208, Note_on_c, 4, 48, 111
8, 62784, Note_on_c, 4, 48, 0
8, 62784, Note_on_c, 4, 45, 113
8, 62944, Note_on_c, 4, 45, 0
8, 62976, Note_on_c, 4, 44, 113
8, 63552, Note_on_c, 4, 44, 0
8, 63552, Note_on_c, 4, 41, 110
8, 63712, Note_on_c, 4, 41, 0
8, 63744, Note_on_c, 4, 40, 96
8, 63936, Note_on_c, 4, 40, 0
8, 63936, Note_on_c, 4, 39, 94
8, 64128, Note_on_c, 4, 39, 0
8, 64128, Note_on_c, 4, 38, 90
8, 64320, Note_on_c, 4, 38, 0
8, 64320, Note_on_c, 4, 37, 90
8, 64480, Note_on_c, 4, 37, 0
8, 64512, Note_on_c, 4, 40, 90
8, 64704, Note_on_c, 4, 40, 0
8, 64704, Note_on_c, 4, 39, 96
8, 64896, Note_on_c, 4, 39, 0
8, 64896, Note_on_c, 4, 39, 96
8, 65088, Note_on_c, 4, 39, 0
8, 65088, Note_on_c, 4, 37, 91
8, 65248, Note_on_c, 4, 37, 0
8, 65280, Note_on_c, 4, 37, 96
8, 65374, Note_on_c, 4, 37, 0
8, 68736, Note_on_c, 4, 48, 104
8, 69504, Note_on_c, 4, 48, 0
8, 69504, Note_on_c, 4, 46, 112
8, 69840, Note_on_c, 4, 46, 0
8, 69888, Note_on_c, 4, 45, 46
8, 71376, Note_on_c, 4, 45, 0
8, 71424, Note_on_c, 4, 45, 93
8, 71616, Note_on_c, 4, 45, 0
8, 71616, Note_on_c, 4, 44, 95
8, 71808, Note_on_c, 4, 44, 0
8, 71808, Note_on_c, 4, 43, 93
8, 71928, Note_on_c, 4, 43, 0
8, 72000, Note_on_c, 4, 42, 91
8, 72120, Note_on_c, 4, 42, 0
8, 72192, Note_on_c, 4, 45, 93
8, 72384, Note_on_c, 4, 45, 0
8, 72384, Note_on_c, 4, 44, 92
8, 72576, Note_on_c, 4, 44, 0
8, 72576, Note_on_c, 4, 43, 88
8, 72696, Note_on_c, 4, 43, 0
8, 72768, Note_on_c, 4, 42, 95
8, 72888, Note_on_c, 4, 42, 0
8, 72960, Note_on_c, 4, 41, 91
8, 73054, Note_on_c, 4, 41, 0
8, 85248, Note_on_c, 4, 47, 73
8, 85368, Note_on_c, 4, 47, 0
8, 85440, Note_on_c, 4, 49, 72
8, 85560, Note_on_c, 4, 49, 0
8, 85632, Note_on_c, 4, 53, 75
8, 86142, Note_on_c, 4, 53, 0
8, 86144, Note_on_c, 4, 51, 74
8, 86235, Note_on_c, 4, 51, 0
8, 86272, Note_on_c, 4, 49, 75
8, 86363, Note_on_c, 4, 49, 0
8, 86400, Note_on_c, 4, 47, 79
8, 86520, Note_on_c, 4, 47, 0
8, 86592, Note_on_c, 4, 45, 76
8, 86712, Note_on_c, 4, 45, 0
8, 86784, Note_on_c, 4, 43, 70
8, 86904, Note_on_c, 4, 43, 0
8, 86976, Note_on_c, 4, 47, 71
8, 87312, Note_on_c, 4, 47, 0
8, 87360, Note_on_c, 4, 49, 80
8, 87480, Note_on_c, 4, 49, 0
8, 87552, Note_on_c, 4, 53, 74
8, 87680, Note_on_c, 4, 53, 0
8, 87680, Note_on_c, 4, 51, 79
8, 87808, Note_on_c, 4, 51, 0
8, 87808, Note_on_c, 4, 49, 70
8, 87936, Note_on_c, 4, 49, 0
8, 87936, Control_c, 4, 11, 75
8, 87936, Note_on_c, 4, 48, 113
8, 87958, Control_c, 4, 11, 76
8, 87980, Control_c, 4, 11, 77
8, 88002, Control_c, 4, 11, 78
8, 88024, Control_c, 4, 11, 79
8, 88046, Control_c, 4, 11, 80
8, 88068, Control_c, 4, 11, 81
8, 88091, Control_c, 4, 11, 82
8, 88113, Control_c, 4, 11, 83
8, 88135, Control_c, 4, 11, 84
8, 88157, Control_c, 4, 11, 85
8, 88179, Control_c, 4, 11, 86
8, 88201, Control_c, 4, 11, 87
8, 88224, Control_c, 4, 11, 88
8, 88246, Control_c, 4, 11, 89
8, 88268, Control_c, 4, 11, 90
8, 88290, Control_c, 4, 11, 91
8, 88312, Control_c, 4, 11, 92
8, 88334, Control_c, 4, 11, 93
8, 88356, Control_c, 4, 11, 94
8, 88379, Control_c, 4, 11, 95
8, 88401, Control_c, 4, 11, 96
8, 88423, Control_c, 4, 11, 97
8, 88445, Control_c, 4, 11, 98
8, 88467, Control_c, 4, 11, 99
8, 88489, Control_c, 4, 11, 100
8, 88512, Control_c, 4, 11, 101
8, 88534, Control_c, 4, 11, 102
8, 88556, Control_c, 4, 11, 103
8, 88578, Control_c, 4, 11, 104
8, 88600, Control_c, 4, 11, 105
8, 88622, Control_c, 4, 11, 106
8, 88644, Control_c, 4, 11, 107
8, 88667, Control_c, 4, 11, 108
8, 88689, Control_c, 4, 11, 109
8, 88711, Control_c, 4, 11, 110
8, 88733, Control_c, 4, 11, 111
8, 88755, Control_c, 4, 11, 112
8, 88777, Control_c, 4, 11, 113
8, 88800, Control_c, 4, 11, 114
8, 88822, Control_c, 4, 11, 115
8, 88844, Control_c, 4, 11, 116
8, 88866, Control_c, 4, 11, 117
8, 88888, Control_c, 4, 11, 118
8, 88910, Control_c, 4, 11, 119
8, 88932, Control_c, 4, 11, 120
8, 88955, Control_c, 4, 11, 121
8, 88977, Control_c, 4, 11, 122
8, 88999, Control_c, 4, 11, 123
8, 89021, Control_c, 4, 11, 124
8, 89040, Note_on_c, 4, 48, 0
8, 89043, Control_c, 4, 11, 125
8, 89065, Control_c, 4, 11, 126
8, 89088, Control_c, 4, 11, 127
8, 89088, Note_on_c, 4, 47, 45
8, 89208, Note_on_c, 4, 47, 0
8, 89280, Note_on_c, 4, 49, 48
8, 89400, Note_on_c, 4, 49, 0
8, 89472, Note_on_c, 4, 53, 52
8, 89982, Note_on_c, 4, 53, 0
8, 89984, Note_on_c, 4, 51, 57
8, 90075, Note_on_c, 4, 51, 0
8, 90112, Note_on_c, 4, 49, 57
8, 90203, Note_on_c, 4, 49, 0
8, 90240, Note_on_c, 4, 47, 63
8, 90360, Note_on_c, 4, 47, 0
8, 90432, Note_on_c, 4, 45, 72
8, 90552, Note_on_c, 4, 45, 0
8, 90624, Note_on_c, 4, 43, 77
8, 90744, Note_on_c, 4, 43, 0
8, 90816, Note_on_c, 4, 47, 75
8, 91200, Note_on_c, 4, 47, 0
8, 91200, Note_on_c, 4, 49, 84
8, 91360, Note_on_c, 4, 49, 0
8, 91392, Note_on_c, 4, 53, 88
8, 91520, Note_on_c, 4, 53, 0
8, 91520, Note_on_c, 4, 51, 97
8, 91648, Note_on_c, 4, 51, 0
8, 91648, Note_on_c, 4, 49, 104
8, 91776, Note_on_c, 4, 49, 0
8, 95232, Note_on_c, 4, 48, 90
8, 95520, Note_on_c, 4, 48, 0
8, 95520, Note_on_c, 4, 49, 91
8, 95616, Note_on_c, 4, 49, 0
8, 95616, Note_on_c, 4, 50, 90
8, 96288, Note_on_c, 4, 50, 0
8, 96288, Note_on_c, 4, 51, 85
8, 96384, Note_on_c, 4, 51, 0
8, 96384, Note_on_c, 4, 52, 76
8, 96672, Note_on_c, 4, 52, 0
8, 96672, Note_on_c, 4, 53, 75
8, 96768, Note_on_c, 4, 53, 0
8, 96768, Note_on_c, 4, 54, 75
8, 96928, Note_on_c, 4, 54, 0
8, 105984, Note_on_c, 4, 44, 28
8, 107472, Note_on_c, 4, 44, 0
8, 110592, Note_on_c, 4, 38, 26
8, 111520, Note_on_c, 4, 38, 0
8, 138240, Note_on_c, 4, 37, 77
8, 139728, Note_on_c, 4, 37, 0
8, 139776, Note_on_c, 4, 37, 76
8, 141264, Note_on_c, 4, 37, 0
8, 156672, Note_on_c, 4, 39, 109
8, 157056, Note_on_c, 4, 39, 0
8, 157056, Note_on_c, 4, 42, 109
8, 157392, Note_on_c, 4, 42, 0
8, 157440, Note_on_c, 4, 39, 110
8, 157824, Note_on_c, 4, 39, 0
8, 157824, Note_on_c, 4, 42, 110
8, 158080, Note_on_c, 4, 42, 0
8, 158080, Note_on_c, 4, 44, 112
8, 158206, Note_on_c, 4, 44, 0
8, 173568, Note_on_c, 4, 61, 31
8, 173694, Note_on_c, 4, 61, 0
8, 173696, Note_on_c, 4, 61, 31
8, 173738, Note_on_c, 4, 61, 0
8, 173760, Note_on_c, 4, 61, 33
8, 173802, Note_on_c, 4, 61, 0
8, 173824, Note_on_c, 4, 61, 34
8, 173866, Note_on_c, 4, 61, 0
8, 173888, Note_on_c, 4, 61, 35
8, 173930, Note_on_c, 4, 61, 0
8, 173952, Note_on_c, 4, 61, 34
8, 174078, Note_on_c, 4, 61, 0
8, 174080, Note_on_c, 4, 61, 31
8, 174122, Note_on_c, 4, 61, 0
8, 174144, Note_on_c, 4, 61, 34
8, 174186, Note_on_c, 4, 61, 0
8, 174208, Note_on_c, 4, 61, 33
8, 174250, Note_on_c, 4, 61, 0
8, 174272, Note_on_c, 4, 61, 26
8, 174314, Note_on_c, 4, 61, 0
8, 174336, Note_on_c, 4, 61, 33
8, 174462, Note_on_c, 4, 61, 0
8, 174464, Note_on_c, 4, 61, 30
8, 174506, Note_on_c, 4, 61, 0
8, 174528, Note_on_c, 4, 61, 28
8, 174570, Note_on_c, 4, 61, 0
8, 174592, Note_on_c, 4, 61, 28
8, 174634, Note_on_c, 4, 61, 0
8, 174656, Note_on_c, 4, 61, 28
8, 174698, Note_on_c, 4, 61, 0
8, 174720, Note_on_c, 4, 61, 30
8, 174846, Note_on_c, 4, 61, 0
8, 174848, Note_on_c, 4, 61, 34
8, 174890, Note_on_c, 4, 61, 0
8, 174912, Note_on_c, 4, 61, 29
8, 174954, Note_on_c, 4, 61, 0
8, 174976, Note_on_c, 4, 61, 33
8, 175018, Note_on_c, 4, 61, 0
8, 175040, Note_on_c, 4, 61, 28
8, 175082, Note_on_c, 4, 61, 0
8, 175104, Note_on_c, 4, 61, 32
8, 175230, Note_on_c, 4, 61, 0
8, 175232, Note_on_c, 4, 61, 28
8, 175274, Note_on_c, 4, 61, 0
8, 175296, Note_on_c, 4, 61, 29
8, 175338, Note_on_c, 4, 61, 0
8, 175360, Note_on_c, 4, 61, 33
8, 175402, Note_on_c, 4, 61, 0
8, 175424, Note_on_c, 4, 61, 29
8, 175466, Note_on_c, 4, 61, 0
8, 175488, Note_on_c, 4, 61, 34
8, 175614, Note_on_c, 4, 61, 0
8, 175616, Note_on_c, 4, 61, 34
8, 175658, Note_on_c, 4, 61, 0
8, 175680, Note_on_c, 4, 61, 35
8, 175722, Note_on_c, 4, 61, 0
8, 175744, Note_on_c, 4, 61, 26
8, 175786, Note_on_c, 4, 61, 0
8, 175808, Note_on_c, 4, 61, 30
8, 175850, Note_on_c, 4, 61, 0
8, 175872, Note_on_c, 4, 61, 28
8, 175998, Note_on_c, 4, 61, 0
8, 176000, Note_on_c, 4, 61, 31
8, 176042, Note_on_c, 4, 61, 0
8, 176064, Note_on_c, 4, 61, 33
8, 176106, Note_on_c, 4, 61, 0
8, 176128, Note_on_c, 4, 61, 28
8, 176170, Note_on_c, 4, 61, 0
8, 176192, Note_on_c, 4, 61, 35
8, 176234, Note_on_c, 4, 61, 0
8, 176256, Note_on_c, 4, 61, 33
8, 176382, Note_on_c, 4, 61, 0
8, 176384, Note_on_c, 4, 61, 31
8, 176426, Note_on_c, 4, 61, 0
8, 176448, Note_on_c, 4, 61, 29
8, 176490, Note_on_c, 4, 61, 0
8, 176512, Note_on_c, 4, 61, 32
8, 176554, Note_on_c, 4, 61, 0
8, 176576, Note_on_c, 4, 61, 34
8, 176618, Note_on_c, 4, 61, 0
8, 176640, Note_on_c, 4, 61, 29
8, 176766, Note_on_c, 4, 61, 0
8, 176768, Note_on_c, 4, 61, 33
8, 176810, Note_on_c, 4, 61, 0
8, 176832, Note_on_c, 4, 61, 25
8, 176874, Note_on_c, 4, 61, 0
8, 176896, Note_on_c, 4, 61, 30
8, 176938, Note_on_c, 4, 61, 0
8, 176960, Note_on_c, 4, 61, 31
8, 177002, Note_on_c, 4, 61, 0
8, 177024, Note_on_c, 4, 61, 31
8, 177150, Note_on_c, 4, 61, 0
8, 177152, Note_on_c, 4, 61, 33
8, 177194, Note_on_c, 4, 61, 0
8, 177216, Note_on_c, 4, 61, 26
8, 177258, Note_on_c, 4, 61, 0
8, 177280, Note_on_c, 4, 61, 29
8, 177322, Note_on_c, 4, 61, 0
8, 177344, Note_on_c, 4, 61, 27
8, 177386, Note_on_c, 4, 61, 0
8, 188928, Note_on_c, 4, 61, 78
8, 190416, Note_on_c, 4, 61, 0
8, 192000, Note_on_c, 4, 62, 75
8, 192384, Note_on_c, 4, 62, 0
8, 192384, Note_on_c, 4, 60, 83
8, 192720, Note_on_c, 4, 60, 0
8, 192768, Note_on_c, 4, 56, 79
8, 193152, Note_on_c, 4, 56, 0
8, 193152, Note_on_c, 4, 55, 79
8, 193488, Note_on_c, 4, 55, 0
8, 195840, Control_c, 4, 11, 92
8, 195840, Note_on_c, 4, 57, 111
8, 195931, Note_on_c, 4, 57, 0
8, 195968, Note_on_c, 4, 57, 113
8, 196059, Note_on_c, 4, 57, 0
8, 196096, Note_on_c, 4, 56, 112
8, 196224, Note_on_c, 4, 56, 0
8, 196224, Note_on_c, 4, 56, 104
8, 196992, Note_on_c, 4, 56, 0
8, 196992, Control_c, 4, 11, 92
8, 196992, Note_on_c, 4, 57, 106
8, 197002, Control_c, 4, 11, 93
8, 197013, Control_c, 4, 11, 94
8, 197024, Control_c, 4, 11, 95
8, 197035, Control_c, 4, 11, 96
8, 197046, Control_c, 4, 11, 97
8, 197057, Control_c, 4, 11, 98
8, 197068, Control_c, 4, 11, 99
8, 197079, Control_c, 4, 11, 100
8, 197083, Note_on_c, 4, 57, 0
8, 197090, Control_c, 4, 11, 101
8, 197101, Control_c, 4, 11, 102
8, 197112, Control_c, 4, 11, 103
8, 197120, Note_on_c, 4, 57, 111
8, 197123, Control_c, 4, 11, 104
8, 197134, Control_c, 4, 11, 105
8, 197145, Control_c, 4, 11, 106
8, 197156, Control_c, 4, 11, 107
8, 197167, Control_c, 4, 11, 108
8, 197178, Control_c, 4, 11, 109
8, 197189, Control_c, 4, 11, 110
8, 197200, Control_c, 4, 11, 111
8, 197211, Note_on_c, 4, 57, 0
8, 197211, Control_c, 4, 11, 112
8, 197222, Control_c, 4, 11, 113
8, 197233, Control_c, 4, 11, 114
8, 197244, Control_c, 4, 11, 115
8, 197248, Note_on_c, 4, 56, 103
8, 197255, Control_c, 4, 11, 116
8, 197266, Control_c, 4, 11, 117
8, 197277, Control_c, 4, 11, 118
8, 197288, Control_c, 4, 11, 119
8, 197299, Control_c, 4, 11, 120
8, 197310, Control_c, 4, 11, 121
8, 197321, Control_c, 4, 11, 122
8, 197332, Control_c, 4, 11, 123
8, 197343, Control_c, 4, 11, 124
8, 197354, Control_c, 4, 11, 125
8, 197365, Control_c, 4, 11, 126
8, 197374, Note_on_c, 4, 56, 0
8, 197376, Control_c, 4, 11, 127
8, 197376, Control_c, 4, 11, 92
8, 197376, Note_on_c, 4, 58, 109
8, 197467, Note_on_c, 4, 58, 0
8, 197504, Note_on_c, 4, 58, 104
8, 197595, Note_on_c, 4, 58, 0
8, 197632, Note_on_c, 4, 56, 108
8, 197760, Note_on_c, 4, 56, 0
8, 197760, Note_on_c, 4, 56, 111
8, 198528, Note_on_c, 4, 56, 0
8, 198528, Control_c, 4, 11, 92
8, 198528, Note_on_c, 4, 58, 109
8, 198538, Control_c, 4, 11, 93
8, 198549, Control_c, 4, 11, 94
8, 198560, Control_c, 4, 11, 95
8, 198571, Control_c, 4, 11, 96
8, 198582, Control_c, 4, 11, 97
8, 198593, Control_c, 4, 11, 98
8, 198604, Control_c, 4, 11, 99
8, 198615, Control_c, 4, 11, 100
8, 198619, Note_on_c, 4, 58, 0
8, 198626, Control_c, 4, 11, 101
8, 198637, Control_c, 4, 11, 102
8, 198648, Control_c, 4, 11, 103
8, 198656, Note_on_c, 4, 58, 112
8, 198659, Control_c, 4, 11, 104
8, 198670, Control_c, 4, 11, 105
8, 198681, Control_c, 4, 11, 106
8, 198692, Control_c, 4, 11, 107
8, 198703, Control_c, 4, 11, 108
8, 198714, Control_c, 4, 11, 109
8, 198725, Control_c, 4, 11, 110
8, 198736, Control_c, 4, 11, 111
8, 198747, Note_on_c, 4, 58, 0
8, 198747, Control_c, 4, 11, 112
8, 198758, Control_c, 4, 11, 113
8, 198769, Control_c, 4, 11, 114
8, 198780, Control_c, 4, 11, 115
8, 198784, Note_on_c, 4, 56, 103
8, 198791, Control_c, 4, 11, 116
8, 198802, Control_c, 4, 11, 117
8, 198813, Control_c, 4, 11, 118
8, 198824, Control_c, 4, 11, 119
8, 198835, Control_c, 4, 11, 120
8, 198846, Control_c, 4, 11, 121
8, 198857, Control_c, 4, 11, 122
8, 198868, Control_c, 4, 11, 123
8, 198879, Control_c, 4, 11, 124
8, 198890, Control_c, 4, 11, 125
8, 198901, Control_c, 4, 11, 126
8, 198910, Note_on_c, 4, 56, 0
8, 198912, Control_c, 4, 11, 127
8, 216576, Note_on_c, 4, 46, 113
8, 216667, Note_on_c, 4, 46, 0
8, 216704, Note_on_c, 4, 46, 111
8, 216795, Note_on_c, 4, 46, 0
8, 216832, Note_on_c, 4, 48, 106
8, 216923, Note_on_c, 4, 48, 0
8, 216960, Note_on_c, 4, 51, 108
8, 217051, Note_on_c, 4, 51, 0
8, 217088, Note_on_c, 4, 49, 109
8, 217179, Note_on_c, 4, 49, 0
8, 217216, Note_on_c, 4, 48, 104
8, 217307, Note_on_c, 4, 48, 0
8, 217344, Note_on_c, 4, 46, 88
8, 217435, Note_on_c, 4, 46, 0
8, 217472, Note_on_c, 4, 46, 94
8, 217563, Note_on_c, 4, 46, 0
8, 217600, Note_on_c, 4, 48, 92
8, 217691, Note_on_c, 4, 48, 0
8, 217728, Note_on_c, 4, 51, 93
8, 217819, Note_on_c, 4, 51, 0
8, 217856, Note_on_c, 4, 49, 90
8, 217947, Note_on_c, 4, 49, 0
8, 217984, Note_on_c, 4, 48, 87
8, 218075, Note_on_c, 4, 48, 0
8, 218112, Note_on_c, 4, 46, 91
8, 218203, Note_on_c, 4, 46, 0
8, 218240, Note_on_c, 4, 46, 95
8, 218331, Note_on_c, 4, 46, 0
8, 218368, Note_on_c, 4, 48, 95
8, 218459, Note_on_c, 4, 48, 0
8, 218496, Note_on_c, 4, 51, 87
8, 218587, Note_on_c, 4, 51, 0
8, 218624, Note_on_c, 4, 49, 90
8, 218715, Note_on_c, 4, 49, 0
8, 218752, Note_on_c, 4, 48, 95
8, 218843, Note_on_c, 4, 48, 0
8, 221568, Note_on_c, 4, 44, 127
8, 221904, Note_on_c, 4, 44, 0
8, 223104, Note_on_c, 4, 44, 127
8, 223440, Note_on_c, 4, 44, 0
8, 223440, End_track
9, 0, Start_track
9, 0, Title_t, "Fagotti - Controfagotto"
9, 0, MIDI_port, 0
9, 128, Control_c, 4, 0, 0
9, 129, Control_c, 4, 32, 0
9, 130, Program_c, 4, 70
9, 131, Control_c, 4, 7, 127
9, 132, Control_c, 4, 10, 84
9, 133, Control_c, 4, 91, 64
9, 7680, Control_c, 4, 11, 127
9, 7680, Note_on_c, 4, 30, 41
9, 7692, Control_c, 4, 11, 126
9, 7704, Control_c, 4, 11, 125
9, 7716, Control_c, 4, 11, 124
9, 7728, Control_c, 4, 11, 123
9, 7740, Control_c, 4, 11, 122
9, 7753, Control_c, 4, 11, 121
9, 7765, Control_c, 4, 11, 120
9, 7777, Control_c, 4, 11, 119
9, 7789, Control_c, 4, 11, 118
9, 7801, Control_c, 4, 11, 117
9, 7814, Control_c, 4, 11, 116
9, 7826, Control_c, 4, 11, 115
9, 7838, Control_c, 4, 11, 114
9, 7850, Control_c, 4, 11, 113
9, 7862, Control_c, 4, 11, 112
9, 7875, Control_c, 4, 11, 111
9, 7887, Control_c, 4, 11, 110
9, 7899, Control_c, 4, 11, 109
9, 7911, Control_c, 4, 11, 108
9, 7923, Control_c, 4, 11, 107
9, 7936, Control_c, 4, 11, 106
9, 7948, Control_c, 4, 11, 105
9, 7960, Control_c, 4, 11, 104
9, 7972, Control_c, 4, 11, 103
9, 7984, Control_c, 4, 11, 102
9, 7996, Control_c, 4, 11, 101
9, 8009, Control_c, 4, 11, 100
9, 8021, Control_c, 4, 11, 99
9, 8033, Control_c, 4, 11, 98
9, 8045, Control_c, 4, 11, 97
9, 8057, Control_c, 4, 11, 96
9, 8070, Control_c, 4, 11, 95
9, 8082, Control_c, 4, 11, 94
9, 8094, Control_c, 4, 11, 93
9, 8106, Control_c, 4, 11, 92
9, 8118, Control_c, 4, 11, 91
9, 8131, Control_c, 4, 11, 90
9, 8143, Control_c, 4, 11, 89
9, 8155, Control_c, 4, 11, 88
9, 8167, Control_c, 4, 11, 87
9, 8179, Control_c, 4, 11, 86
9, 8192, Control_c, 4, 11, 85
9, 8204, Control_c, 4, 11, 84
9, 8216, Control_c, 4, 11, 83
9, 8228, Control_c, 4, 11, 82
9, 8240, Control_c, 4, 11, 81
9, 8252, Control_c, 4, 11, 80
9, 8265, Control_c, 4, 11, 79
9, 8277, Control_c, 4, 11, 78
9, 8289, Control_c, 4, 11, 77
9, 8301, Control_c, 4, 11, 76
9, 8313, Control_c, 4, 11, 75
9, 8326, Control_c, 4, 11, 74
9, 8338, Control_c, 4, 11, 73
9, 8350, Control_c, 4, 11, 72
9, 8362, Control_c, 4, 11, 71
9, 8374, Control_c, 4, 11, 70
9, 8387, Control_c, 4, 11, 69
9, 8399, Control_c, 4, 11, 68
9, 8411, Control_c, 4, 11, 67
9, 8423, Control_c, 4, 11, 66
9, 8435, Control_c, 4, 11, 65
9, 8448, Control_c, 4, 11, 64
9, 8784, Note_on_c, 4, 30, 0
9, 9600, Control_c, 4, 11, 127
9, 9600, Note_on_c, 4, 30, 46
9, 9609, Control_c, 4, 11, 126
9, 9618, Control_c, 4, 11, 125
9, 9627, Control_c, 4, 11, 124
9, 9636, Control_c, 4, 11, 123
9, 9645, Control_c, 4, 11, 122
9, 9654, Control_c, 4, 11, 121
9, 9664, Control_c, 4, 11, 120
9, 9673, Control_c, 4, 11, 119
9, 9682, Control_c, 4, 11, 118
9, 9691, Control_c, 4, 11, 117
9, 9700, Control_c, 4, 11, 116
9, 9709, Control_c, 4, 11, 115
9, 9718, Control_c, 4, 11, 114
9, 9728, Control_c, 4, 11, 113
9, 9737, Control_c, 4, 11, 112
9, 9746, Control_c, 4, 11, 111
9, 9755, Control_c, 4, 11, 110
9, 9764, Control_c, 4, 11, 109
9, 9773, Control_c, 4, 11, 108
9, 9782, Control_c, 4, 11, 107
9, 9792, Control_c, 4, 11, 106
9, 9801, Control_c, 4, 11, 105
9, 9810, Control_c, 4, 11, 104
9, 9819, Control_c, 4, 11, 103
9, 9828, Control_c, 4, 11, 102
9, 9837, Control_c, 4, 11, 101
9, 9846, Control_c, 4, 11, 100
9, 9856, Control_c, 4, 11, 99
9, 9865, Control_c, 4, 11, 98
9, 9874, Control_c, 4, 11, 97
9, 9883, Control_c, 4, 11, 96
9, 9892, Control_c, 4, 11, 95
9, 9901, Control_c, 4, 11, 94
9, 9910, Control_c, 4, 11, 93
9, 9920, Control_c, 4, 11, 92
9, 9929, Control_c, 4, 11, 91
9, 9938, Control_c, 4, 11, 90
9, 9947, Control_c, 4, 11, 89
9, 9956, Control_c, 4, 11, 88
9, 9965, Control_c, 4, 11, 87
9, 9974, Control_c, 4, 11, 86
9, 9984, Control_c, 4, 11, 85
9, 9993, Control_c, 4, 11, 84
9, 10002, Control_c, 4, 11, 83
9, 10011, Control_c, 4, 11, 82
9, 10020, Control_c, 4, 11, 81
9, 10029, Control_c, 4, 11, 80
9, 10038, Control_c, 4, 11, 79
9, 10048, Control_c, 4, 11, 78
9, 10057, Control_c, 4, 11, 77
9, 10066, Control_c, 4, 11, 76
9, 10075, Control_c, 4, 11, 75
9, 10084, Control_c, 4, 11, 74
9, 10093, Control_c, 4, 11, 73
9, 10102, Control_c, 4, 11, 72
9, 10112, Control_c, 4, 11, 71
9, 10121, Control_c, 4, 11, 70
9, 10130, Control_c, 4, 11, 69
9, 10139, Control_c, 4, 11, 68
9, 10144, Note_on_c, 4, 30, 0
9, 10148, Control_c, 4, 11, 67
9, 10157, Control_c, 4, 11, 66
9, 10166, Control_c, 4, 11, 65
9, 10176, Control_c, 4, 11, 64
9, 12480, Note_on_c, 4, 36, 73
9, 13216, Note_on_c, 4, 36, 0
9, 14016, Note_on_c, 4, 36, 72
9, 14752, Note_on_c, 4, 36, 0
9, 17664, Note_on_c, 4, 30, 40
9, 18240, Note_on_c, 4, 30, 0
9, 18240, Note_on_c, 4, 29, 45
9, 18400, Note_on_c, 4, 29, 0
9, 18432, Note_on_c, 4, 36, 41
9, 19008, Note_on_c, 4, 36, 0
9, 19008, Note_on_c, 4, 35, 47
9, 19168, Note_on_c, 4, 35, 0
9, 19200, Note_on_c, 4, 30, 47
9, 19392, Note_on_c, 4, 30, 0
9, 19392, Note_on_c, 4, 29, 49
9, 19584, Note_on_c, 4, 29, 0
9, 19584, Note_on_c, 4, 36, 50
9, 19872, Note_on_c, 4, 36, 0
9, 19872, Note_on_c, 4, 35, 40
9, 19968, Note_on_c, 4, 35, 0
9, 19968, Note_on_c, 4, 29, 45
9, 20254, Note_on_c, 4, 29, 0
9, 21504, Note_on_c, 4, 30, 41
9, 22080, Note_on_c, 4, 30, 0
9, 22080, Note_on_c, 4, 29, 49
9, 22240, Note_on_c, 4, 29, 0
9, 22272, Note_on_c, 4, 36, 50
9, 22848, Note_on_c, 4, 36, 0
9, 22848, Note_on_c, 4, 35, 46
9, 23008, Note_on_c, 4, 35, 0
9, 23040, Note_on_c, 4, 30, 48
9, 23232, Note_on_c, 4, 30, 0
9, 23232, Note_on_c, 4, 29, 46
9, 23424, Note_on_c, 4, 29, 0
9, 23424, Note_on_c, 4, 36, 40
9, 23712, Note_on_c, 4, 36, 0
9, 23712, Note_on_c, 4, 35, 49
9, 23806, Note_on_c, 4, 35, 0
9, 28032, Note_on_c, 4, 36, 45
9, 28752, Note_on_c, 4, 36, 0
9, 28800, Note_on_c, 4, 36, 50
9, 29904, Note_on_c, 4, 36, 0
9, 44928, Note_on_c, 4, 37, 42
9, 45264, Note_on_c, 4, 37, 0
9, 46464, Note_on_c, 4, 37, 44
9, 46800, Note_on_c, 4, 37, 0
9, 49152, Control_c, 4, 11, 92
9, 49152, Note_on_c, 4, 36, 97
9, 49162, Control_c, 4, 11, 93
9, 49173, Control_c, 4, 11, 94
9, 49184, Control_c, 4, 11, 95
9, 49195, Control_c, 4, 11, 96
9, 49206, Control_c, 4, 11, 97
9, 49217, Control_c, 4, 11, 98
9, 49228, Control_c, 4, 11, 99
9, 49239, Control_c, 4, 11, 100
9, 49250, Control_c, 4, 11, 101
9, 49261, Control_c, 4, 11, 102
9, 49272, Control_c, 4, 11, 103
9, 49283, Control_c, 4, 11, 104
9, 49294, Control_c, 4, 11, 105
9, 49305, Control_c, 4, 11, 106
9, 49312, Note_on_c, 4, 36, 0
9, 49316, Control_c, 4, 11, 107
9, 49327, Control_c, 4, 11, 108
9, 49338, Control_c, 4, 11, 109
9, 49344, Note_on_c, 4, 34, 92
9, 49349, Control_c, 4, 11, 110
9, 49360, Control_c, 4, 11, 111
9, 49371, Control_c, 4, 11, 112
9, 49382, Control_c, 4, 11, 113
9, 49393, Control_c, 4, 11, 114
9, 49404, Control_c, 4, 11, 115
9, 49406, Note_on_c, 4, 34, 0
9, 49408, Note_on_c, 4, 33, 93
9, 49415, Control_c, 4, 11, 116
9, 49426, Control_c, 4, 11, 117
9, 49437, Control_c, 4, 11, 118
9, 49448, Control_c, 4, 11, 119
9, 49459, Control_c, 4, 11, 120
9, 49470, Note_on_c, 4, 33, 0
9, 49470, Control_c, 4, 11, 121
9, 49472, Note_on_c, 4, 32, 89
9, 49481, Control_c, 4, 11, 122
9, 49492, Control_c, 4, 11, 123
9, 49503, Control_c, 4, 11, 124
9, 49514, Control_c, 4, 11, 125
9, 49525, Control_c, 4, 11, 126
9, 49534, Note_on_c, 4, 32, 0
9, 49536, Control_c, 4, 11, 127
9, 49536, Note_on_c, 4, 31, 93
9, 50448, Note_on_c, 4, 31, 0
9, 52224, Note_on_c, 4, 37, 50
9, 52752, Note_on_c, 4, 37, 0
9, 52992, Note_on_c, 4, 37, 48
9, 53520, Note_on_c, 4, 37, 0
9, 68736, Note_on_c, 4, 36, 111
9, 69504, Note_on_c, 4, 36, 0
9, 69504, Note_on_c, 4, 34, 112
9, 69840, Note_on_c, 4, 34, 0
9, 69888, Note_on_c, 4, 33, 49
9, 71376, Note_on_c, 4, 33, 0
9, 85248, Note_on_c, 4, 35, 75
9, 85368, Note_on_c, 4, 35, 0
9, 85440, Note_on_c, 4, 37, 70
9, 85560, Note_on_c, 4, 37, 0
9, 85632, Note_on_c, 4, 41, 74
9, 86142, Note_on_c, 4, 41, 0
9, 86144, Note_on_c, 4, 39, 79
9, 86235, Note_on_c, 4, 39, 0
9, 86272, Note_on_c, 4, 37, 72
9, 86363, Note_on_c, 4, 37, 0
9, 86400, Note_on_c, 4, 35, 80
9, 86520, Note_on_c, 4, 35, 0
9, 86592, Note_on_c, 4, 33, 76
9, 86712, Note_on_c, 4, 33, 0
9, 86784, Note_on_c, 4, 31, 75
9, 86904, Note_on_c, 4, 31, 0
9, 86976, Note_on_c, 4, 35, 74
9, 87312, Note_on_c, 4, 35, 0
9, 87360, Note_on_c, 4, 37, 71
9, 87480, Note_on_c, 4, 37, 0
9, 87552, Note_on_c, 4, 41, 79
9, 87680, Note_on_c, 4, 41, 0
9, 87680, Note_on_c, 4, 39, 78
9, 87808, Note_on_c, 4, 39, 0
9, 87808, Note_on_c, 4, 37, 75
9, 87936, Note_on_c, 4, 37, 0
9, 87936, Note_on_c, 4, 36, 105
9, 89040, Note_on_c, 4, 36, 0
9, 89088, Note_on_c, 4, 35, 42
9, 89208, Note_on_c, 4, 35, 0
9, 89280, Note_on_c, 4, 37, 48
9, 89400, Note_on_c, 4, 37, 0
9, 89472, Note_on_c, 4, 41, 52
9, 89982, Note_on_c, 4, 41, 0
9, 89984, Note_on_c, 4, 39, 61
9, 90075, Note_on_c, 4, 39, 0
9, 90112, Note_on_c, 4, 37, 63
9, 90203, Note_on_c, 4, 37, 0
9, 90240, Note_on_c, 4, 35, 61
9, 90360, Note_on_c, 4, 35, 0
9, 90432, Note_on_c, 4, 33, 70
9, 90552, Note_on_c, 4, 33, 0
9, 90624, Note_on_c, 4, 31, 69
9, 90744, Note_on_c, 4, 31, 0
9, 90816, Note_on_c, 4, 35, 82
9, 91200, Note_on_c, 4, 35, 0
9, 91200, Note_on_c, 4, 37, 88
9, 91360, Note_on_c, 4, 37, 0
9, 91392, Note_on_c, 4, 41, 87
9, 91520, Note_on_c, 4, 41, 0
9, 91520, Note_on_c, 4, 39, 97
9, 91648, Note_on_c, 4, 39, 0
9, 91648, Note_on_c, 4, 37, 104
9, 91776, Note_on_c, 4, 37, 0
9, 91776, Note_on_c, 4, 36, 103
9, 92320, Note_on_c, 4, 36, 0
9, 93696, Note_on_c, 4, 36, 104
9, 95184, Note_on_c, 4, 36, 0
9, 95232, Note_on_c, 4, 30, 94
9, 97056, Note_on_c, 4, 30, 0
9, 97056, Note_on_c, 4, 31, 76
9, 97152, Note_on_c, 4, 31, 0
9, 97152, Note_on_c, 4, 32, 73
9, 97824, Note_on_c, 4, 32, 0
9, 97824, Note_on_c, 4, 32, 53
9, 97920, Note_on_c, 4, 32, 0
9, 97920, Note_on_c, 4, 34, 54
9, 98208, Note_on_c, 4, 34, 0
9, 98208, Note_on_c, 4, 35, 51
9, 98304, Note_on_c, 4, 35, 0
9, 98304, Note_on_c, 4, 36, 41
9, 100000, Note_on_c, 4, 36, 0
9, 105984, Note_on_c, 4, 32, 29
9, 107472, Note_on_c, 4, 32, 0
9, 189696, Note_on_c, 4, 32, 71
9, 190224, Note_on_c, 4, 32, 0
9, 192000, Note_on_c, 4, 32, 76
9, 192528, Note_on_c, 4, 32, 0
9, 192768, Note_on_c, 4, 32, 73
9, 193296, Note_on_c, 4, 32, 0
9, 195072, Note_on_c, 4, 32, 80
9, 195792, Note_on_c, 4, 32, 0
9, 195840, Note_on_c, 4, 32, 106
9, 197328, Note_on_c, 4, 32, 0
9, 197376, Note_on_c, 4, 32, 104
9, 198864, Note_on_c, 4, 32, 0
9, 208128, Note_on_c, 4, 37, 103
9, 209056, Note_on_c, 4, 37, 0
9, 209280, Control_c, 4, 11, 127
9, 209664, Control_c, 4, 11, 64
9, 209664, Note_on_c, 4, 39, 93
9, 209670, Control_c, 4, 11, 65
9, 209676, Control_c, 4, 11, 66
9, 209682, Control_c, 4, 11, 67
9, 209688, Control_c, 4, 11, 68
9, 209694, Control_c, 4, 11, 69
9, 209700, Control_c, 4, 11, 70
9, 209706, Control_c, 4, 11, 71
9, 209712, Control_c, 4, 11, 72
9, 209718, Control_c, 4, 11, 73
9, 209724, Control_c, 4, 11, 74
9, 209731, Control_c, 4, 11, 75
9, 209737, Control_c, 4, 11, 76
9, 209743, Control_c, 4, 11, 77
9, 209749, Control_c, 4, 11, 78
9, 209755, Control_c, 4, 11, 79
9, 209761, Control_c, 4, 11, 80
9, 209767, Control_c, 4, 11, 81
9, 209773, Control_c, 4, 11, 82
9, 209779, Control_c, 4, 11, 83
9, 209785, Control_c, 4, 11, 84
9, 209792, Note_on_c, 4, 39, 0
9, 209792, Control_c, 4, 11, 85
9, 209792, Note_on_c, 4, 37, 89
9, 209798, Control_c, 4, 11, 86
9, 209804, Control_c, 4, 11, 87
9, 209810, Control_c, 4, 11, 88
9, 209816, Control_c, 4, 11, 89
9, 209822, Control_c, 4, 11, 90
9, 209828, Control_c, 4, 11, 91
9, 209834, Control_c, 4, 11, 92
9, 209840, Control_c, 4, 11, 93
9, 209846, Control_c, 4, 11, 94
9, 209852, Control_c, 4, 11, 95
9, 209854, Note_on_c, 4, 37, 0
9, 209856, Note_on_c, 4, 33, 93
9, 209859, Control_c, 4, 11, 96
9, 209865, Control_c, 4, 11, 97
9, 209871, Control_c, 4, 11, 98
9, 209877, Control_c, 4, 11, 99
9, 209883, Control_c, 4, 11, 100
9, 209889, Control_c, 4, 11, 101
9, 209895, Control_c, 4, 11, 102
9, 209901, Control_c, 4, 11, 103
9, 209907, Control_c, 4, 11, 104
9, 209913, Control_c, 4, 11, 105
9, 209920, Control_c, 4, 11, 106
9, 209926, Control_c, 4, 11, 107
9, 209932, Control_c, 4, 11, 108
9, 209938, Control_c, 4, 11, 109
9, 209944, Control_c, 4, 11, 110
9, 209950, Control_c, 4, 11, 111
9, 209956, Control_c, 4, 11, 112
9, 209962, Control_c, 4, 11, 113
9, 209968, Control_c, 4, 11, 114
9, 209974, Control_c, 4, 11, 115
9, 209980, Control_c, 4, 11, 116
9, 209984, Note_on_c, 4, 33, 0
9, 209984, Note_on_c, 4, 37, 95
9, 209987, Control_c, 4, 11, 117
9, 209993, Control_c, 4, 11, 118
9, 209999, Control_c, 4, 11, 119
9, 210005, Control_c, 4, 11, 120
9, 210011, Control_c, 4, 11, 121
9, 210017, Control_c, 4, 11, 122
9, 210023, Control_c, 4, 11, 123
9, 210029, Control_c, 4, 11, 124
9, 210035, Control_c, 4, 11, 125
9, 210041, Control_c, 4, 11, 126
9, 210046, Note_on_c, 4, 37, 0
9, 210048, Control_c, 4, 11, 127
9, 210048, Note_on_c, 4, 39, 94
9, 210208, Note_on_c, 4, 39, 0
9, 210432, Control_c, 4, 11, 64
9, 210432, Note_on_c, 4, 39, 97
9, 210438, Control_c, 4, 11, 65
9, 210444, Control_c, 4, 11, 66
9, 210450, Control_c, 4, 11, 67
9, 210456, Control_c, 4, 11, 68
9, 210462, Control_c, 4, 11, 69
9, 210468, Control_c, 4, 11, 70
9, 210474, Control_c, 4, 11, 71
9, 210480, Control_c, 4, 11, 72
9, 210486, Control_c, 4, 11, 73
9, 210492, Control_c, 4, 11, 74
9, 210499, Control_c, 4, 11, 75
9, 210505, Control_c, 4, 11, 76
9, 210511, Control_c, 4, 11, 77
9, 210517, Control_c, 4, 11, 78
9, 210523, Control_c, 4, 11, 79
9, 210529, Control_c, 4, 11, 80
9, 210535, Control_c, 4, 11, 81
9, 210541, Control_c, 4, 11, 82
9, 210547, Control_c, 4, 11, 83
9, 210553, Control_c, 4, 11, 84
9, 210560, Note_on_c, 4, 39, 0
9, 210560, Control_c, 4, 11, 85
9, 210560, Note_on_c, 4, 37, 88
9, 210566, Control_c, 4, 11, 86
9, 210572, Control_c, 4, 11, 87
9, 210578, Control_c, 4, 11, 88
9, 210584, Control_c, 4, 11, 89
9, 210590, Control_c, 4, 11, 90
9, 210596, Control_c, 4, 11, 91
9, 210602, Control_c, 4, 11, 92
9, 210608, Control_c, 4, 11, 93
9, 210614, Control_c, 4, 11, 94
9, 210620, Control_c, 4, 11, 95
9, 210622, Note_on_c, 4, 37, 0
9, 210624, Note_on_c, 4, 33, 91
9, 210627, Control_c, 4, 11, 96
9, 210633, Control_c, 4, 11, 97
9, 210639, Control_c, 4, 11, 98
9, 210645, Control_c, 4, 11, 99
9, 210651, Control_c, 4, 11, 100
9, 210657, Control_c, 4, 11, 101
9, 210663, Control_c, 4, 11, 102
9, 210669, Control_c, 4, 11, 103
9, 210675, Control_c, 4, 11, 104
9, 210681, Control_c, 4, 11, 105
9, 210688, Control_c, 4, 11, 106
9, 210694, Control_c, 4, 11, 107
9, 210700, Control_c, 4, 11, 108
9, 210706, Control_c, 4, 11, 109
9, 210712, Control_c, 4, 11, 110
9, 210718, Control_c, 4, 11, 111
9, 210724, Control_c, 4, 11, 112
9, 210730, Control_c, 4, 11, 113
9, 210736, Control_c, 4, 11, 114
9, 210742, Control_c, 4, 11, 115
9, 210748, Control_c, 4, 11, 116
9, 210752, Note_on_c, 4, 33, 0
9, 210752, Note_on_c, 4, 37, 95
9, 210755, Control_c, 4, 11, 117
9, 210761, Control_c, 4, 11, 118
9, 210767, Control_c, 4, 11, 119
9, 210773, Control_c, 4, 11, 120
9, 210779, Control_c, 4, 11, 121
9, 210785, Control_c, 4, 11, 122
9, 210791, Control_c, 4, 11, 123
9, 210797, Control_c, 4, 11, 124
9, 210803, Control_c, 4, 11, 125
9, 210809, Control_c, 4, 11, 126
9, 210814, Note_on_c, 4, 37, 0
9, 210816, Control_c, 4, 11, 127
9, 210816, Note_on_c, 4, 39, 91
9, 210976, Note_on_c, 4, 39, 0
9, 212736, Note_on_c, 4, 37, 87
9, 213664, Note_on_c, 4, 37, 0
9, 215808, Note_on_c, 4, 34, 77
9, 215899, Note_on_c, 4, 34, 0
9, 215936, Note_on_c, 4, 34, 74
9, 216027, Note_on_c, 4, 34, 0
9, 216064, Note_on_c, 4, 36, 70
9, 216155, Note_on_c, 4, 36, 0
9, 216192, Note_on_c, 4, 39, 74
9, 216283, Note_on_c, 4, 39, 0
9, 216320, Note_on_c, 4, 37, 72
9, 216411, Note_on_c, 4, 37, 0
9, 216448, Note_on_c, 4, 36, 74
9, 216539, Note_on_c, 4, 36, 0
9, 216576, Note_on_c, 4, 34, 70
9, 216667, Note_on_c, 4, 34, 0
9, 216704, Note_on_c, 4, 34, 74
9, 216795, Note_on_c, 4, 34, 0
9, 216832, Note_on_c, 4, 36, 76
9, 216923, Note_on_c, 4, 36, 0
9, 216960, Note_on_c, 4, 39, 79
9, 217051, Note_on_c, 4, 39, 0
9, 217088, Note_on_c, 4, 37, 74
9, 217179, Note_on_c, 4, 37, 0
9, 217216, Note_on_c, 4, 36, 71
9, 217307, Note_on_c, 4, 36, 0
9, 217344, Note_on_c, 4, 34, 97
9, 217435, Note_on_c, 4, 34, 0
9, 217472, Note_on_c, 4, 34, 90
9, 217563, Note_on_c, 4, 34, 0
9, 217600, Note_on_c, 4, 36, 93
9, 217691, Note_on_c, 4, 36, 0
9, 217728, Note_on_c, 4, 39, 91
9, 217819, Note_on_c, 4, 39, 0
9, 217856, Note_on_c, 4, 37, 95
9, 217947, Note_on_c, 4, 37, 0
9, 217984, Note_on_c, 4, 36, 96
9, 218075, Note_on_c, 4, 36, 0
9, 218112, Note_on_c, 4, 34, 88
9, 218203, Note_on_c, 4, 34, 0
9, 218240, Note_on_c, 4, 34, 95
9, 218331, Note_on_c, 4, 34, 0
9, 218368, Note_on_c, 4, 36, 93
9, 218459, Note_on_c, 4, 36, 0
9, 218496, Note_on_c, 4, 39, 89
9, 218587, Note_on_c, 4, 39, 0
9, 218624, Note_on_c, 4, 37, 97
9, 218715, Note_on_c, 4, 37, 0
9, 218752, Note_on_c, 4, 34, 88
9, 218843, Note_on_c, 4, 34, 0
9, 218880, Note_on_c, 4, 31, 125
9, 220368, Note_on_c, 4, 31, 0
9, 221568, Note_on_c, 4, 25, 124
9, 221904, Note_on_c, 4, 25, 0
9, 223104, Note_on_c, 4, 25, 127
9, 223440, Note_on_c, 4, 25, 0
9, 223440, End_track
10, 0, Start_track
10, 0, Title_t, "Corni I - II - III - IV in Fa"
10, 0, MIDI_port, 0
10, 135, Control_c, 5, 0, 0
10, 136, Control_c, 5, 32, 0
10, 137, Program_c, 5, 60
10, 138, Control_c, 5, 7, 127
10, 139, Control_c, 5, 10, 44
10, 140, Control_c, 5, 91, 92
10, 14976, Note_on_c, 5, 60, 79
10, 14976, Note_on_c, 5, 67, 74
10, 14976, Control_c, 5, 11, 64
10, 14976, Note_on_c, 5, 64, 79
10, 14976, Note_on_c, 5, 71, 74
10, 14994, Control_c, 5, 11, 65
10, 15012, Control_c, 5, 11, 66
10, 15030, Control_c, 5, 11, 67
10, 15049, Control_c, 5, 11, 68
10, 15067, Control_c, 5, 11, 69
10, 15085, Control_c, 5, 11, 70
10, 15104, Control_c, 5, 11, 71
10, 15122, Control_c, 5, 11, 72
10, 15140, Control_c, 5, 11, 73
10, 15158, Control_c, 5, 11, 74
10, 15177, Control_c, 5, 11, 75
10, 15195, Control_c, 5, 11, 76
10, 15213, Control_c, 5, 11, 77
10, 15232, Control_c, 5, 11, 78
10, 15250, Control_c, 5, 11, 79
10, 15268, Control_c, 5, 11, 80
10, 15286, Control_c, 5, 11, 81
10, 15305, Control_c, 5, 11, 82
10, 15323, Control_c, 5, 11, 83
10, 15341, Control_c, 5, 11, 84
10, 15360, Control_c, 5, 11, 85
10, 15378, Control_c, 5, 11, 86
10, 15396, Control_c, 5, 11, 87
10, 15414, Control_c, 5, 11, 88
10, 15433, Control_c, 5, 11, 89
10, 15451, Control_c, 5, 11, 90
10, 15469, Control_c, 5, 11, 91
10, 15488, Control_c, 5, 11, 92
10, 15506, Control_c, 5, 11, 93
10, 15524, Control_c, 5, 11, 94
10, 15542, Control_c, 5, 11, 95
10, 15561, Control_c, 5, 11, 96
10, 15579, Control_c, 5, 11, 97
10, 15597, Control_c, 5, 11, 98
10, 15616, Control_c, 5, 11, 99
10, 15634, Control_c, 5, 11, 100
10, 15652, Control_c, 5, 11, 101
10, 15670, Control_c, 5, 11, 102
10, 15689, Control_c, 5, 11, 103
10, 15696, Note_on_c, 5, 60, 0
10, 15696, Note_on_c, 5, 67, 0
10, 15696, Note_on_c, 5, 64, 0
10, 15696, Note_on_c, 5, 71, 0
10, 15707, Control_c, 5, 11, 104
10, 15725, Control_c, 5, 11, 105
10, 15744, Note_on_c, 5, 63, 73
10, 15744, Control_c, 5, 11, 106
10, 15744, Note_on_c, 5, 61, 73
10, 15744, Note_on_c, 5, 66, 76
10, 15744, Note_on_c, 5, 70, 76
10, 15762, Control_c, 5, 11, 107
10, 15780, Control_c, 5, 11, 108
10, 15798, Control_c, 5, 11, 109
10, 15817, Control_c, 5, 11, 110
10, 15835, Control_c, 5, 11, 111
10, 15853, Control_c, 5, 11, 112
10, 15872, Control_c, 5, 11, 113
10, 15890, Control_c, 5, 11, 114
10, 15908, Control_c, 5, 11, 115
10, 15926, Control_c, 5, 11, 116
10, 15945, Control_c, 5, 11, 117
10, 15963, Control_c, 5, 11, 118
10, 15981, Control_c, 5, 11, 119
10, 16000, Control_c, 5, 11, 120
10, 16018, Control_c, 5, 11, 121
10, 16036, Control_c, 5, 11, 122
10, 16054, Control_c, 5, 11, 123
10, 16073, Control_c, 5, 11, 124
10, 16091, Control_c, 5, 11, 125
10, 16109, Control_c, 5, 11, 126
10, 16128, Control_c, 5, 11, 127
10, 16254, Note_on_c, 5, 63, 0
10, 16254, Note_on_c, 5, 61, 0
10, 16254, Note_on_c, 5, 66, 0
10, 16254, Note_on_c, 5, 70, 0
10, 16256, Note_on_c, 5, 61, 90
10, 16256, Note_on_c, 5, 65, 93
10, 16256, Note_on_c, 5, 62, 90
10, 16256, Note_on_c, 5, 69, 93
10, 16320, Control_c, 5, 11, 92
10, 16325, Control_c, 5, 11, 93
10, 16330, Control_c, 5, 11, 94
10, 16336, Control_c, 5, 11, 95
10, 16341, Control_c, 5, 11, 96
10, 16347, Control_c, 5, 11, 97
10, 16352, Control_c, 5, 11, 98
10, 16358, Control_c, 5, 11, 99
10, 16363, Control_c, 5, 11, 100
10, 16369, Control_c, 5, 11, 101
10, 16374, Control_c, 5, 11, 102
10, 16380, Control_c, 5, 11, 103
10, 16385, Control_c, 5, 11, 104
10, 16391, Control_c, 5, 11, 105
10, 16396, Control_c, 5, 11, 106
10, 16402, Control_c, 5, 11, 107
10, 16407, Control_c, 5, 11, 108
10, 16413, Control_c, 5, 11, 109
10, 16418, Control_c, 5, 11, 110
10, 16424, Control_c, 5, 11, 111
10, 16429, Control_c, 5, 11, 112
10, 16435, Control_c, 5, 11, 113
10, 16440, Control_c, 5, 11, 114
10, 16446, Note_on_c, 5, 61, 0
10, 16446, Note_on_c, 5, 65, 0
10, 16446, Note_on_c, 5, 62, 0
10, 16446, Note_on_c, 5, 69, 0
10, 16446, Control_c, 5, 11, 115
10, 16448, Note_on_c, 5, 61, 88
10, 16448, Note_on_c, 5, 63, 88
10, 16448, Note_on_c, 5, 70, 96
10, 16448, Note_on_c, 5, 66, 96
10, 16451, Control_c, 5, 11, 116
10, 16457, Control_c, 5, 11, 117
10, 16462, Control_c, 5, 11, 118
10, 16468, Control_c, 5, 11, 119
10, 16473, Control_c, 5, 11, 120
10, 16479, Control_c, 5, 11, 121
10, 16484, Control_c, 5, 11, 122
10, 16490, Note_on_c, 5, 61, 0
10, 16490, Note_on_c, 5, 63, 0
10, 16490, Note_on_c, 5, 70, 0
10, 16490, Note_on_c, 5, 66, 0
10, 16490, Control_c, 5, 11, 123
10, 16495, Control_c, 5, 11, 124
10, 16501, Control_c, 5, 11, 125
10, 16506, Control_c, 5, 11, 126
10, 16512, Note_on_c, 5, 60, 93
10, 16512, Note_on_c, 5, 67, 95
10, 16512, Control_c, 5, 11, 127
10, 16512, Note_on_c, 5, 64, 93
10, 16512, Note_on_c, 5, 71, 95
10, 16527, Control_c, 5, 11, 126
10, 16542, Control_c, 5, 11, 125
10, 16557, Control_c, 5, 11, 124
10, 16572, Control_c, 5, 11, 123
10, 16588, Control_c, 5, 11, 122
10, 16603, Control_c, 5, 11, 121
10, 16618, Control_c, 5, 11, 120
10, 16633, Control_c, 5, 11, 119
10, 16649, Control_c, 5, 11, 118
10, 16664, Control_c, 5, 11, 117
10, 16679, Control_c, 5, 11, 116
10, 16694, Control_c, 5, 11, 115
10, 16710, Control_c, 5, 11, 114
10, 16725, Control_c, 5, 11, 113
10, 16740, Control_c, 5, 11, 112
10, 16755, Control_c, 5, 11, 111
10, 16771, Control_c, 5, 11, 110
10, 16786, Control_c, 5, 11, 109
10, 16801, Control_c, 5, 11, 108
10, 16816, Control_c, 5, 11, 107
10, 16832, Control_c, 5, 11, 106
10, 16847, Control_c, 5, 11, 105
10, 16862, Control_c, 5, 11, 104
10, 16877, Control_c, 5, 11, 103
10, 16892, Control_c, 5, 11, 102
10, 16908, Control_c, 5, 11, 101
10, 16923, Control_c, 5, 11, 100
10, 16938, Control_c, 5, 11, 99
10, 16953, Control_c, 5, 11, 98
10, 16969, Control_c, 5, 11, 97
10, 16984, Control_c, 5, 11, 96
10, 16999, Control_c, 5, 11, 95
10, 17014, Control_c, 5, 11, 94
10, 17030, Control_c, 5, 11, 93
10, 17045, Control_c, 5, 11, 92
10, 17060, Control_c, 5, 11, 91
10, 17075, Control_c, 5, 11, 90
10, 17091, Control_c, 5, 11, 89
10, 17106, Control_c, 5, 11, 88
10, 17121, Control_c, 5, 11, 87
10, 17136, Control_c, 5, 11, 86
10, 17152, Control_c, 5, 11, 85
10, 17167, Control_c, 5, 11, 84
10, 17182, Control_c, 5, 11, 83
10, 17197, Control_c, 5, 11, 82
10, 17212, Control_c, 5, 11, 81
10, 17228, Control_c, 5, 11, 80
10, 17243, Control_c, 5, 11, 79
10, 17258, Control_c, 5, 11, 78
10, 17273, Control_c, 5, 11, 77
10, 17280, Note_on_c, 5, 60, 0
10, 17280, Note_on_c, 5, 67, 0
10, 17280, Note_on_c, 5, 64, 0
10, 17280, Note_on_c, 5, 71, 0
10, 17280, Note_on_c, 5, 61, 91
10, 17280, Note_on_c, 5, 63, 91
10, 17280, Note_on_c, 5, 70, 87
10, 17280, Note_on_c, 5, 66, 87
10, 17289, Control_c, 5, 11, 76
10, 17304, Control_c, 5, 11, 75
10, 17319, Control_c, 5, 11, 74
10, 17334, Control_c, 5, 11, 73
10, 17350, Control_c, 5, 11, 72
10, 17365, Control_c, 5, 11, 71
10, 17380, Control_c, 5, 11, 70
10, 17395, Control_c, 5, 11, 69
10, 17411, Control_c, 5, 11, 68
10, 17426, Control_c, 5, 11, 67
10, 17440, Note_on_c, 5, 61, 0
10, 17440, Note_on_c, 5, 63, 0
10, 17440, Note_on_c, 5, 70, 0
10, 17440, Note_on_c, 5, 66, 0
10, 17441, Control_c, 5, 11, 66
10, 17456, Control_c, 5, 11, 65
10, 17472, Control_c, 5, 11, 64
10, 23040, Control_c, 5, 11, 127
10, 23808, Note_on_c, 5, 53, 96
10, 23904, Note_on_c, 5, 53, 0
10, 23904, Note_on_c, 5, 54, 96
10, 24000, Note_on_c, 5, 66, 89
10, 24528, Note_on_c, 5, 54, 0
10, 24736, Note_on_c, 5, 66, 0
10, 29952, Control_c, 5, 11, 92
10, 29952, Note_on_c, 5, 53, 95
10, 29957, Control_c, 5, 11, 93
10, 29962, Control_c, 5, 11, 94
10, 29968, Control_c, 5, 11, 95
10, 29973, Control_c, 5, 11, 96
10, 29979, Control_c, 5, 11, 97
10, 29984, Control_c, 5, 11, 98
10, 29990, Control_c, 5, 11, 99
10, 29995, Control_c, 5, 11, 100
10, 30001, Control_c, 5, 11, 101
10, 30006, Control_c, 5, 11, 102
10, 30012, Control_c, 5, 11, 103
10, 30017, Control_c, 5, 11, 104
10, 30023, Control_c, 5, 11, 105
10, 30028, Control_c, 5, 11, 106
10, 30034, Control_c, 5, 11, 107
10, 30039, Control_c, 5, 11, 108
10, 30045, Control_c, 5, 11, 109
10, 30048, Note_on_c, 5, 53, 0
10, 30048, Note_on_c, 5, 54, 92
10, 30050, Control_c, 5, 11, 110
10, 30056, Control_c, 5, 11, 111
10, 30061, Control_c, 5, 11, 112
10, 30067, Control_c, 5, 11, 113
10, 30072, Control_c, 5, 11, 114
10, 30078, Control_c, 5, 11, 115
10, 30083, Control_c, 5, 11, 116
10, 30089, Control_c, 5, 11, 117
10, 30094, Control_c, 5, 11, 118
10, 30100, Control_c, 5, 11, 119
10, 30105, Control_c, 5, 11, 120
10, 30111, Control_c, 5, 11, 121
10, 30116, Control_c, 5, 11, 122
10, 30122, Control_c, 5, 11, 123
10, 30127, Control_c, 5, 11, 124
10, 30133, Control_c, 5, 11, 125
10, 30138, Control_c, 5, 11, 126
10, 30144, Control_c, 5, 11, 127
10, 30149, Control_c, 5, 11, 126
10, 30154, Control_c, 5, 11, 125
10, 30160, Control_c, 5, 11, 124
10, 30165, Control_c, 5, 11, 123
10, 30171, Control_c, 5, 11, 122
10, 30176, Control_c, 5, 11, 121
10, 30182, Control_c, 5, 11, 120
10, 30187, Control_c, 5, 11, 119
10, 30193, Control_c, 5, 11, 118
10, 30198, Control_c, 5, 11, 117
10, 30204, Control_c, 5, 11, 116
10, 30209, Control_c, 5, 11, 115
10, 30215, Control_c, 5, 11, 114
10, 30220, Control_c, 5, 11, 113
10, 30226, Control_c, 5, 11, 112
10, 30231, Control_c, 5, 11, 111
10, 30237, Control_c, 5, 11, 110
10, 30242, Control_c, 5, 11, 109
10, 30248, Control_c, 5, 11, 108
10, 30253, Control_c, 5, 11, 107
10, 30259, Control_c, 5, 11, 106
10, 30264, Control_c, 5, 11, 105
10, 30270, Control_c, 5, 11, 104
10, 30275, Control_c, 5, 11, 103
10, 30281, Control_c, 5, 11, 102
10, 30286, Control_c, 5, 11, 101
10, 30292, Control_c, 5, 11, 100
10, 30297, Control_c, 5, 11, 99
10, 30303, Control_c, 5, 11, 98
10, 30308, Control_c, 5, 11, 97
10, 30314, Control_c, 5, 11, 96
10, 30319, Control_c, 5, 11, 95
10, 30325, Control_c, 5, 11, 94
10, 30330, Control_c, 5, 11, 93
10, 30336, Control_c, 5, 11, 92
10, 30672, Note_on_c, 5, 54, 0
10, 30720, Control_c, 5, 11, 92
10, 30720, Note_on_c, 5, 53, 94
10, 30725, Control_c, 5, 11, 93
10, 30730, Control_c, 5, 11, 94
10, 30736, Control_c, 5, 11, 95
10, 30741, Control_c, 5, 11, 96
10, 30747, Control_c, 5, 11, 97
10, 30752, Control_c, 5, 11, 98
10, 30758, Control_c, 5, 11, 99
10, 30763, Control_c, 5, 11, 100
10, 30769, Control_c, 5, 11, 101
10, 30774, Control_c, 5, 11, 102
10, 30780, Control_c, 5, 11, 103
10, 30785, Control_c, 5, 11, 104
10, 30791, Control_c, 5, 11, 105
10, 30796, Control_c, 5, 11, 106
10, 30802, Control_c, 5, 11, 107
10, 30807, Control_c, 5, 11, 108
10, 30813, Control_c, 5, 11, 109
10, 30816, Note_on_c, 5, 53, 0
10, 30816, Note_on_c, 5, 54, 88
10, 30818, Control_c, 5, 11, 110
10, 30824, Control_c, 5, 11, 111
10, 30829, Control_c, 5, 11, 112
10, 30835, Control_c, 5, 11, 113
10, 30840, Control_c, 5, 11, 114
10, 30846, Control_c, 5, 11, 115
10, 30851, Control_c, 5, 11, 116
10, 30857, Control_c, 5, 11, 117
10, 30862, Control_c, 5, 11, 118
10, 30868, Control_c, 5, 11, 119
10, 30873, Control_c, 5, 11, 120
10, 30879, Control_c, 5, 11, 121
10, 30884, Control_c, 5, 11, 122
10, 30890, Control_c, 5, 11, 123
10, 30895, Control_c, 5, 11, 124
10, 30901, Control_c, 5, 11, 125
10, 30906, Control_c, 5, 11, 126
10, 30912, Control_c, 5, 11, 127
10, 30917, Control_c, 5, 11, 126
10, 30922, Control_c, 5, 11, 125
10, 30928, Control_c, 5, 11, 124
10, 30933, Control_c, 5, 11, 123
10, 30939, Control_c, 5, 11, 122
10, 30944, Control_c, 5, 11, 121
10, 30950, Control_c, 5, 11, 120
10, 30955, Control_c, 5, 11, 119
10, 30961, Control_c, 5, 11, 118
10, 30966, Control_c, 5, 11, 117
10, 30972, Control_c, 5, 11, 116
10, 30977, Control_c, 5, 11, 115
10, 30983, Control_c, 5, 11, 114
10, 30988, Control_c, 5, 11, 113
10, 30994, Control_c, 5, 11, 112
10, 30999, Control_c, 5, 11, 111
10, 31005, Control_c, 5, 11, 110
10, 31010, Control_c, 5, 11, 109
10, 31016, Control_c, 5, 11, 108
10, 31021, Control_c, 5, 11, 107
10, 31027, Control_c, 5, 11, 106
10, 31032, Control_c, 5, 11, 105
10, 31038, Control_c, 5, 11, 104
10, 31043, Control_c, 5, 11, 103
10, 31049, Control_c, 5, 11, 102
10, 31054, Control_c, 5, 11, 101
10, 31060, Control_c, 5, 11, 100
10, 31065, Control_c, 5, 11, 99
10, 31071, Control_c, 5, 11, 98
10, 31076, Control_c, 5, 11, 97
10, 31082, Control_c, 5, 11, 96
10, 31087, Control_c, 5, 11, 95
10, 31093, Control_c, 5, 11, 94
10, 31098, Control_c, 5, 11, 93
10, 31104, Control_c, 5, 11, 92
10, 31440, Note_on_c, 5, 54, 0
10, 31488, Control_c, 5, 11, 92
10, 31488, Note_on_c, 5, 53, 91
10, 31493, Control_c, 5, 11, 93
10, 31498, Control_c, 5, 11, 94
10, 31504, Control_c, 5, 11, 95
10, 31509, Control_c, 5, 11, 96
10, 31515, Control_c, 5, 11, 97
10, 31520, Control_c, 5, 11, 98
10, 31526, Control_c, 5, 11, 99
10, 31531, Control_c, 5, 11, 100
10, 31537, Control_c, 5, 11, 101
10, 31542, Control_c, 5, 11, 102
10, 31548, Control_c, 5, 11, 103
10, 31553, Control_c, 5, 11, 104
10, 31559, Control_c, 5, 11, 105
10, 31564, Control_c, 5, 11, 106
10, 31570, Control_c, 5, 11, 107
10, 31575, Control_c, 5, 11, 108
10, 31581, Control_c, 5, 11, 109
10, 31584, Note_on_c, 5, 53, 0
10, 31584, Note_on_c, 5, 54, 88
10, 31586, Control_c, 5, 11, 110
10, 31592, Control_c, 5, 11, 111
10, 31597, Control_c, 5, 11, 112
10, 31603, Control_c, 5, 11, 113
10, 31608, Control_c, 5, 11, 114
10, 31614, Control_c, 5, 11, 115
10, 31619, Control_c, 5, 11, 116
10, 31625, Control_c, 5, 11, 117
10, 31630, Control_c, 5, 11, 118
10, 31636, Control_c, 5, 11, 119
10, 31641, Control_c, 5, 11, 120
10, 31647, Control_c, 5, 11, 121
10, 31652, Control_c, 5, 11, 122
10, 31658, Control_c, 5, 11, 123
10, 31663, Control_c, 5, 11, 124
10, 31669, Control_c, 5, 11, 125
10, 31674, Control_c, 5, 11, 126
10, 31680, Control_c, 5, 11, 127
10, 31685, Control_c, 5, 11, 126
10, 31690, Control_c, 5, 11, 125
10, 31696, Control_c, 5, 11, 124
10, 31701, Control_c, 5, 11, 123
10, 31707, Control_c, 5, 11, 122
10, 31712, Control_c, 5, 11, 121
10, 31718, Control_c, 5, 11, 120
10, 31723, Control_c, 5, 11, 119
10, 31729, Control_c, 5, 11, 118
10, 31734, Control_c, 5, 11, 117
10, 31740, Control_c, 5, 11, 116
10, 31745, Control_c, 5, 11, 115
10, 31751, Control_c, 5, 11, 114
10, 31756, Control_c, 5, 11, 113
10, 31762, Control_c, 5, 11, 112
10, 31767, Control_c, 5, 11, 111
10, 31773, Control_c, 5, 11, 110
10, 31778, Control_c, 5, 11, 109
10, 31784, Control_c, 5, 11, 108
10, 31789, Control_c, 5, 11, 107
10, 31795, Control_c, 5, 11, 106
10, 31800, Control_c, 5, 11, 105
10, 31806, Control_c, 5, 11, 104
10, 31811, Control_c, 5, 11, 103
10, 31817, Control_c, 5, 11, 102
10, 31822, Control_c, 5, 11, 101
10, 31828, Control_c, 5, 11, 100
10, 31833, Control_c, 5, 11, 99
10, 31839, Control_c, 5, 11, 98
10, 31844, Control_c, 5, 11, 97
10, 31850, Control_c, 5, 11, 96
10, 31855, Control_c, 5, 11, 95
10, 31861, Control_c, 5, 11, 94
10, 31866, Control_c, 5, 11, 93
10, 31872, Control_c, 5, 11, 92
10, 32208, Note_on_c, 5, 54, 0
10, 32640, Control_c, 5, 11, 92
10, 32640, Note_on_c, 5, 59, 87
10, 32645, Control_c, 5, 11, 93
10, 32650, Control_c, 5, 11, 94
10, 32656, Control_c, 5, 11, 95
10, 32661, Control_c, 5, 11, 96
10, 32667, Control_c, 5, 11, 97
10, 32672, Control_c, 5, 11, 98
10, 32678, Control_c, 5, 11, 99
10, 32683, Control_c, 5, 11, 100
10, 32689, Control_c, 5, 11, 101
10, 32694, Control_c, 5, 11, 102
10, 32700, Control_c, 5, 11, 103
10, 32705, Control_c, 5, 11, 104
10, 32711, Control_c, 5, 11, 105
10, 32716, Control_c, 5, 11, 106
10, 32722, Control_c, 5, 11, 107
10, 32727, Control_c, 5, 11, 108
10, 32733, Control_c, 5, 11, 109
10, 32736, Note_on_c, 5, 59, 0
10, 32736, Note_on_c, 5, 60, 97
10, 32738, Control_c, 5, 11, 110
10, 32744, Control_c, 5, 11, 111
10, 32749, Control_c, 5, 11, 112
10, 32755, Control_c, 5, 11, 113
10, 32760, Control_c, 5, 11, 114
10, 32766, Control_c, 5, 11, 115
10, 32771, Control_c, 5, 11, 116
10, 32777, Control_c, 5, 11, 117
10, 32782, Control_c, 5, 11, 118
10, 32788, Control_c, 5, 11, 119
10, 32793, Control_c, 5, 11, 120
10, 32799, Control_c, 5, 11, 121
10, 32804, Control_c, 5, 11, 122
10, 32810, Control_c, 5, 11, 123
10, 32815, Control_c, 5, 11, 124
10, 32821, Control_c, 5, 11, 125
10, 32826, Control_c, 5, 11, 126
10, 32832, Control_c, 5, 11, 127
10, 33184, Note_on_c, 5, 60, 0
10, 33408, Note_on_c, 5, 62, 93
10, 33408, Control_c, 5, 11, 92
10, 33413, Control_c, 5, 11, 93
10, 33418, Control_c, 5, 11, 94
10, 33424, Control_c, 5, 11, 95
10, 33429, Control_c, 5, 11, 96
10, 33435, Control_c, 5, 11, 97
10, 33440, Control_c, 5, 11, 98
10, 33446, Control_c, 5, 11, 99
10, 33451, Control_c, 5, 11, 100
10, 33457, Control_c, 5, 11, 101
10, 33462, Control_c, 5, 11, 102
10, 33468, Control_c, 5, 11, 103
10, 33473, Control_c, 5, 11, 104
10, 33479, Control_c, 5, 11, 105
10, 33484, Control_c, 5, 11, 106
10, 33490, Control_c, 5, 11, 107
10, 33495, Control_c, 5, 11, 108
10, 33501, Control_c, 5, 11, 109
10, 33504, Note_on_c, 5, 62, 0
10, 33504, Note_on_c, 5, 63, 95
10, 33506, Control_c, 5, 11, 110
10, 33512, Control_c, 5, 11, 111
10, 33517, Control_c, 5, 11, 112
10, 33523, Control_c, 5, 11, 113
10, 33528, Control_c, 5, 11, 114
10, 33534, Control_c, 5, 11, 115
10, 33539, Control_c, 5, 11, 116
10, 33545, Control_c, 5, 11, 117
10, 33550, Control_c, 5, 11, 118
10, 33556, Control_c, 5, 11, 119
10, 33561, Control_c, 5, 11, 120
10, 33567, Control_c, 5, 11, 121
10, 33572, Control_c, 5, 11, 122
10, 33578, Control_c, 5, 11, 123
10, 33583, Control_c, 5, 11, 124
10, 33589, Control_c, 5, 11, 125
10, 33594, Control_c, 5, 11, 126
10, 33600, Control_c, 5, 11, 127
10, 33760, Note_on_c, 5, 63, 0
10, 35328, Note_on_c, 5, 60, 93
10, 35328, Control_c, 5, 11, 64
10, 35334, Control_c, 5, 11, 65
10, 35340, Control_c, 5, 11, 66
10, 35346, Control_c, 5, 11, 67
10, 35352, Control_c, 5, 11, 68
10, 35358, Control_c, 5, 11, 69
10, 35364, Control_c, 5, 11, 70
10, 35370, Control_c, 5, 11, 71
10, 35374, Note_on_c, 5, 60, 0
10, 35376, Control_c, 5, 11, 72
10, 35376, Note_on_c, 5, 62, 90
10, 35382, Control_c, 5, 11, 73
10, 35388, Control_c, 5, 11, 74
10, 35395, Control_c, 5, 11, 75
10, 35401, Control_c, 5, 11, 76
10, 35407, Control_c, 5, 11, 77
10, 35413, Control_c, 5, 11, 78
10, 35419, Control_c, 5, 11, 79
10, 35425, Control_c, 5, 11, 80
10, 35431, Control_c, 5, 11, 81
10, 35437, Control_c, 5, 11, 82
10, 35443, Control_c, 5, 11, 83
10, 35449, Control_c, 5, 11, 84
10, 35456, Control_c, 5, 11, 85
10, 35462, Control_c, 5, 11, 86
10, 35468, Control_c, 5, 11, 87
10, 35474, Control_c, 5, 11, 88
10, 35480, Control_c, 5, 11, 89
10, 35486, Control_c, 5, 11, 90
10, 35492, Control_c, 5, 11, 91
10, 35498, Control_c, 5, 11, 92
10, 35504, Control_c, 5, 11, 93
10, 35510, Control_c, 5, 11, 94
10, 35516, Control_c, 5, 11, 95
10, 35523, Control_c, 5, 11, 96
10, 35529, Control_c, 5, 11, 97
10, 35535, Control_c, 5, 11, 98
10, 35541, Control_c, 5, 11, 99
10, 35547, Control_c, 5, 11, 100
10, 35553, Control_c, 5, 11, 101
10, 35559, Control_c, 5, 11, 102
10, 35565, Control_c, 5, 11, 103
10, 35571, Control_c, 5, 11, 104
10, 35577, Control_c, 5, 11, 105
10, 35584, Control_c, 5, 11, 106
10, 35590, Control_c, 5, 11, 107
10, 35596, Control_c, 5, 11, 108
10, 35602, Control_c, 5, 11, 109
10, 35608, Control_c, 5, 11, 110
10, 35614, Control_c, 5, 11, 111
10, 35620, Control_c, 5, 11, 112
10, 35626, Control_c, 5, 11, 113
10, 35632, Control_c, 5, 11, 114
10, 35638, Control_c, 5, 11, 115
10, 35644, Control_c, 5, 11, 116
10, 35651, Control_c, 5, 11, 117
10, 35657, Control_c, 5, 11, 118
10, 35663, Control_c, 5, 11, 119
10, 35669, Control_c, 5, 11, 120
10, 35675, Control_c, 5, 11, 121
10, 35680, Note_on_c, 5, 62, 0
10, 35681, Control_c, 5, 11, 122
10, 35687, Control_c, 5, 11, 123
10, 35693, Control_c, 5, 11, 124
10, 35699, Control_c, 5, 11, 125
10, 35705, Control_c, 5, 11, 126
10, 35712, Control_c, 5, 11, 127
10, 35712, Note_on_c, 5, 62, 95
10, 36480, Note_on_c, 5, 62, 0
10, 36480, Note_on_c, 5, 64, 95
10, 36816, Note_on_c, 5, 64, 0
10, 38400, Note_on_c, 5, 60, 90
10, 38400, Control_c, 5, 11, 64
10, 38406, Control_c, 5, 11, 65
10, 38412, Control_c, 5, 11, 66
10, 38418, Control_c, 5, 11, 67
10, 38424, Control_c, 5, 11, 68
10, 38430, Control_c, 5, 11, 69
10, 38436, Control_c, 5, 11, 70
10, 38442, Control_c, 5, 11, 71
10, 38446, Note_on_c, 5, 60, 0
10, 38448, Control_c, 5, 11, 72
10, 38448, Note_on_c, 5, 62, 88
10, 38454, Control_c, 5, 11, 73
10, 38460, Control_c, 5, 11, 74
10, 38467, Control_c, 5, 11, 75
10, 38473, Control_c, 5, 11, 76
10, 38479, Control_c, 5, 11, 77
10, 38485, Control_c, 5, 11, 78
10, 38491, Control_c, 5, 11, 79
10, 38497, Control_c, 5, 11, 80
10, 38503, Control_c, 5, 11, 81
10, 38509, Control_c, 5, 11, 82
10, 38515, Control_c, 5, 11, 83
10, 38521, Control_c, 5, 11, 84
10, 38528, Control_c, 5, 11, 85
10, 38534, Control_c, 5, 11, 86
10, 38540, Control_c, 5, 11, 87
10, 38546, Control_c, 5, 11, 88
10, 38552, Control_c, 5, 11, 89
10, 38558, Control_c, 5, 11, 90
10, 38564, Control_c, 5, 11, 91
10, 38570, Control_c, 5, 11, 92
10, 38576, Control_c, 5, 11, 93
10, 38582, Control_c, 5, 11, 94
10, 38588, Control_c, 5, 11, 95
10, 38595, Control_c, 5, 11, 96
10, 38601, Control_c, 5, 11, 97
10, 38607, Control_c, 5, 11, 98
10, 38613, Control_c, 5, 11, 99
10, 38619, Control_c, 5, 11, 100
10, 38625, Control_c, 5, 11, 101
10, 38631, Control_c, 5, 11, 102
10, 38637, Control_c, 5, 11, 103
10, 38643, Control_c, 5, 11, 104
10, 38649, Control_c, 5, 11, 105
10, 38656, Control_c, 5, 11, 106
10, 38662, Control_c, 5, 11, 107
10, 38668, Control_c, 5, 11, 108
10, 38674, Control_c, 5, 11, 109
10, 38680, Control_c, 5, 11, 110
10, 38686, Control_c, 5, 11, 111
10, 38692, Control_c, 5, 11, 112
10, 38698, Control_c, 5, 11, 113
10, 38704, Control_c, 5, 11, 114
10, 38710, Control_c, 5, 11, 115
10, 38716, Control_c, 5, 11, 116
10, 38723, Control_c, 5, 11, 117
10, 38729, Control_c, 5, 11, 118
10, 38735, Control_c, 5, 11, 119
10, 38741, Control_c, 5, 11, 120
10, 38747, Control_c, 5, 11, 121
10, 38752, Note_on_c, 5, 62, 0
10, 38753, Control_c, 5, 11, 122
10, 38759, Control_c, 5, 11, 123
10, 38765, Control_c, 5, 11, 124
10, 38771, Control_c, 5, 11, 125
10, 38777, Control_c, 5, 11, 126
10, 38784, Control_c, 5, 11, 127
10, 38784, Note_on_c, 5, 62, 89
10, 39552, Note_on_c, 5, 62, 0
10, 39552, Note_on_c, 5, 64, 90
10, 39888, Note_on_c, 5, 64, 0
10, 39936, Control_c, 5, 11, 64
10, 39936, Note_on_c, 5, 60, 95
10, 39942, Control_c, 5, 11, 65
10, 39948, Control_c, 5, 11, 66
10, 39954, Control_c, 5, 11, 67
10, 39960, Control_c, 5, 11, 68
10, 39966, Control_c, 5, 11, 69
10, 39972, Control_c, 5, 11, 70
10, 39978, Control_c, 5, 11, 71
10, 39982, Note_on_c, 5, 60, 0
10, 39984, Control_c, 5, 11, 72
10, 39984, Note_on_c, 5, 62, 87
10, 39990, Control_c, 5, 11, 73
10, 39996, Control_c, 5, 11, 74
10, 40003, Control_c, 5, 11, 75
10, 40009, Control_c, 5, 11, 76
10, 40015, Control_c, 5, 11, 77
10, 40021, Control_c, 5, 11, 78
10, 40027, Control_c, 5, 11, 79
10, 40033, Control_c, 5, 11, 80
10, 40039, Control_c, 5, 11, 81
10, 40045, Control_c, 5, 11, 82
10, 40051, Control_c, 5, 11, 83
10, 40057, Control_c, 5, 11, 84
10, 40064, Control_c, 5, 11, 85
10, 40070, Control_c, 5, 11, 86
10, 40076, Control_c, 5, 11, 87
10, 40082, Control_c, 5, 11, 88
10, 40088, Control_c, 5, 11, 89
10, 40094, Control_c, 5, 11, 90
10, 40100, Control_c, 5, 11, 91
10, 40106, Control_c, 5, 11, 92
10, 40112, Control_c, 5, 11, 93
10, 40118, Control_c, 5, 11, 94
10, 40124, Control_c, 5, 11, 95
10, 40131, Control_c, 5, 11, 96
10, 40137, Control_c, 5, 11, 97
10, 40143, Control_c, 5, 11, 98
10, 40149, Control_c, 5, 11, 99
10, 40155, Control_c, 5, 11, 100
10, 40161, Control_c, 5, 11, 101
10, 40167, Control_c, 5, 11, 102
10, 40173, Control_c, 5, 11, 103
10, 40179, Control_c, 5, 11, 104
10, 40185, Control_c, 5, 11, 105
10, 40192, Control_c, 5, 11, 106
10, 40198, Control_c, 5, 11, 107
10, 40204, Control_c, 5, 11, 108
10, 40210, Control_c, 5, 11, 109
10, 40216, Control_c, 5, 11, 110
10, 40222, Control_c, 5, 11, 111
10, 40228, Control_c, 5, 11, 112
10, 40234, Control_c, 5, 11, 113
10, 40240, Control_c, 5, 11, 114
10, 40246, Control_c, 5, 11, 115
10, 40252, Control_c, 5, 11, 116
10, 40259, Control_c, 5, 11, 117
10, 40265, Control_c, 5, 11, 118
10, 40271, Control_c, 5, 11, 119
10, 40277, Control_c, 5, 11, 120
10, 40283, Control_c, 5, 11, 121
10, 40288, Note_on_c, 5, 62, 0
10, 40289, Control_c, 5, 11, 122
10, 40295, Control_c, 5, 11, 123
10, 40301, Control_c, 5, 11, 124
10, 40307, Control_c, 5, 11, 125
10, 40313, Control_c, 5, 11, 126
10, 40320, Control_c, 5, 11, 127
10, 40320, Note_on_c, 5, 62, 96
10, 41088, Note_on_c, 5, 62, 0
10, 41088, Note_on_c, 5, 64, 88
10, 41424, Note_on_c, 5, 64, 0
10, 43776, Control_c, 5, 11, 92
10, 44160, Note_on_c, 5, 68, 61
10, 44544, Control_c, 5, 11, 92
10, 44544, Note_on_c, 5, 64, 64
10, 44544, Note_on_c, 5, 61, 61
10, 44554, Control_c, 5, 11, 93
10, 44565, Control_c, 5, 11, 94
10, 44576, Control_c, 5, 11, 95
10, 44587, Control_c, 5, 11, 96
10, 44598, Control_c, 5, 11, 97
10, 44609, Control_c, 5, 11, 98
10, 44620, Control_c, 5, 11, 99
10, 44631, Control_c, 5, 11, 100
10, 44642, Control_c, 5, 11, 101
10, 44653, Control_c, 5, 11, 102
10, 44664, Control_c, 5, 11, 103
10, 44675, Control_c, 5, 11, 104
10, 44686, Control_c, 5, 11, 105
10, 44697, Control_c, 5, 11, 106
10, 44708, Control_c, 5, 11, 107
10, 44719, Control_c, 5, 11, 108
10, 44730, Control_c, 5, 11, 109
10, 44741, Control_c, 5, 11, 110
10, 44752, Control_c, 5, 11, 111
10, 44763, Control_c, 5, 11, 112
10, 44774, Control_c, 5, 11, 113
10, 44785, Control_c, 5, 11, 114
10, 44796, Control_c, 5, 11, 115
10, 44807, Control_c, 5, 11, 116
10, 44818, Control_c, 5, 11, 117
10, 44829, Control_c, 5, 11, 118
10, 44840, Control_c, 5, 11, 119
10, 44851, Control_c, 5, 11, 120
10, 44862, Control_c, 5, 11, 121
10, 44873, Control_c, 5, 11, 122
10, 44884, Control_c, 5, 11, 123
10, 44895, Control_c, 5, 11, 124
10, 44906, Control_c, 5, 11, 125
10, 44917, Control_c, 5, 11, 126
10, 44928, Note_on_c, 5, 68, 0
10, 44928, Control_c, 5, 11, 127
10, 44928, Note_on_c, 5, 69, 61
10, 45072, Note_on_c, 5, 64, 0
10, 45072, Note_on_c, 5, 61, 0
10, 45088, Note_on_c, 5, 69, 0
10, 45312, Control_c, 5, 11, 92
10, 45696, Note_on_c, 5, 68, 58
10, 46080, Control_c, 5, 11, 92
10, 46080, Note_on_c, 5, 61, 57
10, 46080, Note_on_c, 5, 64, 64
10, 46090, Control_c, 5, 11, 93
10, 46101, Control_c, 5, 11, 94
10, 46112, Control_c, 5, 11, 95
10, 46123, Control_c, 5, 11, 96
10, 46134, Control_c, 5, 11, 97
10, 46145, Control_c, 5, 11, 98
10, 46156, Control_c, 5, 11, 99
10, 46167, Control_c, 5, 11, 100
10, 46178, Control_c, 5, 11, 101
10, 46189, Control_c, 5, 11, 102
10, 46200, Control_c, 5, 11, 103
10, 46211, Control_c, 5, 11, 104
10, 46222, Control_c, 5, 11, 105
10, 46233, Control_c, 5, 11, 106
10, 46244, Control_c, 5, 11, 107
10, 46255, Control_c, 5, 11, 108
10, 46266, Control_c, 5, 11, 109
10, 46277, Control_c, 5, 11, 110
10, 46288, Control_c, 5, 11, 111
10, 46299, Control_c, 5, 11, 112
10, 46310, Control_c, 5, 11, 113
10, 46321, Control_c, 5, 11, 114
10, 46332, Control_c, 5, 11, 115
10, 46343, Control_c, 5, 11, 116
10, 46354, Control_c, 5, 11, 117
10, 46365, Control_c, 5, 11, 118
10, 46376, Control_c, 5, 11, 119
10, 46387, Control_c, 5, 11, 120
10, 46398, Control_c, 5, 11, 121
10, 46409, Control_c, 5, 11, 122
10, 46420, Control_c, 5, 11, 123
10, 46431, Control_c, 5, 11, 124
10, 46442, Control_c, 5, 11, 125
10, 46453, Control_c, 5, 11, 126
10, 46464, Note_on_c, 5, 68, 0
10, 46464, Control_c, 5, 11, 127
10, 46464, Note_on_c, 5, 70, 62
10, 46608, Note_on_c, 5, 61, 0
10, 46608, Note_on_c, 5, 64, 0
10, 46624, Note_on_c, 5, 70, 0
10, 46848, Note_on_c, 5, 71, 78
10, 46976, Note_on_c, 5, 71, 0
10, 46976, Note_on_c, 5, 71, 79
10, 47104, Note_on_c, 5, 71, 0
10, 47104, Note_on_c, 5, 70, 72
10, 47232, Note_on_c, 5, 70, 0
10, 47232, Note_on_c, 5, 69, 74
10, 47360, Note_on_c, 5, 69, 0
10, 47360, Note_on_c, 5, 69, 79
10, 47488, Note_on_c, 5, 69, 0
10, 47488, Note_on_c, 5, 66, 77
10, 47616, Note_on_c, 5, 66, 0
10, 47616, Control_c, 5, 11, 92
10, 47616, Note_on_c, 5, 62, 74
10, 47626, Control_c, 5, 11, 93
10, 47637, Control_c, 5, 11, 94
10, 47648, Control_c, 5, 11, 95
10, 47659, Control_c, 5, 11, 96
10, 47670, Control_c, 5, 11, 97
10, 47681, Control_c, 5, 11, 98
10, 47692, Control_c, 5, 11, 99
10, 47703, Control_c, 5, 11, 100
10, 47714, Control_c, 5, 11, 101
10, 47725, Control_c, 5, 11, 102
10, 47736, Control_c, 5, 11, 103
10, 47747, Control_c, 5, 11, 104
10, 47758, Control_c, 5, 11, 105
10, 47769, Control_c, 5, 11, 106
10, 47780, Control_c, 5, 11, 107
10, 47791, Control_c, 5, 11, 108
10, 47802, Control_c, 5, 11, 109
10, 47808, Note_on_c, 5, 62, 0
10, 47808, Note_on_c, 5, 64, 78
10, 47813, Control_c, 5, 11, 110
10, 47824, Control_c, 5, 11, 111
10, 47835, Control_c, 5, 11, 112
10, 47846, Control_c, 5, 11, 113
10, 47857, Control_c, 5, 11, 114
10, 47868, Control_c, 5, 11, 115
10, 47879, Control_c, 5, 11, 116
10, 47890, Control_c, 5, 11, 117
10, 47901, Control_c, 5, 11, 118
10, 47912, Control_c, 5, 11, 119
10, 47923, Control_c, 5, 11, 120
10, 47934, Control_c, 5, 11, 121
10, 47945, Control_c, 5, 11, 122
10, 47956, Control_c, 5, 11, 123
10, 47967, Control_c, 5, 11, 124
10, 47978, Control_c, 5, 11, 125
10, 47989, Control_c, 5, 11, 126
10, 48000, Note_on_c, 5, 64, 0
10, 48000, Control_c, 5, 11, 127
10, 48000, Note_on_c, 5, 65, 78
10, 48336, Note_on_c, 5, 65, 0
10, 48384, Note_on_c, 5, 64, 72
10, 48510, Note_on_c, 5, 64, 0
10, 48512, Note_on_c, 5, 64, 78
10, 48638, Note_on_c, 5, 64, 0
10, 48640, Note_on_c, 5, 63, 77
10, 48766, Note_on_c, 5, 63, 0
10, 48768, Note_on_c, 5, 66, 77
10, 48768, Note_on_c, 5, 62, 81
10, 48768, Note_on_c, 5, 70, 75
10, 48894, Note_on_c, 5, 62, 0
10, 48896, Note_on_c, 5, 62, 77
10, 49022, Note_on_c, 5, 62, 0
10, 49024, Note_on_c, 5, 59, 82
10, 49102, Note_on_c, 5, 66, 0
10, 49102, Note_on_c, 5, 70, 0
10, 49104, Note_on_c, 5, 65, 79
10, 49104, Note_on_c, 5, 69, 78
10, 49150, Note_on_c, 5, 59, 0
10, 49150, Note_on_c, 5, 65, 0
10, 49150, Note_on_c, 5, 69, 0
10, 49152, Note_on_c, 5, 64, 83
10, 49152, Note_on_c, 5, 68, 81
10, 49152, Note_on_c, 5, 56, 81
10, 49344, Note_on_c, 5, 64, 0
10, 49344, Note_on_c, 5, 56, 0
10, 49344, Note_on_c, 5, 62, 86
10, 49344, Note_on_c, 5, 60, 83
10, 49488, Note_on_c, 5, 68, 0
10, 49536, Note_on_c, 5, 62, 0
10, 49536, Note_on_c, 5, 60, 0
10, 49536, Note_on_c, 5, 59, 87
10, 49536, Note_on_c, 5, 67, 90
10, 49536, Note_on_c, 5, 53, 96
10, 49536, Note_on_c, 5, 64, 92
10, 50112, Note_on_c, 5, 59, 0
10, 50112, Note_on_c, 5, 60, 94
10, 50304, Note_on_c, 5, 53, 0
10, 50304, Note_on_c, 5, 64, 0
10, 50304, Note_on_c, 5, 60, 0
10, 50304, Note_on_c, 5, 61, 105
10, 50304, Note_on_c, 5, 65, 107
10, 50432, Note_on_c, 5, 61, 0
10, 50432, Note_on_c, 5, 62, 110
10, 50448, Note_on_c, 5, 67, 0
10, 50496, Note_on_c, 5, 68, 109
10, 50560, Note_on_c, 5, 62, 0
10, 50560, Note_on_c, 5, 63, 113
10, 50640, Note_on_c, 5, 65, 0
10, 50686, Note_on_c, 5, 63, 0
10, 50688, Note_on_c, 5, 68, 0
10, 50688, Note_on_c, 5, 64, 73
10, 50688, Note_on_c, 5, 61, 76
10, 50688, Control_c, 5, 11, 127
10, 50688, Note_on_c, 5, 69, 72
10, 50698, Control_c, 5, 11, 126
10, 50709, Control_c, 5, 11, 125
10, 50720, Control_c, 5, 11, 124
10, 50731, Control_c, 5, 11, 123
10, 50742, Control_c, 5, 11, 122
10, 50753, Control_c, 5, 11, 121
10, 50764, Control_c, 5, 11, 120
10, 50775, Control_c, 5, 11, 119
10, 50786, Control_c, 5, 11, 118
10, 50797, Control_c, 5, 11, 117
10, 50808, Control_c, 5, 11, 116
10, 50819, Control_c, 5, 11, 115
10, 50830, Control_c, 5, 11, 114
10, 50841, Control_c, 5, 11, 113
10, 50852, Control_c, 5, 11, 112
10, 50863, Control_c, 5, 11, 111
10, 50874, Control_c, 5, 11, 110
10, 50885, Control_c, 5, 11, 109
10, 50896, Control_c, 5, 11, 108
10, 50907, Control_c, 5, 11, 107
10, 50918, Control_c, 5, 11, 106
10, 50929, Control_c, 5, 11, 105
10, 50940, Control_c, 5, 11, 104
10, 50944, Note_on_c, 5, 69, 0
10, 50944, Note_on_c, 5, 68, 77
10, 50951, Control_c, 5, 11, 103
10, 50962, Control_c, 5, 11, 102
10, 50973, Control_c, 5, 11, 101
10, 50984, Control_c, 5, 11, 100
10, 50995, Control_c, 5, 11, 99
10, 51006, Control_c, 5, 11, 98
10, 51017, Control_c, 5, 11, 97
10, 51028, Control_c, 5, 11, 96
10, 51039, Control_c, 5, 11, 95
10, 51050, Control_c, 5, 11, 94
10, 51061, Control_c, 5, 11, 93
10, 51072, Control_c, 5, 11, 92
10, 51216, Note_on_c, 5, 64, 0
10, 51216, Note_on_c, 5, 61, 0
10, 51232, Note_on_c, 5, 68, 0
10, 52224, Note_on_c, 5, 61, 80
10, 52224, Control_c, 5, 11, 127
10, 52224, Note_on_c, 5, 64, 78
10, 52224, Note_on_c, 5, 70, 79
10, 52234, Control_c, 5, 11, 126
10, 52245, Control_c, 5, 11, 125
10, 52256, Control_c, 5, 11, 124
10, 52267, Control_c, 5, 11, 123
10, 52278, Control_c, 5, 11, 122
10, 52289, Control_c, 5, 11, 121
10, 52300, Control_c, 5, 11, 120
10, 52311, Control_c, 5, 11, 119
10, 52322, Control_c, 5, 11, 118
10, 52333, Control_c, 5, 11, 117
10, 52344, Control_c, 5, 11, 116
10, 52355, Control_c, 5, 11, 115
10, 52366, Control_c, 5, 11, 114
10, 52377, Control_c, 5, 11, 113
10, 52388, Control_c, 5, 11, 112
10, 52399, Control_c, 5, 11, 111
10, 52410, Control_c, 5, 11, 110
10, 52421, Control_c, 5, 11, 109
10, 52432, Control_c, 5, 11, 108
10, 52443, Control_c, 5, 11, 107
10, 52448, Note_on_c, 5, 70, 0
10, 52454, Control_c, 5, 11, 106
10, 52465, Control_c, 5, 11, 105
10, 52476, Control_c, 5, 11, 104
10, 52480, Note_on_c, 5, 68, 77
10, 52487, Control_c, 5, 11, 103
10, 52498, Control_c, 5, 11, 102
10, 52509, Control_c, 5, 11, 101
10, 52520, Control_c, 5, 11, 100
10, 52531, Control_c, 5, 11, 99
10, 52542, Control_c, 5, 11, 98
10, 52553, Control_c, 5, 11, 97
10, 52564, Control_c, 5, 11, 96
10, 52575, Control_c, 5, 11, 95
10, 52586, Control_c, 5, 11, 94
10, 52597, Control_c, 5, 11, 93
10, 52608, Control_c, 5, 11, 92
10, 52752, Note_on_c, 5, 61, 0
10, 52752, Note_on_c, 5, 64, 0
10, 52768, Note_on_c, 5, 68, 0
10, 53760, Note_on_c, 5, 71, 74
10, 53886, Note_on_c, 5, 71, 0
10, 53888, Note_on_c, 5, 71, 73
10, 54014, Note_on_c, 5, 71, 0
10, 54016, Note_on_c, 5, 70, 73
10, 54142, Note_on_c, 5, 70, 0
10, 54144, Note_on_c, 5, 69, 70
10, 54270, Note_on_c, 5, 69, 0
10, 54272, Note_on_c, 5, 69, 78
10, 54398, Note_on_c, 5, 69, 0
10, 54400, Note_on_c, 5, 66, 79
10, 54526, Note_on_c, 5, 66, 0
10, 54528, Control_c, 5, 11, 92
10, 54528, Note_on_c, 5, 62, 91
10, 54549, Control_c, 5, 11, 93
10, 54571, Control_c, 5, 11, 94
10, 54593, Control_c, 5, 11, 95
10, 54615, Control_c, 5, 11, 96
10, 54637, Control_c, 5, 11, 97
10, 54659, Control_c, 5, 11, 98
10, 54681, Control_c, 5, 11, 99
10, 54703, Control_c, 5, 11, 100
10, 54720, Note_on_c, 5, 62, 0
10, 54720, Note_on_c, 5, 64, 89
10, 54725, Control_c, 5, 11, 101
10, 54747, Control_c, 5, 11, 102
10, 54769, Control_c, 5, 11, 103
10, 54791, Control_c, 5, 11, 104
10, 54813, Control_c, 5, 11, 105
10, 54835, Control_c, 5, 11, 106
10, 54857, Control_c, 5, 11, 107
10, 54879, Control_c, 5, 11, 108
10, 54901, Control_c, 5, 11, 109
10, 54912, Note_on_c, 5, 64, 0
10, 54912, Note_on_c, 5, 65, 96
10, 54922, Control_c, 5, 11, 110
10, 54944, Control_c, 5, 11, 111
10, 54966, Control_c, 5, 11, 112
10, 54988, Control_c, 5, 11, 113
10, 55010, Control_c, 5, 11, 114
10, 55032, Control_c, 5, 11, 115
10, 55054, Control_c, 5, 11, 116
10, 55076, Control_c, 5, 11, 117
10, 55098, Control_c, 5, 11, 118
10, 55120, Control_c, 5, 11, 119
10, 55142, Control_c, 5, 11, 120
10, 55164, Control_c, 5, 11, 121
10, 55186, Control_c, 5, 11, 122
10, 55208, Control_c, 5, 11, 123
10, 55230, Control_c, 5, 11, 124
10, 55252, Control_c, 5, 11, 125
10, 55274, Control_c, 5, 11, 126
10, 55296, Control_c, 5, 11, 127
10, 55308, Control_c, 5, 11, 126
10, 55320, Control_c, 5, 11, 125
10, 55332, Control_c, 5, 11, 124
10, 55344, Control_c, 5, 11, 123
10, 55356, Control_c, 5, 11, 122
10, 55369, Control_c, 5, 11, 121
10, 55381, Control_c, 5, 11, 120
10, 55393, Control_c, 5, 11, 119
10, 55405, Control_c, 5, 11, 118
10, 55417, Control_c, 5, 11, 117
10, 55430, Control_c, 5, 11, 116
10, 55442, Control_c, 5, 11, 115
10, 55454, Control_c, 5, 11, 114
10, 55466, Control_c, 5, 11, 113
10, 55478, Control_c, 5, 11, 112
10, 55491, Control_c, 5, 11, 111
10, 55503, Control_c, 5, 11, 110
10, 55515, Control_c, 5, 11, 109
10, 55527, Control_c, 5, 11, 108
10, 55539, Control_c, 5, 11, 107
10, 55552, Control_c, 5, 11, 106
10, 55564, Control_c, 5, 11, 105
10, 55576, Control_c, 5, 11, 104
10, 55588, Control_c, 5, 11, 103
10, 55600, Control_c, 5, 11, 102
10, 55612, Control_c, 5, 11, 101
10, 55625, Control_c, 5, 11, 100
10, 55637, Control_c, 5, 11, 99
10, 55649, Control_c, 5, 11, 98
10, 55661, Control_c, 5, 11, 97
10, 55673, Control_c, 5, 11, 96
10, 55680, Note_on_c, 5, 65, 0
10, 55680, Note_on_c, 5, 61, 92
10, 55686, Control_c, 5, 11, 95
10, 55698, Control_c, 5, 11, 94
10, 55710, Control_c, 5, 11, 93
10, 55722, Control_c, 5, 11, 92
10, 55734, Control_c, 5, 11, 91
10, 55747, Control_c, 5, 11, 90
10, 55759, Control_c, 5, 11, 89
10, 55771, Control_c, 5, 11, 88
10, 55783, Control_c, 5, 11, 87
10, 55795, Control_c, 5, 11, 86
10, 55808, Control_c, 5, 11, 85
10, 55820, Control_c, 5, 11, 84
10, 55832, Control_c, 5, 11, 83
10, 55844, Control_c, 5, 11, 82
10, 55856, Control_c, 5, 11, 81
10, 55868, Control_c, 5, 11, 80
10, 55881, Control_c, 5, 11, 79
10, 55893, Control_c, 5, 11, 78
10, 55905, Control_c, 5, 11, 77
10, 55917, Control_c, 5, 11, 76
10, 55929, Control_c, 5, 11, 75
10, 55942, Control_c, 5, 11, 74
10, 55954, Control_c, 5, 11, 73
10, 55966, Control_c, 5, 11, 72
10, 55978, Control_c, 5, 11, 71
10, 55990, Control_c, 5, 11, 70
10, 56003, Control_c, 5, 11, 69
10, 56015, Control_c, 5, 11, 68
10, 56016, Note_on_c, 5, 61, 0
10, 56027, Control_c, 5, 11, 67
10, 56039, Control_c, 5, 11, 66
10, 56051, Control_c, 5, 11, 65
10, 56064, Control_c, 5, 11, 64
10, 56064, Control_c, 5, 11, 127
10, 56064, Note_on_c, 5, 62, 31
10, 56064, Note_on_c, 5, 59, 33
10, 56448, Note_on_c, 5, 57, 32
10, 56832, Note_on_c, 5, 52, 28
10, 57552, Note_on_c, 5, 62, 0
10, 57552, Note_on_c, 5, 59, 0
10, 57552, Note_on_c, 5, 57, 0
10, 57552, Note_on_c, 5, 52, 0
10, 57600, Control_c, 5, 11, 92
10, 57600, Note_on_c, 5, 60, 41
10, 57600, Note_on_c, 5, 63, 45
10, 57984, Note_on_c, 5, 57, 47
10, 58320, Note_on_c, 5, 63, 0
10, 58368, Note_on_c, 5, 64, 42
10, 58368, Control_c, 5, 11, 92
10, 58368, Note_on_c, 5, 52, 42
10, 58378, Control_c, 5, 11, 93
10, 58389, Control_c, 5, 11, 94
10, 58400, Control_c, 5, 11, 95
10, 58411, Control_c, 5, 11, 96
10, 58422, Control_c, 5, 11, 97
10, 58433, Control_c, 5, 11, 98
10, 58444, Control_c, 5, 11, 99
10, 58455, Control_c, 5, 11, 100
10, 58466, Control_c, 5, 11, 101
10, 58477, Control_c, 5, 11, 102
10, 58488, Control_c, 5, 11, 103
10, 58499, Control_c, 5, 11, 104
10, 58510, Control_c, 5, 11, 105
10, 58521, Control_c, 5, 11, 106
10, 58532, Control_c, 5, 11, 107
10, 58543, Control_c, 5, 11, 108
10, 58554, Control_c, 5, 11, 109
10, 58565, Control_c, 5, 11, 110
10, 58576, Control_c, 5, 11, 111
10, 58587, Control_c, 5, 11, 112
10, 58598, Control_c, 5, 11, 113
10, 58609, Control_c, 5, 11, 114
10, 58620, Control_c, 5, 11, 115
10, 58631, Control_c, 5, 11, 116
10, 58642, Control_c, 5, 11, 117
10, 58653, Control_c, 5, 11, 118
10, 58664, Control_c, 5, 11, 119
10, 58675, Control_c, 5, 11, 120
10, 58686, Control_c, 5, 11, 121
10, 58697, Control_c, 5, 11, 122
10, 58708, Control_c, 5, 11, 123
10, 58719, Control_c, 5, 11, 124
10, 58730, Control_c, 5, 11, 125
10, 58741, Control_c, 5, 11, 126
10, 58752, Note_on_c, 5, 64, 0
10, 58752, Control_c, 5, 11, 127
10, 58752, Note_on_c, 5, 63, 49
10, 59088, Note_on_c, 5, 60, 0
10, 59088, Note_on_c, 5, 57, 0
10, 59088, Note_on_c, 5, 52, 0
10, 59088, Note_on_c, 5, 63, 0
10, 59136, Control_c, 5, 11, 92
10, 59136, Note_on_c, 5, 62, 49
10, 59136, Note_on_c, 5, 59, 43
10, 59520, Note_on_c, 5, 57, 49
10, 59904, Note_on_c, 5, 52, 48
10, 60624, Note_on_c, 5, 62, 0
10, 60624, Note_on_c, 5, 59, 0
10, 60624, Note_on_c, 5, 57, 0
10, 60624, Note_on_c, 5, 52, 0
10, 60672, Note_on_c, 5, 54, 103
10, 60672, Note_on_c, 5, 60, 112
10, 60672, Note_on_c, 5, 57, 113
10, 60672, Control_c, 5, 11, 64
10, 60720, Note_on_c, 5, 54, 0
10, 60720, Note_on_c, 5, 60, 0
10, 60720, Note_on_c, 5, 53, 104
10, 60720, Note_on_c, 5, 61, 109
10, 60724, Control_c, 5, 11, 65
10, 60776, Control_c, 5, 11, 66
10, 60829, Control_c, 5, 11, 67
10, 60881, Control_c, 5, 11, 68
10, 60933, Control_c, 5, 11, 69
10, 60986, Control_c, 5, 11, 70
10, 61038, Control_c, 5, 11, 71
10, 61090, Control_c, 5, 11, 72
10, 61143, Control_c, 5, 11, 73
10, 61195, Control_c, 5, 11, 74
10, 61247, Control_c, 5, 11, 75
10, 61300, Control_c, 5, 11, 76
10, 61352, Control_c, 5, 11, 77
10, 61405, Control_c, 5, 11, 78
10, 61457, Control_c, 5, 11, 79
10, 61509, Control_c, 5, 11, 80
10, 61562, Control_c, 5, 11, 81
10, 61614, Control_c, 5, 11, 82
10, 61666, Control_c, 5, 11, 83
10, 61719, Control_c, 5, 11, 84
10, 61771, Control_c, 5, 11, 85
10, 61823, Control_c, 5, 11, 86
10, 61824, Note_on_c, 5, 53, 0
10, 61824, Note_on_c, 5, 61, 0
10, 61824, Note_on_c, 5, 64, 109
10, 61824, Note_on_c, 5, 52, 109
10, 61876, Control_c, 5, 11, 87
10, 61928, Control_c, 5, 11, 88
10, 61981, Control_c, 5, 11, 89
10, 62033, Control_c, 5, 11, 90
10, 62085, Control_c, 5, 11, 91
10, 62138, Control_c, 5, 11, 92
10, 62160, Note_on_c, 5, 57, 0
10, 62160, Note_on_c, 5, 64, 0
10, 62160, Note_on_c, 5, 52, 0
10, 62190, Control_c, 5, 11, 93
10, 62208, Note_on_c, 5, 64, 87
10, 62208, Note_on_c, 5, 68, 89
10, 62208, Note_on_c, 5, 56, 90
10, 62208, Note_on_c, 5, 68, 89
10, 62242, Control_c, 5, 11, 94
10, 62295, Control_c, 5, 11, 95
10, 62347, Control_c, 5, 11, 96
10, 62399, Control_c, 5, 11, 97
10, 62452, Control_c, 5, 11, 98
10, 62504, Control_c, 5, 11, 99
10, 62557, Control_c, 5, 11, 100
10, 62609, Control_c, 5, 11, 101
10, 62661, Control_c, 5, 11, 102
10, 62714, Control_c, 5, 11, 103
10, 62766, Control_c, 5, 11, 104
10, 62784, Note_on_c, 5, 64, 0
10, 62784, Note_on_c, 5, 68, 0
10, 62784, Note_on_c, 5, 56, 0
10, 62784, Note_on_c, 5, 68, 0
10, 62784, Note_on_c, 5, 59, 94
10, 62784, Note_on_c, 5, 61, 92
10, 62784, Note_on_c, 5, 67, 95
10, 62784, Note_on_c, 5, 71, 89
10, 62818, Control_c, 5, 11, 105
10, 62871, Control_c, 5, 11, 106
10, 62923, Control_c, 5, 11, 107
10, 62944, Note_on_c, 5, 59, 0
10, 62944, Note_on_c, 5, 61, 0
10, 62944, Note_on_c, 5, 67, 0
10, 62944, Note_on_c, 5, 71, 0
10, 62976, Note_on_c, 5, 60, 113
10, 62976, Control_c, 5, 11, 108
10, 62976, Control_c, 5, 11, 92
10, 62976, Note_on_c, 5, 52, 112
10, 62976, Note_on_c, 5, 64, 105
10, 62976, Note_on_c, 5, 64, 108
10, 62997, Control_c, 5, 11, 93
10, 63019, Control_c, 5, 11, 94
10, 63041, Control_c, 5, 11, 95
10, 63063, Control_c, 5, 11, 96
10, 63085, Control_c, 5, 11, 97
10, 63107, Control_c, 5, 11, 98
10, 63129, Control_c, 5, 11, 99
10, 63151, Control_c, 5, 11, 100
10, 63173, Control_c, 5, 11, 101
10, 63195, Control_c, 5, 11, 102
10, 63217, Control_c, 5, 11, 103
10, 63239, Control_c, 5, 11, 104
10, 63261, Control_c, 5, 11, 105
10, 63283, Control_c, 5, 11, 106
10, 63305, Control_c, 5, 11, 107
10, 63327, Control_c, 5, 11, 108
10, 63349, Control_c, 5, 11, 109
10, 63370, Control_c, 5, 11, 110
10, 63392, Control_c, 5, 11, 111
10, 63414, Control_c, 5, 11, 112
10, 63436, Control_c, 5, 11, 113
10, 63458, Control_c, 5, 11, 114
10, 63480, Control_c, 5, 11, 115
10, 63502, Control_c, 5, 11, 116
10, 63524, Control_c, 5, 11, 117
10, 63546, Control_c, 5, 11, 118
10, 63552, Note_on_c, 5, 60, 0
10, 63552, Note_on_c, 5, 52, 0
10, 63552, Note_on_c, 5, 64, 0
10, 63552, Note_on_c, 5, 64, 0
10, 63552, Note_on_c, 5, 67, 107
10, 63552, Note_on_c, 5, 63, 112
10, 63552, Note_on_c, 5, 55, 107
10, 63552, Note_on_c, 5, 57, 108
10, 63568, Control_c, 5, 11, 119
10, 63590, Control_c, 5, 11, 120
10, 63612, Control_c, 5, 11, 121
10, 63634, Control_c, 5, 11, 122
10, 63656, Control_c, 5, 11, 123
10, 63678, Control_c, 5, 11, 124
10, 63700, Control_c, 5, 11, 125
10, 63712, Note_on_c, 5, 67, 0
10, 63712, Note_on_c, 5, 63, 0
10, 63712, Note_on_c, 5, 55, 0
10, 63712, Note_on_c, 5, 57, 0
10, 63722, Control_c, 5, 11, 126
10, 63744, Note_on_c, 5, 47, 92
10, 63744, Control_c, 5, 11, 64
10, 63744, Control_c, 5, 11, 127
10, 63750, Control_c, 5, 11, 65
10, 63756, Control_c, 5, 11, 66
10, 63762, Control_c, 5, 11, 67
10, 63768, Control_c, 5, 11, 68
10, 63774, Control_c, 5, 11, 69
10, 63780, Control_c, 5, 11, 70
10, 63786, Control_c, 5, 11, 71
10, 63792, Control_c, 5, 11, 72
10, 63798, Control_c, 5, 11, 73
10, 63804, Control_c, 5, 11, 74
10, 63811, Control_c, 5, 11, 75
10, 63817, Control_c, 5, 11, 76
10, 63823, Control_c, 5, 11, 77
10, 63829, Control_c, 5, 11, 78
10, 63835, Control_c, 5, 11, 79
10, 63841, Control_c, 5, 11, 80
10, 63847, Control_c, 5, 11, 81
10, 63853, Control_c, 5, 11, 82
10, 63859, Control_c, 5, 11, 83
10, 63865, Control_c, 5, 11, 84
10, 63872, Control_c, 5, 11, 85
10, 63878, Control_c, 5, 11, 86
10, 63884, Control_c, 5, 11, 87
10, 63890, Control_c, 5, 11, 88
10, 63896, Control_c, 5, 11, 89
10, 63902, Control_c, 5, 11, 90
10, 63908, Control_c, 5, 11, 91
10, 63914, Control_c, 5, 11, 92
10, 63920, Control_c, 5, 11, 93
10, 63926, Control_c, 5, 11, 94
10, 63932, Control_c, 5, 11, 95
10, 63939, Control_c, 5, 11, 96
10, 63945, Control_c, 5, 11, 97
10, 63951, Control_c, 5, 11, 98
10, 63957, Control_c, 5, 11, 99
10, 63963, Control_c, 5, 11, 100
10, 63969, Control_c, 5, 11, 101
10, 63975, Control_c, 5, 11, 102
10, 63981, Control_c, 5, 11, 103
10, 63987, Control_c, 5, 11, 104
10, 63993, Control_c, 5, 11, 105
10, 64000, Control_c, 5, 11, 106
10, 64006, Control_c, 5, 11, 107
10, 64012, Control_c, 5, 11, 108
10, 64018, Control_c, 5, 11, 109
10, 64024, Control_c, 5, 11, 110
10, 64030, Control_c, 5, 11, 111
10, 64032, Note_on_c, 5, 47, 0
10, 64032, Note_on_c, 5, 48, 92
10, 64036, Control_c, 5, 11, 112
10, 64042, Control_c, 5, 11, 113
10, 64048, Control_c, 5, 11, 114
10, 64054, Control_c, 5, 11, 115
10, 64060, Control_c, 5, 11, 116
10, 64067, Control_c, 5, 11, 117
10, 64073, Control_c, 5, 11, 118
10, 64079, Control_c, 5, 11, 119
10, 64085, Control_c, 5, 11, 120
10, 64091, Control_c, 5, 11, 121
10, 64097, Control_c, 5, 11, 122
10, 64103, Control_c, 5, 11, 123
10, 64109, Control_c, 5, 11, 124
10, 64115, Control_c, 5, 11, 125
10, 64121, Control_c, 5, 11, 126
10, 64128, Note_on_c, 5, 48, 0
10, 64128, Note_on_c, 5, 52, 87
10, 64128, Control_c, 5, 11, 127
10, 64288, Note_on_c, 5, 52, 0
10, 64320, Note_on_c, 5, 55, 94
10, 64320, Note_on_c, 5, 65, 91
10, 64320, Note_on_c, 5, 67, 88
10, 64320, Note_on_c, 5, 59, 95
10, 64480, Note_on_c, 5, 55, 0
10, 64480, Note_on_c, 5, 65, 0
10, 64480, Note_on_c, 5, 67, 0
10, 64480, Note_on_c, 5, 59, 0
10, 64512, Note_on_c, 5, 47, 95
10, 64512, Control_c, 5, 11, 64
10, 64518, Control_c, 5, 11, 65
10, 64524, Control_c, 5, 11, 66
10, 64530, Control_c, 5, 11, 67
10, 64536, Control_c, 5, 11, 68
10, 64542, Control_c, 5, 11, 69
10, 64548, Control_c, 5, 11, 70
10, 64554, Control_c, 5, 11, 71
10, 64560, Control_c, 5, 11, 72
10, 64566, Control_c, 5, 11, 73
10, 64572, Control_c, 5, 11, 74
10, 64579, Control_c, 5, 11, 75
10, 64585, Control_c, 5, 11, 76
10, 64591, Control_c, 5, 11, 77
10, 64597, Control_c, 5, 11, 78
10, 64603, Control_c, 5, 11, 79
10, 64609, Control_c, 5, 11, 80
10, 64615, Control_c, 5, 11, 81
10, 64621, Control_c, 5, 11, 82
10, 64627, Control_c, 5, 11, 83
10, 64633, Control_c, 5, 11, 84
10, 64640, Control_c, 5, 11, 85
10, 64646, Control_c, 5, 11, 86
10, 64652, Control_c, 5, 11, 87
10, 64658, Control_c, 5, 11, 88
10, 64664, Control_c, 5, 11, 89
10, 64670, Control_c, 5, 11, 90
10, 64676, Control_c, 5, 11, 91
10, 64682, Control_c, 5, 11, 92
10, 64688, Control_c, 5, 11, 93
10, 64694, Control_c, 5, 11, 94
10, 64700, Control_c, 5, 11, 95
10, 64707, Control_c, 5, 11, 96
10, 64713, Control_c, 5, 11, 97
10, 64719, Control_c, 5, 11, 98
10, 64725, Control_c, 5, 11, 99
10, 64731, Control_c, 5, 11, 100
10, 64737, Control_c, 5, 11, 101
10, 64743, Control_c, 5, 11, 102
10, 64749, Control_c, 5, 11, 103
10, 64755, Control_c, 5, 11, 104
10, 64761, Control_c, 5, 11, 105
10, 64768, Control_c, 5, 11, 106
10, 64774, Control_c, 5, 11, 107
10, 64780, Control_c, 5, 11, 108
10, 64786, Control_c, 5, 11, 109
10, 64792, Control_c, 5, 11, 110
10, 64798, Control_c, 5, 11, 111
10, 64800, Note_on_c, 5, 47, 0
10, 64800, Note_on_c, 5, 48, 93
10, 64804, Control_c, 5, 11, 112
10, 64810, Control_c, 5, 11, 113
10, 64816, Control_c, 5, 11, 114
10, 64822, Control_c, 5, 11, 115
10, 64828, Control_c, 5, 11, 116
10, 64835, Control_c, 5, 11, 117
10, 64841, Control_c, 5, 11, 118
10, 64847, Control_c, 5, 11, 119
10, 64853, Control_c, 5, 11, 120
10, 64859, Control_c, 5, 11, 121
10, 64865, Control_c, 5, 11, 122
10, 64871, Control_c, 5, 11, 123
10, 64877, Control_c, 5, 11, 124
10, 64883, Control_c, 5, 11, 125
10, 64889, Control_c, 5, 11, 126
10, 64896, Note_on_c, 5, 48, 0
10, 64896, Control_c, 5, 11, 127
10, 64896, Note_on_c, 5, 52, 92
10, 65056, Note_on_c, 5, 52, 0
10, 65088, Note_on_c, 5, 59, 94
10, 65088, Note_on_c, 5, 55, 95
10, 65088, Note_on_c, 5, 65, 95
10, 65088, Note_on_c, 5, 67, 91
10, 65248, Note_on_c, 5, 59, 0
10, 65248, Note_on_c, 5, 55, 0
10, 65248, Note_on_c, 5, 65, 0
10, 65248, Note_on_c, 5, 67, 0
10, 65280, Note_on_c, 5, 60, 90
10, 65374, Note_on_c, 5, 60, 0
10, 65376, Note_on_c, 5, 60, 88
10, 65397, Note_on_c, 5, 60, 0
10, 65408, Note_on_c, 5, 60, 90
10, 65534, Note_on_c, 5, 60, 0
10, 65536, Note_on_c, 5, 60, 93
10, 65578, Note_on_c, 5, 60, 0
10, 65600, Note_on_c, 5, 60, 91
10, 65642, Note_on_c, 5, 60, 0
10, 65664, Control_c, 5, 11, 92
10, 65664, Note_on_c, 5, 60, 107
10, 65674, Control_c, 5, 11, 93
10, 65685, Control_c, 5, 11, 94
10, 65696, Control_c, 5, 11, 95
10, 65707, Control_c, 5, 11, 96
10, 65718, Control_c, 5, 11, 97
10, 65729, Control_c, 5, 11, 98
10, 65740, Control_c, 5, 11, 99
10, 65751, Control_c, 5, 11, 100
10, 65762, Control_c, 5, 11, 101
10, 65773, Control_c, 5, 11, 102
10, 65784, Control_c, 5, 11, 103
10, 65795, Control_c, 5, 11, 104
10, 65806, Control_c, 5, 11, 105
10, 65817, Control_c, 5, 11, 106
10, 65828, Control_c, 5, 11, 107
10, 65839, Control_c, 5, 11, 108
10, 65850, Control_c, 5, 11, 109
10, 65861, Control_c, 5, 11, 110
10, 65872, Control_c, 5, 11, 111
10, 65883, Control_c, 5, 11, 112
10, 65894, Control_c, 5, 11, 113
10, 65905, Control_c, 5, 11, 114
10, 65916, Control_c, 5, 11, 115
10, 65927, Control_c, 5, 11, 116
10, 65938, Control_c, 5, 11, 117
10, 65949, Control_c, 5, 11, 118
10, 65960, Control_c, 5, 11, 119
10, 65971, Control_c, 5, 11, 120
10, 65982, Control_c, 5, 11, 121
10, 65993, Control_c, 5, 11, 122
10, 66004, Control_c, 5, 11, 123
10, 66015, Control_c, 5, 11, 124
10, 66026, Control_c, 5, 11, 125
10, 66037, Control_c, 5, 11, 126
10, 66048, Control_c, 5, 11, 127
10, 66208, Note_on_c, 5, 60, 0
10, 66240, Note_on_c, 5, 61, 103
10, 66400, Note_on_c, 5, 61, 0
10, 66432, Note_on_c, 5, 62, 110
10, 66592, Note_on_c, 5, 62, 0
10, 66624, Note_on_c, 5, 63, 110
10, 66784, Note_on_c, 5, 63, 0
10, 66816, Note_on_c, 5, 60, 90
10, 66910, Note_on_c, 5, 60, 0
10, 66912, Note_on_c, 5, 60, 96
10, 66933, Note_on_c, 5, 60, 0
10, 66944, Note_on_c, 5, 60, 91
10, 67070, Note_on_c, 5, 60, 0
10, 67072, Note_on_c, 5, 60, 91
10, 67114, Note_on_c, 5, 60, 0
10, 67136, Note_on_c, 5, 60, 88
10, 67178, Note_on_c, 5, 60, 0
10, 67200, Note_on_c, 5, 60, 95
10, 67744, Note_on_c, 5, 60, 0
10, 68736, Control_c, 5, 11, 127
10, 68736, Note_on_c, 5, 60, 41
10, 68754, Control_c, 5, 11, 126
10, 68772, Control_c, 5, 11, 125
10, 68790, Control_c, 5, 11, 124
10, 68809, Control_c, 5, 11, 123
10, 68827, Control_c, 5, 11, 122
10, 68845, Control_c, 5, 11, 121
10, 68864, Control_c, 5, 11, 120
10, 68882, Control_c, 5, 11, 119
10, 68900, Control_c, 5, 11, 118
10, 68918, Control_c, 5, 11, 117
10, 68937, Control_c, 5, 11, 116
10, 68955, Control_c, 5, 11, 115
10, 68973, Control_c, 5, 11, 114
10, 68992, Control_c, 5, 11, 113
10, 69010, Control_c, 5, 11, 112
10, 69028, Control_c, 5, 11, 111
10, 69046, Control_c, 5, 11, 110
10, 69065, Control_c, 5, 11, 109
10, 69083, Control_c, 5, 11, 108
10, 69101, Control_c, 5, 11, 107
10, 69120, Control_c, 5, 11, 106
10, 69138, Control_c, 5, 11, 105
10, 69156, Control_c, 5, 11, 104
10, 69174, Control_c, 5, 11, 103
10, 69193, Control_c, 5, 11, 102
10, 69211, Control_c, 5, 11, 101
10, 69229, Control_c, 5, 11, 100
10, 69248, Control_c, 5, 11, 99
10, 69266, Control_c, 5, 11, 98
10, 69284, Control_c, 5, 11, 97
10, 69302, Control_c, 5, 11, 96
10, 69321, Control_c, 5, 11, 95
10, 69339, Control_c, 5, 11, 94
10, 69357, Control_c, 5, 11, 93
10, 69376, Control_c, 5, 11, 92
10, 69394, Control_c, 5, 11, 91
10, 69412, Control_c, 5, 11, 90
10, 69430, Control_c, 5, 11, 89
10, 69449, Control_c, 5, 11, 88
10, 69467, Control_c, 5, 11, 87
10, 69485, Control_c, 5, 11, 86
10, 69504, Note_on_c, 5, 60, 0
10, 69504, Note_on_c, 5, 67, 43
10, 69504, Control_c, 5, 11, 85
10, 69522, Control_c, 5, 11, 84
10, 69540, Control_c, 5, 11, 83
10, 69558, Control_c, 5, 11, 82
10, 69577, Control_c, 5, 11, 81
10, 69595, Control_c, 5, 11, 80
10, 69613, Control_c, 5, 11, 79
10, 69632, Control_c, 5, 11, 78
10, 69650, Control_c, 5, 11, 77
10, 69668, Control_c, 5, 11, 76
10, 69686, Control_c, 5, 11, 75
10, 69705, Control_c, 5, 11, 74
10, 69723, Control_c, 5, 11, 73
10, 69741, Control_c, 5, 11, 72
10, 69760, Control_c, 5, 11, 71
10, 69778, Control_c, 5, 11, 70
10, 69796, Control_c, 5, 11, 69
10, 69814, Control_c, 5, 11, 68
10, 69833, Control_c, 5, 11, 67
10, 69840, Note_on_c, 5, 67, 0
10, 69851, Control_c, 5, 11, 66
10, 69869, Control_c, 5, 11, 65
10, 69888, Note_on_c, 5, 64, 94
10, 69888, Control_c, 5, 11, 64
10, 69888, Control_c, 5, 11, 64
10, 69888, Note_on_c, 5, 68, 91
10, 69888, Note_on_c, 5, 61, 89
10, 69894, Control_c, 5, 11, 65
10, 69900, Control_c, 5, 11, 66
10, 69906, Control_c, 5, 11, 67
10, 69912, Control_c, 5, 11, 68
10, 69918, Control_c, 5, 11, 69
10, 69920, Note_on_c, 5, 64, 0
10, 69920, Note_on_c, 5, 68, 0
10, 69920, Note_on_c, 5, 61, 0
10, 69924, Control_c, 5, 11, 70
10, 69930, Control_c, 5, 11, 71
10, 69936, Control_c, 5, 11, 72
10, 69942, Control_c, 5, 11, 73
10, 69948, Control_c, 5, 11, 74
10, 69955, Control_c, 5, 11, 75
10, 69961, Control_c, 5, 11, 76
10, 69967, Control_c, 5, 11, 77
10, 69973, Control_c, 5, 11, 78
10, 69979, Control_c, 5, 11, 79
10, 69984, Note_on_c, 5, 61, 96
10, 69984, Note_on_c, 5, 68, 91
10, 69984, Note_on_c, 5, 64, 92
10, 69985, Control_c, 5, 11, 80
10, 69991, Control_c, 5, 11, 81
10, 69997, Control_c, 5, 11, 82
10, 70003, Control_c, 5, 11, 83
10, 70005, Note_on_c, 5, 61, 0
10, 70005, Note_on_c, 5, 68, 0
10, 70005, Note_on_c, 5, 64, 0
10, 70009, Control_c, 5, 11, 84
10, 70016, Note_on_c, 5, 64, 94
10, 70016, Control_c, 5, 11, 85
10, 70016, Note_on_c, 5, 61, 90
10, 70016, Note_on_c, 5, 68, 95
10, 70022, Control_c, 5, 11, 86
10, 70028, Control_c, 5, 11, 87
10, 70034, Control_c, 5, 11, 88
10, 70040, Control_c, 5, 11, 89
10, 70046, Control_c, 5, 11, 90
10, 70052, Control_c, 5, 11, 91
10, 70058, Control_c, 5, 11, 92
10, 70064, Control_c, 5, 11, 93
10, 70070, Control_c, 5, 11, 94
10, 70076, Control_c, 5, 11, 95
10, 70083, Control_c, 5, 11, 96
10, 70089, Control_c, 5, 11, 97
10, 70095, Control_c, 5, 11, 98
10, 70101, Control_c, 5, 11, 99
10, 70107, Control_c, 5, 11, 100
10, 70113, Control_c, 5, 11, 101
10, 70119, Control_c, 5, 11, 102
10, 70122, Note_on_c, 5, 64, 0
10, 70122, Note_on_c, 5, 61, 0
10, 70122, Note_on_c, 5, 68, 0
10, 70125, Control_c, 5, 11, 103
10, 70131, Control_c, 5, 11, 104
10, 70137, Control_c, 5, 11, 105
10, 70144, Note_on_c, 5, 68, 91
10, 70144, Note_on_c, 5, 64, 93
10, 70144, Control_c, 5, 11, 106
10, 70144, Note_on_c, 5, 61, 95
10, 70150, Control_c, 5, 11, 107
10, 70156, Control_c, 5, 11, 108
10, 70162, Control_c, 5, 11, 109
10, 70168, Control_c, 5, 11, 110
10, 70174, Control_c, 5, 11, 111
10, 70180, Control_c, 5, 11, 112
10, 70186, Note_on_c, 5, 68, 0
10, 70186, Note_on_c, 5, 64, 0
10, 70186, Note_on_c, 5, 61, 0
10, 70186, Control_c, 5, 11, 113
10, 70192, Control_c, 5, 11, 114
10, 70198, Control_c, 5, 11, 115
10, 70204, Control_c, 5, 11, 116
10, 70208, Note_on_c, 5, 61, 92
10, 70208, Note_on_c, 5, 64, 97
10, 70208, Note_on_c, 5, 68, 95
10, 70211, Control_c, 5, 11, 117
10, 70217, Control_c, 5, 11, 118
10, 70223, Control_c, 5, 11, 119
10, 70229, Control_c, 5, 11, 120
10, 70235, Control_c, 5, 11, 121
10, 70241, Control_c, 5, 11, 122
10, 70247, Control_c, 5, 11, 123
10, 70250, Note_on_c, 5, 61, 0
10, 70250, Note_on_c, 5, 64, 0
10, 70250, Note_on_c, 5, 68, 0
10, 70253, Control_c, 5, 11, 124
10, 70259, Control_c, 5, 11, 125
10, 70265, Control_c, 5, 11, 126
10, 70272, Control_c, 5, 11, 127
10, 72192, Control_c, 5, 11, 127
10, 72960, Note_on_c, 5, 59, 97
10, 73006, Note_on_c, 5, 59, 0
10, 73008, Note_on_c, 5, 65, 88
10, 73728, Control_c, 5, 11, 127
10, 73740, Control_c, 5, 11, 126
10, 73752, Control_c, 5, 11, 125
10, 73764, Control_c, 5, 11, 124
10, 73776, Control_c, 5, 11, 123
10, 73788, Control_c, 5, 11, 122
10, 73801, Control_c, 5, 11, 121
10, 73813, Control_c, 5, 11, 120
10, 73825, Control_c, 5, 11, 119
10, 73837, Control_c, 5, 11, 118
10, 73849, Control_c, 5, 11, 117
10, 73862, Control_c, 5, 11, 116
10, 73874, Control_c, 5, 11, 115
10, 73886, Control_c, 5, 11, 114
10, 73898, Control_c, 5, 11, 113
10, 73910, Control_c, 5, 11, 112
10, 73923, Control_c, 5, 11, 111
10, 73935, Control_c, 5, 11, 110
10, 73947, Control_c, 5, 11, 109
10, 73959, Control_c, 5, 11, 108
10, 73971, Control_c, 5, 11, 107
10, 73984, Control_c, 5, 11, 106
10, 73996, Control_c, 5, 11, 105
10, 74008, Control_c, 5, 11, 104
10, 74020, Control_c, 5, 11, 103
10, 74032, Control_c, 5, 11, 102
10, 74044, Control_c, 5, 11, 101
10, 74057, Control_c, 5, 11, 100
10, 74069, Control_c, 5, 11, 99
10, 74081, Control_c, 5, 11, 98
10, 74093, Control_c, 5, 11, 97
10, 74105, Control_c, 5, 11, 96
10, 74118, Control_c, 5, 11, 95
10, 74130, Control_c, 5, 11, 94
10, 74142, Control_c, 5, 11, 93
10, 74154, Control_c, 5, 11, 92
10, 74166, Control_c, 5, 11, 91
10, 74179, Control_c, 5, 11, 90
10, 74191, Control_c, 5, 11, 89
10, 74203, Control_c, 5, 11, 88
10, 74215, Control_c, 5, 11, 87
10, 74227, Control_c, 5, 11, 86
10, 74240, Control_c, 5, 11, 85
10, 74252, Control_c, 5, 11, 84
10, 74264, Control_c, 5, 11, 83
10, 74276, Control_c, 5, 11, 82
10, 74288, Control_c, 5, 11, 81
10, 74300, Control_c, 5, 11, 80
10, 74313, Control_c, 5, 11, 79
10, 74325, Control_c, 5, 11, 78
10, 74337, Control_c, 5, 11, 77
10, 74349, Control_c, 5, 11, 76
10, 74361, Control_c, 5, 11, 75
10, 74374, Control_c, 5, 11, 74
10, 74386, Control_c, 5, 11, 73
10, 74398, Control_c, 5, 11, 72
10, 74410, Control_c, 5, 11, 71
10, 74422, Control_c, 5, 11, 70
10, 74435, Control_c, 5, 11, 69
10, 74447, Control_c, 5, 11, 68
10, 74448, Note_on_c, 5, 65, 0
10, 74459, Control_c, 5, 11, 67
10, 74471, Control_c, 5, 11, 66
10, 74483, Control_c, 5, 11, 65
10, 74496, Control_c, 5, 11, 64
10, 74496, Note_on_c, 5, 59, 111
10, 74496, Control_c, 5, 11, 92
10, 74506, Control_c, 5, 11, 93
10, 74517, Control_c, 5, 11, 94
10, 74528, Control_c, 5, 11, 95
10, 74539, Control_c, 5, 11, 96
10, 74542, Note_on_c, 5, 59, 0
10, 74544, Note_on_c, 5, 65, 112
10, 74550, Control_c, 5, 11, 97
10, 74561, Control_c, 5, 11, 98
10, 74572, Control_c, 5, 11, 99
10, 74583, Control_c, 5, 11, 100
10, 74594, Control_c, 5, 11, 101
10, 74605, Control_c, 5, 11, 102
10, 74616, Control_c, 5, 11, 103
10, 74627, Control_c, 5, 11, 104
10, 74638, Control_c, 5, 11, 105
10, 74649, Control_c, 5, 11, 106
10, 74660, Control_c, 5, 11, 107
10, 74671, Control_c, 5, 11, 108
10, 74682, Control_c, 5, 11, 109
10, 74693, Control_c, 5, 11, 110
10, 74704, Control_c, 5, 11, 111
10, 74715, Control_c, 5, 11, 112
10, 74726, Control_c, 5, 11, 113
10, 74737, Control_c, 5, 11, 114
10, 74748, Control_c, 5, 11, 115
10, 74759, Control_c, 5, 11, 116
10, 74770, Control_c, 5, 11, 117
10, 74781, Control_c, 5, 11, 118
10, 74792, Control_c, 5, 11, 119
10, 74803, Control_c, 5, 11, 120
10, 74814, Control_c, 5, 11, 121
10, 74825, Control_c, 5, 11, 122
10, 74836, Control_c, 5, 11, 123
10, 74847, Control_c, 5, 11, 124
10, 74848, Note_on_c, 5, 65, 0
10, 74858, Control_c, 5, 11, 125
10, 74869, Control_c, 5, 11, 126
10, 74880, Control_c, 5, 11, 92
10, 74880, Control_c, 5, 11, 127
10, 74880, Note_on_c, 5, 63, 105
10, 74890, Control_c, 5, 11, 93
10, 74901, Control_c, 5, 11, 94
10, 74912, Control_c, 5, 11, 95
10, 74923, Control_c, 5, 11, 96
10, 74926, Note_on_c, 5, 63, 0
10, 74928, Note_on_c, 5, 65, 106
10, 74934, Control_c, 5, 11, 97
10, 74945, Control_c, 5, 11, 98
10, 74956, Control_c, 5, 11, 99
10, 74967, Control_c, 5, 11, 100
10, 74978, Control_c, 5, 11, 101
10, 74989, Control_c, 5, 11, 102
10, 75000, Control_c, 5, 11, 103
10, 75011, Control_c, 5, 11, 104
10, 75022, Control_c, 5, 11, 105
10, 75033, Control_c, 5, 11, 106
10, 75044, Control_c, 5, 11, 107
10, 75055, Control_c, 5, 11, 108
10, 75066, Control_c, 5, 11, 109
10, 75077, Control_c, 5, 11, 110
10, 75088, Control_c, 5, 11, 111
10, 75099, Control_c, 5, 11, 112
10, 75110, Control_c, 5, 11, 113
10, 75121, Control_c, 5, 11, 114
10, 75132, Control_c, 5, 11, 115
10, 75143, Control_c, 5, 11, 116
10, 75154, Control_c, 5, 11, 117
10, 75165, Control_c, 5, 11, 118
10, 75176, Control_c, 5, 11, 119
10, 75187, Control_c, 5, 11, 120
10, 75198, Control_c, 5, 11, 121
10, 75209, Control_c, 5, 11, 122
10, 75220, Control_c, 5, 11, 123
10, 75231, Control_c, 5, 11, 124
10, 75242, Control_c, 5, 11, 125
10, 75253, Control_c, 5, 11, 126
10, 75264, Control_c, 5, 11, 127
10, 75264, Control_c, 5, 11, 127
10, 75276, Control_c, 5, 11, 126
10, 75288, Control_c, 5, 11, 125
10, 75300, Control_c, 5, 11, 124
10, 75312, Control_c, 5, 11, 123
10, 75324, Control_c, 5, 11, 122
10, 75337, Control_c, 5, 11, 121
10, 75349, Control_c, 5, 11, 120
10, 75361, Control_c, 5, 11, 119
10, 75373, Control_c, 5, 11, 118
10, 75385, Control_c, 5, 11, 117
10, 75398, Control_c, 5, 11, 116
10, 75410, Control_c, 5, 11, 115
10, 75422, Control_c, 5, 11, 114
10, 75434, Control_c, 5, 11, 113
10, 75446, Control_c, 5, 11, 112
10, 75459, Control_c, 5, 11, 111
10, 75471, Control_c, 5, 11, 110
10, 75483, Control_c, 5, 11, 109
10, 75495, Control_c, 5, 11, 108
10, 75507, Control_c, 5, 11, 107
10, 75520, Control_c, 5, 11, 106
10, 75532, Control_c, 5, 11, 105
10, 75544, Control_c, 5, 11, 104
10, 75556, Control_c, 5, 11, 103
10, 75568, Control_c, 5, 11, 102
10, 75580, Control_c, 5, 11, 101
10, 75593, Control_c, 5, 11, 100
10, 75605, Control_c, 5, 11, 99
10, 75617, Control_c, 5, 11, 98
10, 75629, Control_c, 5, 11, 97
10, 75641, Control_c, 5, 11, 96
10, 75654, Control_c, 5, 11, 95
10, 75666, Control_c, 5, 11, 94
10, 75678, Control_c, 5, 11, 93
10, 75690, Control_c, 5, 11, 92
10, 75702, Control_c, 5, 11, 91
10, 75715, Control_c, 5, 11, 90
10, 75727, Control_c, 5, 11, 89
10, 75739, Control_c, 5, 11, 88
10, 75751, Control_c, 5, 11, 87
10, 75763, Control_c, 5, 11, 86
10, 75776, Control_c, 5, 11, 85
10, 75788, Control_c, 5, 11, 84
10, 75800, Control_c, 5, 11, 83
10, 75812, Control_c, 5, 11, 82
10, 75824, Control_c, 5, 11, 81
10, 75836, Control_c, 5, 11, 80
10, 75849, Control_c, 5, 11, 79
10, 75861, Control_c, 5, 11, 78
10, 75873, Control_c, 5, 11, 77
10, 75885, Control_c, 5, 11, 76
10, 75897, Control_c, 5, 11, 75
10, 75910, Control_c, 5, 11, 74
10, 75922, Control_c, 5, 11, 73
10, 75934, Control_c, 5, 11, 72
10, 75946, Control_c, 5, 11, 71
10, 75958, Control_c, 5, 11, 70
10, 75971, Control_c, 5, 11, 69
10, 75983, Control_c, 5, 11, 68
10, 75984, Note_on_c, 5, 65, 0
10, 75995, Control_c, 5, 11, 67
10, 76007, Control_c, 5, 11, 66
10, 76019, Control_c, 5, 11, 65
10, 76032, Control_c, 5, 11, 64
10, 76032, Control_c, 5, 11, 127
10, 79104, Control_c, 5, 11, 92
10, 79104, Note_on_c, 5, 59, 113
10, 79114, Control_c, 5, 11, 93
10, 79125, Control_c, 5, 11, 94
10, 79136, Control_c, 5, 11, 95
10, 79147, Control_c, 5, 11, 96
10, 79150, Note_on_c, 5, 59, 0
10, 79152, Note_on_c, 5, 65, 107
10, 79158, Control_c, 5, 11, 97
10, 79169, Control_c, 5, 11, 98
10, 79180, Control_c, 5, 11, 99
10, 79191, Control_c, 5, 11, 100
10, 79202, Control_c, 5, 11, 101
10, 79213, Control_c, 5, 11, 102
10, 79224, Control_c, 5, 11, 103
10, 79235, Control_c, 5, 11, 104
10, 79246, Control_c, 5, 11, 105
10, 79257, Control_c, 5, 11, 106
10, 79268, Control_c, 5, 11, 107
10, 79279, Control_c, 5, 11, 108
10, 79290, Control_c, 5, 11, 109
10, 79301, Control_c, 5, 11, 110
10, 79312, Control_c, 5, 11, 111
10, 79323, Control_c, 5, 11, 112
10, 79334, Control_c, 5, 11, 113
10, 79345, Control_c, 5, 11, 114
10, 79356, Control_c, 5, 11, 115
10, 79367, Control_c, 5, 11, 116
10, 79378, Control_c, 5, 11, 117
10, 79389, Control_c, 5, 11, 118
10, 79400, Control_c, 5, 11, 119
10, 79411, Control_c, 5, 11, 120
10, 79422, Control_c, 5, 11, 121
10, 79433, Control_c, 5, 11, 122
10, 79444, Control_c, 5, 11, 123
10, 79455, Control_c, 5, 11, 124
10, 79456, Note_on_c, 5, 65, 0
10, 79466, Control_c, 5, 11, 125
10, 79477, Control_c, 5, 11, 126
10, 79488, Control_c, 5, 11, 127
10, 79488, Control_c, 5, 11, 92
10, 79488, Note_on_c, 5, 63, 110
10, 79498, Control_c, 5, 11, 93
10, 79509, Control_c, 5, 11, 94
10, 79520, Control_c, 5, 11, 95
10, 79531, Control_c, 5, 11, 96
10, 79534, Note_on_c, 5, 63, 0
10, 79536, Note_on_c, 5, 65, 105
10, 79542, Control_c, 5, 11, 97
10, 79553, Control_c, 5, 11, 98
10, 79564, Control_c, 5, 11, 99
10, 79575, Control_c, 5, 11, 100
10, 79586, Control_c, 5, 11, 101
10, 79597, Control_c, 5, 11, 102
10, 79608, Control_c, 5, 11, 103
10, 79619, Control_c, 5, 11, 104
10, 79630, Control_c, 5, 11, 105
10, 79641, Control_c, 5, 11, 106
10, 79652, Control_c, 5, 11, 107
10, 79663, Control_c, 5, 11, 108
10, 79674, Control_c, 5, 11, 109
10, 79685, Control_c, 5, 11, 110
10, 79696, Control_c, 5, 11, 111
10, 79707, Control_c, 5, 11, 112
10, 79718, Control_c, 5, 11, 113
10, 79729, Control_c, 5, 11, 114
10, 79740, Control_c, 5, 11, 115
10, 79751, Control_c, 5, 11, 116
10, 79762, Control_c, 5, 11, 117
10, 79773, Control_c, 5, 11, 118
10, 79784, Control_c, 5, 11, 119
10, 79795, Control_c, 5, 11, 120
10, 79806, Control_c, 5, 11, 121
10, 79817, Control_c, 5, 11, 122
10, 79828, Control_c, 5, 11, 123
10, 79839, Control_c, 5, 11, 124
10, 79850, Control_c, 5, 11, 125
10, 79861, Control_c, 5, 11, 126
10, 79872, Control_c, 5, 11, 127
10, 79872, Control_c, 5, 11, 127
10, 79884, Control_c, 5, 11, 126
10, 79896, Control_c, 5, 11, 125
10, 79908, Control_c, 5, 11, 124
10, 79920, Control_c, 5, 11, 123
10, 79932, Control_c, 5, 11, 122
10, 79945, Control_c, 5, 11, 121
10, 79957, Control_c, 5, 11, 120
10, 79969, Control_c, 5, 11, 119
10, 79981, Control_c, 5, 11, 118
10, 79993, Control_c, 5, 11, 117
10, 80006, Control_c, 5, 11, 116
10, 80018, Control_c, 5, 11, 115
10, 80030, Control_c, 5, 11, 114
10, 80042, Control_c, 5, 11, 113
10, 80054, Control_c, 5, 11, 112
10, 80067, Control_c, 5, 11, 111
10, 80079, Control_c, 5, 11, 110
10, 80091, Control_c, 5, 11, 109
10, 80103, Control_c, 5, 11, 108
10, 80115, Control_c, 5, 11, 107
10, 80128, Control_c, 5, 11, 106
10, 80140, Control_c, 5, 11, 105
10, 80152, Control_c, 5, 11, 104
10, 80164, Control_c, 5, 11, 103
10, 80176, Control_c, 5, 11, 102
10, 80188, Control_c, 5, 11, 101
10, 80201, Control_c, 5, 11, 100
10, 80213, Control_c, 5, 11, 99
10, 80225, Control_c, 5, 11, 98
10, 80237, Control_c, 5, 11, 97
10, 80249, Control_c, 5, 11, 96
10, 80262, Control_c, 5, 11, 95
10, 80274, Control_c, 5, 11, 94
10, 80286, Control_c, 5, 11, 93
10, 80298, Control_c, 5, 11, 92
10, 80310, Control_c, 5, 11, 91
10, 80323, Control_c, 5, 11, 90
10, 80335, Control_c, 5, 11, 89
10, 80347, Control_c, 5, 11, 88
10, 80359, Control_c, 5, 11, 87
10, 80371, Control_c, 5, 11, 86
10, 80384, Control_c, 5, 11, 85
10, 80396, Control_c, 5, 11, 84
10, 80408, Control_c, 5, 11, 83
10, 80420, Control_c, 5, 11, 82
10, 80432, Control_c, 5, 11, 81
10, 80444, Control_c, 5, 11, 80
10, 80457, Control_c, 5, 11, 79
10, 80469, Control_c, 5, 11, 78
10, 80481, Control_c, 5, 11, 77
10, 80493, Control_c, 5, 11, 76
10, 80505, Control_c, 5, 11, 75
10, 80518, Control_c, 5, 11, 74
10, 80530, Control_c, 5, 11, 73
10, 80542, Control_c, 5, 11, 72
10, 80554, Control_c, 5, 11, 71
10, 80566, Control_c, 5, 11, 70
10, 80579, Control_c, 5, 11, 69
10, 80591, Control_c, 5, 11, 68
10, 80592, Note_on_c, 5, 65, 0
10, 80603, Control_c, 5, 11, 67
10, 80615, Control_c, 5, 11, 66
10, 80627, Control_c, 5, 11, 65
10, 80640, Control_c, 5, 11, 64
10, 83712, Control_c, 5, 11, 92
10, 83712, Note_on_c, 5, 59, 109
10, 83722, Control_c, 5, 11, 93
10, 83733, Control_c, 5, 11, 94
10, 83744, Control_c, 5, 11, 95
10, 83755, Control_c, 5, 11, 96
10, 83758, Note_on_c, 5, 59, 0
10, 83760, Note_on_c, 5, 65, 111
10, 83766, Control_c, 5, 11, 97
10, 83777, Control_c, 5, 11, 98
10, 83788, Control_c, 5, 11, 99
10, 83799, Control_c, 5, 11, 100
10, 83810, Control_c, 5, 11, 101
10, 83821, Control_c, 5, 11, 102
10, 83832, Control_c, 5, 11, 103
10, 83843, Control_c, 5, 11, 104
10, 83854, Control_c, 5, 11, 105
10, 83865, Control_c, 5, 11, 106
10, 83876, Control_c, 5, 11, 107
10, 83887, Control_c, 5, 11, 108
10, 83898, Control_c, 5, 11, 109
10, 83909, Control_c, 5, 11, 110
10, 83920, Control_c, 5, 11, 111
10, 83931, Control_c, 5, 11, 112
10, 83942, Control_c, 5, 11, 113
10, 83953, Control_c, 5, 11, 114
10, 83964, Control_c, 5, 11, 115
10, 83975, Control_c, 5, 11, 116
10, 83986, Control_c, 5, 11, 117
10, 83997, Control_c, 5, 11, 118
10, 84008, Control_c, 5, 11, 119
10, 84019, Control_c, 5, 11, 120
10, 84030, Control_c, 5, 11, 121
10, 84041, Control_c, 5, 11, 122
10, 84052, Control_c, 5, 11, 123
10, 84063, Control_c, 5, 11, 124
10, 84064, Note_on_c, 5, 65, 0
10, 84074, Control_c, 5, 11, 125
10, 84085, Control_c, 5, 11, 126
10, 84096, Control_c, 5, 11, 127
10, 84096, Note_on_c, 5, 63, 109
10, 84096, Control_c, 5, 11, 92
10, 84106, Control_c, 5, 11, 93
10, 84117, Control_c, 5, 11, 94
10, 84128, Control_c, 5, 11, 95
10, 84139, Control_c, 5, 11, 96
10, 84142, Note_on_c, 5, 63, 0
10, 84144, Note_on_c, 5, 65, 112
10, 84150, Control_c, 5, 11, 97
10, 84161, Control_c, 5, 11, 98
10, 84172, Control_c, 5, 11, 99
10, 84183, Control_c, 5, 11, 100
10, 84194, Control_c, 5, 11, 101
10, 84205, Control_c, 5, 11, 102
10, 84216, Control_c, 5, 11, 103
10, 84227, Control_c, 5, 11, 104
10, 84238, Control_c, 5, 11, 105
10, 84249, Control_c, 5, 11, 106
10, 84260, Control_c, 5, 11, 107
10, 84271, Control_c, 5, 11, 108
10, 84282, Control_c, 5, 11, 109
10, 84293, Control_c, 5, 11, 110
10, 84304, Control_c, 5, 11, 111
10, 84315, Control_c, 5, 11, 112
10, 84326, Control_c, 5, 11, 113
10, 84337, Control_c, 5, 11, 114
10, 84348, Control_c, 5, 11, 115
10, 84359, Control_c, 5, 11, 116
10, 84370, Control_c, 5, 11, 117
10, 84381, Control_c, 5, 11, 118
10, 84392, Control_c, 5, 11, 119
10, 84403, Control_c, 5, 11, 120
10, 84414, Control_c, 5, 11, 121
10, 84425, Control_c, 5, 11, 122
10, 84436, Control_c, 5, 11, 123
10, 84447, Control_c, 5, 11, 124
10, 84458, Control_c, 5, 11, 125
10, 84469, Control_c, 5, 11, 126
10, 84480, Control_c, 5, 11, 127
10, 84480, Control_c, 5, 11, 127
10, 84492, Control_c, 5, 11, 126
10, 84504, Control_c, 5, 11, 125
10, 84516, Control_c, 5, 11, 124
10, 84528, Control_c, 5, 11, 123
10, 84540, Control_c, 5, 11, 122
10, 84553, Control_c, 5, 11, 121
10, 84565, Control_c, 5, 11, 120
10, 84577, Control_c, 5, 11, 119
10, 84589, Control_c, 5, 11, 118
10, 84601, Control_c, 5, 11, 117
10, 84614, Control_c, 5, 11, 116
10, 84626, Control_c, 5, 11, 115
10, 84638, Control_c, 5, 11, 114
10, 84650, Control_c, 5, 11, 113
10, 84662, Control_c, 5, 11, 112
10, 84675, Control_c, 5, 11, 111
10, 84687, Control_c, 5, 11, 110
10, 84699, Control_c, 5, 11, 109
10, 84711, Control_c, 5, 11, 108
10, 84723, Control_c, 5, 11, 107
10, 84736, Control_c, 5, 11, 106
10, 84748, Control_c, 5, 11, 105
10, 84760, Control_c, 5, 11, 104
10, 84772, Control_c, 5, 11, 103
10, 84784, Control_c, 5, 11, 102
10, 84796, Control_c, 5, 11, 101
10, 84809, Control_c, 5, 11, 100
10, 84821, Control_c, 5, 11, 99
10, 84833, Control_c, 5, 11, 98
10, 84845, Control_c, 5, 11, 97
10, 84857, Control_c, 5, 11, 96
10, 84870, Control_c, 5, 11, 95
10, 84882, Control_c, 5, 11, 94
10, 84894, Control_c, 5, 11, 93
10, 84906, Control_c, 5, 11, 92
10, 84918, Control_c, 5, 11, 91
10, 84931, Control_c, 5, 11, 90
10, 84943, Control_c, 5, 11, 89
10, 84955, Control_c, 5, 11, 88
10, 84967, Control_c, 5, 11, 87
10, 84979, Control_c, 5, 11, 86
10, 84992, Control_c, 5, 11, 85
10, 85004, Control_c, 5, 11, 84
10, 85016, Control_c, 5, 11, 83
10, 85028, Control_c, 5, 11, 82
10, 85040, Control_c, 5, 11, 81
10, 85052, Control_c, 5, 11, 80
10, 85065, Control_c, 5, 11, 79
10, 85077, Control_c, 5, 11, 78
10, 85089, Control_c, 5, 11, 77
10, 85101, Control_c, 5, 11, 76
10, 85113, Control_c, 5, 11, 75
10, 85126, Control_c, 5, 11, 74
10, 85138, Control_c, 5, 11, 73
10, 85150, Control_c, 5, 11, 72
10, 85162, Control_c, 5, 11, 71
10, 85174, Control_c, 5, 11, 70
10, 85187, Control_c, 5, 11, 69
10, 85199, Control_c, 5, 11, 68
10, 85200, Note_on_c, 5, 65, 0
10, 85211, Control_c, 5, 11, 67
10, 85223, Control_c, 5, 11, 66
10, 85235, Control_c, 5, 11, 65
10, 85248, Control_c, 5, 11, 64
10, 85248, Note_on_c, 5, 59, 73
10, 85368, Note_on_c, 5, 59, 0
10, 85440, Note_on_c, 5, 61, 80
10, 85560, Note_on_c, 5, 61, 0
10, 85632, Note_on_c, 5, 65, 78
10, 85632, Control_c, 5, 11, 127
10, 86142, Note_on_c, 5, 65, 0
10, 86144, Note_on_c, 5, 63, 75
10, 86235, Note_on_c, 5, 63, 0
10, 86272, Note_on_c, 5, 61, 73
10, 86363, Note_on_c, 5, 61, 0
10, 86400, Note_on_c, 5, 59, 74
10, 86520, Note_on_c, 5, 59, 0
10, 86592, Note_on_c, 5, 57, 78
10, 86712, Note_on_c, 5, 57, 0
10, 86784, Note_on_c, 5, 55, 78
10, 86904, Note_on_c, 5, 55, 0
10, 86976, Note_on_c, 5, 59, 79
10, 87360, Note_on_c, 5, 59, 0
10, 87360, Note_on_c, 5, 61, 80
10, 87408, Note_on_c, 5, 61, 0
10, 87552, Note_on_c, 5, 65, 72
10, 87643, Note_on_c, 5, 65, 0
10, 87680, Note_on_c, 5, 63, 74
10, 87771, Note_on_c, 5, 63, 0
10, 87808, Note_on_c, 5, 61, 73
10, 87899, Note_on_c, 5, 61, 0
10, 87936, Note_on_c, 5, 58, 95
10, 87936, Note_on_c, 5, 65, 96
10, 87936, Control_c, 5, 11, 75
10, 87936, Note_on_c, 5, 60, 111
10, 87936, Note_on_c, 5, 68, 108
10, 87958, Control_c, 5, 11, 76
10, 87980, Control_c, 5, 11, 77
10, 88002, Control_c, 5, 11, 78
10, 88024, Control_c, 5, 11, 79
10, 88046, Control_c, 5, 11, 80
10, 88068, Control_c, 5, 11, 81
10, 88091, Control_c, 5, 11, 82
10, 88113, Control_c, 5, 11, 83
10, 88135, Control_c, 5, 11, 84
10, 88157, Control_c, 5, 11, 85
10, 88179, Control_c, 5, 11, 86
10, 88201, Control_c, 5, 11, 87
10, 88224, Control_c, 5, 11, 88
10, 88246, Control_c, 5, 11, 89
10, 88268, Control_c, 5, 11, 90
10, 88290, Control_c, 5, 11, 91
10, 88312, Control_c, 5, 11, 92
10, 88334, Control_c, 5, 11, 93
10, 88356, Control_c, 5, 11, 94
10, 88379, Control_c, 5, 11, 95
10, 88401, Control_c, 5, 11, 96
10, 88423, Control_c, 5, 11, 97
10, 88445, Control_c, 5, 11, 98
10, 88467, Control_c, 5, 11, 99
10, 88489, Control_c, 5, 11, 100
10, 88512, Control_c, 5, 11, 101
10, 88534, Control_c, 5, 11, 102
10, 88556, Control_c, 5, 11, 103
10, 88578, Control_c, 5, 11, 104
10, 88600, Control_c, 5, 11, 105
10, 88622, Control_c, 5, 11, 106
10, 88644, Control_c, 5, 11, 107
10, 88667, Control_c, 5, 11, 108
10, 88689, Control_c, 5, 11, 109
10, 88704, Note_on_c, 5, 60, 0
10, 88704, Note_on_c, 5, 68, 0
10, 88704, Note_on_c, 5, 67, 106
10, 88704, Note_on_c, 5, 61, 113
10, 88711, Control_c, 5, 11, 110
10, 88733, Control_c, 5, 11, 111
10, 88755, Control_c, 5, 11, 112
10, 88777, Control_c, 5, 11, 113
10, 88800, Control_c, 5, 11, 114
10, 88822, Control_c, 5, 11, 115
10, 88844, Control_c, 5, 11, 116
10, 88866, Control_c, 5, 11, 117
10, 88888, Control_c, 5, 11, 118
10, 88910, Control_c, 5, 11, 119
10, 88932, Control_c, 5, 11, 120
10, 88955, Control_c, 5, 11, 121
10, 88977, Control_c, 5, 11, 122
10, 88999, Control_c, 5, 11, 123
10, 89021, Control_c, 5, 11, 124
10, 89040, Note_on_c, 5, 58, 0
10, 89040, Note_on_c, 5, 65, 0
10, 89040, Note_on_c, 5, 67, 0
10, 89040, Note_on_c, 5, 61, 0
10, 89043, Control_c, 5, 11, 125
10, 89065, Control_c, 5, 11, 126
10, 89088, Note_on_c, 5, 59, 46
10, 89088, Control_c, 5, 11, 127
10, 89208, Note_on_c, 5, 59, 0
10, 89280, Note_on_c, 5, 61, 50
10, 89400, Note_on_c, 5, 61, 0
10, 89472, Note_on_c, 5, 65, 53
10, 89982, Note_on_c, 5, 65, 0
10, 89984, Note_on_c, 5, 63, 56
10, 90075, Note_on_c, 5, 63, 0
10, 90112, Note_on_c, 5, 61, 59
10, 90203, Note_on_c, 5, 61, 0
10, 90240, Note_on_c, 5, 59, 60
10, 90360, Note_on_c, 5, 59, 0
10, 90432, Note_on_c, 5, 57, 66
10, 90552, Note_on_c, 5, 57, 0
10, 90624, Note_on_c, 5, 55, 74
10, 90744, Note_on_c, 5, 55, 0
10, 90816, Note_on_c, 5, 59, 75
10, 91200, Note_on_c, 5, 59, 0
10, 91200, Note_on_c, 5, 61, 85
10, 91320, Note_on_c, 5, 61, 0
10, 91392, Note_on_c, 5, 65, 97
10, 91520, Note_on_c, 5, 65, 0
10, 91520, Note_on_c, 5, 63, 87
10, 91648, Note_on_c, 5, 63, 0
10, 91648, Note_on_c, 5, 61, 96
10, 91776, Note_on_c, 5, 61, 0
10, 91776, Note_on_c, 5, 64, 111
10, 91776, Note_on_c, 5, 60, 109
10, 92448, Note_on_c, 5, 64, 0
10, 92448, Note_on_c, 5, 60, 0
10, 92448, Note_on_c, 5, 65, 106
10, 92448, Note_on_c, 5, 61, 112
10, 92544, Note_on_c, 5, 65, 0
10, 92544, Note_on_c, 5, 61, 0
10, 92544, Note_on_c, 5, 62, 104
10, 92544, Note_on_c, 5, 66, 104
10, 93216, Note_on_c, 5, 62, 0
10, 93216, Note_on_c, 5, 66, 0
10, 93216, Note_on_c, 5, 63, 111
10, 93216, Note_on_c, 5, 67, 110
10, 93312, Note_on_c, 5, 63, 0
10, 93312, Note_on_c, 5, 67, 0
10, 93312, Note_on_c, 5, 68, 107
10, 93312, Note_on_c, 5, 64, 113
10, 93600, Note_on_c, 5, 68, 0
10, 93600, Note_on_c, 5, 64, 0
10, 93600, Note_on_c, 5, 69, 112
10, 93600, Note_on_c, 5, 65, 113
10, 93696, Note_on_c, 5, 69, 0
10, 93696, Note_on_c, 5, 65, 0
10, 93696, Note_on_c, 5, 70, 113
10, 93696, Note_on_c, 5, 66, 109
10, 95184, Note_on_c, 5, 70, 0
10, 95184, Note_on_c, 5, 66, 0
10, 96768, Note_on_c, 5, 66, 78
10, 96768, Note_on_c, 5, 62, 72
10, 96768, Note_on_c, 5, 70, 74
10, 97056, Note_on_c, 5, 66, 0
10, 97056, Note_on_c, 5, 62, 0
10, 97056, Note_on_c, 5, 70, 0
10, 97056, Note_on_c, 5, 65, 79
10, 97056, Note_on_c, 5, 61, 77
10, 97056, Note_on_c, 5, 69, 78
10, 97152, Note_on_c, 5, 65, 0
10, 97152, Note_on_c, 5, 61, 0
10, 97152, Note_on_c, 5, 69, 0
10, 97152, Note_on_c, 5, 60, 78
10, 97152, Note_on_c, 5, 64, 72
10, 97152, Note_on_c, 5, 68, 78
10, 97824, Note_on_c, 5, 60, 0
10, 97824, Note_on_c, 5, 64, 0
10, 97824, Note_on_c, 5, 68, 0
10, 97824, Note_on_c, 5, 59, 61
10, 97824, Note_on_c, 5, 67, 57
10, 97824, Note_on_c, 5, 63, 59
10, 97920, Note_on_c, 5, 59, 0
10, 97920, Note_on_c, 5, 67, 0
10, 97920, Note_on_c, 5, 63, 0
10, 97920, Note_on_c, 5, 66, 59
10, 97920, Note_on_c, 5, 58, 57
10, 97920, Note_on_c, 5, 62, 56
10, 98208, Note_on_c, 5, 66, 0
10, 98208, Note_on_c, 5, 58, 0
10, 98208, Note_on_c, 5, 62, 0
10, 98208, Note_on_c, 5, 61, 48
10, 98208, Note_on_c, 5, 65, 50
10, 98208, Note_on_c, 5, 57, 47
10, 98304, Note_on_c, 5, 61, 0
10, 98304, Note_on_c, 5, 65, 0
10, 98304, Note_on_c, 5, 57, 0
10, 98304, Note_on_c, 5, 60, 45
10, 98304, Note_on_c, 5, 56, 43
10, 98304, Note_on_c, 5, 64, 44
10, 98464, Note_on_c, 5, 60, 0
10, 98464, Note_on_c, 5, 56, 0
10, 98464, Note_on_c, 5, 64, 0
10, 102144, Control_c, 5, 11, 127
10, 102912, Note_on_c, 5, 51, 43
10, 102912, Note_on_c, 5, 58, 40
10, 102912, Note_on_c, 5, 54, 42
10, 102912, Note_on_c, 5, 63, 50
10, 103168, Note_on_c, 5, 51, 0
10, 103168, Note_on_c, 5, 58, 0
10, 103168, Note_on_c, 5, 54, 0
10, 103168, Note_on_c, 5, 63, 0
10, 103168, Note_on_c, 5, 54, 50
10, 103168, Note_on_c, 5, 63, 47
10, 103168, Note_on_c, 5, 51, 48
10, 103168, Note_on_c, 5, 58, 49
10, 103424, Note_on_c, 5, 54, 0
10, 103424, Note_on_c, 5, 63, 0
10, 103424, Note_on_c, 5, 51, 0
10, 103424, Note_on_c, 5, 58, 0
10, 103424, Note_on_c, 5, 51, 44
10, 103424, Note_on_c, 5, 58, 42
10, 103424, Note_on_c, 5, 63, 47
10, 103424, Note_on_c, 5, 54, 49
10, 103680, Note_on_c, 5, 51, 0
10, 103680, Note_on_c, 5, 58, 0
10, 103680, Note_on_c, 5, 63, 0
10, 103680, Note_on_c, 5, 54, 0
10, 103680, Note_on_c, 5, 51, 49
10, 103680, Note_on_c, 5, 54, 40
10, 103680, Note_on_c, 5, 63, 46
10, 103680, Note_on_c, 5, 58, 45
10, 104064, Note_on_c, 5, 51, 0
10, 104064, Note_on_c, 5, 54, 0
10, 104064, Note_on_c, 5, 63, 0
10, 104064, Note_on_c, 5, 58, 0
10, 104064, Note_on_c, 5, 54, 42
10, 104064, Note_on_c, 5, 51, 46
10, 104064, Note_on_c, 5, 58, 46
10, 105168, Note_on_c, 5, 54, 0
10, 105168, Note_on_c, 5, 51, 0
10, 105168, Note_on_c, 5, 58, 0
10, 105216, Note_on_c, 5, 63, 64
10, 105216, Note_on_c, 5, 54, 58
10, 105216, Control_c, 5, 11, 92
10, 105216, Note_on_c, 5, 58, 62
10, 105237, Control_c, 5, 11, 93
10, 105259, Control_c, 5, 11, 94
10, 105281, Control_c, 5, 11, 95
10, 105303, Control_c, 5, 11, 96
10, 105325, Control_c, 5, 11, 97
10, 105347, Control_c, 5, 11, 98
10, 105369, Control_c, 5, 11, 99
10, 105391, Control_c, 5, 11, 100
10, 105413, Control_c, 5, 11, 101
10, 105435, Control_c, 5, 11, 102
10, 105457, Control_c, 5, 11, 103
10, 105479, Control_c, 5, 11, 104
10, 105501, Control_c, 5, 11, 105
10, 105523, Control_c, 5, 11, 106
10, 105545, Control_c, 5, 11, 107
10, 105567, Control_c, 5, 11, 108
10, 105589, Control_c, 5, 11, 109
10, 105610, Control_c, 5, 11, 110
10, 105632, Control_c, 5, 11, 111
10, 105654, Control_c, 5, 11, 112
10, 105676, Control_c, 5, 11, 113
10, 105698, Control_c, 5, 11, 114
10, 105720, Control_c, 5, 11, 115
10, 105742, Control_c, 5, 11, 116
10, 105764, Control_c, 5, 11, 117
10, 105786, Control_c, 5, 11, 118
10, 105808, Control_c, 5, 11, 119
10, 105830, Control_c, 5, 11, 120
10, 105852, Control_c, 5, 11, 121
10, 105874, Control_c, 5, 11, 122
10, 105896, Control_c, 5, 11, 123
10, 105918, Control_c, 5, 11, 124
10, 105940, Control_c, 5, 11, 125
10, 105962, Control_c, 5, 11, 126
10, 105984, Note_on_c, 5, 63, 0
10, 105984, Note_on_c, 5, 54, 0
10, 105984, Note_on_c, 5, 58, 0
10, 105984, Control_c, 5, 11, 127
10, 105984, Note_on_c, 5, 51, 30
10, 105984, Note_on_c, 5, 63, 32
10, 105984, Note_on_c, 5, 66, 30
10, 105984, Note_on_c, 5, 58, 35
10, 107472, Note_on_c, 5, 51, 0
10, 107472, Note_on_c, 5, 63, 0
10, 107472, Note_on_c, 5, 66, 0
10, 107472, Note_on_c, 5, 58, 0
10, 107520, Note_on_c, 5, 63, 41
10, 107520, Note_on_c, 5, 58, 49
10, 107520, Note_on_c, 5, 51, 42
10, 107520, Note_on_c, 5, 54, 47
10, 107776, Note_on_c, 5, 63, 0
10, 107776, Note_on_c, 5, 58, 0
10, 107776, Note_on_c, 5, 51, 0
10, 107776, Note_on_c, 5, 54, 0
10, 107776, Note_on_c, 5, 51, 49
10, 107776, Note_on_c, 5, 54, 41
10, 107776, Note_on_c, 5, 63, 43
10, 107776, Note_on_c, 5, 58, 49
10, 108032, Note_on_c, 5, 51, 0
10, 108032, Note_on_c, 5, 54, 0
10, 108032, Note_on_c, 5, 63, 0
10, 108032, Note_on_c, 5, 58, 0
10, 108032, Note_on_c, 5, 63, 49
10, 108032, Note_on_c, 5, 54, 45
10, 108032, Note_on_c, 5, 51, 50
10, 108032, Note_on_c, 5, 58, 40
10, 108288, Note_on_c, 5, 63, 0
10, 108288, Note_on_c, 5, 54, 0
10, 108288, Note_on_c, 5, 51, 0
10, 108288, Note_on_c, 5, 58, 0
10, 108288, Note_on_c, 5, 51, 42
10, 108288, Note_on_c, 5, 58, 45
10, 108288, Note_on_c, 5, 63, 45
10, 108288, Note_on_c, 5, 54, 42
10, 108672, Note_on_c, 5, 51, 0
10, 108672, Note_on_c, 5, 58, 0
10, 108672, Note_on_c, 5, 63, 0
10, 108672, Note_on_c, 5, 54, 0
10, 108672, Note_on_c, 5, 51, 57
10, 108672, Control_c, 5, 11, 92
10, 108672, Note_on_c, 5, 54, 62
10, 108672, Note_on_c, 5, 58, 63
10, 109056, Control_c, 5, 11, 92
10, 109077, Control_c, 5, 11, 93
10, 109099, Control_c, 5, 11, 94
10, 109121, Control_c, 5, 11, 95
10, 109143, Control_c, 5, 11, 96
10, 109165, Control_c, 5, 11, 97
10, 109187, Control_c, 5, 11, 98
10, 109209, Control_c, 5, 11, 99
10, 109231, Control_c, 5, 11, 100
10, 109253, Control_c, 5, 11, 101
10, 109275, Control_c, 5, 11, 102
10, 109297, Control_c, 5, 11, 103
10, 109319, Control_c, 5, 11, 104
10, 109341, Control_c, 5, 11, 105
10, 109363, Control_c, 5, 11, 106
10, 109385, Control_c, 5, 11, 107
10, 109407, Control_c, 5, 11, 108
10, 109429, Control_c, 5, 11, 109
10, 109450, Control_c, 5, 11, 110
10, 109472, Control_c, 5, 11, 111
10, 109494, Control_c, 5, 11, 112
10, 109516, Control_c, 5, 11, 113
10, 109538, Control_c, 5, 11, 114
10, 109560, Control_c, 5, 11, 115
10, 109582, Control_c, 5, 11, 116
10, 109604, Control_c, 5, 11, 117
10, 109626, Control_c, 5, 11, 118
10, 109648, Control_c, 5, 11, 119
10, 109670, Control_c, 5, 11, 120
10, 109692, Control_c, 5, 11, 121
10, 109714, Control_c, 5, 11, 122
10, 109736, Control_c, 5, 11, 123
10, 109758, Control_c, 5, 11, 124
10, 109776, Note_on_c, 5, 51, 0
10, 109776, Note_on_c, 5, 54, 0
10, 109776, Note_on_c, 5, 58, 0
10, 109780, Control_c, 5, 11, 125
10, 109802, Control_c, 5, 11, 126
10, 109824, Control_c, 5, 11, 127
10, 109824, Note_on_c, 5, 54, 58
10, 109824, Note_on_c, 5, 63, 56
10, 109824, Note_on_c, 5, 58, 65
10, 109836, Control_c, 5, 11, 126
10, 109848, Control_c, 5, 11, 125
10, 109860, Control_c, 5, 11, 124
10, 109872, Control_c, 5, 11, 123
10, 109884, Control_c, 5, 11, 122
10, 109897, Control_c, 5, 11, 121
10, 109909, Control_c, 5, 11, 120
10, 109921, Control_c, 5, 11, 119
10, 109933, Control_c, 5, 11, 118
10, 109945, Control_c, 5, 11, 117
10, 109958, Control_c, 5, 11, 116
10, 109970, Control_c, 5, 11, 115
10, 109982, Control_c, 5, 11, 114
10, 109994, Control_c, 5, 11, 113
10, 110006, Control_c, 5, 11, 112
10, 110019, Control_c, 5, 11, 111
10, 110031, Control_c, 5, 11, 110
10, 110043, Control_c, 5, 11, 109
10, 110055, Control_c, 5, 11, 108
10, 110067, Control_c, 5, 11, 107
10, 110080, Control_c, 5, 11, 106
10, 110092, Control_c, 5, 11, 105
10, 110104, Control_c, 5, 11, 104
10, 110116, Control_c, 5, 11, 103
10, 110128, Control_c, 5, 11, 102
10, 110140, Control_c, 5, 11, 101
10, 110153, Control_c, 5, 11, 100
10, 110165, Control_c, 5, 11, 99
10, 110177, Control_c, 5, 11, 98
10, 110189, Control_c, 5, 11, 97
10, 110201, Control_c, 5, 11, 96
10, 110214, Control_c, 5, 11, 95
10, 110226, Control_c, 5, 11, 94
10, 110238, Control_c, 5, 11, 93
10, 110250, Control_c, 5, 11, 92
10, 110262, Control_c, 5, 11, 91
10, 110275, Control_c, 5, 11, 90
10, 110287, Control_c, 5, 11, 89
10, 110299, Control_c, 5, 11, 88
10, 110311, Control_c, 5, 11, 87
10, 110323, Control_c, 5, 11, 86
10, 110336, Control_c, 5, 11, 85
10, 110348, Control_c, 5, 11, 84
10, 110360, Control_c, 5, 11, 83
10, 110372, Control_c, 5, 11, 82
10, 110384, Control_c, 5, 11, 81
10, 110396, Control_c, 5, 11, 80
10, 110409, Control_c, 5, 11, 79
10, 110421, Control_c, 5, 11, 78
10, 110433, Control_c, 5, 11, 77
10, 110445, Control_c, 5, 11, 76
10, 110457, Control_c, 5, 11, 75
10, 110470, Control_c, 5, 11, 74
10, 110482, Control_c, 5, 11, 73
10, 110494, Control_c, 5, 11, 72
10, 110506, Control_c, 5, 11, 71
10, 110518, Control_c, 5, 11, 70
10, 110531, Control_c, 5, 11, 69
10, 110543, Control_c, 5, 11, 68
10, 110555, Control_c, 5, 11, 67
10, 110567, Control_c, 5, 11, 66
10, 110579, Control_c, 5, 11, 65
10, 110592, Note_on_c, 5, 54, 0
10, 110592, Note_on_c, 5, 63, 0
10, 110592, Note_on_c, 5, 58, 0
10, 110592, Note_on_c, 5, 51, 30
10, 110592, Note_on_c, 5, 63, 30
10, 110592, Note_on_c, 5, 66, 34
10, 110592, Control_c, 5, 11, 64
10, 110592, Control_c, 5, 11, 127
10, 110592, Note_on_c, 5, 58, 26
10, 110616, Control_c, 5, 11, 126
10, 110640, Control_c, 5, 11, 125
10, 110665, Control_c, 5, 11, 124
10, 110689, Control_c, 5, 11, 123
10, 110713, Control_c, 5, 11, 122
10, 110738, Control_c, 5, 11, 121
10, 110762, Control_c, 5, 11, 120
10, 110787, Control_c, 5, 11, 119
10, 110811, Control_c, 5, 11, 118
10, 110835, Control_c, 5, 11, 117
10, 110860, Control_c, 5, 11, 116
10, 110884, Control_c, 5, 11, 115
10, 110908, Control_c, 5, 11, 114
10, 110933, Control_c, 5, 11, 113
10, 110957, Control_c, 5, 11, 112
10, 110982, Control_c, 5, 11, 111
10, 111006, Control_c, 5, 11, 110
10, 111030, Control_c, 5, 11, 109
10, 111055, Control_c, 5, 11, 108
10, 111079, Control_c, 5, 11, 107
10, 111104, Control_c, 5, 11, 106
10, 111128, Control_c, 5, 11, 105
10, 111152, Control_c, 5, 11, 104
10, 111177, Control_c, 5, 11, 103
10, 111201, Control_c, 5, 11, 102
10, 111225, Control_c, 5, 11, 101
10, 111250, Control_c, 5, 11, 100
10, 111274, Control_c, 5, 11, 99
10, 111299, Control_c, 5, 11, 98
10, 111323, Control_c, 5, 11, 97
10, 111347, Control_c, 5, 11, 96
10, 111372, Control_c, 5, 11, 95
10, 111396, Control_c, 5, 11, 94
10, 111420, Control_c, 5, 11, 93
10, 111445, Control_c, 5, 11, 92
10, 111469, Control_c, 5, 11, 91
10, 111494, Control_c, 5, 11, 90
10, 111518, Control_c, 5, 11, 89
10, 111542, Control_c, 5, 11, 88
10, 111567, Control_c, 5, 11, 87
10, 111591, Control_c, 5, 11, 86
10, 111616, Control_c, 5, 11, 85
10, 111640, Control_c, 5, 11, 84
10, 111664, Control_c, 5, 11, 83
10, 111689, Control_c, 5, 11, 82
10, 111713, Control_c, 5, 11, 81
10, 111737, Control_c, 5, 11, 80
10, 111762, Control_c, 5, 11, 79
10, 111786, Control_c, 5, 11, 78
10, 111811, Control_c, 5, 11, 77
10, 111835, Control_c, 5, 11, 76
10, 111859, Control_c, 5, 11, 75
10, 111884, Control_c, 5, 11, 74
10, 111908, Control_c, 5, 11, 73
10, 111932, Control_c, 5, 11, 72
10, 111957, Control_c, 5, 11, 71
10, 111981, Control_c, 5, 11, 70
10, 112006, Control_c, 5, 11, 69
10, 112030, Control_c, 5, 11, 68
10, 112054, Control_c, 5, 11, 67
10, 112079, Control_c, 5, 11, 66
10, 112080, Note_on_c, 5, 51, 0
10, 112080, Note_on_c, 5, 63, 0
10, 112080, Note_on_c, 5, 66, 0
10, 112080, Note_on_c, 5, 58, 0
10, 112103, Control_c, 5, 11, 65
10, 112128, Note_on_c, 5, 58, 76
10, 112128, Control_c, 5, 11, 64
10, 112128, Control_c, 5, 11, 75
10, 112896, Control_c, 5, 11, 75
10, 112910, Control_c, 5, 11, 76
10, 112925, Control_c, 5, 11, 77
10, 112940, Control_c, 5, 11, 78
10, 112955, Control_c, 5, 11, 79
10, 112969, Control_c, 5, 11, 80
10, 112984, Control_c, 5, 11, 81
10, 112999, Control_c, 5, 11, 82
10, 113014, Control_c, 5, 11, 83
10, 113028, Control_c, 5, 11, 84
10, 113043, Control_c, 5, 11, 85
10, 113058, Control_c, 5, 11, 86
10, 113073, Control_c, 5, 11, 87
10, 113088, Control_c, 5, 11, 88
10, 113102, Control_c, 5, 11, 89
10, 113117, Control_c, 5, 11, 90
10, 113132, Control_c, 5, 11, 91
10, 113147, Control_c, 5, 11, 92
10, 113161, Control_c, 5, 11, 93
10, 113176, Control_c, 5, 11, 94
10, 113191, Control_c, 5, 11, 95
10, 113206, Control_c, 5, 11, 96
10, 113220, Control_c, 5, 11, 97
10, 113235, Control_c, 5, 11, 98
10, 113250, Control_c, 5, 11, 99
10, 113265, Control_c, 5, 11, 100
10, 113280, Control_c, 5, 11, 101
10, 113294, Control_c, 5, 11, 102
10, 113309, Control_c, 5, 11, 103
10, 113324, Control_c, 5, 11, 104
10, 113339, Control_c, 5, 11, 105
10, 113353, Control_c, 5, 11, 106
10, 113368, Control_c, 5, 11, 107
10, 113383, Control_c, 5, 11, 108
10, 113398, Control_c, 5, 11, 109
10, 113412, Control_c, 5, 11, 110
10, 113427, Control_c, 5, 11, 111
10, 113442, Control_c, 5, 11, 112
10, 113457, Control_c, 5, 11, 113
10, 113472, Control_c, 5, 11, 114
10, 113486, Control_c, 5, 11, 115
10, 113501, Control_c, 5, 11, 116
10, 113516, Control_c, 5, 11, 117
10, 113531, Control_c, 5, 11, 118
10, 113545, Control_c, 5, 11, 119
10, 113560, Control_c, 5, 11, 120
10, 113575, Control_c, 5, 11, 121
10, 113590, Control_c, 5, 11, 122
10, 113604, Control_c, 5, 11, 123
10, 113619, Control_c, 5, 11, 124
10, 113634, Control_c, 5, 11, 125
10, 113649, Control_c, 5, 11, 126
10, 113664, Control_c, 5, 11, 127
10, 113856, Note_on_c, 5, 58, 0
10, 113856, Note_on_c, 5, 56, 76
10, 114048, Note_on_c, 5, 56, 0
10, 114048, Note_on_c, 5, 54, 77
10, 114240, Note_on_c, 5, 54, 0
10, 114240, Note_on_c, 5, 51, 78
10, 114400, Note_on_c, 5, 51, 0
10, 115200, Note_on_c, 5, 60, 44
10, 115392, Note_on_c, 5, 60, 0
10, 115392, Note_on_c, 5, 61, 45
10, 115584, Note_on_c, 5, 61, 0
10, 115584, Note_on_c, 5, 58, 45
10, 115675, Note_on_c, 5, 58, 0
10, 115712, Note_on_c, 5, 56, 45
10, 115803, Note_on_c, 5, 56, 0
10, 115840, Note_on_c, 5, 58, 58
10, 115968, Note_on_c, 5, 66, 41
10, 115968, Control_c, 5, 11, 127
10, 115968, Note_on_c, 5, 54, 48
10, 115980, Control_c, 5, 11, 126
10, 115992, Control_c, 5, 11, 125
10, 116004, Control_c, 5, 11, 124
10, 116016, Control_c, 5, 11, 123
10, 116028, Control_c, 5, 11, 122
10, 116041, Control_c, 5, 11, 121
10, 116053, Control_c, 5, 11, 120
10, 116065, Control_c, 5, 11, 119
10, 116077, Control_c, 5, 11, 118
10, 116089, Control_c, 5, 11, 117
10, 116102, Control_c, 5, 11, 116
10, 116114, Control_c, 5, 11, 115
10, 116126, Control_c, 5, 11, 114
10, 116128, Note_on_c, 5, 58, 0
10, 116138, Control_c, 5, 11, 113
10, 116150, Control_c, 5, 11, 112
10, 116160, Note_on_c, 5, 57, 56
10, 116163, Control_c, 5, 11, 111
10, 116175, Control_c, 5, 11, 110
10, 116187, Control_c, 5, 11, 109
10, 116199, Control_c, 5, 11, 108
10, 116211, Control_c, 5, 11, 107
10, 116224, Control_c, 5, 11, 106
10, 116236, Control_c, 5, 11, 105
10, 116248, Control_c, 5, 11, 104
10, 116260, Control_c, 5, 11, 103
10, 116272, Control_c, 5, 11, 102
10, 116284, Control_c, 5, 11, 101
10, 116297, Control_c, 5, 11, 100
10, 116309, Control_c, 5, 11, 99
10, 116320, Note_on_c, 5, 57, 0
10, 116321, Control_c, 5, 11, 98
10, 116333, Control_c, 5, 11, 97
10, 116345, Control_c, 5, 11, 96
10, 116352, Note_on_c, 5, 66, 0
10, 116352, Note_on_c, 5, 54, 0
10, 116352, Note_on_c, 5, 56, 63
10, 116352, Note_on_c, 5, 53, 49
10, 116352, Note_on_c, 5, 58, 46
10, 116358, Control_c, 5, 11, 95
10, 116370, Control_c, 5, 11, 94
10, 116382, Control_c, 5, 11, 93
10, 116394, Control_c, 5, 11, 92
10, 116406, Control_c, 5, 11, 91
10, 116419, Control_c, 5, 11, 90
10, 116431, Control_c, 5, 11, 89
10, 116443, Control_c, 5, 11, 88
10, 116455, Control_c, 5, 11, 87
10, 116467, Control_c, 5, 11, 86
10, 116480, Control_c, 5, 11, 85
10, 116492, Control_c, 5, 11, 84
10, 116504, Control_c, 5, 11, 83
10, 116512, Note_on_c, 5, 56, 0
10, 116516, Control_c, 5, 11, 82
10, 116528, Control_c, 5, 11, 81
10, 116540, Control_c, 5, 11, 80
10, 116544, Note_on_c, 5, 53, 0
10, 116544, Note_on_c, 5, 58, 0
10, 116544, Note_on_c, 5, 55, 61
10, 116544, Note_on_c, 5, 52, 40
10, 116544, Note_on_c, 5, 61, 48
10, 116553, Control_c, 5, 11, 79
10, 116565, Control_c, 5, 11, 78
10, 116577, Control_c, 5, 11, 77
10, 116589, Control_c, 5, 11, 76
10, 116601, Control_c, 5, 11, 75
10, 116614, Control_c, 5, 11, 74
10, 116626, Control_c, 5, 11, 73
10, 116638, Control_c, 5, 11, 72
10, 116650, Control_c, 5, 11, 71
10, 116662, Control_c, 5, 11, 70
10, 116675, Control_c, 5, 11, 69
10, 116687, Control_c, 5, 11, 68
10, 116699, Control_c, 5, 11, 67
10, 116704, Note_on_c, 5, 55, 0
10, 116704, Note_on_c, 5, 52, 0
10, 116704, Note_on_c, 5, 61, 0
10, 116711, Control_c, 5, 11, 66
10, 116723, Control_c, 5, 11, 65
10, 116736, Control_c, 5, 11, 64
10, 117504, Control_c, 5, 11, 127
10, 119808, Note_on_c, 5, 32, 31
10, 124368, Note_on_c, 5, 32, 0
10, 124416, Note_on_c, 5, 32, 30
10, 124416, Note_on_c, 5, 58, 26
10, 125904, Note_on_c, 5, 32, 0
10, 125904, Note_on_c, 5, 58, 0
10, 125952, Note_on_c, 5, 59, 33
10, 125952, Note_on_c, 5, 32, 32
10, 128976, Note_on_c, 5, 59, 0
10, 128976, Note_on_c, 5, 32, 0
10, 129024, Note_on_c, 5, 63, 33
10, 129024, Control_c, 5, 11, 127
10, 129024, Note_on_c, 5, 54, 35
10, 129024, Note_on_c, 5, 57, 29
10, 129069, Control_c, 5, 11, 126
10, 129114, Control_c, 5, 11, 125
10, 129159, Control_c, 5, 11, 124
10, 129204, Control_c, 5, 11, 123
10, 129249, Control_c, 5, 11, 122
10, 129295, Control_c, 5, 11, 121
10, 129340, Control_c, 5, 11, 120
10, 129385, Control_c, 5, 11, 119
10, 129408, Note_on_c, 5, 63, 0
10, 129408, Note_on_c, 5, 62, 31
10, 129430, Control_c, 5, 11, 118
10, 129475, Control_c, 5, 11, 117
10, 129520, Control_c, 5, 11, 116
10, 129566, Control_c, 5, 11, 115
10, 129611, Control_c, 5, 11, 114
10, 129656, Control_c, 5, 11, 113
10, 129701, Control_c, 5, 11, 112
10, 129744, Note_on_c, 5, 54, 0
10, 129746, Control_c, 5, 11, 111
10, 129792, Note_on_c, 5, 62, 0
10, 129792, Note_on_c, 5, 61, 32
10, 129792, Control_c, 5, 11, 110
10, 129837, Control_c, 5, 11, 109
10, 129882, Control_c, 5, 11, 108
10, 129927, Control_c, 5, 11, 107
10, 129972, Control_c, 5, 11, 106
10, 130017, Control_c, 5, 11, 105
10, 130063, Control_c, 5, 11, 104
10, 130108, Control_c, 5, 11, 103
10, 130153, Control_c, 5, 11, 102
10, 130176, Note_on_c, 5, 61, 0
10, 130176, Note_on_c, 5, 62, 26
10, 130198, Control_c, 5, 11, 101
10, 130243, Control_c, 5, 11, 100
10, 130288, Control_c, 5, 11, 99
10, 130334, Control_c, 5, 11, 98
10, 130379, Control_c, 5, 11, 97
10, 130424, Control_c, 5, 11, 96
10, 130469, Control_c, 5, 11, 95
10, 130512, Note_on_c, 5, 57, 0
10, 130512, Note_on_c, 5, 62, 0
10, 130514, Control_c, 5, 11, 94
10, 130560, Control_c, 5, 11, 93
10, 130560, Note_on_c, 5, 57, 28
10, 130560, Note_on_c, 5, 54, 30
10, 132048, Note_on_c, 5, 57, 0
10, 132048, Note_on_c, 5, 54, 0
10, 132096, Control_c, 5, 11, 127
10, 132096, Note_on_c, 5, 32, 26
10, 133632, Note_on_c, 5, 58, 35
10, 135120, Note_on_c, 5, 32, 0
10, 135120, Note_on_c, 5, 58, 0
10, 135168, Note_on_c, 5, 32, 28
10, 135168, Note_on_c, 5, 59, 32
10, 136656, Note_on_c, 5, 59, 0
10, 136704, Control_c, 5, 11, 75
10, 136704, Note_on_c, 5, 59, 79
10, 136733, Control_c, 5, 11, 76
10, 136763, Control_c, 5, 11, 77
10, 136792, Control_c, 5, 11, 78
10, 136822, Control_c, 5, 11, 79
10, 136851, Control_c, 5, 11, 80
10, 136881, Control_c, 5, 11, 81
10, 136910, Control_c, 5, 11, 82
10, 136940, Control_c, 5, 11, 83
10, 136969, Control_c, 5, 11, 84
10, 136999, Control_c, 5, 11, 85
10, 137028, Control_c, 5, 11, 86
10, 137058, Control_c, 5, 11, 87
10, 137088, Control_c, 5, 11, 88
10, 137117, Control_c, 5, 11, 89
10, 137147, Control_c, 5, 11, 90
10, 137176, Control_c, 5, 11, 91
10, 137206, Control_c, 5, 11, 92
10, 137235, Control_c, 5, 11, 93
10, 137265, Control_c, 5, 11, 94
10, 137294, Control_c, 5, 11, 95
10, 137324, Control_c, 5, 11, 96
10, 137353, Control_c, 5, 11, 97
10, 137383, Control_c, 5, 11, 98
10, 137412, Control_c, 5, 11, 99
10, 137442, Control_c, 5, 11, 100
10, 137472, Control_c, 5, 11, 101
10, 137501, Control_c, 5, 11, 102
10, 137531, Control_c, 5, 11, 103
10, 137560, Control_c, 5, 11, 104
10, 137590, Control_c, 5, 11, 105
10, 137619, Control_c, 5, 11, 106
10, 137649, Control_c, 5, 11, 107
10, 137678, Control_c, 5, 11, 108
10, 137708, Control_c, 5, 11, 109
10, 137737, Control_c, 5, 11, 110
10, 137767, Control_c, 5, 11, 111
10, 137796, Control_c, 5, 11, 112
10, 137808, Note_on_c, 5, 59, 0
10, 137826, Control_c, 5, 11, 113
10, 137856, Note_on_c, 5, 61, 79
10, 137856, Control_c, 5, 11, 114
10, 137885, Control_c, 5, 11, 115
10, 137915, Control_c, 5, 11, 116
10, 137944, Control_c, 5, 11, 117
10, 137974, Control_c, 5, 11, 118
10, 138003, Control_c, 5, 11, 119
10, 138033, Control_c, 5, 11, 120
10, 138062, Control_c, 5, 11, 121
10, 138092, Control_c, 5, 11, 122
10, 138121, Control_c, 5, 11, 123
10, 138151, Control_c, 5, 11, 124
10, 138180, Control_c, 5, 11, 125
10, 138192, Note_on_c, 5, 32, 0
10, 138210, Control_c, 5, 11, 126
10, 138240, Control_c, 5, 11, 127
10, 138400, Note_on_c, 5, 61, 0
10, 139008, Control_c, 5, 11, 127
10, 140544, Control_c, 5, 11, 127
10, 141312, Note_on_c, 5, 69, 32
10, 141380, Note_on_c, 5, 69, 0
10, 141408, Note_on_c, 5, 69, 28
10, 141476, Note_on_c, 5, 69, 0
10, 141504, Note_on_c, 5, 69, 32
10, 141572, Note_on_c, 5, 69, 0
10, 141600, Note_on_c, 5, 68, 34
10, 141668, Note_on_c, 5, 68, 0
10, 141696, Note_on_c, 5, 67, 28
10, 141764, Note_on_c, 5, 67, 0
10, 141792, Note_on_c, 5, 67, 28
10, 141860, Note_on_c, 5, 67, 0
10, 141888, Note_on_c, 5, 67, 34
10, 141956, Note_on_c, 5, 67, 0
10, 141984, Note_on_c, 5, 68, 34
10, 142052, Note_on_c, 5, 68, 0
10, 142080, Note_on_c, 5, 69, 28
10, 142148, Note_on_c, 5, 69, 0
10, 142176, Note_on_c, 5, 69, 30
10, 142244, Note_on_c, 5, 69, 0
10, 142272, Note_on_c, 5, 69, 28
10, 142340, Note_on_c, 5, 69, 0
10, 142368, Note_on_c, 5, 68, 29
10, 142436, Note_on_c, 5, 68, 0
10, 142464, Note_on_c, 5, 67, 27
10, 142532, Note_on_c, 5, 67, 0
10, 142560, Note_on_c, 5, 67, 34
10, 142628, Note_on_c, 5, 67, 0
10, 142656, Note_on_c, 5, 67, 32
10, 142724, Note_on_c, 5, 67, 0
10, 142752, Note_on_c, 5, 64, 30
10, 142820, Note_on_c, 5, 64, 0
10, 142848, Note_on_c, 5, 69, 27
10, 142916, Note_on_c, 5, 69, 0
10, 142944, Note_on_c, 5, 69, 29
10, 143012, Note_on_c, 5, 69, 0
10, 143040, Note_on_c, 5, 69, 30
10, 143108, Note_on_c, 5, 69, 0
10, 143136, Note_on_c, 5, 68, 34
10, 143204, Note_on_c, 5, 68, 0
10, 143232, Note_on_c, 5, 67, 30
10, 143300, Note_on_c, 5, 67, 0
10, 143328, Note_on_c, 5, 67, 34
10, 143396, Note_on_c, 5, 67, 0
10, 143424, Note_on_c, 5, 67, 25
10, 143492, Note_on_c, 5, 67, 0
10, 143520, Note_on_c, 5, 68, 33
10, 143588, Note_on_c, 5, 68, 0
10, 143616, Note_on_c, 5, 69, 29
10, 143684, Note_on_c, 5, 69, 0
10, 143712, Note_on_c, 5, 69, 34
10, 143780, Note_on_c, 5, 69, 0
10, 143808, Note_on_c, 5, 69, 31
10, 143876, Note_on_c, 5, 69, 0
10, 143904, Note_on_c, 5, 68, 34
10, 143972, Note_on_c, 5, 68, 0
10, 144000, Note_on_c, 5, 67, 28
10, 144068, Note_on_c, 5, 67, 0
10, 144096, Note_on_c, 5, 67, 32
10, 144164, Note_on_c, 5, 67, 0
10, 144192, Note_on_c, 5, 67, 32
10, 144260, Note_on_c, 5, 67, 0
10, 144288, Note_on_c, 5, 64, 28
10, 144320, Note_on_c, 5, 64, 0
10, 144384, Note_on_c, 5, 62, 43
10, 144384, Note_on_c, 5, 58, 43
10, 144672, Note_on_c, 5, 62, 0
10, 144672, Note_on_c, 5, 61, 48
10, 144766, Note_on_c, 5, 61, 0
10, 144768, Note_on_c, 5, 60, 41
10, 145056, Note_on_c, 5, 60, 0
10, 145056, Note_on_c, 5, 61, 50
10, 145150, Note_on_c, 5, 61, 0
10, 145152, Note_on_c, 5, 62, 48
10, 145440, Note_on_c, 5, 62, 0
10, 145440, Note_on_c, 5, 61, 46
10, 145534, Note_on_c, 5, 61, 0
10, 145536, Note_on_c, 5, 60, 51
10, 145824, Note_on_c, 5, 60, 0
10, 145824, Note_on_c, 5, 64, 54
10, 145872, Note_on_c, 5, 58, 0
10, 145918, Note_on_c, 5, 64, 0
10, 145920, Note_on_c, 5, 67, 55
10, 146011, Note_on_c, 5, 67, 0
10, 146048, Note_on_c, 5, 66, 57
10, 146139, Note_on_c, 5, 66, 0
10, 146176, Note_on_c, 5, 65, 56
10, 146267, Note_on_c, 5, 65, 0
10, 146304, Note_on_c, 5, 64, 55
10, 146395, Note_on_c, 5, 64, 0
10, 146432, Note_on_c, 5, 65, 58
10, 146523, Note_on_c, 5, 65, 0
10, 146560, Note_on_c, 5, 66, 58
10, 146651, Note_on_c, 5, 66, 0
10, 146688, Note_on_c, 5, 67, 60
10, 146779, Note_on_c, 5, 67, 0
10, 146816, Note_on_c, 5, 66, 54
10, 146907, Note_on_c, 5, 66, 0
10, 146944, Note_on_c, 5, 65, 59
10, 147035, Note_on_c, 5, 65, 0
10, 147072, Note_on_c, 5, 64, 56
10, 147163, Note_on_c, 5, 64, 0
10, 147200, Note_on_c, 5, 65, 58
10, 147291, Note_on_c, 5, 65, 0
10, 147328, Note_on_c, 5, 66, 65
10, 147419, Note_on_c, 5, 66, 0
10, 147456, Note_on_c, 5, 57, 46
10, 147456, Note_on_c, 5, 71, 66
10, 147456, Note_on_c, 5, 64, 44
10, 147744, Note_on_c, 5, 64, 0
10, 147744, Note_on_c, 5, 62, 44
10, 147838, Note_on_c, 5, 62, 0
10, 147840, Note_on_c, 5, 71, 0
10, 147840, Note_on_c, 5, 69, 67
10, 147840, Note_on_c, 5, 64, 42
10, 148128, Note_on_c, 5, 64, 0
10, 148128, Note_on_c, 5, 66, 56
10, 148176, Note_on_c, 5, 57, 0
10, 148222, Note_on_c, 5, 66, 0
10, 148224, Note_on_c, 5, 69, 0
10, 148224, Note_on_c, 5, 67, 65
10, 148224, Note_on_c, 5, 60, 58
10, 148224, Note_on_c, 5, 66, 54
10, 148512, Note_on_c, 5, 66, 0
10, 148512, Note_on_c, 5, 64, 67
10, 148606, Note_on_c, 5, 64, 0
10, 148608, Note_on_c, 5, 66, 64
10, 148896, Note_on_c, 5, 66, 0
10, 148896, Note_on_c, 5, 67, 71
10, 148944, Note_on_c, 5, 67, 0
10, 148944, Note_on_c, 5, 60, 0
10, 148990, Note_on_c, 5, 67, 0
10, 148992, Note_on_c, 5, 67, 72
10, 148992, Note_on_c, 5, 57, 75
10, 149280, Note_on_c, 5, 67, 0
10, 149280, Note_on_c, 5, 66, 75
10, 149374, Note_on_c, 5, 66, 0
10, 149376, Note_on_c, 5, 66, 78
10, 149664, Note_on_c, 5, 66, 0
10, 149664, Note_on_c, 5, 67, 79
10, 149712, Note_on_c, 5, 57, 0
10, 149758, Note_on_c, 5, 67, 0
10, 149760, Note_on_c, 5, 60, 80
10, 149760, Note_on_c, 5, 68, 76
10, 150048, Note_on_c, 5, 68, 0
10, 150048, Note_on_c, 5, 67, 84
10, 150096, Note_on_c, 5, 60, 0
10, 150142, Note_on_c, 5, 67, 0
10, 150144, Note_on_c, 5, 67, 88
10, 150144, Note_on_c, 5, 64, 86
10, 150432, Note_on_c, 5, 67, 0
10, 150432, Note_on_c, 5, 69, 88
10, 150480, Note_on_c, 5, 64, 0
10, 150526, Note_on_c, 5, 69, 0
10, 150528, Note_on_c, 5, 61, 95
10, 150528, Note_on_c, 5, 69, 88
10, 150528, Note_on_c, 5, 65, 91
10, 150596, Note_on_c, 5, 61, 0
10, 150596, Note_on_c, 5, 65, 0
10, 150624, Note_on_c, 5, 61, 95
10, 150624, Note_on_c, 5, 65, 94
10, 150656, Note_on_c, 5, 69, 0
10, 150656, Note_on_c, 5, 69, 95
10, 150692, Note_on_c, 5, 61, 0
10, 150692, Note_on_c, 5, 65, 0
10, 150720, Note_on_c, 5, 61, 89
10, 150720, Note_on_c, 5, 65, 91
10, 150784, Note_on_c, 5, 69, 0
10, 150784, Note_on_c, 5, 61, 0
10, 150784, Note_on_c, 5, 65, 0
10, 150784, Note_on_c, 5, 61, 92
10, 150784, Note_on_c, 5, 68, 88
10, 150784, Note_on_c, 5, 65, 94
10, 150848, Note_on_c, 5, 61, 0
10, 150848, Note_on_c, 5, 65, 0
10, 150848, Note_on_c, 5, 65, 92
10, 150848, Note_on_c, 5, 61, 89
10, 150910, Note_on_c, 5, 65, 0
10, 150910, Note_on_c, 5, 61, 0
10, 150912, Note_on_c, 5, 65, 95
10, 150912, Note_on_c, 5, 61, 89
10, 150980, Note_on_c, 5, 65, 0
10, 150980, Note_on_c, 5, 61, 0
10, 151008, Note_on_c, 5, 61, 90
10, 151008, Note_on_c, 5, 65, 89
10, 151076, Note_on_c, 5, 61, 0
10, 151076, Note_on_c, 5, 65, 0
10, 151104, Note_on_c, 5, 61, 93
10, 151104, Note_on_c, 5, 65, 92
10, 151168, Note_on_c, 5, 61, 0
10, 151168, Note_on_c, 5, 65, 0
10, 151168, Note_on_c, 5, 61, 97
10, 151168, Note_on_c, 5, 65, 96
10, 151232, Note_on_c, 5, 61, 0
10, 151232, Note_on_c, 5, 65, 0
10, 151232, Note_on_c, 5, 61, 94
10, 151232, Note_on_c, 5, 65, 88
10, 151294, Note_on_c, 5, 61, 0
10, 151294, Note_on_c, 5, 65, 0
10, 151296, Note_on_c, 5, 61, 89
10, 151296, Note_on_c, 5, 65, 90
10, 151364, Note_on_c, 5, 61, 0
10, 151364, Note_on_c, 5, 65, 0
10, 151392, Note_on_c, 5, 61, 94
10, 151392, Note_on_c, 5, 65, 93
10, 151460, Note_on_c, 5, 61, 0
10, 151460, Note_on_c, 5, 65, 0
10, 151488, Note_on_c, 5, 61, 96
10, 151488, Note_on_c, 5, 65, 89
10, 151552, Note_on_c, 5, 61, 0
10, 151552, Note_on_c, 5, 65, 0
10, 151552, Note_on_c, 5, 65, 89
10, 151552, Note_on_c, 5, 61, 93
10, 151616, Note_on_c, 5, 65, 0
10, 151616, Note_on_c, 5, 61, 0
10, 151616, Note_on_c, 5, 61, 97
10, 151616, Note_on_c, 5, 65, 91
10, 151678, Note_on_c, 5, 61, 0
10, 151678, Note_on_c, 5, 65, 0
10, 151680, Note_on_c, 5, 68, 0
10, 151680, Note_on_c, 5, 61, 88
10, 151680, Note_on_c, 5, 65, 96
10, 151680, Note_on_c, 5, 69, 90
10, 151748, Note_on_c, 5, 61, 0
10, 151748, Note_on_c, 5, 65, 0
10, 151776, Note_on_c, 5, 65, 94
10, 151776, Note_on_c, 5, 61, 87
10, 151808, Note_on_c, 5, 69, 0
10, 151808, Note_on_c, 5, 69, 89
10, 151844, Note_on_c, 5, 65, 0
10, 151844, Note_on_c, 5, 61, 0
10, 151872, Note_on_c, 5, 61, 91
10, 151872, Note_on_c, 5, 65, 92
10, 151936, Note_on_c, 5, 69, 0
10, 151936, Note_on_c, 5, 61, 0
10, 151936, Note_on_c, 5, 65, 0
10, 151936, Note_on_c, 5, 68, 91
10, 151936, Note_on_c, 5, 61, 95
10, 151936, Note_on_c, 5, 65, 88
10, 152000, Note_on_c, 5, 61, 0
10, 152000, Note_on_c, 5, 65, 0
10, 152000, Note_on_c, 5, 61, 94
10, 152000, Note_on_c, 5, 65, 94
10, 152062, Note_on_c, 5, 68, 0
10, 152062, Note_on_c, 5, 61, 0
10, 152062, Note_on_c, 5, 65, 0
10, 152064, Note_on_c, 5, 70, 96
10, 152064, Note_on_c, 5, 65, 88
10, 152064, Note_on_c, 5, 61, 92
10, 152132, Note_on_c, 5, 65, 0
10, 152132, Note_on_c, 5, 61, 0
10, 152160, Note_on_c, 5, 65, 91
10, 152160, Note_on_c, 5, 61, 90
10, 152192, Note_on_c, 5, 70, 0
10, 152192, Note_on_c, 5, 70, 91
10, 152228, Note_on_c, 5, 65, 0
10, 152228, Note_on_c, 5, 61, 0
10, 152256, Note_on_c, 5, 61, 92
10, 152256, Note_on_c, 5, 65, 94
10, 152320, Note_on_c, 5, 70, 0
10, 152320, Note_on_c, 5, 61, 0
10, 152320, Note_on_c, 5, 65, 0
10, 152320, Note_on_c, 5, 61, 97
10, 152320, Note_on_c, 5, 65, 96
10, 152320, Note_on_c, 5, 68, 90
10, 152384, Note_on_c, 5, 61, 0
10, 152384, Note_on_c, 5, 65, 0
10, 152384, Note_on_c, 5, 65, 91
10, 152384, Note_on_c, 5, 61, 91
10, 152446, Note_on_c, 5, 65, 0
10, 152446, Note_on_c, 5, 61, 0
10, 152448, Note_on_c, 5, 65, 92
10, 152448, Note_on_c, 5, 61, 92
10, 152516, Note_on_c, 5, 65, 0
10, 152516, Note_on_c, 5, 61, 0
10, 152544, Note_on_c, 5, 65, 96
10, 152544, Note_on_c, 5, 61, 87
10, 152612, Note_on_c, 5, 65, 0
10, 152612, Note_on_c, 5, 61, 0
10, 152640, Note_on_c, 5, 65, 92
10, 152640, Note_on_c, 5, 61, 97
10, 152704, Note_on_c, 5, 65, 0
10, 152704, Note_on_c, 5, 61, 0
10, 152704, Note_on_c, 5, 65, 90
10, 152704, Note_on_c, 5, 61, 92
10, 152768, Note_on_c, 5, 65, 0
10, 152768, Note_on_c, 5, 61, 0
10, 152768, Note_on_c, 5, 65, 89
10, 152768, Note_on_c, 5, 61, 87
10, 152830, Note_on_c, 5, 65, 0
10, 152830, Note_on_c, 5, 61, 0
10, 152832, Note_on_c, 5, 65, 87
10, 152832, Note_on_c, 5, 61, 91
10, 152900, Note_on_c, 5, 65, 0
10, 152900, Note_on_c, 5, 61, 0
10, 152928, Note_on_c, 5, 65, 94
10, 152928, Note_on_c, 5, 61, 95
10, 152996, Note_on_c, 5, 65, 0
10, 152996, Note_on_c, 5, 61, 0
10, 153024, Note_on_c, 5, 65, 90
10, 153024, Note_on_c, 5, 61, 91
10, 153088, Note_on_c, 5, 65, 0
10, 153088, Note_on_c, 5, 61, 0
10, 153088, Note_on_c, 5, 65, 90
10, 153088, Note_on_c, 5, 61, 95
10, 153152, Note_on_c, 5, 65, 0
10, 153152, Note_on_c, 5, 61, 0
10, 153152, Note_on_c, 5, 61, 96
10, 153152, Note_on_c, 5, 65, 92
10, 153214, Note_on_c, 5, 61, 0
10, 153214, Note_on_c, 5, 65, 0
10, 153216, Note_on_c, 5, 68, 0
10, 153216, Note_on_c, 5, 61, 96
10, 153216, Note_on_c, 5, 70, 95
10, 153216, Note_on_c, 5, 65, 94
10, 153284, Note_on_c, 5, 61, 0
10, 153284, Note_on_c, 5, 65, 0
10, 153312, Note_on_c, 5, 61, 96
10, 153312, Note_on_c, 5, 65, 93
10, 153344, Note_on_c, 5, 70, 0
10, 153344, Note_on_c, 5, 70, 95
10, 153380, Note_on_c, 5, 61, 0
10, 153380, Note_on_c, 5, 65, 0
10, 153408, Note_on_c, 5, 61, 94
10, 153408, Note_on_c, 5, 65, 87
10, 153472, Note_on_c, 5, 70, 0
10, 153472, Note_on_c, 5, 61, 0
10, 153472, Note_on_c, 5, 65, 0
10, 153472, Note_on_c, 5, 68, 91
10, 153472, Note_on_c, 5, 61, 97
10, 153472, Note_on_c, 5, 65, 95
10, 153536, Note_on_c, 5, 61, 0
10, 153536, Note_on_c, 5, 65, 0
10, 153536, Note_on_c, 5, 61, 93
10, 153536, Note_on_c, 5, 65, 93
10, 153598, Note_on_c, 5, 68, 0
10, 153598, Note_on_c, 5, 61, 0
10, 153598, Note_on_c, 5, 65, 0
10, 153600, Control_c, 5, 11, 92
10, 153600, Note_on_c, 5, 56, 104
10, 153600, Note_on_c, 5, 62, 110
10, 153600, Note_on_c, 5, 53, 108
10, 153600, Note_on_c, 5, 59, 111
10, 153610, Control_c, 5, 11, 93
10, 153621, Control_c, 5, 11, 94
10, 153632, Control_c, 5, 11, 95
10, 153643, Control_c, 5, 11, 96
10, 153654, Control_c, 5, 11, 97
10, 153665, Control_c, 5, 11, 98
10, 153676, Control_c, 5, 11, 99
10, 153687, Control_c, 5, 11, 100
10, 153694, Note_on_c, 5, 56, 0
10, 153694, Note_on_c, 5, 62, 0
10, 153694, Note_on_c, 5, 53, 0
10, 153694, Note_on_c, 5, 59, 0
10, 153696, Note_on_c, 5, 62, 104
10, 153696, Note_on_c, 5, 56, 112
10, 153696, Note_on_c, 5, 59, 104
10, 153696, Note_on_c, 5, 53, 113
10, 153698, Control_c, 5, 11, 101
10, 153709, Control_c, 5, 11, 102
10, 153720, Control_c, 5, 11, 103
10, 153731, Control_c, 5, 11, 104
10, 153742, Control_c, 5, 11, 105
10, 153753, Control_c, 5, 11, 106
10, 153764, Control_c, 5, 11, 107
10, 153775, Control_c, 5, 11, 108
10, 153786, Control_c, 5, 11, 109
10, 153797, Control_c, 5, 11, 110
10, 153808, Control_c, 5, 11, 111
10, 153819, Control_c, 5, 11, 112
10, 153830, Control_c, 5, 11, 113
10, 153841, Control_c, 5, 11, 114
10, 153852, Control_c, 5, 11, 115
10, 153863, Control_c, 5, 11, 116
10, 153874, Control_c, 5, 11, 117
10, 153885, Control_c, 5, 11, 118
10, 153896, Control_c, 5, 11, 119
10, 153907, Control_c, 5, 11, 120
10, 153918, Control_c, 5, 11, 121
10, 153929, Control_c, 5, 11, 122
10, 153940, Control_c, 5, 11, 123
10, 153951, Control_c, 5, 11, 124
10, 153952, Note_on_c, 5, 62, 0
10, 153952, Note_on_c, 5, 56, 0
10, 153952, Note_on_c, 5, 59, 0
10, 153952, Note_on_c, 5, 53, 0
10, 153962, Control_c, 5, 11, 125
10, 153973, Control_c, 5, 11, 126
10, 153984, Control_c, 5, 11, 127
10, 153984, Control_c, 5, 11, 92
10, 153984, Note_on_c, 5, 57, 104
10, 153984, Note_on_c, 5, 63, 103
10, 153984, Note_on_c, 5, 60, 112
10, 153984, Note_on_c, 5, 54, 111
10, 153994, Control_c, 5, 11, 93
10, 154005, Control_c, 5, 11, 94
10, 154016, Control_c, 5, 11, 95
10, 154027, Control_c, 5, 11, 96
10, 154038, Control_c, 5, 11, 97
10, 154049, Control_c, 5, 11, 98
10, 154060, Control_c, 5, 11, 99
10, 154071, Control_c, 5, 11, 100
10, 154078, Note_on_c, 5, 57, 0
10, 154078, Note_on_c, 5, 63, 0
10, 154078, Note_on_c, 5, 60, 0
10, 154078, Note_on_c, 5, 54, 0
10, 154080, Note_on_c, 5, 60, 106
10, 154080, Note_on_c, 5, 63, 107
10, 154080, Note_on_c, 5, 57, 107
10, 154080, Note_on_c, 5, 54, 105
10, 154082, Control_c, 5, 11, 101
10, 154093, Control_c, 5, 11, 102
10, 154104, Control_c, 5, 11, 103
10, 154115, Control_c, 5, 11, 104
10, 154126, Control_c, 5, 11, 105
10, 154137, Control_c, 5, 11, 106
10, 154148, Control_c, 5, 11, 107
10, 154159, Control_c, 5, 11, 108
10, 154170, Control_c, 5, 11, 109
10, 154181, Control_c, 5, 11, 110
10, 154192, Control_c, 5, 11, 111
10, 154203, Control_c, 5, 11, 112
10, 154214, Control_c, 5, 11, 113
10, 154225, Control_c, 5, 11, 114
10, 154236, Control_c, 5, 11, 115
10, 154247, Control_c, 5, 11, 116
10, 154258, Control_c, 5, 11, 117
10, 154269, Control_c, 5, 11, 118
10, 154280, Control_c, 5, 11, 119
10, 154291, Control_c, 5, 11, 120
10, 154302, Control_c, 5, 11, 121
10, 154313, Control_c, 5, 11, 122
10, 154324, Control_c, 5, 11, 123
10, 154335, Control_c, 5, 11, 124
10, 154336, Note_on_c, 5, 60, 0
10, 154336, Note_on_c, 5, 63, 0
10, 154336, Note_on_c, 5, 57, 0
10, 154336, Note_on_c, 5, 54, 0
10, 154346, Control_c, 5, 11, 125
10, 154357, Control_c, 5, 11, 126
10, 154368, Note_on_c, 5, 55, 113
10, 154368, Note_on_c, 5, 61, 107
10, 154368, Control_c, 5, 11, 127
10, 154368, Control_c, 5, 11, 92
10, 154368, Note_on_c, 5, 58, 109
10, 154368, Note_on_c, 5, 64, 104
10, 154378, Control_c, 5, 11, 93
10, 154389, Control_c, 5, 11, 94
10, 154400, Control_c, 5, 11, 95
10, 154411, Control_c, 5, 11, 96
10, 154422, Control_c, 5, 11, 97
10, 154433, Control_c, 5, 11, 98
10, 154444, Control_c, 5, 11, 99
10, 154455, Control_c, 5, 11, 100
10, 154462, Note_on_c, 5, 55, 0
10, 154462, Note_on_c, 5, 61, 0
10, 154462, Note_on_c, 5, 58, 0
10, 154462, Note_on_c, 5, 64, 0
10, 154464, Note_on_c, 5, 58, 108
10, 154464, Note_on_c, 5, 64, 105
10, 154464, Note_on_c, 5, 55, 110
10, 154464, Note_on_c, 5, 61, 105
10, 154466, Control_c, 5, 11, 101
10, 154477, Control_c, 5, 11, 102
10, 154488, Control_c, 5, 11, 103
10, 154499, Control_c, 5, 11, 104
10, 154510, Control_c, 5, 11, 105
10, 154521, Control_c, 5, 11, 106
10, 154532, Control_c, 5, 11, 107
10, 154543, Control_c, 5, 11, 108
10, 154554, Control_c, 5, 11, 109
10, 154565, Control_c, 5, 11, 110
10, 154576, Control_c, 5, 11, 111
10, 154587, Control_c, 5, 11, 112
10, 154598, Control_c, 5, 11, 113
10, 154609, Control_c, 5, 11, 114
10, 154620, Control_c, 5, 11, 115
10, 154631, Control_c, 5, 11, 116
10, 154642, Control_c, 5, 11, 117
10, 154653, Control_c, 5, 11, 118
10, 154664, Control_c, 5, 11, 119
10, 154675, Control_c, 5, 11, 120
10, 154686, Control_c, 5, 11, 121
10, 154697, Control_c, 5, 11, 122
10, 154708, Control_c, 5, 11, 123
10, 154719, Control_c, 5, 11, 124
10, 154720, Note_on_c, 5, 58, 0
10, 154720, Note_on_c, 5, 64, 0
10, 154720, Note_on_c, 5, 55, 0
10, 154720, Note_on_c, 5, 61, 0
10, 154730, Control_c, 5, 11, 125
10, 154741, Control_c, 5, 11, 126
10, 154752, Note_on_c, 5, 59, 103
10, 154752, Control_c, 5, 11, 92
10, 154752, Control_c, 5, 11, 127
10, 154752, Note_on_c, 5, 56, 109
10, 154752, Note_on_c, 5, 62, 111
10, 154752, Note_on_c, 5, 65, 103
10, 154762, Control_c, 5, 11, 93
10, 154773, Control_c, 5, 11, 94
10, 154784, Control_c, 5, 11, 95
10, 154795, Control_c, 5, 11, 96
10, 154806, Control_c, 5, 11, 97
10, 154817, Control_c, 5, 11, 98
10, 154828, Control_c, 5, 11, 99
10, 154839, Control_c, 5, 11, 100
10, 154846, Note_on_c, 5, 59, 0
10, 154846, Note_on_c, 5, 56, 0
10, 154846, Note_on_c, 5, 62, 0
10, 154846, Note_on_c, 5, 65, 0
10, 154848, Note_on_c, 5, 59, 103
10, 154848, Note_on_c, 5, 56, 109
10, 154848, Note_on_c, 5, 62, 112
10, 154848, Note_on_c, 5, 65, 105
10, 154850, Control_c, 5, 11, 101
10, 154861, Control_c, 5, 11, 102
10, 154872, Control_c, 5, 11, 103
10, 154883, Control_c, 5, 11, 104
10, 154894, Control_c, 5, 11, 105
10, 154905, Control_c, 5, 11, 106
10, 154916, Control_c, 5, 11, 107
10, 154927, Control_c, 5, 11, 108
10, 154938, Control_c, 5, 11, 109
10, 154949, Control_c, 5, 11, 110
10, 154960, Control_c, 5, 11, 111
10, 154971, Control_c, 5, 11, 112
10, 154982, Control_c, 5, 11, 113
10, 154993, Control_c, 5, 11, 114
10, 155004, Control_c, 5, 11, 115
10, 155015, Control_c, 5, 11, 116
10, 155026, Control_c, 5, 11, 117
10, 155037, Control_c, 5, 11, 118
10, 155048, Control_c, 5, 11, 119
10, 155059, Control_c, 5, 11, 120
10, 155070, Control_c, 5, 11, 121
10, 155081, Control_c, 5, 11, 122
10, 155092, Control_c, 5, 11, 123
10, 155103, Control_c, 5, 11, 124
10, 155104, Note_on_c, 5, 59, 0
10, 155104, Note_on_c, 5, 56, 0
10, 155104, Note_on_c, 5, 62, 0
10, 155104, Note_on_c, 5, 65, 0
10, 155114, Control_c, 5, 11, 125
10, 155125, Control_c, 5, 11, 126
10, 155136, Note_on_c, 5, 57, 106
10, 155136, Note_on_c, 5, 63, 113
10, 155136, Control_c, 5, 11, 127
10, 155136, Control_c, 5, 11, 92
10, 155136, Note_on_c, 5, 60, 106
10, 155136, Note_on_c, 5, 66, 107
10, 155146, Control_c, 5, 11, 93
10, 155157, Control_c, 5, 11, 94
10, 155168, Control_c, 5, 11, 95
10, 155179, Control_c, 5, 11, 96
10, 155190, Control_c, 5, 11, 97
10, 155201, Control_c, 5, 11, 98
10, 155212, Control_c, 5, 11, 99
10, 155223, Control_c, 5, 11, 100
10, 155230, Note_on_c, 5, 57, 0
10, 155230, Note_on_c, 5, 63, 0
10, 155230, Note_on_c, 5, 60, 0
10, 155230, Note_on_c, 5, 66, 0
10, 155232, Note_on_c, 5, 60, 105
10, 155232, Note_on_c, 5, 57, 111
10, 155232, Note_on_c, 5, 63, 108
10, 155232, Note_on_c, 5, 66, 106
10, 155234, Control_c, 5, 11, 101
10, 155245, Control_c, 5, 11, 102
10, 155256, Control_c, 5, 11, 103
10, 155267, Control_c, 5, 11, 104
10, 155278, Control_c, 5, 11, 105
10, 155289, Control_c, 5, 11, 106
10, 155300, Control_c, 5, 11, 107
10, 155311, Control_c, 5, 11, 108
10, 155322, Control_c, 5, 11, 109
10, 155333, Control_c, 5, 11, 110
10, 155344, Control_c, 5, 11, 111
10, 155355, Control_c, 5, 11, 112
10, 155366, Control_c, 5, 11, 113
10, 155377, Control_c, 5, 11, 114
10, 155388, Control_c, 5, 11, 115
10, 155399, Control_c, 5, 11, 116
10, 155410, Control_c, 5, 11, 117
10, 155421, Control_c, 5, 11, 118
10, 155432, Control_c, 5, 11, 119
10, 155443, Control_c, 5, 11, 120
10, 155454, Control_c, 5, 11, 121
10, 155465, Control_c, 5, 11, 122
10, 155476, Control_c, 5, 11, 123
10, 155487, Control_c, 5, 11, 124
10, 155488, Note_on_c, 5, 60, 0
10, 155488, Note_on_c, 5, 57, 0
10, 155488, Note_on_c, 5, 63, 0
10, 155488, Note_on_c, 5, 66, 0
10, 155498, Control_c, 5, 11, 125
10, 155509, Control_c, 5, 11, 126
10, 155520, Control_c, 5, 11, 127
10, 155520, Control_c, 5, 11, 92
10, 155520, Note_on_c, 5, 58, 106
10, 155520, Note_on_c, 5, 64, 107
10, 155520, Note_on_c, 5, 67, 103
10, 155520, Note_on_c, 5, 61, 104
10, 155530, Control_c, 5, 11, 93
10, 155541, Control_c, 5, 11, 94
10, 155552, Control_c, 5, 11, 95
10, 155563, Control_c, 5, 11, 96
10, 155574, Control_c, 5, 11, 97
10, 155585, Control_c, 5, 11, 98
10, 155596, Control_c, 5, 11, 99
10, 155607, Control_c, 5, 11, 100
10, 155614, Note_on_c, 5, 58, 0
10, 155614, Note_on_c, 5, 64, 0
10, 155614, Note_on_c, 5, 67, 0
10, 155614, Note_on_c, 5, 61, 0
10, 155616, Note_on_c, 5, 58, 111
10, 155616, Note_on_c, 5, 64, 111
10, 155616, Note_on_c, 5, 67, 104
10, 155616, Note_on_c, 5, 61, 113
10, 155618, Control_c, 5, 11, 101
10, 155629, Control_c, 5, 11, 102
10, 155640, Control_c, 5, 11, 103
10, 155651, Control_c, 5, 11, 104
10, 155662, Control_c, 5, 11, 105
10, 155673, Control_c, 5, 11, 106
10, 155684, Control_c, 5, 11, 107
10, 155695, Control_c, 5, 11, 108
10, 155706, Control_c, 5, 11, 109
10, 155717, Control_c, 5, 11, 110
10, 155728, Control_c, 5, 11, 111
10, 155739, Control_c, 5, 11, 112
10, 155750, Control_c, 5, 11, 113
10, 155761, Control_c, 5, 11, 114
10, 155772, Control_c, 5, 11, 115
10, 155783, Control_c, 5, 11, 116
10, 155794, Control_c, 5, 11, 117
10, 155805, Control_c, 5, 11, 118
10, 155816, Control_c, 5, 11, 119
10, 155827, Control_c, 5, 11, 120
10, 155838, Control_c, 5, 11, 121
10, 155849, Control_c, 5, 11, 122
10, 155860, Control_c, 5, 11, 123
10, 155871, Control_c, 5, 11, 124
10, 155872, Note_on_c, 5, 58, 0
10, 155872, Note_on_c, 5, 64, 0
10, 155872, Note_on_c, 5, 67, 0
10, 155872, Note_on_c, 5, 61, 0
10, 155882, Control_c, 5, 11, 125
10, 155893, Control_c, 5, 11, 126
10, 155904, Control_c, 5, 11, 127
10, 155904, Note_on_c, 5, 59, 112
10, 155904, Note_on_c, 5, 65, 113
10, 155904, Note_on_c, 5, 62, 104
10, 155904, Control_c, 5, 11, 92
10, 155904, Note_on_c, 5, 68, 110
10, 155914, Control_c, 5, 11, 93
10, 155925, Control_c, 5, 11, 94
10, 155936, Control_c, 5, 11, 95
10, 155947, Control_c, 5, 11, 96
10, 155958, Control_c, 5, 11, 97
10, 155969, Control_c, 5, 11, 98
10, 155980, Control_c, 5, 11, 99
10, 155991, Control_c, 5, 11, 100
10, 155998, Note_on_c, 5, 59, 0
10, 155998, Note_on_c, 5, 65, 0
10, 155998, Note_on_c, 5, 62, 0
10, 155998, Note_on_c, 5, 68, 0
10, 156000, Note_on_c, 5, 62, 112
10, 156000, Note_on_c, 5, 59, 105
10, 156000, Note_on_c, 5, 68, 112
10, 156000, Note_on_c, 5, 65, 107
10, 156002, Control_c, 5, 11, 101
10, 156013, Control_c, 5, 11, 102
10, 156024, Control_c, 5, 11, 103
10, 156035, Control_c, 5, 11, 104
10, 156046, Control_c, 5, 11, 105
10, 156057, Control_c, 5, 11, 106
10, 156068, Control_c, 5, 11, 107
10, 156079, Control_c, 5, 11, 108
10, 156090, Control_c, 5, 11, 109
10, 156101, Control_c, 5, 11, 110
10, 156112, Control_c, 5, 11, 111
10, 156123, Control_c, 5, 11, 112
10, 156134, Control_c, 5, 11, 113
10, 156145, Control_c, 5, 11, 114
10, 156156, Control_c, 5, 11, 115
10, 156167, Control_c, 5, 11, 116
10, 156178, Control_c, 5, 11, 117
10, 156189, Control_c, 5, 11, 118
10, 156200, Control_c, 5, 11, 119
10, 156211, Control_c, 5, 11, 120
10, 156222, Control_c, 5, 11, 121
10, 156233, Control_c, 5, 11, 122
10, 156244, Control_c, 5, 11, 123
10, 156255, Control_c, 5, 11, 124
10, 156256, Note_on_c, 5, 62, 0
10, 156256, Note_on_c, 5, 59, 0
10, 156256, Note_on_c, 5, 68, 0
10, 156256, Note_on_c, 5, 65, 0
10, 156266, Control_c, 5, 11, 125
10, 156277, Control_c, 5, 11, 126
10, 156288, Note_on_c, 5, 60, 106
10, 156288, Note_on_c, 5, 66, 111
10, 156288, Note_on_c, 5, 69, 103
10, 156288, Control_c, 5, 11, 92
10, 156288, Control_c, 5, 11, 127
10, 156288, Note_on_c, 5, 63, 105
10, 156298, Control_c, 5, 11, 93
10, 156309, Control_c, 5, 11, 94
10, 156320, Control_c, 5, 11, 95
10, 156331, Control_c, 5, 11, 96
10, 156342, Control_c, 5, 11, 97
10, 156353, Control_c, 5, 11, 98
10, 156364, Control_c, 5, 11, 99
10, 156375, Control_c, 5, 11, 100
10, 156382, Note_on_c, 5, 60, 0
10, 156382, Note_on_c, 5, 66, 0
10, 156382, Note_on_c, 5, 69, 0
10, 156382, Note_on_c, 5, 63, 0
10, 156384, Note_on_c, 5, 60, 108
10, 156384, Note_on_c, 5, 66, 113
10, 156384, Note_on_c, 5, 63, 106
10, 156384, Note_on_c, 5, 69, 105
10, 156386, Control_c, 5, 11, 101
10, 156397, Control_c, 5, 11, 102
10, 156408, Control_c, 5, 11, 103
10, 156419, Control_c, 5, 11, 104
10, 156430, Control_c, 5, 11, 105
10, 156441, Control_c, 5, 11, 106
10, 156452, Control_c, 5, 11, 107
10, 156463, Control_c, 5, 11, 108
10, 156474, Control_c, 5, 11, 109
10, 156485, Control_c, 5, 11, 110
10, 156496, Control_c, 5, 11, 111
10, 156507, Control_c, 5, 11, 112
10, 156518, Control_c, 5, 11, 113
10, 156529, Control_c, 5, 11, 114
10, 156540, Control_c, 5, 11, 115
10, 156551, Control_c, 5, 11, 116
10, 156562, Control_c, 5, 11, 117
10, 156573, Control_c, 5, 11, 118
10, 156584, Control_c, 5, 11, 119
10, 156595, Control_c, 5, 11, 120
10, 156606, Control_c, 5, 11, 121
10, 156617, Control_c, 5, 11, 122
10, 156628, Control_c, 5, 11, 123
10, 156639, Control_c, 5, 11, 124
10, 156640, Note_on_c, 5, 60, 0
10, 156640, Note_on_c, 5, 66, 0
10, 156640, Note_on_c, 5, 63, 0
10, 156640, Note_on_c, 5, 69, 0
10, 156650, Control_c, 5, 11, 125
10, 156661, Control_c, 5, 11, 126
10, 156672, Note_on_c, 5, 65, 110
10, 156672, Note_on_c, 5, 61, 108
10, 156672, Control_c, 5, 11, 127
10, 156960, Note_on_c, 5, 65, 0
10, 156960, Note_on_c, 5, 61, 0
10, 156960, Note_on_c, 5, 60, 109
10, 156960, Note_on_c, 5, 64, 113
10, 157056, Note_on_c, 5, 60, 0
10, 157056, Note_on_c, 5, 64, 0
10, 157056, Note_on_c, 5, 59, 112
10, 157056, Note_on_c, 5, 63, 103
10, 157344, Note_on_c, 5, 59, 0
10, 157344, Note_on_c, 5, 63, 0
10, 157344, Note_on_c, 5, 60, 106
10, 157344, Note_on_c, 5, 64, 105
10, 157438, Note_on_c, 5, 60, 0
10, 157438, Note_on_c, 5, 64, 0
10, 157440, Note_on_c, 5, 61, 108
10, 157440, Note_on_c, 5, 65, 112
10, 157728, Note_on_c, 5, 61, 0
10, 157728, Note_on_c, 5, 65, 0
10, 157728, Note_on_c, 5, 60, 106
10, 157728, Note_on_c, 5, 64, 108
10, 157824, Note_on_c, 5, 60, 0
10, 157824, Note_on_c, 5, 64, 0
10, 157824, Control_c, 5, 11, 92
10, 157824, Note_on_c, 5, 59, 108
10, 157824, Note_on_c, 5, 63, 112
10, 157834, Control_c, 5, 11, 93
10, 157845, Control_c, 5, 11, 94
10, 157856, Control_c, 5, 11, 95
10, 157867, Control_c, 5, 11, 96
10, 157878, Control_c, 5, 11, 97
10, 157889, Control_c, 5, 11, 98
10, 157900, Control_c, 5, 11, 99
10, 157911, Control_c, 5, 11, 100
10, 157922, Control_c, 5, 11, 101
10, 157933, Control_c, 5, 11, 102
10, 157944, Control_c, 5, 11, 103
10, 157952, Note_on_c, 5, 59, 0
10, 157952, Note_on_c, 5, 63, 0
10, 157952, Note_on_c, 5, 63, 111
10, 157952, Note_on_c, 5, 66, 104
10, 157955, Control_c, 5, 11, 104
10, 157966, Control_c, 5, 11, 105
10, 157977, Control_c, 5, 11, 106
10, 157988, Control_c, 5, 11, 107
10, 157999, Control_c, 5, 11, 108
10, 158010, Control_c, 5, 11, 109
10, 158021, Control_c, 5, 11, 110
10, 158032, Control_c, 5, 11, 111
10, 158043, Control_c, 5, 11, 112
10, 158054, Control_c, 5, 11, 113
10, 158065, Control_c, 5, 11, 114
10, 158076, Control_c, 5, 11, 115
10, 158080, Note_on_c, 5, 63, 0
10, 158080, Note_on_c, 5, 66, 0
10, 158080, Note_on_c, 5, 65, 108
10, 158080, Note_on_c, 5, 68, 111
10, 158087, Control_c, 5, 11, 116
10, 158098, Control_c, 5, 11, 117
10, 158109, Control_c, 5, 11, 118
10, 158120, Control_c, 5, 11, 119
10, 158131, Control_c, 5, 11, 120
10, 158142, Control_c, 5, 11, 121
10, 158153, Control_c, 5, 11, 122
10, 158164, Control_c, 5, 11, 123
10, 158175, Control_c, 5, 11, 124
10, 158186, Control_c, 5, 11, 125
10, 158197, Control_c, 5, 11, 126
10, 158206, Note_on_c, 5, 65, 0
10, 158206, Note_on_c, 5, 68, 0
10, 158208, Control_c, 5, 11, 127
10, 158208, Note_on_c, 5, 61, 90
10, 158208, Note_on_c, 5, 65, 95
10, 158496, Note_on_c, 5, 61, 0
10, 158496, Note_on_c, 5, 65, 0
10, 158496, Note_on_c, 5, 64, 87
10, 158496, Note_on_c, 5, 60, 93
10, 158592, Note_on_c, 5, 64, 0
10, 158592, Note_on_c, 5, 60, 0
10, 158592, Note_on_c, 5, 59, 97
10, 158592, Note_on_c, 5, 63, 92
10, 158880, Note_on_c, 5, 59, 0
10, 158880, Note_on_c, 5, 63, 0
10, 158880, Note_on_c, 5, 60, 96
10, 158880, Note_on_c, 5, 64, 94
10, 158976, Note_on_c, 5, 60, 0
10, 158976, Note_on_c, 5, 64, 0
10, 158976, Control_c, 5, 11, 127
10, 158976, Note_on_c, 5, 65, 90
10, 158976, Note_on_c, 5, 61, 89
10, 158988, Control_c, 5, 11, 126
10, 159000, Control_c, 5, 11, 125
10, 159012, Control_c, 5, 11, 124
10, 159024, Control_c, 5, 11, 123
10, 159036, Control_c, 5, 11, 122
10, 159049, Control_c, 5, 11, 121
10, 159061, Control_c, 5, 11, 120
10, 159073, Control_c, 5, 11, 119
10, 159085, Control_c, 5, 11, 118
10, 159097, Control_c, 5, 11, 117
10, 159110, Control_c, 5, 11, 116
10, 159122, Control_c, 5, 11, 115
10, 159134, Control_c, 5, 11, 114
10, 159146, Control_c, 5, 11, 113
10, 159158, Control_c, 5, 11, 112
10, 159171, Control_c, 5, 11, 111
10, 159183, Control_c, 5, 11, 110
10, 159195, Control_c, 5, 11, 109
10, 159207, Control_c, 5, 11, 108
10, 159219, Control_c, 5, 11, 107
10, 159232, Control_c, 5, 11, 106
10, 159244, Control_c, 5, 11, 105
10, 159256, Control_c, 5, 11, 104
10, 159264, Note_on_c, 5, 65, 0
10, 159264, Note_on_c, 5, 61, 0
10, 159264, Note_on_c, 5, 64, 95
10, 159264, Note_on_c, 5, 60, 89
10, 159268, Control_c, 5, 11, 103
10, 159280, Control_c, 5, 11, 102
10, 159292, Control_c, 5, 11, 101
10, 159305, Control_c, 5, 11, 100
10, 159317, Control_c, 5, 11, 99
10, 159329, Control_c, 5, 11, 98
10, 159341, Control_c, 5, 11, 97
10, 159353, Control_c, 5, 11, 96
10, 159360, Note_on_c, 5, 64, 0
10, 159360, Note_on_c, 5, 60, 0
10, 159360, Note_on_c, 5, 59, 87
10, 159360, Note_on_c, 5, 63, 97
10, 159366, Control_c, 5, 11, 95
10, 159378, Control_c, 5, 11, 94
10, 159390, Control_c, 5, 11, 93
10, 159402, Control_c, 5, 11, 92
10, 159414, Control_c, 5, 11, 91
10, 159427, Control_c, 5, 11, 90
10, 159439, Control_c, 5, 11, 89
10, 159451, Control_c, 5, 11, 88
10, 159463, Control_c, 5, 11, 87
10, 159475, Control_c, 5, 11, 86
10, 159488, Note_on_c, 5, 59, 0
10, 159488, Note_on_c, 5, 63, 0
10, 159488, Note_on_c, 5, 62, 94
10, 159488, Control_c, 5, 11, 85
10, 159488, Note_on_c, 5, 58, 89
10, 159500, Control_c, 5, 11, 84
10, 159512, Control_c, 5, 11, 83
10, 159524, Control_c, 5, 11, 82
10, 159536, Control_c, 5, 11, 81
10, 159548, Control_c, 5, 11, 80
10, 159561, Control_c, 5, 11, 79
10, 159573, Control_c, 5, 11, 78
10, 159585, Control_c, 5, 11, 77
10, 159597, Control_c, 5, 11, 76
10, 159609, Control_c, 5, 11, 75
10, 159616, Note_on_c, 5, 62, 0
10, 159616, Note_on_c, 5, 58, 0
10, 159616, Note_on_c, 5, 57, 93
10, 159616, Note_on_c, 5, 61, 89
10, 159622, Control_c, 5, 11, 74
10, 159634, Control_c, 5, 11, 73
10, 159646, Control_c, 5, 11, 72
10, 159658, Control_c, 5, 11, 71
10, 159670, Control_c, 5, 11, 70
10, 159683, Control_c, 5, 11, 69
10, 159695, Control_c, 5, 11, 68
10, 159707, Control_c, 5, 11, 67
10, 159719, Control_c, 5, 11, 66
10, 159731, Control_c, 5, 11, 65
10, 159744, Control_c, 5, 11, 64
10, 159904, Note_on_c, 5, 57, 0
10, 159904, Note_on_c, 5, 61, 0
10, 162816, Control_c, 5, 11, 92
10, 162816, Note_on_c, 5, 64, 90
10, 162821, Control_c, 5, 11, 93
10, 162826, Control_c, 5, 11, 94
10, 162832, Control_c, 5, 11, 95
10, 162837, Control_c, 5, 11, 96
10, 162843, Control_c, 5, 11, 97
10, 162848, Control_c, 5, 11, 98
10, 162854, Control_c, 5, 11, 99
10, 162859, Control_c, 5, 11, 100
10, 162862, Note_on_c, 5, 64, 0
10, 162864, Note_on_c, 5, 64, 88
10, 162865, Control_c, 5, 11, 101
10, 162870, Control_c, 5, 11, 102
10, 162876, Control_c, 5, 11, 103
10, 162881, Control_c, 5, 11, 104
10, 162887, Control_c, 5, 11, 105
10, 162892, Control_c, 5, 11, 106
10, 162898, Control_c, 5, 11, 107
10, 162903, Control_c, 5, 11, 108
10, 162909, Control_c, 5, 11, 109
10, 162914, Control_c, 5, 11, 110
10, 162920, Control_c, 5, 11, 111
10, 162925, Control_c, 5, 11, 112
10, 162931, Control_c, 5, 11, 113
10, 162936, Control_c, 5, 11, 114
10, 162942, Control_c, 5, 11, 115
10, 162947, Control_c, 5, 11, 116
10, 162953, Control_c, 5, 11, 117
10, 162958, Control_c, 5, 11, 118
10, 162964, Control_c, 5, 11, 119
10, 162969, Control_c, 5, 11, 120
10, 162975, Control_c, 5, 11, 121
10, 162980, Control_c, 5, 11, 122
10, 162986, Control_c, 5, 11, 123
10, 162991, Control_c, 5, 11, 124
10, 162997, Control_c, 5, 11, 125
10, 163002, Control_c, 5, 11, 126
10, 163008, Control_c, 5, 11, 127
10, 163011, Control_c, 5, 11, 126
10, 163014, Control_c, 5, 11, 125
10, 163017, Control_c, 5, 11, 124
10, 163020, Control_c, 5, 11, 123
10, 163023, Control_c, 5, 11, 122
10, 163026, Control_c, 5, 11, 121
10, 163029, Control_c, 5, 11, 120
10, 163032, Control_c, 5, 11, 119
10, 163035, Control_c, 5, 11, 118
10, 163038, Control_c, 5, 11, 117
10, 163041, Control_c, 5, 11, 116
10, 163044, Control_c, 5, 11, 115
10, 163047, Control_c, 5, 11, 114
10, 163050, Control_c, 5, 11, 113
10, 163053, Control_c, 5, 11, 112
10, 163056, Control_c, 5, 11, 111
10, 163059, Control_c, 5, 11, 110
10, 163062, Control_c, 5, 11, 109
10, 163065, Control_c, 5, 11, 108
10, 163068, Control_c, 5, 11, 107
10, 163072, Control_c, 5, 11, 106
10, 163075, Control_c, 5, 11, 105
10, 163078, Control_c, 5, 11, 104
10, 163081, Control_c, 5, 11, 103
10, 163084, Control_c, 5, 11, 102
10, 163087, Control_c, 5, 11, 101
10, 163090, Control_c, 5, 11, 100
10, 163093, Control_c, 5, 11, 99
10, 163096, Control_c, 5, 11, 98
10, 163099, Control_c, 5, 11, 97
10, 163102, Control_c, 5, 11, 96
10, 163105, Control_c, 5, 11, 95
10, 163108, Control_c, 5, 11, 94
10, 163111, Control_c, 5, 11, 93
10, 163114, Control_c, 5, 11, 92
10, 163117, Control_c, 5, 11, 91
10, 163120, Control_c, 5, 11, 90
10, 163123, Control_c, 5, 11, 89
10, 163126, Control_c, 5, 11, 88
10, 163129, Control_c, 5, 11, 87
10, 163132, Control_c, 5, 11, 86
10, 163136, Control_c, 5, 11, 85
10, 163139, Control_c, 5, 11, 84
10, 163142, Control_c, 5, 11, 83
10, 163145, Control_c, 5, 11, 82
10, 163148, Control_c, 5, 11, 81
10, 163151, Control_c, 5, 11, 80
10, 163154, Control_c, 5, 11, 79
10, 163157, Control_c, 5, 11, 78
10, 163160, Control_c, 5, 11, 77
10, 163163, Control_c, 5, 11, 76
10, 163166, Control_c, 5, 11, 75
10, 163169, Control_c, 5, 11, 74
10, 163172, Control_c, 5, 11, 73
10, 163175, Control_c, 5, 11, 72
10, 163178, Control_c, 5, 11, 71
10, 163181, Control_c, 5, 11, 70
10, 163184, Control_c, 5, 11, 69
10, 163187, Control_c, 5, 11, 68
10, 163190, Control_c, 5, 11, 67
10, 163193, Control_c, 5, 11, 66
10, 163196, Control_c, 5, 11, 65
10, 163200, Control_c, 5, 11, 64
10, 163211, Control_c, 5, 11, 63
10, 163222, Control_c, 5, 11, 62
10, 163233, Control_c, 5, 11, 61
10, 163245, Control_c, 5, 11, 60
10, 163256, Control_c, 5, 11, 59
10, 163267, Control_c, 5, 11, 58
10, 163279, Control_c, 5, 11, 57
10, 163290, Control_c, 5, 11, 56
10, 163301, Control_c, 5, 11, 55
10, 163312, Control_c, 5, 11, 54
10, 163324, Control_c, 5, 11, 53
10, 163335, Control_c, 5, 11, 52
10, 163346, Control_c, 5, 11, 51
10, 163358, Control_c, 5, 11, 50
10, 163369, Control_c, 5, 11, 49
10, 163380, Control_c, 5, 11, 48
10, 163392, Control_c, 5, 11, 47
10, 163403, Control_c, 5, 11, 46
10, 163414, Control_c, 5, 11, 45
10, 163425, Control_c, 5, 11, 44
10, 163437, Control_c, 5, 11, 43
10, 163448, Control_c, 5, 11, 42
10, 163459, Control_c, 5, 11, 41
10, 163471, Control_c, 5, 11, 40
10, 163482, Control_c, 5, 11, 39
10, 163493, Control_c, 5, 11, 38
10, 163504, Control_c, 5, 11, 37
10, 163516, Control_c, 5, 11, 36
10, 163527, Control_c, 5, 11, 35
10, 163538, Control_c, 5, 11, 34
10, 163550, Control_c, 5, 11, 33
10, 163561, Control_c, 5, 11, 32
10, 163572, Control_c, 5, 11, 31
10, 163584, Control_c, 5, 11, 30
10, 164304, Note_on_c, 5, 64, 0
10, 164352, Control_c, 5, 11, 92
10, 164352, Note_on_c, 5, 64, 90
10, 164357, Control_c, 5, 11, 93
10, 164362, Control_c, 5, 11, 94
10, 164368, Control_c, 5, 11, 95
10, 164373, Control_c, 5, 11, 96
10, 164379, Control_c, 5, 11, 97
10, 164384, Control_c, 5, 11, 98
10, 164390, Control_c, 5, 11, 99
10, 164395, Control_c, 5, 11, 100
10, 164398, Note_on_c, 5, 64, 0
10, 164400, Note_on_c, 5, 64, 90
10, 164401, Control_c, 5, 11, 101
10, 164406, Control_c, 5, 11, 102
10, 164412, Control_c, 5, 11, 103
10, 164417, Control_c, 5, 11, 104
10, 164423, Control_c, 5, 11, 105
10, 164428, Control_c, 5, 11, 106
10, 164434, Control_c, 5, 11, 107
10, 164439, Control_c, 5, 11, 108
10, 164445, Control_c, 5, 11, 109
10, 164450, Control_c, 5, 11, 110
10, 164456, Control_c, 5, 11, 111
10, 164461, Control_c, 5, 11, 112
10, 164467, Control_c, 5, 11, 113
10, 164472, Control_c, 5, 11, 114
10, 164478, Control_c, 5, 11, 115
10, 164483, Control_c, 5, 11, 116
10, 164489, Control_c, 5, 11, 117
10, 164494, Control_c, 5, 11, 118
10, 164500, Control_c, 5, 11, 119
10, 164505, Control_c, 5, 11, 120
10, 164511, Control_c, 5, 11, 121
10, 164516, Control_c, 5, 11, 122
10, 164522, Control_c, 5, 11, 123
10, 164527, Control_c, 5, 11, 124
10, 164533, Control_c, 5, 11, 125
10, 164538, Control_c, 5, 11, 126
10, 164544, Control_c, 5, 11, 127
10, 164547, Control_c, 5, 11, 126
10, 164550, Control_c, 5, 11, 125
10, 164553, Control_c, 5, 11, 124
10, 164556, Control_c, 5, 11, 123
10, 164559, Control_c, 5, 11, 122
10, 164562, Control_c, 5, 11, 121
10, 164565, Control_c, 5, 11, 120
10, 164568, Control_c, 5, 11, 119
10, 164571, Control_c, 5, 11, 118
10, 164574, Control_c, 5, 11, 117
10, 164577, Control_c, 5, 11, 116
10, 164580, Control_c, 5, 11, 115
10, 164583, Control_c, 5, 11, 114
10, 164586, Control_c, 5, 11, 113
10, 164589, Control_c, 5, 11, 112
10, 164592, Control_c, 5, 11, 111
10, 164595, Control_c, 5, 11, 110
10, 164598, Control_c, 5, 11, 109
10, 164601, Control_c, 5, 11, 108
10, 164604, Control_c, 5, 11, 107
10, 164608, Control_c, 5, 11, 106
10, 164611, Control_c, 5, 11, 105
10, 164614, Control_c, 5, 11, 104
10, 164617, Control_c, 5, 11, 103
10, 164620, Control_c, 5, 11, 102
10, 164623, Control_c, 5, 11, 101
10, 164626, Control_c, 5, 11, 100
10, 164629, Control_c, 5, 11, 99
10, 164632, Control_c, 5, 11, 98
10, 164635, Control_c, 5, 11, 97
10, 164638, Control_c, 5, 11, 96
10, 164641, Control_c, 5, 11, 95
10, 164644, Control_c, 5, 11, 94
10, 164647, Control_c, 5, 11, 93
10, 164650, Control_c, 5, 11, 92
10, 164653, Control_c, 5, 11, 91
10, 164656, Control_c, 5, 11, 90
10, 164659, Control_c, 5, 11, 89
10, 164662, Control_c, 5, 11, 88
10, 164665, Control_c, 5, 11, 87
10, 164668, Control_c, 5, 11, 86
10, 164672, Control_c, 5, 11, 85
10, 164675, Control_c, 5, 11, 84
10, 164678, Control_c, 5, 11, 83
10, 164681, Control_c, 5, 11, 82
10, 164684, Control_c, 5, 11, 81
10, 164687, Control_c, 5, 11, 80
10, 164690, Control_c, 5, 11, 79
10, 164693, Control_c, 5, 11, 78
10, 164696, Control_c, 5, 11, 77
10, 164699, Control_c, 5, 11, 76
10, 164702, Control_c, 5, 11, 75
10, 164705, Control_c, 5, 11, 74
10, 164708, Control_c, 5, 11, 73
10, 164711, Control_c, 5, 11, 72
10, 164714, Control_c, 5, 11, 71
10, 164717, Control_c, 5, 11, 70
10, 164720, Control_c, 5, 11, 69
10, 164723, Control_c, 5, 11, 68
10, 164726, Control_c, 5, 11, 67
10, 164729, Control_c, 5, 11, 66
10, 164732, Control_c, 5, 11, 65
10, 164736, Control_c, 5, 11, 64
10, 164747, Control_c, 5, 11, 63
10, 164758, Control_c, 5, 11, 62
10, 164769, Control_c, 5, 11, 61
10, 164781, Control_c, 5, 11, 60
10, 164792, Control_c, 5, 11, 59
10, 164803, Control_c, 5, 11, 58
10, 164815, Control_c, 5, 11, 57
10, 164826, Control_c, 5, 11, 56
10, 164837, Control_c, 5, 11, 55
10, 164848, Control_c, 5, 11, 54
10, 164860, Control_c, 5, 11, 53
10, 164871, Control_c, 5, 11, 52
10, 164882, Control_c, 5, 11, 51
10, 164894, Control_c, 5, 11, 50
10, 164905, Control_c, 5, 11, 49
10, 164916, Control_c, 5, 11, 48
10, 164928, Control_c, 5, 11, 47
10, 164939, Control_c, 5, 11, 46
10, 164950, Control_c, 5, 11, 45
10, 164961, Control_c, 5, 11, 44
10, 164973, Control_c, 5, 11, 43
10, 164984, Control_c, 5, 11, 42
10, 164995, Control_c, 5, 11, 41
10, 165007, Control_c, 5, 11, 40
10, 165018, Control_c, 5, 11, 39
10, 165029, Control_c, 5, 11, 38
10, 165040, Control_c, 5, 11, 37
10, 165052, Control_c, 5, 11, 36
10, 165063, Control_c, 5, 11, 35
10, 165074, Control_c, 5, 11, 34
10, 165086, Control_c, 5, 11, 33
10, 165097, Control_c, 5, 11, 32
10, 165108, Control_c, 5, 11, 31
10, 165120, Control_c, 5, 11, 30
10, 165840, Note_on_c, 5, 64, 0
10, 167424, Note_on_c, 5, 64, 90
10, 167424, Control_c, 5, 11, 92
10, 167429, Control_c, 5, 11, 93
10, 167434, Control_c, 5, 11, 94
10, 167440, Control_c, 5, 11, 95
10, 167445, Control_c, 5, 11, 96
10, 167451, Control_c, 5, 11, 97
10, 167456, Control_c, 5, 11, 98
10, 167462, Control_c, 5, 11, 99
10, 167467, Control_c, 5, 11, 100
10, 167470, Note_on_c, 5, 64, 0
10, 167472, Note_on_c, 5, 64, 96
10, 167473, Control_c, 5, 11, 101
10, 167478, Control_c, 5, 11, 102
10, 167484, Control_c, 5, 11, 103
10, 167489, Control_c, 5, 11, 104
10, 167495, Control_c, 5, 11, 105
10, 167500, Control_c, 5, 11, 106
10, 167506, Control_c, 5, 11, 107
10, 167511, Control_c, 5, 11, 108
10, 167517, Control_c, 5, 11, 109
10, 167522, Control_c, 5, 11, 110
10, 167528, Control_c, 5, 11, 111
10, 167533, Control_c, 5, 11, 112
10, 167539, Control_c, 5, 11, 113
10, 167544, Control_c, 5, 11, 114
10, 167550, Control_c, 5, 11, 115
10, 167555, Control_c, 5, 11, 116
10, 167561, Control_c, 5, 11, 117
10, 167566, Control_c, 5, 11, 118
10, 167572, Control_c, 5, 11, 119
10, 167577, Control_c, 5, 11, 120
10, 167583, Control_c, 5, 11, 121
10, 167588, Control_c, 5, 11, 122
10, 167594, Control_c, 5, 11, 123
10, 167599, Control_c, 5, 11, 124
10, 167605, Control_c, 5, 11, 125
10, 167610, Control_c, 5, 11, 126
10, 167616, Control_c, 5, 11, 127
10, 167619, Control_c, 5, 11, 126
10, 167622, Control_c, 5, 11, 125
10, 167625, Control_c, 5, 11, 124
10, 167628, Control_c, 5, 11, 123
10, 167631, Control_c, 5, 11, 122
10, 167634, Control_c, 5, 11, 121
10, 167637, Control_c, 5, 11, 120
10, 167640, Control_c, 5, 11, 119
10, 167643, Control_c, 5, 11, 118
10, 167646, Control_c, 5, 11, 117
10, 167649, Control_c, 5, 11, 116
10, 167652, Control_c, 5, 11, 115
10, 167655, Control_c, 5, 11, 114
10, 167658, Control_c, 5, 11, 113
10, 167661, Control_c, 5, 11, 112
10, 167664, Control_c, 5, 11, 111
10, 167667, Control_c, 5, 11, 110
10, 167670, Control_c, 5, 11, 109
10, 167673, Control_c, 5, 11, 108
10, 167676, Control_c, 5, 11, 107
10, 167680, Control_c, 5, 11, 106
10, 167683, Control_c, 5, 11, 105
10, 167686, Control_c, 5, 11, 104
10, 167689, Control_c, 5, 11, 103
10, 167692, Control_c, 5, 11, 102
10, 167695, Control_c, 5, 11, 101
10, 167698, Control_c, 5, 11, 100
10, 167701, Control_c, 5, 11, 99
10, 167704, Control_c, 5, 11, 98
10, 167707, Control_c, 5, 11, 97
10, 167710, Control_c, 5, 11, 96
10, 167713, Control_c, 5, 11, 95
10, 167716, Control_c, 5, 11, 94
10, 167719, Control_c, 5, 11, 93
10, 167722, Control_c, 5, 11, 92
10, 167725, Control_c, 5, 11, 91
10, 167728, Control_c, 5, 11, 90
10, 167731, Control_c, 5, 11, 89
10, 167734, Control_c, 5, 11, 88
10, 167737, Control_c, 5, 11, 87
10, 167740, Control_c, 5, 11, 86
10, 167744, Control_c, 5, 11, 85
10, 167747, Control_c, 5, 11, 84
10, 167750, Control_c, 5, 11, 83
10, 167753, Control_c, 5, 11, 82
10, 167756, Control_c, 5, 11, 81
10, 167759, Control_c, 5, 11, 80
10, 167762, Control_c, 5, 11, 79
10, 167765, Control_c, 5, 11, 78
10, 167768, Control_c, 5, 11, 77
10, 167771, Control_c, 5, 11, 76
10, 167774, Control_c, 5, 11, 75
10, 167777, Control_c, 5, 11, 74
10, 167780, Control_c, 5, 11, 73
10, 167783, Control_c, 5, 11, 72
10, 167786, Control_c, 5, 11, 71
10, 167789, Control_c, 5, 11, 70
10, 167792, Control_c, 5, 11, 69
10, 167795, Control_c, 5, 11, 68
10, 167798, Control_c, 5, 11, 67
10, 167801, Control_c, 5, 11, 66
10, 167804, Control_c, 5, 11, 65
10, 167808, Control_c, 5, 11, 64
10, 167819, Control_c, 5, 11, 63
10, 167830, Control_c, 5, 11, 62
10, 167841, Control_c, 5, 11, 61
10, 167853, Control_c, 5, 11, 60
10, 167864, Control_c, 5, 11, 59
10, 167875, Control_c, 5, 11, 58
10, 167887, Control_c, 5, 11, 57
10, 167898, Control_c, 5, 11, 56
10, 167909, Control_c, 5, 11, 55
10, 167920, Control_c, 5, 11, 54
10, 167932, Control_c, 5, 11, 53
10, 167943, Control_c, 5, 11, 52
10, 167954, Control_c, 5, 11, 51
10, 167966, Control_c, 5, 11, 50
10, 167977, Control_c, 5, 11, 49
10, 167988, Control_c, 5, 11, 48
10, 168000, Control_c, 5, 11, 47
10, 168011, Control_c, 5, 11, 46
10, 168022, Control_c, 5, 11, 45
10, 168033, Control_c, 5, 11, 44
10, 168045, Control_c, 5, 11, 43
10, 168056, Control_c, 5, 11, 42
10, 168067, Control_c, 5, 11, 41
10, 168079, Control_c, 5, 11, 40
10, 168090, Control_c, 5, 11, 39
10, 168101, Control_c, 5, 11, 38
10, 168112, Control_c, 5, 11, 37
10, 168124, Control_c, 5, 11, 36
10, 168135, Control_c, 5, 11, 35
10, 168146, Control_c, 5, 11, 34
10, 168158, Control_c, 5, 11, 33
10, 168169, Control_c, 5, 11, 32
10, 168180, Control_c, 5, 11, 31
10, 168192, Control_c, 5, 11, 30
10, 168912, Note_on_c, 5, 64, 0
10, 168960, Control_c, 5, 11, 127
10, 168960, Note_on_c, 5, 64, 50
10, 169102, Note_on_c, 5, 64, 0
10, 169104, Note_on_c, 5, 63, 40
10, 169136, Note_on_c, 5, 63, 0
10, 169152, Note_on_c, 5, 62, 38
10, 169194, Note_on_c, 5, 62, 0
10, 169216, Note_on_c, 5, 61, 41
10, 169258, Note_on_c, 5, 61, 0
10, 169280, Note_on_c, 5, 60, 32
10, 169322, Note_on_c, 5, 60, 0
10, 169344, Note_on_c, 5, 64, 40
10, 169486, Note_on_c, 5, 64, 0
10, 169488, Note_on_c, 5, 63, 44
10, 169520, Note_on_c, 5, 63, 0
10, 169536, Note_on_c, 5, 62, 40
10, 169578, Note_on_c, 5, 62, 0
10, 169600, Note_on_c, 5, 61, 33
10, 169642, Note_on_c, 5, 61, 0
10, 169664, Note_on_c, 5, 60, 30
10, 169706, Note_on_c, 5, 60, 0
10, 169728, Note_on_c, 5, 59, 41
10, 169854, Note_on_c, 5, 59, 0
10, 169856, Note_on_c, 5, 58, 47
10, 169898, Note_on_c, 5, 58, 0
10, 169920, Note_on_c, 5, 57, 54
10, 169962, Note_on_c, 5, 57, 0
10, 169984, Note_on_c, 5, 56, 69
10, 170026, Note_on_c, 5, 56, 0
10, 170048, Note_on_c, 5, 55, 80
10, 170090, Note_on_c, 5, 55, 0
10, 170112, Note_on_c, 5, 57, 33
10, 170112, Note_on_c, 5, 53, 33
10, 170112, Note_on_c, 5, 61, 28
10, 170238, Note_on_c, 5, 53, 0
10, 170240, Note_on_c, 5, 53, 29
10, 170254, Note_on_c, 5, 57, 0
10, 170254, Note_on_c, 5, 61, 0
10, 170256, Note_on_c, 5, 58, 26
10, 170256, Note_on_c, 5, 61, 28
10, 170282, Note_on_c, 5, 53, 0
10, 170288, Note_on_c, 5, 58, 0
10, 170288, Note_on_c, 5, 61, 0
10, 170304, Note_on_c, 5, 59, 27
10, 170304, Note_on_c, 5, 53, 31
10, 170304, Note_on_c, 5, 61, 23
10, 170346, Note_on_c, 5, 59, 0
10, 170346, Note_on_c, 5, 53, 0
10, 170346, Note_on_c, 5, 61, 0
10, 170368, Note_on_c, 5, 53, 27
10, 170368, Note_on_c, 5, 59, 28
10, 170368, Note_on_c, 5, 61, 29
10, 170410, Note_on_c, 5, 53, 0
10, 170410, Note_on_c, 5, 59, 0
10, 170410, Note_on_c, 5, 61, 0
10, 170432, Note_on_c, 5, 59, 24
10, 170432, Note_on_c, 5, 53, 19
10, 170432, Note_on_c, 5, 62, 21
10, 170474, Note_on_c, 5, 59, 0
10, 170474, Note_on_c, 5, 53, 0
10, 170474, Note_on_c, 5, 62, 0
10, 177408, Control_c, 5, 11, 127
10, 177600, Note_on_c, 5, 57, 35
10, 177600, Note_on_c, 5, 64, 26
10, 177600, Note_on_c, 5, 61, 32
10, 177642, Note_on_c, 5, 57, 0
10, 177664, Note_on_c, 5, 56, 30
10, 177694, Note_on_c, 5, 64, 0
10, 177694, Note_on_c, 5, 61, 0
10, 177706, Note_on_c, 5, 56, 0
10, 177728, Note_on_c, 5, 55, 31
10, 177770, Note_on_c, 5, 55, 0
10, 177984, Note_on_c, 5, 69, 31
10, 177984, Note_on_c, 5, 64, 28
10, 177984, Note_on_c, 5, 61, 34
10, 178026, Note_on_c, 5, 69, 0
10, 178048, Note_on_c, 5, 68, 35
10, 178078, Note_on_c, 5, 64, 0
10, 178078, Note_on_c, 5, 61, 0
10, 178090, Note_on_c, 5, 68, 0
10, 178112, Note_on_c, 5, 67, 26
10, 178154, Note_on_c, 5, 67, 0
10, 178368, Note_on_c, 5, 64, 31
10, 178368, Note_on_c, 5, 61, 32
10, 178368, Note_on_c, 5, 57, 30
10, 178410, Note_on_c, 5, 57, 0
10, 178432, Note_on_c, 5, 56, 30
10, 178462, Note_on_c, 5, 64, 0
10, 178462, Note_on_c, 5, 61, 0
10, 178474, Note_on_c, 5, 56, 0
10, 178496, Note_on_c, 5, 55, 29
10, 178538, Note_on_c, 5, 55, 0
10, 178752, Note_on_c, 5, 64, 28
10, 178752, Note_on_c, 5, 69, 29
10, 178752, Note_on_c, 5, 61, 27
10, 178794, Note_on_c, 5, 69, 0
10, 178816, Note_on_c, 5, 68, 30
10, 178846, Note_on_c, 5, 64, 0
10, 178846, Note_on_c, 5, 61, 0
10, 178858, Note_on_c, 5, 68, 0
10, 178880, Note_on_c, 5, 67, 31
10, 178922, Note_on_c, 5, 67, 0
10, 179136, Note_on_c, 5, 64, 28
10, 179136, Note_on_c, 5, 57, 35
10, 179136, Note_on_c, 5, 61, 35
10, 179178, Note_on_c, 5, 57, 0
10, 179200, Note_on_c, 5, 56, 32
10, 179230, Note_on_c, 5, 64, 0
10, 179230, Note_on_c, 5, 61, 0
10, 179242, Note_on_c, 5, 56, 0
10, 179264, Note_on_c, 5, 55, 34
10, 179306, Note_on_c, 5, 55, 0
10, 179520, Note_on_c, 5, 61, 32
10, 179520, Note_on_c, 5, 64, 35
10, 179520, Note_on_c, 5, 69, 26
10, 179562, Note_on_c, 5, 69, 0
10, 179584, Note_on_c, 5, 68, 32
10, 179614, Note_on_c, 5, 61, 0
10, 179614, Note_on_c, 5, 64, 0
10, 179626, Note_on_c, 5, 68, 0
10, 179648, Note_on_c, 5, 67, 29
10, 179690, Note_on_c, 5, 67, 0
10, 179904, Note_on_c, 5, 57, 25
10, 179904, Note_on_c, 5, 61, 31
10, 179904, Note_on_c, 5, 64, 30
10, 179946, Note_on_c, 5, 57, 0
10, 179968, Note_on_c, 5, 56, 27
10, 179998, Note_on_c, 5, 61, 0
10, 179998, Note_on_c, 5, 64, 0
10, 180010, Note_on_c, 5, 56, 0
10, 180032, Note_on_c, 5, 55, 31
10, 180074, Note_on_c, 5, 55, 0
10, 180288, Note_on_c, 5, 64, 34
10, 180288, Note_on_c, 5, 69, 29
10, 180288, Note_on_c, 5, 61, 28
10, 180330, Note_on_c, 5, 69, 0
10, 180352, Note_on_c, 5, 68, 31
10, 180382, Note_on_c, 5, 64, 0
10, 180382, Note_on_c, 5, 61, 0
10, 180394, Note_on_c, 5, 68, 0
10, 180416, Note_on_c, 5, 67, 35
10, 180458, Note_on_c, 5, 67, 0
10, 180672, Note_on_c, 5, 67, 78
10, 180672, Note_on_c, 5, 57, 34
10, 180672, Note_on_c, 5, 61, 35
10, 180714, Note_on_c, 5, 57, 0
10, 180736, Note_on_c, 5, 56, 30
10, 180766, Note_on_c, 5, 67, 0
10, 180766, Note_on_c, 5, 61, 0
10, 180778, Note_on_c, 5, 56, 0
10, 180800, Note_on_c, 5, 55, 32
10, 180842, Note_on_c, 5, 55, 0
10, 181056, Note_on_c, 5, 61, 26
10, 181056, Note_on_c, 5, 67, 77
10, 181150, Note_on_c, 5, 61, 0
10, 181150, Note_on_c, 5, 67, 0
10, 181440, Note_on_c, 5, 61, 28
10, 181440, Note_on_c, 5, 57, 26
10, 181440, Note_on_c, 5, 67, 73
10, 181482, Note_on_c, 5, 57, 0
10, 181504, Note_on_c, 5, 56, 30
10, 181534, Note_on_c, 5, 61, 0
10, 181534, Note_on_c, 5, 67, 0
10, 181546, Note_on_c, 5, 56, 0
10, 181568, Note_on_c, 5, 55, 34
10, 181610, Note_on_c, 5, 55, 0
10, 181824, Note_on_c, 5, 67, 77
10, 181824, Note_on_c, 5, 61, 27
10, 181918, Note_on_c, 5, 67, 0
10, 181918, Note_on_c, 5, 61, 0
10, 182208, Note_on_c, 5, 67, 74
10, 182208, Note_on_c, 5, 57, 30
10, 182208, Note_on_c, 5, 61, 32
10, 182250, Note_on_c, 5, 57, 0
10, 182272, Note_on_c, 5, 56, 33
10, 182302, Note_on_c, 5, 67, 0
10, 182302, Note_on_c, 5, 61, 0
10, 182314, Note_on_c, 5, 56, 0
10, 182336, Note_on_c, 5, 55, 28
10, 182378, Note_on_c, 5, 55, 0
10, 182592, Note_on_c, 5, 61, 26
10, 182592, Note_on_c, 5, 67, 97
10, 182686, Note_on_c, 5, 61, 0
10, 182686, Note_on_c, 5, 67, 0
10, 189504, Note_on_c, 5, 61, 95
10, 189504, Note_on_c, 5, 64, 93
10, 190416, Note_on_c, 5, 61, 0
10, 190416, Note_on_c, 5, 64, 0
10, 191040, Control_c, 5, 11, 64
10, 191040, Note_on_c, 5, 64, 76
10, 191040, Note_on_c, 5, 61, 73
10, 191232, Control_c, 5, 11, 64
10, 191244, Control_c, 5, 11, 65
10, 191256, Control_c, 5, 11, 66
10, 191268, Control_c, 5, 11, 67
10, 191280, Control_c, 5, 11, 68
10, 191292, Control_c, 5, 11, 69
10, 191305, Control_c, 5, 11, 70
10, 191317, Control_c, 5, 11, 71
10, 191329, Control_c, 5, 11, 72
10, 191341, Control_c, 5, 11, 73
10, 191353, Control_c, 5, 11, 74
10, 191366, Control_c, 5, 11, 75
10, 191378, Control_c, 5, 11, 76
10, 191390, Control_c, 5, 11, 77
10, 191402, Control_c, 5, 11, 78
10, 191414, Control_c, 5, 11, 79
10, 191427, Control_c, 5, 11, 80
10, 191439, Control_c, 5, 11, 81
10, 191451, Control_c, 5, 11, 82
10, 191463, Control_c, 5, 11, 83
10, 191475, Control_c, 5, 11, 84
10, 191488, Control_c, 5, 11, 85
10, 191500, Control_c, 5, 11, 86
10, 191512, Control_c, 5, 11, 87
10, 191524, Control_c, 5, 11, 88
10, 191536, Control_c, 5, 11, 89
10, 191548, Control_c, 5, 11, 90
10, 191561, Control_c, 5, 11, 91
10, 191573, Control_c, 5, 11, 92
10, 191585, Control_c, 5, 11, 93
10, 191597, Control_c, 5, 11, 94
10, 191609, Control_c, 5, 11, 95
10, 191622, Control_c, 5, 11, 96
10, 191634, Control_c, 5, 11, 97
10, 191646, Control_c, 5, 11, 98
10, 191658, Control_c, 5, 11, 99
10, 191670, Control_c, 5, 11, 100
10, 191683, Control_c, 5, 11, 101
10, 191695, Control_c, 5, 11, 102
10, 191707, Control_c, 5, 11, 103
10, 191719, Control_c, 5, 11, 104
10, 191731, Control_c, 5, 11, 105
10, 191744, Control_c, 5, 11, 106
10, 191756, Control_c, 5, 11, 107
10, 191768, Control_c, 5, 11, 108
10, 191780, Control_c, 5, 11, 109
10, 191792, Control_c, 5, 11, 110
10, 191804, Control_c, 5, 11, 111
10, 191817, Control_c, 5, 11, 112
10, 191829, Control_c, 5, 11, 113
10, 191841, Control_c, 5, 11, 114
10, 191853, Control_c, 5, 11, 115
10, 191865, Control_c, 5, 11, 116
10, 191878, Control_c, 5, 11, 117
10, 191890, Control_c, 5, 11, 118
10, 191902, Control_c, 5, 11, 119
10, 191914, Control_c, 5, 11, 120
10, 191926, Control_c, 5, 11, 121
10, 191939, Control_c, 5, 11, 122
10, 191951, Control_c, 5, 11, 123
10, 191952, Note_on_c, 5, 64, 0
10, 191952, Note_on_c, 5, 61, 0
10, 191963, Control_c, 5, 11, 124
10, 191975, Control_c, 5, 11, 125
10, 191987, Control_c, 5, 11, 126
10, 192000, Note_on_c, 5, 71, 72
10, 192000, Control_c, 5, 11, 127
10, 192126, Note_on_c, 5, 71, 0
10, 192128, Note_on_c, 5, 71, 71
10, 192254, Note_on_c, 5, 71, 0
10, 192256, Note_on_c, 5, 70, 75
10, 192382, Note_on_c, 5, 70, 0
10, 192384, Note_on_c, 5, 69, 76
10, 192510, Note_on_c, 5, 69, 0
10, 192512, Note_on_c, 5, 69, 77
10, 192638, Note_on_c, 5, 69, 0
10, 192640, Note_on_c, 5, 66, 80
10, 192766, Note_on_c, 5, 66, 0
10, 192768, Note_on_c, 5, 62, 78
10, 192928, Note_on_c, 5, 62, 0
10, 192960, Note_on_c, 5, 64, 81
10, 193120, Note_on_c, 5, 64, 0
10, 193152, Note_on_c, 5, 65, 77
10, 193488, Note_on_c, 5, 65, 0
10, 193536, Note_on_c, 5, 60, 34
10, 193536, Note_on_c, 5, 56, 26
10, 193536, Note_on_c, 5, 64, 86
10, 193662, Note_on_c, 5, 64, 0
10, 193664, Note_on_c, 5, 64, 86
10, 193790, Note_on_c, 5, 64, 0
10, 193792, Note_on_c, 5, 63, 86
10, 193870, Note_on_c, 5, 60, 0
10, 193870, Note_on_c, 5, 56, 0
10, 193872, Note_on_c, 5, 59, 31
10, 193872, Note_on_c, 5, 55, 31
10, 193918, Note_on_c, 5, 63, 0
10, 193918, Note_on_c, 5, 59, 0
10, 193918, Note_on_c, 5, 55, 0
10, 193920, Note_on_c, 5, 62, 84
10, 193920, Note_on_c, 5, 54, 32
10, 193920, Note_on_c, 5, 58, 33
10, 194046, Note_on_c, 5, 62, 0
10, 194048, Note_on_c, 5, 62, 85
10, 194174, Note_on_c, 5, 62, 0
10, 194176, Note_on_c, 5, 59, 88
10, 194254, Note_on_c, 5, 54, 0
10, 194254, Note_on_c, 5, 58, 0
10, 194256, Note_on_c, 5, 53, 33
10, 194256, Note_on_c, 5, 56, 26
10, 194302, Note_on_c, 5, 59, 0
10, 194302, Note_on_c, 5, 53, 0
10, 194302, Note_on_c, 5, 56, 0
10, 194304, Note_on_c, 5, 52, 96
10, 194304, Note_on_c, 5, 64, 93
10, 194304, Note_on_c, 5, 56, 89
10, 194304, Note_on_c, 5, 68, 88
10, 194464, Note_on_c, 5, 52, 0
10, 194464, Note_on_c, 5, 56, 0
10, 194496, Note_on_c, 5, 60, 95
10, 194496, Note_on_c, 5, 56, 87
10, 194656, Note_on_c, 5, 60, 0
10, 194656, Note_on_c, 5, 56, 0
10, 194688, Note_on_c, 5, 64, 93
10, 194688, Note_on_c, 5, 60, 95
10, 194848, Note_on_c, 5, 68, 0
10, 195024, Note_on_c, 5, 64, 0
10, 195456, Note_on_c, 5, 54, 76
10, 195648, Note_on_c, 5, 54, 0
10, 195648, Note_on_c, 5, 55, 77
10, 195792, Note_on_c, 5, 64, 0
10, 195792, Note_on_c, 5, 60, 0
10, 195840, Note_on_c, 5, 55, 0
10, 195840, Note_on_c, 5, 57, 93
10, 195840, Note_on_c, 5, 61, 88
10, 195840, Note_on_c, 5, 65, 108
10, 195840, Note_on_c, 5, 57, 110
10, 195840, Control_c, 5, 11, 92
10, 195966, Note_on_c, 5, 57, 0
10, 195966, Note_on_c, 5, 57, 0
10, 195968, Note_on_c, 5, 57, 111
10, 195968, Note_on_c, 5, 57, 95
10, 196094, Note_on_c, 5, 57, 0
10, 196094, Note_on_c, 5, 57, 0
10, 196096, Note_on_c, 5, 56, 97
10, 196096, Note_on_c, 5, 56, 107
10, 196222, Note_on_c, 5, 56, 0
10, 196224, Note_on_c, 5, 56, 95
10, 196944, Note_on_c, 5, 56, 0
10, 196944, Note_on_c, 5, 56, 0
10, 196992, Note_on_c, 5, 57, 93
10, 196992, Control_c, 5, 11, 92
10, 196992, Note_on_c, 5, 57, 111
10, 197002, Control_c, 5, 11, 93
10, 197013, Control_c, 5, 11, 94
10, 197024, Control_c, 5, 11, 95
10, 197035, Control_c, 5, 11, 96
10, 197046, Control_c, 5, 11, 97
10, 197057, Control_c, 5, 11, 98
10, 197068, Control_c, 5, 11, 99
10, 197079, Control_c, 5, 11, 100
10, 197090, Control_c, 5, 11, 101
10, 197101, Control_c, 5, 11, 102
10, 197112, Control_c, 5, 11, 103
10, 197118, Note_on_c, 5, 57, 0
10, 197118, Note_on_c, 5, 57, 0
10, 197120, Note_on_c, 5, 57, 108
10, 197120, Note_on_c, 5, 57, 94
10, 197123, Control_c, 5, 11, 104
10, 197134, Control_c, 5, 11, 105
10, 197145, Control_c, 5, 11, 106
10, 197156, Control_c, 5, 11, 107
10, 197167, Control_c, 5, 11, 108
10, 197178, Control_c, 5, 11, 109
10, 197189, Control_c, 5, 11, 110
10, 197200, Control_c, 5, 11, 111
10, 197211, Control_c, 5, 11, 112
10, 197222, Control_c, 5, 11, 113
10, 197233, Control_c, 5, 11, 114
10, 197244, Control_c, 5, 11, 115
10, 197246, Note_on_c, 5, 57, 0
10, 197246, Note_on_c, 5, 57, 0
10, 197248, Note_on_c, 5, 56, 88
10, 197248, Note_on_c, 5, 56, 110
10, 197255, Control_c, 5, 11, 116
10, 197266, Control_c, 5, 11, 117
10, 197277, Control_c, 5, 11, 118
10, 197288, Control_c, 5, 11, 119
10, 197299, Control_c, 5, 11, 120
10, 197310, Control_c, 5, 11, 121
10, 197321, Control_c, 5, 11, 122
10, 197328, Note_on_c, 5, 61, 0
10, 197328, Note_on_c, 5, 65, 0
10, 197332, Control_c, 5, 11, 123
10, 197343, Control_c, 5, 11, 124
10, 197354, Control_c, 5, 11, 125
10, 197365, Control_c, 5, 11, 126
10, 197374, Note_on_c, 5, 56, 0
10, 197374, Note_on_c, 5, 56, 0
10, 197376, Control_c, 5, 11, 127
10, 197376, Note_on_c, 5, 58, 105
10, 197376, Note_on_c, 5, 65, 107
10, 197376, Note_on_c, 5, 61, 97
10, 197376, Note_on_c, 5, 58, 92
10, 197502, Note_on_c, 5, 58, 0
10, 197502, Note_on_c, 5, 58, 0
10, 197504, Note_on_c, 5, 58, 108
10, 197504, Note_on_c, 5, 58, 94
10, 197630, Note_on_c, 5, 58, 0
10, 197630, Note_on_c, 5, 58, 0
10, 197632, Note_on_c, 5, 56, 96
10, 197632, Note_on_c, 5, 56, 107
10, 197758, Note_on_c, 5, 56, 0
10, 197760, Note_on_c, 5, 56, 96
10, 198480, Note_on_c, 5, 56, 0
10, 198480, Note_on_c, 5, 56, 0
10, 198528, Note_on_c, 5, 58, 104
10, 198528, Note_on_c, 5, 58, 94
10, 198654, Note_on_c, 5, 58, 0
10, 198654, Note_on_c, 5, 58, 0
10, 198656, Note_on_c, 5, 58, 90
10, 198656, Note_on_c, 5, 58, 112
10, 198782, Note_on_c, 5, 58, 0
10, 198782, Note_on_c, 5, 58, 0
10, 198784, Note_on_c, 5, 56, 94
10, 198784, Note_on_c, 5, 56, 109
10, 198864, Note_on_c, 5, 65, 0
10, 198864, Note_on_c, 5, 61, 0
10, 198910, Note_on_c, 5, 56, 0
10, 198910, Note_on_c, 5, 56, 0
10, 198912, Note_on_c, 5, 65, 93
10, 198912, Note_on_c, 5, 61, 96
10, 199168, Note_on_c, 5, 65, 0
10, 199168, Note_on_c, 5, 61, 0
10, 199168, Note_on_c, 5, 65, 97
10, 199168, Note_on_c, 5, 61, 90
10, 199424, Note_on_c, 5, 65, 0
10, 199424, Note_on_c, 5, 61, 0
10, 199424, Note_on_c, 5, 61, 90
10, 199424, Note_on_c, 5, 65, 92
10, 199680, Note_on_c, 5, 61, 0
10, 199680, Note_on_c, 5, 65, 0
10, 199680, Note_on_c, 5, 65, 94
10, 199680, Note_on_c, 5, 61, 96
10, 200064, Note_on_c, 5, 65, 0
10, 200064, Note_on_c, 5, 61, 0
10, 200064, Note_on_c, 5, 58, 96
10, 200064, Note_on_c, 5, 61, 94
10, 201168, Note_on_c, 5, 58, 0
10, 201168, Note_on_c, 5, 61, 0
10, 201216, Control_c, 5, 11, 75
10, 201216, Note_on_c, 5, 61, 125
10, 201216, Note_on_c, 5, 65, 125
10, 201252, Control_c, 5, 11, 76
10, 201289, Control_c, 5, 11, 77
10, 201326, Control_c, 5, 11, 78
10, 201363, Control_c, 5, 11, 79
10, 201400, Control_c, 5, 11, 80
10, 201437, Control_c, 5, 11, 81
10, 201474, Control_c, 5, 11, 82
10, 201511, Control_c, 5, 11, 83
10, 201548, Control_c, 5, 11, 84
10, 201585, Control_c, 5, 11, 85
10, 201622, Control_c, 5, 11, 86
10, 201659, Control_c, 5, 11, 87
10, 201695, Control_c, 5, 11, 88
10, 201732, Control_c, 5, 11, 89
10, 201769, Control_c, 5, 11, 90
10, 201806, Control_c, 5, 11, 91
10, 201843, Control_c, 5, 11, 92
10, 201880, Control_c, 5, 11, 93
10, 201917, Control_c, 5, 11, 94
10, 201954, Control_c, 5, 11, 95
10, 201984, Note_on_c, 5, 61, 0
10, 201984, Note_on_c, 5, 65, 0
10, 201984, Note_on_c, 5, 61, 127
10, 201984, Note_on_c, 5, 70, 126
10, 201984, Note_on_c, 5, 66, 127
10, 201991, Control_c, 5, 11, 96
10, 202028, Control_c, 5, 11, 97
10, 202065, Control_c, 5, 11, 98
10, 202102, Control_c, 5, 11, 99
10, 202139, Control_c, 5, 11, 100
10, 202175, Control_c, 5, 11, 101
10, 202212, Control_c, 5, 11, 102
10, 202249, Control_c, 5, 11, 103
10, 202286, Control_c, 5, 11, 104
10, 202323, Control_c, 5, 11, 105
10, 202360, Control_c, 5, 11, 106
10, 202397, Control_c, 5, 11, 107
10, 202434, Control_c, 5, 11, 108
10, 202471, Control_c, 5, 11, 109
10, 202508, Control_c, 5, 11, 110
10, 202545, Control_c, 5, 11, 111
10, 202582, Control_c, 5, 11, 112
10, 202619, Control_c, 5, 11, 113
10, 202655, Control_c, 5, 11, 114
10, 202692, Control_c, 5, 11, 115
10, 202729, Control_c, 5, 11, 116
10, 202766, Control_c, 5, 11, 117
10, 202803, Control_c, 5, 11, 118
10, 202840, Control_c, 5, 11, 119
10, 202877, Control_c, 5, 11, 120
10, 202914, Control_c, 5, 11, 121
10, 202951, Control_c, 5, 11, 122
10, 202988, Control_c, 5, 11, 123
10, 203025, Control_c, 5, 11, 124
10, 203062, Control_c, 5, 11, 125
10, 203099, Control_c, 5, 11, 126
10, 203136, Note_on_c, 5, 61, 0
10, 203136, Note_on_c, 5, 70, 0
10, 203136, Note_on_c, 5, 66, 0
10, 203136, Note_on_c, 5, 68, 127
10, 203136, Control_c, 5, 11, 127
10, 203136, Note_on_c, 5, 63, 125
10, 203136, Note_on_c, 5, 72, 127
10, 203520, Note_on_c, 5, 68, 0
10, 203520, Note_on_c, 5, 63, 0
10, 203520, Note_on_c, 5, 72, 0
10, 203520, Note_on_c, 5, 66, 123
10, 203520, Note_on_c, 5, 61, 126
10, 203520, Note_on_c, 5, 70, 123
10, 204288, Note_on_c, 5, 66, 0
10, 204288, Note_on_c, 5, 61, 0
10, 204288, Note_on_c, 5, 70, 0
10, 204288, Note_on_c, 5, 60, 124
10, 204288, Control_c, 5, 11, 127
10, 204288, Note_on_c, 5, 63, 124
10, 204288, Note_on_c, 5, 68, 123
10, 204302, Control_c, 5, 11, 126
10, 204317, Control_c, 5, 11, 125
10, 204332, Control_c, 5, 11, 124
10, 204347, Control_c, 5, 11, 123
10, 204361, Control_c, 5, 11, 122
10, 204376, Control_c, 5, 11, 121
10, 204391, Control_c, 5, 11, 120
10, 204406, Control_c, 5, 11, 119
10, 204420, Control_c, 5, 11, 118
10, 204435, Control_c, 5, 11, 117
10, 204450, Control_c, 5, 11, 116
10, 204465, Control_c, 5, 11, 115
10, 204480, Control_c, 5, 11, 114
10, 204494, Control_c, 5, 11, 113
10, 204509, Control_c, 5, 11, 112
10, 204524, Control_c, 5, 11, 111
10, 204539, Control_c, 5, 11, 110
10, 204553, Control_c, 5, 11, 109
10, 204568, Control_c, 5, 11, 108
10, 204583, Control_c, 5, 11, 107
10, 204598, Control_c, 5, 11, 106
10, 204612, Control_c, 5, 11, 105
10, 204627, Control_c, 5, 11, 104
10, 204642, Control_c, 5, 11, 103
10, 204657, Control_c, 5, 11, 102
10, 204672, Control_c, 5, 11, 101
10, 204686, Control_c, 5, 11, 100
10, 204701, Control_c, 5, 11, 99
10, 204716, Control_c, 5, 11, 98
10, 204731, Control_c, 5, 11, 97
10, 204745, Control_c, 5, 11, 96
10, 204760, Control_c, 5, 11, 95
10, 204775, Control_c, 5, 11, 94
10, 204790, Control_c, 5, 11, 93
10, 204804, Control_c, 5, 11, 92
10, 204819, Control_c, 5, 11, 91
10, 204834, Control_c, 5, 11, 90
10, 204849, Control_c, 5, 11, 89
10, 204864, Control_c, 5, 11, 88
10, 204878, Control_c, 5, 11, 87
10, 204893, Control_c, 5, 11, 86
10, 204908, Control_c, 5, 11, 85
10, 204923, Control_c, 5, 11, 84
10, 204937, Control_c, 5, 11, 83
10, 204952, Control_c, 5, 11, 82
10, 204967, Control_c, 5, 11, 81
10, 204982, Control_c, 5, 11, 80
10, 204996, Control_c, 5, 11, 79
10, 205008, Note_on_c, 5, 60, 0
10, 205008, Note_on_c, 5, 63, 0
10, 205008, Note_on_c, 5, 68, 0
10, 205011, Control_c, 5, 11, 78
10, 205026, Control_c, 5, 11, 77
10, 205041, Control_c, 5, 11, 76
10, 205056, Control_c, 5, 11, 75
10, 205056, Note_on_c, 5, 61, 127
10, 205056, Note_on_c, 5, 65, 127
10, 205312, Note_on_c, 5, 61, 0
10, 205312, Note_on_c, 5, 65, 0
10, 205312, Note_on_c, 5, 65, 125
10, 205312, Note_on_c, 5, 61, 127
10, 205568, Note_on_c, 5, 65, 0
10, 205568, Note_on_c, 5, 61, 0
10, 205568, Note_on_c, 5, 61, 127
10, 205568, Note_on_c, 5, 65, 127
10, 205824, Note_on_c, 5, 61, 0
10, 205824, Note_on_c, 5, 65, 0
10, 205824, Note_on_c, 5, 65, 127
10, 205824, Note_on_c, 5, 61, 124
10, 206208, Note_on_c, 5, 65, 0
10, 206208, Note_on_c, 5, 61, 0
10, 206208, Note_on_c, 5, 58, 126
10, 206208, Note_on_c, 5, 61, 127
10, 207312, Note_on_c, 5, 58, 0
10, 207312, Note_on_c, 5, 61, 0
10, 207360, Control_c, 5, 11, 75
10, 207360, Note_on_c, 5, 65, 127
10, 207360, Note_on_c, 5, 61, 127
10, 207374, Control_c, 5, 11, 76
10, 207389, Control_c, 5, 11, 77
10, 207404, Control_c, 5, 11, 78
10, 207419, Control_c, 5, 11, 79
10, 207433, Control_c, 5, 11, 80
10, 207448, Control_c, 5, 11, 81
10, 207463, Control_c, 5, 11, 82
10, 207478, Control_c, 5, 11, 83
10, 207492, Control_c, 5, 11, 84
10, 207507, Control_c, 5, 11, 85
10, 207522, Control_c, 5, 11, 86
10, 207537, Control_c, 5, 11, 87
10, 207552, Control_c, 5, 11, 88
10, 207566, Control_c, 5, 11, 89
10, 207581, Control_c, 5, 11, 90
10, 207596, Control_c, 5, 11, 91
10, 207611, Control_c, 5, 11, 92
10, 207625, Control_c, 5, 11, 93
10, 207640, Control_c, 5, 11, 94
10, 207655, Control_c, 5, 11, 95
10, 207670, Control_c, 5, 11, 96
10, 207684, Control_c, 5, 11, 97
10, 207699, Control_c, 5, 11, 98
10, 207714, Control_c, 5, 11, 99
10, 207729, Control_c, 5, 11, 100
10, 207744, Control_c, 5, 11, 101
10, 207758, Control_c, 5, 11, 102
10, 207773, Control_c, 5, 11, 103
10, 207788, Control_c, 5, 11, 104
10, 207803, Control_c, 5, 11, 105
10, 207817, Control_c, 5, 11, 106
10, 207832, Control_c, 5, 11, 107
10, 207847, Control_c, 5, 11, 108
10, 207862, Control_c, 5, 11, 109
10, 207876, Control_c, 5, 11, 110
10, 207891, Control_c, 5, 11, 111
10, 207906, Control_c, 5, 11, 112
10, 207921, Control_c, 5, 11, 113
10, 207936, Control_c, 5, 11, 114
10, 207950, Control_c, 5, 11, 115
10, 207965, Control_c, 5, 11, 116
10, 207980, Control_c, 5, 11, 117
10, 207995, Control_c, 5, 11, 118
10, 208009, Control_c, 5, 11, 119
10, 208024, Control_c, 5, 11, 120
10, 208039, Control_c, 5, 11, 121
10, 208054, Control_c, 5, 11, 122
10, 208068, Control_c, 5, 11, 123
10, 208083, Control_c, 5, 11, 124
10, 208098, Control_c, 5, 11, 125
10, 208113, Control_c, 5, 11, 126
10, 208128, Note_on_c, 5, 65, 0
10, 208128, Note_on_c, 5, 61, 0
10, 208128, Control_c, 5, 11, 127
10, 208128, Note_on_c, 5, 65, 127
10, 208128, Note_on_c, 5, 56, 127
10, 208128, Control_c, 5, 11, 127
10, 208128, Note_on_c, 5, 68, 127
10, 208128, Note_on_c, 5, 61, 122
10, 208138, Control_c, 5, 11, 126
10, 208149, Control_c, 5, 11, 125
10, 208160, Control_c, 5, 11, 124
10, 208171, Control_c, 5, 11, 123
10, 208182, Control_c, 5, 11, 122
10, 208193, Control_c, 5, 11, 121
10, 208204, Control_c, 5, 11, 120
10, 208215, Control_c, 5, 11, 119
10, 208226, Control_c, 5, 11, 118
10, 208237, Control_c, 5, 11, 117
10, 208248, Control_c, 5, 11, 116
10, 208259, Control_c, 5, 11, 115
10, 208270, Control_c, 5, 11, 114
10, 208281, Control_c, 5, 11, 113
10, 208292, Control_c, 5, 11, 112
10, 208303, Control_c, 5, 11, 111
10, 208314, Control_c, 5, 11, 110
10, 208325, Control_c, 5, 11, 109
10, 208336, Control_c, 5, 11, 108
10, 208347, Control_c, 5, 11, 107
10, 208358, Control_c, 5, 11, 106
10, 208369, Control_c, 5, 11, 105
10, 208380, Control_c, 5, 11, 104
10, 208391, Control_c, 5, 11, 103
10, 208402, Control_c, 5, 11, 102
10, 208413, Control_c, 5, 11, 101
10, 208424, Control_c, 5, 11, 100
10, 208435, Control_c, 5, 11, 99
10, 208446, Control_c, 5, 11, 98
10, 208457, Control_c, 5, 11, 97
10, 208468, Control_c, 5, 11, 96
10, 208479, Control_c, 5, 11, 95
10, 208490, Control_c, 5, 11, 94
10, 208501, Control_c, 5, 11, 93
10, 208512, Control_c, 5, 11, 92
10, 209056, Note_on_c, 5, 65, 0
10, 209056, Note_on_c, 5, 56, 0
10, 209056, Note_on_c, 5, 68, 0
10, 209056, Note_on_c, 5, 61, 0
10, 209856, Note_on_c, 5, 61, 112
10, 209856, Control_c, 5, 11, 92
10, 209866, Control_c, 5, 11, 93
10, 209877, Control_c, 5, 11, 94
10, 209888, Control_c, 5, 11, 95
10, 209899, Control_c, 5, 11, 96
10, 209910, Control_c, 5, 11, 97
10, 209921, Control_c, 5, 11, 98
10, 209924, Note_on_c, 5, 61, 0
10, 209932, Control_c, 5, 11, 99
10, 209943, Control_c, 5, 11, 100
10, 209952, Note_on_c, 5, 63, 112
10, 209954, Control_c, 5, 11, 101
10, 209965, Control_c, 5, 11, 102
10, 209976, Control_c, 5, 11, 103
10, 209987, Control_c, 5, 11, 104
10, 209998, Control_c, 5, 11, 105
10, 210009, Control_c, 5, 11, 106
10, 210020, Note_on_c, 5, 63, 0
10, 210020, Control_c, 5, 11, 107
10, 210031, Control_c, 5, 11, 108
10, 210042, Control_c, 5, 11, 109
10, 210048, Note_on_c, 5, 66, 112
10, 210053, Control_c, 5, 11, 110
10, 210064, Control_c, 5, 11, 111
10, 210075, Control_c, 5, 11, 112
10, 210086, Control_c, 5, 11, 113
10, 210097, Control_c, 5, 11, 114
10, 210108, Control_c, 5, 11, 115
10, 210119, Control_c, 5, 11, 116
10, 210130, Control_c, 5, 11, 117
10, 210141, Control_c, 5, 11, 118
10, 210152, Control_c, 5, 11, 119
10, 210163, Control_c, 5, 11, 120
10, 210174, Control_c, 5, 11, 121
10, 210185, Control_c, 5, 11, 122
10, 210196, Control_c, 5, 11, 123
10, 210207, Control_c, 5, 11, 124
10, 210218, Control_c, 5, 11, 125
10, 210229, Control_c, 5, 11, 126
10, 210240, Control_c, 5, 11, 127
10, 210304, Note_on_c, 5, 66, 0
10, 210304, Note_on_c, 5, 65, 103
10, 210349, Note_on_c, 5, 65, 0
10, 210368, Note_on_c, 5, 61, 109
10, 210413, Note_on_c, 5, 61, 0
10, 210432, Note_on_c, 5, 61, 108
10, 210592, Note_on_c, 5, 61, 0
10, 211200, Control_c, 5, 11, 92
10, 211200, Note_on_c, 5, 57, 96
10, 211200, Note_on_c, 5, 61, 93
10, 211243, Control_c, 5, 11, 93
10, 211287, Control_c, 5, 11, 94
10, 211331, Control_c, 5, 11, 95
10, 211375, Control_c, 5, 11, 96
10, 211419, Control_c, 5, 11, 97
10, 211463, Control_c, 5, 11, 98
10, 211507, Control_c, 5, 11, 99
10, 211551, Control_c, 5, 11, 100
10, 211594, Control_c, 5, 11, 101
10, 211638, Control_c, 5, 11, 102
10, 211682, Control_c, 5, 11, 103
10, 211726, Control_c, 5, 11, 104
10, 211770, Control_c, 5, 11, 105
10, 211814, Control_c, 5, 11, 106
10, 211858, Control_c, 5, 11, 107
10, 211902, Control_c, 5, 11, 108
10, 211946, Control_c, 5, 11, 109
10, 211989, Control_c, 5, 11, 110
10, 212033, Control_c, 5, 11, 111
10, 212077, Control_c, 5, 11, 112
10, 212121, Control_c, 5, 11, 113
10, 212165, Control_c, 5, 11, 114
10, 212209, Control_c, 5, 11, 115
10, 212253, Control_c, 5, 11, 116
10, 212297, Control_c, 5, 11, 117
10, 212341, Control_c, 5, 11, 118
10, 212352, Note_on_c, 5, 57, 0
10, 212352, Note_on_c, 5, 61, 0
10, 212352, Note_on_c, 5, 63, 92
10, 212352, Note_on_c, 5, 59, 87
10, 212384, Control_c, 5, 11, 119
10, 212428, Control_c, 5, 11, 120
10, 212472, Control_c, 5, 11, 121
10, 212516, Control_c, 5, 11, 122
10, 212560, Control_c, 5, 11, 123
10, 212604, Control_c, 5, 11, 124
10, 212648, Control_c, 5, 11, 125
10, 212688, Note_on_c, 5, 63, 0
10, 212688, Note_on_c, 5, 59, 0
10, 212692, Control_c, 5, 11, 126
10, 212736, Note_on_c, 5, 68, 112
10, 212736, Control_c, 5, 11, 127
10, 212736, Note_on_c, 5, 61, 106
10, 212736, Note_on_c, 5, 56, 111
10, 212736, Note_on_c, 5, 65, 107
10, 213664, Note_on_c, 5, 68, 0
10, 213664, Note_on_c, 5, 61, 0
10, 213664, Note_on_c, 5, 56, 0
10, 213664, Note_on_c, 5, 65, 0
10, 215808, Note_on_c, 5, 53, 79
10, 215808, Note_on_c, 5, 58, 70
10, 215808, Note_on_c, 5, 61, 71
10, 215928, Note_on_c, 5, 53, 0
10, 215928, Note_on_c, 5, 58, 0
10, 215928, Note_on_c, 5, 61, 0
10, 216000, Note_on_c, 5, 58, 74
10, 216000, Note_on_c, 5, 63, 78
10, 216000, Note_on_c, 5, 55, 76
10, 216120, Note_on_c, 5, 58, 0
10, 216120, Note_on_c, 5, 63, 0
10, 216120, Note_on_c, 5, 55, 0
10, 216192, Note_on_c, 5, 53, 79
10, 216192, Note_on_c, 5, 58, 77
10, 216192, Note_on_c, 5, 61, 74
10, 216312, Note_on_c, 5, 53, 0
10, 216312, Note_on_c, 5, 58, 0
10, 216312, Note_on_c, 5, 61, 0
10, 216384, Note_on_c, 5, 55, 73
10, 216384, Note_on_c, 5, 63, 80
10, 216384, Note_on_c, 5, 58, 70
10, 216504, Note_on_c, 5, 55, 0
10, 216504, Note_on_c, 5, 63, 0
10, 216504, Note_on_c, 5, 58, 0
10, 216576, Note_on_c, 5, 53, 77
10, 216576, Note_on_c, 5, 58, 73
10, 216576, Note_on_c, 5, 61, 75
10, 216696, Note_on_c, 5, 53, 0
10, 216696, Note_on_c, 5, 58, 0
10, 216696, Note_on_c, 5, 61, 0
10, 216768, Note_on_c, 5, 58, 71
10, 216768, Note_on_c, 5, 63, 71
10, 216768, Note_on_c, 5, 55, 77
10, 216888, Note_on_c, 5, 58, 0
10, 216888, Note_on_c, 5, 63, 0
10, 216888, Note_on_c, 5, 55, 0
10, 216960, Note_on_c, 5, 61, 79
10, 216960, Note_on_c, 5, 58, 80
10, 216960, Note_on_c, 5, 53, 73
10, 217080, Note_on_c, 5, 61, 0
10, 217080, Note_on_c, 5, 58, 0
10, 217080, Note_on_c, 5, 53, 0
10, 217152, Note_on_c, 5, 55, 73
10, 217152, Note_on_c, 5, 63, 71
10, 217152, Note_on_c, 5, 58, 77
10, 217272, Note_on_c, 5, 55, 0
10, 217272, Note_on_c, 5, 63, 0
10, 217272, Note_on_c, 5, 58, 0
10, 217344, Note_on_c, 5, 61, 108
10, 217344, Control_c, 5, 11, 92
10, 217392, Note_on_c, 5, 61, 0
10, 217392, Note_on_c, 5, 63, 103
10, 218112, Control_c, 5, 11, 92
10, 218133, Control_c, 5, 11, 93
10, 218155, Control_c, 5, 11, 94
10, 218177, Control_c, 5, 11, 95
10, 218199, Control_c, 5, 11, 96
10, 218221, Control_c, 5, 11, 97
10, 218243, Control_c, 5, 11, 98
10, 218265, Control_c, 5, 11, 99
10, 218287, Control_c, 5, 11, 100
10, 218309, Control_c, 5, 11, 101
10, 218331, Control_c, 5, 11, 102
10, 218353, Control_c, 5, 11, 103
10, 218375, Control_c, 5, 11, 104
10, 218397, Control_c, 5, 11, 105
10, 218419, Control_c, 5, 11, 106
10, 218441, Control_c, 5, 11, 107
10, 218463, Control_c, 5, 11, 108
10, 218485, Control_c, 5, 11, 109
10, 218496, Note_on_c, 5, 63, 0
10, 218496, Note_on_c, 5, 65, 107
10, 218506, Control_c, 5, 11, 110
10, 218528, Control_c, 5, 11, 111
10, 218550, Control_c, 5, 11, 112
10, 218572, Control_c, 5, 11, 113
10, 218594, Control_c, 5, 11, 114
10, 218616, Control_c, 5, 11, 115
10, 218638, Control_c, 5, 11, 116
10, 218660, Control_c, 5, 11, 117
10, 218682, Control_c, 5, 11, 118
10, 218704, Control_c, 5, 11, 119
10, 218726, Control_c, 5, 11, 120
10, 218748, Control_c, 5, 11, 121
10, 218770, Control_c, 5, 11, 122
10, 218792, Control_c, 5, 11, 123
10, 218814, Control_c, 5, 11, 124
10, 218832, Note_on_c, 5, 65, 0
10, 218836, Control_c, 5, 11, 125
10, 218858, Control_c, 5, 11, 126
10, 218880, Note_on_c, 5, 53, 125
10, 218880, Control_c, 5, 11, 127
10, 218880, Control_c, 5, 11, 92
10, 218880, Note_on_c, 5, 65, 127
10, 219648, Control_c, 5, 11, 92
10, 219669, Control_c, 5, 11, 93
10, 219691, Control_c, 5, 11, 94
10, 219713, Control_c, 5, 11, 95
10, 219735, Control_c, 5, 11, 96
10, 219757, Control_c, 5, 11, 97
10, 219779, Control_c, 5, 11, 98
10, 219801, Control_c, 5, 11, 99
10, 219823, Control_c, 5, 11, 100
10, 219845, Control_c, 5, 11, 101
10, 219867, Control_c, 5, 11, 102
10, 219889, Control_c, 5, 11, 103
10, 219911, Control_c, 5, 11, 104
10, 219933, Control_c, 5, 11, 105
10, 219955, Control_c, 5, 11, 106
10, 219977, Control_c, 5, 11, 107
10, 219999, Control_c, 5, 11, 108
10, 220021, Control_c, 5, 11, 109
10, 220042, Control_c, 5, 11, 110
10, 220064, Control_c, 5, 11, 111
10, 220086, Control_c, 5, 11, 112
10, 220108, Control_c, 5, 11, 113
10, 220130, Control_c, 5, 11, 114
10, 220152, Control_c, 5, 11, 115
10, 220174, Control_c, 5, 11, 116
10, 220196, Control_c, 5, 11, 117
10, 220218, Control_c, 5, 11, 118
10, 220240, Control_c, 5, 11, 119
10, 220262, Control_c, 5, 11, 120
10, 220284, Control_c, 5, 11, 121
10, 220306, Control_c, 5, 11, 122
10, 220328, Control_c, 5, 11, 123
10, 220350, Control_c, 5, 11, 124
10, 220368, Note_on_c, 5, 53, 0
10, 220368, Note_on_c, 5, 65, 0
10, 220372, Control_c, 5, 11, 125
10, 220394, Control_c, 5, 11, 126
10, 220416, Note_on_c, 5, 61, 110
10, 220416, Note_on_c, 5, 65, 105
10, 220416, Control_c, 5, 11, 127
10, 220416, Note_on_c, 5, 56, 111
10, 220536, Note_on_c, 5, 61, 0
10, 220536, Note_on_c, 5, 65, 0
10, 220536, Note_on_c, 5, 56, 0
10, 220608, Note_on_c, 5, 63, 104
10, 220608, Note_on_c, 5, 67, 103
10, 220608, Note_on_c, 5, 58, 104
10, 220728, Note_on_c, 5, 63, 0
10, 220728, Note_on_c, 5, 67, 0
10, 220728, Note_on_c, 5, 58, 0
10, 220800, Note_on_c, 5, 63, 111
10, 220800, Note_on_c, 5, 67, 113
10, 220800, Note_on_c, 5, 70, 105
10, 220920, Note_on_c, 5, 63, 0
10, 220920, Note_on_c, 5, 67, 0
10, 220920, Note_on_c, 5, 70, 0
10, 220992, Note_on_c, 5, 63, 113
10, 220992, Note_on_c, 5, 67, 113
10, 220992, Note_on_c, 5, 58, 109
10, 221112, Note_on_c, 5, 63, 0
10, 221112, Note_on_c, 5, 67, 0
10, 221112, Note_on_c, 5, 58, 0
10, 221184, Note_on_c, 5, 65, 104
10, 221184, Note_on_c, 5, 61, 112
10, 221184, Note_on_c, 5, 56, 105
10, 221304, Note_on_c, 5, 65, 0
10, 221304, Note_on_c, 5, 61, 0
10, 221304, Note_on_c, 5, 56, 0
10, 221376, Note_on_c, 5, 63, 105
10, 221376, Note_on_c, 5, 67, 109
10, 221376, Note_on_c, 5, 58, 110
10, 221496, Note_on_c, 5, 63, 0
10, 221496, Note_on_c, 5, 67, 0
10, 221496, Note_on_c, 5, 58, 0
10, 221568, Note_on_c, 5, 63, 111
10, 221568, Note_on_c, 5, 67, 104
10, 221568, Note_on_c, 5, 70, 112
10, 221688, Note_on_c, 5, 63, 0
10, 221688, Note_on_c, 5, 67, 0
10, 221688, Note_on_c, 5, 70, 0
10, 221760, Note_on_c, 5, 58, 112
10, 221760, Note_on_c, 5, 67, 112
10, 221760, Note_on_c, 5, 63, 103
10, 221880, Note_on_c, 5, 58, 0
10, 221880, Note_on_c, 5, 67, 0
10, 221880, Note_on_c, 5, 63, 0
10, 221952, Note_on_c, 5, 56, 113
10, 221952, Note_on_c, 5, 61, 106
10, 221952, Note_on_c, 5, 65, 106
10, 222072, Note_on_c, 5, 56, 0
10, 222072, Note_on_c, 5, 61, 0
10, 222072, Note_on_c, 5, 65, 0
10, 222144, Note_on_c, 5, 63, 104
10, 222144, Note_on_c, 5, 67, 105
10, 222144, Note_on_c, 5, 58, 111
10, 222264, Note_on_c, 5, 63, 0
10, 222264, Note_on_c, 5, 67, 0
10, 222264, Note_on_c, 5, 58, 0
10, 222336, Note_on_c, 5, 63, 109
10, 222336, Note_on_c, 5, 67, 113
10, 222336, Note_on_c, 5, 70, 107
10, 222456, Note_on_c, 5, 63, 0
10, 222456, Note_on_c, 5, 67, 0
10, 222456, Note_on_c, 5, 70, 0
10, 222528, Note_on_c, 5, 58, 111
10, 222528, Note_on_c, 5, 67, 112
10, 222528, Note_on_c, 5, 63, 104
10, 222648, Note_on_c, 5, 58, 0
10, 222648, Note_on_c, 5, 67, 0
10, 222648, Note_on_c, 5, 63, 0
10, 222720, Note_on_c, 5, 56, 110
10, 222720, Note_on_c, 5, 61, 106
10, 222720, Note_on_c, 5, 65, 105
10, 222840, Note_on_c, 5, 56, 0
10, 222840, Note_on_c, 5, 61, 0
10, 222840, Note_on_c, 5, 65, 0
10, 222912, Note_on_c, 5, 63, 112
10, 222912, Note_on_c, 5, 67, 104
10, 222912, Note_on_c, 5, 58, 111
10, 223032, Note_on_c, 5, 63, 0
10, 223032, Note_on_c, 5, 67, 0
10, 223032, Note_on_c, 5, 58, 0
10, 223104, Note_on_c, 5, 67, 109
10, 223104, Note_on_c, 5, 63, 104
10, 223104, Note_on_c, 5, 70, 106
10, 223224, Note_on_c, 5, 67, 0
10, 223224, Note_on_c, 5, 63, 0
10, 223224, Note_on_c, 5, 70, 0
10, 223296, Note_on_c, 5, 58, 108
10, 223296, Note_on_c, 5, 63, 105
10, 223296, Note_on_c, 5, 67, 113
10, 223456, Note_on_c, 5, 58, 0
10, 223456, Note_on_c, 5, 63, 0
10, 223456, Note_on_c, 5, 67, 0
10, 223488, Note_on_c, 5, 61, 109
10, 223488, Note_on_c, 5, 68, 111
10, 223518, Note_on_c, 5, 68, 0
10, 223520, Note_on_c, 5, 69, 106
10, 223550, Note_on_c, 5, 69, 0
10, 223552, Note_on_c, 5, 68, 107
10, 223582, Note_on_c, 5, 68, 0
10, 223584, Note_on_c, 5, 69, 104
10, 223614, Note_on_c, 5, 69, 0
10, 223616, Note_on_c, 5, 68, 107
10, 223646, Note_on_c, 5, 68, 0
10, 223648, Note_on_c, 5, 69, 110
10, 223678, Note_on_c, 5, 69, 0
10, 223680, Note_on_c, 5, 68, 105
10, 223710, Note_on_c, 5, 68, 0
10, 223712, Note_on_c, 5, 69, 106
10, 223742, Note_on_c, 5, 69, 0
10, 223744, Note_on_c, 5, 68, 104
10, 223774, Note_on_c, 5, 68, 0
10, 223776, Note_on_c, 5, 69, 108
10, 223806, Note_on_c, 5, 69, 0
10, 223808, Note_on_c, 5, 68, 110
10, 223838, Note_on_c, 5, 68, 0
10, 223840, Note_on_c, 5, 69, 113
10, 223870, Note_on_c, 5, 69, 0
10, 223872, Note_on_c, 5, 68, 109
10, 223902, Note_on_c, 5, 68, 0
10, 223904, Note_on_c, 5, 69, 108
10, 223934, Note_on_c, 5, 69, 0
10, 223936, Note_on_c, 5, 68, 103
10, 223966, Note_on_c, 5, 68, 0
10, 223968, Note_on_c, 5, 69, 105
10, 223998, Note_on_c, 5, 69, 0
10, 224000, Note_on_c, 5, 68, 109
10, 224030, Note_on_c, 5, 68, 0
10, 224032, Note_on_c, 5, 69, 111
10, 224062, Note_on_c, 5, 69, 0
10, 224064, Note_on_c, 5, 68, 107
10, 224094, Note_on_c, 5, 68, 0
10, 224096, Note_on_c, 5, 69, 104
10, 224126, Note_on_c, 5, 69, 0
10, 224128, Note_on_c, 5, 68, 108
10, 224158, Note_on_c, 5, 68, 0
10, 224160, Note_on_c, 5, 69, 103
10, 224190, Note_on_c, 5, 69, 0
10, 224192, Note_on_c, 5, 68, 112
10, 224222, Note_on_c, 5, 68, 0
10, 224224, Note_on_c, 5, 69, 112
10, 224254, Note_on_c, 5, 69, 0
10, 224256, Note_on_c, 5, 68, 110
10, 224286, Note_on_c, 5, 68, 0
10, 224288, Note_on_c, 5, 69, 113
10, 224318, Note_on_c, 5, 69, 0
10, 224320, Note_on_c, 5, 68, 111
10, 224350, Note_on_c, 5, 68, 0
10, 224352, Note_on_c, 5, 69, 108
10, 224382, Note_on_c, 5, 69, 0
10, 224384, Note_on_c, 5, 68, 103
10, 224414, Note_on_c, 5, 68, 0
10, 224416, Note_on_c, 5, 69, 106
10, 224446, Note_on_c, 5, 69, 0
10, 224448, Note_on_c, 5, 68, 106
10, 224478, Note_on_c, 5, 68, 0
10, 224480, Note_on_c, 5, 69, 110
10, 224510, Note_on_c, 5, 69, 0
10, 224512, Note_on_c, 5, 68, 109
10, 224542, Note_on_c, 5, 68, 0
10, 224544, Note_on_c, 5, 69, 113
10, 224574, Note_on_c, 5, 69, 0
10, 224576, Note_on_c, 5, 68, 107
10, 224606, Note_on_c, 5, 68, 0
10, 224608, Note_on_c, 5, 69, 111
10, 224638, Note_on_c, 5, 69, 0
10, 224640, Note_on_c, 5, 68, 108
10, 224670, Note_on_c, 5, 68, 0
10, 224672, Note_on_c, 5, 69, 103
10, 224702, Note_on_c, 5, 69, 0
10, 224704, Note_on_c, 5, 68, 112
10, 224734, Note_on_c, 5, 68, 0
10, 224736, Note_on_c, 5, 69, 109
10, 224766, Note_on_c, 5, 69, 0
10, 224768, Note_on_c, 5, 68, 108
10, 224798, Note_on_c, 5, 68, 0
10, 224800, Note_on_c, 5, 69, 108
10, 224830, Note_on_c, 5, 69, 0
10, 224832, Note_on_c, 5, 68, 108
10, 224862, Note_on_c, 5, 68, 0
10, 224864, Note_on_c, 5, 69, 111
10, 224894, Note_on_c, 5, 69, 0
10, 224896, Note_on_c, 5, 68, 108
10, 224926, Note_on_c, 5, 68, 0
10, 224928, Note_on_c, 5, 69, 110
10, 224958, Note_on_c, 5, 69, 0
10, 224960, Note_on_c, 5, 68, 106
10, 224990, Note_on_c, 5, 68, 0
10, 224992, Note_on_c, 5, 69, 103
10, 225022, Note_on_c, 5, 69, 0
10, 225024, Note_on_c, 5, 68, 107
10, 225184, Note_on_c, 5, 61, 0
10, 225184, Note_on_c, 5, 68, 0
10, 225184, End_track
11, 0, Start_track
11, 0, Title_t, "Trombe I - II - III in Fa"
11, 0, MIDI_port, 0
11, 142, Control_c, 6, 0, 0
11, 143, Control_c, 6, 32, 0
11, 144, Program_c, 6, 56
11, 145, Control_c, 6, 7, 127
11, 146, Control_c, 6, 10, 54
11, 147, Control_c, 6, 91, 127
11, 7680, Program_c, 6, 59
11, 8064, Control_c, 6, 11, 127
11, 8064, Note_on_c, 6, 69, 79
11, 8064, Note_on_c, 6, 72, 74
11, 8070, Control_c, 6, 11, 126
11, 8076, Control_c, 6, 11, 125
11, 8082, Control_c, 6, 11, 124
11, 8088, Control_c, 6, 11, 123
11, 8094, Control_c, 6, 11, 122
11, 8100, Control_c, 6, 11, 121
11, 8106, Control_c, 6, 11, 120
11, 8112, Control_c, 6, 11, 119
11, 8118, Control_c, 6, 11, 118
11, 8124, Control_c, 6, 11, 117
11, 8131, Control_c, 6, 11, 116
11, 8137, Control_c, 6, 11, 115
11, 8143, Control_c, 6, 11, 114
11, 8149, Control_c, 6, 11, 113
11, 8155, Control_c, 6, 11, 112
11, 8161, Control_c, 6, 11, 111
11, 8167, Control_c, 6, 11, 110
11, 8173, Control_c, 6, 11, 109
11, 8179, Control_c, 6, 11, 108
11, 8185, Control_c, 6, 11, 107
11, 8192, Control_c, 6, 11, 106
11, 8198, Control_c, 6, 11, 105
11, 8204, Control_c, 6, 11, 104
11, 8210, Control_c, 6, 11, 103
11, 8216, Control_c, 6, 11, 102
11, 8222, Control_c, 6, 11, 101
11, 8228, Control_c, 6, 11, 100
11, 8234, Control_c, 6, 11, 99
11, 8240, Control_c, 6, 11, 98
11, 8246, Control_c, 6, 11, 97
11, 8252, Control_c, 6, 11, 96
11, 8259, Control_c, 6, 11, 95
11, 8265, Control_c, 6, 11, 94
11, 8271, Control_c, 6, 11, 93
11, 8277, Control_c, 6, 11, 92
11, 8283, Control_c, 6, 11, 91
11, 8289, Control_c, 6, 11, 90
11, 8295, Control_c, 6, 11, 89
11, 8301, Control_c, 6, 11, 88
11, 8307, Control_c, 6, 11, 87
11, 8313, Control_c, 6, 11, 86
11, 8320, Control_c, 6, 11, 85
11, 8326, Control_c, 6, 11, 84
11, 8332, Control_c, 6, 11, 83
11, 8338, Control_c, 6, 11, 82
11, 8344, Control_c, 6, 11, 81
11, 8350, Note_on_c, 6, 69, 0
11, 8350, Note_on_c, 6, 72, 0
11, 8350, Control_c, 6, 11, 80
11, 8356, Control_c, 6, 11, 79
11, 8362, Control_c, 6, 11, 78
11, 8368, Control_c, 6, 11, 77
11, 8374, Control_c, 6, 11, 76
11, 8380, Control_c, 6, 11, 75
11, 8387, Control_c, 6, 11, 74
11, 8393, Control_c, 6, 11, 73
11, 8399, Control_c, 6, 11, 72
11, 8405, Control_c, 6, 11, 71
11, 8411, Control_c, 6, 11, 70
11, 8417, Control_c, 6, 11, 69
11, 8423, Control_c, 6, 11, 68
11, 8429, Control_c, 6, 11, 67
11, 8435, Control_c, 6, 11, 66
11, 8441, Control_c, 6, 11, 65
11, 8448, Control_c, 6, 11, 64
11, 9600, Control_c, 6, 11, 127
11, 9600, Note_on_c, 6, 69, 73
11, 9600, Note_on_c, 6, 72, 76
11, 9606, Control_c, 6, 11, 126
11, 9612, Control_c, 6, 11, 125
11, 9618, Control_c, 6, 11, 124
11, 9624, Control_c, 6, 11, 123
11, 9630, Control_c, 6, 11, 122
11, 9636, Control_c, 6, 11, 121
11, 9642, Control_c, 6, 11, 120
11, 9648, Control_c, 6, 11, 119
11, 9654, Control_c, 6, 11, 118
11, 9660, Control_c, 6, 11, 117
11, 9667, Control_c, 6, 11, 116
11, 9673, Control_c, 6, 11, 115
11, 9679, Control_c, 6, 11, 114
11, 9685, Control_c, 6, 11, 113
11, 9691, Control_c, 6, 11, 112
11, 9697, Control_c, 6, 11, 111
11, 9703, Control_c, 6, 11, 110
11, 9709, Control_c, 6, 11, 109
11, 9715, Control_c, 6, 11, 108
11, 9721, Control_c, 6, 11, 107
11, 9728, Control_c, 6, 11, 106
11, 9734, Control_c, 6, 11, 105
11, 9740, Control_c, 6, 11, 104
11, 9746, Control_c, 6, 11, 103
11, 9752, Control_c, 6, 11, 102
11, 9758, Control_c, 6, 11, 101
11, 9764, Control_c, 6, 11, 100
11, 9770, Control_c, 6, 11, 99
11, 9776, Control_c, 6, 11, 98
11, 9782, Control_c, 6, 11, 97
11, 9788, Control_c, 6, 11, 96
11, 9795, Control_c, 6, 11, 95
11, 9801, Control_c, 6, 11, 94
11, 9807, Control_c, 6, 11, 93
11, 9813, Control_c, 6, 11, 92
11, 9819, Control_c, 6, 11, 91
11, 9825, Control_c, 6, 11, 90
11, 9831, Control_c, 6, 11, 89
11, 9837, Control_c, 6, 11, 88
11, 9843, Control_c, 6, 11, 87
11, 9849, Control_c, 6, 11, 86
11, 9856, Control_c, 6, 11, 85
11, 9862, Control_c, 6, 11, 84
11, 9868, Control_c, 6, 11, 83
11, 9874, Control_c, 6, 11, 82
11, 9880, Control_c, 6, 11, 81
11, 9886, Note_on_c, 6, 69, 0
11, 9886, Note_on_c, 6, 72, 0
11, 9886, Control_c, 6, 11, 80
11, 9892, Control_c, 6, 11, 79
11, 9898, Control_c, 6, 11, 78
11, 9904, Control_c, 6, 11, 77
11, 9910, Control_c, 6, 11, 76
11, 9916, Control_c, 6, 11, 75
11, 9923, Control_c, 6, 11, 74
11, 9929, Control_c, 6, 11, 73
11, 9935, Control_c, 6, 11, 72
11, 9941, Control_c, 6, 11, 71
11, 9947, Control_c, 6, 11, 70
11, 9953, Control_c, 6, 11, 69
11, 9959, Control_c, 6, 11, 68
11, 9965, Control_c, 6, 11, 67
11, 9971, Control_c, 6, 11, 66
11, 9977, Control_c, 6, 11, 65
11, 9984, Control_c, 6, 11, 64
11, 24576, Program_c, 6, 59
11, 24960, Control_c, 6, 11, 92
11, 24960, Note_on_c, 6, 75, 106
11, 24976, Control_c, 6, 11, 93
11, 24992, Control_c, 6, 11, 94
11, 25009, Control_c, 6, 11, 95
11, 25025, Control_c, 6, 11, 96
11, 25042, Control_c, 6, 11, 97
11, 25058, Control_c, 6, 11, 98
11, 25075, Control_c, 6, 11, 99
11, 25091, Control_c, 6, 11, 100
11, 25108, Control_c, 6, 11, 101
11, 25124, Control_c, 6, 11, 102
11, 25141, Control_c, 6, 11, 103
11, 25152, Note_on_c, 6, 75, 0
11, 25152, Note_on_c, 6, 77, 109
11, 25157, Control_c, 6, 11, 104
11, 25173, Control_c, 6, 11, 105
11, 25190, Control_c, 6, 11, 106
11, 25206, Control_c, 6, 11, 107
11, 25223, Control_c, 6, 11, 108
11, 25239, Control_c, 6, 11, 109
11, 25256, Control_c, 6, 11, 110
11, 25272, Control_c, 6, 11, 111
11, 25289, Control_c, 6, 11, 112
11, 25305, Control_c, 6, 11, 113
11, 25322, Control_c, 6, 11, 114
11, 25338, Control_c, 6, 11, 115
11, 25344, Note_on_c, 6, 77, 0
11, 25344, Note_on_c, 6, 80, 104
11, 25354, Control_c, 6, 11, 116
11, 25371, Control_c, 6, 11, 117
11, 25387, Control_c, 6, 11, 118
11, 25404, Control_c, 6, 11, 119
11, 25420, Control_c, 6, 11, 120
11, 25437, Control_c, 6, 11, 121
11, 25453, Control_c, 6, 11, 122
11, 25470, Control_c, 6, 11, 123
11, 25486, Control_c, 6, 11, 124
11, 25503, Control_c, 6, 11, 125
11, 25519, Control_c, 6, 11, 126
11, 25536, Control_c, 6, 11, 127
11, 26240, Note_on_c, 6, 80, 0
11, 26240, Note_on_c, 6, 78, 112
11, 26368, Note_on_c, 6, 78, 0
11, 26368, Note_on_c, 6, 77, 109
11, 26496, Note_on_c, 6, 77, 0
11, 26496, Note_on_c, 6, 75, 111
11, 26688, Note_on_c, 6, 75, 0
11, 26688, Note_on_c, 6, 73, 107
11, 26880, Note_on_c, 6, 73, 0
11, 26880, Note_on_c, 6, 71, 103
11, 27040, Note_on_c, 6, 71, 0
11, 27072, Note_on_c, 6, 75, 112
11, 27456, Note_on_c, 6, 75, 0
11, 27456, Note_on_c, 6, 77, 112
11, 27648, Note_on_c, 6, 77, 0
11, 27648, Control_c, 6, 11, 127
11, 27648, Note_on_c, 6, 80, 105
11, 27658, Control_c, 6, 11, 126
11, 27669, Control_c, 6, 11, 125
11, 27680, Control_c, 6, 11, 124
11, 27691, Control_c, 6, 11, 123
11, 27702, Control_c, 6, 11, 122
11, 27713, Control_c, 6, 11, 121
11, 27724, Control_c, 6, 11, 120
11, 27735, Control_c, 6, 11, 119
11, 27746, Control_c, 6, 11, 118
11, 27757, Control_c, 6, 11, 117
11, 27768, Control_c, 6, 11, 116
11, 27776, Note_on_c, 6, 80, 0
11, 27776, Note_on_c, 6, 78, 111
11, 27779, Control_c, 6, 11, 115
11, 27790, Control_c, 6, 11, 114
11, 27801, Control_c, 6, 11, 113
11, 27812, Control_c, 6, 11, 112
11, 27823, Control_c, 6, 11, 111
11, 27834, Control_c, 6, 11, 110
11, 27845, Control_c, 6, 11, 109
11, 27856, Control_c, 6, 11, 108
11, 27867, Control_c, 6, 11, 107
11, 27878, Control_c, 6, 11, 106
11, 27889, Control_c, 6, 11, 105
11, 27900, Control_c, 6, 11, 104
11, 27904, Note_on_c, 6, 78, 0
11, 27904, Note_on_c, 6, 77, 108
11, 27911, Control_c, 6, 11, 103
11, 27922, Control_c, 6, 11, 102
11, 27933, Control_c, 6, 11, 101
11, 27944, Control_c, 6, 11, 100
11, 27955, Control_c, 6, 11, 99
11, 27966, Control_c, 6, 11, 98
11, 27977, Control_c, 6, 11, 97
11, 27988, Control_c, 6, 11, 96
11, 27999, Control_c, 6, 11, 95
11, 28010, Control_c, 6, 11, 94
11, 28021, Control_c, 6, 11, 93
11, 28032, Note_on_c, 6, 77, 0
11, 28032, Control_c, 6, 11, 92
11, 28032, Note_on_c, 6, 75, 110
11, 28576, Note_on_c, 6, 75, 0
11, 29184, Control_c, 6, 11, 127
11, 29952, Note_on_c, 6, 75, 88
11, 30144, Note_on_c, 6, 75, 0
11, 30144, Note_on_c, 6, 77, 91
11, 30336, Note_on_c, 6, 77, 0
11, 30336, Note_on_c, 6, 80, 88
11, 30811, Note_on_c, 6, 80, 0
11, 30848, Note_on_c, 6, 78, 87
11, 30939, Note_on_c, 6, 78, 0
11, 30976, Note_on_c, 6, 77, 97
11, 31067, Note_on_c, 6, 77, 0
11, 31104, Note_on_c, 6, 75, 93
11, 31224, Note_on_c, 6, 75, 0
11, 31296, Note_on_c, 6, 73, 95
11, 31416, Note_on_c, 6, 73, 0
11, 31488, Note_on_c, 6, 71, 93
11, 31648, Note_on_c, 6, 71, 0
11, 31680, Note_on_c, 6, 75, 90
11, 32064, Note_on_c, 6, 75, 0
11, 32064, Note_on_c, 6, 77, 95
11, 32256, Note_on_c, 6, 77, 0
11, 32256, Control_c, 6, 11, 127
11, 32256, Note_on_c, 6, 80, 95
11, 32266, Control_c, 6, 11, 126
11, 32277, Control_c, 6, 11, 125
11, 32288, Control_c, 6, 11, 124
11, 32299, Control_c, 6, 11, 123
11, 32310, Control_c, 6, 11, 122
11, 32321, Control_c, 6, 11, 121
11, 32332, Control_c, 6, 11, 120
11, 32343, Control_c, 6, 11, 119
11, 32354, Control_c, 6, 11, 118
11, 32365, Control_c, 6, 11, 117
11, 32376, Control_c, 6, 11, 116
11, 32384, Note_on_c, 6, 80, 0
11, 32384, Note_on_c, 6, 78, 90
11, 32387, Control_c, 6, 11, 115
11, 32398, Control_c, 6, 11, 114
11, 32409, Control_c, 6, 11, 113
11, 32420, Control_c, 6, 11, 112
11, 32431, Control_c, 6, 11, 111
11, 32442, Control_c, 6, 11, 110
11, 32453, Control_c, 6, 11, 109
11, 32464, Control_c, 6, 11, 108
11, 32475, Control_c, 6, 11, 107
11, 32486, Control_c, 6, 11, 106
11, 32497, Control_c, 6, 11, 105
11, 32508, Control_c, 6, 11, 104
11, 32512, Note_on_c, 6, 78, 0
11, 32512, Note_on_c, 6, 77, 88
11, 32519, Control_c, 6, 11, 103
11, 32530, Control_c, 6, 11, 102
11, 32541, Control_c, 6, 11, 101
11, 32552, Control_c, 6, 11, 100
11, 32563, Control_c, 6, 11, 99
11, 32574, Control_c, 6, 11, 98
11, 32585, Control_c, 6, 11, 97
11, 32596, Control_c, 6, 11, 96
11, 32607, Control_c, 6, 11, 95
11, 32618, Control_c, 6, 11, 94
11, 32629, Control_c, 6, 11, 93
11, 32640, Note_on_c, 6, 77, 0
11, 32640, Control_c, 6, 11, 92
11, 32640, Note_on_c, 6, 75, 89
11, 32681, Control_c, 6, 11, 91
11, 32722, Control_c, 6, 11, 90
11, 32763, Control_c, 6, 11, 89
11, 32804, Control_c, 6, 11, 88
11, 32845, Control_c, 6, 11, 87
11, 32886, Control_c, 6, 11, 86
11, 32927, Control_c, 6, 11, 85
11, 32969, Control_c, 6, 11, 84
11, 33010, Control_c, 6, 11, 83
11, 33051, Control_c, 6, 11, 82
11, 33092, Control_c, 6, 11, 81
11, 33133, Control_c, 6, 11, 80
11, 33174, Control_c, 6, 11, 79
11, 33215, Control_c, 6, 11, 78
11, 33257, Control_c, 6, 11, 77
11, 33298, Control_c, 6, 11, 76
11, 33339, Control_c, 6, 11, 75
11, 33380, Control_c, 6, 11, 74
11, 33421, Control_c, 6, 11, 73
11, 33462, Control_c, 6, 11, 72
11, 33503, Control_c, 6, 11, 71
11, 33545, Control_c, 6, 11, 70
11, 33586, Control_c, 6, 11, 69
11, 33627, Control_c, 6, 11, 68
11, 33668, Control_c, 6, 11, 67
11, 33709, Control_c, 6, 11, 66
11, 33744, Note_on_c, 6, 75, 0
11, 33750, Control_c, 6, 11, 65
11, 33792, Control_c, 6, 11, 64
11, 39168, Program_c, 6, 56
11, 39936, Control_c, 6, 11, 64
11, 39936, Note_on_c, 6, 72, 90
11, 39942, Control_c, 6, 11, 65
11, 39948, Control_c, 6, 11, 66
11, 39954, Control_c, 6, 11, 67
11, 39960, Control_c, 6, 11, 68
11, 39966, Control_c, 6, 11, 69
11, 39972, Control_c, 6, 11, 70
11, 39978, Control_c, 6, 11, 71
11, 39982, Note_on_c, 6, 72, 0
11, 39984, Control_c, 6, 11, 72
11, 39984, Note_on_c, 6, 74, 95
11, 39990, Control_c, 6, 11, 73
11, 39996, Control_c, 6, 11, 74
11, 40003, Control_c, 6, 11, 75
11, 40009, Control_c, 6, 11, 76
11, 40015, Control_c, 6, 11, 77
11, 40021, Control_c, 6, 11, 78
11, 40027, Control_c, 6, 11, 79
11, 40033, Control_c, 6, 11, 80
11, 40039, Control_c, 6, 11, 81
11, 40045, Control_c, 6, 11, 82
11, 40051, Control_c, 6, 11, 83
11, 40057, Control_c, 6, 11, 84
11, 40064, Control_c, 6, 11, 85
11, 40070, Control_c, 6, 11, 86
11, 40076, Control_c, 6, 11, 87
11, 40082, Control_c, 6, 11, 88
11, 40088, Control_c, 6, 11, 89
11, 40094, Control_c, 6, 11, 90
11, 40100, Control_c, 6, 11, 91
11, 40106, Control_c, 6, 11, 92
11, 40112, Control_c, 6, 11, 93
11, 40118, Control_c, 6, 11, 94
11, 40124, Control_c, 6, 11, 95
11, 40131, Control_c, 6, 11, 96
11, 40137, Control_c, 6, 11, 97
11, 40143, Control_c, 6, 11, 98
11, 40149, Control_c, 6, 11, 99
11, 40155, Control_c, 6, 11, 100
11, 40161, Control_c, 6, 11, 101
11, 40167, Control_c, 6, 11, 102
11, 40173, Control_c, 6, 11, 103
11, 40179, Control_c, 6, 11, 104
11, 40185, Control_c, 6, 11, 105
11, 40192, Control_c, 6, 11, 106
11, 40198, Control_c, 6, 11, 107
11, 40204, Control_c, 6, 11, 108
11, 40210, Control_c, 6, 11, 109
11, 40216, Control_c, 6, 11, 110
11, 40222, Control_c, 6, 11, 111
11, 40228, Control_c, 6, 11, 112
11, 40234, Control_c, 6, 11, 113
11, 40240, Control_c, 6, 11, 114
11, 40246, Control_c, 6, 11, 115
11, 40252, Control_c, 6, 11, 116
11, 40259, Control_c, 6, 11, 117
11, 40265, Control_c, 6, 11, 118
11, 40271, Control_c, 6, 11, 119
11, 40277, Control_c, 6, 11, 120
11, 40283, Control_c, 6, 11, 121
11, 40288, Note_on_c, 6, 74, 0
11, 40289, Control_c, 6, 11, 122
11, 40295, Control_c, 6, 11, 123
11, 40301, Control_c, 6, 11, 124
11, 40307, Control_c, 6, 11, 125
11, 40313, Control_c, 6, 11, 126
11, 40320, Control_c, 6, 11, 127
11, 40320, Note_on_c, 6, 74, 87
11, 41088, Note_on_c, 6, 74, 0
11, 41088, Note_on_c, 6, 76, 96
11, 41424, Note_on_c, 6, 76, 0
11, 49152, Control_c, 6, 11, 64
11, 49152, Note_on_c, 6, 68, 104
11, 49176, Control_c, 6, 11, 65
11, 49200, Control_c, 6, 11, 66
11, 49225, Control_c, 6, 11, 67
11, 49249, Control_c, 6, 11, 68
11, 49273, Control_c, 6, 11, 69
11, 49298, Control_c, 6, 11, 70
11, 49322, Control_c, 6, 11, 71
11, 49347, Control_c, 6, 11, 72
11, 49371, Control_c, 6, 11, 73
11, 49395, Control_c, 6, 11, 74
11, 49420, Control_c, 6, 11, 75
11, 49444, Control_c, 6, 11, 76
11, 49468, Control_c, 6, 11, 77
11, 49488, Note_on_c, 6, 68, 0
11, 49488, Note_on_c, 6, 69, 109
11, 49493, Control_c, 6, 11, 78
11, 49517, Control_c, 6, 11, 79
11, 49536, Note_on_c, 6, 69, 0
11, 49536, Note_on_c, 6, 71, 109
11, 49542, Control_c, 6, 11, 80
11, 49566, Control_c, 6, 11, 81
11, 49590, Control_c, 6, 11, 82
11, 49615, Control_c, 6, 11, 83
11, 49639, Control_c, 6, 11, 84
11, 49664, Control_c, 6, 11, 85
11, 49688, Control_c, 6, 11, 86
11, 49712, Control_c, 6, 11, 87
11, 49737, Control_c, 6, 11, 88
11, 49761, Control_c, 6, 11, 89
11, 49785, Control_c, 6, 11, 90
11, 49810, Control_c, 6, 11, 91
11, 49834, Control_c, 6, 11, 92
11, 49859, Control_c, 6, 11, 93
11, 49883, Control_c, 6, 11, 94
11, 49907, Control_c, 6, 11, 95
11, 49932, Control_c, 6, 11, 96
11, 49956, Control_c, 6, 11, 97
11, 49980, Control_c, 6, 11, 98
11, 50005, Control_c, 6, 11, 99
11, 50029, Control_c, 6, 11, 100
11, 50054, Control_c, 6, 11, 101
11, 50078, Control_c, 6, 11, 102
11, 50102, Control_c, 6, 11, 103
11, 50112, Note_on_c, 6, 71, 0
11, 50112, Note_on_c, 6, 72, 109
11, 50127, Control_c, 6, 11, 104
11, 50151, Control_c, 6, 11, 105
11, 50176, Control_c, 6, 11, 106
11, 50200, Control_c, 6, 11, 107
11, 50224, Control_c, 6, 11, 108
11, 50249, Control_c, 6, 11, 109
11, 50273, Control_c, 6, 11, 110
11, 50297, Control_c, 6, 11, 111
11, 50304, Note_on_c, 6, 72, 0
11, 50304, Note_on_c, 6, 73, 106
11, 50322, Control_c, 6, 11, 112
11, 50346, Control_c, 6, 11, 113
11, 50371, Control_c, 6, 11, 114
11, 50395, Control_c, 6, 11, 115
11, 50419, Control_c, 6, 11, 116
11, 50432, Note_on_c, 6, 73, 0
11, 50432, Note_on_c, 6, 74, 105
11, 50444, Control_c, 6, 11, 117
11, 50468, Control_c, 6, 11, 118
11, 50492, Control_c, 6, 11, 119
11, 50517, Control_c, 6, 11, 120
11, 50541, Control_c, 6, 11, 121
11, 50560, Note_on_c, 6, 74, 0
11, 50560, Note_on_c, 6, 75, 110
11, 50566, Control_c, 6, 11, 122
11, 50590, Control_c, 6, 11, 123
11, 50614, Control_c, 6, 11, 124
11, 50639, Control_c, 6, 11, 125
11, 50663, Control_c, 6, 11, 126
11, 50688, Note_on_c, 6, 75, 0
11, 50688, Control_c, 6, 11, 127
11, 50688, Note_on_c, 6, 76, 48
11, 50848, Note_on_c, 6, 76, 0
11, 69888, Control_c, 6, 11, 127
11, 70272, Program_c, 6, 59
11, 70272, Note_on_c, 6, 73, 96
11, 70272, Note_on_c, 6, 76, 89
11, 70272, Note_on_c, 6, 80, 91
11, 70304, Note_on_c, 6, 73, 0
11, 70304, Note_on_c, 6, 76, 0
11, 70304, Note_on_c, 6, 80, 0
11, 70368, Note_on_c, 6, 73, 96
11, 70368, Note_on_c, 6, 76, 94
11, 70368, Note_on_c, 6, 80, 91
11, 70389, Note_on_c, 6, 73, 0
11, 70389, Note_on_c, 6, 76, 0
11, 70389, Note_on_c, 6, 80, 0
11, 70400, Note_on_c, 6, 73, 95
11, 70400, Note_on_c, 6, 76, 95
11, 70400, Note_on_c, 6, 80, 94
11, 70506, Note_on_c, 6, 73, 0
11, 70506, Note_on_c, 6, 76, 0
11, 70506, Note_on_c, 6, 80, 0
11, 70528, Note_on_c, 6, 73, 76
11, 70528, Note_on_c, 6, 76, 78
11, 70528, Note_on_c, 6, 80, 77
11, 70570, Note_on_c, 6, 73, 0
11, 70570, Note_on_c, 6, 76, 0
11, 70570, Note_on_c, 6, 80, 0
11, 70592, Note_on_c, 6, 73, 65
11, 70592, Note_on_c, 6, 76, 63
11, 70592, Note_on_c, 6, 80, 64
11, 70816, Note_on_c, 6, 73, 0
11, 70816, Note_on_c, 6, 76, 0
11, 70816, Note_on_c, 6, 80, 0
11, 87552, Program_c, 6, 56
11, 87912, Note_on_c, 6, 72, 93
11, 87912, Note_on_c, 6, 76, 96
11, 87936, Note_on_c, 6, 72, 0
11, 87936, Note_on_c, 6, 76, 0
11, 87936, Note_on_c, 6, 72, 88
11, 87936, Note_on_c, 6, 76, 95
11, 88704, Note_on_c, 6, 72, 0
11, 88704, Note_on_c, 6, 76, 0
11, 88704, Note_on_c, 6, 73, 97
11, 89040, Note_on_c, 6, 73, 0
11, 91776, Note_on_c, 6, 68, 113
11, 92448, Note_on_c, 6, 68, 0
11, 92448, Note_on_c, 6, 69, 109
11, 92544, Note_on_c, 6, 69, 0
11, 92544, Note_on_c, 6, 70, 105
11, 93216, Note_on_c, 6, 70, 0
11, 93216, Note_on_c, 6, 71, 110
11, 93312, Note_on_c, 6, 71, 0
11, 93312, Note_on_c, 6, 72, 113
11, 93600, Note_on_c, 6, 72, 0
11, 93600, Note_on_c, 6, 73, 112
11, 93696, Note_on_c, 6, 73, 0
11, 93696, Note_on_c, 6, 74, 110
11, 95184, Note_on_c, 6, 74, 0
11, 95232, Note_on_c, 6, 68, 91
11, 95232, Note_on_c, 6, 72, 90
11, 95232, Note_on_c, 6, 76, 90
11, 95520, Note_on_c, 6, 68, 0
11, 95520, Note_on_c, 6, 72, 0
11, 95520, Note_on_c, 6, 76, 0
11, 95520, Note_on_c, 6, 67, 87
11, 95520, Note_on_c, 6, 71, 95
11, 95520, Note_on_c, 6, 75, 96
11, 95616, Note_on_c, 6, 67, 0
11, 95616, Note_on_c, 6, 71, 0
11, 95616, Note_on_c, 6, 75, 0
11, 95616, Note_on_c, 6, 66, 89
11, 95616, Note_on_c, 6, 70, 87
11, 95616, Note_on_c, 6, 74, 94
11, 96288, Note_on_c, 6, 66, 0
11, 96288, Note_on_c, 6, 70, 0
11, 96288, Note_on_c, 6, 74, 0
11, 96288, Note_on_c, 6, 65, 73
11, 96288, Note_on_c, 6, 69, 74
11, 96288, Note_on_c, 6, 73, 75
11, 96384, Note_on_c, 6, 65, 0
11, 96384, Note_on_c, 6, 69, 0
11, 96384, Note_on_c, 6, 73, 0
11, 96384, Note_on_c, 6, 64, 71
11, 96384, Note_on_c, 6, 68, 73
11, 96384, Note_on_c, 6, 72, 68
11, 96672, Note_on_c, 6, 64, 0
11, 96672, Note_on_c, 6, 68, 0
11, 96672, Note_on_c, 6, 72, 0
11, 96672, Note_on_c, 6, 63, 67
11, 96672, Note_on_c, 6, 66, 67
11, 96672, Note_on_c, 6, 71, 67
11, 96768, Note_on_c, 6, 63, 0
11, 96768, Note_on_c, 6, 66, 0
11, 96768, Note_on_c, 6, 71, 0
11, 96768, Note_on_c, 6, 62, 65
11, 96768, Note_on_c, 6, 66, 55
11, 96768, Note_on_c, 6, 70, 57
11, 96928, Note_on_c, 6, 62, 0
11, 96928, Note_on_c, 6, 66, 0
11, 96928, Note_on_c, 6, 70, 0
11, 105984, Note_on_c, 6, 66, 45
11, 106032, Note_on_c, 6, 66, 0
11, 106032, Note_on_c, 6, 68, 42
11, 106752, Control_c, 6, 11, 127
11, 106758, Control_c, 6, 11, 126
11, 106764, Control_c, 6, 11, 125
11, 106770, Control_c, 6, 11, 124
11, 106776, Control_c, 6, 11, 123
11, 106782, Control_c, 6, 11, 122
11, 106788, Control_c, 6, 11, 121
11, 106794, Control_c, 6, 11, 120
11, 106800, Control_c, 6, 11, 119
11, 106806, Control_c, 6, 11, 118
11, 106812, Control_c, 6, 11, 117
11, 106819, Control_c, 6, 11, 116
11, 106825, Control_c, 6, 11, 115
11, 106831, Control_c, 6, 11, 114
11, 106837, Control_c, 6, 11, 113
11, 106843, Control_c, 6, 11, 112
11, 106849, Control_c, 6, 11, 111
11, 106855, Control_c, 6, 11, 110
11, 106861, Control_c, 6, 11, 109
11, 106867, Control_c, 6, 11, 108
11, 106873, Control_c, 6, 11, 107
11, 106880, Control_c, 6, 11, 106
11, 106886, Control_c, 6, 11, 105
11, 106892, Control_c, 6, 11, 104
11, 106898, Control_c, 6, 11, 103
11, 106904, Control_c, 6, 11, 102
11, 106910, Control_c, 6, 11, 101
11, 106916, Control_c, 6, 11, 100
11, 106922, Control_c, 6, 11, 99
11, 106928, Control_c, 6, 11, 98
11, 106934, Control_c, 6, 11, 97
11, 106940, Control_c, 6, 11, 96
11, 106947, Control_c, 6, 11, 95
11, 106953, Control_c, 6, 11, 94
11, 106959, Control_c, 6, 11, 93
11, 106965, Control_c, 6, 11, 92
11, 106971, Control_c, 6, 11, 91
11, 106977, Control_c, 6, 11, 90
11, 106983, Control_c, 6, 11, 89
11, 106989, Control_c, 6, 11, 88
11, 106995, Control_c, 6, 11, 87
11, 107001, Control_c, 6, 11, 86
11, 107008, Control_c, 6, 11, 85
11, 107014, Control_c, 6, 11, 84
11, 107020, Control_c, 6, 11, 83
11, 107026, Control_c, 6, 11, 82
11, 107032, Control_c, 6, 11, 81
11, 107038, Control_c, 6, 11, 80
11, 107044, Control_c, 6, 11, 79
11, 107050, Control_c, 6, 11, 78
11, 107056, Control_c, 6, 11, 77
11, 107062, Control_c, 6, 11, 76
11, 107068, Control_c, 6, 11, 75
11, 107075, Control_c, 6, 11, 74
11, 107081, Control_c, 6, 11, 73
11, 107087, Control_c, 6, 11, 72
11, 107093, Control_c, 6, 11, 71
11, 107099, Control_c, 6, 11, 70
11, 107105, Control_c, 6, 11, 69
11, 107111, Control_c, 6, 11, 68
11, 107117, Control_c, 6, 11, 67
11, 107123, Control_c, 6, 11, 66
11, 107129, Control_c, 6, 11, 65
11, 107136, Note_on_c, 6, 68, 0
11, 107136, Control_c, 6, 11, 64
11, 107136, Note_on_c, 6, 70, 50
11, 107296, Note_on_c, 6, 70, 0
11, 107520, Control_c, 6, 11, 127
11, 110592, Note_on_c, 6, 66, 45
11, 110640, Note_on_c, 6, 66, 0
11, 110640, Note_on_c, 6, 68, 45
11, 111360, Control_c, 6, 11, 127
11, 111366, Control_c, 6, 11, 126
11, 111372, Control_c, 6, 11, 125
11, 111378, Control_c, 6, 11, 124
11, 111384, Control_c, 6, 11, 123
11, 111390, Control_c, 6, 11, 122
11, 111396, Control_c, 6, 11, 121
11, 111402, Control_c, 6, 11, 120
11, 111408, Control_c, 6, 11, 119
11, 111414, Control_c, 6, 11, 118
11, 111420, Control_c, 6, 11, 117
11, 111427, Control_c, 6, 11, 116
11, 111433, Control_c, 6, 11, 115
11, 111439, Control_c, 6, 11, 114
11, 111445, Control_c, 6, 11, 113
11, 111451, Control_c, 6, 11, 112
11, 111457, Control_c, 6, 11, 111
11, 111463, Control_c, 6, 11, 110
11, 111469, Control_c, 6, 11, 109
11, 111475, Control_c, 6, 11, 108
11, 111481, Control_c, 6, 11, 107
11, 111488, Control_c, 6, 11, 106
11, 111494, Control_c, 6, 11, 105
11, 111500, Control_c, 6, 11, 104
11, 111506, Control_c, 6, 11, 103
11, 111512, Control_c, 6, 11, 102
11, 111518, Control_c, 6, 11, 101
11, 111524, Control_c, 6, 11, 100
11, 111530, Control_c, 6, 11, 99
11, 111536, Control_c, 6, 11, 98
11, 111542, Control_c, 6, 11, 97
11, 111548, Control_c, 6, 11, 96
11, 111555, Control_c, 6, 11, 95
11, 111561, Control_c, 6, 11, 94
11, 111567, Control_c, 6, 11, 93
11, 111573, Control_c, 6, 11, 92
11, 111579, Control_c, 6, 11, 91
11, 111585, Control_c, 6, 11, 90
11, 111591, Control_c, 6, 11, 89
11, 111597, Control_c, 6, 11, 88
11, 111603, Control_c, 6, 11, 87
11, 111609, Control_c, 6, 11, 86
11, 111616, Control_c, 6, 11, 85
11, 111622, Control_c, 6, 11, 84
11, 111628, Control_c, 6, 11, 83
11, 111634, Control_c, 6, 11, 82
11, 111640, Control_c, 6, 11, 81
11, 111646, Control_c, 6, 11, 80
11, 111652, Control_c, 6, 11, 79
11, 111658, Control_c, 6, 11, 78
11, 111664, Control_c, 6, 11, 77
11, 111670, Control_c, 6, 11, 76
11, 111676, Control_c, 6, 11, 75
11, 111683, Control_c, 6, 11, 74
11, 111689, Control_c, 6, 11, 73
11, 111695, Control_c, 6, 11, 72
11, 111701, Control_c, 6, 11, 71
11, 111707, Control_c, 6, 11, 70
11, 111713, Control_c, 6, 11, 69
11, 111719, Control_c, 6, 11, 68
11, 111725, Control_c, 6, 11, 67
11, 111731, Control_c, 6, 11, 66
11, 111737, Control_c, 6, 11, 65
11, 111744, Note_on_c, 6, 68, 0
11, 111744, Control_c, 6, 11, 64
11, 111744, Note_on_c, 6, 70, 44
11, 111904, Note_on_c, 6, 70, 0
11, 112128, Control_c, 6, 11, 127
11, 139008, Control_c, 6, 11, 127
11, 150528, Note_on_c, 6, 73, 92
11, 150528, Note_on_c, 6, 77, 92
11, 150596, Note_on_c, 6, 73, 0
11, 150596, Note_on_c, 6, 77, 0
11, 150624, Note_on_c, 6, 73, 87
11, 150624, Note_on_c, 6, 77, 95
11, 150692, Note_on_c, 6, 73, 0
11, 150692, Note_on_c, 6, 77, 0
11, 150720, Note_on_c, 6, 73, 88
11, 150720, Note_on_c, 6, 77, 95
11, 150784, Note_on_c, 6, 73, 0
11, 150784, Note_on_c, 6, 77, 0
11, 150784, Note_on_c, 6, 73, 93
11, 150784, Note_on_c, 6, 77, 92
11, 150848, Note_on_c, 6, 73, 0
11, 150848, Note_on_c, 6, 77, 0
11, 150848, Note_on_c, 6, 73, 94
11, 150848, Note_on_c, 6, 77, 91
11, 150910, Note_on_c, 6, 73, 0
11, 150910, Note_on_c, 6, 77, 0
11, 150912, Note_on_c, 6, 73, 90
11, 150912, Note_on_c, 6, 77, 88
11, 150980, Note_on_c, 6, 73, 0
11, 150980, Note_on_c, 6, 77, 0
11, 151008, Note_on_c, 6, 73, 90
11, 151008, Note_on_c, 6, 77, 93
11, 151076, Note_on_c, 6, 73, 0
11, 151076, Note_on_c, 6, 77, 0
11, 151104, Note_on_c, 6, 73, 91
11, 151104, Note_on_c, 6, 77, 91
11, 151168, Note_on_c, 6, 73, 0
11, 151168, Note_on_c, 6, 77, 0
11, 151168, Note_on_c, 6, 73, 87
11, 151168, Note_on_c, 6, 77, 94
11, 151232, Note_on_c, 6, 73, 0
11, 151232, Note_on_c, 6, 77, 0
11, 151232, Note_on_c, 6, 73, 94
11, 151232, Note_on_c, 6, 77, 90
11, 151294, Note_on_c, 6, 73, 0
11, 151294, Note_on_c, 6, 77, 0
11, 151296, Note_on_c, 6, 73, 96
11, 151296, Note_on_c, 6, 77, 91
11, 151364, Note_on_c, 6, 73, 0
11, 151364, Note_on_c, 6, 77, 0
11, 151392, Note_on_c, 6, 73, 91
11, 151392, Note_on_c, 6, 77, 88
11, 151460, Note_on_c, 6, 73, 0
11, 151460, Note_on_c, 6, 77, 0
11, 151488, Note_on_c, 6, 73, 95
11, 151488, Note_on_c, 6, 77, 88
11, 151552, Note_on_c, 6, 73, 0
11, 151552, Note_on_c, 6, 77, 0
11, 151552, Note_on_c, 6, 73, 90
11, 151552, Note_on_c, 6, 77, 89
11, 151616, Note_on_c, 6, 73, 0
11, 151616, Note_on_c, 6, 77, 0
11, 151616, Note_on_c, 6, 73, 91
11, 151616, Note_on_c, 6, 77, 96
11, 151678, Note_on_c, 6, 73, 0
11, 151678, Note_on_c, 6, 77, 0
11, 151680, Note_on_c, 6, 73, 91
11, 151680, Note_on_c, 6, 77, 90
11, 151748, Note_on_c, 6, 73, 0
11, 151748, Note_on_c, 6, 77, 0
11, 151776, Note_on_c, 6, 73, 95
11, 151776, Note_on_c, 6, 77, 95
11, 151844, Note_on_c, 6, 73, 0
11, 151844, Note_on_c, 6, 77, 0
11, 151872, Note_on_c, 6, 73, 91
11, 151872, Note_on_c, 6, 77, 92
11, 151936, Note_on_c, 6, 73, 0
11, 151936, Note_on_c, 6, 77, 0
11, 151936, Note_on_c, 6, 73, 95
11, 151936, Note_on_c, 6, 77, 97
11, 152000, Note_on_c, 6, 73, 0
11, 152000, Note_on_c, 6, 77, 0
11, 152000, Note_on_c, 6, 73, 88
11, 152000, Note_on_c, 6, 77, 95
11, 152062, Note_on_c, 6, 73, 0
11, 152062, Note_on_c, 6, 77, 0
11, 152064, Note_on_c, 6, 73, 96
11, 152064, Note_on_c, 6, 77, 89
11, 152132, Note_on_c, 6, 73, 0
11, 152132, Note_on_c, 6, 77, 0
11, 152160, Note_on_c, 6, 73, 90
11, 152160, Note_on_c, 6, 77, 97
11, 152228, Note_on_c, 6, 73, 0
11, 152228, Note_on_c, 6, 77, 0
11, 152256, Note_on_c, 6, 73, 91
11, 152256, Note_on_c, 6, 77, 94
11, 152320, Note_on_c, 6, 73, 0
11, 152320, Note_on_c, 6, 77, 0
11, 152320, Note_on_c, 6, 73, 89
11, 152320, Note_on_c, 6, 77, 93
11, 152384, Note_on_c, 6, 73, 0
11, 152384, Note_on_c, 6, 77, 0
11, 152384, Note_on_c, 6, 73, 95
11, 152384, Note_on_c, 6, 77, 93
11, 152446, Note_on_c, 6, 73, 0
11, 152446, Note_on_c, 6, 77, 0
11, 152448, Note_on_c, 6, 73, 96
11, 152448, Note_on_c, 6, 77, 90
11, 152516, Note_on_c, 6, 73, 0
11, 152516, Note_on_c, 6, 77, 0
11, 152544, Note_on_c, 6, 73, 97
11, 152544, Note_on_c, 6, 77, 95
11, 152612, Note_on_c, 6, 73, 0
11, 152612, Note_on_c, 6, 77, 0
11, 152640, Note_on_c, 6, 73, 92
11, 152640, Note_on_c, 6, 77, 90
11, 152704, Note_on_c, 6, 73, 0
11, 152704, Note_on_c, 6, 77, 0
11, 152704, Note_on_c, 6, 73, 91
11, 152704, Note_on_c, 6, 77, 95
11, 152768, Note_on_c, 6, 73, 0
11, 152768, Note_on_c, 6, 77, 0
11, 152768, Note_on_c, 6, 73, 95
11, 152768, Note_on_c, 6, 77, 96
11, 152830, Note_on_c, 6, 73, 0
11, 152830, Note_on_c, 6, 77, 0
11, 152832, Note_on_c, 6, 73, 97
11, 152832, Note_on_c, 6, 77, 89
11, 152900, Note_on_c, 6, 73, 0
11, 152900, Note_on_c, 6, 77, 0
11, 152928, Note_on_c, 6, 73, 91
11, 152928, Note_on_c, 6, 77, 90
11, 152996, Note_on_c, 6, 73, 0
11, 152996, Note_on_c, 6, 77, 0
11, 153024, Note_on_c, 6, 73, 95
11, 153024, Note_on_c, 6, 77, 92
11, 153088, Note_on_c, 6, 73, 0
11, 153088, Note_on_c, 6, 77, 0
11, 153088, Note_on_c, 6, 73, 97
11, 153088, Note_on_c, 6, 77, 90
11, 153152, Note_on_c, 6, 73, 0
11, 153152, Note_on_c, 6, 77, 0
11, 153152, Note_on_c, 6, 73, 93
11, 153152, Note_on_c, 6, 77, 97
11, 153214, Note_on_c, 6, 73, 0
11, 153214, Note_on_c, 6, 77, 0
11, 153216, Note_on_c, 6, 73, 96
11, 153216, Note_on_c, 6, 77, 89
11, 153284, Note_on_c, 6, 73, 0
11, 153284, Note_on_c, 6, 77, 0
11, 153312, Note_on_c, 6, 73, 89
11, 153312, Note_on_c, 6, 77, 87
11, 153380, Note_on_c, 6, 73, 0
11, 153380, Note_on_c, 6, 77, 0
11, 153408, Note_on_c, 6, 73, 89
11, 153408, Note_on_c, 6, 77, 93
11, 153472, Note_on_c, 6, 73, 0
11, 153472, Note_on_c, 6, 77, 0
11, 153472, Note_on_c, 6, 73, 90
11, 153472, Note_on_c, 6, 77, 90
11, 153536, Note_on_c, 6, 73, 0
11, 153536, Note_on_c, 6, 77, 0
11, 153536, Note_on_c, 6, 73, 97
11, 153536, Note_on_c, 6, 77, 87
11, 153598, Note_on_c, 6, 73, 0
11, 153598, Note_on_c, 6, 77, 0
11, 155328, Note_on_c, 6, 69, 104
11, 155328, Note_on_c, 6, 72, 111
11, 155488, Note_on_c, 6, 69, 0
11, 155488, Note_on_c, 6, 72, 0
11, 155712, Note_on_c, 6, 70, 106
11, 155712, Note_on_c, 6, 73, 104
11, 155872, Note_on_c, 6, 70, 0
11, 155872, Note_on_c, 6, 73, 0
11, 156096, Note_on_c, 6, 71, 110
11, 156096, Note_on_c, 6, 74, 107
11, 156256, Note_on_c, 6, 71, 0
11, 156256, Note_on_c, 6, 74, 0
11, 156480, Note_on_c, 6, 72, 112
11, 156480, Note_on_c, 6, 75, 113
11, 156640, Note_on_c, 6, 72, 0
11, 156640, Note_on_c, 6, 75, 0
11, 162048, Control_c, 6, 11, 127
11, 162816, Note_on_c, 6, 64, 48
11, 162816, Note_on_c, 6, 68, 44
11, 162816, Note_on_c, 6, 70, 49
11, 162942, Note_on_c, 6, 64, 0
11, 162942, Note_on_c, 6, 68, 0
11, 162942, Note_on_c, 6, 70, 0
11, 162944, Note_on_c, 6, 64, 48
11, 162944, Note_on_c, 6, 68, 44
11, 162944, Note_on_c, 6, 70, 50
11, 162986, Note_on_c, 6, 64, 0
11, 162986, Note_on_c, 6, 68, 0
11, 162986, Note_on_c, 6, 70, 0
11, 163008, Note_on_c, 6, 64, 47
11, 163008, Note_on_c, 6, 68, 45
11, 163008, Note_on_c, 6, 70, 46
11, 163050, Note_on_c, 6, 64, 0
11, 163050, Note_on_c, 6, 68, 0
11, 163050, Note_on_c, 6, 70, 0
11, 163072, Note_on_c, 6, 64, 49
11, 163072, Note_on_c, 6, 68, 45
11, 163072, Note_on_c, 6, 70, 47
11, 163114, Note_on_c, 6, 64, 0
11, 163114, Note_on_c, 6, 68, 0
11, 163114, Note_on_c, 6, 70, 0
11, 163136, Note_on_c, 6, 64, 45
11, 163136, Note_on_c, 6, 68, 44
11, 163136, Note_on_c, 6, 71, 42
11, 163178, Note_on_c, 6, 64, 0
11, 163178, Note_on_c, 6, 68, 0
11, 163178, Note_on_c, 6, 71, 0
11, 163200, Note_on_c, 6, 64, 50
11, 163200, Note_on_c, 6, 68, 50
11, 163200, Note_on_c, 6, 70, 47
11, 163326, Note_on_c, 6, 64, 0
11, 163326, Note_on_c, 6, 68, 0
11, 163326, Note_on_c, 6, 70, 0
11, 163328, Note_on_c, 6, 64, 49
11, 163328, Note_on_c, 6, 68, 47
11, 163328, Note_on_c, 6, 70, 40
11, 163370, Note_on_c, 6, 64, 0
11, 163370, Note_on_c, 6, 68, 0
11, 163370, Note_on_c, 6, 70, 0
11, 163392, Note_on_c, 6, 64, 46
11, 163392, Note_on_c, 6, 68, 42
11, 163392, Note_on_c, 6, 70, 46
11, 163434, Note_on_c, 6, 64, 0
11, 163434, Note_on_c, 6, 68, 0
11, 163434, Note_on_c, 6, 70, 0
11, 163456, Note_on_c, 6, 64, 43
11, 163456, Note_on_c, 6, 68, 49
11, 163456, Note_on_c, 6, 70, 50
11, 163498, Note_on_c, 6, 64, 0
11, 163498, Note_on_c, 6, 68, 0
11, 163498, Note_on_c, 6, 70, 0
11, 163520, Note_on_c, 6, 64, 45
11, 163520, Note_on_c, 6, 68, 47
11, 163520, Note_on_c, 6, 71, 41
11, 163562, Note_on_c, 6, 64, 0
11, 163562, Note_on_c, 6, 68, 0
11, 163562, Note_on_c, 6, 71, 0
11, 163584, Note_on_c, 6, 64, 41
11, 163584, Note_on_c, 6, 68, 43
11, 163584, Note_on_c, 6, 70, 45
11, 163710, Note_on_c, 6, 64, 0
11, 163710, Note_on_c, 6, 68, 0
11, 163710, Note_on_c, 6, 70, 0
11, 163712, Note_on_c, 6, 64, 49
11, 163712, Note_on_c, 6, 68, 42
11, 163712, Note_on_c, 6, 70, 45
11, 163754, Note_on_c, 6, 64, 0
11, 163754, Note_on_c, 6, 68, 0
11, 163754, Note_on_c, 6, 70, 0
11, 163776, Note_on_c, 6, 64, 47
11, 163776, Note_on_c, 6, 68, 48
11, 163776, Note_on_c, 6, 70, 43
11, 163818, Note_on_c, 6, 64, 0
11, 163818, Note_on_c, 6, 68, 0
11, 163818, Note_on_c, 6, 70, 0
11, 163840, Note_on_c, 6, 64, 41
11, 163840, Note_on_c, 6, 68, 41
11, 163840, Note_on_c, 6, 70, 49
11, 163882, Note_on_c, 6, 64, 0
11, 163882, Note_on_c, 6, 68, 0
11, 163882, Note_on_c, 6, 70, 0
11, 163904, Note_on_c, 6, 64, 46
11, 163904, Note_on_c, 6, 68, 46
11, 163904, Note_on_c, 6, 71, 47
11, 163946, Note_on_c, 6, 64, 0
11, 163946, Note_on_c, 6, 68, 0
11, 163946, Note_on_c, 6, 71, 0
11, 163968, Note_on_c, 6, 64, 48
11, 163968, Note_on_c, 6, 68, 48
11, 163968, Note_on_c, 6, 70, 41
11, 164094, Note_on_c, 6, 64, 0
11, 164094, Note_on_c, 6, 68, 0
11, 164094, Note_on_c, 6, 70, 0
11, 164096, Note_on_c, 6, 64, 49
11, 164096, Note_on_c, 6, 68, 46
11, 164096, Note_on_c, 6, 70, 40
11, 164138, Note_on_c, 6, 64, 0
11, 164138, Note_on_c, 6, 68, 0
11, 164138, Note_on_c, 6, 70, 0
11, 164160, Note_on_c, 6, 64, 48
11, 164160, Note_on_c, 6, 68, 46
11, 164160, Note_on_c, 6, 70, 41
11, 164202, Note_on_c, 6, 64, 0
11, 164202, Note_on_c, 6, 68, 0
11, 164202, Note_on_c, 6, 70, 0
11, 164224, Note_on_c, 6, 64, 48
11, 164224, Note_on_c, 6, 68, 50
11, 164224, Note_on_c, 6, 70, 48
11, 164266, Note_on_c, 6, 64, 0
11, 164266, Note_on_c, 6, 68, 0
11, 164266, Note_on_c, 6, 70, 0
11, 164288, Note_on_c, 6, 64, 46
11, 164288, Note_on_c, 6, 68, 47
11, 164288, Note_on_c, 6, 71, 41
11, 164330, Note_on_c, 6, 64, 0
11, 164330, Note_on_c, 6, 68, 0
11, 164330, Note_on_c, 6, 71, 0
11, 164352, Note_on_c, 6, 64, 45
11, 164352, Note_on_c, 6, 68, 50
11, 164352, Note_on_c, 6, 70, 47
11, 164478, Note_on_c, 6, 64, 0
11, 164478, Note_on_c, 6, 68, 0
11, 164478, Note_on_c, 6, 70, 0
11, 164480, Note_on_c, 6, 64, 49
11, 164480, Note_on_c, 6, 68, 49
11, 164480, Note_on_c, 6, 70, 47
11, 164522, Note_on_c, 6, 64, 0
11, 164522, Note_on_c, 6, 68, 0
11, 164522, Note_on_c, 6, 70, 0
11, 164544, Note_on_c, 6, 64, 43
11, 164544, Note_on_c, 6, 68, 47
11, 164544, Note_on_c, 6, 70, 49
11, 164586, Note_on_c, 6, 64, 0
11, 164586, Note_on_c, 6, 68, 0
11, 164586, Note_on_c, 6, 70, 0
11, 164608, Note_on_c, 6, 64, 43
11, 164608, Note_on_c, 6, 68, 43
11, 164608, Note_on_c, 6, 70, 49
11, 164650, Note_on_c, 6, 64, 0
11, 164650, Note_on_c, 6, 68, 0
11, 164650, Note_on_c, 6, 70, 0
11, 164672, Note_on_c, 6, 64, 49
11, 164672, Note_on_c, 6, 68, 43
11, 164672, Note_on_c, 6, 71, 45
11, 164714, Note_on_c, 6, 64, 0
11, 164714, Note_on_c, 6, 68, 0
11, 164714, Note_on_c, 6, 71, 0
11, 164736, Note_on_c, 6, 64, 43
11, 164736, Note_on_c, 6, 68, 44
11, 164736, Note_on_c, 6, 70, 42
11, 164862, Note_on_c, 6, 64, 0
11, 164862, Note_on_c, 6, 68, 0
11, 164862, Note_on_c, 6, 70, 0
11, 164864, Note_on_c, 6, 64, 49
11, 164864, Note_on_c, 6, 68, 47
11, 164864, Note_on_c, 6, 70, 45
11, 164906, Note_on_c, 6, 64, 0
11, 164906, Note_on_c, 6, 68, 0
11, 164906, Note_on_c, 6, 70, 0
11, 164928, Note_on_c, 6, 64, 42
11, 164928, Note_on_c, 6, 68, 44
11, 164928, Note_on_c, 6, 70, 45
11, 164970, Note_on_c, 6, 64, 0
11, 164970, Note_on_c, 6, 68, 0
11, 164970, Note_on_c, 6, 70, 0
11, 164992, Note_on_c, 6, 64, 49
11, 164992, Note_on_c, 6, 68, 45
11, 164992, Note_on_c, 6, 70, 49
11, 165034, Note_on_c, 6, 64, 0
11, 165034, Note_on_c, 6, 68, 0
11, 165034, Note_on_c, 6, 70, 0
11, 165056, Note_on_c, 6, 64, 40
11, 165056, Note_on_c, 6, 68, 48
11, 165056, Note_on_c, 6, 71, 44
11, 165098, Note_on_c, 6, 64, 0
11, 165098, Note_on_c, 6, 68, 0
11, 165098, Note_on_c, 6, 71, 0
11, 165120, Note_on_c, 6, 64, 49
11, 165120, Note_on_c, 6, 68, 46
11, 165120, Note_on_c, 6, 70, 49
11, 165246, Note_on_c, 6, 64, 0
11, 165246, Note_on_c, 6, 68, 0
11, 165246, Note_on_c, 6, 70, 0
11, 165248, Note_on_c, 6, 64, 43
11, 165248, Note_on_c, 6, 68, 47
11, 165248, Note_on_c, 6, 70, 47
11, 165290, Note_on_c, 6, 64, 0
11, 165290, Note_on_c, 6, 68, 0
11, 165290, Note_on_c, 6, 70, 0
11, 165312, Note_on_c, 6, 64, 43
11, 165312, Note_on_c, 6, 68, 43
11, 165312, Note_on_c, 6, 70, 43
11, 165354, Note_on_c, 6, 64, 0
11, 165354, Note_on_c, 6, 68, 0
11, 165354, Note_on_c, 6, 70, 0
11, 165376, Note_on_c, 6, 64, 48
11, 165376, Note_on_c, 6, 68, 41
11, 165376, Note_on_c, 6, 70, 48
11, 165418, Note_on_c, 6, 64, 0
11, 165418, Note_on_c, 6, 68, 0
11, 165418, Note_on_c, 6, 70, 0
11, 165440, Note_on_c, 6, 64, 46
11, 165440, Note_on_c, 6, 68, 42
11, 165440, Note_on_c, 6, 71, 47
11, 165482, Note_on_c, 6, 64, 0
11, 165482, Note_on_c, 6, 68, 0
11, 165482, Note_on_c, 6, 71, 0
11, 165504, Note_on_c, 6, 64, 48
11, 165504, Note_on_c, 6, 68, 49
11, 165504, Note_on_c, 6, 70, 50
11, 165630, Note_on_c, 6, 64, 0
11, 165630, Note_on_c, 6, 68, 0
11, 165630, Note_on_c, 6, 70, 0
11, 165632, Note_on_c, 6, 64, 48
11, 165632, Note_on_c, 6, 68, 46
11, 165632, Note_on_c, 6, 70, 48
11, 165674, Note_on_c, 6, 64, 0
11, 165674, Note_on_c, 6, 68, 0
11, 165674, Note_on_c, 6, 70, 0
11, 165696, Note_on_c, 6, 64, 47
11, 165696, Note_on_c, 6, 68, 48
11, 165696, Note_on_c, 6, 70, 41
11, 165738, Note_on_c, 6, 64, 0
11, 165738, Note_on_c, 6, 68, 0
11, 165738, Note_on_c, 6, 70, 0
11, 165760, Note_on_c, 6, 64, 45
11, 165760, Note_on_c, 6, 68, 41
11, 165760, Note_on_c, 6, 70, 42
11, 165802, Note_on_c, 6, 64, 0
11, 165802, Note_on_c, 6, 68, 0
11, 165802, Note_on_c, 6, 70, 0
11, 165824, Note_on_c, 6, 64, 48
11, 165824, Note_on_c, 6, 68, 48
11, 165824, Note_on_c, 6, 71, 46
11, 165866, Note_on_c, 6, 64, 0
11, 165866, Note_on_c, 6, 68, 0
11, 165866, Note_on_c, 6, 71, 0
11, 165888, Note_on_c, 6, 64, 41
11, 165888, Note_on_c, 6, 68, 45
11, 165888, Note_on_c, 6, 70, 42
11, 166014, Note_on_c, 6, 64, 0
11, 166014, Note_on_c, 6, 68, 0
11, 166014, Note_on_c, 6, 70, 0
11, 166016, Note_on_c, 6, 64, 45
11, 166016, Note_on_c, 6, 68, 47
11, 166016, Note_on_c, 6, 70, 44
11, 166058, Note_on_c, 6, 64, 0
11, 166058, Note_on_c, 6, 68, 0
11, 166058, Note_on_c, 6, 70, 0
11, 166080, Note_on_c, 6, 64, 44
11, 166080, Note_on_c, 6, 68, 40
11, 166080, Note_on_c, 6, 70, 44
11, 166122, Note_on_c, 6, 64, 0
11, 166122, Note_on_c, 6, 68, 0
11, 166122, Note_on_c, 6, 70, 0
11, 166144, Note_on_c, 6, 64, 45
11, 166144, Note_on_c, 6, 68, 47
11, 166144, Note_on_c, 6, 70, 43
11, 166186, Note_on_c, 6, 64, 0
11, 166186, Note_on_c, 6, 68, 0
11, 166186, Note_on_c, 6, 70, 0
11, 166208, Note_on_c, 6, 64, 48
11, 166208, Note_on_c, 6, 68, 44
11, 166208, Note_on_c, 6, 71, 48
11, 166250, Note_on_c, 6, 64, 0
11, 166250, Note_on_c, 6, 68, 0
11, 166250, Note_on_c, 6, 71, 0
11, 166272, Note_on_c, 6, 64, 47
11, 166272, Note_on_c, 6, 68, 42
11, 166272, Note_on_c, 6, 70, 44
11, 166398, Note_on_c, 6, 64, 0
11, 166398, Note_on_c, 6, 68, 0
11, 166398, Note_on_c, 6, 70, 0
11, 166400, Note_on_c, 6, 64, 45
11, 166400, Note_on_c, 6, 68, 47
11, 166400, Note_on_c, 6, 70, 42
11, 166442, Note_on_c, 6, 64, 0
11, 166442, Note_on_c, 6, 68, 0
11, 166442, Note_on_c, 6, 70, 0
11, 166464, Note_on_c, 6, 64, 45
11, 166464, Note_on_c, 6, 68, 42
11, 166464, Note_on_c, 6, 70, 48
11, 166506, Note_on_c, 6, 64, 0
11, 166506, Note_on_c, 6, 68, 0
11, 166506, Note_on_c, 6, 70, 0
11, 166528, Note_on_c, 6, 64, 43
11, 166528, Note_on_c, 6, 68, 42
11, 166528, Note_on_c, 6, 70, 46
11, 166570, Note_on_c, 6, 64, 0
11, 166570, Note_on_c, 6, 68, 0
11, 166570, Note_on_c, 6, 70, 0
11, 166592, Note_on_c, 6, 64, 45
11, 166592, Note_on_c, 6, 68, 50
11, 166592, Note_on_c, 6, 71, 49
11, 166634, Note_on_c, 6, 64, 0
11, 166634, Note_on_c, 6, 68, 0
11, 166634, Note_on_c, 6, 71, 0
11, 166656, Note_on_c, 6, 64, 47
11, 166656, Note_on_c, 6, 68, 41
11, 166656, Note_on_c, 6, 70, 42
11, 166782, Note_on_c, 6, 64, 0
11, 166782, Note_on_c, 6, 68, 0
11, 166782, Note_on_c, 6, 70, 0
11, 166784, Note_on_c, 6, 64, 43
11, 166784, Note_on_c, 6, 68, 47
11, 166784, Note_on_c, 6, 70, 46
11, 166826, Note_on_c, 6, 64, 0
11, 166826, Note_on_c, 6, 68, 0
11, 166826, Note_on_c, 6, 70, 0
11, 166848, Note_on_c, 6, 64, 49
11, 166848, Note_on_c, 6, 68, 42
11, 166848, Note_on_c, 6, 70, 46
11, 166890, Note_on_c, 6, 64, 0
11, 166890, Note_on_c, 6, 68, 0
11, 166890, Note_on_c, 6, 70, 0
11, 166912, Note_on_c, 6, 64, 42
11, 166912, Note_on_c, 6, 68, 50
11, 166912, Note_on_c, 6, 70, 44
11, 166954, Note_on_c, 6, 64, 0
11, 166954, Note_on_c, 6, 68, 0
11, 166954, Note_on_c, 6, 70, 0
11, 166976, Note_on_c, 6, 64, 41
11, 166976, Note_on_c, 6, 68, 49
11, 166976, Note_on_c, 6, 71, 40
11, 167018, Note_on_c, 6, 64, 0
11, 167018, Note_on_c, 6, 68, 0
11, 167018, Note_on_c, 6, 71, 0
11, 167040, Note_on_c, 6, 64, 47
11, 167040, Note_on_c, 6, 68, 44
11, 167040, Note_on_c, 6, 70, 45
11, 167166, Note_on_c, 6, 64, 0
11, 167166, Note_on_c, 6, 68, 0
11, 167166, Note_on_c, 6, 70, 0
11, 167168, Note_on_c, 6, 64, 48
11, 167168, Note_on_c, 6, 68, 41
11, 167168, Note_on_c, 6, 70, 47
11, 167210, Note_on_c, 6, 64, 0
11, 167210, Note_on_c, 6, 68, 0
11, 167210, Note_on_c, 6, 70, 0
11, 167232, Note_on_c, 6, 64, 47
11, 167232, Note_on_c, 6, 68, 45
11, 167232, Note_on_c, 6, 70, 41
11, 167274, Note_on_c, 6, 64, 0
11, 167274, Note_on_c, 6, 68, 0
11, 167274, Note_on_c, 6, 70, 0
11, 167296, Note_on_c, 6, 64, 43
11, 167296, Note_on_c, 6, 68, 44
11, 167296, Note_on_c, 6, 70, 45
11, 167338, Note_on_c, 6, 64, 0
11, 167338, Note_on_c, 6, 68, 0
11, 167338, Note_on_c, 6, 70, 0
11, 167360, Note_on_c, 6, 64, 47
11, 167360, Note_on_c, 6, 68, 50
11, 167360, Note_on_c, 6, 71, 49
11, 167402, Note_on_c, 6, 64, 0
11, 167402, Note_on_c, 6, 68, 0
11, 167402, Note_on_c, 6, 71, 0
11, 167424, Note_on_c, 6, 64, 44
11, 167424, Note_on_c, 6, 68, 44
11, 167424, Note_on_c, 6, 70, 45
11, 167550, Note_on_c, 6, 64, 0
11, 167550, Note_on_c, 6, 68, 0
11, 167550, Note_on_c, 6, 70, 0
11, 167552, Note_on_c, 6, 64, 45
11, 167552, Note_on_c, 6, 68, 40
11, 167552, Note_on_c, 6, 70, 49
11, 167594, Note_on_c, 6, 64, 0
11, 167594, Note_on_c, 6, 68, 0
11, 167594, Note_on_c, 6, 70, 0
11, 167616, Note_on_c, 6, 64, 50
11, 167616, Note_on_c, 6, 68, 45
11, 167616, Note_on_c, 6, 70, 45
11, 167658, Note_on_c, 6, 64, 0
11, 167658, Note_on_c, 6, 68, 0
11, 167658, Note_on_c, 6, 70, 0
11, 167680, Note_on_c, 6, 64, 43
11, 167680, Note_on_c, 6, 68, 40
11, 167680, Note_on_c, 6, 70, 42
11, 167722, Note_on_c, 6, 64, 0
11, 167722, Note_on_c, 6, 68, 0
11, 167722, Note_on_c, 6, 70, 0
11, 167744, Note_on_c, 6, 64, 44
11, 167744, Note_on_c, 6, 68, 40
11, 167744, Note_on_c, 6, 71, 48
11, 167786, Note_on_c, 6, 64, 0
11, 167786, Note_on_c, 6, 68, 0
11, 167786, Note_on_c, 6, 71, 0
11, 167808, Note_on_c, 6, 64, 47
11, 167808, Note_on_c, 6, 68, 44
11, 167808, Note_on_c, 6, 70, 43
11, 167934, Note_on_c, 6, 64, 0
11, 167934, Note_on_c, 6, 68, 0
11, 167934, Note_on_c, 6, 70, 0
11, 167936, Note_on_c, 6, 64, 48
11, 167936, Note_on_c, 6, 68, 43
11, 167936, Note_on_c, 6, 70, 49
11, 167978, Note_on_c, 6, 64, 0
11, 167978, Note_on_c, 6, 68, 0
11, 167978, Note_on_c, 6, 70, 0
11, 168000, Note_on_c, 6, 64, 45
11, 168000, Note_on_c, 6, 68, 49
11, 168000, Note_on_c, 6, 70, 47
11, 168042, Note_on_c, 6, 64, 0
11, 168042, Note_on_c, 6, 68, 0
11, 168042, Note_on_c, 6, 70, 0
11, 168064, Note_on_c, 6, 64, 49
11, 168064, Note_on_c, 6, 68, 46
11, 168064, Note_on_c, 6, 70, 47
11, 168106, Note_on_c, 6, 64, 0
11, 168106, Note_on_c, 6, 68, 0
11, 168106, Note_on_c, 6, 70, 0
11, 168128, Note_on_c, 6, 64, 40
11, 168128, Note_on_c, 6, 68, 50
11, 168128, Note_on_c, 6, 71, 48
11, 168170, Note_on_c, 6, 64, 0
11, 168170, Note_on_c, 6, 68, 0
11, 168170, Note_on_c, 6, 71, 0
11, 168192, Note_on_c, 6, 64, 46
11, 168192, Note_on_c, 6, 68, 46
11, 168192, Note_on_c, 6, 70, 41
11, 168318, Note_on_c, 6, 64, 0
11, 168318, Note_on_c, 6, 68, 0
11, 168318, Note_on_c, 6, 70, 0
11, 168320, Note_on_c, 6, 64, 47
11, 168320, Note_on_c, 6, 68, 49
11, 168320, Note_on_c, 6, 70, 41
11, 168362, Note_on_c, 6, 64, 0
11, 168362, Note_on_c, 6, 68, 0
11, 168362, Note_on_c, 6, 70, 0
11, 168384, Note_on_c, 6, 64, 41
11, 168384, Note_on_c, 6, 68, 40
11, 168384, Note_on_c, 6, 70, 44
11, 168426, Note_on_c, 6, 64, 0
11, 168426, Note_on_c, 6, 68, 0
11, 168426, Note_on_c, 6, 70, 0
11, 168448, Note_on_c, 6, 64, 44
11, 168448, Note_on_c, 6, 68, 46
11, 168448, Note_on_c, 6, 70, 41
11, 168490, Note_on_c, 6, 64, 0
11, 168490, Note_on_c, 6, 68, 0
11, 168490, Note_on_c, 6, 70, 0
11, 168512, Note_on_c, 6, 64, 45
11, 168512, Note_on_c, 6, 68, 42
11, 168512, Note_on_c, 6, 71, 40
11, 168554, Note_on_c, 6, 64, 0
11, 168554, Note_on_c, 6, 68, 0
11, 168554, Note_on_c, 6, 71, 0
11, 168576, Note_on_c, 6, 64, 40
11, 168576, Note_on_c, 6, 68, 40
11, 168576, Note_on_c, 6, 70, 42
11, 168702, Note_on_c, 6, 64, 0
11, 168702, Note_on_c, 6, 68, 0
11, 168702, Note_on_c, 6, 70, 0
11, 168704, Note_on_c, 6, 64, 43
11, 168704, Note_on_c, 6, 68, 44
11, 168704, Note_on_c, 6, 70, 42
11, 168746, Note_on_c, 6, 64, 0
11, 168746, Note_on_c, 6, 68, 0
11, 168746, Note_on_c, 6, 70, 0
11, 168768, Note_on_c, 6, 64, 43
11, 168768, Note_on_c, 6, 68, 41
11, 168768, Note_on_c, 6, 70, 40
11, 168810, Note_on_c, 6, 64, 0
11, 168810, Note_on_c, 6, 68, 0
11, 168810, Note_on_c, 6, 70, 0
11, 168832, Note_on_c, 6, 64, 50
11, 168832, Note_on_c, 6, 68, 41
11, 168832, Note_on_c, 6, 70, 41
11, 168874, Note_on_c, 6, 64, 0
11, 168874, Note_on_c, 6, 68, 0
11, 168874, Note_on_c, 6, 70, 0
11, 168896, Note_on_c, 6, 64, 47
11, 168896, Note_on_c, 6, 68, 49
11, 168896, Note_on_c, 6, 71, 49
11, 168938, Note_on_c, 6, 64, 0
11, 168938, Note_on_c, 6, 68, 0
11, 168938, Note_on_c, 6, 71, 0
11, 168960, Note_on_c, 6, 65, 42
11, 168960, Note_on_c, 6, 69, 40
11, 168960, Note_on_c, 6, 71, 43
11, 169086, Note_on_c, 6, 65, 0
11, 169086, Note_on_c, 6, 69, 0
11, 169086, Note_on_c, 6, 71, 0
11, 169088, Note_on_c, 6, 65, 42
11, 169088, Note_on_c, 6, 69, 45
11, 169088, Note_on_c, 6, 71, 47
11, 169130, Note_on_c, 6, 65, 0
11, 169130, Note_on_c, 6, 69, 0
11, 169130, Note_on_c, 6, 71, 0
11, 169152, Note_on_c, 6, 65, 46
11, 169152, Note_on_c, 6, 69, 50
11, 169152, Note_on_c, 6, 71, 49
11, 169194, Note_on_c, 6, 65, 0
11, 169194, Note_on_c, 6, 69, 0
11, 169194, Note_on_c, 6, 71, 0
11, 169216, Note_on_c, 6, 65, 40
11, 169216, Note_on_c, 6, 69, 43
11, 169216, Note_on_c, 6, 71, 42
11, 169258, Note_on_c, 6, 65, 0
11, 169258, Note_on_c, 6, 69, 0
11, 169258, Note_on_c, 6, 71, 0
11, 169280, Note_on_c, 6, 65, 45
11, 169280, Note_on_c, 6, 69, 49
11, 169280, Note_on_c, 6, 72, 43
11, 169322, Note_on_c, 6, 65, 0
11, 169322, Note_on_c, 6, 69, 0
11, 169322, Note_on_c, 6, 72, 0
11, 169344, Note_on_c, 6, 65, 45
11, 169344, Note_on_c, 6, 69, 45
11, 169344, Note_on_c, 6, 71, 49
11, 169470, Note_on_c, 6, 65, 0
11, 169470, Note_on_c, 6, 69, 0
11, 169470, Note_on_c, 6, 71, 0
11, 169472, Note_on_c, 6, 65, 48
11, 169472, Note_on_c, 6, 69, 41
11, 169472, Note_on_c, 6, 71, 45
11, 169514, Note_on_c, 6, 65, 0
11, 169514, Note_on_c, 6, 69, 0
11, 169514, Note_on_c, 6, 71, 0
11, 169536, Note_on_c, 6, 65, 48
11, 169536, Note_on_c, 6, 69, 48
11, 169536, Note_on_c, 6, 71, 40
11, 169578, Note_on_c, 6, 65, 0
11, 169578, Note_on_c, 6, 69, 0
11, 169578, Note_on_c, 6, 71, 0
11, 169600, Note_on_c, 6, 65, 45
11, 169600, Note_on_c, 6, 69, 47
11, 169600, Note_on_c, 6, 71, 43
11, 169642, Note_on_c, 6, 65, 0
11, 169642, Note_on_c, 6, 69, 0
11, 169642, Note_on_c, 6, 71, 0
11, 169664, Note_on_c, 6, 65, 48
11, 169664, Note_on_c, 6, 69, 50
11, 169664, Note_on_c, 6, 72, 47
11, 169706, Note_on_c, 6, 65, 0
11, 169706, Note_on_c, 6, 69, 0
11, 169706, Note_on_c, 6, 72, 0
11, 169728, Note_on_c, 6, 65, 42
11, 169728, Note_on_c, 6, 69, 43
11, 169728, Note_on_c, 6, 73, 41
11, 169854, Note_on_c, 6, 65, 0
11, 169854, Note_on_c, 6, 69, 0
11, 169854, Note_on_c, 6, 73, 0
11, 169856, Note_on_c, 6, 65, 55
11, 169856, Note_on_c, 6, 70, 61
11, 169856, Note_on_c, 6, 73, 52
11, 169898, Note_on_c, 6, 65, 0
11, 169898, Note_on_c, 6, 70, 0
11, 169898, Note_on_c, 6, 73, 0
11, 169920, Note_on_c, 6, 65, 62
11, 169920, Note_on_c, 6, 71, 61
11, 169920, Note_on_c, 6, 73, 58
11, 169962, Note_on_c, 6, 65, 0
11, 169962, Note_on_c, 6, 71, 0
11, 169962, Note_on_c, 6, 73, 0
11, 169984, Note_on_c, 6, 65, 65
11, 169984, Note_on_c, 6, 71, 72
11, 169984, Note_on_c, 6, 73, 67
11, 170026, Note_on_c, 6, 65, 0
11, 170026, Note_on_c, 6, 71, 0
11, 170026, Note_on_c, 6, 73, 0
11, 170048, Note_on_c, 6, 65, 71
11, 170048, Note_on_c, 6, 71, 73
11, 170048, Note_on_c, 6, 74, 74
11, 170090, Note_on_c, 6, 65, 0
11, 170090, Note_on_c, 6, 71, 0
11, 170090, Note_on_c, 6, 74, 0
11, 172800, Control_c, 6, 11, 127
11, 173568, Program_c, 6, 59
11, 173760, Note_on_c, 6, 67, 25
11, 173802, Note_on_c, 6, 67, 0
11, 173824, Note_on_c, 6, 68, 49
11, 173866, Note_on_c, 6, 68, 0
11, 173888, Note_on_c, 6, 69, 65
11, 173930, Note_on_c, 6, 69, 0
11, 174144, Note_on_c, 6, 67, 34
11, 174206, Note_on_c, 6, 67, 0
11, 174208, Note_on_c, 6, 68, 46
11, 174270, Note_on_c, 6, 68, 0
11, 174272, Note_on_c, 6, 69, 56
11, 174334, Note_on_c, 6, 69, 0
11, 174528, Note_on_c, 6, 67, 28
11, 174570, Note_on_c, 6, 67, 0
11, 174592, Note_on_c, 6, 68, 46
11, 174634, Note_on_c, 6, 68, 0
11, 174656, Note_on_c, 6, 69, 65
11, 174698, Note_on_c, 6, 69, 0
11, 174912, Note_on_c, 6, 67, 26
11, 174954, Note_on_c, 6, 67, 0
11, 174976, Note_on_c, 6, 68, 46
11, 175018, Note_on_c, 6, 68, 0
11, 175040, Note_on_c, 6, 69, 58
11, 175082, Note_on_c, 6, 69, 0
11, 175296, Note_on_c, 6, 67, 29
11, 175338, Note_on_c, 6, 67, 0
11, 175360, Note_on_c, 6, 68, 45
11, 175402, Note_on_c, 6, 68, 0
11, 175424, Note_on_c, 6, 69, 61
11, 175466, Note_on_c, 6, 69, 0
11, 175680, Note_on_c, 6, 67, 28
11, 175722, Note_on_c, 6, 67, 0
11, 175744, Note_on_c, 6, 68, 50
11, 175786, Note_on_c, 6, 68, 0
11, 175808, Note_on_c, 6, 69, 56
11, 175850, Note_on_c, 6, 69, 0
11, 175872, Note_on_c, 6, 67, 32
11, 175914, Note_on_c, 6, 67, 0
11, 175936, Note_on_c, 6, 67, 29
11, 175978, Note_on_c, 6, 67, 0
11, 176000, Note_on_c, 6, 67, 37
11, 176042, Note_on_c, 6, 67, 0
11, 176064, Note_on_c, 6, 68, 48
11, 176106, Note_on_c, 6, 68, 0
11, 176128, Note_on_c, 6, 69, 51
11, 176170, Note_on_c, 6, 69, 0
11, 176192, Note_on_c, 6, 70, 61
11, 176234, Note_on_c, 6, 70, 0
11, 176256, Note_on_c, 6, 67, 35
11, 176298, Note_on_c, 6, 67, 0
11, 176320, Note_on_c, 6, 67, 33
11, 176362, Note_on_c, 6, 67, 0
11, 176384, Note_on_c, 6, 67, 39
11, 176426, Note_on_c, 6, 67, 0
11, 176448, Note_on_c, 6, 68, 42
11, 176490, Note_on_c, 6, 68, 0
11, 176512, Note_on_c, 6, 69, 54
11, 176554, Note_on_c, 6, 69, 0
11, 176576, Note_on_c, 6, 70, 59
11, 176618, Note_on_c, 6, 70, 0
11, 176640, Note_on_c, 6, 67, 35
11, 176682, Note_on_c, 6, 67, 0
11, 176704, Note_on_c, 6, 67, 33
11, 176746, Note_on_c, 6, 67, 0
11, 176768, Note_on_c, 6, 67, 38
11, 176810, Note_on_c, 6, 67, 0
11, 176832, Note_on_c, 6, 68, 42
11, 176874, Note_on_c, 6, 68, 0
11, 176896, Note_on_c, 6, 69, 53
11, 176938, Note_on_c, 6, 69, 0
11, 176960, Note_on_c, 6, 70, 57
11, 177002, Note_on_c, 6, 70, 0
11, 177024, Note_on_c, 6, 67, 56
11, 177066, Note_on_c, 6, 67, 0
11, 177088, Note_on_c, 6, 67, 59
11, 177130, Note_on_c, 6, 67, 0
11, 177152, Note_on_c, 6, 67, 59
11, 177194, Note_on_c, 6, 67, 0
11, 177216, Note_on_c, 6, 68, 59
11, 177258, Note_on_c, 6, 68, 0
11, 177280, Note_on_c, 6, 69, 61
11, 177322, Note_on_c, 6, 69, 0
11, 177344, Note_on_c, 6, 70, 58
11, 177386, Note_on_c, 6, 70, 0
11, 198144, Program_c, 6, 56
11, 198912, Note_on_c, 6, 70, 92
11, 199168, Note_on_c, 6, 70, 0
11, 199168, Note_on_c, 6, 70, 87
11, 199424, Note_on_c, 6, 70, 0
11, 199424, Note_on_c, 6, 70, 93
11, 199680, Note_on_c, 6, 70, 0
11, 199680, Note_on_c, 6, 70, 92
11, 200064, Note_on_c, 6, 70, 0
11, 200064, Note_on_c, 6, 65, 91
11, 201168, Note_on_c, 6, 65, 0
11, 201216, Control_c, 6, 11, 75
11, 201216, Note_on_c, 6, 70, 123
11, 201252, Control_c, 6, 11, 76
11, 201289, Control_c, 6, 11, 77
11, 201326, Control_c, 6, 11, 78
11, 201363, Control_c, 6, 11, 79
11, 201400, Control_c, 6, 11, 80
11, 201437, Control_c, 6, 11, 81
11, 201474, Control_c, 6, 11, 82
11, 201511, Control_c, 6, 11, 83
11, 201548, Control_c, 6, 11, 84
11, 201585, Control_c, 6, 11, 85
11, 201622, Control_c, 6, 11, 86
11, 201659, Control_c, 6, 11, 87
11, 201695, Control_c, 6, 11, 88
11, 201732, Control_c, 6, 11, 89
11, 201769, Control_c, 6, 11, 90
11, 201806, Control_c, 6, 11, 91
11, 201843, Control_c, 6, 11, 92
11, 201880, Control_c, 6, 11, 93
11, 201917, Control_c, 6, 11, 94
11, 201954, Control_c, 6, 11, 95
11, 201984, Note_on_c, 6, 70, 0
11, 201984, Note_on_c, 6, 73, 123
11, 201991, Control_c, 6, 11, 96
11, 202028, Control_c, 6, 11, 97
11, 202065, Control_c, 6, 11, 98
11, 202102, Control_c, 6, 11, 99
11, 202139, Control_c, 6, 11, 100
11, 202175, Control_c, 6, 11, 101
11, 202212, Control_c, 6, 11, 102
11, 202249, Control_c, 6, 11, 103
11, 202286, Control_c, 6, 11, 104
11, 202323, Control_c, 6, 11, 105
11, 202360, Control_c, 6, 11, 106
11, 202397, Control_c, 6, 11, 107
11, 202434, Control_c, 6, 11, 108
11, 202471, Control_c, 6, 11, 109
11, 202508, Control_c, 6, 11, 110
11, 202545, Control_c, 6, 11, 111
11, 202582, Control_c, 6, 11, 112
11, 202619, Control_c, 6, 11, 113
11, 202655, Control_c, 6, 11, 114
11, 202692, Control_c, 6, 11, 115
11, 202729, Control_c, 6, 11, 116
11, 202766, Control_c, 6, 11, 117
11, 202803, Control_c, 6, 11, 118
11, 202840, Control_c, 6, 11, 119
11, 202877, Control_c, 6, 11, 120
11, 202914, Control_c, 6, 11, 121
11, 202951, Control_c, 6, 11, 122
11, 202988, Control_c, 6, 11, 123
11, 203025, Control_c, 6, 11, 124
11, 203062, Control_c, 6, 11, 125
11, 203099, Control_c, 6, 11, 126
11, 203136, Note_on_c, 6, 73, 0
11, 203136, Control_c, 6, 11, 127
11, 203136, Note_on_c, 6, 75, 125
11, 203520, Note_on_c, 6, 75, 0
11, 203520, Note_on_c, 6, 73, 124
11, 204288, Note_on_c, 6, 73, 0
11, 204288, Control_c, 6, 11, 127
11, 204288, Note_on_c, 6, 72, 123
11, 204302, Control_c, 6, 11, 126
11, 204317, Control_c, 6, 11, 125
11, 204332, Control_c, 6, 11, 124
11, 204347, Control_c, 6, 11, 123
11, 204361, Control_c, 6, 11, 122
11, 204376, Control_c, 6, 11, 121
11, 204391, Control_c, 6, 11, 120
11, 204406, Control_c, 6, 11, 119
11, 204420, Control_c, 6, 11, 118
11, 204435, Control_c, 6, 11, 117
11, 204450, Control_c, 6, 11, 116
11, 204465, Control_c, 6, 11, 115
11, 204480, Control_c, 6, 11, 114
11, 204494, Control_c, 6, 11, 113
11, 204509, Control_c, 6, 11, 112
11, 204524, Control_c, 6, 11, 111
11, 204539, Control_c, 6, 11, 110
11, 204553, Control_c, 6, 11, 109
11, 204568, Control_c, 6, 11, 108
11, 204583, Control_c, 6, 11, 107
11, 204598, Control_c, 6, 11, 106
11, 204612, Control_c, 6, 11, 105
11, 204627, Control_c, 6, 11, 104
11, 204642, Control_c, 6, 11, 103
11, 204657, Control_c, 6, 11, 102
11, 204672, Control_c, 6, 11, 101
11, 204686, Control_c, 6, 11, 100
11, 204701, Control_c, 6, 11, 99
11, 204716, Control_c, 6, 11, 98
11, 204731, Control_c, 6, 11, 97
11, 204745, Control_c, 6, 11, 96
11, 204760, Control_c, 6, 11, 95
11, 204775, Control_c, 6, 11, 94
11, 204790, Control_c, 6, 11, 93
11, 204804, Control_c, 6, 11, 92
11, 204819, Control_c, 6, 11, 91
11, 204834, Control_c, 6, 11, 90
11, 204849, Control_c, 6, 11, 89
11, 204864, Control_c, 6, 11, 88
11, 204878, Control_c, 6, 11, 87
11, 204893, Control_c, 6, 11, 86
11, 204908, Control_c, 6, 11, 85
11, 204923, Control_c, 6, 11, 84
11, 204937, Control_c, 6, 11, 83
11, 204952, Control_c, 6, 11, 82
11, 204967, Control_c, 6, 11, 81
11, 204982, Control_c, 6, 11, 80
11, 204996, Control_c, 6, 11, 79
11, 205008, Note_on_c, 6, 72, 0
11, 205011, Control_c, 6, 11, 78
11, 205026, Control_c, 6, 11, 77
11, 205041, Control_c, 6, 11, 76
11, 205056, Control_c, 6, 11, 75
11, 205056, Note_on_c, 6, 70, 127
11, 205312, Note_on_c, 6, 70, 0
11, 205312, Note_on_c, 6, 70, 127
11, 205568, Note_on_c, 6, 70, 0
11, 205568, Note_on_c, 6, 70, 127
11, 205824, Note_on_c, 6, 70, 0
11, 205824, Note_on_c, 6, 70, 127
11, 206208, Note_on_c, 6, 70, 0
11, 206208, Note_on_c, 6, 65, 127
11, 207312, Note_on_c, 6, 65, 0
11, 207360, Control_c, 6, 11, 75
11, 207360, Note_on_c, 6, 70, 127
11, 207374, Control_c, 6, 11, 76
11, 207389, Control_c, 6, 11, 77
11, 207404, Control_c, 6, 11, 78
11, 207419, Control_c, 6, 11, 79
11, 207433, Control_c, 6, 11, 80
11, 207448, Control_c, 6, 11, 81
11, 207463, Control_c, 6, 11, 82
11, 207478, Control_c, 6, 11, 83
11, 207492, Control_c, 6, 11, 84
11, 207507, Control_c, 6, 11, 85
11, 207522, Control_c, 6, 11, 86
11, 207537, Control_c, 6, 11, 87
11, 207552, Control_c, 6, 11, 88
11, 207566, Control_c, 6, 11, 89
11, 207581, Control_c, 6, 11, 90
11, 207596, Control_c, 6, 11, 91
11, 207611, Control_c, 6, 11, 92
11, 207625, Control_c, 6, 11, 93
11, 207640, Control_c, 6, 11, 94
11, 207655, Control_c, 6, 11, 95
11, 207670, Control_c, 6, 11, 96
11, 207684, Control_c, 6, 11, 97
11, 207699, Control_c, 6, 11, 98
11, 207714, Control_c, 6, 11, 99
11, 207729, Control_c, 6, 11, 100
11, 207744, Control_c, 6, 11, 101
11, 207758, Control_c, 6, 11, 102
11, 207773, Control_c, 6, 11, 103
11, 207788, Control_c, 6, 11, 104
11, 207803, Control_c, 6, 11, 105
11, 207817, Control_c, 6, 11, 106
11, 207832, Control_c, 6, 11, 107
11, 207847, Control_c, 6, 11, 108
11, 207862, Control_c, 6, 11, 109
11, 207876, Control_c, 6, 11, 110
11, 207891, Control_c, 6, 11, 111
11, 207906, Control_c, 6, 11, 112
11, 207921, Control_c, 6, 11, 113
11, 207936, Control_c, 6, 11, 114
11, 207950, Control_c, 6, 11, 115
11, 207965, Control_c, 6, 11, 116
11, 207980, Control_c, 6, 11, 117
11, 207995, Control_c, 6, 11, 118
11, 208009, Control_c, 6, 11, 119
11, 208024, Control_c, 6, 11, 120
11, 208039, Control_c, 6, 11, 121
11, 208054, Control_c, 6, 11, 122
11, 208068, Control_c, 6, 11, 123
11, 208083, Control_c, 6, 11, 124
11, 208098, Control_c, 6, 11, 125
11, 208113, Control_c, 6, 11, 126
11, 208128, Note_on_c, 6, 70, 0
11, 208128, Control_c, 6, 11, 127
11, 208128, Control_c, 6, 11, 127
11, 208128, Note_on_c, 6, 73, 127
11, 208128, Note_on_c, 6, 77, 126
11, 208138, Control_c, 6, 11, 126
11, 208149, Control_c, 6, 11, 125
11, 208160, Control_c, 6, 11, 124
11, 208171, Control_c, 6, 11, 123
11, 208182, Control_c, 6, 11, 122
11, 208193, Control_c, 6, 11, 121
11, 208204, Control_c, 6, 11, 120
11, 208215, Control_c, 6, 11, 119
11, 208226, Control_c, 6, 11, 118
11, 208237, Control_c, 6, 11, 117
11, 208248, Control_c, 6, 11, 116
11, 208259, Control_c, 6, 11, 115
11, 208270, Control_c, 6, 11, 114
11, 208281, Control_c, 6, 11, 113
11, 208292, Control_c, 6, 11, 112
11, 208303, Control_c, 6, 11, 111
11, 208314, Control_c, 6, 11, 110
11, 208325, Control_c, 6, 11, 109
11, 208336, Control_c, 6, 11, 108
11, 208347, Control_c, 6, 11, 107
11, 208358, Control_c, 6, 11, 106
11, 208369, Control_c, 6, 11, 105
11, 208380, Control_c, 6, 11, 104
11, 208391, Control_c, 6, 11, 103
11, 208402, Control_c, 6, 11, 102
11, 208413, Control_c, 6, 11, 101
11, 208424, Control_c, 6, 11, 100
11, 208435, Control_c, 6, 11, 99
11, 208446, Control_c, 6, 11, 98
11, 208457, Control_c, 6, 11, 97
11, 208468, Control_c, 6, 11, 96
11, 208479, Control_c, 6, 11, 95
11, 208490, Control_c, 6, 11, 94
11, 208501, Control_c, 6, 11, 93
11, 208512, Control_c, 6, 11, 92
11, 209056, Note_on_c, 6, 73, 0
11, 209056, Note_on_c, 6, 77, 0
11, 211200, Control_c, 6, 11, 92
11, 211200, Note_on_c, 6, 69, 111
11, 211200, Note_on_c, 6, 73, 108
11, 211243, Control_c, 6, 11, 93
11, 211287, Control_c, 6, 11, 94
11, 211331, Control_c, 6, 11, 95
11, 211375, Control_c, 6, 11, 96
11, 211419, Control_c, 6, 11, 97
11, 211463, Control_c, 6, 11, 98
11, 211507, Control_c, 6, 11, 99
11, 211551, Control_c, 6, 11, 100
11, 211594, Control_c, 6, 11, 101
11, 211638, Control_c, 6, 11, 102
11, 211682, Control_c, 6, 11, 103
11, 211726, Control_c, 6, 11, 104
11, 211770, Control_c, 6, 11, 105
11, 211814, Control_c, 6, 11, 106
11, 211858, Control_c, 6, 11, 107
11, 211902, Control_c, 6, 11, 108
11, 211946, Control_c, 6, 11, 109
11, 211989, Control_c, 6, 11, 110
11, 212033, Control_c, 6, 11, 111
11, 212077, Control_c, 6, 11, 112
11, 212121, Control_c, 6, 11, 113
11, 212165, Control_c, 6, 11, 114
11, 212209, Control_c, 6, 11, 115
11, 212253, Control_c, 6, 11, 116
11, 212297, Control_c, 6, 11, 117
11, 212341, Control_c, 6, 11, 118
11, 212352, Note_on_c, 6, 69, 0
11, 212352, Note_on_c, 6, 73, 0
11, 212352, Note_on_c, 6, 71, 110
11, 212352, Note_on_c, 6, 75, 105
11, 212384, Control_c, 6, 11, 119
11, 212428, Control_c, 6, 11, 120
11, 212472, Control_c, 6, 11, 121
11, 212516, Control_c, 6, 11, 122
11, 212560, Control_c, 6, 11, 123
11, 212604, Control_c, 6, 11, 124
11, 212648, Control_c, 6, 11, 125
11, 212688, Note_on_c, 6, 71, 0
11, 212688, Note_on_c, 6, 75, 0
11, 212692, Control_c, 6, 11, 126
11, 212736, Control_c, 6, 11, 127
11, 212736, Note_on_c, 6, 73, 107
11, 212736, Note_on_c, 6, 77, 108
11, 213664, Note_on_c, 6, 73, 0
11, 213664, Note_on_c, 6, 77, 0
11, 218880, Control_c, 6, 11, 92
11, 218880, Note_on_c, 6, 67, 126
11, 218926, Note_on_c, 6, 67, 0
11, 218928, Note_on_c, 6, 69, 123
11, 219648, Control_c, 6, 11, 92
11, 219669, Control_c, 6, 11, 93
11, 219691, Control_c, 6, 11, 94
11, 219713, Control_c, 6, 11, 95
11, 219735, Control_c, 6, 11, 96
11, 219757, Control_c, 6, 11, 97
11, 219779, Control_c, 6, 11, 98
11, 219801, Control_c, 6, 11, 99
11, 219823, Control_c, 6, 11, 100
11, 219845, Control_c, 6, 11, 101
11, 219867, Control_c, 6, 11, 102
11, 219889, Control_c, 6, 11, 103
11, 219911, Control_c, 6, 11, 104
11, 219933, Control_c, 6, 11, 105
11, 219955, Control_c, 6, 11, 106
11, 219977, Control_c, 6, 11, 107
11, 219999, Control_c, 6, 11, 108
11, 220021, Control_c, 6, 11, 109
11, 220032, Note_on_c, 6, 69, 0
11, 220032, Note_on_c, 6, 71, 127
11, 220042, Control_c, 6, 11, 110
11, 220064, Control_c, 6, 11, 111
11, 220086, Control_c, 6, 11, 112
11, 220108, Control_c, 6, 11, 113
11, 220130, Control_c, 6, 11, 114
11, 220152, Control_c, 6, 11, 115
11, 220174, Control_c, 6, 11, 116
11, 220196, Control_c, 6, 11, 117
11, 220218, Control_c, 6, 11, 118
11, 220240, Control_c, 6, 11, 119
11, 220262, Control_c, 6, 11, 120
11, 220284, Control_c, 6, 11, 121
11, 220306, Control_c, 6, 11, 122
11, 220328, Control_c, 6, 11, 123
11, 220350, Control_c, 6, 11, 124
11, 220368, Note_on_c, 6, 71, 0
11, 220372, Control_c, 6, 11, 125
11, 220394, Control_c, 6, 11, 126
11, 220416, Control_c, 6, 11, 127
11, 220416, Control_c, 6, 11, 92
11, 221312, Note_on_c, 6, 65, 127
11, 221312, Note_on_c, 6, 68, 127
11, 221357, Note_on_c, 6, 65, 0
11, 221357, Note_on_c, 6, 68, 0
11, 221376, Note_on_c, 6, 65, 127
11, 221376, Note_on_c, 6, 68, 127
11, 221421, Note_on_c, 6, 65, 0
11, 221421, Note_on_c, 6, 68, 0
11, 221440, Note_on_c, 6, 67, 127
11, 221440, Note_on_c, 6, 70, 127
11, 221485, Note_on_c, 6, 67, 0
11, 221485, Note_on_c, 6, 70, 0
11, 221504, Note_on_c, 6, 67, 125
11, 221504, Note_on_c, 6, 70, 127
11, 221549, Note_on_c, 6, 67, 0
11, 221549, Note_on_c, 6, 70, 0
11, 221568, Note_on_c, 6, 70, 126
11, 221568, Note_on_c, 6, 73, 127
11, 221613, Note_on_c, 6, 70, 0
11, 221613, Note_on_c, 6, 73, 0
11, 221632, Note_on_c, 6, 70, 127
11, 221632, Note_on_c, 6, 73, 123
11, 221677, Note_on_c, 6, 70, 0
11, 221677, Note_on_c, 6, 73, 0
11, 221696, Note_on_c, 6, 73, 123
11, 221696, Note_on_c, 6, 77, 124
11, 221741, Note_on_c, 6, 73, 0
11, 221741, Note_on_c, 6, 77, 0
11, 221760, Note_on_c, 6, 73, 123
11, 221760, Note_on_c, 6, 77, 127
11, 221805, Note_on_c, 6, 73, 0
11, 221805, Note_on_c, 6, 77, 0
11, 221824, Note_on_c, 6, 75, 125
11, 221824, Note_on_c, 6, 79, 127
11, 221869, Note_on_c, 6, 75, 0
11, 221869, Note_on_c, 6, 79, 0
11, 221888, Note_on_c, 6, 75, 127
11, 221888, Note_on_c, 6, 79, 127
11, 221933, Note_on_c, 6, 75, 0
11, 221933, Note_on_c, 6, 79, 0
11, 222848, Note_on_c, 6, 65, 127
11, 222848, Note_on_c, 6, 68, 122
11, 222893, Note_on_c, 6, 65, 0
11, 222893, Note_on_c, 6, 68, 0
11, 222912, Note_on_c, 6, 65, 127
11, 222912, Note_on_c, 6, 68, 127
11, 222957, Note_on_c, 6, 65, 0
11, 222957, Note_on_c, 6, 68, 0
11, 222976, Note_on_c, 6, 67, 127
11, 222976, Note_on_c, 6, 70, 127
11, 223021, Note_on_c, 6, 67, 0
11, 223021, Note_on_c, 6, 70, 0
11, 223040, Note_on_c, 6, 67, 122
11, 223040, Note_on_c, 6, 70, 127
11, 223085, Note_on_c, 6, 67, 0
11, 223085, Note_on_c, 6, 70, 0
11, 223104, Note_on_c, 6, 70, 127
11, 223104, Note_on_c, 6, 73, 127
11, 223149, Note_on_c, 6, 70, 0
11, 223149, Note_on_c, 6, 73, 0
11, 223168, Note_on_c, 6, 70, 127
11, 223168, Note_on_c, 6, 73, 125
11, 223213, Note_on_c, 6, 70, 0
11, 223213, Note_on_c, 6, 73, 0
11, 223232, Note_on_c, 6, 73, 127
11, 223232, Note_on_c, 6, 77, 122
11, 223277, Note_on_c, 6, 73, 0
11, 223277, Note_on_c, 6, 77, 0
11, 223296, Note_on_c, 6, 73, 123
11, 223296, Note_on_c, 6, 77, 126
11, 223341, Note_on_c, 6, 73, 0
11, 223341, Note_on_c, 6, 77, 0
11, 223360, Note_on_c, 6, 75, 127
11, 223360, Note_on_c, 6, 79, 127
11, 223405, Note_on_c, 6, 75, 0
11, 223405, Note_on_c, 6, 79, 0
11, 223424, Note_on_c, 6, 75, 126
11, 223424, Note_on_c, 6, 79, 122
11, 223469, Note_on_c, 6, 75, 0
11, 223469, Note_on_c, 6, 79, 0
11, 223488, Note_on_c, 6, 73, 127
11, 223488, Note_on_c, 6, 77, 125
11, 223488, Note_on_c, 6, 80, 127
11, 225184, Note_on_c, 6, 73, 0
11, 225184, Note_on_c, 6, 77, 0
11, 225184, Note_on_c, 6, 80, 0
11, 225184, End_track
12, 0, Start_track
12, 0, Title_t, "Cornetti I - II in Do"
12, 0, MIDI_port, 0
12, 92928, Program_c, 10, 56
12, 93696, Note_on_c, 10, 78, 127
12, 93742, Note_on_c, 10, 78, 0
12, 93744, Note_on_c, 10, 80, 126
12, 94048, Note_on_c, 10, 80, 0
12, 94080, Note_on_c, 10, 80, 125
12, 94848, Note_on_c, 10, 80, 0
12, 94848, Note_on_c, 10, 82, 127
12, 95184, Note_on_c, 10, 82, 0
12, 99072, Program_c, 10, 56
12, 99840, Note_on_c, 10, 78, 43
12, 99888, Note_on_c, 10, 78, 0
12, 99888, Note_on_c, 10, 80, 46
12, 101376, Control_c, 10, 11, 127
12, 101385, Control_c, 10, 11, 126
12, 101394, Control_c, 10, 11, 125
12, 101403, Control_c, 10, 11, 124
12, 101412, Control_c, 10, 11, 123
12, 101421, Control_c, 10, 11, 122
12, 101430, Control_c, 10, 11, 121
12, 101440, Control_c, 10, 11, 120
12, 101449, Control_c, 10, 11, 119
12, 101458, Control_c, 10, 11, 118
12, 101467, Control_c, 10, 11, 117
12, 101476, Control_c, 10, 11, 116
12, 101485, Control_c, 10, 11, 115
12, 101494, Control_c, 10, 11, 114
12, 101504, Control_c, 10, 11, 113
12, 101513, Control_c, 10, 11, 112
12, 101522, Control_c, 10, 11, 111
12, 101531, Control_c, 10, 11, 110
12, 101540, Control_c, 10, 11, 109
12, 101549, Control_c, 10, 11, 108
12, 101558, Control_c, 10, 11, 107
12, 101568, Control_c, 10, 11, 106
12, 101577, Control_c, 10, 11, 105
12, 101586, Control_c, 10, 11, 104
12, 101595, Control_c, 10, 11, 103
12, 101604, Control_c, 10, 11, 102
12, 101613, Control_c, 10, 11, 101
12, 101622, Control_c, 10, 11, 100
12, 101632, Control_c, 10, 11, 99
12, 101641, Control_c, 10, 11, 98
12, 101650, Control_c, 10, 11, 97
12, 101659, Control_c, 10, 11, 96
12, 101668, Control_c, 10, 11, 95
12, 101677, Control_c, 10, 11, 94
12, 101686, Control_c, 10, 11, 93
12, 101696, Control_c, 10, 11, 92
12, 101705, Control_c, 10, 11, 91
12, 101714, Control_c, 10, 11, 90
12, 101723, Control_c, 10, 11, 89
12, 101732, Control_c, 10, 11, 88
12, 101741, Control_c, 10, 11, 87
12, 101750, Control_c, 10, 11, 86
12, 101760, Note_on_c, 10, 80, 0
12, 101760, Control_c, 10, 11, 85
12, 101760, Note_on_c, 10, 82, 41
12, 101769, Control_c, 10, 11, 84
12, 101778, Control_c, 10, 11, 83
12, 101787, Control_c, 10, 11, 82
12, 101796, Control_c, 10, 11, 81
12, 101805, Control_c, 10, 11, 80
12, 101814, Control_c, 10, 11, 79
12, 101824, Control_c, 10, 11, 78
12, 101833, Control_c, 10, 11, 77
12, 101842, Control_c, 10, 11, 76
12, 101851, Control_c, 10, 11, 75
12, 101860, Control_c, 10, 11, 74
12, 101869, Control_c, 10, 11, 73
12, 101878, Control_c, 10, 11, 72
12, 101888, Control_c, 10, 11, 71
12, 101897, Control_c, 10, 11, 70
12, 101906, Control_c, 10, 11, 69
12, 101915, Control_c, 10, 11, 68
12, 101920, Note_on_c, 10, 82, 0
12, 101924, Control_c, 10, 11, 67
12, 101933, Control_c, 10, 11, 66
12, 101942, Control_c, 10, 11, 65
12, 101952, Control_c, 10, 11, 64
12, 139008, Control_c, 10, 11, 127
12, 164352, Control_c, 10, 11, 127
12, 165120, Program_c, 10, 59
12, 166080, Note_on_c, 10, 73, 96
12, 166122, Note_on_c, 10, 73, 0
12, 166144, Note_on_c, 10, 73, 93
12, 166186, Note_on_c, 10, 73, 0
12, 166208, Note_on_c, 10, 73, 98
12, 166250, Note_on_c, 10, 73, 0
12, 166272, Note_on_c, 10, 73, 97
12, 166314, Note_on_c, 10, 73, 0
12, 166336, Note_on_c, 10, 73, 96
12, 166378, Note_on_c, 10, 73, 0
12, 166400, Note_on_c, 10, 73, 108
12, 166442, Note_on_c, 10, 73, 0
12, 166464, Note_on_c, 10, 73, 111
12, 166506, Note_on_c, 10, 73, 0
12, 166528, Note_on_c, 10, 73, 107
12, 166570, Note_on_c, 10, 73, 0
12, 166592, Note_on_c, 10, 73, 116
12, 166634, Note_on_c, 10, 73, 0
12, 166656, Note_on_c, 10, 73, 116
12, 166688, Note_on_c, 10, 73, 0
12, 166752, Note_on_c, 10, 75, 123
12, 166784, Note_on_c, 10, 75, 0
12, 166848, Note_on_c, 10, 78, 123
12, 167102, Note_on_c, 10, 78, 0
12, 167104, Note_on_c, 10, 76, 126
12, 167146, Note_on_c, 10, 76, 0
12, 167168, Note_on_c, 10, 75, 123
12, 167210, Note_on_c, 10, 75, 0
12, 167232, Note_on_c, 10, 73, 122
12, 167264, Note_on_c, 10, 73, 0
12, 167328, Note_on_c, 10, 71, 127
12, 167360, Note_on_c, 10, 71, 0
12, 167424, Note_on_c, 10, 70, 127
12, 167518, Note_on_c, 10, 70, 0
12, 167520, Note_on_c, 10, 73, 127
12, 167712, Note_on_c, 10, 73, 0
12, 167712, Note_on_c, 10, 75, 127
12, 167744, Note_on_c, 10, 75, 0
12, 167808, Control_c, 10, 11, 127
12, 167808, Note_on_c, 10, 78, 125
12, 167819, Control_c, 10, 11, 126
12, 167831, Control_c, 10, 11, 125
12, 167843, Control_c, 10, 11, 124
12, 167855, Control_c, 10, 11, 123
12, 167867, Control_c, 10, 11, 122
12, 167872, Note_on_c, 10, 78, 0
12, 167872, Note_on_c, 10, 76, 127
12, 167879, Control_c, 10, 11, 121
12, 167891, Control_c, 10, 11, 120
12, 167903, Control_c, 10, 11, 119
12, 167914, Control_c, 10, 11, 118
12, 167926, Control_c, 10, 11, 117
12, 167936, Note_on_c, 10, 76, 0
12, 167936, Note_on_c, 10, 75, 127
12, 167938, Control_c, 10, 11, 116
12, 167950, Control_c, 10, 11, 115
12, 167962, Control_c, 10, 11, 114
12, 167974, Control_c, 10, 11, 113
12, 167986, Control_c, 10, 11, 112
12, 167998, Control_c, 10, 11, 111
12, 168000, Note_on_c, 10, 75, 0
12, 168000, Note_on_c, 10, 73, 125
12, 168009, Control_c, 10, 11, 110
12, 168021, Control_c, 10, 11, 109
12, 168033, Control_c, 10, 11, 108
12, 168045, Control_c, 10, 11, 107
12, 168057, Control_c, 10, 11, 106
12, 168069, Control_c, 10, 11, 105
12, 168081, Control_c, 10, 11, 104
12, 168093, Control_c, 10, 11, 103
12, 168104, Control_c, 10, 11, 102
12, 168116, Control_c, 10, 11, 101
12, 168128, Control_c, 10, 11, 100
12, 168140, Control_c, 10, 11, 99
12, 168152, Control_c, 10, 11, 98
12, 168164, Control_c, 10, 11, 97
12, 168176, Control_c, 10, 11, 96
12, 168188, Control_c, 10, 11, 95
12, 168199, Control_c, 10, 11, 94
12, 168211, Control_c, 10, 11, 93
12, 168223, Control_c, 10, 11, 92
12, 168235, Control_c, 10, 11, 91
12, 168247, Control_c, 10, 11, 90
12, 168259, Control_c, 10, 11, 89
12, 168271, Control_c, 10, 11, 88
12, 168283, Control_c, 10, 11, 87
12, 168294, Control_c, 10, 11, 86
12, 168306, Control_c, 10, 11, 85
12, 168318, Control_c, 10, 11, 84
12, 168330, Control_c, 10, 11, 83
12, 168342, Control_c, 10, 11, 82
12, 168354, Control_c, 10, 11, 81
12, 168366, Control_c, 10, 11, 80
12, 168378, Control_c, 10, 11, 79
12, 168389, Control_c, 10, 11, 78
12, 168401, Control_c, 10, 11, 77
12, 168413, Control_c, 10, 11, 76
12, 168425, Control_c, 10, 11, 75
12, 168437, Control_c, 10, 11, 74
12, 168449, Control_c, 10, 11, 73
12, 168461, Control_c, 10, 11, 72
12, 168473, Control_c, 10, 11, 71
12, 168484, Control_c, 10, 11, 70
12, 168496, Control_c, 10, 11, 69
12, 168508, Control_c, 10, 11, 68
12, 168520, Control_c, 10, 11, 67
12, 168532, Control_c, 10, 11, 66
12, 168544, Control_c, 10, 11, 65
12, 168556, Control_c, 10, 11, 64
12, 168568, Control_c, 10, 11, 63
12, 168579, Control_c, 10, 11, 62
12, 168591, Control_c, 10, 11, 61
12, 168603, Control_c, 10, 11, 60
12, 168615, Control_c, 10, 11, 59
12, 168627, Control_c, 10, 11, 58
12, 168639, Control_c, 10, 11, 57
12, 168651, Control_c, 10, 11, 56
12, 168663, Control_c, 10, 11, 55
12, 168674, Control_c, 10, 11, 54
12, 168686, Control_c, 10, 11, 53
12, 168698, Control_c, 10, 11, 52
12, 168710, Control_c, 10, 11, 51
12, 168722, Control_c, 10, 11, 50
12, 168734, Control_c, 10, 11, 49
12, 168746, Control_c, 10, 11, 48
12, 168758, Control_c, 10, 11, 47
12, 168769, Control_c, 10, 11, 46
12, 168781, Control_c, 10, 11, 45
12, 168793, Control_c, 10, 11, 44
12, 168805, Control_c, 10, 11, 43
12, 168817, Control_c, 10, 11, 42
12, 168829, Control_c, 10, 11, 41
12, 168841, Control_c, 10, 11, 40
12, 168853, Control_c, 10, 11, 39
12, 168864, Control_c, 10, 11, 38
12, 168876, Control_c, 10, 11, 37
12, 168888, Control_c, 10, 11, 36
12, 168900, Control_c, 10, 11, 35
12, 168912, Note_on_c, 10, 73, 0
12, 168912, Control_c, 10, 11, 34
12, 168924, Control_c, 10, 11, 33
12, 168936, Control_c, 10, 11, 32
12, 168948, Control_c, 10, 11, 31
12, 168960, Control_c, 10, 11, 30
12, 179712, Program_c, 10, 56
12, 180480, Note_on_c, 10, 73, 41
12, 180606, Note_on_c, 10, 73, 0
12, 180608, Note_on_c, 10, 73, 42
12, 180650, Note_on_c, 10, 73, 0
12, 180672, Note_on_c, 10, 72, 43
12, 180714, Note_on_c, 10, 72, 0
12, 180736, Note_on_c, 10, 71, 48
12, 180778, Note_on_c, 10, 71, 0
12, 180800, Note_on_c, 10, 70, 40
12, 180842, Note_on_c, 10, 70, 0
12, 181248, Note_on_c, 10, 73, 49
12, 181374, Note_on_c, 10, 73, 0
12, 181376, Note_on_c, 10, 73, 41
12, 181418, Note_on_c, 10, 73, 0
12, 181440, Note_on_c, 10, 72, 46
12, 181482, Note_on_c, 10, 72, 0
12, 181504, Note_on_c, 10, 71, 46
12, 181546, Note_on_c, 10, 71, 0
12, 181568, Note_on_c, 10, 70, 46
12, 181610, Note_on_c, 10, 70, 0
12, 182016, Note_on_c, 10, 73, 43
12, 182142, Note_on_c, 10, 73, 0
12, 182144, Note_on_c, 10, 73, 42
12, 182186, Note_on_c, 10, 73, 0
12, 182208, Note_on_c, 10, 72, 47
12, 182250, Note_on_c, 10, 72, 0
12, 182272, Note_on_c, 10, 71, 48
12, 182314, Note_on_c, 10, 71, 0
12, 182336, Note_on_c, 10, 70, 49
12, 182378, Note_on_c, 10, 70, 0
12, 192768, Program_c, 10, 56
12, 193536, Note_on_c, 10, 68, 42
12, 193536, Note_on_c, 10, 72, 44
12, 193870, Note_on_c, 10, 68, 0
12, 193870, Note_on_c, 10, 72, 0
12, 193872, Note_on_c, 10, 67, 49
12, 193872, Note_on_c, 10, 71, 47
12, 193918, Note_on_c, 10, 67, 0
12, 193918, Note_on_c, 10, 71, 0
12, 193920, Note_on_c, 10, 66, 44
12, 193920, Note_on_c, 10, 70, 48
12, 194254, Note_on_c, 10, 66, 0
12, 194254, Note_on_c, 10, 70, 0
12, 194256, Note_on_c, 10, 65, 48
12, 194256, Note_on_c, 10, 69, 47
12, 194302, Note_on_c, 10, 65, 0
12, 194302, Note_on_c, 10, 69, 0
12, 194304, Note_on_c, 10, 64, 45
12, 194304, Note_on_c, 10, 68, 47
12, 194464, Note_on_c, 10, 64, 0
12, 194464, Note_on_c, 10, 68, 0
12, 194496, Note_on_c, 10, 68, 46
12, 194496, Note_on_c, 10, 72, 50
12, 194656, Note_on_c, 10, 68, 0
12, 194656, Note_on_c, 10, 72, 0
12, 194688, Note_on_c, 10, 72, 48
12, 194688, Note_on_c, 10, 76, 49
12, 195792, Note_on_c, 10, 72, 0
12, 195792, Note_on_c, 10, 76, 0
12, 209664, Control_c, 10, 11, 127
12, 210432, Program_c, 10, 56
12, 210624, Note_on_c, 10, 73, 93
12, 210692, Note_on_c, 10, 73, 0
12, 210720, Note_on_c, 10, 75, 96
12, 210788, Note_on_c, 10, 75, 0
12, 210816, Note_on_c, 10, 78, 88
12, 211072, Note_on_c, 10, 78, 0
12, 211072, Note_on_c, 10, 77, 95
12, 211117, Note_on_c, 10, 77, 0
12, 211136, Note_on_c, 10, 75, 97
12, 211181, Note_on_c, 10, 75, 0
12, 211200, Note_on_c, 10, 73, 97
12, 211360, Note_on_c, 10, 73, 0
12, 214272, Note_on_c, 10, 65, 46
12, 214340, Note_on_c, 10, 65, 0
12, 214368, Note_on_c, 10, 67, 42
12, 214436, Note_on_c, 10, 67, 0
12, 214464, Note_on_c, 10, 70, 47
12, 214526, Note_on_c, 10, 70, 0
12, 214528, Note_on_c, 10, 68, 50
12, 214590, Note_on_c, 10, 68, 0
12, 214592, Note_on_c, 10, 67, 49
12, 214654, Note_on_c, 10, 67, 0
12, 214656, Note_on_c, 10, 65, 47
12, 215108, Note_on_c, 10, 65, 0
12, 215136, Note_on_c, 10, 67, 48
12, 215204, Note_on_c, 10, 67, 0
12, 215232, Note_on_c, 10, 70, 48
12, 215294, Note_on_c, 10, 70, 0
12, 215296, Note_on_c, 10, 68, 48
12, 215358, Note_on_c, 10, 68, 0
12, 215360, Note_on_c, 10, 67, 45
12, 215422, Note_on_c, 10, 67, 0
12, 215424, Note_on_c, 10, 65, 53
12, 215760, Note_on_c, 10, 65, 0
12, 215808, Note_on_c, 10, 65, 58
12, 215876, Note_on_c, 10, 65, 0
12, 215904, Note_on_c, 10, 67, 54
12, 215972, Note_on_c, 10, 67, 0
12, 216000, Note_on_c, 10, 70, 53
12, 216062, Note_on_c, 10, 70, 0
12, 216064, Note_on_c, 10, 68, 60
12, 216126, Note_on_c, 10, 68, 0
12, 216128, Note_on_c, 10, 67, 56
12, 216190, Note_on_c, 10, 67, 0
12, 216192, Note_on_c, 10, 65, 57
12, 216260, Note_on_c, 10, 65, 0
12, 216288, Note_on_c, 10, 67, 59
12, 216356, Note_on_c, 10, 67, 0
12, 216384, Note_on_c, 10, 70, 58
12, 216446, Note_on_c, 10, 70, 0
12, 216448, Note_on_c, 10, 68, 60
12, 216510, Note_on_c, 10, 68, 0
12, 216512, Note_on_c, 10, 67, 55
12, 216574, Note_on_c, 10, 67, 0
12, 216576, Note_on_c, 10, 65, 62
12, 216644, Note_on_c, 10, 65, 0
12, 216672, Note_on_c, 10, 67, 63
12, 216740, Note_on_c, 10, 67, 0
12, 216768, Note_on_c, 10, 70, 64
12, 216830, Note_on_c, 10, 70, 0
12, 216832, Note_on_c, 10, 68, 65
12, 216894, Note_on_c, 10, 68, 0
12, 216896, Note_on_c, 10, 67, 55
12, 216958, Note_on_c, 10, 67, 0
12, 216960, Note_on_c, 10, 65, 57
12, 217028, Note_on_c, 10, 65, 0
12, 217056, Note_on_c, 10, 67, 61
12, 217124, Note_on_c, 10, 67, 0
12, 217152, Note_on_c, 10, 70, 59
12, 217214, Note_on_c, 10, 70, 0
12, 217216, Note_on_c, 10, 68, 67
12, 217278, Note_on_c, 10, 68, 0
12, 217280, Note_on_c, 10, 67, 62
12, 217342, Note_on_c, 10, 67, 0
12, 217344, Note_on_c, 10, 65, 62
12, 217438, Note_on_c, 10, 65, 0
12, 220800, Note_on_c, 10, 75, 107
12, 220846, Note_on_c, 10, 75, 0
12, 220848, Note_on_c, 10, 73, 108
12, 221568, Note_on_c, 10, 73, 0
12, 221568, Note_on_c, 10, 75, 108
12, 221904, Note_on_c, 10, 75, 0
12, 222336, Note_on_c, 10, 75, 103
12, 222382, Note_on_c, 10, 75, 0
12, 222384, Note_on_c, 10, 73, 111
12, 223104, Note_on_c, 10, 73, 0
12, 223104, Note_on_c, 10, 75, 104
12, 223440, Note_on_c, 10, 75, 0
12, 223488, Note_on_c, 10, 73, 111
12, 223488, Note_on_c, 10, 77, 109
12, 223648, Note_on_c, 10, 73, 0
12, 223648, Note_on_c, 10, 77, 0
12, 223648, End_track
13, 0, Start_track
13, 0, Title_t, "Tromboni I - II"
13, 0, MIDI_port, 0
13, 26880, Control_c, 7, 11, 92
13, 27648, Program_c, 7, 57
13, 28032, Note_on_c, 7, 43, 41
13, 28032, Note_on_c, 7, 48, 46
13, 28032, Note_on_c, 7, 55, 43
13, 28416, Control_c, 7, 11, 92
13, 28426, Control_c, 7, 11, 93
13, 28437, Control_c, 7, 11, 94
13, 28448, Control_c, 7, 11, 95
13, 28459, Control_c, 7, 11, 96
13, 28470, Control_c, 7, 11, 97
13, 28481, Control_c, 7, 11, 98
13, 28492, Control_c, 7, 11, 99
13, 28503, Control_c, 7, 11, 100
13, 28514, Control_c, 7, 11, 101
13, 28525, Control_c, 7, 11, 102
13, 28536, Control_c, 7, 11, 103
13, 28547, Control_c, 7, 11, 104
13, 28558, Control_c, 7, 11, 105
13, 28569, Control_c, 7, 11, 106
13, 28580, Control_c, 7, 11, 107
13, 28591, Control_c, 7, 11, 108
13, 28602, Control_c, 7, 11, 109
13, 28613, Control_c, 7, 11, 110
13, 28624, Control_c, 7, 11, 111
13, 28635, Control_c, 7, 11, 112
13, 28646, Control_c, 7, 11, 113
13, 28657, Control_c, 7, 11, 114
13, 28668, Control_c, 7, 11, 115
13, 28679, Control_c, 7, 11, 116
13, 28690, Control_c, 7, 11, 117
13, 28701, Control_c, 7, 11, 118
13, 28712, Control_c, 7, 11, 119
13, 28723, Control_c, 7, 11, 120
13, 28734, Control_c, 7, 11, 121
13, 28745, Control_c, 7, 11, 122
13, 28752, Note_on_c, 7, 43, 0
13, 28752, Note_on_c, 7, 48, 0
13, 28752, Note_on_c, 7, 55, 0
13, 28756, Control_c, 7, 11, 123
13, 28767, Control_c, 7, 11, 124
13, 28778, Control_c, 7, 11, 125
13, 28789, Control_c, 7, 11, 126
13, 28800, Control_c, 7, 11, 127
13, 28800, Note_on_c, 7, 43, 42
13, 28800, Note_on_c, 7, 48, 40
13, 28800, Note_on_c, 7, 55, 45
13, 28818, Control_c, 7, 11, 126
13, 28836, Control_c, 7, 11, 125
13, 28854, Control_c, 7, 11, 124
13, 28873, Control_c, 7, 11, 123
13, 28891, Control_c, 7, 11, 122
13, 28909, Control_c, 7, 11, 121
13, 28928, Control_c, 7, 11, 120
13, 28946, Control_c, 7, 11, 119
13, 28964, Control_c, 7, 11, 118
13, 28982, Control_c, 7, 11, 117
13, 29001, Control_c, 7, 11, 116
13, 29019, Control_c, 7, 11, 115
13, 29037, Control_c, 7, 11, 114
13, 29056, Control_c, 7, 11, 113
13, 29074, Control_c, 7, 11, 112
13, 29092, Control_c, 7, 11, 111
13, 29110, Control_c, 7, 11, 110
13, 29129, Control_c, 7, 11, 109
13, 29147, Control_c, 7, 11, 108
13, 29165, Control_c, 7, 11, 107
13, 29184, Control_c, 7, 11, 106
13, 29202, Control_c, 7, 11, 105
13, 29220, Control_c, 7, 11, 104
13, 29238, Control_c, 7, 11, 103
13, 29257, Control_c, 7, 11, 102
13, 29275, Control_c, 7, 11, 101
13, 29293, Control_c, 7, 11, 100
13, 29312, Control_c, 7, 11, 99
13, 29330, Control_c, 7, 11, 98
13, 29348, Control_c, 7, 11, 97
13, 29366, Control_c, 7, 11, 96
13, 29385, Control_c, 7, 11, 95
13, 29403, Control_c, 7, 11, 94
13, 29421, Control_c, 7, 11, 93
13, 29440, Control_c, 7, 11, 92
13, 29458, Control_c, 7, 11, 91
13, 29476, Control_c, 7, 11, 90
13, 29494, Control_c, 7, 11, 89
13, 29513, Control_c, 7, 11, 88
13, 29531, Control_c, 7, 11, 87
13, 29549, Control_c, 7, 11, 86
13, 29568, Control_c, 7, 11, 85
13, 29586, Control_c, 7, 11, 84
13, 29604, Control_c, 7, 11, 83
13, 29622, Control_c, 7, 11, 82
13, 29641, Control_c, 7, 11, 81
13, 29659, Control_c, 7, 11, 80
13, 29677, Control_c, 7, 11, 79
13, 29696, Control_c, 7, 11, 78
13, 29714, Control_c, 7, 11, 77
13, 29732, Control_c, 7, 11, 76
13, 29750, Control_c, 7, 11, 75
13, 29769, Control_c, 7, 11, 74
13, 29787, Control_c, 7, 11, 73
13, 29805, Control_c, 7, 11, 72
13, 29824, Control_c, 7, 11, 71
13, 29842, Control_c, 7, 11, 70
13, 29860, Control_c, 7, 11, 69
13, 29878, Control_c, 7, 11, 68
13, 29897, Control_c, 7, 11, 67
13, 29904, Note_on_c, 7, 43, 0
13, 29904, Note_on_c, 7, 48, 0
13, 29904, Note_on_c, 7, 55, 0
13, 29915, Control_c, 7, 11, 66
13, 29933, Control_c, 7, 11, 65
13, 29952, Control_c, 7, 11, 64
13, 88128, Control_c, 7, 11, 75
13, 88128, Note_on_c, 7, 58, 104
13, 88128, Note_on_c, 7, 64, 110
13, 88128, Note_on_c, 7, 68, 110
13, 88146, Control_c, 7, 11, 76
13, 88164, Control_c, 7, 11, 77
13, 88183, Control_c, 7, 11, 78
13, 88201, Control_c, 7, 11, 79
13, 88220, Control_c, 7, 11, 80
13, 88238, Control_c, 7, 11, 81
13, 88257, Control_c, 7, 11, 82
13, 88275, Control_c, 7, 11, 83
13, 88294, Control_c, 7, 11, 84
13, 88312, Control_c, 7, 11, 85
13, 88331, Control_c, 7, 11, 86
13, 88349, Control_c, 7, 11, 87
13, 88367, Control_c, 7, 11, 88
13, 88386, Control_c, 7, 11, 89
13, 88404, Control_c, 7, 11, 90
13, 88423, Control_c, 7, 11, 91
13, 88441, Control_c, 7, 11, 92
13, 88460, Control_c, 7, 11, 93
13, 88478, Control_c, 7, 11, 94
13, 88497, Control_c, 7, 11, 95
13, 88515, Control_c, 7, 11, 96
13, 88534, Control_c, 7, 11, 97
13, 88552, Control_c, 7, 11, 98
13, 88571, Control_c, 7, 11, 99
13, 88589, Control_c, 7, 11, 100
13, 88607, Control_c, 7, 11, 101
13, 88626, Control_c, 7, 11, 102
13, 88644, Control_c, 7, 11, 103
13, 88663, Control_c, 7, 11, 104
13, 88681, Control_c, 7, 11, 105
13, 88700, Control_c, 7, 11, 106
13, 88704, Note_on_c, 7, 68, 0
13, 88704, Note_on_c, 7, 67, 112
13, 88718, Control_c, 7, 11, 107
13, 88737, Control_c, 7, 11, 108
13, 88755, Control_c, 7, 11, 109
13, 88774, Control_c, 7, 11, 110
13, 88792, Control_c, 7, 11, 111
13, 88811, Control_c, 7, 11, 112
13, 88829, Control_c, 7, 11, 113
13, 88847, Control_c, 7, 11, 114
13, 88866, Control_c, 7, 11, 115
13, 88884, Control_c, 7, 11, 116
13, 88903, Control_c, 7, 11, 117
13, 88921, Control_c, 7, 11, 118
13, 88940, Control_c, 7, 11, 119
13, 88958, Control_c, 7, 11, 120
13, 88977, Control_c, 7, 11, 121
13, 88995, Control_c, 7, 11, 122
13, 89014, Control_c, 7, 11, 123
13, 89032, Control_c, 7, 11, 124
13, 89040, Note_on_c, 7, 58, 0
13, 89040, Note_on_c, 7, 64, 0
13, 89040, Note_on_c, 7, 67, 0
13, 89051, Control_c, 7, 11, 125
13, 89069, Control_c, 7, 11, 126
13, 89088, Control_c, 7, 11, 127
13, 91776, Note_on_c, 7, 52, 113
13, 91776, Note_on_c, 7, 56, 103
13, 91776, Note_on_c, 7, 60, 108
13, 92448, Note_on_c, 7, 52, 0
13, 92448, Note_on_c, 7, 56, 0
13, 92448, Note_on_c, 7, 60, 0
13, 92448, Note_on_c, 7, 53, 104
13, 92448, Note_on_c, 7, 57, 112
13, 92448, Note_on_c, 7, 61, 113
13, 92544, Note_on_c, 7, 53, 0
13, 92544, Note_on_c, 7, 57, 0
13, 92544, Note_on_c, 7, 61, 0
13, 92544, Note_on_c, 7, 54, 109
13, 92544, Note_on_c, 7, 59, 111
13, 92544, Note_on_c, 7, 62, 109
13, 93216, Note_on_c, 7, 54, 0
13, 93216, Note_on_c, 7, 59, 0
13, 93216, Note_on_c, 7, 62, 0
13, 93216, Note_on_c, 7, 55, 103
13, 93216, Note_on_c, 7, 59, 112
13, 93216, Note_on_c, 7, 63, 108
13, 93312, Note_on_c, 7, 55, 0
13, 93312, Note_on_c, 7, 59, 0
13, 93312, Note_on_c, 7, 63, 0
13, 93312, Note_on_c, 7, 56, 113
13, 93312, Note_on_c, 7, 60, 105
13, 93312, Note_on_c, 7, 64, 107
13, 93600, Note_on_c, 7, 56, 0
13, 93600, Note_on_c, 7, 60, 0
13, 93600, Note_on_c, 7, 64, 0
13, 93600, Note_on_c, 7, 57, 113
13, 93600, Note_on_c, 7, 61, 108
13, 93600, Note_on_c, 7, 65, 109
13, 93696, Note_on_c, 7, 57, 0
13, 93696, Note_on_c, 7, 61, 0
13, 93696, Note_on_c, 7, 65, 0
13, 93696, Note_on_c, 7, 58, 105
13, 93696, Note_on_c, 7, 62, 109
13, 93696, Note_on_c, 7, 66, 113
13, 95184, Note_on_c, 7, 58, 0
13, 95184, Note_on_c, 7, 62, 0
13, 95184, Note_on_c, 7, 66, 0
13, 98304, Control_c, 7, 11, 127
13, 98304, Note_on_c, 7, 56, 48
13, 98304, Note_on_c, 7, 60, 48
13, 98304, Note_on_c, 7, 64, 49
13, 98343, Control_c, 7, 11, 126
13, 98383, Control_c, 7, 11, 125
13, 98422, Control_c, 7, 11, 124
13, 98462, Control_c, 7, 11, 123
13, 98501, Control_c, 7, 11, 122
13, 98541, Control_c, 7, 11, 121
13, 98581, Control_c, 7, 11, 120
13, 98592, Note_on_c, 7, 56, 0
13, 98592, Note_on_c, 7, 60, 0
13, 98592, Note_on_c, 7, 64, 0
13, 98592, Note_on_c, 7, 55, 49
13, 98592, Note_on_c, 7, 59, 45
13, 98592, Note_on_c, 7, 63, 40
13, 98620, Control_c, 7, 11, 119
13, 98660, Control_c, 7, 11, 118
13, 98688, Note_on_c, 7, 55, 0
13, 98688, Note_on_c, 7, 59, 0
13, 98688, Note_on_c, 7, 63, 0
13, 98688, Note_on_c, 7, 54, 44
13, 98688, Note_on_c, 7, 58, 49
13, 98688, Note_on_c, 7, 62, 42
13, 98699, Control_c, 7, 11, 117
13, 98739, Control_c, 7, 11, 116
13, 98779, Control_c, 7, 11, 115
13, 98818, Control_c, 7, 11, 114
13, 98858, Control_c, 7, 11, 113
13, 98897, Control_c, 7, 11, 112
13, 98937, Control_c, 7, 11, 111
13, 98976, Control_c, 7, 11, 110
13, 99016, Control_c, 7, 11, 109
13, 99056, Control_c, 7, 11, 108
13, 99095, Control_c, 7, 11, 107
13, 99135, Control_c, 7, 11, 106
13, 99174, Control_c, 7, 11, 105
13, 99214, Control_c, 7, 11, 104
13, 99254, Control_c, 7, 11, 103
13, 99293, Control_c, 7, 11, 102
13, 99333, Control_c, 7, 11, 101
13, 99360, Note_on_c, 7, 54, 0
13, 99360, Note_on_c, 7, 58, 0
13, 99360, Note_on_c, 7, 62, 0
13, 99360, Note_on_c, 7, 53, 50
13, 99360, Note_on_c, 7, 57, 46
13, 99360, Note_on_c, 7, 61, 45
13, 99372, Control_c, 7, 11, 100
13, 99412, Control_c, 7, 11, 99
13, 99452, Control_c, 7, 11, 98
13, 99456, Note_on_c, 7, 53, 0
13, 99456, Note_on_c, 7, 57, 0
13, 99456, Note_on_c, 7, 61, 0
13, 99456, Note_on_c, 7, 52, 44
13, 99456, Note_on_c, 7, 56, 41
13, 99456, Note_on_c, 7, 60, 49
13, 99491, Control_c, 7, 11, 97
13, 99531, Control_c, 7, 11, 96
13, 99570, Control_c, 7, 11, 95
13, 99610, Control_c, 7, 11, 94
13, 99649, Control_c, 7, 11, 93
13, 99689, Control_c, 7, 11, 92
13, 99729, Control_c, 7, 11, 91
13, 99744, Note_on_c, 7, 52, 0
13, 99744, Note_on_c, 7, 56, 0
13, 99744, Note_on_c, 7, 60, 0
13, 99744, Note_on_c, 7, 51, 48
13, 99744, Note_on_c, 7, 55, 45
13, 99744, Note_on_c, 7, 59, 42
13, 99768, Control_c, 7, 11, 90
13, 99808, Control_c, 7, 11, 89
13, 99840, Note_on_c, 7, 51, 0
13, 99840, Note_on_c, 7, 55, 0
13, 99840, Note_on_c, 7, 59, 0
13, 99840, Note_on_c, 7, 50, 42
13, 99840, Note_on_c, 7, 54, 48
13, 99840, Note_on_c, 7, 58, 48
13, 99847, Control_c, 7, 11, 88
13, 99887, Control_c, 7, 11, 87
13, 99927, Control_c, 7, 11, 86
13, 99966, Control_c, 7, 11, 85
13, 100006, Control_c, 7, 11, 84
13, 100045, Control_c, 7, 11, 83
13, 100085, Control_c, 7, 11, 82
13, 100125, Control_c, 7, 11, 81
13, 100164, Control_c, 7, 11, 80
13, 100176, Note_on_c, 7, 50, 0
13, 100176, Note_on_c, 7, 54, 0
13, 100176, Note_on_c, 7, 58, 0
13, 100204, Control_c, 7, 11, 79
13, 100224, Note_on_c, 7, 46, 47
13, 100224, Note_on_c, 7, 50, 46
13, 100224, Note_on_c, 7, 54, 41
13, 100243, Control_c, 7, 11, 78
13, 100283, Control_c, 7, 11, 77
13, 100322, Control_c, 7, 11, 76
13, 100362, Control_c, 7, 11, 75
13, 100402, Control_c, 7, 11, 74
13, 100441, Control_c, 7, 11, 73
13, 100481, Control_c, 7, 11, 72
13, 100520, Control_c, 7, 11, 71
13, 100560, Control_c, 7, 11, 70
13, 100600, Control_c, 7, 11, 69
13, 100639, Control_c, 7, 11, 68
13, 100679, Control_c, 7, 11, 67
13, 100718, Control_c, 7, 11, 66
13, 100758, Control_c, 7, 11, 65
13, 100798, Control_c, 7, 11, 64
13, 100837, Control_c, 7, 11, 63
13, 100877, Control_c, 7, 11, 62
13, 100916, Control_c, 7, 11, 61
13, 100944, Note_on_c, 7, 46, 0
13, 100944, Note_on_c, 7, 50, 0
13, 100944, Note_on_c, 7, 54, 0
13, 100956, Control_c, 7, 11, 60
13, 100992, Note_on_c, 7, 42, 46
13, 100992, Note_on_c, 7, 46, 41
13, 100992, Note_on_c, 7, 50, 50
13, 100995, Control_c, 7, 11, 59
13, 101035, Control_c, 7, 11, 58
13, 101075, Control_c, 7, 11, 57
13, 101114, Control_c, 7, 11, 56
13, 101154, Control_c, 7, 11, 55
13, 101193, Control_c, 7, 11, 54
13, 101233, Control_c, 7, 11, 53
13, 101273, Control_c, 7, 11, 52
13, 101312, Control_c, 7, 11, 51
13, 101352, Control_c, 7, 11, 50
13, 101391, Control_c, 7, 11, 49
13, 101431, Control_c, 7, 11, 48
13, 101471, Control_c, 7, 11, 47
13, 101510, Control_c, 7, 11, 46
13, 101550, Control_c, 7, 11, 45
13, 101589, Control_c, 7, 11, 44
13, 101629, Control_c, 7, 11, 43
13, 101668, Control_c, 7, 11, 42
13, 101708, Control_c, 7, 11, 41
13, 101748, Control_c, 7, 11, 40
13, 101787, Control_c, 7, 11, 39
13, 101827, Control_c, 7, 11, 38
13, 101866, Control_c, 7, 11, 37
13, 101906, Control_c, 7, 11, 36
13, 101946, Control_c, 7, 11, 35
13, 101985, Control_c, 7, 11, 34
13, 102025, Control_c, 7, 11, 33
13, 102064, Control_c, 7, 11, 32
13, 102096, Note_on_c, 7, 42, 0
13, 102096, Note_on_c, 7, 46, 0
13, 102096, Note_on_c, 7, 50, 0
13, 102104, Control_c, 7, 11, 31
13, 102144, Control_c, 7, 11, 30
13, 102144, Note_on_c, 7, 46, 46
13, 102864, Note_on_c, 7, 46, 0
13, 139008, Control_c, 7, 11, 127
13, 149760, Program_c, 7, 57
13, 150528, Control_c, 7, 11, 127
13, 150528, Note_on_c, 7, 53, 87
13, 150528, Note_on_c, 7, 61, 97
13, 150528, Note_on_c, 7, 65, 96
13, 150534, Control_c, 7, 11, 126
13, 150540, Control_c, 7, 11, 125
13, 150546, Control_c, 7, 11, 124
13, 150552, Control_c, 7, 11, 123
13, 150558, Control_c, 7, 11, 122
13, 150564, Control_c, 7, 11, 121
13, 150570, Control_c, 7, 11, 120
13, 150576, Control_c, 7, 11, 119
13, 150582, Control_c, 7, 11, 118
13, 150588, Control_c, 7, 11, 117
13, 150595, Control_c, 7, 11, 116
13, 150601, Control_c, 7, 11, 115
13, 150607, Control_c, 7, 11, 114
13, 150613, Control_c, 7, 11, 113
13, 150619, Control_c, 7, 11, 112
13, 150625, Control_c, 7, 11, 111
13, 150631, Control_c, 7, 11, 110
13, 150637, Control_c, 7, 11, 109
13, 150643, Control_c, 7, 11, 108
13, 150649, Control_c, 7, 11, 107
13, 150656, Control_c, 7, 11, 106
13, 150662, Control_c, 7, 11, 105
13, 150668, Control_c, 7, 11, 104
13, 150674, Control_c, 7, 11, 103
13, 150680, Control_c, 7, 11, 102
13, 150686, Control_c, 7, 11, 101
13, 150692, Control_c, 7, 11, 100
13, 150698, Control_c, 7, 11, 99
13, 150704, Control_c, 7, 11, 98
13, 150710, Control_c, 7, 11, 97
13, 150716, Control_c, 7, 11, 96
13, 150723, Control_c, 7, 11, 95
13, 150729, Control_c, 7, 11, 94
13, 150735, Control_c, 7, 11, 93
13, 150741, Control_c, 7, 11, 92
13, 150747, Control_c, 7, 11, 91
13, 150753, Control_c, 7, 11, 90
13, 150759, Control_c, 7, 11, 89
13, 150765, Control_c, 7, 11, 88
13, 150771, Control_c, 7, 11, 87
13, 150777, Control_c, 7, 11, 86
13, 150784, Control_c, 7, 11, 85
13, 150790, Control_c, 7, 11, 84
13, 150796, Control_c, 7, 11, 83
13, 150802, Control_c, 7, 11, 82
13, 150808, Control_c, 7, 11, 81
13, 150814, Control_c, 7, 11, 80
13, 150820, Control_c, 7, 11, 79
13, 150826, Control_c, 7, 11, 78
13, 150832, Control_c, 7, 11, 77
13, 150838, Control_c, 7, 11, 76
13, 150844, Control_c, 7, 11, 75
13, 150851, Control_c, 7, 11, 74
13, 150857, Control_c, 7, 11, 73
13, 150863, Control_c, 7, 11, 72
13, 150869, Control_c, 7, 11, 71
13, 150875, Control_c, 7, 11, 70
13, 150881, Control_c, 7, 11, 69
13, 150887, Control_c, 7, 11, 68
13, 150893, Control_c, 7, 11, 67
13, 150899, Control_c, 7, 11, 66
13, 150905, Control_c, 7, 11, 65
13, 150912, Control_c, 7, 11, 64
13, 151456, Note_on_c, 7, 53, 0
13, 151456, Note_on_c, 7, 61, 0
13, 151456, Note_on_c, 7, 65, 0
13, 152064, Control_c, 7, 11, 127
13, 152064, Note_on_c, 7, 53, 87
13, 152064, Note_on_c, 7, 61, 88
13, 152064, Note_on_c, 7, 65, 94
13, 152070, Control_c, 7, 11, 126
13, 152076, Control_c, 7, 11, 125
13, 152082, Control_c, 7, 11, 124
13, 152088, Control_c, 7, 11, 123
13, 152094, Control_c, 7, 11, 122
13, 152100, Control_c, 7, 11, 121
13, 152106, Control_c, 7, 11, 120
13, 152112, Control_c, 7, 11, 119
13, 152118, Control_c, 7, 11, 118
13, 152124, Control_c, 7, 11, 117
13, 152131, Control_c, 7, 11, 116
13, 152137, Control_c, 7, 11, 115
13, 152143, Control_c, 7, 11, 114
13, 152149, Control_c, 7, 11, 113
13, 152155, Control_c, 7, 11, 112
13, 152161, Control_c, 7, 11, 111
13, 152167, Control_c, 7, 11, 110
13, 152173, Control_c, 7, 11, 109
13, 152179, Control_c, 7, 11, 108
13, 152185, Control_c, 7, 11, 107
13, 152192, Control_c, 7, 11, 106
13, 152198, Control_c, 7, 11, 105
13, 152204, Control_c, 7, 11, 104
13, 152210, Control_c, 7, 11, 103
13, 152216, Control_c, 7, 11, 102
13, 152222, Control_c, 7, 11, 101
13, 152228, Control_c, 7, 11, 100
13, 152234, Control_c, 7, 11, 99
13, 152240, Control_c, 7, 11, 98
13, 152246, Control_c, 7, 11, 97
13, 152252, Control_c, 7, 11, 96
13, 152259, Control_c, 7, 11, 95
13, 152265, Control_c, 7, 11, 94
13, 152271, Control_c, 7, 11, 93
13, 152277, Control_c, 7, 11, 92
13, 152283, Control_c, 7, 11, 91
13, 152289, Control_c, 7, 11, 90
13, 152295, Control_c, 7, 11, 89
13, 152301, Control_c, 7, 11, 88
13, 152307, Control_c, 7, 11, 87
13, 152313, Control_c, 7, 11, 86
13, 152320, Control_c, 7, 11, 85
13, 152326, Control_c, 7, 11, 84
13, 152332, Control_c, 7, 11, 83
13, 152338, Control_c, 7, 11, 82
13, 152344, Control_c, 7, 11, 81
13, 152350, Control_c, 7, 11, 80
13, 152356, Control_c, 7, 11, 79
13, 152362, Control_c, 7, 11, 78
13, 152368, Control_c, 7, 11, 77
13, 152374, Control_c, 7, 11, 76
13, 152380, Control_c, 7, 11, 75
13, 152387, Control_c, 7, 11, 74
13, 152393, Control_c, 7, 11, 73
13, 152399, Control_c, 7, 11, 72
13, 152405, Control_c, 7, 11, 71
13, 152411, Control_c, 7, 11, 70
13, 152417, Control_c, 7, 11, 69
13, 152423, Control_c, 7, 11, 68
13, 152429, Control_c, 7, 11, 67
13, 152435, Control_c, 7, 11, 66
13, 152441, Control_c, 7, 11, 65
13, 152448, Control_c, 7, 11, 64
13, 152992, Note_on_c, 7, 53, 0
13, 152992, Note_on_c, 7, 61, 0
13, 152992, Note_on_c, 7, 65, 0
13, 153600, Control_c, 7, 11, 127
13, 155136, Note_on_c, 7, 57, 109
13, 155136, Note_on_c, 7, 60, 108
13, 155520, Note_on_c, 7, 57, 0
13, 155520, Note_on_c, 7, 60, 0
13, 155520, Note_on_c, 7, 58, 104
13, 155520, Note_on_c, 7, 61, 107
13, 155904, Note_on_c, 7, 58, 0
13, 155904, Note_on_c, 7, 61, 0
13, 155904, Note_on_c, 7, 59, 111
13, 155904, Note_on_c, 7, 62, 104
13, 156288, Note_on_c, 7, 59, 0
13, 156288, Note_on_c, 7, 62, 0
13, 156288, Note_on_c, 7, 60, 107
13, 156288, Note_on_c, 7, 63, 104
13, 156624, Note_on_c, 7, 60, 0
13, 156624, Note_on_c, 7, 63, 0
13, 198144, Program_c, 7, 57
13, 198912, Note_on_c, 7, 46, 93
13, 198912, Note_on_c, 7, 53, 90
13, 198912, Note_on_c, 7, 58, 97
13, 199168, Note_on_c, 7, 46, 0
13, 199168, Note_on_c, 7, 53, 0
13, 199168, Note_on_c, 7, 58, 0
13, 199168, Note_on_c, 7, 46, 90
13, 199168, Note_on_c, 7, 53, 88
13, 199168, Note_on_c, 7, 58, 87
13, 199424, Note_on_c, 7, 46, 0
13, 199424, Note_on_c, 7, 53, 0
13, 199424, Note_on_c, 7, 58, 0
13, 199424, Note_on_c, 7, 46, 93
13, 199424, Note_on_c, 7, 53, 89
13, 199424, Note_on_c, 7, 58, 93
13, 199680, Note_on_c, 7, 46, 0
13, 199680, Note_on_c, 7, 53, 0
13, 199680, Note_on_c, 7, 58, 0
13, 199680, Note_on_c, 7, 53, 95
13, 199680, Note_on_c, 7, 58, 94
13, 200064, Note_on_c, 7, 53, 0
13, 200064, Note_on_c, 7, 58, 0
13, 200064, Note_on_c, 7, 51, 97
13, 200064, Note_on_c, 7, 55, 88
13, 201168, Note_on_c, 7, 51, 0
13, 201168, Note_on_c, 7, 55, 0
13, 201216, Control_c, 7, 11, 75
13, 201216, Note_on_c, 7, 46, 126
13, 201216, Note_on_c, 7, 53, 127
13, 201216, Note_on_c, 7, 58, 126
13, 201252, Control_c, 7, 11, 76
13, 201289, Control_c, 7, 11, 77
13, 201326, Control_c, 7, 11, 78
13, 201363, Control_c, 7, 11, 79
13, 201400, Control_c, 7, 11, 80
13, 201437, Control_c, 7, 11, 81
13, 201474, Control_c, 7, 11, 82
13, 201511, Control_c, 7, 11, 83
13, 201548, Control_c, 7, 11, 84
13, 201585, Control_c, 7, 11, 85
13, 201622, Control_c, 7, 11, 86
13, 201659, Control_c, 7, 11, 87
13, 201695, Control_c, 7, 11, 88
13, 201732, Control_c, 7, 11, 89
13, 201769, Control_c, 7, 11, 90
13, 201806, Control_c, 7, 11, 91
13, 201843, Control_c, 7, 11, 92
13, 201880, Control_c, 7, 11, 93
13, 201917, Control_c, 7, 11, 94
13, 201954, Control_c, 7, 11, 95
13, 201984, Note_on_c, 7, 46, 0
13, 201984, Note_on_c, 7, 53, 0
13, 201984, Note_on_c, 7, 58, 0
13, 201984, Note_on_c, 7, 42, 122
13, 201984, Note_on_c, 7, 49, 127
13, 201984, Note_on_c, 7, 58, 126
13, 201991, Control_c, 7, 11, 96
13, 202028, Control_c, 7, 11, 97
13, 202065, Control_c, 7, 11, 98
13, 202102, Control_c, 7, 11, 99
13, 202139, Control_c, 7, 11, 100
13, 202175, Control_c, 7, 11, 101
13, 202212, Control_c, 7, 11, 102
13, 202249, Control_c, 7, 11, 103
13, 202286, Control_c, 7, 11, 104
13, 202323, Control_c, 7, 11, 105
13, 202360, Control_c, 7, 11, 106
13, 202397, Control_c, 7, 11, 107
13, 202434, Control_c, 7, 11, 108
13, 202471, Control_c, 7, 11, 109
13, 202508, Control_c, 7, 11, 110
13, 202545, Control_c, 7, 11, 111
13, 202582, Control_c, 7, 11, 112
13, 202619, Control_c, 7, 11, 113
13, 202655, Control_c, 7, 11, 114
13, 202692, Control_c, 7, 11, 115
13, 202729, Control_c, 7, 11, 116
13, 202766, Control_c, 7, 11, 117
13, 202803, Control_c, 7, 11, 118
13, 202840, Control_c, 7, 11, 119
13, 202877, Control_c, 7, 11, 120
13, 202914, Control_c, 7, 11, 121
13, 202951, Control_c, 7, 11, 122
13, 202988, Control_c, 7, 11, 123
13, 203025, Control_c, 7, 11, 124
13, 203062, Control_c, 7, 11, 125
13, 203099, Control_c, 7, 11, 126
13, 203136, Note_on_c, 7, 42, 0
13, 203136, Note_on_c, 7, 49, 0
13, 203136, Note_on_c, 7, 58, 0
13, 203136, Control_c, 7, 11, 127
13, 203136, Note_on_c, 7, 41, 122
13, 203136, Note_on_c, 7, 48, 126
13, 203136, Note_on_c, 7, 56, 124
13, 203520, Note_on_c, 7, 41, 0
13, 203520, Note_on_c, 7, 48, 0
13, 203520, Note_on_c, 7, 56, 0
13, 203520, Note_on_c, 7, 42, 126
13, 203520, Note_on_c, 7, 49, 122
13, 203520, Note_on_c, 7, 58, 126
13, 204288, Note_on_c, 7, 42, 0
13, 204288, Note_on_c, 7, 49, 0
13, 204288, Note_on_c, 7, 58, 0
13, 204288, Control_c, 7, 11, 127
13, 204288, Note_on_c, 7, 44, 127
13, 204288, Note_on_c, 7, 51, 127
13, 204288, Note_on_c, 7, 56, 126
13, 204302, Control_c, 7, 11, 126
13, 204317, Control_c, 7, 11, 125
13, 204332, Control_c, 7, 11, 124
13, 204347, Control_c, 7, 11, 123
13, 204361, Control_c, 7, 11, 122
13, 204376, Control_c, 7, 11, 121
13, 204391, Control_c, 7, 11, 120
13, 204406, Control_c, 7, 11, 119
13, 204420, Control_c, 7, 11, 118
13, 204435, Control_c, 7, 11, 117
13, 204450, Control_c, 7, 11, 116
13, 204465, Control_c, 7, 11, 115
13, 204480, Control_c, 7, 11, 114
13, 204494, Control_c, 7, 11, 113
13, 204509, Control_c, 7, 11, 112
13, 204524, Control_c, 7, 11, 111
13, 204539, Control_c, 7, 11, 110
13, 204553, Control_c, 7, 11, 109
13, 204568, Control_c, 7, 11, 108
13, 204583, Control_c, 7, 11, 107
13, 204598, Control_c, 7, 11, 106
13, 204612, Control_c, 7, 11, 105
13, 204627, Control_c, 7, 11, 104
13, 204642, Control_c, 7, 11, 103
13, 204657, Control_c, 7, 11, 102
13, 204672, Control_c, 7, 11, 101
13, 204686, Control_c, 7, 11, 100
13, 204701, Control_c, 7, 11, 99
13, 204716, Control_c, 7, 11, 98
13, 204731, Control_c, 7, 11, 97
13, 204745, Control_c, 7, 11, 96
13, 204760, Control_c, 7, 11, 95
13, 204775, Control_c, 7, 11, 94
13, 204790, Control_c, 7, 11, 93
13, 204804, Control_c, 7, 11, 92
13, 204819, Control_c, 7, 11, 91
13, 204834, Control_c, 7, 11, 90
13, 204849, Control_c, 7, 11, 89
13, 204864, Control_c, 7, 11, 88
13, 204878, Control_c, 7, 11, 87
13, 204893, Control_c, 7, 11, 86
13, 204908, Control_c, 7, 11, 85
13, 204923, Control_c, 7, 11, 84
13, 204937, Control_c, 7, 11, 83
13, 204952, Control_c, 7, 11, 82
13, 204967, Control_c, 7, 11, 81
13, 204982, Control_c, 7, 11, 80
13, 204996, Control_c, 7, 11, 79
13, 205008, Note_on_c, 7, 44, 0
13, 205008, Note_on_c, 7, 51, 0
13, 205008, Note_on_c, 7, 56, 0
13, 205011, Control_c, 7, 11, 78
13, 205026, Control_c, 7, 11, 77
13, 205041, Control_c, 7, 11, 76
13, 205056, Control_c, 7, 11, 75
13, 205056, Note_on_c, 7, 46, 123
13, 205056, Note_on_c, 7, 53, 127
13, 205056, Note_on_c, 7, 58, 125
13, 205312, Note_on_c, 7, 46, 0
13, 205312, Note_on_c, 7, 53, 0
13, 205312, Note_on_c, 7, 58, 0
13, 205312, Note_on_c, 7, 46, 127
13, 205312, Note_on_c, 7, 53, 126
13, 205312, Note_on_c, 7, 58, 127
13, 205568, Note_on_c, 7, 46, 0
13, 205568, Note_on_c, 7, 53, 0
13, 205568, Note_on_c, 7, 58, 0
13, 205568, Note_on_c, 7, 46, 127
13, 205568, Note_on_c, 7, 53, 123
13, 205568, Note_on_c, 7, 58, 127
13, 205824, Note_on_c, 7, 46, 0
13, 205824, Note_on_c, 7, 53, 0
13, 205824, Note_on_c, 7, 58, 0
13, 205824, Note_on_c, 7, 53, 127
13, 205824, Note_on_c, 7, 58, 124
13, 206208, Note_on_c, 7, 53, 0
13, 206208, Note_on_c, 7, 58, 0
13, 206208, Note_on_c, 7, 51, 127
13, 206208, Note_on_c, 7, 55, 123
13, 207312, Note_on_c, 7, 51, 0
13, 207312, Note_on_c, 7, 55, 0
13, 207360, Control_c, 7, 11, 75
13, 207360, Note_on_c, 7, 46, 125
13, 207360, Note_on_c, 7, 53, 124
13, 207360, Note_on_c, 7, 58, 127
13, 207374, Control_c, 7, 11, 76
13, 207389, Control_c, 7, 11, 77
13, 207404, Control_c, 7, 11, 78
13, 207419, Control_c, 7, 11, 79
13, 207433, Control_c, 7, 11, 80
13, 207448, Control_c, 7, 11, 81
13, 207463, Control_c, 7, 11, 82
13, 207478, Control_c, 7, 11, 83
13, 207492, Control_c, 7, 11, 84
13, 207507, Control_c, 7, 11, 85
13, 207522, Control_c, 7, 11, 86
13, 207537, Control_c, 7, 11, 87
13, 207552, Control_c, 7, 11, 88
13, 207566, Control_c, 7, 11, 89
13, 207581, Control_c, 7, 11, 90
13, 207596, Control_c, 7, 11, 91
13, 207611, Control_c, 7, 11, 92
13, 207625, Control_c, 7, 11, 93
13, 207640, Control_c, 7, 11, 94
13, 207655, Control_c, 7, 11, 95
13, 207670, Control_c, 7, 11, 96
13, 207684, Control_c, 7, 11, 97
13, 207699, Control_c, 7, 11, 98
13, 207714, Control_c, 7, 11, 99
13, 207729, Control_c, 7, 11, 100
13, 207744, Control_c, 7, 11, 101
13, 207758, Control_c, 7, 11, 102
13, 207773, Control_c, 7, 11, 103
13, 207788, Control_c, 7, 11, 104
13, 207803, Control_c, 7, 11, 105
13, 207817, Control_c, 7, 11, 106
13, 207832, Control_c, 7, 11, 107
13, 207847, Control_c, 7, 11, 108
13, 207862, Control_c, 7, 11, 109
13, 207876, Control_c, 7, 11, 110
13, 207891, Control_c, 7, 11, 111
13, 207906, Control_c, 7, 11, 112
13, 207921, Control_c, 7, 11, 113
13, 207936, Control_c, 7, 11, 114
13, 207950, Control_c, 7, 11, 115
13, 207965, Control_c, 7, 11, 116
13, 207980, Control_c, 7, 11, 117
13, 207995, Control_c, 7, 11, 118
13, 208009, Control_c, 7, 11, 119
13, 208024, Control_c, 7, 11, 120
13, 208039, Control_c, 7, 11, 121
13, 208054, Control_c, 7, 11, 122
13, 208068, Control_c, 7, 11, 123
13, 208083, Control_c, 7, 11, 124
13, 208098, Control_c, 7, 11, 125
13, 208113, Control_c, 7, 11, 126
13, 208128, Note_on_c, 7, 46, 0
13, 208128, Note_on_c, 7, 53, 0
13, 208128, Note_on_c, 7, 58, 0
13, 208128, Control_c, 7, 11, 127
13, 208128, Control_c, 7, 11, 127
13, 208128, Note_on_c, 7, 49, 125
13, 208128, Note_on_c, 7, 56, 124
13, 208128, Note_on_c, 7, 61, 127
13, 208138, Control_c, 7, 11, 126
13, 208149, Control_c, 7, 11, 125
13, 208160, Control_c, 7, 11, 124
13, 208171, Control_c, 7, 11, 123
13, 208182, Control_c, 7, 11, 122
13, 208193, Control_c, 7, 11, 121
13, 208204, Control_c, 7, 11, 120
13, 208215, Control_c, 7, 11, 119
13, 208226, Control_c, 7, 11, 118
13, 208237, Control_c, 7, 11, 117
13, 208248, Control_c, 7, 11, 116
13, 208259, Control_c, 7, 11, 115
13, 208270, Control_c, 7, 11, 114
13, 208281, Control_c, 7, 11, 113
13, 208292, Control_c, 7, 11, 112
13, 208303, Control_c, 7, 11, 111
13, 208314, Control_c, 7, 11, 110
13, 208325, Control_c, 7, 11, 109
13, 208336, Control_c, 7, 11, 108
13, 208347, Control_c, 7, 11, 107
13, 208358, Control_c, 7, 11, 106
13, 208369, Control_c, 7, 11, 105
13, 208380, Control_c, 7, 11, 104
13, 208391, Control_c, 7, 11, 103
13, 208402, Control_c, 7, 11, 102
13, 208413, Control_c, 7, 11, 101
13, 208424, Control_c, 7, 11, 100
13, 208435, Control_c, 7, 11, 99
13, 208446, Control_c, 7, 11, 98
13, 208457, Control_c, 7, 11, 97
13, 208468, Control_c, 7, 11, 96
13, 208479, Control_c, 7, 11, 95
13, 208490, Control_c, 7, 11, 94
13, 208501, Control_c, 7, 11, 93
13, 208512, Control_c, 7, 11, 92
13, 209056, Note_on_c, 7, 49, 0
13, 209056, Note_on_c, 7, 56, 0
13, 209056, Note_on_c, 7, 61, 0
13, 209664, Control_c, 7, 11, 64
13, 209664, Note_on_c, 7, 54, 95
13, 209664, Note_on_c, 7, 57, 87
13, 209670, Control_c, 7, 11, 65
13, 209676, Control_c, 7, 11, 66
13, 209682, Control_c, 7, 11, 67
13, 209688, Control_c, 7, 11, 68
13, 209694, Control_c, 7, 11, 69
13, 209700, Control_c, 7, 11, 70
13, 209706, Control_c, 7, 11, 71
13, 209712, Control_c, 7, 11, 72
13, 209718, Control_c, 7, 11, 73
13, 209724, Control_c, 7, 11, 74
13, 209731, Control_c, 7, 11, 75
13, 209737, Control_c, 7, 11, 76
13, 209743, Control_c, 7, 11, 77
13, 209749, Control_c, 7, 11, 78
13, 209755, Control_c, 7, 11, 79
13, 209761, Control_c, 7, 11, 80
13, 209767, Control_c, 7, 11, 81
13, 209773, Control_c, 7, 11, 82
13, 209779, Control_c, 7, 11, 83
13, 209785, Control_c, 7, 11, 84
13, 209792, Control_c, 7, 11, 85
13, 209798, Control_c, 7, 11, 86
13, 209804, Control_c, 7, 11, 87
13, 209810, Control_c, 7, 11, 88
13, 209816, Control_c, 7, 11, 89
13, 209822, Control_c, 7, 11, 90
13, 209828, Control_c, 7, 11, 91
13, 209834, Control_c, 7, 11, 92
13, 209840, Control_c, 7, 11, 93
13, 209846, Control_c, 7, 11, 94
13, 209852, Control_c, 7, 11, 95
13, 209859, Control_c, 7, 11, 96
13, 209865, Control_c, 7, 11, 97
13, 209871, Control_c, 7, 11, 98
13, 209877, Control_c, 7, 11, 99
13, 209883, Control_c, 7, 11, 100
13, 209889, Control_c, 7, 11, 101
13, 209895, Control_c, 7, 11, 102
13, 209901, Control_c, 7, 11, 103
13, 209907, Control_c, 7, 11, 104
13, 209913, Control_c, 7, 11, 105
13, 209920, Control_c, 7, 11, 106
13, 209926, Control_c, 7, 11, 107
13, 209932, Control_c, 7, 11, 108
13, 209938, Control_c, 7, 11, 109
13, 209944, Control_c, 7, 11, 110
13, 209950, Control_c, 7, 11, 111
13, 209956, Control_c, 7, 11, 112
13, 209962, Control_c, 7, 11, 113
13, 209968, Control_c, 7, 11, 114
13, 209974, Control_c, 7, 11, 115
13, 209980, Control_c, 7, 11, 116
13, 209987, Control_c, 7, 11, 117
13, 209993, Control_c, 7, 11, 118
13, 209999, Control_c, 7, 11, 119
13, 210005, Control_c, 7, 11, 120
13, 210011, Control_c, 7, 11, 121
13, 210017, Control_c, 7, 11, 122
13, 210023, Control_c, 7, 11, 123
13, 210029, Control_c, 7, 11, 124
13, 210035, Control_c, 7, 11, 125
13, 210041, Control_c, 7, 11, 126
13, 210048, Note_on_c, 7, 54, 0
13, 210048, Note_on_c, 7, 57, 0
13, 210048, Control_c, 7, 11, 127
13, 210048, Note_on_c, 7, 51, 94
13, 210048, Note_on_c, 7, 54, 89
13, 210048, Note_on_c, 7, 58, 89
13, 210208, Note_on_c, 7, 51, 0
13, 210208, Note_on_c, 7, 54, 0
13, 210208, Note_on_c, 7, 58, 0
13, 210432, Control_c, 7, 11, 64
13, 210432, Note_on_c, 7, 54, 94
13, 210432, Note_on_c, 7, 57, 88
13, 210438, Control_c, 7, 11, 65
13, 210444, Control_c, 7, 11, 66
13, 210450, Control_c, 7, 11, 67
13, 210456, Control_c, 7, 11, 68
13, 210462, Control_c, 7, 11, 69
13, 210468, Control_c, 7, 11, 70
13, 210474, Control_c, 7, 11, 71
13, 210480, Control_c, 7, 11, 72
13, 210486, Control_c, 7, 11, 73
13, 210492, Control_c, 7, 11, 74
13, 210499, Control_c, 7, 11, 75
13, 210505, Control_c, 7, 11, 76
13, 210511, Control_c, 7, 11, 77
13, 210517, Control_c, 7, 11, 78
13, 210523, Control_c, 7, 11, 79
13, 210529, Control_c, 7, 11, 80
13, 210535, Control_c, 7, 11, 81
13, 210541, Control_c, 7, 11, 82
13, 210547, Control_c, 7, 11, 83
13, 210553, Control_c, 7, 11, 84
13, 210560, Control_c, 7, 11, 85
13, 210566, Control_c, 7, 11, 86
13, 210572, Control_c, 7, 11, 87
13, 210578, Control_c, 7, 11, 88
13, 210584, Control_c, 7, 11, 89
13, 210590, Control_c, 7, 11, 90
13, 210596, Control_c, 7, 11, 91
13, 210602, Control_c, 7, 11, 92
13, 210608, Control_c, 7, 11, 93
13, 210614, Control_c, 7, 11, 94
13, 210620, Control_c, 7, 11, 95
13, 210627, Control_c, 7, 11, 96
13, 210633, Control_c, 7, 11, 97
13, 210639, Control_c, 7, 11, 98
13, 210645, Control_c, 7, 11, 99
13, 210651, Control_c, 7, 11, 100
13, 210657, Control_c, 7, 11, 101
13, 210663, Control_c, 7, 11, 102
13, 210669, Control_c, 7, 11, 103
13, 210675, Control_c, 7, 11, 104
13, 210681, Control_c, 7, 11, 105
13, 210688, Control_c, 7, 11, 106
13, 210694, Control_c, 7, 11, 107
13, 210700, Control_c, 7, 11, 108
13, 210706, Control_c, 7, 11, 109
13, 210712, Control_c, 7, 11, 110
13, 210718, Control_c, 7, 11, 111
13, 210724, Control_c, 7, 11, 112
13, 210730, Control_c, 7, 11, 113
13, 210736, Control_c, 7, 11, 114
13, 210742, Control_c, 7, 11, 115
13, 210748, Control_c, 7, 11, 116
13, 210755, Control_c, 7, 11, 117
13, 210761, Control_c, 7, 11, 118
13, 210767, Control_c, 7, 11, 119
13, 210773, Control_c, 7, 11, 120
13, 210779, Control_c, 7, 11, 121
13, 210785, Control_c, 7, 11, 122
13, 210791, Control_c, 7, 11, 123
13, 210797, Control_c, 7, 11, 124
13, 210803, Control_c, 7, 11, 125
13, 210809, Control_c, 7, 11, 126
13, 210816, Note_on_c, 7, 54, 0
13, 210816, Note_on_c, 7, 57, 0
13, 210816, Control_c, 7, 11, 127
13, 210816, Note_on_c, 7, 51, 91
13, 210816, Note_on_c, 7, 54, 96
13, 210816, Note_on_c, 7, 58, 90
13, 210976, Note_on_c, 7, 51, 0
13, 210976, Note_on_c, 7, 54, 0
13, 210976, Note_on_c, 7, 58, 0
13, 212736, Note_on_c, 7, 49, 108
13, 212736, Note_on_c, 7, 56, 106
13, 212736, Note_on_c, 7, 61, 111
13, 213664, Note_on_c, 7, 49, 0
13, 213664, Note_on_c, 7, 56, 0
13, 213664, Note_on_c, 7, 61, 0
13, 217344, Note_on_c, 7, 53, 97
13, 217344, Note_on_c, 7, 58, 95
13, 217344, Note_on_c, 7, 61, 94
13, 218832, Note_on_c, 7, 53, 0
13, 218832, Note_on_c, 7, 58, 0
13, 218832, Note_on_c, 7, 61, 0
13, 218880, Control_c, 7, 11, 92
13, 218880, Note_on_c, 7, 50, 127
13, 218880, Note_on_c, 7, 59, 127
13, 218880, Note_on_c, 7, 62, 123
13, 219648, Control_c, 7, 11, 92
13, 219669, Control_c, 7, 11, 93
13, 219691, Control_c, 7, 11, 94
13, 219713, Control_c, 7, 11, 95
13, 219735, Control_c, 7, 11, 96
13, 219757, Control_c, 7, 11, 97
13, 219779, Control_c, 7, 11, 98
13, 219801, Control_c, 7, 11, 99
13, 219823, Control_c, 7, 11, 100
13, 219845, Control_c, 7, 11, 101
13, 219867, Control_c, 7, 11, 102
13, 219889, Control_c, 7, 11, 103
13, 219911, Control_c, 7, 11, 104
13, 219933, Control_c, 7, 11, 105
13, 219955, Control_c, 7, 11, 106
13, 219977, Control_c, 7, 11, 107
13, 219999, Control_c, 7, 11, 108
13, 220021, Control_c, 7, 11, 109
13, 220042, Control_c, 7, 11, 110
13, 220064, Control_c, 7, 11, 111
13, 220086, Control_c, 7, 11, 112
13, 220108, Control_c, 7, 11, 113
13, 220130, Control_c, 7, 11, 114
13, 220152, Control_c, 7, 11, 115
13, 220174, Control_c, 7, 11, 116
13, 220196, Control_c, 7, 11, 117
13, 220218, Control_c, 7, 11, 118
13, 220240, Control_c, 7, 11, 119
13, 220262, Control_c, 7, 11, 120
13, 220284, Control_c, 7, 11, 121
13, 220306, Control_c, 7, 11, 122
13, 220328, Control_c, 7, 11, 123
13, 220350, Control_c, 7, 11, 124
13, 220368, Note_on_c, 7, 50, 0
13, 220368, Note_on_c, 7, 59, 0
13, 220368, Note_on_c, 7, 62, 0
13, 220372, Control_c, 7, 11, 125
13, 220394, Control_c, 7, 11, 126
13, 220416, Control_c, 7, 11, 127
13, 220800, Note_on_c, 7, 51, 108
13, 220800, Note_on_c, 7, 63, 111
13, 220846, Note_on_c, 7, 51, 0
13, 220846, Note_on_c, 7, 63, 0
13, 220848, Note_on_c, 7, 49, 106
13, 220848, Note_on_c, 7, 61, 110
13, 221568, Note_on_c, 7, 49, 0
13, 221568, Note_on_c, 7, 61, 0
13, 221568, Note_on_c, 7, 51, 105
13, 221568, Note_on_c, 7, 63, 105
13, 221904, Note_on_c, 7, 51, 0
13, 221904, Note_on_c, 7, 63, 0
13, 222336, Note_on_c, 7, 51, 112
13, 222336, Note_on_c, 7, 63, 110
13, 222382, Note_on_c, 7, 51, 0
13, 222382, Note_on_c, 7, 63, 0
13, 222384, Note_on_c, 7, 49, 105
13, 222384, Note_on_c, 7, 61, 106
13, 223104, Note_on_c, 7, 49, 0
13, 223104, Note_on_c, 7, 61, 0
13, 223104, Note_on_c, 7, 51, 106
13, 223104, Note_on_c, 7, 63, 111
13, 223440, Note_on_c, 7, 51, 0
13, 223440, Note_on_c, 7, 63, 0
13, 223488, Note_on_c, 7, 61, 123
13, 223488, Note_on_c, 7, 65, 127
13, 223488, Note_on_c, 7, 68, 125
13, 225184, Note_on_c, 7, 61, 0
13, 225184, Note_on_c, 7, 65, 0
13, 225184, Note_on_c, 7, 68, 0
13, 225184, End_track
14, 0, Start_track
14, 0, Title_t, "Trombone III e Tuba"
14, 0, MIDI_port, 0
14, 28032, Note_on_c, 7, 30, 41
14, 28752, Note_on_c, 7, 30, 0
14, 28800, Note_on_c, 7, 30, 46
14, 29904, Note_on_c, 7, 30, 0
14, 91776, Note_on_c, 7, 30, 106
14, 93456, Note_on_c, 7, 30, 0
14, 93696, Note_on_c, 7, 30, 105
14, 95184, Note_on_c, 7, 30, 0
14, 99840, Note_on_c, 7, 30, 40
14, 102096, Note_on_c, 7, 30, 0
14, 150528, Note_on_c, 7, 37, 92
14, 151456, Note_on_c, 7, 37, 0
14, 152064, Note_on_c, 7, 37, 88
14, 152992, Note_on_c, 7, 37, 0
14, 153600, Note_on_c, 7, 37, 110
14, 156624, Note_on_c, 7, 37, 0
14, 198912, Note_on_c, 7, 34, 94
14, 199168, Note_on_c, 7, 34, 0
14, 199168, Note_on_c, 7, 34, 96
14, 199424, Note_on_c, 7, 34, 0
14, 199424, Note_on_c, 7, 34, 97
14, 199680, Note_on_c, 7, 34, 0
14, 199680, Note_on_c, 7, 34, 87
14, 200064, Note_on_c, 7, 34, 0
14, 200064, Note_on_c, 7, 39, 92
14, 201168, Note_on_c, 7, 39, 0
14, 201216, Note_on_c, 7, 34, 123
14, 201984, Note_on_c, 7, 34, 0
14, 201984, Note_on_c, 7, 30, 127
14, 203136, Note_on_c, 7, 30, 0
14, 203136, Note_on_c, 7, 29, 127
14, 203520, Note_on_c, 7, 29, 0
14, 203520, Note_on_c, 7, 30, 127
14, 204288, Note_on_c, 7, 30, 0
14, 204288, Note_on_c, 7, 32, 127
14, 205008, Note_on_c, 7, 32, 0
14, 205056, Note_on_c, 7, 34, 127
14, 205312, Note_on_c, 7, 34, 0
14, 205312, Note_on_c, 7, 34, 122
14, 205568, Note_on_c, 7, 34, 0
14, 205568, Note_on_c, 7, 34, 127
14, 205824, Note_on_c, 7, 34, 0
14, 205824, Note_on_c, 7, 34, 127
14, 206208, Note_on_c, 7, 34, 0
14, 206208, Note_on_c, 7, 39, 127
14, 207312, Note_on_c, 7, 39, 0
14, 207360, Note_on_c, 7, 34, 124
14, 208128, Note_on_c, 7, 34, 0
14, 208128, Note_on_c, 7, 37, 126
14, 209056, Note_on_c, 7, 37, 0
14, 212736, Note_on_c, 7, 37, 113
14, 213664, Note_on_c, 7, 37, 0
14, 218880, Note_on_c, 7, 31, 127
14, 220368, Note_on_c, 7, 31, 0
14, 220800, Note_on_c, 7, 51, 109
14, 220846, Note_on_c, 7, 51, 0
14, 220848, Note_on_c, 7, 49, 105
14, 221152, Note_on_c, 7, 49, 0
14, 221184, Note_on_c, 7, 44, 109
14, 221568, Note_on_c, 7, 44, 0
14, 221568, Note_on_c, 7, 37, 113
14, 221904, Note_on_c, 7, 37, 0
14, 222336, Note_on_c, 7, 51, 111
14, 222382, Note_on_c, 7, 51, 0
14, 222384, Note_on_c, 7, 49, 111
14, 222688, Note_on_c, 7, 49, 0
14, 222720, Note_on_c, 7, 44, 112
14, 223104, Note_on_c, 7, 44, 0
14, 223104, Note_on_c, 7, 37, 112
14, 223440, Note_on_c, 7, 37, 0
14, 223440, End_track
15, 0, Start_track
15, 0, Title_t, "Timpani"
15, 0, MIDI_port, 0
15, 1536, Note_on_c, 8, 48, 26
15, 1566, Note_on_c, 8, 48, 0
15, 1568, Note_on_c, 8, 48, 31
15, 1598, Note_on_c, 8, 48, 0
15, 1600, Note_on_c, 8, 48, 28
15, 1630, Note_on_c, 8, 48, 0
15, 1632, Note_on_c, 8, 48, 27
15, 1662, Note_on_c, 8, 48, 0
15, 1664, Note_on_c, 8, 48, 25
15, 1694, Note_on_c, 8, 48, 0
15, 1696, Note_on_c, 8, 48, 30
15, 1726, Note_on_c, 8, 48, 0
15, 1728, Note_on_c, 8, 48, 26
15, 1758, Note_on_c, 8, 48, 0
15, 1760, Note_on_c, 8, 48, 32
15, 1790, Note_on_c, 8, 48, 0
15, 1792, Note_on_c, 8, 48, 32
15, 1822, Note_on_c, 8, 48, 0
15, 1824, Note_on_c, 8, 48, 34
15, 1854, Note_on_c, 8, 48, 0
15, 1856, Note_on_c, 8, 48, 35
15, 1886, Note_on_c, 8, 48, 0
15, 1888, Note_on_c, 8, 48, 25
15, 1918, Note_on_c, 8, 48, 0
15, 1920, Note_on_c, 8, 48, 30
15, 1950, Note_on_c, 8, 48, 0
15, 1952, Note_on_c, 8, 48, 26
15, 1982, Note_on_c, 8, 48, 0
15, 1984, Note_on_c, 8, 48, 34
15, 2014, Note_on_c, 8, 48, 0
15, 2016, Note_on_c, 8, 48, 35
15, 2046, Note_on_c, 8, 48, 0
15, 2048, Note_on_c, 8, 48, 31
15, 2078, Note_on_c, 8, 48, 0
15, 2080, Note_on_c, 8, 48, 33
15, 2110, Note_on_c, 8, 48, 0
15, 2112, Note_on_c, 8, 48, 31
15, 2142, Note_on_c, 8, 48, 0
15, 2144, Note_on_c, 8, 48, 25
15, 2174, Note_on_c, 8, 48, 0
15, 2176, Note_on_c, 8, 48, 34
15, 2206, Note_on_c, 8, 48, 0
15, 2208, Note_on_c, 8, 48, 30
15, 2238, Note_on_c, 8, 48, 0
15, 2240, Note_on_c, 8, 48, 35
15, 2270, Note_on_c, 8, 48, 0
15, 2272, Note_on_c, 8, 48, 27
15, 2302, Note_on_c, 8, 48, 0
15, 2304, Note_on_c, 8, 48, 29
15, 2334, Note_on_c, 8, 48, 0
15, 2336, Note_on_c, 8, 48, 35
15, 2366, Note_on_c, 8, 48, 0
15, 2368, Note_on_c, 8, 48, 30
15, 2398, Note_on_c, 8, 48, 0
15, 2400, Note_on_c, 8, 48, 31
15, 2430, Note_on_c, 8, 48, 0
15, 2432, Note_on_c, 8, 48, 27
15, 2462, Note_on_c, 8, 48, 0
15, 2464, Note_on_c, 8, 48, 31
15, 2494, Note_on_c, 8, 48, 0
15, 2496, Note_on_c, 8, 48, 35
15, 2526, Note_on_c, 8, 48, 0
15, 2528, Note_on_c, 8, 48, 33
15, 2558, Note_on_c, 8, 48, 0
15, 2560, Note_on_c, 8, 48, 33
15, 2590, Note_on_c, 8, 48, 0
15, 2592, Note_on_c, 8, 48, 34
15, 2622, Note_on_c, 8, 48, 0
15, 2624, Note_on_c, 8, 48, 34
15, 2654, Note_on_c, 8, 48, 0
15, 2656, Note_on_c, 8, 48, 30
15, 2686, Note_on_c, 8, 48, 0
15, 2688, Note_on_c, 8, 48, 25
15, 2718, Note_on_c, 8, 48, 0
15, 2720, Note_on_c, 8, 48, 29
15, 2750, Note_on_c, 8, 48, 0
15, 2752, Note_on_c, 8, 48, 34
15, 2782, Note_on_c, 8, 48, 0
15, 2784, Note_on_c, 8, 48, 27
15, 2814, Note_on_c, 8, 48, 0
15, 2816, Note_on_c, 8, 48, 35
15, 2846, Note_on_c, 8, 48, 0
15, 2848, Note_on_c, 8, 48, 31
15, 2878, Note_on_c, 8, 48, 0
15, 2880, Note_on_c, 8, 48, 30
15, 2910, Note_on_c, 8, 48, 0
15, 2912, Note_on_c, 8, 48, 29
15, 2942, Note_on_c, 8, 48, 0
15, 2944, Note_on_c, 8, 48, 26
15, 2974, Note_on_c, 8, 48, 0
15, 2976, Note_on_c, 8, 48, 34
15, 3006, Note_on_c, 8, 48, 0
15, 3008, Note_on_c, 8, 48, 33
15, 3038, Note_on_c, 8, 48, 0
15, 3040, Note_on_c, 8, 48, 30
15, 3070, Note_on_c, 8, 48, 0
15, 3072, Note_on_c, 8, 48, 27
15, 3102, Note_on_c, 8, 48, 0
15, 3104, Note_on_c, 8, 48, 27
15, 3134, Note_on_c, 8, 48, 0
15, 3136, Note_on_c, 8, 48, 33
15, 3166, Note_on_c, 8, 48, 0
15, 3168, Note_on_c, 8, 48, 33
15, 3198, Note_on_c, 8, 48, 0
15, 3200, Note_on_c, 8, 48, 32
15, 3230, Note_on_c, 8, 48, 0
15, 3232, Note_on_c, 8, 48, 31
15, 3262, Note_on_c, 8, 48, 0
15, 3264, Note_on_c, 8, 48, 26
15, 3294, Note_on_c, 8, 48, 0
15, 3296, Note_on_c, 8, 48, 31
15, 3326, Note_on_c, 8, 48, 0
15, 3328, Note_on_c, 8, 48, 26
15, 3358, Note_on_c, 8, 48, 0
15, 3360, Note_on_c, 8, 48, 35
15, 3390, Note_on_c, 8, 48, 0
15, 3392, Note_on_c, 8, 48, 31
15, 3422, Note_on_c, 8, 48, 0
15, 3424, Note_on_c, 8, 48, 25
15, 3454, Note_on_c, 8, 48, 0
15, 3456, Note_on_c, 8, 48, 35
15, 3486, Note_on_c, 8, 48, 0
15, 3488, Note_on_c, 8, 48, 34
15, 3518, Note_on_c, 8, 48, 0
15, 3520, Note_on_c, 8, 48, 25
15, 3550, Note_on_c, 8, 48, 0
15, 3552, Note_on_c, 8, 48, 26
15, 3582, Note_on_c, 8, 48, 0
15, 3584, Note_on_c, 8, 48, 32
15, 3614, Note_on_c, 8, 48, 0
15, 3616, Note_on_c, 8, 48, 31
15, 3646, Note_on_c, 8, 48, 0
15, 3648, Note_on_c, 8, 48, 30
15, 3678, Note_on_c, 8, 48, 0
15, 3680, Note_on_c, 8, 48, 26
15, 3710, Note_on_c, 8, 48, 0
15, 3712, Note_on_c, 8, 48, 29
15, 3742, Note_on_c, 8, 48, 0
15, 3744, Note_on_c, 8, 48, 33
15, 3774, Note_on_c, 8, 48, 0
15, 3776, Note_on_c, 8, 48, 26
15, 3806, Note_on_c, 8, 48, 0
15, 3808, Note_on_c, 8, 48, 29
15, 3838, Note_on_c, 8, 48, 0
15, 3840, Note_on_c, 8, 48, 26
15, 3870, Note_on_c, 8, 48, 0
15, 3872, Note_on_c, 8, 48, 31
15, 3902, Note_on_c, 8, 48, 0
15, 3904, Note_on_c, 8, 48, 28
15, 3934, Note_on_c, 8, 48, 0
15, 3936, Note_on_c, 8, 48, 35
15, 3966, Note_on_c, 8, 48, 0
15, 3968, Note_on_c, 8, 48, 28
15, 3998, Note_on_c, 8, 48, 0
15, 4000, Note_on_c, 8, 48, 26
15, 4030, Note_on_c, 8, 48, 0
15, 4032, Note_on_c, 8, 48, 25
15, 4062, Note_on_c, 8, 48, 0
15, 4064, Note_on_c, 8, 48, 31
15, 4094, Note_on_c, 8, 48, 0
15, 4096, Note_on_c, 8, 48, 27
15, 4126, Note_on_c, 8, 48, 0
15, 4128, Note_on_c, 8, 48, 31
15, 4158, Note_on_c, 8, 48, 0
15, 4160, Note_on_c, 8, 48, 33
15, 4190, Note_on_c, 8, 48, 0
15, 4192, Note_on_c, 8, 48, 32
15, 4222, Note_on_c, 8, 48, 0
15, 4224, Note_on_c, 8, 48, 35
15, 4254, Note_on_c, 8, 48, 0
15, 4256, Note_on_c, 8, 48, 26
15, 4286, Note_on_c, 8, 48, 0
15, 4288, Note_on_c, 8, 48, 29
15, 4318, Note_on_c, 8, 48, 0
15, 4320, Note_on_c, 8, 48, 33
15, 4350, Note_on_c, 8, 48, 0
15, 4352, Note_on_c, 8, 48, 29
15, 4382, Note_on_c, 8, 48, 0
15, 4384, Note_on_c, 8, 48, 25
15, 4414, Note_on_c, 8, 48, 0
15, 4416, Note_on_c, 8, 48, 32
15, 4446, Note_on_c, 8, 48, 0
15, 4448, Note_on_c, 8, 48, 29
15, 4478, Note_on_c, 8, 48, 0
15, 4480, Note_on_c, 8, 48, 25
15, 4510, Note_on_c, 8, 48, 0
15, 4512, Note_on_c, 8, 48, 29
15, 4542, Note_on_c, 8, 48, 0
15, 4544, Note_on_c, 8, 48, 27
15, 4574, Note_on_c, 8, 48, 0
15, 4576, Note_on_c, 8, 48, 29
15, 4606, Note_on_c, 8, 48, 0
15, 4608, Note_on_c, 8, 48, 25
15, 4638, Note_on_c, 8, 48, 0
15, 4640, Note_on_c, 8, 48, 29
15, 4670, Note_on_c, 8, 48, 0
15, 4672, Note_on_c, 8, 48, 31
15, 4702, Note_on_c, 8, 48, 0
15, 4704, Note_on_c, 8, 48, 34
15, 4734, Note_on_c, 8, 48, 0
15, 4736, Note_on_c, 8, 48, 29
15, 4766, Note_on_c, 8, 48, 0
15, 4768, Note_on_c, 8, 48, 26
15, 4798, Note_on_c, 8, 48, 0
15, 4800, Note_on_c, 8, 48, 35
15, 4830, Note_on_c, 8, 48, 0
15, 4832, Note_on_c, 8, 48, 28
15, 4862, Note_on_c, 8, 48, 0
15, 4864, Note_on_c, 8, 48, 31
15, 4894, Note_on_c, 8, 48, 0
15, 4896, Note_on_c, 8, 48, 29
15, 4926, Note_on_c, 8, 48, 0
15, 4928, Note_on_c, 8, 48, 33
15, 4958, Note_on_c, 8, 48, 0
15, 4960, Note_on_c, 8, 48, 34
15, 4990, Note_on_c, 8, 48, 0
15, 4992, Note_on_c, 8, 48, 26
15, 5022, Note_on_c, 8, 48, 0
15, 5024, Note_on_c, 8, 48, 33
15, 5054, Note_on_c, 8, 48, 0
15, 5056, Note_on_c, 8, 48, 31
15, 5086, Note_on_c, 8, 48, 0
15, 5088, Note_on_c, 8, 48, 27
15, 5118, Note_on_c, 8, 48, 0
15, 5120, Note_on_c, 8, 48, 35
15, 5150, Note_on_c, 8, 48, 0
15, 5152, Note_on_c, 8, 48, 26
15, 5182, Note_on_c, 8, 48, 0
15, 5184, Note_on_c, 8, 48, 28
15, 5214, Note_on_c, 8, 48, 0
15, 5216, Note_on_c, 8, 48, 27
15, 5246, Note_on_c, 8, 48, 0
15, 5248, Note_on_c, 8, 48, 32
15, 5278, Note_on_c, 8, 48, 0
15, 5280, Note_on_c, 8, 48, 28
15, 5310, Note_on_c, 8, 48, 0
15, 5312, Note_on_c, 8, 48, 27
15, 5342, Note_on_c, 8, 48, 0
15, 5344, Note_on_c, 8, 48, 35
15, 5374, Note_on_c, 8, 48, 0
15, 5376, Note_on_c, 8, 48, 33
15, 5406, Note_on_c, 8, 48, 0
15, 5408, Note_on_c, 8, 48, 25
15, 5438, Note_on_c, 8, 48, 0
15, 5440, Note_on_c, 8, 48, 32
15, 5470, Note_on_c, 8, 48, 0
15, 5472, Note_on_c, 8, 48, 27
15, 5502, Note_on_c, 8, 48, 0
15, 5504, Note_on_c, 8, 48, 27
15, 5534, Note_on_c, 8, 48, 0
15, 5536, Note_on_c, 8, 48, 32
15, 5566, Note_on_c, 8, 48, 0
15, 5568, Note_on_c, 8, 48, 26
15, 5598, Note_on_c, 8, 48, 0
15, 5600, Note_on_c, 8, 48, 29
15, 5630, Note_on_c, 8, 48, 0
15, 5632, Note_on_c, 8, 48, 34
15, 5662, Note_on_c, 8, 48, 0
15, 5664, Note_on_c, 8, 48, 28
15, 5694, Note_on_c, 8, 48, 0
15, 5696, Note_on_c, 8, 48, 30
15, 5726, Note_on_c, 8, 48, 0
15, 5728, Note_on_c, 8, 48, 28
15, 5758, Note_on_c, 8, 48, 0
15, 5760, Note_on_c, 8, 48, 33
15, 5790, Note_on_c, 8, 48, 0
15, 5792, Note_on_c, 8, 48, 35
15, 5822, Note_on_c, 8, 48, 0
15, 5824, Note_on_c, 8, 48, 33
15, 5854, Note_on_c, 8, 48, 0
15, 5856, Note_on_c, 8, 48, 32
15, 5886, Note_on_c, 8, 48, 0
15, 5888, Note_on_c, 8, 48, 30
15, 5918, Note_on_c, 8, 48, 0
15, 5920, Note_on_c, 8, 48, 32
15, 5950, Note_on_c, 8, 48, 0
15, 5952, Note_on_c, 8, 48, 26
15, 5982, Note_on_c, 8, 48, 0
15, 5984, Note_on_c, 8, 48, 30
15, 6014, Note_on_c, 8, 48, 0
15, 6016, Note_on_c, 8, 48, 33
15, 6046, Note_on_c, 8, 48, 0
15, 6048, Note_on_c, 8, 48, 28
15, 6078, Note_on_c, 8, 48, 0
15, 6080, Note_on_c, 8, 48, 32
15, 6110, Note_on_c, 8, 48, 0
15, 6112, Note_on_c, 8, 48, 27
15, 6142, Note_on_c, 8, 48, 0
15, 6144, Note_on_c, 8, 48, 27
15, 6174, Note_on_c, 8, 48, 0
15, 6176, Note_on_c, 8, 48, 34
15, 6206, Note_on_c, 8, 48, 0
15, 6208, Note_on_c, 8, 48, 32
15, 6238, Note_on_c, 8, 48, 0
15, 6240, Note_on_c, 8, 48, 27
15, 6270, Note_on_c, 8, 48, 0
15, 6272, Note_on_c, 8, 48, 28
15, 6302, Note_on_c, 8, 48, 0
15, 6304, Note_on_c, 8, 48, 28
15, 6334, Note_on_c, 8, 48, 0
15, 6336, Note_on_c, 8, 48, 33
15, 6366, Note_on_c, 8, 48, 0
15, 6368, Note_on_c, 8, 48, 26
15, 6398, Note_on_c, 8, 48, 0
15, 6400, Note_on_c, 8, 48, 32
15, 6430, Note_on_c, 8, 48, 0
15, 6432, Note_on_c, 8, 48, 28
15, 6462, Note_on_c, 8, 48, 0
15, 6464, Note_on_c, 8, 48, 34
15, 6494, Note_on_c, 8, 48, 0
15, 6496, Note_on_c, 8, 48, 25
15, 6526, Note_on_c, 8, 48, 0
15, 6528, Note_on_c, 8, 48, 35
15, 6558, Note_on_c, 8, 48, 0
15, 6560, Note_on_c, 8, 48, 34
15, 6590, Note_on_c, 8, 48, 0
15, 6592, Note_on_c, 8, 48, 29
15, 6622, Note_on_c, 8, 48, 0
15, 6624, Note_on_c, 8, 48, 28
15, 6654, Note_on_c, 8, 48, 0
15, 6656, Note_on_c, 8, 48, 35
15, 6686, Note_on_c, 8, 48, 0
15, 6688, Note_on_c, 8, 48, 32
15, 6718, Note_on_c, 8, 48, 0
15, 6720, Note_on_c, 8, 48, 30
15, 6750, Note_on_c, 8, 48, 0
15, 6752, Note_on_c, 8, 48, 28
15, 6782, Note_on_c, 8, 48, 0
15, 6784, Note_on_c, 8, 48, 30
15, 6814, Note_on_c, 8, 48, 0
15, 6816, Note_on_c, 8, 48, 28
15, 6846, Note_on_c, 8, 48, 0
15, 6848, Note_on_c, 8, 48, 28
15, 6878, Note_on_c, 8, 48, 0
15, 6880, Note_on_c, 8, 48, 29
15, 6910, Note_on_c, 8, 48, 0
15, 6912, Note_on_c, 8, 48, 31
15, 6942, Note_on_c, 8, 48, 0
15, 6944, Note_on_c, 8, 48, 33
15, 6974, Note_on_c, 8, 48, 0
15, 6976, Note_on_c, 8, 48, 34
15, 7006, Note_on_c, 8, 48, 0
15, 7008, Note_on_c, 8, 48, 25
15, 7038, Note_on_c, 8, 48, 0
15, 7040, Note_on_c, 8, 48, 28
15, 7070, Note_on_c, 8, 48, 0
15, 7072, Note_on_c, 8, 48, 29
15, 7102, Note_on_c, 8, 48, 0
15, 7104, Note_on_c, 8, 48, 25
15, 7134, Note_on_c, 8, 48, 0
15, 7136, Note_on_c, 8, 48, 33
15, 7166, Note_on_c, 8, 48, 0
15, 7168, Note_on_c, 8, 48, 30
15, 7198, Note_on_c, 8, 48, 0
15, 7200, Note_on_c, 8, 48, 33
15, 7230, Note_on_c, 8, 48, 0
15, 7232, Note_on_c, 8, 48, 35
15, 7262, Note_on_c, 8, 48, 0
15, 7264, Note_on_c, 8, 48, 36
15, 7294, Note_on_c, 8, 48, 0
15, 7296, Note_on_c, 8, 48, 30
15, 7326, Note_on_c, 8, 48, 0
15, 7328, Note_on_c, 8, 48, 30
15, 7358, Note_on_c, 8, 48, 0
15, 7360, Note_on_c, 8, 48, 32
15, 7390, Note_on_c, 8, 48, 0
15, 7392, Note_on_c, 8, 48, 37
15, 7422, Note_on_c, 8, 48, 0
15, 7424, Note_on_c, 8, 48, 35
15, 7454, Note_on_c, 8, 48, 0
15, 7456, Note_on_c, 8, 48, 36
15, 7486, Note_on_c, 8, 48, 0
15, 7488, Note_on_c, 8, 48, 44
15, 7518, Note_on_c, 8, 48, 0
15, 7520, Note_on_c, 8, 48, 40
15, 7550, Note_on_c, 8, 48, 0
15, 7552, Note_on_c, 8, 48, 42
15, 7582, Note_on_c, 8, 48, 0
15, 7584, Note_on_c, 8, 48, 40
15, 7614, Note_on_c, 8, 48, 0
15, 7616, Note_on_c, 8, 48, 43
15, 7646, Note_on_c, 8, 48, 0
15, 7648, Note_on_c, 8, 48, 49
15, 7678, Note_on_c, 8, 48, 0
15, 7680, Note_on_c, 8, 42, 32
15, 7710, Note_on_c, 8, 42, 0
15, 7712, Note_on_c, 8, 48, 25
15, 7742, Note_on_c, 8, 48, 0
15, 7744, Note_on_c, 8, 42, 33
15, 7774, Note_on_c, 8, 42, 0
15, 7776, Note_on_c, 8, 48, 25
15, 7806, Note_on_c, 8, 48, 0
15, 7808, Note_on_c, 8, 42, 31
15, 7838, Note_on_c, 8, 42, 0
15, 7840, Note_on_c, 8, 48, 31
15, 7870, Note_on_c, 8, 48, 0
15, 7872, Note_on_c, 8, 42, 29
15, 7902, Note_on_c, 8, 42, 0
15, 7904, Note_on_c, 8, 48, 33
15, 7934, Note_on_c, 8, 48, 0
15, 7936, Note_on_c, 8, 42, 28
15, 7966, Note_on_c, 8, 42, 0
15, 7968, Note_on_c, 8, 48, 26
15, 7998, Note_on_c, 8, 48, 0
15, 8000, Note_on_c, 8, 42, 26
15, 8030, Note_on_c, 8, 42, 0
15, 8032, Note_on_c, 8, 48, 29
15, 8062, Note_on_c, 8, 48, 0
15, 8064, Note_on_c, 8, 42, 33
15, 8094, Note_on_c, 8, 42, 0
15, 8096, Note_on_c, 8, 48, 30
15, 8126, Note_on_c, 8, 48, 0
15, 8128, Note_on_c, 8, 42, 31
15, 8158, Note_on_c, 8, 42, 0
15, 8160, Note_on_c, 8, 48, 39
15, 8190, Note_on_c, 8, 48, 0
15, 8192, Note_on_c, 8, 42, 33
15, 8222, Note_on_c, 8, 42, 0
15, 8224, Note_on_c, 8, 48, 42
15, 8254, Note_on_c, 8, 48, 0
15, 8256, Note_on_c, 8, 42, 42
15, 8286, Note_on_c, 8, 42, 0
15, 8288, Note_on_c, 8, 48, 39
15, 8318, Note_on_c, 8, 48, 0
15, 8320, Note_on_c, 8, 42, 38
15, 8350, Note_on_c, 8, 42, 0
15, 8352, Note_on_c, 8, 48, 39
15, 8382, Note_on_c, 8, 48, 0
15, 8384, Note_on_c, 8, 42, 44
15, 8414, Note_on_c, 8, 42, 0
15, 8416, Note_on_c, 8, 48, 46
15, 8446, Note_on_c, 8, 48, 0
15, 8448, Note_on_c, 8, 42, 45
15, 8478, Note_on_c, 8, 42, 0
15, 8480, Note_on_c, 8, 48, 50
15, 8510, Note_on_c, 8, 48, 0
15, 8512, Note_on_c, 8, 42, 43
15, 8542, Note_on_c, 8, 42, 0
15, 8544, Note_on_c, 8, 48, 46
15, 8574, Note_on_c, 8, 48, 0
15, 8576, Note_on_c, 8, 42, 48
15, 8606, Note_on_c, 8, 42, 0
15, 8608, Note_on_c, 8, 48, 50
15, 8638, Note_on_c, 8, 48, 0
15, 8640, Note_on_c, 8, 42, 40
15, 8670, Note_on_c, 8, 42, 0
15, 8672, Note_on_c, 8, 48, 48
15, 8702, Note_on_c, 8, 48, 0
15, 8704, Note_on_c, 8, 42, 42
15, 8734, Note_on_c, 8, 42, 0
15, 8736, Note_on_c, 8, 48, 45
15, 8766, Note_on_c, 8, 48, 0
15, 8768, Note_on_c, 8, 42, 46
15, 8798, Note_on_c, 8, 42, 0
15, 8800, Note_on_c, 8, 48, 42
15, 8830, Note_on_c, 8, 48, 0
15, 8832, Note_on_c, 8, 42, 43
15, 8862, Note_on_c, 8, 42, 0
15, 8864, Note_on_c, 8, 48, 43
15, 8894, Note_on_c, 8, 48, 0
15, 8896, Note_on_c, 8, 42, 40
15, 8926, Note_on_c, 8, 42, 0
15, 8928, Note_on_c, 8, 48, 44
15, 8958, Note_on_c, 8, 48, 0
15, 8960, Note_on_c, 8, 42, 43
15, 8990, Note_on_c, 8, 42, 0
15, 8992, Note_on_c, 8, 48, 38
15, 9022, Note_on_c, 8, 48, 0
15, 9024, Note_on_c, 8, 42, 31
15, 9054, Note_on_c, 8, 42, 0
15, 9056, Note_on_c, 8, 48, 33
15, 9086, Note_on_c, 8, 48, 0
15, 9088, Note_on_c, 8, 42, 39
15, 9118, Note_on_c, 8, 42, 0
15, 9120, Note_on_c, 8, 48, 36
15, 9150, Note_on_c, 8, 48, 0
15, 9152, Note_on_c, 8, 42, 33
15, 9182, Note_on_c, 8, 42, 0
15, 9184, Note_on_c, 8, 48, 34
15, 9214, Note_on_c, 8, 48, 0
15, 9216, Note_on_c, 8, 42, 28
15, 9246, Note_on_c, 8, 42, 0
15, 9248, Note_on_c, 8, 48, 32
15, 9278, Note_on_c, 8, 48, 0
15, 9280, Note_on_c, 8, 42, 29
15, 9310, Note_on_c, 8, 42, 0
15, 9312, Note_on_c, 8, 48, 28
15, 9342, Note_on_c, 8, 48, 0
15, 9344, Note_on_c, 8, 42, 29
15, 9374, Note_on_c, 8, 42, 0
15, 9376, Note_on_c, 8, 48, 32
15, 9406, Note_on_c, 8, 48, 0
15, 9408, Note_on_c, 8, 42, 26
15, 9438, Note_on_c, 8, 42, 0
15, 9440, Note_on_c, 8, 48, 31
15, 9470, Note_on_c, 8, 48, 0
15, 9472, Note_on_c, 8, 42, 33
15, 9502, Note_on_c, 8, 42, 0
15, 9504, Note_on_c, 8, 48, 30
15, 9534, Note_on_c, 8, 48, 0
15, 9536, Note_on_c, 8, 42, 31
15, 9566, Note_on_c, 8, 42, 0
15, 9568, Note_on_c, 8, 48, 36
15, 9598, Note_on_c, 8, 48, 0
15, 9600, Note_on_c, 8, 42, 33
15, 9630, Note_on_c, 8, 42, 0
15, 9632, Note_on_c, 8, 48, 36
15, 9662, Note_on_c, 8, 48, 0
15, 9664, Note_on_c, 8, 42, 35
15, 9694, Note_on_c, 8, 42, 0
15, 9696, Note_on_c, 8, 48, 31
15, 9726, Note_on_c, 8, 48, 0
15, 9728, Note_on_c, 8, 42, 36
15, 9758, Note_on_c, 8, 42, 0
15, 9760, Note_on_c, 8, 48, 36
15, 9790, Note_on_c, 8, 48, 0
15, 9792, Note_on_c, 8, 42, 38
15, 9822, Note_on_c, 8, 42, 0
15, 9824, Note_on_c, 8, 48, 40
15, 9854, Note_on_c, 8, 48, 0
15, 9856, Note_on_c, 8, 42, 45
15, 9886, Note_on_c, 8, 42, 0
15, 9888, Note_on_c, 8, 48, 40
15, 9918, Note_on_c, 8, 48, 0
15, 9920, Note_on_c, 8, 42, 41
15, 9950, Note_on_c, 8, 42, 0
15, 9952, Note_on_c, 8, 48, 47
15, 9982, Note_on_c, 8, 48, 0
15, 9984, Note_on_c, 8, 42, 43
15, 10014, Note_on_c, 8, 42, 0
15, 10016, Note_on_c, 8, 48, 41
15, 10046, Note_on_c, 8, 48, 0
15, 10048, Note_on_c, 8, 42, 49
15, 10078, Note_on_c, 8, 42, 0
15, 10080, Note_on_c, 8, 48, 44
15, 10110, Note_on_c, 8, 48, 0
15, 10112, Note_on_c, 8, 42, 50
15, 10142, Note_on_c, 8, 42, 0
15, 10144, Note_on_c, 8, 48, 44
15, 10174, Note_on_c, 8, 48, 0
15, 10176, Note_on_c, 8, 42, 46
15, 10206, Note_on_c, 8, 42, 0
15, 10208, Note_on_c, 8, 48, 50
15, 10238, Note_on_c, 8, 48, 0
15, 10240, Note_on_c, 8, 42, 46
15, 10270, Note_on_c, 8, 42, 0
15, 10272, Note_on_c, 8, 48, 48
15, 10302, Note_on_c, 8, 48, 0
15, 10304, Note_on_c, 8, 42, 48
15, 10334, Note_on_c, 8, 42, 0
15, 10336, Note_on_c, 8, 48, 46
15, 10366, Note_on_c, 8, 48, 0
15, 10368, Note_on_c, 8, 42, 44
15, 10398, Note_on_c, 8, 42, 0
15, 10400, Note_on_c, 8, 48, 41
15, 10430, Note_on_c, 8, 48, 0
15, 10432, Note_on_c, 8, 42, 45
15, 10462, Note_on_c, 8, 42, 0
15, 10464, Note_on_c, 8, 48, 43
15, 10494, Note_on_c, 8, 48, 0
15, 10496, Note_on_c, 8, 42, 39
15, 10526, Note_on_c, 8, 42, 0
15, 10528, Note_on_c, 8, 48, 40
15, 10558, Note_on_c, 8, 48, 0
15, 10560, Note_on_c, 8, 42, 41
15, 10590, Note_on_c, 8, 42, 0
15, 10592, Note_on_c, 8, 48, 35
15, 10622, Note_on_c, 8, 48, 0
15, 10624, Note_on_c, 8, 42, 37
15, 10654, Note_on_c, 8, 42, 0
15, 10656, Note_on_c, 8, 48, 38
15, 10686, Note_on_c, 8, 48, 0
15, 10688, Note_on_c, 8, 42, 29
15, 10718, Note_on_c, 8, 42, 0
15, 10720, Note_on_c, 8, 48, 36
15, 10750, Note_on_c, 8, 48, 0
15, 10752, Note_on_c, 8, 48, 35
15, 10782, Note_on_c, 8, 48, 0
15, 10784, Note_on_c, 8, 48, 29
15, 10814, Note_on_c, 8, 48, 0
15, 10816, Note_on_c, 8, 48, 25
15, 10846, Note_on_c, 8, 48, 0
15, 10848, Note_on_c, 8, 48, 31
15, 10878, Note_on_c, 8, 48, 0
15, 10880, Note_on_c, 8, 48, 28
15, 10910, Note_on_c, 8, 48, 0
15, 10912, Note_on_c, 8, 48, 35
15, 10942, Note_on_c, 8, 48, 0
15, 10944, Note_on_c, 8, 48, 29
15, 10974, Note_on_c, 8, 48, 0
15, 10976, Note_on_c, 8, 48, 28
15, 11006, Note_on_c, 8, 48, 0
15, 11008, Note_on_c, 8, 48, 27
15, 11038, Note_on_c, 8, 48, 0
15, 11040, Note_on_c, 8, 48, 33
15, 11070, Note_on_c, 8, 48, 0
15, 11072, Note_on_c, 8, 48, 35
15, 11102, Note_on_c, 8, 48, 0
15, 11104, Note_on_c, 8, 48, 34
15, 11134, Note_on_c, 8, 48, 0
15, 11136, Note_on_c, 8, 48, 30
15, 11166, Note_on_c, 8, 48, 0
15, 11168, Note_on_c, 8, 48, 35
15, 11198, Note_on_c, 8, 48, 0
15, 11200, Note_on_c, 8, 48, 35
15, 11230, Note_on_c, 8, 48, 0
15, 11232, Note_on_c, 8, 48, 32
15, 11262, Note_on_c, 8, 48, 0
15, 11264, Note_on_c, 8, 48, 31
15, 11294, Note_on_c, 8, 48, 0
15, 11296, Note_on_c, 8, 48, 30
15, 11326, Note_on_c, 8, 48, 0
15, 11328, Note_on_c, 8, 48, 32
15, 11358, Note_on_c, 8, 48, 0
15, 11360, Note_on_c, 8, 48, 31
15, 11390, Note_on_c, 8, 48, 0
15, 11392, Note_on_c, 8, 48, 30
15, 11422, Note_on_c, 8, 48, 0
15, 11424, Note_on_c, 8, 48, 29
15, 11454, Note_on_c, 8, 48, 0
15, 11456, Note_on_c, 8, 48, 25
15, 11486, Note_on_c, 8, 48, 0
15, 11488, Note_on_c, 8, 48, 26
15, 11518, Note_on_c, 8, 48, 0
15, 11520, Note_on_c, 8, 48, 33
15, 11550, Note_on_c, 8, 48, 0
15, 11552, Note_on_c, 8, 48, 28
15, 11582, Note_on_c, 8, 48, 0
15, 11584, Note_on_c, 8, 48, 35
15, 11614, Note_on_c, 8, 48, 0
15, 11616, Note_on_c, 8, 48, 30
15, 11646, Note_on_c, 8, 48, 0
15, 11648, Note_on_c, 8, 48, 34
15, 11678, Note_on_c, 8, 48, 0
15, 11680, Note_on_c, 8, 48, 31
15, 11710, Note_on_c, 8, 48, 0
15, 11712, Note_on_c, 8, 48, 33
15, 11742, Note_on_c, 8, 48, 0
15, 11744, Note_on_c, 8, 48, 27
15, 11774, Note_on_c, 8, 48, 0
15, 11776, Note_on_c, 8, 48, 26
15, 11806, Note_on_c, 8, 48, 0
15, 11808, Note_on_c, 8, 48, 30
15, 11838, Note_on_c, 8, 48, 0
15, 11840, Note_on_c, 8, 48, 34
15, 11870, Note_on_c, 8, 48, 0
15, 11872, Note_on_c, 8, 48, 26
15, 11902, Note_on_c, 8, 48, 0
15, 11904, Note_on_c, 8, 48, 35
15, 11934, Note_on_c, 8, 48, 0
15, 11936, Note_on_c, 8, 48, 31
15, 11966, Note_on_c, 8, 48, 0
15, 11968, Note_on_c, 8, 48, 28
15, 11998, Note_on_c, 8, 48, 0
15, 12000, Note_on_c, 8, 48, 32
15, 12030, Note_on_c, 8, 48, 0
15, 12032, Note_on_c, 8, 48, 35
15, 12062, Note_on_c, 8, 48, 0
15, 12064, Note_on_c, 8, 48, 33
15, 12094, Note_on_c, 8, 48, 0
15, 12096, Note_on_c, 8, 48, 26
15, 12126, Note_on_c, 8, 48, 0
15, 12128, Note_on_c, 8, 48, 33
15, 12158, Note_on_c, 8, 48, 0
15, 12160, Note_on_c, 8, 48, 35
15, 12190, Note_on_c, 8, 48, 0
15, 12192, Note_on_c, 8, 48, 33
15, 12222, Note_on_c, 8, 48, 0
15, 12224, Note_on_c, 8, 48, 34
15, 12254, Note_on_c, 8, 48, 0
15, 12256, Note_on_c, 8, 48, 31
15, 12286, Note_on_c, 8, 48, 0
15, 12288, Note_on_c, 8, 48, 28
15, 12318, Note_on_c, 8, 48, 0
15, 12320, Note_on_c, 8, 48, 25
15, 12350, Note_on_c, 8, 48, 0
15, 12352, Note_on_c, 8, 48, 27
15, 12382, Note_on_c, 8, 48, 0
15, 12384, Note_on_c, 8, 48, 27
15, 12414, Note_on_c, 8, 48, 0
15, 12416, Note_on_c, 8, 48, 31
15, 12446, Note_on_c, 8, 48, 0
15, 12448, Note_on_c, 8, 48, 27
15, 12478, Note_on_c, 8, 48, 0
15, 12480, Note_on_c, 8, 48, 29
15, 12510, Note_on_c, 8, 48, 0
15, 12512, Note_on_c, 8, 48, 26
15, 12542, Note_on_c, 8, 48, 0
15, 12544, Note_on_c, 8, 48, 26
15, 12574, Note_on_c, 8, 48, 0
15, 12576, Note_on_c, 8, 48, 33
15, 12606, Note_on_c, 8, 48, 0
15, 12608, Note_on_c, 8, 48, 34
15, 12638, Note_on_c, 8, 48, 0
15, 12640, Note_on_c, 8, 48, 26
15, 12670, Note_on_c, 8, 48, 0
15, 12672, Note_on_c, 8, 48, 31
15, 12702, Note_on_c, 8, 48, 0
15, 12704, Note_on_c, 8, 48, 33
15, 12734, Note_on_c, 8, 48, 0
15, 12736, Note_on_c, 8, 48, 30
15, 12766, Note_on_c, 8, 48, 0
15, 12768, Note_on_c, 8, 48, 27
15, 12798, Note_on_c, 8, 48, 0
15, 12800, Note_on_c, 8, 48, 34
15, 12830, Note_on_c, 8, 48, 0
15, 12832, Note_on_c, 8, 48, 27
15, 12862, Note_on_c, 8, 48, 0
15, 12864, Note_on_c, 8, 48, 32
15, 12894, Note_on_c, 8, 48, 0
15, 12896, Note_on_c, 8, 48, 28
15, 12926, Note_on_c, 8, 48, 0
15, 12928, Note_on_c, 8, 48, 33
15, 12958, Note_on_c, 8, 48, 0
15, 12960, Note_on_c, 8, 48, 25
15, 12990, Note_on_c, 8, 48, 0
15, 12992, Note_on_c, 8, 48, 30
15, 13022, Note_on_c, 8, 48, 0
15, 13024, Note_on_c, 8, 48, 25
15, 13054, Note_on_c, 8, 48, 0
15, 13056, Note_on_c, 8, 48, 32
15, 13086, Note_on_c, 8, 48, 0
15, 13088, Note_on_c, 8, 48, 34
15, 13118, Note_on_c, 8, 48, 0
15, 13120, Note_on_c, 8, 48, 33
15, 13150, Note_on_c, 8, 48, 0
15, 13152, Note_on_c, 8, 48, 34
15, 13182, Note_on_c, 8, 48, 0
15, 13184, Note_on_c, 8, 48, 26
15, 13214, Note_on_c, 8, 48, 0
15, 13216, Note_on_c, 8, 48, 34
15, 13246, Note_on_c, 8, 48, 0
15, 13248, Note_on_c, 8, 48, 33
15, 13278, Note_on_c, 8, 48, 0
15, 13280, Note_on_c, 8, 48, 27
15, 13310, Note_on_c, 8, 48, 0
15, 13312, Note_on_c, 8, 48, 33
15, 13342, Note_on_c, 8, 48, 0
15, 13344, Note_on_c, 8, 48, 32
15, 13374, Note_on_c, 8, 48, 0
15, 13376, Note_on_c, 8, 48, 35
15, 13406, Note_on_c, 8, 48, 0
15, 13408, Note_on_c, 8, 48, 30
15, 13438, Note_on_c, 8, 48, 0
15, 13440, Note_on_c, 8, 48, 34
15, 13470, Note_on_c, 8, 48, 0
15, 13472, Note_on_c, 8, 48, 27
15, 13502, Note_on_c, 8, 48, 0
15, 13504, Note_on_c, 8, 48, 26
15, 13534, Note_on_c, 8, 48, 0
15, 13536, Note_on_c, 8, 48, 31
15, 13566, Note_on_c, 8, 48, 0
15, 13568, Note_on_c, 8, 48, 26
15, 13598, Note_on_c, 8, 48, 0
15, 13600, Note_on_c, 8, 48, 30
15, 13630, Note_on_c, 8, 48, 0
15, 13632, Note_on_c, 8, 48, 27
15, 13662, Note_on_c, 8, 48, 0
15, 13664, Note_on_c, 8, 48, 28
15, 13694, Note_on_c, 8, 48, 0
15, 13696, Note_on_c, 8, 48, 28
15, 13726, Note_on_c, 8, 48, 0
15, 13728, Note_on_c, 8, 48, 33
15, 13758, Note_on_c, 8, 48, 0
15, 13760, Note_on_c, 8, 48, 31
15, 13790, Note_on_c, 8, 48, 0
15, 13792, Note_on_c, 8, 48, 33
15, 13822, Note_on_c, 8, 48, 0
15, 13824, Note_on_c, 8, 48, 27
15, 13854, Note_on_c, 8, 48, 0
15, 13856, Note_on_c, 8, 48, 25
15, 13886, Note_on_c, 8, 48, 0
15, 13888, Note_on_c, 8, 48, 25
15, 13918, Note_on_c, 8, 48, 0
15, 13920, Note_on_c, 8, 48, 35
15, 13950, Note_on_c, 8, 48, 0
15, 13952, Note_on_c, 8, 48, 31
15, 13982, Note_on_c, 8, 48, 0
15, 13984, Note_on_c, 8, 48, 33
15, 14014, Note_on_c, 8, 48, 0
15, 14016, Note_on_c, 8, 48, 30
15, 14046, Note_on_c, 8, 48, 0
15, 14048, Note_on_c, 8, 48, 33
15, 14078, Note_on_c, 8, 48, 0
15, 14080, Note_on_c, 8, 48, 25
15, 14110, Note_on_c, 8, 48, 0
15, 14112, Note_on_c, 8, 48, 27
15, 14142, Note_on_c, 8, 48, 0
15, 14144, Note_on_c, 8, 48, 31
15, 14174, Note_on_c, 8, 48, 0
15, 14176, Note_on_c, 8, 48, 30
15, 14206, Note_on_c, 8, 48, 0
15, 14208, Note_on_c, 8, 48, 35
15, 14238, Note_on_c, 8, 48, 0
15, 14240, Note_on_c, 8, 48, 27
15, 14270, Note_on_c, 8, 48, 0
15, 14272, Note_on_c, 8, 48, 35
15, 14302, Note_on_c, 8, 48, 0
15, 14304, Note_on_c, 8, 48, 29
15, 14334, Note_on_c, 8, 48, 0
15, 14336, Note_on_c, 8, 48, 30
15, 14366, Note_on_c, 8, 48, 0
15, 14368, Note_on_c, 8, 48, 35
15, 14398, Note_on_c, 8, 48, 0
15, 14400, Note_on_c, 8, 48, 34
15, 14430, Note_on_c, 8, 48, 0
15, 14432, Note_on_c, 8, 48, 26
15, 14462, Note_on_c, 8, 48, 0
15, 14464, Note_on_c, 8, 48, 26
15, 14494, Note_on_c, 8, 48, 0
15, 14496, Note_on_c, 8, 48, 25
15, 14526, Note_on_c, 8, 48, 0
15, 14528, Note_on_c, 8, 48, 25
15, 14558, Note_on_c, 8, 48, 0
15, 14560, Note_on_c, 8, 48, 27
15, 14590, Note_on_c, 8, 48, 0
15, 14592, Note_on_c, 8, 42, 35
15, 14622, Note_on_c, 8, 42, 0
15, 14624, Note_on_c, 8, 48, 34
15, 14654, Note_on_c, 8, 48, 0
15, 14656, Note_on_c, 8, 42, 25
15, 14686, Note_on_c, 8, 42, 0
15, 14688, Note_on_c, 8, 48, 34
15, 14718, Note_on_c, 8, 48, 0
15, 14720, Note_on_c, 8, 42, 29
15, 14750, Note_on_c, 8, 42, 0
15, 14752, Note_on_c, 8, 48, 31
15, 14782, Note_on_c, 8, 48, 0
15, 14784, Note_on_c, 8, 42, 33
15, 14814, Note_on_c, 8, 42, 0
15, 14816, Note_on_c, 8, 48, 31
15, 14846, Note_on_c, 8, 48, 0
15, 14848, Note_on_c, 8, 42, 28
15, 14878, Note_on_c, 8, 42, 0
15, 14880, Note_on_c, 8, 48, 29
15, 14910, Note_on_c, 8, 48, 0
15, 14912, Note_on_c, 8, 42, 30
15, 14942, Note_on_c, 8, 42, 0
15, 14944, Note_on_c, 8, 48, 28
15, 14974, Note_on_c, 8, 48, 0
15, 14976, Note_on_c, 8, 42, 33
15, 15006, Note_on_c, 8, 42, 0
15, 15008, Note_on_c, 8, 48, 32
15, 15038, Note_on_c, 8, 48, 0
15, 15040, Note_on_c, 8, 42, 32
15, 15070, Note_on_c, 8, 42, 0
15, 15072, Note_on_c, 8, 48, 28
15, 15102, Note_on_c, 8, 48, 0
15, 15104, Note_on_c, 8, 42, 33
15, 15134, Note_on_c, 8, 42, 0
15, 15136, Note_on_c, 8, 48, 26
15, 15166, Note_on_c, 8, 48, 0
15, 15168, Note_on_c, 8, 42, 26
15, 15198, Note_on_c, 8, 42, 0
15, 15200, Note_on_c, 8, 48, 30
15, 15230, Note_on_c, 8, 48, 0
15, 15232, Note_on_c, 8, 42, 28
15, 15262, Note_on_c, 8, 42, 0
15, 15264, Note_on_c, 8, 48, 28
15, 15294, Note_on_c, 8, 48, 0
15, 15296, Note_on_c, 8, 42, 33
15, 15326, Note_on_c, 8, 42, 0
15, 15328, Note_on_c, 8, 48, 33
15, 15358, Note_on_c, 8, 48, 0
15, 15360, Note_on_c, 8, 42, 35
15, 15390, Note_on_c, 8, 42, 0
15, 15392, Note_on_c, 8, 48, 33
15, 15422, Note_on_c, 8, 48, 0
15, 15424, Note_on_c, 8, 42, 30
15, 15454, Note_on_c, 8, 42, 0
15, 15456, Note_on_c, 8, 48, 26
15, 15486, Note_on_c, 8, 48, 0
15, 15488, Note_on_c, 8, 42, 33
15, 15518, Note_on_c, 8, 42, 0
15, 15520, Note_on_c, 8, 48, 30
15, 15550, Note_on_c, 8, 48, 0
15, 15552, Note_on_c, 8, 42, 27
15, 15582, Note_on_c, 8, 42, 0
15, 15584, Note_on_c, 8, 48, 28
15, 15614, Note_on_c, 8, 48, 0
15, 15616, Note_on_c, 8, 42, 29
15, 15646, Note_on_c, 8, 42, 0
15, 15648, Note_on_c, 8, 48, 34
15, 15678, Note_on_c, 8, 48, 0
15, 15680, Note_on_c, 8, 42, 35
15, 15710, Note_on_c, 8, 42, 0
15, 15712, Note_on_c, 8, 48, 36
15, 15742, Note_on_c, 8, 48, 0
15, 15744, Note_on_c, 8, 42, 36
15, 15774, Note_on_c, 8, 42, 0
15, 15776, Note_on_c, 8, 48, 32
15, 15806, Note_on_c, 8, 48, 0
15, 15808, Note_on_c, 8, 42, 40
15, 15838, Note_on_c, 8, 42, 0
15, 15840, Note_on_c, 8, 48, 35
15, 15870, Note_on_c, 8, 48, 0
15, 15872, Note_on_c, 8, 42, 39
15, 15902, Note_on_c, 8, 42, 0
15, 15904, Note_on_c, 8, 48, 35
15, 15934, Note_on_c, 8, 48, 0
15, 15936, Note_on_c, 8, 42, 38
15, 15966, Note_on_c, 8, 42, 0
15, 15968, Note_on_c, 8, 48, 40
15, 15998, Note_on_c, 8, 48, 0
15, 16000, Note_on_c, 8, 42, 39
15, 16030, Note_on_c, 8, 42, 0
15, 16032, Note_on_c, 8, 48, 45
15, 16062, Note_on_c, 8, 48, 0
15, 16064, Note_on_c, 8, 42, 44
15, 16094, Note_on_c, 8, 42, 0
15, 16096, Note_on_c, 8, 48, 39
15, 16126, Note_on_c, 8, 48, 0
15, 16128, Note_on_c, 8, 42, 25
15, 16158, Note_on_c, 8, 42, 0
15, 16160, Note_on_c, 8, 48, 29
15, 16190, Note_on_c, 8, 48, 0
15, 16192, Note_on_c, 8, 42, 35
15, 16222, Note_on_c, 8, 42, 0
15, 16224, Note_on_c, 8, 48, 30
15, 16254, Note_on_c, 8, 48, 0
15, 16256, Note_on_c, 8, 42, 35
15, 16286, Note_on_c, 8, 42, 0
15, 16288, Note_on_c, 8, 48, 39
15, 16318, Note_on_c, 8, 48, 0
15, 16320, Note_on_c, 8, 42, 35
15, 16350, Note_on_c, 8, 42, 0
15, 16352, Note_on_c, 8, 48, 35
15, 16382, Note_on_c, 8, 48, 0
15, 16384, Note_on_c, 8, 42, 32
15, 16414, Note_on_c, 8, 42, 0
15, 16416, Note_on_c, 8, 48, 43
15, 16446, Note_on_c, 8, 48, 0
15, 16448, Note_on_c, 8, 42, 46
15, 16478, Note_on_c, 8, 42, 0
15, 16480, Note_on_c, 8, 48, 41
15, 16510, Note_on_c, 8, 48, 0
15, 16512, Note_on_c, 8, 42, 43
15, 16542, Note_on_c, 8, 42, 0
15, 16544, Note_on_c, 8, 48, 41
15, 16574, Note_on_c, 8, 48, 0
15, 16576, Note_on_c, 8, 42, 44
15, 16606, Note_on_c, 8, 42, 0
15, 16608, Note_on_c, 8, 48, 43
15, 16638, Note_on_c, 8, 48, 0
15, 16640, Note_on_c, 8, 42, 40
15, 16670, Note_on_c, 8, 42, 0
15, 16672, Note_on_c, 8, 48, 39
15, 16702, Note_on_c, 8, 48, 0
15, 16704, Note_on_c, 8, 42, 42
15, 16734, Note_on_c, 8, 42, 0
15, 16736, Note_on_c, 8, 48, 44
15, 16766, Note_on_c, 8, 48, 0
15, 16768, Note_on_c, 8, 42, 33
15, 16798, Note_on_c, 8, 42, 0
15, 16800, Note_on_c, 8, 48, 34
15, 16830, Note_on_c, 8, 48, 0
15, 16832, Note_on_c, 8, 42, 35
15, 16862, Note_on_c, 8, 42, 0
15, 16864, Note_on_c, 8, 48, 29
15, 16894, Note_on_c, 8, 48, 0
15, 16896, Note_on_c, 8, 42, 34
15, 16926, Note_on_c, 8, 42, 0
15, 16928, Note_on_c, 8, 48, 33
15, 16958, Note_on_c, 8, 48, 0
15, 16960, Note_on_c, 8, 42, 31
15, 16990, Note_on_c, 8, 42, 0
15, 16992, Note_on_c, 8, 48, 35
15, 17022, Note_on_c, 8, 48, 0
15, 17024, Note_on_c, 8, 42, 29
15, 17054, Note_on_c, 8, 42, 0
15, 17056, Note_on_c, 8, 48, 30
15, 17086, Note_on_c, 8, 48, 0
15, 17088, Note_on_c, 8, 42, 31
15, 17118, Note_on_c, 8, 42, 0
15, 17120, Note_on_c, 8, 48, 31
15, 17150, Note_on_c, 8, 48, 0
15, 17152, Note_on_c, 8, 42, 34
15, 17182, Note_on_c, 8, 42, 0
15, 17184, Note_on_c, 8, 48, 25
15, 17214, Note_on_c, 8, 48, 0
15, 17216, Note_on_c, 8, 42, 27
15, 17246, Note_on_c, 8, 42, 0
15, 17248, Note_on_c, 8, 48, 26
15, 17278, Note_on_c, 8, 48, 0
15, 17280, Note_on_c, 8, 42, 29
15, 17310, Note_on_c, 8, 42, 0
15, 17312, Note_on_c, 8, 48, 30
15, 17342, Note_on_c, 8, 48, 0
15, 17344, Note_on_c, 8, 42, 29
15, 17374, Note_on_c, 8, 42, 0
15, 17376, Note_on_c, 8, 48, 27
15, 17406, Note_on_c, 8, 48, 0
15, 17408, Note_on_c, 8, 42, 32
15, 17438, Note_on_c, 8, 42, 0
15, 17440, Note_on_c, 8, 48, 29
15, 17470, Note_on_c, 8, 48, 0
15, 17472, Note_on_c, 8, 42, 32
15, 17502, Note_on_c, 8, 42, 0
15, 17504, Note_on_c, 8, 48, 27
15, 17534, Note_on_c, 8, 48, 0
15, 17536, Note_on_c, 8, 42, 29
15, 17566, Note_on_c, 8, 42, 0
15, 17568, Note_on_c, 8, 48, 27
15, 17598, Note_on_c, 8, 48, 0
15, 17600, Note_on_c, 8, 42, 33
15, 17630, Note_on_c, 8, 42, 0
15, 17632, Note_on_c, 8, 48, 26
15, 17662, Note_on_c, 8, 48, 0
15, 28032, Note_on_c, 8, 42, 32
15, 28062, Note_on_c, 8, 42, 0
15, 28064, Note_on_c, 8, 48, 25
15, 28094, Note_on_c, 8, 48, 0
15, 28096, Note_on_c, 8, 42, 25
15, 28126, Note_on_c, 8, 42, 0
15, 28128, Note_on_c, 8, 48, 31
15, 28158, Note_on_c, 8, 48, 0
15, 28160, Note_on_c, 8, 42, 32
15, 28190, Note_on_c, 8, 42, 0
15, 28192, Note_on_c, 8, 48, 32
15, 28222, Note_on_c, 8, 48, 0
15, 28224, Note_on_c, 8, 42, 34
15, 28254, Note_on_c, 8, 42, 0
15, 28256, Note_on_c, 8, 48, 28
15, 28286, Note_on_c, 8, 48, 0
15, 28288, Note_on_c, 8, 42, 33
15, 28318, Note_on_c, 8, 42, 0
15, 28320, Note_on_c, 8, 48, 32
15, 28350, Note_on_c, 8, 48, 0
15, 28352, Note_on_c, 8, 42, 26
15, 28382, Note_on_c, 8, 42, 0
15, 28384, Note_on_c, 8, 48, 33
15, 28414, Note_on_c, 8, 48, 0
15, 28416, Note_on_c, 8, 42, 26
15, 28446, Note_on_c, 8, 42, 0
15, 28448, Note_on_c, 8, 48, 34
15, 28478, Note_on_c, 8, 48, 0
15, 28480, Note_on_c, 8, 42, 39
15, 28510, Note_on_c, 8, 42, 0
15, 28512, Note_on_c, 8, 48, 38
15, 28542, Note_on_c, 8, 48, 0
15, 28544, Note_on_c, 8, 42, 41
15, 28574, Note_on_c, 8, 42, 0
15, 28576, Note_on_c, 8, 48, 41
15, 28606, Note_on_c, 8, 48, 0
15, 28608, Note_on_c, 8, 42, 45
15, 28638, Note_on_c, 8, 42, 0
15, 28640, Note_on_c, 8, 48, 44
15, 28670, Note_on_c, 8, 48, 0
15, 28672, Note_on_c, 8, 42, 48
15, 28702, Note_on_c, 8, 42, 0
15, 28704, Note_on_c, 8, 48, 47
15, 28734, Note_on_c, 8, 48, 0
15, 28736, Note_on_c, 8, 42, 56
15, 28766, Note_on_c, 8, 42, 0
15, 28768, Note_on_c, 8, 48, 53
15, 28798, Note_on_c, 8, 48, 0
15, 28800, Note_on_c, 8, 42, 58
15, 28830, Note_on_c, 8, 42, 0
15, 28832, Note_on_c, 8, 48, 63
15, 28862, Note_on_c, 8, 48, 0
15, 28864, Note_on_c, 8, 42, 59
15, 28894, Note_on_c, 8, 42, 0
15, 28896, Note_on_c, 8, 48, 55
15, 28926, Note_on_c, 8, 48, 0
15, 28928, Note_on_c, 8, 42, 50
15, 28958, Note_on_c, 8, 42, 0
15, 28960, Note_on_c, 8, 48, 46
15, 28990, Note_on_c, 8, 48, 0
15, 28992, Note_on_c, 8, 42, 51
15, 29022, Note_on_c, 8, 42, 0
15, 29024, Note_on_c, 8, 48, 45
15, 29054, Note_on_c, 8, 48, 0
15, 29056, Note_on_c, 8, 42, 47
15, 29086, Note_on_c, 8, 42, 0
15, 29088, Note_on_c, 8, 48, 42
15, 29118, Note_on_c, 8, 48, 0
15, 29120, Note_on_c, 8, 42, 39
15, 29150, Note_on_c, 8, 42, 0
15, 29152, Note_on_c, 8, 48, 36
15, 29182, Note_on_c, 8, 48, 0
15, 29184, Note_on_c, 8, 42, 31
15, 29214, Note_on_c, 8, 42, 0
15, 29216, Note_on_c, 8, 48, 27
15, 29246, Note_on_c, 8, 48, 0
15, 29248, Note_on_c, 8, 42, 35
15, 29278, Note_on_c, 8, 42, 0
15, 29280, Note_on_c, 8, 48, 29
15, 29310, Note_on_c, 8, 48, 0
15, 29312, Note_on_c, 8, 42, 32
15, 29342, Note_on_c, 8, 42, 0
15, 29344, Note_on_c, 8, 48, 34
15, 29374, Note_on_c, 8, 48, 0
15, 29376, Note_on_c, 8, 42, 32
15, 29406, Note_on_c, 8, 42, 0
15, 29408, Note_on_c, 8, 48, 34
15, 29438, Note_on_c, 8, 48, 0
15, 29440, Note_on_c, 8, 42, 28
15, 29470, Note_on_c, 8, 42, 0
15, 29472, Note_on_c, 8, 48, 30
15, 29502, Note_on_c, 8, 48, 0
15, 29504, Note_on_c, 8, 42, 35
15, 29534, Note_on_c, 8, 42, 0
15, 29536, Note_on_c, 8, 48, 26
15, 29566, Note_on_c, 8, 48, 0
15, 29568, Note_on_c, 8, 42, 29
15, 29598, Note_on_c, 8, 42, 0
15, 29600, Note_on_c, 8, 48, 33
15, 29630, Note_on_c, 8, 48, 0
15, 29632, Note_on_c, 8, 42, 33
15, 29662, Note_on_c, 8, 42, 0
15, 29664, Note_on_c, 8, 48, 33
15, 29694, Note_on_c, 8, 48, 0
15, 29696, Note_on_c, 8, 42, 33
15, 29726, Note_on_c, 8, 42, 0
15, 29728, Note_on_c, 8, 48, 25
15, 29758, Note_on_c, 8, 48, 0
15, 29760, Note_on_c, 8, 42, 31
15, 29790, Note_on_c, 8, 42, 0
15, 29792, Note_on_c, 8, 48, 31
15, 29822, Note_on_c, 8, 48, 0
15, 29824, Note_on_c, 8, 42, 26
15, 29854, Note_on_c, 8, 42, 0
15, 29856, Note_on_c, 8, 48, 26
15, 29886, Note_on_c, 8, 48, 0
15, 29888, Note_on_c, 8, 42, 25
15, 29918, Note_on_c, 8, 42, 0
15, 29920, Note_on_c, 8, 48, 32
15, 29950, Note_on_c, 8, 48, 0
15, 29952, Note_on_c, 8, 42, 28
15, 30112, Note_on_c, 8, 42, 0
15, 33792, Note_on_c, 8, 44, 47
15, 33814, Note_on_c, 8, 44, 0
15, 33816, Note_on_c, 8, 44, 45
15, 33886, Note_on_c, 8, 44, 0
15, 34560, Note_on_c, 8, 43, 48
15, 34590, Note_on_c, 8, 43, 0
15, 34592, Note_on_c, 8, 43, 45
15, 34622, Note_on_c, 8, 43, 0
15, 34624, Note_on_c, 8, 43, 50
15, 34654, Note_on_c, 8, 43, 0
15, 34656, Note_on_c, 8, 43, 47
15, 34686, Note_on_c, 8, 43, 0
15, 34688, Note_on_c, 8, 43, 47
15, 34718, Note_on_c, 8, 43, 0
15, 34720, Note_on_c, 8, 43, 58
15, 34750, Note_on_c, 8, 43, 0
15, 34752, Note_on_c, 8, 43, 60
15, 34782, Note_on_c, 8, 43, 0
15, 34784, Note_on_c, 8, 43, 54
15, 34814, Note_on_c, 8, 43, 0
15, 34816, Note_on_c, 8, 43, 54
15, 34846, Note_on_c, 8, 43, 0
15, 34848, Note_on_c, 8, 43, 63
15, 34878, Note_on_c, 8, 43, 0
15, 34880, Note_on_c, 8, 43, 66
15, 34910, Note_on_c, 8, 43, 0
15, 34912, Note_on_c, 8, 43, 66
15, 34942, Note_on_c, 8, 43, 0
15, 34944, Note_on_c, 8, 43, 67
15, 34974, Note_on_c, 8, 43, 0
15, 34976, Note_on_c, 8, 43, 67
15, 35006, Note_on_c, 8, 43, 0
15, 35008, Note_on_c, 8, 43, 69
15, 35038, Note_on_c, 8, 43, 0
15, 35040, Note_on_c, 8, 43, 68
15, 35070, Note_on_c, 8, 43, 0
15, 35072, Note_on_c, 8, 43, 78
15, 35102, Note_on_c, 8, 43, 0
15, 35104, Note_on_c, 8, 43, 79
15, 35134, Note_on_c, 8, 43, 0
15, 35136, Note_on_c, 8, 43, 83
15, 35166, Note_on_c, 8, 43, 0
15, 35168, Note_on_c, 8, 43, 84
15, 35198, Note_on_c, 8, 43, 0
15, 35200, Note_on_c, 8, 43, 85
15, 35230, Note_on_c, 8, 43, 0
15, 35232, Note_on_c, 8, 43, 83
15, 35262, Note_on_c, 8, 43, 0
15, 35264, Note_on_c, 8, 43, 83
15, 35294, Note_on_c, 8, 43, 0
15, 35296, Note_on_c, 8, 43, 86
15, 35326, Note_on_c, 8, 43, 0
15, 35328, Note_on_c, 8, 43, 94
15, 35422, Note_on_c, 8, 43, 0
15, 36096, Note_on_c, 8, 43, 40
15, 36126, Note_on_c, 8, 43, 0
15, 36128, Note_on_c, 8, 43, 43
15, 36158, Note_on_c, 8, 43, 0
15, 36160, Note_on_c, 8, 43, 52
15, 36190, Note_on_c, 8, 43, 0
15, 36192, Note_on_c, 8, 43, 44
15, 36222, Note_on_c, 8, 43, 0
15, 36224, Note_on_c, 8, 43, 53
15, 36254, Note_on_c, 8, 43, 0
15, 36256, Note_on_c, 8, 43, 48
15, 36286, Note_on_c, 8, 43, 0
15, 36288, Note_on_c, 8, 43, 56
15, 36318, Note_on_c, 8, 43, 0
15, 36320, Note_on_c, 8, 43, 57
15, 36350, Note_on_c, 8, 43, 0
15, 36352, Note_on_c, 8, 43, 54
15, 36382, Note_on_c, 8, 43, 0
15, 36384, Note_on_c, 8, 43, 60
15, 36414, Note_on_c, 8, 43, 0
15, 36416, Note_on_c, 8, 43, 62
15, 36446, Note_on_c, 8, 43, 0
15, 36448, Note_on_c, 8, 43, 66
15, 36478, Note_on_c, 8, 43, 0
15, 36480, Note_on_c, 8, 43, 72
15, 36510, Note_on_c, 8, 43, 0
15, 36512, Note_on_c, 8, 43, 67
15, 36542, Note_on_c, 8, 43, 0
15, 36544, Note_on_c, 8, 43, 72
15, 36574, Note_on_c, 8, 43, 0
15, 36576, Note_on_c, 8, 43, 71
15, 36606, Note_on_c, 8, 43, 0
15, 36608, Note_on_c, 8, 43, 76
15, 36638, Note_on_c, 8, 43, 0
15, 36640, Note_on_c, 8, 43, 79
15, 36670, Note_on_c, 8, 43, 0
15, 36672, Note_on_c, 8, 43, 76
15, 36702, Note_on_c, 8, 43, 0
15, 36704, Note_on_c, 8, 43, 81
15, 36734, Note_on_c, 8, 43, 0
15, 36736, Note_on_c, 8, 43, 84
15, 36766, Note_on_c, 8, 43, 0
15, 36768, Note_on_c, 8, 43, 80
15, 36798, Note_on_c, 8, 43, 0
15, 36800, Note_on_c, 8, 43, 86
15, 36830, Note_on_c, 8, 43, 0
15, 36832, Note_on_c, 8, 43, 89
15, 36862, Note_on_c, 8, 43, 0
15, 36864, Note_on_c, 8, 43, 94
15, 36958, Note_on_c, 8, 43, 0
15, 37632, Note_on_c, 8, 43, 50
15, 37662, Note_on_c, 8, 43, 0
15, 37664, Note_on_c, 8, 43, 50
15, 37694, Note_on_c, 8, 43, 0
15, 37696, Note_on_c, 8, 43, 50
15, 37726, Note_on_c, 8, 43, 0
15, 37728, Note_on_c, 8, 43, 51
15, 37758, Note_on_c, 8, 43, 0
15, 37760, Note_on_c, 8, 43, 48
15, 37790, Note_on_c, 8, 43, 0
15, 37792, Note_on_c, 8, 43, 54
15, 37822, Note_on_c, 8, 43, 0
15, 37824, Note_on_c, 8, 43, 60
15, 37854, Note_on_c, 8, 43, 0
15, 37856, Note_on_c, 8, 43, 59
15, 37886, Note_on_c, 8, 43, 0
15, 37888, Note_on_c, 8, 43, 56
15, 37918, Note_on_c, 8, 43, 0
15, 37920, Note_on_c, 8, 43, 62
15, 37950, Note_on_c, 8, 43, 0
15, 37952, Note_on_c, 8, 43, 62
15, 37982, Note_on_c, 8, 43, 0
15, 37984, Note_on_c, 8, 43, 65
15, 38014, Note_on_c, 8, 43, 0
15, 38016, Note_on_c, 8, 43, 70
15, 38046, Note_on_c, 8, 43, 0
15, 38048, Note_on_c, 8, 43, 73
15, 38078, Note_on_c, 8, 43, 0
15, 38080, Note_on_c, 8, 43, 68
15, 38110, Note_on_c, 8, 43, 0
15, 38112, Note_on_c, 8, 43, 76
15, 38142, Note_on_c, 8, 43, 0
15, 38144, Note_on_c, 8, 43, 79
15, 38174, Note_on_c, 8, 43, 0
15, 38176, Note_on_c, 8, 43, 78
15, 38206, Note_on_c, 8, 43, 0
15, 38208, Note_on_c, 8, 43, 76
15, 38238, Note_on_c, 8, 43, 0
15, 38240, Note_on_c, 8, 43, 77
15, 38270, Note_on_c, 8, 43, 0
15, 38272, Note_on_c, 8, 43, 86
15, 38302, Note_on_c, 8, 43, 0
15, 38304, Note_on_c, 8, 43, 82
15, 38334, Note_on_c, 8, 43, 0
15, 38336, Note_on_c, 8, 43, 91
15, 38366, Note_on_c, 8, 43, 0
15, 38368, Note_on_c, 8, 43, 92
15, 38398, Note_on_c, 8, 43, 0
15, 38400, Note_on_c, 8, 43, 95
15, 38494, Note_on_c, 8, 43, 0
15, 39168, Note_on_c, 8, 43, 48
15, 39198, Note_on_c, 8, 43, 0
15, 39200, Note_on_c, 8, 43, 45
15, 39230, Note_on_c, 8, 43, 0
15, 39232, Note_on_c, 8, 43, 52
15, 39262, Note_on_c, 8, 43, 0
15, 39264, Note_on_c, 8, 43, 53
15, 39294, Note_on_c, 8, 43, 0
15, 39296, Note_on_c, 8, 43, 49
15, 39326, Note_on_c, 8, 43, 0
15, 39328, Note_on_c, 8, 43, 54
15, 39358, Note_on_c, 8, 43, 0
15, 39360, Note_on_c, 8, 43, 56
15, 39390, Note_on_c, 8, 43, 0
15, 39392, Note_on_c, 8, 43, 56
15, 39422, Note_on_c, 8, 43, 0
15, 39424, Note_on_c, 8, 43, 63
15, 39454, Note_on_c, 8, 43, 0
15, 39456, Note_on_c, 8, 43, 57
15, 39486, Note_on_c, 8, 43, 0
15, 39488, Note_on_c, 8, 43, 63
15, 39518, Note_on_c, 8, 43, 0
15, 39520, Note_on_c, 8, 43, 69
15, 39550, Note_on_c, 8, 43, 0
15, 39552, Note_on_c, 8, 43, 63
15, 39582, Note_on_c, 8, 43, 0
15, 39584, Note_on_c, 8, 43, 71
15, 39614, Note_on_c, 8, 43, 0
15, 39616, Note_on_c, 8, 43, 71
15, 39646, Note_on_c, 8, 43, 0
15, 39648, Note_on_c, 8, 43, 73
15, 39678, Note_on_c, 8, 43, 0
15, 39680, Note_on_c, 8, 43, 80
15, 39710, Note_on_c, 8, 43, 0
15, 39712, Note_on_c, 8, 43, 81
15, 39742, Note_on_c, 8, 43, 0
15, 39744, Note_on_c, 8, 43, 83
15, 39774, Note_on_c, 8, 43, 0
15, 39776, Note_on_c, 8, 43, 82
15, 39806, Note_on_c, 8, 43, 0
15, 39808, Note_on_c, 8, 43, 88
15, 39838, Note_on_c, 8, 43, 0
15, 39840, Note_on_c, 8, 43, 84
15, 39870, Note_on_c, 8, 43, 0
15, 39872, Note_on_c, 8, 43, 88
15, 39902, Note_on_c, 8, 43, 0
15, 39904, Note_on_c, 8, 43, 85
15, 39934, Note_on_c, 8, 43, 0
15, 39936, Note_on_c, 8, 43, 92
15, 40030, Note_on_c, 8, 43, 0
15, 40704, Note_on_c, 8, 43, 40
15, 40734, Note_on_c, 8, 43, 0
15, 40736, Note_on_c, 8, 43, 43
15, 40766, Note_on_c, 8, 43, 0
15, 40768, Note_on_c, 8, 43, 49
15, 40798, Note_on_c, 8, 43, 0
15, 40800, Note_on_c, 8, 43, 47
15, 40830, Note_on_c, 8, 43, 0
15, 40832, Note_on_c, 8, 43, 46
15, 40862, Note_on_c, 8, 43, 0
15, 40864, Note_on_c, 8, 43, 54
15, 40894, Note_on_c, 8, 43, 0
15, 40896, Note_on_c, 8, 43, 53
15, 40926, Note_on_c, 8, 43, 0
15, 40928, Note_on_c, 8, 43, 59
15, 40958, Note_on_c, 8, 43, 0
15, 40960, Note_on_c, 8, 43, 59
15, 40990, Note_on_c, 8, 43, 0
15, 40992, Note_on_c, 8, 43, 66
15, 41022, Note_on_c, 8, 43, 0
15, 41024, Note_on_c, 8, 43, 61
15, 41054, Note_on_c, 8, 43, 0
15, 41056, Note_on_c, 8, 43, 69
15, 41086, Note_on_c, 8, 43, 0
15, 41088, Note_on_c, 8, 43, 72
15, 41118, Note_on_c, 8, 43, 0
15, 41120, Note_on_c, 8, 43, 65
15, 41150, Note_on_c, 8, 43, 0
15, 41152, Note_on_c, 8, 43, 74
15, 41182, Note_on_c, 8, 43, 0
15, 41184, Note_on_c, 8, 43, 73
15, 41214, Note_on_c, 8, 43, 0
15, 41216, Note_on_c, 8, 43, 73
15, 41246, Note_on_c, 8, 43, 0
15, 41248, Note_on_c, 8, 43, 77
15, 41278, Note_on_c, 8, 43, 0
15, 41280, Note_on_c, 8, 43, 80
15, 41310, Note_on_c, 8, 43, 0
15, 41312, Note_on_c, 8, 43, 82
15, 41342, Note_on_c, 8, 43, 0
15, 41344, Note_on_c, 8, 43, 84
15, 41374, Note_on_c, 8, 43, 0
15, 41376, Note_on_c, 8, 43, 86
15, 41406, Note_on_c, 8, 43, 0
15, 41408, Note_on_c, 8, 43, 89
15, 41438, Note_on_c, 8, 43, 0
15, 41440, Note_on_c, 8, 43, 86
15, 41470, Note_on_c, 8, 43, 0
15, 41472, Note_on_c, 8, 43, 91
15, 41566, Note_on_c, 8, 43, 0
15, 43008, Note_on_c, 8, 44, 109
15, 43102, Note_on_c, 8, 44, 0
15, 91776, Note_on_c, 8, 42, 103
15, 91806, Note_on_c, 8, 42, 0
15, 91808, Note_on_c, 8, 48, 109
15, 91838, Note_on_c, 8, 48, 0
15, 91840, Note_on_c, 8, 42, 112
15, 91870, Note_on_c, 8, 42, 0
15, 91872, Note_on_c, 8, 48, 113
15, 91902, Note_on_c, 8, 48, 0
15, 91904, Note_on_c, 8, 42, 103
15, 91934, Note_on_c, 8, 42, 0
15, 91936, Note_on_c, 8, 48, 107
15, 91966, Note_on_c, 8, 48, 0
15, 91968, Note_on_c, 8, 42, 104
15, 91998, Note_on_c, 8, 42, 0
15, 92000, Note_on_c, 8, 48, 105
15, 92030, Note_on_c, 8, 48, 0
15, 92032, Note_on_c, 8, 42, 104
15, 92062, Note_on_c, 8, 42, 0
15, 92064, Note_on_c, 8, 48, 111
15, 92094, Note_on_c, 8, 48, 0
15, 92096, Note_on_c, 8, 42, 108
15, 92126, Note_on_c, 8, 42, 0
15, 92128, Note_on_c, 8, 48, 113
15, 92158, Note_on_c, 8, 48, 0
15, 92160, Note_on_c, 8, 42, 105
15, 92190, Note_on_c, 8, 42, 0
15, 92192, Note_on_c, 8, 48, 105
15, 92222, Note_on_c, 8, 48, 0
15, 92224, Note_on_c, 8, 42, 106
15, 92254, Note_on_c, 8, 42, 0
15, 92256, Note_on_c, 8, 48, 105
15, 92286, Note_on_c, 8, 48, 0
15, 92288, Note_on_c, 8, 42, 105
15, 92318, Note_on_c, 8, 42, 0
15, 92320, Note_on_c, 8, 48, 105
15, 92350, Note_on_c, 8, 48, 0
15, 92352, Note_on_c, 8, 42, 113
15, 92382, Note_on_c, 8, 42, 0
15, 92384, Note_on_c, 8, 48, 103
15, 92414, Note_on_c, 8, 48, 0
15, 92416, Note_on_c, 8, 42, 113
15, 92446, Note_on_c, 8, 42, 0
15, 92448, Note_on_c, 8, 48, 106
15, 92478, Note_on_c, 8, 48, 0
15, 92480, Note_on_c, 8, 42, 108
15, 92510, Note_on_c, 8, 42, 0
15, 92512, Note_on_c, 8, 48, 111
15, 92542, Note_on_c, 8, 48, 0
15, 92544, Note_on_c, 8, 42, 113
15, 92574, Note_on_c, 8, 42, 0
15, 92576, Note_on_c, 8, 48, 103
15, 92606, Note_on_c, 8, 48, 0
15, 92608, Note_on_c, 8, 42, 104
15, 92638, Note_on_c, 8, 42, 0
15, 92640, Note_on_c, 8, 48, 111
15, 92670, Note_on_c, 8, 48, 0
15, 92672, Note_on_c, 8, 42, 113
15, 92702, Note_on_c, 8, 42, 0
15, 92704, Note_on_c, 8, 48, 103
15, 92734, Note_on_c, 8, 48, 0
15, 92736, Note_on_c, 8, 42, 109
15, 92766, Note_on_c, 8, 42, 0
15, 92768, Note_on_c, 8, 48, 113
15, 92798, Note_on_c, 8, 48, 0
15, 92800, Note_on_c, 8, 42, 103
15, 92830, Note_on_c, 8, 42, 0
15, 92832, Note_on_c, 8, 48, 107
15, 92862, Note_on_c, 8, 48, 0
15, 92864, Note_on_c, 8, 42, 106
15, 92894, Note_on_c, 8, 42, 0
15, 92896, Note_on_c, 8, 48, 108
15, 92926, Note_on_c, 8, 48, 0
15, 92928, Note_on_c, 8, 42, 104
15, 92958, Note_on_c, 8, 42, 0
15, 92960, Note_on_c, 8, 48, 105
15, 92990, Note_on_c, 8, 48, 0
15, 92992, Note_on_c, 8, 42, 103
15, 93022, Note_on_c, 8, 42, 0
15, 93024, Note_on_c, 8, 48, 106
15, 93054, Note_on_c, 8, 48, 0
15, 93056, Note_on_c, 8, 42, 106
15, 93086, Note_on_c, 8, 42, 0
15, 93088, Note_on_c, 8, 48, 110
15, 93118, Note_on_c, 8, 48, 0
15, 93120, Note_on_c, 8, 42, 113
15, 93150, Note_on_c, 8, 42, 0
15, 93152, Note_on_c, 8, 48, 108
15, 93182, Note_on_c, 8, 48, 0
15, 93184, Note_on_c, 8, 42, 103
15, 93214, Note_on_c, 8, 42, 0
15, 93216, Note_on_c, 8, 48, 108
15, 93246, Note_on_c, 8, 48, 0
15, 93248, Note_on_c, 8, 42, 104
15, 93278, Note_on_c, 8, 42, 0
15, 93280, Note_on_c, 8, 48, 109
15, 93310, Note_on_c, 8, 48, 0
15, 93312, Note_on_c, 8, 42, 111
15, 93342, Note_on_c, 8, 42, 0
15, 93344, Note_on_c, 8, 48, 110
15, 93374, Note_on_c, 8, 48, 0
15, 93376, Note_on_c, 8, 42, 113
15, 93406, Note_on_c, 8, 42, 0
15, 93408, Note_on_c, 8, 48, 103
15, 93438, Note_on_c, 8, 48, 0
15, 93440, Note_on_c, 8, 42, 109
15, 93470, Note_on_c, 8, 42, 0
15, 93472, Note_on_c, 8, 48, 107
15, 93502, Note_on_c, 8, 48, 0
15, 93504, Note_on_c, 8, 42, 110
15, 93534, Note_on_c, 8, 42, 0
15, 93536, Note_on_c, 8, 48, 109
15, 93566, Note_on_c, 8, 48, 0
15, 93568, Note_on_c, 8, 42, 110
15, 93598, Note_on_c, 8, 42, 0
15, 93600, Note_on_c, 8, 48, 110
15, 93630, Note_on_c, 8, 48, 0
15, 93632, Note_on_c, 8, 42, 104
15, 93662, Note_on_c, 8, 42, 0
15, 93664, Note_on_c, 8, 48, 107
15, 93694, Note_on_c, 8, 48, 0
15, 93696, Note_on_c, 8, 42, 109
15, 93726, Note_on_c, 8, 42, 0
15, 93728, Note_on_c, 8, 48, 110
15, 93758, Note_on_c, 8, 48, 0
15, 93760, Note_on_c, 8, 42, 108
15, 93790, Note_on_c, 8, 42, 0
15, 93792, Note_on_c, 8, 48, 108
15, 93822, Note_on_c, 8, 48, 0
15, 93824, Note_on_c, 8, 42, 103
15, 93854, Note_on_c, 8, 42, 0
15, 93856, Note_on_c, 8, 48, 103
15, 93886, Note_on_c, 8, 48, 0
15, 93888, Note_on_c, 8, 42, 111
15, 93918, Note_on_c, 8, 42, 0
15, 93920, Note_on_c, 8, 48, 105
15, 93950, Note_on_c, 8, 48, 0
15, 93952, Note_on_c, 8, 42, 113
15, 93982, Note_on_c, 8, 42, 0
15, 93984, Note_on_c, 8, 48, 103
15, 94014, Note_on_c, 8, 48, 0
15, 94016, Note_on_c, 8, 42, 112
15, 94046, Note_on_c, 8, 42, 0
15, 94048, Note_on_c, 8, 48, 110
15, 94078, Note_on_c, 8, 48, 0
15, 94080, Note_on_c, 8, 42, 111
15, 94110, Note_on_c, 8, 42, 0
15, 94112, Note_on_c, 8, 48, 113
15, 94142, Note_on_c, 8, 48, 0
15, 94144, Note_on_c, 8, 42, 104
15, 94174, Note_on_c, 8, 42, 0
15, 94176, Note_on_c, 8, 48, 110
15, 94206, Note_on_c, 8, 48, 0
15, 94208, Note_on_c, 8, 42, 109
15, 94238, Note_on_c, 8, 42, 0
15, 94240, Note_on_c, 8, 48, 112
15, 94270, Note_on_c, 8, 48, 0
15, 94272, Note_on_c, 8, 42, 113
15, 94302, Note_on_c, 8, 42, 0
15, 94304, Note_on_c, 8, 48, 105
15, 94334, Note_on_c, 8, 48, 0
15, 94336, Note_on_c, 8, 42, 109
15, 94366, Note_on_c, 8, 42, 0
15, 94368, Note_on_c, 8, 48, 105
15, 94398, Note_on_c, 8, 48, 0
15, 94400, Note_on_c, 8, 42, 106
15, 94430, Note_on_c, 8, 42, 0
15, 94432, Note_on_c, 8, 48, 110
15, 94462, Note_on_c, 8, 48, 0
15, 94464, Note_on_c, 8, 42, 104
15, 94494, Note_on_c, 8, 42, 0
15, 94496, Note_on_c, 8, 48, 103
15, 94526, Note_on_c, 8, 48, 0
15, 94528, Note_on_c, 8, 42, 104
15, 94558, Note_on_c, 8, 42, 0
15, 94560, Note_on_c, 8, 48, 109
15, 94590, Note_on_c, 8, 48, 0
15, 94592, Note_on_c, 8, 42, 104
15, 94622, Note_on_c, 8, 42, 0
15, 94624, Note_on_c, 8, 48, 106
15, 94654, Note_on_c, 8, 48, 0
15, 94656, Note_on_c, 8, 42, 108
15, 94686, Note_on_c, 8, 42, 0
15, 94688, Note_on_c, 8, 48, 112
15, 94718, Note_on_c, 8, 48, 0
15, 94720, Note_on_c, 8, 42, 110
15, 94750, Note_on_c, 8, 42, 0
15, 94752, Note_on_c, 8, 48, 103
15, 94782, Note_on_c, 8, 48, 0
15, 94784, Note_on_c, 8, 42, 110
15, 94814, Note_on_c, 8, 42, 0
15, 94816, Note_on_c, 8, 48, 111
15, 94846, Note_on_c, 8, 48, 0
15, 94848, Note_on_c, 8, 42, 112
15, 94878, Note_on_c, 8, 42, 0
15, 94880, Note_on_c, 8, 48, 104
15, 94910, Note_on_c, 8, 48, 0
15, 94912, Note_on_c, 8, 42, 103
15, 94942, Note_on_c, 8, 42, 0
15, 94944, Note_on_c, 8, 48, 112
15, 94974, Note_on_c, 8, 48, 0
15, 94976, Note_on_c, 8, 42, 113
15, 95006, Note_on_c, 8, 42, 0
15, 95008, Note_on_c, 8, 48, 109
15, 95038, Note_on_c, 8, 48, 0
15, 95040, Note_on_c, 8, 42, 105
15, 95070, Note_on_c, 8, 42, 0
15, 95072, Note_on_c, 8, 48, 105
15, 95102, Note_on_c, 8, 48, 0
15, 95104, Note_on_c, 8, 42, 106
15, 95134, Note_on_c, 8, 42, 0
15, 95136, Note_on_c, 8, 48, 110
15, 95166, Note_on_c, 8, 48, 0
15, 95168, Note_on_c, 8, 42, 113
15, 95198, Note_on_c, 8, 42, 0
15, 95200, Note_on_c, 8, 48, 108
15, 95230, Note_on_c, 8, 48, 0
15, 95232, Note_on_c, 8, 42, 89
15, 95262, Note_on_c, 8, 42, 0
15, 95264, Note_on_c, 8, 48, 91
15, 95294, Note_on_c, 8, 48, 0
15, 95296, Note_on_c, 8, 42, 90
15, 95326, Note_on_c, 8, 42, 0
15, 95328, Note_on_c, 8, 48, 89
15, 95358, Note_on_c, 8, 48, 0
15, 95360, Note_on_c, 8, 42, 92
15, 95390, Note_on_c, 8, 42, 0
15, 95392, Note_on_c, 8, 48, 97
15, 95422, Note_on_c, 8, 48, 0
15, 95424, Note_on_c, 8, 42, 94
15, 95454, Note_on_c, 8, 42, 0
15, 95456, Note_on_c, 8, 48, 97
15, 95486, Note_on_c, 8, 48, 0
15, 95488, Note_on_c, 8, 42, 95
15, 95518, Note_on_c, 8, 42, 0
15, 95520, Note_on_c, 8, 48, 92
15, 95550, Note_on_c, 8, 48, 0
15, 95552, Note_on_c, 8, 42, 97
15, 95582, Note_on_c, 8, 42, 0
15, 95584, Note_on_c, 8, 48, 91
15, 95614, Note_on_c, 8, 48, 0
15, 95616, Note_on_c, 8, 42, 97
15, 95646, Note_on_c, 8, 42, 0
15, 95648, Note_on_c, 8, 48, 96
15, 95678, Note_on_c, 8, 48, 0
15, 95680, Note_on_c, 8, 42, 87
15, 95710, Note_on_c, 8, 42, 0
15, 95712, Note_on_c, 8, 48, 87
15, 95742, Note_on_c, 8, 48, 0
15, 95744, Note_on_c, 8, 42, 97
15, 95774, Note_on_c, 8, 42, 0
15, 95776, Note_on_c, 8, 48, 96
15, 95806, Note_on_c, 8, 48, 0
15, 95808, Note_on_c, 8, 42, 94
15, 95838, Note_on_c, 8, 42, 0
15, 95840, Note_on_c, 8, 48, 95
15, 95870, Note_on_c, 8, 48, 0
15, 95872, Note_on_c, 8, 42, 92
15, 95902, Note_on_c, 8, 42, 0
15, 95904, Note_on_c, 8, 48, 87
15, 95934, Note_on_c, 8, 48, 0
15, 95936, Note_on_c, 8, 42, 91
15, 95966, Note_on_c, 8, 42, 0
15, 95968, Note_on_c, 8, 48, 97
15, 95998, Note_on_c, 8, 48, 0
15, 96000, Note_on_c, 8, 42, 90
15, 96030, Note_on_c, 8, 42, 0
15, 96032, Note_on_c, 8, 48, 96
15, 96062, Note_on_c, 8, 48, 0
15, 96064, Note_on_c, 8, 42, 94
15, 96094, Note_on_c, 8, 42, 0
15, 96096, Note_on_c, 8, 48, 92
15, 96126, Note_on_c, 8, 48, 0
15, 96128, Note_on_c, 8, 42, 93
15, 96158, Note_on_c, 8, 42, 0
15, 96160, Note_on_c, 8, 48, 95
15, 96190, Note_on_c, 8, 48, 0
15, 96192, Note_on_c, 8, 42, 91
15, 96222, Note_on_c, 8, 42, 0
15, 96224, Note_on_c, 8, 48, 96
15, 96254, Note_on_c, 8, 48, 0
15, 96256, Note_on_c, 8, 42, 87
15, 96286, Note_on_c, 8, 42, 0
15, 96288, Note_on_c, 8, 48, 86
15, 96318, Note_on_c, 8, 48, 0
15, 96320, Note_on_c, 8, 42, 86
15, 96350, Note_on_c, 8, 42, 0
15, 96352, Note_on_c, 8, 48, 85
15, 96382, Note_on_c, 8, 48, 0
15, 96384, Note_on_c, 8, 42, 89
15, 96414, Note_on_c, 8, 42, 0
15, 96416, Note_on_c, 8, 48, 91
15, 96446, Note_on_c, 8, 48, 0
15, 96448, Note_on_c, 8, 42, 85
15, 96478, Note_on_c, 8, 42, 0
15, 96480, Note_on_c, 8, 48, 89
15, 96510, Note_on_c, 8, 48, 0
15, 96512, Note_on_c, 8, 42, 85
15, 96542, Note_on_c, 8, 42, 0
15, 96544, Note_on_c, 8, 48, 85
15, 96574, Note_on_c, 8, 48, 0
15, 96576, Note_on_c, 8, 42, 84
15, 96606, Note_on_c, 8, 42, 0
15, 96608, Note_on_c, 8, 48, 84
15, 96638, Note_on_c, 8, 48, 0
15, 96640, Note_on_c, 8, 42, 84
15, 96670, Note_on_c, 8, 42, 0
15, 96672, Note_on_c, 8, 48, 77
15, 96702, Note_on_c, 8, 48, 0
15, 96704, Note_on_c, 8, 42, 82
15, 96734, Note_on_c, 8, 42, 0
15, 96736, Note_on_c, 8, 48, 79
15, 96766, Note_on_c, 8, 48, 0
15, 96768, Note_on_c, 8, 42, 71
15, 96798, Note_on_c, 8, 42, 0
15, 96800, Note_on_c, 8, 42, 71
15, 96830, Note_on_c, 8, 42, 0
15, 96832, Note_on_c, 8, 42, 70
15, 96862, Note_on_c, 8, 42, 0
15, 96864, Note_on_c, 8, 42, 72
15, 96894, Note_on_c, 8, 42, 0
15, 96896, Note_on_c, 8, 42, 69
15, 96926, Note_on_c, 8, 42, 0
15, 96928, Note_on_c, 8, 42, 68
15, 96958, Note_on_c, 8, 42, 0
15, 96960, Note_on_c, 8, 42, 69
15, 96990, Note_on_c, 8, 42, 0
15, 96992, Note_on_c, 8, 42, 66
15, 97022, Note_on_c, 8, 42, 0
15, 97024, Note_on_c, 8, 42, 57
15, 97054, Note_on_c, 8, 42, 0
15, 97056, Note_on_c, 8, 42, 62
15, 97086, Note_on_c, 8, 42, 0
15, 97088, Note_on_c, 8, 42, 62
15, 97118, Note_on_c, 8, 42, 0
15, 97120, Note_on_c, 8, 42, 58
15, 97150, Note_on_c, 8, 42, 0
15, 97152, Note_on_c, 8, 42, 59
15, 97182, Note_on_c, 8, 42, 0
15, 97184, Note_on_c, 8, 42, 47
15, 97214, Note_on_c, 8, 42, 0
15, 97216, Note_on_c, 8, 42, 51
15, 97246, Note_on_c, 8, 42, 0
15, 97248, Note_on_c, 8, 42, 45
15, 97278, Note_on_c, 8, 42, 0
15, 97280, Note_on_c, 8, 42, 46
15, 97310, Note_on_c, 8, 42, 0
15, 97312, Note_on_c, 8, 42, 44
15, 97342, Note_on_c, 8, 42, 0
15, 97344, Note_on_c, 8, 42, 39
15, 97374, Note_on_c, 8, 42, 0
15, 97376, Note_on_c, 8, 42, 45
15, 97406, Note_on_c, 8, 42, 0
15, 97408, Note_on_c, 8, 42, 42
15, 97438, Note_on_c, 8, 42, 0
15, 97440, Note_on_c, 8, 42, 31
15, 97470, Note_on_c, 8, 42, 0
15, 97472, Note_on_c, 8, 42, 37
15, 97502, Note_on_c, 8, 42, 0
15, 97504, Note_on_c, 8, 42, 28
15, 97534, Note_on_c, 8, 42, 0
15, 97536, Note_on_c, 8, 42, 33
15, 97566, Note_on_c, 8, 42, 0
15, 97568, Note_on_c, 8, 42, 35
15, 97598, Note_on_c, 8, 42, 0
15, 97600, Note_on_c, 8, 42, 31
15, 97630, Note_on_c, 8, 42, 0
15, 97632, Note_on_c, 8, 42, 26
15, 97662, Note_on_c, 8, 42, 0
15, 97664, Note_on_c, 8, 42, 31
15, 97694, Note_on_c, 8, 42, 0
15, 97696, Note_on_c, 8, 42, 32
15, 97726, Note_on_c, 8, 42, 0
15, 97728, Note_on_c, 8, 42, 27
15, 97758, Note_on_c, 8, 42, 0
15, 97760, Note_on_c, 8, 42, 28
15, 97790, Note_on_c, 8, 42, 0
15, 97792, Note_on_c, 8, 42, 34
15, 97822, Note_on_c, 8, 42, 0
15, 97824, Note_on_c, 8, 42, 34
15, 97854, Note_on_c, 8, 42, 0
15, 97856, Note_on_c, 8, 42, 32
15, 97886, Note_on_c, 8, 42, 0
15, 97888, Note_on_c, 8, 42, 29
15, 97918, Note_on_c, 8, 42, 0
15, 97920, Note_on_c, 8, 42, 26
15, 97950, Note_on_c, 8, 42, 0
15, 97952, Note_on_c, 8, 42, 35
15, 97982, Note_on_c, 8, 42, 0
15, 97984, Note_on_c, 8, 42, 33
15, 98014, Note_on_c, 8, 42, 0
15, 98016, Note_on_c, 8, 42, 26
15, 98046, Note_on_c, 8, 42, 0
15, 98048, Note_on_c, 8, 42, 25
15, 98078, Note_on_c, 8, 42, 0
15, 98080, Note_on_c, 8, 42, 25
15, 98110, Note_on_c, 8, 42, 0
15, 98112, Note_on_c, 8, 42, 29
15, 98142, Note_on_c, 8, 42, 0
15, 98144, Note_on_c, 8, 42, 25
15, 98174, Note_on_c, 8, 42, 0
15, 98176, Note_on_c, 8, 42, 27
15, 98206, Note_on_c, 8, 42, 0
15, 98208, Note_on_c, 8, 42, 27
15, 98238, Note_on_c, 8, 42, 0
15, 98240, Note_on_c, 8, 42, 31
15, 98270, Note_on_c, 8, 42, 0
15, 98272, Note_on_c, 8, 42, 35
15, 98302, Note_on_c, 8, 42, 0
15, 98304, Note_on_c, 8, 48, 29
15, 98334, Note_on_c, 8, 48, 0
15, 98336, Note_on_c, 8, 48, 27
15, 98366, Note_on_c, 8, 48, 0
15, 98368, Note_on_c, 8, 48, 32
15, 98398, Note_on_c, 8, 48, 0
15, 98400, Note_on_c, 8, 48, 28
15, 98430, Note_on_c, 8, 48, 0
15, 98432, Note_on_c, 8, 48, 35
15, 98462, Note_on_c, 8, 48, 0
15, 98464, Note_on_c, 8, 48, 30
15, 98494, Note_on_c, 8, 48, 0
15, 98496, Note_on_c, 8, 48, 25
15, 98526, Note_on_c, 8, 48, 0
15, 98528, Note_on_c, 8, 48, 33
15, 98558, Note_on_c, 8, 48, 0
15, 98560, Note_on_c, 8, 48, 34
15, 98590, Note_on_c, 8, 48, 0
15, 98592, Note_on_c, 8, 48, 26
15, 98622, Note_on_c, 8, 48, 0
15, 98624, Note_on_c, 8, 48, 28
15, 98654, Note_on_c, 8, 48, 0
15, 98656, Note_on_c, 8, 48, 32
15, 98686, Note_on_c, 8, 48, 0
15, 98688, Note_on_c, 8, 48, 28
15, 98718, Note_on_c, 8, 48, 0
15, 98720, Note_on_c, 8, 48, 31
15, 98750, Note_on_c, 8, 48, 0
15, 98752, Note_on_c, 8, 48, 25
15, 98782, Note_on_c, 8, 48, 0
15, 98784, Note_on_c, 8, 48, 33
15, 98814, Note_on_c, 8, 48, 0
15, 98816, Note_on_c, 8, 48, 30
15, 98846, Note_on_c, 8, 48, 0
15, 98848, Note_on_c, 8, 48, 30
15, 98878, Note_on_c, 8, 48, 0
15, 98880, Note_on_c, 8, 48, 28
15, 98910, Note_on_c, 8, 48, 0
15, 98912, Note_on_c, 8, 48, 35
15, 98942, Note_on_c, 8, 48, 0
15, 98944, Note_on_c, 8, 48, 25
15, 98974, Note_on_c, 8, 48, 0
15, 98976, Note_on_c, 8, 48, 34
15, 99006, Note_on_c, 8, 48, 0
15, 99008, Note_on_c, 8, 48, 28
15, 99038, Note_on_c, 8, 48, 0
15, 99040, Note_on_c, 8, 48, 34
15, 99070, Note_on_c, 8, 48, 0
15, 99072, Note_on_c, 8, 48, 25
15, 99102, Note_on_c, 8, 48, 0
15, 99104, Note_on_c, 8, 48, 29
15, 99134, Note_on_c, 8, 48, 0
15, 99136, Note_on_c, 8, 48, 29
15, 99166, Note_on_c, 8, 48, 0
15, 99168, Note_on_c, 8, 48, 25
15, 99198, Note_on_c, 8, 48, 0
15, 99200, Note_on_c, 8, 48, 25
15, 99230, Note_on_c, 8, 48, 0
15, 99232, Note_on_c, 8, 48, 30
15, 99262, Note_on_c, 8, 48, 0
15, 99264, Note_on_c, 8, 48, 31
15, 99294, Note_on_c, 8, 48, 0
15, 99296, Note_on_c, 8, 48, 35
15, 99326, Note_on_c, 8, 48, 0
15, 99328, Note_on_c, 8, 48, 32
15, 99358, Note_on_c, 8, 48, 0
15, 99360, Note_on_c, 8, 48, 32
15, 99390, Note_on_c, 8, 48, 0
15, 99392, Note_on_c, 8, 48, 31
15, 99422, Note_on_c, 8, 48, 0
15, 99424, Note_on_c, 8, 48, 29
15, 99454, Note_on_c, 8, 48, 0
15, 99456, Note_on_c, 8, 48, 35
15, 99486, Note_on_c, 8, 48, 0
15, 99488, Note_on_c, 8, 48, 35
15, 99518, Note_on_c, 8, 48, 0
15, 99520, Note_on_c, 8, 48, 27
15, 99550, Note_on_c, 8, 48, 0
15, 99552, Note_on_c, 8, 48, 24
15, 99582, Note_on_c, 8, 48, 0
15, 99584, Note_on_c, 8, 48, 30
15, 99614, Note_on_c, 8, 48, 0
15, 99616, Note_on_c, 8, 48, 25
15, 99646, Note_on_c, 8, 48, 0
15, 99648, Note_on_c, 8, 48, 25
15, 99678, Note_on_c, 8, 48, 0
15, 99680, Note_on_c, 8, 48, 21
15, 99710, Note_on_c, 8, 48, 0
15, 99712, Note_on_c, 8, 48, 23
15, 99742, Note_on_c, 8, 48, 0
15, 99744, Note_on_c, 8, 48, 26
15, 99774, Note_on_c, 8, 48, 0
15, 99776, Note_on_c, 8, 48, 25
15, 99806, Note_on_c, 8, 48, 0
15, 99808, Note_on_c, 8, 48, 16
15, 99838, Note_on_c, 8, 48, 0
15, 99840, Note_on_c, 8, 48, 17
15, 99870, Note_on_c, 8, 48, 0
15, 99872, Note_on_c, 8, 48, 16
15, 99902, Note_on_c, 8, 48, 0
15, 99904, Note_on_c, 8, 48, 22
15, 99934, Note_on_c, 8, 48, 0
15, 99936, Note_on_c, 8, 48, 16
15, 99966, Note_on_c, 8, 48, 0
15, 99968, Note_on_c, 8, 48, 18
15, 99998, Note_on_c, 8, 48, 0
15, 100000, Note_on_c, 8, 48, 21
15, 100030, Note_on_c, 8, 48, 0
15, 100032, Note_on_c, 8, 48, 18
15, 100062, Note_on_c, 8, 48, 0
15, 100064, Note_on_c, 8, 48, 19
15, 100094, Note_on_c, 8, 48, 0
15, 100096, Note_on_c, 8, 48, 21
15, 100126, Note_on_c, 8, 48, 0
15, 100128, Note_on_c, 8, 48, 15
15, 100158, Note_on_c, 8, 48, 0
15, 100160, Note_on_c, 8, 48, 19
15, 100190, Note_on_c, 8, 48, 0
15, 100192, Note_on_c, 8, 48, 19
15, 100222, Note_on_c, 8, 48, 0
15, 100224, Note_on_c, 8, 48, 24
15, 100254, Note_on_c, 8, 48, 0
15, 100256, Note_on_c, 8, 48, 19
15, 100286, Note_on_c, 8, 48, 0
15, 100288, Note_on_c, 8, 48, 16
15, 100318, Note_on_c, 8, 48, 0
15, 100320, Note_on_c, 8, 48, 25
15, 100350, Note_on_c, 8, 48, 0
15, 100352, Note_on_c, 8, 48, 23
15, 100382, Note_on_c, 8, 48, 0
15, 100384, Note_on_c, 8, 48, 20
15, 100414, Note_on_c, 8, 48, 0
15, 100416, Note_on_c, 8, 48, 19
15, 100446, Note_on_c, 8, 48, 0
15, 100448, Note_on_c, 8, 48, 23
15, 100478, Note_on_c, 8, 48, 0
15, 100480, Note_on_c, 8, 48, 24
15, 100510, Note_on_c, 8, 48, 0
15, 100512, Note_on_c, 8, 48, 21
15, 100542, Note_on_c, 8, 48, 0
15, 100544, Note_on_c, 8, 48, 21
15, 100574, Note_on_c, 8, 48, 0
15, 100576, Note_on_c, 8, 48, 21
15, 100606, Note_on_c, 8, 48, 0
15, 100608, Note_on_c, 8, 48, 22
15, 100638, Note_on_c, 8, 48, 0
15, 100640, Note_on_c, 8, 48, 22
15, 100670, Note_on_c, 8, 48, 0
15, 100672, Note_on_c, 8, 48, 23
15, 100702, Note_on_c, 8, 48, 0
15, 100704, Note_on_c, 8, 48, 16
15, 100734, Note_on_c, 8, 48, 0
15, 100736, Note_on_c, 8, 48, 24
15, 100766, Note_on_c, 8, 48, 0
15, 100768, Note_on_c, 8, 48, 18
15, 100798, Note_on_c, 8, 48, 0
15, 100800, Note_on_c, 8, 48, 24
15, 100830, Note_on_c, 8, 48, 0
15, 100832, Note_on_c, 8, 48, 22
15, 100862, Note_on_c, 8, 48, 0
15, 100864, Note_on_c, 8, 48, 17
15, 100894, Note_on_c, 8, 48, 0
15, 100896, Note_on_c, 8, 48, 18
15, 100926, Note_on_c, 8, 48, 0
15, 100928, Note_on_c, 8, 48, 25
15, 100958, Note_on_c, 8, 48, 0
15, 100960, Note_on_c, 8, 48, 20
15, 100990, Note_on_c, 8, 48, 0
15, 100992, Note_on_c, 8, 48, 25
15, 101022, Note_on_c, 8, 48, 0
15, 101024, Note_on_c, 8, 48, 22
15, 101054, Note_on_c, 8, 48, 0
15, 101056, Note_on_c, 8, 48, 15
15, 101086, Note_on_c, 8, 48, 0
15, 101088, Note_on_c, 8, 48, 21
15, 101118, Note_on_c, 8, 48, 0
15, 101120, Note_on_c, 8, 48, 16
15, 101150, Note_on_c, 8, 48, 0
15, 101152, Note_on_c, 8, 48, 16
15, 101182, Note_on_c, 8, 48, 0
15, 101184, Note_on_c, 8, 48, 24
15, 101214, Note_on_c, 8, 48, 0
15, 101216, Note_on_c, 8, 48, 15
15, 101246, Note_on_c, 8, 48, 0
15, 101248, Note_on_c, 8, 48, 23
15, 101278, Note_on_c, 8, 48, 0
15, 101280, Note_on_c, 8, 48, 23
15, 101310, Note_on_c, 8, 48, 0
15, 101312, Note_on_c, 8, 48, 22
15, 101342, Note_on_c, 8, 48, 0
15, 101344, Note_on_c, 8, 48, 19
15, 101374, Note_on_c, 8, 48, 0
15, 101376, Note_on_c, 8, 48, 19
15, 101406, Note_on_c, 8, 48, 0
15, 101408, Note_on_c, 8, 48, 15
15, 101438, Note_on_c, 8, 48, 0
15, 101440, Note_on_c, 8, 48, 24
15, 101470, Note_on_c, 8, 48, 0
15, 101472, Note_on_c, 8, 48, 22
15, 101502, Note_on_c, 8, 48, 0
15, 101504, Note_on_c, 8, 48, 19
15, 101534, Note_on_c, 8, 48, 0
15, 101536, Note_on_c, 8, 48, 17
15, 101566, Note_on_c, 8, 48, 0
15, 101568, Note_on_c, 8, 48, 24
15, 101598, Note_on_c, 8, 48, 0
15, 101600, Note_on_c, 8, 48, 24
15, 101630, Note_on_c, 8, 48, 0
15, 101632, Note_on_c, 8, 48, 17
15, 101662, Note_on_c, 8, 48, 0
15, 101664, Note_on_c, 8, 48, 25
15, 101694, Note_on_c, 8, 48, 0
15, 101696, Note_on_c, 8, 48, 15
15, 101726, Note_on_c, 8, 48, 0
15, 101728, Note_on_c, 8, 48, 25
15, 101758, Note_on_c, 8, 48, 0
15, 101760, Note_on_c, 8, 48, 19
15, 101790, Note_on_c, 8, 48, 0
15, 101792, Note_on_c, 8, 48, 23
15, 101822, Note_on_c, 8, 48, 0
15, 101824, Note_on_c, 8, 48, 22
15, 101854, Note_on_c, 8, 48, 0
15, 101856, Note_on_c, 8, 48, 25
15, 101886, Note_on_c, 8, 48, 0
15, 101888, Note_on_c, 8, 48, 17
15, 101918, Note_on_c, 8, 48, 0
15, 101920, Note_on_c, 8, 48, 25
15, 101950, Note_on_c, 8, 48, 0
15, 101952, Note_on_c, 8, 48, 17
15, 101982, Note_on_c, 8, 48, 0
15, 101984, Note_on_c, 8, 48, 22
15, 102014, Note_on_c, 8, 48, 0
15, 102016, Note_on_c, 8, 48, 15
15, 102046, Note_on_c, 8, 48, 0
15, 102048, Note_on_c, 8, 48, 18
15, 102078, Note_on_c, 8, 48, 0
15, 102080, Note_on_c, 8, 48, 16
15, 102110, Note_on_c, 8, 48, 0
15, 102112, Note_on_c, 8, 48, 21
15, 102142, Note_on_c, 8, 48, 0
15, 102144, Note_on_c, 8, 48, 25
15, 102174, Note_on_c, 8, 48, 0
15, 102176, Note_on_c, 8, 48, 24
15, 102206, Note_on_c, 8, 48, 0
15, 102208, Note_on_c, 8, 48, 20
15, 102238, Note_on_c, 8, 48, 0
15, 102240, Note_on_c, 8, 48, 15
15, 102270, Note_on_c, 8, 48, 0
15, 102272, Note_on_c, 8, 48, 25
15, 102302, Note_on_c, 8, 48, 0
15, 102304, Note_on_c, 8, 48, 17
15, 102334, Note_on_c, 8, 48, 0
15, 102336, Note_on_c, 8, 48, 20
15, 102366, Note_on_c, 8, 48, 0
15, 102368, Note_on_c, 8, 48, 18
15, 102398, Note_on_c, 8, 48, 0
15, 102400, Note_on_c, 8, 48, 23
15, 102430, Note_on_c, 8, 48, 0
15, 102432, Note_on_c, 8, 48, 24
15, 102462, Note_on_c, 8, 48, 0
15, 102464, Note_on_c, 8, 48, 25
15, 102494, Note_on_c, 8, 48, 0
15, 102496, Note_on_c, 8, 48, 19
15, 102526, Note_on_c, 8, 48, 0
15, 102528, Note_on_c, 8, 48, 25
15, 102558, Note_on_c, 8, 48, 0
15, 102560, Note_on_c, 8, 48, 22
15, 102590, Note_on_c, 8, 48, 0
15, 102592, Note_on_c, 8, 48, 21
15, 102622, Note_on_c, 8, 48, 0
15, 102624, Note_on_c, 8, 48, 15
15, 102654, Note_on_c, 8, 48, 0
15, 102656, Note_on_c, 8, 48, 20
15, 102686, Note_on_c, 8, 48, 0
15, 102688, Note_on_c, 8, 48, 18
15, 102718, Note_on_c, 8, 48, 0
15, 102720, Note_on_c, 8, 48, 18
15, 102750, Note_on_c, 8, 48, 0
15, 102752, Note_on_c, 8, 48, 21
15, 102782, Note_on_c, 8, 48, 0
15, 102784, Note_on_c, 8, 48, 18
15, 102814, Note_on_c, 8, 48, 0
15, 102816, Note_on_c, 8, 48, 24
15, 102846, Note_on_c, 8, 48, 0
15, 102848, Note_on_c, 8, 48, 24
15, 102878, Note_on_c, 8, 48, 0
15, 102880, Note_on_c, 8, 48, 24
15, 102910, Note_on_c, 8, 48, 0
15, 170496, Note_on_c, 8, 48, 28
15, 170518, Note_on_c, 8, 48, 0
15, 170520, Note_on_c, 8, 48, 30
15, 170686, Note_on_c, 8, 48, 0
15, 170880, Note_on_c, 8, 48, 32
15, 170902, Note_on_c, 8, 48, 0
15, 170904, Note_on_c, 8, 48, 35
15, 171070, Note_on_c, 8, 48, 0
15, 171264, Note_on_c, 8, 48, 35
15, 171286, Note_on_c, 8, 48, 0
15, 171288, Note_on_c, 8, 48, 35
15, 171454, Note_on_c, 8, 48, 0
15, 171648, Note_on_c, 8, 48, 29
15, 171670, Note_on_c, 8, 48, 0
15, 171672, Note_on_c, 8, 48, 32
15, 171838, Note_on_c, 8, 48, 0
15, 172032, Note_on_c, 8, 48, 27
15, 172054, Note_on_c, 8, 48, 0
15, 172056, Note_on_c, 8, 48, 30
15, 172222, Note_on_c, 8, 48, 0
15, 172416, Note_on_c, 8, 48, 35
15, 172438, Note_on_c, 8, 48, 0
15, 172440, Note_on_c, 8, 48, 33
15, 172606, Note_on_c, 8, 48, 0
15, 172800, Note_on_c, 8, 48, 27
15, 172822, Note_on_c, 8, 48, 0
15, 172824, Note_on_c, 8, 48, 32
15, 172990, Note_on_c, 8, 48, 0
15, 173184, Note_on_c, 8, 48, 30
15, 173206, Note_on_c, 8, 48, 0
15, 173208, Note_on_c, 8, 48, 32
15, 173374, Note_on_c, 8, 48, 0
15, 173568, Note_on_c, 8, 45, 26
15, 173630, Note_on_c, 8, 45, 0
15, 173632, Note_on_c, 8, 45, 29
15, 173694, Note_on_c, 8, 45, 0
15, 173696, Note_on_c, 8, 45, 32
15, 173758, Note_on_c, 8, 45, 0
15, 174336, Note_on_c, 8, 45, 32
15, 174398, Note_on_c, 8, 45, 0
15, 174400, Note_on_c, 8, 45, 25
15, 174462, Note_on_c, 8, 45, 0
15, 174464, Note_on_c, 8, 45, 32
15, 174526, Note_on_c, 8, 45, 0
15, 175104, Note_on_c, 8, 45, 33
15, 175166, Note_on_c, 8, 45, 0
15, 175168, Note_on_c, 8, 45, 27
15, 175230, Note_on_c, 8, 45, 0
15, 175232, Note_on_c, 8, 45, 29
15, 175294, Note_on_c, 8, 45, 0
15, 189120, Note_on_c, 8, 44, 44
15, 189182, Note_on_c, 8, 44, 0
15, 189184, Note_on_c, 8, 44, 45
15, 189246, Note_on_c, 8, 44, 0
15, 189248, Note_on_c, 8, 44, 46
15, 189310, Note_on_c, 8, 44, 0
15, 189504, Note_on_c, 8, 44, 46
15, 189566, Note_on_c, 8, 44, 0
15, 189568, Note_on_c, 8, 44, 44
15, 189630, Note_on_c, 8, 44, 0
15, 189632, Note_on_c, 8, 44, 41
15, 189694, Note_on_c, 8, 44, 0
15, 189888, Note_on_c, 8, 44, 40
15, 189950, Note_on_c, 8, 44, 0
15, 189952, Note_on_c, 8, 44, 50
15, 190014, Note_on_c, 8, 44, 0
15, 190016, Note_on_c, 8, 44, 48
15, 190078, Note_on_c, 8, 44, 0
15, 190272, Note_on_c, 8, 44, 46
15, 190334, Note_on_c, 8, 44, 0
15, 190336, Note_on_c, 8, 44, 49
15, 190398, Note_on_c, 8, 44, 0
15, 190400, Note_on_c, 8, 44, 47
15, 190462, Note_on_c, 8, 44, 0
15, 190656, Note_on_c, 8, 44, 50
15, 190718, Note_on_c, 8, 44, 0
15, 190720, Note_on_c, 8, 44, 47
15, 190782, Note_on_c, 8, 44, 0
15, 190784, Note_on_c, 8, 44, 43
15, 190846, Note_on_c, 8, 44, 0
15, 191040, Note_on_c, 8, 44, 47
15, 191102, Note_on_c, 8, 44, 0
15, 191104, Note_on_c, 8, 44, 41
15, 191166, Note_on_c, 8, 44, 0
15, 191168, Note_on_c, 8, 44, 40
15, 191230, Note_on_c, 8, 44, 0
15, 191424, Note_on_c, 8, 44, 49
15, 191486, Note_on_c, 8, 44, 0
15, 191488, Note_on_c, 8, 44, 46
15, 191550, Note_on_c, 8, 44, 0
15, 191552, Note_on_c, 8, 44, 47
15, 191614, Note_on_c, 8, 44, 0
15, 191808, Note_on_c, 8, 44, 43
15, 191870, Note_on_c, 8, 44, 0
15, 191872, Note_on_c, 8, 44, 50
15, 191934, Note_on_c, 8, 44, 0
15, 191936, Note_on_c, 8, 44, 46
15, 191998, Note_on_c, 8, 44, 0
15, 192192, Note_on_c, 8, 44, 50
15, 192254, Note_on_c, 8, 44, 0
15, 192256, Note_on_c, 8, 44, 40
15, 192318, Note_on_c, 8, 44, 0
15, 192320, Note_on_c, 8, 44, 49
15, 192382, Note_on_c, 8, 44, 0
15, 192576, Note_on_c, 8, 44, 49
15, 192638, Note_on_c, 8, 44, 0
15, 192640, Note_on_c, 8, 44, 42
15, 192702, Note_on_c, 8, 44, 0
15, 192704, Note_on_c, 8, 44, 49
15, 192766, Note_on_c, 8, 44, 0
15, 192960, Note_on_c, 8, 44, 49
15, 193022, Note_on_c, 8, 44, 0
15, 193024, Note_on_c, 8, 44, 40
15, 193086, Note_on_c, 8, 44, 0
15, 193088, Note_on_c, 8, 44, 44
15, 193150, Note_on_c, 8, 44, 0
15, 193344, Note_on_c, 8, 44, 47
15, 193406, Note_on_c, 8, 44, 0
15, 193408, Note_on_c, 8, 44, 48
15, 193470, Note_on_c, 8, 44, 0
15, 193472, Note_on_c, 8, 44, 41
15, 193534, Note_on_c, 8, 44, 0
15, 193728, Note_on_c, 8, 44, 50
15, 193790, Note_on_c, 8, 44, 0
15, 193792, Note_on_c, 8, 44, 42
15, 193854, Note_on_c, 8, 44, 0
15, 193856, Note_on_c, 8, 44, 40
15, 193918, Note_on_c, 8, 44, 0
15, 194112, Note_on_c, 8, 44, 44
15, 194174, Note_on_c, 8, 44, 0
15, 194176, Note_on_c, 8, 44, 43
15, 194238, Note_on_c, 8, 44, 0
15, 194240, Note_on_c, 8, 44, 43
15, 194302, Note_on_c, 8, 44, 0
15, 194496, Note_on_c, 8, 44, 44
15, 194558, Note_on_c, 8, 44, 0
15, 194560, Note_on_c, 8, 44, 41
15, 194622, Note_on_c, 8, 44, 0
15, 194624, Note_on_c, 8, 44, 45
15, 194686, Note_on_c, 8, 44, 0
15, 194880, Note_on_c, 8, 44, 49
15, 194942, Note_on_c, 8, 44, 0
15, 194944, Note_on_c, 8, 44, 44
15, 195006, Note_on_c, 8, 44, 0
15, 195008, Note_on_c, 8, 44, 43
15, 195070, Note_on_c, 8, 44, 0
15, 195264, Note_on_c, 8, 44, 40
15, 195326, Note_on_c, 8, 44, 0
15, 195328, Note_on_c, 8, 44, 46
15, 195390, Note_on_c, 8, 44, 0
15, 195392, Note_on_c, 8, 44, 41
15, 195454, Note_on_c, 8, 44, 0
15, 195648, Note_on_c, 8, 44, 44
15, 195710, Note_on_c, 8, 44, 0
15, 195712, Note_on_c, 8, 44, 40
15, 195774, Note_on_c, 8, 44, 0
15, 195776, Note_on_c, 8, 44, 47
15, 195838, Note_on_c, 8, 44, 0
15, 196032, Note_on_c, 8, 44, 92
15, 196094, Note_on_c, 8, 44, 0
15, 196096, Note_on_c, 8, 44, 97
15, 196158, Note_on_c, 8, 44, 0
15, 196160, Note_on_c, 8, 44, 97
15, 196222, Note_on_c, 8, 44, 0
15, 196416, Note_on_c, 8, 44, 91
15, 196478, Note_on_c, 8, 44, 0
15, 196480, Note_on_c, 8, 44, 91
15, 196542, Note_on_c, 8, 44, 0
15, 196544, Note_on_c, 8, 44, 92
15, 196606, Note_on_c, 8, 44, 0
15, 196800, Note_on_c, 8, 44, 96
15, 196862, Note_on_c, 8, 44, 0
15, 196864, Note_on_c, 8, 44, 91
15, 196926, Note_on_c, 8, 44, 0
15, 196928, Note_on_c, 8, 44, 90
15, 196990, Note_on_c, 8, 44, 0
15, 197184, Note_on_c, 8, 44, 97
15, 197246, Note_on_c, 8, 44, 0
15, 197248, Note_on_c, 8, 44, 96
15, 197310, Note_on_c, 8, 44, 0
15, 197312, Note_on_c, 8, 44, 87
15, 197374, Note_on_c, 8, 44, 0
15, 197568, Note_on_c, 8, 44, 96
15, 197630, Note_on_c, 8, 44, 0
15, 197632, Note_on_c, 8, 44, 96
15, 197694, Note_on_c, 8, 44, 0
15, 197696, Note_on_c, 8, 44, 88
15, 197758, Note_on_c, 8, 44, 0
15, 197952, Note_on_c, 8, 44, 87
15, 198014, Note_on_c, 8, 44, 0
15, 198016, Note_on_c, 8, 44, 97
15, 198078, Note_on_c, 8, 44, 0
15, 198080, Note_on_c, 8, 44, 90
15, 198142, Note_on_c, 8, 44, 0
15, 198336, Note_on_c, 8, 44, 96
15, 198398, Note_on_c, 8, 44, 0
15, 198400, Note_on_c, 8, 44, 90
15, 198462, Note_on_c, 8, 44, 0
15, 198464, Note_on_c, 8, 44, 94
15, 198526, Note_on_c, 8, 44, 0
15, 198720, Note_on_c, 8, 44, 97
15, 198782, Note_on_c, 8, 44, 0
15, 198784, Note_on_c, 8, 44, 95
15, 198846, Note_on_c, 8, 44, 0
15, 198848, Note_on_c, 8, 44, 97
15, 198910, Note_on_c, 8, 44, 0
15, 208128, Note_on_c, 8, 49, 109
15, 208158, Note_on_c, 8, 49, 0
15, 208160, Note_on_c, 8, 49, 110
15, 208190, Note_on_c, 8, 49, 0
15, 208192, Note_on_c, 8, 49, 103
15, 208222, Note_on_c, 8, 49, 0
15, 208224, Note_on_c, 8, 49, 113
15, 208254, Note_on_c, 8, 49, 0
15, 208256, Note_on_c, 8, 49, 107
15, 208286, Note_on_c, 8, 49, 0
15, 208288, Note_on_c, 8, 49, 107
15, 208318, Note_on_c, 8, 49, 0
15, 208320, Note_on_c, 8, 49, 104
15, 208350, Note_on_c, 8, 49, 0
15, 208352, Note_on_c, 8, 49, 109
15, 208382, Note_on_c, 8, 49, 0
15, 208384, Note_on_c, 8, 49, 105
15, 208414, Note_on_c, 8, 49, 0
15, 208416, Note_on_c, 8, 49, 112
15, 208446, Note_on_c, 8, 49, 0
15, 208448, Note_on_c, 8, 49, 111
15, 208478, Note_on_c, 8, 49, 0
15, 208480, Note_on_c, 8, 49, 111
15, 208510, Note_on_c, 8, 49, 0
15, 208512, Note_on_c, 8, 49, 113
15, 208542, Note_on_c, 8, 49, 0
15, 208544, Note_on_c, 8, 49, 111
15, 208574, Note_on_c, 8, 49, 0
15, 208576, Note_on_c, 8, 49, 107
15, 208606, Note_on_c, 8, 49, 0
15, 208608, Note_on_c, 8, 49, 113
15, 208638, Note_on_c, 8, 49, 0
15, 208640, Note_on_c, 8, 49, 111
15, 208670, Note_on_c, 8, 49, 0
15, 208672, Note_on_c, 8, 49, 110
15, 208702, Note_on_c, 8, 49, 0
15, 208704, Note_on_c, 8, 49, 113
15, 208734, Note_on_c, 8, 49, 0
15, 208736, Note_on_c, 8, 49, 113
15, 208766, Note_on_c, 8, 49, 0
15, 208768, Note_on_c, 8, 49, 103
15, 208798, Note_on_c, 8, 49, 0
15, 208800, Note_on_c, 8, 49, 107
15, 208830, Note_on_c, 8, 49, 0
15, 208832, Note_on_c, 8, 49, 109
15, 208862, Note_on_c, 8, 49, 0
15, 208864, Note_on_c, 8, 49, 107
15, 208894, Note_on_c, 8, 49, 0
15, 208896, Note_on_c, 8, 49, 110
15, 208926, Note_on_c, 8, 49, 0
15, 208928, Note_on_c, 8, 49, 109
15, 208958, Note_on_c, 8, 49, 0
15, 208960, Note_on_c, 8, 49, 111
15, 208990, Note_on_c, 8, 49, 0
15, 208992, Note_on_c, 8, 49, 105
15, 209022, Note_on_c, 8, 49, 0
15, 209024, Note_on_c, 8, 49, 112
15, 209054, Note_on_c, 8, 49, 0
15, 209056, Note_on_c, 8, 49, 103
15, 209086, Note_on_c, 8, 49, 0
15, 209088, Note_on_c, 8, 49, 104
15, 209118, Note_on_c, 8, 49, 0
15, 209120, Note_on_c, 8, 49, 103
15, 209150, Note_on_c, 8, 49, 0
15, 209152, Note_on_c, 8, 49, 106
15, 209182, Note_on_c, 8, 49, 0
15, 209184, Note_on_c, 8, 49, 106
15, 209214, Note_on_c, 8, 49, 0
15, 209216, Note_on_c, 8, 49, 106
15, 209246, Note_on_c, 8, 49, 0
15, 209248, Note_on_c, 8, 49, 111
15, 209278, Note_on_c, 8, 49, 0
15, 209280, Note_on_c, 8, 49, 103
15, 209310, Note_on_c, 8, 49, 0
15, 209312, Note_on_c, 8, 49, 108
15, 209342, Note_on_c, 8, 49, 0
15, 209344, Note_on_c, 8, 49, 109
15, 209374, Note_on_c, 8, 49, 0
15, 209376, Note_on_c, 8, 49, 103
15, 209406, Note_on_c, 8, 49, 0
15, 209408, Note_on_c, 8, 49, 103
15, 209438, Note_on_c, 8, 49, 0
15, 209440, Note_on_c, 8, 49, 113
15, 209470, Note_on_c, 8, 49, 0
15, 209472, Note_on_c, 8, 49, 108
15, 209502, Note_on_c, 8, 49, 0
15, 209504, Note_on_c, 8, 49, 110
15, 209534, Note_on_c, 8, 49, 0
15, 209536, Note_on_c, 8, 49, 107
15, 209566, Note_on_c, 8, 49, 0
15, 209568, Note_on_c, 8, 49, 110
15, 209598, Note_on_c, 8, 49, 0
15, 209600, Note_on_c, 8, 49, 110
15, 209630, Note_on_c, 8, 49, 0
15, 209632, Note_on_c, 8, 49, 103
15, 209662, Note_on_c, 8, 49, 0
15, 212736, Note_on_c, 8, 49, 111
15, 212766, Note_on_c, 8, 49, 0
15, 212768, Note_on_c, 8, 49, 111
15, 212798, Note_on_c, 8, 49, 0
15, 212800, Note_on_c, 8, 49, 104
15, 212830, Note_on_c, 8, 49, 0
15, 212832, Note_on_c, 8, 49, 111
15, 212862, Note_on_c, 8, 49, 0
15, 212864, Note_on_c, 8, 49, 110
15, 212894, Note_on_c, 8, 49, 0
15, 212896, Note_on_c, 8, 49, 105
15, 212926, Note_on_c, 8, 49, 0
15, 212928, Note_on_c, 8, 49, 112
15, 212958, Note_on_c, 8, 49, 0
15, 212960, Note_on_c, 8, 49, 109
15, 212990, Note_on_c, 8, 49, 0
15, 212992, Note_on_c, 8, 49, 110
15, 213022, Note_on_c, 8, 49, 0
15, 213024, Note_on_c, 8, 49, 106
15, 213054, Note_on_c, 8, 49, 0
15, 213056, Note_on_c, 8, 49, 112
15, 213086, Note_on_c, 8, 49, 0
15, 213088, Note_on_c, 8, 49, 109
15, 213118, Note_on_c, 8, 49, 0
15, 213120, Note_on_c, 8, 49, 109
15, 213150, Note_on_c, 8, 49, 0
15, 213152, Note_on_c, 8, 49, 108
15, 213182, Note_on_c, 8, 49, 0
15, 213184, Note_on_c, 8, 49, 110
15, 213214, Note_on_c, 8, 49, 0
15, 213216, Note_on_c, 8, 49, 108
15, 213246, Note_on_c, 8, 49, 0
15, 213248, Note_on_c, 8, 49, 112
15, 213278, Note_on_c, 8, 49, 0
15, 213280, Note_on_c, 8, 49, 109
15, 213310, Note_on_c, 8, 49, 0
15, 213312, Note_on_c, 8, 49, 112
15, 213342, Note_on_c, 8, 49, 0
15, 213344, Note_on_c, 8, 49, 108
15, 213374, Note_on_c, 8, 49, 0
15, 213376, Note_on_c, 8, 49, 109
15, 213406, Note_on_c, 8, 49, 0
15, 213408, Note_on_c, 8, 49, 106
15, 213438, Note_on_c, 8, 49, 0
15, 213440, Note_on_c, 8, 49, 104
15, 213470, Note_on_c, 8, 49, 0
15, 213472, Note_on_c, 8, 49, 105
15, 213502, Note_on_c, 8, 49, 0
15, 213504, Note_on_c, 8, 49, 104
15, 213534, Note_on_c, 8, 49, 0
15, 213536, Note_on_c, 8, 49, 111
15, 213566, Note_on_c, 8, 49, 0
15, 213568, Note_on_c, 8, 49, 109
15, 213598, Note_on_c, 8, 49, 0
15, 213600, Note_on_c, 8, 49, 108
15, 213630, Note_on_c, 8, 49, 0
15, 213632, Note_on_c, 8, 49, 103
15, 213662, Note_on_c, 8, 49, 0
15, 213664, Note_on_c, 8, 49, 110
15, 213694, Note_on_c, 8, 49, 0
15, 220416, Note_on_c, 8, 56, 104
15, 220542, Note_on_c, 8, 56, 0
15, 220544, Note_on_c, 8, 49, 108
15, 220670, Note_on_c, 8, 49, 0
15, 220672, Note_on_c, 8, 56, 113
15, 220798, Note_on_c, 8, 56, 0
15, 220800, Note_on_c, 8, 49, 107
15, 220926, Note_on_c, 8, 49, 0
15, 220928, Note_on_c, 8, 56, 106
15, 221054, Note_on_c, 8, 56, 0
15, 221056, Note_on_c, 8, 49, 113
15, 221182, Note_on_c, 8, 49, 0
15, 221184, Note_on_c, 8, 56, 106
15, 221310, Note_on_c, 8, 56, 0
15, 221312, Note_on_c, 8, 49, 108
15, 221438, Note_on_c, 8, 49, 0
15, 221440, Note_on_c, 8, 56, 108
15, 221566, Note_on_c, 8, 56, 0
15, 221568, Note_on_c, 8, 49, 108
15, 221694, Note_on_c, 8, 49, 0
15, 221696, Note_on_c, 8, 56, 106
15, 221822, Note_on_c, 8, 56, 0
15, 221824, Note_on_c, 8, 49, 106
15, 221950, Note_on_c, 8, 49, 0
15, 221952, Note_on_c, 8, 56, 105
15, 222078, Note_on_c, 8, 56, 0
15, 222080, Note_on_c, 8, 49, 106
15, 222206, Note_on_c, 8, 49, 0
15, 222208, Note_on_c, 8, 56, 107
15, 222334, Note_on_c, 8, 56, 0
15, 222336, Note_on_c, 8, 49, 112
15, 222462, Note_on_c, 8, 49, 0
15, 222464, Note_on_c, 8, 56, 109
15, 222590, Note_on_c, 8, 56, 0
15, 222592, Note_on_c, 8, 49, 107
15, 222718, Note_on_c, 8, 49, 0
15, 222720, Note_on_c, 8, 56, 113
15, 222846, Note_on_c, 8, 56, 0
15, 222848, Note_on_c, 8, 49, 108
15, 222974, Note_on_c, 8, 49, 0
15, 222976, Note_on_c, 8, 56, 111
15, 223102, Note_on_c, 8, 56, 0
15, 223104, Note_on_c, 8, 49, 104
15, 223230, Note_on_c, 8, 49, 0
15, 223232, Note_on_c, 8, 56, 109
15, 223358, Note_on_c, 8, 56, 0
15, 223360, Note_on_c, 8, 49, 108
15, 223486, Note_on_c, 8, 49, 0
15, 225168, Note_on_c, 8, 49, 104
15, 225214, Note_on_c, 8, 49, 0
15, 225216, Note_on_c, 8, 49, 105
15, 225310, Note_on_c, 8, 49, 0
15, 225310, End_track
16, 0, Start_track
16, 0, Title_t, "Grancassa"
16, 0, MIDI_port, 0
16, 156, Control_c, 8, 0, 0
16, 157, Control_c, 8, 32, 0
16, 158, Program_c, 8, 47
16, 159, Control_c, 8, 7, 92
16, 160, Control_c, 8, 91, 64
16, 1536, Note_on_c, 8, 35, 29
16, 1566, Note_on_c, 8, 35, 0
16, 1568, Note_on_c, 8, 35, 33
16, 1598, Note_on_c, 8, 35, 0
16, 1600, Note_on_c, 8, 35, 29
16, 1630, Note_on_c, 8, 35, 0
16, 1632, Note_on_c, 8, 35, 33
16, 1662, Note_on_c, 8, 35, 0
16, 1664, Note_on_c, 8, 35, 32
16, 1694, Note_on_c, 8, 35, 0
16, 1696, Note_on_c, 8, 35, 31
16, 1726, Note_on_c, 8, 35, 0
16, 1728, Note_on_c, 8, 35, 25
16, 1758, Note_on_c, 8, 35, 0
16, 1760, Note_on_c, 8, 35, 30
16, 1790, Note_on_c, 8, 35, 0
16, 1792, Note_on_c, 8, 35, 34
16, 1822, Note_on_c, 8, 35, 0
16, 1824, Note_on_c, 8, 35, 34
16, 1854, Note_on_c, 8, 35, 0
16, 1856, Note_on_c, 8, 35, 30
16, 1886, Note_on_c, 8, 35, 0
16, 1888, Note_on_c, 8, 35, 25
16, 1918, Note_on_c, 8, 35, 0
16, 1920, Note_on_c, 8, 35, 27
16, 1950, Note_on_c, 8, 35, 0
16, 1952, Note_on_c, 8, 35, 29
16, 1982, Note_on_c, 8, 35, 0
16, 1984, Note_on_c, 8, 35, 29
16, 2014, Note_on_c, 8, 35, 0
16, 2016, Note_on_c, 8, 35, 27
16, 2046, Note_on_c, 8, 35, 0
16, 2048, Note_on_c, 8, 35, 32
16, 2078, Note_on_c, 8, 35, 0
16, 2080, Note_on_c, 8, 35, 34
16, 2110, Note_on_c, 8, 35, 0
16, 2112, Note_on_c, 8, 35, 35
16, 2142, Note_on_c, 8, 35, 0
16, 2144, Note_on_c, 8, 35, 32
16, 2174, Note_on_c, 8, 35, 0
16, 2176, Note_on_c, 8, 35, 33
16, 2206, Note_on_c, 8, 35, 0
16, 2208, Note_on_c, 8, 35, 34
16, 2238, Note_on_c, 8, 35, 0
16, 2240, Note_on_c, 8, 35, 25
16, 2270, Note_on_c, 8, 35, 0
16, 2272, Note_on_c, 8, 35, 25
16, 2302, Note_on_c, 8, 35, 0
16, 2304, Note_on_c, 8, 35, 35
16, 2334, Note_on_c, 8, 35, 0
16, 2336, Note_on_c, 8, 35, 28
16, 2366, Note_on_c, 8, 35, 0
16, 2368, Note_on_c, 8, 35, 33
16, 2398, Note_on_c, 8, 35, 0
16, 2400, Note_on_c, 8, 35, 30
16, 2430, Note_on_c, 8, 35, 0
16, 2432, Note_on_c, 8, 35, 32
16, 2462, Note_on_c, 8, 35, 0
16, 2464, Note_on_c, 8, 35, 34
16, 2494, Note_on_c, 8, 35, 0
16, 2496, Note_on_c, 8, 35, 33
16, 2526, Note_on_c, 8, 35, 0
16, 2528, Note_on_c, 8, 35, 29
16, 2558, Note_on_c, 8, 35, 0
16, 2560, Note_on_c, 8, 35, 29
16, 2590, Note_on_c, 8, 35, 0
16, 2592, Note_on_c, 8, 35, 25
16, 2622, Note_on_c, 8, 35, 0
16, 2624, Note_on_c, 8, 35, 33
16, 2654, Note_on_c, 8, 35, 0
16, 2656, Note_on_c, 8, 35, 25
16, 2686, Note_on_c, 8, 35, 0
16, 2688, Note_on_c, 8, 35, 35
16, 2718, Note_on_c, 8, 35, 0
16, 2720, Note_on_c, 8, 35, 27
16, 2750, Note_on_c, 8, 35, 0
16, 2752, Note_on_c, 8, 35, 26
16, 2782, Note_on_c, 8, 35, 0
16, 2784, Note_on_c, 8, 35, 35
16, 2814, Note_on_c, 8, 35, 0
16, 2816, Note_on_c, 8, 35, 30
16, 2846, Note_on_c, 8, 35, 0
16, 2848, Note_on_c, 8, 35, 25
16, 2878, Note_on_c, 8, 35, 0
16, 2880, Note_on_c, 8, 35, 28
16, 2910, Note_on_c, 8, 35, 0
16, 2912, Note_on_c, 8, 35, 35
16, 2942, Note_on_c, 8, 35, 0
16, 2944, Note_on_c, 8, 35, 28
16, 2974, Note_on_c, 8, 35, 0
16, 2976, Note_on_c, 8, 35, 31
16, 3006, Note_on_c, 8, 35, 0
16, 3008, Note_on_c, 8, 35, 25
16, 3038, Note_on_c, 8, 35, 0
16, 3040, Note_on_c, 8, 35, 26
16, 3070, Note_on_c, 8, 35, 0
16, 3072, Note_on_c, 8, 35, 32
16, 3102, Note_on_c, 8, 35, 0
16, 3104, Note_on_c, 8, 35, 26
16, 3134, Note_on_c, 8, 35, 0
16, 3136, Note_on_c, 8, 35, 33
16, 3166, Note_on_c, 8, 35, 0
16, 3168, Note_on_c, 8, 35, 33
16, 3198, Note_on_c, 8, 35, 0
16, 3200, Note_on_c, 8, 35, 33
16, 3230, Note_on_c, 8, 35, 0
16, 3232, Note_on_c, 8, 35, 34
16, 3262, Note_on_c, 8, 35, 0
16, 3264, Note_on_c, 8, 35, 30
16, 3294, Note_on_c, 8, 35, 0
16, 3296, Note_on_c, 8, 35, 31
16, 3326, Note_on_c, 8, 35, 0
16, 3328, Note_on_c, 8, 35, 29
16, 3358, Note_on_c, 8, 35, 0
16, 3360, Note_on_c, 8, 35, 27
16, 3390, Note_on_c, 8, 35, 0
16, 3392, Note_on_c, 8, 35, 28
16, 3422, Note_on_c, 8, 35, 0
16, 3424, Note_on_c, 8, 35, 28
16, 3454, Note_on_c, 8, 35, 0
16, 3456, Note_on_c, 8, 35, 26
16, 3486, Note_on_c, 8, 35, 0
16, 3488, Note_on_c, 8, 35, 32
16, 3518, Note_on_c, 8, 35, 0
16, 3520, Note_on_c, 8, 35, 28
16, 3550, Note_on_c, 8, 35, 0
16, 3552, Note_on_c, 8, 35, 29
16, 3582, Note_on_c, 8, 35, 0
16, 3584, Note_on_c, 8, 35, 30
16, 3614, Note_on_c, 8, 35, 0
16, 3616, Note_on_c, 8, 35, 31
16, 3646, Note_on_c, 8, 35, 0
16, 3648, Note_on_c, 8, 35, 34
16, 3678, Note_on_c, 8, 35, 0
16, 3680, Note_on_c, 8, 35, 33
16, 3710, Note_on_c, 8, 35, 0
16, 3712, Note_on_c, 8, 35, 33
16, 3742, Note_on_c, 8, 35, 0
16, 3744, Note_on_c, 8, 35, 32
16, 3774, Note_on_c, 8, 35, 0
16, 3776, Note_on_c, 8, 35, 33
16, 3806, Note_on_c, 8, 35, 0
16, 3808, Note_on_c, 8, 35, 27
16, 3838, Note_on_c, 8, 35, 0
16, 3840, Note_on_c, 8, 35, 35
16, 3870, Note_on_c, 8, 35, 0
16, 3872, Note_on_c, 8, 35, 33
16, 3902, Note_on_c, 8, 35, 0
16, 3904, Note_on_c, 8, 35, 30
16, 3934, Note_on_c, 8, 35, 0
16, 3936, Note_on_c, 8, 35, 26
16, 3966, Note_on_c, 8, 35, 0
16, 3968, Note_on_c, 8, 35, 35
16, 3998, Note_on_c, 8, 35, 0
16, 4000, Note_on_c, 8, 35, 33
16, 4030, Note_on_c, 8, 35, 0
16, 4032, Note_on_c, 8, 35, 25
16, 4062, Note_on_c, 8, 35, 0
16, 4064, Note_on_c, 8, 35, 29
16, 4094, Note_on_c, 8, 35, 0
16, 4096, Note_on_c, 8, 35, 35
16, 4126, Note_on_c, 8, 35, 0
16, 4128, Note_on_c, 8, 35, 32
16, 4158, Note_on_c, 8, 35, 0
16, 4160, Note_on_c, 8, 35, 33
16, 4190, Note_on_c, 8, 35, 0
16, 4192, Note_on_c, 8, 35, 35
16, 4222, Note_on_c, 8, 35, 0
16, 4224, Note_on_c, 8, 35, 28
16, 4254, Note_on_c, 8, 35, 0
16, 4256, Note_on_c, 8, 35, 35
16, 4286, Note_on_c, 8, 35, 0
16, 4288, Note_on_c, 8, 35, 25
16, 4318, Note_on_c, 8, 35, 0
16, 4320, Note_on_c, 8, 35, 33
16, 4350, Note_on_c, 8, 35, 0
16, 4352, Note_on_c, 8, 35, 25
16, 4382, Note_on_c, 8, 35, 0
16, 4384, Note_on_c, 8, 35, 27
16, 4414, Note_on_c, 8, 35, 0
16, 4416, Note_on_c, 8, 35, 29
16, 4446, Note_on_c, 8, 35, 0
16, 4448, Note_on_c, 8, 35, 32
16, 4478, Note_on_c, 8, 35, 0
16, 4480, Note_on_c, 8, 35, 29
16, 4510, Note_on_c, 8, 35, 0
16, 4512, Note_on_c, 8, 35, 30
16, 4542, Note_on_c, 8, 35, 0
16, 4544, Note_on_c, 8, 35, 29
16, 4574, Note_on_c, 8, 35, 0
16, 4576, Note_on_c, 8, 35, 27
16, 4606, Note_on_c, 8, 35, 0
16, 4608, Note_on_c, 8, 35, 32
16, 4638, Note_on_c, 8, 35, 0
16, 4640, Note_on_c, 8, 35, 30
16, 4670, Note_on_c, 8, 35, 0
16, 4672, Note_on_c, 8, 35, 33
16, 4702, Note_on_c, 8, 35, 0
16, 4704, Note_on_c, 8, 35, 26
16, 4734, Note_on_c, 8, 35, 0
16, 4736, Note_on_c, 8, 35, 32
16, 4766, Note_on_c, 8, 35, 0
16, 4768, Note_on_c, 8, 35, 28
16, 4798, Note_on_c, 8, 35, 0
16, 4800, Note_on_c, 8, 35, 33
16, 4830, Note_on_c, 8, 35, 0
16, 4832, Note_on_c, 8, 35, 33
16, 4862, Note_on_c, 8, 35, 0
16, 4864, Note_on_c, 8, 35, 32
16, 4894, Note_on_c, 8, 35, 0
16, 4896, Note_on_c, 8, 35, 27
16, 4926, Note_on_c, 8, 35, 0
16, 4928, Note_on_c, 8, 35, 34
16, 4958, Note_on_c, 8, 35, 0
16, 4960, Note_on_c, 8, 35, 28
16, 4990, Note_on_c, 8, 35, 0
16, 4992, Note_on_c, 8, 35, 25
16, 5022, Note_on_c, 8, 35, 0
16, 5024, Note_on_c, 8, 35, 30
16, 5054, Note_on_c, 8, 35, 0
16, 5056, Note_on_c, 8, 35, 34
16, 5086, Note_on_c, 8, 35, 0
16, 5088, Note_on_c, 8, 35, 34
16, 5118, Note_on_c, 8, 35, 0
16, 5120, Note_on_c, 8, 35, 31
16, 5150, Note_on_c, 8, 35, 0
16, 5152, Note_on_c, 8, 35, 32
16, 5182, Note_on_c, 8, 35, 0
16, 5184, Note_on_c, 8, 35, 30
16, 5214, Note_on_c, 8, 35, 0
16, 5216, Note_on_c, 8, 35, 33
16, 5246, Note_on_c, 8, 35, 0
16, 5248, Note_on_c, 8, 35, 33
16, 5278, Note_on_c, 8, 35, 0
16, 5280, Note_on_c, 8, 35, 30
16, 5310, Note_on_c, 8, 35, 0
16, 5312, Note_on_c, 8, 35, 32
16, 5342, Note_on_c, 8, 35, 0
16, 5344, Note_on_c, 8, 35, 31
16, 5374, Note_on_c, 8, 35, 0
16, 5376, Note_on_c, 8, 35, 27
16, 5406, Note_on_c, 8, 35, 0
16, 5408, Note_on_c, 8, 35, 25
16, 5438, Note_on_c, 8, 35, 0
16, 5440, Note_on_c, 8, 35, 32
16, 5470, Note_on_c, 8, 35, 0
16, 5472, Note_on_c, 8, 35, 27
16, 5502, Note_on_c, 8, 35, 0
16, 5504, Note_on_c, 8, 35, 27
16, 5534, Note_on_c, 8, 35, 0
16, 5536, Note_on_c, 8, 35, 26
16, 5566, Note_on_c, 8, 35, 0
16, 5568, Note_on_c, 8, 35, 34
16, 5598, Note_on_c, 8, 35, 0
16, 5600, Note_on_c, 8, 35, 35
16, 5630, Note_on_c, 8, 35, 0
16, 5632, Note_on_c, 8, 35, 29
16, 5662, Note_on_c, 8, 35, 0
16, 5664, Note_on_c, 8, 35, 29
16, 5694, Note_on_c, 8, 35, 0
16, 5696, Note_on_c, 8, 35, 28
16, 5726, Note_on_c, 8, 35, 0
16, 5728, Note_on_c, 8, 35, 34
16, 5758, Note_on_c, 8, 35, 0
16, 5760, Note_on_c, 8, 35, 27
16, 5790, Note_on_c, 8, 35, 0
16, 5792, Note_on_c, 8, 35, 28
16, 5822, Note_on_c, 8, 35, 0
16, 5824, Note_on_c, 8, 35, 32
16, 5854, Note_on_c, 8, 35, 0
16, 5856, Note_on_c, 8, 35, 31
16, 5886, Note_on_c, 8, 35, 0
16, 5888, Note_on_c, 8, 35, 35
16, 5918, Note_on_c, 8, 35, 0
16, 5920, Note_on_c, 8, 35, 32
16, 5950, Note_on_c, 8, 35, 0
16, 5952, Note_on_c, 8, 35, 29
16, 5982, Note_on_c, 8, 35, 0
16, 5984, Note_on_c, 8, 35, 33
16, 6014, Note_on_c, 8, 35, 0
16, 6016, Note_on_c, 8, 35, 26
16, 6046, Note_on_c, 8, 35, 0
16, 6048, Note_on_c, 8, 35, 32
16, 6078, Note_on_c, 8, 35, 0
16, 6080, Note_on_c, 8, 35, 35
16, 6110, Note_on_c, 8, 35, 0
16, 6112, Note_on_c, 8, 35, 34
16, 6142, Note_on_c, 8, 35, 0
16, 6144, Note_on_c, 8, 35, 27
16, 6174, Note_on_c, 8, 35, 0
16, 6176, Note_on_c, 8, 35, 25
16, 6206, Note_on_c, 8, 35, 0
16, 6208, Note_on_c, 8, 35, 32
16, 6238, Note_on_c, 8, 35, 0
16, 6240, Note_on_c, 8, 35, 33
16, 6270, Note_on_c, 8, 35, 0
16, 6272, Note_on_c, 8, 35, 34
16, 6302, Note_on_c, 8, 35, 0
16, 6304, Note_on_c, 8, 35, 28
16, 6334, Note_on_c, 8, 35, 0
16, 6336, Note_on_c, 8, 35, 32
16, 6366, Note_on_c, 8, 35, 0
16, 6368, Note_on_c, 8, 35, 31
16, 6398, Note_on_c, 8, 35, 0
16, 6400, Note_on_c, 8, 35, 35
16, 6430, Note_on_c, 8, 35, 0
16, 6432, Note_on_c, 8, 35, 29
16, 6462, Note_on_c, 8, 35, 0
16, 6464, Note_on_c, 8, 35, 29
16, 6494, Note_on_c, 8, 35, 0
16, 6496, Note_on_c, 8, 35, 27
16, 6526, Note_on_c, 8, 35, 0
16, 6528, Note_on_c, 8, 35, 26
16, 6558, Note_on_c, 8, 35, 0
16, 6560, Note_on_c, 8, 35, 34
16, 6590, Note_on_c, 8, 35, 0
16, 6592, Note_on_c, 8, 35, 33
16, 6622, Note_on_c, 8, 35, 0
16, 6624, Note_on_c, 8, 35, 27
16, 6654, Note_on_c, 8, 35, 0
16, 6656, Note_on_c, 8, 35, 30
16, 6686, Note_on_c, 8, 35, 0
16, 6688, Note_on_c, 8, 35, 27
16, 6718, Note_on_c, 8, 35, 0
16, 6720, Note_on_c, 8, 35, 27
16, 6750, Note_on_c, 8, 35, 0
16, 6752, Note_on_c, 8, 35, 27
16, 6782, Note_on_c, 8, 35, 0
16, 6784, Note_on_c, 8, 35, 35
16, 6814, Note_on_c, 8, 35, 0
16, 6816, Note_on_c, 8, 35, 27
16, 6846, Note_on_c, 8, 35, 0
16, 6848, Note_on_c, 8, 35, 25
16, 6878, Note_on_c, 8, 35, 0
16, 6880, Note_on_c, 8, 35, 32
16, 6910, Note_on_c, 8, 35, 0
16, 6912, Note_on_c, 8, 35, 29
16, 6942, Note_on_c, 8, 35, 0
16, 6944, Note_on_c, 8, 35, 30
16, 6974, Note_on_c, 8, 35, 0
16, 6976, Note_on_c, 8, 35, 31
16, 7006, Note_on_c, 8, 35, 0
16, 7008, Note_on_c, 8, 35, 25
16, 7038, Note_on_c, 8, 35, 0
16, 7040, Note_on_c, 8, 35, 28
16, 7070, Note_on_c, 8, 35, 0
16, 7072, Note_on_c, 8, 35, 26
16, 7102, Note_on_c, 8, 35, 0
16, 7104, Note_on_c, 8, 35, 32
16, 7134, Note_on_c, 8, 35, 0
16, 7136, Note_on_c, 8, 35, 26
16, 7166, Note_on_c, 8, 35, 0
16, 7168, Note_on_c, 8, 35, 25
16, 7198, Note_on_c, 8, 35, 0
16, 7200, Note_on_c, 8, 35, 29
16, 7230, Note_on_c, 8, 35, 0
16, 7232, Note_on_c, 8, 35, 30
16, 7262, Note_on_c, 8, 35, 0
16, 7264, Note_on_c, 8, 35, 25
16, 7294, Note_on_c, 8, 35, 0
16, 7296, Note_on_c, 8, 35, 26
16, 7326, Note_on_c, 8, 35, 0
16, 7328, Note_on_c, 8, 35, 35
16, 7358, Note_on_c, 8, 35, 0
16, 7360, Note_on_c, 8, 35, 31
16, 7390, Note_on_c, 8, 35, 0
16, 7392, Note_on_c, 8, 35, 34
16, 7422, Note_on_c, 8, 35, 0
16, 7424, Note_on_c, 8, 35, 33
16, 7454, Note_on_c, 8, 35, 0
16, 7456, Note_on_c, 8, 35, 31
16, 7486, Note_on_c, 8, 35, 0
16, 7488, Note_on_c, 8, 35, 27
16, 7518, Note_on_c, 8, 35, 0
16, 7520, Note_on_c, 8, 35, 31
16, 7550, Note_on_c, 8, 35, 0
16, 7552, Note_on_c, 8, 35, 27
16, 7582, Note_on_c, 8, 35, 0
16, 7584, Note_on_c, 8, 35, 35
16, 7614, Note_on_c, 8, 35, 0
16, 7616, Note_on_c, 8, 35, 32
16, 7646, Note_on_c, 8, 35, 0
16, 7648, Note_on_c, 8, 35, 35
16, 7678, Note_on_c, 8, 35, 0
16, 7680, Note_on_c, 8, 35, 32
16, 7710, Note_on_c, 8, 35, 0
16, 7712, Note_on_c, 8, 35, 31
16, 7742, Note_on_c, 8, 35, 0
16, 7744, Note_on_c, 8, 35, 26
16, 7774, Note_on_c, 8, 35, 0
16, 7776, Note_on_c, 8, 35, 29
16, 7806, Note_on_c, 8, 35, 0
16, 7808, Note_on_c, 8, 35, 34
16, 7838, Note_on_c, 8, 35, 0
16, 7840, Note_on_c, 8, 35, 31
16, 7870, Note_on_c, 8, 35, 0
16, 7872, Note_on_c, 8, 35, 27
16, 7902, Note_on_c, 8, 35, 0
16, 7904, Note_on_c, 8, 35, 27
16, 7934, Note_on_c, 8, 35, 0
16, 7936, Note_on_c, 8, 35, 29
16, 7966, Note_on_c, 8, 35, 0
16, 7968, Note_on_c, 8, 35, 28
16, 7998, Note_on_c, 8, 35, 0
16, 8000, Note_on_c, 8, 35, 26
16, 8030, Note_on_c, 8, 35, 0
16, 8032, Note_on_c, 8, 35, 32
16, 8062, Note_on_c, 8, 35, 0
16, 8064, Note_on_c, 8, 35, 26
16, 8094, Note_on_c, 8, 35, 0
16, 8096, Note_on_c, 8, 35, 30
16, 8126, Note_on_c, 8, 35, 0
16, 8128, Note_on_c, 8, 35, 27
16, 8158, Note_on_c, 8, 35, 0
16, 8160, Note_on_c, 8, 35, 25
16, 8190, Note_on_c, 8, 35, 0
16, 8192, Note_on_c, 8, 35, 26
16, 8222, Note_on_c, 8, 35, 0
16, 8224, Note_on_c, 8, 35, 26
16, 8254, Note_on_c, 8, 35, 0
16, 8256, Note_on_c, 8, 35, 29
16, 8286, Note_on_c, 8, 35, 0
16, 8288, Note_on_c, 8, 35, 35
16, 8318, Note_on_c, 8, 35, 0
16, 8320, Note_on_c, 8, 35, 31
16, 8350, Note_on_c, 8, 35, 0
16, 8352, Note_on_c, 8, 35, 35
16, 8382, Note_on_c, 8, 35, 0
16, 8384, Note_on_c, 8, 35, 30
16, 8414, Note_on_c, 8, 35, 0
16, 8416, Note_on_c, 8, 35, 26
16, 8446, Note_on_c, 8, 35, 0
16, 8448, Note_on_c, 8, 35, 34
16, 8478, Note_on_c, 8, 35, 0
16, 8480, Note_on_c, 8, 35, 32
16, 8510, Note_on_c, 8, 35, 0
16, 8512, Note_on_c, 8, 35, 25
16, 8542, Note_on_c, 8, 35, 0
16, 8544, Note_on_c, 8, 35, 27
16, 8574, Note_on_c, 8, 35, 0
16, 8576, Note_on_c, 8, 35, 30
16, 8606, Note_on_c, 8, 35, 0
16, 8608, Note_on_c, 8, 35, 29
16, 8638, Note_on_c, 8, 35, 0
16, 8640, Note_on_c, 8, 35, 30
16, 8670, Note_on_c, 8, 35, 0
16, 8672, Note_on_c, 8, 35, 34
16, 8702, Note_on_c, 8, 35, 0
16, 8704, Note_on_c, 8, 35, 26
16, 8734, Note_on_c, 8, 35, 0
16, 8736, Note_on_c, 8, 35, 25
16, 8766, Note_on_c, 8, 35, 0
16, 8768, Note_on_c, 8, 35, 27
16, 8798, Note_on_c, 8, 35, 0
16, 8800, Note_on_c, 8, 35, 33
16, 8830, Note_on_c, 8, 35, 0
16, 8832, Note_on_c, 8, 35, 32
16, 8862, Note_on_c, 8, 35, 0
16, 8864, Note_on_c, 8, 35, 31
16, 8894, Note_on_c, 8, 35, 0
16, 8896, Note_on_c, 8, 35, 28
16, 8926, Note_on_c, 8, 35, 0
16, 8928, Note_on_c, 8, 35, 26
16, 8958, Note_on_c, 8, 35, 0
16, 8960, Note_on_c, 8, 35, 25
16, 8990, Note_on_c, 8, 35, 0
16, 8992, Note_on_c, 8, 35, 35
16, 9022, Note_on_c, 8, 35, 0
16, 9024, Note_on_c, 8, 35, 27
16, 9054, Note_on_c, 8, 35, 0
16, 9056, Note_on_c, 8, 35, 25
16, 9086, Note_on_c, 8, 35, 0
16, 9088, Note_on_c, 8, 35, 35
16, 9118, Note_on_c, 8, 35, 0
16, 9120, Note_on_c, 8, 35, 35
16, 9150, Note_on_c, 8, 35, 0
16, 9152, Note_on_c, 8, 35, 31
16, 9182, Note_on_c, 8, 35, 0
16, 9184, Note_on_c, 8, 35, 30
16, 9214, Note_on_c, 8, 35, 0
16, 9216, Note_on_c, 8, 35, 34
16, 9246, Note_on_c, 8, 35, 0
16, 9248, Note_on_c, 8, 35, 27
16, 9278, Note_on_c, 8, 35, 0
16, 9280, Note_on_c, 8, 35, 26
16, 9310, Note_on_c, 8, 35, 0
16, 9312, Note_on_c, 8, 35, 35
16, 9342, Note_on_c, 8, 35, 0
16, 9344, Note_on_c, 8, 35, 35
16, 9374, Note_on_c, 8, 35, 0
16, 9376, Note_on_c, 8, 35, 26
16, 9406, Note_on_c, 8, 35, 0
16, 9408, Note_on_c, 8, 35, 33
16, 9438, Note_on_c, 8, 35, 0
16, 9440, Note_on_c, 8, 35, 26
16, 9470, Note_on_c, 8, 35, 0
16, 9472, Note_on_c, 8, 35, 34
16, 9502, Note_on_c, 8, 35, 0
16, 9504, Note_on_c, 8, 35, 26
16, 9534, Note_on_c, 8, 35, 0
16, 9536, Note_on_c, 8, 35, 28
16, 9566, Note_on_c, 8, 35, 0
16, 9568, Note_on_c, 8, 35, 35
16, 9598, Note_on_c, 8, 35, 0
16, 9600, Note_on_c, 8, 35, 33
16, 9630, Note_on_c, 8, 35, 0
16, 9632, Note_on_c, 8, 35, 32
16, 9662, Note_on_c, 8, 35, 0
16, 9664, Note_on_c, 8, 35, 25
16, 9694, Note_on_c, 8, 35, 0
16, 9696, Note_on_c, 8, 35, 33
16, 9726, Note_on_c, 8, 35, 0
16, 9728, Note_on_c, 8, 35, 30
16, 9758, Note_on_c, 8, 35, 0
16, 9760, Note_on_c, 8, 35, 34
16, 9790, Note_on_c, 8, 35, 0
16, 9792, Note_on_c, 8, 35, 35
16, 9822, Note_on_c, 8, 35, 0
16, 9824, Note_on_c, 8, 35, 32
16, 9854, Note_on_c, 8, 35, 0
16, 9856, Note_on_c, 8, 35, 27
16, 9886, Note_on_c, 8, 35, 0
16, 9888, Note_on_c, 8, 35, 28
16, 9918, Note_on_c, 8, 35, 0
16, 9920, Note_on_c, 8, 35, 28
16, 9950, Note_on_c, 8, 35, 0
16, 9952, Note_on_c, 8, 35, 28
16, 9982, Note_on_c, 8, 35, 0
16, 9984, Note_on_c, 8, 35, 33
16, 10014, Note_on_c, 8, 35, 0
16, 10016, Note_on_c, 8, 35, 32
16, 10046, Note_on_c, 8, 35, 0
16, 10048, Note_on_c, 8, 35, 28
16, 10078, Note_on_c, 8, 35, 0
16, 10080, Note_on_c, 8, 35, 30
16, 10110, Note_on_c, 8, 35, 0
16, 10112, Note_on_c, 8, 35, 30
16, 10142, Note_on_c, 8, 35, 0
16, 10144, Note_on_c, 8, 35, 29
16, 10174, Note_on_c, 8, 35, 0
16, 10176, Note_on_c, 8, 35, 29
16, 10206, Note_on_c, 8, 35, 0
16, 10208, Note_on_c, 8, 35, 29
16, 10238, Note_on_c, 8, 35, 0
16, 10240, Note_on_c, 8, 35, 29
16, 10270, Note_on_c, 8, 35, 0
16, 10272, Note_on_c, 8, 35, 30
16, 10302, Note_on_c, 8, 35, 0
16, 10304, Note_on_c, 8, 35, 25
16, 10334, Note_on_c, 8, 35, 0
16, 10336, Note_on_c, 8, 35, 26
16, 10366, Note_on_c, 8, 35, 0
16, 10368, Note_on_c, 8, 35, 28
16, 10398, Note_on_c, 8, 35, 0
16, 10400, Note_on_c, 8, 35, 28
16, 10430, Note_on_c, 8, 35, 0
16, 10432, Note_on_c, 8, 35, 35
16, 10462, Note_on_c, 8, 35, 0
16, 10464, Note_on_c, 8, 35, 28
16, 10494, Note_on_c, 8, 35, 0
16, 10496, Note_on_c, 8, 35, 28
16, 10526, Note_on_c, 8, 35, 0
16, 10528, Note_on_c, 8, 35, 33
16, 10558, Note_on_c, 8, 35, 0
16, 10560, Note_on_c, 8, 35, 29
16, 10590, Note_on_c, 8, 35, 0
16, 10592, Note_on_c, 8, 35, 34
16, 10622, Note_on_c, 8, 35, 0
16, 10624, Note_on_c, 8, 35, 26
16, 10654, Note_on_c, 8, 35, 0
16, 10656, Note_on_c, 8, 35, 27
16, 10686, Note_on_c, 8, 35, 0
16, 10688, Note_on_c, 8, 35, 27
16, 10718, Note_on_c, 8, 35, 0
16, 10720, Note_on_c, 8, 35, 27
16, 10750, Note_on_c, 8, 35, 0
16, 10752, Note_on_c, 8, 35, 28
16, 10782, Note_on_c, 8, 35, 0
16, 10784, Note_on_c, 8, 35, 32
16, 10814, Note_on_c, 8, 35, 0
16, 10816, Note_on_c, 8, 35, 28
16, 10846, Note_on_c, 8, 35, 0
16, 10848, Note_on_c, 8, 35, 28
16, 10878, Note_on_c, 8, 35, 0
16, 10880, Note_on_c, 8, 35, 32
16, 10910, Note_on_c, 8, 35, 0
16, 10912, Note_on_c, 8, 35, 26
16, 10942, Note_on_c, 8, 35, 0
16, 10944, Note_on_c, 8, 35, 25
16, 10974, Note_on_c, 8, 35, 0
16, 10976, Note_on_c, 8, 35, 25
16, 11006, Note_on_c, 8, 35, 0
16, 11008, Note_on_c, 8, 35, 32
16, 11038, Note_on_c, 8, 35, 0
16, 11040, Note_on_c, 8, 35, 33
16, 11070, Note_on_c, 8, 35, 0
16, 11072, Note_on_c, 8, 35, 26
16, 11102, Note_on_c, 8, 35, 0
16, 11104, Note_on_c, 8, 35, 30
16, 11134, Note_on_c, 8, 35, 0
16, 11136, Note_on_c, 8, 35, 28
16, 11166, Note_on_c, 8, 35, 0
16, 11168, Note_on_c, 8, 35, 33
16, 11198, Note_on_c, 8, 35, 0
16, 11200, Note_on_c, 8, 35, 32
16, 11230, Note_on_c, 8, 35, 0
16, 11232, Note_on_c, 8, 35, 31
16, 11262, Note_on_c, 8, 35, 0
16, 11264, Note_on_c, 8, 35, 27
16, 11294, Note_on_c, 8, 35, 0
16, 11296, Note_on_c, 8, 35, 29
16, 11326, Note_on_c, 8, 35, 0
16, 11328, Note_on_c, 8, 35, 29
16, 11358, Note_on_c, 8, 35, 0
16, 11360, Note_on_c, 8, 35, 33
16, 11390, Note_on_c, 8, 35, 0
16, 11392, Note_on_c, 8, 35, 33
16, 11422, Note_on_c, 8, 35, 0
16, 11424, Note_on_c, 8, 35, 26
16, 11454, Note_on_c, 8, 35, 0
16, 11456, Note_on_c, 8, 35, 28
16, 11486, Note_on_c, 8, 35, 0
16, 11488, Note_on_c, 8, 35, 35
16, 11518, Note_on_c, 8, 35, 0
16, 11520, Note_on_c, 8, 35, 25
16, 11550, Note_on_c, 8, 35, 0
16, 11552, Note_on_c, 8, 35, 30
16, 11582, Note_on_c, 8, 35, 0
16, 11584, Note_on_c, 8, 35, 30
16, 11614, Note_on_c, 8, 35, 0
16, 11616, Note_on_c, 8, 35, 30
16, 11646, Note_on_c, 8, 35, 0
16, 11648, Note_on_c, 8, 35, 26
16, 11678, Note_on_c, 8, 35, 0
16, 11680, Note_on_c, 8, 35, 34
16, 11710, Note_on_c, 8, 35, 0
16, 11712, Note_on_c, 8, 35, 32
16, 11742, Note_on_c, 8, 35, 0
16, 11744, Note_on_c, 8, 35, 26
16, 11774, Note_on_c, 8, 35, 0
16, 11776, Note_on_c, 8, 35, 29
16, 11806, Note_on_c, 8, 35, 0
16, 11808, Note_on_c, 8, 35, 28
16, 11838, Note_on_c, 8, 35, 0
16, 11840, Note_on_c, 8, 35, 29
16, 11870, Note_on_c, 8, 35, 0
16, 11872, Note_on_c, 8, 35, 33
16, 11902, Note_on_c, 8, 35, 0
16, 11904, Note_on_c, 8, 35, 27
16, 11934, Note_on_c, 8, 35, 0
16, 11936, Note_on_c, 8, 35, 30
16, 11966, Note_on_c, 8, 35, 0
16, 11968, Note_on_c, 8, 35, 28
16, 11998, Note_on_c, 8, 35, 0
16, 12000, Note_on_c, 8, 35, 34
16, 12030, Note_on_c, 8, 35, 0
16, 12032, Note_on_c, 8, 35, 31
16, 12062, Note_on_c, 8, 35, 0
16, 12064, Note_on_c, 8, 35, 33
16, 12094, Note_on_c, 8, 35, 0
16, 12096, Note_on_c, 8, 35, 34
16, 12126, Note_on_c, 8, 35, 0
16, 12128, Note_on_c, 8, 35, 27
16, 12158, Note_on_c, 8, 35, 0
16, 12160, Note_on_c, 8, 35, 28
16, 12190, Note_on_c, 8, 35, 0
16, 12192, Note_on_c, 8, 35, 26
16, 12222, Note_on_c, 8, 35, 0
16, 12224, Note_on_c, 8, 35, 33
16, 12254, Note_on_c, 8, 35, 0
16, 12256, Note_on_c, 8, 35, 28
16, 12286, Note_on_c, 8, 35, 0
16, 12288, Note_on_c, 8, 35, 34
16, 12318, Note_on_c, 8, 35, 0
16, 12320, Note_on_c, 8, 35, 26
16, 12350, Note_on_c, 8, 35, 0
16, 12352, Note_on_c, 8, 35, 27
16, 12382, Note_on_c, 8, 35, 0
16, 12384, Note_on_c, 8, 35, 25
16, 12414, Note_on_c, 8, 35, 0
16, 12416, Note_on_c, 8, 35, 30
16, 12446, Note_on_c, 8, 35, 0
16, 12448, Note_on_c, 8, 35, 33
16, 12478, Note_on_c, 8, 35, 0
16, 12480, Note_on_c, 8, 35, 35
16, 12510, Note_on_c, 8, 35, 0
16, 12512, Note_on_c, 8, 35, 26
16, 12542, Note_on_c, 8, 35, 0
16, 12544, Note_on_c, 8, 35, 31
16, 12574, Note_on_c, 8, 35, 0
16, 12576, Note_on_c, 8, 35, 29
16, 12606, Note_on_c, 8, 35, 0
16, 12608, Note_on_c, 8, 35, 33
16, 12638, Note_on_c, 8, 35, 0
16, 12640, Note_on_c, 8, 35, 34
16, 12670, Note_on_c, 8, 35, 0
16, 12672, Note_on_c, 8, 35, 35
16, 12702, Note_on_c, 8, 35, 0
16, 12704, Note_on_c, 8, 35, 32
16, 12734, Note_on_c, 8, 35, 0
16, 12736, Note_on_c, 8, 35, 34
16, 12766, Note_on_c, 8, 35, 0
16, 12768, Note_on_c, 8, 35, 33
16, 12798, Note_on_c, 8, 35, 0
16, 12800, Note_on_c, 8, 35, 30
16, 12830, Note_on_c, 8, 35, 0
16, 12832, Note_on_c, 8, 35, 35
16, 12862, Note_on_c, 8, 35, 0
16, 12864, Note_on_c, 8, 35, 32
16, 12894, Note_on_c, 8, 35, 0
16, 12896, Note_on_c, 8, 35, 30
16, 12926, Note_on_c, 8, 35, 0
16, 12928, Note_on_c, 8, 35, 35
16, 12958, Note_on_c, 8, 35, 0
16, 12960, Note_on_c, 8, 35, 29
16, 12990, Note_on_c, 8, 35, 0
16, 12992, Note_on_c, 8, 35, 31
16, 13022, Note_on_c, 8, 35, 0
16, 13024, Note_on_c, 8, 35, 35
16, 13054, Note_on_c, 8, 35, 0
16, 13056, Note_on_c, 8, 35, 35
16, 13086, Note_on_c, 8, 35, 0
16, 13088, Note_on_c, 8, 35, 28
16, 13118, Note_on_c, 8, 35, 0
16, 13120, Note_on_c, 8, 35, 35
16, 13150, Note_on_c, 8, 35, 0
16, 13152, Note_on_c, 8, 35, 25
16, 13182, Note_on_c, 8, 35, 0
16, 13184, Note_on_c, 8, 35, 28
16, 13214, Note_on_c, 8, 35, 0
16, 13216, Note_on_c, 8, 35, 35
16, 13246, Note_on_c, 8, 35, 0
16, 13248, Note_on_c, 8, 35, 25
16, 13278, Note_on_c, 8, 35, 0
16, 13280, Note_on_c, 8, 35, 26
16, 13310, Note_on_c, 8, 35, 0
16, 13312, Note_on_c, 8, 35, 35
16, 13342, Note_on_c, 8, 35, 0
16, 13344, Note_on_c, 8, 35, 33
16, 13374, Note_on_c, 8, 35, 0
16, 13376, Note_on_c, 8, 35, 33
16, 13406, Note_on_c, 8, 35, 0
16, 13408, Note_on_c, 8, 35, 27
16, 13438, Note_on_c, 8, 35, 0
16, 13440, Note_on_c, 8, 35, 32
16, 13470, Note_on_c, 8, 35, 0
16, 13472, Note_on_c, 8, 35, 35
16, 13502, Note_on_c, 8, 35, 0
16, 13504, Note_on_c, 8, 35, 33
16, 13534, Note_on_c, 8, 35, 0
16, 13536, Note_on_c, 8, 35, 34
16, 13566, Note_on_c, 8, 35, 0
16, 13568, Note_on_c, 8, 35, 26
16, 13598, Note_on_c, 8, 35, 0
16, 13600, Note_on_c, 8, 35, 35
16, 13630, Note_on_c, 8, 35, 0
16, 13632, Note_on_c, 8, 35, 35
16, 13662, Note_on_c, 8, 35, 0
16, 13664, Note_on_c, 8, 35, 32
16, 13694, Note_on_c, 8, 35, 0
16, 13696, Note_on_c, 8, 35, 35
16, 13726, Note_on_c, 8, 35, 0
16, 13728, Note_on_c, 8, 35, 34
16, 13758, Note_on_c, 8, 35, 0
16, 13760, Note_on_c, 8, 35, 34
16, 13790, Note_on_c, 8, 35, 0
16, 13792, Note_on_c, 8, 35, 28
16, 13822, Note_on_c, 8, 35, 0
16, 13824, Note_on_c, 8, 35, 31
16, 13854, Note_on_c, 8, 35, 0
16, 13856, Note_on_c, 8, 35, 34
16, 13886, Note_on_c, 8, 35, 0
16, 13888, Note_on_c, 8, 35, 25
16, 13918, Note_on_c, 8, 35, 0
16, 13920, Note_on_c, 8, 35, 28
16, 13950, Note_on_c, 8, 35, 0
16, 13952, Note_on_c, 8, 35, 27
16, 13982, Note_on_c, 8, 35, 0
16, 13984, Note_on_c, 8, 35, 34
16, 14014, Note_on_c, 8, 35, 0
16, 14016, Note_on_c, 8, 35, 26
16, 14046, Note_on_c, 8, 35, 0
16, 14048, Note_on_c, 8, 35, 35
16, 14078, Note_on_c, 8, 35, 0
16, 14080, Note_on_c, 8, 35, 29
16, 14110, Note_on_c, 8, 35, 0
16, 14112, Note_on_c, 8, 35, 29
16, 14142, Note_on_c, 8, 35, 0
16, 14144, Note_on_c, 8, 35, 27
16, 14174, Note_on_c, 8, 35, 0
16, 14176, Note_on_c, 8, 35, 26
16, 14206, Note_on_c, 8, 35, 0
16, 14208, Note_on_c, 8, 35, 27
16, 14238, Note_on_c, 8, 35, 0
16, 14240, Note_on_c, 8, 35, 33
16, 14270, Note_on_c, 8, 35, 0
16, 14272, Note_on_c, 8, 35, 33
16, 14302, Note_on_c, 8, 35, 0
16, 14304, Note_on_c, 8, 35, 26
16, 14334, Note_on_c, 8, 35, 0
16, 14336, Note_on_c, 8, 35, 25
16, 14366, Note_on_c, 8, 35, 0
16, 14368, Note_on_c, 8, 35, 33
16, 14398, Note_on_c, 8, 35, 0
16, 14400, Note_on_c, 8, 35, 30
16, 14430, Note_on_c, 8, 35, 0
16, 14432, Note_on_c, 8, 35, 27
16, 14462, Note_on_c, 8, 35, 0
16, 14464, Note_on_c, 8, 35, 34
16, 14494, Note_on_c, 8, 35, 0
16, 14496, Note_on_c, 8, 35, 31
16, 14526, Note_on_c, 8, 35, 0
16, 14528, Note_on_c, 8, 35, 30
16, 14558, Note_on_c, 8, 35, 0
16, 14560, Note_on_c, 8, 35, 30
16, 14590, Note_on_c, 8, 35, 0
16, 14592, Note_on_c, 8, 35, 29
16, 14622, Note_on_c, 8, 35, 0
16, 14624, Note_on_c, 8, 35, 31
16, 14654, Note_on_c, 8, 35, 0
16, 14656, Note_on_c, 8, 35, 25
16, 14686, Note_on_c, 8, 35, 0
16, 14688, Note_on_c, 8, 35, 33
16, 14718, Note_on_c, 8, 35, 0
16, 14720, Note_on_c, 8, 35, 32
16, 14750, Note_on_c, 8, 35, 0
16, 14752, Note_on_c, 8, 35, 35
16, 14782, Note_on_c, 8, 35, 0
16, 14784, Note_on_c, 8, 35, 25
16, 14814, Note_on_c, 8, 35, 0
16, 14816, Note_on_c, 8, 35, 33
16, 14846, Note_on_c, 8, 35, 0
16, 14848, Note_on_c, 8, 35, 30
16, 14878, Note_on_c, 8, 35, 0
16, 14880, Note_on_c, 8, 35, 29
16, 14910, Note_on_c, 8, 35, 0
16, 14912, Note_on_c, 8, 35, 34
16, 14942, Note_on_c, 8, 35, 0
16, 14944, Note_on_c, 8, 35, 31
16, 14974, Note_on_c, 8, 35, 0
16, 14976, Note_on_c, 8, 35, 31
16, 15006, Note_on_c, 8, 35, 0
16, 15008, Note_on_c, 8, 35, 28
16, 15038, Note_on_c, 8, 35, 0
16, 15040, Note_on_c, 8, 35, 28
16, 15070, Note_on_c, 8, 35, 0
16, 15072, Note_on_c, 8, 35, 34
16, 15102, Note_on_c, 8, 35, 0
16, 15104, Note_on_c, 8, 35, 33
16, 15134, Note_on_c, 8, 35, 0
16, 15136, Note_on_c, 8, 35, 28
16, 15166, Note_on_c, 8, 35, 0
16, 15168, Note_on_c, 8, 35, 35
16, 15198, Note_on_c, 8, 35, 0
16, 15200, Note_on_c, 8, 35, 34
16, 15230, Note_on_c, 8, 35, 0
16, 15232, Note_on_c, 8, 35, 28
16, 15262, Note_on_c, 8, 35, 0
16, 15264, Note_on_c, 8, 35, 29
16, 15294, Note_on_c, 8, 35, 0
16, 15296, Note_on_c, 8, 35, 35
16, 15326, Note_on_c, 8, 35, 0
16, 15328, Note_on_c, 8, 35, 34
16, 15358, Note_on_c, 8, 35, 0
16, 15360, Note_on_c, 8, 35, 26
16, 15390, Note_on_c, 8, 35, 0
16, 15392, Note_on_c, 8, 35, 32
16, 15422, Note_on_c, 8, 35, 0
16, 15424, Note_on_c, 8, 35, 26
16, 15454, Note_on_c, 8, 35, 0
16, 15456, Note_on_c, 8, 35, 27
16, 15486, Note_on_c, 8, 35, 0
16, 15488, Note_on_c, 8, 35, 27
16, 15518, Note_on_c, 8, 35, 0
16, 15520, Note_on_c, 8, 35, 34
16, 15550, Note_on_c, 8, 35, 0
16, 15552, Note_on_c, 8, 35, 35
16, 15582, Note_on_c, 8, 35, 0
16, 15584, Note_on_c, 8, 35, 31
16, 15614, Note_on_c, 8, 35, 0
16, 15616, Note_on_c, 8, 35, 31
16, 15646, Note_on_c, 8, 35, 0
16, 15648, Note_on_c, 8, 35, 26
16, 15678, Note_on_c, 8, 35, 0
16, 15680, Note_on_c, 8, 35, 29
16, 15710, Note_on_c, 8, 35, 0
16, 15712, Note_on_c, 8, 35, 32
16, 15742, Note_on_c, 8, 35, 0
16, 15744, Note_on_c, 8, 35, 33
16, 15774, Note_on_c, 8, 35, 0
16, 15776, Note_on_c, 8, 35, 30
16, 15806, Note_on_c, 8, 35, 0
16, 15808, Note_on_c, 8, 35, 28
16, 15838, Note_on_c, 8, 35, 0
16, 15840, Note_on_c, 8, 35, 26
16, 15870, Note_on_c, 8, 35, 0
16, 15872, Note_on_c, 8, 35, 30
16, 15902, Note_on_c, 8, 35, 0
16, 15904, Note_on_c, 8, 35, 29
16, 15934, Note_on_c, 8, 35, 0
16, 15936, Note_on_c, 8, 35, 29
16, 15966, Note_on_c, 8, 35, 0
16, 15968, Note_on_c, 8, 35, 28
16, 15998, Note_on_c, 8, 35, 0
16, 16000, Note_on_c, 8, 35, 29
16, 16030, Note_on_c, 8, 35, 0
16, 16032, Note_on_c, 8, 35, 33
16, 16062, Note_on_c, 8, 35, 0
16, 16064, Note_on_c, 8, 35, 27
16, 16094, Note_on_c, 8, 35, 0
16, 16096, Note_on_c, 8, 35, 28
16, 16126, Note_on_c, 8, 35, 0
16, 16128, Note_on_c, 8, 35, 34
16, 16158, Note_on_c, 8, 35, 0
16, 16160, Note_on_c, 8, 35, 30
16, 16190, Note_on_c, 8, 35, 0
16, 16192, Note_on_c, 8, 35, 31
16, 16222, Note_on_c, 8, 35, 0
16, 16224, Note_on_c, 8, 35, 28
16, 16254, Note_on_c, 8, 35, 0
16, 16256, Note_on_c, 8, 35, 29
16, 16286, Note_on_c, 8, 35, 0
16, 16288, Note_on_c, 8, 35, 35
16, 16318, Note_on_c, 8, 35, 0
16, 16320, Note_on_c, 8, 35, 31
16, 16350, Note_on_c, 8, 35, 0
16, 16352, Note_on_c, 8, 35, 30
16, 16382, Note_on_c, 8, 35, 0
16, 16384, Note_on_c, 8, 35, 35
16, 16414, Note_on_c, 8, 35, 0
16, 16416, Note_on_c, 8, 35, 29
16, 16446, Note_on_c, 8, 35, 0
16, 16448, Note_on_c, 8, 35, 27
16, 16478, Note_on_c, 8, 35, 0
16, 16480, Note_on_c, 8, 35, 28
16, 16510, Note_on_c, 8, 35, 0
16, 16512, Note_on_c, 8, 35, 31
16, 16542, Note_on_c, 8, 35, 0
16, 16544, Note_on_c, 8, 35, 35
16, 16574, Note_on_c, 8, 35, 0
16, 16576, Note_on_c, 8, 35, 31
16, 16606, Note_on_c, 8, 35, 0
16, 16608, Note_on_c, 8, 35, 34
16, 16638, Note_on_c, 8, 35, 0
16, 16640, Note_on_c, 8, 35, 32
16, 16670, Note_on_c, 8, 35, 0
16, 16672, Note_on_c, 8, 35, 32
16, 16702, Note_on_c, 8, 35, 0
16, 16704, Note_on_c, 8, 35, 32
16, 16734, Note_on_c, 8, 35, 0
16, 16736, Note_on_c, 8, 35, 28
16, 16766, Note_on_c, 8, 35, 0
16, 16768, Note_on_c, 8, 35, 34
16, 16798, Note_on_c, 8, 35, 0
16, 16800, Note_on_c, 8, 35, 28
16, 16830, Note_on_c, 8, 35, 0
16, 16832, Note_on_c, 8, 35, 29
16, 16862, Note_on_c, 8, 35, 0
16, 16864, Note_on_c, 8, 35, 31
16, 16894, Note_on_c, 8, 35, 0
16, 16896, Note_on_c, 8, 35, 31
16, 16926, Note_on_c, 8, 35, 0
16, 16928, Note_on_c, 8, 35, 35
16, 16958, Note_on_c, 8, 35, 0
16, 16960, Note_on_c, 8, 35, 33
16, 16990, Note_on_c, 8, 35, 0
16, 16992, Note_on_c, 8, 35, 30
16, 17022, Note_on_c, 8, 35, 0
16, 17024, Note_on_c, 8, 35, 27
16, 17054, Note_on_c, 8, 35, 0
16, 17056, Note_on_c, 8, 35, 29
16, 17086, Note_on_c, 8, 35, 0
16, 17088, Note_on_c, 8, 35, 33
16, 17118, Note_on_c, 8, 35, 0
16, 17120, Note_on_c, 8, 35, 27
16, 17150, Note_on_c, 8, 35, 0
16, 17152, Note_on_c, 8, 35, 32
16, 17182, Note_on_c, 8, 35, 0
16, 17184, Note_on_c, 8, 35, 29
16, 17214, Note_on_c, 8, 35, 0
16, 17216, Note_on_c, 8, 35, 35
16, 17246, Note_on_c, 8, 35, 0
16, 17248, Note_on_c, 8, 35, 33
16, 17278, Note_on_c, 8, 35, 0
16, 17280, Note_on_c, 8, 35, 26
16, 17310, Note_on_c, 8, 35, 0
16, 17312, Note_on_c, 8, 35, 29
16, 17342, Note_on_c, 8, 35, 0
16, 17344, Note_on_c, 8, 35, 28
16, 17374, Note_on_c, 8, 35, 0
16, 17376, Note_on_c, 8, 35, 29
16, 17406, Note_on_c, 8, 35, 0
16, 17408, Note_on_c, 8, 35, 31
16, 17438, Note_on_c, 8, 35, 0
16, 17440, Note_on_c, 8, 35, 25
16, 17470, Note_on_c, 8, 35, 0
16, 17472, Note_on_c, 8, 35, 25
16, 17502, Note_on_c, 8, 35, 0
16, 17504, Note_on_c, 8, 35, 31
16, 17534, Note_on_c, 8, 35, 0
16, 17536, Note_on_c, 8, 35, 30
16, 17566, Note_on_c, 8, 35, 0
16, 17568, Note_on_c, 8, 35, 31
16, 17598, Note_on_c, 8, 35, 0
16, 17600, Note_on_c, 8, 35, 33
16, 17630, Note_on_c, 8, 35, 0
16, 17632, Note_on_c, 8, 35, 33
16, 17662, Note_on_c, 8, 35, 0
16, 17664, Note_on_c, 8, 35, 27
16, 17694, Note_on_c, 8, 35, 0
16, 17696, Note_on_c, 8, 35, 31
16, 17726, Note_on_c, 8, 35, 0
16, 17728, Note_on_c, 8, 35, 33
16, 17758, Note_on_c, 8, 35, 0
16, 17760, Note_on_c, 8, 35, 26
16, 17790, Note_on_c, 8, 35, 0
16, 17792, Note_on_c, 8, 35, 35
16, 17822, Note_on_c, 8, 35, 0
16, 17824, Note_on_c, 8, 35, 34
16, 17854, Note_on_c, 8, 35, 0
16, 17856, Note_on_c, 8, 35, 27
16, 17886, Note_on_c, 8, 35, 0
16, 17888, Note_on_c, 8, 35, 35
16, 17918, Note_on_c, 8, 35, 0
16, 17920, Note_on_c, 8, 35, 28
16, 17950, Note_on_c, 8, 35, 0
16, 17952, Note_on_c, 8, 35, 25
16, 17982, Note_on_c, 8, 35, 0
16, 17984, Note_on_c, 8, 35, 26
16, 18014, Note_on_c, 8, 35, 0
16, 18016, Note_on_c, 8, 35, 26
16, 18046, Note_on_c, 8, 35, 0
16, 18048, Note_on_c, 8, 35, 34
16, 18078, Note_on_c, 8, 35, 0
16, 18080, Note_on_c, 8, 35, 34
16, 18110, Note_on_c, 8, 35, 0
16, 18112, Note_on_c, 8, 35, 31
16, 18142, Note_on_c, 8, 35, 0
16, 18144, Note_on_c, 8, 35, 27
16, 18174, Note_on_c, 8, 35, 0
16, 18176, Note_on_c, 8, 35, 27
16, 18206, Note_on_c, 8, 35, 0
16, 18208, Note_on_c, 8, 35, 26
16, 18238, Note_on_c, 8, 35, 0
16, 18240, Note_on_c, 8, 35, 29
16, 18270, Note_on_c, 8, 35, 0
16, 18272, Note_on_c, 8, 35, 26
16, 18302, Note_on_c, 8, 35, 0
16, 18304, Note_on_c, 8, 35, 30
16, 18334, Note_on_c, 8, 35, 0
16, 18336, Note_on_c, 8, 35, 32
16, 18366, Note_on_c, 8, 35, 0
16, 18368, Note_on_c, 8, 35, 32
16, 18398, Note_on_c, 8, 35, 0
16, 18400, Note_on_c, 8, 35, 30
16, 18430, Note_on_c, 8, 35, 0
16, 18432, Note_on_c, 8, 35, 35
16, 18462, Note_on_c, 8, 35, 0
16, 18464, Note_on_c, 8, 35, 34
16, 18494, Note_on_c, 8, 35, 0
16, 18496, Note_on_c, 8, 35, 33
16, 18526, Note_on_c, 8, 35, 0
16, 18528, Note_on_c, 8, 35, 25
16, 18558, Note_on_c, 8, 35, 0
16, 18560, Note_on_c, 8, 35, 32
16, 18590, Note_on_c, 8, 35, 0
16, 18592, Note_on_c, 8, 35, 29
16, 18622, Note_on_c, 8, 35, 0
16, 18624, Note_on_c, 8, 35, 30
16, 18654, Note_on_c, 8, 35, 0
16, 18656, Note_on_c, 8, 35, 31
16, 18686, Note_on_c, 8, 35, 0
16, 18688, Note_on_c, 8, 35, 28
16, 18718, Note_on_c, 8, 35, 0
16, 18720, Note_on_c, 8, 35, 25
16, 18750, Note_on_c, 8, 35, 0
16, 18752, Note_on_c, 8, 35, 28
16, 18782, Note_on_c, 8, 35, 0
16, 18784, Note_on_c, 8, 35, 33
16, 18814, Note_on_c, 8, 35, 0
16, 18816, Note_on_c, 8, 35, 32
16, 18846, Note_on_c, 8, 35, 0
16, 18848, Note_on_c, 8, 35, 35
16, 18878, Note_on_c, 8, 35, 0
16, 18880, Note_on_c, 8, 35, 25
16, 18910, Note_on_c, 8, 35, 0
16, 18912, Note_on_c, 8, 35, 29
16, 18942, Note_on_c, 8, 35, 0
16, 18944, Note_on_c, 8, 35, 33
16, 18974, Note_on_c, 8, 35, 0
16, 18976, Note_on_c, 8, 35, 26
16, 19006, Note_on_c, 8, 35, 0
16, 19008, Note_on_c, 8, 35, 27
16, 19038, Note_on_c, 8, 35, 0
16, 19040, Note_on_c, 8, 35, 27
16, 19070, Note_on_c, 8, 35, 0
16, 19072, Note_on_c, 8, 35, 26
16, 19102, Note_on_c, 8, 35, 0
16, 19104, Note_on_c, 8, 35, 28
16, 19134, Note_on_c, 8, 35, 0
16, 19136, Note_on_c, 8, 35, 29
16, 19166, Note_on_c, 8, 35, 0
16, 19168, Note_on_c, 8, 35, 26
16, 19198, Note_on_c, 8, 35, 0
16, 19200, Note_on_c, 8, 35, 32
16, 19230, Note_on_c, 8, 35, 0
16, 19232, Note_on_c, 8, 35, 29
16, 19262, Note_on_c, 8, 35, 0
16, 19264, Note_on_c, 8, 35, 28
16, 19294, Note_on_c, 8, 35, 0
16, 19296, Note_on_c, 8, 35, 33
16, 19326, Note_on_c, 8, 35, 0
16, 19328, Note_on_c, 8, 35, 26
16, 19358, Note_on_c, 8, 35, 0
16, 19360, Note_on_c, 8, 35, 26
16, 19390, Note_on_c, 8, 35, 0
16, 19392, Note_on_c, 8, 35, 29
16, 19422, Note_on_c, 8, 35, 0
16, 19424, Note_on_c, 8, 35, 30
16, 19454, Note_on_c, 8, 35, 0
16, 19456, Note_on_c, 8, 35, 29
16, 19486, Note_on_c, 8, 35, 0
16, 19488, Note_on_c, 8, 35, 26
16, 19518, Note_on_c, 8, 35, 0
16, 19520, Note_on_c, 8, 35, 29
16, 19550, Note_on_c, 8, 35, 0
16, 19552, Note_on_c, 8, 35, 30
16, 19582, Note_on_c, 8, 35, 0
16, 19584, Note_on_c, 8, 35, 34
16, 19614, Note_on_c, 8, 35, 0
16, 19616, Note_on_c, 8, 35, 30
16, 19646, Note_on_c, 8, 35, 0
16, 19648, Note_on_c, 8, 35, 35
16, 19678, Note_on_c, 8, 35, 0
16, 19680, Note_on_c, 8, 35, 25
16, 19710, Note_on_c, 8, 35, 0
16, 19712, Note_on_c, 8, 35, 30
16, 19742, Note_on_c, 8, 35, 0
16, 19744, Note_on_c, 8, 35, 35
16, 19774, Note_on_c, 8, 35, 0
16, 19776, Note_on_c, 8, 35, 35
16, 19806, Note_on_c, 8, 35, 0
16, 19808, Note_on_c, 8, 35, 35
16, 19838, Note_on_c, 8, 35, 0
16, 19840, Note_on_c, 8, 35, 25
16, 19870, Note_on_c, 8, 35, 0
16, 19872, Note_on_c, 8, 35, 32
16, 19902, Note_on_c, 8, 35, 0
16, 19904, Note_on_c, 8, 35, 28
16, 19934, Note_on_c, 8, 35, 0
16, 19936, Note_on_c, 8, 35, 31
16, 19966, Note_on_c, 8, 35, 0
16, 19968, Note_on_c, 8, 35, 31
16, 19968, Note_on_c, 8, 36, 33
16, 19968, Note_on_c, 8, 37, 33
16, 20062, Note_on_c, 8, 35, 0
16, 20062, Note_on_c, 8, 36, 0
16, 20062, Note_on_c, 8, 37, 0
16, 21504, Note_on_c, 8, 35, 34
16, 21534, Note_on_c, 8, 35, 0
16, 21536, Note_on_c, 8, 35, 33
16, 21566, Note_on_c, 8, 35, 0
16, 21568, Note_on_c, 8, 35, 27
16, 21598, Note_on_c, 8, 35, 0
16, 21600, Note_on_c, 8, 35, 31
16, 21630, Note_on_c, 8, 35, 0
16, 21632, Note_on_c, 8, 35, 29
16, 21662, Note_on_c, 8, 35, 0
16, 21664, Note_on_c, 8, 35, 28
16, 21694, Note_on_c, 8, 35, 0
16, 21696, Note_on_c, 8, 35, 33
16, 21726, Note_on_c, 8, 35, 0
16, 21728, Note_on_c, 8, 35, 33
16, 21758, Note_on_c, 8, 35, 0
16, 21760, Note_on_c, 8, 35, 31
16, 21790, Note_on_c, 8, 35, 0
16, 21792, Note_on_c, 8, 35, 30
16, 21822, Note_on_c, 8, 35, 0
16, 21824, Note_on_c, 8, 35, 33
16, 21854, Note_on_c, 8, 35, 0
16, 21856, Note_on_c, 8, 35, 29
16, 21886, Note_on_c, 8, 35, 0
16, 21888, Note_on_c, 8, 35, 25
16, 21918, Note_on_c, 8, 35, 0
16, 21920, Note_on_c, 8, 35, 25
16, 21950, Note_on_c, 8, 35, 0
16, 21952, Note_on_c, 8, 35, 35
16, 21982, Note_on_c, 8, 35, 0
16, 21984, Note_on_c, 8, 35, 32
16, 22014, Note_on_c, 8, 35, 0
16, 22016, Note_on_c, 8, 35, 25
16, 22046, Note_on_c, 8, 35, 0
16, 22048, Note_on_c, 8, 35, 27
16, 22078, Note_on_c, 8, 35, 0
16, 22080, Note_on_c, 8, 35, 25
16, 22110, Note_on_c, 8, 35, 0
16, 22112, Note_on_c, 8, 35, 25
16, 22142, Note_on_c, 8, 35, 0
16, 22144, Note_on_c, 8, 35, 27
16, 22174, Note_on_c, 8, 35, 0
16, 22176, Note_on_c, 8, 35, 27
16, 22206, Note_on_c, 8, 35, 0
16, 22208, Note_on_c, 8, 35, 25
16, 22238, Note_on_c, 8, 35, 0
16, 22240, Note_on_c, 8, 35, 32
16, 22270, Note_on_c, 8, 35, 0
16, 22272, Note_on_c, 8, 35, 26
16, 22302, Note_on_c, 8, 35, 0
16, 22304, Note_on_c, 8, 35, 28
16, 22334, Note_on_c, 8, 35, 0
16, 22336, Note_on_c, 8, 35, 29
16, 22366, Note_on_c, 8, 35, 0
16, 22368, Note_on_c, 8, 35, 27
16, 22398, Note_on_c, 8, 35, 0
16, 22400, Note_on_c, 8, 35, 32
16, 22430, Note_on_c, 8, 35, 0
16, 22432, Note_on_c, 8, 35, 28
16, 22462, Note_on_c, 8, 35, 0
16, 22464, Note_on_c, 8, 35, 34
16, 22494, Note_on_c, 8, 35, 0
16, 22496, Note_on_c, 8, 35, 26
16, 22526, Note_on_c, 8, 35, 0
16, 22528, Note_on_c, 8, 35, 33
16, 22558, Note_on_c, 8, 35, 0
16, 22560, Note_on_c, 8, 35, 34
16, 22590, Note_on_c, 8, 35, 0
16, 22592, Note_on_c, 8, 35, 25
16, 22622, Note_on_c, 8, 35, 0
16, 22624, Note_on_c, 8, 35, 30
16, 22654, Note_on_c, 8, 35, 0
16, 22656, Note_on_c, 8, 35, 35
16, 22686, Note_on_c, 8, 35, 0
16, 22688, Note_on_c, 8, 35, 29
16, 22718, Note_on_c, 8, 35, 0
16, 22720, Note_on_c, 8, 35, 33
16, 22750, Note_on_c, 8, 35, 0
16, 22752, Note_on_c, 8, 35, 32
16, 22782, Note_on_c, 8, 35, 0
16, 22784, Note_on_c, 8, 35, 33
16, 22814, Note_on_c, 8, 35, 0
16, 22816, Note_on_c, 8, 35, 27
16, 22846, Note_on_c, 8, 35, 0
16, 22848, Note_on_c, 8, 35, 32
16, 22878, Note_on_c, 8, 35, 0
16, 22880, Note_on_c, 8, 35, 35
16, 22910, Note_on_c, 8, 35, 0
16, 22912, Note_on_c, 8, 35, 31
16, 22942, Note_on_c, 8, 35, 0
16, 22944, Note_on_c, 8, 35, 30
16, 22974, Note_on_c, 8, 35, 0
16, 22976, Note_on_c, 8, 35, 35
16, 23006, Note_on_c, 8, 35, 0
16, 23008, Note_on_c, 8, 35, 31
16, 23038, Note_on_c, 8, 35, 0
16, 23040, Note_on_c, 8, 35, 30
16, 23070, Note_on_c, 8, 35, 0
16, 23072, Note_on_c, 8, 35, 32
16, 23102, Note_on_c, 8, 35, 0
16, 23104, Note_on_c, 8, 35, 30
16, 23134, Note_on_c, 8, 35, 0
16, 23136, Note_on_c, 8, 35, 28
16, 23166, Note_on_c, 8, 35, 0
16, 23168, Note_on_c, 8, 35, 33
16, 23198, Note_on_c, 8, 35, 0
16, 23200, Note_on_c, 8, 35, 28
16, 23230, Note_on_c, 8, 35, 0
16, 23232, Note_on_c, 8, 35, 30
16, 23262, Note_on_c, 8, 35, 0
16, 23264, Note_on_c, 8, 35, 34
16, 23294, Note_on_c, 8, 35, 0
16, 23296, Note_on_c, 8, 35, 34
16, 23326, Note_on_c, 8, 35, 0
16, 23328, Note_on_c, 8, 35, 31
16, 23358, Note_on_c, 8, 35, 0
16, 23360, Note_on_c, 8, 35, 29
16, 23390, Note_on_c, 8, 35, 0
16, 23392, Note_on_c, 8, 35, 34
16, 23422, Note_on_c, 8, 35, 0
16, 23424, Note_on_c, 8, 35, 27
16, 23454, Note_on_c, 8, 35, 0
16, 23456, Note_on_c, 8, 35, 30
16, 23486, Note_on_c, 8, 35, 0
16, 23488, Note_on_c, 8, 35, 29
16, 23518, Note_on_c, 8, 35, 0
16, 23520, Note_on_c, 8, 35, 34
16, 23550, Note_on_c, 8, 35, 0
16, 23552, Note_on_c, 8, 35, 25
16, 23582, Note_on_c, 8, 35, 0
16, 23584, Note_on_c, 8, 35, 30
16, 23614, Note_on_c, 8, 35, 0
16, 23616, Note_on_c, 8, 35, 31
16, 23646, Note_on_c, 8, 35, 0
16, 23648, Note_on_c, 8, 35, 26
16, 23678, Note_on_c, 8, 35, 0
16, 23680, Note_on_c, 8, 35, 25
16, 23710, Note_on_c, 8, 35, 0
16, 23712, Note_on_c, 8, 35, 30
16, 23742, Note_on_c, 8, 35, 0
16, 23744, Note_on_c, 8, 35, 34
16, 23774, Note_on_c, 8, 35, 0
16, 23776, Note_on_c, 8, 35, 35
16, 23806, Note_on_c, 8, 35, 0
16, 23808, Note_on_c, 8, 35, 28
16, 23902, Note_on_c, 8, 35, 0
16, 28416, Note_on_c, 8, 35, 26
16, 28446, Note_on_c, 8, 35, 0
16, 28448, Note_on_c, 8, 35, 28
16, 28478, Note_on_c, 8, 35, 0
16, 28480, Note_on_c, 8, 35, 28
16, 28510, Note_on_c, 8, 35, 0
16, 28512, Note_on_c, 8, 35, 29
16, 28542, Note_on_c, 8, 35, 0
16, 28544, Note_on_c, 8, 35, 39
16, 28574, Note_on_c, 8, 35, 0
16, 28576, Note_on_c, 8, 35, 38
16, 28606, Note_on_c, 8, 35, 0
16, 28608, Note_on_c, 8, 35, 40
16, 28638, Note_on_c, 8, 35, 0
16, 28640, Note_on_c, 8, 35, 48
16, 28670, Note_on_c, 8, 35, 0
16, 28672, Note_on_c, 8, 35, 46
16, 28702, Note_on_c, 8, 35, 0
16, 28704, Note_on_c, 8, 35, 50
16, 28734, Note_on_c, 8, 35, 0
16, 28736, Note_on_c, 8, 35, 53
16, 28766, Note_on_c, 8, 35, 0
16, 28768, Note_on_c, 8, 35, 60
16, 28798, Note_on_c, 8, 35, 0
16, 28800, Note_on_c, 8, 35, 57
16, 28830, Note_on_c, 8, 35, 0
16, 28832, Note_on_c, 8, 35, 61
16, 28862, Note_on_c, 8, 35, 0
16, 28864, Note_on_c, 8, 35, 58
16, 28894, Note_on_c, 8, 35, 0
16, 28896, Note_on_c, 8, 35, 57
16, 28926, Note_on_c, 8, 35, 0
16, 28928, Note_on_c, 8, 35, 49
16, 28958, Note_on_c, 8, 35, 0
16, 28960, Note_on_c, 8, 35, 52
16, 28990, Note_on_c, 8, 35, 0
16, 28992, Note_on_c, 8, 35, 43
16, 29022, Note_on_c, 8, 35, 0
16, 29024, Note_on_c, 8, 35, 45
16, 29054, Note_on_c, 8, 35, 0
16, 29056, Note_on_c, 8, 35, 47
16, 29086, Note_on_c, 8, 35, 0
16, 29088, Note_on_c, 8, 35, 41
16, 29118, Note_on_c, 8, 35, 0
16, 29120, Note_on_c, 8, 35, 32
16, 29150, Note_on_c, 8, 35, 0
16, 29152, Note_on_c, 8, 35, 33
16, 29182, Note_on_c, 8, 35, 0
16, 29184, Note_on_c, 8, 35, 32
16, 29214, Note_on_c, 8, 35, 0
16, 29216, Note_on_c, 8, 35, 35
16, 29246, Note_on_c, 8, 35, 0
16, 29248, Note_on_c, 8, 35, 30
16, 29278, Note_on_c, 8, 35, 0
16, 29280, Note_on_c, 8, 35, 33
16, 29310, Note_on_c, 8, 35, 0
16, 29312, Note_on_c, 8, 35, 33
16, 29342, Note_on_c, 8, 35, 0
16, 29344, Note_on_c, 8, 35, 27
16, 29374, Note_on_c, 8, 35, 0
16, 29376, Note_on_c, 8, 35, 28
16, 29406, Note_on_c, 8, 35, 0
16, 29408, Note_on_c, 8, 35, 35
16, 29438, Note_on_c, 8, 35, 0
16, 29440, Note_on_c, 8, 35, 34
16, 29470, Note_on_c, 8, 35, 0
16, 29472, Note_on_c, 8, 35, 25
16, 29502, Note_on_c, 8, 35, 0
16, 29504, Note_on_c, 8, 35, 32
16, 29534, Note_on_c, 8, 35, 0
16, 29536, Note_on_c, 8, 35, 33
16, 29566, Note_on_c, 8, 35, 0
16, 29568, Note_on_c, 8, 35, 33
16, 29598, Note_on_c, 8, 35, 0
16, 29600, Note_on_c, 8, 35, 31
16, 29630, Note_on_c, 8, 35, 0
16, 29632, Note_on_c, 8, 35, 31
16, 29662, Note_on_c, 8, 35, 0
16, 29664, Note_on_c, 8, 35, 33
16, 29694, Note_on_c, 8, 35, 0
16, 29696, Note_on_c, 8, 35, 29
16, 29726, Note_on_c, 8, 35, 0
16, 29728, Note_on_c, 8, 35, 34
16, 29758, Note_on_c, 8, 35, 0
16, 29760, Note_on_c, 8, 35, 33
16, 29790, Note_on_c, 8, 35, 0
16, 29792, Note_on_c, 8, 35, 33
16, 29822, Note_on_c, 8, 35, 0
16, 29824, Note_on_c, 8, 35, 26
16, 29854, Note_on_c, 8, 35, 0
16, 29856, Note_on_c, 8, 35, 25
16, 29886, Note_on_c, 8, 35, 0
16, 29888, Note_on_c, 8, 35, 29
16, 29918, Note_on_c, 8, 35, 0
16, 29920, Note_on_c, 8, 35, 34
16, 29950, Note_on_c, 8, 35, 0
16, 36480, Note_on_c, 8, 35, 41
16, 36574, Note_on_c, 8, 35, 0
16, 39552, Note_on_c, 8, 35, 47
16, 39646, Note_on_c, 8, 35, 0
16, 41472, Note_on_c, 8, 35, 93
16, 41472, Note_on_c, 8, 36, 96
16, 41472, Note_on_c, 8, 37, 92
16, 41632, Note_on_c, 8, 35, 0
16, 41632, Note_on_c, 8, 36, 0
16, 41632, Note_on_c, 8, 37, 0
16, 43776, Note_on_c, 8, 35, 41
16, 43776, Note_on_c, 8, 36, 40
16, 43776, Note_on_c, 8, 37, 48
16, 43936, Note_on_c, 8, 35, 0
16, 43936, Note_on_c, 8, 36, 0
16, 43936, Note_on_c, 8, 37, 0
16, 45312, Note_on_c, 8, 35, 50
16, 45312, Note_on_c, 8, 36, 42
16, 45312, Note_on_c, 8, 37, 46
16, 45472, Note_on_c, 8, 35, 0
16, 45472, Note_on_c, 8, 36, 0
16, 45472, Note_on_c, 8, 37, 0
16, 46848, Note_on_c, 8, 35, 40
16, 46848, Note_on_c, 8, 36, 43
16, 46848, Note_on_c, 8, 37, 50
16, 47008, Note_on_c, 8, 35, 0
16, 47008, Note_on_c, 8, 36, 0
16, 47008, Note_on_c, 8, 37, 0
16, 48384, Note_on_c, 8, 35, 41
16, 48384, Note_on_c, 8, 36, 49
16, 48384, Note_on_c, 8, 37, 43
16, 48544, Note_on_c, 8, 35, 0
16, 48544, Note_on_c, 8, 36, 0
16, 48544, Note_on_c, 8, 37, 0
16, 50688, Note_on_c, 8, 35, 34
16, 50688, Note_on_c, 8, 36, 26
16, 50688, Note_on_c, 8, 37, 29
16, 50848, Note_on_c, 8, 35, 0
16, 50848, Note_on_c, 8, 36, 0
16, 50848, Note_on_c, 8, 37, 0
16, 52224, Note_on_c, 8, 35, 35
16, 52224, Note_on_c, 8, 36, 27
16, 52224, Note_on_c, 8, 37, 28
16, 52384, Note_on_c, 8, 35, 0
16, 52384, Note_on_c, 8, 36, 0
16, 52384, Note_on_c, 8, 37, 0
16, 56256, Note_on_c, 8, 35, 27
16, 56256, Note_on_c, 8, 36, 26
16, 56256, Note_on_c, 8, 37, 32
16, 56350, Note_on_c, 8, 35, 0
16, 56350, Note_on_c, 8, 36, 0
16, 56350, Note_on_c, 8, 37, 0
16, 56640, Note_on_c, 8, 35, 29
16, 56640, Note_on_c, 8, 36, 25
16, 56640, Note_on_c, 8, 37, 30
16, 56734, Note_on_c, 8, 35, 0
16, 56734, Note_on_c, 8, 36, 0
16, 56734, Note_on_c, 8, 37, 0
16, 57024, Note_on_c, 8, 35, 30
16, 57024, Note_on_c, 8, 36, 26
16, 57024, Note_on_c, 8, 37, 35
16, 57118, Note_on_c, 8, 35, 0
16, 57118, Note_on_c, 8, 36, 0
16, 57118, Note_on_c, 8, 37, 0
16, 57408, Note_on_c, 8, 35, 28
16, 57408, Note_on_c, 8, 36, 25
16, 57408, Note_on_c, 8, 37, 35
16, 57502, Note_on_c, 8, 35, 0
16, 57502, Note_on_c, 8, 36, 0
16, 57502, Note_on_c, 8, 37, 0
16, 57792, Note_on_c, 8, 35, 29
16, 57792, Note_on_c, 8, 36, 25
16, 57792, Note_on_c, 8, 37, 30
16, 57886, Note_on_c, 8, 35, 0
16, 57886, Note_on_c, 8, 36, 0
16, 57886, Note_on_c, 8, 37, 0
16, 58176, Note_on_c, 8, 35, 28
16, 58176, Note_on_c, 8, 36, 34
16, 58176, Note_on_c, 8, 37, 29
16, 58270, Note_on_c, 8, 35, 0
16, 58270, Note_on_c, 8, 36, 0
16, 58270, Note_on_c, 8, 37, 0
16, 58560, Note_on_c, 8, 35, 25
16, 58560, Note_on_c, 8, 36, 34
16, 58560, Note_on_c, 8, 37, 35
16, 58654, Note_on_c, 8, 35, 0
16, 58654, Note_on_c, 8, 36, 0
16, 58654, Note_on_c, 8, 37, 0
16, 58944, Note_on_c, 8, 35, 30
16, 58944, Note_on_c, 8, 36, 29
16, 58944, Note_on_c, 8, 37, 25
16, 59038, Note_on_c, 8, 35, 0
16, 59038, Note_on_c, 8, 36, 0
16, 59038, Note_on_c, 8, 37, 0
16, 59328, Note_on_c, 8, 35, 25
16, 59328, Note_on_c, 8, 36, 32
16, 59328, Note_on_c, 8, 37, 31
16, 59422, Note_on_c, 8, 35, 0
16, 59422, Note_on_c, 8, 36, 0
16, 59422, Note_on_c, 8, 37, 0
16, 59712, Note_on_c, 8, 35, 26
16, 59712, Note_on_c, 8, 36, 27
16, 59712, Note_on_c, 8, 37, 28
16, 59806, Note_on_c, 8, 35, 0
16, 59806, Note_on_c, 8, 36, 0
16, 59806, Note_on_c, 8, 37, 0
16, 60096, Note_on_c, 8, 35, 27
16, 60096, Note_on_c, 8, 36, 35
16, 60096, Note_on_c, 8, 37, 35
16, 60190, Note_on_c, 8, 35, 0
16, 60190, Note_on_c, 8, 36, 0
16, 60190, Note_on_c, 8, 37, 0
16, 60480, Note_on_c, 8, 35, 35
16, 60480, Note_on_c, 8, 36, 28
16, 60480, Note_on_c, 8, 37, 33
16, 60574, Note_on_c, 8, 35, 0
16, 60574, Note_on_c, 8, 36, 0
16, 60574, Note_on_c, 8, 37, 0
16, 60864, Note_on_c, 8, 35, 33
16, 60864, Note_on_c, 8, 36, 32
16, 60864, Note_on_c, 8, 37, 35
16, 60958, Note_on_c, 8, 35, 0
16, 60958, Note_on_c, 8, 36, 0
16, 60958, Note_on_c, 8, 37, 0
16, 61248, Note_on_c, 8, 35, 29
16, 61248, Note_on_c, 8, 36, 31
16, 61248, Note_on_c, 8, 37, 25
16, 61342, Note_on_c, 8, 35, 0
16, 61342, Note_on_c, 8, 36, 0
16, 61342, Note_on_c, 8, 37, 0
16, 61632, Note_on_c, 8, 35, 33
16, 61632, Note_on_c, 8, 36, 32
16, 61632, Note_on_c, 8, 37, 31
16, 61726, Note_on_c, 8, 35, 0
16, 61726, Note_on_c, 8, 36, 0
16, 61726, Note_on_c, 8, 37, 0
16, 62016, Note_on_c, 8, 35, 34
16, 62016, Note_on_c, 8, 36, 33
16, 62016, Note_on_c, 8, 37, 35
16, 62110, Note_on_c, 8, 35, 0
16, 62110, Note_on_c, 8, 36, 0
16, 62110, Note_on_c, 8, 37, 0
16, 91776, Note_on_c, 8, 35, 108
16, 91776, Note_on_c, 8, 36, 109
16, 91776, Note_on_c, 8, 37, 111
16, 91936, Note_on_c, 8, 35, 0
16, 91936, Note_on_c, 8, 36, 0
16, 91936, Note_on_c, 8, 37, 0
16, 93696, Note_on_c, 8, 35, 113
16, 93726, Note_on_c, 8, 35, 0
16, 93728, Note_on_c, 8, 35, 109
16, 93758, Note_on_c, 8, 35, 0
16, 93760, Note_on_c, 8, 35, 105
16, 93790, Note_on_c, 8, 35, 0
16, 93792, Note_on_c, 8, 35, 105
16, 93822, Note_on_c, 8, 35, 0
16, 93824, Note_on_c, 8, 35, 113
16, 93854, Note_on_c, 8, 35, 0
16, 93856, Note_on_c, 8, 35, 105
16, 93886, Note_on_c, 8, 35, 0
16, 93888, Note_on_c, 8, 35, 103
16, 93918, Note_on_c, 8, 35, 0
16, 93920, Note_on_c, 8, 35, 109
16, 93950, Note_on_c, 8, 35, 0
16, 93952, Note_on_c, 8, 35, 113
16, 93982, Note_on_c, 8, 35, 0
16, 93984, Note_on_c, 8, 35, 103
16, 94014, Note_on_c, 8, 35, 0
16, 94016, Note_on_c, 8, 35, 105
16, 94046, Note_on_c, 8, 35, 0
16, 94048, Note_on_c, 8, 35, 105
16, 94078, Note_on_c, 8, 35, 0
16, 94080, Note_on_c, 8, 35, 113
16, 94110, Note_on_c, 8, 35, 0
16, 94112, Note_on_c, 8, 35, 111
16, 94142, Note_on_c, 8, 35, 0
16, 94144, Note_on_c, 8, 35, 107
16, 94174, Note_on_c, 8, 35, 0
16, 94176, Note_on_c, 8, 35, 105
16, 94206, Note_on_c, 8, 35, 0
16, 94208, Note_on_c, 8, 35, 108
16, 94238, Note_on_c, 8, 35, 0
16, 94240, Note_on_c, 8, 35, 112
16, 94270, Note_on_c, 8, 35, 0
16, 94272, Note_on_c, 8, 35, 108
16, 94302, Note_on_c, 8, 35, 0
16, 94304, Note_on_c, 8, 35, 110
16, 94334, Note_on_c, 8, 35, 0
16, 94336, Note_on_c, 8, 35, 108
16, 94366, Note_on_c, 8, 35, 0
16, 94368, Note_on_c, 8, 35, 111
16, 94398, Note_on_c, 8, 35, 0
16, 94400, Note_on_c, 8, 35, 113
16, 94430, Note_on_c, 8, 35, 0
16, 94432, Note_on_c, 8, 35, 111
16, 94462, Note_on_c, 8, 35, 0
16, 94464, Note_on_c, 8, 35, 103
16, 94494, Note_on_c, 8, 35, 0
16, 94496, Note_on_c, 8, 35, 108
16, 94526, Note_on_c, 8, 35, 0
16, 94528, Note_on_c, 8, 35, 109
16, 94558, Note_on_c, 8, 35, 0
16, 94560, Note_on_c, 8, 35, 112
16, 94590, Note_on_c, 8, 35, 0
16, 94592, Note_on_c, 8, 35, 104
16, 94622, Note_on_c, 8, 35, 0
16, 94624, Note_on_c, 8, 35, 107
16, 94654, Note_on_c, 8, 35, 0
16, 94656, Note_on_c, 8, 35, 103
16, 94686, Note_on_c, 8, 35, 0
16, 94688, Note_on_c, 8, 35, 108
16, 94718, Note_on_c, 8, 35, 0
16, 94720, Note_on_c, 8, 35, 103
16, 94750, Note_on_c, 8, 35, 0
16, 94752, Note_on_c, 8, 35, 109
16, 94782, Note_on_c, 8, 35, 0
16, 94784, Note_on_c, 8, 35, 107
16, 94814, Note_on_c, 8, 35, 0
16, 94816, Note_on_c, 8, 35, 104
16, 94846, Note_on_c, 8, 35, 0
16, 94848, Note_on_c, 8, 35, 103
16, 94878, Note_on_c, 8, 35, 0
16, 94880, Note_on_c, 8, 35, 104
16, 94910, Note_on_c, 8, 35, 0
16, 94912, Note_on_c, 8, 35, 107
16, 94942, Note_on_c, 8, 35, 0
16, 94944, Note_on_c, 8, 35, 105
16, 94974, Note_on_c, 8, 35, 0
16, 94976, Note_on_c, 8, 35, 112
16, 95006, Note_on_c, 8, 35, 0
16, 95008, Note_on_c, 8, 35, 104
16, 95038, Note_on_c, 8, 35, 0
16, 95040, Note_on_c, 8, 35, 103
16, 95070, Note_on_c, 8, 35, 0
16, 95072, Note_on_c, 8, 35, 112
16, 95102, Note_on_c, 8, 35, 0
16, 95104, Note_on_c, 8, 35, 108
16, 95134, Note_on_c, 8, 35, 0
16, 95136, Note_on_c, 8, 35, 105
16, 95166, Note_on_c, 8, 35, 0
16, 95168, Note_on_c, 8, 35, 103
16, 95198, Note_on_c, 8, 35, 0
16, 95200, Note_on_c, 8, 35, 105
16, 95230, Note_on_c, 8, 35, 0
16, 95232, Note_on_c, 8, 35, 92
16, 95262, Note_on_c, 8, 35, 0
16, 95264, Note_on_c, 8, 35, 88
16, 95294, Note_on_c, 8, 35, 0
16, 95296, Note_on_c, 8, 35, 92
16, 95326, Note_on_c, 8, 35, 0
16, 95328, Note_on_c, 8, 35, 97
16, 95358, Note_on_c, 8, 35, 0
16, 95360, Note_on_c, 8, 35, 94
16, 95390, Note_on_c, 8, 35, 0
16, 95392, Note_on_c, 8, 35, 87
16, 95422, Note_on_c, 8, 35, 0
16, 95424, Note_on_c, 8, 35, 96
16, 95454, Note_on_c, 8, 35, 0
16, 95456, Note_on_c, 8, 35, 92
16, 95486, Note_on_c, 8, 35, 0
16, 95488, Note_on_c, 8, 35, 97
16, 95518, Note_on_c, 8, 35, 0
16, 95520, Note_on_c, 8, 35, 91
16, 95550, Note_on_c, 8, 35, 0
16, 95552, Note_on_c, 8, 35, 96
16, 95582, Note_on_c, 8, 35, 0
16, 95584, Note_on_c, 8, 35, 91
16, 95614, Note_on_c, 8, 35, 0
16, 95616, Note_on_c, 8, 35, 95
16, 95646, Note_on_c, 8, 35, 0
16, 95648, Note_on_c, 8, 35, 88
16, 95678, Note_on_c, 8, 35, 0
16, 95680, Note_on_c, 8, 35, 90
16, 95710, Note_on_c, 8, 35, 0
16, 95712, Note_on_c, 8, 35, 91
16, 95742, Note_on_c, 8, 35, 0
16, 95744, Note_on_c, 8, 35, 93
16, 95774, Note_on_c, 8, 35, 0
16, 95776, Note_on_c, 8, 35, 89
16, 95806, Note_on_c, 8, 35, 0
16, 95808, Note_on_c, 8, 35, 88
16, 95838, Note_on_c, 8, 35, 0
16, 95840, Note_on_c, 8, 35, 90
16, 95870, Note_on_c, 8, 35, 0
16, 95872, Note_on_c, 8, 35, 88
16, 95902, Note_on_c, 8, 35, 0
16, 95904, Note_on_c, 8, 35, 96
16, 95934, Note_on_c, 8, 35, 0
16, 95936, Note_on_c, 8, 35, 88
16, 95966, Note_on_c, 8, 35, 0
16, 95968, Note_on_c, 8, 35, 89
16, 95998, Note_on_c, 8, 35, 0
16, 96000, Note_on_c, 8, 35, 95
16, 96030, Note_on_c, 8, 35, 0
16, 96032, Note_on_c, 8, 35, 97
16, 96062, Note_on_c, 8, 35, 0
16, 96064, Note_on_c, 8, 35, 91
16, 96094, Note_on_c, 8, 35, 0
16, 96096, Note_on_c, 8, 35, 91
16, 96126, Note_on_c, 8, 35, 0
16, 96128, Note_on_c, 8, 35, 96
16, 96158, Note_on_c, 8, 35, 0
16, 96160, Note_on_c, 8, 35, 88
16, 96190, Note_on_c, 8, 35, 0
16, 96192, Note_on_c, 8, 35, 93
16, 96222, Note_on_c, 8, 35, 0
16, 96224, Note_on_c, 8, 35, 89
16, 96254, Note_on_c, 8, 35, 0
16, 96256, Note_on_c, 8, 35, 88
16, 96286, Note_on_c, 8, 35, 0
16, 96288, Note_on_c, 8, 35, 87
16, 96318, Note_on_c, 8, 35, 0
16, 96320, Note_on_c, 8, 35, 90
16, 96350, Note_on_c, 8, 35, 0
16, 96352, Note_on_c, 8, 35, 89
16, 96382, Note_on_c, 8, 35, 0
16, 96384, Note_on_c, 8, 35, 92
16, 96414, Note_on_c, 8, 35, 0
16, 96416, Note_on_c, 8, 35, 88
16, 96446, Note_on_c, 8, 35, 0
16, 96448, Note_on_c, 8, 35, 86
16, 96478, Note_on_c, 8, 35, 0
16, 96480, Note_on_c, 8, 35, 80
16, 96510, Note_on_c, 8, 35, 0
16, 96512, Note_on_c, 8, 35, 84
16, 96542, Note_on_c, 8, 35, 0
16, 96544, Note_on_c, 8, 35, 79
16, 96574, Note_on_c, 8, 35, 0
16, 96576, Note_on_c, 8, 35, 85
16, 96606, Note_on_c, 8, 35, 0
16, 96608, Note_on_c, 8, 35, 82
16, 96638, Note_on_c, 8, 35, 0
16, 96640, Note_on_c, 8, 35, 82
16, 96670, Note_on_c, 8, 35, 0
16, 96672, Note_on_c, 8, 35, 80
16, 96702, Note_on_c, 8, 35, 0
16, 96704, Note_on_c, 8, 35, 74
16, 96734, Note_on_c, 8, 35, 0
16, 96736, Note_on_c, 8, 35, 78
16, 96766, Note_on_c, 8, 35, 0
16, 96768, Note_on_c, 8, 35, 75
16, 96798, Note_on_c, 8, 35, 0
16, 96800, Note_on_c, 8, 35, 71
16, 96830, Note_on_c, 8, 35, 0
16, 96832, Note_on_c, 8, 35, 70
16, 96862, Note_on_c, 8, 35, 0
16, 96864, Note_on_c, 8, 35, 76
16, 96894, Note_on_c, 8, 35, 0
16, 96896, Note_on_c, 8, 35, 66
16, 96926, Note_on_c, 8, 35, 0
16, 96928, Note_on_c, 8, 35, 63
16, 96958, Note_on_c, 8, 35, 0
16, 96960, Note_on_c, 8, 35, 68
16, 96990, Note_on_c, 8, 35, 0
16, 96992, Note_on_c, 8, 35, 62
16, 97022, Note_on_c, 8, 35, 0
16, 97024, Note_on_c, 8, 35, 63
16, 97054, Note_on_c, 8, 35, 0
16, 97056, Note_on_c, 8, 35, 62
16, 97086, Note_on_c, 8, 35, 0
16, 97088, Note_on_c, 8, 35, 61
16, 97118, Note_on_c, 8, 35, 0
16, 97120, Note_on_c, 8, 35, 56
16, 97150, Note_on_c, 8, 35, 0
16, 97152, Note_on_c, 8, 35, 57
16, 97182, Note_on_c, 8, 35, 0
16, 97184, Note_on_c, 8, 35, 48
16, 97214, Note_on_c, 8, 35, 0
16, 97216, Note_on_c, 8, 35, 52
16, 97246, Note_on_c, 8, 35, 0
16, 97248, Note_on_c, 8, 35, 49
16, 97278, Note_on_c, 8, 35, 0
16, 97280, Note_on_c, 8, 35, 45
16, 97310, Note_on_c, 8, 35, 0
16, 97312, Note_on_c, 8, 35, 45
16, 97342, Note_on_c, 8, 35, 0
16, 97344, Note_on_c, 8, 35, 42
16, 97374, Note_on_c, 8, 35, 0
16, 97376, Note_on_c, 8, 35, 38
16, 97406, Note_on_c, 8, 35, 0
16, 97408, Note_on_c, 8, 35, 36
16, 97438, Note_on_c, 8, 35, 0
16, 97440, Note_on_c, 8, 35, 41
16, 97470, Note_on_c, 8, 35, 0
16, 97472, Note_on_c, 8, 35, 29
16, 97502, Note_on_c, 8, 35, 0
16, 97504, Note_on_c, 8, 35, 37
16, 97534, Note_on_c, 8, 35, 0
16, 97536, Note_on_c, 8, 35, 31
16, 97566, Note_on_c, 8, 35, 0
16, 97568, Note_on_c, 8, 35, 29
16, 97598, Note_on_c, 8, 35, 0
16, 97600, Note_on_c, 8, 35, 35
16, 97630, Note_on_c, 8, 35, 0
16, 97632, Note_on_c, 8, 35, 33
16, 97662, Note_on_c, 8, 35, 0
16, 97664, Note_on_c, 8, 35, 32
16, 97694, Note_on_c, 8, 35, 0
16, 97696, Note_on_c, 8, 35, 30
16, 97726, Note_on_c, 8, 35, 0
16, 97728, Note_on_c, 8, 35, 32
16, 97758, Note_on_c, 8, 35, 0
16, 97760, Note_on_c, 8, 35, 33
16, 97790, Note_on_c, 8, 35, 0
16, 97792, Note_on_c, 8, 35, 30
16, 97822, Note_on_c, 8, 35, 0
16, 97824, Note_on_c, 8, 35, 30
16, 97854, Note_on_c, 8, 35, 0
16, 97856, Note_on_c, 8, 35, 36
16, 97886, Note_on_c, 8, 35, 0
16, 97888, Note_on_c, 8, 35, 30
16, 97918, Note_on_c, 8, 35, 0
16, 97920, Note_on_c, 8, 35, 32
16, 97950, Note_on_c, 8, 35, 0
16, 97952, Note_on_c, 8, 35, 34
16, 97982, Note_on_c, 8, 35, 0
16, 97984, Note_on_c, 8, 35, 34
16, 98014, Note_on_c, 8, 35, 0
16, 98016, Note_on_c, 8, 35, 38
16, 98046, Note_on_c, 8, 35, 0
16, 98048, Note_on_c, 8, 35, 32
16, 98078, Note_on_c, 8, 35, 0
16, 98080, Note_on_c, 8, 35, 34
16, 98110, Note_on_c, 8, 35, 0
16, 98112, Note_on_c, 8, 35, 35
16, 98142, Note_on_c, 8, 35, 0
16, 98144, Note_on_c, 8, 35, 37
16, 98174, Note_on_c, 8, 35, 0
16, 98176, Note_on_c, 8, 35, 37
16, 98206, Note_on_c, 8, 35, 0
16, 98208, Note_on_c, 8, 35, 46
16, 98238, Note_on_c, 8, 35, 0
16, 98240, Note_on_c, 8, 35, 41
16, 98270, Note_on_c, 8, 35, 0
16, 98272, Note_on_c, 8, 35, 41
16, 98302, Note_on_c, 8, 35, 0
16, 98304, Note_on_c, 8, 35, 41
16, 98334, Note_on_c, 8, 35, 0
16, 98336, Note_on_c, 8, 35, 40
16, 98366, Note_on_c, 8, 35, 0
16, 98368, Note_on_c, 8, 35, 44
16, 98398, Note_on_c, 8, 35, 0
16, 98400, Note_on_c, 8, 35, 42
16, 98430, Note_on_c, 8, 35, 0
16, 98432, Note_on_c, 8, 35, 44
16, 98462, Note_on_c, 8, 35, 0
16, 98464, Note_on_c, 8, 35, 41
16, 98494, Note_on_c, 8, 35, 0
16, 98496, Note_on_c, 8, 35, 42
16, 98526, Note_on_c, 8, 35, 0
16, 98528, Note_on_c, 8, 35, 44
16, 98558, Note_on_c, 8, 35, 0
16, 98560, Note_on_c, 8, 35, 47
16, 98590, Note_on_c, 8, 35, 0
16, 98592, Note_on_c, 8, 35, 48
16, 98622, Note_on_c, 8, 35, 0
16, 98624, Note_on_c, 8, 35, 46
16, 98654, Note_on_c, 8, 35, 0
16, 98656, Note_on_c, 8, 35, 44
16, 98686, Note_on_c, 8, 35, 0
16, 98688, Note_on_c, 8, 35, 50
16, 98718, Note_on_c, 8, 35, 0
16, 98720, Note_on_c, 8, 35, 41
16, 98750, Note_on_c, 8, 35, 0
16, 98752, Note_on_c, 8, 35, 42
16, 98782, Note_on_c, 8, 35, 0
16, 98784, Note_on_c, 8, 35, 45
16, 98814, Note_on_c, 8, 35, 0
16, 98816, Note_on_c, 8, 35, 42
16, 98846, Note_on_c, 8, 35, 0
16, 98848, Note_on_c, 8, 35, 43
16, 98878, Note_on_c, 8, 35, 0
16, 98880, Note_on_c, 8, 35, 43
16, 98910, Note_on_c, 8, 35, 0
16, 98912, Note_on_c, 8, 35, 40
16, 98942, Note_on_c, 8, 35, 0
16, 98944, Note_on_c, 8, 35, 40
16, 98974, Note_on_c, 8, 35, 0
16, 98976, Note_on_c, 8, 35, 42
16, 99006, Note_on_c, 8, 35, 0
16, 99008, Note_on_c, 8, 35, 41
16, 99038, Note_on_c, 8, 35, 0
16, 99040, Note_on_c, 8, 35, 37
16, 99070, Note_on_c, 8, 35, 0
16, 99072, Note_on_c, 8, 35, 37
16, 99102, Note_on_c, 8, 35, 0
16, 99104, Note_on_c, 8, 35, 29
16, 99134, Note_on_c, 8, 35, 0
16, 99136, Note_on_c, 8, 35, 37
16, 99166, Note_on_c, 8, 35, 0
16, 99168, Note_on_c, 8, 35, 34
16, 99198, Note_on_c, 8, 35, 0
16, 99200, Note_on_c, 8, 35, 32
16, 99230, Note_on_c, 8, 35, 0
16, 99232, Note_on_c, 8, 35, 35
16, 99262, Note_on_c, 8, 35, 0
16, 99264, Note_on_c, 8, 35, 29
16, 99294, Note_on_c, 8, 35, 0
16, 99296, Note_on_c, 8, 35, 27
16, 99326, Note_on_c, 8, 35, 0
16, 99328, Note_on_c, 8, 35, 28
16, 99358, Note_on_c, 8, 35, 0
16, 99360, Note_on_c, 8, 35, 29
16, 99390, Note_on_c, 8, 35, 0
16, 99392, Note_on_c, 8, 35, 21
16, 99422, Note_on_c, 8, 35, 0
16, 99424, Note_on_c, 8, 35, 27
16, 99454, Note_on_c, 8, 35, 0
16, 99456, Note_on_c, 8, 35, 18
16, 99486, Note_on_c, 8, 35, 0
16, 99488, Note_on_c, 8, 35, 20
16, 99518, Note_on_c, 8, 35, 0
16, 99520, Note_on_c, 8, 35, 18
16, 99550, Note_on_c, 8, 35, 0
16, 99552, Note_on_c, 8, 35, 15
16, 99582, Note_on_c, 8, 35, 0
16, 99584, Note_on_c, 8, 35, 17
16, 99614, Note_on_c, 8, 35, 0
16, 99616, Note_on_c, 8, 35, 18
16, 99646, Note_on_c, 8, 35, 0
16, 99648, Note_on_c, 8, 35, 18
16, 99678, Note_on_c, 8, 35, 0
16, 99680, Note_on_c, 8, 35, 11
16, 99710, Note_on_c, 8, 35, 0
16, 99712, Note_on_c, 8, 35, 18
16, 99742, Note_on_c, 8, 35, 0
16, 99744, Note_on_c, 8, 35, 12
16, 99774, Note_on_c, 8, 35, 0
16, 99776, Note_on_c, 8, 35, 12
16, 99806, Note_on_c, 8, 35, 0
16, 99808, Note_on_c, 8, 35, 9
16, 99838, Note_on_c, 8, 35, 0
16, 162816, Note_on_c, 8, 35, 50
16, 162816, Note_on_c, 8, 36, 49
16, 162816, Note_on_c, 8, 37, 48
16, 162976, Note_on_c, 8, 35, 0
16, 162976, Note_on_c, 8, 36, 0
16, 162976, Note_on_c, 8, 37, 0
16, 164352, Note_on_c, 8, 35, 41
16, 164352, Note_on_c, 8, 36, 47
16, 164352, Note_on_c, 8, 37, 40
16, 164512, Note_on_c, 8, 35, 0
16, 164512, Note_on_c, 8, 36, 0
16, 164512, Note_on_c, 8, 37, 0
16, 167424, Note_on_c, 8, 35, 34
16, 167424, Note_on_c, 8, 36, 33
16, 167424, Note_on_c, 8, 37, 34
16, 167584, Note_on_c, 8, 35, 0
16, 167584, Note_on_c, 8, 36, 0
16, 167584, Note_on_c, 8, 37, 0
16, 188928, Note_on_c, 8, 35, 42
16, 188928, Note_on_c, 8, 36, 42
16, 188928, Note_on_c, 8, 37, 40
16, 189088, Note_on_c, 8, 35, 0
16, 189088, Note_on_c, 8, 36, 0
16, 189088, Note_on_c, 8, 37, 0
16, 189312, Note_on_c, 8, 35, 48
16, 189312, Note_on_c, 8, 36, 49
16, 189312, Note_on_c, 8, 37, 40
16, 189472, Note_on_c, 8, 35, 0
16, 189472, Note_on_c, 8, 36, 0
16, 189472, Note_on_c, 8, 37, 0
16, 190080, Note_on_c, 8, 35, 44
16, 190080, Note_on_c, 8, 36, 49
16, 190080, Note_on_c, 8, 37, 48
16, 190240, Note_on_c, 8, 35, 0
16, 190240, Note_on_c, 8, 36, 0
16, 190240, Note_on_c, 8, 37, 0
16, 190464, Note_on_c, 8, 35, 50
16, 190464, Note_on_c, 8, 36, 43
16, 190464, Note_on_c, 8, 37, 43
16, 190624, Note_on_c, 8, 35, 0
16, 190624, Note_on_c, 8, 36, 0
16, 190624, Note_on_c, 8, 37, 0
16, 190848, Note_on_c, 8, 35, 48
16, 190848, Note_on_c, 8, 36, 43
16, 190848, Note_on_c, 8, 37, 49
16, 191008, Note_on_c, 8, 35, 0
16, 191008, Note_on_c, 8, 36, 0
16, 191008, Note_on_c, 8, 37, 0
16, 191616, Note_on_c, 8, 35, 49
16, 191616, Note_on_c, 8, 36, 46
16, 191616, Note_on_c, 8, 37, 42
16, 191776, Note_on_c, 8, 35, 0
16, 191776, Note_on_c, 8, 36, 0
16, 191776, Note_on_c, 8, 37, 0
16, 192000, Note_on_c, 8, 35, 41
16, 192000, Note_on_c, 8, 36, 45
16, 192000, Note_on_c, 8, 37, 44
16, 192160, Note_on_c, 8, 35, 0
16, 192160, Note_on_c, 8, 36, 0
16, 192160, Note_on_c, 8, 37, 0
16, 192384, Note_on_c, 8, 35, 50
16, 192384, Note_on_c, 8, 36, 47
16, 192384, Note_on_c, 8, 37, 44
16, 192544, Note_on_c, 8, 35, 0
16, 192544, Note_on_c, 8, 36, 0
16, 192544, Note_on_c, 8, 37, 0
16, 192768, Note_on_c, 8, 35, 46
16, 192768, Note_on_c, 8, 36, 45
16, 192768, Note_on_c, 8, 37, 44
16, 192928, Note_on_c, 8, 35, 0
16, 192928, Note_on_c, 8, 36, 0
16, 192928, Note_on_c, 8, 37, 0
16, 193536, Note_on_c, 8, 35, 41
16, 193536, Note_on_c, 8, 36, 45
16, 193536, Note_on_c, 8, 37, 49
16, 193696, Note_on_c, 8, 35, 0
16, 193696, Note_on_c, 8, 36, 0
16, 193696, Note_on_c, 8, 37, 0
16, 193920, Note_on_c, 8, 35, 48
16, 193920, Note_on_c, 8, 36, 40
16, 193920, Note_on_c, 8, 37, 45
16, 194080, Note_on_c, 8, 35, 0
16, 194080, Note_on_c, 8, 36, 0
16, 194080, Note_on_c, 8, 37, 0
16, 194304, Note_on_c, 8, 35, 49
16, 194304, Note_on_c, 8, 36, 50
16, 194304, Note_on_c, 8, 37, 45
16, 194464, Note_on_c, 8, 35, 0
16, 194464, Note_on_c, 8, 36, 0
16, 194464, Note_on_c, 8, 37, 0
16, 195072, Note_on_c, 8, 35, 42
16, 195072, Note_on_c, 8, 36, 44
16, 195072, Note_on_c, 8, 37, 47
16, 195232, Note_on_c, 8, 35, 0
16, 195232, Note_on_c, 8, 36, 0
16, 195232, Note_on_c, 8, 37, 0
16, 195456, Note_on_c, 8, 35, 47
16, 195456, Note_on_c, 8, 36, 43
16, 195456, Note_on_c, 8, 37, 41
16, 195616, Note_on_c, 8, 35, 0
16, 195616, Note_on_c, 8, 36, 0
16, 195616, Note_on_c, 8, 37, 0
16, 195840, Note_on_c, 8, 35, 94
16, 195840, Note_on_c, 8, 36, 96
16, 195840, Note_on_c, 8, 37, 94
16, 196000, Note_on_c, 8, 35, 0
16, 196000, Note_on_c, 8, 36, 0
16, 196000, Note_on_c, 8, 37, 0
16, 196224, Note_on_c, 8, 35, 95
16, 196224, Note_on_c, 8, 36, 87
16, 196224, Note_on_c, 8, 37, 91
16, 196384, Note_on_c, 8, 35, 0
16, 196384, Note_on_c, 8, 36, 0
16, 196384, Note_on_c, 8, 37, 0
16, 196992, Note_on_c, 8, 35, 88
16, 196992, Note_on_c, 8, 36, 95
16, 196992, Note_on_c, 8, 38, 89
16, 197152, Note_on_c, 8, 35, 0
16, 197152, Note_on_c, 8, 36, 0
16, 197152, Note_on_c, 8, 38, 0
16, 197376, Note_on_c, 8, 35, 97
16, 197376, Note_on_c, 8, 36, 89
16, 197376, Note_on_c, 8, 37, 88
16, 197536, Note_on_c, 8, 35, 0
16, 197536, Note_on_c, 8, 36, 0
16, 197536, Note_on_c, 8, 37, 0
16, 197760, Note_on_c, 8, 35, 90
16, 197760, Note_on_c, 8, 36, 87
16, 197760, Note_on_c, 8, 37, 94
16, 197920, Note_on_c, 8, 35, 0
16, 197920, Note_on_c, 8, 36, 0
16, 197920, Note_on_c, 8, 37, 0
16, 209856, Note_on_c, 8, 35, 78
16, 209856, Note_on_c, 8, 36, 76
16, 209856, Note_on_c, 8, 37, 76
16, 210016, Note_on_c, 8, 35, 0
16, 210016, Note_on_c, 8, 36, 0
16, 210016, Note_on_c, 8, 37, 0
16, 210624, Note_on_c, 8, 35, 97
16, 210624, Note_on_c, 8, 36, 88
16, 210624, Note_on_c, 8, 37, 93
16, 210784, Note_on_c, 8, 35, 0
16, 210784, Note_on_c, 8, 36, 0
16, 210784, Note_on_c, 8, 37, 0
16, 216192, Note_on_c, 8, 35, 26
16, 216192, Note_on_c, 8, 36, 29
16, 216192, Note_on_c, 8, 37, 27
16, 216352, Note_on_c, 8, 35, 0
16, 216352, Note_on_c, 8, 36, 0
16, 216352, Note_on_c, 8, 37, 0
16, 216960, Note_on_c, 8, 35, 27
16, 216960, Note_on_c, 8, 36, 31
16, 216960, Note_on_c, 8, 37, 30
16, 217120, Note_on_c, 8, 35, 0
16, 217120, Note_on_c, 8, 36, 0
16, 217120, Note_on_c, 8, 37, 0
16, 217728, Note_on_c, 8, 35, 31
16, 217728, Note_on_c, 8, 36, 27
16, 217728, Note_on_c, 8, 37, 32
16, 217888, Note_on_c, 8, 35, 0
16, 217888, Note_on_c, 8, 36, 0
16, 217888, Note_on_c, 8, 37, 0
16, 218496, Note_on_c, 8, 35, 49
16, 218496, Note_on_c, 8, 36, 40
16, 218496, Note_on_c, 8, 37, 48
16, 218656, Note_on_c, 8, 35, 0
16, 218656, Note_on_c, 8, 36, 0
16, 218656, Note_on_c, 8, 37, 0
16, 219264, Note_on_c, 8, 35, 45
16, 219264, Note_on_c, 8, 36, 41
16, 219264, Note_on_c, 8, 37, 50
16, 219424, Note_on_c, 8, 35, 0
16, 219424, Note_on_c, 8, 36, 0
16, 219424, Note_on_c, 8, 37, 0
16, 220032, Note_on_c, 8, 35, 48
16, 220032, Note_on_c, 8, 36, 40
16, 220032, Note_on_c, 8, 37, 48
16, 220192, Note_on_c, 8, 35, 0
16, 220192, Note_on_c, 8, 36, 0
16, 220192, Note_on_c, 8, 37, 0
16, 220416, Note_on_c, 8, 35, 94
16, 220416, Note_on_c, 8, 36, 90
16, 220416, Note_on_c, 8, 37, 87
16, 220576, Note_on_c, 8, 35, 0
16, 220576, Note_on_c, 8, 36, 0
16, 220576, Note_on_c, 8, 37, 0
16, 221184, Note_on_c, 8, 35, 97
16, 221184, Note_on_c, 8, 36, 89
16, 221184, Note_on_c, 8, 37, 97
16, 221344, Note_on_c, 8, 35, 0
16, 221344, Note_on_c, 8, 36, 0
16, 221344, Note_on_c, 8, 37, 0
16, 222720, Note_on_c, 8, 35, 97
16, 222720, Note_on_c, 8, 36, 95
16, 222720, Note_on_c, 8, 37, 94
16, 222880, Note_on_c, 8, 35, 0
16, 222880, Note_on_c, 8, 36, 0
16, 222880, Note_on_c, 8, 37, 0
16, 222880, End_track
17, 0, Start_track
17, 0, Title_t, "Piatti"
17, 0, MIDI_port, 0
17, 7680, Note_on_c, 9, 57, 44
17, 7840, Note_on_c, 9, 57, 0
17, 9216, Note_on_c, 9, 57, 48
17, 9376, Note_on_c, 9, 57, 0
17, 19968, Note_on_c, 9, 57, 29
17, 19998, Note_on_c, 9, 57, 0
17, 20000, Note_on_c, 9, 57, 33
17, 20030, Note_on_c, 9, 57, 0
17, 20032, Note_on_c, 9, 57, 32
17, 20062, Note_on_c, 9, 57, 0
17, 20064, Note_on_c, 9, 57, 31
17, 20094, Note_on_c, 9, 57, 0
17, 20096, Note_on_c, 9, 57, 25
17, 20126, Note_on_c, 9, 57, 0
17, 20128, Note_on_c, 9, 57, 30
17, 20158, Note_on_c, 9, 57, 0
17, 20160, Note_on_c, 9, 57, 34
17, 20190, Note_on_c, 9, 57, 0
17, 20192, Note_on_c, 9, 57, 34
17, 20222, Note_on_c, 9, 57, 0
17, 20224, Note_on_c, 9, 57, 30
17, 20254, Note_on_c, 9, 57, 0
17, 20256, Note_on_c, 9, 57, 25
17, 20286, Note_on_c, 9, 57, 0
17, 20288, Note_on_c, 9, 57, 27
17, 20318, Note_on_c, 9, 57, 0
17, 20320, Note_on_c, 9, 57, 29
17, 20350, Note_on_c, 9, 57, 0
17, 20352, Note_on_c, 9, 57, 29
17, 20382, Note_on_c, 9, 57, 0
17, 20384, Note_on_c, 9, 57, 27
17, 20414, Note_on_c, 9, 57, 0
17, 20416, Note_on_c, 9, 57, 32
17, 20446, Note_on_c, 9, 57, 0
17, 20448, Note_on_c, 9, 57, 34
17, 20478, Note_on_c, 9, 57, 0
17, 20480, Note_on_c, 9, 57, 35
17, 20510, Note_on_c, 9, 57, 0
17, 20512, Note_on_c, 9, 57, 32
17, 20542, Note_on_c, 9, 57, 0
17, 20544, Note_on_c, 9, 57, 33
17, 20574, Note_on_c, 9, 57, 0
17, 20576, Note_on_c, 9, 57, 34
17, 20606, Note_on_c, 9, 57, 0
17, 20608, Note_on_c, 9, 57, 25
17, 20638, Note_on_c, 9, 57, 0
17, 20640, Note_on_c, 9, 57, 25
17, 20670, Note_on_c, 9, 57, 0
17, 20672, Note_on_c, 9, 57, 35
17, 20702, Note_on_c, 9, 57, 0
17, 20704, Note_on_c, 9, 57, 28
17, 20734, Note_on_c, 9, 57, 0
17, 20736, Note_on_c, 9, 57, 33
17, 20766, Note_on_c, 9, 57, 0
17, 20768, Note_on_c, 9, 57, 30
17, 20798, Note_on_c, 9, 57, 0
17, 20800, Note_on_c, 9, 57, 32
17, 20830, Note_on_c, 9, 57, 0
17, 20832, Note_on_c, 9, 57, 34
17, 20862, Note_on_c, 9, 57, 0
17, 20864, Note_on_c, 9, 57, 33
17, 20894, Note_on_c, 9, 57, 0
17, 20896, Note_on_c, 9, 57, 29
17, 20926, Note_on_c, 9, 57, 0
17, 20928, Note_on_c, 9, 57, 29
17, 20958, Note_on_c, 9, 57, 0
17, 20960, Note_on_c, 9, 57, 25
17, 20990, Note_on_c, 9, 57, 0
17, 20992, Note_on_c, 9, 57, 33
17, 21022, Note_on_c, 9, 57, 0
17, 21024, Note_on_c, 9, 57, 25
17, 21054, Note_on_c, 9, 57, 0
17, 21056, Note_on_c, 9, 57, 35
17, 21086, Note_on_c, 9, 57, 0
17, 21088, Note_on_c, 9, 57, 27
17, 21118, Note_on_c, 9, 57, 0
17, 21120, Note_on_c, 9, 57, 26
17, 21150, Note_on_c, 9, 57, 0
17, 21152, Note_on_c, 9, 57, 35
17, 21182, Note_on_c, 9, 57, 0
17, 21184, Note_on_c, 9, 57, 30
17, 21214, Note_on_c, 9, 57, 0
17, 21216, Note_on_c, 9, 57, 25
17, 21246, Note_on_c, 9, 57, 0
17, 21248, Note_on_c, 9, 57, 28
17, 21278, Note_on_c, 9, 57, 0
17, 21280, Note_on_c, 9, 57, 35
17, 21310, Note_on_c, 9, 57, 0
17, 21312, Note_on_c, 9, 57, 28
17, 21342, Note_on_c, 9, 57, 0
17, 21344, Note_on_c, 9, 57, 31
17, 21374, Note_on_c, 9, 57, 0
17, 21376, Note_on_c, 9, 57, 25
17, 21406, Note_on_c, 9, 57, 0
17, 21408, Note_on_c, 9, 57, 26
17, 21438, Note_on_c, 9, 57, 0
17, 21440, Note_on_c, 9, 57, 32
17, 21470, Note_on_c, 9, 57, 0
17, 21472, Note_on_c, 9, 57, 26
17, 21502, Note_on_c, 9, 57, 0
17, 23808, Note_on_c, 9, 57, 33
17, 23838, Note_on_c, 9, 57, 0
17, 23840, Note_on_c, 9, 57, 33
17, 23870, Note_on_c, 9, 57, 0
17, 23872, Note_on_c, 9, 57, 33
17, 23902, Note_on_c, 9, 57, 0
17, 23904, Note_on_c, 9, 57, 34
17, 23934, Note_on_c, 9, 57, 0
17, 23936, Note_on_c, 9, 57, 30
17, 23966, Note_on_c, 9, 57, 0
17, 23968, Note_on_c, 9, 57, 31
17, 23998, Note_on_c, 9, 57, 0
17, 24000, Note_on_c, 9, 57, 29
17, 24030, Note_on_c, 9, 57, 0
17, 24032, Note_on_c, 9, 57, 27
17, 24062, Note_on_c, 9, 57, 0
17, 24064, Note_on_c, 9, 57, 28
17, 24094, Note_on_c, 9, 57, 0
17, 24096, Note_on_c, 9, 57, 28
17, 24126, Note_on_c, 9, 57, 0
17, 24128, Note_on_c, 9, 57, 26
17, 24158, Note_on_c, 9, 57, 0
17, 24160, Note_on_c, 9, 57, 32
17, 24190, Note_on_c, 9, 57, 0
17, 24192, Note_on_c, 9, 57, 28
17, 24222, Note_on_c, 9, 57, 0
17, 24224, Note_on_c, 9, 57, 29
17, 24254, Note_on_c, 9, 57, 0
17, 24256, Note_on_c, 9, 57, 30
17, 24286, Note_on_c, 9, 57, 0
17, 24288, Note_on_c, 9, 57, 31
17, 24318, Note_on_c, 9, 57, 0
17, 24320, Note_on_c, 9, 57, 34
17, 24350, Note_on_c, 9, 57, 0
17, 24352, Note_on_c, 9, 57, 33
17, 24382, Note_on_c, 9, 57, 0
17, 24384, Note_on_c, 9, 57, 33
17, 24414, Note_on_c, 9, 57, 0
17, 24416, Note_on_c, 9, 57, 32
17, 24446, Note_on_c, 9, 57, 0
17, 24448, Note_on_c, 9, 57, 33
17, 24478, Note_on_c, 9, 57, 0
17, 24480, Note_on_c, 9, 57, 27
17, 24510, Note_on_c, 9, 57, 0
17, 24512, Note_on_c, 9, 57, 35
17, 24542, Note_on_c, 9, 57, 0
17, 24544, Note_on_c, 9, 57, 33
17, 24574, Note_on_c, 9, 57, 0
17, 24576, Note_on_c, 9, 57, 30
17, 24606, Note_on_c, 9, 57, 0
17, 24608, Note_on_c, 9, 57, 26
17, 24638, Note_on_c, 9, 57, 0
17, 24640, Note_on_c, 9, 57, 35
17, 24670, Note_on_c, 9, 57, 0
17, 24672, Note_on_c, 9, 57, 33
17, 24702, Note_on_c, 9, 57, 0
17, 24704, Note_on_c, 9, 57, 25
17, 24734, Note_on_c, 9, 57, 0
17, 24736, Note_on_c, 9, 57, 29
17, 24766, Note_on_c, 9, 57, 0
17, 24768, Note_on_c, 9, 57, 35
17, 24798, Note_on_c, 9, 57, 0
17, 24800, Note_on_c, 9, 57, 32
17, 24830, Note_on_c, 9, 57, 0
17, 24832, Note_on_c, 9, 57, 33
17, 24862, Note_on_c, 9, 57, 0
17, 24864, Note_on_c, 9, 57, 35
17, 24894, Note_on_c, 9, 57, 0
17, 24896, Note_on_c, 9, 57, 28
17, 24926, Note_on_c, 9, 57, 0
17, 24928, Note_on_c, 9, 57, 35
17, 24958, Note_on_c, 9, 57, 0
17, 24960, Note_on_c, 9, 57, 25
17, 24990, Note_on_c, 9, 57, 0
17, 24992, Note_on_c, 9, 57, 33
17, 25022, Note_on_c, 9, 57, 0
17, 25024, Note_on_c, 9, 57, 25
17, 25054, Note_on_c, 9, 57, 0
17, 25056, Note_on_c, 9, 57, 27
17, 25086, Note_on_c, 9, 57, 0
17, 25088, Note_on_c, 9, 57, 29
17, 25118, Note_on_c, 9, 57, 0
17, 25120, Note_on_c, 9, 57, 32
17, 25150, Note_on_c, 9, 57, 0
17, 25152, Note_on_c, 9, 57, 29
17, 25182, Note_on_c, 9, 57, 0
17, 25184, Note_on_c, 9, 57, 30
17, 25214, Note_on_c, 9, 57, 0
17, 25216, Note_on_c, 9, 57, 29
17, 25246, Note_on_c, 9, 57, 0
17, 25248, Note_on_c, 9, 57, 27
17, 25278, Note_on_c, 9, 57, 0
17, 25280, Note_on_c, 9, 57, 32
17, 25310, Note_on_c, 9, 57, 0
17, 25312, Note_on_c, 9, 57, 30
17, 25342, Note_on_c, 9, 57, 0
17, 25344, Note_on_c, 9, 57, 33
17, 25374, Note_on_c, 9, 57, 0
17, 25376, Note_on_c, 9, 57, 26
17, 25406, Note_on_c, 9, 57, 0
17, 25408, Note_on_c, 9, 57, 32
17, 25438, Note_on_c, 9, 57, 0
17, 25440, Note_on_c, 9, 57, 28
17, 25470, Note_on_c, 9, 57, 0
17, 25472, Note_on_c, 9, 57, 33
17, 25502, Note_on_c, 9, 57, 0
17, 25504, Note_on_c, 9, 57, 33
17, 25534, Note_on_c, 9, 57, 0
17, 25536, Note_on_c, 9, 57, 32
17, 25566, Note_on_c, 9, 57, 0
17, 25568, Note_on_c, 9, 57, 27
17, 25598, Note_on_c, 9, 57, 0
17, 25600, Note_on_c, 9, 57, 34
17, 25630, Note_on_c, 9, 57, 0
17, 25632, Note_on_c, 9, 57, 28
17, 25662, Note_on_c, 9, 57, 0
17, 25664, Note_on_c, 9, 57, 25
17, 25694, Note_on_c, 9, 57, 0
17, 25696, Note_on_c, 9, 57, 30
17, 25726, Note_on_c, 9, 57, 0
17, 25728, Note_on_c, 9, 57, 34
17, 25758, Note_on_c, 9, 57, 0
17, 25760, Note_on_c, 9, 57, 34
17, 25790, Note_on_c, 9, 57, 0
17, 25792, Note_on_c, 9, 57, 31
17, 25822, Note_on_c, 9, 57, 0
17, 25824, Note_on_c, 9, 57, 32
17, 25854, Note_on_c, 9, 57, 0
17, 25856, Note_on_c, 9, 57, 30
17, 25886, Note_on_c, 9, 57, 0
17, 25888, Note_on_c, 9, 57, 33
17, 25918, Note_on_c, 9, 57, 0
17, 25920, Note_on_c, 9, 57, 33
17, 25950, Note_on_c, 9, 57, 0
17, 25952, Note_on_c, 9, 57, 30
17, 25982, Note_on_c, 9, 57, 0
17, 25984, Note_on_c, 9, 57, 32
17, 26014, Note_on_c, 9, 57, 0
17, 26016, Note_on_c, 9, 57, 31
17, 26046, Note_on_c, 9, 57, 0
17, 26048, Note_on_c, 9, 57, 27
17, 26078, Note_on_c, 9, 57, 0
17, 26080, Note_on_c, 9, 57, 25
17, 26110, Note_on_c, 9, 57, 0
17, 26112, Note_on_c, 9, 57, 32
17, 26142, Note_on_c, 9, 57, 0
17, 26144, Note_on_c, 9, 57, 27
17, 26174, Note_on_c, 9, 57, 0
17, 26176, Note_on_c, 9, 57, 27
17, 26206, Note_on_c, 9, 57, 0
17, 26208, Note_on_c, 9, 57, 26
17, 26238, Note_on_c, 9, 57, 0
17, 26240, Note_on_c, 9, 57, 34
17, 26270, Note_on_c, 9, 57, 0
17, 26272, Note_on_c, 9, 57, 35
17, 26302, Note_on_c, 9, 57, 0
17, 26304, Note_on_c, 9, 57, 29
17, 26334, Note_on_c, 9, 57, 0
17, 26336, Note_on_c, 9, 57, 29
17, 26366, Note_on_c, 9, 57, 0
17, 26368, Note_on_c, 9, 57, 28
17, 26398, Note_on_c, 9, 57, 0
17, 26400, Note_on_c, 9, 57, 34
17, 26430, Note_on_c, 9, 57, 0
17, 26432, Note_on_c, 9, 57, 27
17, 26462, Note_on_c, 9, 57, 0
17, 26464, Note_on_c, 9, 57, 28
17, 26494, Note_on_c, 9, 57, 0
17, 26496, Note_on_c, 9, 57, 32
17, 26526, Note_on_c, 9, 57, 0
17, 26528, Note_on_c, 9, 57, 31
17, 26558, Note_on_c, 9, 57, 0
17, 26560, Note_on_c, 9, 57, 35
17, 26590, Note_on_c, 9, 57, 0
17, 26592, Note_on_c, 9, 57, 32
17, 26622, Note_on_c, 9, 57, 0
17, 26624, Note_on_c, 9, 57, 29
17, 26654, Note_on_c, 9, 57, 0
17, 26656, Note_on_c, 9, 57, 33
17, 26686, Note_on_c, 9, 57, 0
17, 26688, Note_on_c, 9, 57, 26
17, 26718, Note_on_c, 9, 57, 0
17, 26720, Note_on_c, 9, 57, 32
17, 26750, Note_on_c, 9, 57, 0
17, 26752, Note_on_c, 9, 57, 35
17, 26782, Note_on_c, 9, 57, 0
17, 26784, Note_on_c, 9, 57, 34
17, 26814, Note_on_c, 9, 57, 0
17, 26816, Note_on_c, 9, 57, 27
17, 26846, Note_on_c, 9, 57, 0
17, 26848, Note_on_c, 9, 57, 25
17, 26878, Note_on_c, 9, 57, 0
17, 26880, Note_on_c, 9, 57, 32
17, 26910, Note_on_c, 9, 57, 0
17, 26912, Note_on_c, 9, 57, 33
17, 26942, Note_on_c, 9, 57, 0
17, 26944, Note_on_c, 9, 57, 34
17, 26974, Note_on_c, 9, 57, 0
17, 26976, Note_on_c, 9, 57, 28
17, 27006, Note_on_c, 9, 57, 0
17, 27008, Note_on_c, 9, 57, 32
17, 27038, Note_on_c, 9, 57, 0
17, 27040, Note_on_c, 9, 57, 31
17, 27070, Note_on_c, 9, 57, 0
17, 27072, Note_on_c, 9, 57, 35
17, 27102, Note_on_c, 9, 57, 0
17, 27104, Note_on_c, 9, 57, 29
17, 27134, Note_on_c, 9, 57, 0
17, 27136, Note_on_c, 9, 57, 29
17, 27166, Note_on_c, 9, 57, 0
17, 27168, Note_on_c, 9, 57, 27
17, 27198, Note_on_c, 9, 57, 0
17, 27200, Note_on_c, 9, 57, 26
17, 27230, Note_on_c, 9, 57, 0
17, 27232, Note_on_c, 9, 57, 34
17, 27262, Note_on_c, 9, 57, 0
17, 27264, Note_on_c, 9, 57, 33
17, 27294, Note_on_c, 9, 57, 0
17, 27296, Note_on_c, 9, 57, 27
17, 27326, Note_on_c, 9, 57, 0
17, 27328, Note_on_c, 9, 57, 30
17, 27358, Note_on_c, 9, 57, 0
17, 27360, Note_on_c, 9, 57, 27
17, 27390, Note_on_c, 9, 57, 0
17, 27392, Note_on_c, 9, 57, 27
17, 27422, Note_on_c, 9, 57, 0
17, 27424, Note_on_c, 9, 57, 27
17, 27454, Note_on_c, 9, 57, 0
17, 27456, Note_on_c, 9, 57, 35
17, 27486, Note_on_c, 9, 57, 0
17, 27488, Note_on_c, 9, 57, 27
17, 27518, Note_on_c, 9, 57, 0
17, 27520, Note_on_c, 9, 57, 25
17, 27550, Note_on_c, 9, 57, 0
17, 27552, Note_on_c, 9, 57, 32
17, 27582, Note_on_c, 9, 57, 0
17, 27584, Note_on_c, 9, 57, 29
17, 27614, Note_on_c, 9, 57, 0
17, 27616, Note_on_c, 9, 57, 30
17, 27646, Note_on_c, 9, 57, 0
17, 27648, Note_on_c, 9, 57, 31
17, 27678, Note_on_c, 9, 57, 0
17, 27680, Note_on_c, 9, 57, 25
17, 27710, Note_on_c, 9, 57, 0
17, 27712, Note_on_c, 9, 57, 28
17, 27742, Note_on_c, 9, 57, 0
17, 27744, Note_on_c, 9, 57, 26
17, 27774, Note_on_c, 9, 57, 0
17, 27776, Note_on_c, 9, 57, 32
17, 27806, Note_on_c, 9, 57, 0
17, 27808, Note_on_c, 9, 57, 26
17, 27838, Note_on_c, 9, 57, 0
17, 27840, Note_on_c, 9, 57, 25
17, 27870, Note_on_c, 9, 57, 0
17, 27872, Note_on_c, 9, 57, 29
17, 27902, Note_on_c, 9, 57, 0
17, 27904, Note_on_c, 9, 57, 30
17, 27934, Note_on_c, 9, 57, 0
17, 27936, Note_on_c, 9, 57, 25
17, 27966, Note_on_c, 9, 57, 0
17, 27968, Note_on_c, 9, 57, 26
17, 27998, Note_on_c, 9, 57, 0
17, 28000, Note_on_c, 9, 57, 35
17, 28030, Note_on_c, 9, 57, 0
17, 28032, Note_on_c, 9, 57, 31
17, 28126, Note_on_c, 9, 57, 0
17, 29952, Note_on_c, 9, 57, 49
17, 29982, Note_on_c, 9, 57, 0
17, 29984, Note_on_c, 9, 57, 48
17, 30014, Note_on_c, 9, 57, 0
17, 30016, Note_on_c, 9, 57, 46
17, 30046, Note_on_c, 9, 57, 0
17, 30048, Note_on_c, 9, 57, 42
17, 30078, Note_on_c, 9, 57, 0
17, 30080, Note_on_c, 9, 57, 46
17, 30110, Note_on_c, 9, 57, 0
17, 30112, Note_on_c, 9, 57, 42
17, 30142, Note_on_c, 9, 57, 0
17, 30144, Note_on_c, 9, 57, 50
17, 30174, Note_on_c, 9, 57, 0
17, 30176, Note_on_c, 9, 57, 47
17, 30206, Note_on_c, 9, 57, 0
17, 30208, Note_on_c, 9, 57, 50
17, 30238, Note_on_c, 9, 57, 0
17, 30240, Note_on_c, 9, 57, 47
17, 30270, Note_on_c, 9, 57, 0
17, 30272, Note_on_c, 9, 57, 46
17, 30302, Note_on_c, 9, 57, 0
17, 30304, Note_on_c, 9, 57, 41
17, 30334, Note_on_c, 9, 57, 0
17, 30336, Note_on_c, 9, 57, 44
17, 30366, Note_on_c, 9, 57, 0
17, 30368, Note_on_c, 9, 57, 49
17, 30398, Note_on_c, 9, 57, 0
17, 30400, Note_on_c, 9, 57, 46
17, 30430, Note_on_c, 9, 57, 0
17, 30432, Note_on_c, 9, 57, 42
17, 30462, Note_on_c, 9, 57, 0
17, 30464, Note_on_c, 9, 57, 42
17, 30494, Note_on_c, 9, 57, 0
17, 30496, Note_on_c, 9, 57, 44
17, 30526, Note_on_c, 9, 57, 0
17, 30528, Note_on_c, 9, 57, 43
17, 30558, Note_on_c, 9, 57, 0
17, 30560, Note_on_c, 9, 57, 41
17, 30590, Note_on_c, 9, 57, 0
17, 30592, Note_on_c, 9, 57, 47
17, 30622, Note_on_c, 9, 57, 0
17, 30624, Note_on_c, 9, 57, 41
17, 30654, Note_on_c, 9, 57, 0
17, 30656, Note_on_c, 9, 57, 45
17, 30686, Note_on_c, 9, 57, 0
17, 30688, Note_on_c, 9, 57, 42
17, 30718, Note_on_c, 9, 57, 0
17, 30720, Note_on_c, 9, 57, 40
17, 30750, Note_on_c, 9, 57, 0
17, 30752, Note_on_c, 9, 57, 41
17, 30782, Note_on_c, 9, 57, 0
17, 30784, Note_on_c, 9, 57, 41
17, 30814, Note_on_c, 9, 57, 0
17, 30816, Note_on_c, 9, 57, 44
17, 30846, Note_on_c, 9, 57, 0
17, 30848, Note_on_c, 9, 57, 50
17, 30878, Note_on_c, 9, 57, 0
17, 30880, Note_on_c, 9, 57, 46
17, 30910, Note_on_c, 9, 57, 0
17, 30912, Note_on_c, 9, 57, 50
17, 30942, Note_on_c, 9, 57, 0
17, 30944, Note_on_c, 9, 57, 45
17, 30974, Note_on_c, 9, 57, 0
17, 30976, Note_on_c, 9, 57, 41
17, 31006, Note_on_c, 9, 57, 0
17, 31008, Note_on_c, 9, 57, 49
17, 31038, Note_on_c, 9, 57, 0
17, 31040, Note_on_c, 9, 57, 47
17, 31070, Note_on_c, 9, 57, 0
17, 31072, Note_on_c, 9, 57, 40
17, 31102, Note_on_c, 9, 57, 0
17, 31104, Note_on_c, 9, 57, 42
17, 31134, Note_on_c, 9, 57, 0
17, 31136, Note_on_c, 9, 57, 45
17, 31166, Note_on_c, 9, 57, 0
17, 31168, Note_on_c, 9, 57, 44
17, 31198, Note_on_c, 9, 57, 0
17, 31200, Note_on_c, 9, 57, 45
17, 31230, Note_on_c, 9, 57, 0
17, 31232, Note_on_c, 9, 57, 49
17, 31262, Note_on_c, 9, 57, 0
17, 31264, Note_on_c, 9, 57, 41
17, 31294, Note_on_c, 9, 57, 0
17, 31296, Note_on_c, 9, 57, 40
17, 31326, Note_on_c, 9, 57, 0
17, 31328, Note_on_c, 9, 57, 42
17, 31358, Note_on_c, 9, 57, 0
17, 31360, Note_on_c, 9, 57, 48
17, 31390, Note_on_c, 9, 57, 0
17, 31392, Note_on_c, 9, 57, 47
17, 31422, Note_on_c, 9, 57, 0
17, 31424, Note_on_c, 9, 57, 46
17, 31454, Note_on_c, 9, 57, 0
17, 31456, Note_on_c, 9, 57, 43
17, 31486, Note_on_c, 9, 57, 0
17, 31488, Note_on_c, 9, 57, 41
17, 31518, Note_on_c, 9, 57, 0
17, 31520, Note_on_c, 9, 57, 40
17, 31550, Note_on_c, 9, 57, 0
17, 31552, Note_on_c, 9, 57, 50
17, 31582, Note_on_c, 9, 57, 0
17, 31584, Note_on_c, 9, 57, 42
17, 31614, Note_on_c, 9, 57, 0
17, 31616, Note_on_c, 9, 57, 40
17, 31646, Note_on_c, 9, 57, 0
17, 31648, Note_on_c, 9, 57, 50
17, 31678, Note_on_c, 9, 57, 0
17, 31680, Note_on_c, 9, 57, 50
17, 31710, Note_on_c, 9, 57, 0
17, 31712, Note_on_c, 9, 57, 46
17, 31742, Note_on_c, 9, 57, 0
17, 31744, Note_on_c, 9, 57, 45
17, 31774, Note_on_c, 9, 57, 0
17, 31776, Note_on_c, 9, 57, 49
17, 31806, Note_on_c, 9, 57, 0
17, 31808, Note_on_c, 9, 57, 42
17, 31838, Note_on_c, 9, 57, 0
17, 31840, Note_on_c, 9, 57, 41
17, 31870, Note_on_c, 9, 57, 0
17, 31872, Note_on_c, 9, 57, 50
17, 31902, Note_on_c, 9, 57, 0
17, 31904, Note_on_c, 9, 57, 50
17, 31934, Note_on_c, 9, 57, 0
17, 31936, Note_on_c, 9, 57, 41
17, 31966, Note_on_c, 9, 57, 0
17, 31968, Note_on_c, 9, 57, 48
17, 31998, Note_on_c, 9, 57, 0
17, 32000, Note_on_c, 9, 57, 41
17, 32030, Note_on_c, 9, 57, 0
17, 32032, Note_on_c, 9, 57, 49
17, 32062, Note_on_c, 9, 57, 0
17, 32064, Note_on_c, 9, 57, 41
17, 32094, Note_on_c, 9, 57, 0
17, 32096, Note_on_c, 9, 57, 43
17, 32126, Note_on_c, 9, 57, 0
17, 32128, Note_on_c, 9, 57, 50
17, 32158, Note_on_c, 9, 57, 0
17, 32160, Note_on_c, 9, 57, 48
17, 32190, Note_on_c, 9, 57, 0
17, 32192, Note_on_c, 9, 57, 47
17, 32222, Note_on_c, 9, 57, 0
17, 32224, Note_on_c, 9, 57, 40
17, 32254, Note_on_c, 9, 57, 0
17, 32256, Note_on_c, 9, 57, 48
17, 32286, Note_on_c, 9, 57, 0
17, 32288, Note_on_c, 9, 57, 45
17, 32318, Note_on_c, 9, 57, 0
17, 32320, Note_on_c, 9, 57, 49
17, 32350, Note_on_c, 9, 57, 0
17, 32352, Note_on_c, 9, 57, 51
17, 32382, Note_on_c, 9, 57, 0
17, 32384, Note_on_c, 9, 57, 49
17, 32414, Note_on_c, 9, 57, 0
17, 32416, Note_on_c, 9, 57, 45
17, 32446, Note_on_c, 9, 57, 0
17, 32448, Note_on_c, 9, 57, 47
17, 32478, Note_on_c, 9, 57, 0
17, 32480, Note_on_c, 9, 57, 48
17, 32510, Note_on_c, 9, 57, 0
17, 32512, Note_on_c, 9, 57, 49
17, 32542, Note_on_c, 9, 57, 0
17, 32544, Note_on_c, 9, 57, 55
17, 32574, Note_on_c, 9, 57, 0
17, 32576, Note_on_c, 9, 57, 55
17, 32606, Note_on_c, 9, 57, 0
17, 32608, Note_on_c, 9, 57, 52
17, 32638, Note_on_c, 9, 57, 0
17, 32640, Note_on_c, 9, 57, 55
17, 32670, Note_on_c, 9, 57, 0
17, 32672, Note_on_c, 9, 57, 56
17, 32702, Note_on_c, 9, 57, 0
17, 32704, Note_on_c, 9, 57, 56
17, 32734, Note_on_c, 9, 57, 0
17, 32736, Note_on_c, 9, 57, 57
17, 32766, Note_on_c, 9, 57, 0
17, 32768, Note_on_c, 9, 57, 58
17, 32798, Note_on_c, 9, 57, 0
17, 32800, Note_on_c, 9, 57, 59
17, 32830, Note_on_c, 9, 57, 0
17, 32832, Note_on_c, 9, 57, 61
17, 32862, Note_on_c, 9, 57, 0
17, 32864, Note_on_c, 9, 57, 57
17, 32894, Note_on_c, 9, 57, 0
17, 32896, Note_on_c, 9, 57, 59
17, 32926, Note_on_c, 9, 57, 0
17, 32928, Note_on_c, 9, 57, 62
17, 32958, Note_on_c, 9, 57, 0
17, 32960, Note_on_c, 9, 57, 63
17, 32990, Note_on_c, 9, 57, 0
17, 32992, Note_on_c, 9, 57, 71
17, 33022, Note_on_c, 9, 57, 0
17, 33024, Note_on_c, 9, 57, 65
17, 33054, Note_on_c, 9, 57, 0
17, 33056, Note_on_c, 9, 57, 66
17, 33086, Note_on_c, 9, 57, 0
17, 33088, Note_on_c, 9, 57, 72
17, 33118, Note_on_c, 9, 57, 0
17, 33120, Note_on_c, 9, 57, 69
17, 33150, Note_on_c, 9, 57, 0
17, 33152, Note_on_c, 9, 57, 75
17, 33182, Note_on_c, 9, 57, 0
17, 33184, Note_on_c, 9, 57, 68
17, 33214, Note_on_c, 9, 57, 0
17, 33216, Note_on_c, 9, 57, 70
17, 33246, Note_on_c, 9, 57, 0
17, 33248, Note_on_c, 9, 57, 71
17, 33278, Note_on_c, 9, 57, 0
17, 33280, Note_on_c, 9, 57, 72
17, 33310, Note_on_c, 9, 57, 0
17, 33312, Note_on_c, 9, 57, 74
17, 33342, Note_on_c, 9, 57, 0
17, 33344, Note_on_c, 9, 57, 79
17, 33374, Note_on_c, 9, 57, 0
17, 33376, Note_on_c, 9, 57, 76
17, 33406, Note_on_c, 9, 57, 0
17, 33408, Note_on_c, 9, 57, 77
17, 33438, Note_on_c, 9, 57, 0
17, 33440, Note_on_c, 9, 57, 82
17, 33470, Note_on_c, 9, 57, 0
17, 33472, Note_on_c, 9, 57, 77
17, 33502, Note_on_c, 9, 57, 0
17, 33504, Note_on_c, 9, 57, 77
17, 33534, Note_on_c, 9, 57, 0
17, 33536, Note_on_c, 9, 57, 78
17, 33566, Note_on_c, 9, 57, 0
17, 33568, Note_on_c, 9, 57, 86
17, 33598, Note_on_c, 9, 57, 0
17, 33600, Note_on_c, 9, 57, 88
17, 33630, Note_on_c, 9, 57, 0
17, 33632, Note_on_c, 9, 57, 82
17, 33662, Note_on_c, 9, 57, 0
17, 33664, Note_on_c, 9, 57, 87
17, 33694, Note_on_c, 9, 57, 0
17, 33696, Note_on_c, 9, 57, 86
17, 33726, Note_on_c, 9, 57, 0
17, 33728, Note_on_c, 9, 57, 92
17, 33758, Note_on_c, 9, 57, 0
17, 33760, Note_on_c, 9, 57, 92
17, 33790, Note_on_c, 9, 57, 0
17, 33792, Note_on_c, 9, 57, 93
17, 33886, Note_on_c, 9, 57, 0
17, 36672, Note_on_c, 9, 57, 72
17, 36766, Note_on_c, 9, 57, 0
17, 39744, Note_on_c, 9, 57, 74
17, 39838, Note_on_c, 9, 57, 0
17, 41472, Note_on_c, 9, 57, 91
17, 41566, Note_on_c, 9, 57, 0
17, 65856, Note_on_c, 9, 57, 95
17, 65950, Note_on_c, 9, 57, 0
17, 67392, Note_on_c, 9, 57, 95
17, 67486, Note_on_c, 9, 57, 0
17, 68928, Note_on_c, 9, 57, 88
17, 69022, Note_on_c, 9, 57, 0
17, 69888, Note_on_c, 9, 57, 43
17, 69918, Note_on_c, 9, 57, 0
17, 69920, Note_on_c, 9, 57, 50
17, 69950, Note_on_c, 9, 57, 0
17, 69952, Note_on_c, 9, 57, 44
17, 69982, Note_on_c, 9, 57, 0
17, 69984, Note_on_c, 9, 57, 53
17, 70014, Note_on_c, 9, 57, 0
17, 70016, Note_on_c, 9, 57, 57
17, 70046, Note_on_c, 9, 57, 0
17, 70048, Note_on_c, 9, 57, 61
17, 70078, Note_on_c, 9, 57, 0
17, 70080, Note_on_c, 9, 57, 61
17, 70110, Note_on_c, 9, 57, 0
17, 70112, Note_on_c, 9, 57, 73
17, 70142, Note_on_c, 9, 57, 0
17, 70144, Note_on_c, 9, 57, 75
17, 70174, Note_on_c, 9, 57, 0
17, 70176, Note_on_c, 9, 57, 73
17, 70206, Note_on_c, 9, 57, 0
17, 70208, Note_on_c, 9, 57, 81
17, 70238, Note_on_c, 9, 57, 0
17, 70240, Note_on_c, 9, 57, 85
17, 70270, Note_on_c, 9, 57, 0
17, 70272, Note_on_c, 9, 57, 91
17, 70302, Note_on_c, 9, 57, 0
17, 70304, Note_on_c, 9, 57, 95
17, 70334, Note_on_c, 9, 57, 0
17, 70336, Note_on_c, 9, 57, 85
17, 70366, Note_on_c, 9, 57, 0
17, 70368, Note_on_c, 9, 57, 84
17, 70398, Note_on_c, 9, 57, 0
17, 70400, Note_on_c, 9, 57, 78
17, 70430, Note_on_c, 9, 57, 0
17, 70432, Note_on_c, 9, 57, 80
17, 70462, Note_on_c, 9, 57, 0
17, 70464, Note_on_c, 9, 57, 73
17, 70494, Note_on_c, 9, 57, 0
17, 70496, Note_on_c, 9, 57, 71
17, 70526, Note_on_c, 9, 57, 0
17, 70528, Note_on_c, 9, 57, 68
17, 70558, Note_on_c, 9, 57, 0
17, 70560, Note_on_c, 9, 57, 57
17, 70590, Note_on_c, 9, 57, 0
17, 70592, Note_on_c, 9, 57, 53
17, 70622, Note_on_c, 9, 57, 0
17, 70624, Note_on_c, 9, 57, 46
17, 70654, Note_on_c, 9, 57, 0
17, 70656, Note_on_c, 9, 57, 48
17, 70750, Note_on_c, 9, 57, 0
17, 74496, Note_on_c, 9, 57, 90
17, 74526, Note_on_c, 9, 57, 0
17, 74528, Note_on_c, 9, 57, 96
17, 74558, Note_on_c, 9, 57, 0
17, 74560, Note_on_c, 9, 57, 86
17, 74590, Note_on_c, 9, 57, 0
17, 74592, Note_on_c, 9, 57, 85
17, 74622, Note_on_c, 9, 57, 0
17, 74624, Note_on_c, 9, 57, 81
17, 74654, Note_on_c, 9, 57, 0
17, 74656, Note_on_c, 9, 57, 84
17, 74686, Note_on_c, 9, 57, 0
17, 74688, Note_on_c, 9, 57, 85
17, 74718, Note_on_c, 9, 57, 0
17, 74720, Note_on_c, 9, 57, 85
17, 74750, Note_on_c, 9, 57, 0
17, 74752, Note_on_c, 9, 57, 74
17, 74782, Note_on_c, 9, 57, 0
17, 74784, Note_on_c, 9, 57, 77
17, 74814, Note_on_c, 9, 57, 0
17, 74816, Note_on_c, 9, 57, 73
17, 74846, Note_on_c, 9, 57, 0
17, 74848, Note_on_c, 9, 57, 75
17, 74878, Note_on_c, 9, 57, 0
17, 74880, Note_on_c, 9, 57, 74
17, 74910, Note_on_c, 9, 57, 0
17, 74912, Note_on_c, 9, 57, 73
17, 74942, Note_on_c, 9, 57, 0
17, 74944, Note_on_c, 9, 57, 68
17, 74974, Note_on_c, 9, 57, 0
17, 74976, Note_on_c, 9, 57, 68
17, 75006, Note_on_c, 9, 57, 0
17, 75008, Note_on_c, 9, 57, 65
17, 75038, Note_on_c, 9, 57, 0
17, 75040, Note_on_c, 9, 57, 60
17, 75070, Note_on_c, 9, 57, 0
17, 75072, Note_on_c, 9, 57, 63
17, 75102, Note_on_c, 9, 57, 0
17, 75104, Note_on_c, 9, 57, 58
17, 75134, Note_on_c, 9, 57, 0
17, 75136, Note_on_c, 9, 57, 54
17, 75166, Note_on_c, 9, 57, 0
17, 75168, Note_on_c, 9, 57, 57
17, 75198, Note_on_c, 9, 57, 0
17, 75200, Note_on_c, 9, 57, 49
17, 75230, Note_on_c, 9, 57, 0
17, 75232, Note_on_c, 9, 57, 49
17, 75262, Note_on_c, 9, 57, 0
17, 75264, Note_on_c, 9, 57, 50
17, 75294, Note_on_c, 9, 57, 0
17, 75296, Note_on_c, 9, 57, 50
17, 75326, Note_on_c, 9, 57, 0
17, 75328, Note_on_c, 9, 57, 42
17, 75358, Note_on_c, 9, 57, 0
17, 75360, Note_on_c, 9, 57, 48
17, 75390, Note_on_c, 9, 57, 0
17, 75392, Note_on_c, 9, 57, 37
17, 75422, Note_on_c, 9, 57, 0
17, 75424, Note_on_c, 9, 57, 39
17, 75454, Note_on_c, 9, 57, 0
17, 75456, Note_on_c, 9, 57, 45
17, 75486, Note_on_c, 9, 57, 0
17, 75488, Note_on_c, 9, 57, 34
17, 75518, Note_on_c, 9, 57, 0
17, 75520, Note_on_c, 9, 57, 34
17, 75550, Note_on_c, 9, 57, 0
17, 75552, Note_on_c, 9, 57, 42
17, 75582, Note_on_c, 9, 57, 0
17, 75584, Note_on_c, 9, 57, 39
17, 75614, Note_on_c, 9, 57, 0
17, 75616, Note_on_c, 9, 57, 38
17, 75646, Note_on_c, 9, 57, 0
17, 75648, Note_on_c, 9, 57, 31
17, 75678, Note_on_c, 9, 57, 0
17, 75680, Note_on_c, 9, 57, 34
17, 75710, Note_on_c, 9, 57, 0
17, 75712, Note_on_c, 9, 57, 35
17, 75742, Note_on_c, 9, 57, 0
17, 75744, Note_on_c, 9, 57, 31
17, 75774, Note_on_c, 9, 57, 0
17, 75776, Note_on_c, 9, 57, 30
17, 75806, Note_on_c, 9, 57, 0
17, 75808, Note_on_c, 9, 57, 20
17, 75838, Note_on_c, 9, 57, 0
17, 75840, Note_on_c, 9, 57, 27
17, 75870, Note_on_c, 9, 57, 0
17, 75872, Note_on_c, 9, 57, 25
17, 75902, Note_on_c, 9, 57, 0
17, 75904, Note_on_c, 9, 57, 20
17, 75934, Note_on_c, 9, 57, 0
17, 75936, Note_on_c, 9, 57, 21
17, 75966, Note_on_c, 9, 57, 0
17, 75968, Note_on_c, 9, 57, 18
17, 75998, Note_on_c, 9, 57, 0
17, 76000, Note_on_c, 9, 57, 16
17, 76030, Note_on_c, 9, 57, 0
17, 79104, Note_on_c, 9, 57, 90
17, 79134, Note_on_c, 9, 57, 0
17, 79136, Note_on_c, 9, 57, 93
17, 79166, Note_on_c, 9, 57, 0
17, 79168, Note_on_c, 9, 57, 94
17, 79198, Note_on_c, 9, 57, 0
17, 79200, Note_on_c, 9, 57, 83
17, 79230, Note_on_c, 9, 57, 0
17, 79232, Note_on_c, 9, 57, 84
17, 79262, Note_on_c, 9, 57, 0
17, 79264, Note_on_c, 9, 57, 81
17, 79294, Note_on_c, 9, 57, 0
17, 79296, Note_on_c, 9, 57, 86
17, 79326, Note_on_c, 9, 57, 0
17, 79328, Note_on_c, 9, 57, 76
17, 79358, Note_on_c, 9, 57, 0
17, 79360, Note_on_c, 9, 57, 83
17, 79390, Note_on_c, 9, 57, 0
17, 79392, Note_on_c, 9, 57, 75
17, 79422, Note_on_c, 9, 57, 0
17, 79424, Note_on_c, 9, 57, 73
17, 79454, Note_on_c, 9, 57, 0
17, 79456, Note_on_c, 9, 57, 69
17, 79486, Note_on_c, 9, 57, 0
17, 79488, Note_on_c, 9, 57, 66
17, 79518, Note_on_c, 9, 57, 0
17, 79520, Note_on_c, 9, 57, 65
17, 79550, Note_on_c, 9, 57, 0
17, 79552, Note_on_c, 9, 57, 69
17, 79582, Note_on_c, 9, 57, 0
17, 79584, Note_on_c, 9, 57, 67
17, 79614, Note_on_c, 9, 57, 0
17, 79616, Note_on_c, 9, 57, 58
17, 79646, Note_on_c, 9, 57, 0
17, 79648, Note_on_c, 9, 57, 55
17, 79678, Note_on_c, 9, 57, 0
17, 79680, Note_on_c, 9, 57, 61
17, 79710, Note_on_c, 9, 57, 0
17, 79712, Note_on_c, 9, 57, 56
17, 79742, Note_on_c, 9, 57, 0
17, 79744, Note_on_c, 9, 57, 51
17, 79774, Note_on_c, 9, 57, 0
17, 79776, Note_on_c, 9, 57, 56
17, 79806, Note_on_c, 9, 57, 0
17, 79808, Note_on_c, 9, 57, 51
17, 79838, Note_on_c, 9, 57, 0
17, 79840, Note_on_c, 9, 57, 48
17, 79870, Note_on_c, 9, 57, 0
17, 79872, Note_on_c, 9, 57, 45
17, 79902, Note_on_c, 9, 57, 0
17, 79904, Note_on_c, 9, 57, 44
17, 79934, Note_on_c, 9, 57, 0
17, 79936, Note_on_c, 9, 57, 45
17, 79966, Note_on_c, 9, 57, 0
17, 79968, Note_on_c, 9, 57, 38
17, 79998, Note_on_c, 9, 57, 0
17, 80000, Note_on_c, 9, 57, 45
17, 80030, Note_on_c, 9, 57, 0
17, 80032, Note_on_c, 9, 57, 43
17, 80062, Note_on_c, 9, 57, 0
17, 80064, Note_on_c, 9, 57, 45
17, 80094, Note_on_c, 9, 57, 0
17, 80096, Note_on_c, 9, 57, 34
17, 80126, Note_on_c, 9, 57, 0
17, 80128, Note_on_c, 9, 57, 41
17, 80158, Note_on_c, 9, 57, 0
17, 80160, Note_on_c, 9, 57, 37
17, 80190, Note_on_c, 9, 57, 0
17, 80192, Note_on_c, 9, 57, 35
17, 80222, Note_on_c, 9, 57, 0
17, 80224, Note_on_c, 9, 57, 39
17, 80254, Note_on_c, 9, 57, 0
17, 80256, Note_on_c, 9, 57, 35
17, 80286, Note_on_c, 9, 57, 0
17, 80288, Note_on_c, 9, 57, 33
17, 80318, Note_on_c, 9, 57, 0
17, 80320, Note_on_c, 9, 57, 28
17, 80350, Note_on_c, 9, 57, 0
17, 80352, Note_on_c, 9, 57, 26
17, 80382, Note_on_c, 9, 57, 0
17, 80384, Note_on_c, 9, 57, 30
17, 80414, Note_on_c, 9, 57, 0
17, 80416, Note_on_c, 9, 57, 27
17, 80446, Note_on_c, 9, 57, 0
17, 80448, Note_on_c, 9, 57, 20
17, 80478, Note_on_c, 9, 57, 0
17, 80480, Note_on_c, 9, 57, 25
17, 80510, Note_on_c, 9, 57, 0
17, 80512, Note_on_c, 9, 57, 22
17, 80542, Note_on_c, 9, 57, 0
17, 80544, Note_on_c, 9, 57, 14
17, 80574, Note_on_c, 9, 57, 0
17, 80576, Note_on_c, 9, 57, 13
17, 80606, Note_on_c, 9, 57, 0
17, 80608, Note_on_c, 9, 57, 17
17, 80638, Note_on_c, 9, 57, 0
17, 83712, Note_on_c, 9, 57, 96
17, 83742, Note_on_c, 9, 57, 0
17, 83744, Note_on_c, 9, 57, 88
17, 83774, Note_on_c, 9, 57, 0
17, 83776, Note_on_c, 9, 57, 92
17, 83806, Note_on_c, 9, 57, 0
17, 83808, Note_on_c, 9, 57, 84
17, 83838, Note_on_c, 9, 57, 0
17, 83840, Note_on_c, 9, 57, 83
17, 83870, Note_on_c, 9, 57, 0
17, 83872, Note_on_c, 9, 57, 81
17, 83902, Note_on_c, 9, 57, 0
17, 83904, Note_on_c, 9, 57, 86
17, 83934, Note_on_c, 9, 57, 0
17, 83936, Note_on_c, 9, 57, 85
17, 83966, Note_on_c, 9, 57, 0
17, 83968, Note_on_c, 9, 57, 79
17, 83998, Note_on_c, 9, 57, 0
17, 84000, Note_on_c, 9, 57, 77
17, 84030, Note_on_c, 9, 57, 0
17, 84032, Note_on_c, 9, 57, 70
17, 84062, Note_on_c, 9, 57, 0
17, 84064, Note_on_c, 9, 57, 71
17, 84094, Note_on_c, 9, 57, 0
17, 84096, Note_on_c, 9, 57, 72
17, 84126, Note_on_c, 9, 57, 0
17, 84128, Note_on_c, 9, 57, 71
17, 84158, Note_on_c, 9, 57, 0
17, 84160, Note_on_c, 9, 57, 66
17, 84190, Note_on_c, 9, 57, 0
17, 84192, Note_on_c, 9, 57, 62
17, 84222, Note_on_c, 9, 57, 0
17, 84224, Note_on_c, 9, 57, 58
17, 84254, Note_on_c, 9, 57, 0
17, 84256, Note_on_c, 9, 57, 60
17, 84286, Note_on_c, 9, 57, 0
17, 84288, Note_on_c, 9, 57, 57
17, 84318, Note_on_c, 9, 57, 0
17, 84320, Note_on_c, 9, 57, 55
17, 84350, Note_on_c, 9, 57, 0
17, 84352, Note_on_c, 9, 57, 52
17, 84382, Note_on_c, 9, 57, 0
17, 84384, Note_on_c, 9, 57, 51
17, 84414, Note_on_c, 9, 57, 0
17, 84416, Note_on_c, 9, 57, 53
17, 84446, Note_on_c, 9, 57, 0
17, 84448, Note_on_c, 9, 57, 45
17, 84478, Note_on_c, 9, 57, 0
17, 84480, Note_on_c, 9, 57, 43
17, 84510, Note_on_c, 9, 57, 0
17, 84512, Note_on_c, 9, 57, 49
17, 84542, Note_on_c, 9, 57, 0
17, 84544, Note_on_c, 9, 57, 44
17, 84574, Note_on_c, 9, 57, 0
17, 84576, Note_on_c, 9, 57, 44
17, 84606, Note_on_c, 9, 57, 0
17, 84608, Note_on_c, 9, 57, 40
17, 84638, Note_on_c, 9, 57, 0
17, 84640, Note_on_c, 9, 57, 40
17, 84670, Note_on_c, 9, 57, 0
17, 84672, Note_on_c, 9, 57, 45
17, 84702, Note_on_c, 9, 57, 0
17, 84704, Note_on_c, 9, 57, 40
17, 84734, Note_on_c, 9, 57, 0
17, 84736, Note_on_c, 9, 57, 38
17, 84766, Note_on_c, 9, 57, 0
17, 84768, Note_on_c, 9, 57, 42
17, 84798, Note_on_c, 9, 57, 0
17, 84800, Note_on_c, 9, 57, 35
17, 84830, Note_on_c, 9, 57, 0
17, 84832, Note_on_c, 9, 57, 32
17, 84862, Note_on_c, 9, 57, 0
17, 84864, Note_on_c, 9, 57, 32
17, 84894, Note_on_c, 9, 57, 0
17, 84896, Note_on_c, 9, 57, 33
17, 84926, Note_on_c, 9, 57, 0
17, 84928, Note_on_c, 9, 57, 35
17, 84958, Note_on_c, 9, 57, 0
17, 84960, Note_on_c, 9, 57, 29
17, 84990, Note_on_c, 9, 57, 0
17, 84992, Note_on_c, 9, 57, 30
17, 85022, Note_on_c, 9, 57, 0
17, 85024, Note_on_c, 9, 57, 26
17, 85054, Note_on_c, 9, 57, 0
17, 85056, Note_on_c, 9, 57, 24
17, 85086, Note_on_c, 9, 57, 0
17, 85088, Note_on_c, 9, 57, 22
17, 85118, Note_on_c, 9, 57, 0
17, 85120, Note_on_c, 9, 57, 16
17, 85150, Note_on_c, 9, 57, 0
17, 85152, Note_on_c, 9, 57, 20
17, 85182, Note_on_c, 9, 57, 0
17, 85184, Note_on_c, 9, 57, 12
17, 85214, Note_on_c, 9, 57, 0
17, 85216, Note_on_c, 9, 57, 11
17, 85246, Note_on_c, 9, 57, 0
17, 87936, Note_on_c, 9, 57, 93
17, 88656, Note_on_c, 9, 57, 0
17, 89256, Note_on_c, 9, 57, 46
17, 89278, Note_on_c, 9, 57, 0
17, 89280, Note_on_c, 9, 57, 50
17, 89374, Note_on_c, 9, 57, 0
17, 89640, Note_on_c, 9, 57, 48
17, 89662, Note_on_c, 9, 57, 0
17, 89664, Note_on_c, 9, 57, 45
17, 89758, Note_on_c, 9, 57, 0
17, 90024, Note_on_c, 9, 57, 42
17, 90046, Note_on_c, 9, 57, 0
17, 90048, Note_on_c, 9, 57, 44
17, 90142, Note_on_c, 9, 57, 0
17, 90408, Note_on_c, 9, 57, 48
17, 90430, Note_on_c, 9, 57, 0
17, 90432, Note_on_c, 9, 57, 42
17, 90526, Note_on_c, 9, 57, 0
17, 90792, Note_on_c, 9, 57, 47
17, 90814, Note_on_c, 9, 57, 0
17, 90816, Note_on_c, 9, 57, 44
17, 90910, Note_on_c, 9, 57, 0
17, 91176, Note_on_c, 9, 57, 50
17, 91198, Note_on_c, 9, 57, 0
17, 91200, Note_on_c, 9, 57, 48
17, 91294, Note_on_c, 9, 57, 0
17, 91776, Note_on_c, 9, 57, 88
17, 91936, Note_on_c, 9, 57, 0
17, 102720, Note_on_c, 9, 57, 29
17, 102880, Note_on_c, 9, 57, 0
17, 163776, Note_on_c, 9, 57, 28
17, 164304, Note_on_c, 9, 57, 0
17, 165312, Note_on_c, 9, 57, 29
17, 165840, Note_on_c, 9, 57, 0
17, 168384, Note_on_c, 9, 57, 31
17, 168912, Note_on_c, 9, 57, 0
17, 173760, Note_on_c, 9, 57, 25
17, 173854, Note_on_c, 9, 57, 0
17, 174528, Note_on_c, 9, 57, 25
17, 174622, Note_on_c, 9, 57, 0
17, 175296, Note_on_c, 9, 57, 31
17, 175390, Note_on_c, 9, 57, 0
17, 176064, Note_on_c, 9, 57, 30
17, 176158, Note_on_c, 9, 57, 0
17, 180672, Note_on_c, 9, 57, 31
17, 180832, Note_on_c, 9, 57, 0
17, 181056, Note_on_c, 9, 57, 33
17, 181216, Note_on_c, 9, 57, 0
17, 181440, Note_on_c, 9, 57, 33
17, 181600, Note_on_c, 9, 57, 0
17, 181824, Note_on_c, 9, 57, 27
17, 181984, Note_on_c, 9, 57, 0
17, 182208, Note_on_c, 9, 57, 31
17, 182368, Note_on_c, 9, 57, 0
17, 182592, Note_on_c, 9, 57, 33
17, 182752, Note_on_c, 9, 57, 0
17, 189696, Note_on_c, 9, 57, 71
17, 189856, Note_on_c, 9, 57, 0
17, 191232, Note_on_c, 9, 57, 80
17, 191392, Note_on_c, 9, 57, 0
17, 193152, Note_on_c, 9, 57, 79
17, 193312, Note_on_c, 9, 57, 0
17, 194688, Note_on_c, 9, 57, 72
17, 194848, Note_on_c, 9, 57, 0
17, 196608, Note_on_c, 9, 57, 80
17, 196768, Note_on_c, 9, 57, 0
17, 198144, Note_on_c, 9, 57, 73
17, 198304, Note_on_c, 9, 57, 0
17, 208128, Note_on_c, 9, 57, 103
17, 209056, Note_on_c, 9, 57, 0
17, 210048, Note_on_c, 9, 57, 88
17, 210384, Note_on_c, 9, 57, 0
17, 210816, Note_on_c, 9, 57, 88
17, 211152, Note_on_c, 9, 57, 0
17, 212736, Note_on_c, 9, 57, 112
17, 213456, Note_on_c, 9, 57, 0
17, 213504, Note_on_c, 9, 57, 112
17, 213664, Note_on_c, 9, 57, 0
17, 215904, Note_on_c, 9, 57, 31
17, 215998, Note_on_c, 9, 57, 0
17, 216096, Note_on_c, 9, 57, 27
17, 216190, Note_on_c, 9, 57, 0
17, 216288, Note_on_c, 9, 57, 27
17, 216382, Note_on_c, 9, 57, 0
17, 216480, Note_on_c, 9, 57, 26
17, 216574, Note_on_c, 9, 57, 0
17, 216672, Note_on_c, 9, 57, 29
17, 216766, Note_on_c, 9, 57, 0
17, 216864, Note_on_c, 9, 57, 26
17, 216958, Note_on_c, 9, 57, 0
17, 217056, Note_on_c, 9, 57, 30
17, 217150, Note_on_c, 9, 57, 0
17, 217248, Note_on_c, 9, 57, 32
17, 217342, Note_on_c, 9, 57, 0
17, 217440, Note_on_c, 9, 57, 32
17, 217534, Note_on_c, 9, 57, 0
17, 217632, Note_on_c, 9, 57, 30
17, 217726, Note_on_c, 9, 57, 0
17, 217824, Note_on_c, 9, 57, 35
17, 217918, Note_on_c, 9, 57, 0
17, 218016, Note_on_c, 9, 57, 34
17, 218110, Note_on_c, 9, 57, 0
17, 218208, Note_on_c, 9, 57, 33
17, 218302, Note_on_c, 9, 57, 0
17, 218400, Note_on_c, 9, 57, 25
17, 218494, Note_on_c, 9, 57, 0
17, 218592, Note_on_c, 9, 57, 32
17, 218686, Note_on_c, 9, 57, 0
17, 218784, Note_on_c, 9, 57, 29
17, 218878, Note_on_c, 9, 57, 0
17, 218976, Note_on_c, 9, 57, 30
17, 219070, Note_on_c, 9, 57, 0
17, 219168, Note_on_c, 9, 57, 31
17, 219262, Note_on_c, 9, 57, 0
17, 219360, Note_on_c, 9, 57, 28
17, 219454, Note_on_c, 9, 57, 0
17, 219552, Note_on_c, 9, 57, 25
17, 219646, Note_on_c, 9, 57, 0
17, 219744, Note_on_c, 9, 57, 35
17, 219838, Note_on_c, 9, 57, 0
17, 219936, Note_on_c, 9, 57, 55
17, 220030, Note_on_c, 9, 57, 0
17, 220128, Note_on_c, 9, 57, 70
17, 220222, Note_on_c, 9, 57, 0
17, 220320, Note_on_c, 9, 57, 89
17, 220414, Note_on_c, 9, 57, 0
17, 220416, Note_on_c, 9, 57, 87
17, 220576, Note_on_c, 9, 57, 0
17, 221184, Note_on_c, 9, 57, 91
17, 221214, Note_on_c, 9, 57, 0
17, 221216, Note_on_c, 9, 57, 95
17, 221246, Note_on_c, 9, 57, 0
17, 221248, Note_on_c, 9, 57, 88
17, 221278, Note_on_c, 9, 57, 0
17, 221280, Note_on_c, 9, 57, 89
17, 221310, Note_on_c, 9, 57, 0
17, 221312, Note_on_c, 9, 57, 89
17, 221342, Note_on_c, 9, 57, 0
17, 221344, Note_on_c, 9, 57, 88
17, 221374, Note_on_c, 9, 57, 0
17, 221376, Note_on_c, 9, 57, 90
17, 221406, Note_on_c, 9, 57, 0
17, 221408, Note_on_c, 9, 57, 91
17, 221438, Note_on_c, 9, 57, 0
17, 221440, Note_on_c, 9, 57, 88
17, 221470, Note_on_c, 9, 57, 0
17, 221472, Note_on_c, 9, 57, 94
17, 221502, Note_on_c, 9, 57, 0
17, 221504, Note_on_c, 9, 57, 91
17, 221534, Note_on_c, 9, 57, 0
17, 221536, Note_on_c, 9, 57, 90
17, 221566, Note_on_c, 9, 57, 0
17, 221568, Note_on_c, 9, 57, 95
17, 221598, Note_on_c, 9, 57, 0
17, 221600, Note_on_c, 9, 57, 88
17, 221630, Note_on_c, 9, 57, 0
17, 221632, Note_on_c, 9, 57, 88
17, 221662, Note_on_c, 9, 57, 0
17, 221664, Note_on_c, 9, 57, 91
17, 221694, Note_on_c, 9, 57, 0
17, 221696, Note_on_c, 9, 57, 92
17, 221726, Note_on_c, 9, 57, 0
17, 221728, Note_on_c, 9, 57, 91
17, 221758, Note_on_c, 9, 57, 0
17, 221760, Note_on_c, 9, 57, 88
17, 221790, Note_on_c, 9, 57, 0
17, 221792, Note_on_c, 9, 57, 91
17, 221822, Note_on_c, 9, 57, 0
17, 221824, Note_on_c, 9, 57, 92
17, 221854, Note_on_c, 9, 57, 0
17, 221856, Note_on_c, 9, 57, 96
17, 221886, Note_on_c, 9, 57, 0
17, 221888, Note_on_c, 9, 57, 92
17, 221918, Note_on_c, 9, 57, 0
17, 221920, Note_on_c, 9, 57, 97
17, 221950, Note_on_c, 9, 57, 0
17, 222720, Note_on_c, 9, 57, 87
17, 222750, Note_on_c, 9, 57, 0
17, 222752, Note_on_c, 9, 57, 92
17, 222782, Note_on_c, 9, 57, 0
17, 222784, Note_on_c, 9, 57, 97
17, 222814, Note_on_c, 9, 57, 0
17, 222816, Note_on_c, 9, 57, 97
17, 222846, Note_on_c, 9, 57, 0
17, 222848, Note_on_c, 9, 57, 97
17, 222878, Note_on_c, 9, 57, 0
17, 222880, Note_on_c, 9, 57, 87
17, 222910, Note_on_c, 9, 57, 0
17, 222912, Note_on_c, 9, 57, 94
17, 222942, Note_on_c, 9, 57, 0
17, 222944, Note_on_c, 9, 57, 90
17, 222974, Note_on_c, 9, 57, 0
17, 222976, Note_on_c, 9, 57, 93
17, 223006, Note_on_c, 9, 57, 0
17, 223008, Note_on_c, 9, 57, 94
17, 223038, Note_on_c, 9, 57, 0
17, 223040, Note_on_c, 9, 57, 97
17, 223070, Note_on_c, 9, 57, 0
17, 223072, Note_on_c, 9, 57, 98
17, 223102, Note_on_c, 9, 57, 0
17, 223104, Note_on_c, 9, 57, 100
17, 223134, Note_on_c, 9, 57, 0
17, 223136, Note_on_c, 9, 57, 100
17, 223166, Note_on_c, 9, 57, 0
17, 223168, Note_on_c, 9, 57, 95
17, 223198, Note_on_c, 9, 57, 0
17, 223200, Note_on_c, 9, 57, 100
17, 223230, Note_on_c, 9, 57, 0
17, 223232, Note_on_c, 9, 57, 99
17, 223262, Note_on_c, 9, 57, 0
17, 223264, Note_on_c, 9, 57, 99
17, 223294, Note_on_c, 9, 57, 0
17, 223296, Note_on_c, 9, 57, 105
17, 223326, Note_on_c, 9, 57, 0
17, 223328, Note_on_c, 9, 57, 106
17, 223358, Note_on_c, 9, 57, 0
17, 223360, Note_on_c, 9, 57, 105
17, 223390, Note_on_c, 9, 57, 0
17, 223392, Note_on_c, 9, 57, 105
17, 223422, Note_on_c, 9, 57, 0
17, 223424, Note_on_c, 9, 57, 109
17, 223454, Note_on_c, 9, 57, 0
17, 223456, Note_on_c, 9, 57, 106
17, 223486, Note_on_c, 9, 57, 0
17, 223488, Note_on_c, 9, 57, 103
17, 223518, Note_on_c, 9, 57, 0
17, 223520, Note_on_c, 9, 57, 103
17, 223550, Note_on_c, 9, 57, 0
17, 223552, Note_on_c, 9, 57, 113
17, 223582, Note_on_c, 9, 57, 0
17, 223584, Note_on_c, 9, 57, 110
17, 223614, Note_on_c, 9, 57, 0
17, 223616, Note_on_c, 9, 57, 103
17, 223646, Note_on_c, 9, 57, 0
17, 223648, Note_on_c, 9, 57, 105
17, 223678, Note_on_c, 9, 57, 0
17, 223680, Note_on_c, 9, 57, 103
17, 223710, Note_on_c, 9, 57, 0
17, 223712, Note_on_c, 9, 57, 103
17, 223742, Note_on_c, 9, 57, 0
17, 223744, Note_on_c, 9, 57, 105
17, 223774, Note_on_c, 9, 57, 0
17, 223776, Note_on_c, 9, 57, 105
17, 223806, Note_on_c, 9, 57, 0
17, 223808, Note_on_c, 9, 57, 103
17, 223838, Note_on_c, 9, 57, 0
17, 223840, Note_on_c, 9, 57, 110
17, 223870, Note_on_c, 9, 57, 0
17, 223872, Note_on_c, 9, 57, 104
17, 223902, Note_on_c, 9, 57, 0
17, 223904, Note_on_c, 9, 57, 106
17, 223934, Note_on_c, 9, 57, 0
17, 223936, Note_on_c, 9, 57, 107
17, 223966, Note_on_c, 9, 57, 0
17, 223968, Note_on_c, 9, 57, 105
17, 223998, Note_on_c, 9, 57, 0
17, 224000, Note_on_c, 9, 57, 110
17, 224030, Note_on_c, 9, 57, 0
17, 224032, Note_on_c, 9, 57, 106
17, 224062, Note_on_c, 9, 57, 0
17, 224064, Note_on_c, 9, 57, 112
17, 224094, Note_on_c, 9, 57, 0
17, 224096, Note_on_c, 9, 57, 104
17, 224126, Note_on_c, 9, 57, 0
17, 224128, Note_on_c, 9, 57, 111
17, 224158, Note_on_c, 9, 57, 0
17, 224160, Note_on_c, 9, 57, 112
17, 224190, Note_on_c, 9, 57, 0
17, 224192, Note_on_c, 9, 57, 103
17, 224222, Note_on_c, 9, 57, 0
17, 224224, Note_on_c, 9, 57, 108
17, 224254, Note_on_c, 9, 57, 0
17, 224256, Note_on_c, 9, 57, 113
17, 224286, Note_on_c, 9, 57, 0
17, 224288, Note_on_c, 9, 57, 107
17, 224318, Note_on_c, 9, 57, 0
17, 224320, Note_on_c, 9, 57, 111
17, 224350, Note_on_c, 9, 57, 0
17, 224352, Note_on_c, 9, 57, 110
17, 224382, Note_on_c, 9, 57, 0
17, 224384, Note_on_c, 9, 57, 111
17, 224414, Note_on_c, 9, 57, 0
17, 224416, Note_on_c, 9, 57, 105
17, 224446, Note_on_c, 9, 57, 0
17, 224448, Note_on_c, 9, 57, 110
17, 224478, Note_on_c, 9, 57, 0
17, 224480, Note_on_c, 9, 57, 113
17, 224510, Note_on_c, 9, 57, 0
17, 224512, Note_on_c, 9, 57, 109
17, 224542, Note_on_c, 9, 57, 0
17, 224544, Note_on_c, 9, 57, 108
17, 224574, Note_on_c, 9, 57, 0
17, 224576, Note_on_c, 9, 57, 113
17, 224606, Note_on_c, 9, 57, 0
17, 224608, Note_on_c, 9, 57, 109
17, 224638, Note_on_c, 9, 57, 0
17, 224640, Note_on_c, 9, 57, 108
17, 224670, Note_on_c, 9, 57, 0
17, 224672, Note_on_c, 9, 57, 110
17, 224702, Note_on_c, 9, 57, 0
17, 224704, Note_on_c, 9, 57, 108
17, 224734, Note_on_c, 9, 57, 0
17, 224736, Note_on_c, 9, 57, 106
17, 224766, Note_on_c, 9, 57, 0
17, 224768, Note_on_c, 9, 57, 111
17, 224798, Note_on_c, 9, 57, 0
17, 224800, Note_on_c, 9, 57, 106
17, 224830, Note_on_c, 9, 57, 0
17, 224832, Note_on_c, 9, 57, 108
17, 224862, Note_on_c, 9, 57, 0
17, 224864, Note_on_c, 9, 57, 112
17, 224894, Note_on_c, 9, 57, 0
17, 224896, Note_on_c, 9, 57, 112
17, 224926, Note_on_c, 9, 57, 0
17, 224928, Note_on_c, 9, 57, 109
17, 224958, Note_on_c, 9, 57, 0
17, 224960, Note_on_c, 9, 57, 107
17, 224990, Note_on_c, 9, 57, 0
17, 224992, Note_on_c, 9, 57, 112
17, 225022, Note_on_c, 9, 57, 0
17, 225024, Note_on_c, 9, 57, 105
17, 225118, Note_on_c, 9, 57, 0
17, 225118, End_track
18, 0, Start_track
18, 0, Title_t, "Tam-tam"
18, 0, MIDI_port, 0
18, 162, Control_c, 9, 0, 127
18, 163, Control_c, 9, 32, 0
18, 164, Program_c, 9, 48
18, 165, Control_c, 9, 7, 127
18, 166, Control_c, 9, 91, 127
18, 167, Control_c, 9, 99, 22
18, 168, Control_c, 9, 98, 52
18, 169, Control_c, 9, 6, 0
18, 170, Control_c, 9, 99, 23
18, 171, Control_c, 9, 98, 52
18, 172, Control_c, 9, 6, 48
18, 173, Control_c, 9, 99, 24
18, 174, Control_c, 9, 98, 52
18, 175, Control_c, 9, 6, 57
18, 176, Control_c, 9, 99, 22
18, 177, Control_c, 9, 98, 57
18, 178, Control_c, 9, 6, 0
18, 179, Control_c, 9, 99, 23
18, 180, Control_c, 9, 98, 57
18, 181, Control_c, 9, 6, 48
18, 182, Control_c, 9, 99, 24
18, 183, Control_c, 9, 98, 57
18, 184, Control_c, 9, 6, 61
18, 185, Control_c, 9, 101, 127
18, 186, Control_c, 9, 100, 127
18, 3264, Note_on_c, 9, 52, 44
18, 3792, Note_on_c, 9, 52, 0
18, 4800, Note_on_c, 9, 52, 48
18, 5328, Note_on_c, 9, 52, 0
18, 8064, Note_on_c, 9, 52, 44
18, 8400, Note_on_c, 9, 52, 0
18, 9600, Note_on_c, 9, 52, 48
18, 9936, Note_on_c, 9, 52, 0
18, 14976, Note_on_c, 9, 52, 47
18, 15312, Note_on_c, 9, 52, 0
18, 16512, Note_on_c, 9, 52, 46
18, 16848, Note_on_c, 9, 52, 0
18, 28800, Note_on_c, 9, 52, 40
18, 29136, Note_on_c, 9, 52, 0
18, 92160, Note_on_c, 9, 52, 108
18, 92320, Note_on_c, 9, 52, 0
18, 93696, Note_on_c, 9, 52, 112
18, 95184, Note_on_c, 9, 52, 0
18, 99840, Note_on_c, 9, 52, 24
18, 100000, Note_on_c, 9, 52, 0
18, 214272, Note_on_c, 9, 52, 30
18, 214558, Note_on_c, 9, 52, 0
18, 215040, Note_on_c, 9, 52, 25
18, 215326, Note_on_c, 9, 52, 0
18, 215808, Note_on_c, 9, 52, 27
18, 216094, Note_on_c, 9, 52, 0
18, 216576, Note_on_c, 9, 52, 29
18, 216862, Note_on_c, 9, 52, 0
18, 217344, Note_on_c, 9, 52, 29
18, 217630, Note_on_c, 9, 52, 0
18, 221568, Note_on_c, 9, 52, 105
18, 221904, Note_on_c, 9, 52, 0
18, 223104, Note_on_c, 9, 52, 110
18, 223440, Note_on_c, 9, 52, 0
18, 226560, Control_c, 9, 7, 127
18, 226560, End_track
19, 0, Start_track
19, 0, Title_t, "Glockenspiel"
19, 0, MIDI_port, 0
19, 149, Control_c, 7, 0, 0
19, 150, Control_c, 7, 32, 0
19, 151, Program_c, 7, 9
19, 152, Control_c, 7, 7, 127
19, 153, Control_c, 7, 10, 84
19, 154, Control_c, 7, 91, 127
19, 136704, Control_c, 7, 11, 127
19, 137472, Program_c, 7, 9
19, 138240, Note_on_c, 7, 85, 44
19, 138400, Note_on_c, 7, 85, 0
19, 138432, Note_on_c, 7, 85, 48
19, 138526, Note_on_c, 7, 85, 0
19, 138528, Note_on_c, 7, 84, 44
19, 138622, Note_on_c, 7, 84, 0
19, 138624, Note_on_c, 7, 83, 48
19, 138784, Note_on_c, 7, 83, 0
19, 138816, Note_on_c, 7, 83, 47
19, 138910, Note_on_c, 7, 83, 0
19, 138912, Note_on_c, 7, 84, 46
19, 139006, Note_on_c, 7, 84, 0
19, 139008, Note_on_c, 7, 85, 40
19, 139168, Note_on_c, 7, 85, 0
19, 139200, Note_on_c, 7, 85, 45
19, 139294, Note_on_c, 7, 85, 0
19, 139296, Note_on_c, 7, 84, 49
19, 139390, Note_on_c, 7, 84, 0
19, 139392, Note_on_c, 7, 83, 49
19, 139552, Note_on_c, 7, 83, 0
19, 139584, Note_on_c, 7, 83, 45
19, 139678, Note_on_c, 7, 83, 0
19, 139680, Note_on_c, 7, 79, 40
19, 139774, Note_on_c, 7, 79, 0
19, 139776, Note_on_c, 7, 81, 42
19, 139936, Note_on_c, 7, 81, 0
19, 139968, Note_on_c, 7, 81, 44
19, 140062, Note_on_c, 7, 81, 0
19, 140064, Note_on_c, 7, 80, 44
19, 140158, Note_on_c, 7, 80, 0
19, 140160, Note_on_c, 7, 79, 42
19, 140320, Note_on_c, 7, 79, 0
19, 140352, Note_on_c, 7, 79, 47
19, 140446, Note_on_c, 7, 79, 0
19, 140448, Note_on_c, 7, 80, 49
19, 140542, Note_on_c, 7, 80, 0
19, 140544, Note_on_c, 7, 81, 50
19, 140704, Note_on_c, 7, 81, 0
19, 140736, Note_on_c, 7, 81, 47
19, 140830, Note_on_c, 7, 81, 0
19, 140832, Note_on_c, 7, 80, 48
19, 140926, Note_on_c, 7, 80, 0
19, 140928, Note_on_c, 7, 79, 49
19, 141088, Note_on_c, 7, 79, 0
19, 141120, Note_on_c, 7, 79, 40
19, 141214, Note_on_c, 7, 79, 0
19, 141216, Note_on_c, 7, 76, 40
19, 141310, Note_on_c, 7, 76, 0
19, 141312, Note_on_c, 7, 81, 35
19, 141568, Note_on_c, 7, 81, 0
19, 141600, Note_on_c, 7, 80, 28
19, 141694, Note_on_c, 7, 80, 0
19, 141696, Note_on_c, 7, 79, 33
19, 141952, Note_on_c, 7, 79, 0
19, 141984, Note_on_c, 7, 80, 30
19, 142078, Note_on_c, 7, 80, 0
19, 142080, Note_on_c, 7, 81, 32
19, 142336, Note_on_c, 7, 81, 0
19, 142368, Note_on_c, 7, 80, 34
19, 142462, Note_on_c, 7, 80, 0
19, 142464, Note_on_c, 7, 79, 33
19, 142720, Note_on_c, 7, 79, 0
19, 142752, Note_on_c, 7, 76, 29
19, 142846, Note_on_c, 7, 76, 0
19, 142848, Note_on_c, 7, 81, 29
19, 143136, Note_on_c, 7, 81, 0
19, 143136, Note_on_c, 7, 80, 25
19, 143230, Note_on_c, 7, 80, 0
19, 143232, Note_on_c, 7, 79, 33
19, 143520, Note_on_c, 7, 79, 0
19, 143520, Note_on_c, 7, 80, 25
19, 143614, Note_on_c, 7, 80, 0
19, 143616, Note_on_c, 7, 81, 35
19, 143904, Note_on_c, 7, 81, 0
19, 143904, Note_on_c, 7, 80, 27
19, 143998, Note_on_c, 7, 80, 0
19, 144000, Note_on_c, 7, 79, 26
19, 144288, Note_on_c, 7, 79, 0
19, 144288, Note_on_c, 7, 83, 35
19, 144382, Note_on_c, 7, 83, 0
19, 144384, Note_on_c, 7, 86, 30
19, 144544, Note_on_c, 7, 86, 0
19, 172800, Program_c, 7, 9
19, 173952, Note_on_c, 7, 79, 40
19, 174078, Note_on_c, 7, 79, 0
19, 174080, Note_on_c, 7, 79, 43
19, 174142, Note_on_c, 7, 79, 0
19, 174144, Note_on_c, 7, 78, 45
19, 174206, Note_on_c, 7, 78, 0
19, 174208, Note_on_c, 7, 77, 33
19, 174270, Note_on_c, 7, 77, 0
19, 174272, Note_on_c, 7, 76, 31
19, 174334, Note_on_c, 7, 76, 0
19, 174720, Note_on_c, 7, 79, 40
19, 174846, Note_on_c, 7, 79, 0
19, 174848, Note_on_c, 7, 79, 41
19, 174910, Note_on_c, 7, 79, 0
19, 174912, Note_on_c, 7, 78, 42
19, 174974, Note_on_c, 7, 78, 0
19, 174976, Note_on_c, 7, 77, 31
19, 175038, Note_on_c, 7, 77, 0
19, 175040, Note_on_c, 7, 76, 33
19, 175102, Note_on_c, 7, 76, 0
19, 175488, Note_on_c, 7, 79, 48
19, 175614, Note_on_c, 7, 79, 0
19, 175616, Note_on_c, 7, 79, 48
19, 175678, Note_on_c, 7, 79, 0
19, 175680, Note_on_c, 7, 78, 44
19, 175742, Note_on_c, 7, 78, 0
19, 175744, Note_on_c, 7, 77, 35
19, 175806, Note_on_c, 7, 77, 0
19, 175808, Note_on_c, 7, 76, 31
19, 175870, Note_on_c, 7, 76, 0
19, 176256, Note_on_c, 7, 79, 44
19, 176382, Note_on_c, 7, 79, 0
19, 176384, Note_on_c, 7, 79, 42
19, 176446, Note_on_c, 7, 79, 0
19, 176448, Note_on_c, 7, 78, 38
19, 176510, Note_on_c, 7, 78, 0
19, 176512, Note_on_c, 7, 77, 33
19, 176574, Note_on_c, 7, 77, 0
19, 176576, Note_on_c, 7, 76, 26
19, 176638, Note_on_c, 7, 76, 0
19, 177024, Note_on_c, 7, 79, 47
19, 177150, Note_on_c, 7, 79, 0
19, 177152, Note_on_c, 7, 79, 43
19, 177214, Note_on_c, 7, 79, 0
19, 177216, Note_on_c, 7, 78, 39
19, 177278, Note_on_c, 7, 78, 0
19, 177280, Note_on_c, 7, 77, 35
19, 177342, Note_on_c, 7, 77, 0
19, 177344, Note_on_c, 7, 76, 31
19, 177406, Note_on_c, 7, 76, 0
19, 180864, Note_on_c, 7, 85, 64
19, 180990, Note_on_c, 7, 85, 0
19, 180992, Note_on_c, 7, 85, 63
19, 181054, Note_on_c, 7, 85, 0
19, 181056, Note_on_c, 7, 84, 63
19, 181118, Note_on_c, 7, 84, 0
19, 181120, Note_on_c, 7, 83, 62
19, 181182, Note_on_c, 7, 83, 0
19, 181184, Note_on_c, 7, 82, 63
19, 181246, Note_on_c, 7, 82, 0
19, 181632, Note_on_c, 7, 85, 57
19, 181758, Note_on_c, 7, 85, 0
19, 181760, Note_on_c, 7, 85, 65
19, 181822, Note_on_c, 7, 85, 0
19, 181824, Note_on_c, 7, 84, 63
19, 181886, Note_on_c, 7, 84, 0
19, 181888, Note_on_c, 7, 83, 60
19, 181950, Note_on_c, 7, 83, 0
19, 181952, Note_on_c, 7, 82, 56
19, 182014, Note_on_c, 7, 82, 0
19, 182400, Note_on_c, 7, 85, 65
19, 182526, Note_on_c, 7, 85, 0
19, 182528, Note_on_c, 7, 85, 63
19, 182590, Note_on_c, 7, 85, 0
19, 182592, Note_on_c, 7, 84, 55
19, 182654, Note_on_c, 7, 84, 0
19, 182656, Note_on_c, 7, 83, 59
19, 182718, Note_on_c, 7, 83, 0
19, 182720, Note_on_c, 7, 82, 65
19, 182782, Note_on_c, 7, 82, 0
19, 182782, End_track
20, 0, Start_track
20, 0, Title_t, "Arpe I - II"
20, 0, MIDI_port, 0
20, 188, Control_c, 10, 0, 0
20, 189, Control_c, 10, 32, 0
20, 190, Program_c, 10, 46
20, 191, Control_c, 10, 7, 127
20, 192, Control_c, 10, 91, 127
20, 120576, Program_c, 10, 46
20, 120576, Control_c, 10, 11, 127
20, 121344, Note_on_c, 10, 56, 29
20, 121344, Control_c, 10, 7, 127
20, 121390, Note_on_c, 10, 56, 0
20, 121392, Note_on_c, 10, 53, 33
20, 121438, Note_on_c, 10, 53, 0
20, 121440, Note_on_c, 10, 56, 29
20, 121486, Note_on_c, 10, 56, 0
20, 121488, Note_on_c, 10, 53, 33
20, 121534, Note_on_c, 10, 53, 0
20, 121536, Note_on_c, 10, 56, 32
20, 121536, Note_on_c, 10, 68, 29
20, 121582, Note_on_c, 10, 56, 0
20, 121582, Note_on_c, 10, 68, 0
20, 121584, Note_on_c, 10, 65, 33
20, 121584, Note_on_c, 10, 53, 31
20, 121630, Note_on_c, 10, 65, 0
20, 121630, Note_on_c, 10, 53, 0
20, 121632, Note_on_c, 10, 56, 25
20, 121632, Note_on_c, 10, 68, 29
20, 121678, Note_on_c, 10, 56, 0
20, 121678, Note_on_c, 10, 68, 0
20, 121680, Note_on_c, 10, 53, 30
20, 121680, Note_on_c, 10, 65, 33
20, 121726, Note_on_c, 10, 53, 0
20, 121726, Note_on_c, 10, 65, 0
20, 121728, Note_on_c, 10, 56, 32
20, 121728, Note_on_c, 10, 56, 34
20, 121774, Note_on_c, 10, 56, 0
20, 121776, Note_on_c, 10, 53, 34
20, 121822, Note_on_c, 10, 56, 0
20, 121822, Note_on_c, 10, 53, 0
20, 121824, Note_on_c, 10, 56, 30
20, 121870, Note_on_c, 10, 56, 0
20, 121872, Note_on_c, 10, 53, 25
20, 121918, Note_on_c, 10, 53, 0
20, 121920, Note_on_c, 10, 56, 27
20, 121920, Note_on_c, 10, 68, 31
20, 121966, Note_on_c, 10, 56, 0
20, 121966, Note_on_c, 10, 68, 0
20, 121968, Note_on_c, 10, 53, 29
20, 121968, Note_on_c, 10, 65, 25
20, 122014, Note_on_c, 10, 53, 0
20, 122014, Note_on_c, 10, 65, 0
20, 122016, Note_on_c, 10, 68, 30
20, 122016, Note_on_c, 10, 56, 29
20, 122062, Note_on_c, 10, 68, 0
20, 122062, Note_on_c, 10, 56, 0
20, 122064, Note_on_c, 10, 53, 27
20, 122064, Note_on_c, 10, 65, 34
20, 122110, Note_on_c, 10, 53, 0
20, 122110, Note_on_c, 10, 65, 0
20, 122112, Note_on_c, 10, 56, 32
20, 122112, Note_on_c, 10, 56, 34
20, 122158, Note_on_c, 10, 56, 0
20, 122160, Note_on_c, 10, 53, 34
20, 122206, Note_on_c, 10, 56, 0
20, 122206, Note_on_c, 10, 53, 0
20, 122208, Note_on_c, 10, 56, 35
20, 122254, Note_on_c, 10, 56, 0
20, 122256, Note_on_c, 10, 53, 32
20, 122302, Note_on_c, 10, 53, 0
20, 122304, Note_on_c, 10, 68, 30
20, 122304, Note_on_c, 10, 56, 33
20, 122350, Note_on_c, 10, 68, 0
20, 122350, Note_on_c, 10, 56, 0
20, 122352, Note_on_c, 10, 53, 34
20, 122352, Note_on_c, 10, 65, 25
20, 122398, Note_on_c, 10, 53, 0
20, 122398, Note_on_c, 10, 65, 0
20, 122400, Note_on_c, 10, 56, 25
20, 122400, Note_on_c, 10, 68, 27
20, 122446, Note_on_c, 10, 56, 0
20, 122446, Note_on_c, 10, 68, 0
20, 122448, Note_on_c, 10, 65, 29
20, 122448, Note_on_c, 10, 53, 25
20, 122494, Note_on_c, 10, 65, 0
20, 122494, Note_on_c, 10, 53, 0
20, 122496, Note_on_c, 10, 56, 35
20, 122496, Note_on_c, 10, 56, 29
20, 122542, Note_on_c, 10, 56, 0
20, 122544, Note_on_c, 10, 53, 28
20, 122590, Note_on_c, 10, 56, 0
20, 122590, Note_on_c, 10, 53, 0
20, 122592, Note_on_c, 10, 56, 33
20, 122638, Note_on_c, 10, 56, 0
20, 122640, Note_on_c, 10, 53, 30
20, 122686, Note_on_c, 10, 53, 0
20, 122688, Note_on_c, 10, 56, 32
20, 122688, Note_on_c, 10, 68, 27
20, 122734, Note_on_c, 10, 56, 0
20, 122734, Note_on_c, 10, 68, 0
20, 122736, Note_on_c, 10, 65, 32
20, 122736, Note_on_c, 10, 53, 34
20, 122782, Note_on_c, 10, 65, 0
20, 122782, Note_on_c, 10, 53, 0
20, 122784, Note_on_c, 10, 56, 33
20, 122784, Note_on_c, 10, 68, 34
20, 122830, Note_on_c, 10, 56, 0
20, 122830, Note_on_c, 10, 68, 0
20, 122832, Note_on_c, 10, 53, 29
20, 122832, Note_on_c, 10, 65, 35
20, 122878, Note_on_c, 10, 53, 0
20, 122878, Note_on_c, 10, 65, 0
20, 122880, Note_on_c, 10, 56, 32
20, 122880, Note_on_c, 10, 56, 29
20, 122926, Note_on_c, 10, 56, 0
20, 122928, Note_on_c, 10, 53, 25
20, 122974, Note_on_c, 10, 56, 0
20, 122974, Note_on_c, 10, 53, 0
20, 122976, Note_on_c, 10, 56, 33
20, 123022, Note_on_c, 10, 56, 0
20, 123024, Note_on_c, 10, 53, 25
20, 123070, Note_on_c, 10, 53, 0
20, 123072, Note_on_c, 10, 56, 35
20, 123072, Note_on_c, 10, 68, 33
20, 123118, Note_on_c, 10, 56, 0
20, 123118, Note_on_c, 10, 68, 0
20, 123120, Note_on_c, 10, 53, 27
20, 123120, Note_on_c, 10, 65, 34
20, 123166, Note_on_c, 10, 53, 0
20, 123166, Note_on_c, 10, 65, 0
20, 123168, Note_on_c, 10, 68, 25
20, 123168, Note_on_c, 10, 56, 26
20, 123214, Note_on_c, 10, 68, 0
20, 123214, Note_on_c, 10, 56, 0
20, 123216, Note_on_c, 10, 53, 35
20, 123216, Note_on_c, 10, 65, 25
20, 123262, Note_on_c, 10, 53, 0
20, 123262, Note_on_c, 10, 65, 0
20, 123264, Note_on_c, 10, 56, 30
20, 123264, Note_on_c, 10, 56, 35
20, 123310, Note_on_c, 10, 56, 0
20, 123312, Note_on_c, 10, 53, 25
20, 123358, Note_on_c, 10, 56, 0
20, 123358, Note_on_c, 10, 53, 0
20, 123360, Note_on_c, 10, 56, 28
20, 123406, Note_on_c, 10, 56, 0
20, 123408, Note_on_c, 10, 53, 35
20, 123454, Note_on_c, 10, 53, 0
20, 123456, Note_on_c, 10, 68, 28
20, 123456, Note_on_c, 10, 56, 28
20, 123502, Note_on_c, 10, 68, 0
20, 123502, Note_on_c, 10, 56, 0
20, 123504, Note_on_c, 10, 53, 31
20, 123504, Note_on_c, 10, 65, 33
20, 123550, Note_on_c, 10, 53, 0
20, 123550, Note_on_c, 10, 65, 0
20, 123552, Note_on_c, 10, 56, 25
20, 123552, Note_on_c, 10, 68, 30
20, 123598, Note_on_c, 10, 56, 0
20, 123598, Note_on_c, 10, 68, 0
20, 123600, Note_on_c, 10, 65, 32
20, 123600, Note_on_c, 10, 53, 26
20, 123646, Note_on_c, 10, 65, 0
20, 123646, Note_on_c, 10, 53, 0
20, 123648, Note_on_c, 10, 56, 32
20, 123648, Note_on_c, 10, 56, 34
20, 123694, Note_on_c, 10, 56, 0
20, 123696, Note_on_c, 10, 53, 26
20, 123742, Note_on_c, 10, 56, 0
20, 123742, Note_on_c, 10, 53, 0
20, 123744, Note_on_c, 10, 56, 33
20, 123790, Note_on_c, 10, 56, 0
20, 123792, Note_on_c, 10, 53, 33
20, 123838, Note_on_c, 10, 53, 0
20, 123840, Note_on_c, 10, 56, 33
20, 123840, Note_on_c, 10, 68, 33
20, 123886, Note_on_c, 10, 56, 0
20, 123886, Note_on_c, 10, 68, 0
20, 123888, Note_on_c, 10, 65, 29
20, 123888, Note_on_c, 10, 53, 34
20, 123934, Note_on_c, 10, 65, 0
20, 123934, Note_on_c, 10, 53, 0
20, 123936, Note_on_c, 10, 56, 30
20, 123936, Note_on_c, 10, 68, 29
20, 123982, Note_on_c, 10, 56, 0
20, 123982, Note_on_c, 10, 68, 0
20, 123984, Note_on_c, 10, 53, 31
20, 123984, Note_on_c, 10, 65, 25
20, 124030, Note_on_c, 10, 53, 0
20, 124030, Note_on_c, 10, 65, 0
20, 124032, Note_on_c, 10, 56, 33
20, 124032, Note_on_c, 10, 56, 29
20, 124078, Note_on_c, 10, 56, 0
20, 124080, Note_on_c, 10, 53, 27
20, 124126, Note_on_c, 10, 56, 0
20, 124126, Note_on_c, 10, 53, 0
20, 124128, Note_on_c, 10, 56, 28
20, 124174, Note_on_c, 10, 56, 0
20, 124176, Note_on_c, 10, 53, 28
20, 124222, Note_on_c, 10, 53, 0
20, 124224, Note_on_c, 10, 56, 26
20, 124224, Note_on_c, 10, 68, 25
20, 124270, Note_on_c, 10, 56, 0
20, 124270, Note_on_c, 10, 68, 0
20, 124272, Note_on_c, 10, 53, 32
20, 124272, Note_on_c, 10, 65, 35
20, 124318, Note_on_c, 10, 53, 0
20, 124318, Note_on_c, 10, 65, 0
20, 124320, Note_on_c, 10, 68, 27
20, 124320, Note_on_c, 10, 56, 28
20, 124366, Note_on_c, 10, 68, 0
20, 124366, Note_on_c, 10, 56, 0
20, 124368, Note_on_c, 10, 53, 29
20, 124368, Note_on_c, 10, 65, 26
20, 124414, Note_on_c, 10, 53, 0
20, 124414, Note_on_c, 10, 65, 0
20, 124416, Note_on_c, 10, 56, 30
20, 124416, Note_on_c, 10, 56, 35
20, 124462, Note_on_c, 10, 56, 0
20, 124464, Note_on_c, 10, 53, 31
20, 124510, Note_on_c, 10, 56, 0
20, 124510, Note_on_c, 10, 53, 0
20, 124512, Note_on_c, 10, 56, 34
20, 124558, Note_on_c, 10, 56, 0
20, 124560, Note_on_c, 10, 53, 33
20, 124606, Note_on_c, 10, 53, 0
20, 124608, Note_on_c, 10, 68, 30
20, 124608, Note_on_c, 10, 56, 33
20, 124654, Note_on_c, 10, 68, 0
20, 124654, Note_on_c, 10, 56, 0
20, 124656, Note_on_c, 10, 53, 32
20, 124656, Note_on_c, 10, 65, 25
20, 124702, Note_on_c, 10, 53, 0
20, 124702, Note_on_c, 10, 65, 0
20, 124704, Note_on_c, 10, 56, 33
20, 124704, Note_on_c, 10, 68, 28
20, 124750, Note_on_c, 10, 56, 0
20, 124750, Note_on_c, 10, 68, 0
20, 124752, Note_on_c, 10, 65, 35
20, 124752, Note_on_c, 10, 53, 27
20, 124798, Note_on_c, 10, 65, 0
20, 124798, Note_on_c, 10, 53, 0
20, 124800, Note_on_c, 10, 56, 35
20, 124800, Note_on_c, 10, 56, 28
20, 124846, Note_on_c, 10, 56, 0
20, 124848, Note_on_c, 10, 53, 33
20, 124894, Note_on_c, 10, 56, 0
20, 124894, Note_on_c, 10, 53, 0
20, 124896, Note_on_c, 10, 56, 30
20, 124942, Note_on_c, 10, 56, 0
20, 124944, Note_on_c, 10, 53, 26
20, 124990, Note_on_c, 10, 53, 0
20, 124992, Note_on_c, 10, 56, 35
20, 124992, Note_on_c, 10, 68, 31
20, 125038, Note_on_c, 10, 56, 0
20, 125038, Note_on_c, 10, 68, 0
20, 125040, Note_on_c, 10, 65, 25
20, 125040, Note_on_c, 10, 53, 33
20, 125086, Note_on_c, 10, 65, 0
20, 125086, Note_on_c, 10, 53, 0
20, 125088, Note_on_c, 10, 56, 25
20, 125088, Note_on_c, 10, 68, 26
20, 125134, Note_on_c, 10, 56, 0
20, 125134, Note_on_c, 10, 68, 0
20, 125136, Note_on_c, 10, 53, 29
20, 125136, Note_on_c, 10, 65, 32
20, 125182, Note_on_c, 10, 53, 0
20, 125182, Note_on_c, 10, 65, 0
20, 125184, Note_on_c, 10, 56, 26
20, 125184, Note_on_c, 10, 56, 35
20, 125230, Note_on_c, 10, 56, 0
20, 125232, Note_on_c, 10, 53, 32
20, 125278, Note_on_c, 10, 56, 0
20, 125278, Note_on_c, 10, 53, 0
20, 125280, Note_on_c, 10, 56, 33
20, 125326, Note_on_c, 10, 56, 0
20, 125328, Note_on_c, 10, 53, 35
20, 125374, Note_on_c, 10, 53, 0
20, 125376, Note_on_c, 10, 56, 28
20, 125376, Note_on_c, 10, 68, 33
20, 125422, Note_on_c, 10, 56, 0
20, 125422, Note_on_c, 10, 68, 0
20, 125424, Note_on_c, 10, 53, 35
20, 125424, Note_on_c, 10, 65, 33
20, 125470, Note_on_c, 10, 53, 0
20, 125470, Note_on_c, 10, 65, 0
20, 125472, Note_on_c, 10, 68, 33
20, 125472, Note_on_c, 10, 56, 25
20, 125518, Note_on_c, 10, 68, 0
20, 125518, Note_on_c, 10, 56, 0
20, 125520, Note_on_c, 10, 53, 33
20, 125520, Note_on_c, 10, 65, 34
20, 125566, Note_on_c, 10, 53, 0
20, 125566, Note_on_c, 10, 65, 0
20, 125568, Note_on_c, 10, 56, 25
20, 125568, Note_on_c, 10, 56, 30
20, 125614, Note_on_c, 10, 56, 0
20, 125616, Note_on_c, 10, 53, 27
20, 125662, Note_on_c, 10, 56, 0
20, 125662, Note_on_c, 10, 53, 0
20, 125664, Note_on_c, 10, 56, 29
20, 125710, Note_on_c, 10, 56, 0
20, 125712, Note_on_c, 10, 53, 32
20, 125758, Note_on_c, 10, 53, 0
20, 125760, Note_on_c, 10, 68, 31
20, 125760, Note_on_c, 10, 56, 29
20, 125806, Note_on_c, 10, 68, 0
20, 125806, Note_on_c, 10, 56, 0
20, 125808, Note_on_c, 10, 53, 30
20, 125808, Note_on_c, 10, 65, 29
20, 125854, Note_on_c, 10, 53, 0
20, 125854, Note_on_c, 10, 65, 0
20, 125856, Note_on_c, 10, 56, 29
20, 125856, Note_on_c, 10, 68, 27
20, 125902, Note_on_c, 10, 56, 0
20, 125902, Note_on_c, 10, 68, 0
20, 125904, Note_on_c, 10, 65, 28
20, 125904, Note_on_c, 10, 53, 27
20, 125950, Note_on_c, 10, 65, 0
20, 125950, Note_on_c, 10, 53, 0
20, 125952, Note_on_c, 10, 59, 32
20, 125952, Note_on_c, 10, 56, 28
20, 125998, Note_on_c, 10, 59, 0
20, 126000, Note_on_c, 10, 53, 30
20, 126046, Note_on_c, 10, 56, 0
20, 126046, Note_on_c, 10, 53, 0
20, 126048, Note_on_c, 10, 59, 33
20, 126094, Note_on_c, 10, 59, 0
20, 126096, Note_on_c, 10, 53, 26
20, 126142, Note_on_c, 10, 53, 0
20, 126144, Note_on_c, 10, 59, 32
20, 126144, Note_on_c, 10, 68, 26
20, 126190, Note_on_c, 10, 59, 0
20, 126190, Note_on_c, 10, 68, 0
20, 126192, Note_on_c, 10, 65, 32
20, 126192, Note_on_c, 10, 53, 28
20, 126238, Note_on_c, 10, 65, 0
20, 126238, Note_on_c, 10, 53, 0
20, 126240, Note_on_c, 10, 59, 33
20, 126240, Note_on_c, 10, 68, 28
20, 126286, Note_on_c, 10, 59, 0
20, 126286, Note_on_c, 10, 68, 0
20, 126288, Note_on_c, 10, 53, 33
20, 126288, Note_on_c, 10, 65, 29
20, 126334, Note_on_c, 10, 53, 0
20, 126334, Note_on_c, 10, 65, 0
20, 126336, Note_on_c, 10, 56, 30
20, 126336, Note_on_c, 10, 59, 32
20, 126382, Note_on_c, 10, 59, 0
20, 126384, Note_on_c, 10, 53, 27
20, 126430, Note_on_c, 10, 56, 0
20, 126430, Note_on_c, 10, 53, 0
20, 126432, Note_on_c, 10, 59, 34
20, 126478, Note_on_c, 10, 59, 0
20, 126480, Note_on_c, 10, 53, 28
20, 126526, Note_on_c, 10, 53, 0
20, 126528, Note_on_c, 10, 59, 25
20, 126528, Note_on_c, 10, 68, 31
20, 126574, Note_on_c, 10, 59, 0
20, 126574, Note_on_c, 10, 68, 0
20, 126576, Note_on_c, 10, 53, 30
20, 126576, Note_on_c, 10, 65, 34
20, 126622, Note_on_c, 10, 53, 0
20, 126622, Note_on_c, 10, 65, 0
20, 126624, Note_on_c, 10, 68, 33
20, 126624, Note_on_c, 10, 59, 34
20, 126670, Note_on_c, 10, 68, 0
20, 126670, Note_on_c, 10, 59, 0
20, 126672, Note_on_c, 10, 53, 34
20, 126672, Note_on_c, 10, 65, 33
20, 126718, Note_on_c, 10, 53, 0
20, 126718, Note_on_c, 10, 65, 0
20, 126720, Note_on_c, 10, 59, 31
20, 126720, Note_on_c, 10, 56, 32
20, 126766, Note_on_c, 10, 59, 0
20, 126768, Note_on_c, 10, 53, 32
20, 126814, Note_on_c, 10, 56, 0
20, 126814, Note_on_c, 10, 53, 0
20, 126816, Note_on_c, 10, 59, 30
20, 126862, Note_on_c, 10, 59, 0
20, 126864, Note_on_c, 10, 53, 33
20, 126910, Note_on_c, 10, 53, 0
20, 126912, Note_on_c, 10, 68, 33
20, 126912, Note_on_c, 10, 59, 33
20, 126958, Note_on_c, 10, 68, 0
20, 126958, Note_on_c, 10, 59, 0
20, 126960, Note_on_c, 10, 53, 30
20, 126960, Note_on_c, 10, 65, 27
20, 127006, Note_on_c, 10, 53, 0
20, 127006, Note_on_c, 10, 65, 0
20, 127008, Note_on_c, 10, 59, 32
20, 127008, Note_on_c, 10, 68, 35
20, 127054, Note_on_c, 10, 59, 0
20, 127054, Note_on_c, 10, 68, 0
20, 127056, Note_on_c, 10, 65, 33
20, 127056, Note_on_c, 10, 53, 31
20, 127102, Note_on_c, 10, 65, 0
20, 127102, Note_on_c, 10, 53, 0
20, 127104, Note_on_c, 10, 59, 27
20, 127104, Note_on_c, 10, 56, 30
20, 127150, Note_on_c, 10, 59, 0
20, 127152, Note_on_c, 10, 53, 25
20, 127198, Note_on_c, 10, 56, 0
20, 127198, Note_on_c, 10, 53, 0
20, 127200, Note_on_c, 10, 59, 32
20, 127246, Note_on_c, 10, 59, 0
20, 127248, Note_on_c, 10, 53, 27
20, 127294, Note_on_c, 10, 53, 0
20, 127296, Note_on_c, 10, 59, 27
20, 127296, Note_on_c, 10, 68, 26
20, 127342, Note_on_c, 10, 59, 0
20, 127342, Note_on_c, 10, 68, 0
20, 127344, Note_on_c, 10, 65, 35
20, 127344, Note_on_c, 10, 53, 26
20, 127390, Note_on_c, 10, 65, 0
20, 127390, Note_on_c, 10, 53, 0
20, 127392, Note_on_c, 10, 59, 34
20, 127392, Note_on_c, 10, 68, 33
20, 127438, Note_on_c, 10, 59, 0
20, 127438, Note_on_c, 10, 68, 0
20, 127440, Note_on_c, 10, 53, 35
20, 127440, Note_on_c, 10, 65, 25
20, 127486, Note_on_c, 10, 53, 0
20, 127486, Note_on_c, 10, 65, 0
20, 127488, Note_on_c, 10, 56, 29
20, 127488, Note_on_c, 10, 59, 29
20, 127534, Note_on_c, 10, 59, 0
20, 127536, Note_on_c, 10, 53, 29
20, 127582, Note_on_c, 10, 56, 0
20, 127582, Note_on_c, 10, 53, 0
20, 127584, Note_on_c, 10, 59, 28
20, 127630, Note_on_c, 10, 59, 0
20, 127632, Note_on_c, 10, 53, 34
20, 127678, Note_on_c, 10, 53, 0
20, 127680, Note_on_c, 10, 59, 27
20, 127680, Note_on_c, 10, 68, 35
20, 127726, Note_on_c, 10, 59, 0
20, 127726, Note_on_c, 10, 68, 0
20, 127728, Note_on_c, 10, 53, 28
20, 127728, Note_on_c, 10, 65, 32
20, 127774, Note_on_c, 10, 53, 0
20, 127774, Note_on_c, 10, 65, 0
20, 127776, Note_on_c, 10, 68, 33
20, 127776, Note_on_c, 10, 59, 32
20, 127822, Note_on_c, 10, 68, 0
20, 127822, Note_on_c, 10, 59, 0
20, 127824, Note_on_c, 10, 53, 31
20, 127824, Note_on_c, 10, 65, 35
20, 127870, Note_on_c, 10, 53, 0
20, 127870, Note_on_c, 10, 65, 0
20, 127872, Note_on_c, 10, 59, 35
20, 127872, Note_on_c, 10, 56, 28
20, 127918, Note_on_c, 10, 59, 0
20, 127920, Note_on_c, 10, 53, 32
20, 127966, Note_on_c, 10, 56, 0
20, 127966, Note_on_c, 10, 53, 0
20, 127968, Note_on_c, 10, 59, 29
20, 128014, Note_on_c, 10, 59, 0
20, 128016, Note_on_c, 10, 53, 33
20, 128062, Note_on_c, 10, 53, 0
20, 128064, Note_on_c, 10, 68, 35
20, 128064, Note_on_c, 10, 59, 26
20, 128110, Note_on_c, 10, 68, 0
20, 128110, Note_on_c, 10, 59, 0
20, 128112, Note_on_c, 10, 53, 32
20, 128112, Note_on_c, 10, 65, 25
20, 128158, Note_on_c, 10, 53, 0
20, 128158, Note_on_c, 10, 65, 0
20, 128160, Note_on_c, 10, 59, 35
20, 128160, Note_on_c, 10, 68, 33
20, 128206, Note_on_c, 10, 59, 0
20, 128206, Note_on_c, 10, 68, 0
20, 128208, Note_on_c, 10, 65, 25
20, 128208, Note_on_c, 10, 53, 34
20, 128254, Note_on_c, 10, 65, 0
20, 128254, Note_on_c, 10, 53, 0
20, 128256, Note_on_c, 10, 59, 27
20, 128256, Note_on_c, 10, 56, 27
20, 128302, Note_on_c, 10, 59, 0
20, 128304, Note_on_c, 10, 53, 25
20, 128350, Note_on_c, 10, 56, 0
20, 128350, Note_on_c, 10, 53, 0
20, 128352, Note_on_c, 10, 59, 32
20, 128398, Note_on_c, 10, 59, 0
20, 128400, Note_on_c, 10, 53, 33
20, 128446, Note_on_c, 10, 53, 0
20, 128448, Note_on_c, 10, 59, 34
20, 128448, Note_on_c, 10, 68, 29
20, 128494, Note_on_c, 10, 59, 0
20, 128494, Note_on_c, 10, 68, 0
20, 128496, Note_on_c, 10, 65, 32
20, 128496, Note_on_c, 10, 53, 28
20, 128542, Note_on_c, 10, 65, 0
20, 128542, Note_on_c, 10, 53, 0
20, 128544, Note_on_c, 10, 59, 32
20, 128544, Note_on_c, 10, 68, 29
20, 128590, Note_on_c, 10, 59, 0
20, 128590, Note_on_c, 10, 68, 0
20, 128592, Note_on_c, 10, 53, 31
20, 128592, Note_on_c, 10, 65, 30
20, 128638, Note_on_c, 10, 53, 0
20, 128638, Note_on_c, 10, 65, 0
20, 128640, Note_on_c, 10, 56, 29
20, 128640, Note_on_c, 10, 59, 35
20, 128686, Note_on_c, 10, 59, 0
20, 128688, Note_on_c, 10, 53, 29
20, 128734, Note_on_c, 10, 56, 0
20, 128734, Note_on_c, 10, 53, 0
20, 128736, Note_on_c, 10, 59, 29
20, 128782, Note_on_c, 10, 59, 0
20, 128784, Note_on_c, 10, 53, 27
20, 128830, Note_on_c, 10, 53, 0
20, 128832, Note_on_c, 10, 59, 26
20, 128832, Note_on_c, 10, 68, 27
20, 128878, Note_on_c, 10, 59, 0
20, 128878, Note_on_c, 10, 68, 0
20, 128880, Note_on_c, 10, 53, 34
20, 128880, Note_on_c, 10, 65, 32
20, 128926, Note_on_c, 10, 53, 0
20, 128926, Note_on_c, 10, 65, 0
20, 128928, Note_on_c, 10, 68, 30
20, 128928, Note_on_c, 10, 59, 33
20, 128974, Note_on_c, 10, 68, 0
20, 128974, Note_on_c, 10, 59, 0
20, 128976, Note_on_c, 10, 53, 27
20, 128976, Note_on_c, 10, 65, 33
20, 129022, Note_on_c, 10, 53, 0
20, 129022, Note_on_c, 10, 65, 0
20, 129024, Note_on_c, 10, 57, 30
20, 129024, Note_on_c, 10, 54, 26
20, 129070, Note_on_c, 10, 57, 0
20, 129070, Note_on_c, 10, 54, 0
20, 129072, Note_on_c, 10, 57, 32
20, 129072, Note_on_c, 10, 54, 27
20, 129118, Note_on_c, 10, 57, 0
20, 129118, Note_on_c, 10, 54, 0
20, 129120, Note_on_c, 10, 69, 27
20, 129120, Note_on_c, 10, 66, 28
20, 129166, Note_on_c, 10, 69, 0
20, 129166, Note_on_c, 10, 66, 0
20, 129168, Note_on_c, 10, 66, 27
20, 129168, Note_on_c, 10, 69, 33
20, 129214, Note_on_c, 10, 66, 0
20, 129214, Note_on_c, 10, 69, 0
20, 129216, Note_on_c, 10, 54, 33
20, 129216, Note_on_c, 10, 57, 35
20, 129262, Note_on_c, 10, 54, 0
20, 129262, Note_on_c, 10, 57, 0
20, 129264, Note_on_c, 10, 54, 27
20, 129264, Note_on_c, 10, 57, 32
20, 129310, Note_on_c, 10, 54, 0
20, 129310, Note_on_c, 10, 57, 0
20, 129312, Note_on_c, 10, 69, 25
20, 129312, Note_on_c, 10, 66, 27
20, 129358, Note_on_c, 10, 69, 0
20, 129358, Note_on_c, 10, 66, 0
20, 129360, Note_on_c, 10, 69, 34
20, 129360, Note_on_c, 10, 66, 32
20, 129406, Note_on_c, 10, 69, 0
20, 129406, Note_on_c, 10, 66, 0
20, 129408, Note_on_c, 10, 57, 29
20, 129408, Note_on_c, 10, 54, 28
20, 129454, Note_on_c, 10, 57, 0
20, 129454, Note_on_c, 10, 54, 0
20, 129456, Note_on_c, 10, 54, 30
20, 129456, Note_on_c, 10, 57, 25
20, 129502, Note_on_c, 10, 54, 0
20, 129502, Note_on_c, 10, 57, 0
20, 129504, Note_on_c, 10, 66, 30
20, 129504, Note_on_c, 10, 69, 31
20, 129550, Note_on_c, 10, 66, 0
20, 129550, Note_on_c, 10, 69, 0
20, 129552, Note_on_c, 10, 66, 25
20, 129552, Note_on_c, 10, 69, 34
20, 129598, Note_on_c, 10, 66, 0
20, 129598, Note_on_c, 10, 69, 0
20, 129600, Note_on_c, 10, 57, 28
20, 129600, Note_on_c, 10, 54, 34
20, 129646, Note_on_c, 10, 57, 0
20, 129646, Note_on_c, 10, 54, 0
20, 129648, Note_on_c, 10, 57, 31
20, 129648, Note_on_c, 10, 54, 26
20, 129694, Note_on_c, 10, 57, 0
20, 129694, Note_on_c, 10, 54, 0
20, 129696, Note_on_c, 10, 69, 32
20, 129696, Note_on_c, 10, 66, 32
20, 129742, Note_on_c, 10, 69, 0
20, 129742, Note_on_c, 10, 66, 0
20, 129744, Note_on_c, 10, 66, 26
20, 129744, Note_on_c, 10, 69, 30
20, 129790, Note_on_c, 10, 66, 0
20, 129790, Note_on_c, 10, 69, 0
20, 129792, Note_on_c, 10, 54, 33
20, 129792, Note_on_c, 10, 57, 25
20, 129838, Note_on_c, 10, 54, 0
20, 129838, Note_on_c, 10, 57, 0
20, 129840, Note_on_c, 10, 54, 29
20, 129840, Note_on_c, 10, 57, 33
20, 129886, Note_on_c, 10, 54, 0
20, 129886, Note_on_c, 10, 57, 0
20, 129888, Note_on_c, 10, 69, 30
20, 129888, Note_on_c, 10, 66, 30
20, 129934, Note_on_c, 10, 69, 0
20, 129934, Note_on_c, 10, 66, 0
20, 129936, Note_on_c, 10, 69, 32
20, 129936, Note_on_c, 10, 66, 25
20, 129982, Note_on_c, 10, 69, 0
20, 129982, Note_on_c, 10, 66, 0
20, 129984, Note_on_c, 10, 57, 26
20, 129984, Note_on_c, 10, 54, 31
20, 130030, Note_on_c, 10, 57, 0
20, 130030, Note_on_c, 10, 54, 0
20, 130032, Note_on_c, 10, 54, 35
20, 130032, Note_on_c, 10, 57, 27
20, 130078, Note_on_c, 10, 54, 0
20, 130078, Note_on_c, 10, 57, 0
20, 130080, Note_on_c, 10, 66, 25
20, 130080, Note_on_c, 10, 69, 31
20, 130126, Note_on_c, 10, 66, 0
20, 130126, Note_on_c, 10, 69, 0
20, 130128, Note_on_c, 10, 66, 34
20, 130128, Note_on_c, 10, 69, 32
20, 130174, Note_on_c, 10, 66, 0
20, 130174, Note_on_c, 10, 69, 0
20, 130176, Note_on_c, 10, 57, 33
20, 130176, Note_on_c, 10, 54, 27
20, 130222, Note_on_c, 10, 57, 0
20, 130222, Note_on_c, 10, 54, 0
20, 130224, Note_on_c, 10, 54, 31
20, 130224, Note_on_c, 10, 57, 27
20, 130270, Note_on_c, 10, 54, 0
20, 130270, Note_on_c, 10, 57, 0
20, 130272, Note_on_c, 10, 66, 26
20, 130272, Note_on_c, 10, 69, 27
20, 130318, Note_on_c, 10, 66, 0
20, 130318, Note_on_c, 10, 69, 0
20, 130320, Note_on_c, 10, 66, 31
20, 130320, Note_on_c, 10, 69, 34
20, 130366, Note_on_c, 10, 66, 0
20, 130366, Note_on_c, 10, 69, 0
20, 130368, Note_on_c, 10, 57, 27
20, 130368, Note_on_c, 10, 54, 35
20, 130414, Note_on_c, 10, 57, 0
20, 130414, Note_on_c, 10, 54, 0
20, 130416, Note_on_c, 10, 57, 29
20, 130416, Note_on_c, 10, 54, 35
20, 130462, Note_on_c, 10, 57, 0
20, 130462, Note_on_c, 10, 54, 0
20, 130464, Note_on_c, 10, 69, 32
20, 130464, Note_on_c, 10, 66, 29
20, 130510, Note_on_c, 10, 69, 0
20, 130510, Note_on_c, 10, 66, 0
20, 130512, Note_on_c, 10, 66, 35
20, 130512, Note_on_c, 10, 69, 28
20, 130558, Note_on_c, 10, 66, 0
20, 130558, Note_on_c, 10, 69, 0
20, 130560, Note_on_c, 10, 54, 34
20, 130560, Note_on_c, 10, 57, 32
20, 130606, Note_on_c, 10, 54, 0
20, 130606, Note_on_c, 10, 57, 0
20, 130608, Note_on_c, 10, 54, 31
20, 130608, Note_on_c, 10, 57, 27
20, 130654, Note_on_c, 10, 54, 0
20, 130654, Note_on_c, 10, 57, 0
20, 130656, Note_on_c, 10, 69, 26
20, 130656, Note_on_c, 10, 66, 28
20, 130702, Note_on_c, 10, 69, 0
20, 130702, Note_on_c, 10, 66, 0
20, 130704, Note_on_c, 10, 69, 32
20, 130704, Note_on_c, 10, 66, 29
20, 130750, Note_on_c, 10, 69, 0
20, 130750, Note_on_c, 10, 66, 0
20, 130752, Note_on_c, 10, 57, 34
20, 130752, Note_on_c, 10, 54, 31
20, 130798, Note_on_c, 10, 57, 0
20, 130798, Note_on_c, 10, 54, 0
20, 130800, Note_on_c, 10, 54, 31
20, 130800, Note_on_c, 10, 57, 35
20, 130846, Note_on_c, 10, 54, 0
20, 130846, Note_on_c, 10, 57, 0
20, 130848, Note_on_c, 10, 66, 32
20, 130848, Note_on_c, 10, 69, 27
20, 130894, Note_on_c, 10, 66, 0
20, 130894, Note_on_c, 10, 69, 0
20, 130896, Note_on_c, 10, 66, 27
20, 130896, Note_on_c, 10, 69, 29
20, 130942, Note_on_c, 10, 66, 0
20, 130942, Note_on_c, 10, 69, 0
20, 130944, Note_on_c, 10, 57, 29
20, 130944, Note_on_c, 10, 54, 33
20, 130990, Note_on_c, 10, 57, 0
20, 130990, Note_on_c, 10, 54, 0
20, 130992, Note_on_c, 10, 57, 26
20, 130992, Note_on_c, 10, 54, 28
20, 131038, Note_on_c, 10, 57, 0
20, 131038, Note_on_c, 10, 54, 0
20, 131040, Note_on_c, 10, 69, 26
20, 131040, Note_on_c, 10, 66, 32
20, 131086, Note_on_c, 10, 69, 0
20, 131086, Note_on_c, 10, 66, 0
20, 131088, Note_on_c, 10, 66, 32
20, 131088, Note_on_c, 10, 69, 35
20, 131134, Note_on_c, 10, 66, 0
20, 131134, Note_on_c, 10, 69, 0
20, 131136, Note_on_c, 10, 54, 34
20, 131136, Note_on_c, 10, 57, 26
20, 131182, Note_on_c, 10, 54, 0
20, 131182, Note_on_c, 10, 57, 0
20, 131184, Note_on_c, 10, 54, 30
20, 131184, Note_on_c, 10, 57, 27
20, 131230, Note_on_c, 10, 54, 0
20, 131230, Note_on_c, 10, 57, 0
20, 131232, Note_on_c, 10, 69, 27
20, 131232, Note_on_c, 10, 66, 25
20, 131278, Note_on_c, 10, 69, 0
20, 131278, Note_on_c, 10, 66, 0
20, 131280, Note_on_c, 10, 69, 32
20, 131280, Note_on_c, 10, 66, 25
20, 131326, Note_on_c, 10, 69, 0
20, 131326, Note_on_c, 10, 66, 0
20, 131328, Note_on_c, 10, 57, 26
20, 131328, Note_on_c, 10, 54, 33
20, 131374, Note_on_c, 10, 57, 0
20, 131374, Note_on_c, 10, 54, 0
20, 131376, Note_on_c, 10, 54, 26
20, 131376, Note_on_c, 10, 57, 34
20, 131422, Note_on_c, 10, 54, 0
20, 131422, Note_on_c, 10, 57, 0
20, 131424, Note_on_c, 10, 66, 28
20, 131424, Note_on_c, 10, 69, 29
20, 131470, Note_on_c, 10, 66, 0
20, 131470, Note_on_c, 10, 69, 0
20, 131472, Note_on_c, 10, 66, 35
20, 131472, Note_on_c, 10, 69, 32
20, 131518, Note_on_c, 10, 66, 0
20, 131518, Note_on_c, 10, 69, 0
20, 131520, Note_on_c, 10, 57, 31
20, 131520, Note_on_c, 10, 54, 31
20, 131566, Note_on_c, 10, 57, 0
20, 131566, Note_on_c, 10, 54, 0
20, 131568, Note_on_c, 10, 57, 35
20, 131568, Note_on_c, 10, 54, 35
20, 131614, Note_on_c, 10, 57, 0
20, 131614, Note_on_c, 10, 54, 0
20, 131616, Note_on_c, 10, 69, 30
20, 131616, Note_on_c, 10, 66, 29
20, 131662, Note_on_c, 10, 69, 0
20, 131662, Note_on_c, 10, 66, 0
20, 131664, Note_on_c, 10, 66, 26
20, 131664, Note_on_c, 10, 69, 29
20, 131710, Note_on_c, 10, 66, 0
20, 131710, Note_on_c, 10, 69, 0
20, 131712, Note_on_c, 10, 54, 27
20, 131712, Note_on_c, 10, 57, 34
20, 131758, Note_on_c, 10, 54, 0
20, 131758, Note_on_c, 10, 57, 0
20, 131760, Note_on_c, 10, 54, 32
20, 131760, Note_on_c, 10, 57, 26
20, 131806, Note_on_c, 10, 54, 0
20, 131806, Note_on_c, 10, 57, 0
20, 131808, Note_on_c, 10, 69, 25
20, 131808, Note_on_c, 10, 66, 34
20, 131854, Note_on_c, 10, 69, 0
20, 131854, Note_on_c, 10, 66, 0
20, 131856, Note_on_c, 10, 69, 33
20, 131856, Note_on_c, 10, 66, 27
20, 131902, Note_on_c, 10, 69, 0
20, 131902, Note_on_c, 10, 66, 0
20, 131904, Note_on_c, 10, 57, 30
20, 131904, Note_on_c, 10, 54, 27
20, 131950, Note_on_c, 10, 57, 0
20, 131950, Note_on_c, 10, 54, 0
20, 131952, Note_on_c, 10, 54, 29
20, 131952, Note_on_c, 10, 57, 30
20, 131998, Note_on_c, 10, 54, 0
20, 131998, Note_on_c, 10, 57, 0
20, 132000, Note_on_c, 10, 66, 27
20, 132000, Note_on_c, 10, 69, 30
20, 132046, Note_on_c, 10, 66, 0
20, 132046, Note_on_c, 10, 69, 0
20, 132048, Note_on_c, 10, 66, 34
20, 132048, Note_on_c, 10, 69, 27
20, 132094, Note_on_c, 10, 66, 0
20, 132094, Note_on_c, 10, 69, 0
20, 132096, Note_on_c, 10, 56, 26
20, 132142, Note_on_c, 10, 56, 0
20, 132144, Note_on_c, 10, 53, 25
20, 132190, Note_on_c, 10, 53, 0
20, 132192, Note_on_c, 10, 56, 27
20, 132238, Note_on_c, 10, 56, 0
20, 132240, Note_on_c, 10, 53, 33
20, 132286, Note_on_c, 10, 53, 0
20, 132288, Note_on_c, 10, 56, 32
20, 132288, Note_on_c, 10, 68, 27
20, 132334, Note_on_c, 10, 56, 0
20, 132334, Note_on_c, 10, 68, 0
20, 132336, Note_on_c, 10, 53, 31
20, 132336, Note_on_c, 10, 65, 35
20, 132382, Note_on_c, 10, 53, 0
20, 132382, Note_on_c, 10, 65, 0
20, 132384, Note_on_c, 10, 56, 28
20, 132384, Note_on_c, 10, 68, 27
20, 132430, Note_on_c, 10, 56, 0
20, 132430, Note_on_c, 10, 68, 0
20, 132432, Note_on_c, 10, 53, 26
20, 132432, Note_on_c, 10, 65, 25
20, 132478, Note_on_c, 10, 53, 0
20, 132478, Note_on_c, 10, 65, 0
20, 132480, Note_on_c, 10, 56, 25
20, 132480, Note_on_c, 10, 56, 32
20, 132526, Note_on_c, 10, 56, 0
20, 132528, Note_on_c, 10, 53, 35
20, 132574, Note_on_c, 10, 56, 0
20, 132574, Note_on_c, 10, 53, 0
20, 132576, Note_on_c, 10, 56, 27
20, 132622, Note_on_c, 10, 56, 0
20, 132624, Note_on_c, 10, 53, 25
20, 132670, Note_on_c, 10, 53, 0
20, 132672, Note_on_c, 10, 68, 29
20, 132672, Note_on_c, 10, 56, 35
20, 132718, Note_on_c, 10, 68, 0
20, 132718, Note_on_c, 10, 56, 0
20, 132720, Note_on_c, 10, 53, 35
20, 132720, Note_on_c, 10, 65, 30
20, 132766, Note_on_c, 10, 53, 0
20, 132766, Note_on_c, 10, 65, 0
20, 132768, Note_on_c, 10, 56, 31
20, 132768, Note_on_c, 10, 68, 31
20, 132814, Note_on_c, 10, 56, 0
20, 132814, Note_on_c, 10, 68, 0
20, 132816, Note_on_c, 10, 65, 25
20, 132816, Note_on_c, 10, 53, 30
20, 132862, Note_on_c, 10, 65, 0
20, 132862, Note_on_c, 10, 53, 0
20, 132864, Note_on_c, 10, 56, 34
20, 132864, Note_on_c, 10, 56, 28
20, 132910, Note_on_c, 10, 56, 0
20, 132912, Note_on_c, 10, 53, 27
20, 132958, Note_on_c, 10, 56, 0
20, 132958, Note_on_c, 10, 53, 0
20, 132960, Note_on_c, 10, 56, 26
20, 133006, Note_on_c, 10, 56, 0
20, 133008, Note_on_c, 10, 53, 35
20, 133054, Note_on_c, 10, 53, 0
20, 133056, Note_on_c, 10, 56, 35
20, 133056, Note_on_c, 10, 68, 26
20, 133102, Note_on_c, 10, 56, 0
20, 133102, Note_on_c, 10, 68, 0
20, 133104, Note_on_c, 10, 65, 32
20, 133104, Note_on_c, 10, 53, 26
20, 133150, Note_on_c, 10, 65, 0
20, 133150, Note_on_c, 10, 53, 0
20, 133152, Note_on_c, 10, 56, 33
20, 133152, Note_on_c, 10, 68, 26
20, 133198, Note_on_c, 10, 56, 0
20, 133198, Note_on_c, 10, 68, 0
20, 133200, Note_on_c, 10, 53, 26
20, 133200, Note_on_c, 10, 65, 25
20, 133246, Note_on_c, 10, 53, 0
20, 133246, Note_on_c, 10, 65, 0
20, 133248, Note_on_c, 10, 56, 29
20, 133248, Note_on_c, 10, 56, 34
20, 133294, Note_on_c, 10, 56, 0
20, 133296, Note_on_c, 10, 53, 26
20, 133342, Note_on_c, 10, 56, 0
20, 133342, Note_on_c, 10, 53, 0
20, 133344, Note_on_c, 10, 56, 28
20, 133390, Note_on_c, 10, 56, 0
20, 133392, Note_on_c, 10, 53, 35
20, 133438, Note_on_c, 10, 53, 0
20, 133440, Note_on_c, 10, 56, 33
20, 133440, Note_on_c, 10, 68, 30
20, 133486, Note_on_c, 10, 56, 0
20, 133486, Note_on_c, 10, 68, 0
20, 133488, Note_on_c, 10, 53, 32
20, 133488, Note_on_c, 10, 65, 25
20, 133534, Note_on_c, 10, 53, 0
20, 133534, Note_on_c, 10, 65, 0
20, 133536, Note_on_c, 10, 68, 26
20, 133536, Note_on_c, 10, 56, 25
20, 133582, Note_on_c, 10, 68, 0
20, 133582, Note_on_c, 10, 56, 0
20, 133584, Note_on_c, 10, 53, 33
20, 133584, Note_on_c, 10, 65, 35
20, 133630, Note_on_c, 10, 53, 0
20, 133630, Note_on_c, 10, 65, 0
20, 133632, Note_on_c, 10, 56, 30
20, 133632, Note_on_c, 10, 56, 31
20, 133678, Note_on_c, 10, 56, 0
20, 133680, Note_on_c, 10, 53, 34
20, 133726, Note_on_c, 10, 56, 0
20, 133726, Note_on_c, 10, 53, 0
20, 133728, Note_on_c, 10, 56, 35
20, 133774, Note_on_c, 10, 56, 0
20, 133776, Note_on_c, 10, 53, 32
20, 133822, Note_on_c, 10, 53, 0
20, 133824, Note_on_c, 10, 68, 34
20, 133824, Note_on_c, 10, 56, 27
20, 133870, Note_on_c, 10, 68, 0
20, 133870, Note_on_c, 10, 56, 0
20, 133872, Note_on_c, 10, 53, 28
20, 133872, Note_on_c, 10, 65, 33
20, 133918, Note_on_c, 10, 53, 0
20, 133918, Note_on_c, 10, 65, 0
20, 133920, Note_on_c, 10, 56, 28
20, 133920, Note_on_c, 10, 68, 31
20, 133966, Note_on_c, 10, 56, 0
20, 133966, Note_on_c, 10, 68, 0
20, 133968, Note_on_c, 10, 65, 27
20, 133968, Note_on_c, 10, 53, 28
20, 134014, Note_on_c, 10, 65, 0
20, 134014, Note_on_c, 10, 53, 0
20, 134016, Note_on_c, 10, 56, 33
20, 134016, Note_on_c, 10, 56, 31
20, 134062, Note_on_c, 10, 56, 0
20, 134064, Note_on_c, 10, 53, 32
20, 134110, Note_on_c, 10, 56, 0
20, 134110, Note_on_c, 10, 53, 0
20, 134112, Note_on_c, 10, 56, 28
20, 134158, Note_on_c, 10, 56, 0
20, 134160, Note_on_c, 10, 53, 30
20, 134206, Note_on_c, 10, 53, 0
20, 134208, Note_on_c, 10, 56, 30
20, 134208, Note_on_c, 10, 68, 27
20, 134254, Note_on_c, 10, 56, 0
20, 134254, Note_on_c, 10, 68, 0
20, 134256, Note_on_c, 10, 65, 35
20, 134256, Note_on_c, 10, 53, 29
20, 134302, Note_on_c, 10, 65, 0
20, 134302, Note_on_c, 10, 53, 0
20, 134304, Note_on_c, 10, 56, 29
20, 134304, Note_on_c, 10, 68, 32
20, 134350, Note_on_c, 10, 56, 0
20, 134350, Note_on_c, 10, 68, 0
20, 134352, Note_on_c, 10, 53, 29
20, 134352, Note_on_c, 10, 65, 35
20, 134398, Note_on_c, 10, 53, 0
20, 134398, Note_on_c, 10, 65, 0
20, 134400, Note_on_c, 10, 56, 32
20, 134400, Note_on_c, 10, 56, 29
20, 134446, Note_on_c, 10, 56, 0
20, 134448, Note_on_c, 10, 53, 30
20, 134494, Note_on_c, 10, 56, 0
20, 134494, Note_on_c, 10, 53, 0
20, 134496, Note_on_c, 10, 56, 25
20, 134542, Note_on_c, 10, 56, 0
20, 134544, Note_on_c, 10, 53, 26
20, 134590, Note_on_c, 10, 53, 0
20, 134592, Note_on_c, 10, 56, 28
20, 134592, Note_on_c, 10, 68, 31
20, 134638, Note_on_c, 10, 56, 0
20, 134638, Note_on_c, 10, 68, 0
20, 134640, Note_on_c, 10, 53, 28
20, 134640, Note_on_c, 10, 65, 26
20, 134686, Note_on_c, 10, 53, 0
20, 134686, Note_on_c, 10, 65, 0
20, 134688, Note_on_c, 10, 68, 29
20, 134688, Note_on_c, 10, 56, 35
20, 134734, Note_on_c, 10, 68, 0
20, 134734, Note_on_c, 10, 56, 0
20, 134736, Note_on_c, 10, 53, 28
20, 134736, Note_on_c, 10, 65, 34
20, 134782, Note_on_c, 10, 53, 0
20, 134782, Note_on_c, 10, 65, 0
20, 134784, Note_on_c, 10, 56, 28
20, 134784, Note_on_c, 10, 56, 31
20, 134830, Note_on_c, 10, 56, 0
20, 134832, Note_on_c, 10, 53, 33
20, 134878, Note_on_c, 10, 56, 0
20, 134878, Note_on_c, 10, 53, 0
20, 134880, Note_on_c, 10, 56, 29
20, 134926, Note_on_c, 10, 56, 0
20, 134928, Note_on_c, 10, 53, 34
20, 134974, Note_on_c, 10, 53, 0
20, 134976, Note_on_c, 10, 68, 27
20, 134976, Note_on_c, 10, 56, 26
20, 135022, Note_on_c, 10, 68, 0
20, 135022, Note_on_c, 10, 56, 0
20, 135024, Note_on_c, 10, 53, 27
20, 135024, Note_on_c, 10, 65, 27
20, 135070, Note_on_c, 10, 53, 0
20, 135070, Note_on_c, 10, 65, 0
20, 135072, Note_on_c, 10, 56, 27
20, 135072, Note_on_c, 10, 68, 29
20, 135118, Note_on_c, 10, 56, 0
20, 135118, Note_on_c, 10, 68, 0
20, 135120, Note_on_c, 10, 65, 28
20, 135120, Note_on_c, 10, 53, 27
20, 135166, Note_on_c, 10, 65, 0
20, 135166, Note_on_c, 10, 53, 0
20, 135168, Note_on_c, 10, 59, 28
20, 135168, Note_on_c, 10, 56, 26
20, 135214, Note_on_c, 10, 59, 0
20, 135216, Note_on_c, 10, 53, 32
20, 135262, Note_on_c, 10, 56, 0
20, 135262, Note_on_c, 10, 53, 0
20, 135264, Note_on_c, 10, 59, 28
20, 135310, Note_on_c, 10, 59, 0
20, 135312, Note_on_c, 10, 53, 28
20, 135358, Note_on_c, 10, 53, 0
20, 135360, Note_on_c, 10, 59, 32
20, 135360, Note_on_c, 10, 68, 32
20, 135406, Note_on_c, 10, 59, 0
20, 135406, Note_on_c, 10, 68, 0
20, 135408, Note_on_c, 10, 65, 26
20, 135408, Note_on_c, 10, 53, 26
20, 135454, Note_on_c, 10, 65, 0
20, 135454, Note_on_c, 10, 53, 0
20, 135456, Note_on_c, 10, 59, 25
20, 135456, Note_on_c, 10, 68, 30
20, 135502, Note_on_c, 10, 59, 0
20, 135502, Note_on_c, 10, 68, 0
20, 135504, Note_on_c, 10, 53, 25
20, 135504, Note_on_c, 10, 65, 27
20, 135550, Note_on_c, 10, 53, 0
20, 135550, Note_on_c, 10, 65, 0
20, 135552, Note_on_c, 10, 56, 25
20, 135552, Note_on_c, 10, 59, 32
20, 135598, Note_on_c, 10, 59, 0
20, 135600, Note_on_c, 10, 53, 33
20, 135646, Note_on_c, 10, 56, 0
20, 135646, Note_on_c, 10, 53, 0
20, 135648, Note_on_c, 10, 59, 26
20, 135694, Note_on_c, 10, 59, 0
20, 135696, Note_on_c, 10, 53, 30
20, 135742, Note_on_c, 10, 53, 0
20, 135744, Note_on_c, 10, 59, 28
20, 135744, Note_on_c, 10, 68, 26
20, 135790, Note_on_c, 10, 59, 0
20, 135790, Note_on_c, 10, 68, 0
20, 135792, Note_on_c, 10, 53, 33
20, 135792, Note_on_c, 10, 65, 26
20, 135838, Note_on_c, 10, 53, 0
20, 135838, Note_on_c, 10, 65, 0
20, 135840, Note_on_c, 10, 68, 29
20, 135840, Note_on_c, 10, 59, 32
20, 135886, Note_on_c, 10, 68, 0
20, 135886, Note_on_c, 10, 59, 0
20, 135888, Note_on_c, 10, 53, 31
20, 135888, Note_on_c, 10, 65, 35
20, 135934, Note_on_c, 10, 53, 0
20, 135934, Note_on_c, 10, 65, 0
20, 135936, Note_on_c, 10, 59, 27
20, 135936, Note_on_c, 10, 56, 31
20, 135982, Note_on_c, 10, 59, 0
20, 135984, Note_on_c, 10, 53, 29
20, 136030, Note_on_c, 10, 56, 0
20, 136030, Note_on_c, 10, 53, 0
20, 136032, Note_on_c, 10, 59, 29
20, 136078, Note_on_c, 10, 59, 0
20, 136080, Note_on_c, 10, 53, 33
20, 136126, Note_on_c, 10, 53, 0
20, 136128, Note_on_c, 10, 68, 35
20, 136128, Note_on_c, 10, 59, 33
20, 136174, Note_on_c, 10, 68, 0
20, 136174, Note_on_c, 10, 59, 0
20, 136176, Note_on_c, 10, 53, 26
20, 136176, Note_on_c, 10, 65, 30
20, 136222, Note_on_c, 10, 53, 0
20, 136222, Note_on_c, 10, 65, 0
20, 136224, Note_on_c, 10, 59, 28
20, 136224, Note_on_c, 10, 68, 26
20, 136270, Note_on_c, 10, 59, 0
20, 136270, Note_on_c, 10, 68, 0
20, 136272, Note_on_c, 10, 65, 34
20, 136272, Note_on_c, 10, 53, 35
20, 136318, Note_on_c, 10, 65, 0
20, 136318, Note_on_c, 10, 53, 0
20, 136320, Note_on_c, 10, 59, 25
20, 136320, Note_on_c, 10, 56, 32
20, 136366, Note_on_c, 10, 59, 0
20, 136368, Note_on_c, 10, 53, 30
20, 136414, Note_on_c, 10, 56, 0
20, 136414, Note_on_c, 10, 53, 0
20, 136416, Note_on_c, 10, 59, 30
20, 136462, Note_on_c, 10, 59, 0
20, 136464, Note_on_c, 10, 53, 30
20, 136510, Note_on_c, 10, 53, 0
20, 136512, Note_on_c, 10, 59, 26
20, 136512, Note_on_c, 10, 68, 25
20, 136558, Note_on_c, 10, 59, 0
20, 136558, Note_on_c, 10, 68, 0
20, 136560, Note_on_c, 10, 65, 27
20, 136560, Note_on_c, 10, 53, 34
20, 136606, Note_on_c, 10, 65, 0
20, 136606, Note_on_c, 10, 53, 0
20, 136608, Note_on_c, 10, 59, 32
20, 136608, Note_on_c, 10, 68, 30
20, 136654, Note_on_c, 10, 59, 0
20, 136654, Note_on_c, 10, 68, 0
20, 136656, Note_on_c, 10, 53, 26
20, 136656, Note_on_c, 10, 65, 29
20, 136702, Note_on_c, 10, 53, 0
20, 136702, Note_on_c, 10, 65, 0
20, 136704, Note_on_c, 10, 59, 29
20, 136750, Note_on_c, 10, 59, 0
20, 136752, Note_on_c, 10, 53, 28
20, 136798, Note_on_c, 10, 53, 0
20, 136800, Note_on_c, 10, 59, 29
20, 136846, Note_on_c, 10, 59, 0
20, 136848, Note_on_c, 10, 53, 33
20, 136894, Note_on_c, 10, 53, 0
20, 136896, Note_on_c, 10, 59, 27
20, 136942, Note_on_c, 10, 59, 0
20, 136944, Note_on_c, 10, 53, 30
20, 136990, Note_on_c, 10, 53, 0
20, 136992, Note_on_c, 10, 59, 28
20, 137038, Note_on_c, 10, 59, 0
20, 137040, Note_on_c, 10, 53, 34
20, 137086, Note_on_c, 10, 53, 0
20, 137088, Note_on_c, 10, 59, 31
20, 137134, Note_on_c, 10, 59, 0
20, 137136, Note_on_c, 10, 53, 33
20, 137182, Note_on_c, 10, 53, 0
20, 137184, Note_on_c, 10, 59, 34
20, 137230, Note_on_c, 10, 59, 0
20, 137232, Note_on_c, 10, 53, 27
20, 137278, Note_on_c, 10, 53, 0
20, 137280, Note_on_c, 10, 59, 28
20, 137326, Note_on_c, 10, 59, 0
20, 137328, Note_on_c, 10, 53, 26
20, 137374, Note_on_c, 10, 53, 0
20, 137376, Note_on_c, 10, 59, 33
20, 137422, Note_on_c, 10, 59, 0
20, 137424, Note_on_c, 10, 53, 28
20, 137470, Note_on_c, 10, 53, 0
20, 137472, Note_on_c, 10, 59, 34
20, 137518, Note_on_c, 10, 59, 0
20, 137520, Note_on_c, 10, 53, 26
20, 137566, Note_on_c, 10, 53, 0
20, 137568, Note_on_c, 10, 59, 27
20, 137614, Note_on_c, 10, 59, 0
20, 137616, Note_on_c, 10, 53, 25
20, 137662, Note_on_c, 10, 53, 0
20, 137664, Note_on_c, 10, 59, 30
20, 137710, Note_on_c, 10, 59, 0
20, 137712, Note_on_c, 10, 53, 33
20, 137758, Note_on_c, 10, 53, 0
20, 137760, Note_on_c, 10, 59, 35
20, 137806, Note_on_c, 10, 59, 0
20, 137808, Note_on_c, 10, 53, 26
20, 137854, Note_on_c, 10, 53, 0
20, 137856, Note_on_c, 10, 59, 31
20, 137902, Note_on_c, 10, 59, 0
20, 137904, Note_on_c, 10, 53, 29
20, 137950, Note_on_c, 10, 53, 0
20, 137952, Note_on_c, 10, 59, 33
20, 137998, Note_on_c, 10, 59, 0
20, 138000, Note_on_c, 10, 53, 34
20, 138046, Note_on_c, 10, 53, 0
20, 138048, Note_on_c, 10, 59, 35
20, 138094, Note_on_c, 10, 59, 0
20, 138096, Note_on_c, 10, 53, 32
20, 138142, Note_on_c, 10, 53, 0
20, 138144, Note_on_c, 10, 59, 34
20, 138190, Note_on_c, 10, 59, 0
20, 138192, Note_on_c, 10, 53, 33
20, 138238, Note_on_c, 10, 53, 0
20, 138240, Note_on_c, 10, 37, 45
20, 138256, Note_on_c, 10, 45, 50
20, 138272, Note_on_c, 10, 52, 47
20, 138288, Note_on_c, 10, 64, 45
20, 138304, Note_on_c, 10, 67, 49
20, 138320, Note_on_c, 10, 69, 41
20, 138592, Note_on_c, 10, 37, 0
20, 138592, Note_on_c, 10, 45, 0
20, 138592, Note_on_c, 10, 52, 0
20, 138592, Note_on_c, 10, 64, 0
20, 138592, Note_on_c, 10, 67, 0
20, 138592, Note_on_c, 10, 69, 0
20, 138624, Note_on_c, 10, 52, 53
20, 138640, Note_on_c, 10, 55, 58
20, 138656, Note_on_c, 10, 59, 52
20, 138672, Note_on_c, 10, 64, 48
20, 138688, Note_on_c, 10, 67, 50
20, 138704, Note_on_c, 10, 71, 56
20, 138720, Note_on_c, 10, 76, 55
20, 138976, Note_on_c, 10, 52, 0
20, 138976, Note_on_c, 10, 55, 0
20, 138976, Note_on_c, 10, 59, 0
20, 138976, Note_on_c, 10, 64, 0
20, 138976, Note_on_c, 10, 67, 0
20, 138976, Note_on_c, 10, 71, 0
20, 138976, Note_on_c, 10, 76, 0
20, 139008, Note_on_c, 10, 57, 63
20, 139024, Note_on_c, 10, 64, 67
20, 139040, Note_on_c, 10, 67, 67
20, 139056, Note_on_c, 10, 69, 63
20, 139072, Note_on_c, 10, 76, 60
20, 139088, Note_on_c, 10, 79, 58
20, 139104, Note_on_c, 10, 81, 57
20, 139360, Note_on_c, 10, 57, 0
20, 139360, Note_on_c, 10, 64, 0
20, 139360, Note_on_c, 10, 67, 0
20, 139360, Note_on_c, 10, 69, 0
20, 139360, Note_on_c, 10, 76, 0
20, 139360, Note_on_c, 10, 79, 0
20, 139360, Note_on_c, 10, 81, 0
20, 139392, Note_on_c, 10, 64, 71
20, 139408, Note_on_c, 10, 67, 78
20, 139424, Note_on_c, 10, 71, 69
20, 139440, Note_on_c, 10, 76, 78
20, 139456, Note_on_c, 10, 79, 70
20, 139472, Note_on_c, 10, 83, 69
20, 139488, Note_on_c, 10, 88, 80
20, 139744, Note_on_c, 10, 64, 0
20, 139744, Note_on_c, 10, 67, 0
20, 139744, Note_on_c, 10, 71, 0
20, 139744, Note_on_c, 10, 76, 0
20, 139744, Note_on_c, 10, 79, 0
20, 139744, Note_on_c, 10, 83, 0
20, 139744, Note_on_c, 10, 88, 0
20, 139776, Note_on_c, 10, 37, 43
20, 139792, Note_on_c, 10, 45, 50
20, 139808, Note_on_c, 10, 52, 40
20, 139824, Note_on_c, 10, 57, 50
20, 139840, Note_on_c, 10, 64, 46
20, 139856, Note_on_c, 10, 67, 45
20, 139872, Note_on_c, 10, 69, 49
20, 140128, Note_on_c, 10, 37, 0
20, 140128, Note_on_c, 10, 45, 0
20, 140128, Note_on_c, 10, 52, 0
20, 140128, Note_on_c, 10, 57, 0
20, 140128, Note_on_c, 10, 64, 0
20, 140128, Note_on_c, 10, 67, 0
20, 140128, Note_on_c, 10, 69, 0
20, 140160, Note_on_c, 10, 52, 49
20, 140176, Note_on_c, 10, 55, 58
20, 140192, Note_on_c, 10, 59, 56
20, 140208, Note_on_c, 10, 64, 50
20, 140224, Note_on_c, 10, 67, 49
20, 140240, Note_on_c, 10, 71, 58
20, 140256, Note_on_c, 10, 76, 58
20, 140512, Note_on_c, 10, 52, 0
20, 140512, Note_on_c, 10, 55, 0
20, 140512, Note_on_c, 10, 59, 0
20, 140512, Note_on_c, 10, 64, 0
20, 140512, Note_on_c, 10, 67, 0
20, 140512, Note_on_c, 10, 71, 0
20, 140512, Note_on_c, 10, 76, 0
20, 140544, Note_on_c, 10, 57, 65
20, 140560, Note_on_c, 10, 64, 59
20, 140576, Note_on_c, 10, 67, 64
20, 140592, Note_on_c, 10, 69, 58
20, 140608, Note_on_c, 10, 76, 65
20, 140624, Note_on_c, 10, 79, 58
20, 140640, Note_on_c, 10, 81, 66
20, 140896, Note_on_c, 10, 57, 0
20, 140896, Note_on_c, 10, 64, 0
20, 140896, Note_on_c, 10, 67, 0
20, 140896, Note_on_c, 10, 69, 0
20, 140896, Note_on_c, 10, 76, 0
20, 140896, Note_on_c, 10, 79, 0
20, 140896, Note_on_c, 10, 81, 0
20, 140928, Note_on_c, 10, 64, 78
20, 140944, Note_on_c, 10, 67, 76
20, 140960, Note_on_c, 10, 71, 78
20, 140976, Note_on_c, 10, 76, 69
20, 140992, Note_on_c, 10, 79, 71
20, 141008, Note_on_c, 10, 83, 79
20, 141024, Note_on_c, 10, 88, 78
20, 141280, Note_on_c, 10, 64, 0
20, 141280, Note_on_c, 10, 67, 0
20, 141280, Note_on_c, 10, 71, 0
20, 141280, Note_on_c, 10, 76, 0
20, 141280, Note_on_c, 10, 79, 0
20, 141280, Note_on_c, 10, 83, 0
20, 141280, Note_on_c, 10, 88, 0
20, 141312, Note_on_c, 10, 36, 26
20, 141328, Note_on_c, 10, 43, 35
20, 141344, Note_on_c, 10, 52, 35
20, 141360, Note_on_c, 10, 57, 32
20, 141376, Note_on_c, 10, 64, 35
20, 141392, Note_on_c, 10, 67, 34
20, 141408, Note_on_c, 10, 69, 34
20, 141696, Note_on_c, 10, 52, 32
20, 141712, Note_on_c, 10, 55, 25
20, 141728, Note_on_c, 10, 59, 33
20, 141744, Note_on_c, 10, 64, 30
20, 141760, Note_on_c, 10, 67, 34
20, 141776, Note_on_c, 10, 71, 35
20, 141792, Note_on_c, 10, 76, 32
20, 142032, Note_on_c, 10, 36, 0
20, 142032, Note_on_c, 10, 43, 0
20, 142032, Note_on_c, 10, 52, 0
20, 142032, Note_on_c, 10, 57, 0
20, 142032, Note_on_c, 10, 64, 0
20, 142032, Note_on_c, 10, 67, 0
20, 142032, Note_on_c, 10, 69, 0
20, 142048, Note_on_c, 10, 52, 0
20, 142048, Note_on_c, 10, 55, 0
20, 142048, Note_on_c, 10, 59, 0
20, 142048, Note_on_c, 10, 64, 0
20, 142048, Note_on_c, 10, 67, 0
20, 142048, Note_on_c, 10, 71, 0
20, 142048, Note_on_c, 10, 76, 0
20, 142080, Note_on_c, 10, 57, 28
20, 142096, Note_on_c, 10, 64, 31
20, 142112, Note_on_c, 10, 67, 34
20, 142128, Note_on_c, 10, 69, 27
20, 142144, Note_on_c, 10, 76, 28
20, 142160, Note_on_c, 10, 79, 28
20, 142176, Note_on_c, 10, 81, 28
20, 142432, Note_on_c, 10, 57, 0
20, 142432, Note_on_c, 10, 64, 0
20, 142432, Note_on_c, 10, 67, 0
20, 142432, Note_on_c, 10, 69, 0
20, 142432, Note_on_c, 10, 76, 0
20, 142432, Note_on_c, 10, 79, 0
20, 142432, Note_on_c, 10, 81, 0
20, 142464, Note_on_c, 10, 64, 25
20, 142480, Note_on_c, 10, 67, 28
20, 142496, Note_on_c, 10, 71, 27
20, 142512, Note_on_c, 10, 76, 33
20, 142528, Note_on_c, 10, 79, 32
20, 142544, Note_on_c, 10, 83, 28
20, 142560, Note_on_c, 10, 88, 30
20, 142816, Note_on_c, 10, 64, 0
20, 142816, Note_on_c, 10, 67, 0
20, 142816, Note_on_c, 10, 71, 0
20, 142816, Note_on_c, 10, 76, 0
20, 142816, Note_on_c, 10, 79, 0
20, 142816, Note_on_c, 10, 83, 0
20, 142816, Note_on_c, 10, 88, 0
20, 142848, Note_on_c, 10, 36, 34
20, 142864, Note_on_c, 10, 43, 26
20, 142880, Note_on_c, 10, 52, 35
20, 142896, Note_on_c, 10, 57, 29
20, 142912, Note_on_c, 10, 64, 29
20, 142928, Note_on_c, 10, 67, 27
20, 142944, Note_on_c, 10, 69, 26
20, 143232, Note_on_c, 10, 52, 30
20, 143248, Note_on_c, 10, 55, 29
20, 143264, Note_on_c, 10, 59, 29
20, 143280, Note_on_c, 10, 64, 29
20, 143296, Note_on_c, 10, 67, 29
20, 143312, Note_on_c, 10, 71, 30
20, 143328, Note_on_c, 10, 76, 25
20, 143568, Note_on_c, 10, 36, 0
20, 143568, Note_on_c, 10, 43, 0
20, 143568, Note_on_c, 10, 52, 0
20, 143568, Note_on_c, 10, 57, 0
20, 143568, Note_on_c, 10, 64, 0
20, 143568, Note_on_c, 10, 67, 0
20, 143568, Note_on_c, 10, 69, 0
20, 143584, Note_on_c, 10, 52, 0
20, 143584, Note_on_c, 10, 55, 0
20, 143584, Note_on_c, 10, 59, 0
20, 143584, Note_on_c, 10, 64, 0
20, 143584, Note_on_c, 10, 67, 0
20, 143584, Note_on_c, 10, 71, 0
20, 143584, Note_on_c, 10, 76, 0
20, 143616, Note_on_c, 10, 57, 27
20, 143632, Note_on_c, 10, 64, 33
20, 143648, Note_on_c, 10, 67, 33
20, 143664, Note_on_c, 10, 69, 26
20, 143680, Note_on_c, 10, 76, 28
20, 143696, Note_on_c, 10, 79, 28
20, 143712, Note_on_c, 10, 81, 35
20, 143968, Note_on_c, 10, 57, 0
20, 143968, Note_on_c, 10, 64, 0
20, 143968, Note_on_c, 10, 67, 0
20, 143968, Note_on_c, 10, 69, 0
20, 143968, Note_on_c, 10, 76, 0
20, 143968, Note_on_c, 10, 79, 0
20, 143968, Note_on_c, 10, 81, 0
20, 144000, Note_on_c, 10, 64, 26
20, 144016, Note_on_c, 10, 67, 25
20, 144032, Note_on_c, 10, 71, 33
20, 144048, Note_on_c, 10, 76, 28
20, 144064, Note_on_c, 10, 79, 28
20, 144080, Note_on_c, 10, 83, 33
20, 144096, Note_on_c, 10, 88, 29
20, 144352, Note_on_c, 10, 64, 0
20, 144352, Note_on_c, 10, 67, 0
20, 144352, Note_on_c, 10, 71, 0
20, 144352, Note_on_c, 10, 76, 0
20, 144352, Note_on_c, 10, 79, 0
20, 144352, Note_on_c, 10, 83, 0
20, 144352, Note_on_c, 10, 88, 0
20, 144384, Note_on_c, 10, 36, 45
20, 144446, Note_on_c, 10, 36, 0
20, 144448, Note_on_c, 10, 43, 42
20, 144510, Note_on_c, 10, 43, 0
20, 144512, Note_on_c, 10, 52, 49
20, 144574, Note_on_c, 10, 52, 0
20, 144576, Note_on_c, 10, 58, 46
20, 144622, Note_on_c, 10, 58, 0
20, 144624, Note_on_c, 10, 60, 45
20, 144670, Note_on_c, 10, 60, 0
20, 144672, Note_on_c, 10, 62, 45
20, 144718, Note_on_c, 10, 62, 0
20, 144720, Note_on_c, 10, 64, 44
20, 144766, Note_on_c, 10, 64, 0
20, 144768, Note_on_c, 10, 42, 49
20, 144830, Note_on_c, 10, 42, 0
20, 144832, Note_on_c, 10, 48, 41
20, 144894, Note_on_c, 10, 48, 0
20, 144896, Note_on_c, 10, 58, 42
20, 144958, Note_on_c, 10, 58, 0
20, 144960, Note_on_c, 10, 64, 42
20, 145054, Note_on_c, 10, 64, 0
20, 145056, Note_on_c, 10, 70, 42
20, 145150, Note_on_c, 10, 70, 0
20, 145152, Note_on_c, 10, 36, 49
20, 145214, Note_on_c, 10, 36, 0
20, 145216, Note_on_c, 10, 43, 43
20, 145278, Note_on_c, 10, 43, 0
20, 145280, Note_on_c, 10, 52, 51
20, 145342, Note_on_c, 10, 52, 0
20, 145344, Note_on_c, 10, 58, 50
20, 145390, Note_on_c, 10, 58, 0
20, 145392, Note_on_c, 10, 60, 53
20, 145438, Note_on_c, 10, 60, 0
20, 145440, Note_on_c, 10, 62, 43
20, 145486, Note_on_c, 10, 62, 0
20, 145488, Note_on_c, 10, 64, 51
20, 145534, Note_on_c, 10, 64, 0
20, 145536, Note_on_c, 10, 42, 46
20, 145598, Note_on_c, 10, 42, 0
20, 145600, Note_on_c, 10, 48, 50
20, 145662, Note_on_c, 10, 48, 0
20, 145664, Note_on_c, 10, 58, 46
20, 145726, Note_on_c, 10, 58, 0
20, 145728, Note_on_c, 10, 64, 46
20, 145822, Note_on_c, 10, 64, 0
20, 145824, Note_on_c, 10, 70, 50
20, 145918, Note_on_c, 10, 70, 0
20, 145920, Note_on_c, 10, 48, 51
20, 145982, Note_on_c, 10, 48, 0
20, 145984, Note_on_c, 10, 55, 50
20, 146046, Note_on_c, 10, 55, 0
20, 146048, Note_on_c, 10, 64, 55
20, 146110, Note_on_c, 10, 64, 0
20, 146112, Note_on_c, 10, 70, 52
20, 146158, Note_on_c, 10, 70, 0
20, 146160, Note_on_c, 10, 72, 52
20, 146206, Note_on_c, 10, 72, 0
20, 146208, Note_on_c, 10, 74, 49
20, 146254, Note_on_c, 10, 74, 0
20, 146256, Note_on_c, 10, 76, 49
20, 146302, Note_on_c, 10, 76, 0
20, 146304, Note_on_c, 10, 54, 47
20, 146366, Note_on_c, 10, 54, 0
20, 146368, Note_on_c, 10, 60, 46
20, 146430, Note_on_c, 10, 60, 0
20, 146432, Note_on_c, 10, 70, 46
20, 146494, Note_on_c, 10, 70, 0
20, 146496, Note_on_c, 10, 76, 53
20, 146590, Note_on_c, 10, 76, 0
20, 146592, Note_on_c, 10, 82, 54
20, 146686, Note_on_c, 10, 82, 0
20, 146688, Note_on_c, 10, 48, 58
20, 146750, Note_on_c, 10, 48, 0
20, 146752, Note_on_c, 10, 55, 57
20, 146814, Note_on_c, 10, 55, 0
20, 146816, Note_on_c, 10, 64, 52
20, 146878, Note_on_c, 10, 64, 0
20, 146880, Note_on_c, 10, 70, 59
20, 146926, Note_on_c, 10, 70, 0
20, 146928, Note_on_c, 10, 72, 58
20, 146974, Note_on_c, 10, 72, 0
20, 146976, Note_on_c, 10, 74, 52
20, 147022, Note_on_c, 10, 74, 0
20, 147024, Note_on_c, 10, 76, 53
20, 147070, Note_on_c, 10, 76, 0
20, 147072, Note_on_c, 10, 54, 50
20, 147134, Note_on_c, 10, 54, 0
20, 147136, Note_on_c, 10, 60, 54
20, 147198, Note_on_c, 10, 60, 0
20, 147200, Note_on_c, 10, 70, 52
20, 147262, Note_on_c, 10, 70, 0
20, 147264, Note_on_c, 10, 76, 57
20, 147358, Note_on_c, 10, 76, 0
20, 147360, Note_on_c, 10, 82, 57
20, 147454, Note_on_c, 10, 82, 0
20, 150528, Note_on_c, 10, 65, 97
20, 150654, Note_on_c, 10, 65, 0
20, 150656, Note_on_c, 10, 61, 96
20, 150782, Note_on_c, 10, 61, 0
20, 150784, Note_on_c, 10, 53, 88
20, 150910, Note_on_c, 10, 53, 0
20, 150912, Note_on_c, 10, 44, 94
20, 150912, Note_on_c, 10, 77, 93
20, 151038, Note_on_c, 10, 77, 0
20, 151040, Note_on_c, 10, 73, 89
20, 151072, Note_on_c, 10, 44, 0
20, 151104, Note_on_c, 10, 37, 88
20, 151166, Note_on_c, 10, 73, 0
20, 151168, Note_on_c, 10, 65, 91
20, 151264, Note_on_c, 10, 37, 0
20, 151294, Note_on_c, 10, 65, 0
20, 151296, Note_on_c, 10, 65, 89
20, 151422, Note_on_c, 10, 65, 0
20, 151424, Note_on_c, 10, 61, 89
20, 151550, Note_on_c, 10, 61, 0
20, 151552, Note_on_c, 10, 53, 96
20, 151678, Note_on_c, 10, 53, 0
20, 151680, Note_on_c, 10, 44, 97
20, 151680, Note_on_c, 10, 77, 91
20, 151806, Note_on_c, 10, 77, 0
20, 151808, Note_on_c, 10, 73, 95
20, 151840, Note_on_c, 10, 44, 0
20, 151872, Note_on_c, 10, 37, 93
20, 151934, Note_on_c, 10, 73, 0
20, 151936, Note_on_c, 10, 65, 95
20, 152032, Note_on_c, 10, 37, 0
20, 152062, Note_on_c, 10, 65, 0
20, 152064, Note_on_c, 10, 65, 93
20, 152190, Note_on_c, 10, 65, 0
20, 152192, Note_on_c, 10, 61, 88
20, 152318, Note_on_c, 10, 61, 0
20, 152320, Note_on_c, 10, 53, 91
20, 152446, Note_on_c, 10, 53, 0
20, 152448, Note_on_c, 10, 44, 94
20, 152448, Note_on_c, 10, 77, 88
20, 152574, Note_on_c, 10, 77, 0
20, 152576, Note_on_c, 10, 73, 90
20, 152608, Note_on_c, 10, 44, 0
20, 152640, Note_on_c, 10, 37, 95
20, 152702, Note_on_c, 10, 73, 0
20, 152704, Note_on_c, 10, 65, 97
20, 152800, Note_on_c, 10, 37, 0
20, 152830, Note_on_c, 10, 65, 0
20, 152832, Note_on_c, 10, 65, 92
20, 152958, Note_on_c, 10, 65, 0
20, 152960, Note_on_c, 10, 61, 90
20, 153086, Note_on_c, 10, 61, 0
20, 153088, Note_on_c, 10, 53, 88
20, 153214, Note_on_c, 10, 53, 0
20, 153216, Note_on_c, 10, 44, 92
20, 153216, Note_on_c, 10, 77, 87
20, 153342, Note_on_c, 10, 77, 0
20, 153344, Note_on_c, 10, 73, 92
20, 153376, Note_on_c, 10, 44, 0
20, 153408, Note_on_c, 10, 37, 91
20, 153470, Note_on_c, 10, 73, 0
20, 153472, Note_on_c, 10, 65, 92
20, 153568, Note_on_c, 10, 37, 0
20, 153598, Note_on_c, 10, 65, 0
20, 153598, End_track
21, 0, Start_track
21, 0, Title_t, "Violini I - a"
21, 0, MIDI_port, 0
21, 23808, Program_c, 11, 44
21, 23808, Control_c, 11, 11, 64
21, 23808, Note_on_c, 11, 75, 88
21, 23808, Note_on_c, 11, 81, 93
21, 23811, Control_c, 11, 11, 65
21, 23814, Control_c, 11, 11, 66
21, 23817, Control_c, 11, 11, 67
21, 23820, Control_c, 11, 11, 68
21, 23823, Control_c, 11, 11, 69
21, 23826, Control_c, 11, 11, 70
21, 23829, Control_c, 11, 11, 71
21, 23832, Control_c, 11, 11, 72
21, 23835, Control_c, 11, 11, 73
21, 23838, Control_c, 11, 11, 74
21, 23841, Control_c, 11, 11, 75
21, 23844, Control_c, 11, 11, 76
21, 23847, Control_c, 11, 11, 77
21, 23850, Control_c, 11, 11, 78
21, 23853, Control_c, 11, 11, 79
21, 23856, Control_c, 11, 11, 80
21, 23859, Control_c, 11, 11, 81
21, 23862, Control_c, 11, 11, 82
21, 23865, Control_c, 11, 11, 83
21, 23868, Control_c, 11, 11, 84
21, 23872, Control_c, 11, 11, 85
21, 23875, Control_c, 11, 11, 86
21, 23878, Control_c, 11, 11, 87
21, 23881, Control_c, 11, 11, 88
21, 23884, Control_c, 11, 11, 89
21, 23887, Control_c, 11, 11, 90
21, 23890, Control_c, 11, 11, 91
21, 23893, Control_c, 11, 11, 92
21, 23896, Control_c, 11, 11, 93
21, 23899, Control_c, 11, 11, 94
21, 23902, Control_c, 11, 11, 95
21, 23905, Control_c, 11, 11, 96
21, 23908, Control_c, 11, 11, 97
21, 23911, Control_c, 11, 11, 98
21, 23914, Control_c, 11, 11, 99
21, 23917, Control_c, 11, 11, 100
21, 23920, Control_c, 11, 11, 101
21, 23923, Control_c, 11, 11, 102
21, 23926, Control_c, 11, 11, 103
21, 23929, Control_c, 11, 11, 104
21, 23932, Control_c, 11, 11, 105
21, 23936, Control_c, 11, 11, 106
21, 23939, Control_c, 11, 11, 107
21, 23942, Control_c, 11, 11, 108
21, 23945, Control_c, 11, 11, 109
21, 23948, Control_c, 11, 11, 110
21, 23951, Control_c, 11, 11, 111
21, 23954, Control_c, 11, 11, 112
21, 23957, Control_c, 11, 11, 113
21, 23960, Control_c, 11, 11, 114
21, 23963, Control_c, 11, 11, 115
21, 23966, Control_c, 11, 11, 116
21, 23969, Control_c, 11, 11, 117
21, 23972, Control_c, 11, 11, 118
21, 23975, Control_c, 11, 11, 119
21, 23978, Control_c, 11, 11, 120
21, 23981, Control_c, 11, 11, 121
21, 23984, Control_c, 11, 11, 122
21, 23987, Control_c, 11, 11, 123
21, 23990, Control_c, 11, 11, 124
21, 23993, Control_c, 11, 11, 125
21, 23996, Control_c, 11, 11, 126
21, 24000, Control_c, 11, 11, 127
21, 24003, Control_c, 11, 11, 126
21, 24006, Control_c, 11, 11, 125
21, 24009, Control_c, 11, 11, 124
21, 24012, Control_c, 11, 11, 123
21, 24015, Control_c, 11, 11, 122
21, 24018, Control_c, 11, 11, 121
21, 24021, Control_c, 11, 11, 120
21, 24024, Control_c, 11, 11, 119
21, 24027, Control_c, 11, 11, 118
21, 24030, Control_c, 11, 11, 117
21, 24033, Control_c, 11, 11, 116
21, 24036, Control_c, 11, 11, 115
21, 24039, Control_c, 11, 11, 114
21, 24042, Control_c, 11, 11, 113
21, 24045, Control_c, 11, 11, 112
21, 24048, Control_c, 11, 11, 111
21, 24051, Control_c, 11, 11, 110
21, 24054, Control_c, 11, 11, 109
21, 24057, Control_c, 11, 11, 108
21, 24060, Control_c, 11, 11, 107
21, 24064, Control_c, 11, 11, 106
21, 24067, Control_c, 11, 11, 105
21, 24070, Control_c, 11, 11, 104
21, 24073, Control_c, 11, 11, 103
21, 24076, Control_c, 11, 11, 102
21, 24079, Control_c, 11, 11, 101
21, 24082, Control_c, 11, 11, 100
21, 24085, Control_c, 11, 11, 99
21, 24088, Control_c, 11, 11, 98
21, 24091, Control_c, 11, 11, 97
21, 24094, Control_c, 11, 11, 96
21, 24097, Control_c, 11, 11, 95
21, 24100, Control_c, 11, 11, 94
21, 24103, Control_c, 11, 11, 93
21, 24106, Control_c, 11, 11, 92
21, 24109, Control_c, 11, 11, 91
21, 24112, Control_c, 11, 11, 90
21, 24115, Control_c, 11, 11, 89
21, 24118, Control_c, 11, 11, 88
21, 24121, Control_c, 11, 11, 87
21, 24124, Control_c, 11, 11, 86
21, 24128, Control_c, 11, 11, 85
21, 24131, Control_c, 11, 11, 84
21, 24134, Control_c, 11, 11, 83
21, 24137, Control_c, 11, 11, 82
21, 24140, Control_c, 11, 11, 81
21, 24143, Control_c, 11, 11, 80
21, 24146, Control_c, 11, 11, 79
21, 24149, Control_c, 11, 11, 78
21, 24152, Control_c, 11, 11, 77
21, 24155, Control_c, 11, 11, 76
21, 24158, Control_c, 11, 11, 75
21, 24161, Control_c, 11, 11, 74
21, 24164, Control_c, 11, 11, 73
21, 24167, Control_c, 11, 11, 72
21, 24170, Control_c, 11, 11, 71
21, 24173, Control_c, 11, 11, 70
21, 24176, Control_c, 11, 11, 69
21, 24179, Control_c, 11, 11, 68
21, 24182, Control_c, 11, 11, 67
21, 24185, Control_c, 11, 11, 66
21, 24188, Control_c, 11, 11, 65
21, 24192, Control_c, 11, 11, 64
21, 24203, Control_c, 11, 11, 63
21, 24214, Control_c, 11, 11, 62
21, 24225, Control_c, 11, 11, 61
21, 24237, Control_c, 11, 11, 60
21, 24248, Control_c, 11, 11, 59
21, 24259, Control_c, 11, 11, 58
21, 24271, Control_c, 11, 11, 57
21, 24282, Control_c, 11, 11, 56
21, 24293, Control_c, 11, 11, 55
21, 24304, Control_c, 11, 11, 54
21, 24316, Control_c, 11, 11, 53
21, 24327, Control_c, 11, 11, 52
21, 24338, Control_c, 11, 11, 51
21, 24350, Control_c, 11, 11, 50
21, 24361, Control_c, 11, 11, 49
21, 24372, Control_c, 11, 11, 48
21, 24384, Control_c, 11, 11, 47
21, 24395, Control_c, 11, 11, 46
21, 24406, Control_c, 11, 11, 45
21, 24417, Control_c, 11, 11, 44
21, 24429, Control_c, 11, 11, 43
21, 24440, Control_c, 11, 11, 42
21, 24451, Control_c, 11, 11, 41
21, 24463, Control_c, 11, 11, 40
21, 24474, Control_c, 11, 11, 39
21, 24485, Control_c, 11, 11, 38
21, 24496, Control_c, 11, 11, 37
21, 24508, Control_c, 11, 11, 36
21, 24519, Control_c, 11, 11, 35
21, 24530, Control_c, 11, 11, 34
21, 24542, Control_c, 11, 11, 33
21, 24553, Control_c, 11, 11, 32
21, 24564, Control_c, 11, 11, 31
21, 24576, Control_c, 11, 11, 30
21, 27984, Note_on_c, 11, 75, 0
21, 27984, Note_on_c, 11, 81, 0
21, 28032, Note_on_c, 11, 75, 90
21, 28032, Note_on_c, 11, 79, 89
21, 28192, Note_on_c, 11, 75, 0
21, 28192, Note_on_c, 11, 79, 0
21, 29952, Program_c, 11, 44
21, 29952, Control_c, 11, 11, 64
21, 29952, Note_on_c, 11, 69, 87
21, 29952, Note_on_c, 11, 81, 92
21, 29961, Control_c, 11, 11, 65
21, 29970, Control_c, 11, 11, 66
21, 29979, Control_c, 11, 11, 67
21, 29988, Control_c, 11, 11, 68
21, 29997, Control_c, 11, 11, 69
21, 30006, Control_c, 11, 11, 70
21, 30016, Control_c, 11, 11, 71
21, 30025, Control_c, 11, 11, 72
21, 30034, Control_c, 11, 11, 73
21, 30043, Control_c, 11, 11, 74
21, 30052, Control_c, 11, 11, 75
21, 30061, Control_c, 11, 11, 76
21, 30070, Control_c, 11, 11, 77
21, 30080, Control_c, 11, 11, 78
21, 30089, Control_c, 11, 11, 79
21, 30098, Control_c, 11, 11, 80
21, 30107, Control_c, 11, 11, 81
21, 30116, Control_c, 11, 11, 82
21, 30125, Control_c, 11, 11, 83
21, 30134, Control_c, 11, 11, 84
21, 30144, Control_c, 11, 11, 85
21, 30153, Control_c, 11, 11, 86
21, 30162, Control_c, 11, 11, 87
21, 30171, Control_c, 11, 11, 88
21, 30180, Control_c, 11, 11, 89
21, 30189, Control_c, 11, 11, 90
21, 30198, Control_c, 11, 11, 91
21, 30208, Control_c, 11, 11, 92
21, 30217, Control_c, 11, 11, 93
21, 30226, Control_c, 11, 11, 94
21, 30235, Control_c, 11, 11, 95
21, 30244, Control_c, 11, 11, 96
21, 30253, Control_c, 11, 11, 97
21, 30262, Control_c, 11, 11, 98
21, 30272, Control_c, 11, 11, 99
21, 30281, Control_c, 11, 11, 100
21, 30288, Note_on_c, 11, 69, 0
21, 30288, Note_on_c, 11, 81, 0
21, 30290, Control_c, 11, 11, 101
21, 30299, Control_c, 11, 11, 102
21, 30308, Control_c, 11, 11, 103
21, 30317, Control_c, 11, 11, 104
21, 30326, Control_c, 11, 11, 105
21, 30336, Control_c, 11, 11, 106
21, 30336, Note_on_c, 11, 70, 88
21, 30336, Note_on_c, 11, 82, 94
21, 30345, Control_c, 11, 11, 107
21, 30354, Control_c, 11, 11, 108
21, 30363, Control_c, 11, 11, 109
21, 30372, Control_c, 11, 11, 110
21, 30381, Control_c, 11, 11, 111
21, 30390, Control_c, 11, 11, 112
21, 30400, Control_c, 11, 11, 113
21, 30409, Control_c, 11, 11, 114
21, 30418, Control_c, 11, 11, 115
21, 30427, Control_c, 11, 11, 116
21, 30436, Control_c, 11, 11, 117
21, 30445, Control_c, 11, 11, 118
21, 30454, Control_c, 11, 11, 119
21, 30462, Note_on_c, 11, 70, 0
21, 30462, Note_on_c, 11, 82, 0
21, 30464, Control_c, 11, 11, 120
21, 30464, Note_on_c, 11, 71, 94
21, 30464, Note_on_c, 11, 83, 96
21, 30473, Control_c, 11, 11, 121
21, 30482, Control_c, 11, 11, 122
21, 30491, Control_c, 11, 11, 123
21, 30500, Control_c, 11, 11, 124
21, 30509, Control_c, 11, 11, 125
21, 30518, Control_c, 11, 11, 126
21, 30528, Control_c, 11, 11, 127
21, 30624, Note_on_c, 11, 71, 0
21, 30624, Note_on_c, 11, 83, 0
21, 30656, Note_on_c, 11, 70, 97
21, 30656, Note_on_c, 11, 82, 87
21, 30718, Note_on_c, 11, 70, 0
21, 30718, Note_on_c, 11, 82, 0
21, 30720, Note_on_c, 11, 69, 45
21, 30720, Note_on_c, 11, 81, 41
21, 31488, Control_c, 11, 11, 127
21, 31504, Control_c, 11, 11, 126
21, 31520, Control_c, 11, 11, 125
21, 31537, Control_c, 11, 11, 124
21, 31553, Control_c, 11, 11, 123
21, 31570, Control_c, 11, 11, 122
21, 31586, Control_c, 11, 11, 121
21, 31603, Control_c, 11, 11, 120
21, 31619, Control_c, 11, 11, 119
21, 31636, Control_c, 11, 11, 118
21, 31652, Control_c, 11, 11, 117
21, 31669, Control_c, 11, 11, 116
21, 31685, Control_c, 11, 11, 115
21, 31701, Control_c, 11, 11, 114
21, 31718, Control_c, 11, 11, 113
21, 31734, Control_c, 11, 11, 112
21, 31751, Control_c, 11, 11, 111
21, 31767, Control_c, 11, 11, 110
21, 31784, Control_c, 11, 11, 109
21, 31800, Control_c, 11, 11, 108
21, 31817, Control_c, 11, 11, 107
21, 31833, Control_c, 11, 11, 106
21, 31850, Control_c, 11, 11, 105
21, 31866, Control_c, 11, 11, 104
21, 31882, Control_c, 11, 11, 103
21, 31899, Control_c, 11, 11, 102
21, 31915, Control_c, 11, 11, 101
21, 31932, Control_c, 11, 11, 100
21, 31948, Control_c, 11, 11, 99
21, 31965, Control_c, 11, 11, 98
21, 31981, Control_c, 11, 11, 97
21, 31998, Control_c, 11, 11, 96
21, 32014, Control_c, 11, 11, 95
21, 32031, Control_c, 11, 11, 94
21, 32047, Control_c, 11, 11, 93
21, 32064, Control_c, 11, 11, 92
21, 32208, Note_on_c, 11, 69, 0
21, 32208, Note_on_c, 11, 81, 0
21, 32256, Control_c, 11, 11, 64
21, 32256, Note_on_c, 11, 74, 79
21, 32256, Note_on_c, 11, 84, 80
21, 32277, Control_c, 11, 11, 65
21, 32298, Control_c, 11, 11, 66
21, 32320, Control_c, 11, 11, 67
21, 32341, Control_c, 11, 11, 68
21, 32362, Control_c, 11, 11, 69
21, 32384, Control_c, 11, 11, 70
21, 32405, Control_c, 11, 11, 71
21, 32426, Control_c, 11, 11, 72
21, 32448, Control_c, 11, 11, 73
21, 32469, Control_c, 11, 11, 74
21, 32490, Control_c, 11, 11, 75
21, 32512, Control_c, 11, 11, 76
21, 32533, Control_c, 11, 11, 77
21, 32554, Control_c, 11, 11, 78
21, 32576, Control_c, 11, 11, 79
21, 32592, Note_on_c, 11, 74, 0
21, 32592, Note_on_c, 11, 84, 0
21, 32597, Control_c, 11, 11, 80
21, 32618, Control_c, 11, 11, 81
21, 32640, Control_c, 11, 11, 82
21, 32640, Note_on_c, 11, 77, 76
21, 32640, Note_on_c, 11, 87, 78
21, 32661, Control_c, 11, 11, 83
21, 32682, Control_c, 11, 11, 84
21, 32704, Control_c, 11, 11, 85
21, 32725, Control_c, 11, 11, 86
21, 32746, Control_c, 11, 11, 87
21, 32768, Control_c, 11, 11, 88
21, 32789, Control_c, 11, 11, 89
21, 32810, Control_c, 11, 11, 90
21, 32832, Control_c, 11, 11, 91
21, 32853, Control_c, 11, 11, 92
21, 32874, Control_c, 11, 11, 93
21, 32896, Control_c, 11, 11, 94
21, 32917, Control_c, 11, 11, 95
21, 32938, Control_c, 11, 11, 96
21, 32960, Control_c, 11, 11, 97
21, 32976, Note_on_c, 11, 77, 0
21, 32976, Note_on_c, 11, 87, 0
21, 32981, Control_c, 11, 11, 98
21, 33002, Control_c, 11, 11, 99
21, 33024, Control_c, 11, 11, 100
21, 33024, Note_on_c, 11, 77, 76
21, 33024, Note_on_c, 11, 87, 70
21, 33045, Control_c, 11, 11, 101
21, 33066, Control_c, 11, 11, 102
21, 33088, Control_c, 11, 11, 103
21, 33109, Control_c, 11, 11, 104
21, 33130, Control_c, 11, 11, 105
21, 33152, Control_c, 11, 11, 106
21, 33173, Control_c, 11, 11, 107
21, 33194, Control_c, 11, 11, 108
21, 33216, Control_c, 11, 11, 109
21, 33237, Control_c, 11, 11, 110
21, 33258, Control_c, 11, 11, 111
21, 33280, Control_c, 11, 11, 112
21, 33301, Control_c, 11, 11, 113
21, 33322, Control_c, 11, 11, 114
21, 33344, Control_c, 11, 11, 115
21, 33360, Note_on_c, 11, 77, 0
21, 33360, Note_on_c, 11, 87, 0
21, 33365, Control_c, 11, 11, 116
21, 33386, Control_c, 11, 11, 117
21, 33408, Control_c, 11, 11, 118
21, 33408, Note_on_c, 11, 81, 79
21, 33408, Note_on_c, 11, 88, 75
21, 33429, Control_c, 11, 11, 119
21, 33450, Control_c, 11, 11, 120
21, 33472, Control_c, 11, 11, 121
21, 33493, Control_c, 11, 11, 122
21, 33514, Control_c, 11, 11, 123
21, 33536, Control_c, 11, 11, 124
21, 33557, Control_c, 11, 11, 125
21, 33578, Control_c, 11, 11, 126
21, 33600, Control_c, 11, 11, 127
21, 33744, Note_on_c, 11, 81, 0
21, 33744, Note_on_c, 11, 88, 0
21, 33792, Program_c, 11, 48
21, 40320, Note_on_c, 11, 72, 80
21, 40352, Note_on_c, 11, 72, 0
21, 40368, Note_on_c, 11, 72, 72
21, 40400, Note_on_c, 11, 72, 0
21, 40416, Note_on_c, 11, 74, 76
21, 40448, Note_on_c, 11, 74, 0
21, 40464, Note_on_c, 11, 74, 85
21, 40496, Note_on_c, 11, 74, 0
21, 40512, Note_on_c, 11, 78, 83
21, 40544, Note_on_c, 11, 78, 0
21, 40560, Note_on_c, 11, 78, 87
21, 40592, Note_on_c, 11, 78, 0
21, 40608, Note_on_c, 11, 80, 86
21, 40640, Note_on_c, 11, 80, 0
21, 40656, Note_on_c, 11, 80, 93
21, 40688, Note_on_c, 11, 80, 0
21, 41088, Note_on_c, 11, 72, 80
21, 41120, Note_on_c, 11, 72, 0
21, 41136, Note_on_c, 11, 72, 78
21, 41168, Note_on_c, 11, 72, 0
21, 41184, Note_on_c, 11, 74, 80
21, 41216, Note_on_c, 11, 74, 0
21, 41232, Note_on_c, 11, 74, 84
21, 41264, Note_on_c, 11, 74, 0
21, 41280, Note_on_c, 11, 78, 87
21, 41312, Note_on_c, 11, 78, 0
21, 41328, Note_on_c, 11, 78, 86
21, 41360, Note_on_c, 11, 78, 0
21, 41376, Note_on_c, 11, 80, 84
21, 41408, Note_on_c, 11, 80, 0
21, 41424, Note_on_c, 11, 80, 91
21, 41456, Note_on_c, 11, 80, 0
21, 41568, Note_on_c, 11, 84, 96
21, 41600, Note_on_c, 11, 84, 0
21, 41664, Note_on_c, 11, 86, 89
21, 41696, Note_on_c, 11, 86, 0
21, 41760, Note_on_c, 11, 88, 98
21, 41792, Note_on_c, 11, 88, 0
21, 41856, Note_on_c, 11, 72, 95
21, 41888, Note_on_c, 11, 72, 0
21, 41952, Note_on_c, 11, 74, 95
21, 41984, Note_on_c, 11, 74, 0
21, 42048, Note_on_c, 11, 76, 95
21, 42080, Note_on_c, 11, 76, 0
21, 42144, Note_on_c, 11, 60, 93
21, 42176, Note_on_c, 11, 60, 0
21, 42240, Note_on_c, 11, 62, 102
21, 42272, Note_on_c, 11, 62, 0
21, 42336, Note_on_c, 11, 64, 102
21, 42368, Note_on_c, 11, 64, 0
21, 42816, Note_on_c, 11, 55, 108
21, 42910, Note_on_c, 11, 55, 0
21, 43200, Program_c, 11, 45
21, 43200, Note_on_c, 11, 56, 105
21, 43294, Note_on_c, 11, 56, 0
21, 54528, Program_c, 11, 48
21, 55296, Control_c, 11, 11, 127
21, 56128, Note_on_c, 11, 62, 27
21, 56190, Note_on_c, 11, 62, 0
21, 56192, Note_on_c, 11, 59, 33
21, 56254, Note_on_c, 11, 59, 0
21, 56256, Note_on_c, 11, 60, 33
21, 56318, Note_on_c, 11, 60, 0
21, 56320, Note_on_c, 11, 61, 32
21, 56382, Note_on_c, 11, 61, 0
21, 56384, Note_on_c, 11, 62, 31
21, 56426, Note_on_c, 11, 62, 0
21, 56512, Note_on_c, 11, 62, 26
21, 56574, Note_on_c, 11, 62, 0
21, 56576, Note_on_c, 11, 59, 31
21, 56638, Note_on_c, 11, 59, 0
21, 56640, Note_on_c, 11, 60, 26
21, 56702, Note_on_c, 11, 60, 0
21, 56704, Note_on_c, 11, 61, 35
21, 56766, Note_on_c, 11, 61, 0
21, 56768, Note_on_c, 11, 62, 31
21, 56810, Note_on_c, 11, 62, 0
21, 56896, Note_on_c, 11, 62, 25
21, 56958, Note_on_c, 11, 62, 0
21, 56960, Note_on_c, 11, 59, 35
21, 57022, Note_on_c, 11, 59, 0
21, 57024, Note_on_c, 11, 60, 34
21, 57086, Note_on_c, 11, 60, 0
21, 57088, Note_on_c, 11, 61, 25
21, 57150, Note_on_c, 11, 61, 0
21, 57152, Note_on_c, 11, 62, 26
21, 57194, Note_on_c, 11, 62, 0
21, 57280, Note_on_c, 11, 62, 32
21, 57342, Note_on_c, 11, 62, 0
21, 57344, Note_on_c, 11, 59, 31
21, 57406, Note_on_c, 11, 59, 0
21, 57408, Note_on_c, 11, 60, 30
21, 57470, Note_on_c, 11, 60, 0
21, 57472, Note_on_c, 11, 61, 26
21, 57534, Note_on_c, 11, 61, 0
21, 57536, Note_on_c, 11, 62, 29
21, 57578, Note_on_c, 11, 62, 0
21, 57664, Note_on_c, 11, 63, 33
21, 57726, Note_on_c, 11, 63, 0
21, 57728, Note_on_c, 11, 60, 26
21, 57790, Note_on_c, 11, 60, 0
21, 57792, Note_on_c, 11, 61, 29
21, 57854, Note_on_c, 11, 61, 0
21, 57856, Note_on_c, 11, 62, 26
21, 57918, Note_on_c, 11, 62, 0
21, 57920, Note_on_c, 11, 63, 31
21, 57962, Note_on_c, 11, 63, 0
21, 58048, Note_on_c, 11, 63, 28
21, 58110, Note_on_c, 11, 63, 0
21, 58112, Note_on_c, 11, 60, 35
21, 58174, Note_on_c, 11, 60, 0
21, 58176, Note_on_c, 11, 60, 28
21, 58238, Note_on_c, 11, 60, 0
21, 58240, Note_on_c, 11, 62, 26
21, 58302, Note_on_c, 11, 62, 0
21, 58304, Note_on_c, 11, 63, 25
21, 58346, Note_on_c, 11, 63, 0
21, 58432, Note_on_c, 11, 63, 31
21, 58494, Note_on_c, 11, 63, 0
21, 58496, Note_on_c, 11, 60, 27
21, 58558, Note_on_c, 11, 60, 0
21, 58560, Note_on_c, 11, 61, 31
21, 58622, Note_on_c, 11, 61, 0
21, 58624, Note_on_c, 11, 62, 33
21, 58686, Note_on_c, 11, 62, 0
21, 58688, Note_on_c, 11, 63, 32
21, 58730, Note_on_c, 11, 63, 0
21, 58816, Note_on_c, 11, 63, 35
21, 58878, Note_on_c, 11, 63, 0
21, 58880, Note_on_c, 11, 60, 26
21, 58942, Note_on_c, 11, 60, 0
21, 58944, Note_on_c, 11, 60, 29
21, 59006, Note_on_c, 11, 60, 0
21, 59008, Note_on_c, 11, 62, 33
21, 59070, Note_on_c, 11, 62, 0
21, 59072, Note_on_c, 11, 63, 29
21, 59134, Note_on_c, 11, 63, 0
21, 59200, Note_on_c, 11, 62, 25
21, 59262, Note_on_c, 11, 62, 0
21, 59264, Note_on_c, 11, 59, 32
21, 59326, Note_on_c, 11, 59, 0
21, 59328, Note_on_c, 11, 60, 29
21, 59390, Note_on_c, 11, 60, 0
21, 59392, Note_on_c, 11, 61, 25
21, 59454, Note_on_c, 11, 61, 0
21, 59456, Note_on_c, 11, 62, 29
21, 59498, Note_on_c, 11, 62, 0
21, 59584, Note_on_c, 11, 62, 27
21, 59646, Note_on_c, 11, 62, 0
21, 59648, Note_on_c, 11, 59, 29
21, 59710, Note_on_c, 11, 59, 0
21, 59712, Note_on_c, 11, 60, 25
21, 59774, Note_on_c, 11, 60, 0
21, 59776, Note_on_c, 11, 61, 29
21, 59838, Note_on_c, 11, 61, 0
21, 59840, Note_on_c, 11, 62, 31
21, 59882, Note_on_c, 11, 62, 0
21, 59968, Note_on_c, 11, 62, 34
21, 60030, Note_on_c, 11, 62, 0
21, 60032, Note_on_c, 11, 59, 29
21, 60094, Note_on_c, 11, 59, 0
21, 60096, Note_on_c, 11, 60, 26
21, 60158, Note_on_c, 11, 60, 0
21, 60160, Note_on_c, 11, 61, 35
21, 60222, Note_on_c, 11, 61, 0
21, 60224, Note_on_c, 11, 62, 28
21, 60266, Note_on_c, 11, 62, 0
21, 60352, Note_on_c, 11, 62, 31
21, 60414, Note_on_c, 11, 62, 0
21, 60416, Note_on_c, 11, 59, 29
21, 60478, Note_on_c, 11, 59, 0
21, 60480, Note_on_c, 11, 60, 33
21, 60542, Note_on_c, 11, 60, 0
21, 60544, Note_on_c, 11, 61, 34
21, 60606, Note_on_c, 11, 61, 0
21, 60608, Note_on_c, 11, 62, 26
21, 60650, Note_on_c, 11, 62, 0
21, 60736, Note_on_c, 11, 60, 35
21, 60798, Note_on_c, 11, 60, 0
21, 60800, Note_on_c, 11, 57, 35
21, 60862, Note_on_c, 11, 57, 0
21, 60864, Note_on_c, 11, 59, 33
21, 60926, Note_on_c, 11, 59, 0
21, 60928, Note_on_c, 11, 60, 43
21, 60990, Note_on_c, 11, 60, 0
21, 60992, Note_on_c, 11, 61, 36
21, 61034, Note_on_c, 11, 61, 0
21, 61120, Note_on_c, 11, 61, 42
21, 61182, Note_on_c, 11, 61, 0
21, 61184, Note_on_c, 11, 64, 43
21, 61246, Note_on_c, 11, 64, 0
21, 61248, Note_on_c, 11, 65, 50
21, 61310, Note_on_c, 11, 65, 0
21, 61312, Note_on_c, 11, 68, 48
21, 61374, Note_on_c, 11, 68, 0
21, 61376, Note_on_c, 11, 69, 50
21, 61418, Note_on_c, 11, 69, 0
21, 61504, Note_on_c, 11, 69, 64
21, 61566, Note_on_c, 11, 69, 0
21, 61568, Note_on_c, 11, 72, 65
21, 61630, Note_on_c, 11, 72, 0
21, 61632, Note_on_c, 11, 73, 60
21, 61694, Note_on_c, 11, 73, 0
21, 61696, Note_on_c, 11, 74, 70
21, 61758, Note_on_c, 11, 74, 0
21, 61760, Note_on_c, 11, 76, 68
21, 61802, Note_on_c, 11, 76, 0
21, 61888, Note_on_c, 11, 73, 74
21, 61950, Note_on_c, 11, 73, 0
21, 61952, Note_on_c, 11, 76, 82
21, 62014, Note_on_c, 11, 76, 0
21, 62016, Note_on_c, 11, 80, 79
21, 62078, Note_on_c, 11, 80, 0
21, 62080, Note_on_c, 11, 81, 85
21, 62142, Note_on_c, 11, 81, 0
21, 62144, Note_on_c, 11, 85, 93
21, 62186, Note_on_c, 11, 85, 0
21, 62304, Note_on_c, 11, 92, 90
21, 62398, Note_on_c, 11, 92, 0
21, 62400, Note_on_c, 11, 88, 92
21, 62462, Note_on_c, 11, 88, 0
21, 62464, Note_on_c, 11, 84, 90
21, 62506, Note_on_c, 11, 84, 0
21, 62528, Note_on_c, 11, 80, 95
21, 62570, Note_on_c, 11, 80, 0
21, 62656, Note_on_c, 11, 76, 100
21, 62718, Note_on_c, 11, 76, 0
21, 62720, Note_on_c, 11, 80, 101
21, 62782, Note_on_c, 11, 80, 0
21, 62784, Note_on_c, 11, 79, 103
21, 62846, Note_on_c, 11, 79, 0
21, 62848, Note_on_c, 11, 81, 104
21, 62890, Note_on_c, 11, 81, 0
21, 62912, Note_on_c, 11, 83, 110
21, 62954, Note_on_c, 11, 83, 0
21, 63072, Note_on_c, 11, 88, 88
21, 63166, Note_on_c, 11, 88, 0
21, 63168, Note_on_c, 11, 84, 98
21, 63230, Note_on_c, 11, 84, 0
21, 63232, Note_on_c, 11, 80, 106
21, 63274, Note_on_c, 11, 80, 0
21, 63296, Note_on_c, 11, 76, 106
21, 63338, Note_on_c, 11, 76, 0
21, 63424, Note_on_c, 11, 72, 94
21, 63486, Note_on_c, 11, 72, 0
21, 63488, Note_on_c, 11, 76, 89
21, 63550, Note_on_c, 11, 76, 0
21, 63552, Note_on_c, 11, 75, 94
21, 63614, Note_on_c, 11, 75, 0
21, 63616, Note_on_c, 11, 77, 106
21, 63658, Note_on_c, 11, 77, 0
21, 63680, Note_on_c, 11, 79, 110
21, 63722, Note_on_c, 11, 79, 0
21, 65664, Note_on_c, 11, 84, 89
21, 65664, Note_on_c, 11, 88, 90
21, 65758, Note_on_c, 11, 84, 0
21, 65758, Note_on_c, 11, 88, 0
21, 65760, Note_on_c, 11, 84, 90
21, 65760, Note_on_c, 11, 88, 95
21, 65790, Note_on_c, 11, 84, 0
21, 65790, Note_on_c, 11, 88, 0
21, 65792, Note_on_c, 11, 84, 89
21, 65792, Note_on_c, 11, 88, 95
21, 65918, Note_on_c, 11, 84, 0
21, 65918, Note_on_c, 11, 88, 0
21, 65920, Note_on_c, 11, 84, 98
21, 65920, Note_on_c, 11, 88, 104
21, 65982, Note_on_c, 11, 84, 0
21, 65982, Note_on_c, 11, 88, 0
21, 65984, Note_on_c, 11, 84, 99
21, 65984, Note_on_c, 11, 88, 109
21, 66208, Note_on_c, 11, 84, 0
21, 66208, Note_on_c, 11, 88, 0
21, 67200, Note_on_c, 11, 84, 96
21, 67200, Note_on_c, 11, 88, 91
21, 67294, Note_on_c, 11, 84, 0
21, 67294, Note_on_c, 11, 88, 0
21, 67296, Note_on_c, 11, 84, 90
21, 67296, Note_on_c, 11, 88, 97
21, 67326, Note_on_c, 11, 84, 0
21, 67326, Note_on_c, 11, 88, 0
21, 67328, Note_on_c, 11, 84, 95
21, 67328, Note_on_c, 11, 88, 93
21, 67454, Note_on_c, 11, 84, 0
21, 67454, Note_on_c, 11, 88, 0
21, 67456, Note_on_c, 11, 84, 98
21, 67456, Note_on_c, 11, 88, 100
21, 67518, Note_on_c, 11, 84, 0
21, 67518, Note_on_c, 11, 88, 0
21, 67520, Note_on_c, 11, 84, 102
21, 67520, Note_on_c, 11, 88, 102
21, 67744, Note_on_c, 11, 84, 0
21, 67744, Note_on_c, 11, 88, 0
21, 68736, Note_on_c, 11, 84, 91
21, 68736, Note_on_c, 11, 88, 93
21, 68830, Note_on_c, 11, 84, 0
21, 68830, Note_on_c, 11, 88, 0
21, 68832, Note_on_c, 11, 84, 95
21, 68832, Note_on_c, 11, 88, 96
21, 68862, Note_on_c, 11, 84, 0
21, 68862, Note_on_c, 11, 88, 0
21, 68864, Note_on_c, 11, 84, 88
21, 68864, Note_on_c, 11, 88, 91
21, 68990, Note_on_c, 11, 84, 0
21, 68990, Note_on_c, 11, 88, 0
21, 68992, Note_on_c, 11, 84, 99
21, 68992, Note_on_c, 11, 88, 95
21, 69054, Note_on_c, 11, 84, 0
21, 69054, Note_on_c, 11, 88, 0
21, 69056, Note_on_c, 11, 84, 107
21, 69056, Note_on_c, 11, 88, 104
21, 69280, Note_on_c, 11, 84, 0
21, 69280, Note_on_c, 11, 88, 0
21, 71040, Note_on_c, 11, 85, 78
21, 71070, Note_on_c, 11, 85, 0
21, 71072, Note_on_c, 11, 87, 79
21, 71102, Note_on_c, 11, 87, 0
21, 71104, Note_on_c, 11, 85, 76
21, 71134, Note_on_c, 11, 85, 0
21, 71136, Note_on_c, 11, 87, 66
21, 71166, Note_on_c, 11, 87, 0
21, 71168, Note_on_c, 11, 85, 62
21, 71198, Note_on_c, 11, 85, 0
21, 71200, Note_on_c, 11, 87, 60
21, 71230, Note_on_c, 11, 87, 0
21, 71232, Note_on_c, 11, 85, 61
21, 71262, Note_on_c, 11, 85, 0
21, 71264, Note_on_c, 11, 87, 55
21, 71294, Note_on_c, 11, 87, 0
21, 71296, Note_on_c, 11, 85, 52
21, 71326, Note_on_c, 11, 85, 0
21, 71328, Note_on_c, 11, 87, 56
21, 71358, Note_on_c, 11, 87, 0
21, 71360, Note_on_c, 11, 85, 48
21, 71390, Note_on_c, 11, 85, 0
21, 71392, Note_on_c, 11, 87, 46
21, 71422, Note_on_c, 11, 87, 0
21, 72960, Control_c, 11, 11, 127
21, 72960, Note_on_c, 11, 81, 90
21, 72965, Control_c, 11, 11, 126
21, 72970, Control_c, 11, 11, 125
21, 72976, Control_c, 11, 11, 124
21, 72981, Control_c, 11, 11, 123
21, 72987, Control_c, 11, 11, 122
21, 72992, Control_c, 11, 11, 121
21, 72998, Control_c, 11, 11, 120
21, 73003, Control_c, 11, 11, 119
21, 73009, Control_c, 11, 11, 118
21, 73014, Control_c, 11, 11, 117
21, 73020, Control_c, 11, 11, 116
21, 73025, Control_c, 11, 11, 115
21, 73031, Control_c, 11, 11, 114
21, 73036, Control_c, 11, 11, 113
21, 73042, Control_c, 11, 11, 112
21, 73047, Control_c, 11, 11, 111
21, 73053, Control_c, 11, 11, 110
21, 73054, Note_on_c, 11, 81, 0
21, 73056, Note_on_c, 11, 75, 92
21, 73058, Control_c, 11, 11, 109
21, 73064, Control_c, 11, 11, 108
21, 73069, Control_c, 11, 11, 107
21, 73075, Control_c, 11, 11, 106
21, 73080, Control_c, 11, 11, 105
21, 73086, Control_c, 11, 11, 104
21, 73091, Control_c, 11, 11, 103
21, 73097, Control_c, 11, 11, 102
21, 73098, Note_on_c, 11, 75, 0
21, 73102, Control_c, 11, 11, 101
21, 73108, Control_c, 11, 11, 100
21, 73113, Control_c, 11, 11, 99
21, 73119, Control_c, 11, 11, 98
21, 73120, Note_on_c, 11, 69, 97
21, 73124, Control_c, 11, 11, 97
21, 73130, Control_c, 11, 11, 96
21, 73135, Control_c, 11, 11, 95
21, 73141, Control_c, 11, 11, 94
21, 73146, Control_c, 11, 11, 93
21, 73150, Note_on_c, 11, 69, 0
21, 73152, Control_c, 11, 11, 92
21, 73152, Note_on_c, 11, 63, 94
21, 73246, Note_on_c, 11, 63, 0
21, 73248, Note_on_c, 11, 69, 87
21, 73290, Note_on_c, 11, 69, 0
21, 73312, Note_on_c, 11, 75, 95
21, 73342, Note_on_c, 11, 75, 0
21, 73344, Control_c, 11, 11, 127
21, 73344, Note_on_c, 11, 81, 87
21, 73349, Control_c, 11, 11, 126
21, 73354, Control_c, 11, 11, 125
21, 73360, Control_c, 11, 11, 124
21, 73365, Control_c, 11, 11, 123
21, 73371, Control_c, 11, 11, 122
21, 73376, Control_c, 11, 11, 121
21, 73382, Control_c, 11, 11, 120
21, 73387, Control_c, 11, 11, 119
21, 73393, Control_c, 11, 11, 118
21, 73398, Control_c, 11, 11, 117
21, 73404, Control_c, 11, 11, 116
21, 73409, Control_c, 11, 11, 115
21, 73415, Control_c, 11, 11, 114
21, 73420, Control_c, 11, 11, 113
21, 73426, Control_c, 11, 11, 112
21, 73431, Control_c, 11, 11, 111
21, 73437, Control_c, 11, 11, 110
21, 73438, Note_on_c, 11, 81, 0
21, 73440, Note_on_c, 11, 75, 93
21, 73442, Control_c, 11, 11, 109
21, 73448, Control_c, 11, 11, 108
21, 73453, Control_c, 11, 11, 107
21, 73459, Control_c, 11, 11, 106
21, 73464, Control_c, 11, 11, 105
21, 73470, Control_c, 11, 11, 104
21, 73475, Control_c, 11, 11, 103
21, 73481, Control_c, 11, 11, 102
21, 73482, Note_on_c, 11, 75, 0
21, 73486, Control_c, 11, 11, 101
21, 73492, Control_c, 11, 11, 100
21, 73497, Control_c, 11, 11, 99
21, 73503, Control_c, 11, 11, 98
21, 73504, Note_on_c, 11, 69, 93
21, 73508, Control_c, 11, 11, 97
21, 73514, Control_c, 11, 11, 96
21, 73519, Control_c, 11, 11, 95
21, 73525, Control_c, 11, 11, 94
21, 73530, Control_c, 11, 11, 93
21, 73534, Note_on_c, 11, 69, 0
21, 73536, Control_c, 11, 11, 92
21, 73536, Note_on_c, 11, 63, 91
21, 73630, Note_on_c, 11, 63, 0
21, 73632, Note_on_c, 11, 69, 95
21, 73674, Note_on_c, 11, 69, 0
21, 73696, Note_on_c, 11, 75, 90
21, 73726, Note_on_c, 11, 75, 0
21, 73728, Note_on_c, 11, 81, 88
21, 73822, Note_on_c, 11, 81, 0
21, 73824, Note_on_c, 11, 75, 87
21, 73866, Note_on_c, 11, 75, 0
21, 73888, Note_on_c, 11, 69, 89
21, 73918, Note_on_c, 11, 69, 0
21, 73920, Note_on_c, 11, 63, 92
21, 74014, Note_on_c, 11, 63, 0
21, 74016, Note_on_c, 11, 69, 88
21, 74058, Note_on_c, 11, 69, 0
21, 74080, Note_on_c, 11, 75, 88
21, 74110, Note_on_c, 11, 75, 0
21, 74112, Note_on_c, 11, 81, 95
21, 74206, Note_on_c, 11, 81, 0
21, 74208, Note_on_c, 11, 75, 88
21, 74250, Note_on_c, 11, 75, 0
21, 74272, Note_on_c, 11, 69, 96
21, 74302, Note_on_c, 11, 69, 0
21, 74304, Note_on_c, 11, 63, 95
21, 74398, Note_on_c, 11, 63, 0
21, 74400, Note_on_c, 11, 69, 91
21, 74442, Note_on_c, 11, 69, 0
21, 74464, Note_on_c, 11, 75, 89
21, 74494, Note_on_c, 11, 75, 0
21, 74496, Note_on_c, 11, 81, 89
21, 74590, Note_on_c, 11, 81, 0
21, 74592, Note_on_c, 11, 75, 93
21, 74634, Note_on_c, 11, 75, 0
21, 74656, Note_on_c, 11, 69, 94
21, 74686, Note_on_c, 11, 69, 0
21, 74688, Note_on_c, 11, 63, 92
21, 74782, Note_on_c, 11, 63, 0
21, 74784, Note_on_c, 11, 69, 97
21, 74826, Note_on_c, 11, 69, 0
21, 74848, Note_on_c, 11, 75, 90
21, 74878, Note_on_c, 11, 75, 0
21, 74880, Note_on_c, 11, 81, 93
21, 74974, Note_on_c, 11, 81, 0
21, 74976, Note_on_c, 11, 75, 95
21, 75018, Note_on_c, 11, 75, 0
21, 75040, Note_on_c, 11, 69, 97
21, 75070, Note_on_c, 11, 69, 0
21, 75072, Note_on_c, 11, 63, 87
21, 75166, Note_on_c, 11, 63, 0
21, 75168, Note_on_c, 11, 69, 95
21, 75210, Note_on_c, 11, 69, 0
21, 75232, Note_on_c, 11, 75, 89
21, 75262, Note_on_c, 11, 75, 0
21, 75264, Note_on_c, 11, 81, 92
21, 75358, Note_on_c, 11, 81, 0
21, 75360, Note_on_c, 11, 75, 90
21, 75402, Note_on_c, 11, 75, 0
21, 75424, Note_on_c, 11, 69, 85
21, 75454, Note_on_c, 11, 69, 0
21, 75456, Note_on_c, 11, 63, 86
21, 75550, Note_on_c, 11, 63, 0
21, 75552, Note_on_c, 11, 69, 83
21, 75594, Note_on_c, 11, 69, 0
21, 75616, Note_on_c, 11, 75, 79
21, 75646, Note_on_c, 11, 75, 0
21, 75648, Note_on_c, 11, 81, 83
21, 75742, Note_on_c, 11, 81, 0
21, 75744, Note_on_c, 11, 75, 79
21, 75786, Note_on_c, 11, 75, 0
21, 75808, Note_on_c, 11, 69, 72
21, 75838, Note_on_c, 11, 69, 0
21, 75840, Note_on_c, 11, 63, 65
21, 75934, Note_on_c, 11, 63, 0
21, 75936, Note_on_c, 11, 69, 63
21, 75978, Note_on_c, 11, 69, 0
21, 76000, Note_on_c, 11, 75, 67
21, 76030, Note_on_c, 11, 75, 0
21, 76032, Note_on_c, 11, 81, 63
21, 76126, Note_on_c, 11, 81, 0
21, 76128, Note_on_c, 11, 75, 61
21, 76170, Note_on_c, 11, 75, 0
21, 76192, Note_on_c, 11, 69, 63
21, 76222, Note_on_c, 11, 69, 0
21, 76224, Note_on_c, 11, 63, 58
21, 76318, Note_on_c, 11, 63, 0
21, 76320, Note_on_c, 11, 69, 62
21, 76362, Note_on_c, 11, 69, 0
21, 76384, Note_on_c, 11, 75, 59
21, 76414, Note_on_c, 11, 75, 0
21, 76416, Note_on_c, 11, 81, 58
21, 76510, Note_on_c, 11, 81, 0
21, 76512, Note_on_c, 11, 75, 59
21, 76554, Note_on_c, 11, 75, 0
21, 76576, Note_on_c, 11, 69, 62
21, 76606, Note_on_c, 11, 69, 0
21, 76608, Note_on_c, 11, 63, 56
21, 76702, Note_on_c, 11, 63, 0
21, 76704, Note_on_c, 11, 69, 61
21, 76746, Note_on_c, 11, 69, 0
21, 76768, Note_on_c, 11, 75, 63
21, 76798, Note_on_c, 11, 75, 0
21, 76800, Note_on_c, 11, 81, 60
21, 76894, Note_on_c, 11, 81, 0
21, 76896, Note_on_c, 11, 75, 60
21, 76938, Note_on_c, 11, 75, 0
21, 76960, Note_on_c, 11, 69, 64
21, 76990, Note_on_c, 11, 69, 0
21, 76992, Note_on_c, 11, 63, 60
21, 77086, Note_on_c, 11, 63, 0
21, 77088, Note_on_c, 11, 69, 62
21, 77130, Note_on_c, 11, 69, 0
21, 77152, Note_on_c, 11, 75, 60
21, 77182, Note_on_c, 11, 75, 0
21, 77184, Note_on_c, 11, 81, 55
21, 77278, Note_on_c, 11, 81, 0
21, 77280, Note_on_c, 11, 75, 59
21, 77322, Note_on_c, 11, 75, 0
21, 77344, Note_on_c, 11, 69, 58
21, 77374, Note_on_c, 11, 69, 0
21, 77376, Note_on_c, 11, 63, 59
21, 77470, Note_on_c, 11, 63, 0
21, 77472, Note_on_c, 11, 69, 60
21, 77514, Note_on_c, 11, 69, 0
21, 77536, Note_on_c, 11, 75, 64
21, 77566, Note_on_c, 11, 75, 0
21, 77568, Note_on_c, 11, 81, 58
21, 77662, Note_on_c, 11, 81, 0
21, 77664, Note_on_c, 11, 75, 58
21, 77706, Note_on_c, 11, 75, 0
21, 77728, Note_on_c, 11, 69, 63
21, 77758, Note_on_c, 11, 69, 0
21, 77760, Note_on_c, 11, 63, 58
21, 77854, Note_on_c, 11, 63, 0
21, 77856, Note_on_c, 11, 69, 56
21, 77898, Note_on_c, 11, 69, 0
21, 77920, Note_on_c, 11, 75, 64
21, 77950, Note_on_c, 11, 75, 0
21, 77952, Note_on_c, 11, 81, 59
21, 78046, Note_on_c, 11, 81, 0
21, 78048, Note_on_c, 11, 75, 65
21, 78090, Note_on_c, 11, 75, 0
21, 78112, Note_on_c, 11, 69, 59
21, 78142, Note_on_c, 11, 69, 0
21, 78144, Note_on_c, 11, 63, 61
21, 78238, Note_on_c, 11, 63, 0
21, 78240, Note_on_c, 11, 69, 65
21, 78282, Note_on_c, 11, 69, 0
21, 78304, Note_on_c, 11, 75, 61
21, 78334, Note_on_c, 11, 75, 0
21, 78336, Note_on_c, 11, 81, 63
21, 78430, Note_on_c, 11, 81, 0
21, 78432, Note_on_c, 11, 75, 64
21, 78474, Note_on_c, 11, 75, 0
21, 78496, Note_on_c, 11, 69, 63
21, 78526, Note_on_c, 11, 69, 0
21, 78528, Note_on_c, 11, 63, 62
21, 78622, Note_on_c, 11, 63, 0
21, 78624, Note_on_c, 11, 69, 60
21, 78666, Note_on_c, 11, 69, 0
21, 78688, Note_on_c, 11, 75, 65
21, 78718, Note_on_c, 11, 75, 0
21, 78720, Note_on_c, 11, 81, 64
21, 78814, Note_on_c, 11, 81, 0
21, 78816, Note_on_c, 11, 75, 61
21, 78858, Note_on_c, 11, 75, 0
21, 78880, Note_on_c, 11, 69, 63
21, 78910, Note_on_c, 11, 69, 0
21, 78912, Note_on_c, 11, 63, 65
21, 79006, Note_on_c, 11, 63, 0
21, 79008, Note_on_c, 11, 69, 60
21, 79050, Note_on_c, 11, 69, 0
21, 79072, Note_on_c, 11, 75, 63
21, 79102, Note_on_c, 11, 75, 0
21, 79104, Control_c, 11, 11, 127
21, 79104, Note_on_c, 11, 81, 97
21, 79198, Note_on_c, 11, 81, 0
21, 79200, Note_on_c, 11, 75, 89
21, 79242, Note_on_c, 11, 75, 0
21, 79264, Note_on_c, 11, 69, 97
21, 79294, Note_on_c, 11, 69, 0
21, 79296, Note_on_c, 11, 63, 97
21, 79390, Note_on_c, 11, 63, 0
21, 79392, Note_on_c, 11, 69, 91
21, 79434, Note_on_c, 11, 69, 0
21, 79456, Note_on_c, 11, 75, 87
21, 79486, Note_on_c, 11, 75, 0
21, 79488, Note_on_c, 11, 81, 93
21, 79582, Note_on_c, 11, 81, 0
21, 79584, Note_on_c, 11, 75, 90
21, 79626, Note_on_c, 11, 75, 0
21, 79648, Note_on_c, 11, 69, 97
21, 79678, Note_on_c, 11, 69, 0
21, 79680, Note_on_c, 11, 63, 91
21, 79774, Note_on_c, 11, 63, 0
21, 79776, Note_on_c, 11, 69, 90
21, 79818, Note_on_c, 11, 69, 0
21, 79840, Note_on_c, 11, 75, 89
21, 79870, Note_on_c, 11, 75, 0
21, 79872, Note_on_c, 11, 81, 95
21, 79966, Note_on_c, 11, 81, 0
21, 79968, Note_on_c, 11, 75, 97
21, 80010, Note_on_c, 11, 75, 0
21, 80032, Note_on_c, 11, 69, 96
21, 80062, Note_on_c, 11, 69, 0
21, 80064, Note_on_c, 11, 63, 92
21, 80158, Note_on_c, 11, 63, 0
21, 80160, Note_on_c, 11, 69, 97
21, 80202, Note_on_c, 11, 69, 0
21, 80224, Note_on_c, 11, 75, 97
21, 80254, Note_on_c, 11, 75, 0
21, 80256, Note_on_c, 11, 81, 94
21, 80350, Note_on_c, 11, 81, 0
21, 80352, Note_on_c, 11, 75, 82
21, 80394, Note_on_c, 11, 75, 0
21, 80416, Note_on_c, 11, 69, 73
21, 80446, Note_on_c, 11, 69, 0
21, 80448, Note_on_c, 11, 63, 71
21, 80542, Note_on_c, 11, 63, 0
21, 80544, Note_on_c, 11, 69, 58
21, 80586, Note_on_c, 11, 69, 0
21, 80608, Note_on_c, 11, 75, 49
21, 80638, Note_on_c, 11, 75, 0
21, 80640, Note_on_c, 11, 81, 44
21, 80734, Note_on_c, 11, 81, 0
21, 80736, Note_on_c, 11, 75, 40
21, 80778, Note_on_c, 11, 75, 0
21, 80800, Note_on_c, 11, 69, 41
21, 80830, Note_on_c, 11, 69, 0
21, 80832, Note_on_c, 11, 63, 48
21, 80926, Note_on_c, 11, 63, 0
21, 80928, Note_on_c, 11, 69, 43
21, 80970, Note_on_c, 11, 69, 0
21, 80992, Note_on_c, 11, 75, 50
21, 81022, Note_on_c, 11, 75, 0
21, 81024, Note_on_c, 11, 81, 45
21, 81118, Note_on_c, 11, 81, 0
21, 81120, Note_on_c, 11, 75, 49
21, 81162, Note_on_c, 11, 75, 0
21, 81184, Note_on_c, 11, 69, 46
21, 81214, Note_on_c, 11, 69, 0
21, 81216, Note_on_c, 11, 63, 48
21, 81310, Note_on_c, 11, 63, 0
21, 81312, Note_on_c, 11, 69, 42
21, 81354, Note_on_c, 11, 69, 0
21, 81376, Note_on_c, 11, 75, 41
21, 81406, Note_on_c, 11, 75, 0
21, 81408, Note_on_c, 11, 81, 45
21, 81502, Note_on_c, 11, 81, 0
21, 81504, Note_on_c, 11, 75, 49
21, 81546, Note_on_c, 11, 75, 0
21, 81568, Note_on_c, 11, 69, 41
21, 81598, Note_on_c, 11, 69, 0
21, 81600, Note_on_c, 11, 63, 50
21, 81694, Note_on_c, 11, 63, 0
21, 81696, Note_on_c, 11, 69, 46
21, 81738, Note_on_c, 11, 69, 0
21, 81760, Note_on_c, 11, 75, 43
21, 81790, Note_on_c, 11, 75, 0
21, 81792, Note_on_c, 11, 81, 47
21, 81886, Note_on_c, 11, 81, 0
21, 81888, Note_on_c, 11, 75, 50
21, 81930, Note_on_c, 11, 75, 0
21, 81952, Note_on_c, 11, 69, 48
21, 81982, Note_on_c, 11, 69, 0
21, 81984, Note_on_c, 11, 63, 41
21, 82078, Note_on_c, 11, 63, 0
21, 82080, Note_on_c, 11, 69, 48
21, 82122, Note_on_c, 11, 69, 0
21, 82144, Note_on_c, 11, 75, 50
21, 82174, Note_on_c, 11, 75, 0
21, 82176, Note_on_c, 11, 81, 48
21, 82270, Note_on_c, 11, 81, 0
21, 82272, Note_on_c, 11, 75, 49
21, 82314, Note_on_c, 11, 75, 0
21, 82336, Note_on_c, 11, 69, 46
21, 82366, Note_on_c, 11, 69, 0
21, 82368, Note_on_c, 11, 63, 43
21, 82462, Note_on_c, 11, 63, 0
21, 82464, Note_on_c, 11, 69, 40
21, 82506, Note_on_c, 11, 69, 0
21, 82528, Note_on_c, 11, 75, 42
21, 82558, Note_on_c, 11, 75, 0
21, 82560, Note_on_c, 11, 81, 42
21, 82654, Note_on_c, 11, 81, 0
21, 82656, Note_on_c, 11, 75, 46
21, 82698, Note_on_c, 11, 75, 0
21, 82720, Note_on_c, 11, 69, 42
21, 82750, Note_on_c, 11, 69, 0
21, 82752, Note_on_c, 11, 63, 44
21, 82846, Note_on_c, 11, 63, 0
21, 82848, Note_on_c, 11, 69, 41
21, 82890, Note_on_c, 11, 69, 0
21, 82912, Note_on_c, 11, 75, 41
21, 82942, Note_on_c, 11, 75, 0
21, 82944, Note_on_c, 11, 81, 48
21, 83038, Note_on_c, 11, 81, 0
21, 83040, Note_on_c, 11, 75, 49
21, 83082, Note_on_c, 11, 75, 0
21, 83104, Note_on_c, 11, 69, 41
21, 83134, Note_on_c, 11, 69, 0
21, 83136, Note_on_c, 11, 63, 46
21, 83230, Note_on_c, 11, 63, 0
21, 83232, Note_on_c, 11, 69, 48
21, 83274, Note_on_c, 11, 69, 0
21, 83296, Note_on_c, 11, 75, 45
21, 83326, Note_on_c, 11, 75, 0
21, 83328, Note_on_c, 11, 81, 42
21, 83422, Note_on_c, 11, 81, 0
21, 83424, Note_on_c, 11, 75, 49
21, 83466, Note_on_c, 11, 75, 0
21, 83488, Note_on_c, 11, 69, 42
21, 83518, Note_on_c, 11, 69, 0
21, 83520, Note_on_c, 11, 63, 47
21, 83614, Note_on_c, 11, 63, 0
21, 83616, Note_on_c, 11, 69, 43
21, 83658, Note_on_c, 11, 69, 0
21, 83680, Note_on_c, 11, 75, 48
21, 83710, Note_on_c, 11, 75, 0
21, 83712, Note_on_c, 11, 81, 87
21, 83806, Note_on_c, 11, 81, 0
21, 83808, Note_on_c, 11, 75, 92
21, 83850, Note_on_c, 11, 75, 0
21, 83872, Note_on_c, 11, 69, 87
21, 83902, Note_on_c, 11, 69, 0
21, 83904, Note_on_c, 11, 63, 94
21, 83998, Note_on_c, 11, 63, 0
21, 84000, Note_on_c, 11, 69, 96
21, 84042, Note_on_c, 11, 69, 0
21, 84064, Note_on_c, 11, 75, 95
21, 84094, Note_on_c, 11, 75, 0
21, 84096, Note_on_c, 11, 81, 96
21, 84190, Note_on_c, 11, 81, 0
21, 84192, Note_on_c, 11, 75, 88
21, 84234, Note_on_c, 11, 75, 0
21, 84256, Note_on_c, 11, 69, 96
21, 84286, Note_on_c, 11, 69, 0
21, 84288, Note_on_c, 11, 63, 95
21, 84382, Note_on_c, 11, 63, 0
21, 84384, Note_on_c, 11, 69, 89
21, 84426, Note_on_c, 11, 69, 0
21, 84448, Note_on_c, 11, 75, 95
21, 84478, Note_on_c, 11, 75, 0
21, 84480, Note_on_c, 11, 81, 94
21, 84574, Note_on_c, 11, 81, 0
21, 84576, Note_on_c, 11, 75, 97
21, 84618, Note_on_c, 11, 75, 0
21, 84640, Note_on_c, 11, 69, 92
21, 84670, Note_on_c, 11, 69, 0
21, 84672, Note_on_c, 11, 63, 96
21, 84766, Note_on_c, 11, 63, 0
21, 84768, Note_on_c, 11, 69, 89
21, 84810, Note_on_c, 11, 69, 0
21, 84832, Note_on_c, 11, 75, 88
21, 84862, Note_on_c, 11, 75, 0
21, 84864, Note_on_c, 11, 81, 93
21, 84958, Note_on_c, 11, 81, 0
21, 84960, Note_on_c, 11, 75, 88
21, 85002, Note_on_c, 11, 75, 0
21, 85024, Note_on_c, 11, 69, 92
21, 85054, Note_on_c, 11, 69, 0
21, 85056, Note_on_c, 11, 63, 89
21, 85150, Note_on_c, 11, 63, 0
21, 85152, Note_on_c, 11, 69, 90
21, 85194, Note_on_c, 11, 69, 0
21, 85216, Note_on_c, 11, 75, 90
21, 85246, Note_on_c, 11, 75, 0
21, 85248, Note_on_c, 11, 81, 78
21, 85342, Note_on_c, 11, 81, 0
21, 85344, Note_on_c, 11, 75, 76
21, 85386, Note_on_c, 11, 75, 0
21, 85408, Note_on_c, 11, 69, 78
21, 85438, Note_on_c, 11, 69, 0
21, 85440, Note_on_c, 11, 63, 72
21, 85534, Note_on_c, 11, 63, 0
21, 85536, Note_on_c, 11, 69, 70
21, 85578, Note_on_c, 11, 69, 0
21, 85600, Note_on_c, 11, 75, 70
21, 85630, Note_on_c, 11, 75, 0
21, 85632, Note_on_c, 11, 81, 80
21, 85726, Note_on_c, 11, 81, 0
21, 85728, Note_on_c, 11, 75, 76
21, 85770, Note_on_c, 11, 75, 0
21, 85792, Note_on_c, 11, 69, 78
21, 85822, Note_on_c, 11, 69, 0
21, 85824, Note_on_c, 11, 63, 75
21, 85918, Note_on_c, 11, 63, 0
21, 85920, Note_on_c, 11, 69, 78
21, 85962, Note_on_c, 11, 69, 0
21, 85984, Note_on_c, 11, 75, 70
21, 86014, Note_on_c, 11, 75, 0
21, 86016, Note_on_c, 11, 81, 72
21, 86110, Note_on_c, 11, 81, 0
21, 86112, Note_on_c, 11, 75, 76
21, 86154, Note_on_c, 11, 75, 0
21, 86176, Note_on_c, 11, 69, 75
21, 86206, Note_on_c, 11, 69, 0
21, 86208, Note_on_c, 11, 63, 80
21, 86302, Note_on_c, 11, 63, 0
21, 86304, Note_on_c, 11, 69, 72
21, 86346, Note_on_c, 11, 69, 0
21, 86368, Note_on_c, 11, 75, 80
21, 86398, Note_on_c, 11, 75, 0
21, 86400, Note_on_c, 11, 81, 74
21, 86494, Note_on_c, 11, 81, 0
21, 86496, Note_on_c, 11, 75, 75
21, 86538, Note_on_c, 11, 75, 0
21, 86560, Note_on_c, 11, 69, 80
21, 86590, Note_on_c, 11, 69, 0
21, 86592, Note_on_c, 11, 63, 79
21, 86686, Note_on_c, 11, 63, 0
21, 86688, Note_on_c, 11, 69, 71
21, 86730, Note_on_c, 11, 69, 0
21, 86752, Note_on_c, 11, 75, 71
21, 86782, Note_on_c, 11, 75, 0
21, 86784, Note_on_c, 11, 81, 70
21, 86878, Note_on_c, 11, 81, 0
21, 86880, Note_on_c, 11, 75, 70
21, 86922, Note_on_c, 11, 75, 0
21, 86944, Note_on_c, 11, 69, 72
21, 86974, Note_on_c, 11, 69, 0
21, 86976, Note_on_c, 11, 63, 80
21, 87070, Note_on_c, 11, 63, 0
21, 87072, Note_on_c, 11, 69, 79
21, 87114, Note_on_c, 11, 69, 0
21, 87136, Note_on_c, 11, 75, 70
21, 87166, Note_on_c, 11, 75, 0
21, 87168, Note_on_c, 11, 81, 79
21, 87262, Note_on_c, 11, 81, 0
21, 87264, Note_on_c, 11, 75, 74
21, 87306, Note_on_c, 11, 75, 0
21, 87328, Note_on_c, 11, 69, 76
21, 87358, Note_on_c, 11, 69, 0
21, 87360, Note_on_c, 11, 63, 78
21, 87454, Note_on_c, 11, 63, 0
21, 87456, Note_on_c, 11, 69, 76
21, 87498, Note_on_c, 11, 69, 0
21, 87520, Note_on_c, 11, 75, 73
21, 87550, Note_on_c, 11, 75, 0
21, 87552, Note_on_c, 11, 81, 74
21, 87646, Note_on_c, 11, 81, 0
21, 87648, Note_on_c, 11, 75, 75
21, 87690, Note_on_c, 11, 75, 0
21, 87712, Note_on_c, 11, 69, 73
21, 87742, Note_on_c, 11, 69, 0
21, 87744, Note_on_c, 11, 63, 78
21, 87838, Note_on_c, 11, 63, 0
21, 87840, Note_on_c, 11, 69, 77
21, 87882, Note_on_c, 11, 69, 0
21, 87904, Note_on_c, 11, 75, 77
21, 87934, Note_on_c, 11, 75, 0
21, 87936, Note_on_c, 11, 84, 90
21, 88030, Note_on_c, 11, 84, 0
21, 88032, Note_on_c, 11, 80, 95
21, 88074, Note_on_c, 11, 80, 0
21, 88096, Note_on_c, 11, 72, 88
21, 88126, Note_on_c, 11, 72, 0
21, 88128, Note_on_c, 11, 72, 88
21, 88222, Note_on_c, 11, 72, 0
21, 88224, Note_on_c, 11, 80, 92
21, 88266, Note_on_c, 11, 80, 0
21, 88288, Note_on_c, 11, 84, 90
21, 88318, Note_on_c, 11, 84, 0
21, 88320, Note_on_c, 11, 84, 90
21, 88414, Note_on_c, 11, 84, 0
21, 88416, Note_on_c, 11, 80, 95
21, 88458, Note_on_c, 11, 80, 0
21, 88480, Note_on_c, 11, 72, 95
21, 88510, Note_on_c, 11, 72, 0
21, 88512, Note_on_c, 11, 72, 97
21, 88606, Note_on_c, 11, 72, 0
21, 88608, Note_on_c, 11, 80, 95
21, 88650, Note_on_c, 11, 80, 0
21, 88672, Note_on_c, 11, 84, 92
21, 88702, Note_on_c, 11, 84, 0
21, 88704, Note_on_c, 11, 85, 88
21, 88798, Note_on_c, 11, 85, 0
21, 88800, Note_on_c, 11, 79, 99
21, 88842, Note_on_c, 11, 79, 0
21, 88864, Note_on_c, 11, 73, 99
21, 88894, Note_on_c, 11, 73, 0
21, 88896, Note_on_c, 11, 73, 97
21, 88990, Note_on_c, 11, 73, 0
21, 88992, Note_on_c, 11, 79, 102
21, 89034, Note_on_c, 11, 79, 0
21, 89056, Note_on_c, 11, 85, 107
21, 89086, Note_on_c, 11, 85, 0
21, 89088, Note_on_c, 11, 81, 49
21, 89182, Note_on_c, 11, 81, 0
21, 89184, Note_on_c, 11, 75, 49
21, 89226, Note_on_c, 11, 75, 0
21, 89248, Note_on_c, 11, 69, 50
21, 89278, Note_on_c, 11, 69, 0
21, 89280, Note_on_c, 11, 63, 49
21, 89374, Note_on_c, 11, 63, 0
21, 89376, Note_on_c, 11, 69, 46
21, 89418, Note_on_c, 11, 69, 0
21, 89440, Note_on_c, 11, 75, 54
21, 89470, Note_on_c, 11, 75, 0
21, 89472, Note_on_c, 11, 81, 48
21, 89566, Note_on_c, 11, 81, 0
21, 89568, Note_on_c, 11, 75, 53
21, 89610, Note_on_c, 11, 75, 0
21, 89632, Note_on_c, 11, 69, 49
21, 89662, Note_on_c, 11, 69, 0
21, 89664, Note_on_c, 11, 63, 51
21, 89758, Note_on_c, 11, 63, 0
21, 89760, Note_on_c, 11, 69, 54
21, 89802, Note_on_c, 11, 69, 0
21, 89824, Note_on_c, 11, 75, 53
21, 89854, Note_on_c, 11, 75, 0
21, 89856, Note_on_c, 11, 81, 58
21, 89950, Note_on_c, 11, 81, 0
21, 89952, Note_on_c, 11, 75, 58
21, 89994, Note_on_c, 11, 75, 0
21, 90016, Note_on_c, 11, 69, 53
21, 90046, Note_on_c, 11, 69, 0
21, 90048, Note_on_c, 11, 63, 53
21, 90142, Note_on_c, 11, 63, 0
21, 90144, Note_on_c, 11, 69, 59
21, 90186, Note_on_c, 11, 69, 0
21, 90208, Note_on_c, 11, 75, 65
21, 90238, Note_on_c, 11, 75, 0
21, 90240, Note_on_c, 11, 81, 59
21, 90334, Note_on_c, 11, 81, 0
21, 90336, Note_on_c, 11, 75, 65
21, 90378, Note_on_c, 11, 75, 0
21, 90400, Note_on_c, 11, 69, 69
21, 90430, Note_on_c, 11, 69, 0
21, 90432, Note_on_c, 11, 63, 64
21, 90526, Note_on_c, 11, 63, 0
21, 90528, Note_on_c, 11, 69, 65
21, 90570, Note_on_c, 11, 69, 0
21, 90592, Note_on_c, 11, 75, 62
21, 90622, Note_on_c, 11, 75, 0
21, 90624, Note_on_c, 11, 81, 71
21, 90718, Note_on_c, 11, 81, 0
21, 90720, Note_on_c, 11, 75, 75
21, 90762, Note_on_c, 11, 75, 0
21, 90784, Note_on_c, 11, 69, 70
21, 90814, Note_on_c, 11, 69, 0
21, 90816, Note_on_c, 11, 63, 71
21, 90910, Note_on_c, 11, 63, 0
21, 90912, Note_on_c, 11, 69, 72
21, 90954, Note_on_c, 11, 69, 0
21, 90976, Note_on_c, 11, 75, 78
21, 91006, Note_on_c, 11, 75, 0
21, 91008, Note_on_c, 11, 81, 79
21, 91102, Note_on_c, 11, 81, 0
21, 91104, Note_on_c, 11, 75, 80
21, 91146, Note_on_c, 11, 75, 0
21, 91168, Note_on_c, 11, 69, 82
21, 91198, Note_on_c, 11, 69, 0
21, 91200, Note_on_c, 11, 63, 87
21, 91294, Note_on_c, 11, 63, 0
21, 91296, Note_on_c, 11, 69, 93
21, 91338, Note_on_c, 11, 69, 0
21, 91360, Note_on_c, 11, 75, 85
21, 91390, Note_on_c, 11, 75, 0
21, 91392, Note_on_c, 11, 81, 90
21, 91486, Note_on_c, 11, 81, 0
21, 91488, Note_on_c, 11, 75, 93
21, 91530, Note_on_c, 11, 75, 0
21, 91552, Note_on_c, 11, 69, 92
21, 91582, Note_on_c, 11, 69, 0
21, 91584, Note_on_c, 11, 63, 100
21, 91678, Note_on_c, 11, 63, 0
21, 91680, Note_on_c, 11, 69, 105
21, 91722, Note_on_c, 11, 69, 0
21, 91744, Note_on_c, 11, 75, 107
21, 91774, Note_on_c, 11, 75, 0
21, 91776, Program_c, 11, 44
21, 91776, Note_on_c, 11, 88, 113
21, 92112, Note_on_c, 11, 88, 0
21, 92160, Program_c, 11, 48
21, 92160, Note_on_c, 11, 76, 107
21, 92254, Note_on_c, 11, 76, 0
21, 92544, Program_c, 11, 44
21, 92544, Control_c, 11, 11, 92
21, 92544, Note_on_c, 11, 86, 127
21, 92554, Control_c, 11, 11, 93
21, 92565, Control_c, 11, 11, 94
21, 92576, Control_c, 11, 11, 95
21, 92587, Control_c, 11, 11, 96
21, 92598, Control_c, 11, 11, 97
21, 92609, Control_c, 11, 11, 98
21, 92620, Control_c, 11, 11, 99
21, 92631, Control_c, 11, 11, 100
21, 92642, Control_c, 11, 11, 101
21, 92653, Control_c, 11, 11, 102
21, 92664, Control_c, 11, 11, 103
21, 92675, Control_c, 11, 11, 104
21, 92686, Control_c, 11, 11, 105
21, 92697, Control_c, 11, 11, 106
21, 92708, Control_c, 11, 11, 107
21, 92719, Control_c, 11, 11, 108
21, 92730, Control_c, 11, 11, 109
21, 92741, Control_c, 11, 11, 110
21, 92752, Control_c, 11, 11, 111
21, 92763, Control_c, 11, 11, 112
21, 92774, Control_c, 11, 11, 113
21, 92785, Control_c, 11, 11, 114
21, 92796, Control_c, 11, 11, 115
21, 92807, Control_c, 11, 11, 116
21, 92818, Control_c, 11, 11, 117
21, 92829, Control_c, 11, 11, 118
21, 92840, Control_c, 11, 11, 119
21, 92851, Control_c, 11, 11, 120
21, 92862, Control_c, 11, 11, 121
21, 92873, Control_c, 11, 11, 122
21, 92880, Note_on_c, 11, 86, 0
21, 92884, Control_c, 11, 11, 123
21, 92895, Control_c, 11, 11, 124
21, 92906, Control_c, 11, 11, 125
21, 92917, Control_c, 11, 11, 126
21, 92928, Control_c, 11, 11, 127
21, 92928, Program_c, 11, 48
21, 92928, Note_on_c, 11, 74, 127
21, 93022, Note_on_c, 11, 74, 0
21, 93792, Note_on_c, 11, 66, 109
21, 93824, Note_on_c, 11, 66, 0
21, 93840, Note_on_c, 11, 66, 112
21, 93872, Note_on_c, 11, 66, 0
21, 93888, Note_on_c, 11, 68, 104
21, 93920, Note_on_c, 11, 68, 0
21, 93936, Note_on_c, 11, 68, 107
21, 93968, Note_on_c, 11, 68, 0
21, 93984, Note_on_c, 11, 70, 107
21, 94016, Note_on_c, 11, 70, 0
21, 94032, Note_on_c, 11, 70, 111
21, 94064, Note_on_c, 11, 70, 0
21, 94080, Note_on_c, 11, 72, 113
21, 94112, Note_on_c, 11, 72, 0
21, 94128, Note_on_c, 11, 72, 114
21, 94160, Note_on_c, 11, 72, 0
21, 94176, Note_on_c, 11, 74, 114
21, 94208, Note_on_c, 11, 74, 0
21, 94224, Note_on_c, 11, 74, 121
21, 94256, Note_on_c, 11, 74, 0
21, 94272, Note_on_c, 11, 78, 120
21, 94304, Note_on_c, 11, 78, 0
21, 94320, Note_on_c, 11, 78, 125
21, 94352, Note_on_c, 11, 78, 0
21, 94368, Note_on_c, 11, 80, 122
21, 94400, Note_on_c, 11, 80, 0
21, 94416, Note_on_c, 11, 80, 126
21, 94448, Note_on_c, 11, 80, 0
21, 94560, Note_on_c, 11, 78, 105
21, 94592, Note_on_c, 11, 78, 0
21, 94608, Note_on_c, 11, 78, 111
21, 94640, Note_on_c, 11, 78, 0
21, 94656, Note_on_c, 11, 80, 105
21, 94688, Note_on_c, 11, 80, 0
21, 94704, Note_on_c, 11, 80, 112
21, 94736, Note_on_c, 11, 80, 0
21, 94752, Note_on_c, 11, 82, 106
21, 94784, Note_on_c, 11, 82, 0
21, 94800, Note_on_c, 11, 82, 107
21, 94832, Note_on_c, 11, 82, 0
21, 94848, Note_on_c, 11, 84, 114
21, 94880, Note_on_c, 11, 84, 0
21, 94896, Note_on_c, 11, 84, 117
21, 94928, Note_on_c, 11, 84, 0
21, 94944, Note_on_c, 11, 86, 119
21, 94976, Note_on_c, 11, 86, 0
21, 94992, Note_on_c, 11, 86, 123
21, 95024, Note_on_c, 11, 86, 0
21, 95040, Note_on_c, 11, 90, 119
21, 95072, Note_on_c, 11, 90, 0
21, 95088, Note_on_c, 11, 90, 126
21, 95120, Note_on_c, 11, 90, 0
21, 95136, Note_on_c, 11, 92, 127
21, 95168, Note_on_c, 11, 92, 0
21, 95184, Note_on_c, 11, 92, 123
21, 95216, Note_on_c, 11, 92, 0
21, 95616, Note_on_c, 11, 72, 95
21, 95648, Note_on_c, 11, 72, 0
21, 95664, Note_on_c, 11, 72, 88
21, 95696, Note_on_c, 11, 72, 0
21, 95712, Note_on_c, 11, 74, 89
21, 95744, Note_on_c, 11, 74, 0
21, 95760, Note_on_c, 11, 74, 87
21, 95792, Note_on_c, 11, 74, 0
21, 95808, Note_on_c, 11, 78, 79
21, 95840, Note_on_c, 11, 78, 0
21, 95856, Note_on_c, 11, 78, 75
21, 95888, Note_on_c, 11, 78, 0
21, 95904, Note_on_c, 11, 80, 67
21, 95936, Note_on_c, 11, 80, 0
21, 95952, Note_on_c, 11, 80, 63
21, 95984, Note_on_c, 11, 80, 0
21, 102912, Control_c, 11, 11, 127
21, 105984, Program_c, 11, 49
21, 105984, Note_on_c, 11, 90, 44
21, 105984, Note_on_c, 11, 94, 45
21, 106078, Note_on_c, 11, 90, 0
21, 106078, Note_on_c, 11, 94, 0
21, 106080, Note_on_c, 11, 84, 41
21, 106080, Note_on_c, 11, 92, 47
21, 106174, Note_on_c, 11, 84, 0
21, 106174, Note_on_c, 11, 92, 0
21, 106176, Note_on_c, 11, 82, 41
21, 106176, Note_on_c, 11, 90, 43
21, 106270, Note_on_c, 11, 82, 0
21, 106270, Note_on_c, 11, 90, 0
21, 106272, Note_on_c, 11, 80, 48
21, 106272, Note_on_c, 11, 84, 46
21, 106366, Note_on_c, 11, 80, 0
21, 106366, Note_on_c, 11, 84, 0
21, 106368, Note_on_c, 11, 78, 44
21, 106368, Note_on_c, 11, 82, 41
21, 106462, Note_on_c, 11, 78, 0
21, 106462, Note_on_c, 11, 82, 0
21, 106464, Note_on_c, 11, 72, 40
21, 106464, Note_on_c, 11, 80, 48
21, 106558, Note_on_c, 11, 72, 0
21, 106558, Note_on_c, 11, 80, 0
21, 106560, Note_on_c, 11, 70, 45
21, 106560, Note_on_c, 11, 78, 50
21, 106654, Note_on_c, 11, 70, 0
21, 106654, Note_on_c, 11, 78, 0
21, 106656, Note_on_c, 11, 68, 48
21, 106656, Note_on_c, 11, 72, 48
21, 106750, Note_on_c, 11, 68, 0
21, 106750, Note_on_c, 11, 72, 0
21, 106752, Note_on_c, 11, 66, 48
21, 106752, Note_on_c, 11, 70, 46
21, 106846, Note_on_c, 11, 66, 0
21, 106846, Note_on_c, 11, 70, 0
21, 106848, Note_on_c, 11, 68, 42
21, 106848, Note_on_c, 11, 72, 50
21, 106942, Note_on_c, 11, 68, 0
21, 106942, Note_on_c, 11, 72, 0
21, 106944, Note_on_c, 11, 70, 44
21, 106944, Note_on_c, 11, 78, 47
21, 107038, Note_on_c, 11, 70, 0
21, 107038, Note_on_c, 11, 78, 0
21, 107040, Note_on_c, 11, 72, 49
21, 107040, Note_on_c, 11, 80, 47
21, 107134, Note_on_c, 11, 72, 0
21, 107134, Note_on_c, 11, 80, 0
21, 107136, Note_on_c, 11, 78, 49
21, 107136, Note_on_c, 11, 82, 43
21, 107230, Note_on_c, 11, 78, 0
21, 107230, Note_on_c, 11, 82, 0
21, 107232, Note_on_c, 11, 80, 45
21, 107232, Note_on_c, 11, 84, 50
21, 107326, Note_on_c, 11, 80, 0
21, 107326, Note_on_c, 11, 84, 0
21, 107328, Note_on_c, 11, 82, 41
21, 107328, Note_on_c, 11, 90, 44
21, 107422, Note_on_c, 11, 82, 0
21, 107422, Note_on_c, 11, 90, 0
21, 107424, Note_on_c, 11, 84, 48
21, 107424, Note_on_c, 11, 92, 48
21, 107518, Note_on_c, 11, 84, 0
21, 107518, Note_on_c, 11, 92, 0
21, 107520, Note_on_c, 11, 90, 48
21, 107520, Note_on_c, 11, 94, 48
21, 107680, Note_on_c, 11, 90, 0
21, 107680, Note_on_c, 11, 94, 0
21, 110688, Note_on_c, 11, 90, 40
21, 110688, Note_on_c, 11, 94, 46
21, 110782, Note_on_c, 11, 90, 0
21, 110782, Note_on_c, 11, 94, 0
21, 110784, Note_on_c, 11, 84, 46
21, 110784, Note_on_c, 11, 92, 41
21, 110878, Note_on_c, 11, 84, 0
21, 110878, Note_on_c, 11, 92, 0
21, 110880, Note_on_c, 11, 86, 41
21, 110880, Note_on_c, 11, 90, 40
21, 110974, Note_on_c, 11, 86, 0
21, 110974, Note_on_c, 11, 90, 0
21, 110976, Note_on_c, 11, 80, 47
21, 110976, Note_on_c, 11, 84, 43
21, 111070, Note_on_c, 11, 80, 0
21, 111070, Note_on_c, 11, 84, 0
21, 111072, Note_on_c, 11, 78, 47
21, 111072, Note_on_c, 11, 82, 45
21, 111166, Note_on_c, 11, 78, 0
21, 111166, Note_on_c, 11, 82, 0
21, 111168, Note_on_c, 11, 72, 48
21, 111168, Note_on_c, 11, 80, 45
21, 111262, Note_on_c, 11, 72, 0
21, 111262, Note_on_c, 11, 80, 0
21, 111264, Note_on_c, 11, 74, 48
21, 111264, Note_on_c, 11, 78, 43
21, 111358, Note_on_c, 11, 74, 0
21, 111358, Note_on_c, 11, 78, 0
21, 111360, Note_on_c, 11, 68, 41
21, 111360, Note_on_c, 11, 72, 50
21, 111454, Note_on_c, 11, 68, 0
21, 111454, Note_on_c, 11, 72, 0
21, 111456, Note_on_c, 11, 66, 49
21, 111456, Note_on_c, 11, 70, 41
21, 111550, Note_on_c, 11, 66, 0
21, 111550, Note_on_c, 11, 70, 0
21, 111552, Note_on_c, 11, 60, 37
21, 111552, Note_on_c, 11, 68, 44
21, 111646, Note_on_c, 11, 60, 0
21, 111646, Note_on_c, 11, 68, 0
21, 111648, Note_on_c, 11, 62, 43
21, 111648, Note_on_c, 11, 66, 41
21, 111742, Note_on_c, 11, 62, 0
21, 111742, Note_on_c, 11, 66, 0
21, 111744, Note_on_c, 11, 68, 38
21, 111744, Note_on_c, 11, 72, 36
21, 111838, Note_on_c, 11, 68, 0
21, 111838, Note_on_c, 11, 72, 0
21, 111840, Note_on_c, 11, 66, 34
21, 111840, Note_on_c, 11, 70, 31
21, 111934, Note_on_c, 11, 66, 0
21, 111934, Note_on_c, 11, 70, 0
21, 111936, Note_on_c, 11, 60, 37
21, 111936, Note_on_c, 11, 68, 36
21, 112030, Note_on_c, 11, 60, 0
21, 112030, Note_on_c, 11, 68, 0
21, 112032, Note_on_c, 11, 62, 36
21, 112032, Note_on_c, 11, 66, 35
21, 112126, Note_on_c, 11, 62, 0
21, 112126, Note_on_c, 11, 66, 0
21, 112128, Note_on_c, 11, 58, 32
21, 112128, Note_on_c, 11, 60, 28
21, 112222, Note_on_c, 11, 58, 0
21, 112222, Note_on_c, 11, 60, 0
21, 112896, Control_c, 11, 11, 127
21, 113664, Program_c, 11, 48
21, 113664, Note_on_c, 11, 84, 71
21, 113856, Note_on_c, 11, 84, 0
21, 113856, Note_on_c, 11, 85, 72
21, 114048, Note_on_c, 11, 85, 0
21, 114048, Note_on_c, 11, 82, 77
21, 114176, Note_on_c, 11, 82, 0
21, 114176, Note_on_c, 11, 80, 70
21, 114304, Note_on_c, 11, 80, 0
21, 114304, Note_on_c, 11, 82, 73
21, 114430, Note_on_c, 11, 82, 0
21, 114432, Note_on_c, 11, 77, 80
21, 114624, Note_on_c, 11, 77, 0
21, 114624, Note_on_c, 11, 78, 63
21, 114816, Note_on_c, 11, 78, 0
21, 114816, Note_on_c, 11, 75, 63
21, 114944, Note_on_c, 11, 75, 0
21, 114944, Note_on_c, 11, 73, 51
21, 115072, Note_on_c, 11, 73, 0
21, 115072, Note_on_c, 11, 75, 52
21, 115198, Note_on_c, 11, 75, 0
21, 115200, Note_on_c, 11, 72, 45
21, 115392, Note_on_c, 11, 72, 0
21, 115392, Note_on_c, 11, 73, 40
21, 115584, Note_on_c, 11, 73, 0
21, 115584, Note_on_c, 11, 70, 44
21, 115675, Note_on_c, 11, 70, 0
21, 115712, Note_on_c, 11, 68, 54
21, 115803, Note_on_c, 11, 68, 0
21, 115840, Note_on_c, 11, 70, 66
21, 115931, Note_on_c, 11, 70, 0
21, 115968, Note_on_c, 11, 72, 80
21, 116160, Note_on_c, 11, 72, 0
21, 116160, Note_on_c, 11, 73, 73
21, 116352, Note_on_c, 11, 73, 0
21, 116352, Note_on_c, 11, 70, 64
21, 116544, Note_on_c, 11, 70, 0
21, 116544, Note_on_c, 11, 73, 49
21, 116704, Note_on_c, 11, 73, 0
21, 118464, Program_c, 11, 45
21, 118464, Note_on_c, 11, 60, 93
21, 118558, Note_on_c, 11, 60, 0
21, 120576, Control_c, 11, 11, 127
21, 121344, Program_c, 11, 49
21, 121344, Note_on_c, 11, 92, 32
21, 138192, Note_on_c, 11, 92, 0
21, 138240, Program_c, 11, 48
21, 139008, Note_on_c, 11, 88, 42
21, 139054, Note_on_c, 11, 88, 0
21, 139056, Note_on_c, 11, 88, 45
21, 139102, Note_on_c, 11, 88, 0
21, 139104, Note_on_c, 11, 88, 46
21, 139150, Note_on_c, 11, 88, 0
21, 139152, Note_on_c, 11, 88, 40
21, 139198, Note_on_c, 11, 88, 0
21, 139200, Note_on_c, 11, 88, 44
21, 139246, Note_on_c, 11, 88, 0
21, 139248, Note_on_c, 11, 88, 45
21, 139294, Note_on_c, 11, 88, 0
21, 139296, Note_on_c, 11, 88, 47
21, 139342, Note_on_c, 11, 88, 0
21, 139344, Note_on_c, 11, 88, 50
21, 139390, Note_on_c, 11, 88, 0
21, 139392, Note_on_c, 11, 88, 50
21, 139438, Note_on_c, 11, 88, 0
21, 139440, Note_on_c, 11, 88, 48
21, 139486, Note_on_c, 11, 88, 0
21, 139488, Note_on_c, 11, 88, 47
21, 139534, Note_on_c, 11, 88, 0
21, 139536, Note_on_c, 11, 88, 42
21, 139582, Note_on_c, 11, 88, 0
21, 139584, Note_on_c, 11, 88, 46
21, 139630, Note_on_c, 11, 88, 0
21, 139632, Note_on_c, 11, 88, 50
21, 139678, Note_on_c, 11, 88, 0
21, 139680, Note_on_c, 11, 88, 47
21, 139726, Note_on_c, 11, 88, 0
21, 139728, Note_on_c, 11, 88, 42
21, 139774, Note_on_c, 11, 88, 0
21, 140544, Note_on_c, 11, 88, 46
21, 140590, Note_on_c, 11, 88, 0
21, 140592, Note_on_c, 11, 88, 44
21, 140638, Note_on_c, 11, 88, 0
21, 140640, Note_on_c, 11, 88, 45
21, 140686, Note_on_c, 11, 88, 0
21, 140688, Note_on_c, 11, 88, 48
21, 140734, Note_on_c, 11, 88, 0
21, 140736, Note_on_c, 11, 88, 49
21, 140782, Note_on_c, 11, 88, 0
21, 140784, Note_on_c, 11, 88, 42
21, 140830, Note_on_c, 11, 88, 0
21, 140832, Note_on_c, 11, 88, 48
21, 140878, Note_on_c, 11, 88, 0
21, 140880, Note_on_c, 11, 88, 49
21, 140926, Note_on_c, 11, 88, 0
21, 140928, Note_on_c, 11, 88, 46
21, 140974, Note_on_c, 11, 88, 0
21, 140976, Note_on_c, 11, 88, 42
21, 141022, Note_on_c, 11, 88, 0
21, 141024, Note_on_c, 11, 88, 41
21, 141070, Note_on_c, 11, 88, 0
21, 141072, Note_on_c, 11, 88, 48
21, 141118, Note_on_c, 11, 88, 0
21, 141120, Note_on_c, 11, 88, 42
21, 141166, Note_on_c, 11, 88, 0
21, 141168, Note_on_c, 11, 88, 49
21, 141214, Note_on_c, 11, 88, 0
21, 141216, Note_on_c, 11, 88, 48
21, 141262, Note_on_c, 11, 88, 0
21, 141264, Note_on_c, 11, 88, 48
21, 141310, Note_on_c, 11, 88, 0
21, 142080, Note_on_c, 11, 88, 33
21, 142126, Note_on_c, 11, 88, 0
21, 142128, Note_on_c, 11, 88, 30
21, 142174, Note_on_c, 11, 88, 0
21, 142176, Note_on_c, 11, 88, 35
21, 142222, Note_on_c, 11, 88, 0
21, 142224, Note_on_c, 11, 88, 34
21, 142270, Note_on_c, 11, 88, 0
21, 142272, Note_on_c, 11, 88, 28
21, 142318, Note_on_c, 11, 88, 0
21, 142320, Note_on_c, 11, 88, 31
21, 142366, Note_on_c, 11, 88, 0
21, 142368, Note_on_c, 11, 88, 31
21, 142414, Note_on_c, 11, 88, 0
21, 142416, Note_on_c, 11, 88, 29
21, 142462, Note_on_c, 11, 88, 0
21, 142464, Note_on_c, 11, 88, 34
21, 142510, Note_on_c, 11, 88, 0
21, 142512, Note_on_c, 11, 88, 26
21, 142558, Note_on_c, 11, 88, 0
21, 142560, Note_on_c, 11, 88, 30
21, 142606, Note_on_c, 11, 88, 0
21, 142608, Note_on_c, 11, 88, 34
21, 142654, Note_on_c, 11, 88, 0
21, 142656, Note_on_c, 11, 88, 26
21, 142702, Note_on_c, 11, 88, 0
21, 142704, Note_on_c, 11, 88, 32
21, 142750, Note_on_c, 11, 88, 0
21, 142752, Note_on_c, 11, 88, 30
21, 142798, Note_on_c, 11, 88, 0
21, 142800, Note_on_c, 11, 88, 30
21, 142846, Note_on_c, 11, 88, 0
21, 143616, Note_on_c, 11, 88, 35
21, 143662, Note_on_c, 11, 88, 0
21, 143664, Note_on_c, 11, 88, 34
21, 143710, Note_on_c, 11, 88, 0
21, 143712, Note_on_c, 11, 88, 34
21, 143758, Note_on_c, 11, 88, 0
21, 143760, Note_on_c, 11, 88, 31
21, 143806, Note_on_c, 11, 88, 0
21, 143808, Note_on_c, 11, 88, 35
21, 143854, Note_on_c, 11, 88, 0
21, 143856, Note_on_c, 11, 88, 29
21, 143902, Note_on_c, 11, 88, 0
21, 143904, Note_on_c, 11, 88, 31
21, 143950, Note_on_c, 11, 88, 0
21, 143952, Note_on_c, 11, 88, 26
21, 143998, Note_on_c, 11, 88, 0
21, 144000, Note_on_c, 11, 88, 30
21, 144046, Note_on_c, 11, 88, 0
21, 144048, Note_on_c, 11, 88, 25
21, 144094, Note_on_c, 11, 88, 0
21, 144096, Note_on_c, 11, 88, 28
21, 144142, Note_on_c, 11, 88, 0
21, 144144, Note_on_c, 11, 88, 32
21, 144190, Note_on_c, 11, 88, 0
21, 144192, Note_on_c, 11, 88, 28
21, 144238, Note_on_c, 11, 88, 0
21, 144240, Note_on_c, 11, 88, 25
21, 144286, Note_on_c, 11, 88, 0
21, 144288, Note_on_c, 11, 88, 31
21, 144334, Note_on_c, 11, 88, 0
21, 144336, Note_on_c, 11, 88, 28
21, 144382, Note_on_c, 11, 88, 0
21, 149088, Note_on_c, 11, 79, 77
21, 149134, Note_on_c, 11, 79, 0
21, 149136, Note_on_c, 11, 79, 75
21, 149182, Note_on_c, 11, 79, 0
21, 149184, Note_on_c, 11, 79, 80
21, 149230, Note_on_c, 11, 79, 0
21, 149232, Note_on_c, 11, 79, 73
21, 149278, Note_on_c, 11, 79, 0
21, 149280, Note_on_c, 11, 78, 79
21, 149326, Note_on_c, 11, 78, 0
21, 149328, Note_on_c, 11, 78, 80
21, 149374, Note_on_c, 11, 78, 0
21, 149472, Note_on_c, 11, 78, 71
21, 149518, Note_on_c, 11, 78, 0
21, 149520, Note_on_c, 11, 78, 78
21, 149566, Note_on_c, 11, 78, 0
21, 149568, Note_on_c, 11, 78, 75
21, 149614, Note_on_c, 11, 78, 0
21, 149616, Note_on_c, 11, 78, 73
21, 149662, Note_on_c, 11, 78, 0
21, 149664, Note_on_c, 11, 79, 75
21, 149710, Note_on_c, 11, 79, 0
21, 149712, Note_on_c, 11, 79, 76
21, 149758, Note_on_c, 11, 79, 0
21, 149856, Note_on_c, 11, 92, 76
21, 149902, Note_on_c, 11, 92, 0
21, 149904, Note_on_c, 11, 92, 76
21, 149950, Note_on_c, 11, 92, 0
21, 149952, Note_on_c, 11, 92, 77
21, 149998, Note_on_c, 11, 92, 0
21, 150000, Note_on_c, 11, 92, 79
21, 150046, Note_on_c, 11, 92, 0
21, 150048, Note_on_c, 11, 91, 75
21, 150094, Note_on_c, 11, 91, 0
21, 150096, Note_on_c, 11, 91, 78
21, 150142, Note_on_c, 11, 91, 0
21, 150240, Note_on_c, 11, 91, 84
21, 150286, Note_on_c, 11, 91, 0
21, 150288, Note_on_c, 11, 91, 79
21, 150334, Note_on_c, 11, 91, 0
21, 150336, Note_on_c, 11, 91, 87
21, 150382, Note_on_c, 11, 91, 0
21, 150384, Note_on_c, 11, 91, 92
21, 150430, Note_on_c, 11, 91, 0
21, 150432, Note_on_c, 11, 92, 95
21, 150478, Note_on_c, 11, 92, 0
21, 150480, Note_on_c, 11, 92, 87
21, 150526, Note_on_c, 11, 92, 0
21, 150528, Control_c, 11, 11, 92
21, 150528, Note_on_c, 11, 93, 107
21, 150656, Note_on_c, 11, 93, 0
21, 150656, Note_on_c, 11, 93, 104
21, 150784, Note_on_c, 11, 93, 0
21, 150784, Note_on_c, 11, 92, 105
21, 151296, Control_c, 11, 11, 92
21, 151317, Control_c, 11, 11, 93
21, 151339, Control_c, 11, 11, 94
21, 151361, Control_c, 11, 11, 95
21, 151383, Control_c, 11, 11, 96
21, 151405, Control_c, 11, 11, 97
21, 151427, Control_c, 11, 11, 98
21, 151449, Control_c, 11, 11, 99
21, 151471, Control_c, 11, 11, 100
21, 151493, Control_c, 11, 11, 101
21, 151515, Control_c, 11, 11, 102
21, 151537, Control_c, 11, 11, 103
21, 151559, Control_c, 11, 11, 104
21, 151581, Control_c, 11, 11, 105
21, 151603, Control_c, 11, 11, 106
21, 151625, Control_c, 11, 11, 107
21, 151647, Control_c, 11, 11, 108
21, 151669, Control_c, 11, 11, 109
21, 151680, Note_on_c, 11, 92, 0
21, 151680, Note_on_c, 11, 93, 104
21, 151690, Control_c, 11, 11, 110
21, 151712, Control_c, 11, 11, 111
21, 151734, Control_c, 11, 11, 112
21, 151756, Control_c, 11, 11, 113
21, 151778, Control_c, 11, 11, 114
21, 151800, Control_c, 11, 11, 115
21, 151808, Note_on_c, 11, 93, 0
21, 151808, Note_on_c, 11, 93, 111
21, 151822, Control_c, 11, 11, 116
21, 151844, Control_c, 11, 11, 117
21, 151866, Control_c, 11, 11, 118
21, 151888, Control_c, 11, 11, 119
21, 151910, Control_c, 11, 11, 120
21, 151932, Control_c, 11, 11, 121
21, 151936, Note_on_c, 11, 93, 0
21, 151936, Note_on_c, 11, 92, 108
21, 151954, Control_c, 11, 11, 122
21, 151976, Control_c, 11, 11, 123
21, 151998, Control_c, 11, 11, 124
21, 152020, Control_c, 11, 11, 125
21, 152042, Control_c, 11, 11, 126
21, 152062, Note_on_c, 11, 92, 0
21, 152064, Control_c, 11, 11, 127
21, 152064, Control_c, 11, 11, 92
21, 152064, Note_on_c, 11, 94, 113
21, 152192, Note_on_c, 11, 94, 0
21, 152192, Note_on_c, 11, 94, 105
21, 152320, Note_on_c, 11, 94, 0
21, 152320, Note_on_c, 11, 92, 105
21, 152832, Control_c, 11, 11, 92
21, 152853, Control_c, 11, 11, 93
21, 152875, Control_c, 11, 11, 94
21, 152897, Control_c, 11, 11, 95
21, 152919, Control_c, 11, 11, 96
21, 152941, Control_c, 11, 11, 97
21, 152963, Control_c, 11, 11, 98
21, 152985, Control_c, 11, 11, 99
21, 153007, Control_c, 11, 11, 100
21, 153029, Control_c, 11, 11, 101
21, 153051, Control_c, 11, 11, 102
21, 153073, Control_c, 11, 11, 103
21, 153095, Control_c, 11, 11, 104
21, 153117, Control_c, 11, 11, 105
21, 153139, Control_c, 11, 11, 106
21, 153161, Control_c, 11, 11, 107
21, 153183, Control_c, 11, 11, 108
21, 153205, Control_c, 11, 11, 109
21, 153216, Note_on_c, 11, 92, 0
21, 153216, Note_on_c, 11, 94, 106
21, 153226, Control_c, 11, 11, 110
21, 153248, Control_c, 11, 11, 111
21, 153270, Control_c, 11, 11, 112
21, 153292, Control_c, 11, 11, 113
21, 153314, Control_c, 11, 11, 114
21, 153336, Control_c, 11, 11, 115
21, 153344, Note_on_c, 11, 94, 0
21, 153344, Note_on_c, 11, 94, 105
21, 153358, Control_c, 11, 11, 116
21, 153380, Control_c, 11, 11, 117
21, 153402, Control_c, 11, 11, 118
21, 153424, Control_c, 11, 11, 119
21, 153446, Control_c, 11, 11, 120
21, 153468, Control_c, 11, 11, 121
21, 153472, Note_on_c, 11, 94, 0
21, 153472, Note_on_c, 11, 92, 105
21, 153490, Control_c, 11, 11, 122
21, 153512, Control_c, 11, 11, 123
21, 153534, Control_c, 11, 11, 124
21, 153556, Control_c, 11, 11, 125
21, 153578, Control_c, 11, 11, 126
21, 153598, Note_on_c, 11, 92, 0
21, 153600, Control_c, 11, 11, 127
21, 153600, Note_on_c, 11, 95, 89
21, 153668, Note_on_c, 11, 95, 0
21, 153696, Note_on_c, 11, 95, 97
21, 153764, Note_on_c, 11, 95, 0
21, 153792, Note_on_c, 11, 95, 87
21, 153860, Note_on_c, 11, 95, 0
21, 153888, Note_on_c, 11, 94, 97
21, 153956, Note_on_c, 11, 94, 0
21, 153984, Note_on_c, 11, 93, 90
21, 154052, Note_on_c, 11, 93, 0
21, 154080, Note_on_c, 11, 93, 92
21, 154148, Note_on_c, 11, 93, 0
21, 154176, Note_on_c, 11, 93, 95
21, 154244, Note_on_c, 11, 93, 0
21, 154272, Note_on_c, 11, 92, 97
21, 154340, Note_on_c, 11, 92, 0
21, 154368, Note_on_c, 11, 91, 87
21, 154436, Note_on_c, 11, 91, 0
21, 154464, Note_on_c, 11, 91, 88
21, 154532, Note_on_c, 11, 91, 0
21, 154560, Note_on_c, 11, 91, 95
21, 154628, Note_on_c, 11, 91, 0
21, 154656, Note_on_c, 11, 90, 97
21, 154724, Note_on_c, 11, 90, 0
21, 154752, Note_on_c, 11, 89, 87
21, 154820, Note_on_c, 11, 89, 0
21, 154848, Note_on_c, 11, 89, 93
21, 154916, Note_on_c, 11, 89, 0
21, 154944, Note_on_c, 11, 89, 97
21, 155012, Note_on_c, 11, 89, 0
21, 155040, Note_on_c, 11, 88, 87
21, 155108, Note_on_c, 11, 88, 0
21, 155136, Note_on_c, 11, 87, 91
21, 155204, Note_on_c, 11, 87, 0
21, 155232, Note_on_c, 11, 87, 91
21, 155300, Note_on_c, 11, 87, 0
21, 155328, Note_on_c, 11, 87, 94
21, 155396, Note_on_c, 11, 87, 0
21, 155424, Note_on_c, 11, 86, 91
21, 155492, Note_on_c, 11, 86, 0
21, 155520, Note_on_c, 11, 85, 93
21, 155588, Note_on_c, 11, 85, 0
21, 155616, Note_on_c, 11, 85, 92
21, 155684, Note_on_c, 11, 85, 0
21, 155712, Note_on_c, 11, 85, 96
21, 155780, Note_on_c, 11, 85, 0
21, 155808, Note_on_c, 11, 84, 97
21, 155876, Note_on_c, 11, 84, 0
21, 155904, Note_on_c, 11, 83, 102
21, 155972, Note_on_c, 11, 83, 0
21, 156000, Note_on_c, 11, 83, 106
21, 156068, Note_on_c, 11, 83, 0
21, 156096, Note_on_c, 11, 83, 102
21, 156164, Note_on_c, 11, 83, 0
21, 156192, Note_on_c, 11, 82, 98
21, 156260, Note_on_c, 11, 82, 0
21, 156288, Note_on_c, 11, 81, 104
21, 156356, Note_on_c, 11, 81, 0
21, 156384, Note_on_c, 11, 80, 101
21, 156452, Note_on_c, 11, 80, 0
21, 156480, Note_on_c, 11, 79, 107
21, 156548, Note_on_c, 11, 79, 0
21, 156576, Note_on_c, 11, 78, 110
21, 156608, Note_on_c, 11, 78, 0
21, 156672, Note_on_c, 11, 65, 110
21, 156960, Note_on_c, 11, 65, 0
21, 156960, Note_on_c, 11, 64, 113
21, 157056, Note_on_c, 11, 64, 0
21, 157056, Note_on_c, 11, 63, 103
21, 157344, Note_on_c, 11, 63, 0
21, 157344, Note_on_c, 11, 64, 109
21, 157438, Note_on_c, 11, 64, 0
21, 157440, Note_on_c, 11, 65, 107
21, 157728, Note_on_c, 11, 65, 0
21, 157728, Note_on_c, 11, 64, 110
21, 157824, Note_on_c, 11, 64, 0
21, 157824, Control_c, 11, 11, 92
21, 157824, Note_on_c, 11, 63, 109
21, 157834, Control_c, 11, 11, 93
21, 157845, Control_c, 11, 11, 94
21, 157856, Control_c, 11, 11, 95
21, 157867, Control_c, 11, 11, 96
21, 157878, Control_c, 11, 11, 97
21, 157889, Control_c, 11, 11, 98
21, 157900, Control_c, 11, 11, 99
21, 157911, Control_c, 11, 11, 100
21, 157922, Control_c, 11, 11, 101
21, 157933, Control_c, 11, 11, 102
21, 157944, Control_c, 11, 11, 103
21, 157952, Note_on_c, 11, 63, 0
21, 157952, Note_on_c, 11, 66, 110
21, 157955, Control_c, 11, 11, 104
21, 157966, Control_c, 11, 11, 105
21, 157977, Control_c, 11, 11, 106
21, 157988, Control_c, 11, 11, 107
21, 157999, Control_c, 11, 11, 108
21, 158010, Control_c, 11, 11, 109
21, 158021, Control_c, 11, 11, 110
21, 158032, Control_c, 11, 11, 111
21, 158043, Control_c, 11, 11, 112
21, 158054, Control_c, 11, 11, 113
21, 158065, Control_c, 11, 11, 114
21, 158076, Control_c, 11, 11, 115
21, 158080, Note_on_c, 11, 66, 0
21, 158080, Note_on_c, 11, 68, 110
21, 158087, Control_c, 11, 11, 116
21, 158098, Control_c, 11, 11, 117
21, 158109, Control_c, 11, 11, 118
21, 158120, Control_c, 11, 11, 119
21, 158131, Control_c, 11, 11, 120
21, 158142, Control_c, 11, 11, 121
21, 158153, Control_c, 11, 11, 122
21, 158164, Control_c, 11, 11, 123
21, 158175, Control_c, 11, 11, 124
21, 158186, Control_c, 11, 11, 125
21, 158197, Control_c, 11, 11, 126
21, 158206, Note_on_c, 11, 68, 0
21, 158208, Control_c, 11, 11, 127
21, 158208, Note_on_c, 11, 65, 88
21, 158496, Note_on_c, 11, 65, 0
21, 158496, Note_on_c, 11, 64, 91
21, 158592, Note_on_c, 11, 64, 0
21, 158592, Note_on_c, 11, 63, 93
21, 158880, Note_on_c, 11, 63, 0
21, 158880, Note_on_c, 11, 64, 94
21, 158976, Note_on_c, 11, 64, 0
21, 158976, Note_on_c, 11, 65, 92
21, 159264, Note_on_c, 11, 65, 0
21, 159264, Note_on_c, 11, 64, 92
21, 159360, Note_on_c, 11, 64, 0
21, 159360, Note_on_c, 11, 63, 87
21, 159451, Note_on_c, 11, 63, 0
21, 159488, Note_on_c, 11, 62, 87
21, 159579, Note_on_c, 11, 62, 0
21, 159616, Note_on_c, 11, 61, 95
21, 159742, Note_on_c, 11, 61, 0
21, 159744, Note_on_c, 11, 57, 72
21, 160032, Note_on_c, 11, 57, 0
21, 160032, Note_on_c, 11, 56, 80
21, 160128, Note_on_c, 11, 56, 0
21, 160128, Note_on_c, 11, 55, 70
21, 160416, Note_on_c, 11, 55, 0
21, 160416, Note_on_c, 11, 56, 79
21, 160512, Note_on_c, 11, 56, 0
21, 160512, Note_on_c, 11, 57, 77
21, 160800, Note_on_c, 11, 57, 0
21, 160800, Note_on_c, 11, 56, 78
21, 160896, Note_on_c, 11, 56, 0
21, 160896, Note_on_c, 11, 54, 80
21, 160987, Note_on_c, 11, 54, 0
21, 161024, Note_on_c, 11, 59, 79
21, 161115, Note_on_c, 11, 59, 0
21, 161152, Note_on_c, 11, 61, 94
21, 161243, Note_on_c, 11, 61, 0
21, 161280, Control_c, 11, 11, 127
21, 161280, Note_on_c, 11, 61, 46
21, 161304, Control_c, 11, 11, 126
21, 161328, Control_c, 11, 11, 125
21, 161353, Control_c, 11, 11, 124
21, 161377, Control_c, 11, 11, 123
21, 161401, Control_c, 11, 11, 122
21, 161426, Control_c, 11, 11, 121
21, 161450, Control_c, 11, 11, 120
21, 161475, Control_c, 11, 11, 119
21, 161499, Control_c, 11, 11, 118
21, 161523, Control_c, 11, 11, 117
21, 161548, Control_c, 11, 11, 116
21, 161568, Note_on_c, 11, 61, 0
21, 161568, Note_on_c, 11, 60, 49
21, 161572, Control_c, 11, 11, 115
21, 161596, Control_c, 11, 11, 114
21, 161621, Control_c, 11, 11, 113
21, 161645, Control_c, 11, 11, 112
21, 161664, Note_on_c, 11, 60, 0
21, 161664, Note_on_c, 11, 59, 50
21, 161670, Control_c, 11, 11, 111
21, 161694, Control_c, 11, 11, 110
21, 161718, Control_c, 11, 11, 109
21, 161743, Control_c, 11, 11, 108
21, 161767, Control_c, 11, 11, 107
21, 161792, Control_c, 11, 11, 106
21, 161816, Control_c, 11, 11, 105
21, 161840, Control_c, 11, 11, 104
21, 161865, Control_c, 11, 11, 103
21, 161889, Control_c, 11, 11, 102
21, 161913, Control_c, 11, 11, 101
21, 161938, Control_c, 11, 11, 100
21, 161952, Note_on_c, 11, 59, 0
21, 161952, Note_on_c, 11, 60, 42
21, 161962, Control_c, 11, 11, 99
21, 161987, Control_c, 11, 11, 98
21, 162011, Control_c, 11, 11, 97
21, 162035, Control_c, 11, 11, 96
21, 162048, Note_on_c, 11, 60, 0
21, 162048, Note_on_c, 11, 61, 46
21, 162060, Control_c, 11, 11, 95
21, 162084, Control_c, 11, 11, 94
21, 162108, Control_c, 11, 11, 93
21, 162133, Control_c, 11, 11, 92
21, 162157, Control_c, 11, 11, 91
21, 162182, Control_c, 11, 11, 90
21, 162206, Control_c, 11, 11, 89
21, 162230, Control_c, 11, 11, 88
21, 162255, Control_c, 11, 11, 87
21, 162279, Control_c, 11, 11, 86
21, 162304, Control_c, 11, 11, 85
21, 162328, Control_c, 11, 11, 84
21, 162336, Note_on_c, 11, 61, 0
21, 162336, Note_on_c, 11, 60, 42
21, 162352, Control_c, 11, 11, 83
21, 162377, Control_c, 11, 11, 82
21, 162401, Control_c, 11, 11, 81
21, 162425, Control_c, 11, 11, 80
21, 162432, Note_on_c, 11, 60, 0
21, 162432, Note_on_c, 11, 59, 43
21, 162450, Control_c, 11, 11, 79
21, 162474, Control_c, 11, 11, 78
21, 162499, Control_c, 11, 11, 77
21, 162523, Note_on_c, 11, 59, 0
21, 162523, Control_c, 11, 11, 76
21, 162547, Control_c, 11, 11, 75
21, 162560, Note_on_c, 11, 58, 47
21, 162572, Control_c, 11, 11, 74
21, 162596, Control_c, 11, 11, 73
21, 162620, Control_c, 11, 11, 72
21, 162645, Control_c, 11, 11, 71
21, 162651, Note_on_c, 11, 58, 0
21, 162669, Control_c, 11, 11, 70
21, 162688, Note_on_c, 11, 57, 41
21, 162694, Control_c, 11, 11, 69
21, 162718, Control_c, 11, 11, 68
21, 162742, Control_c, 11, 11, 67
21, 162767, Control_c, 11, 11, 66
21, 162779, Note_on_c, 11, 57, 0
21, 162791, Control_c, 11, 11, 65
21, 162816, Control_c, 11, 11, 64
21, 162816, Note_on_c, 11, 56, 40
21, 162910, Note_on_c, 11, 56, 0
21, 163584, Control_c, 11, 11, 127
21, 166656, Program_c, 11, 45
21, 167040, Note_on_c, 11, 82, 104
21, 167134, Note_on_c, 11, 82, 0
21, 167424, Program_c, 11, 48
21, 168288, Note_on_c, 11, 70, 46
21, 168334, Note_on_c, 11, 70, 0
21, 168336, Note_on_c, 11, 70, 41
21, 168382, Note_on_c, 11, 70, 0
21, 168384, Note_on_c, 11, 71, 46
21, 168430, Note_on_c, 11, 71, 0
21, 168432, Note_on_c, 11, 71, 52
21, 168478, Note_on_c, 11, 71, 0
21, 168480, Note_on_c, 11, 73, 60
21, 168526, Note_on_c, 11, 73, 0
21, 168528, Note_on_c, 11, 73, 62
21, 168574, Note_on_c, 11, 73, 0
21, 168576, Note_on_c, 11, 75, 59
21, 168622, Note_on_c, 11, 75, 0
21, 168624, Note_on_c, 11, 75, 70
21, 168670, Note_on_c, 11, 75, 0
21, 168672, Note_on_c, 11, 76, 75
21, 168718, Note_on_c, 11, 76, 0
21, 168720, Note_on_c, 11, 76, 80
21, 168766, Note_on_c, 11, 76, 0
21, 168768, Note_on_c, 11, 80, 76
21, 168814, Note_on_c, 11, 80, 0
21, 168816, Note_on_c, 11, 80, 79
21, 168862, Note_on_c, 11, 80, 0
21, 168864, Note_on_c, 11, 82, 92
21, 168910, Note_on_c, 11, 82, 0
21, 168912, Note_on_c, 11, 82, 97
21, 168958, Note_on_c, 11, 82, 0
21, 169728, Program_c, 11, 45
21, 169728, Note_on_c, 11, 73, 46
21, 169822, Note_on_c, 11, 73, 0
21, 170112, Note_on_c, 11, 61, 35
21, 170206, Note_on_c, 11, 61, 0
21, 179712, Program_c, 11, 48
21, 180480, Control_c, 11, 11, 75
21, 180480, Note_on_c, 11, 85, 105
21, 180672, Note_on_c, 11, 85, 0
21, 180672, Note_on_c, 11, 87, 106
21, 180864, Note_on_c, 11, 87, 0
21, 180864, Control_c, 11, 11, 75
21, 180864, Note_on_c, 11, 91, 110
21, 180900, Control_c, 11, 11, 76
21, 180937, Control_c, 11, 11, 77
21, 180974, Control_c, 11, 11, 78
21, 181011, Control_c, 11, 11, 79
21, 181048, Control_c, 11, 11, 80
21, 181085, Control_c, 11, 11, 81
21, 181122, Control_c, 11, 11, 82
21, 181159, Control_c, 11, 11, 83
21, 181196, Control_c, 11, 11, 84
21, 181233, Control_c, 11, 11, 85
21, 181270, Control_c, 11, 11, 86
21, 181307, Control_c, 11, 11, 87
21, 181343, Control_c, 11, 11, 88
21, 181376, Note_on_c, 11, 91, 0
21, 181376, Note_on_c, 11, 89, 113
21, 181380, Control_c, 11, 11, 89
21, 181417, Control_c, 11, 11, 90
21, 181454, Control_c, 11, 11, 91
21, 181491, Control_c, 11, 11, 92
21, 181504, Note_on_c, 11, 89, 0
21, 181504, Note_on_c, 11, 87, 108
21, 181528, Control_c, 11, 11, 93
21, 181565, Control_c, 11, 11, 94
21, 181602, Control_c, 11, 11, 95
21, 181632, Note_on_c, 11, 87, 0
21, 181632, Note_on_c, 11, 85, 105
21, 181639, Control_c, 11, 11, 96
21, 181676, Control_c, 11, 11, 97
21, 181713, Control_c, 11, 11, 98
21, 181750, Control_c, 11, 11, 99
21, 181787, Control_c, 11, 11, 100
21, 181823, Control_c, 11, 11, 101
21, 181824, Note_on_c, 11, 85, 0
21, 181824, Note_on_c, 11, 84, 107
21, 181860, Control_c, 11, 11, 102
21, 181897, Control_c, 11, 11, 103
21, 181934, Control_c, 11, 11, 104
21, 181971, Control_c, 11, 11, 105
21, 182008, Control_c, 11, 11, 106
21, 182016, Note_on_c, 11, 84, 0
21, 182016, Note_on_c, 11, 82, 106
21, 182045, Control_c, 11, 11, 107
21, 182082, Control_c, 11, 11, 108
21, 182119, Control_c, 11, 11, 109
21, 182156, Control_c, 11, 11, 110
21, 182176, Note_on_c, 11, 82, 0
21, 182193, Control_c, 11, 11, 111
21, 182208, Note_on_c, 11, 85, 105
21, 182230, Control_c, 11, 11, 112
21, 182267, Control_c, 11, 11, 113
21, 182303, Control_c, 11, 11, 114
21, 182340, Control_c, 11, 11, 115
21, 182377, Control_c, 11, 11, 116
21, 182414, Control_c, 11, 11, 117
21, 182451, Control_c, 11, 11, 118
21, 182488, Control_c, 11, 11, 119
21, 182525, Control_c, 11, 11, 120
21, 182562, Control_c, 11, 11, 121
21, 182592, Note_on_c, 11, 85, 0
21, 182592, Note_on_c, 11, 87, 108
21, 182599, Control_c, 11, 11, 122
21, 182636, Control_c, 11, 11, 123
21, 182673, Control_c, 11, 11, 124
21, 182710, Control_c, 11, 11, 125
21, 182747, Control_c, 11, 11, 126
21, 182752, Note_on_c, 11, 87, 0
21, 182784, Control_c, 11, 11, 127
21, 182784, Control_c, 11, 11, 92
21, 182784, Program_c, 11, 44
21, 182784, Note_on_c, 11, 91, 113
21, 182789, Control_c, 11, 11, 93
21, 182794, Control_c, 11, 11, 94
21, 182800, Control_c, 11, 11, 95
21, 182805, Control_c, 11, 11, 96
21, 182811, Control_c, 11, 11, 97
21, 182816, Control_c, 11, 11, 98
21, 182822, Control_c, 11, 11, 99
21, 182827, Control_c, 11, 11, 100
21, 182833, Control_c, 11, 11, 101
21, 182838, Control_c, 11, 11, 102
21, 182844, Control_c, 11, 11, 103
21, 182849, Control_c, 11, 11, 104
21, 182855, Control_c, 11, 11, 105
21, 182860, Control_c, 11, 11, 106
21, 182866, Control_c, 11, 11, 107
21, 182871, Control_c, 11, 11, 108
21, 182877, Control_c, 11, 11, 109
21, 182882, Control_c, 11, 11, 110
21, 182888, Control_c, 11, 11, 111
21, 182893, Control_c, 11, 11, 112
21, 182899, Control_c, 11, 11, 113
21, 182904, Control_c, 11, 11, 114
21, 182910, Control_c, 11, 11, 115
21, 182915, Control_c, 11, 11, 116
21, 182921, Control_c, 11, 11, 117
21, 182926, Control_c, 11, 11, 118
21, 182932, Control_c, 11, 11, 119
21, 182937, Control_c, 11, 11, 120
21, 182943, Control_c, 11, 11, 121
21, 182948, Control_c, 11, 11, 122
21, 182954, Control_c, 11, 11, 123
21, 182959, Control_c, 11, 11, 124
21, 182965, Control_c, 11, 11, 125
21, 182970, Control_c, 11, 11, 126
21, 182976, Control_c, 11, 11, 127
21, 182979, Control_c, 11, 11, 126
21, 182982, Control_c, 11, 11, 125
21, 182985, Control_c, 11, 11, 124
21, 182988, Control_c, 11, 11, 123
21, 182991, Control_c, 11, 11, 122
21, 182994, Control_c, 11, 11, 121
21, 182997, Control_c, 11, 11, 120
21, 183000, Control_c, 11, 11, 119
21, 183003, Control_c, 11, 11, 118
21, 183006, Control_c, 11, 11, 117
21, 183009, Control_c, 11, 11, 116
21, 183012, Control_c, 11, 11, 115
21, 183015, Control_c, 11, 11, 114
21, 183018, Control_c, 11, 11, 113
21, 183021, Control_c, 11, 11, 112
21, 183024, Control_c, 11, 11, 111
21, 183027, Control_c, 11, 11, 110
21, 183030, Control_c, 11, 11, 109
21, 183033, Control_c, 11, 11, 108
21, 183036, Control_c, 11, 11, 107
21, 183040, Control_c, 11, 11, 106
21, 183043, Control_c, 11, 11, 105
21, 183046, Control_c, 11, 11, 104
21, 183049, Control_c, 11, 11, 103
21, 183052, Control_c, 11, 11, 102
21, 183055, Control_c, 11, 11, 101
21, 183058, Control_c, 11, 11, 100
21, 183061, Control_c, 11, 11, 99
21, 183064, Control_c, 11, 11, 98
21, 183067, Control_c, 11, 11, 97
21, 183070, Control_c, 11, 11, 96
21, 183073, Control_c, 11, 11, 95
21, 183076, Control_c, 11, 11, 94
21, 183079, Control_c, 11, 11, 93
21, 183082, Control_c, 11, 11, 92
21, 183085, Control_c, 11, 11, 91
21, 183088, Control_c, 11, 11, 90
21, 183091, Control_c, 11, 11, 89
21, 183094, Control_c, 11, 11, 88
21, 183097, Control_c, 11, 11, 87
21, 183100, Control_c, 11, 11, 86
21, 183104, Control_c, 11, 11, 85
21, 183107, Control_c, 11, 11, 84
21, 183110, Control_c, 11, 11, 83
21, 183113, Control_c, 11, 11, 82
21, 183116, Control_c, 11, 11, 81
21, 183119, Control_c, 11, 11, 80
21, 183122, Control_c, 11, 11, 79
21, 183125, Control_c, 11, 11, 78
21, 183128, Control_c, 11, 11, 77
21, 183131, Control_c, 11, 11, 76
21, 183134, Control_c, 11, 11, 75
21, 183137, Control_c, 11, 11, 74
21, 183140, Control_c, 11, 11, 73
21, 183143, Control_c, 11, 11, 72
21, 183146, Control_c, 11, 11, 71
21, 183149, Control_c, 11, 11, 70
21, 183152, Control_c, 11, 11, 69
21, 183155, Control_c, 11, 11, 68
21, 183158, Control_c, 11, 11, 67
21, 183161, Control_c, 11, 11, 66
21, 183164, Control_c, 11, 11, 65
21, 183168, Control_c, 11, 11, 64
21, 184320, Note_on_c, 11, 91, 0
21, 184320, Control_c, 11, 11, 64
21, 184320, Note_on_c, 11, 92, 110
21, 184344, Control_c, 11, 11, 65
21, 184368, Control_c, 11, 11, 66
21, 184393, Control_c, 11, 11, 67
21, 184417, Control_c, 11, 11, 68
21, 184441, Control_c, 11, 11, 69
21, 184466, Control_c, 11, 11, 70
21, 184490, Control_c, 11, 11, 71
21, 184515, Control_c, 11, 11, 72
21, 184539, Control_c, 11, 11, 73
21, 184563, Control_c, 11, 11, 74
21, 184588, Control_c, 11, 11, 75
21, 184612, Control_c, 11, 11, 76
21, 184636, Control_c, 11, 11, 77
21, 184661, Control_c, 11, 11, 78
21, 184685, Control_c, 11, 11, 79
21, 184710, Control_c, 11, 11, 80
21, 184734, Control_c, 11, 11, 81
21, 184758, Control_c, 11, 11, 82
21, 184783, Control_c, 11, 11, 83
21, 184807, Control_c, 11, 11, 84
21, 184832, Control_c, 11, 11, 85
21, 184856, Control_c, 11, 11, 86
21, 184880, Control_c, 11, 11, 87
21, 184905, Control_c, 11, 11, 88
21, 184929, Control_c, 11, 11, 89
21, 184953, Control_c, 11, 11, 90
21, 184978, Control_c, 11, 11, 91
21, 185002, Control_c, 11, 11, 92
21, 185027, Control_c, 11, 11, 93
21, 185051, Control_c, 11, 11, 94
21, 185075, Control_c, 11, 11, 95
21, 185088, Note_on_c, 11, 92, 0
21, 185088, Note_on_c, 11, 94, 113
21, 185100, Control_c, 11, 11, 96
21, 185124, Control_c, 11, 11, 97
21, 185148, Control_c, 11, 11, 98
21, 185173, Control_c, 11, 11, 99
21, 185197, Control_c, 11, 11, 100
21, 185222, Control_c, 11, 11, 101
21, 185246, Control_c, 11, 11, 102
21, 185270, Control_c, 11, 11, 103
21, 185295, Control_c, 11, 11, 104
21, 185319, Control_c, 11, 11, 105
21, 185344, Control_c, 11, 11, 106
21, 185368, Control_c, 11, 11, 107
21, 185392, Control_c, 11, 11, 108
21, 185417, Control_c, 11, 11, 109
21, 185441, Control_c, 11, 11, 110
21, 185465, Control_c, 11, 11, 111
21, 185490, Control_c, 11, 11, 112
21, 185514, Control_c, 11, 11, 113
21, 185539, Control_c, 11, 11, 114
21, 185563, Control_c, 11, 11, 115
21, 185587, Control_c, 11, 11, 116
21, 185612, Control_c, 11, 11, 117
21, 185636, Control_c, 11, 11, 118
21, 185660, Control_c, 11, 11, 119
21, 185685, Control_c, 11, 11, 120
21, 185709, Control_c, 11, 11, 121
21, 185734, Control_c, 11, 11, 122
21, 185758, Control_c, 11, 11, 123
21, 185782, Control_c, 11, 11, 124
21, 185807, Control_c, 11, 11, 125
21, 185831, Control_c, 11, 11, 126
21, 185856, Note_on_c, 11, 94, 0
21, 185856, Control_c, 11, 11, 127
21, 185856, Control_c, 11, 11, 92
21, 185856, Note_on_c, 11, 79, 111
21, 185861, Control_c, 11, 11, 93
21, 185866, Control_c, 11, 11, 94
21, 185872, Control_c, 11, 11, 95
21, 185877, Control_c, 11, 11, 96
21, 185883, Control_c, 11, 11, 97
21, 185888, Control_c, 11, 11, 98
21, 185894, Control_c, 11, 11, 99
21, 185899, Control_c, 11, 11, 100
21, 185905, Control_c, 11, 11, 101
21, 185910, Control_c, 11, 11, 102
21, 185916, Control_c, 11, 11, 103
21, 185921, Control_c, 11, 11, 104
21, 185927, Control_c, 11, 11, 105
21, 185932, Control_c, 11, 11, 106
21, 185938, Control_c, 11, 11, 107
21, 185943, Control_c, 11, 11, 108
21, 185949, Control_c, 11, 11, 109
21, 185954, Control_c, 11, 11, 110
21, 185960, Control_c, 11, 11, 111
21, 185965, Control_c, 11, 11, 112
21, 185971, Control_c, 11, 11, 113
21, 185976, Control_c, 11, 11, 114
21, 185982, Control_c, 11, 11, 115
21, 185987, Control_c, 11, 11, 116
21, 185993, Control_c, 11, 11, 117
21, 185998, Control_c, 11, 11, 118
21, 186004, Control_c, 11, 11, 119
21, 186009, Control_c, 11, 11, 120
21, 186015, Control_c, 11, 11, 121
21, 186020, Control_c, 11, 11, 122
21, 186026, Control_c, 11, 11, 123
21, 186031, Control_c, 11, 11, 124
21, 186037, Control_c, 11, 11, 125
21, 186042, Control_c, 11, 11, 126
21, 186048, Control_c, 11, 11, 127
21, 186051, Control_c, 11, 11, 126
21, 186054, Control_c, 11, 11, 125
21, 186057, Control_c, 11, 11, 124
21, 186060, Control_c, 11, 11, 123
21, 186063, Control_c, 11, 11, 122
21, 186066, Control_c, 11, 11, 121
21, 186069, Control_c, 11, 11, 120
21, 186072, Control_c, 11, 11, 119
21, 186075, Control_c, 11, 11, 118
21, 186078, Control_c, 11, 11, 117
21, 186081, Control_c, 11, 11, 116
21, 186084, Control_c, 11, 11, 115
21, 186087, Control_c, 11, 11, 114
21, 186090, Control_c, 11, 11, 113
21, 186093, Control_c, 11, 11, 112
21, 186096, Control_c, 11, 11, 111
21, 186099, Control_c, 11, 11, 110
21, 186102, Control_c, 11, 11, 109
21, 186105, Control_c, 11, 11, 108
21, 186108, Control_c, 11, 11, 107
21, 186112, Control_c, 11, 11, 106
21, 186115, Control_c, 11, 11, 105
21, 186118, Control_c, 11, 11, 104
21, 186121, Control_c, 11, 11, 103
21, 186124, Control_c, 11, 11, 102
21, 186127, Control_c, 11, 11, 101
21, 186130, Control_c, 11, 11, 100
21, 186133, Control_c, 11, 11, 99
21, 186136, Control_c, 11, 11, 98
21, 186139, Control_c, 11, 11, 97
21, 186142, Control_c, 11, 11, 96
21, 186145, Control_c, 11, 11, 95
21, 186148, Control_c, 11, 11, 94
21, 186151, Control_c, 11, 11, 93
21, 186154, Control_c, 11, 11, 92
21, 186157, Control_c, 11, 11, 91
21, 186160, Control_c, 11, 11, 90
21, 186163, Control_c, 11, 11, 89
21, 186166, Control_c, 11, 11, 88
21, 186169, Control_c, 11, 11, 87
21, 186172, Control_c, 11, 11, 86
21, 186176, Control_c, 11, 11, 85
21, 186179, Control_c, 11, 11, 84
21, 186182, Control_c, 11, 11, 83
21, 186185, Control_c, 11, 11, 82
21, 186188, Control_c, 11, 11, 81
21, 186191, Control_c, 11, 11, 80
21, 186194, Control_c, 11, 11, 79
21, 186197, Control_c, 11, 11, 78
21, 186200, Control_c, 11, 11, 77
21, 186203, Control_c, 11, 11, 76
21, 186206, Control_c, 11, 11, 75
21, 186209, Control_c, 11, 11, 74
21, 186212, Control_c, 11, 11, 73
21, 186215, Control_c, 11, 11, 72
21, 186218, Control_c, 11, 11, 71
21, 186221, Control_c, 11, 11, 70
21, 186224, Control_c, 11, 11, 69
21, 186227, Control_c, 11, 11, 68
21, 186230, Control_c, 11, 11, 67
21, 186233, Control_c, 11, 11, 66
21, 186236, Control_c, 11, 11, 65
21, 186240, Control_c, 11, 11, 64
21, 187392, Note_on_c, 11, 79, 0
21, 187392, Control_c, 11, 11, 64
21, 187392, Note_on_c, 11, 80, 108
21, 187416, Control_c, 11, 11, 65
21, 187440, Control_c, 11, 11, 66
21, 187465, Control_c, 11, 11, 67
21, 187489, Control_c, 11, 11, 68
21, 187513, Control_c, 11, 11, 69
21, 187538, Control_c, 11, 11, 70
21, 187562, Control_c, 11, 11, 71
21, 187587, Control_c, 11, 11, 72
21, 187611, Control_c, 11, 11, 73
21, 187635, Control_c, 11, 11, 74
21, 187660, Control_c, 11, 11, 75
21, 187684, Control_c, 11, 11, 76
21, 187708, Control_c, 11, 11, 77
21, 187733, Control_c, 11, 11, 78
21, 187757, Control_c, 11, 11, 79
21, 187782, Control_c, 11, 11, 80
21, 187806, Control_c, 11, 11, 81
21, 187830, Control_c, 11, 11, 82
21, 187855, Control_c, 11, 11, 83
21, 187879, Control_c, 11, 11, 84
21, 187904, Control_c, 11, 11, 85
21, 187928, Control_c, 11, 11, 86
21, 187952, Control_c, 11, 11, 87
21, 187977, Control_c, 11, 11, 88
21, 188001, Control_c, 11, 11, 89
21, 188025, Control_c, 11, 11, 90
21, 188050, Control_c, 11, 11, 91
21, 188074, Control_c, 11, 11, 92
21, 188099, Control_c, 11, 11, 93
21, 188123, Control_c, 11, 11, 94
21, 188147, Control_c, 11, 11, 95
21, 188160, Note_on_c, 11, 80, 0
21, 188160, Note_on_c, 11, 79, 113
21, 188172, Control_c, 11, 11, 96
21, 188196, Control_c, 11, 11, 97
21, 188220, Control_c, 11, 11, 98
21, 188245, Control_c, 11, 11, 99
21, 188269, Control_c, 11, 11, 100
21, 188294, Control_c, 11, 11, 101
21, 188318, Control_c, 11, 11, 102
21, 188342, Control_c, 11, 11, 103
21, 188367, Control_c, 11, 11, 104
21, 188391, Control_c, 11, 11, 105
21, 188416, Control_c, 11, 11, 106
21, 188440, Control_c, 11, 11, 107
21, 188464, Control_c, 11, 11, 108
21, 188489, Control_c, 11, 11, 109
21, 188513, Control_c, 11, 11, 110
21, 188537, Control_c, 11, 11, 111
21, 188544, Note_on_c, 11, 79, 0
21, 188544, Note_on_c, 11, 80, 107
21, 188562, Control_c, 11, 11, 112
21, 188586, Control_c, 11, 11, 113
21, 188611, Control_c, 11, 11, 114
21, 188635, Control_c, 11, 11, 115
21, 188659, Control_c, 11, 11, 116
21, 188684, Control_c, 11, 11, 117
21, 188708, Control_c, 11, 11, 118
21, 188732, Control_c, 11, 11, 119
21, 188757, Control_c, 11, 11, 120
21, 188781, Control_c, 11, 11, 121
21, 188806, Control_c, 11, 11, 122
21, 188830, Control_c, 11, 11, 123
21, 188854, Control_c, 11, 11, 124
21, 188879, Control_c, 11, 11, 125
21, 188903, Control_c, 11, 11, 126
21, 188928, Note_on_c, 11, 80, 0
21, 188928, Control_c, 11, 11, 127
21, 188928, Program_c, 11, 48
21, 189056, Note_on_c, 11, 69, 35
21, 189118, Note_on_c, 11, 69, 0
21, 189120, Note_on_c, 11, 81, 34
21, 189182, Note_on_c, 11, 81, 0
21, 189184, Note_on_c, 11, 69, 25
21, 189246, Note_on_c, 11, 69, 0
21, 189248, Note_on_c, 11, 68, 25
21, 189290, Note_on_c, 11, 68, 0
21, 189440, Note_on_c, 11, 69, 35
21, 189502, Note_on_c, 11, 69, 0
21, 189504, Note_on_c, 11, 81, 34
21, 189566, Note_on_c, 11, 81, 0
21, 189568, Note_on_c, 11, 69, 32
21, 189630, Note_on_c, 11, 69, 0
21, 189632, Note_on_c, 11, 68, 33
21, 189674, Note_on_c, 11, 68, 0
21, 189824, Note_on_c, 11, 69, 30
21, 189886, Note_on_c, 11, 69, 0
21, 189888, Note_on_c, 11, 81, 25
21, 189950, Note_on_c, 11, 81, 0
21, 189952, Note_on_c, 11, 69, 29
21, 190014, Note_on_c, 11, 69, 0
21, 190016, Note_on_c, 11, 68, 35
21, 190058, Note_on_c, 11, 68, 0
21, 190208, Note_on_c, 11, 69, 28
21, 190270, Note_on_c, 11, 69, 0
21, 190272, Note_on_c, 11, 81, 34
21, 190334, Note_on_c, 11, 81, 0
21, 190336, Note_on_c, 11, 69, 32
21, 190398, Note_on_c, 11, 69, 0
21, 190400, Note_on_c, 11, 68, 30
21, 190442, Note_on_c, 11, 68, 0
21, 190592, Note_on_c, 11, 70, 31
21, 190654, Note_on_c, 11, 70, 0
21, 190656, Note_on_c, 11, 82, 33
21, 190718, Note_on_c, 11, 82, 0
21, 190720, Note_on_c, 11, 70, 29
21, 190782, Note_on_c, 11, 70, 0
21, 190784, Note_on_c, 11, 68, 34
21, 190826, Note_on_c, 11, 68, 0
21, 190976, Note_on_c, 11, 70, 26
21, 191038, Note_on_c, 11, 70, 0
21, 191040, Note_on_c, 11, 82, 26
21, 191102, Note_on_c, 11, 82, 0
21, 191104, Note_on_c, 11, 70, 27
21, 191166, Note_on_c, 11, 70, 0
21, 191168, Note_on_c, 11, 68, 27
21, 191210, Note_on_c, 11, 68, 0
21, 191360, Note_on_c, 11, 70, 32
21, 191422, Note_on_c, 11, 70, 0
21, 191424, Note_on_c, 11, 82, 35
21, 191486, Note_on_c, 11, 82, 0
21, 191488, Note_on_c, 11, 70, 30
21, 191550, Note_on_c, 11, 70, 0
21, 191552, Note_on_c, 11, 68, 35
21, 191594, Note_on_c, 11, 68, 0
21, 191744, Note_on_c, 11, 70, 32
21, 191806, Note_on_c, 11, 70, 0
21, 191808, Note_on_c, 11, 82, 33
21, 191870, Note_on_c, 11, 82, 0
21, 191872, Note_on_c, 11, 70, 33
21, 191934, Note_on_c, 11, 70, 0
21, 191936, Note_on_c, 11, 68, 34
21, 191978, Note_on_c, 11, 68, 0
21, 192128, Note_on_c, 11, 71, 35
21, 192190, Note_on_c, 11, 71, 0
21, 192192, Note_on_c, 11, 83, 29
21, 192254, Note_on_c, 11, 83, 0
21, 192256, Note_on_c, 11, 71, 35
21, 192318, Note_on_c, 11, 71, 0
21, 192320, Note_on_c, 11, 70, 33
21, 192362, Note_on_c, 11, 70, 0
21, 192512, Note_on_c, 11, 69, 26
21, 192574, Note_on_c, 11, 69, 0
21, 192576, Note_on_c, 11, 81, 26
21, 192638, Note_on_c, 11, 81, 0
21, 192640, Note_on_c, 11, 69, 26
21, 192702, Note_on_c, 11, 69, 0
21, 192704, Note_on_c, 11, 66, 30
21, 192746, Note_on_c, 11, 66, 0
21, 192896, Note_on_c, 11, 62, 29
21, 192958, Note_on_c, 11, 62, 0
21, 192960, Note_on_c, 11, 74, 30
21, 193022, Note_on_c, 11, 74, 0
21, 193024, Note_on_c, 11, 62, 33
21, 193086, Note_on_c, 11, 62, 0
21, 193088, Note_on_c, 11, 64, 32
21, 193130, Note_on_c, 11, 64, 0
21, 193280, Note_on_c, 11, 65, 25
21, 193342, Note_on_c, 11, 65, 0
21, 193344, Note_on_c, 11, 77, 32
21, 193406, Note_on_c, 11, 77, 0
21, 193408, Note_on_c, 11, 65, 34
21, 193470, Note_on_c, 11, 65, 0
21, 193472, Note_on_c, 11, 77, 32
21, 193514, Note_on_c, 11, 77, 0
21, 193664, Note_on_c, 11, 64, 35
21, 193726, Note_on_c, 11, 64, 0
21, 193728, Note_on_c, 11, 76, 25
21, 193790, Note_on_c, 11, 76, 0
21, 193792, Note_on_c, 11, 64, 31
21, 193854, Note_on_c, 11, 64, 0
21, 193856, Note_on_c, 11, 63, 27
21, 193898, Note_on_c, 11, 63, 0
21, 194048, Note_on_c, 11, 62, 30
21, 194110, Note_on_c, 11, 62, 0
21, 194112, Note_on_c, 11, 74, 30
21, 194174, Note_on_c, 11, 74, 0
21, 194176, Note_on_c, 11, 62, 27
21, 194238, Note_on_c, 11, 62, 0
21, 194240, Note_on_c, 11, 59, 35
21, 194282, Note_on_c, 11, 59, 0
21, 194432, Note_on_c, 11, 56, 34
21, 194494, Note_on_c, 11, 56, 0
21, 194496, Note_on_c, 11, 68, 25
21, 194558, Note_on_c, 11, 68, 0
21, 194560, Note_on_c, 11, 56, 33
21, 194622, Note_on_c, 11, 56, 0
21, 194624, Note_on_c, 11, 60, 26
21, 194666, Note_on_c, 11, 60, 0
21, 194816, Note_on_c, 11, 64, 33
21, 194878, Note_on_c, 11, 64, 0
21, 194880, Note_on_c, 11, 76, 35
21, 194942, Note_on_c, 11, 76, 0
21, 194944, Note_on_c, 11, 64, 31
21, 195006, Note_on_c, 11, 64, 0
21, 195008, Note_on_c, 11, 68, 26
21, 195050, Note_on_c, 11, 68, 0
21, 195200, Note_on_c, 11, 56, 31
21, 195262, Note_on_c, 11, 56, 0
21, 195264, Note_on_c, 11, 68, 32
21, 195326, Note_on_c, 11, 68, 0
21, 195328, Note_on_c, 11, 56, 27
21, 195390, Note_on_c, 11, 56, 0
21, 195392, Note_on_c, 11, 60, 28
21, 195434, Note_on_c, 11, 60, 0
21, 195520, Note_on_c, 11, 66, 34
21, 195582, Note_on_c, 11, 66, 0
21, 195584, Note_on_c, 11, 78, 34
21, 195626, Note_on_c, 11, 78, 0
21, 195712, Note_on_c, 11, 67, 32
21, 195774, Note_on_c, 11, 67, 0
21, 195776, Note_on_c, 11, 79, 29
21, 195818, Note_on_c, 11, 79, 0
21, 195968, Note_on_c, 11, 69, 41
21, 196030, Note_on_c, 11, 69, 0
21, 196032, Note_on_c, 11, 81, 50
21, 196094, Note_on_c, 11, 81, 0
21, 196096, Note_on_c, 11, 69, 48
21, 196158, Note_on_c, 11, 69, 0
21, 196160, Note_on_c, 11, 68, 41
21, 196202, Note_on_c, 11, 68, 0
21, 196352, Note_on_c, 11, 69, 40
21, 196414, Note_on_c, 11, 69, 0
21, 196416, Note_on_c, 11, 81, 40
21, 196478, Note_on_c, 11, 81, 0
21, 196480, Note_on_c, 11, 69, 44
21, 196542, Note_on_c, 11, 69, 0
21, 196544, Note_on_c, 11, 68, 40
21, 196586, Note_on_c, 11, 68, 0
21, 196736, Note_on_c, 11, 69, 42
21, 196798, Note_on_c, 11, 69, 0
21, 196800, Note_on_c, 11, 81, 42
21, 196862, Note_on_c, 11, 81, 0
21, 196864, Note_on_c, 11, 69, 46
21, 196926, Note_on_c, 11, 69, 0
21, 196928, Note_on_c, 11, 68, 50
21, 196970, Note_on_c, 11, 68, 0
21, 197120, Note_on_c, 11, 69, 44
21, 197182, Note_on_c, 11, 69, 0
21, 197184, Note_on_c, 11, 81, 42
21, 197246, Note_on_c, 11, 81, 0
21, 197248, Note_on_c, 11, 69, 47
21, 197310, Note_on_c, 11, 69, 0
21, 197312, Note_on_c, 11, 68, 43
21, 197354, Note_on_c, 11, 68, 0
21, 197504, Note_on_c, 11, 70, 50
21, 197566, Note_on_c, 11, 70, 0
21, 197568, Note_on_c, 11, 82, 45
21, 197630, Note_on_c, 11, 82, 0
21, 197632, Note_on_c, 11, 70, 40
21, 197694, Note_on_c, 11, 70, 0
21, 197696, Note_on_c, 11, 68, 48
21, 197738, Note_on_c, 11, 68, 0
21, 197888, Note_on_c, 11, 70, 49
21, 197950, Note_on_c, 11, 70, 0
21, 197952, Note_on_c, 11, 82, 41
21, 198014, Note_on_c, 11, 82, 0
21, 198016, Note_on_c, 11, 70, 43
21, 198078, Note_on_c, 11, 70, 0
21, 198080, Note_on_c, 11, 68, 47
21, 198122, Note_on_c, 11, 68, 0
21, 198272, Note_on_c, 11, 70, 43
21, 198334, Note_on_c, 11, 70, 0
21, 198336, Note_on_c, 11, 82, 46
21, 198398, Note_on_c, 11, 82, 0
21, 198400, Note_on_c, 11, 70, 40
21, 198462, Note_on_c, 11, 70, 0
21, 198464, Note_on_c, 11, 68, 48
21, 198506, Note_on_c, 11, 68, 0
21, 198656, Note_on_c, 11, 70, 45
21, 198718, Note_on_c, 11, 70, 0
21, 198720, Note_on_c, 11, 82, 45
21, 198782, Note_on_c, 11, 82, 0
21, 198784, Note_on_c, 11, 70, 43
21, 198846, Note_on_c, 11, 70, 0
21, 198848, Note_on_c, 11, 68, 50
21, 198890, Note_on_c, 11, 68, 0
21, 199040, Note_on_c, 11, 87, 70
21, 199082, Note_on_c, 11, 87, 0
21, 199104, Note_on_c, 11, 87, 79
21, 199146, Note_on_c, 11, 87, 0
21, 199168, Note_on_c, 11, 87, 73
21, 199210, Note_on_c, 11, 87, 0
21, 199232, Note_on_c, 11, 85, 79
21, 199274, Note_on_c, 11, 85, 0
21, 199424, Note_on_c, 11, 87, 70
21, 199466, Note_on_c, 11, 87, 0
21, 199488, Note_on_c, 11, 87, 74
21, 199530, Note_on_c, 11, 87, 0
21, 199552, Note_on_c, 11, 87, 74
21, 199594, Note_on_c, 11, 87, 0
21, 199616, Note_on_c, 11, 85, 70
21, 199658, Note_on_c, 11, 85, 0
21, 199808, Note_on_c, 11, 87, 70
21, 199850, Note_on_c, 11, 87, 0
21, 199872, Note_on_c, 11, 87, 75
21, 199914, Note_on_c, 11, 87, 0
21, 199936, Note_on_c, 11, 87, 76
21, 199978, Note_on_c, 11, 87, 0
21, 200000, Note_on_c, 11, 85, 80
21, 200042, Note_on_c, 11, 85, 0
21, 200192, Note_on_c, 11, 87, 77
21, 200234, Note_on_c, 11, 87, 0
21, 200256, Note_on_c, 11, 87, 77
21, 200298, Note_on_c, 11, 87, 0
21, 200320, Note_on_c, 11, 87, 76
21, 200362, Note_on_c, 11, 87, 0
21, 200384, Note_on_c, 11, 85, 74
21, 200426, Note_on_c, 11, 85, 0
21, 200576, Note_on_c, 11, 87, 80
21, 200618, Note_on_c, 11, 87, 0
21, 200640, Note_on_c, 11, 87, 80
21, 200682, Note_on_c, 11, 87, 0
21, 200704, Note_on_c, 11, 87, 72
21, 200746, Note_on_c, 11, 87, 0
21, 200768, Note_on_c, 11, 85, 70
21, 200810, Note_on_c, 11, 85, 0
21, 200960, Note_on_c, 11, 87, 77
21, 201002, Note_on_c, 11, 87, 0
21, 201024, Note_on_c, 11, 87, 73
21, 201066, Note_on_c, 11, 87, 0
21, 201088, Note_on_c, 11, 87, 74
21, 201130, Note_on_c, 11, 87, 0
21, 201152, Note_on_c, 11, 85, 71
21, 201194, Note_on_c, 11, 85, 0
21, 201344, Note_on_c, 11, 87, 74
21, 201386, Note_on_c, 11, 87, 0
21, 201408, Note_on_c, 11, 87, 78
21, 201450, Note_on_c, 11, 87, 0
21, 201472, Note_on_c, 11, 87, 78
21, 201514, Note_on_c, 11, 87, 0
21, 201536, Note_on_c, 11, 85, 70
21, 201578, Note_on_c, 11, 85, 0
21, 201728, Note_on_c, 11, 87, 72
21, 201770, Note_on_c, 11, 87, 0
21, 201792, Note_on_c, 11, 87, 71
21, 201834, Note_on_c, 11, 87, 0
21, 201856, Note_on_c, 11, 87, 77
21, 201898, Note_on_c, 11, 87, 0
21, 201920, Note_on_c, 11, 85, 71
21, 201962, Note_on_c, 11, 85, 0
21, 202112, Note_on_c, 11, 92, 73
21, 202154, Note_on_c, 11, 92, 0
21, 202176, Note_on_c, 11, 92, 76
21, 202218, Note_on_c, 11, 92, 0
21, 202240, Note_on_c, 11, 92, 73
21, 202282, Note_on_c, 11, 92, 0
21, 202304, Note_on_c, 11, 90, 74
21, 202346, Note_on_c, 11, 90, 0
21, 202496, Note_on_c, 11, 92, 76
21, 202538, Note_on_c, 11, 92, 0
21, 202560, Note_on_c, 11, 92, 70
21, 202602, Note_on_c, 11, 92, 0
21, 202624, Note_on_c, 11, 92, 74
21, 202666, Note_on_c, 11, 92, 0
21, 202688, Note_on_c, 11, 90, 74
21, 202730, Note_on_c, 11, 90, 0
21, 202880, Note_on_c, 11, 92, 79
21, 202922, Note_on_c, 11, 92, 0
21, 202944, Note_on_c, 11, 92, 74
21, 202986, Note_on_c, 11, 92, 0
21, 203008, Note_on_c, 11, 92, 71
21, 203050, Note_on_c, 11, 92, 0
21, 203072, Note_on_c, 11, 90, 80
21, 203114, Note_on_c, 11, 90, 0
21, 203264, Note_on_c, 11, 94, 78
21, 203306, Note_on_c, 11, 94, 0
21, 203328, Note_on_c, 11, 94, 75
21, 203370, Note_on_c, 11, 94, 0
21, 203392, Note_on_c, 11, 94, 74
21, 203434, Note_on_c, 11, 94, 0
21, 203456, Note_on_c, 11, 92, 78
21, 203498, Note_on_c, 11, 92, 0
21, 203648, Note_on_c, 11, 92, 75
21, 203690, Note_on_c, 11, 92, 0
21, 203712, Note_on_c, 11, 92, 70
21, 203754, Note_on_c, 11, 92, 0
21, 203776, Note_on_c, 11, 92, 67
21, 203818, Note_on_c, 11, 92, 0
21, 203840, Note_on_c, 11, 90, 64
21, 203882, Note_on_c, 11, 90, 0
21, 204032, Note_on_c, 11, 92, 56
21, 204074, Note_on_c, 11, 92, 0
21, 204096, Note_on_c, 11, 92, 53
21, 204138, Note_on_c, 11, 92, 0
21, 204160, Note_on_c, 11, 92, 51
21, 204202, Note_on_c, 11, 92, 0
21, 204224, Note_on_c, 11, 90, 41
21, 204266, Note_on_c, 11, 90, 0
21, 204416, Note_on_c, 11, 89, 79
21, 204458, Note_on_c, 11, 89, 0
21, 204480, Note_on_c, 11, 89, 73
21, 204522, Note_on_c, 11, 89, 0
21, 204544, Note_on_c, 11, 89, 79
21, 204586, Note_on_c, 11, 89, 0
21, 204608, Note_on_c, 11, 87, 77
21, 204650, Note_on_c, 11, 87, 0
21, 204800, Note_on_c, 11, 89, 72
21, 204842, Note_on_c, 11, 89, 0
21, 204864, Note_on_c, 11, 89, 73
21, 204906, Note_on_c, 11, 89, 0
21, 204928, Note_on_c, 11, 89, 80
21, 204970, Note_on_c, 11, 89, 0
21, 204992, Note_on_c, 11, 87, 75
21, 205034, Note_on_c, 11, 87, 0
21, 205184, Note_on_c, 11, 87, 80
21, 205226, Note_on_c, 11, 87, 0
21, 205248, Note_on_c, 11, 87, 77
21, 205290, Note_on_c, 11, 87, 0
21, 205312, Note_on_c, 11, 87, 70
21, 205354, Note_on_c, 11, 87, 0
21, 205376, Note_on_c, 11, 85, 76
21, 205418, Note_on_c, 11, 85, 0
21, 205568, Note_on_c, 11, 87, 71
21, 205610, Note_on_c, 11, 87, 0
21, 205632, Note_on_c, 11, 87, 71
21, 205674, Note_on_c, 11, 87, 0
21, 205696, Note_on_c, 11, 87, 79
21, 205738, Note_on_c, 11, 87, 0
21, 205760, Note_on_c, 11, 85, 70
21, 205802, Note_on_c, 11, 85, 0
21, 205952, Note_on_c, 11, 87, 78
21, 205994, Note_on_c, 11, 87, 0
21, 206016, Note_on_c, 11, 87, 78
21, 206058, Note_on_c, 11, 87, 0
21, 206080, Note_on_c, 11, 87, 77
21, 206122, Note_on_c, 11, 87, 0
21, 206144, Note_on_c, 11, 85, 74
21, 206186, Note_on_c, 11, 85, 0
21, 206336, Note_on_c, 11, 87, 74
21, 206378, Note_on_c, 11, 87, 0
21, 206400, Note_on_c, 11, 87, 70
21, 206442, Note_on_c, 11, 87, 0
21, 206464, Note_on_c, 11, 87, 79
21, 206506, Note_on_c, 11, 87, 0
21, 206528, Note_on_c, 11, 85, 77
21, 206570, Note_on_c, 11, 85, 0
21, 206720, Note_on_c, 11, 87, 74
21, 206762, Note_on_c, 11, 87, 0
21, 206784, Note_on_c, 11, 87, 72
21, 206826, Note_on_c, 11, 87, 0
21, 206848, Note_on_c, 11, 87, 79
21, 206890, Note_on_c, 11, 87, 0
21, 206912, Note_on_c, 11, 85, 79
21, 206954, Note_on_c, 11, 85, 0
21, 207104, Note_on_c, 11, 87, 72
21, 207146, Note_on_c, 11, 87, 0
21, 207168, Note_on_c, 11, 87, 80
21, 207210, Note_on_c, 11, 87, 0
21, 207232, Note_on_c, 11, 87, 70
21, 207274, Note_on_c, 11, 87, 0
21, 207296, Note_on_c, 11, 85, 80
21, 207338, Note_on_c, 11, 85, 0
21, 207488, Note_on_c, 11, 87, 78
21, 207530, Note_on_c, 11, 87, 0
21, 207552, Note_on_c, 11, 87, 84
21, 207594, Note_on_c, 11, 87, 0
21, 207616, Note_on_c, 11, 87, 86
21, 207658, Note_on_c, 11, 87, 0
21, 207680, Note_on_c, 11, 85, 92
21, 207722, Note_on_c, 11, 85, 0
21, 207872, Note_on_c, 11, 87, 93
21, 207914, Note_on_c, 11, 87, 0
21, 207936, Note_on_c, 11, 87, 104
21, 207978, Note_on_c, 11, 87, 0
21, 208000, Note_on_c, 11, 87, 99
21, 208042, Note_on_c, 11, 87, 0
21, 208064, Note_on_c, 11, 85, 107
21, 208106, Note_on_c, 11, 85, 0
21, 208128, Note_on_c, 11, 92, 103
21, 208174, Note_on_c, 11, 92, 0
21, 208176, Note_on_c, 11, 94, 106
21, 208222, Note_on_c, 11, 94, 0
21, 208224, Note_on_c, 11, 92, 104
21, 208270, Note_on_c, 11, 92, 0
21, 208272, Note_on_c, 11, 89, 109
21, 208318, Note_on_c, 11, 89, 0
21, 208320, Note_on_c, 11, 75, 113
21, 208366, Note_on_c, 11, 75, 0
21, 208368, Note_on_c, 11, 77, 112
21, 208414, Note_on_c, 11, 77, 0
21, 208416, Note_on_c, 11, 75, 108
21, 208462, Note_on_c, 11, 75, 0
21, 208464, Note_on_c, 11, 73, 103
21, 208510, Note_on_c, 11, 73, 0
21, 208512, Note_on_c, 11, 80, 113
21, 208558, Note_on_c, 11, 80, 0
21, 208560, Note_on_c, 11, 82, 105
21, 208606, Note_on_c, 11, 82, 0
21, 208608, Note_on_c, 11, 80, 108
21, 208654, Note_on_c, 11, 80, 0
21, 208656, Note_on_c, 11, 77, 106
21, 208702, Note_on_c, 11, 77, 0
21, 208704, Note_on_c, 11, 75, 111
21, 208750, Note_on_c, 11, 75, 0
21, 208752, Note_on_c, 11, 77, 112
21, 208798, Note_on_c, 11, 77, 0
21, 208800, Note_on_c, 11, 75, 113
21, 208846, Note_on_c, 11, 75, 0
21, 208848, Note_on_c, 11, 73, 107
21, 208894, Note_on_c, 11, 73, 0
21, 208896, Note_on_c, 11, 68, 113
21, 208942, Note_on_c, 11, 68, 0
21, 208944, Note_on_c, 11, 70, 110
21, 208990, Note_on_c, 11, 70, 0
21, 208992, Note_on_c, 11, 68, 109
21, 209038, Note_on_c, 11, 68, 0
21, 209040, Note_on_c, 11, 65, 103
21, 209086, Note_on_c, 11, 65, 0
21, 209088, Note_on_c, 11, 63, 108
21, 209134, Note_on_c, 11, 63, 0
21, 209136, Note_on_c, 11, 65, 106
21, 209182, Note_on_c, 11, 65, 0
21, 209184, Note_on_c, 11, 63, 106
21, 209230, Note_on_c, 11, 63, 0
21, 209232, Note_on_c, 11, 61, 109
21, 209278, Note_on_c, 11, 61, 0
21, 209856, Program_c, 11, 45
21, 209856, Note_on_c, 11, 57, 90
21, 209950, Note_on_c, 11, 57, 0
21, 210048, Program_c, 11, 48
21, 210048, Note_on_c, 11, 63, 49
21, 210094, Note_on_c, 11, 63, 0
21, 210096, Note_on_c, 11, 61, 49
21, 210142, Note_on_c, 11, 61, 0
21, 210144, Note_on_c, 11, 63, 56
21, 210190, Note_on_c, 11, 63, 0
21, 210192, Note_on_c, 11, 65, 58
21, 210238, Note_on_c, 11, 65, 0
21, 210240, Note_on_c, 11, 63, 68
21, 210286, Note_on_c, 11, 63, 0
21, 210288, Note_on_c, 11, 61, 78
21, 210334, Note_on_c, 11, 61, 0
21, 210336, Note_on_c, 11, 58, 89
21, 210382, Note_on_c, 11, 58, 0
21, 210384, Note_on_c, 11, 61, 97
21, 210430, Note_on_c, 11, 61, 0
21, 210624, Program_c, 11, 45
21, 210624, Note_on_c, 11, 57, 97
21, 210718, Note_on_c, 11, 57, 0
21, 210816, Program_c, 11, 48
21, 210816, Note_on_c, 11, 63, 44
21, 210862, Note_on_c, 11, 63, 0
21, 210864, Note_on_c, 11, 61, 47
21, 210910, Note_on_c, 11, 61, 0
21, 210912, Note_on_c, 11, 63, 49
21, 210958, Note_on_c, 11, 63, 0
21, 210960, Note_on_c, 11, 65, 60
21, 211006, Note_on_c, 11, 65, 0
21, 211008, Note_on_c, 11, 63, 73
21, 211054, Note_on_c, 11, 63, 0
21, 211056, Note_on_c, 11, 61, 79
21, 211102, Note_on_c, 11, 61, 0
21, 211104, Note_on_c, 11, 58, 81
21, 211150, Note_on_c, 11, 58, 0
21, 211152, Note_on_c, 11, 61, 94
21, 211198, Note_on_c, 11, 61, 0
21, 211648, Note_on_c, 11, 66, 75
21, 211710, Note_on_c, 11, 66, 0
21, 211712, Note_on_c, 11, 68, 77
21, 211774, Note_on_c, 11, 68, 0
21, 211776, Note_on_c, 11, 73, 75
21, 211838, Note_on_c, 11, 73, 0
21, 211840, Note_on_c, 11, 75, 82
21, 211902, Note_on_c, 11, 75, 0
21, 211904, Note_on_c, 11, 78, 89
21, 211966, Note_on_c, 11, 78, 0
21, 212416, Note_on_c, 11, 78, 94
21, 212478, Note_on_c, 11, 78, 0
21, 212480, Note_on_c, 11, 80, 87
21, 212542, Note_on_c, 11, 80, 0
21, 212544, Note_on_c, 11, 85, 98
21, 212606, Note_on_c, 11, 85, 0
21, 212608, Note_on_c, 11, 87, 103
21, 212670, Note_on_c, 11, 87, 0
21, 212672, Note_on_c, 11, 90, 101
21, 212734, Note_on_c, 11, 90, 0
21, 212736, Note_on_c, 11, 92, 107
21, 212782, Note_on_c, 11, 92, 0
21, 212784, Note_on_c, 11, 94, 107
21, 212830, Note_on_c, 11, 94, 0
21, 212832, Note_on_c, 11, 92, 108
21, 212878, Note_on_c, 11, 92, 0
21, 212880, Note_on_c, 11, 89, 109
21, 212926, Note_on_c, 11, 89, 0
21, 212928, Note_on_c, 11, 87, 109
21, 212974, Note_on_c, 11, 87, 0
21, 212976, Note_on_c, 11, 89, 107
21, 213022, Note_on_c, 11, 89, 0
21, 213024, Note_on_c, 11, 87, 104
21, 213070, Note_on_c, 11, 87, 0
21, 213072, Note_on_c, 11, 85, 103
21, 213118, Note_on_c, 11, 85, 0
21, 213120, Note_on_c, 11, 80, 113
21, 213166, Note_on_c, 11, 80, 0
21, 213168, Note_on_c, 11, 82, 111
21, 213214, Note_on_c, 11, 82, 0
21, 213216, Note_on_c, 11, 80, 109
21, 213262, Note_on_c, 11, 80, 0
21, 213264, Note_on_c, 11, 77, 112
21, 213310, Note_on_c, 11, 77, 0
21, 213312, Note_on_c, 11, 75, 110
21, 213358, Note_on_c, 11, 75, 0
21, 213360, Note_on_c, 11, 77, 113
21, 213406, Note_on_c, 11, 77, 0
21, 213408, Note_on_c, 11, 75, 110
21, 213454, Note_on_c, 11, 75, 0
21, 213456, Note_on_c, 11, 73, 106
21, 213502, Note_on_c, 11, 73, 0
21, 213504, Note_on_c, 11, 68, 110
21, 213550, Note_on_c, 11, 68, 0
21, 213552, Note_on_c, 11, 70, 104
21, 213598, Note_on_c, 11, 70, 0
21, 213600, Note_on_c, 11, 68, 103
21, 213646, Note_on_c, 11, 68, 0
21, 213648, Note_on_c, 11, 65, 112
21, 213694, Note_on_c, 11, 65, 0
21, 213696, Note_on_c, 11, 63, 109
21, 213742, Note_on_c, 11, 63, 0
21, 213744, Note_on_c, 11, 65, 110
21, 213790, Note_on_c, 11, 65, 0
21, 213792, Note_on_c, 11, 63, 106
21, 213838, Note_on_c, 11, 63, 0
21, 213840, Note_on_c, 11, 61, 113
21, 213886, Note_on_c, 11, 61, 0
21, 215904, Note_on_c, 11, 73, 76
21, 215998, Note_on_c, 11, 73, 0
21, 216096, Note_on_c, 11, 75, 81
21, 216190, Note_on_c, 11, 75, 0
21, 216288, Note_on_c, 11, 73, 73
21, 216382, Note_on_c, 11, 73, 0
21, 216480, Note_on_c, 11, 75, 84
21, 216574, Note_on_c, 11, 75, 0
21, 216672, Note_on_c, 11, 73, 86
21, 216766, Note_on_c, 11, 73, 0
21, 216864, Note_on_c, 11, 75, 81
21, 216958, Note_on_c, 11, 75, 0
21, 217056, Note_on_c, 11, 73, 90
21, 217150, Note_on_c, 11, 73, 0
21, 217248, Note_on_c, 11, 75, 94
21, 217342, Note_on_c, 11, 75, 0
21, 217344, Note_on_c, 11, 87, 87
21, 217390, Note_on_c, 11, 87, 0
21, 217392, Note_on_c, 11, 85, 91
21, 217438, Note_on_c, 11, 85, 0
21, 217440, Note_on_c, 11, 87, 94
21, 217486, Note_on_c, 11, 87, 0
21, 217488, Note_on_c, 11, 89, 95
21, 217534, Note_on_c, 11, 89, 0
21, 217536, Note_on_c, 11, 87, 88
21, 217582, Note_on_c, 11, 87, 0
21, 217584, Note_on_c, 11, 85, 97
21, 217630, Note_on_c, 11, 85, 0
21, 217632, Note_on_c, 11, 82, 89
21, 217678, Note_on_c, 11, 82, 0
21, 217680, Note_on_c, 11, 85, 87
21, 217726, Note_on_c, 11, 85, 0
21, 217728, Note_on_c, 11, 87, 91
21, 217774, Note_on_c, 11, 87, 0
21, 217776, Note_on_c, 11, 85, 90
21, 217822, Note_on_c, 11, 85, 0
21, 217824, Note_on_c, 11, 87, 90
21, 217870, Note_on_c, 11, 87, 0
21, 217872, Note_on_c, 11, 89, 91
21, 217918, Note_on_c, 11, 89, 0
21, 217920, Note_on_c, 11, 87, 88
21, 217966, Note_on_c, 11, 87, 0
21, 217968, Note_on_c, 11, 85, 92
21, 218014, Note_on_c, 11, 85, 0
21, 218016, Note_on_c, 11, 82, 96
21, 218062, Note_on_c, 11, 82, 0
21, 218064, Note_on_c, 11, 85, 91
21, 218110, Note_on_c, 11, 85, 0
21, 218112, Note_on_c, 11, 87, 90
21, 218158, Note_on_c, 11, 87, 0
21, 218160, Note_on_c, 11, 85, 87
21, 218206, Note_on_c, 11, 85, 0
21, 218208, Note_on_c, 11, 87, 93
21, 218254, Note_on_c, 11, 87, 0
21, 218256, Note_on_c, 11, 89, 88
21, 218302, Note_on_c, 11, 89, 0
21, 218304, Note_on_c, 11, 87, 91
21, 218350, Note_on_c, 11, 87, 0
21, 218352, Note_on_c, 11, 85, 87
21, 218398, Note_on_c, 11, 85, 0
21, 218400, Note_on_c, 11, 82, 94
21, 218446, Note_on_c, 11, 82, 0
21, 218448, Note_on_c, 11, 85, 92
21, 218494, Note_on_c, 11, 85, 0
21, 218496, Note_on_c, 11, 87, 97
21, 218542, Note_on_c, 11, 87, 0
21, 218544, Note_on_c, 11, 85, 97
21, 218590, Note_on_c, 11, 85, 0
21, 218592, Note_on_c, 11, 87, 91
21, 218638, Note_on_c, 11, 87, 0
21, 218640, Note_on_c, 11, 89, 91
21, 218686, Note_on_c, 11, 89, 0
21, 218688, Note_on_c, 11, 87, 92
21, 218734, Note_on_c, 11, 87, 0
21, 218736, Note_on_c, 11, 85, 96
21, 218782, Note_on_c, 11, 85, 0
21, 218784, Note_on_c, 11, 82, 91
21, 218830, Note_on_c, 11, 82, 0
21, 218832, Note_on_c, 11, 85, 90
21, 218878, Note_on_c, 11, 85, 0
21, 218880, Note_on_c, 11, 91, 97
21, 218926, Note_on_c, 11, 91, 0
21, 218928, Note_on_c, 11, 89, 96
21, 218974, Note_on_c, 11, 89, 0
21, 218976, Note_on_c, 11, 91, 87
21, 219022, Note_on_c, 11, 91, 0
21, 219024, Note_on_c, 11, 93, 96
21, 219070, Note_on_c, 11, 93, 0
21, 219072, Note_on_c, 11, 91, 96
21, 219118, Note_on_c, 11, 91, 0
21, 219120, Note_on_c, 11, 89, 88
21, 219166, Note_on_c, 11, 89, 0
21, 219168, Note_on_c, 11, 86, 87
21, 219214, Note_on_c, 11, 86, 0
21, 219216, Note_on_c, 11, 89, 97
21, 219262, Note_on_c, 11, 89, 0
21, 219264, Note_on_c, 11, 91, 90
21, 219310, Note_on_c, 11, 91, 0
21, 219312, Note_on_c, 11, 89, 96
21, 219358, Note_on_c, 11, 89, 0
21, 219360, Note_on_c, 11, 91, 90
21, 219406, Note_on_c, 11, 91, 0
21, 219408, Note_on_c, 11, 93, 94
21, 219454, Note_on_c, 11, 93, 0
21, 219456, Note_on_c, 11, 91, 97
21, 219502, Note_on_c, 11, 91, 0
21, 219504, Note_on_c, 11, 89, 95
21, 219550, Note_on_c, 11, 89, 0
21, 219552, Note_on_c, 11, 86, 97
21, 219598, Note_on_c, 11, 86, 0
21, 219600, Note_on_c, 11, 89, 93
21, 219646, Note_on_c, 11, 89, 0
21, 219648, Note_on_c, 11, 91, 94
21, 219694, Note_on_c, 11, 91, 0
21, 219696, Note_on_c, 11, 89, 87
21, 219742, Note_on_c, 11, 89, 0
21, 219744, Note_on_c, 11, 91, 98
21, 219790, Note_on_c, 11, 91, 0
21, 219792, Note_on_c, 11, 93, 93
21, 219838, Note_on_c, 11, 93, 0
21, 219840, Note_on_c, 11, 91, 94
21, 219886, Note_on_c, 11, 91, 0
21, 219888, Note_on_c, 11, 89, 92
21, 219934, Note_on_c, 11, 89, 0
21, 219936, Note_on_c, 11, 86, 98
21, 219982, Note_on_c, 11, 86, 0
21, 219984, Note_on_c, 11, 89, 95
21, 220030, Note_on_c, 11, 89, 0
21, 220032, Note_on_c, 11, 91, 103
21, 220078, Note_on_c, 11, 91, 0
21, 220080, Note_on_c, 11, 89, 103
21, 220126, Note_on_c, 11, 89, 0
21, 220128, Note_on_c, 11, 91, 104
21, 220174, Note_on_c, 11, 91, 0
21, 220176, Note_on_c, 11, 93, 107
21, 220222, Note_on_c, 11, 93, 0
21, 220224, Note_on_c, 11, 91, 106
21, 220270, Note_on_c, 11, 91, 0
21, 220272, Note_on_c, 11, 89, 103
21, 220318, Note_on_c, 11, 89, 0
21, 220320, Note_on_c, 11, 86, 110
21, 220366, Note_on_c, 11, 86, 0
21, 220368, Note_on_c, 11, 89, 109
21, 220414, Note_on_c, 11, 89, 0
21, 220416, Note_on_c, 11, 89, 110
21, 220484, Note_on_c, 11, 89, 0
21, 220512, Note_on_c, 11, 91, 113
21, 220580, Note_on_c, 11, 91, 0
21, 220608, Note_on_c, 11, 94, 113
21, 220670, Note_on_c, 11, 94, 0
21, 220672, Note_on_c, 11, 92, 103
21, 220734, Note_on_c, 11, 92, 0
21, 220736, Note_on_c, 11, 91, 107
21, 220798, Note_on_c, 11, 91, 0
21, 220800, Note_on_c, 11, 89, 109
21, 220868, Note_on_c, 11, 89, 0
21, 220896, Note_on_c, 11, 91, 107
21, 220964, Note_on_c, 11, 91, 0
21, 220992, Note_on_c, 11, 94, 110
21, 221054, Note_on_c, 11, 94, 0
21, 221056, Note_on_c, 11, 92, 109
21, 221118, Note_on_c, 11, 92, 0
21, 221120, Note_on_c, 11, 91, 111
21, 221182, Note_on_c, 11, 91, 0
21, 221184, Note_on_c, 11, 89, 105
21, 221252, Note_on_c, 11, 89, 0
21, 221280, Note_on_c, 11, 91, 112
21, 221348, Note_on_c, 11, 91, 0
21, 221376, Note_on_c, 11, 94, 103
21, 221438, Note_on_c, 11, 94, 0
21, 221440, Note_on_c, 11, 92, 104
21, 221502, Note_on_c, 11, 92, 0
21, 221504, Note_on_c, 11, 91, 103
21, 221566, Note_on_c, 11, 91, 0
21, 221568, Note_on_c, 11, 89, 106
21, 221636, Note_on_c, 11, 89, 0
21, 221664, Note_on_c, 11, 91, 106
21, 221732, Note_on_c, 11, 91, 0
21, 221760, Note_on_c, 11, 94, 106
21, 221822, Note_on_c, 11, 94, 0
21, 221824, Note_on_c, 11, 92, 111
21, 221886, Note_on_c, 11, 92, 0
21, 221888, Note_on_c, 11, 91, 103
21, 221950, Note_on_c, 11, 91, 0
21, 221952, Note_on_c, 11, 89, 108
21, 222020, Note_on_c, 11, 89, 0
21, 222048, Note_on_c, 11, 91, 109
21, 222116, Note_on_c, 11, 91, 0
21, 222144, Note_on_c, 11, 94, 103
21, 222206, Note_on_c, 11, 94, 0
21, 222208, Note_on_c, 11, 92, 103
21, 222270, Note_on_c, 11, 92, 0
21, 222272, Note_on_c, 11, 91, 113
21, 222334, Note_on_c, 11, 91, 0
21, 222336, Note_on_c, 11, 89, 108
21, 222404, Note_on_c, 11, 89, 0
21, 222432, Note_on_c, 11, 91, 110
21, 222500, Note_on_c, 11, 91, 0
21, 222528, Note_on_c, 11, 94, 107
21, 222590, Note_on_c, 11, 94, 0
21, 222592, Note_on_c, 11, 92, 110
21, 222654, Note_on_c, 11, 92, 0
21, 222656, Note_on_c, 11, 91, 110
21, 222718, Note_on_c, 11, 91, 0
21, 222720, Note_on_c, 11, 89, 103
21, 222788, Note_on_c, 11, 89, 0
21, 222816, Note_on_c, 11, 91, 111
21, 222884, Note_on_c, 11, 91, 0
21, 222912, Note_on_c, 11, 94, 111
21, 222974, Note_on_c, 11, 94, 0
21, 222976, Note_on_c, 11, 92, 104
21, 223038, Note_on_c, 11, 92, 0
21, 223040, Note_on_c, 11, 91, 111
21, 223102, Note_on_c, 11, 91, 0
21, 223104, Note_on_c, 11, 89, 110
21, 223172, Note_on_c, 11, 89, 0
21, 223200, Note_on_c, 11, 91, 105
21, 223268, Note_on_c, 11, 91, 0
21, 223296, Note_on_c, 11, 94, 112
21, 223358, Note_on_c, 11, 94, 0
21, 223360, Note_on_c, 11, 92, 109
21, 223422, Note_on_c, 11, 92, 0
21, 223424, Note_on_c, 11, 94, 110
21, 223486, Note_on_c, 11, 94, 0
21, 223488, Program_c, 11, 44
21, 223488, Note_on_c, 11, 97, 125
21, 224976, Note_on_c, 11, 97, 0
21, 225024, Program_c, 11, 48
21, 225024, Note_on_c, 11, 97, 127
21, 225118, Note_on_c, 11, 97, 0
21, 225216, Note_on_c, 11, 61, 127
21, 225310, Note_on_c, 11, 61, 0
21, 225310, End_track
22, 0, Start_track
22, 0, Title_t, "Violini I - b"
22, 0, MIDI_port, 0
22, 194, Control_c, 11, 0, 0
22, 195, Control_c, 11, 32, 0
22, 196, Program_c, 11, 48
22, 197, Control_c, 11, 7, 127
22, 198, Control_c, 11, 10, 44
22, 199, Control_c, 11, 91, 127
22, 23808, Note_on_c, 11, 71, 91
22, 27984, Note_on_c, 11, 71, 0
22, 28032, Note_on_c, 11, 72, 95
22, 28192, Note_on_c, 11, 72, 0
22, 113664, Note_on_c, 11, 72, 74
22, 113856, Note_on_c, 11, 72, 0
22, 113856, Note_on_c, 11, 73, 78
22, 114048, Note_on_c, 11, 73, 0
22, 114048, Note_on_c, 11, 70, 77
22, 114176, Note_on_c, 11, 70, 0
22, 114176, Note_on_c, 11, 68, 76
22, 114304, Note_on_c, 11, 68, 0
22, 114304, Note_on_c, 11, 70, 70
22, 114430, Note_on_c, 11, 70, 0
22, 114432, Note_on_c, 11, 65, 75
22, 114624, Note_on_c, 11, 65, 0
22, 114624, Note_on_c, 11, 66, 72
22, 114816, Note_on_c, 11, 66, 0
22, 114816, Note_on_c, 11, 63, 65
22, 114944, Note_on_c, 11, 63, 0
22, 114944, Note_on_c, 11, 61, 56
22, 115072, Note_on_c, 11, 61, 0
22, 115072, Note_on_c, 11, 63, 46
22, 115198, Note_on_c, 11, 63, 0
22, 139008, Note_on_c, 11, 76, 42
22, 139054, Note_on_c, 11, 76, 0
22, 139056, Note_on_c, 11, 76, 44
22, 139102, Note_on_c, 11, 76, 0
22, 139104, Note_on_c, 11, 76, 44
22, 139150, Note_on_c, 11, 76, 0
22, 139152, Note_on_c, 11, 76, 42
22, 139198, Note_on_c, 11, 76, 0
22, 139200, Note_on_c, 11, 76, 47
22, 139246, Note_on_c, 11, 76, 0
22, 139248, Note_on_c, 11, 76, 49
22, 139294, Note_on_c, 11, 76, 0
22, 139296, Note_on_c, 11, 76, 50
22, 139342, Note_on_c, 11, 76, 0
22, 139344, Note_on_c, 11, 76, 47
22, 139390, Note_on_c, 11, 76, 0
22, 139392, Note_on_c, 11, 76, 48
22, 139438, Note_on_c, 11, 76, 0
22, 139440, Note_on_c, 11, 76, 49
22, 139486, Note_on_c, 11, 76, 0
22, 139488, Note_on_c, 11, 76, 40
22, 139534, Note_on_c, 11, 76, 0
22, 139536, Note_on_c, 11, 76, 40
22, 139582, Note_on_c, 11, 76, 0
22, 139584, Note_on_c, 11, 76, 50
22, 139630, Note_on_c, 11, 76, 0
22, 139632, Note_on_c, 11, 76, 43
22, 139678, Note_on_c, 11, 76, 0
22, 139680, Note_on_c, 11, 76, 48
22, 139726, Note_on_c, 11, 76, 0
22, 139728, Note_on_c, 11, 76, 45
22, 139774, Note_on_c, 11, 76, 0
22, 140544, Note_on_c, 11, 76, 47
22, 140590, Note_on_c, 11, 76, 0
22, 140592, Note_on_c, 11, 76, 49
22, 140638, Note_on_c, 11, 76, 0
22, 140640, Note_on_c, 11, 76, 48
22, 140686, Note_on_c, 11, 76, 0
22, 140688, Note_on_c, 11, 76, 44
22, 140734, Note_on_c, 11, 76, 0
22, 140736, Note_on_c, 11, 76, 44
22, 140782, Note_on_c, 11, 76, 0
22, 140784, Note_on_c, 11, 76, 40
22, 140830, Note_on_c, 11, 76, 0
22, 140832, Note_on_c, 11, 76, 48
22, 140878, Note_on_c, 11, 76, 0
22, 140880, Note_on_c, 11, 76, 40
22, 140926, Note_on_c, 11, 76, 0
22, 140928, Note_on_c, 11, 76, 50
22, 140974, Note_on_c, 11, 76, 0
22, 140976, Note_on_c, 11, 76, 42
22, 141022, Note_on_c, 11, 76, 0
22, 141024, Note_on_c, 11, 76, 41
22, 141070, Note_on_c, 11, 76, 0
22, 141072, Note_on_c, 11, 76, 50
22, 141118, Note_on_c, 11, 76, 0
22, 141120, Note_on_c, 11, 76, 45
22, 141166, Note_on_c, 11, 76, 0
22, 141168, Note_on_c, 11, 76, 40
22, 141214, Note_on_c, 11, 76, 0
22, 141216, Note_on_c, 11, 76, 43
22, 141262, Note_on_c, 11, 76, 0
22, 141264, Note_on_c, 11, 76, 50
22, 141310, Note_on_c, 11, 76, 0
22, 142080, Note_on_c, 11, 76, 28
22, 142126, Note_on_c, 11, 76, 0
22, 142128, Note_on_c, 11, 76, 31
22, 142174, Note_on_c, 11, 76, 0
22, 142176, Note_on_c, 11, 76, 25
22, 142222, Note_on_c, 11, 76, 0
22, 142224, Note_on_c, 11, 76, 26
22, 142270, Note_on_c, 11, 76, 0
22, 142272, Note_on_c, 11, 76, 32
22, 142318, Note_on_c, 11, 76, 0
22, 142320, Note_on_c, 11, 76, 26
22, 142366, Note_on_c, 11, 76, 0
22, 142368, Note_on_c, 11, 76, 33
22, 142414, Note_on_c, 11, 76, 0
22, 142416, Note_on_c, 11, 76, 33
22, 142462, Note_on_c, 11, 76, 0
22, 142464, Note_on_c, 11, 76, 33
22, 142510, Note_on_c, 11, 76, 0
22, 142512, Note_on_c, 11, 76, 34
22, 142558, Note_on_c, 11, 76, 0
22, 142560, Note_on_c, 11, 76, 30
22, 142606, Note_on_c, 11, 76, 0
22, 142608, Note_on_c, 11, 76, 31
22, 142654, Note_on_c, 11, 76, 0
22, 142656, Note_on_c, 11, 76, 29
22, 142702, Note_on_c, 11, 76, 0
22, 142704, Note_on_c, 11, 76, 27
22, 142750, Note_on_c, 11, 76, 0
22, 142752, Note_on_c, 11, 76, 28
22, 142798, Note_on_c, 11, 76, 0
22, 142800, Note_on_c, 11, 76, 28
22, 142846, Note_on_c, 11, 76, 0
22, 143616, Note_on_c, 11, 76, 26
22, 143662, Note_on_c, 11, 76, 0
22, 143664, Note_on_c, 11, 76, 32
22, 143710, Note_on_c, 11, 76, 0
22, 143712, Note_on_c, 11, 76, 28
22, 143758, Note_on_c, 11, 76, 0
22, 143760, Note_on_c, 11, 76, 29
22, 143806, Note_on_c, 11, 76, 0
22, 143808, Note_on_c, 11, 76, 30
22, 143854, Note_on_c, 11, 76, 0
22, 143856, Note_on_c, 11, 76, 31
22, 143902, Note_on_c, 11, 76, 0
22, 143904, Note_on_c, 11, 76, 34
22, 143950, Note_on_c, 11, 76, 0
22, 143952, Note_on_c, 11, 76, 33
22, 143998, Note_on_c, 11, 76, 0
22, 144000, Note_on_c, 11, 76, 33
22, 144046, Note_on_c, 11, 76, 0
22, 144048, Note_on_c, 11, 76, 32
22, 144094, Note_on_c, 11, 76, 0
22, 144096, Note_on_c, 11, 76, 33
22, 144142, Note_on_c, 11, 76, 0
22, 144144, Note_on_c, 11, 76, 27
22, 144190, Note_on_c, 11, 76, 0
22, 144192, Note_on_c, 11, 76, 35
22, 144238, Note_on_c, 11, 76, 0
22, 144240, Note_on_c, 11, 76, 33
22, 144286, Note_on_c, 11, 76, 0
22, 144288, Note_on_c, 11, 76, 30
22, 144334, Note_on_c, 11, 76, 0
22, 144336, Note_on_c, 11, 76, 26
22, 144382, Note_on_c, 11, 76, 0
22, 149856, Note_on_c, 11, 80, 80
22, 149902, Note_on_c, 11, 80, 0
22, 149904, Note_on_c, 11, 80, 78
22, 149950, Note_on_c, 11, 80, 0
22, 149952, Note_on_c, 11, 80, 71
22, 149998, Note_on_c, 11, 80, 0
22, 150000, Note_on_c, 11, 80, 76
22, 150046, Note_on_c, 11, 80, 0
22, 150048, Note_on_c, 11, 79, 83
22, 150094, Note_on_c, 11, 79, 0
22, 150096, Note_on_c, 11, 79, 81
22, 150142, Note_on_c, 11, 79, 0
22, 150240, Note_on_c, 11, 79, 86
22, 150286, Note_on_c, 11, 79, 0
22, 150288, Note_on_c, 11, 79, 89
22, 150334, Note_on_c, 11, 79, 0
22, 150336, Note_on_c, 11, 79, 84
22, 150382, Note_on_c, 11, 79, 0
22, 150384, Note_on_c, 11, 79, 93
22, 150430, Note_on_c, 11, 79, 0
22, 150432, Note_on_c, 11, 80, 85
22, 150478, Note_on_c, 11, 80, 0
22, 150480, Note_on_c, 11, 80, 95
22, 150526, Note_on_c, 11, 80, 0
22, 180480, Note_on_c, 11, 73, 103
22, 180672, Note_on_c, 11, 73, 0
22, 180672, Note_on_c, 11, 75, 105
22, 180864, Note_on_c, 11, 75, 0
22, 180864, Note_on_c, 11, 79, 107
22, 181376, Note_on_c, 11, 79, 0
22, 181376, Note_on_c, 11, 77, 110
22, 181504, Note_on_c, 11, 77, 0
22, 181504, Note_on_c, 11, 75, 107
22, 181632, Note_on_c, 11, 75, 0
22, 181632, Note_on_c, 11, 73, 108
22, 181824, Note_on_c, 11, 73, 0
22, 181824, Note_on_c, 11, 72, 107
22, 182016, Note_on_c, 11, 72, 0
22, 182016, Note_on_c, 11, 70, 105
22, 182176, Note_on_c, 11, 70, 0
22, 182208, Note_on_c, 11, 73, 110
22, 182592, Note_on_c, 11, 73, 0
22, 182592, Note_on_c, 11, 75, 108
22, 182752, Note_on_c, 11, 75, 0
22, 189056, Note_on_c, 11, 81, 33
22, 189118, Note_on_c, 11, 81, 0
22, 189120, Note_on_c, 11, 69, 26
22, 189182, Note_on_c, 11, 69, 0
22, 189184, Note_on_c, 11, 81, 32
22, 189246, Note_on_c, 11, 81, 0
22, 189248, Note_on_c, 11, 80, 28
22, 189290, Note_on_c, 11, 80, 0
22, 189440, Note_on_c, 11, 81, 33
22, 189502, Note_on_c, 11, 81, 0
22, 189504, Note_on_c, 11, 69, 33
22, 189566, Note_on_c, 11, 69, 0
22, 189568, Note_on_c, 11, 81, 32
22, 189630, Note_on_c, 11, 81, 0
22, 189632, Note_on_c, 11, 80, 27
22, 189674, Note_on_c, 11, 80, 0
22, 189824, Note_on_c, 11, 81, 34
22, 189886, Note_on_c, 11, 81, 0
22, 189888, Note_on_c, 11, 69, 28
22, 189950, Note_on_c, 11, 69, 0
22, 189952, Note_on_c, 11, 81, 25
22, 190014, Note_on_c, 11, 81, 0
22, 190016, Note_on_c, 11, 80, 30
22, 190058, Note_on_c, 11, 80, 0
22, 190208, Note_on_c, 11, 81, 34
22, 190270, Note_on_c, 11, 81, 0
22, 190272, Note_on_c, 11, 69, 34
22, 190334, Note_on_c, 11, 69, 0
22, 190336, Note_on_c, 11, 81, 31
22, 190398, Note_on_c, 11, 81, 0
22, 190400, Note_on_c, 11, 80, 32
22, 190442, Note_on_c, 11, 80, 0
22, 190592, Note_on_c, 11, 82, 30
22, 190654, Note_on_c, 11, 82, 0
22, 190656, Note_on_c, 11, 70, 33
22, 190718, Note_on_c, 11, 70, 0
22, 190720, Note_on_c, 11, 82, 33
22, 190782, Note_on_c, 11, 82, 0
22, 190784, Note_on_c, 11, 80, 30
22, 190826, Note_on_c, 11, 80, 0
22, 190976, Note_on_c, 11, 82, 32
22, 191038, Note_on_c, 11, 82, 0
22, 191040, Note_on_c, 11, 70, 31
22, 191102, Note_on_c, 11, 70, 0
22, 191104, Note_on_c, 11, 82, 27
22, 191166, Note_on_c, 11, 82, 0
22, 191168, Note_on_c, 11, 80, 25
22, 191210, Note_on_c, 11, 80, 0
22, 191360, Note_on_c, 11, 82, 32
22, 191422, Note_on_c, 11, 82, 0
22, 191424, Note_on_c, 11, 69, 27
22, 191486, Note_on_c, 11, 69, 0
22, 191488, Note_on_c, 11, 82, 27
22, 191550, Note_on_c, 11, 82, 0
22, 191552, Note_on_c, 11, 80, 26
22, 191594, Note_on_c, 11, 80, 0
22, 191744, Note_on_c, 11, 82, 34
22, 191806, Note_on_c, 11, 82, 0
22, 191808, Note_on_c, 11, 69, 35
22, 191870, Note_on_c, 11, 69, 0
22, 191872, Note_on_c, 11, 82, 29
22, 191934, Note_on_c, 11, 82, 0
22, 191936, Note_on_c, 11, 80, 29
22, 191978, Note_on_c, 11, 80, 0
22, 192128, Note_on_c, 11, 83, 28
22, 192190, Note_on_c, 11, 83, 0
22, 192192, Note_on_c, 11, 71, 34
22, 192254, Note_on_c, 11, 71, 0
22, 192256, Note_on_c, 11, 83, 27
22, 192318, Note_on_c, 11, 83, 0
22, 192320, Note_on_c, 11, 82, 28
22, 192362, Note_on_c, 11, 82, 0
22, 192512, Note_on_c, 11, 81, 32
22, 192574, Note_on_c, 11, 81, 0
22, 192576, Note_on_c, 11, 69, 31
22, 192638, Note_on_c, 11, 69, 0
22, 192640, Note_on_c, 11, 81, 35
22, 192702, Note_on_c, 11, 81, 0
22, 192704, Note_on_c, 11, 78, 32
22, 192746, Note_on_c, 11, 78, 0
22, 192896, Note_on_c, 11, 74, 29
22, 192958, Note_on_c, 11, 74, 0
22, 192960, Note_on_c, 11, 62, 33
22, 193022, Note_on_c, 11, 62, 0
22, 193024, Note_on_c, 11, 74, 26
22, 193086, Note_on_c, 11, 74, 0
22, 193088, Note_on_c, 11, 64, 32
22, 193130, Note_on_c, 11, 64, 0
22, 193280, Note_on_c, 11, 77, 35
22, 193342, Note_on_c, 11, 77, 0
22, 193344, Note_on_c, 11, 65, 34
22, 193406, Note_on_c, 11, 65, 0
22, 193408, Note_on_c, 11, 77, 27
22, 193470, Note_on_c, 11, 77, 0
22, 193472, Note_on_c, 11, 65, 25
22, 193514, Note_on_c, 11, 65, 0
22, 193664, Note_on_c, 11, 76, 32
22, 193726, Note_on_c, 11, 76, 0
22, 193728, Note_on_c, 11, 64, 33
22, 193790, Note_on_c, 11, 64, 0
22, 193792, Note_on_c, 11, 76, 34
22, 193854, Note_on_c, 11, 76, 0
22, 193856, Note_on_c, 11, 75, 28
22, 193898, Note_on_c, 11, 75, 0
22, 194048, Note_on_c, 11, 74, 32
22, 194110, Note_on_c, 11, 74, 0
22, 194112, Note_on_c, 11, 62, 31
22, 194174, Note_on_c, 11, 62, 0
22, 194176, Note_on_c, 11, 74, 35
22, 194238, Note_on_c, 11, 74, 0
22, 194240, Note_on_c, 11, 71, 29
22, 194282, Note_on_c, 11, 71, 0
22, 194432, Note_on_c, 11, 68, 29
22, 194494, Note_on_c, 11, 68, 0
22, 194496, Note_on_c, 11, 56, 27
22, 194558, Note_on_c, 11, 56, 0
22, 194560, Note_on_c, 11, 68, 26
22, 194622, Note_on_c, 11, 68, 0
22, 194624, Note_on_c, 11, 72, 34
22, 194666, Note_on_c, 11, 72, 0
22, 194816, Note_on_c, 11, 76, 33
22, 194878, Note_on_c, 11, 76, 0
22, 194880, Note_on_c, 11, 64, 27
22, 194942, Note_on_c, 11, 64, 0
22, 194944, Note_on_c, 11, 76, 30
22, 195006, Note_on_c, 11, 76, 0
22, 195008, Note_on_c, 11, 80, 27
22, 195050, Note_on_c, 11, 80, 0
22, 195200, Note_on_c, 11, 68, 27
22, 195262, Note_on_c, 11, 68, 0
22, 195264, Note_on_c, 11, 56, 27
22, 195326, Note_on_c, 11, 56, 0
22, 195328, Note_on_c, 11, 68, 35
22, 195390, Note_on_c, 11, 68, 0
22, 195392, Note_on_c, 11, 72, 27
22, 195434, Note_on_c, 11, 72, 0
22, 195520, Note_on_c, 11, 78, 25
22, 195582, Note_on_c, 11, 78, 0
22, 195584, Note_on_c, 11, 66, 32
22, 195626, Note_on_c, 11, 66, 0
22, 195712, Note_on_c, 11, 79, 29
22, 195774, Note_on_c, 11, 79, 0
22, 195776, Note_on_c, 11, 67, 30
22, 195818, Note_on_c, 11, 67, 0
22, 195968, Note_on_c, 11, 81, 46
22, 196030, Note_on_c, 11, 81, 0
22, 196032, Note_on_c, 11, 69, 40
22, 196094, Note_on_c, 11, 69, 0
22, 196096, Note_on_c, 11, 81, 43
22, 196158, Note_on_c, 11, 81, 0
22, 196160, Note_on_c, 11, 80, 41
22, 196202, Note_on_c, 11, 80, 0
22, 196352, Note_on_c, 11, 81, 47
22, 196414, Note_on_c, 11, 81, 0
22, 196416, Note_on_c, 11, 69, 41
22, 196478, Note_on_c, 11, 69, 0
22, 196480, Note_on_c, 11, 81, 40
22, 196542, Note_on_c, 11, 81, 0
22, 196544, Note_on_c, 11, 80, 44
22, 196586, Note_on_c, 11, 80, 0
22, 196736, Note_on_c, 11, 81, 45
22, 196798, Note_on_c, 11, 81, 0
22, 196800, Note_on_c, 11, 69, 40
22, 196862, Note_on_c, 11, 69, 0
22, 196864, Note_on_c, 11, 81, 41
22, 196926, Note_on_c, 11, 81, 0
22, 196928, Note_on_c, 11, 80, 50
22, 196970, Note_on_c, 11, 80, 0
22, 197120, Note_on_c, 11, 81, 46
22, 197182, Note_on_c, 11, 81, 0
22, 197184, Note_on_c, 11, 69, 49
22, 197246, Note_on_c, 11, 69, 0
22, 197248, Note_on_c, 11, 81, 48
22, 197310, Note_on_c, 11, 81, 0
22, 197312, Note_on_c, 11, 80, 46
22, 197354, Note_on_c, 11, 80, 0
22, 197504, Note_on_c, 11, 82, 42
22, 197566, Note_on_c, 11, 82, 0
22, 197568, Note_on_c, 11, 70, 46
22, 197630, Note_on_c, 11, 70, 0
22, 197632, Note_on_c, 11, 82, 42
22, 197694, Note_on_c, 11, 82, 0
22, 197696, Note_on_c, 11, 80, 50
22, 197738, Note_on_c, 11, 80, 0
22, 197888, Note_on_c, 11, 82, 47
22, 197950, Note_on_c, 11, 82, 0
22, 197952, Note_on_c, 11, 70, 50
22, 198014, Note_on_c, 11, 70, 0
22, 198016, Note_on_c, 11, 82, 47
22, 198078, Note_on_c, 11, 82, 0
22, 198080, Note_on_c, 11, 80, 46
22, 198122, Note_on_c, 11, 80, 0
22, 198272, Note_on_c, 11, 82, 41
22, 198334, Note_on_c, 11, 82, 0
22, 198336, Note_on_c, 11, 69, 44
22, 198398, Note_on_c, 11, 69, 0
22, 198400, Note_on_c, 11, 82, 49
22, 198462, Note_on_c, 11, 82, 0
22, 198464, Note_on_c, 11, 80, 46
22, 198506, Note_on_c, 11, 80, 0
22, 198656, Note_on_c, 11, 82, 42
22, 198718, Note_on_c, 11, 82, 0
22, 198720, Note_on_c, 11, 69, 42
22, 198782, Note_on_c, 11, 69, 0
22, 198784, Note_on_c, 11, 82, 44
22, 198846, Note_on_c, 11, 82, 0
22, 198848, Note_on_c, 11, 80, 43
22, 198890, Note_on_c, 11, 80, 0
22, 199040, Note_on_c, 11, 75, 71
22, 199082, Note_on_c, 11, 75, 0
22, 199104, Note_on_c, 11, 75, 77
22, 199146, Note_on_c, 11, 75, 0
22, 199168, Note_on_c, 11, 75, 71
22, 199210, Note_on_c, 11, 75, 0
22, 199232, Note_on_c, 11, 73, 75
22, 199274, Note_on_c, 11, 73, 0
22, 199424, Note_on_c, 11, 75, 72
22, 199466, Note_on_c, 11, 75, 0
22, 199488, Note_on_c, 11, 75, 70
22, 199530, Note_on_c, 11, 75, 0
22, 199552, Note_on_c, 11, 75, 71
22, 199594, Note_on_c, 11, 75, 0
22, 199616, Note_on_c, 11, 73, 71
22, 199658, Note_on_c, 11, 73, 0
22, 199808, Note_on_c, 11, 75, 74
22, 199850, Note_on_c, 11, 75, 0
22, 199872, Note_on_c, 11, 75, 80
22, 199914, Note_on_c, 11, 75, 0
22, 199936, Note_on_c, 11, 75, 76
22, 199978, Note_on_c, 11, 75, 0
22, 200000, Note_on_c, 11, 73, 80
22, 200042, Note_on_c, 11, 73, 0
22, 200192, Note_on_c, 11, 75, 75
22, 200234, Note_on_c, 11, 75, 0
22, 200256, Note_on_c, 11, 75, 71
22, 200298, Note_on_c, 11, 75, 0
22, 200320, Note_on_c, 11, 75, 79
22, 200362, Note_on_c, 11, 75, 0
22, 200384, Note_on_c, 11, 73, 77
22, 200426, Note_on_c, 11, 73, 0
22, 200576, Note_on_c, 11, 75, 70
22, 200618, Note_on_c, 11, 75, 0
22, 200640, Note_on_c, 11, 75, 72
22, 200682, Note_on_c, 11, 75, 0
22, 200704, Note_on_c, 11, 75, 75
22, 200746, Note_on_c, 11, 75, 0
22, 200768, Note_on_c, 11, 73, 74
22, 200810, Note_on_c, 11, 73, 0
22, 200960, Note_on_c, 11, 75, 75
22, 201002, Note_on_c, 11, 75, 0
22, 201024, Note_on_c, 11, 75, 79
22, 201066, Note_on_c, 11, 75, 0
22, 201088, Note_on_c, 11, 75, 71
22, 201130, Note_on_c, 11, 75, 0
22, 201152, Note_on_c, 11, 73, 70
22, 201194, Note_on_c, 11, 73, 0
22, 201344, Note_on_c, 11, 75, 72
22, 201386, Note_on_c, 11, 75, 0
22, 201408, Note_on_c, 11, 75, 78
22, 201450, Note_on_c, 11, 75, 0
22, 201472, Note_on_c, 11, 75, 77
22, 201514, Note_on_c, 11, 75, 0
22, 201536, Note_on_c, 11, 73, 76
22, 201578, Note_on_c, 11, 73, 0
22, 201728, Note_on_c, 11, 75, 73
22, 201770, Note_on_c, 11, 75, 0
22, 201792, Note_on_c, 11, 75, 71
22, 201834, Note_on_c, 11, 75, 0
22, 201856, Note_on_c, 11, 75, 70
22, 201898, Note_on_c, 11, 75, 0
22, 201920, Note_on_c, 11, 73, 80
22, 201962, Note_on_c, 11, 73, 0
22, 202112, Note_on_c, 11, 80, 72
22, 202154, Note_on_c, 11, 80, 0
22, 202176, Note_on_c, 11, 80, 70
22, 202218, Note_on_c, 11, 80, 0
22, 202240, Note_on_c, 11, 80, 80
22, 202282, Note_on_c, 11, 80, 0
22, 202304, Note_on_c, 11, 78, 80
22, 202346, Note_on_c, 11, 78, 0
22, 202496, Note_on_c, 11, 80, 76
22, 202538, Note_on_c, 11, 80, 0
22, 202560, Note_on_c, 11, 80, 75
22, 202602, Note_on_c, 11, 80, 0
22, 202624, Note_on_c, 11, 80, 79
22, 202666, Note_on_c, 11, 80, 0
22, 202688, Note_on_c, 11, 78, 72
22, 202730, Note_on_c, 11, 78, 0
22, 202880, Note_on_c, 11, 80, 71
22, 202922, Note_on_c, 11, 80, 0
22, 202944, Note_on_c, 11, 80, 80
22, 202986, Note_on_c, 11, 80, 0
22, 203008, Note_on_c, 11, 80, 80
22, 203050, Note_on_c, 11, 80, 0
22, 203072, Note_on_c, 11, 78, 71
22, 203114, Note_on_c, 11, 78, 0
22, 203264, Note_on_c, 11, 82, 78
22, 203306, Note_on_c, 11, 82, 0
22, 203328, Note_on_c, 11, 82, 71
22, 203370, Note_on_c, 11, 82, 0
22, 203392, Note_on_c, 11, 82, 79
22, 203434, Note_on_c, 11, 82, 0
22, 203456, Note_on_c, 11, 80, 71
22, 203498, Note_on_c, 11, 80, 0
22, 203648, Note_on_c, 11, 80, 69
22, 203690, Note_on_c, 11, 80, 0
22, 203712, Note_on_c, 11, 80, 74
22, 203754, Note_on_c, 11, 80, 0
22, 203776, Note_on_c, 11, 80, 69
22, 203818, Note_on_c, 11, 80, 0
22, 203840, Note_on_c, 11, 78, 65
22, 203882, Note_on_c, 11, 78, 0
22, 204032, Note_on_c, 11, 80, 49
22, 204074, Note_on_c, 11, 80, 0
22, 204096, Note_on_c, 11, 80, 54
22, 204138, Note_on_c, 11, 80, 0
22, 204160, Note_on_c, 11, 80, 48
22, 204202, Note_on_c, 11, 80, 0
22, 204224, Note_on_c, 11, 78, 49
22, 204266, Note_on_c, 11, 78, 0
22, 204416, Note_on_c, 11, 77, 80
22, 204458, Note_on_c, 11, 77, 0
22, 204480, Note_on_c, 11, 77, 77
22, 204522, Note_on_c, 11, 77, 0
22, 204544, Note_on_c, 11, 77, 72
22, 204586, Note_on_c, 11, 77, 0
22, 204608, Note_on_c, 11, 75, 73
22, 204650, Note_on_c, 11, 75, 0
22, 204800, Note_on_c, 11, 77, 73
22, 204842, Note_on_c, 11, 77, 0
22, 204864, Note_on_c, 11, 77, 73
22, 204906, Note_on_c, 11, 77, 0
22, 204928, Note_on_c, 11, 77, 78
22, 204970, Note_on_c, 11, 77, 0
22, 204992, Note_on_c, 11, 75, 77
22, 205034, Note_on_c, 11, 75, 0
22, 205184, Note_on_c, 11, 75, 73
22, 205226, Note_on_c, 11, 75, 0
22, 205248, Note_on_c, 11, 75, 75
22, 205290, Note_on_c, 11, 75, 0
22, 205312, Note_on_c, 11, 75, 75
22, 205354, Note_on_c, 11, 75, 0
22, 205376, Note_on_c, 11, 73, 74
22, 205418, Note_on_c, 11, 73, 0
22, 205568, Note_on_c, 11, 75, 74
22, 205610, Note_on_c, 11, 75, 0
22, 205632, Note_on_c, 11, 75, 74
22, 205674, Note_on_c, 11, 75, 0
22, 205696, Note_on_c, 11, 75, 74
22, 205738, Note_on_c, 11, 75, 0
22, 205760, Note_on_c, 11, 73, 75
22, 205802, Note_on_c, 11, 73, 0
22, 205952, Note_on_c, 11, 75, 70
22, 205994, Note_on_c, 11, 75, 0
22, 206016, Note_on_c, 11, 75, 71
22, 206058, Note_on_c, 11, 75, 0
22, 206080, Note_on_c, 11, 75, 73
22, 206122, Note_on_c, 11, 75, 0
22, 206144, Note_on_c, 11, 73, 73
22, 206186, Note_on_c, 11, 73, 0
22, 206336, Note_on_c, 11, 75, 80
22, 206378, Note_on_c, 11, 75, 0
22, 206400, Note_on_c, 11, 75, 73
22, 206442, Note_on_c, 11, 75, 0
22, 206464, Note_on_c, 11, 75, 73
22, 206506, Note_on_c, 11, 75, 0
22, 206528, Note_on_c, 11, 73, 78
22, 206570, Note_on_c, 11, 73, 0
22, 206720, Note_on_c, 11, 75, 74
22, 206762, Note_on_c, 11, 75, 0
22, 206784, Note_on_c, 11, 75, 79
22, 206826, Note_on_c, 11, 75, 0
22, 206848, Note_on_c, 11, 75, 71
22, 206890, Note_on_c, 11, 75, 0
22, 206912, Note_on_c, 11, 73, 72
22, 206954, Note_on_c, 11, 73, 0
22, 207104, Note_on_c, 11, 75, 72
22, 207146, Note_on_c, 11, 75, 0
22, 207168, Note_on_c, 11, 75, 72
22, 207210, Note_on_c, 11, 75, 0
22, 207232, Note_on_c, 11, 75, 73
22, 207274, Note_on_c, 11, 75, 0
22, 207296, Note_on_c, 11, 73, 77
22, 207338, Note_on_c, 11, 73, 0
22, 207488, Note_on_c, 11, 75, 77
22, 207530, Note_on_c, 11, 75, 0
22, 207552, Note_on_c, 11, 75, 79
22, 207594, Note_on_c, 11, 75, 0
22, 207616, Note_on_c, 11, 75, 86
22, 207658, Note_on_c, 11, 75, 0
22, 207680, Note_on_c, 11, 73, 83
22, 207722, Note_on_c, 11, 73, 0
22, 207872, Note_on_c, 11, 75, 91
22, 207914, Note_on_c, 11, 75, 0
22, 207936, Note_on_c, 11, 75, 94
22, 207978, Note_on_c, 11, 75, 0
22, 208000, Note_on_c, 11, 75, 104
22, 208042, Note_on_c, 11, 75, 0
22, 208064, Note_on_c, 11, 73, 108
22, 208106, Note_on_c, 11, 73, 0
22, 208106, End_track
23, 0, Start_track
23, 0, Title_t, "Violini II - a"
23, 0, MIDI_port, 0
23, 23808, Program_c, 12, 44
23, 23808, Control_c, 12, 11, 64
23, 23808, Note_on_c, 12, 63, 95
23, 23808, Note_on_c, 12, 69, 96
23, 23811, Control_c, 12, 11, 65
23, 23814, Control_c, 12, 11, 66
23, 23817, Control_c, 12, 11, 67
23, 23820, Control_c, 12, 11, 68
23, 23823, Control_c, 12, 11, 69
23, 23826, Control_c, 12, 11, 70
23, 23829, Control_c, 12, 11, 71
23, 23832, Control_c, 12, 11, 72
23, 23835, Control_c, 12, 11, 73
23, 23838, Control_c, 12, 11, 74
23, 23841, Control_c, 12, 11, 75
23, 23844, Control_c, 12, 11, 76
23, 23847, Control_c, 12, 11, 77
23, 23850, Control_c, 12, 11, 78
23, 23853, Control_c, 12, 11, 79
23, 23856, Control_c, 12, 11, 80
23, 23859, Control_c, 12, 11, 81
23, 23862, Control_c, 12, 11, 82
23, 23865, Control_c, 12, 11, 83
23, 23868, Control_c, 12, 11, 84
23, 23872, Control_c, 12, 11, 85
23, 23875, Control_c, 12, 11, 86
23, 23878, Control_c, 12, 11, 87
23, 23881, Control_c, 12, 11, 88
23, 23884, Control_c, 12, 11, 89
23, 23887, Control_c, 12, 11, 90
23, 23890, Control_c, 12, 11, 91
23, 23893, Control_c, 12, 11, 92
23, 23896, Control_c, 12, 11, 93
23, 23899, Control_c, 12, 11, 94
23, 23902, Control_c, 12, 11, 95
23, 23905, Control_c, 12, 11, 96
23, 23908, Control_c, 12, 11, 97
23, 23911, Control_c, 12, 11, 98
23, 23914, Control_c, 12, 11, 99
23, 23917, Control_c, 12, 11, 100
23, 23920, Control_c, 12, 11, 101
23, 23923, Control_c, 12, 11, 102
23, 23926, Control_c, 12, 11, 103
23, 23929, Control_c, 12, 11, 104
23, 23932, Control_c, 12, 11, 105
23, 23936, Control_c, 12, 11, 106
23, 23939, Control_c, 12, 11, 107
23, 23942, Control_c, 12, 11, 108
23, 23945, Control_c, 12, 11, 109
23, 23948, Control_c, 12, 11, 110
23, 23951, Control_c, 12, 11, 111
23, 23954, Control_c, 12, 11, 112
23, 23957, Control_c, 12, 11, 113
23, 23960, Control_c, 12, 11, 114
23, 23963, Control_c, 12, 11, 115
23, 23966, Control_c, 12, 11, 116
23, 23969, Control_c, 12, 11, 117
23, 23972, Control_c, 12, 11, 118
23, 23975, Control_c, 12, 11, 119
23, 23978, Control_c, 12, 11, 120
23, 23981, Control_c, 12, 11, 121
23, 23984, Control_c, 12, 11, 122
23, 23987, Control_c, 12, 11, 123
23, 23990, Control_c, 12, 11, 124
23, 23993, Control_c, 12, 11, 125
23, 23996, Control_c, 12, 11, 126
23, 24000, Control_c, 12, 11, 127
23, 24003, Control_c, 12, 11, 126
23, 24006, Control_c, 12, 11, 125
23, 24009, Control_c, 12, 11, 124
23, 24012, Control_c, 12, 11, 123
23, 24015, Control_c, 12, 11, 122
23, 24018, Control_c, 12, 11, 121
23, 24021, Control_c, 12, 11, 120
23, 24024, Control_c, 12, 11, 119
23, 24027, Control_c, 12, 11, 118
23, 24030, Control_c, 12, 11, 117
23, 24033, Control_c, 12, 11, 116
23, 24036, Control_c, 12, 11, 115
23, 24039, Control_c, 12, 11, 114
23, 24042, Control_c, 12, 11, 113
23, 24045, Control_c, 12, 11, 112
23, 24048, Control_c, 12, 11, 111
23, 24051, Control_c, 12, 11, 110
23, 24054, Control_c, 12, 11, 109
23, 24057, Control_c, 12, 11, 108
23, 24060, Control_c, 12, 11, 107
23, 24064, Control_c, 12, 11, 106
23, 24067, Control_c, 12, 11, 105
23, 24070, Control_c, 12, 11, 104
23, 24073, Control_c, 12, 11, 103
23, 24076, Control_c, 12, 11, 102
23, 24079, Control_c, 12, 11, 101
23, 24082, Control_c, 12, 11, 100
23, 24085, Control_c, 12, 11, 99
23, 24088, Control_c, 12, 11, 98
23, 24091, Control_c, 12, 11, 97
23, 24094, Control_c, 12, 11, 96
23, 24097, Control_c, 12, 11, 95
23, 24100, Control_c, 12, 11, 94
23, 24103, Control_c, 12, 11, 93
23, 24106, Control_c, 12, 11, 92
23, 24109, Control_c, 12, 11, 91
23, 24112, Control_c, 12, 11, 90
23, 24115, Control_c, 12, 11, 89
23, 24118, Control_c, 12, 11, 88
23, 24121, Control_c, 12, 11, 87
23, 24124, Control_c, 12, 11, 86
23, 24128, Control_c, 12, 11, 85
23, 24131, Control_c, 12, 11, 84
23, 24134, Control_c, 12, 11, 83
23, 24137, Control_c, 12, 11, 82
23, 24140, Control_c, 12, 11, 81
23, 24143, Control_c, 12, 11, 80
23, 24146, Control_c, 12, 11, 79
23, 24149, Control_c, 12, 11, 78
23, 24152, Control_c, 12, 11, 77
23, 24155, Control_c, 12, 11, 76
23, 24158, Control_c, 12, 11, 75
23, 24161, Control_c, 12, 11, 74
23, 24164, Control_c, 12, 11, 73
23, 24167, Control_c, 12, 11, 72
23, 24170, Control_c, 12, 11, 71
23, 24173, Control_c, 12, 11, 70
23, 24176, Control_c, 12, 11, 69
23, 24179, Control_c, 12, 11, 68
23, 24182, Control_c, 12, 11, 67
23, 24185, Control_c, 12, 11, 66
23, 24188, Control_c, 12, 11, 65
23, 24192, Control_c, 12, 11, 64
23, 24203, Control_c, 12, 11, 63
23, 24214, Control_c, 12, 11, 62
23, 24225, Control_c, 12, 11, 61
23, 24237, Control_c, 12, 11, 60
23, 24248, Control_c, 12, 11, 59
23, 24259, Control_c, 12, 11, 58
23, 24271, Control_c, 12, 11, 57
23, 24282, Control_c, 12, 11, 56
23, 24293, Control_c, 12, 11, 55
23, 24304, Control_c, 12, 11, 54
23, 24316, Control_c, 12, 11, 53
23, 24327, Control_c, 12, 11, 52
23, 24338, Control_c, 12, 11, 51
23, 24350, Control_c, 12, 11, 50
23, 24361, Control_c, 12, 11, 49
23, 24372, Control_c, 12, 11, 48
23, 24384, Control_c, 12, 11, 47
23, 24395, Control_c, 12, 11, 46
23, 24406, Control_c, 12, 11, 45
23, 24417, Control_c, 12, 11, 44
23, 24429, Control_c, 12, 11, 43
23, 24440, Control_c, 12, 11, 42
23, 24451, Control_c, 12, 11, 41
23, 24463, Control_c, 12, 11, 40
23, 24474, Control_c, 12, 11, 39
23, 24485, Control_c, 12, 11, 38
23, 24496, Control_c, 12, 11, 37
23, 24508, Control_c, 12, 11, 36
23, 24519, Control_c, 12, 11, 35
23, 24530, Control_c, 12, 11, 34
23, 24542, Control_c, 12, 11, 33
23, 24553, Control_c, 12, 11, 32
23, 24564, Control_c, 12, 11, 31
23, 24576, Control_c, 12, 11, 30
23, 27984, Note_on_c, 12, 63, 0
23, 27984, Note_on_c, 12, 69, 0
23, 28032, Note_on_c, 12, 63, 92
23, 28032, Note_on_c, 12, 67, 92
23, 28192, Note_on_c, 12, 63, 0
23, 28192, Note_on_c, 12, 67, 0
23, 29952, Program_c, 12, 44
23, 29952, Control_c, 12, 11, 64
23, 29952, Note_on_c, 12, 71, 92
23, 29952, Note_on_c, 12, 75, 93
23, 29961, Control_c, 12, 11, 65
23, 29970, Control_c, 12, 11, 66
23, 29979, Control_c, 12, 11, 67
23, 29988, Control_c, 12, 11, 68
23, 29997, Control_c, 12, 11, 69
23, 30006, Control_c, 12, 11, 70
23, 30016, Control_c, 12, 11, 71
23, 30025, Control_c, 12, 11, 72
23, 30034, Control_c, 12, 11, 73
23, 30043, Control_c, 12, 11, 74
23, 30052, Control_c, 12, 11, 75
23, 30061, Control_c, 12, 11, 76
23, 30070, Control_c, 12, 11, 77
23, 30080, Control_c, 12, 11, 78
23, 30089, Control_c, 12, 11, 79
23, 30098, Control_c, 12, 11, 80
23, 30107, Control_c, 12, 11, 81
23, 30116, Control_c, 12, 11, 82
23, 30125, Control_c, 12, 11, 83
23, 30134, Control_c, 12, 11, 84
23, 30144, Control_c, 12, 11, 85
23, 30153, Control_c, 12, 11, 86
23, 30162, Control_c, 12, 11, 87
23, 30171, Control_c, 12, 11, 88
23, 30180, Control_c, 12, 11, 89
23, 30189, Control_c, 12, 11, 90
23, 30198, Control_c, 12, 11, 91
23, 30208, Control_c, 12, 11, 92
23, 30217, Control_c, 12, 11, 93
23, 30226, Control_c, 12, 11, 94
23, 30235, Control_c, 12, 11, 95
23, 30244, Control_c, 12, 11, 96
23, 30253, Control_c, 12, 11, 97
23, 30262, Control_c, 12, 11, 98
23, 30272, Control_c, 12, 11, 99
23, 30281, Control_c, 12, 11, 100
23, 30288, Note_on_c, 12, 71, 0
23, 30288, Note_on_c, 12, 75, 0
23, 30290, Control_c, 12, 11, 101
23, 30299, Control_c, 12, 11, 102
23, 30308, Control_c, 12, 11, 103
23, 30317, Control_c, 12, 11, 104
23, 30326, Control_c, 12, 11, 105
23, 30336, Control_c, 12, 11, 106
23, 30336, Note_on_c, 12, 72, 97
23, 30336, Note_on_c, 12, 76, 91
23, 30345, Control_c, 12, 11, 107
23, 30354, Control_c, 12, 11, 108
23, 30363, Control_c, 12, 11, 109
23, 30372, Control_c, 12, 11, 110
23, 30381, Control_c, 12, 11, 111
23, 30390, Control_c, 12, 11, 112
23, 30400, Control_c, 12, 11, 113
23, 30409, Control_c, 12, 11, 114
23, 30418, Control_c, 12, 11, 115
23, 30427, Control_c, 12, 11, 116
23, 30436, Control_c, 12, 11, 117
23, 30445, Control_c, 12, 11, 118
23, 30454, Control_c, 12, 11, 119
23, 30462, Note_on_c, 12, 72, 0
23, 30462, Note_on_c, 12, 76, 0
23, 30464, Control_c, 12, 11, 120
23, 30464, Note_on_c, 12, 73, 96
23, 30464, Note_on_c, 12, 77, 97
23, 30473, Control_c, 12, 11, 121
23, 30482, Control_c, 12, 11, 122
23, 30491, Control_c, 12, 11, 123
23, 30500, Control_c, 12, 11, 124
23, 30509, Control_c, 12, 11, 125
23, 30518, Control_c, 12, 11, 126
23, 30528, Control_c, 12, 11, 127
23, 30624, Note_on_c, 12, 73, 0
23, 30624, Note_on_c, 12, 77, 0
23, 30656, Note_on_c, 12, 72, 88
23, 30656, Note_on_c, 12, 76, 87
23, 30718, Note_on_c, 12, 72, 0
23, 30718, Note_on_c, 12, 76, 0
23, 30720, Note_on_c, 12, 71, 49
23, 30720, Note_on_c, 12, 75, 46
23, 32208, Note_on_c, 12, 71, 0
23, 32208, Note_on_c, 12, 75, 0
23, 32256, Control_c, 12, 11, 64
23, 32256, Note_on_c, 12, 72, 79
23, 32256, Note_on_c, 12, 78, 74
23, 32277, Control_c, 12, 11, 65
23, 32298, Control_c, 12, 11, 66
23, 32320, Control_c, 12, 11, 67
23, 32341, Control_c, 12, 11, 68
23, 32362, Control_c, 12, 11, 69
23, 32384, Control_c, 12, 11, 70
23, 32405, Control_c, 12, 11, 71
23, 32426, Control_c, 12, 11, 72
23, 32448, Control_c, 12, 11, 73
23, 32469, Control_c, 12, 11, 74
23, 32490, Control_c, 12, 11, 75
23, 32512, Control_c, 12, 11, 76
23, 32533, Control_c, 12, 11, 77
23, 32554, Control_c, 12, 11, 78
23, 32576, Control_c, 12, 11, 79
23, 32592, Note_on_c, 12, 72, 0
23, 32592, Note_on_c, 12, 78, 0
23, 32597, Control_c, 12, 11, 80
23, 32618, Control_c, 12, 11, 81
23, 32640, Control_c, 12, 11, 82
23, 32640, Note_on_c, 12, 75, 78
23, 32640, Note_on_c, 12, 81, 79
23, 32661, Control_c, 12, 11, 83
23, 32682, Control_c, 12, 11, 84
23, 32704, Control_c, 12, 11, 85
23, 32725, Control_c, 12, 11, 86
23, 32746, Control_c, 12, 11, 87
23, 32768, Control_c, 12, 11, 88
23, 32789, Control_c, 12, 11, 89
23, 32810, Control_c, 12, 11, 90
23, 32832, Control_c, 12, 11, 91
23, 32853, Control_c, 12, 11, 92
23, 32874, Control_c, 12, 11, 93
23, 32896, Control_c, 12, 11, 94
23, 32917, Control_c, 12, 11, 95
23, 32938, Control_c, 12, 11, 96
23, 32960, Control_c, 12, 11, 97
23, 32976, Note_on_c, 12, 75, 0
23, 32976, Note_on_c, 12, 81, 0
23, 32981, Control_c, 12, 11, 98
23, 33002, Control_c, 12, 11, 99
23, 33024, Control_c, 12, 11, 100
23, 33024, Note_on_c, 12, 75, 74
23, 33024, Note_on_c, 12, 81, 74
23, 33045, Control_c, 12, 11, 101
23, 33066, Control_c, 12, 11, 102
23, 33088, Control_c, 12, 11, 103
23, 33109, Control_c, 12, 11, 104
23, 33130, Control_c, 12, 11, 105
23, 33152, Control_c, 12, 11, 106
23, 33173, Control_c, 12, 11, 107
23, 33194, Control_c, 12, 11, 108
23, 33216, Control_c, 12, 11, 109
23, 33237, Control_c, 12, 11, 110
23, 33258, Control_c, 12, 11, 111
23, 33280, Control_c, 12, 11, 112
23, 33301, Control_c, 12, 11, 113
23, 33322, Control_c, 12, 11, 114
23, 33344, Control_c, 12, 11, 115
23, 33360, Note_on_c, 12, 75, 0
23, 33360, Note_on_c, 12, 81, 0
23, 33365, Control_c, 12, 11, 116
23, 33386, Control_c, 12, 11, 117
23, 33408, Control_c, 12, 11, 118
23, 33408, Note_on_c, 12, 79, 75
23, 33408, Note_on_c, 12, 85, 73
23, 33429, Control_c, 12, 11, 119
23, 33450, Control_c, 12, 11, 120
23, 33472, Control_c, 12, 11, 121
23, 33493, Control_c, 12, 11, 122
23, 33514, Control_c, 12, 11, 123
23, 33536, Control_c, 12, 11, 124
23, 33557, Control_c, 12, 11, 125
23, 33578, Control_c, 12, 11, 126
23, 33600, Control_c, 12, 11, 127
23, 33744, Note_on_c, 12, 79, 0
23, 33744, Note_on_c, 12, 85, 0
23, 33792, Program_c, 12, 48
23, 34656, Note_on_c, 12, 68, 80
23, 34688, Note_on_c, 12, 68, 0
23, 34704, Note_on_c, 12, 68, 77
23, 34736, Note_on_c, 12, 68, 0
23, 34752, Note_on_c, 12, 69, 76
23, 34784, Note_on_c, 12, 69, 0
23, 34800, Note_on_c, 12, 69, 78
23, 34832, Note_on_c, 12, 69, 0
23, 34848, Note_on_c, 12, 71, 80
23, 34880, Note_on_c, 12, 71, 0
23, 34896, Note_on_c, 12, 71, 73
23, 34928, Note_on_c, 12, 71, 0
23, 34944, Note_on_c, 12, 72, 72
23, 34976, Note_on_c, 12, 72, 0
23, 34992, Note_on_c, 12, 72, 71
23, 35024, Note_on_c, 12, 72, 0
23, 35040, Note_on_c, 12, 74, 76
23, 35072, Note_on_c, 12, 74, 0
23, 35088, Note_on_c, 12, 74, 80
23, 35120, Note_on_c, 12, 74, 0
23, 35136, Note_on_c, 12, 78, 79
23, 35168, Note_on_c, 12, 78, 0
23, 35184, Note_on_c, 12, 78, 72
23, 35216, Note_on_c, 12, 78, 0
23, 35232, Note_on_c, 12, 80, 76
23, 35264, Note_on_c, 12, 80, 0
23, 35280, Note_on_c, 12, 80, 77
23, 35312, Note_on_c, 12, 80, 0
23, 36192, Note_on_c, 12, 68, 79
23, 36224, Note_on_c, 12, 68, 0
23, 36240, Note_on_c, 12, 68, 80
23, 36272, Note_on_c, 12, 68, 0
23, 36288, Note_on_c, 12, 69, 74
23, 36320, Note_on_c, 12, 69, 0
23, 36336, Note_on_c, 12, 69, 76
23, 36368, Note_on_c, 12, 69, 0
23, 36384, Note_on_c, 12, 71, 71
23, 36416, Note_on_c, 12, 71, 0
23, 36432, Note_on_c, 12, 71, 73
23, 36464, Note_on_c, 12, 71, 0
23, 36480, Note_on_c, 12, 72, 72
23, 36512, Note_on_c, 12, 72, 0
23, 36528, Note_on_c, 12, 72, 75
23, 36560, Note_on_c, 12, 72, 0
23, 36576, Note_on_c, 12, 74, 75
23, 36608, Note_on_c, 12, 74, 0
23, 36624, Note_on_c, 12, 74, 72
23, 36656, Note_on_c, 12, 74, 0
23, 36672, Note_on_c, 12, 78, 74
23, 36704, Note_on_c, 12, 78, 0
23, 36720, Note_on_c, 12, 78, 78
23, 36752, Note_on_c, 12, 78, 0
23, 36768, Note_on_c, 12, 80, 73
23, 36800, Note_on_c, 12, 80, 0
23, 36816, Note_on_c, 12, 80, 70
23, 36848, Note_on_c, 12, 80, 0
23, 37728, Note_on_c, 12, 68, 77
23, 37760, Note_on_c, 12, 68, 0
23, 37776, Note_on_c, 12, 68, 77
23, 37808, Note_on_c, 12, 68, 0
23, 37824, Note_on_c, 12, 69, 80
23, 37856, Note_on_c, 12, 69, 0
23, 37872, Note_on_c, 12, 69, 80
23, 37904, Note_on_c, 12, 69, 0
23, 37920, Note_on_c, 12, 71, 80
23, 37952, Note_on_c, 12, 71, 0
23, 37968, Note_on_c, 12, 71, 76
23, 38000, Note_on_c, 12, 71, 0
23, 38016, Note_on_c, 12, 72, 77
23, 38048, Note_on_c, 12, 72, 0
23, 38064, Note_on_c, 12, 72, 75
23, 38096, Note_on_c, 12, 72, 0
23, 38112, Note_on_c, 12, 74, 71
23, 38144, Note_on_c, 12, 74, 0
23, 38160, Note_on_c, 12, 74, 78
23, 38192, Note_on_c, 12, 74, 0
23, 38208, Note_on_c, 12, 78, 73
23, 38240, Note_on_c, 12, 78, 0
23, 38256, Note_on_c, 12, 78, 74
23, 38288, Note_on_c, 12, 78, 0
23, 38304, Note_on_c, 12, 80, 76
23, 38336, Note_on_c, 12, 80, 0
23, 38352, Note_on_c, 12, 80, 77
23, 38384, Note_on_c, 12, 80, 0
23, 39264, Note_on_c, 12, 68, 72
23, 39296, Note_on_c, 12, 68, 0
23, 39312, Note_on_c, 12, 68, 75
23, 39344, Note_on_c, 12, 68, 0
23, 39360, Note_on_c, 12, 69, 73
23, 39392, Note_on_c, 12, 69, 0
23, 39408, Note_on_c, 12, 69, 72
23, 39440, Note_on_c, 12, 69, 0
23, 39456, Note_on_c, 12, 71, 72
23, 39488, Note_on_c, 12, 71, 0
23, 39504, Note_on_c, 12, 71, 76
23, 39536, Note_on_c, 12, 71, 0
23, 39552, Note_on_c, 12, 72, 73
23, 39584, Note_on_c, 12, 72, 0
23, 39600, Note_on_c, 12, 72, 71
23, 39632, Note_on_c, 12, 72, 0
23, 39648, Note_on_c, 12, 74, 79
23, 39680, Note_on_c, 12, 74, 0
23, 39696, Note_on_c, 12, 74, 80
23, 39728, Note_on_c, 12, 74, 0
23, 39744, Note_on_c, 12, 78, 78
23, 39776, Note_on_c, 12, 78, 0
23, 39792, Note_on_c, 12, 78, 73
23, 39824, Note_on_c, 12, 78, 0
23, 39840, Note_on_c, 12, 80, 74
23, 39872, Note_on_c, 12, 80, 0
23, 39888, Note_on_c, 12, 80, 75
23, 39920, Note_on_c, 12, 80, 0
23, 40032, Note_on_c, 12, 68, 80
23, 40064, Note_on_c, 12, 68, 0
23, 40080, Note_on_c, 12, 68, 71
23, 40112, Note_on_c, 12, 68, 0
23, 40128, Note_on_c, 12, 69, 78
23, 40160, Note_on_c, 12, 69, 0
23, 40176, Note_on_c, 12, 69, 79
23, 40208, Note_on_c, 12, 69, 0
23, 40224, Note_on_c, 12, 71, 81
23, 40256, Note_on_c, 12, 71, 0
23, 40272, Note_on_c, 12, 71, 75
23, 40304, Note_on_c, 12, 71, 0
23, 40320, Note_on_c, 12, 72, 82
23, 40352, Note_on_c, 12, 72, 0
23, 40368, Note_on_c, 12, 72, 85
23, 40400, Note_on_c, 12, 72, 0
23, 40416, Note_on_c, 12, 74, 83
23, 40448, Note_on_c, 12, 74, 0
23, 40464, Note_on_c, 12, 74, 86
23, 40496, Note_on_c, 12, 74, 0
23, 40512, Note_on_c, 12, 78, 89
23, 40544, Note_on_c, 12, 78, 0
23, 40560, Note_on_c, 12, 78, 86
23, 40592, Note_on_c, 12, 78, 0
23, 40608, Note_on_c, 12, 80, 85
23, 40640, Note_on_c, 12, 80, 0
23, 40656, Note_on_c, 12, 80, 96
23, 40688, Note_on_c, 12, 80, 0
23, 40800, Note_on_c, 12, 68, 79
23, 40832, Note_on_c, 12, 68, 0
23, 40848, Note_on_c, 12, 68, 77
23, 40880, Note_on_c, 12, 68, 0
23, 40896, Note_on_c, 12, 69, 78
23, 40928, Note_on_c, 12, 69, 0
23, 40944, Note_on_c, 12, 69, 72
23, 40976, Note_on_c, 12, 69, 0
23, 40992, Note_on_c, 12, 71, 76
23, 41024, Note_on_c, 12, 71, 0
23, 41040, Note_on_c, 12, 71, 79
23, 41072, Note_on_c, 12, 71, 0
23, 41088, Note_on_c, 12, 72, 84
23, 41120, Note_on_c, 12, 72, 0
23, 41136, Note_on_c, 12, 72, 81
23, 41168, Note_on_c, 12, 72, 0
23, 41184, Note_on_c, 12, 74, 77
23, 41216, Note_on_c, 12, 74, 0
23, 41232, Note_on_c, 12, 74, 86
23, 41264, Note_on_c, 12, 74, 0
23, 41280, Note_on_c, 12, 78, 86
23, 41312, Note_on_c, 12, 78, 0
23, 41328, Note_on_c, 12, 78, 87
23, 41360, Note_on_c, 12, 78, 0
23, 41376, Note_on_c, 12, 80, 94
23, 41408, Note_on_c, 12, 80, 0
23, 41424, Note_on_c, 12, 80, 88
23, 41456, Note_on_c, 12, 80, 0
23, 41568, Note_on_c, 12, 84, 97
23, 41600, Note_on_c, 12, 84, 0
23, 41664, Note_on_c, 12, 86, 94
23, 41696, Note_on_c, 12, 86, 0
23, 41760, Note_on_c, 12, 88, 98
23, 41792, Note_on_c, 12, 88, 0
23, 41856, Note_on_c, 12, 72, 91
23, 41888, Note_on_c, 12, 72, 0
23, 41952, Note_on_c, 12, 74, 91
23, 41984, Note_on_c, 12, 74, 0
23, 42048, Note_on_c, 12, 76, 96
23, 42080, Note_on_c, 12, 76, 0
23, 42144, Note_on_c, 12, 60, 94
23, 42176, Note_on_c, 12, 60, 0
23, 42240, Note_on_c, 12, 62, 97
23, 42272, Note_on_c, 12, 62, 0
23, 42336, Note_on_c, 12, 64, 101
23, 42368, Note_on_c, 12, 64, 0
23, 42816, Note_on_c, 12, 55, 107
23, 42910, Note_on_c, 12, 55, 0
23, 43200, Program_c, 12, 45
23, 43200, Note_on_c, 12, 56, 112
23, 43294, Note_on_c, 12, 56, 0
23, 54528, Program_c, 12, 45
23, 55296, Control_c, 12, 11, 127
23, 56064, Note_on_c, 12, 59, 31
23, 56158, Note_on_c, 12, 59, 0
23, 56448, Note_on_c, 12, 59, 26
23, 56542, Note_on_c, 12, 59, 0
23, 56832, Note_on_c, 12, 59, 25
23, 56926, Note_on_c, 12, 59, 0
23, 57216, Note_on_c, 12, 59, 32
23, 57310, Note_on_c, 12, 59, 0
23, 57600, Note_on_c, 12, 60, 25
23, 57694, Note_on_c, 12, 60, 0
23, 57984, Note_on_c, 12, 60, 30
23, 58078, Note_on_c, 12, 60, 0
23, 58368, Note_on_c, 12, 60, 28
23, 58462, Note_on_c, 12, 60, 0
23, 58752, Note_on_c, 12, 60, 26
23, 58846, Note_on_c, 12, 60, 0
23, 59136, Note_on_c, 12, 59, 30
23, 59230, Note_on_c, 12, 59, 0
23, 59520, Note_on_c, 12, 59, 30
23, 59614, Note_on_c, 12, 59, 0
23, 59904, Note_on_c, 12, 59, 29
23, 59998, Note_on_c, 12, 59, 0
23, 60288, Note_on_c, 12, 59, 34
23, 60382, Note_on_c, 12, 59, 0
23, 60672, Note_on_c, 12, 57, 31
23, 60766, Note_on_c, 12, 57, 0
23, 61056, Note_on_c, 12, 57, 40
23, 61150, Note_on_c, 12, 57, 0
23, 61440, Note_on_c, 12, 57, 59
23, 61440, Note_on_c, 12, 64, 61
23, 61534, Note_on_c, 12, 57, 0
23, 61534, Note_on_c, 12, 64, 0
23, 61824, Note_on_c, 12, 57, 78
23, 61824, Note_on_c, 12, 68, 78
23, 61918, Note_on_c, 12, 57, 0
23, 61918, Note_on_c, 12, 68, 0
23, 62208, Program_c, 12, 48
23, 62304, Note_on_c, 12, 80, 90
23, 62398, Note_on_c, 12, 80, 0
23, 62400, Note_on_c, 12, 76, 90
23, 62462, Note_on_c, 12, 76, 0
23, 62464, Note_on_c, 12, 72, 93
23, 62506, Note_on_c, 12, 72, 0
23, 62528, Note_on_c, 12, 68, 94
23, 62570, Note_on_c, 12, 68, 0
23, 62656, Note_on_c, 12, 64, 100
23, 62718, Note_on_c, 12, 64, 0
23, 62720, Note_on_c, 12, 68, 98
23, 62782, Note_on_c, 12, 68, 0
23, 62784, Note_on_c, 12, 67, 96
23, 62846, Note_on_c, 12, 67, 0
23, 62848, Note_on_c, 12, 69, 101
23, 62890, Note_on_c, 12, 69, 0
23, 62912, Note_on_c, 12, 71, 107
23, 62954, Note_on_c, 12, 71, 0
23, 63072, Note_on_c, 12, 76, 88
23, 63166, Note_on_c, 12, 76, 0
23, 63168, Note_on_c, 12, 72, 96
23, 63230, Note_on_c, 12, 72, 0
23, 63232, Note_on_c, 12, 68, 105
23, 63274, Note_on_c, 12, 68, 0
23, 63296, Note_on_c, 12, 64, 105
23, 63338, Note_on_c, 12, 64, 0
23, 63424, Note_on_c, 12, 60, 90
23, 63486, Note_on_c, 12, 60, 0
23, 63488, Note_on_c, 12, 64, 94
23, 63550, Note_on_c, 12, 64, 0
23, 63552, Note_on_c, 12, 63, 99
23, 63614, Note_on_c, 12, 63, 0
23, 63616, Note_on_c, 12, 65, 109
23, 63658, Note_on_c, 12, 65, 0
23, 63680, Note_on_c, 12, 67, 105
23, 63722, Note_on_c, 12, 67, 0
23, 64704, Note_on_c, 12, 67, 46
23, 64766, Note_on_c, 12, 67, 0
23, 64768, Note_on_c, 12, 69, 49
23, 64830, Note_on_c, 12, 69, 0
23, 64832, Note_on_c, 12, 71, 51
23, 64894, Note_on_c, 12, 71, 0
23, 64896, Note_on_c, 12, 72, 56
23, 64958, Note_on_c, 12, 72, 0
23, 64960, Note_on_c, 12, 74, 67
23, 65022, Note_on_c, 12, 74, 0
23, 65024, Note_on_c, 12, 76, 69
23, 65086, Note_on_c, 12, 76, 0
23, 65088, Note_on_c, 12, 77, 74
23, 65150, Note_on_c, 12, 77, 0
23, 65152, Note_on_c, 12, 79, 80
23, 65214, Note_on_c, 12, 79, 0
23, 65216, Note_on_c, 12, 83, 93
23, 65278, Note_on_c, 12, 83, 0
23, 65664, Note_on_c, 12, 72, 97
23, 65664, Note_on_c, 12, 76, 87
23, 65758, Note_on_c, 12, 72, 0
23, 65758, Note_on_c, 12, 76, 0
23, 65760, Note_on_c, 12, 72, 92
23, 65760, Note_on_c, 12, 76, 88
23, 65790, Note_on_c, 12, 72, 0
23, 65790, Note_on_c, 12, 76, 0
23, 65792, Note_on_c, 12, 72, 97
23, 65792, Note_on_c, 12, 76, 89
23, 65918, Note_on_c, 12, 72, 0
23, 65918, Note_on_c, 12, 76, 0
23, 65920, Note_on_c, 12, 72, 96
23, 65920, Note_on_c, 12, 76, 95
23, 65982, Note_on_c, 12, 72, 0
23, 65982, Note_on_c, 12, 76, 0
23, 65984, Note_on_c, 12, 72, 101
23, 65984, Note_on_c, 12, 76, 100
23, 66208, Note_on_c, 12, 72, 0
23, 66208, Note_on_c, 12, 76, 0
23, 67200, Note_on_c, 12, 72, 91
23, 67200, Note_on_c, 12, 76, 97
23, 67294, Note_on_c, 12, 72, 0
23, 67294, Note_on_c, 12, 76, 0
23, 67296, Note_on_c, 12, 72, 91
23, 67296, Note_on_c, 12, 76, 93
23, 67326, Note_on_c, 12, 72, 0
23, 67326, Note_on_c, 12, 76, 0
23, 67328, Note_on_c, 12, 72, 94
23, 67328, Note_on_c, 12, 76, 90
23, 67454, Note_on_c, 12, 72, 0
23, 67454, Note_on_c, 12, 76, 0
23, 67456, Note_on_c, 12, 72, 96
23, 67456, Note_on_c, 12, 76, 96
23, 67518, Note_on_c, 12, 72, 0
23, 67518, Note_on_c, 12, 76, 0
23, 67520, Note_on_c, 12, 72, 99
23, 67520, Note_on_c, 12, 76, 109
23, 67744, Note_on_c, 12, 72, 0
23, 67744, Note_on_c, 12, 76, 0
23, 68736, Note_on_c, 12, 72, 87
23, 68736, Note_on_c, 12, 76, 89
23, 68830, Note_on_c, 12, 72, 0
23, 68830, Note_on_c, 12, 76, 0
23, 68832, Note_on_c, 12, 72, 89
23, 68832, Note_on_c, 12, 76, 96
23, 68862, Note_on_c, 12, 72, 0
23, 68862, Note_on_c, 12, 76, 0
23, 68864, Note_on_c, 12, 72, 92
23, 68864, Note_on_c, 12, 76, 95
23, 68990, Note_on_c, 12, 72, 0
23, 68990, Note_on_c, 12, 76, 0
23, 68992, Note_on_c, 12, 72, 105
23, 68992, Note_on_c, 12, 76, 101
23, 69054, Note_on_c, 12, 72, 0
23, 69054, Note_on_c, 12, 76, 0
23, 69056, Note_on_c, 12, 72, 107
23, 69056, Note_on_c, 12, 76, 109
23, 69280, Note_on_c, 12, 72, 0
23, 69280, Note_on_c, 12, 76, 0
23, 70272, Note_on_c, 12, 73, 47
23, 70302, Note_on_c, 12, 73, 0
23, 70304, Note_on_c, 12, 75, 42
23, 70334, Note_on_c, 12, 75, 0
23, 70336, Note_on_c, 12, 73, 47
23, 70366, Note_on_c, 12, 73, 0
23, 70368, Note_on_c, 12, 75, 55
23, 70398, Note_on_c, 12, 75, 0
23, 70400, Note_on_c, 12, 73, 52
23, 70430, Note_on_c, 12, 73, 0
23, 70432, Note_on_c, 12, 75, 62
23, 70462, Note_on_c, 12, 75, 0
23, 70464, Note_on_c, 12, 73, 60
23, 70494, Note_on_c, 12, 73, 0
23, 70496, Note_on_c, 12, 75, 70
23, 70526, Note_on_c, 12, 75, 0
23, 70528, Note_on_c, 12, 73, 73
23, 70558, Note_on_c, 12, 73, 0
23, 70560, Note_on_c, 12, 75, 76
23, 70590, Note_on_c, 12, 75, 0
23, 70592, Note_on_c, 12, 73, 79
23, 70622, Note_on_c, 12, 73, 0
23, 70624, Note_on_c, 12, 75, 84
23, 70654, Note_on_c, 12, 75, 0
23, 70656, Note_on_c, 12, 73, 95
23, 70686, Note_on_c, 12, 73, 0
23, 70688, Note_on_c, 12, 75, 96
23, 70718, Note_on_c, 12, 75, 0
23, 70720, Note_on_c, 12, 73, 88
23, 70750, Note_on_c, 12, 73, 0
23, 70752, Note_on_c, 12, 75, 86
23, 70782, Note_on_c, 12, 75, 0
23, 70784, Note_on_c, 12, 73, 82
23, 70814, Note_on_c, 12, 73, 0
23, 70816, Note_on_c, 12, 75, 83
23, 70846, Note_on_c, 12, 75, 0
23, 70848, Note_on_c, 12, 73, 87
23, 70878, Note_on_c, 12, 73, 0
23, 70880, Note_on_c, 12, 75, 81
23, 70910, Note_on_c, 12, 75, 0
23, 70912, Note_on_c, 12, 73, 82
23, 70942, Note_on_c, 12, 73, 0
23, 70944, Note_on_c, 12, 75, 77
23, 70974, Note_on_c, 12, 75, 0
23, 70976, Note_on_c, 12, 73, 73
23, 71006, Note_on_c, 12, 73, 0
23, 71008, Note_on_c, 12, 75, 73
23, 71038, Note_on_c, 12, 75, 0
23, 71040, Note_on_c, 12, 73, 67
23, 71070, Note_on_c, 12, 73, 0
23, 71072, Note_on_c, 12, 75, 66
23, 71102, Note_on_c, 12, 75, 0
23, 71104, Note_on_c, 12, 73, 70
23, 71134, Note_on_c, 12, 73, 0
23, 71136, Note_on_c, 12, 75, 68
23, 71166, Note_on_c, 12, 75, 0
23, 71168, Note_on_c, 12, 73, 57
23, 71198, Note_on_c, 12, 73, 0
23, 71200, Note_on_c, 12, 75, 64
23, 71230, Note_on_c, 12, 75, 0
23, 71232, Note_on_c, 12, 73, 61
23, 71262, Note_on_c, 12, 73, 0
23, 71264, Note_on_c, 12, 75, 59
23, 71294, Note_on_c, 12, 75, 0
23, 71296, Note_on_c, 12, 73, 59
23, 71326, Note_on_c, 12, 73, 0
23, 71328, Note_on_c, 12, 75, 51
23, 71358, Note_on_c, 12, 75, 0
23, 71360, Note_on_c, 12, 73, 50
23, 71390, Note_on_c, 12, 73, 0
23, 71392, Note_on_c, 12, 75, 42
23, 71422, Note_on_c, 12, 75, 0
23, 72384, Note_on_c, 12, 60, 47
23, 72446, Note_on_c, 12, 60, 0
23, 72448, Note_on_c, 12, 62, 46
23, 72510, Note_on_c, 12, 62, 0
23, 72512, Note_on_c, 12, 64, 50
23, 72574, Note_on_c, 12, 64, 0
23, 72576, Note_on_c, 12, 65, 61
23, 72638, Note_on_c, 12, 65, 0
23, 72640, Note_on_c, 12, 67, 68
23, 72702, Note_on_c, 12, 67, 0
23, 72704, Note_on_c, 12, 69, 81
23, 72766, Note_on_c, 12, 69, 0
23, 72768, Note_on_c, 12, 70, 91
23, 72830, Note_on_c, 12, 70, 0
23, 72832, Note_on_c, 12, 72, 96
23, 72894, Note_on_c, 12, 72, 0
23, 72896, Note_on_c, 12, 76, 97
23, 72958, Note_on_c, 12, 76, 0
23, 72960, Control_c, 12, 11, 127
23, 72960, Note_on_c, 12, 77, 97
23, 72965, Control_c, 12, 11, 126
23, 72970, Control_c, 12, 11, 125
23, 72976, Control_c, 12, 11, 124
23, 72981, Control_c, 12, 11, 123
23, 72987, Control_c, 12, 11, 122
23, 72992, Control_c, 12, 11, 121
23, 72998, Control_c, 12, 11, 120
23, 73003, Control_c, 12, 11, 119
23, 73009, Control_c, 12, 11, 118
23, 73014, Control_c, 12, 11, 117
23, 73020, Control_c, 12, 11, 116
23, 73025, Control_c, 12, 11, 115
23, 73031, Control_c, 12, 11, 114
23, 73036, Control_c, 12, 11, 113
23, 73042, Control_c, 12, 11, 112
23, 73047, Control_c, 12, 11, 111
23, 73053, Control_c, 12, 11, 110
23, 73054, Note_on_c, 12, 77, 0
23, 73056, Note_on_c, 12, 71, 93
23, 73058, Control_c, 12, 11, 109
23, 73064, Control_c, 12, 11, 108
23, 73069, Control_c, 12, 11, 107
23, 73075, Control_c, 12, 11, 106
23, 73080, Control_c, 12, 11, 105
23, 73086, Control_c, 12, 11, 104
23, 73091, Control_c, 12, 11, 103
23, 73097, Control_c, 12, 11, 102
23, 73098, Note_on_c, 12, 71, 0
23, 73102, Control_c, 12, 11, 101
23, 73108, Control_c, 12, 11, 100
23, 73113, Control_c, 12, 11, 99
23, 73119, Control_c, 12, 11, 98
23, 73120, Note_on_c, 12, 65, 87
23, 73124, Control_c, 12, 11, 97
23, 73130, Control_c, 12, 11, 96
23, 73135, Control_c, 12, 11, 95
23, 73141, Control_c, 12, 11, 94
23, 73146, Control_c, 12, 11, 93
23, 73150, Note_on_c, 12, 65, 0
23, 73152, Control_c, 12, 11, 92
23, 73152, Note_on_c, 12, 59, 91
23, 73246, Note_on_c, 12, 59, 0
23, 73248, Note_on_c, 12, 65, 96
23, 73290, Note_on_c, 12, 65, 0
23, 73312, Note_on_c, 12, 71, 96
23, 73342, Note_on_c, 12, 71, 0
23, 73344, Control_c, 12, 11, 127
23, 73344, Note_on_c, 12, 77, 94
23, 73349, Control_c, 12, 11, 126
23, 73354, Control_c, 12, 11, 125
23, 73360, Control_c, 12, 11, 124
23, 73365, Control_c, 12, 11, 123
23, 73371, Control_c, 12, 11, 122
23, 73376, Control_c, 12, 11, 121
23, 73382, Control_c, 12, 11, 120
23, 73387, Control_c, 12, 11, 119
23, 73393, Control_c, 12, 11, 118
23, 73398, Control_c, 12, 11, 117
23, 73404, Control_c, 12, 11, 116
23, 73409, Control_c, 12, 11, 115
23, 73415, Control_c, 12, 11, 114
23, 73420, Control_c, 12, 11, 113
23, 73426, Control_c, 12, 11, 112
23, 73431, Control_c, 12, 11, 111
23, 73437, Control_c, 12, 11, 110
23, 73438, Note_on_c, 12, 77, 0
23, 73440, Note_on_c, 12, 71, 93
23, 73442, Control_c, 12, 11, 109
23, 73448, Control_c, 12, 11, 108
23, 73453, Control_c, 12, 11, 107
23, 73459, Control_c, 12, 11, 106
23, 73464, Control_c, 12, 11, 105
23, 73470, Control_c, 12, 11, 104
23, 73475, Control_c, 12, 11, 103
23, 73481, Control_c, 12, 11, 102
23, 73482, Note_on_c, 12, 71, 0
23, 73486, Control_c, 12, 11, 101
23, 73492, Control_c, 12, 11, 100
23, 73497, Control_c, 12, 11, 99
23, 73503, Control_c, 12, 11, 98
23, 73504, Note_on_c, 12, 65, 93
23, 73508, Control_c, 12, 11, 97
23, 73514, Control_c, 12, 11, 96
23, 73519, Control_c, 12, 11, 95
23, 73525, Control_c, 12, 11, 94
23, 73530, Control_c, 12, 11, 93
23, 73534, Note_on_c, 12, 65, 0
23, 73536, Control_c, 12, 11, 92
23, 73536, Note_on_c, 12, 59, 91
23, 73630, Note_on_c, 12, 59, 0
23, 73632, Note_on_c, 12, 65, 93
23, 73674, Note_on_c, 12, 65, 0
23, 73696, Note_on_c, 12, 71, 87
23, 73726, Note_on_c, 12, 71, 0
23, 73728, Note_on_c, 12, 77, 95
23, 73822, Note_on_c, 12, 77, 0
23, 73824, Note_on_c, 12, 71, 87
23, 73866, Note_on_c, 12, 71, 0
23, 73888, Note_on_c, 12, 65, 88
23, 73918, Note_on_c, 12, 65, 0
23, 73920, Note_on_c, 12, 59, 97
23, 74014, Note_on_c, 12, 59, 0
23, 74016, Note_on_c, 12, 65, 94
23, 74058, Note_on_c, 12, 65, 0
23, 74080, Note_on_c, 12, 71, 94
23, 74110, Note_on_c, 12, 71, 0
23, 74112, Note_on_c, 12, 77, 92
23, 74206, Note_on_c, 12, 77, 0
23, 74208, Note_on_c, 12, 71, 93
23, 74250, Note_on_c, 12, 71, 0
23, 74272, Note_on_c, 12, 65, 90
23, 74302, Note_on_c, 12, 65, 0
23, 74304, Note_on_c, 12, 59, 93
23, 74398, Note_on_c, 12, 59, 0
23, 74400, Note_on_c, 12, 65, 96
23, 74442, Note_on_c, 12, 65, 0
23, 74464, Note_on_c, 12, 71, 93
23, 74494, Note_on_c, 12, 71, 0
23, 74496, Note_on_c, 12, 77, 89
23, 74590, Note_on_c, 12, 77, 0
23, 74592, Note_on_c, 12, 71, 90
23, 74634, Note_on_c, 12, 71, 0
23, 74656, Note_on_c, 12, 65, 97
23, 74686, Note_on_c, 12, 65, 0
23, 74688, Note_on_c, 12, 59, 88
23, 74782, Note_on_c, 12, 59, 0
23, 74784, Note_on_c, 12, 65, 89
23, 74826, Note_on_c, 12, 65, 0
23, 74848, Note_on_c, 12, 71, 93
23, 74878, Note_on_c, 12, 71, 0
23, 74880, Note_on_c, 12, 77, 95
23, 74974, Note_on_c, 12, 77, 0
23, 74976, Note_on_c, 12, 71, 87
23, 75018, Note_on_c, 12, 71, 0
23, 75040, Note_on_c, 12, 65, 91
23, 75070, Note_on_c, 12, 65, 0
23, 75072, Note_on_c, 12, 59, 90
23, 75166, Note_on_c, 12, 59, 0
23, 75168, Note_on_c, 12, 65, 96
23, 75210, Note_on_c, 12, 65, 0
23, 75232, Note_on_c, 12, 71, 88
23, 75262, Note_on_c, 12, 71, 0
23, 75264, Note_on_c, 12, 77, 87
23, 75358, Note_on_c, 12, 77, 0
23, 75360, Note_on_c, 12, 71, 85
23, 75402, Note_on_c, 12, 71, 0
23, 75424, Note_on_c, 12, 65, 87
23, 75454, Note_on_c, 12, 65, 0
23, 75456, Note_on_c, 12, 59, 80
23, 75550, Note_on_c, 12, 59, 0
23, 75552, Note_on_c, 12, 65, 78
23, 75594, Note_on_c, 12, 65, 0
23, 75616, Note_on_c, 12, 71, 74
23, 75646, Note_on_c, 12, 71, 0
23, 75648, Note_on_c, 12, 77, 82
23, 75742, Note_on_c, 12, 77, 0
23, 75744, Note_on_c, 12, 71, 70
23, 75786, Note_on_c, 12, 71, 0
23, 75808, Note_on_c, 12, 65, 74
23, 75838, Note_on_c, 12, 65, 0
23, 75840, Note_on_c, 12, 59, 75
23, 75934, Note_on_c, 12, 59, 0
23, 75936, Note_on_c, 12, 65, 60
23, 75978, Note_on_c, 12, 65, 0
23, 76000, Note_on_c, 12, 71, 63
23, 76030, Note_on_c, 12, 71, 0
23, 76032, Note_on_c, 12, 77, 58
23, 76126, Note_on_c, 12, 77, 0
23, 76128, Note_on_c, 12, 71, 58
23, 76170, Note_on_c, 12, 71, 0
23, 76192, Note_on_c, 12, 65, 59
23, 76222, Note_on_c, 12, 65, 0
23, 76224, Note_on_c, 12, 59, 61
23, 76318, Note_on_c, 12, 59, 0
23, 76320, Note_on_c, 12, 65, 64
23, 76362, Note_on_c, 12, 65, 0
23, 76384, Note_on_c, 12, 71, 63
23, 76414, Note_on_c, 12, 71, 0
23, 76416, Note_on_c, 12, 77, 55
23, 76510, Note_on_c, 12, 77, 0
23, 76512, Note_on_c, 12, 71, 56
23, 76554, Note_on_c, 12, 71, 0
23, 76576, Note_on_c, 12, 65, 56
23, 76606, Note_on_c, 12, 65, 0
23, 76608, Note_on_c, 12, 59, 62
23, 76702, Note_on_c, 12, 59, 0
23, 76704, Note_on_c, 12, 65, 63
23, 76746, Note_on_c, 12, 65, 0
23, 76768, Note_on_c, 12, 71, 57
23, 76798, Note_on_c, 12, 71, 0
23, 76800, Note_on_c, 12, 77, 64
23, 76894, Note_on_c, 12, 77, 0
23, 76896, Note_on_c, 12, 71, 57
23, 76938, Note_on_c, 12, 71, 0
23, 76960, Note_on_c, 12, 65, 57
23, 76990, Note_on_c, 12, 65, 0
23, 76992, Note_on_c, 12, 59, 57
23, 77086, Note_on_c, 12, 59, 0
23, 77088, Note_on_c, 12, 65, 60
23, 77130, Note_on_c, 12, 65, 0
23, 77152, Note_on_c, 12, 71, 60
23, 77182, Note_on_c, 12, 71, 0
23, 77184, Note_on_c, 12, 77, 60
23, 77278, Note_on_c, 12, 77, 0
23, 77280, Note_on_c, 12, 71, 55
23, 77322, Note_on_c, 12, 71, 0
23, 77344, Note_on_c, 12, 65, 58
23, 77374, Note_on_c, 12, 65, 0
23, 77376, Note_on_c, 12, 59, 55
23, 77470, Note_on_c, 12, 59, 0
23, 77472, Note_on_c, 12, 65, 55
23, 77514, Note_on_c, 12, 65, 0
23, 77536, Note_on_c, 12, 71, 56
23, 77566, Note_on_c, 12, 71, 0
23, 77568, Note_on_c, 12, 77, 65
23, 77662, Note_on_c, 12, 77, 0
23, 77664, Note_on_c, 12, 71, 62
23, 77706, Note_on_c, 12, 71, 0
23, 77728, Note_on_c, 12, 65, 62
23, 77758, Note_on_c, 12, 65, 0
23, 77760, Note_on_c, 12, 59, 59
23, 77854, Note_on_c, 12, 59, 0
23, 77856, Note_on_c, 12, 65, 62
23, 77898, Note_on_c, 12, 65, 0
23, 77920, Note_on_c, 12, 71, 55
23, 77950, Note_on_c, 12, 71, 0
23, 77952, Note_on_c, 12, 77, 60
23, 78046, Note_on_c, 12, 77, 0
23, 78048, Note_on_c, 12, 71, 59
23, 78090, Note_on_c, 12, 71, 0
23, 78112, Note_on_c, 12, 65, 56
23, 78142, Note_on_c, 12, 65, 0
23, 78144, Note_on_c, 12, 59, 62
23, 78238, Note_on_c, 12, 59, 0
23, 78240, Note_on_c, 12, 65, 64
23, 78282, Note_on_c, 12, 65, 0
23, 78304, Note_on_c, 12, 71, 63
23, 78334, Note_on_c, 12, 71, 0
23, 78336, Note_on_c, 12, 77, 56
23, 78430, Note_on_c, 12, 77, 0
23, 78432, Note_on_c, 12, 71, 55
23, 78474, Note_on_c, 12, 71, 0
23, 78496, Note_on_c, 12, 65, 61
23, 78526, Note_on_c, 12, 65, 0
23, 78528, Note_on_c, 12, 59, 61
23, 78622, Note_on_c, 12, 59, 0
23, 78624, Note_on_c, 12, 65, 58
23, 78666, Note_on_c, 12, 65, 0
23, 78688, Note_on_c, 12, 71, 57
23, 78718, Note_on_c, 12, 71, 0
23, 78720, Note_on_c, 12, 77, 56
23, 78814, Note_on_c, 12, 77, 0
23, 78816, Note_on_c, 12, 71, 58
23, 78858, Note_on_c, 12, 71, 0
23, 78880, Note_on_c, 12, 65, 62
23, 78910, Note_on_c, 12, 65, 0
23, 78912, Note_on_c, 12, 59, 60
23, 79006, Note_on_c, 12, 59, 0
23, 79008, Note_on_c, 12, 65, 62
23, 79050, Note_on_c, 12, 65, 0
23, 79072, Note_on_c, 12, 71, 62
23, 79102, Note_on_c, 12, 71, 0
23, 79104, Control_c, 12, 11, 127
23, 79104, Note_on_c, 12, 77, 91
23, 79198, Note_on_c, 12, 77, 0
23, 79200, Note_on_c, 12, 71, 94
23, 79242, Note_on_c, 12, 71, 0
23, 79264, Note_on_c, 12, 65, 87
23, 79294, Note_on_c, 12, 65, 0
23, 79296, Note_on_c, 12, 59, 92
23, 79390, Note_on_c, 12, 59, 0
23, 79392, Note_on_c, 12, 65, 88
23, 79434, Note_on_c, 12, 65, 0
23, 79456, Note_on_c, 12, 71, 91
23, 79486, Note_on_c, 12, 71, 0
23, 79488, Note_on_c, 12, 77, 97
23, 79582, Note_on_c, 12, 77, 0
23, 79584, Note_on_c, 12, 71, 91
23, 79626, Note_on_c, 12, 71, 0
23, 79648, Note_on_c, 12, 65, 89
23, 79678, Note_on_c, 12, 65, 0
23, 79680, Note_on_c, 12, 59, 91
23, 79774, Note_on_c, 12, 59, 0
23, 79776, Note_on_c, 12, 65, 88
23, 79818, Note_on_c, 12, 65, 0
23, 79840, Note_on_c, 12, 71, 89
23, 79870, Note_on_c, 12, 71, 0
23, 79872, Note_on_c, 12, 77, 97
23, 79966, Note_on_c, 12, 77, 0
23, 79968, Note_on_c, 12, 71, 94
23, 80010, Note_on_c, 12, 71, 0
23, 80032, Note_on_c, 12, 65, 93
23, 80062, Note_on_c, 12, 65, 0
23, 80064, Note_on_c, 12, 59, 90
23, 80158, Note_on_c, 12, 59, 0
23, 80160, Note_on_c, 12, 65, 93
23, 80202, Note_on_c, 12, 65, 0
23, 80224, Note_on_c, 12, 71, 89
23, 80254, Note_on_c, 12, 71, 0
23, 80256, Note_on_c, 12, 77, 90
23, 80350, Note_on_c, 12, 77, 0
23, 80352, Note_on_c, 12, 71, 86
23, 80394, Note_on_c, 12, 71, 0
23, 80416, Note_on_c, 12, 65, 75
23, 80446, Note_on_c, 12, 65, 0
23, 80448, Note_on_c, 12, 59, 71
23, 80542, Note_on_c, 12, 59, 0
23, 80544, Note_on_c, 12, 65, 59
23, 80586, Note_on_c, 12, 65, 0
23, 80608, Note_on_c, 12, 71, 45
23, 80638, Note_on_c, 12, 71, 0
23, 80640, Note_on_c, 12, 77, 49
23, 80734, Note_on_c, 12, 77, 0
23, 80736, Note_on_c, 12, 71, 45
23, 80778, Note_on_c, 12, 71, 0
23, 80800, Note_on_c, 12, 65, 49
23, 80830, Note_on_c, 12, 65, 0
23, 80832, Note_on_c, 12, 59, 42
23, 80926, Note_on_c, 12, 59, 0
23, 80928, Note_on_c, 12, 65, 48
23, 80970, Note_on_c, 12, 65, 0
23, 80992, Note_on_c, 12, 71, 40
23, 81022, Note_on_c, 12, 71, 0
23, 81024, Note_on_c, 12, 77, 41
23, 81118, Note_on_c, 12, 77, 0
23, 81120, Note_on_c, 12, 71, 44
23, 81162, Note_on_c, 12, 71, 0
23, 81184, Note_on_c, 12, 65, 50
23, 81214, Note_on_c, 12, 65, 0
23, 81216, Note_on_c, 12, 59, 44
23, 81310, Note_on_c, 12, 59, 0
23, 81312, Note_on_c, 12, 65, 50
23, 81354, Note_on_c, 12, 65, 0
23, 81376, Note_on_c, 12, 71, 42
23, 81406, Note_on_c, 12, 71, 0
23, 81408, Note_on_c, 12, 77, 50
23, 81502, Note_on_c, 12, 77, 0
23, 81504, Note_on_c, 12, 71, 47
23, 81546, Note_on_c, 12, 71, 0
23, 81568, Note_on_c, 12, 65, 49
23, 81598, Note_on_c, 12, 65, 0
23, 81600, Note_on_c, 12, 59, 46
23, 81694, Note_on_c, 12, 59, 0
23, 81696, Note_on_c, 12, 65, 48
23, 81738, Note_on_c, 12, 65, 0
23, 81760, Note_on_c, 12, 71, 43
23, 81790, Note_on_c, 12, 71, 0
23, 81792, Note_on_c, 12, 77, 41
23, 81886, Note_on_c, 12, 77, 0
23, 81888, Note_on_c, 12, 71, 43
23, 81930, Note_on_c, 12, 71, 0
23, 81952, Note_on_c, 12, 65, 42
23, 81982, Note_on_c, 12, 65, 0
23, 81984, Note_on_c, 12, 59, 48
23, 82078, Note_on_c, 12, 59, 0
23, 82080, Note_on_c, 12, 65, 40
23, 82122, Note_on_c, 12, 65, 0
23, 82144, Note_on_c, 12, 71, 45
23, 82174, Note_on_c, 12, 71, 0
23, 82176, Note_on_c, 12, 77, 40
23, 82270, Note_on_c, 12, 77, 0
23, 82272, Note_on_c, 12, 71, 41
23, 82314, Note_on_c, 12, 71, 0
23, 82336, Note_on_c, 12, 65, 47
23, 82366, Note_on_c, 12, 65, 0
23, 82368, Note_on_c, 12, 59, 50
23, 82462, Note_on_c, 12, 59, 0
23, 82464, Note_on_c, 12, 65, 45
23, 82506, Note_on_c, 12, 65, 0
23, 82528, Note_on_c, 12, 71, 42
23, 82558, Note_on_c, 12, 71, 0
23, 82560, Note_on_c, 12, 77, 48
23, 82654, Note_on_c, 12, 77, 0
23, 82656, Note_on_c, 12, 71, 40
23, 82698, Note_on_c, 12, 71, 0
23, 82720, Note_on_c, 12, 65, 50
23, 82750, Note_on_c, 12, 65, 0
23, 82752, Note_on_c, 12, 59, 48
23, 82846, Note_on_c, 12, 59, 0
23, 82848, Note_on_c, 12, 65, 41
23, 82890, Note_on_c, 12, 65, 0
23, 82912, Note_on_c, 12, 71, 48
23, 82942, Note_on_c, 12, 71, 0
23, 82944, Note_on_c, 12, 77, 46
23, 83038, Note_on_c, 12, 77, 0
23, 83040, Note_on_c, 12, 71, 49
23, 83082, Note_on_c, 12, 71, 0
23, 83104, Note_on_c, 12, 65, 49
23, 83134, Note_on_c, 12, 65, 0
23, 83136, Note_on_c, 12, 59, 47
23, 83230, Note_on_c, 12, 59, 0
23, 83232, Note_on_c, 12, 65, 43
23, 83274, Note_on_c, 12, 65, 0
23, 83296, Note_on_c, 12, 71, 46
23, 83326, Note_on_c, 12, 71, 0
23, 83328, Note_on_c, 12, 77, 49
23, 83422, Note_on_c, 12, 77, 0
23, 83424, Note_on_c, 12, 71, 46
23, 83466, Note_on_c, 12, 71, 0
23, 83488, Note_on_c, 12, 65, 45
23, 83518, Note_on_c, 12, 65, 0
23, 83520, Note_on_c, 12, 59, 40
23, 83614, Note_on_c, 12, 59, 0
23, 83616, Note_on_c, 12, 65, 43
23, 83658, Note_on_c, 12, 65, 0
23, 83680, Note_on_c, 12, 71, 45
23, 83701, Note_on_c, 12, 71, 0
23, 83712, Note_on_c, 12, 77, 87
23, 83806, Note_on_c, 12, 77, 0
23, 83808, Note_on_c, 12, 71, 97
23, 83850, Note_on_c, 12, 71, 0
23, 83872, Note_on_c, 12, 65, 93
23, 83902, Note_on_c, 12, 65, 0
23, 83904, Note_on_c, 12, 59, 96
23, 83998, Note_on_c, 12, 59, 0
23, 84000, Note_on_c, 12, 65, 89
23, 84042, Note_on_c, 12, 65, 0
23, 84064, Note_on_c, 12, 71, 87
23, 84094, Note_on_c, 12, 71, 0
23, 84096, Note_on_c, 12, 77, 94
23, 84190, Note_on_c, 12, 77, 0
23, 84192, Note_on_c, 12, 71, 87
23, 84234, Note_on_c, 12, 71, 0
23, 84256, Note_on_c, 12, 65, 88
23, 84286, Note_on_c, 12, 65, 0
23, 84288, Note_on_c, 12, 59, 92
23, 84382, Note_on_c, 12, 59, 0
23, 84384, Note_on_c, 12, 65, 97
23, 84426, Note_on_c, 12, 65, 0
23, 84448, Note_on_c, 12, 71, 93
23, 84478, Note_on_c, 12, 71, 0
23, 84480, Note_on_c, 12, 77, 91
23, 84574, Note_on_c, 12, 77, 0
23, 84576, Note_on_c, 12, 71, 89
23, 84618, Note_on_c, 12, 71, 0
23, 84640, Note_on_c, 12, 65, 97
23, 84670, Note_on_c, 12, 65, 0
23, 84672, Note_on_c, 12, 59, 91
23, 84766, Note_on_c, 12, 59, 0
23, 84768, Note_on_c, 12, 65, 96
23, 84810, Note_on_c, 12, 65, 0
23, 84832, Note_on_c, 12, 71, 87
23, 84862, Note_on_c, 12, 71, 0
23, 84864, Note_on_c, 12, 77, 92
23, 84958, Note_on_c, 12, 77, 0
23, 84960, Note_on_c, 12, 71, 94
23, 85002, Note_on_c, 12, 71, 0
23, 85024, Note_on_c, 12, 65, 94
23, 85054, Note_on_c, 12, 65, 0
23, 85056, Note_on_c, 12, 59, 96
23, 85150, Note_on_c, 12, 59, 0
23, 85152, Note_on_c, 12, 65, 89
23, 85194, Note_on_c, 12, 65, 0
23, 85216, Note_on_c, 12, 71, 89
23, 85246, Note_on_c, 12, 71, 0
23, 85248, Note_on_c, 12, 77, 74
23, 85342, Note_on_c, 12, 77, 0
23, 85344, Note_on_c, 12, 71, 72
23, 85386, Note_on_c, 12, 71, 0
23, 85408, Note_on_c, 12, 65, 80
23, 85438, Note_on_c, 12, 65, 0
23, 85440, Note_on_c, 12, 59, 74
23, 85534, Note_on_c, 12, 59, 0
23, 85536, Note_on_c, 12, 65, 76
23, 85578, Note_on_c, 12, 65, 0
23, 85600, Note_on_c, 12, 71, 80
23, 85630, Note_on_c, 12, 71, 0
23, 85632, Note_on_c, 12, 77, 74
23, 85726, Note_on_c, 12, 77, 0
23, 85728, Note_on_c, 12, 71, 77
23, 85770, Note_on_c, 12, 71, 0
23, 85792, Note_on_c, 12, 65, 71
23, 85822, Note_on_c, 12, 65, 0
23, 85824, Note_on_c, 12, 59, 78
23, 85918, Note_on_c, 12, 59, 0
23, 85920, Note_on_c, 12, 65, 70
23, 85962, Note_on_c, 12, 65, 0
23, 85984, Note_on_c, 12, 71, 77
23, 86014, Note_on_c, 12, 71, 0
23, 86016, Note_on_c, 12, 77, 74
23, 86110, Note_on_c, 12, 77, 0
23, 86112, Note_on_c, 12, 71, 79
23, 86154, Note_on_c, 12, 71, 0
23, 86176, Note_on_c, 12, 65, 76
23, 86206, Note_on_c, 12, 65, 0
23, 86208, Note_on_c, 12, 59, 78
23, 86302, Note_on_c, 12, 59, 0
23, 86304, Note_on_c, 12, 65, 77
23, 86346, Note_on_c, 12, 65, 0
23, 86368, Note_on_c, 12, 71, 78
23, 86398, Note_on_c, 12, 71, 0
23, 86400, Note_on_c, 12, 77, 79
23, 86494, Note_on_c, 12, 77, 0
23, 86496, Note_on_c, 12, 71, 74
23, 86538, Note_on_c, 12, 71, 0
23, 86560, Note_on_c, 12, 65, 77
23, 86590, Note_on_c, 12, 65, 0
23, 86592, Note_on_c, 12, 59, 74
23, 86686, Note_on_c, 12, 59, 0
23, 86688, Note_on_c, 12, 65, 70
23, 86730, Note_on_c, 12, 65, 0
23, 86752, Note_on_c, 12, 71, 74
23, 86782, Note_on_c, 12, 71, 0
23, 86784, Note_on_c, 12, 77, 78
23, 86878, Note_on_c, 12, 77, 0
23, 86880, Note_on_c, 12, 71, 80
23, 86922, Note_on_c, 12, 71, 0
23, 86944, Note_on_c, 12, 65, 77
23, 86974, Note_on_c, 12, 65, 0
23, 86976, Note_on_c, 12, 59, 77
23, 87070, Note_on_c, 12, 59, 0
23, 87072, Note_on_c, 12, 65, 75
23, 87114, Note_on_c, 12, 65, 0
23, 87136, Note_on_c, 12, 71, 73
23, 87166, Note_on_c, 12, 71, 0
23, 87168, Note_on_c, 12, 77, 72
23, 87262, Note_on_c, 12, 77, 0
23, 87264, Note_on_c, 12, 71, 72
23, 87306, Note_on_c, 12, 71, 0
23, 87328, Note_on_c, 12, 65, 79
23, 87358, Note_on_c, 12, 65, 0
23, 87360, Note_on_c, 12, 59, 76
23, 87454, Note_on_c, 12, 59, 0
23, 87456, Note_on_c, 12, 65, 75
23, 87498, Note_on_c, 12, 65, 0
23, 87520, Note_on_c, 12, 71, 78
23, 87550, Note_on_c, 12, 71, 0
23, 87552, Note_on_c, 12, 77, 70
23, 87646, Note_on_c, 12, 77, 0
23, 87648, Note_on_c, 12, 71, 74
23, 87690, Note_on_c, 12, 71, 0
23, 87712, Note_on_c, 12, 65, 74
23, 87742, Note_on_c, 12, 65, 0
23, 87744, Note_on_c, 12, 59, 78
23, 87838, Note_on_c, 12, 59, 0
23, 87840, Note_on_c, 12, 65, 78
23, 87882, Note_on_c, 12, 65, 0
23, 87904, Note_on_c, 12, 71, 77
23, 87934, Note_on_c, 12, 71, 0
23, 87936, Note_on_c, 12, 68, 89
23, 88030, Note_on_c, 12, 68, 0
23, 88032, Note_on_c, 12, 63, 88
23, 88074, Note_on_c, 12, 63, 0
23, 88096, Note_on_c, 12, 56, 88
23, 88126, Note_on_c, 12, 56, 0
23, 88128, Note_on_c, 12, 56, 92
23, 88222, Note_on_c, 12, 56, 0
23, 88224, Note_on_c, 12, 63, 94
23, 88266, Note_on_c, 12, 63, 0
23, 88288, Note_on_c, 12, 68, 95
23, 88318, Note_on_c, 12, 68, 0
23, 88320, Note_on_c, 12, 68, 90
23, 88414, Note_on_c, 12, 68, 0
23, 88416, Note_on_c, 12, 72, 91
23, 88458, Note_on_c, 12, 72, 0
23, 88480, Note_on_c, 12, 80, 97
23, 88510, Note_on_c, 12, 80, 0
23, 88512, Note_on_c, 12, 80, 90
23, 88606, Note_on_c, 12, 80, 0
23, 88608, Note_on_c, 12, 72, 88
23, 88650, Note_on_c, 12, 72, 0
23, 88672, Note_on_c, 12, 68, 87
23, 88702, Note_on_c, 12, 68, 0
23, 88704, Note_on_c, 12, 67, 97
23, 88798, Note_on_c, 12, 67, 0
23, 88800, Note_on_c, 12, 73, 92
23, 88842, Note_on_c, 12, 73, 0
23, 88864, Note_on_c, 12, 79, 98
23, 88894, Note_on_c, 12, 79, 0
23, 88896, Note_on_c, 12, 79, 105
23, 88990, Note_on_c, 12, 79, 0
23, 88992, Note_on_c, 12, 73, 109
23, 89034, Note_on_c, 12, 73, 0
23, 89056, Note_on_c, 12, 67, 107
23, 89086, Note_on_c, 12, 67, 0
23, 89088, Note_on_c, 12, 77, 49
23, 89182, Note_on_c, 12, 77, 0
23, 89184, Note_on_c, 12, 71, 49
23, 89226, Note_on_c, 12, 71, 0
23, 89248, Note_on_c, 12, 65, 43
23, 89278, Note_on_c, 12, 65, 0
23, 89280, Note_on_c, 12, 59, 48
23, 89374, Note_on_c, 12, 59, 0
23, 89376, Note_on_c, 12, 65, 48
23, 89418, Note_on_c, 12, 65, 0
23, 89440, Note_on_c, 12, 71, 45
23, 89470, Note_on_c, 12, 71, 0
23, 89472, Note_on_c, 12, 77, 50
23, 89566, Note_on_c, 12, 77, 0
23, 89568, Note_on_c, 12, 71, 51
23, 89610, Note_on_c, 12, 71, 0
23, 89632, Note_on_c, 12, 65, 54
23, 89662, Note_on_c, 12, 65, 0
23, 89664, Note_on_c, 12, 59, 52
23, 89758, Note_on_c, 12, 59, 0
23, 89760, Note_on_c, 12, 65, 50
23, 89802, Note_on_c, 12, 65, 0
23, 89824, Note_on_c, 12, 71, 55
23, 89854, Note_on_c, 12, 71, 0
23, 89856, Note_on_c, 12, 77, 60
23, 89950, Note_on_c, 12, 77, 0
23, 89952, Note_on_c, 12, 71, 59
23, 89994, Note_on_c, 12, 71, 0
23, 90016, Note_on_c, 12, 65, 57
23, 90046, Note_on_c, 12, 65, 0
23, 90048, Note_on_c, 12, 59, 60
23, 90142, Note_on_c, 12, 59, 0
23, 90144, Note_on_c, 12, 65, 55
23, 90186, Note_on_c, 12, 65, 0
23, 90208, Note_on_c, 12, 71, 62
23, 90238, Note_on_c, 12, 71, 0
23, 90240, Note_on_c, 12, 77, 62
23, 90334, Note_on_c, 12, 77, 0
23, 90336, Note_on_c, 12, 71, 60
23, 90378, Note_on_c, 12, 71, 0
23, 90400, Note_on_c, 12, 65, 69
23, 90430, Note_on_c, 12, 65, 0
23, 90432, Note_on_c, 12, 59, 65
23, 90526, Note_on_c, 12, 59, 0
23, 90528, Note_on_c, 12, 65, 68
23, 90570, Note_on_c, 12, 65, 0
23, 90592, Note_on_c, 12, 71, 71
23, 90622, Note_on_c, 12, 71, 0
23, 90624, Note_on_c, 12, 77, 65
23, 90718, Note_on_c, 12, 77, 0
23, 90720, Note_on_c, 12, 71, 68
23, 90762, Note_on_c, 12, 71, 0
23, 90784, Note_on_c, 12, 65, 71
23, 90814, Note_on_c, 12, 65, 0
23, 90816, Note_on_c, 12, 59, 74
23, 90910, Note_on_c, 12, 59, 0
23, 90912, Note_on_c, 12, 65, 81
23, 90954, Note_on_c, 12, 65, 0
23, 90976, Note_on_c, 12, 71, 77
23, 91006, Note_on_c, 12, 71, 0
23, 91008, Note_on_c, 12, 77, 81
23, 91102, Note_on_c, 12, 77, 0
23, 91104, Note_on_c, 12, 71, 84
23, 91146, Note_on_c, 12, 71, 0
23, 91168, Note_on_c, 12, 65, 84
23, 91198, Note_on_c, 12, 65, 0
23, 91200, Note_on_c, 12, 59, 80
23, 91294, Note_on_c, 12, 59, 0
23, 91296, Note_on_c, 12, 65, 91
23, 91338, Note_on_c, 12, 65, 0
23, 91360, Note_on_c, 12, 71, 90
23, 91390, Note_on_c, 12, 71, 0
23, 91392, Note_on_c, 12, 77, 90
23, 91486, Note_on_c, 12, 77, 0
23, 91488, Note_on_c, 12, 71, 94
23, 91530, Note_on_c, 12, 71, 0
23, 91552, Note_on_c, 12, 65, 99
23, 91582, Note_on_c, 12, 65, 0
23, 91584, Note_on_c, 12, 59, 97
23, 91678, Note_on_c, 12, 59, 0
23, 91680, Note_on_c, 12, 65, 106
23, 91722, Note_on_c, 12, 65, 0
23, 91744, Note_on_c, 12, 71, 110
23, 91774, Note_on_c, 12, 71, 0
23, 91776, Program_c, 12, 44
23, 91776, Note_on_c, 12, 84, 109
23, 92112, Note_on_c, 12, 84, 0
23, 92160, Program_c, 12, 48
23, 92160, Note_on_c, 12, 72, 104
23, 92254, Note_on_c, 12, 72, 0
23, 92544, Program_c, 12, 44
23, 92544, Control_c, 12, 11, 92
23, 92544, Note_on_c, 12, 82, 127
23, 92554, Control_c, 12, 11, 93
23, 92565, Control_c, 12, 11, 94
23, 92576, Control_c, 12, 11, 95
23, 92587, Control_c, 12, 11, 96
23, 92598, Control_c, 12, 11, 97
23, 92609, Control_c, 12, 11, 98
23, 92620, Control_c, 12, 11, 99
23, 92631, Control_c, 12, 11, 100
23, 92642, Control_c, 12, 11, 101
23, 92653, Control_c, 12, 11, 102
23, 92664, Control_c, 12, 11, 103
23, 92675, Control_c, 12, 11, 104
23, 92686, Control_c, 12, 11, 105
23, 92697, Control_c, 12, 11, 106
23, 92708, Control_c, 12, 11, 107
23, 92719, Control_c, 12, 11, 108
23, 92730, Control_c, 12, 11, 109
23, 92741, Control_c, 12, 11, 110
23, 92752, Control_c, 12, 11, 111
23, 92763, Control_c, 12, 11, 112
23, 92774, Control_c, 12, 11, 113
23, 92785, Control_c, 12, 11, 114
23, 92796, Control_c, 12, 11, 115
23, 92807, Control_c, 12, 11, 116
23, 92818, Control_c, 12, 11, 117
23, 92829, Control_c, 12, 11, 118
23, 92840, Control_c, 12, 11, 119
23, 92851, Control_c, 12, 11, 120
23, 92862, Control_c, 12, 11, 121
23, 92873, Control_c, 12, 11, 122
23, 92880, Note_on_c, 12, 82, 0
23, 92884, Control_c, 12, 11, 123
23, 92895, Control_c, 12, 11, 124
23, 92906, Control_c, 12, 11, 125
23, 92917, Control_c, 12, 11, 126
23, 92928, Control_c, 12, 11, 127
23, 92928, Program_c, 12, 48
23, 92928, Note_on_c, 12, 70, 124
23, 93022, Note_on_c, 12, 70, 0
23, 93792, Note_on_c, 12, 66, 109
23, 93824, Note_on_c, 12, 66, 0
23, 93840, Note_on_c, 12, 66, 109
23, 93872, Note_on_c, 12, 66, 0
23, 93888, Note_on_c, 12, 68, 108
23, 93920, Note_on_c, 12, 68, 0
23, 93936, Note_on_c, 12, 68, 115
23, 93968, Note_on_c, 12, 68, 0
23, 93984, Note_on_c, 12, 70, 114
23, 94016, Note_on_c, 12, 70, 0
23, 94032, Note_on_c, 12, 70, 114
23, 94064, Note_on_c, 12, 70, 0
23, 94080, Note_on_c, 12, 72, 115
23, 94112, Note_on_c, 12, 72, 0
23, 94128, Note_on_c, 12, 72, 111
23, 94160, Note_on_c, 12, 72, 0
23, 94176, Note_on_c, 12, 74, 116
23, 94208, Note_on_c, 12, 74, 0
23, 94224, Note_on_c, 12, 74, 122
23, 94256, Note_on_c, 12, 74, 0
23, 94272, Note_on_c, 12, 78, 120
23, 94304, Note_on_c, 12, 78, 0
23, 94320, Note_on_c, 12, 78, 126
23, 94352, Note_on_c, 12, 78, 0
23, 94368, Note_on_c, 12, 80, 126
23, 94400, Note_on_c, 12, 80, 0
23, 94416, Note_on_c, 12, 80, 127
23, 94448, Note_on_c, 12, 80, 0
23, 94560, Note_on_c, 12, 78, 106
23, 94592, Note_on_c, 12, 78, 0
23, 94608, Note_on_c, 12, 78, 112
23, 94640, Note_on_c, 12, 78, 0
23, 94656, Note_on_c, 12, 80, 105
23, 94688, Note_on_c, 12, 80, 0
23, 94704, Note_on_c, 12, 80, 115
23, 94736, Note_on_c, 12, 80, 0
23, 94752, Note_on_c, 12, 82, 106
23, 94784, Note_on_c, 12, 82, 0
23, 94800, Note_on_c, 12, 82, 117
23, 94832, Note_on_c, 12, 82, 0
23, 94848, Note_on_c, 12, 84, 116
23, 94880, Note_on_c, 12, 84, 0
23, 94896, Note_on_c, 12, 84, 115
23, 94928, Note_on_c, 12, 84, 0
23, 94944, Note_on_c, 12, 86, 115
23, 94976, Note_on_c, 12, 86, 0
23, 94992, Note_on_c, 12, 86, 115
23, 95024, Note_on_c, 12, 86, 0
23, 95040, Note_on_c, 12, 90, 119
23, 95072, Note_on_c, 12, 90, 0
23, 95088, Note_on_c, 12, 90, 126
23, 95120, Note_on_c, 12, 90, 0
23, 95136, Note_on_c, 12, 92, 122
23, 95168, Note_on_c, 12, 92, 0
23, 95184, Note_on_c, 12, 92, 127
23, 95216, Note_on_c, 12, 92, 0
23, 95616, Note_on_c, 12, 60, 91
23, 95648, Note_on_c, 12, 60, 0
23, 95664, Note_on_c, 12, 60, 91
23, 95696, Note_on_c, 12, 60, 0
23, 95712, Note_on_c, 12, 62, 85
23, 95744, Note_on_c, 12, 62, 0
23, 95760, Note_on_c, 12, 62, 81
23, 95792, Note_on_c, 12, 62, 0
23, 95808, Note_on_c, 12, 66, 74
23, 95840, Note_on_c, 12, 66, 0
23, 95856, Note_on_c, 12, 66, 72
23, 95888, Note_on_c, 12, 66, 0
23, 95904, Note_on_c, 12, 68, 61
23, 95936, Note_on_c, 12, 68, 0
23, 95952, Note_on_c, 12, 68, 62
23, 95984, Note_on_c, 12, 68, 0
23, 97152, Note_on_c, 12, 60, 78
23, 97184, Note_on_c, 12, 60, 0
23, 97200, Note_on_c, 12, 60, 72
23, 97232, Note_on_c, 12, 60, 0
23, 97248, Note_on_c, 12, 62, 70
23, 97280, Note_on_c, 12, 62, 0
23, 97296, Note_on_c, 12, 62, 64
23, 97328, Note_on_c, 12, 62, 0
23, 97344, Note_on_c, 12, 66, 56
23, 97376, Note_on_c, 12, 66, 0
23, 97392, Note_on_c, 12, 66, 56
23, 97424, Note_on_c, 12, 66, 0
23, 97440, Note_on_c, 12, 68, 54
23, 97472, Note_on_c, 12, 68, 0
23, 97488, Note_on_c, 12, 68, 50
23, 97520, Note_on_c, 12, 68, 0
23, 102912, Control_c, 12, 11, 127
23, 107520, Note_on_c, 12, 63, 28
23, 107566, Note_on_c, 12, 63, 0
23, 107568, Note_on_c, 12, 65, 26
23, 107614, Note_on_c, 12, 65, 0
23, 107616, Note_on_c, 12, 63, 26
23, 107662, Note_on_c, 12, 63, 0
23, 107664, Note_on_c, 12, 65, 26
23, 107710, Note_on_c, 12, 65, 0
23, 107712, Note_on_c, 12, 63, 25
23, 107758, Note_on_c, 12, 63, 0
23, 107760, Note_on_c, 12, 65, 25
23, 107806, Note_on_c, 12, 65, 0
23, 107808, Note_on_c, 12, 63, 33
23, 107854, Note_on_c, 12, 63, 0
23, 107856, Note_on_c, 12, 65, 31
23, 107902, Note_on_c, 12, 65, 0
23, 107904, Note_on_c, 12, 63, 32
23, 107950, Note_on_c, 12, 63, 0
23, 107952, Note_on_c, 12, 65, 31
23, 107998, Note_on_c, 12, 65, 0
23, 108000, Note_on_c, 12, 63, 30
23, 108046, Note_on_c, 12, 63, 0
23, 108048, Note_on_c, 12, 65, 31
23, 108094, Note_on_c, 12, 65, 0
23, 108096, Note_on_c, 12, 63, 28
23, 108142, Note_on_c, 12, 63, 0
23, 108144, Note_on_c, 12, 65, 25
23, 108190, Note_on_c, 12, 65, 0
23, 108192, Note_on_c, 12, 63, 30
23, 108238, Note_on_c, 12, 63, 0
23, 108240, Note_on_c, 12, 65, 29
23, 108286, Note_on_c, 12, 65, 0
23, 108288, Note_on_c, 12, 66, 25
23, 108334, Note_on_c, 12, 66, 0
23, 108336, Note_on_c, 12, 68, 34
23, 108382, Note_on_c, 12, 68, 0
23, 108384, Note_on_c, 12, 66, 25
23, 108430, Note_on_c, 12, 66, 0
23, 108432, Note_on_c, 12, 68, 29
23, 108478, Note_on_c, 12, 68, 0
23, 108480, Note_on_c, 12, 66, 33
23, 108526, Note_on_c, 12, 66, 0
23, 108528, Note_on_c, 12, 68, 29
23, 108574, Note_on_c, 12, 68, 0
23, 108576, Note_on_c, 12, 66, 31
23, 108622, Note_on_c, 12, 66, 0
23, 108624, Note_on_c, 12, 68, 35
23, 108670, Note_on_c, 12, 68, 0
23, 108672, Note_on_c, 12, 66, 31
23, 108718, Note_on_c, 12, 66, 0
23, 108720, Note_on_c, 12, 68, 33
23, 108766, Note_on_c, 12, 68, 0
23, 108768, Note_on_c, 12, 66, 30
23, 108814, Note_on_c, 12, 66, 0
23, 108816, Note_on_c, 12, 68, 35
23, 108862, Note_on_c, 12, 68, 0
23, 108864, Note_on_c, 12, 66, 35
23, 108910, Note_on_c, 12, 66, 0
23, 108912, Note_on_c, 12, 68, 35
23, 108958, Note_on_c, 12, 68, 0
23, 108960, Note_on_c, 12, 66, 26
23, 109006, Note_on_c, 12, 66, 0
23, 109008, Note_on_c, 12, 68, 25
23, 109054, Note_on_c, 12, 68, 0
23, 109056, Note_on_c, 12, 66, 27
23, 109102, Note_on_c, 12, 66, 0
23, 109104, Note_on_c, 12, 65, 28
23, 109150, Note_on_c, 12, 65, 0
23, 109152, Note_on_c, 12, 66, 28
23, 109198, Note_on_c, 12, 66, 0
23, 109200, Note_on_c, 12, 65, 34
23, 109246, Note_on_c, 12, 65, 0
23, 109248, Note_on_c, 12, 66, 34
23, 109294, Note_on_c, 12, 66, 0
23, 109296, Note_on_c, 12, 65, 34
23, 109342, Note_on_c, 12, 65, 0
23, 109344, Note_on_c, 12, 66, 39
23, 109390, Note_on_c, 12, 66, 0
23, 109392, Note_on_c, 12, 65, 42
23, 109438, Note_on_c, 12, 65, 0
23, 109440, Note_on_c, 12, 66, 48
23, 109486, Note_on_c, 12, 66, 0
23, 109488, Note_on_c, 12, 65, 49
23, 109534, Note_on_c, 12, 65, 0
23, 109536, Note_on_c, 12, 66, 45
23, 109582, Note_on_c, 12, 66, 0
23, 109584, Note_on_c, 12, 65, 49
23, 109630, Note_on_c, 12, 65, 0
23, 109632, Note_on_c, 12, 66, 49
23, 109678, Note_on_c, 12, 66, 0
23, 109680, Note_on_c, 12, 65, 51
23, 109726, Note_on_c, 12, 65, 0
23, 109728, Note_on_c, 12, 66, 57
23, 109774, Note_on_c, 12, 66, 0
23, 109776, Note_on_c, 12, 65, 58
23, 109822, Note_on_c, 12, 65, 0
23, 109824, Note_on_c, 12, 65, 62
23, 109870, Note_on_c, 12, 65, 0
23, 109872, Note_on_c, 12, 63, 63
23, 109918, Note_on_c, 12, 63, 0
23, 109920, Note_on_c, 12, 65, 55
23, 109966, Note_on_c, 12, 65, 0
23, 109968, Note_on_c, 12, 63, 59
23, 110014, Note_on_c, 12, 63, 0
23, 110016, Note_on_c, 12, 65, 51
23, 110062, Note_on_c, 12, 65, 0
23, 110064, Note_on_c, 12, 63, 56
23, 110110, Note_on_c, 12, 63, 0
23, 110112, Note_on_c, 12, 65, 45
23, 110158, Note_on_c, 12, 65, 0
23, 110160, Note_on_c, 12, 63, 46
23, 110206, Note_on_c, 12, 63, 0
23, 110208, Note_on_c, 12, 65, 46
23, 110254, Note_on_c, 12, 65, 0
23, 110256, Note_on_c, 12, 63, 39
23, 110302, Note_on_c, 12, 63, 0
23, 110304, Note_on_c, 12, 65, 38
23, 110350, Note_on_c, 12, 65, 0
23, 110352, Note_on_c, 12, 63, 40
23, 110398, Note_on_c, 12, 63, 0
23, 110400, Note_on_c, 12, 65, 41
23, 110446, Note_on_c, 12, 65, 0
23, 110448, Note_on_c, 12, 63, 33
23, 110494, Note_on_c, 12, 63, 0
23, 110496, Note_on_c, 12, 65, 29
23, 110542, Note_on_c, 12, 65, 0
23, 110544, Note_on_c, 12, 63, 27
23, 110590, Note_on_c, 12, 63, 0
23, 110592, Note_on_c, 12, 62, 32
23, 110752, Note_on_c, 12, 62, 0
23, 112128, Control_c, 12, 11, 127
23, 112960, Note_on_c, 12, 70, 40
23, 113022, Note_on_c, 12, 70, 0
23, 113024, Note_on_c, 12, 68, 44
23, 113086, Note_on_c, 12, 68, 0
23, 113088, Note_on_c, 12, 66, 53
23, 113150, Note_on_c, 12, 66, 0
23, 113152, Note_on_c, 12, 66, 53
23, 113214, Note_on_c, 12, 66, 0
23, 113216, Note_on_c, 12, 60, 52
23, 113278, Note_on_c, 12, 60, 0
23, 113280, Note_on_c, 12, 63, 56
23, 113342, Note_on_c, 12, 63, 0
23, 113344, Note_on_c, 12, 63, 55
23, 113406, Note_on_c, 12, 63, 0
23, 113408, Note_on_c, 12, 66, 62
23, 113470, Note_on_c, 12, 66, 0
23, 113472, Note_on_c, 12, 68, 68
23, 113534, Note_on_c, 12, 68, 0
23, 113536, Note_on_c, 12, 70, 72
23, 113598, Note_on_c, 12, 70, 0
23, 113600, Note_on_c, 12, 73, 69
23, 113662, Note_on_c, 12, 73, 0
23, 113664, Note_on_c, 12, 82, 74
23, 113856, Note_on_c, 12, 82, 0
23, 113856, Note_on_c, 12, 80, 80
23, 114048, Note_on_c, 12, 80, 0
23, 114048, Note_on_c, 12, 78, 72
23, 114176, Note_on_c, 12, 78, 0
23, 114176, Note_on_c, 12, 75, 78
23, 114304, Note_on_c, 12, 75, 0
23, 114304, Note_on_c, 12, 78, 78
23, 114430, Note_on_c, 12, 78, 0
23, 114432, Note_on_c, 12, 75, 78
23, 114624, Note_on_c, 12, 75, 0
23, 114624, Note_on_c, 12, 73, 65
23, 114816, Note_on_c, 12, 73, 0
23, 114816, Note_on_c, 12, 71, 64
23, 114944, Note_on_c, 12, 71, 0
23, 114944, Note_on_c, 12, 68, 52
23, 115072, Note_on_c, 12, 68, 0
23, 115072, Note_on_c, 12, 71, 56
23, 115198, Note_on_c, 12, 71, 0
23, 115200, Note_on_c, 12, 70, 41
23, 115392, Note_on_c, 12, 70, 0
23, 115392, Note_on_c, 12, 68, 44
23, 115584, Note_on_c, 12, 68, 0
23, 115584, Note_on_c, 12, 66, 40
23, 115675, Note_on_c, 12, 66, 0
23, 115712, Note_on_c, 12, 63, 59
23, 115803, Note_on_c, 12, 63, 0
23, 115840, Note_on_c, 12, 66, 65
23, 115931, Note_on_c, 12, 66, 0
23, 115968, Note_on_c, 12, 70, 80
23, 116160, Note_on_c, 12, 70, 0
23, 116160, Note_on_c, 12, 69, 80
23, 116352, Note_on_c, 12, 69, 0
23, 116352, Note_on_c, 12, 68, 59
23, 116544, Note_on_c, 12, 68, 0
23, 116544, Note_on_c, 12, 67, 56
23, 116704, Note_on_c, 12, 67, 0
23, 116736, Note_on_c, 12, 60, 38
23, 116928, Note_on_c, 12, 60, 0
23, 116928, Note_on_c, 12, 61, 37
23, 117120, Note_on_c, 12, 61, 0
23, 117120, Note_on_c, 12, 58, 38
23, 117248, Note_on_c, 12, 58, 0
23, 117248, Note_on_c, 12, 56, 40
23, 117376, Note_on_c, 12, 56, 0
23, 117376, Note_on_c, 12, 58, 35
23, 117502, Note_on_c, 12, 58, 0
23, 118464, Program_c, 12, 45
23, 118464, Note_on_c, 12, 56, 92
23, 118558, Note_on_c, 12, 56, 0
23, 122112, Program_c, 12, 48
23, 123648, Note_on_c, 12, 68, 30
23, 123694, Note_on_c, 12, 68, 0
23, 123696, Note_on_c, 12, 68, 33
23, 123742, Note_on_c, 12, 68, 0
23, 123744, Note_on_c, 12, 68, 27
23, 123790, Note_on_c, 12, 68, 0
23, 123792, Note_on_c, 12, 68, 31
23, 123838, Note_on_c, 12, 68, 0
23, 123840, Note_on_c, 12, 68, 26
23, 123886, Note_on_c, 12, 68, 0
23, 123888, Note_on_c, 12, 68, 30
23, 123934, Note_on_c, 12, 68, 0
23, 123936, Note_on_c, 12, 68, 33
23, 123982, Note_on_c, 12, 68, 0
23, 123984, Note_on_c, 12, 68, 34
23, 124030, Note_on_c, 12, 68, 0
23, 124032, Note_on_c, 12, 69, 25
23, 124078, Note_on_c, 12, 69, 0
23, 124080, Note_on_c, 12, 69, 31
23, 124126, Note_on_c, 12, 69, 0
23, 124128, Note_on_c, 12, 69, 25
23, 124174, Note_on_c, 12, 69, 0
23, 124176, Note_on_c, 12, 69, 25
23, 124222, Note_on_c, 12, 69, 0
23, 124224, Note_on_c, 12, 68, 27
23, 124270, Note_on_c, 12, 68, 0
23, 124272, Note_on_c, 12, 68, 32
23, 124318, Note_on_c, 12, 68, 0
23, 124320, Note_on_c, 12, 68, 34
23, 124366, Note_on_c, 12, 68, 0
23, 124368, Note_on_c, 12, 68, 34
23, 124414, Note_on_c, 12, 68, 0
23, 125184, Note_on_c, 12, 68, 26
23, 125230, Note_on_c, 12, 68, 0
23, 125232, Note_on_c, 12, 68, 26
23, 125278, Note_on_c, 12, 68, 0
23, 125280, Note_on_c, 12, 68, 31
23, 125326, Note_on_c, 12, 68, 0
23, 125328, Note_on_c, 12, 68, 36
23, 125374, Note_on_c, 12, 68, 0
23, 125376, Note_on_c, 12, 68, 34
23, 125422, Note_on_c, 12, 68, 0
23, 125424, Note_on_c, 12, 68, 39
23, 125470, Note_on_c, 12, 68, 0
23, 125472, Note_on_c, 12, 68, 44
23, 125518, Note_on_c, 12, 68, 0
23, 125520, Note_on_c, 12, 68, 45
23, 125566, Note_on_c, 12, 68, 0
23, 125568, Note_on_c, 12, 70, 46
23, 125614, Note_on_c, 12, 70, 0
23, 125616, Note_on_c, 12, 70, 49
23, 125662, Note_on_c, 12, 70, 0
23, 125664, Note_on_c, 12, 70, 61
23, 125710, Note_on_c, 12, 70, 0
23, 125712, Note_on_c, 12, 70, 58
23, 125758, Note_on_c, 12, 70, 0
23, 125760, Note_on_c, 12, 70, 64
23, 125806, Note_on_c, 12, 70, 0
23, 125808, Note_on_c, 12, 70, 64
23, 125854, Note_on_c, 12, 70, 0
23, 125856, Note_on_c, 12, 70, 75
23, 125902, Note_on_c, 12, 70, 0
23, 125904, Note_on_c, 12, 70, 72
23, 125950, Note_on_c, 12, 70, 0
23, 125952, Note_on_c, 12, 59, 32
23, 125998, Note_on_c, 12, 59, 0
23, 126000, Note_on_c, 12, 59, 35
23, 126046, Note_on_c, 12, 59, 0
23, 126048, Note_on_c, 12, 59, 25
23, 126094, Note_on_c, 12, 59, 0
23, 126096, Note_on_c, 12, 59, 28
23, 126142, Note_on_c, 12, 59, 0
23, 126144, Note_on_c, 12, 59, 25
23, 126190, Note_on_c, 12, 59, 0
23, 126192, Note_on_c, 12, 59, 34
23, 126238, Note_on_c, 12, 59, 0
23, 126240, Note_on_c, 12, 59, 27
23, 126286, Note_on_c, 12, 59, 0
23, 126288, Note_on_c, 12, 59, 31
23, 126334, Note_on_c, 12, 59, 0
23, 126336, Note_on_c, 12, 60, 28
23, 126382, Note_on_c, 12, 60, 0
23, 126384, Note_on_c, 12, 60, 31
23, 126430, Note_on_c, 12, 60, 0
23, 126432, Note_on_c, 12, 60, 33
23, 126478, Note_on_c, 12, 60, 0
23, 126480, Note_on_c, 12, 60, 34
23, 126526, Note_on_c, 12, 60, 0
23, 126528, Note_on_c, 12, 60, 27
23, 126574, Note_on_c, 12, 60, 0
23, 126576, Note_on_c, 12, 60, 26
23, 126622, Note_on_c, 12, 60, 0
23, 126624, Note_on_c, 12, 60, 30
23, 126670, Note_on_c, 12, 60, 0
23, 126672, Note_on_c, 12, 60, 31
23, 126718, Note_on_c, 12, 60, 0
23, 126720, Note_on_c, 12, 61, 29
23, 126766, Note_on_c, 12, 61, 0
23, 126768, Note_on_c, 12, 61, 35
23, 126814, Note_on_c, 12, 61, 0
23, 126816, Note_on_c, 12, 61, 35
23, 126862, Note_on_c, 12, 61, 0
23, 126864, Note_on_c, 12, 61, 35
23, 126910, Note_on_c, 12, 61, 0
23, 126912, Note_on_c, 12, 61, 27
23, 126958, Note_on_c, 12, 61, 0
23, 126960, Note_on_c, 12, 61, 34
23, 127006, Note_on_c, 12, 61, 0
23, 127008, Note_on_c, 12, 61, 28
23, 127054, Note_on_c, 12, 61, 0
23, 127056, Note_on_c, 12, 61, 34
23, 127102, Note_on_c, 12, 61, 0
23, 127104, Note_on_c, 12, 62, 31
23, 127150, Note_on_c, 12, 62, 0
23, 127152, Note_on_c, 12, 62, 25
23, 127198, Note_on_c, 12, 62, 0
23, 127200, Note_on_c, 12, 62, 35
23, 127246, Note_on_c, 12, 62, 0
23, 127248, Note_on_c, 12, 62, 31
23, 127294, Note_on_c, 12, 62, 0
23, 127296, Note_on_c, 12, 62, 26
23, 127342, Note_on_c, 12, 62, 0
23, 127344, Note_on_c, 12, 62, 27
23, 127390, Note_on_c, 12, 62, 0
23, 127392, Note_on_c, 12, 62, 26
23, 127438, Note_on_c, 12, 62, 0
23, 127440, Note_on_c, 12, 62, 35
23, 127486, Note_on_c, 12, 62, 0
23, 127488, Note_on_c, 12, 63, 35
23, 127534, Note_on_c, 12, 63, 0
23, 127536, Note_on_c, 12, 63, 27
23, 127582, Note_on_c, 12, 63, 0
23, 127584, Note_on_c, 12, 63, 36
23, 127630, Note_on_c, 12, 63, 0
23, 127632, Note_on_c, 12, 63, 36
23, 127678, Note_on_c, 12, 63, 0
23, 127680, Note_on_c, 12, 63, 46
23, 127726, Note_on_c, 12, 63, 0
23, 127728, Note_on_c, 12, 63, 47
23, 127774, Note_on_c, 12, 63, 0
23, 127776, Note_on_c, 12, 64, 51
23, 127822, Note_on_c, 12, 64, 0
23, 127824, Note_on_c, 12, 64, 54
23, 127870, Note_on_c, 12, 64, 0
23, 127872, Note_on_c, 12, 65, 56
23, 127918, Note_on_c, 12, 65, 0
23, 127920, Note_on_c, 12, 65, 62
23, 127966, Note_on_c, 12, 65, 0
23, 127968, Note_on_c, 12, 65, 52
23, 128014, Note_on_c, 12, 65, 0
23, 128016, Note_on_c, 12, 65, 51
23, 128062, Note_on_c, 12, 65, 0
23, 128064, Note_on_c, 12, 65, 48
23, 128110, Note_on_c, 12, 65, 0
23, 128112, Note_on_c, 12, 65, 45
23, 128158, Note_on_c, 12, 65, 0
23, 128160, Note_on_c, 12, 64, 39
23, 128206, Note_on_c, 12, 64, 0
23, 128208, Note_on_c, 12, 64, 36
23, 128254, Note_on_c, 12, 64, 0
23, 128256, Note_on_c, 12, 63, 26
23, 128302, Note_on_c, 12, 63, 0
23, 128304, Note_on_c, 12, 63, 35
23, 128350, Note_on_c, 12, 63, 0
23, 128352, Note_on_c, 12, 63, 37
23, 128398, Note_on_c, 12, 63, 0
23, 128400, Note_on_c, 12, 63, 35
23, 128446, Note_on_c, 12, 63, 0
23, 128448, Note_on_c, 12, 63, 39
23, 128494, Note_on_c, 12, 63, 0
23, 128496, Note_on_c, 12, 63, 49
23, 128542, Note_on_c, 12, 63, 0
23, 128544, Note_on_c, 12, 64, 49
23, 128590, Note_on_c, 12, 64, 0
23, 128592, Note_on_c, 12, 64, 51
23, 128638, Note_on_c, 12, 64, 0
23, 128640, Note_on_c, 12, 65, 64
23, 128686, Note_on_c, 12, 65, 0
23, 128688, Note_on_c, 12, 65, 64
23, 128734, Note_on_c, 12, 65, 0
23, 128736, Note_on_c, 12, 65, 60
23, 128782, Note_on_c, 12, 65, 0
23, 128784, Note_on_c, 12, 65, 57
23, 128830, Note_on_c, 12, 65, 0
23, 128832, Note_on_c, 12, 65, 52
23, 128878, Note_on_c, 12, 65, 0
23, 128880, Note_on_c, 12, 65, 49
23, 128926, Note_on_c, 12, 65, 0
23, 128928, Note_on_c, 12, 64, 42
23, 128974, Note_on_c, 12, 64, 0
23, 128976, Note_on_c, 12, 64, 38
23, 129022, Note_on_c, 12, 64, 0
23, 129024, Note_on_c, 12, 63, 35
23, 129070, Note_on_c, 12, 63, 0
23, 129072, Note_on_c, 12, 63, 28
23, 129118, Note_on_c, 12, 63, 0
23, 129120, Note_on_c, 12, 63, 32
23, 129166, Note_on_c, 12, 63, 0
23, 129168, Note_on_c, 12, 63, 26
23, 129214, Note_on_c, 12, 63, 0
23, 129216, Note_on_c, 12, 63, 30
23, 129262, Note_on_c, 12, 63, 0
23, 129264, Note_on_c, 12, 63, 26
23, 129310, Note_on_c, 12, 63, 0
23, 129312, Note_on_c, 12, 63, 31
23, 129358, Note_on_c, 12, 63, 0
23, 129360, Note_on_c, 12, 63, 32
23, 129406, Note_on_c, 12, 63, 0
23, 129408, Note_on_c, 12, 62, 32
23, 129454, Note_on_c, 12, 62, 0
23, 129456, Note_on_c, 12, 62, 34
23, 129502, Note_on_c, 12, 62, 0
23, 129504, Note_on_c, 12, 62, 35
23, 129550, Note_on_c, 12, 62, 0
23, 129552, Note_on_c, 12, 62, 32
23, 129598, Note_on_c, 12, 62, 0
23, 129600, Note_on_c, 12, 62, 25
23, 129646, Note_on_c, 12, 62, 0
23, 129648, Note_on_c, 12, 62, 30
23, 129694, Note_on_c, 12, 62, 0
23, 129696, Note_on_c, 12, 62, 34
23, 129742, Note_on_c, 12, 62, 0
23, 129744, Note_on_c, 12, 62, 33
23, 129790, Note_on_c, 12, 62, 0
23, 129792, Note_on_c, 12, 61, 27
23, 129838, Note_on_c, 12, 61, 0
23, 129840, Note_on_c, 12, 61, 28
23, 129886, Note_on_c, 12, 61, 0
23, 129888, Note_on_c, 12, 61, 29
23, 129934, Note_on_c, 12, 61, 0
23, 129936, Note_on_c, 12, 61, 27
23, 129982, Note_on_c, 12, 61, 0
23, 129984, Note_on_c, 12, 61, 32
23, 130030, Note_on_c, 12, 61, 0
23, 130032, Note_on_c, 12, 61, 25
23, 130078, Note_on_c, 12, 61, 0
23, 130080, Note_on_c, 12, 61, 28
23, 130126, Note_on_c, 12, 61, 0
23, 130128, Note_on_c, 12, 61, 25
23, 130174, Note_on_c, 12, 61, 0
23, 130176, Note_on_c, 12, 62, 32
23, 130222, Note_on_c, 12, 62, 0
23, 130224, Note_on_c, 12, 62, 30
23, 130270, Note_on_c, 12, 62, 0
23, 130272, Note_on_c, 12, 62, 34
23, 130318, Note_on_c, 12, 62, 0
23, 130320, Note_on_c, 12, 62, 29
23, 130366, Note_on_c, 12, 62, 0
23, 130368, Note_on_c, 12, 62, 33
23, 130414, Note_on_c, 12, 62, 0
23, 130416, Note_on_c, 12, 62, 32
23, 130462, Note_on_c, 12, 62, 0
23, 130464, Note_on_c, 12, 62, 28
23, 130510, Note_on_c, 12, 62, 0
23, 130512, Note_on_c, 12, 62, 30
23, 130558, Note_on_c, 12, 62, 0
23, 130752, Program_c, 12, 45
23, 130752, Note_on_c, 12, 61, 34
23, 130912, Note_on_c, 12, 61, 0
23, 131136, Note_on_c, 12, 60, 31
23, 131296, Note_on_c, 12, 60, 0
23, 131520, Note_on_c, 12, 59, 32
23, 131680, Note_on_c, 12, 59, 0
23, 131904, Note_on_c, 12, 60, 28
23, 132064, Note_on_c, 12, 60, 0
23, 132864, Program_c, 12, 48
23, 132864, Note_on_c, 12, 68, 30
23, 132910, Note_on_c, 12, 68, 0
23, 132912, Note_on_c, 12, 68, 31
23, 132958, Note_on_c, 12, 68, 0
23, 132960, Note_on_c, 12, 68, 34
23, 133006, Note_on_c, 12, 68, 0
23, 133008, Note_on_c, 12, 68, 30
23, 133054, Note_on_c, 12, 68, 0
23, 133056, Note_on_c, 12, 68, 31
23, 133102, Note_on_c, 12, 68, 0
23, 133104, Note_on_c, 12, 68, 42
23, 133150, Note_on_c, 12, 68, 0
23, 133152, Note_on_c, 12, 68, 37
23, 133198, Note_on_c, 12, 68, 0
23, 133200, Note_on_c, 12, 68, 47
23, 133246, Note_on_c, 12, 68, 0
23, 133248, Note_on_c, 12, 69, 47
23, 133294, Note_on_c, 12, 69, 0
23, 133296, Note_on_c, 12, 69, 56
23, 133342, Note_on_c, 12, 69, 0
23, 133344, Note_on_c, 12, 69, 57
23, 133390, Note_on_c, 12, 69, 0
23, 133392, Note_on_c, 12, 69, 61
23, 133438, Note_on_c, 12, 69, 0
23, 133440, Note_on_c, 12, 68, 56
23, 133486, Note_on_c, 12, 68, 0
23, 133488, Note_on_c, 12, 68, 61
23, 133534, Note_on_c, 12, 68, 0
23, 133536, Note_on_c, 12, 68, 60
23, 133582, Note_on_c, 12, 68, 0
23, 133584, Note_on_c, 12, 68, 59
23, 133630, Note_on_c, 12, 68, 0
23, 134400, Note_on_c, 12, 68, 27
23, 134446, Note_on_c, 12, 68, 0
23, 134448, Note_on_c, 12, 68, 27
23, 134494, Note_on_c, 12, 68, 0
23, 134496, Note_on_c, 12, 68, 27
23, 134542, Note_on_c, 12, 68, 0
23, 134544, Note_on_c, 12, 68, 28
23, 134590, Note_on_c, 12, 68, 0
23, 134592, Note_on_c, 12, 68, 35
23, 134638, Note_on_c, 12, 68, 0
23, 134640, Note_on_c, 12, 68, 30
23, 134686, Note_on_c, 12, 68, 0
23, 134688, Note_on_c, 12, 68, 29
23, 134734, Note_on_c, 12, 68, 0
23, 134736, Note_on_c, 12, 68, 27
23, 134782, Note_on_c, 12, 68, 0
23, 134784, Note_on_c, 12, 70, 29
23, 134830, Note_on_c, 12, 70, 0
23, 134832, Note_on_c, 12, 70, 25
23, 134878, Note_on_c, 12, 70, 0
23, 134880, Note_on_c, 12, 70, 28
23, 134926, Note_on_c, 12, 70, 0
23, 134928, Note_on_c, 12, 70, 35
23, 134974, Note_on_c, 12, 70, 0
23, 134976, Note_on_c, 12, 70, 27
23, 135022, Note_on_c, 12, 70, 0
23, 135024, Note_on_c, 12, 70, 35
23, 135070, Note_on_c, 12, 70, 0
23, 135072, Note_on_c, 12, 70, 30
23, 135118, Note_on_c, 12, 70, 0
23, 135120, Note_on_c, 12, 70, 25
23, 135166, Note_on_c, 12, 70, 0
23, 135168, Note_on_c, 12, 71, 30
23, 135214, Note_on_c, 12, 71, 0
23, 135216, Note_on_c, 12, 71, 29
23, 135262, Note_on_c, 12, 71, 0
23, 135264, Note_on_c, 12, 71, 26
23, 135310, Note_on_c, 12, 71, 0
23, 135312, Note_on_c, 12, 71, 37
23, 135358, Note_on_c, 12, 71, 0
23, 135360, Note_on_c, 12, 71, 29
23, 135406, Note_on_c, 12, 71, 0
23, 135408, Note_on_c, 12, 71, 36
23, 135454, Note_on_c, 12, 71, 0
23, 135456, Note_on_c, 12, 71, 35
23, 135502, Note_on_c, 12, 71, 0
23, 135504, Note_on_c, 12, 71, 31
23, 135550, Note_on_c, 12, 71, 0
23, 135552, Note_on_c, 12, 72, 38
23, 135598, Note_on_c, 12, 72, 0
23, 135600, Note_on_c, 12, 72, 34
23, 135646, Note_on_c, 12, 72, 0
23, 135648, Note_on_c, 12, 72, 44
23, 135694, Note_on_c, 12, 72, 0
23, 135696, Note_on_c, 12, 72, 41
23, 135742, Note_on_c, 12, 72, 0
23, 135744, Note_on_c, 12, 72, 42
23, 135790, Note_on_c, 12, 72, 0
23, 135792, Note_on_c, 12, 72, 37
23, 135838, Note_on_c, 12, 72, 0
23, 135840, Note_on_c, 12, 72, 39
23, 135886, Note_on_c, 12, 72, 0
23, 135888, Note_on_c, 12, 72, 44
23, 135934, Note_on_c, 12, 72, 0
23, 135936, Note_on_c, 12, 73, 45
23, 135982, Note_on_c, 12, 73, 0
23, 135984, Note_on_c, 12, 73, 47
23, 136030, Note_on_c, 12, 73, 0
23, 136032, Note_on_c, 12, 73, 46
23, 136078, Note_on_c, 12, 73, 0
23, 136080, Note_on_c, 12, 73, 55
23, 136126, Note_on_c, 12, 73, 0
23, 136128, Note_on_c, 12, 73, 52
23, 136174, Note_on_c, 12, 73, 0
23, 136176, Note_on_c, 12, 73, 58
23, 136222, Note_on_c, 12, 73, 0
23, 136224, Note_on_c, 12, 73, 54
23, 136270, Note_on_c, 12, 73, 0
23, 136272, Note_on_c, 12, 73, 55
23, 136318, Note_on_c, 12, 73, 0
23, 136320, Note_on_c, 12, 74, 62
23, 136366, Note_on_c, 12, 74, 0
23, 136368, Note_on_c, 12, 74, 63
23, 136414, Note_on_c, 12, 74, 0
23, 136416, Note_on_c, 12, 74, 68
23, 136462, Note_on_c, 12, 74, 0
23, 136464, Note_on_c, 12, 74, 68
23, 136510, Note_on_c, 12, 74, 0
23, 136512, Note_on_c, 12, 74, 65
23, 136558, Note_on_c, 12, 74, 0
23, 136560, Note_on_c, 12, 74, 66
23, 136606, Note_on_c, 12, 74, 0
23, 136608, Note_on_c, 12, 74, 72
23, 136654, Note_on_c, 12, 74, 0
23, 136656, Note_on_c, 12, 74, 76
23, 136702, Note_on_c, 12, 74, 0
23, 136704, Note_on_c, 12, 75, 42
23, 136750, Note_on_c, 12, 75, 0
23, 136752, Note_on_c, 12, 75, 50
23, 136798, Note_on_c, 12, 75, 0
23, 136800, Note_on_c, 12, 75, 45
23, 136846, Note_on_c, 12, 75, 0
23, 136848, Note_on_c, 12, 75, 44
23, 136894, Note_on_c, 12, 75, 0
23, 136896, Note_on_c, 12, 75, 47
23, 136942, Note_on_c, 12, 75, 0
23, 136944, Note_on_c, 12, 75, 47
23, 136990, Note_on_c, 12, 75, 0
23, 136992, Note_on_c, 12, 76, 50
23, 137038, Note_on_c, 12, 76, 0
23, 137040, Note_on_c, 12, 76, 52
23, 137086, Note_on_c, 12, 76, 0
23, 137088, Note_on_c, 12, 77, 57
23, 137134, Note_on_c, 12, 77, 0
23, 137136, Note_on_c, 12, 77, 58
23, 137182, Note_on_c, 12, 77, 0
23, 137184, Note_on_c, 12, 77, 57
23, 137230, Note_on_c, 12, 77, 0
23, 137232, Note_on_c, 12, 77, 54
23, 137278, Note_on_c, 12, 77, 0
23, 137280, Note_on_c, 12, 77, 61
23, 137326, Note_on_c, 12, 77, 0
23, 137328, Note_on_c, 12, 77, 58
23, 137374, Note_on_c, 12, 77, 0
23, 137376, Note_on_c, 12, 76, 62
23, 137422, Note_on_c, 12, 76, 0
23, 137424, Note_on_c, 12, 76, 63
23, 137470, Note_on_c, 12, 76, 0
23, 137472, Note_on_c, 12, 75, 59
23, 137518, Note_on_c, 12, 75, 0
23, 137520, Note_on_c, 12, 75, 67
23, 137566, Note_on_c, 12, 75, 0
23, 137568, Note_on_c, 12, 75, 73
23, 137614, Note_on_c, 12, 75, 0
23, 137616, Note_on_c, 12, 75, 68
23, 137662, Note_on_c, 12, 75, 0
23, 137664, Note_on_c, 12, 75, 67
23, 137710, Note_on_c, 12, 75, 0
23, 137712, Note_on_c, 12, 75, 79
23, 137758, Note_on_c, 12, 75, 0
23, 137760, Note_on_c, 12, 76, 72
23, 137854, Note_on_c, 12, 76, 0
23, 137856, Note_on_c, 12, 77, 77
23, 137950, Note_on_c, 12, 77, 0
23, 137952, Note_on_c, 12, 78, 79
23, 138046, Note_on_c, 12, 78, 0
23, 138048, Note_on_c, 12, 79, 90
23, 138142, Note_on_c, 12, 79, 0
23, 138144, Note_on_c, 12, 80, 92
23, 138238, Note_on_c, 12, 80, 0
23, 138240, Note_on_c, 12, 81, 49
23, 138400, Note_on_c, 12, 81, 0
23, 143616, Note_on_c, 12, 64, 27
23, 143662, Note_on_c, 12, 64, 0
23, 143664, Note_on_c, 12, 64, 34
23, 143710, Note_on_c, 12, 64, 0
23, 143712, Note_on_c, 12, 64, 32
23, 143758, Note_on_c, 12, 64, 0
23, 143760, Note_on_c, 12, 64, 31
23, 143806, Note_on_c, 12, 64, 0
23, 143808, Note_on_c, 12, 64, 25
23, 143854, Note_on_c, 12, 64, 0
23, 143856, Note_on_c, 12, 64, 25
23, 143902, Note_on_c, 12, 64, 0
23, 143904, Note_on_c, 12, 64, 30
23, 143950, Note_on_c, 12, 64, 0
23, 143952, Note_on_c, 12, 64, 26
23, 143998, Note_on_c, 12, 64, 0
23, 144000, Note_on_c, 12, 71, 29
23, 144046, Note_on_c, 12, 71, 0
23, 144048, Note_on_c, 12, 71, 26
23, 144094, Note_on_c, 12, 71, 0
23, 144096, Note_on_c, 12, 71, 34
23, 144142, Note_on_c, 12, 71, 0
23, 144144, Note_on_c, 12, 71, 30
23, 144190, Note_on_c, 12, 71, 0
23, 144192, Note_on_c, 12, 71, 32
23, 144238, Note_on_c, 12, 71, 0
23, 144240, Note_on_c, 12, 71, 31
23, 144286, Note_on_c, 12, 71, 0
23, 144288, Note_on_c, 12, 71, 29
23, 144334, Note_on_c, 12, 71, 0
23, 144336, Note_on_c, 12, 71, 31
23, 144382, Note_on_c, 12, 71, 0
23, 145152, Program_c, 12, 45
23, 147456, Program_c, 12, 48
23, 147456, Note_on_c, 12, 71, 65
23, 147502, Note_on_c, 12, 71, 0
23, 147504, Note_on_c, 12, 71, 59
23, 147550, Note_on_c, 12, 71, 0
23, 147552, Note_on_c, 12, 71, 60
23, 147598, Note_on_c, 12, 71, 0
23, 147600, Note_on_c, 12, 71, 64
23, 147646, Note_on_c, 12, 71, 0
23, 147648, Note_on_c, 12, 71, 59
23, 147694, Note_on_c, 12, 71, 0
23, 147696, Note_on_c, 12, 71, 63
23, 147742, Note_on_c, 12, 71, 0
23, 147744, Note_on_c, 12, 71, 65
23, 147790, Note_on_c, 12, 71, 0
23, 147792, Note_on_c, 12, 71, 64
23, 147838, Note_on_c, 12, 71, 0
23, 147840, Note_on_c, 12, 69, 57
23, 147886, Note_on_c, 12, 69, 0
23, 147888, Note_on_c, 12, 69, 57
23, 147934, Note_on_c, 12, 69, 0
23, 147936, Note_on_c, 12, 69, 57
23, 147982, Note_on_c, 12, 69, 0
23, 147984, Note_on_c, 12, 69, 61
23, 148030, Note_on_c, 12, 69, 0
23, 148032, Note_on_c, 12, 69, 58
23, 148078, Note_on_c, 12, 69, 0
23, 148080, Note_on_c, 12, 69, 60
23, 148126, Note_on_c, 12, 69, 0
23, 148128, Note_on_c, 12, 69, 55
23, 148174, Note_on_c, 12, 69, 0
23, 148176, Note_on_c, 12, 69, 55
23, 148222, Note_on_c, 12, 69, 0
23, 148224, Note_on_c, 12, 67, 57
23, 148270, Note_on_c, 12, 67, 0
23, 148272, Note_on_c, 12, 67, 57
23, 148318, Note_on_c, 12, 67, 0
23, 148320, Note_on_c, 12, 67, 65
23, 148366, Note_on_c, 12, 67, 0
23, 148368, Note_on_c, 12, 67, 61
23, 148414, Note_on_c, 12, 67, 0
23, 148416, Note_on_c, 12, 67, 64
23, 148462, Note_on_c, 12, 67, 0
23, 148464, Note_on_c, 12, 67, 69
23, 148510, Note_on_c, 12, 67, 0
23, 148512, Note_on_c, 12, 67, 64
23, 148558, Note_on_c, 12, 67, 0
23, 148560, Note_on_c, 12, 67, 64
23, 148606, Note_on_c, 12, 67, 0
23, 148608, Note_on_c, 12, 67, 69
23, 148654, Note_on_c, 12, 67, 0
23, 148656, Note_on_c, 12, 67, 64
23, 148702, Note_on_c, 12, 67, 0
23, 148704, Note_on_c, 12, 67, 64
23, 148750, Note_on_c, 12, 67, 0
23, 148752, Note_on_c, 12, 67, 67
23, 148798, Note_on_c, 12, 67, 0
23, 148800, Note_on_c, 12, 67, 75
23, 148846, Note_on_c, 12, 67, 0
23, 148848, Note_on_c, 12, 67, 71
23, 148894, Note_on_c, 12, 67, 0
23, 148896, Note_on_c, 12, 67, 74
23, 148942, Note_on_c, 12, 67, 0
23, 148944, Note_on_c, 12, 67, 72
23, 148990, Note_on_c, 12, 67, 0
23, 148992, Note_on_c, 12, 76, 79
23, 149038, Note_on_c, 12, 76, 0
23, 149040, Note_on_c, 12, 76, 79
23, 149086, Note_on_c, 12, 76, 0
23, 149088, Note_on_c, 12, 76, 71
23, 149134, Note_on_c, 12, 76, 0
23, 149136, Note_on_c, 12, 76, 72
23, 149182, Note_on_c, 12, 76, 0
23, 149184, Note_on_c, 12, 76, 70
23, 149230, Note_on_c, 12, 76, 0
23, 149232, Note_on_c, 12, 76, 72
23, 149278, Note_on_c, 12, 76, 0
23, 149280, Note_on_c, 12, 76, 74
23, 149326, Note_on_c, 12, 76, 0
23, 149328, Note_on_c, 12, 76, 79
23, 149374, Note_on_c, 12, 76, 0
23, 149376, Note_on_c, 12, 76, 71
23, 149422, Note_on_c, 12, 76, 0
23, 149424, Note_on_c, 12, 76, 75
23, 149470, Note_on_c, 12, 76, 0
23, 149472, Note_on_c, 12, 76, 80
23, 149518, Note_on_c, 12, 76, 0
23, 149520, Note_on_c, 12, 76, 72
23, 149566, Note_on_c, 12, 76, 0
23, 149568, Note_on_c, 12, 76, 72
23, 149614, Note_on_c, 12, 76, 0
23, 149616, Note_on_c, 12, 76, 76
23, 149662, Note_on_c, 12, 76, 0
23, 149664, Note_on_c, 12, 76, 73
23, 149710, Note_on_c, 12, 76, 0
23, 149712, Note_on_c, 12, 76, 72
23, 149758, Note_on_c, 12, 76, 0
23, 149760, Note_on_c, 12, 88, 82
23, 149806, Note_on_c, 12, 88, 0
23, 149808, Note_on_c, 12, 88, 78
23, 149854, Note_on_c, 12, 88, 0
23, 149856, Note_on_c, 12, 88, 82
23, 149902, Note_on_c, 12, 88, 0
23, 149904, Note_on_c, 12, 88, 77
23, 149950, Note_on_c, 12, 88, 0
23, 149952, Note_on_c, 12, 88, 80
23, 149998, Note_on_c, 12, 88, 0
23, 150000, Note_on_c, 12, 88, 85
23, 150046, Note_on_c, 12, 88, 0
23, 150048, Note_on_c, 12, 88, 83
23, 150094, Note_on_c, 12, 88, 0
23, 150096, Note_on_c, 12, 88, 84
23, 150142, Note_on_c, 12, 88, 0
23, 150144, Note_on_c, 12, 88, 87
23, 150190, Note_on_c, 12, 88, 0
23, 150192, Note_on_c, 12, 88, 91
23, 150238, Note_on_c, 12, 88, 0
23, 150240, Note_on_c, 12, 88, 82
23, 150286, Note_on_c, 12, 88, 0
23, 150288, Note_on_c, 12, 88, 90
23, 150334, Note_on_c, 12, 88, 0
23, 150336, Note_on_c, 12, 88, 90
23, 150382, Note_on_c, 12, 88, 0
23, 150384, Note_on_c, 12, 88, 94
23, 150430, Note_on_c, 12, 88, 0
23, 150432, Note_on_c, 12, 88, 86
23, 150478, Note_on_c, 12, 88, 0
23, 150480, Note_on_c, 12, 88, 93
23, 150526, Note_on_c, 12, 88, 0
23, 150528, Control_c, 12, 11, 92
23, 150528, Note_on_c, 12, 81, 106
23, 150656, Note_on_c, 12, 81, 0
23, 150656, Note_on_c, 12, 81, 107
23, 150784, Note_on_c, 12, 81, 0
23, 150784, Note_on_c, 12, 80, 108
23, 151296, Control_c, 12, 11, 92
23, 151317, Control_c, 12, 11, 93
23, 151339, Control_c, 12, 11, 94
23, 151361, Control_c, 12, 11, 95
23, 151383, Control_c, 12, 11, 96
23, 151405, Control_c, 12, 11, 97
23, 151427, Control_c, 12, 11, 98
23, 151449, Control_c, 12, 11, 99
23, 151471, Control_c, 12, 11, 100
23, 151493, Control_c, 12, 11, 101
23, 151515, Control_c, 12, 11, 102
23, 151537, Control_c, 12, 11, 103
23, 151559, Control_c, 12, 11, 104
23, 151581, Control_c, 12, 11, 105
23, 151603, Control_c, 12, 11, 106
23, 151625, Control_c, 12, 11, 107
23, 151647, Control_c, 12, 11, 108
23, 151669, Control_c, 12, 11, 109
23, 151680, Note_on_c, 12, 80, 0
23, 151680, Note_on_c, 12, 81, 111
23, 151690, Control_c, 12, 11, 110
23, 151712, Control_c, 12, 11, 111
23, 151734, Control_c, 12, 11, 112
23, 151756, Control_c, 12, 11, 113
23, 151778, Control_c, 12, 11, 114
23, 151800, Control_c, 12, 11, 115
23, 151808, Note_on_c, 12, 81, 0
23, 151808, Note_on_c, 12, 81, 109
23, 151822, Control_c, 12, 11, 116
23, 151844, Control_c, 12, 11, 117
23, 151866, Control_c, 12, 11, 118
23, 151888, Control_c, 12, 11, 119
23, 151910, Control_c, 12, 11, 120
23, 151932, Control_c, 12, 11, 121
23, 151936, Note_on_c, 12, 81, 0
23, 151936, Note_on_c, 12, 80, 104
23, 151954, Control_c, 12, 11, 122
23, 151976, Control_c, 12, 11, 123
23, 151998, Control_c, 12, 11, 124
23, 152020, Control_c, 12, 11, 125
23, 152042, Control_c, 12, 11, 126
23, 152062, Note_on_c, 12, 80, 0
23, 152064, Control_c, 12, 11, 127
23, 152064, Control_c, 12, 11, 92
23, 152064, Note_on_c, 12, 82, 103
23, 152192, Note_on_c, 12, 82, 0
23, 152192, Note_on_c, 12, 82, 108
23, 152320, Note_on_c, 12, 82, 0
23, 152320, Note_on_c, 12, 80, 104
23, 152832, Control_c, 12, 11, 92
23, 152853, Control_c, 12, 11, 93
23, 152875, Control_c, 12, 11, 94
23, 152897, Control_c, 12, 11, 95
23, 152919, Control_c, 12, 11, 96
23, 152941, Control_c, 12, 11, 97
23, 152963, Control_c, 12, 11, 98
23, 152985, Control_c, 12, 11, 99
23, 153007, Control_c, 12, 11, 100
23, 153029, Control_c, 12, 11, 101
23, 153051, Control_c, 12, 11, 102
23, 153073, Control_c, 12, 11, 103
23, 153095, Control_c, 12, 11, 104
23, 153117, Control_c, 12, 11, 105
23, 153139, Control_c, 12, 11, 106
23, 153161, Control_c, 12, 11, 107
23, 153183, Control_c, 12, 11, 108
23, 153205, Control_c, 12, 11, 109
23, 153216, Note_on_c, 12, 80, 0
23, 153216, Note_on_c, 12, 82, 112
23, 153226, Control_c, 12, 11, 110
23, 153248, Control_c, 12, 11, 111
23, 153270, Control_c, 12, 11, 112
23, 153292, Control_c, 12, 11, 113
23, 153314, Control_c, 12, 11, 114
23, 153336, Control_c, 12, 11, 115
23, 153344, Note_on_c, 12, 82, 0
23, 153344, Note_on_c, 12, 82, 113
23, 153358, Control_c, 12, 11, 116
23, 153380, Control_c, 12, 11, 117
23, 153402, Control_c, 12, 11, 118
23, 153424, Control_c, 12, 11, 119
23, 153446, Control_c, 12, 11, 120
23, 153468, Control_c, 12, 11, 121
23, 153472, Note_on_c, 12, 82, 0
23, 153472, Note_on_c, 12, 80, 103
23, 153490, Control_c, 12, 11, 122
23, 153512, Control_c, 12, 11, 123
23, 153534, Control_c, 12, 11, 124
23, 153556, Control_c, 12, 11, 125
23, 153578, Control_c, 12, 11, 126
23, 153598, Note_on_c, 12, 80, 0
23, 153600, Control_c, 12, 11, 127
23, 153600, Note_on_c, 12, 83, 88
23, 153668, Note_on_c, 12, 83, 0
23, 153696, Note_on_c, 12, 83, 97
23, 153764, Note_on_c, 12, 83, 0
23, 153792, Note_on_c, 12, 83, 95
23, 153860, Note_on_c, 12, 83, 0
23, 153888, Note_on_c, 12, 82, 88
23, 153956, Note_on_c, 12, 82, 0
23, 153984, Note_on_c, 12, 81, 88
23, 154052, Note_on_c, 12, 81, 0
23, 154080, Note_on_c, 12, 81, 92
23, 154148, Note_on_c, 12, 81, 0
23, 154176, Note_on_c, 12, 81, 90
23, 154244, Note_on_c, 12, 81, 0
23, 154272, Note_on_c, 12, 80, 97
23, 154340, Note_on_c, 12, 80, 0
23, 154368, Note_on_c, 12, 79, 97
23, 154436, Note_on_c, 12, 79, 0
23, 154464, Note_on_c, 12, 79, 97
23, 154532, Note_on_c, 12, 79, 0
23, 154560, Note_on_c, 12, 79, 89
23, 154628, Note_on_c, 12, 79, 0
23, 154656, Note_on_c, 12, 78, 89
23, 154724, Note_on_c, 12, 78, 0
23, 154752, Note_on_c, 12, 77, 95
23, 154820, Note_on_c, 12, 77, 0
23, 154848, Note_on_c, 12, 77, 94
23, 154916, Note_on_c, 12, 77, 0
23, 154944, Note_on_c, 12, 77, 89
23, 155012, Note_on_c, 12, 77, 0
23, 155040, Note_on_c, 12, 76, 89
23, 155108, Note_on_c, 12, 76, 0
23, 155136, Note_on_c, 12, 75, 87
23, 155204, Note_on_c, 12, 75, 0
23, 155232, Note_on_c, 12, 75, 91
23, 155300, Note_on_c, 12, 75, 0
23, 155328, Note_on_c, 12, 75, 99
23, 155396, Note_on_c, 12, 75, 0
23, 155424, Note_on_c, 12, 74, 93
23, 155492, Note_on_c, 12, 74, 0
23, 155520, Note_on_c, 12, 73, 98
23, 155588, Note_on_c, 12, 73, 0
23, 155616, Note_on_c, 12, 73, 95
23, 155684, Note_on_c, 12, 73, 0
23, 155712, Note_on_c, 12, 73, 102
23, 155780, Note_on_c, 12, 73, 0
23, 155808, Note_on_c, 12, 72, 104
23, 155876, Note_on_c, 12, 72, 0
23, 155904, Note_on_c, 12, 71, 99
23, 155972, Note_on_c, 12, 71, 0
23, 156000, Note_on_c, 12, 71, 106
23, 156068, Note_on_c, 12, 71, 0
23, 156096, Note_on_c, 12, 71, 103
23, 156164, Note_on_c, 12, 71, 0
23, 156192, Note_on_c, 12, 70, 105
23, 156260, Note_on_c, 12, 70, 0
23, 156288, Note_on_c, 12, 69, 101
23, 156356, Note_on_c, 12, 69, 0
23, 156384, Note_on_c, 12, 68, 107
23, 156452, Note_on_c, 12, 68, 0
23, 156480, Note_on_c, 12, 67, 110
23, 156548, Note_on_c, 12, 67, 0
23, 156576, Note_on_c, 12, 66, 106
23, 156608, Note_on_c, 12, 66, 0
23, 156672, Note_on_c, 12, 61, 112
23, 156960, Note_on_c, 12, 61, 0
23, 156960, Note_on_c, 12, 60, 110
23, 157056, Note_on_c, 12, 60, 0
23, 157056, Note_on_c, 12, 59, 109
23, 157344, Note_on_c, 12, 59, 0
23, 157344, Note_on_c, 12, 60, 113
23, 157438, Note_on_c, 12, 60, 0
23, 157440, Note_on_c, 12, 61, 107
23, 157728, Note_on_c, 12, 61, 0
23, 157728, Note_on_c, 12, 60, 111
23, 157824, Note_on_c, 12, 60, 0
23, 157824, Control_c, 12, 11, 92
23, 157824, Note_on_c, 12, 59, 112
23, 157834, Control_c, 12, 11, 93
23, 157845, Control_c, 12, 11, 94
23, 157856, Control_c, 12, 11, 95
23, 157867, Control_c, 12, 11, 96
23, 157878, Control_c, 12, 11, 97
23, 157889, Control_c, 12, 11, 98
23, 157900, Control_c, 12, 11, 99
23, 157911, Control_c, 12, 11, 100
23, 157922, Control_c, 12, 11, 101
23, 157933, Control_c, 12, 11, 102
23, 157944, Control_c, 12, 11, 103
23, 157952, Note_on_c, 12, 59, 0
23, 157952, Note_on_c, 12, 63, 109
23, 157955, Control_c, 12, 11, 104
23, 157966, Control_c, 12, 11, 105
23, 157977, Control_c, 12, 11, 106
23, 157988, Control_c, 12, 11, 107
23, 157999, Control_c, 12, 11, 108
23, 158010, Control_c, 12, 11, 109
23, 158021, Control_c, 12, 11, 110
23, 158032, Control_c, 12, 11, 111
23, 158043, Control_c, 12, 11, 112
23, 158054, Control_c, 12, 11, 113
23, 158065, Control_c, 12, 11, 114
23, 158076, Control_c, 12, 11, 115
23, 158080, Note_on_c, 12, 63, 0
23, 158080, Note_on_c, 12, 65, 108
23, 158087, Control_c, 12, 11, 116
23, 158098, Control_c, 12, 11, 117
23, 158109, Control_c, 12, 11, 118
23, 158120, Control_c, 12, 11, 119
23, 158131, Control_c, 12, 11, 120
23, 158142, Control_c, 12, 11, 121
23, 158153, Control_c, 12, 11, 122
23, 158164, Control_c, 12, 11, 123
23, 158175, Control_c, 12, 11, 124
23, 158186, Control_c, 12, 11, 125
23, 158197, Control_c, 12, 11, 126
23, 158206, Note_on_c, 12, 65, 0
23, 158208, Control_c, 12, 11, 127
23, 158208, Note_on_c, 12, 61, 97
23, 158496, Note_on_c, 12, 61, 0
23, 158496, Note_on_c, 12, 60, 90
23, 158592, Note_on_c, 12, 60, 0
23, 158592, Note_on_c, 12, 59, 97
23, 158880, Note_on_c, 12, 59, 0
23, 158880, Note_on_c, 12, 60, 92
23, 158976, Note_on_c, 12, 60, 0
23, 158976, Note_on_c, 12, 61, 88
23, 159264, Note_on_c, 12, 61, 0
23, 159264, Note_on_c, 12, 60, 95
23, 159360, Note_on_c, 12, 60, 0
23, 159360, Note_on_c, 12, 59, 90
23, 159451, Note_on_c, 12, 59, 0
23, 159488, Note_on_c, 12, 58, 89
23, 159579, Note_on_c, 12, 58, 0
23, 159616, Note_on_c, 12, 57, 91
23, 159904, Note_on_c, 12, 57, 0
23, 163584, Control_c, 12, 11, 127
23, 165120, Program_c, 12, 45
23, 165504, Note_on_c, 12, 63, 44
23, 165598, Note_on_c, 12, 63, 0
23, 165600, Note_on_c, 12, 64, 42
23, 165694, Note_on_c, 12, 64, 0
23, 165696, Note_on_c, 12, 68, 67
23, 165790, Note_on_c, 12, 68, 0
23, 165792, Note_on_c, 12, 70, 91
23, 165886, Note_on_c, 12, 70, 0
23, 166656, Program_c, 12, 45
23, 167040, Note_on_c, 12, 70, 108
23, 167134, Note_on_c, 12, 70, 0
23, 167424, Program_c, 12, 48
23, 168288, Note_on_c, 12, 58, 45
23, 168334, Note_on_c, 12, 58, 0
23, 168336, Note_on_c, 12, 58, 40
23, 168382, Note_on_c, 12, 58, 0
23, 168384, Note_on_c, 12, 59, 45
23, 168430, Note_on_c, 12, 59, 0
23, 168432, Note_on_c, 12, 59, 50
23, 168478, Note_on_c, 12, 59, 0
23, 168480, Note_on_c, 12, 61, 51
23, 168526, Note_on_c, 12, 61, 0
23, 168528, Note_on_c, 12, 61, 62
23, 168574, Note_on_c, 12, 61, 0
23, 168576, Note_on_c, 12, 63, 62
23, 168622, Note_on_c, 12, 63, 0
23, 168624, Note_on_c, 12, 63, 71
23, 168670, Note_on_c, 12, 63, 0
23, 168672, Note_on_c, 12, 64, 69
23, 168718, Note_on_c, 12, 64, 0
23, 168720, Note_on_c, 12, 64, 80
23, 168766, Note_on_c, 12, 64, 0
23, 168768, Note_on_c, 12, 68, 85
23, 168814, Note_on_c, 12, 68, 0
23, 168816, Note_on_c, 12, 68, 83
23, 168862, Note_on_c, 12, 68, 0
23, 168864, Note_on_c, 12, 70, 92
23, 168910, Note_on_c, 12, 70, 0
23, 168912, Note_on_c, 12, 70, 90
23, 168958, Note_on_c, 12, 70, 0
23, 169728, Program_c, 12, 45
23, 169728, Note_on_c, 12, 69, 45
23, 169822, Note_on_c, 12, 69, 0
23, 170112, Note_on_c, 12, 57, 40
23, 170206, Note_on_c, 12, 57, 0
23, 177408, Control_c, 12, 11, 75
23, 177408, Program_c, 12, 48
23, 177408, Note_on_c, 12, 81, 76
23, 177410, Control_c, 12, 11, 76
23, 177413, Control_c, 12, 11, 77
23, 177416, Control_c, 12, 11, 78
23, 177419, Control_c, 12, 11, 79
23, 177422, Control_c, 12, 11, 80
23, 177425, Control_c, 12, 11, 81
23, 177428, Control_c, 12, 11, 82
23, 177431, Control_c, 12, 11, 83
23, 177434, Control_c, 12, 11, 84
23, 177437, Control_c, 12, 11, 85
23, 177440, Control_c, 12, 11, 86
23, 177442, Control_c, 12, 11, 87
23, 177445, Control_c, 12, 11, 88
23, 177448, Control_c, 12, 11, 89
23, 177451, Control_c, 12, 11, 90
23, 177454, Control_c, 12, 11, 91
23, 177456, Note_on_c, 12, 81, 0
23, 177456, Note_on_c, 12, 79, 77
23, 177457, Control_c, 12, 11, 92
23, 177460, Control_c, 12, 11, 93
23, 177463, Control_c, 12, 11, 94
23, 177466, Control_c, 12, 11, 95
23, 177469, Control_c, 12, 11, 96
23, 177472, Control_c, 12, 11, 97
23, 177474, Control_c, 12, 11, 98
23, 177477, Control_c, 12, 11, 99
23, 177480, Control_c, 12, 11, 100
23, 177483, Control_c, 12, 11, 101
23, 177486, Control_c, 12, 11, 102
23, 177489, Control_c, 12, 11, 103
23, 177492, Control_c, 12, 11, 104
23, 177495, Control_c, 12, 11, 105
23, 177498, Control_c, 12, 11, 106
23, 177501, Control_c, 12, 11, 107
23, 177504, Control_c, 12, 11, 108
23, 177506, Control_c, 12, 11, 107
23, 177509, Control_c, 12, 11, 106
23, 177512, Control_c, 12, 11, 105
23, 177515, Control_c, 12, 11, 104
23, 177518, Control_c, 12, 11, 103
23, 177521, Control_c, 12, 11, 102
23, 177524, Control_c, 12, 11, 101
23, 177527, Control_c, 12, 11, 100
23, 177530, Control_c, 12, 11, 99
23, 177533, Control_c, 12, 11, 98
23, 177536, Control_c, 12, 11, 97
23, 177538, Control_c, 12, 11, 96
23, 177541, Control_c, 12, 11, 95
23, 177544, Control_c, 12, 11, 94
23, 177547, Control_c, 12, 11, 93
23, 177550, Control_c, 12, 11, 92
23, 177553, Control_c, 12, 11, 91
23, 177556, Control_c, 12, 11, 90
23, 177559, Control_c, 12, 11, 89
23, 177562, Control_c, 12, 11, 88
23, 177565, Control_c, 12, 11, 87
23, 177568, Control_c, 12, 11, 86
23, 177570, Control_c, 12, 11, 85
23, 177573, Control_c, 12, 11, 84
23, 177576, Control_c, 12, 11, 83
23, 177579, Control_c, 12, 11, 82
23, 177582, Control_c, 12, 11, 81
23, 177585, Control_c, 12, 11, 80
23, 177588, Control_c, 12, 11, 79
23, 177591, Control_c, 12, 11, 78
23, 177594, Control_c, 12, 11, 77
23, 177597, Control_c, 12, 11, 76
23, 177600, Control_c, 12, 11, 75
23, 178176, Control_c, 12, 11, 75
23, 178190, Control_c, 12, 11, 76
23, 178205, Control_c, 12, 11, 77
23, 178220, Control_c, 12, 11, 78
23, 178235, Control_c, 12, 11, 79
23, 178249, Control_c, 12, 11, 80
23, 178264, Control_c, 12, 11, 81
23, 178279, Control_c, 12, 11, 82
23, 178294, Control_c, 12, 11, 83
23, 178308, Control_c, 12, 11, 84
23, 178323, Control_c, 12, 11, 85
23, 178338, Control_c, 12, 11, 86
23, 178353, Control_c, 12, 11, 87
23, 178368, Control_c, 12, 11, 88
23, 178382, Control_c, 12, 11, 89
23, 178397, Control_c, 12, 11, 90
23, 178412, Control_c, 12, 11, 91
23, 178427, Control_c, 12, 11, 92
23, 178441, Control_c, 12, 11, 93
23, 178456, Control_c, 12, 11, 94
23, 178471, Control_c, 12, 11, 95
23, 178486, Control_c, 12, 11, 96
23, 178500, Control_c, 12, 11, 97
23, 178515, Control_c, 12, 11, 98
23, 178530, Control_c, 12, 11, 99
23, 178545, Control_c, 12, 11, 100
23, 178560, Note_on_c, 12, 79, 0
23, 178560, Control_c, 12, 11, 101
23, 178560, Note_on_c, 12, 81, 72
23, 178574, Control_c, 12, 11, 102
23, 178589, Control_c, 12, 11, 103
23, 178604, Control_c, 12, 11, 104
23, 178619, Control_c, 12, 11, 105
23, 178633, Control_c, 12, 11, 106
23, 178648, Control_c, 12, 11, 107
23, 178663, Control_c, 12, 11, 108
23, 178678, Control_c, 12, 11, 109
23, 178692, Control_c, 12, 11, 110
23, 178707, Control_c, 12, 11, 111
23, 178722, Control_c, 12, 11, 112
23, 178737, Control_c, 12, 11, 113
23, 178752, Control_c, 12, 11, 114
23, 178766, Control_c, 12, 11, 115
23, 178781, Control_c, 12, 11, 116
23, 178796, Control_c, 12, 11, 117
23, 178811, Control_c, 12, 11, 118
23, 178825, Control_c, 12, 11, 119
23, 178840, Control_c, 12, 11, 120
23, 178855, Control_c, 12, 11, 121
23, 178870, Control_c, 12, 11, 122
23, 178884, Control_c, 12, 11, 123
23, 178896, Note_on_c, 12, 81, 0
23, 178899, Control_c, 12, 11, 124
23, 178914, Control_c, 12, 11, 125
23, 178929, Control_c, 12, 11, 126
23, 178944, Control_c, 12, 11, 127
23, 178944, Control_c, 12, 11, 75
23, 178944, Note_on_c, 12, 81, 77
23, 178946, Control_c, 12, 11, 76
23, 178949, Control_c, 12, 11, 77
23, 178952, Control_c, 12, 11, 78
23, 178955, Control_c, 12, 11, 79
23, 178958, Control_c, 12, 11, 80
23, 178961, Control_c, 12, 11, 81
23, 178964, Control_c, 12, 11, 82
23, 178967, Control_c, 12, 11, 83
23, 178970, Control_c, 12, 11, 84
23, 178973, Control_c, 12, 11, 85
23, 178976, Control_c, 12, 11, 86
23, 178978, Control_c, 12, 11, 87
23, 178981, Control_c, 12, 11, 88
23, 178984, Control_c, 12, 11, 89
23, 178987, Control_c, 12, 11, 90
23, 178990, Control_c, 12, 11, 91
23, 178992, Note_on_c, 12, 81, 0
23, 178992, Note_on_c, 12, 79, 77
23, 178993, Control_c, 12, 11, 92
23, 178996, Control_c, 12, 11, 93
23, 178999, Control_c, 12, 11, 94
23, 179002, Control_c, 12, 11, 95
23, 179005, Control_c, 12, 11, 96
23, 179008, Control_c, 12, 11, 97
23, 179010, Control_c, 12, 11, 98
23, 179013, Control_c, 12, 11, 99
23, 179016, Control_c, 12, 11, 100
23, 179019, Control_c, 12, 11, 101
23, 179022, Control_c, 12, 11, 102
23, 179025, Control_c, 12, 11, 103
23, 179028, Control_c, 12, 11, 104
23, 179031, Control_c, 12, 11, 105
23, 179034, Control_c, 12, 11, 106
23, 179037, Control_c, 12, 11, 107
23, 179040, Control_c, 12, 11, 108
23, 179042, Control_c, 12, 11, 107
23, 179045, Control_c, 12, 11, 106
23, 179048, Control_c, 12, 11, 105
23, 179051, Control_c, 12, 11, 104
23, 179054, Control_c, 12, 11, 103
23, 179057, Control_c, 12, 11, 102
23, 179060, Control_c, 12, 11, 101
23, 179063, Control_c, 12, 11, 100
23, 179066, Control_c, 12, 11, 99
23, 179069, Control_c, 12, 11, 98
23, 179072, Control_c, 12, 11, 97
23, 179074, Control_c, 12, 11, 96
23, 179077, Control_c, 12, 11, 95
23, 179080, Control_c, 12, 11, 94
23, 179083, Control_c, 12, 11, 93
23, 179086, Control_c, 12, 11, 92
23, 179089, Control_c, 12, 11, 91
23, 179092, Control_c, 12, 11, 90
23, 179095, Control_c, 12, 11, 89
23, 179098, Control_c, 12, 11, 88
23, 179101, Control_c, 12, 11, 87
23, 179104, Control_c, 12, 11, 86
23, 179106, Control_c, 12, 11, 85
23, 179109, Control_c, 12, 11, 84
23, 179112, Control_c, 12, 11, 83
23, 179115, Control_c, 12, 11, 82
23, 179118, Control_c, 12, 11, 81
23, 179121, Control_c, 12, 11, 80
23, 179124, Control_c, 12, 11, 79
23, 179127, Control_c, 12, 11, 78
23, 179130, Control_c, 12, 11, 77
23, 179133, Control_c, 12, 11, 76
23, 179136, Control_c, 12, 11, 75
23, 179712, Control_c, 12, 11, 75
23, 179726, Control_c, 12, 11, 76
23, 179741, Control_c, 12, 11, 77
23, 179756, Control_c, 12, 11, 78
23, 179771, Control_c, 12, 11, 79
23, 179785, Control_c, 12, 11, 80
23, 179800, Control_c, 12, 11, 81
23, 179815, Control_c, 12, 11, 82
23, 179830, Control_c, 12, 11, 83
23, 179844, Control_c, 12, 11, 84
23, 179859, Control_c, 12, 11, 85
23, 179874, Control_c, 12, 11, 86
23, 179889, Control_c, 12, 11, 87
23, 179904, Control_c, 12, 11, 88
23, 179918, Control_c, 12, 11, 89
23, 179933, Control_c, 12, 11, 90
23, 179948, Control_c, 12, 11, 91
23, 179963, Control_c, 12, 11, 92
23, 179977, Control_c, 12, 11, 93
23, 179992, Control_c, 12, 11, 94
23, 180007, Control_c, 12, 11, 95
23, 180022, Control_c, 12, 11, 96
23, 180036, Control_c, 12, 11, 97
23, 180051, Control_c, 12, 11, 98
23, 180066, Control_c, 12, 11, 99
23, 180081, Control_c, 12, 11, 100
23, 180096, Note_on_c, 12, 79, 0
23, 180096, Control_c, 12, 11, 101
23, 180096, Note_on_c, 12, 82, 70
23, 180110, Control_c, 12, 11, 102
23, 180125, Control_c, 12, 11, 103
23, 180140, Control_c, 12, 11, 104
23, 180155, Control_c, 12, 11, 105
23, 180169, Control_c, 12, 11, 106
23, 180184, Control_c, 12, 11, 107
23, 180199, Control_c, 12, 11, 108
23, 180214, Control_c, 12, 11, 109
23, 180228, Control_c, 12, 11, 110
23, 180243, Control_c, 12, 11, 111
23, 180258, Control_c, 12, 11, 112
23, 180273, Control_c, 12, 11, 113
23, 180288, Control_c, 12, 11, 114
23, 180302, Control_c, 12, 11, 115
23, 180317, Control_c, 12, 11, 116
23, 180332, Control_c, 12, 11, 117
23, 180347, Control_c, 12, 11, 118
23, 180361, Control_c, 12, 11, 119
23, 180376, Control_c, 12, 11, 120
23, 180391, Control_c, 12, 11, 121
23, 180406, Control_c, 12, 11, 122
23, 180420, Control_c, 12, 11, 123
23, 180432, Note_on_c, 12, 82, 0
23, 180435, Control_c, 12, 11, 124
23, 180450, Control_c, 12, 11, 125
23, 180465, Control_c, 12, 11, 126
23, 180480, Control_c, 12, 11, 127
23, 180480, Program_c, 12, 45
23, 180576, Note_on_c, 12, 73, 78
23, 180670, Note_on_c, 12, 73, 0
23, 180768, Note_on_c, 12, 70, 76
23, 180862, Note_on_c, 12, 70, 0
23, 180960, Note_on_c, 12, 73, 84
23, 181054, Note_on_c, 12, 73, 0
23, 181152, Note_on_c, 12, 70, 82
23, 181246, Note_on_c, 12, 70, 0
23, 181344, Note_on_c, 12, 73, 96
23, 181438, Note_on_c, 12, 73, 0
23, 181536, Note_on_c, 12, 70, 86
23, 181630, Note_on_c, 12, 70, 0
23, 181728, Note_on_c, 12, 73, 87
23, 181822, Note_on_c, 12, 73, 0
23, 181920, Note_on_c, 12, 70, 80
23, 182014, Note_on_c, 12, 70, 0
23, 182112, Note_on_c, 12, 75, 80
23, 182206, Note_on_c, 12, 75, 0
23, 182304, Note_on_c, 12, 70, 80
23, 182398, Note_on_c, 12, 70, 0
23, 182496, Note_on_c, 12, 75, 77
23, 182590, Note_on_c, 12, 75, 0
23, 182784, Control_c, 12, 11, 92
23, 182784, Program_c, 12, 44
23, 182784, Note_on_c, 12, 79, 84
23, 182789, Control_c, 12, 11, 93
23, 182794, Control_c, 12, 11, 94
23, 182800, Control_c, 12, 11, 95
23, 182805, Control_c, 12, 11, 96
23, 182811, Control_c, 12, 11, 97
23, 182816, Control_c, 12, 11, 98
23, 182822, Control_c, 12, 11, 99
23, 182827, Control_c, 12, 11, 100
23, 182833, Control_c, 12, 11, 101
23, 182838, Control_c, 12, 11, 102
23, 182844, Control_c, 12, 11, 103
23, 182849, Control_c, 12, 11, 104
23, 182855, Control_c, 12, 11, 105
23, 182860, Control_c, 12, 11, 106
23, 182866, Control_c, 12, 11, 107
23, 182871, Control_c, 12, 11, 108
23, 182877, Control_c, 12, 11, 109
23, 182882, Control_c, 12, 11, 110
23, 182888, Control_c, 12, 11, 111
23, 182893, Control_c, 12, 11, 112
23, 182899, Control_c, 12, 11, 113
23, 182904, Control_c, 12, 11, 114
23, 182910, Control_c, 12, 11, 115
23, 182915, Control_c, 12, 11, 116
23, 182921, Control_c, 12, 11, 117
23, 182926, Control_c, 12, 11, 118
23, 182932, Control_c, 12, 11, 119
23, 182937, Control_c, 12, 11, 120
23, 182943, Control_c, 12, 11, 121
23, 182948, Control_c, 12, 11, 122
23, 182954, Control_c, 12, 11, 123
23, 182959, Control_c, 12, 11, 124
23, 182965, Control_c, 12, 11, 125
23, 182970, Control_c, 12, 11, 126
23, 182976, Control_c, 12, 11, 127
23, 182979, Control_c, 12, 11, 126
23, 182982, Control_c, 12, 11, 125
23, 182985, Control_c, 12, 11, 124
23, 182988, Control_c, 12, 11, 123
23, 182991, Control_c, 12, 11, 122
23, 182994, Control_c, 12, 11, 121
23, 182997, Control_c, 12, 11, 120
23, 183000, Control_c, 12, 11, 119
23, 183003, Control_c, 12, 11, 118
23, 183006, Control_c, 12, 11, 117
23, 183009, Control_c, 12, 11, 116
23, 183012, Control_c, 12, 11, 115
23, 183015, Control_c, 12, 11, 114
23, 183018, Control_c, 12, 11, 113
23, 183021, Control_c, 12, 11, 112
23, 183024, Control_c, 12, 11, 111
23, 183027, Control_c, 12, 11, 110
23, 183030, Control_c, 12, 11, 109
23, 183033, Control_c, 12, 11, 108
23, 183036, Control_c, 12, 11, 107
23, 183040, Control_c, 12, 11, 106
23, 183043, Control_c, 12, 11, 105
23, 183046, Control_c, 12, 11, 104
23, 183049, Control_c, 12, 11, 103
23, 183052, Control_c, 12, 11, 102
23, 183055, Control_c, 12, 11, 101
23, 183058, Control_c, 12, 11, 100
23, 183061, Control_c, 12, 11, 99
23, 183064, Control_c, 12, 11, 98
23, 183067, Control_c, 12, 11, 97
23, 183070, Control_c, 12, 11, 96
23, 183073, Control_c, 12, 11, 95
23, 183076, Control_c, 12, 11, 94
23, 183079, Control_c, 12, 11, 93
23, 183082, Control_c, 12, 11, 92
23, 183085, Control_c, 12, 11, 91
23, 183088, Control_c, 12, 11, 90
23, 183091, Control_c, 12, 11, 89
23, 183094, Control_c, 12, 11, 88
23, 183097, Control_c, 12, 11, 87
23, 183100, Control_c, 12, 11, 86
23, 183104, Control_c, 12, 11, 85
23, 183107, Control_c, 12, 11, 84
23, 183110, Control_c, 12, 11, 83
23, 183113, Control_c, 12, 11, 82
23, 183116, Control_c, 12, 11, 81
23, 183119, Control_c, 12, 11, 80
23, 183122, Control_c, 12, 11, 79
23, 183125, Control_c, 12, 11, 78
23, 183128, Control_c, 12, 11, 77
23, 183131, Control_c, 12, 11, 76
23, 183134, Control_c, 12, 11, 75
23, 183137, Control_c, 12, 11, 74
23, 183140, Control_c, 12, 11, 73
23, 183143, Control_c, 12, 11, 72
23, 183146, Control_c, 12, 11, 71
23, 183149, Control_c, 12, 11, 70
23, 183152, Control_c, 12, 11, 69
23, 183155, Control_c, 12, 11, 68
23, 183158, Control_c, 12, 11, 67
23, 183161, Control_c, 12, 11, 66
23, 183164, Control_c, 12, 11, 65
23, 183168, Control_c, 12, 11, 64
23, 184320, Note_on_c, 12, 79, 0
23, 184320, Control_c, 12, 11, 64
23, 184320, Note_on_c, 12, 80, 99
23, 184344, Control_c, 12, 11, 65
23, 184368, Control_c, 12, 11, 66
23, 184393, Control_c, 12, 11, 67
23, 184417, Control_c, 12, 11, 68
23, 184441, Control_c, 12, 11, 69
23, 184466, Control_c, 12, 11, 70
23, 184490, Control_c, 12, 11, 71
23, 184515, Control_c, 12, 11, 72
23, 184539, Control_c, 12, 11, 73
23, 184563, Control_c, 12, 11, 74
23, 184588, Control_c, 12, 11, 75
23, 184612, Control_c, 12, 11, 76
23, 184636, Control_c, 12, 11, 77
23, 184661, Control_c, 12, 11, 78
23, 184685, Control_c, 12, 11, 79
23, 184710, Control_c, 12, 11, 80
23, 184734, Control_c, 12, 11, 81
23, 184758, Control_c, 12, 11, 82
23, 184783, Control_c, 12, 11, 83
23, 184807, Control_c, 12, 11, 84
23, 184832, Control_c, 12, 11, 85
23, 184856, Control_c, 12, 11, 86
23, 184880, Control_c, 12, 11, 87
23, 184905, Control_c, 12, 11, 88
23, 184929, Control_c, 12, 11, 89
23, 184953, Control_c, 12, 11, 90
23, 184978, Control_c, 12, 11, 91
23, 185002, Control_c, 12, 11, 92
23, 185027, Control_c, 12, 11, 93
23, 185051, Control_c, 12, 11, 94
23, 185075, Control_c, 12, 11, 95
23, 185088, Note_on_c, 12, 80, 0
23, 185088, Note_on_c, 12, 82, 106
23, 185100, Control_c, 12, 11, 96
23, 185124, Control_c, 12, 11, 97
23, 185148, Control_c, 12, 11, 98
23, 185173, Control_c, 12, 11, 99
23, 185197, Control_c, 12, 11, 100
23, 185222, Control_c, 12, 11, 101
23, 185246, Control_c, 12, 11, 102
23, 185270, Control_c, 12, 11, 103
23, 185295, Control_c, 12, 11, 104
23, 185319, Control_c, 12, 11, 105
23, 185344, Control_c, 12, 11, 106
23, 185368, Control_c, 12, 11, 107
23, 185392, Control_c, 12, 11, 108
23, 185417, Control_c, 12, 11, 109
23, 185441, Control_c, 12, 11, 110
23, 185465, Control_c, 12, 11, 111
23, 185490, Control_c, 12, 11, 112
23, 185514, Control_c, 12, 11, 113
23, 185539, Control_c, 12, 11, 114
23, 185563, Control_c, 12, 11, 115
23, 185587, Control_c, 12, 11, 116
23, 185612, Control_c, 12, 11, 117
23, 185636, Control_c, 12, 11, 118
23, 185660, Control_c, 12, 11, 119
23, 185685, Control_c, 12, 11, 120
23, 185709, Control_c, 12, 11, 121
23, 185734, Control_c, 12, 11, 122
23, 185758, Control_c, 12, 11, 123
23, 185782, Control_c, 12, 11, 124
23, 185807, Control_c, 12, 11, 125
23, 185831, Control_c, 12, 11, 126
23, 185856, Note_on_c, 12, 82, 0
23, 185856, Control_c, 12, 11, 127
23, 188928, Program_c, 12, 48
23, 189056, Note_on_c, 12, 76, 28
23, 189118, Note_on_c, 12, 76, 0
23, 189120, Note_on_c, 12, 73, 29
23, 189182, Note_on_c, 12, 73, 0
23, 189184, Note_on_c, 12, 76, 25
23, 189246, Note_on_c, 12, 76, 0
23, 189248, Note_on_c, 12, 73, 34
23, 189290, Note_on_c, 12, 73, 0
23, 189440, Note_on_c, 12, 76, 28
23, 189502, Note_on_c, 12, 76, 0
23, 189504, Note_on_c, 12, 73, 31
23, 189566, Note_on_c, 12, 73, 0
23, 189568, Note_on_c, 12, 76, 33
23, 189630, Note_on_c, 12, 76, 0
23, 189632, Note_on_c, 12, 73, 27
23, 189674, Note_on_c, 12, 73, 0
23, 189824, Note_on_c, 12, 76, 32
23, 189886, Note_on_c, 12, 76, 0
23, 189888, Note_on_c, 12, 73, 29
23, 189950, Note_on_c, 12, 73, 0
23, 189952, Note_on_c, 12, 76, 28
23, 190014, Note_on_c, 12, 76, 0
23, 190016, Note_on_c, 12, 73, 31
23, 190058, Note_on_c, 12, 73, 0
23, 190208, Note_on_c, 12, 76, 32
23, 190270, Note_on_c, 12, 76, 0
23, 190272, Note_on_c, 12, 73, 33
23, 190334, Note_on_c, 12, 73, 0
23, 190336, Note_on_c, 12, 76, 28
23, 190398, Note_on_c, 12, 76, 0
23, 190400, Note_on_c, 12, 73, 28
23, 190442, Note_on_c, 12, 73, 0
23, 190592, Note_on_c, 12, 76, 33
23, 190654, Note_on_c, 12, 76, 0
23, 190656, Note_on_c, 12, 73, 34
23, 190718, Note_on_c, 12, 73, 0
23, 190720, Note_on_c, 12, 76, 30
23, 190782, Note_on_c, 12, 76, 0
23, 190784, Note_on_c, 12, 73, 33
23, 190826, Note_on_c, 12, 73, 0
23, 190976, Note_on_c, 12, 76, 35
23, 191038, Note_on_c, 12, 76, 0
23, 191040, Note_on_c, 12, 73, 34
23, 191102, Note_on_c, 12, 73, 0
23, 191104, Note_on_c, 12, 76, 28
23, 191166, Note_on_c, 12, 76, 0
23, 191168, Note_on_c, 12, 73, 31
23, 191210, Note_on_c, 12, 73, 0
23, 191360, Note_on_c, 12, 76, 29
23, 191422, Note_on_c, 12, 76, 0
23, 191424, Note_on_c, 12, 73, 26
23, 191486, Note_on_c, 12, 73, 0
23, 191488, Note_on_c, 12, 76, 25
23, 191550, Note_on_c, 12, 76, 0
23, 191552, Note_on_c, 12, 73, 33
23, 191594, Note_on_c, 12, 73, 0
23, 191744, Note_on_c, 12, 76, 29
23, 191806, Note_on_c, 12, 76, 0
23, 191808, Note_on_c, 12, 73, 35
23, 191870, Note_on_c, 12, 73, 0
23, 191872, Note_on_c, 12, 76, 28
23, 191934, Note_on_c, 12, 76, 0
23, 191936, Note_on_c, 12, 73, 28
23, 191978, Note_on_c, 12, 73, 0
23, 192128, Note_on_c, 12, 77, 35
23, 192190, Note_on_c, 12, 77, 0
23, 192192, Note_on_c, 12, 74, 34
23, 192254, Note_on_c, 12, 74, 0
23, 192256, Note_on_c, 12, 77, 31
23, 192318, Note_on_c, 12, 77, 0
23, 192320, Note_on_c, 12, 74, 31
23, 192362, Note_on_c, 12, 74, 0
23, 192512, Note_on_c, 12, 78, 28
23, 192574, Note_on_c, 12, 78, 0
23, 192576, Note_on_c, 12, 75, 31
23, 192638, Note_on_c, 12, 75, 0
23, 192640, Note_on_c, 12, 78, 32
23, 192702, Note_on_c, 12, 78, 0
23, 192704, Note_on_c, 12, 75, 34
23, 192746, Note_on_c, 12, 75, 0
23, 192896, Note_on_c, 12, 71, 30
23, 192958, Note_on_c, 12, 71, 0
23, 192960, Note_on_c, 12, 68, 30
23, 193022, Note_on_c, 12, 68, 0
23, 193024, Note_on_c, 12, 71, 29
23, 193086, Note_on_c, 12, 71, 0
23, 193088, Note_on_c, 12, 68, 29
23, 193130, Note_on_c, 12, 68, 0
23, 193280, Note_on_c, 12, 73, 27
23, 193342, Note_on_c, 12, 73, 0
23, 193344, Note_on_c, 12, 70, 26
23, 193406, Note_on_c, 12, 70, 0
23, 193408, Note_on_c, 12, 73, 35
23, 193470, Note_on_c, 12, 73, 0
23, 193472, Note_on_c, 12, 70, 34
23, 193514, Note_on_c, 12, 70, 0
23, 193664, Note_on_c, 12, 68, 33
23, 193726, Note_on_c, 12, 68, 0
23, 193728, Note_on_c, 12, 72, 28
23, 193790, Note_on_c, 12, 72, 0
23, 193792, Note_on_c, 12, 68, 35
23, 193854, Note_on_c, 12, 68, 0
23, 193856, Note_on_c, 12, 67, 27
23, 193898, Note_on_c, 12, 67, 0
23, 194048, Note_on_c, 12, 66, 31
23, 194110, Note_on_c, 12, 66, 0
23, 194112, Note_on_c, 12, 70, 28
23, 194174, Note_on_c, 12, 70, 0
23, 194176, Note_on_c, 12, 66, 33
23, 194238, Note_on_c, 12, 66, 0
23, 194240, Note_on_c, 12, 65, 34
23, 194282, Note_on_c, 12, 65, 0
23, 194432, Note_on_c, 12, 64, 28
23, 194494, Note_on_c, 12, 64, 0
23, 194496, Note_on_c, 12, 60, 34
23, 194558, Note_on_c, 12, 60, 0
23, 194560, Note_on_c, 12, 68, 28
23, 194622, Note_on_c, 12, 68, 0
23, 194624, Note_on_c, 12, 64, 27
23, 194666, Note_on_c, 12, 64, 0
23, 194816, Note_on_c, 12, 68, 26
23, 194878, Note_on_c, 12, 68, 0
23, 194880, Note_on_c, 12, 64, 34
23, 194942, Note_on_c, 12, 64, 0
23, 194944, Note_on_c, 12, 72, 29
23, 195006, Note_on_c, 12, 72, 0
23, 195008, Note_on_c, 12, 68, 34
23, 195050, Note_on_c, 12, 68, 0
23, 195200, Note_on_c, 12, 64, 29
23, 195262, Note_on_c, 12, 64, 0
23, 195264, Note_on_c, 12, 60, 31
23, 195326, Note_on_c, 12, 60, 0
23, 195328, Note_on_c, 12, 68, 27
23, 195390, Note_on_c, 12, 68, 0
23, 195392, Note_on_c, 12, 64, 31
23, 195434, Note_on_c, 12, 64, 0
23, 195520, Note_on_c, 12, 72, 35
23, 195582, Note_on_c, 12, 72, 0
23, 195584, Note_on_c, 12, 76, 27
23, 195626, Note_on_c, 12, 76, 0
23, 195712, Note_on_c, 12, 72, 34
23, 195774, Note_on_c, 12, 72, 0
23, 195776, Note_on_c, 12, 76, 34
23, 195818, Note_on_c, 12, 76, 0
23, 195968, Note_on_c, 12, 77, 47
23, 196030, Note_on_c, 12, 77, 0
23, 196032, Note_on_c, 12, 73, 49
23, 196094, Note_on_c, 12, 73, 0
23, 196096, Note_on_c, 12, 77, 49
23, 196158, Note_on_c, 12, 77, 0
23, 196160, Note_on_c, 12, 73, 40
23, 196202, Note_on_c, 12, 73, 0
23, 196352, Note_on_c, 12, 77, 45
23, 196414, Note_on_c, 12, 77, 0
23, 196416, Note_on_c, 12, 73, 40
23, 196478, Note_on_c, 12, 73, 0
23, 196480, Note_on_c, 12, 77, 42
23, 196542, Note_on_c, 12, 77, 0
23, 196544, Note_on_c, 12, 73, 47
23, 196586, Note_on_c, 12, 73, 0
23, 196736, Note_on_c, 12, 77, 47
23, 196798, Note_on_c, 12, 77, 0
23, 196800, Note_on_c, 12, 73, 46
23, 196862, Note_on_c, 12, 73, 0
23, 196864, Note_on_c, 12, 77, 42
23, 196926, Note_on_c, 12, 77, 0
23, 196928, Note_on_c, 12, 73, 50
23, 196970, Note_on_c, 12, 73, 0
23, 197120, Note_on_c, 12, 77, 43
23, 197182, Note_on_c, 12, 77, 0
23, 197184, Note_on_c, 12, 73, 45
23, 197246, Note_on_c, 12, 73, 0
23, 197248, Note_on_c, 12, 77, 40
23, 197310, Note_on_c, 12, 77, 0
23, 197312, Note_on_c, 12, 73, 50
23, 197354, Note_on_c, 12, 73, 0
23, 197504, Note_on_c, 12, 77, 47
23, 197566, Note_on_c, 12, 77, 0
23, 197568, Note_on_c, 12, 73, 41
23, 197630, Note_on_c, 12, 73, 0
23, 197632, Note_on_c, 12, 77, 50
23, 197694, Note_on_c, 12, 77, 0
23, 197696, Note_on_c, 12, 73, 43
23, 197738, Note_on_c, 12, 73, 0
23, 197888, Note_on_c, 12, 77, 46
23, 197950, Note_on_c, 12, 77, 0
23, 197952, Note_on_c, 12, 73, 50
23, 198014, Note_on_c, 12, 73, 0
23, 198016, Note_on_c, 12, 77, 49
23, 198078, Note_on_c, 12, 77, 0
23, 198080, Note_on_c, 12, 73, 40
23, 198122, Note_on_c, 12, 73, 0
23, 198272, Note_on_c, 12, 77, 47
23, 198334, Note_on_c, 12, 77, 0
23, 198336, Note_on_c, 12, 73, 40
23, 198398, Note_on_c, 12, 73, 0
23, 198400, Note_on_c, 12, 77, 40
23, 198462, Note_on_c, 12, 77, 0
23, 198464, Note_on_c, 12, 73, 48
23, 198506, Note_on_c, 12, 73, 0
23, 198656, Note_on_c, 12, 77, 42
23, 198718, Note_on_c, 12, 77, 0
23, 198720, Note_on_c, 12, 73, 40
23, 198782, Note_on_c, 12, 73, 0
23, 198784, Note_on_c, 12, 77, 40
23, 198846, Note_on_c, 12, 77, 0
23, 198848, Note_on_c, 12, 73, 45
23, 198890, Note_on_c, 12, 73, 0
23, 199040, Note_on_c, 12, 82, 80
23, 199082, Note_on_c, 12, 82, 0
23, 199104, Note_on_c, 12, 82, 72
23, 199146, Note_on_c, 12, 82, 0
23, 199168, Note_on_c, 12, 82, 70
23, 199210, Note_on_c, 12, 82, 0
23, 199232, Note_on_c, 12, 77, 70
23, 199274, Note_on_c, 12, 77, 0
23, 199424, Note_on_c, 12, 82, 73
23, 199466, Note_on_c, 12, 82, 0
23, 199488, Note_on_c, 12, 82, 80
23, 199530, Note_on_c, 12, 82, 0
23, 199552, Note_on_c, 12, 82, 76
23, 199594, Note_on_c, 12, 82, 0
23, 199616, Note_on_c, 12, 77, 78
23, 199658, Note_on_c, 12, 77, 0
23, 199808, Note_on_c, 12, 82, 80
23, 199850, Note_on_c, 12, 82, 0
23, 199872, Note_on_c, 12, 82, 79
23, 199914, Note_on_c, 12, 82, 0
23, 199936, Note_on_c, 12, 82, 70
23, 199978, Note_on_c, 12, 82, 0
23, 200000, Note_on_c, 12, 77, 73
23, 200042, Note_on_c, 12, 77, 0
23, 200192, Note_on_c, 12, 82, 76
23, 200234, Note_on_c, 12, 82, 0
23, 200256, Note_on_c, 12, 82, 70
23, 200298, Note_on_c, 12, 82, 0
23, 200320, Note_on_c, 12, 82, 72
23, 200362, Note_on_c, 12, 82, 0
23, 200384, Note_on_c, 12, 77, 75
23, 200426, Note_on_c, 12, 77, 0
23, 200576, Note_on_c, 12, 82, 73
23, 200618, Note_on_c, 12, 82, 0
23, 200640, Note_on_c, 12, 82, 72
23, 200682, Note_on_c, 12, 82, 0
23, 200704, Note_on_c, 12, 82, 76
23, 200746, Note_on_c, 12, 82, 0
23, 200768, Note_on_c, 12, 77, 75
23, 200810, Note_on_c, 12, 77, 0
23, 200960, Note_on_c, 12, 82, 77
23, 201002, Note_on_c, 12, 82, 0
23, 201024, Note_on_c, 12, 82, 73
23, 201066, Note_on_c, 12, 82, 0
23, 201088, Note_on_c, 12, 82, 75
23, 201130, Note_on_c, 12, 82, 0
23, 201152, Note_on_c, 12, 77, 78
23, 201194, Note_on_c, 12, 77, 0
23, 201344, Note_on_c, 12, 82, 79
23, 201386, Note_on_c, 12, 82, 0
23, 201408, Note_on_c, 12, 82, 79
23, 201450, Note_on_c, 12, 82, 0
23, 201472, Note_on_c, 12, 82, 76
23, 201514, Note_on_c, 12, 82, 0
23, 201536, Note_on_c, 12, 77, 72
23, 201578, Note_on_c, 12, 77, 0
23, 201728, Note_on_c, 12, 82, 77
23, 201770, Note_on_c, 12, 82, 0
23, 201792, Note_on_c, 12, 82, 73
23, 201834, Note_on_c, 12, 82, 0
23, 201856, Note_on_c, 12, 82, 77
23, 201898, Note_on_c, 12, 82, 0
23, 201920, Note_on_c, 12, 77, 78
23, 201962, Note_on_c, 12, 77, 0
23, 202112, Note_on_c, 12, 85, 74
23, 202154, Note_on_c, 12, 85, 0
23, 202176, Note_on_c, 12, 85, 79
23, 202218, Note_on_c, 12, 85, 0
23, 202240, Note_on_c, 12, 85, 70
23, 202282, Note_on_c, 12, 85, 0
23, 202304, Note_on_c, 12, 87, 79
23, 202346, Note_on_c, 12, 87, 0
23, 202496, Note_on_c, 12, 85, 80
23, 202538, Note_on_c, 12, 85, 0
23, 202560, Note_on_c, 12, 85, 79
23, 202602, Note_on_c, 12, 85, 0
23, 202624, Note_on_c, 12, 85, 75
23, 202666, Note_on_c, 12, 85, 0
23, 202688, Note_on_c, 12, 87, 79
23, 202730, Note_on_c, 12, 87, 0
23, 202880, Note_on_c, 12, 85, 70
23, 202922, Note_on_c, 12, 85, 0
23, 202944, Note_on_c, 12, 85, 77
23, 202986, Note_on_c, 12, 85, 0
23, 203008, Note_on_c, 12, 85, 78
23, 203050, Note_on_c, 12, 85, 0
23, 203072, Note_on_c, 12, 87, 70
23, 203114, Note_on_c, 12, 87, 0
23, 203264, Note_on_c, 12, 87, 70
23, 203306, Note_on_c, 12, 87, 0
23, 203328, Note_on_c, 12, 87, 71
23, 203370, Note_on_c, 12, 87, 0
23, 203392, Note_on_c, 12, 87, 76
23, 203434, Note_on_c, 12, 87, 0
23, 203456, Note_on_c, 12, 89, 77
23, 203498, Note_on_c, 12, 89, 0
23, 203648, Note_on_c, 12, 85, 76
23, 203690, Note_on_c, 12, 85, 0
23, 203712, Note_on_c, 12, 85, 68
23, 203754, Note_on_c, 12, 85, 0
23, 203776, Note_on_c, 12, 85, 67
23, 203818, Note_on_c, 12, 85, 0
23, 203840, Note_on_c, 12, 87, 64
23, 203882, Note_on_c, 12, 87, 0
23, 204032, Note_on_c, 12, 85, 58
23, 204074, Note_on_c, 12, 85, 0
23, 204096, Note_on_c, 12, 85, 50
23, 204138, Note_on_c, 12, 85, 0
23, 204160, Note_on_c, 12, 85, 46
23, 204202, Note_on_c, 12, 85, 0
23, 204224, Note_on_c, 12, 87, 48
23, 204266, Note_on_c, 12, 87, 0
23, 204416, Note_on_c, 12, 82, 77
23, 204458, Note_on_c, 12, 82, 0
23, 204480, Note_on_c, 12, 82, 73
23, 204522, Note_on_c, 12, 82, 0
23, 204544, Note_on_c, 12, 82, 79
23, 204586, Note_on_c, 12, 82, 0
23, 204608, Note_on_c, 12, 84, 73
23, 204650, Note_on_c, 12, 84, 0
23, 204800, Note_on_c, 12, 82, 71
23, 204842, Note_on_c, 12, 82, 0
23, 204864, Note_on_c, 12, 82, 75
23, 204906, Note_on_c, 12, 82, 0
23, 204928, Note_on_c, 12, 82, 75
23, 204970, Note_on_c, 12, 82, 0
23, 204992, Note_on_c, 12, 84, 72
23, 205034, Note_on_c, 12, 84, 0
23, 205184, Note_on_c, 12, 82, 76
23, 205226, Note_on_c, 12, 82, 0
23, 205248, Note_on_c, 12, 82, 75
23, 205290, Note_on_c, 12, 82, 0
23, 205312, Note_on_c, 12, 82, 75
23, 205354, Note_on_c, 12, 82, 0
23, 205376, Note_on_c, 12, 77, 71
23, 205418, Note_on_c, 12, 77, 0
23, 205568, Note_on_c, 12, 82, 80
23, 205610, Note_on_c, 12, 82, 0
23, 205632, Note_on_c, 12, 82, 70
23, 205674, Note_on_c, 12, 82, 0
23, 205696, Note_on_c, 12, 82, 77
23, 205738, Note_on_c, 12, 82, 0
23, 205760, Note_on_c, 12, 77, 77
23, 205802, Note_on_c, 12, 77, 0
23, 205952, Note_on_c, 12, 82, 71
23, 205994, Note_on_c, 12, 82, 0
23, 206016, Note_on_c, 12, 82, 77
23, 206058, Note_on_c, 12, 82, 0
23, 206080, Note_on_c, 12, 82, 74
23, 206122, Note_on_c, 12, 82, 0
23, 206144, Note_on_c, 12, 77, 70
23, 206186, Note_on_c, 12, 77, 0
23, 206336, Note_on_c, 12, 82, 76
23, 206378, Note_on_c, 12, 82, 0
23, 206400, Note_on_c, 12, 82, 76
23, 206442, Note_on_c, 12, 82, 0
23, 206464, Note_on_c, 12, 82, 71
23, 206506, Note_on_c, 12, 82, 0
23, 206528, Note_on_c, 12, 77, 77
23, 206570, Note_on_c, 12, 77, 0
23, 206720, Note_on_c, 12, 82, 73
23, 206762, Note_on_c, 12, 82, 0
23, 206784, Note_on_c, 12, 82, 78
23, 206826, Note_on_c, 12, 82, 0
23, 206848, Note_on_c, 12, 82, 71
23, 206890, Note_on_c, 12, 82, 0
23, 206912, Note_on_c, 12, 77, 72
23, 206954, Note_on_c, 12, 77, 0
23, 207104, Note_on_c, 12, 82, 76
23, 207146, Note_on_c, 12, 82, 0
23, 207168, Note_on_c, 12, 82, 72
23, 207210, Note_on_c, 12, 82, 0
23, 207232, Note_on_c, 12, 82, 74
23, 207274, Note_on_c, 12, 82, 0
23, 207296, Note_on_c, 12, 77, 73
23, 207338, Note_on_c, 12, 77, 0
23, 207488, Note_on_c, 12, 82, 74
23, 207530, Note_on_c, 12, 82, 0
23, 207552, Note_on_c, 12, 82, 76
23, 207594, Note_on_c, 12, 82, 0
23, 207616, Note_on_c, 12, 82, 87
23, 207658, Note_on_c, 12, 82, 0
23, 207680, Note_on_c, 12, 77, 87
23, 207722, Note_on_c, 12, 77, 0
23, 207872, Note_on_c, 12, 82, 98
23, 207914, Note_on_c, 12, 82, 0
23, 207936, Note_on_c, 12, 82, 102
23, 207978, Note_on_c, 12, 82, 0
23, 208000, Note_on_c, 12, 82, 100
23, 208042, Note_on_c, 12, 82, 0
23, 208064, Note_on_c, 12, 77, 105
23, 208106, Note_on_c, 12, 77, 0
23, 208128, Note_on_c, 12, 80, 113
23, 208174, Note_on_c, 12, 80, 0
23, 208176, Note_on_c, 12, 82, 105
23, 208222, Note_on_c, 12, 82, 0
23, 208224, Note_on_c, 12, 80, 111
23, 208270, Note_on_c, 12, 80, 0
23, 208272, Note_on_c, 12, 77, 103
23, 208318, Note_on_c, 12, 77, 0
23, 208320, Note_on_c, 12, 75, 113
23, 208366, Note_on_c, 12, 75, 0
23, 208368, Note_on_c, 12, 77, 112
23, 208414, Note_on_c, 12, 77, 0
23, 208416, Note_on_c, 12, 75, 106
23, 208462, Note_on_c, 12, 75, 0
23, 208464, Note_on_c, 12, 73, 104
23, 208510, Note_on_c, 12, 73, 0
23, 208512, Note_on_c, 12, 80, 109
23, 208558, Note_on_c, 12, 80, 0
23, 208560, Note_on_c, 12, 82, 110
23, 208606, Note_on_c, 12, 82, 0
23, 208608, Note_on_c, 12, 80, 108
23, 208654, Note_on_c, 12, 80, 0
23, 208656, Note_on_c, 12, 77, 110
23, 208702, Note_on_c, 12, 77, 0
23, 208704, Note_on_c, 12, 75, 109
23, 208750, Note_on_c, 12, 75, 0
23, 208752, Note_on_c, 12, 77, 103
23, 208798, Note_on_c, 12, 77, 0
23, 208800, Note_on_c, 12, 75, 106
23, 208846, Note_on_c, 12, 75, 0
23, 208848, Note_on_c, 12, 73, 104
23, 208894, Note_on_c, 12, 73, 0
23, 208896, Note_on_c, 12, 68, 111
23, 208942, Note_on_c, 12, 68, 0
23, 208944, Note_on_c, 12, 70, 109
23, 208990, Note_on_c, 12, 70, 0
23, 208992, Note_on_c, 12, 68, 109
23, 209038, Note_on_c, 12, 68, 0
23, 209040, Note_on_c, 12, 65, 110
23, 209086, Note_on_c, 12, 65, 0
23, 209088, Note_on_c, 12, 63, 104
23, 209134, Note_on_c, 12, 63, 0
23, 209136, Note_on_c, 12, 65, 104
23, 209182, Note_on_c, 12, 65, 0
23, 209184, Note_on_c, 12, 63, 104
23, 209230, Note_on_c, 12, 63, 0
23, 209232, Note_on_c, 12, 61, 109
23, 209278, Note_on_c, 12, 61, 0
23, 209856, Program_c, 12, 45
23, 209856, Note_on_c, 12, 57, 90
23, 209950, Note_on_c, 12, 57, 0
23, 210048, Program_c, 12, 48
23, 210048, Note_on_c, 12, 63, 41
23, 210094, Note_on_c, 12, 63, 0
23, 210096, Note_on_c, 12, 61, 46
23, 210142, Note_on_c, 12, 61, 0
23, 210144, Note_on_c, 12, 63, 53
23, 210190, Note_on_c, 12, 63, 0
23, 210192, Note_on_c, 12, 65, 64
23, 210238, Note_on_c, 12, 65, 0
23, 210240, Note_on_c, 12, 63, 70
23, 210286, Note_on_c, 12, 63, 0
23, 210288, Note_on_c, 12, 61, 81
23, 210334, Note_on_c, 12, 61, 0
23, 210336, Note_on_c, 12, 58, 84
23, 210382, Note_on_c, 12, 58, 0
23, 210384, Note_on_c, 12, 61, 87
23, 210430, Note_on_c, 12, 61, 0
23, 210624, Program_c, 12, 45
23, 210624, Note_on_c, 12, 57, 93
23, 210718, Note_on_c, 12, 57, 0
23, 210816, Program_c, 12, 48
23, 210816, Note_on_c, 12, 63, 46
23, 210862, Note_on_c, 12, 63, 0
23, 210864, Note_on_c, 12, 61, 46
23, 210910, Note_on_c, 12, 61, 0
23, 210912, Note_on_c, 12, 63, 51
23, 210958, Note_on_c, 12, 63, 0
23, 210960, Note_on_c, 12, 65, 59
23, 211006, Note_on_c, 12, 65, 0
23, 211008, Note_on_c, 12, 63, 73
23, 211054, Note_on_c, 12, 63, 0
23, 211056, Note_on_c, 12, 61, 74
23, 211102, Note_on_c, 12, 61, 0
23, 211104, Note_on_c, 12, 58, 80
23, 211150, Note_on_c, 12, 58, 0
23, 211152, Note_on_c, 12, 61, 89
23, 211198, Note_on_c, 12, 61, 0
23, 211648, Note_on_c, 12, 66, 70
23, 211710, Note_on_c, 12, 66, 0
23, 211712, Note_on_c, 12, 68, 70
23, 211774, Note_on_c, 12, 68, 0
23, 211776, Note_on_c, 12, 73, 81
23, 211838, Note_on_c, 12, 73, 0
23, 211840, Note_on_c, 12, 75, 80
23, 211902, Note_on_c, 12, 75, 0
23, 211904, Note_on_c, 12, 78, 89
23, 211966, Note_on_c, 12, 78, 0
23, 212416, Note_on_c, 12, 66, 94
23, 212478, Note_on_c, 12, 66, 0
23, 212480, Note_on_c, 12, 68, 94
23, 212542, Note_on_c, 12, 68, 0
23, 212544, Note_on_c, 12, 73, 98
23, 212606, Note_on_c, 12, 73, 0
23, 212608, Note_on_c, 12, 75, 97
23, 212670, Note_on_c, 12, 75, 0
23, 212672, Note_on_c, 12, 78, 100
23, 212734, Note_on_c, 12, 78, 0
23, 212736, Note_on_c, 12, 80, 108
23, 212782, Note_on_c, 12, 80, 0
23, 212784, Note_on_c, 12, 82, 104
23, 212830, Note_on_c, 12, 82, 0
23, 212832, Note_on_c, 12, 80, 111
23, 212878, Note_on_c, 12, 80, 0
23, 212880, Note_on_c, 12, 77, 105
23, 212926, Note_on_c, 12, 77, 0
23, 212928, Note_on_c, 12, 75, 113
23, 212974, Note_on_c, 12, 75, 0
23, 212976, Note_on_c, 12, 77, 105
23, 213022, Note_on_c, 12, 77, 0
23, 213024, Note_on_c, 12, 75, 105
23, 213070, Note_on_c, 12, 75, 0
23, 213072, Note_on_c, 12, 73, 108
23, 213118, Note_on_c, 12, 73, 0
23, 213120, Note_on_c, 12, 80, 107
23, 213166, Note_on_c, 12, 80, 0
23, 213168, Note_on_c, 12, 82, 104
23, 213214, Note_on_c, 12, 82, 0
23, 213216, Note_on_c, 12, 80, 106
23, 213262, Note_on_c, 12, 80, 0
23, 213264, Note_on_c, 12, 77, 104
23, 213310, Note_on_c, 12, 77, 0
23, 213312, Note_on_c, 12, 75, 104
23, 213358, Note_on_c, 12, 75, 0
23, 213360, Note_on_c, 12, 77, 112
23, 213406, Note_on_c, 12, 77, 0
23, 213408, Note_on_c, 12, 75, 108
23, 213454, Note_on_c, 12, 75, 0
23, 213456, Note_on_c, 12, 73, 105
23, 213502, Note_on_c, 12, 73, 0
23, 213504, Note_on_c, 12, 68, 110
23, 213550, Note_on_c, 12, 68, 0
23, 213552, Note_on_c, 12, 70, 111
23, 213598, Note_on_c, 12, 70, 0
23, 213600, Note_on_c, 12, 68, 111
23, 213646, Note_on_c, 12, 68, 0
23, 213648, Note_on_c, 12, 65, 112
23, 213694, Note_on_c, 12, 65, 0
23, 213696, Note_on_c, 12, 63, 110
23, 213742, Note_on_c, 12, 63, 0
23, 213744, Note_on_c, 12, 65, 111
23, 213790, Note_on_c, 12, 65, 0
23, 213792, Note_on_c, 12, 63, 103
23, 213838, Note_on_c, 12, 63, 0
23, 213840, Note_on_c, 12, 61, 112
23, 213886, Note_on_c, 12, 61, 0
23, 214368, Note_on_c, 12, 61, 49
23, 214462, Note_on_c, 12, 61, 0
23, 214560, Note_on_c, 12, 63, 42
23, 214654, Note_on_c, 12, 63, 0
23, 214752, Note_on_c, 12, 61, 48
23, 214846, Note_on_c, 12, 61, 0
23, 214944, Note_on_c, 12, 63, 49
23, 215038, Note_on_c, 12, 63, 0
23, 215136, Note_on_c, 12, 61, 47
23, 215230, Note_on_c, 12, 61, 0
23, 215328, Note_on_c, 12, 63, 54
23, 215422, Note_on_c, 12, 63, 0
23, 215520, Note_on_c, 12, 61, 59
23, 215614, Note_on_c, 12, 61, 0
23, 215712, Note_on_c, 12, 63, 63
23, 215806, Note_on_c, 12, 63, 0
23, 215904, Note_on_c, 12, 65, 67
23, 215904, Note_on_c, 12, 70, 60
23, 215998, Note_on_c, 12, 65, 0
23, 215998, Note_on_c, 12, 70, 0
23, 216096, Note_on_c, 12, 67, 68
23, 216096, Note_on_c, 12, 70, 69
23, 216190, Note_on_c, 12, 67, 0
23, 216190, Note_on_c, 12, 70, 0
23, 216288, Note_on_c, 12, 65, 65
23, 216288, Note_on_c, 12, 70, 70
23, 216382, Note_on_c, 12, 65, 0
23, 216382, Note_on_c, 12, 70, 0
23, 216480, Note_on_c, 12, 67, 71
23, 216480, Note_on_c, 12, 70, 74
23, 216574, Note_on_c, 12, 67, 0
23, 216574, Note_on_c, 12, 70, 0
23, 216672, Note_on_c, 12, 65, 80
23, 216672, Note_on_c, 12, 70, 80
23, 216766, Note_on_c, 12, 65, 0
23, 216766, Note_on_c, 12, 70, 0
23, 216864, Note_on_c, 12, 67, 83
23, 216864, Note_on_c, 12, 70, 87
23, 216958, Note_on_c, 12, 67, 0
23, 216958, Note_on_c, 12, 70, 0
23, 217056, Note_on_c, 12, 65, 81
23, 217056, Note_on_c, 12, 70, 87
23, 217150, Note_on_c, 12, 65, 0
23, 217150, Note_on_c, 12, 70, 0
23, 217248, Note_on_c, 12, 67, 90
23, 217248, Note_on_c, 12, 70, 91
23, 217342, Note_on_c, 12, 67, 0
23, 217342, Note_on_c, 12, 70, 0
23, 217344, Note_on_c, 12, 75, 94
23, 217390, Note_on_c, 12, 75, 0
23, 217392, Note_on_c, 12, 73, 97
23, 217438, Note_on_c, 12, 73, 0
23, 217440, Note_on_c, 12, 75, 89
23, 217486, Note_on_c, 12, 75, 0
23, 217488, Note_on_c, 12, 77, 88
23, 217534, Note_on_c, 12, 77, 0
23, 217536, Note_on_c, 12, 75, 95
23, 217582, Note_on_c, 12, 75, 0
23, 217584, Note_on_c, 12, 73, 88
23, 217630, Note_on_c, 12, 73, 0
23, 217632, Note_on_c, 12, 70, 91
23, 217678, Note_on_c, 12, 70, 0
23, 217680, Note_on_c, 12, 73, 97
23, 217726, Note_on_c, 12, 73, 0
23, 217728, Note_on_c, 12, 75, 92
23, 217774, Note_on_c, 12, 75, 0
23, 217776, Note_on_c, 12, 73, 90
23, 217822, Note_on_c, 12, 73, 0
23, 217824, Note_on_c, 12, 75, 93
23, 217870, Note_on_c, 12, 75, 0
23, 217872, Note_on_c, 12, 77, 91
23, 217918, Note_on_c, 12, 77, 0
23, 217920, Note_on_c, 12, 75, 87
23, 217966, Note_on_c, 12, 75, 0
23, 217968, Note_on_c, 12, 73, 96
23, 218014, Note_on_c, 12, 73, 0
23, 218016, Note_on_c, 12, 70, 91
23, 218062, Note_on_c, 12, 70, 0
23, 218064, Note_on_c, 12, 73, 88
23, 218110, Note_on_c, 12, 73, 0
23, 218112, Note_on_c, 12, 75, 87
23, 218158, Note_on_c, 12, 75, 0
23, 218160, Note_on_c, 12, 73, 97
23, 218206, Note_on_c, 12, 73, 0
23, 218208, Note_on_c, 12, 75, 91
23, 218254, Note_on_c, 12, 75, 0
23, 218256, Note_on_c, 12, 77, 93
23, 218302, Note_on_c, 12, 77, 0
23, 218304, Note_on_c, 12, 75, 96
23, 218350, Note_on_c, 12, 75, 0
23, 218352, Note_on_c, 12, 73, 91
23, 218398, Note_on_c, 12, 73, 0
23, 218400, Note_on_c, 12, 70, 94
23, 218446, Note_on_c, 12, 70, 0
23, 218448, Note_on_c, 12, 73, 97
23, 218494, Note_on_c, 12, 73, 0
23, 218496, Note_on_c, 12, 75, 97
23, 218542, Note_on_c, 12, 75, 0
23, 218544, Note_on_c, 12, 73, 90
23, 218590, Note_on_c, 12, 73, 0
23, 218592, Note_on_c, 12, 75, 96
23, 218638, Note_on_c, 12, 75, 0
23, 218640, Note_on_c, 12, 77, 91
23, 218686, Note_on_c, 12, 77, 0
23, 218688, Note_on_c, 12, 75, 96
23, 218734, Note_on_c, 12, 75, 0
23, 218736, Note_on_c, 12, 73, 94
23, 218782, Note_on_c, 12, 73, 0
23, 218784, Note_on_c, 12, 70, 89
23, 218830, Note_on_c, 12, 70, 0
23, 218832, Note_on_c, 12, 73, 93
23, 218878, Note_on_c, 12, 73, 0
23, 218880, Note_on_c, 12, 79, 95
23, 218926, Note_on_c, 12, 79, 0
23, 218928, Note_on_c, 12, 77, 88
23, 218974, Note_on_c, 12, 77, 0
23, 218976, Note_on_c, 12, 79, 97
23, 219022, Note_on_c, 12, 79, 0
23, 219024, Note_on_c, 12, 81, 88
23, 219070, Note_on_c, 12, 81, 0
23, 219072, Note_on_c, 12, 79, 87
23, 219118, Note_on_c, 12, 79, 0
23, 219120, Note_on_c, 12, 77, 93
23, 219166, Note_on_c, 12, 77, 0
23, 219168, Note_on_c, 12, 74, 90
23, 219214, Note_on_c, 12, 74, 0
23, 219216, Note_on_c, 12, 77, 89
23, 219262, Note_on_c, 12, 77, 0
23, 219264, Note_on_c, 12, 79, 88
23, 219310, Note_on_c, 12, 79, 0
23, 219312, Note_on_c, 12, 77, 92
23, 219358, Note_on_c, 12, 77, 0
23, 219360, Note_on_c, 12, 79, 92
23, 219406, Note_on_c, 12, 79, 0
23, 219408, Note_on_c, 12, 81, 97
23, 219454, Note_on_c, 12, 81, 0
23, 219456, Note_on_c, 12, 79, 91
23, 219502, Note_on_c, 12, 79, 0
23, 219504, Note_on_c, 12, 77, 97
23, 219550, Note_on_c, 12, 77, 0
23, 219552, Note_on_c, 12, 74, 90
23, 219598, Note_on_c, 12, 74, 0
23, 219600, Note_on_c, 12, 77, 92
23, 219646, Note_on_c, 12, 77, 0
23, 219648, Note_on_c, 12, 79, 92
23, 219694, Note_on_c, 12, 79, 0
23, 219696, Note_on_c, 12, 77, 96
23, 219742, Note_on_c, 12, 77, 0
23, 219744, Note_on_c, 12, 79, 94
23, 219790, Note_on_c, 12, 79, 0
23, 219792, Note_on_c, 12, 81, 93
23, 219838, Note_on_c, 12, 81, 0
23, 219840, Note_on_c, 12, 79, 92
23, 219886, Note_on_c, 12, 79, 0
23, 219888, Note_on_c, 12, 77, 101
23, 219934, Note_on_c, 12, 77, 0
23, 219936, Note_on_c, 12, 74, 94
23, 219982, Note_on_c, 12, 74, 0
23, 219984, Note_on_c, 12, 77, 98
23, 220030, Note_on_c, 12, 77, 0
23, 220032, Note_on_c, 12, 79, 95
23, 220078, Note_on_c, 12, 79, 0
23, 220080, Note_on_c, 12, 77, 97
23, 220126, Note_on_c, 12, 77, 0
23, 220128, Note_on_c, 12, 79, 100
23, 220174, Note_on_c, 12, 79, 0
23, 220176, Note_on_c, 12, 81, 99
23, 220222, Note_on_c, 12, 81, 0
23, 220224, Note_on_c, 12, 79, 99
23, 220270, Note_on_c, 12, 79, 0
23, 220272, Note_on_c, 12, 77, 107
23, 220318, Note_on_c, 12, 77, 0
23, 220320, Note_on_c, 12, 74, 110
23, 220366, Note_on_c, 12, 74, 0
23, 220368, Note_on_c, 12, 77, 102
23, 220414, Note_on_c, 12, 77, 0
23, 220416, Note_on_c, 12, 77, 106
23, 220484, Note_on_c, 12, 77, 0
23, 220512, Note_on_c, 12, 79, 107
23, 220580, Note_on_c, 12, 79, 0
23, 220608, Note_on_c, 12, 82, 108
23, 220670, Note_on_c, 12, 82, 0
23, 220672, Note_on_c, 12, 80, 112
23, 220734, Note_on_c, 12, 80, 0
23, 220736, Note_on_c, 12, 79, 110
23, 220798, Note_on_c, 12, 79, 0
23, 220800, Note_on_c, 12, 77, 113
23, 220868, Note_on_c, 12, 77, 0
23, 220896, Note_on_c, 12, 79, 105
23, 220964, Note_on_c, 12, 79, 0
23, 220992, Note_on_c, 12, 82, 103
23, 221054, Note_on_c, 12, 82, 0
23, 221056, Note_on_c, 12, 80, 104
23, 221118, Note_on_c, 12, 80, 0
23, 221120, Note_on_c, 12, 79, 106
23, 221182, Note_on_c, 12, 79, 0
23, 221184, Note_on_c, 12, 77, 103
23, 221252, Note_on_c, 12, 77, 0
23, 221280, Note_on_c, 12, 79, 111
23, 221348, Note_on_c, 12, 79, 0
23, 221376, Note_on_c, 12, 82, 111
23, 221438, Note_on_c, 12, 82, 0
23, 221440, Note_on_c, 12, 80, 109
23, 221502, Note_on_c, 12, 80, 0
23, 221504, Note_on_c, 12, 79, 112
23, 221566, Note_on_c, 12, 79, 0
23, 221568, Note_on_c, 12, 77, 104
23, 221636, Note_on_c, 12, 77, 0
23, 221664, Note_on_c, 12, 79, 110
23, 221732, Note_on_c, 12, 79, 0
23, 221760, Note_on_c, 12, 82, 105
23, 221822, Note_on_c, 12, 82, 0
23, 221824, Note_on_c, 12, 80, 112
23, 221886, Note_on_c, 12, 80, 0
23, 221888, Note_on_c, 12, 79, 105
23, 221950, Note_on_c, 12, 79, 0
23, 221952, Note_on_c, 12, 77, 112
23, 222020, Note_on_c, 12, 77, 0
23, 222048, Note_on_c, 12, 79, 110
23, 222116, Note_on_c, 12, 79, 0
23, 222144, Note_on_c, 12, 82, 106
23, 222206, Note_on_c, 12, 82, 0
23, 222208, Note_on_c, 12, 80, 103
23, 222270, Note_on_c, 12, 80, 0
23, 222272, Note_on_c, 12, 79, 109
23, 222334, Note_on_c, 12, 79, 0
23, 222336, Note_on_c, 12, 77, 110
23, 222404, Note_on_c, 12, 77, 0
23, 222432, Note_on_c, 12, 79, 109
23, 222500, Note_on_c, 12, 79, 0
23, 222528, Note_on_c, 12, 82, 107
23, 222590, Note_on_c, 12, 82, 0
23, 222592, Note_on_c, 12, 80, 110
23, 222654, Note_on_c, 12, 80, 0
23, 222656, Note_on_c, 12, 79, 111
23, 222718, Note_on_c, 12, 79, 0
23, 222720, Note_on_c, 12, 77, 107
23, 222788, Note_on_c, 12, 77, 0
23, 222816, Note_on_c, 12, 79, 110
23, 222884, Note_on_c, 12, 79, 0
23, 222912, Note_on_c, 12, 82, 107
23, 222974, Note_on_c, 12, 82, 0
23, 222976, Note_on_c, 12, 80, 110
23, 223038, Note_on_c, 12, 80, 0
23, 223040, Note_on_c, 12, 79, 111
23, 223102, Note_on_c, 12, 79, 0
23, 223104, Note_on_c, 12, 77, 111
23, 223172, Note_on_c, 12, 77, 0
23, 223200, Note_on_c, 12, 79, 103
23, 223268, Note_on_c, 12, 79, 0
23, 223296, Note_on_c, 12, 82, 106
23, 223358, Note_on_c, 12, 82, 0
23, 223360, Note_on_c, 12, 80, 105
23, 223422, Note_on_c, 12, 80, 0
23, 223424, Note_on_c, 12, 82, 111
23, 223486, Note_on_c, 12, 82, 0
23, 223488, Program_c, 12, 44
23, 223488, Note_on_c, 12, 85, 127
23, 224976, Note_on_c, 12, 85, 0
23, 225024, Program_c, 12, 48
23, 225024, Note_on_c, 12, 85, 126
23, 225118, Note_on_c, 12, 85, 0
23, 225216, Note_on_c, 12, 61, 124
23, 225310, Note_on_c, 12, 61, 0
23, 225310, End_track
24, 0, Start_track
24, 0, Title_t, "Violini II - b"
24, 0, MIDI_port, 0
24, 201, Control_c, 12, 0, 0
24, 202, Control_c, 12, 32, 0
24, 203, Program_c, 12, 48
24, 204, Control_c, 12, 7, 127
24, 205, Control_c, 12, 10, 54
24, 206, Control_c, 12, 91, 127
24, 23808, Note_on_c, 12, 59, 91
24, 27984, Note_on_c, 12, 59, 0
24, 28032, Note_on_c, 12, 60, 95
24, 28192, Note_on_c, 12, 60, 0
24, 113664, Note_on_c, 12, 70, 74
24, 113856, Note_on_c, 12, 70, 0
24, 113856, Note_on_c, 12, 68, 78
24, 114048, Note_on_c, 12, 68, 0
24, 114048, Note_on_c, 12, 66, 77
24, 114176, Note_on_c, 12, 66, 0
24, 114176, Note_on_c, 12, 63, 76
24, 114304, Note_on_c, 12, 63, 0
24, 114304, Note_on_c, 12, 66, 70
24, 114430, Note_on_c, 12, 66, 0
24, 114432, Note_on_c, 12, 63, 75
24, 114624, Note_on_c, 12, 63, 0
24, 114624, Note_on_c, 12, 61, 72
24, 114816, Note_on_c, 12, 61, 0
24, 114816, Note_on_c, 12, 59, 65
24, 114944, Note_on_c, 12, 59, 0
24, 114944, Note_on_c, 12, 56, 56
24, 115072, Note_on_c, 12, 56, 0
24, 115072, Note_on_c, 12, 59, 46
24, 115198, Note_on_c, 12, 59, 0
24, 115200, Note_on_c, 12, 60, 42
24, 115392, Note_on_c, 12, 60, 0
24, 115392, Note_on_c, 12, 61, 44
24, 115584, Note_on_c, 12, 61, 0
24, 115584, Note_on_c, 12, 58, 44
24, 115675, Note_on_c, 12, 58, 0
24, 115712, Note_on_c, 12, 56, 52
24, 115803, Note_on_c, 12, 56, 0
24, 115840, Note_on_c, 12, 58, 67
24, 115882, Note_on_c, 12, 58, 0
24, 143616, Note_on_c, 12, 57, 34
24, 143662, Note_on_c, 12, 57, 0
24, 143664, Note_on_c, 12, 57, 35
24, 143710, Note_on_c, 12, 57, 0
24, 143712, Note_on_c, 12, 57, 32
24, 143758, Note_on_c, 12, 57, 0
24, 143760, Note_on_c, 12, 57, 33
24, 143806, Note_on_c, 12, 57, 0
24, 143808, Note_on_c, 12, 57, 34
24, 143854, Note_on_c, 12, 57, 0
24, 143856, Note_on_c, 12, 57, 25
24, 143902, Note_on_c, 12, 57, 0
24, 143904, Note_on_c, 12, 57, 25
24, 143950, Note_on_c, 12, 57, 0
24, 143952, Note_on_c, 12, 57, 35
24, 143998, Note_on_c, 12, 57, 0
24, 144000, Note_on_c, 12, 64, 28
24, 144046, Note_on_c, 12, 64, 0
24, 144048, Note_on_c, 12, 64, 33
24, 144094, Note_on_c, 12, 64, 0
24, 144096, Note_on_c, 12, 64, 30
24, 144142, Note_on_c, 12, 64, 0
24, 144144, Note_on_c, 12, 64, 32
24, 144190, Note_on_c, 12, 64, 0
24, 144192, Note_on_c, 12, 64, 34
24, 144238, Note_on_c, 12, 64, 0
24, 144240, Note_on_c, 12, 64, 33
24, 144286, Note_on_c, 12, 64, 0
24, 144288, Note_on_c, 12, 64, 29
24, 144334, Note_on_c, 12, 64, 0
24, 144336, Note_on_c, 12, 64, 29
24, 144382, Note_on_c, 12, 64, 0
24, 145920, Note_on_c, 12, 67, 40
24, 146046, Note_on_c, 12, 67, 0
24, 146048, Note_on_c, 12, 66, 48
24, 146174, Note_on_c, 12, 66, 0
24, 146176, Note_on_c, 12, 65, 41
24, 146302, Note_on_c, 12, 65, 0
24, 146304, Note_on_c, 12, 64, 52
24, 146430, Note_on_c, 12, 64, 0
24, 146432, Note_on_c, 12, 65, 45
24, 146558, Note_on_c, 12, 65, 0
24, 146560, Note_on_c, 12, 66, 45
24, 146686, Note_on_c, 12, 66, 0
24, 146688, Note_on_c, 12, 67, 55
24, 146814, Note_on_c, 12, 67, 0
24, 146816, Note_on_c, 12, 66, 51
24, 146942, Note_on_c, 12, 66, 0
24, 146944, Note_on_c, 12, 65, 47
24, 147070, Note_on_c, 12, 65, 0
24, 147072, Note_on_c, 12, 64, 51
24, 147198, Note_on_c, 12, 64, 0
24, 147200, Note_on_c, 12, 65, 59
24, 147326, Note_on_c, 12, 65, 0
24, 147328, Note_on_c, 12, 66, 53
24, 147454, Note_on_c, 12, 66, 0
24, 148992, Note_on_c, 12, 72, 76
24, 149038, Note_on_c, 12, 72, 0
24, 149040, Note_on_c, 12, 72, 70
24, 149086, Note_on_c, 12, 72, 0
24, 149088, Note_on_c, 12, 72, 71
24, 149134, Note_on_c, 12, 72, 0
24, 149136, Note_on_c, 12, 72, 77
24, 149182, Note_on_c, 12, 72, 0
24, 149184, Note_on_c, 12, 72, 71
24, 149230, Note_on_c, 12, 72, 0
24, 149232, Note_on_c, 12, 72, 78
24, 149278, Note_on_c, 12, 72, 0
24, 149280, Note_on_c, 12, 72, 78
24, 149326, Note_on_c, 12, 72, 0
24, 149328, Note_on_c, 12, 72, 78
24, 149374, Note_on_c, 12, 72, 0
24, 149376, Note_on_c, 12, 72, 79
24, 149422, Note_on_c, 12, 72, 0
24, 149424, Note_on_c, 12, 72, 75
24, 149470, Note_on_c, 12, 72, 0
24, 149472, Note_on_c, 12, 72, 76
24, 149518, Note_on_c, 12, 72, 0
24, 149520, Note_on_c, 12, 72, 74
24, 149566, Note_on_c, 12, 72, 0
24, 149568, Note_on_c, 12, 72, 72
24, 149614, Note_on_c, 12, 72, 0
24, 149616, Note_on_c, 12, 72, 73
24, 149662, Note_on_c, 12, 72, 0
24, 149664, Note_on_c, 12, 72, 73
24, 149710, Note_on_c, 12, 72, 0
24, 149712, Note_on_c, 12, 72, 72
24, 149758, Note_on_c, 12, 72, 0
24, 149760, Note_on_c, 12, 84, 79
24, 149806, Note_on_c, 12, 84, 0
24, 149808, Note_on_c, 12, 84, 76
24, 149854, Note_on_c, 12, 84, 0
24, 149856, Note_on_c, 12, 84, 78
24, 149902, Note_on_c, 12, 84, 0
24, 149904, Note_on_c, 12, 84, 80
24, 149950, Note_on_c, 12, 84, 0
24, 149952, Note_on_c, 12, 84, 82
24, 149998, Note_on_c, 12, 84, 0
24, 150000, Note_on_c, 12, 84, 86
24, 150046, Note_on_c, 12, 84, 0
24, 150048, Note_on_c, 12, 84, 86
24, 150094, Note_on_c, 12, 84, 0
24, 150096, Note_on_c, 12, 84, 87
24, 150142, Note_on_c, 12, 84, 0
24, 150144, Note_on_c, 12, 83, 87
24, 150190, Note_on_c, 12, 83, 0
24, 150192, Note_on_c, 12, 83, 89
24, 150238, Note_on_c, 12, 83, 0
24, 150240, Note_on_c, 12, 83, 84
24, 150286, Note_on_c, 12, 83, 0
24, 150288, Note_on_c, 12, 83, 93
24, 150334, Note_on_c, 12, 83, 0
24, 150336, Note_on_c, 12, 83, 92
24, 150382, Note_on_c, 12, 83, 0
24, 150384, Note_on_c, 12, 83, 90
24, 150430, Note_on_c, 12, 83, 0
24, 150432, Note_on_c, 12, 83, 87
24, 150478, Note_on_c, 12, 83, 0
24, 150480, Note_on_c, 12, 83, 97
24, 150526, Note_on_c, 12, 83, 0
24, 180576, Note_on_c, 12, 63, 78
24, 180670, Note_on_c, 12, 63, 0
24, 180768, Note_on_c, 12, 63, 72
24, 180862, Note_on_c, 12, 63, 0
24, 180960, Note_on_c, 12, 63, 80
24, 181054, Note_on_c, 12, 63, 0
24, 181152, Note_on_c, 12, 63, 91
24, 181246, Note_on_c, 12, 63, 0
24, 181344, Note_on_c, 12, 63, 94
24, 181438, Note_on_c, 12, 63, 0
24, 181536, Note_on_c, 12, 63, 93
24, 181630, Note_on_c, 12, 63, 0
24, 181728, Note_on_c, 12, 63, 89
24, 181822, Note_on_c, 12, 63, 0
24, 181920, Note_on_c, 12, 63, 76
24, 182014, Note_on_c, 12, 63, 0
24, 182112, Note_on_c, 12, 63, 80
24, 182206, Note_on_c, 12, 63, 0
24, 182304, Note_on_c, 12, 63, 70
24, 182398, Note_on_c, 12, 63, 0
24, 182496, Note_on_c, 12, 63, 78
24, 182590, Note_on_c, 12, 63, 0
24, 189056, Note_on_c, 12, 73, 25
24, 189118, Note_on_c, 12, 73, 0
24, 189120, Note_on_c, 12, 76, 27
24, 189182, Note_on_c, 12, 76, 0
24, 189184, Note_on_c, 12, 73, 29
24, 189246, Note_on_c, 12, 73, 0
24, 189248, Note_on_c, 12, 76, 32
24, 189290, Note_on_c, 12, 76, 0
24, 189440, Note_on_c, 12, 73, 29
24, 189502, Note_on_c, 12, 73, 0
24, 189504, Note_on_c, 12, 76, 30
24, 189566, Note_on_c, 12, 76, 0
24, 189568, Note_on_c, 12, 73, 29
24, 189630, Note_on_c, 12, 73, 0
24, 189632, Note_on_c, 12, 76, 27
24, 189674, Note_on_c, 12, 76, 0
24, 189824, Note_on_c, 12, 73, 32
24, 189886, Note_on_c, 12, 73, 0
24, 189888, Note_on_c, 12, 76, 30
24, 189950, Note_on_c, 12, 76, 0
24, 189952, Note_on_c, 12, 73, 33
24, 190014, Note_on_c, 12, 73, 0
24, 190016, Note_on_c, 12, 76, 26
24, 190058, Note_on_c, 12, 76, 0
24, 190208, Note_on_c, 12, 73, 32
24, 190270, Note_on_c, 12, 73, 0
24, 190272, Note_on_c, 12, 76, 28
24, 190334, Note_on_c, 12, 76, 0
24, 190336, Note_on_c, 12, 73, 33
24, 190398, Note_on_c, 12, 73, 0
24, 190400, Note_on_c, 12, 76, 33
24, 190442, Note_on_c, 12, 76, 0
24, 190592, Note_on_c, 12, 73, 32
24, 190654, Note_on_c, 12, 73, 0
24, 190656, Note_on_c, 12, 76, 27
24, 190718, Note_on_c, 12, 76, 0
24, 190720, Note_on_c, 12, 73, 34
24, 190782, Note_on_c, 12, 73, 0
24, 190784, Note_on_c, 12, 76, 28
24, 190826, Note_on_c, 12, 76, 0
24, 190976, Note_on_c, 12, 73, 25
24, 191038, Note_on_c, 12, 73, 0
24, 191040, Note_on_c, 12, 76, 30
24, 191102, Note_on_c, 12, 76, 0
24, 191104, Note_on_c, 12, 73, 34
24, 191166, Note_on_c, 12, 73, 0
24, 191168, Note_on_c, 12, 76, 34
24, 191210, Note_on_c, 12, 76, 0
24, 191360, Note_on_c, 12, 73, 31
24, 191422, Note_on_c, 12, 73, 0
24, 191424, Note_on_c, 12, 76, 32
24, 191486, Note_on_c, 12, 76, 0
24, 191488, Note_on_c, 12, 73, 30
24, 191550, Note_on_c, 12, 73, 0
24, 191552, Note_on_c, 12, 76, 33
24, 191594, Note_on_c, 12, 76, 0
24, 191744, Note_on_c, 12, 73, 33
24, 191806, Note_on_c, 12, 73, 0
24, 191808, Note_on_c, 12, 76, 30
24, 191870, Note_on_c, 12, 76, 0
24, 191872, Note_on_c, 12, 73, 32
24, 191934, Note_on_c, 12, 73, 0
24, 191936, Note_on_c, 12, 76, 31
24, 191978, Note_on_c, 12, 76, 0
24, 192128, Note_on_c, 12, 74, 27
24, 192190, Note_on_c, 12, 74, 0
24, 192192, Note_on_c, 12, 77, 25
24, 192254, Note_on_c, 12, 77, 0
24, 192256, Note_on_c, 12, 74, 32
24, 192318, Note_on_c, 12, 74, 0
24, 192320, Note_on_c, 12, 77, 27
24, 192362, Note_on_c, 12, 77, 0
24, 192512, Note_on_c, 12, 75, 27
24, 192574, Note_on_c, 12, 75, 0
24, 192576, Note_on_c, 12, 78, 26
24, 192638, Note_on_c, 12, 78, 0
24, 192640, Note_on_c, 12, 75, 34
24, 192702, Note_on_c, 12, 75, 0
24, 192704, Note_on_c, 12, 78, 35
24, 192746, Note_on_c, 12, 78, 0
24, 192896, Note_on_c, 12, 68, 29
24, 192958, Note_on_c, 12, 68, 0
24, 192960, Note_on_c, 12, 71, 29
24, 193022, Note_on_c, 12, 71, 0
24, 193024, Note_on_c, 12, 68, 28
24, 193086, Note_on_c, 12, 68, 0
24, 193088, Note_on_c, 12, 71, 34
24, 193130, Note_on_c, 12, 71, 0
24, 193280, Note_on_c, 12, 70, 27
24, 193342, Note_on_c, 12, 70, 0
24, 193344, Note_on_c, 12, 73, 28
24, 193406, Note_on_c, 12, 73, 0
24, 193408, Note_on_c, 12, 70, 32
24, 193470, Note_on_c, 12, 70, 0
24, 193472, Note_on_c, 12, 73, 31
24, 193514, Note_on_c, 12, 73, 0
24, 193664, Note_on_c, 12, 72, 35
24, 193726, Note_on_c, 12, 72, 0
24, 193728, Note_on_c, 12, 68, 32
24, 193790, Note_on_c, 12, 68, 0
24, 193792, Note_on_c, 12, 72, 29
24, 193854, Note_on_c, 12, 72, 0
24, 193856, Note_on_c, 12, 71, 33
24, 193898, Note_on_c, 12, 71, 0
24, 194048, Note_on_c, 12, 70, 26
24, 194110, Note_on_c, 12, 70, 0
24, 194112, Note_on_c, 12, 66, 32
24, 194174, Note_on_c, 12, 66, 0
24, 194176, Note_on_c, 12, 70, 35
24, 194238, Note_on_c, 12, 70, 0
24, 194240, Note_on_c, 12, 69, 34
24, 194282, Note_on_c, 12, 69, 0
24, 194432, Note_on_c, 12, 60, 27
24, 194494, Note_on_c, 12, 60, 0
24, 194496, Note_on_c, 12, 64, 25
24, 194558, Note_on_c, 12, 64, 0
24, 194560, Note_on_c, 12, 60, 32
24, 194622, Note_on_c, 12, 60, 0
24, 194624, Note_on_c, 12, 68, 33
24, 194666, Note_on_c, 12, 68, 0
24, 194816, Note_on_c, 12, 64, 34
24, 194878, Note_on_c, 12, 64, 0
24, 194880, Note_on_c, 12, 68, 28
24, 194942, Note_on_c, 12, 68, 0
24, 194944, Note_on_c, 12, 64, 32
24, 195006, Note_on_c, 12, 64, 0
24, 195008, Note_on_c, 12, 72, 31
24, 195050, Note_on_c, 12, 72, 0
24, 195200, Note_on_c, 12, 60, 35
24, 195262, Note_on_c, 12, 60, 0
24, 195264, Note_on_c, 12, 64, 29
24, 195326, Note_on_c, 12, 64, 0
24, 195328, Note_on_c, 12, 60, 29
24, 195390, Note_on_c, 12, 60, 0
24, 195392, Note_on_c, 12, 68, 27
24, 195434, Note_on_c, 12, 68, 0
24, 195520, Note_on_c, 12, 76, 26
24, 195582, Note_on_c, 12, 76, 0
24, 195584, Note_on_c, 12, 72, 34
24, 195626, Note_on_c, 12, 72, 0
24, 195712, Note_on_c, 12, 76, 33
24, 195774, Note_on_c, 12, 76, 0
24, 195776, Note_on_c, 12, 72, 27
24, 195818, Note_on_c, 12, 72, 0
24, 195968, Note_on_c, 12, 73, 45
24, 196030, Note_on_c, 12, 73, 0
24, 196032, Note_on_c, 12, 77, 42
24, 196094, Note_on_c, 12, 77, 0
24, 196096, Note_on_c, 12, 73, 42
24, 196158, Note_on_c, 12, 73, 0
24, 196160, Note_on_c, 12, 77, 42
24, 196202, Note_on_c, 12, 77, 0
24, 196352, Note_on_c, 12, 73, 50
24, 196414, Note_on_c, 12, 73, 0
24, 196416, Note_on_c, 12, 77, 42
24, 196478, Note_on_c, 12, 77, 0
24, 196480, Note_on_c, 12, 73, 40
24, 196542, Note_on_c, 12, 73, 0
24, 196544, Note_on_c, 12, 77, 47
24, 196586, Note_on_c, 12, 77, 0
24, 196736, Note_on_c, 12, 73, 44
24, 196798, Note_on_c, 12, 73, 0
24, 196800, Note_on_c, 12, 77, 45
24, 196862, Note_on_c, 12, 77, 0
24, 196864, Note_on_c, 12, 73, 46
24, 196926, Note_on_c, 12, 73, 0
24, 196928, Note_on_c, 12, 77, 40
24, 196970, Note_on_c, 12, 77, 0
24, 197120, Note_on_c, 12, 73, 43
24, 197182, Note_on_c, 12, 73, 0
24, 197184, Note_on_c, 12, 77, 41
24, 197246, Note_on_c, 12, 77, 0
24, 197248, Note_on_c, 12, 73, 47
24, 197310, Note_on_c, 12, 73, 0
24, 197312, Note_on_c, 12, 77, 41
24, 197354, Note_on_c, 12, 77, 0
24, 197504, Note_on_c, 12, 73, 40
24, 197566, Note_on_c, 12, 73, 0
24, 197568, Note_on_c, 12, 77, 44
24, 197630, Note_on_c, 12, 77, 0
24, 197632, Note_on_c, 12, 73, 45
24, 197694, Note_on_c, 12, 73, 0
24, 197696, Note_on_c, 12, 77, 40
24, 197738, Note_on_c, 12, 77, 0
24, 197888, Note_on_c, 12, 73, 41
24, 197950, Note_on_c, 12, 73, 0
24, 197952, Note_on_c, 12, 77, 50
24, 198014, Note_on_c, 12, 77, 0
24, 198016, Note_on_c, 12, 73, 46
24, 198078, Note_on_c, 12, 73, 0
24, 198080, Note_on_c, 12, 77, 49
24, 198122, Note_on_c, 12, 77, 0
24, 198272, Note_on_c, 12, 73, 48
24, 198334, Note_on_c, 12, 73, 0
24, 198336, Note_on_c, 12, 77, 46
24, 198398, Note_on_c, 12, 77, 0
24, 198400, Note_on_c, 12, 73, 42
24, 198462, Note_on_c, 12, 73, 0
24, 198464, Note_on_c, 12, 77, 46
24, 198506, Note_on_c, 12, 77, 0
24, 198656, Note_on_c, 12, 73, 42
24, 198718, Note_on_c, 12, 73, 0
24, 198720, Note_on_c, 12, 77, 50
24, 198782, Note_on_c, 12, 77, 0
24, 198784, Note_on_c, 12, 73, 47
24, 198846, Note_on_c, 12, 73, 0
24, 198848, Note_on_c, 12, 77, 50
24, 198890, Note_on_c, 12, 77, 0
24, 199040, Note_on_c, 12, 70, 77
24, 199082, Note_on_c, 12, 70, 0
24, 199104, Note_on_c, 12, 70, 76
24, 199146, Note_on_c, 12, 70, 0
24, 199168, Note_on_c, 12, 70, 71
24, 199210, Note_on_c, 12, 70, 0
24, 199232, Note_on_c, 12, 65, 74
24, 199274, Note_on_c, 12, 65, 0
24, 199424, Note_on_c, 12, 70, 79
24, 199466, Note_on_c, 12, 70, 0
24, 199488, Note_on_c, 12, 70, 76
24, 199530, Note_on_c, 12, 70, 0
24, 199552, Note_on_c, 12, 70, 72
24, 199594, Note_on_c, 12, 70, 0
24, 199616, Note_on_c, 12, 65, 72
24, 199658, Note_on_c, 12, 65, 0
24, 199808, Note_on_c, 12, 70, 74
24, 199850, Note_on_c, 12, 70, 0
24, 199872, Note_on_c, 12, 70, 73
24, 199914, Note_on_c, 12, 70, 0
24, 199936, Note_on_c, 12, 70, 71
24, 199978, Note_on_c, 12, 70, 0
24, 200000, Note_on_c, 12, 65, 77
24, 200042, Note_on_c, 12, 65, 0
24, 200192, Note_on_c, 12, 70, 71
24, 200234, Note_on_c, 12, 70, 0
24, 200256, Note_on_c, 12, 70, 75
24, 200298, Note_on_c, 12, 70, 0
24, 200320, Note_on_c, 12, 70, 72
24, 200362, Note_on_c, 12, 70, 0
24, 200384, Note_on_c, 12, 65, 70
24, 200426, Note_on_c, 12, 65, 0
24, 200576, Note_on_c, 12, 70, 71
24, 200618, Note_on_c, 12, 70, 0
24, 200640, Note_on_c, 12, 70, 71
24, 200682, Note_on_c, 12, 70, 0
24, 200704, Note_on_c, 12, 70, 74
24, 200746, Note_on_c, 12, 70, 0
24, 200768, Note_on_c, 12, 65, 80
24, 200810, Note_on_c, 12, 65, 0
24, 200960, Note_on_c, 12, 70, 76
24, 201002, Note_on_c, 12, 70, 0
24, 201024, Note_on_c, 12, 70, 80
24, 201066, Note_on_c, 12, 70, 0
24, 201088, Note_on_c, 12, 70, 75
24, 201130, Note_on_c, 12, 70, 0
24, 201152, Note_on_c, 12, 65, 71
24, 201194, Note_on_c, 12, 65, 0
24, 201344, Note_on_c, 12, 70, 79
24, 201386, Note_on_c, 12, 70, 0
24, 201408, Note_on_c, 12, 70, 77
24, 201450, Note_on_c, 12, 70, 0
24, 201472, Note_on_c, 12, 70, 70
24, 201514, Note_on_c, 12, 70, 0
24, 201536, Note_on_c, 12, 65, 72
24, 201578, Note_on_c, 12, 65, 0
24, 201728, Note_on_c, 12, 70, 75
24, 201770, Note_on_c, 12, 70, 0
24, 201792, Note_on_c, 12, 70, 74
24, 201834, Note_on_c, 12, 70, 0
24, 201856, Note_on_c, 12, 70, 75
24, 201898, Note_on_c, 12, 70, 0
24, 201920, Note_on_c, 12, 65, 79
24, 201962, Note_on_c, 12, 65, 0
24, 202112, Note_on_c, 12, 73, 71
24, 202154, Note_on_c, 12, 73, 0
24, 202176, Note_on_c, 12, 73, 70
24, 202218, Note_on_c, 12, 73, 0
24, 202240, Note_on_c, 12, 73, 72
24, 202282, Note_on_c, 12, 73, 0
24, 202304, Note_on_c, 12, 75, 78
24, 202346, Note_on_c, 12, 75, 0
24, 202496, Note_on_c, 12, 73, 77
24, 202538, Note_on_c, 12, 73, 0
24, 202560, Note_on_c, 12, 73, 76
24, 202602, Note_on_c, 12, 73, 0
24, 202624, Note_on_c, 12, 73, 73
24, 202666, Note_on_c, 12, 73, 0
24, 202688, Note_on_c, 12, 75, 71
24, 202730, Note_on_c, 12, 75, 0
24, 202880, Note_on_c, 12, 73, 70
24, 202922, Note_on_c, 12, 73, 0
24, 202944, Note_on_c, 12, 73, 80
24, 202986, Note_on_c, 12, 73, 0
24, 203008, Note_on_c, 12, 73, 72
24, 203050, Note_on_c, 12, 73, 0
24, 203072, Note_on_c, 12, 75, 70
24, 203114, Note_on_c, 12, 75, 0
24, 203264, Note_on_c, 12, 75, 80
24, 203306, Note_on_c, 12, 75, 0
24, 203328, Note_on_c, 12, 75, 80
24, 203370, Note_on_c, 12, 75, 0
24, 203392, Note_on_c, 12, 75, 76
24, 203434, Note_on_c, 12, 75, 0
24, 203456, Note_on_c, 12, 77, 75
24, 203498, Note_on_c, 12, 77, 0
24, 203648, Note_on_c, 12, 73, 75
24, 203690, Note_on_c, 12, 73, 0
24, 203712, Note_on_c, 12, 73, 66
24, 203754, Note_on_c, 12, 73, 0
24, 203776, Note_on_c, 12, 73, 62
24, 203818, Note_on_c, 12, 73, 0
24, 203840, Note_on_c, 12, 75, 68
24, 203882, Note_on_c, 12, 75, 0
24, 204032, Note_on_c, 12, 73, 59
24, 204074, Note_on_c, 12, 73, 0
24, 204096, Note_on_c, 12, 73, 47
24, 204138, Note_on_c, 12, 73, 0
24, 204160, Note_on_c, 12, 73, 51
24, 204202, Note_on_c, 12, 73, 0
24, 204224, Note_on_c, 12, 75, 41
24, 204266, Note_on_c, 12, 75, 0
24, 204416, Note_on_c, 12, 70, 79
24, 204458, Note_on_c, 12, 70, 0
24, 204480, Note_on_c, 12, 70, 71
24, 204522, Note_on_c, 12, 70, 0
24, 204544, Note_on_c, 12, 70, 73
24, 204586, Note_on_c, 12, 70, 0
24, 204608, Note_on_c, 12, 72, 80
24, 204650, Note_on_c, 12, 72, 0
24, 204800, Note_on_c, 12, 70, 78
24, 204842, Note_on_c, 12, 70, 0
24, 204864, Note_on_c, 12, 70, 77
24, 204906, Note_on_c, 12, 70, 0
24, 204928, Note_on_c, 12, 70, 70
24, 204970, Note_on_c, 12, 70, 0
24, 204992, Note_on_c, 12, 72, 78
24, 205034, Note_on_c, 12, 72, 0
24, 205184, Note_on_c, 12, 70, 75
24, 205226, Note_on_c, 12, 70, 0
24, 205248, Note_on_c, 12, 70, 79
24, 205290, Note_on_c, 12, 70, 0
24, 205312, Note_on_c, 12, 70, 80
24, 205354, Note_on_c, 12, 70, 0
24, 205376, Note_on_c, 12, 65, 77
24, 205418, Note_on_c, 12, 65, 0
24, 205568, Note_on_c, 12, 70, 72
24, 205610, Note_on_c, 12, 70, 0
24, 205632, Note_on_c, 12, 70, 73
24, 205674, Note_on_c, 12, 70, 0
24, 205696, Note_on_c, 12, 70, 73
24, 205738, Note_on_c, 12, 70, 0
24, 205760, Note_on_c, 12, 65, 73
24, 205802, Note_on_c, 12, 65, 0
24, 205952, Note_on_c, 12, 70, 78
24, 205994, Note_on_c, 12, 70, 0
24, 206016, Note_on_c, 12, 70, 77
24, 206058, Note_on_c, 12, 70, 0
24, 206080, Note_on_c, 12, 70, 73
24, 206122, Note_on_c, 12, 70, 0
24, 206144, Note_on_c, 12, 65, 75
24, 206186, Note_on_c, 12, 65, 0
24, 206336, Note_on_c, 12, 70, 75
24, 206378, Note_on_c, 12, 70, 0
24, 206400, Note_on_c, 12, 70, 74
24, 206442, Note_on_c, 12, 70, 0
24, 206464, Note_on_c, 12, 70, 74
24, 206506, Note_on_c, 12, 70, 0
24, 206528, Note_on_c, 12, 65, 74
24, 206570, Note_on_c, 12, 65, 0
24, 206720, Note_on_c, 12, 70, 74
24, 206762, Note_on_c, 12, 70, 0
24, 206784, Note_on_c, 12, 70, 75
24, 206826, Note_on_c, 12, 70, 0
24, 206848, Note_on_c, 12, 70, 70
24, 206890, Note_on_c, 12, 70, 0
24, 206912, Note_on_c, 12, 65, 71
24, 206954, Note_on_c, 12, 65, 0
24, 207104, Note_on_c, 12, 70, 73
24, 207146, Note_on_c, 12, 70, 0
24, 207168, Note_on_c, 12, 70, 73
24, 207210, Note_on_c, 12, 70, 0
24, 207232, Note_on_c, 12, 70, 80
24, 207274, Note_on_c, 12, 70, 0
24, 207296, Note_on_c, 12, 65, 73
24, 207338, Note_on_c, 12, 65, 0
24, 207488, Note_on_c, 12, 70, 77
24, 207530, Note_on_c, 12, 70, 0
24, 207552, Note_on_c, 12, 70, 84
24, 207594, Note_on_c, 12, 70, 0
24, 207616, Note_on_c, 12, 70, 83
24, 207658, Note_on_c, 12, 70, 0
24, 207680, Note_on_c, 12, 65, 91
24, 207722, Note_on_c, 12, 65, 0
24, 207872, Note_on_c, 12, 70, 92
24, 207914, Note_on_c, 12, 70, 0
24, 207936, Note_on_c, 12, 70, 96
24, 207978, Note_on_c, 12, 70, 0
24, 208000, Note_on_c, 12, 70, 99
24, 208042, Note_on_c, 12, 70, 0
24, 208064, Note_on_c, 12, 65, 102
24, 208106, Note_on_c, 12, 65, 0
24, 208106, End_track
25, 0, Start_track
25, 0, Title_t, "Viole I"
25, 0, MIDI_port, 0
25, 5376, Control_c, 13, 11, 127
25, 5856, Note_on_c, 13, 54, 31
25, 5950, Note_on_c, 13, 54, 0
25, 5952, Note_on_c, 13, 55, 32
25, 6014, Note_on_c, 13, 55, 0
25, 6016, Note_on_c, 13, 56, 31
25, 6078, Note_on_c, 13, 56, 0
25, 6080, Note_on_c, 13, 57, 30
25, 6142, Note_on_c, 13, 57, 0
25, 6144, Note_on_c, 13, 63, 29
25, 6238, Note_on_c, 13, 63, 0
25, 6240, Note_on_c, 13, 54, 35
25, 6272, Note_on_c, 13, 54, 0
25, 6336, Note_on_c, 13, 55, 36
25, 6398, Note_on_c, 13, 55, 0
25, 6400, Note_on_c, 13, 56, 34
25, 6462, Note_on_c, 13, 56, 0
25, 6464, Note_on_c, 13, 57, 39
25, 6526, Note_on_c, 13, 57, 0
25, 6528, Note_on_c, 13, 63, 36
25, 6622, Note_on_c, 13, 63, 0
25, 6624, Note_on_c, 13, 54, 42
25, 6656, Note_on_c, 13, 54, 0
25, 6720, Note_on_c, 13, 55, 51
25, 6782, Note_on_c, 13, 55, 0
25, 6784, Note_on_c, 13, 56, 46
25, 6846, Note_on_c, 13, 56, 0
25, 6848, Note_on_c, 13, 57, 45
25, 6910, Note_on_c, 13, 57, 0
25, 6912, Note_on_c, 13, 63, 52
25, 7006, Note_on_c, 13, 63, 0
25, 7008, Note_on_c, 13, 54, 51
25, 7040, Note_on_c, 13, 54, 0
25, 7104, Note_on_c, 13, 55, 60
25, 7166, Note_on_c, 13, 55, 0
25, 7168, Note_on_c, 13, 56, 64
25, 7230, Note_on_c, 13, 56, 0
25, 7232, Note_on_c, 13, 57, 60
25, 7294, Note_on_c, 13, 57, 0
25, 7296, Note_on_c, 13, 63, 69
25, 7390, Note_on_c, 13, 63, 0
25, 7392, Note_on_c, 13, 54, 64
25, 7424, Note_on_c, 13, 54, 0
25, 7488, Note_on_c, 13, 55, 71
25, 7550, Note_on_c, 13, 55, 0
25, 7552, Note_on_c, 13, 56, 74
25, 7614, Note_on_c, 13, 56, 0
25, 7616, Note_on_c, 13, 57, 78
25, 7678, Note_on_c, 13, 57, 0
25, 12000, Control_c, 13, 11, 64
25, 12000, Note_on_c, 13, 54, 58
25, 12003, Control_c, 13, 11, 65
25, 12006, Control_c, 13, 11, 66
25, 12009, Control_c, 13, 11, 67
25, 12012, Control_c, 13, 11, 68
25, 12015, Control_c, 13, 11, 69
25, 12018, Control_c, 13, 11, 70
25, 12021, Control_c, 13, 11, 71
25, 12024, Control_c, 13, 11, 72
25, 12027, Control_c, 13, 11, 73
25, 12030, Control_c, 13, 11, 74
25, 12033, Control_c, 13, 11, 75
25, 12036, Control_c, 13, 11, 76
25, 12039, Control_c, 13, 11, 77
25, 12042, Control_c, 13, 11, 78
25, 12045, Control_c, 13, 11, 79
25, 12048, Control_c, 13, 11, 80
25, 12051, Control_c, 13, 11, 81
25, 12054, Control_c, 13, 11, 82
25, 12057, Control_c, 13, 11, 83
25, 12060, Control_c, 13, 11, 84
25, 12064, Control_c, 13, 11, 85
25, 12067, Control_c, 13, 11, 86
25, 12070, Control_c, 13, 11, 87
25, 12073, Control_c, 13, 11, 88
25, 12076, Control_c, 13, 11, 89
25, 12079, Control_c, 13, 11, 90
25, 12082, Control_c, 13, 11, 91
25, 12085, Control_c, 13, 11, 92
25, 12088, Control_c, 13, 11, 93
25, 12091, Control_c, 13, 11, 94
25, 12094, Control_c, 13, 11, 95
25, 12096, Note_on_c, 13, 54, 0
25, 12096, Note_on_c, 13, 55, 60
25, 12097, Control_c, 13, 11, 96
25, 12100, Control_c, 13, 11, 97
25, 12103, Control_c, 13, 11, 98
25, 12106, Control_c, 13, 11, 99
25, 12109, Control_c, 13, 11, 100
25, 12112, Control_c, 13, 11, 101
25, 12115, Control_c, 13, 11, 102
25, 12118, Control_c, 13, 11, 103
25, 12121, Control_c, 13, 11, 104
25, 12124, Control_c, 13, 11, 105
25, 12128, Control_c, 13, 11, 106
25, 12131, Control_c, 13, 11, 107
25, 12134, Control_c, 13, 11, 108
25, 12137, Control_c, 13, 11, 109
25, 12140, Control_c, 13, 11, 110
25, 12143, Control_c, 13, 11, 111
25, 12146, Control_c, 13, 11, 112
25, 12149, Control_c, 13, 11, 113
25, 12152, Control_c, 13, 11, 114
25, 12155, Control_c, 13, 11, 115
25, 12158, Control_c, 13, 11, 116
25, 12160, Note_on_c, 13, 55, 0
25, 12160, Note_on_c, 13, 56, 55
25, 12161, Control_c, 13, 11, 117
25, 12164, Control_c, 13, 11, 118
25, 12167, Control_c, 13, 11, 119
25, 12170, Control_c, 13, 11, 120
25, 12173, Control_c, 13, 11, 121
25, 12176, Control_c, 13, 11, 122
25, 12179, Control_c, 13, 11, 123
25, 12182, Control_c, 13, 11, 124
25, 12185, Control_c, 13, 11, 125
25, 12188, Control_c, 13, 11, 126
25, 12192, Control_c, 13, 11, 127
25, 12195, Control_c, 13, 11, 126
25, 12198, Control_c, 13, 11, 125
25, 12201, Control_c, 13, 11, 124
25, 12204, Control_c, 13, 11, 123
25, 12207, Control_c, 13, 11, 122
25, 12210, Control_c, 13, 11, 121
25, 12213, Control_c, 13, 11, 120
25, 12216, Control_c, 13, 11, 119
25, 12219, Control_c, 13, 11, 118
25, 12222, Control_c, 13, 11, 117
25, 12224, Note_on_c, 13, 56, 0
25, 12224, Note_on_c, 13, 57, 61
25, 12225, Control_c, 13, 11, 116
25, 12228, Control_c, 13, 11, 115
25, 12231, Control_c, 13, 11, 114
25, 12234, Control_c, 13, 11, 113
25, 12237, Control_c, 13, 11, 112
25, 12240, Control_c, 13, 11, 111
25, 12243, Control_c, 13, 11, 110
25, 12246, Control_c, 13, 11, 109
25, 12249, Control_c, 13, 11, 108
25, 12252, Control_c, 13, 11, 107
25, 12256, Control_c, 13, 11, 106
25, 12259, Control_c, 13, 11, 105
25, 12262, Control_c, 13, 11, 104
25, 12265, Control_c, 13, 11, 103
25, 12268, Control_c, 13, 11, 102
25, 12271, Control_c, 13, 11, 101
25, 12274, Control_c, 13, 11, 100
25, 12277, Control_c, 13, 11, 99
25, 12280, Control_c, 13, 11, 98
25, 12283, Control_c, 13, 11, 97
25, 12286, Control_c, 13, 11, 96
25, 12288, Note_on_c, 13, 57, 0
25, 12288, Note_on_c, 13, 63, 59
25, 12289, Control_c, 13, 11, 95
25, 12292, Control_c, 13, 11, 94
25, 12295, Control_c, 13, 11, 93
25, 12298, Control_c, 13, 11, 92
25, 12301, Control_c, 13, 11, 91
25, 12304, Control_c, 13, 11, 90
25, 12307, Control_c, 13, 11, 89
25, 12310, Control_c, 13, 11, 88
25, 12313, Control_c, 13, 11, 87
25, 12316, Control_c, 13, 11, 86
25, 12320, Control_c, 13, 11, 85
25, 12323, Control_c, 13, 11, 84
25, 12326, Control_c, 13, 11, 83
25, 12329, Control_c, 13, 11, 82
25, 12332, Control_c, 13, 11, 81
25, 12335, Control_c, 13, 11, 80
25, 12338, Control_c, 13, 11, 79
25, 12341, Control_c, 13, 11, 78
25, 12344, Control_c, 13, 11, 77
25, 12347, Control_c, 13, 11, 76
25, 12350, Control_c, 13, 11, 75
25, 12353, Control_c, 13, 11, 74
25, 12356, Control_c, 13, 11, 73
25, 12359, Control_c, 13, 11, 72
25, 12362, Control_c, 13, 11, 71
25, 12365, Control_c, 13, 11, 70
25, 12368, Control_c, 13, 11, 69
25, 12371, Control_c, 13, 11, 68
25, 12374, Control_c, 13, 11, 67
25, 12377, Control_c, 13, 11, 66
25, 12380, Control_c, 13, 11, 65
25, 12384, Note_on_c, 13, 63, 0
25, 12384, Control_c, 13, 11, 64
25, 12384, Note_on_c, 13, 57, 62
25, 12416, Note_on_c, 13, 57, 0
25, 13536, Control_c, 13, 11, 64
25, 13536, Note_on_c, 13, 54, 56
25, 13539, Control_c, 13, 11, 65
25, 13542, Control_c, 13, 11, 66
25, 13545, Control_c, 13, 11, 67
25, 13548, Control_c, 13, 11, 68
25, 13551, Control_c, 13, 11, 69
25, 13554, Control_c, 13, 11, 70
25, 13557, Control_c, 13, 11, 71
25, 13560, Control_c, 13, 11, 72
25, 13563, Control_c, 13, 11, 73
25, 13566, Control_c, 13, 11, 74
25, 13569, Control_c, 13, 11, 75
25, 13572, Control_c, 13, 11, 76
25, 13575, Control_c, 13, 11, 77
25, 13578, Control_c, 13, 11, 78
25, 13581, Control_c, 13, 11, 79
25, 13584, Control_c, 13, 11, 80
25, 13587, Control_c, 13, 11, 81
25, 13590, Control_c, 13, 11, 82
25, 13593, Control_c, 13, 11, 83
25, 13596, Control_c, 13, 11, 84
25, 13600, Control_c, 13, 11, 85
25, 13603, Control_c, 13, 11, 86
25, 13606, Control_c, 13, 11, 87
25, 13609, Control_c, 13, 11, 88
25, 13612, Control_c, 13, 11, 89
25, 13615, Control_c, 13, 11, 90
25, 13618, Control_c, 13, 11, 91
25, 13621, Control_c, 13, 11, 92
25, 13624, Control_c, 13, 11, 93
25, 13627, Control_c, 13, 11, 94
25, 13630, Control_c, 13, 11, 95
25, 13632, Note_on_c, 13, 54, 0
25, 13632, Note_on_c, 13, 55, 64
25, 13633, Control_c, 13, 11, 96
25, 13636, Control_c, 13, 11, 97
25, 13639, Control_c, 13, 11, 98
25, 13642, Control_c, 13, 11, 99
25, 13645, Control_c, 13, 11, 100
25, 13648, Control_c, 13, 11, 101
25, 13651, Control_c, 13, 11, 102
25, 13654, Control_c, 13, 11, 103
25, 13657, Control_c, 13, 11, 104
25, 13660, Control_c, 13, 11, 105
25, 13664, Control_c, 13, 11, 106
25, 13667, Control_c, 13, 11, 107
25, 13670, Control_c, 13, 11, 108
25, 13673, Control_c, 13, 11, 109
25, 13676, Control_c, 13, 11, 110
25, 13679, Control_c, 13, 11, 111
25, 13682, Control_c, 13, 11, 112
25, 13685, Control_c, 13, 11, 113
25, 13688, Control_c, 13, 11, 114
25, 13691, Control_c, 13, 11, 115
25, 13694, Control_c, 13, 11, 116
25, 13696, Note_on_c, 13, 55, 0
25, 13696, Note_on_c, 13, 56, 64
25, 13697, Control_c, 13, 11, 117
25, 13700, Control_c, 13, 11, 118
25, 13703, Control_c, 13, 11, 119
25, 13706, Control_c, 13, 11, 120
25, 13709, Control_c, 13, 11, 121
25, 13712, Control_c, 13, 11, 122
25, 13715, Control_c, 13, 11, 123
25, 13718, Control_c, 13, 11, 124
25, 13721, Control_c, 13, 11, 125
25, 13724, Control_c, 13, 11, 126
25, 13728, Control_c, 13, 11, 127
25, 13731, Control_c, 13, 11, 126
25, 13734, Control_c, 13, 11, 125
25, 13737, Control_c, 13, 11, 124
25, 13740, Control_c, 13, 11, 123
25, 13743, Control_c, 13, 11, 122
25, 13746, Control_c, 13, 11, 121
25, 13749, Control_c, 13, 11, 120
25, 13752, Control_c, 13, 11, 119
25, 13755, Control_c, 13, 11, 118
25, 13758, Control_c, 13, 11, 117
25, 13760, Note_on_c, 13, 56, 0
25, 13760, Note_on_c, 13, 57, 64
25, 13761, Control_c, 13, 11, 116
25, 13764, Control_c, 13, 11, 115
25, 13767, Control_c, 13, 11, 114
25, 13770, Control_c, 13, 11, 113
25, 13773, Control_c, 13, 11, 112
25, 13776, Control_c, 13, 11, 111
25, 13779, Control_c, 13, 11, 110
25, 13782, Control_c, 13, 11, 109
25, 13785, Control_c, 13, 11, 108
25, 13788, Control_c, 13, 11, 107
25, 13792, Control_c, 13, 11, 106
25, 13795, Control_c, 13, 11, 105
25, 13798, Control_c, 13, 11, 104
25, 13801, Control_c, 13, 11, 103
25, 13804, Control_c, 13, 11, 102
25, 13807, Control_c, 13, 11, 101
25, 13810, Control_c, 13, 11, 100
25, 13813, Control_c, 13, 11, 99
25, 13816, Control_c, 13, 11, 98
25, 13819, Control_c, 13, 11, 97
25, 13822, Control_c, 13, 11, 96
25, 13824, Note_on_c, 13, 57, 0
25, 13824, Note_on_c, 13, 63, 59
25, 13825, Control_c, 13, 11, 95
25, 13828, Control_c, 13, 11, 94
25, 13831, Control_c, 13, 11, 93
25, 13834, Control_c, 13, 11, 92
25, 13837, Control_c, 13, 11, 91
25, 13840, Control_c, 13, 11, 90
25, 13843, Control_c, 13, 11, 89
25, 13846, Control_c, 13, 11, 88
25, 13849, Control_c, 13, 11, 87
25, 13852, Control_c, 13, 11, 86
25, 13856, Control_c, 13, 11, 85
25, 13859, Control_c, 13, 11, 84
25, 13862, Control_c, 13, 11, 83
25, 13865, Control_c, 13, 11, 82
25, 13868, Control_c, 13, 11, 81
25, 13871, Control_c, 13, 11, 80
25, 13874, Control_c, 13, 11, 79
25, 13877, Control_c, 13, 11, 78
25, 13880, Control_c, 13, 11, 77
25, 13883, Control_c, 13, 11, 76
25, 13886, Control_c, 13, 11, 75
25, 13889, Control_c, 13, 11, 74
25, 13892, Control_c, 13, 11, 73
25, 13895, Control_c, 13, 11, 72
25, 13898, Control_c, 13, 11, 71
25, 13901, Control_c, 13, 11, 70
25, 13904, Control_c, 13, 11, 69
25, 13907, Control_c, 13, 11, 68
25, 13910, Control_c, 13, 11, 67
25, 13913, Control_c, 13, 11, 66
25, 13916, Control_c, 13, 11, 65
25, 13920, Note_on_c, 13, 63, 0
25, 13920, Control_c, 13, 11, 64
25, 13920, Note_on_c, 13, 57, 58
25, 13952, Note_on_c, 13, 57, 0
25, 14208, Control_c, 13, 11, 127
25, 14592, Program_c, 13, 45
25, 14592, Note_on_c, 13, 48, 91
25, 14686, Note_on_c, 13, 48, 0
25, 16512, Note_on_c, 13, 48, 87
25, 16606, Note_on_c, 13, 48, 0
25, 19200, Control_c, 13, 11, 127
25, 19968, Program_c, 13, 44
25, 19968, Note_on_c, 13, 51, 29
25, 21456, Note_on_c, 13, 51, 0
25, 23808, Program_c, 13, 45
25, 24000, Note_on_c, 13, 54, 90
25, 24160, Note_on_c, 13, 54, 0
25, 29952, Program_c, 13, 44
25, 29952, Control_c, 13, 11, 64
25, 29952, Note_on_c, 13, 59, 94
25, 29952, Note_on_c, 13, 63, 87
25, 29961, Control_c, 13, 11, 65
25, 29970, Control_c, 13, 11, 66
25, 29979, Control_c, 13, 11, 67
25, 29988, Control_c, 13, 11, 68
25, 29997, Control_c, 13, 11, 69
25, 30006, Control_c, 13, 11, 70
25, 30016, Control_c, 13, 11, 71
25, 30025, Control_c, 13, 11, 72
25, 30034, Control_c, 13, 11, 73
25, 30043, Control_c, 13, 11, 74
25, 30052, Control_c, 13, 11, 75
25, 30061, Control_c, 13, 11, 76
25, 30070, Control_c, 13, 11, 77
25, 30080, Control_c, 13, 11, 78
25, 30089, Control_c, 13, 11, 79
25, 30098, Control_c, 13, 11, 80
25, 30107, Control_c, 13, 11, 81
25, 30116, Control_c, 13, 11, 82
25, 30125, Control_c, 13, 11, 83
25, 30134, Control_c, 13, 11, 84
25, 30144, Control_c, 13, 11, 85
25, 30153, Control_c, 13, 11, 86
25, 30162, Control_c, 13, 11, 87
25, 30171, Control_c, 13, 11, 88
25, 30180, Control_c, 13, 11, 89
25, 30189, Control_c, 13, 11, 90
25, 30198, Control_c, 13, 11, 91
25, 30208, Control_c, 13, 11, 92
25, 30217, Control_c, 13, 11, 93
25, 30226, Control_c, 13, 11, 94
25, 30235, Control_c, 13, 11, 95
25, 30244, Control_c, 13, 11, 96
25, 30253, Control_c, 13, 11, 97
25, 30262, Control_c, 13, 11, 98
25, 30272, Control_c, 13, 11, 99
25, 30281, Control_c, 13, 11, 100
25, 30288, Note_on_c, 13, 59, 0
25, 30288, Note_on_c, 13, 63, 0
25, 30290, Control_c, 13, 11, 101
25, 30299, Control_c, 13, 11, 102
25, 30308, Control_c, 13, 11, 103
25, 30317, Control_c, 13, 11, 104
25, 30326, Control_c, 13, 11, 105
25, 30336, Control_c, 13, 11, 106
25, 30336, Note_on_c, 13, 60, 95
25, 30336, Note_on_c, 13, 64, 93
25, 30345, Control_c, 13, 11, 107
25, 30354, Control_c, 13, 11, 108
25, 30363, Control_c, 13, 11, 109
25, 30372, Control_c, 13, 11, 110
25, 30381, Control_c, 13, 11, 111
25, 30390, Control_c, 13, 11, 112
25, 30400, Control_c, 13, 11, 113
25, 30409, Control_c, 13, 11, 114
25, 30418, Control_c, 13, 11, 115
25, 30427, Control_c, 13, 11, 116
25, 30436, Control_c, 13, 11, 117
25, 30445, Control_c, 13, 11, 118
25, 30454, Control_c, 13, 11, 119
25, 30462, Note_on_c, 13, 60, 0
25, 30462, Note_on_c, 13, 64, 0
25, 30464, Control_c, 13, 11, 120
25, 30464, Note_on_c, 13, 61, 97
25, 30464, Note_on_c, 13, 65, 96
25, 30473, Control_c, 13, 11, 121
25, 30482, Control_c, 13, 11, 122
25, 30491, Control_c, 13, 11, 123
25, 30500, Control_c, 13, 11, 124
25, 30509, Control_c, 13, 11, 125
25, 30518, Control_c, 13, 11, 126
25, 30528, Control_c, 13, 11, 127
25, 30624, Note_on_c, 13, 61, 0
25, 30624, Note_on_c, 13, 65, 0
25, 30656, Note_on_c, 13, 60, 95
25, 30656, Note_on_c, 13, 64, 93
25, 30718, Note_on_c, 13, 60, 0
25, 30718, Note_on_c, 13, 64, 0
25, 30720, Note_on_c, 13, 59, 46
25, 30720, Note_on_c, 13, 63, 47
25, 32208, Note_on_c, 13, 59, 0
25, 32208, Note_on_c, 13, 63, 0
25, 32256, Control_c, 13, 11, 64
25, 32256, Note_on_c, 13, 62, 80
25, 32256, Note_on_c, 13, 66, 77
25, 32277, Control_c, 13, 11, 65
25, 32298, Control_c, 13, 11, 66
25, 32320, Control_c, 13, 11, 67
25, 32341, Control_c, 13, 11, 68
25, 32362, Control_c, 13, 11, 69
25, 32384, Control_c, 13, 11, 70
25, 32405, Control_c, 13, 11, 71
25, 32426, Control_c, 13, 11, 72
25, 32448, Control_c, 13, 11, 73
25, 32469, Control_c, 13, 11, 74
25, 32490, Control_c, 13, 11, 75
25, 32512, Control_c, 13, 11, 76
25, 32533, Control_c, 13, 11, 77
25, 32554, Control_c, 13, 11, 78
25, 32576, Control_c, 13, 11, 79
25, 32592, Note_on_c, 13, 62, 0
25, 32592, Note_on_c, 13, 66, 0
25, 32597, Control_c, 13, 11, 80
25, 32618, Control_c, 13, 11, 81
25, 32640, Control_c, 13, 11, 82
25, 32640, Note_on_c, 13, 65, 77
25, 32640, Note_on_c, 13, 69, 73
25, 32661, Control_c, 13, 11, 83
25, 32682, Control_c, 13, 11, 84
25, 32704, Control_c, 13, 11, 85
25, 32725, Control_c, 13, 11, 86
25, 32746, Control_c, 13, 11, 87
25, 32768, Control_c, 13, 11, 88
25, 32789, Control_c, 13, 11, 89
25, 32810, Control_c, 13, 11, 90
25, 32832, Control_c, 13, 11, 91
25, 32853, Control_c, 13, 11, 92
25, 32874, Control_c, 13, 11, 93
25, 32896, Control_c, 13, 11, 94
25, 32917, Control_c, 13, 11, 95
25, 32938, Control_c, 13, 11, 96
25, 32960, Control_c, 13, 11, 97
25, 32976, Note_on_c, 13, 65, 0
25, 32976, Note_on_c, 13, 69, 0
25, 32981, Control_c, 13, 11, 98
25, 33002, Control_c, 13, 11, 99
25, 33024, Control_c, 13, 11, 100
25, 33024, Note_on_c, 13, 65, 78
25, 33024, Note_on_c, 13, 69, 76
25, 33045, Control_c, 13, 11, 101
25, 33066, Control_c, 13, 11, 102
25, 33088, Control_c, 13, 11, 103
25, 33109, Control_c, 13, 11, 104
25, 33130, Control_c, 13, 11, 105
25, 33152, Control_c, 13, 11, 106
25, 33173, Control_c, 13, 11, 107
25, 33194, Control_c, 13, 11, 108
25, 33216, Control_c, 13, 11, 109
25, 33237, Control_c, 13, 11, 110
25, 33258, Control_c, 13, 11, 111
25, 33280, Control_c, 13, 11, 112
25, 33301, Control_c, 13, 11, 113
25, 33322, Control_c, 13, 11, 114
25, 33344, Control_c, 13, 11, 115
25, 33360, Note_on_c, 13, 65, 0
25, 33360, Note_on_c, 13, 69, 0
25, 33365, Control_c, 13, 11, 116
25, 33386, Control_c, 13, 11, 117
25, 33408, Control_c, 13, 11, 118
25, 33408, Note_on_c, 13, 69, 73
25, 33408, Note_on_c, 13, 73, 80
25, 33429, Control_c, 13, 11, 119
25, 33450, Control_c, 13, 11, 120
25, 33472, Control_c, 13, 11, 121
25, 33493, Control_c, 13, 11, 122
25, 33514, Control_c, 13, 11, 123
25, 33536, Control_c, 13, 11, 124
25, 33557, Control_c, 13, 11, 125
25, 33578, Control_c, 13, 11, 126
25, 33600, Control_c, 13, 11, 127
25, 33744, Note_on_c, 13, 69, 0
25, 33744, Note_on_c, 13, 73, 0
25, 33792, Program_c, 13, 48
25, 33888, Note_on_c, 13, 56, 41
25, 33920, Note_on_c, 13, 56, 0
25, 33936, Note_on_c, 13, 56, 46
25, 33968, Note_on_c, 13, 56, 0
25, 33984, Note_on_c, 13, 57, 42
25, 34016, Note_on_c, 13, 57, 0
25, 34032, Note_on_c, 13, 57, 52
25, 34064, Note_on_c, 13, 57, 0
25, 34080, Note_on_c, 13, 59, 56
25, 34112, Note_on_c, 13, 59, 0
25, 34128, Note_on_c, 13, 59, 49
25, 34160, Note_on_c, 13, 59, 0
25, 34176, Note_on_c, 13, 60, 55
25, 34208, Note_on_c, 13, 60, 0
25, 34224, Note_on_c, 13, 60, 61
25, 34256, Note_on_c, 13, 60, 0
25, 34272, Note_on_c, 13, 62, 59
25, 34304, Note_on_c, 13, 62, 0
25, 34320, Note_on_c, 13, 62, 59
25, 34352, Note_on_c, 13, 62, 0
25, 34368, Note_on_c, 13, 66, 65
25, 34400, Note_on_c, 13, 66, 0
25, 34416, Note_on_c, 13, 66, 64
25, 34448, Note_on_c, 13, 66, 0
25, 34464, Note_on_c, 13, 68, 71
25, 34496, Note_on_c, 13, 68, 0
25, 34512, Note_on_c, 13, 68, 76
25, 34544, Note_on_c, 13, 68, 0
25, 34656, Note_on_c, 13, 56, 50
25, 34688, Note_on_c, 13, 56, 0
25, 34704, Note_on_c, 13, 56, 50
25, 34736, Note_on_c, 13, 56, 0
25, 34752, Note_on_c, 13, 57, 52
25, 34784, Note_on_c, 13, 57, 0
25, 34800, Note_on_c, 13, 57, 53
25, 34832, Note_on_c, 13, 57, 0
25, 34848, Note_on_c, 13, 59, 50
25, 34880, Note_on_c, 13, 59, 0
25, 34896, Note_on_c, 13, 59, 55
25, 34928, Note_on_c, 13, 59, 0
25, 34944, Note_on_c, 13, 60, 51
25, 34976, Note_on_c, 13, 60, 0
25, 34992, Note_on_c, 13, 60, 54
25, 35024, Note_on_c, 13, 60, 0
25, 35040, Note_on_c, 13, 62, 59
25, 35072, Note_on_c, 13, 62, 0
25, 35088, Note_on_c, 13, 62, 60
25, 35120, Note_on_c, 13, 62, 0
25, 35136, Note_on_c, 13, 66, 64
25, 35168, Note_on_c, 13, 66, 0
25, 35184, Note_on_c, 13, 66, 73
25, 35216, Note_on_c, 13, 66, 0
25, 35232, Note_on_c, 13, 68, 74
25, 35264, Note_on_c, 13, 68, 0
25, 35280, Note_on_c, 13, 68, 76
25, 35312, Note_on_c, 13, 68, 0
25, 35424, Note_on_c, 13, 56, 43
25, 35456, Note_on_c, 13, 56, 0
25, 35472, Note_on_c, 13, 56, 49
25, 35504, Note_on_c, 13, 56, 0
25, 35520, Note_on_c, 13, 57, 51
25, 35552, Note_on_c, 13, 57, 0
25, 35568, Note_on_c, 13, 57, 52
25, 35600, Note_on_c, 13, 57, 0
25, 35616, Note_on_c, 13, 59, 52
25, 35648, Note_on_c, 13, 59, 0
25, 35664, Note_on_c, 13, 59, 48
25, 35696, Note_on_c, 13, 59, 0
25, 35712, Note_on_c, 13, 60, 60
25, 35744, Note_on_c, 13, 60, 0
25, 35760, Note_on_c, 13, 60, 58
25, 35792, Note_on_c, 13, 60, 0
25, 35808, Note_on_c, 13, 62, 58
25, 35840, Note_on_c, 13, 62, 0
25, 35856, Note_on_c, 13, 62, 61
25, 35888, Note_on_c, 13, 62, 0
25, 35904, Note_on_c, 13, 66, 68
25, 35936, Note_on_c, 13, 66, 0
25, 35952, Note_on_c, 13, 66, 67
25, 35984, Note_on_c, 13, 66, 0
25, 36000, Note_on_c, 13, 68, 76
25, 36032, Note_on_c, 13, 68, 0
25, 36048, Note_on_c, 13, 68, 75
25, 36080, Note_on_c, 13, 68, 0
25, 36192, Note_on_c, 13, 56, 49
25, 36224, Note_on_c, 13, 56, 0
25, 36240, Note_on_c, 13, 56, 43
25, 36272, Note_on_c, 13, 56, 0
25, 36288, Note_on_c, 13, 57, 42
25, 36320, Note_on_c, 13, 57, 0
25, 36336, Note_on_c, 13, 57, 46
25, 36368, Note_on_c, 13, 57, 0
25, 36384, Note_on_c, 13, 59, 55
25, 36416, Note_on_c, 13, 59, 0
25, 36432, Note_on_c, 13, 59, 48
25, 36464, Note_on_c, 13, 59, 0
25, 36480, Note_on_c, 13, 60, 57
25, 36512, Note_on_c, 13, 60, 0
25, 36528, Note_on_c, 13, 60, 60
25, 36560, Note_on_c, 13, 60, 0
25, 36576, Note_on_c, 13, 62, 62
25, 36608, Note_on_c, 13, 62, 0
25, 36624, Note_on_c, 13, 62, 62
25, 36656, Note_on_c, 13, 62, 0
25, 36672, Note_on_c, 13, 66, 63
25, 36704, Note_on_c, 13, 66, 0
25, 36720, Note_on_c, 13, 66, 71
25, 36752, Note_on_c, 13, 66, 0
25, 36768, Note_on_c, 13, 68, 75
25, 36800, Note_on_c, 13, 68, 0
25, 36816, Note_on_c, 13, 68, 72
25, 36848, Note_on_c, 13, 68, 0
25, 36960, Note_on_c, 13, 56, 48
25, 36992, Note_on_c, 13, 56, 0
25, 37008, Note_on_c, 13, 56, 44
25, 37040, Note_on_c, 13, 56, 0
25, 37056, Note_on_c, 13, 57, 42
25, 37088, Note_on_c, 13, 57, 0
25, 37104, Note_on_c, 13, 57, 53
25, 37136, Note_on_c, 13, 57, 0
25, 37152, Note_on_c, 13, 59, 56
25, 37184, Note_on_c, 13, 59, 0
25, 37200, Note_on_c, 13, 59, 53
25, 37232, Note_on_c, 13, 59, 0
25, 37248, Note_on_c, 13, 60, 52
25, 37280, Note_on_c, 13, 60, 0
25, 37296, Note_on_c, 13, 60, 59
25, 37328, Note_on_c, 13, 60, 0
25, 37344, Note_on_c, 13, 62, 61
25, 37376, Note_on_c, 13, 62, 0
25, 37392, Note_on_c, 13, 62, 68
25, 37424, Note_on_c, 13, 62, 0
25, 37440, Note_on_c, 13, 66, 71
25, 37472, Note_on_c, 13, 66, 0
25, 37488, Note_on_c, 13, 66, 70
25, 37520, Note_on_c, 13, 66, 0
25, 37536, Note_on_c, 13, 68, 75
25, 37568, Note_on_c, 13, 68, 0
25, 37584, Note_on_c, 13, 68, 80
25, 37616, Note_on_c, 13, 68, 0
25, 37728, Note_on_c, 13, 56, 45
25, 37760, Note_on_c, 13, 56, 0
25, 37776, Note_on_c, 13, 56, 42
25, 37808, Note_on_c, 13, 56, 0
25, 37824, Note_on_c, 13, 57, 42
25, 37856, Note_on_c, 13, 57, 0
25, 37872, Note_on_c, 13, 57, 51
25, 37904, Note_on_c, 13, 57, 0
25, 37920, Note_on_c, 13, 59, 55
25, 37952, Note_on_c, 13, 59, 0
25, 37968, Note_on_c, 13, 59, 58
25, 38000, Note_on_c, 13, 59, 0
25, 38016, Note_on_c, 13, 60, 51
25, 38048, Note_on_c, 13, 60, 0
25, 38064, Note_on_c, 13, 60, 56
25, 38096, Note_on_c, 13, 60, 0
25, 38112, Note_on_c, 13, 62, 64
25, 38144, Note_on_c, 13, 62, 0
25, 38160, Note_on_c, 13, 62, 68
25, 38192, Note_on_c, 13, 62, 0
25, 38208, Note_on_c, 13, 66, 70
25, 38240, Note_on_c, 13, 66, 0
25, 38256, Note_on_c, 13, 66, 66
25, 38288, Note_on_c, 13, 66, 0
25, 38304, Note_on_c, 13, 68, 77
25, 38336, Note_on_c, 13, 68, 0
25, 38352, Note_on_c, 13, 68, 80
25, 38384, Note_on_c, 13, 68, 0
25, 38496, Note_on_c, 13, 56, 43
25, 38528, Note_on_c, 13, 56, 0
25, 38544, Note_on_c, 13, 56, 41
25, 38576, Note_on_c, 13, 56, 0
25, 38592, Note_on_c, 13, 57, 47
25, 38624, Note_on_c, 13, 57, 0
25, 38640, Note_on_c, 13, 57, 52
25, 38672, Note_on_c, 13, 57, 0
25, 38688, Note_on_c, 13, 59, 47
25, 38720, Note_on_c, 13, 59, 0
25, 38736, Note_on_c, 13, 59, 55
25, 38768, Note_on_c, 13, 59, 0
25, 38784, Note_on_c, 13, 60, 52
25, 38816, Note_on_c, 13, 60, 0
25, 38832, Note_on_c, 13, 60, 56
25, 38864, Note_on_c, 13, 60, 0
25, 38880, Note_on_c, 13, 62, 65
25, 38912, Note_on_c, 13, 62, 0
25, 38928, Note_on_c, 13, 62, 65
25, 38960, Note_on_c, 13, 62, 0
25, 38976, Note_on_c, 13, 66, 67
25, 39008, Note_on_c, 13, 66, 0
25, 39024, Note_on_c, 13, 66, 65
25, 39056, Note_on_c, 13, 66, 0
25, 39072, Note_on_c, 13, 68, 77
25, 39104, Note_on_c, 13, 68, 0
25, 39120, Note_on_c, 13, 68, 73
25, 39152, Note_on_c, 13, 68, 0
25, 39264, Note_on_c, 13, 56, 44
25, 39296, Note_on_c, 13, 56, 0
25, 39312, Note_on_c, 13, 56, 50
25, 39344, Note_on_c, 13, 56, 0
25, 39360, Note_on_c, 13, 57, 43
25, 39392, Note_on_c, 13, 57, 0
25, 39408, Note_on_c, 13, 57, 54
25, 39440, Note_on_c, 13, 57, 0
25, 39456, Note_on_c, 13, 59, 51
25, 39488, Note_on_c, 13, 59, 0
25, 39504, Note_on_c, 13, 59, 53
25, 39536, Note_on_c, 13, 59, 0
25, 39552, Note_on_c, 13, 60, 55
25, 39584, Note_on_c, 13, 60, 0
25, 39600, Note_on_c, 13, 60, 58
25, 39632, Note_on_c, 13, 60, 0
25, 39648, Note_on_c, 13, 62, 60
25, 39680, Note_on_c, 13, 62, 0
25, 39696, Note_on_c, 13, 62, 60
25, 39728, Note_on_c, 13, 62, 0
25, 39744, Note_on_c, 13, 66, 63
25, 39776, Note_on_c, 13, 66, 0
25, 39792, Note_on_c, 13, 66, 71
25, 39824, Note_on_c, 13, 66, 0
25, 39840, Note_on_c, 13, 68, 69
25, 39872, Note_on_c, 13, 68, 0
25, 39888, Note_on_c, 13, 68, 77
25, 39920, Note_on_c, 13, 68, 0
25, 40032, Note_on_c, 13, 56, 77
25, 40064, Note_on_c, 13, 56, 0
25, 40080, Note_on_c, 13, 56, 72
25, 40112, Note_on_c, 13, 56, 0
25, 40128, Note_on_c, 13, 57, 79
25, 40160, Note_on_c, 13, 57, 0
25, 40176, Note_on_c, 13, 57, 73
25, 40208, Note_on_c, 13, 57, 0
25, 40224, Note_on_c, 13, 59, 82
25, 40256, Note_on_c, 13, 59, 0
25, 40272, Note_on_c, 13, 59, 81
25, 40304, Note_on_c, 13, 59, 0
25, 40320, Note_on_c, 13, 60, 84
25, 40352, Note_on_c, 13, 60, 0
25, 40368, Note_on_c, 13, 60, 78
25, 40400, Note_on_c, 13, 60, 0
25, 40416, Note_on_c, 13, 62, 85
25, 40448, Note_on_c, 13, 62, 0
25, 40464, Note_on_c, 13, 62, 83
25, 40496, Note_on_c, 13, 62, 0
25, 40512, Note_on_c, 13, 66, 85
25, 40544, Note_on_c, 13, 66, 0
25, 40560, Note_on_c, 13, 66, 83
25, 40592, Note_on_c, 13, 66, 0
25, 40608, Note_on_c, 13, 68, 94
25, 40640, Note_on_c, 13, 68, 0
25, 40656, Note_on_c, 13, 68, 91
25, 40688, Note_on_c, 13, 68, 0
25, 40800, Note_on_c, 13, 56, 49
25, 40832, Note_on_c, 13, 56, 0
25, 40848, Note_on_c, 13, 56, 46
25, 40880, Note_on_c, 13, 56, 0
25, 40896, Note_on_c, 13, 57, 48
25, 40928, Note_on_c, 13, 57, 0
25, 40944, Note_on_c, 13, 57, 44
25, 40976, Note_on_c, 13, 57, 0
25, 40992, Note_on_c, 13, 59, 49
25, 41024, Note_on_c, 13, 59, 0
25, 41040, Note_on_c, 13, 59, 58
25, 41072, Note_on_c, 13, 59, 0
25, 41088, Note_on_c, 13, 60, 57
25, 41120, Note_on_c, 13, 60, 0
25, 41136, Note_on_c, 13, 60, 53
25, 41168, Note_on_c, 13, 60, 0
25, 41184, Note_on_c, 13, 62, 61
25, 41216, Note_on_c, 13, 62, 0
25, 41232, Note_on_c, 13, 62, 59
25, 41264, Note_on_c, 13, 62, 0
25, 41280, Note_on_c, 13, 66, 67
25, 41312, Note_on_c, 13, 66, 0
25, 41328, Note_on_c, 13, 66, 72
25, 41360, Note_on_c, 13, 66, 0
25, 41376, Note_on_c, 13, 68, 68
25, 41408, Note_on_c, 13, 68, 0
25, 41424, Note_on_c, 13, 68, 71
25, 41456, Note_on_c, 13, 68, 0
25, 41568, Note_on_c, 13, 72, 87
25, 41600, Note_on_c, 13, 72, 0
25, 41664, Note_on_c, 13, 74, 89
25, 41696, Note_on_c, 13, 74, 0
25, 41760, Note_on_c, 13, 76, 88
25, 41792, Note_on_c, 13, 76, 0
25, 41856, Note_on_c, 13, 60, 92
25, 41888, Note_on_c, 13, 60, 0
25, 41952, Note_on_c, 13, 62, 97
25, 41984, Note_on_c, 13, 62, 0
25, 42048, Note_on_c, 13, 64, 101
25, 42080, Note_on_c, 13, 64, 0
25, 42144, Note_on_c, 13, 48, 98
25, 42176, Note_on_c, 13, 48, 0
25, 42240, Note_on_c, 13, 50, 97
25, 42272, Note_on_c, 13, 50, 0
25, 42336, Note_on_c, 13, 52, 94
25, 42368, Note_on_c, 13, 52, 0
25, 42816, Note_on_c, 13, 55, 109
25, 42910, Note_on_c, 13, 55, 0
25, 43200, Program_c, 13, 45
25, 43200, Note_on_c, 13, 56, 103
25, 43294, Note_on_c, 13, 56, 0
25, 43776, Program_c, 13, 48
25, 43872, Note_on_c, 13, 61, 43
25, 43966, Note_on_c, 13, 61, 0
25, 43968, Note_on_c, 13, 62, 41
25, 44030, Note_on_c, 13, 62, 0
25, 44032, Note_on_c, 13, 63, 43
25, 44094, Note_on_c, 13, 63, 0
25, 44096, Note_on_c, 13, 64, 47
25, 44138, Note_on_c, 13, 64, 0
25, 44256, Note_on_c, 13, 61, 50
25, 44350, Note_on_c, 13, 61, 0
25, 44352, Note_on_c, 13, 62, 48
25, 44414, Note_on_c, 13, 62, 0
25, 44416, Note_on_c, 13, 63, 40
25, 44478, Note_on_c, 13, 63, 0
25, 44480, Note_on_c, 13, 64, 42
25, 44522, Note_on_c, 13, 64, 0
25, 44640, Note_on_c, 13, 61, 42
25, 44734, Note_on_c, 13, 61, 0
25, 44736, Note_on_c, 13, 62, 43
25, 44798, Note_on_c, 13, 62, 0
25, 44800, Note_on_c, 13, 63, 45
25, 44862, Note_on_c, 13, 63, 0
25, 44864, Note_on_c, 13, 64, 42
25, 44906, Note_on_c, 13, 64, 0
25, 45024, Note_on_c, 13, 61, 47
25, 45118, Note_on_c, 13, 61, 0
25, 45120, Note_on_c, 13, 62, 43
25, 45182, Note_on_c, 13, 62, 0
25, 45184, Note_on_c, 13, 63, 46
25, 45246, Note_on_c, 13, 63, 0
25, 45248, Note_on_c, 13, 64, 45
25, 45290, Note_on_c, 13, 64, 0
25, 45408, Note_on_c, 13, 61, 48
25, 45502, Note_on_c, 13, 61, 0
25, 45504, Note_on_c, 13, 62, 42
25, 45566, Note_on_c, 13, 62, 0
25, 45568, Note_on_c, 13, 63, 41
25, 45630, Note_on_c, 13, 63, 0
25, 45632, Note_on_c, 13, 64, 42
25, 45674, Note_on_c, 13, 64, 0
25, 45792, Note_on_c, 13, 61, 45
25, 45886, Note_on_c, 13, 61, 0
25, 45888, Note_on_c, 13, 62, 50
25, 45950, Note_on_c, 13, 62, 0
25, 45952, Note_on_c, 13, 63, 50
25, 46014, Note_on_c, 13, 63, 0
25, 46016, Note_on_c, 13, 64, 45
25, 46058, Note_on_c, 13, 64, 0
25, 46176, Note_on_c, 13, 61, 47
25, 46270, Note_on_c, 13, 61, 0
25, 46272, Note_on_c, 13, 62, 49
25, 46334, Note_on_c, 13, 62, 0
25, 46336, Note_on_c, 13, 63, 45
25, 46398, Note_on_c, 13, 63, 0
25, 46400, Note_on_c, 13, 64, 44
25, 46442, Note_on_c, 13, 64, 0
25, 46560, Note_on_c, 13, 61, 41
25, 46654, Note_on_c, 13, 61, 0
25, 46656, Note_on_c, 13, 62, 43
25, 46718, Note_on_c, 13, 62, 0
25, 46720, Note_on_c, 13, 63, 40
25, 46782, Note_on_c, 13, 63, 0
25, 46784, Note_on_c, 13, 64, 47
25, 46826, Note_on_c, 13, 64, 0
25, 46944, Note_on_c, 13, 62, 43
25, 47038, Note_on_c, 13, 62, 0
25, 47040, Note_on_c, 13, 63, 49
25, 47102, Note_on_c, 13, 63, 0
25, 47104, Note_on_c, 13, 64, 43
25, 47166, Note_on_c, 13, 64, 0
25, 47168, Note_on_c, 13, 65, 45
25, 47210, Note_on_c, 13, 65, 0
25, 47328, Note_on_c, 13, 63, 46
25, 47422, Note_on_c, 13, 63, 0
25, 47424, Note_on_c, 13, 64, 42
25, 47486, Note_on_c, 13, 64, 0
25, 47488, Note_on_c, 13, 65, 49
25, 47550, Note_on_c, 13, 65, 0
25, 47552, Note_on_c, 13, 66, 43
25, 47594, Note_on_c, 13, 66, 0
25, 47712, Note_on_c, 13, 56, 42
25, 47806, Note_on_c, 13, 56, 0
25, 47808, Note_on_c, 13, 57, 40
25, 47870, Note_on_c, 13, 57, 0
25, 47872, Note_on_c, 13, 58, 49
25, 47934, Note_on_c, 13, 58, 0
25, 47936, Note_on_c, 13, 59, 41
25, 47978, Note_on_c, 13, 59, 0
25, 48096, Note_on_c, 13, 58, 46
25, 48190, Note_on_c, 13, 58, 0
25, 48192, Note_on_c, 13, 59, 44
25, 48254, Note_on_c, 13, 59, 0
25, 48256, Note_on_c, 13, 60, 43
25, 48318, Note_on_c, 13, 60, 0
25, 48320, Note_on_c, 13, 61, 44
25, 48362, Note_on_c, 13, 61, 0
25, 48480, Note_on_c, 13, 68, 50
25, 48574, Note_on_c, 13, 68, 0
25, 48576, Note_on_c, 13, 72, 51
25, 48638, Note_on_c, 13, 72, 0
25, 48640, Note_on_c, 13, 68, 53
25, 48702, Note_on_c, 13, 68, 0
25, 48704, Note_on_c, 13, 67, 59
25, 48746, Note_on_c, 13, 67, 0
25, 48864, Note_on_c, 13, 66, 65
25, 48958, Note_on_c, 13, 66, 0
25, 48960, Note_on_c, 13, 70, 68
25, 49022, Note_on_c, 13, 70, 0
25, 49024, Note_on_c, 13, 66, 63
25, 49086, Note_on_c, 13, 66, 0
25, 49088, Note_on_c, 13, 65, 70
25, 49130, Note_on_c, 13, 65, 0
25, 49216, Note_on_c, 13, 64, 79
25, 49278, Note_on_c, 13, 64, 0
25, 49280, Note_on_c, 13, 60, 75
25, 49342, Note_on_c, 13, 60, 0
25, 49344, Note_on_c, 13, 58, 81
25, 49406, Note_on_c, 13, 58, 0
25, 49408, Note_on_c, 13, 57, 84
25, 49470, Note_on_c, 13, 57, 0
25, 49472, Note_on_c, 13, 56, 90
25, 49534, Note_on_c, 13, 56, 0
25, 49536, Note_on_c, 13, 55, 95
25, 50448, Note_on_c, 13, 55, 0
25, 50784, Note_on_c, 13, 61, 46
25, 50878, Note_on_c, 13, 61, 0
25, 50880, Note_on_c, 13, 62, 47
25, 50942, Note_on_c, 13, 62, 0
25, 50944, Note_on_c, 13, 63, 44
25, 51006, Note_on_c, 13, 63, 0
25, 51008, Note_on_c, 13, 64, 42
25, 51050, Note_on_c, 13, 64, 0
25, 51168, Note_on_c, 13, 61, 43
25, 51262, Note_on_c, 13, 61, 0
25, 51264, Note_on_c, 13, 62, 47
25, 51326, Note_on_c, 13, 62, 0
25, 51328, Note_on_c, 13, 63, 47
25, 51390, Note_on_c, 13, 63, 0
25, 51392, Note_on_c, 13, 64, 42
25, 51434, Note_on_c, 13, 64, 0
25, 51552, Note_on_c, 13, 61, 45
25, 51646, Note_on_c, 13, 61, 0
25, 51648, Note_on_c, 13, 62, 47
25, 51710, Note_on_c, 13, 62, 0
25, 51712, Note_on_c, 13, 63, 40
25, 51774, Note_on_c, 13, 63, 0
25, 51776, Note_on_c, 13, 64, 45
25, 51818, Note_on_c, 13, 64, 0
25, 51936, Note_on_c, 13, 61, 45
25, 52030, Note_on_c, 13, 61, 0
25, 52032, Note_on_c, 13, 62, 46
25, 52094, Note_on_c, 13, 62, 0
25, 52096, Note_on_c, 13, 63, 47
25, 52158, Note_on_c, 13, 63, 0
25, 52160, Note_on_c, 13, 64, 46
25, 52202, Note_on_c, 13, 64, 0
25, 52320, Note_on_c, 13, 61, 50
25, 52414, Note_on_c, 13, 61, 0
25, 52416, Note_on_c, 13, 62, 48
25, 52478, Note_on_c, 13, 62, 0
25, 52480, Note_on_c, 13, 63, 46
25, 52542, Note_on_c, 13, 63, 0
25, 52544, Note_on_c, 13, 64, 50
25, 52586, Note_on_c, 13, 64, 0
25, 52704, Note_on_c, 13, 61, 50
25, 52798, Note_on_c, 13, 61, 0
25, 52800, Note_on_c, 13, 62, 45
25, 52862, Note_on_c, 13, 62, 0
25, 52864, Note_on_c, 13, 63, 46
25, 52926, Note_on_c, 13, 63, 0
25, 52928, Note_on_c, 13, 64, 46
25, 52970, Note_on_c, 13, 64, 0
25, 53088, Note_on_c, 13, 61, 47
25, 53182, Note_on_c, 13, 61, 0
25, 53184, Note_on_c, 13, 62, 43
25, 53246, Note_on_c, 13, 62, 0
25, 53248, Note_on_c, 13, 63, 47
25, 53310, Note_on_c, 13, 63, 0
25, 53312, Note_on_c, 13, 64, 41
25, 53354, Note_on_c, 13, 64, 0
25, 53472, Note_on_c, 13, 61, 46
25, 53566, Note_on_c, 13, 61, 0
25, 53568, Note_on_c, 13, 62, 46
25, 53630, Note_on_c, 13, 62, 0
25, 53632, Note_on_c, 13, 63, 49
25, 53694, Note_on_c, 13, 63, 0
25, 53696, Note_on_c, 13, 64, 40
25, 53738, Note_on_c, 13, 64, 0
25, 53856, Note_on_c, 13, 62, 47
25, 53950, Note_on_c, 13, 62, 0
25, 53952, Note_on_c, 13, 63, 50
25, 54014, Note_on_c, 13, 63, 0
25, 54016, Note_on_c, 13, 64, 50
25, 54078, Note_on_c, 13, 64, 0
25, 54080, Note_on_c, 13, 65, 51
25, 54122, Note_on_c, 13, 65, 0
25, 54240, Note_on_c, 13, 63, 52
25, 54334, Note_on_c, 13, 63, 0
25, 54336, Note_on_c, 13, 64, 58
25, 54398, Note_on_c, 13, 64, 0
25, 54400, Note_on_c, 13, 65, 58
25, 54462, Note_on_c, 13, 65, 0
25, 54464, Note_on_c, 13, 66, 55
25, 54506, Note_on_c, 13, 66, 0
25, 54624, Note_on_c, 13, 56, 58
25, 54718, Note_on_c, 13, 56, 0
25, 54720, Note_on_c, 13, 57, 65
25, 54782, Note_on_c, 13, 57, 0
25, 54784, Note_on_c, 13, 58, 63
25, 54846, Note_on_c, 13, 58, 0
25, 54848, Note_on_c, 13, 59, 70
25, 54890, Note_on_c, 13, 59, 0
25, 55008, Note_on_c, 13, 58, 77
25, 55102, Note_on_c, 13, 58, 0
25, 55104, Note_on_c, 13, 59, 70
25, 55166, Note_on_c, 13, 59, 0
25, 55168, Note_on_c, 13, 60, 70
25, 55230, Note_on_c, 13, 60, 0
25, 55232, Note_on_c, 13, 61, 65
25, 55274, Note_on_c, 13, 61, 0
25, 55392, Note_on_c, 13, 58, 56
25, 55486, Note_on_c, 13, 58, 0
25, 55488, Note_on_c, 13, 59, 50
25, 55550, Note_on_c, 13, 59, 0
25, 55552, Note_on_c, 13, 60, 48
25, 55614, Note_on_c, 13, 60, 0
25, 55616, Note_on_c, 13, 61, 48
25, 55658, Note_on_c, 13, 61, 0
25, 55872, Note_on_c, 13, 58, 44
25, 55904, Note_on_c, 13, 58, 0
25, 56064, Note_on_c, 13, 52, 33
25, 56064, Note_on_c, 13, 57, 28
25, 56064, Note_on_c, 13, 62, 28
25, 56158, Note_on_c, 13, 52, 0
25, 56158, Note_on_c, 13, 57, 0
25, 56158, Note_on_c, 13, 62, 0
25, 56448, Note_on_c, 13, 52, 28
25, 56448, Note_on_c, 13, 57, 31
25, 56448, Note_on_c, 13, 62, 28
25, 56542, Note_on_c, 13, 52, 0
25, 56542, Note_on_c, 13, 57, 0
25, 56542, Note_on_c, 13, 62, 0
25, 56832, Note_on_c, 13, 52, 31
25, 56832, Note_on_c, 13, 57, 25
25, 56832, Note_on_c, 13, 62, 31
25, 56926, Note_on_c, 13, 52, 0
25, 56926, Note_on_c, 13, 57, 0
25, 56926, Note_on_c, 13, 62, 0
25, 57216, Note_on_c, 13, 52, 35
25, 57216, Note_on_c, 13, 57, 34
25, 57216, Note_on_c, 13, 62, 35
25, 57310, Note_on_c, 13, 52, 0
25, 57310, Note_on_c, 13, 57, 0
25, 57310, Note_on_c, 13, 62, 0
25, 57600, Note_on_c, 13, 52, 27
25, 57600, Note_on_c, 13, 57, 35
25, 57600, Note_on_c, 13, 63, 32
25, 57694, Note_on_c, 13, 52, 0
25, 57694, Note_on_c, 13, 57, 0
25, 57694, Note_on_c, 13, 63, 0
25, 57984, Note_on_c, 13, 52, 32
25, 57984, Note_on_c, 13, 57, 26
25, 57984, Note_on_c, 13, 63, 33
25, 58078, Note_on_c, 13, 52, 0
25, 58078, Note_on_c, 13, 57, 0
25, 58078, Note_on_c, 13, 63, 0
25, 58368, Note_on_c, 13, 52, 27
25, 58368, Note_on_c, 13, 57, 30
25, 58368, Note_on_c, 13, 62, 30
25, 58462, Note_on_c, 13, 52, 0
25, 58462, Note_on_c, 13, 57, 0
25, 58462, Note_on_c, 13, 62, 0
25, 58752, Note_on_c, 13, 52, 29
25, 58752, Note_on_c, 13, 57, 34
25, 58752, Note_on_c, 13, 62, 26
25, 58846, Note_on_c, 13, 52, 0
25, 58846, Note_on_c, 13, 57, 0
25, 58846, Note_on_c, 13, 62, 0
25, 59136, Note_on_c, 13, 52, 33
25, 59136, Note_on_c, 13, 57, 33
25, 59136, Note_on_c, 13, 62, 32
25, 59230, Note_on_c, 13, 52, 0
25, 59230, Note_on_c, 13, 57, 0
25, 59230, Note_on_c, 13, 62, 0
25, 59520, Note_on_c, 13, 52, 34
25, 59520, Note_on_c, 13, 57, 30
25, 59520, Note_on_c, 13, 62, 29
25, 59614, Note_on_c, 13, 52, 0
25, 59614, Note_on_c, 13, 57, 0
25, 59614, Note_on_c, 13, 62, 0
25, 59904, Note_on_c, 13, 52, 32
25, 59904, Note_on_c, 13, 57, 28
25, 59904, Note_on_c, 13, 62, 35
25, 59998, Note_on_c, 13, 52, 0
25, 59998, Note_on_c, 13, 57, 0
25, 59998, Note_on_c, 13, 62, 0
25, 60288, Note_on_c, 13, 52, 26
25, 60288, Note_on_c, 13, 57, 25
25, 60288, Note_on_c, 13, 62, 26
25, 60382, Note_on_c, 13, 52, 0
25, 60382, Note_on_c, 13, 57, 0
25, 60382, Note_on_c, 13, 62, 0
25, 60672, Note_on_c, 13, 57, 26
25, 60766, Note_on_c, 13, 57, 0
25, 61056, Note_on_c, 13, 57, 43
25, 61150, Note_on_c, 13, 57, 0
25, 61440, Note_on_c, 13, 61, 53
25, 61534, Note_on_c, 13, 61, 0
25, 61824, Note_on_c, 13, 61, 62
25, 61918, Note_on_c, 13, 61, 0
25, 62592, Note_on_c, 13, 64, 91
25, 62624, Note_on_c, 13, 64, 0
25, 62688, Note_on_c, 13, 60, 92
25, 62720, Note_on_c, 13, 60, 0
25, 62784, Note_on_c, 13, 59, 104
25, 62816, Note_on_c, 13, 59, 0
25, 62880, Note_on_c, 13, 55, 112
25, 62912, Note_on_c, 13, 55, 0
25, 63360, Note_on_c, 13, 60, 93
25, 63392, Note_on_c, 13, 60, 0
25, 63456, Note_on_c, 13, 56, 96
25, 63488, Note_on_c, 13, 56, 0
25, 63552, Note_on_c, 13, 55, 98
25, 63584, Note_on_c, 13, 55, 0
25, 63648, Note_on_c, 13, 51, 109
25, 63680, Note_on_c, 13, 51, 0
25, 63936, Note_on_c, 13, 55, 40
25, 63998, Note_on_c, 13, 55, 0
25, 64000, Note_on_c, 13, 57, 40
25, 64062, Note_on_c, 13, 57, 0
25, 64064, Note_on_c, 13, 59, 54
25, 64126, Note_on_c, 13, 59, 0
25, 64128, Note_on_c, 13, 60, 56
25, 64190, Note_on_c, 13, 60, 0
25, 64192, Note_on_c, 13, 62, 62
25, 64254, Note_on_c, 13, 62, 0
25, 64256, Note_on_c, 13, 64, 74
25, 64318, Note_on_c, 13, 64, 0
25, 64320, Note_on_c, 13, 65, 73
25, 64382, Note_on_c, 13, 65, 0
25, 64384, Note_on_c, 13, 67, 86
25, 64446, Note_on_c, 13, 67, 0
25, 64448, Note_on_c, 13, 71, 91
25, 64510, Note_on_c, 13, 71, 0
25, 64704, Note_on_c, 13, 55, 44
25, 64766, Note_on_c, 13, 55, 0
25, 64768, Note_on_c, 13, 57, 47
25, 64830, Note_on_c, 13, 57, 0
25, 64832, Note_on_c, 13, 59, 48
25, 64894, Note_on_c, 13, 59, 0
25, 64896, Note_on_c, 13, 60, 58
25, 64958, Note_on_c, 13, 60, 0
25, 64960, Note_on_c, 13, 62, 62
25, 65022, Note_on_c, 13, 62, 0
25, 65024, Note_on_c, 13, 64, 72
25, 65086, Note_on_c, 13, 64, 0
25, 65088, Note_on_c, 13, 65, 81
25, 65150, Note_on_c, 13, 65, 0
25, 65152, Note_on_c, 13, 67, 89
25, 65214, Note_on_c, 13, 67, 0
25, 65216, Note_on_c, 13, 71, 97
25, 65278, Note_on_c, 13, 71, 0
25, 66048, Note_on_c, 13, 64, 93
25, 66208, Note_on_c, 13, 64, 0
25, 67584, Program_c, 13, 45
25, 67584, Note_on_c, 13, 64, 96
25, 67678, Note_on_c, 13, 64, 0
25, 68352, Program_c, 13, 48
25, 69120, Note_on_c, 13, 62, 76
25, 69120, Note_on_c, 13, 66, 79
25, 69214, Note_on_c, 13, 62, 0
25, 69214, Note_on_c, 13, 66, 0
25, 69216, Note_on_c, 13, 62, 71
25, 69216, Note_on_c, 13, 66, 75
25, 69246, Note_on_c, 13, 62, 0
25, 69246, Note_on_c, 13, 66, 0
25, 69248, Note_on_c, 13, 62, 77
25, 69248, Note_on_c, 13, 66, 72
25, 69374, Note_on_c, 13, 62, 0
25, 69374, Note_on_c, 13, 66, 0
25, 69376, Note_on_c, 13, 62, 79
25, 69376, Note_on_c, 13, 66, 77
25, 69438, Note_on_c, 13, 62, 0
25, 69438, Note_on_c, 13, 66, 0
25, 69440, Note_on_c, 13, 62, 74
25, 69440, Note_on_c, 13, 66, 73
25, 69502, Note_on_c, 13, 62, 0
25, 69502, Note_on_c, 13, 66, 0
25, 69888, Note_on_c, 13, 61, 42
25, 69918, Note_on_c, 13, 61, 0
25, 69920, Note_on_c, 13, 63, 40
25, 69950, Note_on_c, 13, 63, 0
25, 69952, Note_on_c, 13, 61, 50
25, 69982, Note_on_c, 13, 61, 0
25, 69984, Note_on_c, 13, 63, 49
25, 70014, Note_on_c, 13, 63, 0
25, 70016, Note_on_c, 13, 61, 52
25, 70046, Note_on_c, 13, 61, 0
25, 70048, Note_on_c, 13, 63, 56
25, 70078, Note_on_c, 13, 63, 0
25, 70080, Note_on_c, 13, 61, 55
25, 70110, Note_on_c, 13, 61, 0
25, 70112, Note_on_c, 13, 63, 54
25, 70142, Note_on_c, 13, 63, 0
25, 70144, Note_on_c, 13, 61, 54
25, 70174, Note_on_c, 13, 61, 0
25, 70176, Note_on_c, 13, 63, 61
25, 70206, Note_on_c, 13, 63, 0
25, 70208, Note_on_c, 13, 61, 66
25, 70238, Note_on_c, 13, 61, 0
25, 70240, Note_on_c, 13, 63, 61
25, 70270, Note_on_c, 13, 63, 0
25, 70272, Note_on_c, 13, 61, 66
25, 70302, Note_on_c, 13, 61, 0
25, 70304, Note_on_c, 13, 63, 65
25, 70334, Note_on_c, 13, 63, 0
25, 70336, Note_on_c, 13, 61, 75
25, 70366, Note_on_c, 13, 61, 0
25, 70368, Note_on_c, 13, 63, 68
25, 70398, Note_on_c, 13, 63, 0
25, 70400, Note_on_c, 13, 61, 72
25, 70430, Note_on_c, 13, 61, 0
25, 70432, Note_on_c, 13, 63, 73
25, 70462, Note_on_c, 13, 63, 0
25, 70464, Note_on_c, 13, 61, 76
25, 70494, Note_on_c, 13, 61, 0
25, 70496, Note_on_c, 13, 63, 85
25, 70526, Note_on_c, 13, 63, 0
25, 70528, Note_on_c, 13, 61, 88
25, 70558, Note_on_c, 13, 61, 0
25, 70560, Note_on_c, 13, 63, 90
25, 70590, Note_on_c, 13, 63, 0
25, 70592, Note_on_c, 13, 61, 90
25, 70622, Note_on_c, 13, 61, 0
25, 70624, Note_on_c, 13, 63, 92
25, 70654, Note_on_c, 13, 63, 0
25, 70656, Note_on_c, 13, 61, 91
25, 70686, Note_on_c, 13, 61, 0
25, 70688, Note_on_c, 13, 63, 84
25, 70718, Note_on_c, 13, 63, 0
25, 70720, Note_on_c, 13, 61, 89
25, 70750, Note_on_c, 13, 61, 0
25, 70752, Note_on_c, 13, 63, 82
25, 70782, Note_on_c, 13, 63, 0
25, 70784, Note_on_c, 13, 61, 74
25, 70814, Note_on_c, 13, 61, 0
25, 70816, Note_on_c, 13, 63, 76
25, 70846, Note_on_c, 13, 63, 0
25, 70848, Note_on_c, 13, 61, 70
25, 70878, Note_on_c, 13, 61, 0
25, 70880, Note_on_c, 13, 63, 63
25, 70910, Note_on_c, 13, 63, 0
25, 70912, Note_on_c, 13, 61, 59
25, 70942, Note_on_c, 13, 61, 0
25, 70944, Note_on_c, 13, 63, 61
25, 70974, Note_on_c, 13, 63, 0
25, 70976, Note_on_c, 13, 61, 52
25, 71006, Note_on_c, 13, 61, 0
25, 71008, Note_on_c, 13, 63, 54
25, 71038, Note_on_c, 13, 63, 0
25, 71040, Note_on_c, 13, 63, 41
25, 71134, Note_on_c, 13, 63, 0
25, 71616, Note_on_c, 13, 48, 41
25, 71678, Note_on_c, 13, 48, 0
25, 71680, Note_on_c, 13, 50, 47
25, 71742, Note_on_c, 13, 50, 0
25, 71744, Note_on_c, 13, 52, 46
25, 71806, Note_on_c, 13, 52, 0
25, 71808, Note_on_c, 13, 53, 54
25, 71870, Note_on_c, 13, 53, 0
25, 71872, Note_on_c, 13, 55, 69
25, 71934, Note_on_c, 13, 55, 0
25, 71936, Note_on_c, 13, 57, 74
25, 71998, Note_on_c, 13, 57, 0
25, 72000, Note_on_c, 13, 58, 82
25, 72062, Note_on_c, 13, 58, 0
25, 72064, Note_on_c, 13, 60, 81
25, 72126, Note_on_c, 13, 60, 0
25, 72128, Note_on_c, 13, 64, 96
25, 72190, Note_on_c, 13, 64, 0
25, 72384, Note_on_c, 13, 60, 48
25, 72446, Note_on_c, 13, 60, 0
25, 72448, Note_on_c, 13, 62, 49
25, 72510, Note_on_c, 13, 62, 0
25, 72512, Note_on_c, 13, 64, 53
25, 72574, Note_on_c, 13, 64, 0
25, 72576, Note_on_c, 13, 65, 58
25, 72638, Note_on_c, 13, 65, 0
25, 72640, Note_on_c, 13, 67, 70
25, 72702, Note_on_c, 13, 67, 0
25, 72704, Note_on_c, 13, 69, 80
25, 72766, Note_on_c, 13, 69, 0
25, 72768, Note_on_c, 13, 70, 94
25, 72830, Note_on_c, 13, 70, 0
25, 72832, Note_on_c, 13, 72, 91
25, 72894, Note_on_c, 13, 72, 0
25, 72896, Note_on_c, 13, 76, 90
25, 72958, Note_on_c, 13, 76, 0
25, 72960, Control_c, 13, 11, 127
25, 72960, Note_on_c, 13, 75, 93
25, 72965, Control_c, 13, 11, 126
25, 72970, Control_c, 13, 11, 125
25, 72976, Control_c, 13, 11, 124
25, 72981, Control_c, 13, 11, 123
25, 72987, Control_c, 13, 11, 122
25, 72992, Control_c, 13, 11, 121
25, 72998, Control_c, 13, 11, 120
25, 73003, Control_c, 13, 11, 119
25, 73009, Control_c, 13, 11, 118
25, 73014, Control_c, 13, 11, 117
25, 73020, Control_c, 13, 11, 116
25, 73025, Control_c, 13, 11, 115
25, 73031, Control_c, 13, 11, 114
25, 73036, Control_c, 13, 11, 113
25, 73042, Control_c, 13, 11, 112
25, 73047, Control_c, 13, 11, 111
25, 73053, Control_c, 13, 11, 110
25, 73054, Note_on_c, 13, 75, 0
25, 73056, Note_on_c, 13, 69, 87
25, 73058, Control_c, 13, 11, 109
25, 73064, Control_c, 13, 11, 108
25, 73069, Control_c, 13, 11, 107
25, 73075, Control_c, 13, 11, 106
25, 73080, Control_c, 13, 11, 105
25, 73086, Control_c, 13, 11, 104
25, 73091, Control_c, 13, 11, 103
25, 73097, Control_c, 13, 11, 102
25, 73098, Note_on_c, 13, 69, 0
25, 73102, Control_c, 13, 11, 101
25, 73108, Control_c, 13, 11, 100
25, 73113, Control_c, 13, 11, 99
25, 73119, Control_c, 13, 11, 98
25, 73120, Note_on_c, 13, 63, 93
25, 73124, Control_c, 13, 11, 97
25, 73130, Control_c, 13, 11, 96
25, 73135, Control_c, 13, 11, 95
25, 73141, Control_c, 13, 11, 94
25, 73146, Control_c, 13, 11, 93
25, 73150, Note_on_c, 13, 63, 0
25, 73152, Control_c, 13, 11, 92
25, 73152, Note_on_c, 13, 57, 87
25, 73246, Note_on_c, 13, 57, 0
25, 73248, Note_on_c, 13, 63, 94
25, 73290, Note_on_c, 13, 63, 0
25, 73312, Note_on_c, 13, 69, 95
25, 73342, Note_on_c, 13, 69, 0
25, 73344, Control_c, 13, 11, 127
25, 73344, Note_on_c, 13, 75, 91
25, 73349, Control_c, 13, 11, 126
25, 73354, Control_c, 13, 11, 125
25, 73360, Control_c, 13, 11, 124
25, 73365, Control_c, 13, 11, 123
25, 73371, Control_c, 13, 11, 122
25, 73376, Control_c, 13, 11, 121
25, 73382, Control_c, 13, 11, 120
25, 73387, Control_c, 13, 11, 119
25, 73393, Control_c, 13, 11, 118
25, 73398, Control_c, 13, 11, 117
25, 73404, Control_c, 13, 11, 116
25, 73409, Control_c, 13, 11, 115
25, 73415, Control_c, 13, 11, 114
25, 73420, Control_c, 13, 11, 113
25, 73426, Control_c, 13, 11, 112
25, 73431, Control_c, 13, 11, 111
25, 73437, Control_c, 13, 11, 110
25, 73438, Note_on_c, 13, 75, 0
25, 73440, Note_on_c, 13, 69, 88
25, 73442, Control_c, 13, 11, 109
25, 73448, Control_c, 13, 11, 108
25, 73453, Control_c, 13, 11, 107
25, 73459, Control_c, 13, 11, 106
25, 73464, Control_c, 13, 11, 105
25, 73470, Control_c, 13, 11, 104
25, 73475, Control_c, 13, 11, 103
25, 73481, Control_c, 13, 11, 102
25, 73482, Note_on_c, 13, 69, 0
25, 73486, Control_c, 13, 11, 101
25, 73492, Control_c, 13, 11, 100
25, 73497, Control_c, 13, 11, 99
25, 73503, Control_c, 13, 11, 98
25, 73504, Note_on_c, 13, 63, 89
25, 73508, Control_c, 13, 11, 97
25, 73514, Control_c, 13, 11, 96
25, 73519, Control_c, 13, 11, 95
25, 73525, Control_c, 13, 11, 94
25, 73530, Control_c, 13, 11, 93
25, 73534, Note_on_c, 13, 63, 0
25, 73536, Control_c, 13, 11, 92
25, 73536, Note_on_c, 13, 57, 89
25, 73630, Note_on_c, 13, 57, 0
25, 73632, Note_on_c, 13, 63, 89
25, 73674, Note_on_c, 13, 63, 0
25, 73696, Note_on_c, 13, 69, 92
25, 73726, Note_on_c, 13, 69, 0
25, 73728, Note_on_c, 13, 75, 87
25, 73822, Note_on_c, 13, 75, 0
25, 73824, Note_on_c, 13, 69, 88
25, 73866, Note_on_c, 13, 69, 0
25, 73888, Note_on_c, 13, 63, 97
25, 73918, Note_on_c, 13, 63, 0
25, 73920, Note_on_c, 13, 57, 88
25, 74014, Note_on_c, 13, 57, 0
25, 74016, Note_on_c, 13, 63, 87
25, 74058, Note_on_c, 13, 63, 0
25, 74080, Note_on_c, 13, 69, 90
25, 74110, Note_on_c, 13, 69, 0
25, 74112, Note_on_c, 13, 75, 94
25, 74206, Note_on_c, 13, 75, 0
25, 74208, Note_on_c, 13, 69, 97
25, 74250, Note_on_c, 13, 69, 0
25, 74272, Note_on_c, 13, 63, 91
25, 74302, Note_on_c, 13, 63, 0
25, 74304, Note_on_c, 13, 57, 91
25, 74398, Note_on_c, 13, 57, 0
25, 74400, Note_on_c, 13, 63, 91
25, 74442, Note_on_c, 13, 63, 0
25, 74464, Note_on_c, 13, 69, 97
25, 74494, Note_on_c, 13, 69, 0
25, 74496, Note_on_c, 13, 75, 93
25, 74590, Note_on_c, 13, 75, 0
25, 74592, Note_on_c, 13, 69, 96
25, 74634, Note_on_c, 13, 69, 0
25, 74656, Note_on_c, 13, 63, 97
25, 74686, Note_on_c, 13, 63, 0
25, 74688, Note_on_c, 13, 57, 88
25, 74782, Note_on_c, 13, 57, 0
25, 74784, Note_on_c, 13, 63, 87
25, 74826, Note_on_c, 13, 63, 0
25, 74848, Note_on_c, 13, 69, 97
25, 74878, Note_on_c, 13, 69, 0
25, 74880, Note_on_c, 13, 75, 93
25, 74974, Note_on_c, 13, 75, 0
25, 74976, Note_on_c, 13, 69, 92
25, 75018, Note_on_c, 13, 69, 0
25, 75040, Note_on_c, 13, 63, 91
25, 75070, Note_on_c, 13, 63, 0
25, 75072, Note_on_c, 13, 57, 90
25, 75166, Note_on_c, 13, 57, 0
25, 75168, Note_on_c, 13, 63, 87
25, 75210, Note_on_c, 13, 63, 0
25, 75232, Note_on_c, 13, 69, 88
25, 75262, Note_on_c, 13, 69, 0
25, 75264, Note_on_c, 13, 75, 97
25, 75358, Note_on_c, 13, 75, 0
25, 75360, Note_on_c, 13, 69, 93
25, 75402, Note_on_c, 13, 69, 0
25, 75424, Note_on_c, 13, 63, 86
25, 75454, Note_on_c, 13, 63, 0
25, 75456, Note_on_c, 13, 57, 84
25, 75550, Note_on_c, 13, 57, 0
25, 75552, Note_on_c, 13, 63, 78
25, 75594, Note_on_c, 13, 63, 0
25, 75616, Note_on_c, 13, 69, 84
25, 75646, Note_on_c, 13, 69, 0
25, 75648, Note_on_c, 13, 75, 73
25, 75742, Note_on_c, 13, 75, 0
25, 75744, Note_on_c, 13, 69, 74
25, 75786, Note_on_c, 13, 69, 0
25, 75808, Note_on_c, 13, 63, 67
25, 75838, Note_on_c, 13, 63, 0
25, 75840, Note_on_c, 13, 57, 65
25, 75934, Note_on_c, 13, 57, 0
25, 75936, Note_on_c, 13, 63, 69
25, 75978, Note_on_c, 13, 63, 0
25, 76000, Note_on_c, 13, 69, 57
25, 76030, Note_on_c, 13, 69, 0
25, 76032, Note_on_c, 13, 75, 57
25, 76126, Note_on_c, 13, 75, 0
25, 76128, Note_on_c, 13, 69, 65
25, 76170, Note_on_c, 13, 69, 0
25, 76192, Note_on_c, 13, 63, 62
25, 76222, Note_on_c, 13, 63, 0
25, 76224, Note_on_c, 13, 57, 60
25, 76318, Note_on_c, 13, 57, 0
25, 76320, Note_on_c, 13, 63, 57
25, 76362, Note_on_c, 13, 63, 0
25, 76384, Note_on_c, 13, 69, 59
25, 76414, Note_on_c, 13, 69, 0
25, 76416, Note_on_c, 13, 75, 62
25, 76510, Note_on_c, 13, 75, 0
25, 76512, Note_on_c, 13, 69, 59
25, 76554, Note_on_c, 13, 69, 0
25, 76576, Note_on_c, 13, 63, 57
25, 76606, Note_on_c, 13, 63, 0
25, 76608, Note_on_c, 13, 57, 56
25, 76702, Note_on_c, 13, 57, 0
25, 76704, Note_on_c, 13, 63, 60
25, 76746, Note_on_c, 13, 63, 0
25, 76768, Note_on_c, 13, 69, 60
25, 76798, Note_on_c, 13, 69, 0
25, 76800, Note_on_c, 13, 75, 59
25, 76894, Note_on_c, 13, 75, 0
25, 76896, Note_on_c, 13, 69, 57
25, 76938, Note_on_c, 13, 69, 0
25, 76960, Note_on_c, 13, 63, 62
25, 76990, Note_on_c, 13, 63, 0
25, 76992, Note_on_c, 13, 57, 61
25, 77086, Note_on_c, 13, 57, 0
25, 77088, Note_on_c, 13, 63, 55
25, 77130, Note_on_c, 13, 63, 0
25, 77152, Note_on_c, 13, 69, 57
25, 77182, Note_on_c, 13, 69, 0
25, 77184, Note_on_c, 13, 75, 60
25, 77278, Note_on_c, 13, 75, 0
25, 77280, Note_on_c, 13, 69, 63
25, 77322, Note_on_c, 13, 69, 0
25, 77344, Note_on_c, 13, 63, 57
25, 77374, Note_on_c, 13, 63, 0
25, 77376, Note_on_c, 13, 57, 59
25, 77470, Note_on_c, 13, 57, 0
25, 77472, Note_on_c, 13, 63, 60
25, 77514, Note_on_c, 13, 63, 0
25, 77536, Note_on_c, 13, 69, 55
25, 77566, Note_on_c, 13, 69, 0
25, 77568, Note_on_c, 13, 75, 58
25, 77662, Note_on_c, 13, 75, 0
25, 77664, Note_on_c, 13, 69, 63
25, 77706, Note_on_c, 13, 69, 0
25, 77728, Note_on_c, 13, 63, 63
25, 77758, Note_on_c, 13, 63, 0
25, 77760, Note_on_c, 13, 57, 62
25, 77854, Note_on_c, 13, 57, 0
25, 77856, Note_on_c, 13, 63, 61
25, 77898, Note_on_c, 13, 63, 0
25, 77920, Note_on_c, 13, 69, 61
25, 77950, Note_on_c, 13, 69, 0
25, 77952, Note_on_c, 13, 75, 59
25, 78046, Note_on_c, 13, 75, 0
25, 78048, Note_on_c, 13, 69, 62
25, 78090, Note_on_c, 13, 69, 0
25, 78112, Note_on_c, 13, 63, 55
25, 78142, Note_on_c, 13, 63, 0
25, 78144, Note_on_c, 13, 57, 60
25, 78238, Note_on_c, 13, 57, 0
25, 78240, Note_on_c, 13, 63, 56
25, 78282, Note_on_c, 13, 63, 0
25, 78304, Note_on_c, 13, 69, 58
25, 78334, Note_on_c, 13, 69, 0
25, 78336, Note_on_c, 13, 75, 62
25, 78430, Note_on_c, 13, 75, 0
25, 78432, Note_on_c, 13, 69, 59
25, 78474, Note_on_c, 13, 69, 0
25, 78496, Note_on_c, 13, 63, 61
25, 78526, Note_on_c, 13, 63, 0
25, 78528, Note_on_c, 13, 57, 56
25, 78622, Note_on_c, 13, 57, 0
25, 78624, Note_on_c, 13, 63, 65
25, 78666, Note_on_c, 13, 63, 0
25, 78688, Note_on_c, 13, 69, 56
25, 78718, Note_on_c, 13, 69, 0
25, 78720, Note_on_c, 13, 75, 58
25, 78814, Note_on_c, 13, 75, 0
25, 78816, Note_on_c, 13, 69, 65
25, 78858, Note_on_c, 13, 69, 0
25, 78880, Note_on_c, 13, 63, 62
25, 78910, Note_on_c, 13, 63, 0
25, 78912, Note_on_c, 13, 57, 61
25, 79006, Note_on_c, 13, 57, 0
25, 79008, Note_on_c, 13, 63, 60
25, 79050, Note_on_c, 13, 63, 0
25, 79072, Note_on_c, 13, 69, 57
25, 79102, Note_on_c, 13, 69, 0
25, 79104, Control_c, 13, 11, 127
25, 79104, Note_on_c, 13, 75, 94
25, 79198, Note_on_c, 13, 75, 0
25, 79200, Note_on_c, 13, 69, 96
25, 79242, Note_on_c, 13, 69, 0
25, 79264, Note_on_c, 13, 63, 87
25, 79294, Note_on_c, 13, 63, 0
25, 79296, Note_on_c, 13, 57, 89
25, 79390, Note_on_c, 13, 57, 0
25, 79392, Note_on_c, 13, 63, 90
25, 79434, Note_on_c, 13, 63, 0
25, 79456, Note_on_c, 13, 69, 90
25, 79486, Note_on_c, 13, 69, 0
25, 79488, Note_on_c, 13, 75, 89
25, 79582, Note_on_c, 13, 75, 0
25, 79584, Note_on_c, 13, 69, 94
25, 79626, Note_on_c, 13, 69, 0
25, 79648, Note_on_c, 13, 63, 97
25, 79678, Note_on_c, 13, 63, 0
25, 79680, Note_on_c, 13, 57, 93
25, 79774, Note_on_c, 13, 57, 0
25, 79776, Note_on_c, 13, 63, 93
25, 79818, Note_on_c, 13, 63, 0
25, 79840, Note_on_c, 13, 69, 95
25, 79870, Note_on_c, 13, 69, 0
25, 79872, Note_on_c, 13, 75, 95
25, 79966, Note_on_c, 13, 75, 0
25, 79968, Note_on_c, 13, 69, 87
25, 80010, Note_on_c, 13, 69, 0
25, 80032, Note_on_c, 13, 63, 93
25, 80062, Note_on_c, 13, 63, 0
25, 80064, Note_on_c, 13, 57, 95
25, 80158, Note_on_c, 13, 57, 0
25, 80160, Note_on_c, 13, 63, 88
25, 80202, Note_on_c, 13, 63, 0
25, 80224, Note_on_c, 13, 69, 95
25, 80254, Note_on_c, 13, 69, 0
25, 80256, Note_on_c, 13, 75, 89
25, 80350, Note_on_c, 13, 75, 0
25, 80352, Note_on_c, 13, 69, 78
25, 80394, Note_on_c, 13, 69, 0
25, 80416, Note_on_c, 13, 63, 70
25, 80446, Note_on_c, 13, 63, 0
25, 80448, Note_on_c, 13, 57, 70
25, 80542, Note_on_c, 13, 57, 0
25, 80544, Note_on_c, 13, 63, 53
25, 80586, Note_on_c, 13, 63, 0
25, 80608, Note_on_c, 13, 69, 50
25, 80638, Note_on_c, 13, 69, 0
25, 80640, Note_on_c, 13, 75, 47
25, 80734, Note_on_c, 13, 75, 0
25, 80736, Note_on_c, 13, 69, 43
25, 80778, Note_on_c, 13, 69, 0
25, 80800, Note_on_c, 13, 63, 46
25, 80830, Note_on_c, 13, 63, 0
25, 80832, Note_on_c, 13, 57, 47
25, 80926, Note_on_c, 13, 57, 0
25, 80928, Note_on_c, 13, 63, 40
25, 80970, Note_on_c, 13, 63, 0
25, 80992, Note_on_c, 13, 69, 44
25, 81022, Note_on_c, 13, 69, 0
25, 81024, Note_on_c, 13, 75, 41
25, 81118, Note_on_c, 13, 75, 0
25, 81120, Note_on_c, 13, 69, 41
25, 81162, Note_on_c, 13, 69, 0
25, 81184, Note_on_c, 13, 63, 46
25, 81214, Note_on_c, 13, 63, 0
25, 81216, Note_on_c, 13, 57, 40
25, 81310, Note_on_c, 13, 57, 0
25, 81312, Note_on_c, 13, 63, 40
25, 81354, Note_on_c, 13, 63, 0
25, 81376, Note_on_c, 13, 69, 45
25, 81406, Note_on_c, 13, 69, 0
25, 81408, Note_on_c, 13, 75, 40
25, 81502, Note_on_c, 13, 75, 0
25, 81504, Note_on_c, 13, 69, 46
25, 81546, Note_on_c, 13, 69, 0
25, 81568, Note_on_c, 13, 63, 43
25, 81598, Note_on_c, 13, 63, 0
25, 81600, Note_on_c, 13, 57, 41
25, 81694, Note_on_c, 13, 57, 0
25, 81696, Note_on_c, 13, 63, 42
25, 81738, Note_on_c, 13, 63, 0
25, 81760, Note_on_c, 13, 69, 48
25, 81790, Note_on_c, 13, 69, 0
25, 81792, Note_on_c, 13, 75, 48
25, 81886, Note_on_c, 13, 75, 0
25, 81888, Note_on_c, 13, 69, 45
25, 81930, Note_on_c, 13, 69, 0
25, 81952, Note_on_c, 13, 63, 45
25, 81982, Note_on_c, 13, 63, 0
25, 81984, Note_on_c, 13, 57, 49
25, 82078, Note_on_c, 13, 57, 0
25, 82080, Note_on_c, 13, 63, 40
25, 82122, Note_on_c, 13, 63, 0
25, 82144, Note_on_c, 13, 69, 42
25, 82174, Note_on_c, 13, 69, 0
25, 82176, Note_on_c, 13, 75, 47
25, 82270, Note_on_c, 13, 75, 0
25, 82272, Note_on_c, 13, 69, 50
25, 82314, Note_on_c, 13, 69, 0
25, 82336, Note_on_c, 13, 63, 42
25, 82366, Note_on_c, 13, 63, 0
25, 82368, Note_on_c, 13, 57, 43
25, 82462, Note_on_c, 13, 57, 0
25, 82464, Note_on_c, 13, 63, 48
25, 82506, Note_on_c, 13, 63, 0
25, 82528, Note_on_c, 13, 69, 43
25, 82558, Note_on_c, 13, 69, 0
25, 82560, Note_on_c, 13, 75, 46
25, 82654, Note_on_c, 13, 75, 0
25, 82656, Note_on_c, 13, 69, 43
25, 82698, Note_on_c, 13, 69, 0
25, 82720, Note_on_c, 13, 63, 44
25, 82750, Note_on_c, 13, 63, 0
25, 82752, Note_on_c, 13, 57, 44
25, 82846, Note_on_c, 13, 57, 0
25, 82848, Note_on_c, 13, 63, 50
25, 82890, Note_on_c, 13, 63, 0
25, 82912, Note_on_c, 13, 69, 47
25, 82942, Note_on_c, 13, 69, 0
25, 82944, Note_on_c, 13, 75, 42
25, 83038, Note_on_c, 13, 75, 0
25, 83040, Note_on_c, 13, 69, 49
25, 83082, Note_on_c, 13, 69, 0
25, 83104, Note_on_c, 13, 63, 50
25, 83134, Note_on_c, 13, 63, 0
25, 83136, Note_on_c, 13, 57, 42
25, 83230, Note_on_c, 13, 57, 0
25, 83232, Note_on_c, 13, 63, 47
25, 83274, Note_on_c, 13, 63, 0
25, 83296, Note_on_c, 13, 69, 50
25, 83326, Note_on_c, 13, 69, 0
25, 83328, Note_on_c, 13, 75, 48
25, 83422, Note_on_c, 13, 75, 0
25, 83424, Note_on_c, 13, 69, 43
25, 83466, Note_on_c, 13, 69, 0
25, 83488, Note_on_c, 13, 63, 49
25, 83518, Note_on_c, 13, 63, 0
25, 83520, Note_on_c, 13, 57, 43
25, 83614, Note_on_c, 13, 57, 0
25, 83616, Note_on_c, 13, 63, 40
25, 83658, Note_on_c, 13, 63, 0
25, 83680, Note_on_c, 13, 69, 48
25, 83710, Note_on_c, 13, 69, 0
25, 83712, Note_on_c, 13, 75, 89
25, 83806, Note_on_c, 13, 75, 0
25, 83808, Note_on_c, 13, 69, 91
25, 83850, Note_on_c, 13, 69, 0
25, 83872, Note_on_c, 13, 63, 96
25, 83902, Note_on_c, 13, 63, 0
25, 83904, Note_on_c, 13, 57, 97
25, 83998, Note_on_c, 13, 57, 0
25, 84000, Note_on_c, 13, 63, 93
25, 84042, Note_on_c, 13, 63, 0
25, 84064, Note_on_c, 13, 69, 94
25, 84094, Note_on_c, 13, 69, 0
25, 84096, Note_on_c, 13, 75, 96
25, 84190, Note_on_c, 13, 75, 0
25, 84192, Note_on_c, 13, 69, 89
25, 84234, Note_on_c, 13, 69, 0
25, 84256, Note_on_c, 13, 63, 87
25, 84286, Note_on_c, 13, 63, 0
25, 84288, Note_on_c, 13, 57, 94
25, 84382, Note_on_c, 13, 57, 0
25, 84384, Note_on_c, 13, 63, 93
25, 84426, Note_on_c, 13, 63, 0
25, 84448, Note_on_c, 13, 69, 87
25, 84478, Note_on_c, 13, 69, 0
25, 84480, Note_on_c, 13, 75, 90
25, 84574, Note_on_c, 13, 75, 0
25, 84576, Note_on_c, 13, 69, 93
25, 84618, Note_on_c, 13, 69, 0
25, 84640, Note_on_c, 13, 63, 97
25, 84670, Note_on_c, 13, 63, 0
25, 84672, Note_on_c, 13, 57, 87
25, 84766, Note_on_c, 13, 57, 0
25, 84768, Note_on_c, 13, 63, 90
25, 84810, Note_on_c, 13, 63, 0
25, 84832, Note_on_c, 13, 69, 96
25, 84862, Note_on_c, 13, 69, 0
25, 84864, Note_on_c, 13, 75, 94
25, 84958, Note_on_c, 13, 75, 0
25, 84960, Note_on_c, 13, 69, 92
25, 85002, Note_on_c, 13, 69, 0
25, 85024, Note_on_c, 13, 63, 87
25, 85054, Note_on_c, 13, 63, 0
25, 85056, Note_on_c, 13, 57, 87
25, 85150, Note_on_c, 13, 57, 0
25, 85152, Note_on_c, 13, 63, 87
25, 85194, Note_on_c, 13, 63, 0
25, 85216, Note_on_c, 13, 69, 97
25, 85246, Note_on_c, 13, 69, 0
25, 85248, Note_on_c, 13, 75, 79
25, 85342, Note_on_c, 13, 75, 0
25, 85344, Note_on_c, 13, 69, 74
25, 85386, Note_on_c, 13, 69, 0
25, 85408, Note_on_c, 13, 63, 77
25, 85438, Note_on_c, 13, 63, 0
25, 85440, Note_on_c, 13, 57, 71
25, 85534, Note_on_c, 13, 57, 0
25, 85536, Note_on_c, 13, 63, 70
25, 85578, Note_on_c, 13, 63, 0
25, 85600, Note_on_c, 13, 69, 72
25, 85630, Note_on_c, 13, 69, 0
25, 85632, Note_on_c, 13, 75, 73
25, 85726, Note_on_c, 13, 75, 0
25, 85728, Note_on_c, 13, 69, 80
25, 85770, Note_on_c, 13, 69, 0
25, 85792, Note_on_c, 13, 63, 76
25, 85822, Note_on_c, 13, 63, 0
25, 85824, Note_on_c, 13, 57, 74
25, 85918, Note_on_c, 13, 57, 0
25, 85920, Note_on_c, 13, 63, 77
25, 85962, Note_on_c, 13, 63, 0
25, 85984, Note_on_c, 13, 69, 73
25, 86014, Note_on_c, 13, 69, 0
25, 86016, Note_on_c, 13, 75, 80
25, 86110, Note_on_c, 13, 75, 0
25, 86112, Note_on_c, 13, 69, 77
25, 86154, Note_on_c, 13, 69, 0
25, 86176, Note_on_c, 13, 63, 71
25, 86206, Note_on_c, 13, 63, 0
25, 86208, Note_on_c, 13, 57, 70
25, 86302, Note_on_c, 13, 57, 0
25, 86304, Note_on_c, 13, 63, 71
25, 86346, Note_on_c, 13, 63, 0
25, 86368, Note_on_c, 13, 69, 73
25, 86398, Note_on_c, 13, 69, 0
25, 86400, Note_on_c, 13, 75, 77
25, 86494, Note_on_c, 13, 75, 0
25, 86496, Note_on_c, 13, 69, 79
25, 86538, Note_on_c, 13, 69, 0
25, 86560, Note_on_c, 13, 63, 77
25, 86590, Note_on_c, 13, 63, 0
25, 86592, Note_on_c, 13, 57, 77
25, 86686, Note_on_c, 13, 57, 0
25, 86688, Note_on_c, 13, 63, 78
25, 86730, Note_on_c, 13, 63, 0
25, 86752, Note_on_c, 13, 69, 79
25, 86782, Note_on_c, 13, 69, 0
25, 86784, Note_on_c, 13, 75, 75
25, 86878, Note_on_c, 13, 75, 0
25, 86880, Note_on_c, 13, 69, 72
25, 86922, Note_on_c, 13, 69, 0
25, 86944, Note_on_c, 13, 63, 76
25, 86974, Note_on_c, 13, 63, 0
25, 86976, Note_on_c, 13, 57, 76
25, 87070, Note_on_c, 13, 57, 0
25, 87072, Note_on_c, 13, 63, 72
25, 87114, Note_on_c, 13, 63, 0
25, 87136, Note_on_c, 13, 69, 70
25, 87166, Note_on_c, 13, 69, 0
25, 87168, Note_on_c, 13, 75, 77
25, 87262, Note_on_c, 13, 75, 0
25, 87264, Note_on_c, 13, 69, 76
25, 87306, Note_on_c, 13, 69, 0
25, 87328, Note_on_c, 13, 63, 78
25, 87358, Note_on_c, 13, 63, 0
25, 87360, Note_on_c, 13, 57, 75
25, 87454, Note_on_c, 13, 57, 0
25, 87456, Note_on_c, 13, 63, 71
25, 87498, Note_on_c, 13, 63, 0
25, 87520, Note_on_c, 13, 69, 72
25, 87550, Note_on_c, 13, 69, 0
25, 87552, Note_on_c, 13, 75, 78
25, 87646, Note_on_c, 13, 75, 0
25, 87648, Note_on_c, 13, 69, 74
25, 87690, Note_on_c, 13, 69, 0
25, 87712, Note_on_c, 13, 63, 73
25, 87742, Note_on_c, 13, 63, 0
25, 87744, Note_on_c, 13, 57, 73
25, 87838, Note_on_c, 13, 57, 0
25, 87840, Note_on_c, 13, 63, 70
25, 87882, Note_on_c, 13, 63, 0
25, 87904, Note_on_c, 13, 69, 80
25, 87934, Note_on_c, 13, 69, 0
25, 87936, Note_on_c, 13, 76, 92
25, 88030, Note_on_c, 13, 76, 0
25, 88032, Note_on_c, 13, 72, 90
25, 88074, Note_on_c, 13, 72, 0
25, 88096, Note_on_c, 13, 64, 97
25, 88126, Note_on_c, 13, 64, 0
25, 88128, Note_on_c, 13, 64, 90
25, 88222, Note_on_c, 13, 64, 0
25, 88224, Note_on_c, 13, 72, 96
25, 88266, Note_on_c, 13, 72, 0
25, 88288, Note_on_c, 13, 76, 88
25, 88318, Note_on_c, 13, 76, 0
25, 88320, Note_on_c, 13, 76, 95
25, 88414, Note_on_c, 13, 76, 0
25, 88416, Note_on_c, 13, 72, 90
25, 88458, Note_on_c, 13, 72, 0
25, 88480, Note_on_c, 13, 64, 88
25, 88510, Note_on_c, 13, 64, 0
25, 88512, Note_on_c, 13, 64, 95
25, 88606, Note_on_c, 13, 64, 0
25, 88608, Note_on_c, 13, 72, 93
25, 88650, Note_on_c, 13, 72, 0
25, 88672, Note_on_c, 13, 76, 92
25, 88702, Note_on_c, 13, 76, 0
25, 88704, Note_on_c, 13, 76, 91
25, 88798, Note_on_c, 13, 76, 0
25, 88800, Note_on_c, 13, 70, 101
25, 88842, Note_on_c, 13, 70, 0
25, 88864, Note_on_c, 13, 64, 102
25, 88894, Note_on_c, 13, 64, 0
25, 88896, Note_on_c, 13, 64, 96
25, 88990, Note_on_c, 13, 64, 0
25, 88992, Note_on_c, 13, 70, 100
25, 89034, Note_on_c, 13, 70, 0
25, 89056, Note_on_c, 13, 76, 103
25, 89086, Note_on_c, 13, 76, 0
25, 89088, Note_on_c, 13, 75, 42
25, 89182, Note_on_c, 13, 75, 0
25, 89184, Note_on_c, 13, 69, 42
25, 89226, Note_on_c, 13, 69, 0
25, 89248, Note_on_c, 13, 64, 46
25, 89278, Note_on_c, 13, 64, 0
25, 89280, Note_on_c, 13, 57, 49
25, 89374, Note_on_c, 13, 57, 0
25, 89376, Note_on_c, 13, 63, 44
25, 89418, Note_on_c, 13, 63, 0
25, 89440, Note_on_c, 13, 69, 51
25, 89470, Note_on_c, 13, 69, 0
25, 89472, Note_on_c, 13, 75, 54
25, 89566, Note_on_c, 13, 75, 0
25, 89568, Note_on_c, 13, 69, 50
25, 89610, Note_on_c, 13, 69, 0
25, 89632, Note_on_c, 13, 63, 49
25, 89662, Note_on_c, 13, 63, 0
25, 89664, Note_on_c, 13, 57, 51
25, 89758, Note_on_c, 13, 57, 0
25, 89760, Note_on_c, 13, 63, 59
25, 89802, Note_on_c, 13, 63, 0
25, 89824, Note_on_c, 13, 69, 55
25, 89854, Note_on_c, 13, 69, 0
25, 89856, Note_on_c, 13, 75, 51
25, 89950, Note_on_c, 13, 75, 0
25, 89952, Note_on_c, 13, 69, 62
25, 89994, Note_on_c, 13, 69, 0
25, 90016, Note_on_c, 13, 63, 57
25, 90046, Note_on_c, 13, 63, 0
25, 90048, Note_on_c, 13, 57, 55
25, 90142, Note_on_c, 13, 57, 0
25, 90144, Note_on_c, 13, 63, 55
25, 90186, Note_on_c, 13, 63, 0
25, 90208, Note_on_c, 13, 69, 66
25, 90238, Note_on_c, 13, 69, 0
25, 90240, Note_on_c, 13, 75, 61
25, 90334, Note_on_c, 13, 75, 0
25, 90336, Note_on_c, 13, 69, 62
25, 90378, Note_on_c, 13, 69, 0
25, 90400, Note_on_c, 13, 63, 68
25, 90430, Note_on_c, 13, 63, 0
25, 90432, Note_on_c, 13, 57, 69
25, 90526, Note_on_c, 13, 57, 0
25, 90528, Note_on_c, 13, 63, 67
25, 90570, Note_on_c, 13, 63, 0
25, 90592, Note_on_c, 13, 69, 67
25, 90622, Note_on_c, 13, 69, 0
25, 90624, Note_on_c, 13, 75, 64
25, 90718, Note_on_c, 13, 75, 0
25, 90720, Note_on_c, 13, 69, 69
25, 90762, Note_on_c, 13, 69, 0
25, 90784, Note_on_c, 13, 63, 71
25, 90814, Note_on_c, 13, 63, 0
25, 90816, Note_on_c, 13, 57, 76
25, 90910, Note_on_c, 13, 57, 0
25, 90912, Note_on_c, 13, 63, 78
25, 90954, Note_on_c, 13, 63, 0
25, 90976, Note_on_c, 13, 69, 73
25, 91006, Note_on_c, 13, 69, 0
25, 91008, Note_on_c, 13, 75, 79
25, 91102, Note_on_c, 13, 75, 0
25, 91104, Note_on_c, 13, 69, 84
25, 91146, Note_on_c, 13, 69, 0
25, 91168, Note_on_c, 13, 63, 82
25, 91198, Note_on_c, 13, 63, 0
25, 91200, Note_on_c, 13, 57, 82
25, 91294, Note_on_c, 13, 57, 0
25, 91296, Note_on_c, 13, 63, 93
25, 91338, Note_on_c, 13, 63, 0
25, 91360, Note_on_c, 13, 69, 90
25, 91390, Note_on_c, 13, 69, 0
25, 91392, Note_on_c, 13, 75, 87
25, 91486, Note_on_c, 13, 75, 0
25, 91488, Note_on_c, 13, 69, 91
25, 91530, Note_on_c, 13, 69, 0
25, 91552, Note_on_c, 13, 63, 99
25, 91582, Note_on_c, 13, 63, 0
25, 91584, Note_on_c, 13, 57, 94
25, 91678, Note_on_c, 13, 57, 0
25, 91680, Note_on_c, 13, 63, 101
25, 91722, Note_on_c, 13, 63, 0
25, 91744, Note_on_c, 13, 69, 103
25, 91774, Note_on_c, 13, 69, 0
25, 91776, Program_c, 13, 44
25, 91776, Note_on_c, 13, 80, 113
25, 92112, Note_on_c, 13, 80, 0
25, 92160, Program_c, 13, 48
25, 92160, Note_on_c, 13, 69, 111
25, 92254, Note_on_c, 13, 69, 0
25, 92544, Program_c, 13, 44
25, 92544, Control_c, 13, 11, 92
25, 92544, Note_on_c, 13, 78, 124
25, 92554, Control_c, 13, 11, 93
25, 92565, Control_c, 13, 11, 94
25, 92576, Control_c, 13, 11, 95
25, 92587, Control_c, 13, 11, 96
25, 92598, Control_c, 13, 11, 97
25, 92609, Control_c, 13, 11, 98
25, 92620, Control_c, 13, 11, 99
25, 92631, Control_c, 13, 11, 100
25, 92642, Control_c, 13, 11, 101
25, 92653, Control_c, 13, 11, 102
25, 92664, Control_c, 13, 11, 103
25, 92675, Control_c, 13, 11, 104
25, 92686, Control_c, 13, 11, 105
25, 92697, Control_c, 13, 11, 106
25, 92708, Control_c, 13, 11, 107
25, 92719, Control_c, 13, 11, 108
25, 92730, Control_c, 13, 11, 109
25, 92741, Control_c, 13, 11, 110
25, 92752, Control_c, 13, 11, 111
25, 92763, Control_c, 13, 11, 112
25, 92774, Control_c, 13, 11, 113
25, 92785, Control_c, 13, 11, 114
25, 92796, Control_c, 13, 11, 115
25, 92807, Control_c, 13, 11, 116
25, 92818, Control_c, 13, 11, 117
25, 92829, Control_c, 13, 11, 118
25, 92840, Control_c, 13, 11, 119
25, 92851, Control_c, 13, 11, 120
25, 92862, Control_c, 13, 11, 121
25, 92873, Control_c, 13, 11, 122
25, 92880, Note_on_c, 13, 78, 0
25, 92884, Control_c, 13, 11, 123
25, 92895, Control_c, 13, 11, 124
25, 92906, Control_c, 13, 11, 125
25, 92917, Control_c, 13, 11, 126
25, 92928, Control_c, 13, 11, 127
25, 92928, Program_c, 13, 48
25, 92928, Note_on_c, 13, 68, 125
25, 93022, Note_on_c, 13, 68, 0
25, 93792, Note_on_c, 13, 54, 103
25, 93824, Note_on_c, 13, 54, 0
25, 93840, Note_on_c, 13, 54, 107
25, 93872, Note_on_c, 13, 54, 0
25, 93888, Note_on_c, 13, 56, 109
25, 93920, Note_on_c, 13, 56, 0
25, 93936, Note_on_c, 13, 56, 113
25, 93968, Note_on_c, 13, 56, 0
25, 93984, Note_on_c, 13, 58, 108
25, 94016, Note_on_c, 13, 58, 0
25, 94032, Note_on_c, 13, 58, 116
25, 94064, Note_on_c, 13, 58, 0
25, 94080, Note_on_c, 13, 60, 117
25, 94112, Note_on_c, 13, 60, 0
25, 94128, Note_on_c, 13, 60, 117
25, 94160, Note_on_c, 13, 60, 0
25, 94176, Note_on_c, 13, 62, 121
25, 94208, Note_on_c, 13, 62, 0
25, 94224, Note_on_c, 13, 62, 119
25, 94256, Note_on_c, 13, 62, 0
25, 94272, Note_on_c, 13, 66, 118
25, 94304, Note_on_c, 13, 66, 0
25, 94320, Note_on_c, 13, 66, 120
25, 94352, Note_on_c, 13, 66, 0
25, 94368, Note_on_c, 13, 68, 122
25, 94400, Note_on_c, 13, 68, 0
25, 94416, Note_on_c, 13, 68, 127
25, 94448, Note_on_c, 13, 68, 0
25, 94560, Note_on_c, 13, 66, 103
25, 94592, Note_on_c, 13, 66, 0
25, 94608, Note_on_c, 13, 66, 105
25, 94640, Note_on_c, 13, 66, 0
25, 94656, Note_on_c, 13, 68, 106
25, 94688, Note_on_c, 13, 68, 0
25, 94704, Note_on_c, 13, 68, 105
25, 94736, Note_on_c, 13, 68, 0
25, 94752, Note_on_c, 13, 70, 113
25, 94784, Note_on_c, 13, 70, 0
25, 94800, Note_on_c, 13, 70, 112
25, 94832, Note_on_c, 13, 70, 0
25, 94848, Note_on_c, 13, 72, 116
25, 94880, Note_on_c, 13, 72, 0
25, 94896, Note_on_c, 13, 72, 116
25, 94928, Note_on_c, 13, 72, 0
25, 94944, Note_on_c, 13, 74, 112
25, 94976, Note_on_c, 13, 74, 0
25, 94992, Note_on_c, 13, 74, 124
25, 95024, Note_on_c, 13, 74, 0
25, 95040, Note_on_c, 13, 78, 120
25, 95072, Note_on_c, 13, 78, 0
25, 95088, Note_on_c, 13, 78, 121
25, 95120, Note_on_c, 13, 78, 0
25, 95136, Note_on_c, 13, 80, 127
25, 95168, Note_on_c, 13, 80, 0
25, 95184, Note_on_c, 13, 80, 127
25, 95216, Note_on_c, 13, 80, 0
25, 95616, Note_on_c, 13, 60, 91
25, 95648, Note_on_c, 13, 60, 0
25, 95664, Note_on_c, 13, 60, 91
25, 95696, Note_on_c, 13, 60, 0
25, 95712, Note_on_c, 13, 62, 85
25, 95744, Note_on_c, 13, 62, 0
25, 95760, Note_on_c, 13, 62, 77
25, 95792, Note_on_c, 13, 62, 0
25, 95808, Note_on_c, 13, 66, 76
25, 95840, Note_on_c, 13, 66, 0
25, 95856, Note_on_c, 13, 66, 74
25, 95888, Note_on_c, 13, 66, 0
25, 95904, Note_on_c, 13, 68, 64
25, 95936, Note_on_c, 13, 68, 0
25, 95952, Note_on_c, 13, 68, 57
25, 95984, Note_on_c, 13, 68, 0
25, 97152, Note_on_c, 13, 60, 75
25, 97184, Note_on_c, 13, 60, 0
25, 97200, Note_on_c, 13, 60, 74
25, 97232, Note_on_c, 13, 60, 0
25, 97248, Note_on_c, 13, 62, 75
25, 97280, Note_on_c, 13, 62, 0
25, 97296, Note_on_c, 13, 62, 66
25, 97328, Note_on_c, 13, 62, 0
25, 97344, Note_on_c, 13, 66, 62
25, 97376, Note_on_c, 13, 66, 0
25, 97392, Note_on_c, 13, 66, 50
25, 97424, Note_on_c, 13, 66, 0
25, 97440, Note_on_c, 13, 68, 51
25, 97472, Note_on_c, 13, 68, 0
25, 97488, Note_on_c, 13, 68, 40
25, 97520, Note_on_c, 13, 68, 0
25, 102912, Control_c, 13, 11, 127
25, 104448, Note_on_c, 13, 60, 34
25, 104494, Note_on_c, 13, 60, 0
25, 104496, Note_on_c, 13, 61, 27
25, 104542, Note_on_c, 13, 61, 0
25, 104544, Note_on_c, 13, 60, 33
25, 104590, Note_on_c, 13, 60, 0
25, 104592, Note_on_c, 13, 61, 28
25, 104638, Note_on_c, 13, 61, 0
25, 104640, Note_on_c, 13, 60, 33
25, 104686, Note_on_c, 13, 60, 0
25, 104688, Note_on_c, 13, 61, 28
25, 104734, Note_on_c, 13, 61, 0
25, 104736, Note_on_c, 13, 60, 27
25, 104782, Note_on_c, 13, 60, 0
25, 104784, Note_on_c, 13, 61, 33
25, 104830, Note_on_c, 13, 61, 0
25, 104832, Note_on_c, 13, 60, 30
25, 104878, Note_on_c, 13, 60, 0
25, 104880, Note_on_c, 13, 61, 32
25, 104926, Note_on_c, 13, 61, 0
25, 104928, Note_on_c, 13, 60, 34
25, 104974, Note_on_c, 13, 60, 0
25, 104976, Note_on_c, 13, 61, 29
25, 105022, Note_on_c, 13, 61, 0
25, 105024, Note_on_c, 13, 60, 33
25, 105070, Note_on_c, 13, 60, 0
25, 105072, Note_on_c, 13, 61, 29
25, 105118, Note_on_c, 13, 61, 0
25, 105120, Note_on_c, 13, 60, 26
25, 105166, Note_on_c, 13, 60, 0
25, 105168, Note_on_c, 13, 61, 27
25, 105214, Note_on_c, 13, 61, 0
25, 105216, Note_on_c, 13, 60, 26
25, 105262, Note_on_c, 13, 60, 0
25, 105264, Note_on_c, 13, 58, 33
25, 105310, Note_on_c, 13, 58, 0
25, 105312, Note_on_c, 13, 60, 33
25, 105358, Note_on_c, 13, 60, 0
25, 105360, Note_on_c, 13, 58, 30
25, 105406, Note_on_c, 13, 58, 0
25, 105408, Note_on_c, 13, 60, 38
25, 105454, Note_on_c, 13, 60, 0
25, 105456, Note_on_c, 13, 58, 41
25, 105502, Note_on_c, 13, 58, 0
25, 105504, Note_on_c, 13, 60, 39
25, 105550, Note_on_c, 13, 60, 0
25, 105552, Note_on_c, 13, 58, 41
25, 105598, Note_on_c, 13, 58, 0
25, 105600, Note_on_c, 13, 60, 39
25, 105646, Note_on_c, 13, 60, 0
25, 105648, Note_on_c, 13, 58, 49
25, 105694, Note_on_c, 13, 58, 0
25, 105696, Note_on_c, 13, 60, 52
25, 105742, Note_on_c, 13, 60, 0
25, 105744, Note_on_c, 13, 58, 46
25, 105790, Note_on_c, 13, 58, 0
25, 105792, Note_on_c, 13, 60, 48
25, 105838, Note_on_c, 13, 60, 0
25, 105840, Note_on_c, 13, 58, 59
25, 105886, Note_on_c, 13, 58, 0
25, 105888, Note_on_c, 13, 60, 54
25, 105934, Note_on_c, 13, 60, 0
25, 105936, Note_on_c, 13, 58, 63
25, 105982, Note_on_c, 13, 58, 0
25, 105984, Note_on_c, 13, 56, 33
25, 106144, Note_on_c, 13, 56, 0
25, 107520, Note_on_c, 13, 51, 25
25, 107566, Note_on_c, 13, 51, 0
25, 107568, Note_on_c, 13, 53, 29
25, 107614, Note_on_c, 13, 53, 0
25, 107616, Note_on_c, 13, 51, 31
25, 107662, Note_on_c, 13, 51, 0
25, 107664, Note_on_c, 13, 53, 31
25, 107710, Note_on_c, 13, 53, 0
25, 107712, Note_on_c, 13, 51, 30
25, 107758, Note_on_c, 13, 51, 0
25, 107760, Note_on_c, 13, 53, 34
25, 107806, Note_on_c, 13, 53, 0
25, 107808, Note_on_c, 13, 51, 27
25, 107854, Note_on_c, 13, 51, 0
25, 107856, Note_on_c, 13, 53, 26
25, 107902, Note_on_c, 13, 53, 0
25, 107904, Note_on_c, 13, 51, 25
25, 107950, Note_on_c, 13, 51, 0
25, 107952, Note_on_c, 13, 53, 32
25, 107998, Note_on_c, 13, 53, 0
25, 108000, Note_on_c, 13, 51, 29
25, 108046, Note_on_c, 13, 51, 0
25, 108048, Note_on_c, 13, 53, 35
25, 108094, Note_on_c, 13, 53, 0
25, 108096, Note_on_c, 13, 51, 29
25, 108142, Note_on_c, 13, 51, 0
25, 108144, Note_on_c, 13, 53, 33
25, 108190, Note_on_c, 13, 53, 0
25, 108192, Note_on_c, 13, 51, 34
25, 108238, Note_on_c, 13, 51, 0
25, 108240, Note_on_c, 13, 53, 29
25, 108286, Note_on_c, 13, 53, 0
25, 108288, Note_on_c, 13, 54, 32
25, 108334, Note_on_c, 13, 54, 0
25, 108336, Note_on_c, 13, 56, 35
25, 108382, Note_on_c, 13, 56, 0
25, 108384, Note_on_c, 13, 54, 27
25, 108430, Note_on_c, 13, 54, 0
25, 108432, Note_on_c, 13, 56, 34
25, 108478, Note_on_c, 13, 56, 0
25, 108480, Note_on_c, 13, 54, 34
25, 108526, Note_on_c, 13, 54, 0
25, 108528, Note_on_c, 13, 56, 32
25, 108574, Note_on_c, 13, 56, 0
25, 108576, Note_on_c, 13, 54, 31
25, 108622, Note_on_c, 13, 54, 0
25, 108624, Note_on_c, 13, 56, 25
25, 108670, Note_on_c, 13, 56, 0
25, 108672, Note_on_c, 13, 54, 30
25, 108718, Note_on_c, 13, 54, 0
25, 108720, Note_on_c, 13, 56, 26
25, 108766, Note_on_c, 13, 56, 0
25, 108768, Note_on_c, 13, 54, 30
25, 108814, Note_on_c, 13, 54, 0
25, 108816, Note_on_c, 13, 56, 26
25, 108862, Note_on_c, 13, 56, 0
25, 108864, Note_on_c, 13, 54, 35
25, 108910, Note_on_c, 13, 54, 0
25, 108912, Note_on_c, 13, 56, 28
25, 108958, Note_on_c, 13, 56, 0
25, 108960, Note_on_c, 13, 54, 31
25, 109006, Note_on_c, 13, 54, 0
25, 109008, Note_on_c, 13, 56, 28
25, 109054, Note_on_c, 13, 56, 0
25, 109056, Note_on_c, 13, 54, 30
25, 109102, Note_on_c, 13, 54, 0
25, 109104, Note_on_c, 13, 53, 35
25, 109150, Note_on_c, 13, 53, 0
25, 109152, Note_on_c, 13, 54, 31
25, 109198, Note_on_c, 13, 54, 0
25, 109200, Note_on_c, 13, 53, 34
25, 109246, Note_on_c, 13, 53, 0
25, 109248, Note_on_c, 13, 54, 34
25, 109294, Note_on_c, 13, 54, 0
25, 109296, Note_on_c, 13, 53, 36
25, 109342, Note_on_c, 13, 53, 0
25, 109344, Note_on_c, 13, 54, 41
25, 109390, Note_on_c, 13, 54, 0
25, 109392, Note_on_c, 13, 53, 41
25, 109438, Note_on_c, 13, 53, 0
25, 109440, Note_on_c, 13, 54, 46
25, 109486, Note_on_c, 13, 54, 0
25, 109488, Note_on_c, 13, 53, 42
25, 109534, Note_on_c, 13, 53, 0
25, 109536, Note_on_c, 13, 54, 51
25, 109582, Note_on_c, 13, 54, 0
25, 109584, Note_on_c, 13, 53, 53
25, 109630, Note_on_c, 13, 53, 0
25, 109632, Note_on_c, 13, 54, 56
25, 109678, Note_on_c, 13, 54, 0
25, 109680, Note_on_c, 13, 53, 50
25, 109726, Note_on_c, 13, 53, 0
25, 109728, Note_on_c, 13, 54, 53
25, 109774, Note_on_c, 13, 54, 0
25, 109776, Note_on_c, 13, 53, 54
25, 109822, Note_on_c, 13, 53, 0
25, 109824, Note_on_c, 13, 53, 64
25, 109870, Note_on_c, 13, 53, 0
25, 109872, Note_on_c, 13, 51, 56
25, 109918, Note_on_c, 13, 51, 0
25, 109920, Note_on_c, 13, 53, 56
25, 109966, Note_on_c, 13, 53, 0
25, 109968, Note_on_c, 13, 51, 54
25, 110014, Note_on_c, 13, 51, 0
25, 110016, Note_on_c, 13, 53, 49
25, 110062, Note_on_c, 13, 53, 0
25, 110064, Note_on_c, 13, 51, 52
25, 110110, Note_on_c, 13, 51, 0
25, 110112, Note_on_c, 13, 53, 55
25, 110158, Note_on_c, 13, 53, 0
25, 110160, Note_on_c, 13, 51, 51
25, 110206, Note_on_c, 13, 51, 0
25, 110208, Note_on_c, 13, 53, 45
25, 110254, Note_on_c, 13, 53, 0
25, 110256, Note_on_c, 13, 51, 41
25, 110302, Note_on_c, 13, 51, 0
25, 110304, Note_on_c, 13, 53, 46
25, 110350, Note_on_c, 13, 53, 0
25, 110352, Note_on_c, 13, 51, 43
25, 110398, Note_on_c, 13, 51, 0
25, 110400, Note_on_c, 13, 53, 37
25, 110446, Note_on_c, 13, 53, 0
25, 110448, Note_on_c, 13, 51, 33
25, 110494, Note_on_c, 13, 51, 0
25, 110496, Note_on_c, 13, 53, 30
25, 110542, Note_on_c, 13, 53, 0
25, 110544, Note_on_c, 13, 51, 36
25, 110590, Note_on_c, 13, 51, 0
25, 110592, Note_on_c, 13, 50, 26
25, 110752, Note_on_c, 13, 50, 0
25, 112128, Control_c, 13, 11, 127
25, 112192, Note_on_c, 13, 58, 41
25, 112254, Note_on_c, 13, 58, 0
25, 112256, Note_on_c, 13, 56, 40
25, 112318, Note_on_c, 13, 56, 0
25, 112320, Note_on_c, 13, 54, 43
25, 112382, Note_on_c, 13, 54, 0
25, 112384, Note_on_c, 13, 54, 40
25, 112446, Note_on_c, 13, 54, 0
25, 112448, Note_on_c, 13, 48, 41
25, 112510, Note_on_c, 13, 48, 0
25, 112512, Note_on_c, 13, 51, 40
25, 112574, Note_on_c, 13, 51, 0
25, 112576, Note_on_c, 13, 51, 46
25, 112638, Note_on_c, 13, 51, 0
25, 112640, Note_on_c, 13, 54, 42
25, 112702, Note_on_c, 13, 54, 0
25, 112704, Note_on_c, 13, 56, 50
25, 112766, Note_on_c, 13, 56, 0
25, 112768, Note_on_c, 13, 58, 50
25, 112830, Note_on_c, 13, 58, 0
25, 112832, Note_on_c, 13, 61, 45
25, 112894, Note_on_c, 13, 61, 0
25, 112960, Note_on_c, 13, 58, 49
25, 113022, Note_on_c, 13, 58, 0
25, 113024, Note_on_c, 13, 56, 41
25, 113086, Note_on_c, 13, 56, 0
25, 113088, Note_on_c, 13, 54, 53
25, 113150, Note_on_c, 13, 54, 0
25, 113152, Note_on_c, 13, 54, 47
25, 113214, Note_on_c, 13, 54, 0
25, 113216, Note_on_c, 13, 48, 56
25, 113278, Note_on_c, 13, 48, 0
25, 113280, Note_on_c, 13, 51, 57
25, 113342, Note_on_c, 13, 51, 0
25, 113344, Note_on_c, 13, 51, 57
25, 113406, Note_on_c, 13, 51, 0
25, 113408, Note_on_c, 13, 54, 60
25, 113470, Note_on_c, 13, 54, 0
25, 113472, Note_on_c, 13, 56, 62
25, 113534, Note_on_c, 13, 56, 0
25, 113536, Note_on_c, 13, 58, 70
25, 113598, Note_on_c, 13, 58, 0
25, 113600, Note_on_c, 13, 61, 75
25, 113662, Note_on_c, 13, 61, 0
25, 113664, Note_on_c, 13, 60, 74
25, 113856, Note_on_c, 13, 60, 0
25, 113856, Note_on_c, 13, 61, 77
25, 114048, Note_on_c, 13, 61, 0
25, 114048, Note_on_c, 13, 58, 74
25, 114176, Note_on_c, 13, 58, 0
25, 114176, Note_on_c, 13, 56, 74
25, 114304, Note_on_c, 13, 56, 0
25, 114304, Note_on_c, 13, 58, 76
25, 114430, Note_on_c, 13, 58, 0
25, 114432, Note_on_c, 13, 53, 72
25, 114624, Note_on_c, 13, 53, 0
25, 114624, Note_on_c, 13, 54, 69
25, 114816, Note_on_c, 13, 54, 0
25, 114816, Note_on_c, 13, 51, 61
25, 114944, Note_on_c, 13, 51, 0
25, 114944, Note_on_c, 13, 49, 51
25, 115072, Note_on_c, 13, 49, 0
25, 115072, Note_on_c, 13, 51, 54
25, 115198, Note_on_c, 13, 51, 0
25, 115200, Note_on_c, 13, 58, 49
25, 115392, Note_on_c, 13, 58, 0
25, 115392, Note_on_c, 13, 56, 40
25, 115584, Note_on_c, 13, 56, 0
25, 115584, Note_on_c, 13, 54, 49
25, 115675, Note_on_c, 13, 54, 0
25, 115712, Note_on_c, 13, 51, 50
25, 115803, Note_on_c, 13, 51, 0
25, 115840, Note_on_c, 13, 54, 65
25, 115931, Note_on_c, 13, 54, 0
25, 115968, Note_on_c, 13, 60, 71
25, 116160, Note_on_c, 13, 60, 0
25, 116160, Note_on_c, 13, 61, 75
25, 116352, Note_on_c, 13, 61, 0
25, 116352, Note_on_c, 13, 58, 60
25, 116544, Note_on_c, 13, 58, 0
25, 116544, Note_on_c, 13, 61, 50
25, 116704, Note_on_c, 13, 61, 0
25, 116736, Note_on_c, 13, 58, 33
25, 116928, Note_on_c, 13, 58, 0
25, 116928, Note_on_c, 13, 56, 38
25, 117120, Note_on_c, 13, 56, 0
25, 117120, Note_on_c, 13, 54, 36
25, 117248, Note_on_c, 13, 54, 0
25, 117248, Note_on_c, 13, 51, 41
25, 117376, Note_on_c, 13, 51, 0
25, 117376, Note_on_c, 13, 54, 41
25, 117504, Note_on_c, 13, 54, 0
25, 117504, Note_on_c, 13, 60, 34
25, 117696, Note_on_c, 13, 60, 0
25, 117696, Note_on_c, 13, 61, 35
25, 117888, Note_on_c, 13, 61, 0
25, 117888, Note_on_c, 13, 58, 36
25, 118080, Note_on_c, 13, 58, 0
25, 118080, Note_on_c, 13, 61, 35
25, 118240, Note_on_c, 13, 61, 0
25, 118464, Program_c, 13, 45
25, 118464, Note_on_c, 13, 54, 87
25, 118558, Note_on_c, 13, 54, 0
25, 122112, Program_c, 13, 48
25, 122880, Note_on_c, 13, 53, 29
25, 122926, Note_on_c, 13, 53, 0
25, 122928, Note_on_c, 13, 53, 25
25, 122974, Note_on_c, 13, 53, 0
25, 122976, Note_on_c, 13, 53, 33
25, 123022, Note_on_c, 13, 53, 0
25, 123024, Note_on_c, 13, 53, 30
25, 123070, Note_on_c, 13, 53, 0
25, 123072, Note_on_c, 13, 53, 30
25, 123118, Note_on_c, 13, 53, 0
25, 123120, Note_on_c, 13, 53, 33
25, 123166, Note_on_c, 13, 53, 0
25, 123168, Note_on_c, 13, 53, 29
25, 123214, Note_on_c, 13, 53, 0
25, 123216, Note_on_c, 13, 53, 31
25, 123262, Note_on_c, 13, 53, 0
25, 123264, Note_on_c, 13, 56, 28
25, 123310, Note_on_c, 13, 56, 0
25, 123312, Note_on_c, 13, 56, 34
25, 123358, Note_on_c, 13, 56, 0
25, 123360, Note_on_c, 13, 56, 29
25, 123406, Note_on_c, 13, 56, 0
25, 123408, Note_on_c, 13, 56, 32
25, 123454, Note_on_c, 13, 56, 0
25, 123456, Note_on_c, 13, 56, 28
25, 123502, Note_on_c, 13, 56, 0
25, 123504, Note_on_c, 13, 56, 32
25, 123550, Note_on_c, 13, 56, 0
25, 123552, Note_on_c, 13, 56, 28
25, 123598, Note_on_c, 13, 56, 0
25, 123600, Note_on_c, 13, 56, 25
25, 123646, Note_on_c, 13, 56, 0
25, 123648, Note_on_c, 13, 65, 35
25, 123694, Note_on_c, 13, 65, 0
25, 123696, Note_on_c, 13, 65, 34
25, 123742, Note_on_c, 13, 65, 0
25, 123744, Note_on_c, 13, 65, 25
25, 123790, Note_on_c, 13, 65, 0
25, 123792, Note_on_c, 13, 65, 32
25, 123838, Note_on_c, 13, 65, 0
25, 123840, Note_on_c, 13, 65, 34
25, 123886, Note_on_c, 13, 65, 0
25, 123888, Note_on_c, 13, 65, 34
25, 123934, Note_on_c, 13, 65, 0
25, 123936, Note_on_c, 13, 65, 26
25, 123982, Note_on_c, 13, 65, 0
25, 123984, Note_on_c, 13, 65, 26
25, 124030, Note_on_c, 13, 65, 0
25, 124032, Note_on_c, 13, 65, 26
25, 124078, Note_on_c, 13, 65, 0
25, 124080, Note_on_c, 13, 65, 35
25, 124126, Note_on_c, 13, 65, 0
25, 124128, Note_on_c, 13, 65, 35
25, 124174, Note_on_c, 13, 65, 0
25, 124176, Note_on_c, 13, 65, 25
25, 124222, Note_on_c, 13, 65, 0
25, 124224, Note_on_c, 13, 65, 31
25, 124270, Note_on_c, 13, 65, 0
25, 124272, Note_on_c, 13, 65, 33
25, 124318, Note_on_c, 13, 65, 0
25, 124320, Note_on_c, 13, 65, 31
25, 124366, Note_on_c, 13, 65, 0
25, 124368, Note_on_c, 13, 65, 29
25, 124414, Note_on_c, 13, 65, 0
25, 124416, Note_on_c, 13, 53, 29
25, 124462, Note_on_c, 13, 53, 0
25, 124464, Note_on_c, 13, 53, 25
25, 124510, Note_on_c, 13, 53, 0
25, 124512, Note_on_c, 13, 53, 30
25, 124558, Note_on_c, 13, 53, 0
25, 124560, Note_on_c, 13, 53, 30
25, 124606, Note_on_c, 13, 53, 0
25, 124608, Note_on_c, 13, 53, 29
25, 124654, Note_on_c, 13, 53, 0
25, 124656, Note_on_c, 13, 53, 28
25, 124702, Note_on_c, 13, 53, 0
25, 124704, Note_on_c, 13, 53, 33
25, 124750, Note_on_c, 13, 53, 0
25, 124752, Note_on_c, 13, 53, 27
25, 124798, Note_on_c, 13, 53, 0
25, 124800, Note_on_c, 13, 56, 28
25, 124846, Note_on_c, 13, 56, 0
25, 124848, Note_on_c, 13, 56, 26
25, 124894, Note_on_c, 13, 56, 0
25, 124896, Note_on_c, 13, 56, 35
25, 124942, Note_on_c, 13, 56, 0
25, 124944, Note_on_c, 13, 56, 32
25, 124990, Note_on_c, 13, 56, 0
25, 124992, Note_on_c, 13, 56, 41
25, 125038, Note_on_c, 13, 56, 0
25, 125040, Note_on_c, 13, 56, 43
25, 125086, Note_on_c, 13, 56, 0
25, 125088, Note_on_c, 13, 56, 37
25, 125134, Note_on_c, 13, 56, 0
25, 125136, Note_on_c, 13, 56, 47
25, 125182, Note_on_c, 13, 56, 0
25, 125184, Note_on_c, 13, 65, 43
25, 125230, Note_on_c, 13, 65, 0
25, 125232, Note_on_c, 13, 65, 42
25, 125278, Note_on_c, 13, 65, 0
25, 125280, Note_on_c, 13, 65, 46
25, 125326, Note_on_c, 13, 65, 0
25, 125328, Note_on_c, 13, 65, 45
25, 125374, Note_on_c, 13, 65, 0
25, 125376, Note_on_c, 13, 65, 54
25, 125422, Note_on_c, 13, 65, 0
25, 125424, Note_on_c, 13, 65, 54
25, 125470, Note_on_c, 13, 65, 0
25, 125472, Note_on_c, 13, 65, 54
25, 125518, Note_on_c, 13, 65, 0
25, 125520, Note_on_c, 13, 65, 62
25, 125566, Note_on_c, 13, 65, 0
25, 125568, Note_on_c, 13, 56, 59
25, 125614, Note_on_c, 13, 56, 0
25, 125616, Note_on_c, 13, 56, 59
25, 125662, Note_on_c, 13, 56, 0
25, 125664, Note_on_c, 13, 56, 64
25, 125710, Note_on_c, 13, 56, 0
25, 125712, Note_on_c, 13, 56, 62
25, 125758, Note_on_c, 13, 56, 0
25, 125760, Note_on_c, 13, 56, 64
25, 125806, Note_on_c, 13, 56, 0
25, 125808, Note_on_c, 13, 56, 66
25, 125854, Note_on_c, 13, 56, 0
25, 125856, Note_on_c, 13, 56, 70
25, 125902, Note_on_c, 13, 56, 0
25, 125904, Note_on_c, 13, 56, 79
25, 125950, Note_on_c, 13, 56, 0
25, 125952, Note_on_c, 13, 59, 33
25, 125998, Note_on_c, 13, 59, 0
25, 126000, Note_on_c, 13, 53, 31
25, 126046, Note_on_c, 13, 53, 0
25, 126048, Note_on_c, 13, 59, 31
25, 126094, Note_on_c, 13, 59, 0
25, 126096, Note_on_c, 13, 53, 35
25, 126142, Note_on_c, 13, 53, 0
25, 126144, Note_on_c, 13, 59, 25
25, 126190, Note_on_c, 13, 59, 0
25, 126192, Note_on_c, 13, 53, 34
25, 126238, Note_on_c, 13, 53, 0
25, 126240, Note_on_c, 13, 59, 32
25, 126286, Note_on_c, 13, 59, 0
25, 126288, Note_on_c, 13, 53, 26
25, 126334, Note_on_c, 13, 53, 0
25, 126336, Note_on_c, 13, 59, 27
25, 126382, Note_on_c, 13, 59, 0
25, 126384, Note_on_c, 13, 53, 32
25, 126430, Note_on_c, 13, 53, 0
25, 126432, Note_on_c, 13, 59, 27
25, 126478, Note_on_c, 13, 59, 0
25, 126480, Note_on_c, 13, 53, 35
25, 126526, Note_on_c, 13, 53, 0
25, 126528, Note_on_c, 13, 59, 27
25, 126574, Note_on_c, 13, 59, 0
25, 126576, Note_on_c, 13, 53, 25
25, 126622, Note_on_c, 13, 53, 0
25, 126624, Note_on_c, 13, 59, 25
25, 126670, Note_on_c, 13, 59, 0
25, 126672, Note_on_c, 13, 53, 33
25, 126718, Note_on_c, 13, 53, 0
25, 126720, Note_on_c, 13, 59, 32
25, 126766, Note_on_c, 13, 59, 0
25, 126768, Note_on_c, 13, 53, 27
25, 126814, Note_on_c, 13, 53, 0
25, 126816, Note_on_c, 13, 59, 25
25, 126862, Note_on_c, 13, 59, 0
25, 126864, Note_on_c, 13, 53, 27
25, 126910, Note_on_c, 13, 53, 0
25, 126912, Note_on_c, 13, 59, 33
25, 126958, Note_on_c, 13, 59, 0
25, 126960, Note_on_c, 13, 53, 29
25, 127006, Note_on_c, 13, 53, 0
25, 127008, Note_on_c, 13, 59, 33
25, 127054, Note_on_c, 13, 59, 0
25, 127056, Note_on_c, 13, 53, 27
25, 127102, Note_on_c, 13, 53, 0
25, 127104, Note_on_c, 13, 59, 27
25, 127150, Note_on_c, 13, 59, 0
25, 127152, Note_on_c, 13, 53, 27
25, 127198, Note_on_c, 13, 53, 0
25, 127200, Note_on_c, 13, 59, 31
25, 127246, Note_on_c, 13, 59, 0
25, 127248, Note_on_c, 13, 53, 29
25, 127294, Note_on_c, 13, 53, 0
25, 127296, Note_on_c, 13, 59, 35
25, 127342, Note_on_c, 13, 59, 0
25, 127344, Note_on_c, 13, 53, 27
25, 127390, Note_on_c, 13, 53, 0
25, 127392, Note_on_c, 13, 59, 33
25, 127438, Note_on_c, 13, 59, 0
25, 127440, Note_on_c, 13, 53, 25
25, 127486, Note_on_c, 13, 53, 0
25, 127488, Note_on_c, 13, 59, 28
25, 127534, Note_on_c, 13, 59, 0
25, 127536, Note_on_c, 13, 53, 30
25, 127582, Note_on_c, 13, 53, 0
25, 127584, Note_on_c, 13, 59, 30
25, 127630, Note_on_c, 13, 59, 0
25, 127632, Note_on_c, 13, 53, 32
25, 127678, Note_on_c, 13, 53, 0
25, 127680, Note_on_c, 13, 59, 31
25, 127726, Note_on_c, 13, 59, 0
25, 127728, Note_on_c, 13, 53, 25
25, 127774, Note_on_c, 13, 53, 0
25, 127776, Note_on_c, 13, 59, 25
25, 127822, Note_on_c, 13, 59, 0
25, 127824, Note_on_c, 13, 53, 34
25, 127870, Note_on_c, 13, 53, 0
25, 127872, Note_on_c, 13, 59, 26
25, 127918, Note_on_c, 13, 59, 0
25, 127920, Note_on_c, 13, 53, 26
25, 127966, Note_on_c, 13, 53, 0
25, 127968, Note_on_c, 13, 59, 34
25, 128014, Note_on_c, 13, 59, 0
25, 128016, Note_on_c, 13, 53, 30
25, 128062, Note_on_c, 13, 53, 0
25, 128064, Note_on_c, 13, 59, 31
25, 128110, Note_on_c, 13, 59, 0
25, 128112, Note_on_c, 13, 53, 34
25, 128158, Note_on_c, 13, 53, 0
25, 128160, Note_on_c, 13, 59, 34
25, 128206, Note_on_c, 13, 59, 0
25, 128208, Note_on_c, 13, 53, 34
25, 128254, Note_on_c, 13, 53, 0
25, 128256, Note_on_c, 13, 59, 33
25, 128302, Note_on_c, 13, 59, 0
25, 128304, Note_on_c, 13, 53, 25
25, 128350, Note_on_c, 13, 53, 0
25, 128352, Note_on_c, 13, 59, 30
25, 128398, Note_on_c, 13, 59, 0
25, 128400, Note_on_c, 13, 53, 31
25, 128446, Note_on_c, 13, 53, 0
25, 128448, Note_on_c, 13, 59, 35
25, 128494, Note_on_c, 13, 59, 0
25, 128496, Note_on_c, 13, 53, 25
25, 128542, Note_on_c, 13, 53, 0
25, 128544, Note_on_c, 13, 59, 28
25, 128590, Note_on_c, 13, 59, 0
25, 128592, Note_on_c, 13, 53, 33
25, 128638, Note_on_c, 13, 53, 0
25, 128640, Note_on_c, 13, 59, 30
25, 128686, Note_on_c, 13, 59, 0
25, 128688, Note_on_c, 13, 53, 25
25, 128734, Note_on_c, 13, 53, 0
25, 128736, Note_on_c, 13, 59, 34
25, 128782, Note_on_c, 13, 59, 0
25, 128784, Note_on_c, 13, 53, 29
25, 128830, Note_on_c, 13, 53, 0
25, 128832, Note_on_c, 13, 59, 30
25, 128878, Note_on_c, 13, 59, 0
25, 128880, Note_on_c, 13, 53, 29
25, 128926, Note_on_c, 13, 53, 0
25, 128928, Note_on_c, 13, 59, 31
25, 128974, Note_on_c, 13, 59, 0
25, 128976, Note_on_c, 13, 53, 33
25, 129022, Note_on_c, 13, 53, 0
25, 129024, Note_on_c, 13, 57, 28
25, 129070, Note_on_c, 13, 57, 0
25, 129072, Note_on_c, 13, 54, 31
25, 129118, Note_on_c, 13, 54, 0
25, 129120, Note_on_c, 13, 57, 34
25, 129166, Note_on_c, 13, 57, 0
25, 129168, Note_on_c, 13, 54, 26
25, 129214, Note_on_c, 13, 54, 0
25, 129216, Note_on_c, 13, 57, 35
25, 129262, Note_on_c, 13, 57, 0
25, 129264, Note_on_c, 13, 54, 26
25, 129310, Note_on_c, 13, 54, 0
25, 129312, Note_on_c, 13, 57, 26
25, 129358, Note_on_c, 13, 57, 0
25, 129360, Note_on_c, 13, 54, 25
25, 129406, Note_on_c, 13, 54, 0
25, 129408, Note_on_c, 13, 57, 31
25, 129454, Note_on_c, 13, 57, 0
25, 129456, Note_on_c, 13, 54, 30
25, 129502, Note_on_c, 13, 54, 0
25, 129504, Note_on_c, 13, 57, 25
25, 129550, Note_on_c, 13, 57, 0
25, 129552, Note_on_c, 13, 54, 26
25, 129598, Note_on_c, 13, 54, 0
25, 129600, Note_on_c, 13, 57, 25
25, 129646, Note_on_c, 13, 57, 0
25, 129648, Note_on_c, 13, 54, 33
25, 129694, Note_on_c, 13, 54, 0
25, 129696, Note_on_c, 13, 57, 35
25, 129742, Note_on_c, 13, 57, 0
25, 129744, Note_on_c, 13, 54, 28
25, 129790, Note_on_c, 13, 54, 0
25, 129792, Note_on_c, 13, 57, 30
25, 129838, Note_on_c, 13, 57, 0
25, 129840, Note_on_c, 13, 54, 35
25, 129886, Note_on_c, 13, 54, 0
25, 129888, Note_on_c, 13, 57, 25
25, 129934, Note_on_c, 13, 57, 0
25, 129936, Note_on_c, 13, 54, 34
25, 129982, Note_on_c, 13, 54, 0
25, 129984, Note_on_c, 13, 57, 33
25, 130030, Note_on_c, 13, 57, 0
25, 130032, Note_on_c, 13, 54, 30
25, 130078, Note_on_c, 13, 54, 0
25, 130080, Note_on_c, 13, 57, 26
25, 130126, Note_on_c, 13, 57, 0
25, 130128, Note_on_c, 13, 54, 28
25, 130174, Note_on_c, 13, 54, 0
25, 130176, Note_on_c, 13, 57, 34
25, 130222, Note_on_c, 13, 57, 0
25, 130224, Note_on_c, 13, 54, 25
25, 130270, Note_on_c, 13, 54, 0
25, 130272, Note_on_c, 13, 57, 33
25, 130318, Note_on_c, 13, 57, 0
25, 130320, Note_on_c, 13, 54, 35
25, 130366, Note_on_c, 13, 54, 0
25, 130368, Note_on_c, 13, 57, 34
25, 130414, Note_on_c, 13, 57, 0
25, 130416, Note_on_c, 13, 54, 34
25, 130462, Note_on_c, 13, 54, 0
25, 130464, Note_on_c, 13, 57, 28
25, 130510, Note_on_c, 13, 57, 0
25, 130512, Note_on_c, 13, 54, 35
25, 130558, Note_on_c, 13, 54, 0
25, 130560, Note_on_c, 13, 57, 33
25, 130606, Note_on_c, 13, 57, 0
25, 130608, Note_on_c, 13, 54, 26
25, 130654, Note_on_c, 13, 54, 0
25, 130656, Note_on_c, 13, 57, 35
25, 130702, Note_on_c, 13, 57, 0
25, 130704, Note_on_c, 13, 54, 31
25, 130750, Note_on_c, 13, 54, 0
25, 130752, Note_on_c, 13, 57, 32
25, 130798, Note_on_c, 13, 57, 0
25, 130800, Note_on_c, 13, 54, 35
25, 130846, Note_on_c, 13, 54, 0
25, 130848, Note_on_c, 13, 57, 33
25, 130894, Note_on_c, 13, 57, 0
25, 130896, Note_on_c, 13, 54, 30
25, 130942, Note_on_c, 13, 54, 0
25, 130944, Note_on_c, 13, 57, 26
25, 130990, Note_on_c, 13, 57, 0
25, 130992, Note_on_c, 13, 54, 27
25, 131038, Note_on_c, 13, 54, 0
25, 131040, Note_on_c, 13, 57, 33
25, 131086, Note_on_c, 13, 57, 0
25, 131088, Note_on_c, 13, 54, 33
25, 131134, Note_on_c, 13, 54, 0
25, 131136, Note_on_c, 13, 57, 30
25, 131182, Note_on_c, 13, 57, 0
25, 131184, Note_on_c, 13, 54, 25
25, 131230, Note_on_c, 13, 54, 0
25, 131232, Note_on_c, 13, 57, 27
25, 131278, Note_on_c, 13, 57, 0
25, 131280, Note_on_c, 13, 54, 33
25, 131326, Note_on_c, 13, 54, 0
25, 131328, Note_on_c, 13, 57, 26
25, 131374, Note_on_c, 13, 57, 0
25, 131376, Note_on_c, 13, 54, 30
25, 131422, Note_on_c, 13, 54, 0
25, 131424, Note_on_c, 13, 57, 33
25, 131470, Note_on_c, 13, 57, 0
25, 131472, Note_on_c, 13, 54, 31
25, 131518, Note_on_c, 13, 54, 0
25, 131520, Note_on_c, 13, 57, 29
25, 131566, Note_on_c, 13, 57, 0
25, 131568, Note_on_c, 13, 54, 34
25, 131614, Note_on_c, 13, 54, 0
25, 131616, Note_on_c, 13, 57, 27
25, 131662, Note_on_c, 13, 57, 0
25, 131664, Note_on_c, 13, 54, 33
25, 131710, Note_on_c, 13, 54, 0
25, 131712, Note_on_c, 13, 57, 28
25, 131758, Note_on_c, 13, 57, 0
25, 131760, Note_on_c, 13, 54, 27
25, 131806, Note_on_c, 13, 54, 0
25, 131808, Note_on_c, 13, 57, 34
25, 131854, Note_on_c, 13, 57, 0
25, 131856, Note_on_c, 13, 54, 25
25, 131902, Note_on_c, 13, 54, 0
25, 131904, Note_on_c, 13, 57, 25
25, 131950, Note_on_c, 13, 57, 0
25, 131952, Note_on_c, 13, 54, 28
25, 131998, Note_on_c, 13, 54, 0
25, 132000, Note_on_c, 13, 57, 33
25, 132046, Note_on_c, 13, 57, 0
25, 132048, Note_on_c, 13, 54, 32
25, 132094, Note_on_c, 13, 54, 0
25, 132096, Note_on_c, 13, 53, 32
25, 132142, Note_on_c, 13, 53, 0
25, 132144, Note_on_c, 13, 53, 30
25, 132190, Note_on_c, 13, 53, 0
25, 132192, Note_on_c, 13, 53, 27
25, 132238, Note_on_c, 13, 53, 0
25, 132240, Note_on_c, 13, 53, 33
25, 132286, Note_on_c, 13, 53, 0
25, 132288, Note_on_c, 13, 53, 29
25, 132334, Note_on_c, 13, 53, 0
25, 132336, Note_on_c, 13, 53, 27
25, 132382, Note_on_c, 13, 53, 0
25, 132384, Note_on_c, 13, 53, 35
25, 132430, Note_on_c, 13, 53, 0
25, 132432, Note_on_c, 13, 53, 27
25, 132478, Note_on_c, 13, 53, 0
25, 132480, Note_on_c, 13, 56, 32
25, 132526, Note_on_c, 13, 56, 0
25, 132528, Note_on_c, 13, 56, 34
25, 132574, Note_on_c, 13, 56, 0
25, 132576, Note_on_c, 13, 56, 30
25, 132622, Note_on_c, 13, 56, 0
25, 132624, Note_on_c, 13, 56, 34
25, 132670, Note_on_c, 13, 56, 0
25, 132672, Note_on_c, 13, 56, 28
25, 132718, Note_on_c, 13, 56, 0
25, 132720, Note_on_c, 13, 56, 32
25, 132766, Note_on_c, 13, 56, 0
25, 132768, Note_on_c, 13, 56, 33
25, 132814, Note_on_c, 13, 56, 0
25, 132816, Note_on_c, 13, 56, 32
25, 132862, Note_on_c, 13, 56, 0
25, 132864, Note_on_c, 13, 65, 25
25, 132910, Note_on_c, 13, 65, 0
25, 132912, Note_on_c, 13, 65, 27
25, 132958, Note_on_c, 13, 65, 0
25, 132960, Note_on_c, 13, 65, 38
25, 133006, Note_on_c, 13, 65, 0
25, 133008, Note_on_c, 13, 65, 36
25, 133054, Note_on_c, 13, 65, 0
25, 133056, Note_on_c, 13, 65, 42
25, 133102, Note_on_c, 13, 65, 0
25, 133104, Note_on_c, 13, 65, 44
25, 133150, Note_on_c, 13, 65, 0
25, 133152, Note_on_c, 13, 65, 40
25, 133198, Note_on_c, 13, 65, 0
25, 133200, Note_on_c, 13, 65, 40
25, 133246, Note_on_c, 13, 65, 0
25, 133248, Note_on_c, 13, 65, 43
25, 133294, Note_on_c, 13, 65, 0
25, 133296, Note_on_c, 13, 65, 50
25, 133342, Note_on_c, 13, 65, 0
25, 133344, Note_on_c, 13, 65, 51
25, 133390, Note_on_c, 13, 65, 0
25, 133392, Note_on_c, 13, 65, 60
25, 133438, Note_on_c, 13, 65, 0
25, 133440, Note_on_c, 13, 65, 63
25, 133486, Note_on_c, 13, 65, 0
25, 133488, Note_on_c, 13, 65, 64
25, 133534, Note_on_c, 13, 65, 0
25, 133536, Note_on_c, 13, 65, 56
25, 133582, Note_on_c, 13, 65, 0
25, 133584, Note_on_c, 13, 65, 64
25, 133630, Note_on_c, 13, 65, 0
25, 133632, Note_on_c, 13, 53, 30
25, 133678, Note_on_c, 13, 53, 0
25, 133680, Note_on_c, 13, 53, 26
25, 133726, Note_on_c, 13, 53, 0
25, 133728, Note_on_c, 13, 53, 25
25, 133774, Note_on_c, 13, 53, 0
25, 133776, Note_on_c, 13, 53, 34
25, 133822, Note_on_c, 13, 53, 0
25, 133824, Note_on_c, 13, 53, 34
25, 133870, Note_on_c, 13, 53, 0
25, 133872, Note_on_c, 13, 53, 28
25, 133918, Note_on_c, 13, 53, 0
25, 133920, Note_on_c, 13, 53, 31
25, 133966, Note_on_c, 13, 53, 0
25, 133968, Note_on_c, 13, 53, 35
25, 134014, Note_on_c, 13, 53, 0
25, 134016, Note_on_c, 13, 56, 26
25, 134062, Note_on_c, 13, 56, 0
25, 134064, Note_on_c, 13, 56, 32
25, 134110, Note_on_c, 13, 56, 0
25, 134112, Note_on_c, 13, 56, 26
25, 134158, Note_on_c, 13, 56, 0
25, 134160, Note_on_c, 13, 56, 31
25, 134206, Note_on_c, 13, 56, 0
25, 134208, Note_on_c, 13, 56, 26
25, 134254, Note_on_c, 13, 56, 0
25, 134256, Note_on_c, 13, 56, 25
25, 134302, Note_on_c, 13, 56, 0
25, 134304, Note_on_c, 13, 56, 33
25, 134350, Note_on_c, 13, 56, 0
25, 134352, Note_on_c, 13, 56, 32
25, 134398, Note_on_c, 13, 56, 0
25, 134400, Note_on_c, 13, 65, 33
25, 134446, Note_on_c, 13, 65, 0
25, 134448, Note_on_c, 13, 65, 30
25, 134494, Note_on_c, 13, 65, 0
25, 134496, Note_on_c, 13, 65, 30
25, 134542, Note_on_c, 13, 65, 0
25, 134544, Note_on_c, 13, 65, 30
25, 134590, Note_on_c, 13, 65, 0
25, 134592, Note_on_c, 13, 65, 34
25, 134638, Note_on_c, 13, 65, 0
25, 134640, Note_on_c, 13, 65, 29
25, 134686, Note_on_c, 13, 65, 0
25, 134688, Note_on_c, 13, 65, 30
25, 134734, Note_on_c, 13, 65, 0
25, 134736, Note_on_c, 13, 65, 35
25, 134782, Note_on_c, 13, 65, 0
25, 134784, Note_on_c, 13, 56, 30
25, 134830, Note_on_c, 13, 56, 0
25, 134832, Note_on_c, 13, 56, 29
25, 134878, Note_on_c, 13, 56, 0
25, 134880, Note_on_c, 13, 56, 32
25, 134926, Note_on_c, 13, 56, 0
25, 134928, Note_on_c, 13, 56, 27
25, 134974, Note_on_c, 13, 56, 0
25, 134976, Note_on_c, 13, 56, 28
25, 135022, Note_on_c, 13, 56, 0
25, 135024, Note_on_c, 13, 56, 34
25, 135070, Note_on_c, 13, 56, 0
25, 135072, Note_on_c, 13, 56, 27
25, 135118, Note_on_c, 13, 56, 0
25, 135120, Note_on_c, 13, 56, 31
25, 135166, Note_on_c, 13, 56, 0
25, 135168, Note_on_c, 13, 59, 28
25, 135214, Note_on_c, 13, 59, 0
25, 135216, Note_on_c, 13, 53, 34
25, 135262, Note_on_c, 13, 53, 0
25, 135264, Note_on_c, 13, 59, 25
25, 135310, Note_on_c, 13, 59, 0
25, 135312, Note_on_c, 13, 53, 34
25, 135358, Note_on_c, 13, 53, 0
25, 135360, Note_on_c, 13, 59, 27
25, 135406, Note_on_c, 13, 59, 0
25, 135408, Note_on_c, 13, 53, 35
25, 135454, Note_on_c, 13, 53, 0
25, 135456, Note_on_c, 13, 59, 36
25, 135502, Note_on_c, 13, 59, 0
25, 135504, Note_on_c, 13, 53, 30
25, 135550, Note_on_c, 13, 53, 0
25, 135552, Note_on_c, 13, 59, 32
25, 135598, Note_on_c, 13, 59, 0
25, 135600, Note_on_c, 13, 53, 39
25, 135646, Note_on_c, 13, 53, 0
25, 135648, Note_on_c, 13, 59, 43
25, 135694, Note_on_c, 13, 59, 0
25, 135696, Note_on_c, 13, 53, 39
25, 135742, Note_on_c, 13, 53, 0
25, 135744, Note_on_c, 13, 59, 39
25, 135790, Note_on_c, 13, 59, 0
25, 135792, Note_on_c, 13, 53, 42
25, 135838, Note_on_c, 13, 53, 0
25, 135840, Note_on_c, 13, 59, 38
25, 135886, Note_on_c, 13, 59, 0
25, 135888, Note_on_c, 13, 53, 44
25, 135934, Note_on_c, 13, 53, 0
25, 135936, Note_on_c, 13, 59, 41
25, 135982, Note_on_c, 13, 59, 0
25, 135984, Note_on_c, 13, 53, 40
25, 136030, Note_on_c, 13, 53, 0
25, 136032, Note_on_c, 13, 59, 47
25, 136078, Note_on_c, 13, 59, 0
25, 136080, Note_on_c, 13, 53, 48
25, 136126, Note_on_c, 13, 53, 0
25, 136128, Note_on_c, 13, 59, 51
25, 136174, Note_on_c, 13, 59, 0
25, 136176, Note_on_c, 13, 53, 53
25, 136222, Note_on_c, 13, 53, 0
25, 136224, Note_on_c, 13, 59, 52
25, 136270, Note_on_c, 13, 59, 0
25, 136272, Note_on_c, 13, 53, 55
25, 136318, Note_on_c, 13, 53, 0
25, 136320, Note_on_c, 13, 59, 51
25, 136366, Note_on_c, 13, 59, 0
25, 136368, Note_on_c, 13, 53, 54
25, 136414, Note_on_c, 13, 53, 0
25, 136416, Note_on_c, 13, 59, 50
25, 136462, Note_on_c, 13, 59, 0
25, 136464, Note_on_c, 13, 53, 55
25, 136510, Note_on_c, 13, 53, 0
25, 136512, Note_on_c, 13, 59, 59
25, 136558, Note_on_c, 13, 59, 0
25, 136560, Note_on_c, 13, 53, 53
25, 136606, Note_on_c, 13, 53, 0
25, 136608, Note_on_c, 13, 59, 57
25, 136654, Note_on_c, 13, 59, 0
25, 136656, Note_on_c, 13, 53, 59
25, 136702, Note_on_c, 13, 53, 0
25, 136704, Note_on_c, 13, 59, 57
25, 136750, Note_on_c, 13, 59, 0
25, 136752, Note_on_c, 13, 53, 63
25, 136798, Note_on_c, 13, 53, 0
25, 136800, Note_on_c, 13, 59, 59
25, 136846, Note_on_c, 13, 59, 0
25, 136848, Note_on_c, 13, 53, 58
25, 136894, Note_on_c, 13, 53, 0
25, 136896, Note_on_c, 13, 59, 63
25, 136942, Note_on_c, 13, 59, 0
25, 136944, Note_on_c, 13, 53, 65
25, 136990, Note_on_c, 13, 53, 0
25, 136992, Note_on_c, 13, 59, 70
25, 137038, Note_on_c, 13, 59, 0
25, 137040, Note_on_c, 13, 53, 67
25, 137086, Note_on_c, 13, 53, 0
25, 137088, Note_on_c, 13, 59, 72
25, 137134, Note_on_c, 13, 59, 0
25, 137136, Note_on_c, 13, 53, 74
25, 137182, Note_on_c, 13, 53, 0
25, 137184, Note_on_c, 13, 59, 73
25, 137230, Note_on_c, 13, 59, 0
25, 137232, Note_on_c, 13, 53, 76
25, 137278, Note_on_c, 13, 53, 0
25, 137280, Note_on_c, 13, 59, 69
25, 137326, Note_on_c, 13, 59, 0
25, 137328, Note_on_c, 13, 53, 69
25, 137374, Note_on_c, 13, 53, 0
25, 137376, Note_on_c, 13, 59, 79
25, 137422, Note_on_c, 13, 59, 0
25, 137424, Note_on_c, 13, 53, 70
25, 137470, Note_on_c, 13, 53, 0
25, 137472, Note_on_c, 13, 59, 77
25, 137518, Note_on_c, 13, 59, 0
25, 137520, Note_on_c, 13, 56, 75
25, 137566, Note_on_c, 13, 56, 0
25, 137568, Note_on_c, 13, 59, 78
25, 137614, Note_on_c, 13, 59, 0
25, 137616, Note_on_c, 13, 56, 80
25, 137662, Note_on_c, 13, 56, 0
25, 137664, Note_on_c, 13, 59, 82
25, 137710, Note_on_c, 13, 59, 0
25, 137712, Note_on_c, 13, 56, 83
25, 137758, Note_on_c, 13, 56, 0
25, 137760, Note_on_c, 13, 59, 82
25, 137806, Note_on_c, 13, 59, 0
25, 137808, Note_on_c, 13, 56, 88
25, 137854, Note_on_c, 13, 56, 0
25, 137856, Note_on_c, 13, 61, 84
25, 137902, Note_on_c, 13, 61, 0
25, 137904, Note_on_c, 13, 59, 84
25, 137950, Note_on_c, 13, 59, 0
25, 137952, Note_on_c, 13, 61, 83
25, 137998, Note_on_c, 13, 61, 0
25, 138000, Note_on_c, 13, 59, 82
25, 138046, Note_on_c, 13, 59, 0
25, 138048, Note_on_c, 13, 61, 92
25, 138094, Note_on_c, 13, 61, 0
25, 138096, Note_on_c, 13, 59, 93
25, 138142, Note_on_c, 13, 59, 0
25, 138144, Note_on_c, 13, 61, 87
25, 138190, Note_on_c, 13, 61, 0
25, 138192, Note_on_c, 13, 59, 94
25, 138238, Note_on_c, 13, 59, 0
25, 142080, Note_on_c, 13, 64, 34
25, 142126, Note_on_c, 13, 64, 0
25, 142128, Note_on_c, 13, 64, 28
25, 142174, Note_on_c, 13, 64, 0
25, 142176, Note_on_c, 13, 64, 26
25, 142222, Note_on_c, 13, 64, 0
25, 142224, Note_on_c, 13, 64, 34
25, 142270, Note_on_c, 13, 64, 0
25, 142272, Note_on_c, 13, 64, 27
25, 142318, Note_on_c, 13, 64, 0
25, 142320, Note_on_c, 13, 64, 25
25, 142366, Note_on_c, 13, 64, 0
25, 142368, Note_on_c, 13, 64, 25
25, 142414, Note_on_c, 13, 64, 0
25, 142416, Note_on_c, 13, 64, 28
25, 142462, Note_on_c, 13, 64, 0
25, 142464, Note_on_c, 13, 71, 24
25, 142510, Note_on_c, 13, 71, 0
25, 142512, Note_on_c, 13, 71, 24
25, 142558, Note_on_c, 13, 71, 0
25, 142560, Note_on_c, 13, 71, 30
25, 142606, Note_on_c, 13, 71, 0
25, 142608, Note_on_c, 13, 71, 27
25, 142654, Note_on_c, 13, 71, 0
25, 142656, Note_on_c, 13, 71, 26
25, 142702, Note_on_c, 13, 71, 0
25, 142704, Note_on_c, 13, 71, 19
25, 142750, Note_on_c, 13, 71, 0
25, 142752, Note_on_c, 13, 71, 26
25, 142798, Note_on_c, 13, 71, 0
25, 142800, Note_on_c, 13, 71, 15
25, 142846, Note_on_c, 13, 71, 0
25, 144384, Note_on_c, 13, 58, 50
25, 144430, Note_on_c, 13, 58, 0
25, 144432, Note_on_c, 13, 55, 41
25, 144478, Note_on_c, 13, 55, 0
25, 144480, Note_on_c, 13, 58, 40
25, 144526, Note_on_c, 13, 58, 0
25, 144528, Note_on_c, 13, 55, 41
25, 144574, Note_on_c, 13, 55, 0
25, 144576, Note_on_c, 13, 58, 44
25, 144622, Note_on_c, 13, 58, 0
25, 144624, Note_on_c, 13, 55, 40
25, 144670, Note_on_c, 13, 55, 0
25, 144672, Note_on_c, 13, 58, 50
25, 144718, Note_on_c, 13, 58, 0
25, 144720, Note_on_c, 13, 55, 44
25, 144766, Note_on_c, 13, 55, 0
25, 144768, Note_on_c, 13, 57, 49
25, 144814, Note_on_c, 13, 57, 0
25, 144816, Note_on_c, 13, 54, 42
25, 144862, Note_on_c, 13, 54, 0
25, 144864, Note_on_c, 13, 57, 50
25, 144910, Note_on_c, 13, 57, 0
25, 144912, Note_on_c, 13, 54, 44
25, 144958, Note_on_c, 13, 54, 0
25, 144960, Note_on_c, 13, 57, 43
25, 145006, Note_on_c, 13, 57, 0
25, 145008, Note_on_c, 13, 54, 42
25, 145054, Note_on_c, 13, 54, 0
25, 145056, Note_on_c, 13, 57, 41
25, 145102, Note_on_c, 13, 57, 0
25, 145104, Note_on_c, 13, 54, 45
25, 145150, Note_on_c, 13, 54, 0
25, 145152, Note_on_c, 13, 58, 46
25, 145198, Note_on_c, 13, 58, 0
25, 145200, Note_on_c, 13, 55, 42
25, 145246, Note_on_c, 13, 55, 0
25, 145248, Note_on_c, 13, 58, 48
25, 145294, Note_on_c, 13, 58, 0
25, 145296, Note_on_c, 13, 55, 47
25, 145342, Note_on_c, 13, 55, 0
25, 145344, Note_on_c, 13, 58, 43
25, 145390, Note_on_c, 13, 58, 0
25, 145392, Note_on_c, 13, 55, 48
25, 145438, Note_on_c, 13, 55, 0
25, 145440, Note_on_c, 13, 58, 43
25, 145486, Note_on_c, 13, 58, 0
25, 145488, Note_on_c, 13, 55, 46
25, 145534, Note_on_c, 13, 55, 0
25, 145536, Note_on_c, 13, 57, 50
25, 145582, Note_on_c, 13, 57, 0
25, 145584, Note_on_c, 13, 54, 44
25, 145630, Note_on_c, 13, 54, 0
25, 145632, Note_on_c, 13, 57, 42
25, 145678, Note_on_c, 13, 57, 0
25, 145680, Note_on_c, 13, 54, 45
25, 145726, Note_on_c, 13, 54, 0
25, 145728, Note_on_c, 13, 57, 45
25, 145774, Note_on_c, 13, 57, 0
25, 145776, Note_on_c, 13, 54, 42
25, 145822, Note_on_c, 13, 54, 0
25, 145824, Note_on_c, 13, 57, 42
25, 145870, Note_on_c, 13, 57, 0
25, 145872, Note_on_c, 13, 54, 46
25, 145918, Note_on_c, 13, 54, 0
25, 145920, Note_on_c, 13, 70, 50
25, 145966, Note_on_c, 13, 70, 0
25, 145968, Note_on_c, 13, 67, 50
25, 146014, Note_on_c, 13, 67, 0
25, 146016, Note_on_c, 13, 70, 43
25, 146062, Note_on_c, 13, 70, 0
25, 146064, Note_on_c, 13, 67, 48
25, 146110, Note_on_c, 13, 67, 0
25, 146112, Note_on_c, 13, 70, 47
25, 146158, Note_on_c, 13, 70, 0
25, 146160, Note_on_c, 13, 67, 42
25, 146206, Note_on_c, 13, 67, 0
25, 146208, Note_on_c, 13, 70, 49
25, 146254, Note_on_c, 13, 70, 0
25, 146256, Note_on_c, 13, 67, 47
25, 146302, Note_on_c, 13, 67, 0
25, 146304, Note_on_c, 13, 69, 40
25, 146350, Note_on_c, 13, 69, 0
25, 146352, Note_on_c, 13, 66, 40
25, 146398, Note_on_c, 13, 66, 0
25, 146400, Note_on_c, 13, 69, 49
25, 146446, Note_on_c, 13, 69, 0
25, 146448, Note_on_c, 13, 66, 48
25, 146494, Note_on_c, 13, 66, 0
25, 146496, Note_on_c, 13, 69, 41
25, 146542, Note_on_c, 13, 69, 0
25, 146544, Note_on_c, 13, 66, 42
25, 146590, Note_on_c, 13, 66, 0
25, 146592, Note_on_c, 13, 69, 44
25, 146638, Note_on_c, 13, 69, 0
25, 146640, Note_on_c, 13, 66, 48
25, 146686, Note_on_c, 13, 66, 0
25, 146688, Note_on_c, 13, 70, 46
25, 146734, Note_on_c, 13, 70, 0
25, 146736, Note_on_c, 13, 67, 50
25, 146782, Note_on_c, 13, 67, 0
25, 146784, Note_on_c, 13, 70, 48
25, 146830, Note_on_c, 13, 70, 0
25, 146832, Note_on_c, 13, 67, 50
25, 146878, Note_on_c, 13, 67, 0
25, 146880, Note_on_c, 13, 70, 46
25, 146926, Note_on_c, 13, 70, 0
25, 146928, Note_on_c, 13, 67, 50
25, 146974, Note_on_c, 13, 67, 0
25, 146976, Note_on_c, 13, 70, 41
25, 147022, Note_on_c, 13, 70, 0
25, 147024, Note_on_c, 13, 67, 40
25, 147070, Note_on_c, 13, 67, 0
25, 147072, Note_on_c, 13, 69, 46
25, 147118, Note_on_c, 13, 69, 0
25, 147120, Note_on_c, 13, 66, 48
25, 147166, Note_on_c, 13, 66, 0
25, 147168, Note_on_c, 13, 69, 49
25, 147214, Note_on_c, 13, 69, 0
25, 147216, Note_on_c, 13, 66, 40
25, 147262, Note_on_c, 13, 66, 0
25, 147264, Note_on_c, 13, 69, 49
25, 147310, Note_on_c, 13, 69, 0
25, 147312, Note_on_c, 13, 66, 43
25, 147358, Note_on_c, 13, 66, 0
25, 147360, Note_on_c, 13, 69, 47
25, 147406, Note_on_c, 13, 69, 0
25, 147408, Note_on_c, 13, 66, 47
25, 147454, Note_on_c, 13, 66, 0
25, 147456, Note_on_c, 13, 64, 41
25, 147502, Note_on_c, 13, 64, 0
25, 147504, Note_on_c, 13, 64, 40
25, 147550, Note_on_c, 13, 64, 0
25, 147552, Note_on_c, 13, 64, 42
25, 147598, Note_on_c, 13, 64, 0
25, 147600, Note_on_c, 13, 64, 46
25, 147646, Note_on_c, 13, 64, 0
25, 147648, Note_on_c, 13, 64, 47
25, 147694, Note_on_c, 13, 64, 0
25, 147696, Note_on_c, 13, 64, 49
25, 147742, Note_on_c, 13, 64, 0
25, 147744, Note_on_c, 13, 64, 51
25, 147790, Note_on_c, 13, 64, 0
25, 147792, Note_on_c, 13, 64, 47
25, 147838, Note_on_c, 13, 64, 0
25, 147840, Note_on_c, 13, 64, 46
25, 147886, Note_on_c, 13, 64, 0
25, 147888, Note_on_c, 13, 64, 54
25, 147934, Note_on_c, 13, 64, 0
25, 147936, Note_on_c, 13, 64, 57
25, 147982, Note_on_c, 13, 64, 0
25, 147984, Note_on_c, 13, 64, 58
25, 148030, Note_on_c, 13, 64, 0
25, 148032, Note_on_c, 13, 64, 54
25, 148078, Note_on_c, 13, 64, 0
25, 148080, Note_on_c, 13, 64, 60
25, 148126, Note_on_c, 13, 64, 0
25, 148128, Note_on_c, 13, 64, 56
25, 148174, Note_on_c, 13, 64, 0
25, 148176, Note_on_c, 13, 64, 62
25, 148222, Note_on_c, 13, 64, 0
25, 148224, Note_on_c, 13, 74, 60
25, 148270, Note_on_c, 13, 74, 0
25, 148272, Note_on_c, 13, 74, 62
25, 148318, Note_on_c, 13, 74, 0
25, 148320, Note_on_c, 13, 74, 65
25, 148366, Note_on_c, 13, 74, 0
25, 148368, Note_on_c, 13, 74, 62
25, 148414, Note_on_c, 13, 74, 0
25, 148416, Note_on_c, 13, 74, 59
25, 148462, Note_on_c, 13, 74, 0
25, 148464, Note_on_c, 13, 74, 66
25, 148510, Note_on_c, 13, 74, 0
25, 148512, Note_on_c, 13, 74, 60
25, 148558, Note_on_c, 13, 74, 0
25, 148560, Note_on_c, 13, 74, 65
25, 148606, Note_on_c, 13, 74, 0
25, 148608, Note_on_c, 13, 72, 62
25, 148654, Note_on_c, 13, 72, 0
25, 148656, Note_on_c, 13, 72, 68
25, 148702, Note_on_c, 13, 72, 0
25, 148704, Note_on_c, 13, 72, 67
25, 148750, Note_on_c, 13, 72, 0
25, 148752, Note_on_c, 13, 72, 64
25, 148798, Note_on_c, 13, 72, 0
25, 148800, Note_on_c, 13, 72, 71
25, 148846, Note_on_c, 13, 72, 0
25, 148848, Note_on_c, 13, 72, 72
25, 148894, Note_on_c, 13, 72, 0
25, 148896, Note_on_c, 13, 72, 67
25, 148942, Note_on_c, 13, 72, 0
25, 148944, Note_on_c, 13, 72, 75
25, 148990, Note_on_c, 13, 72, 0
25, 148992, Note_on_c, 13, 76, 78
25, 149038, Note_on_c, 13, 76, 0
25, 149040, Note_on_c, 13, 76, 76
25, 149086, Note_on_c, 13, 76, 0
25, 149088, Note_on_c, 13, 76, 79
25, 149134, Note_on_c, 13, 76, 0
25, 149136, Note_on_c, 13, 76, 70
25, 149182, Note_on_c, 13, 76, 0
25, 149184, Note_on_c, 13, 76, 72
25, 149230, Note_on_c, 13, 76, 0
25, 149232, Note_on_c, 13, 76, 77
25, 149278, Note_on_c, 13, 76, 0
25, 149280, Note_on_c, 13, 76, 75
25, 149326, Note_on_c, 13, 76, 0
25, 149328, Note_on_c, 13, 76, 79
25, 149374, Note_on_c, 13, 76, 0
25, 149376, Note_on_c, 13, 76, 73
25, 149422, Note_on_c, 13, 76, 0
25, 149424, Note_on_c, 13, 76, 72
25, 149470, Note_on_c, 13, 76, 0
25, 149472, Note_on_c, 13, 76, 76
25, 149518, Note_on_c, 13, 76, 0
25, 149520, Note_on_c, 13, 76, 74
25, 149566, Note_on_c, 13, 76, 0
25, 149568, Note_on_c, 13, 76, 79
25, 149614, Note_on_c, 13, 76, 0
25, 149616, Note_on_c, 13, 76, 77
25, 149662, Note_on_c, 13, 76, 0
25, 149664, Note_on_c, 13, 76, 77
25, 149710, Note_on_c, 13, 76, 0
25, 149712, Note_on_c, 13, 76, 79
25, 149758, Note_on_c, 13, 76, 0
25, 149760, Note_on_c, 13, 76, 75
25, 149806, Note_on_c, 13, 76, 0
25, 149808, Note_on_c, 13, 76, 80
25, 149854, Note_on_c, 13, 76, 0
25, 149856, Note_on_c, 13, 76, 81
25, 149902, Note_on_c, 13, 76, 0
25, 149904, Note_on_c, 13, 76, 85
25, 149950, Note_on_c, 13, 76, 0
25, 149952, Note_on_c, 13, 76, 80
25, 149998, Note_on_c, 13, 76, 0
25, 150000, Note_on_c, 13, 76, 86
25, 150046, Note_on_c, 13, 76, 0
25, 150048, Note_on_c, 13, 76, 82
25, 150094, Note_on_c, 13, 76, 0
25, 150096, Note_on_c, 13, 76, 85
25, 150142, Note_on_c, 13, 76, 0
25, 150144, Note_on_c, 13, 76, 84
25, 150190, Note_on_c, 13, 76, 0
25, 150192, Note_on_c, 13, 76, 84
25, 150238, Note_on_c, 13, 76, 0
25, 150240, Note_on_c, 13, 76, 85
25, 150286, Note_on_c, 13, 76, 0
25, 150288, Note_on_c, 13, 76, 92
25, 150334, Note_on_c, 13, 76, 0
25, 150336, Note_on_c, 13, 76, 84
25, 150382, Note_on_c, 13, 76, 0
25, 150384, Note_on_c, 13, 76, 93
25, 150430, Note_on_c, 13, 76, 0
25, 150432, Note_on_c, 13, 76, 88
25, 150478, Note_on_c, 13, 76, 0
25, 150480, Note_on_c, 13, 76, 94
25, 150526, Note_on_c, 13, 76, 0
25, 150528, Program_c, 13, 50
25, 150528, Control_c, 13, 11, 92
25, 150528, Note_on_c, 13, 81, 109
25, 150656, Note_on_c, 13, 81, 0
25, 150656, Note_on_c, 13, 81, 109
25, 150784, Note_on_c, 13, 81, 0
25, 150784, Note_on_c, 13, 80, 112
25, 151296, Control_c, 13, 11, 92
25, 151317, Control_c, 13, 11, 93
25, 151339, Control_c, 13, 11, 94
25, 151361, Control_c, 13, 11, 95
25, 151383, Control_c, 13, 11, 96
25, 151405, Control_c, 13, 11, 97
25, 151427, Control_c, 13, 11, 98
25, 151449, Control_c, 13, 11, 99
25, 151471, Control_c, 13, 11, 100
25, 151493, Control_c, 13, 11, 101
25, 151515, Control_c, 13, 11, 102
25, 151537, Control_c, 13, 11, 103
25, 151559, Control_c, 13, 11, 104
25, 151581, Control_c, 13, 11, 105
25, 151603, Control_c, 13, 11, 106
25, 151625, Control_c, 13, 11, 107
25, 151647, Control_c, 13, 11, 108
25, 151669, Control_c, 13, 11, 109
25, 151680, Note_on_c, 13, 80, 0
25, 151680, Note_on_c, 13, 81, 110
25, 151690, Control_c, 13, 11, 110
25, 151712, Control_c, 13, 11, 111
25, 151734, Control_c, 13, 11, 112
25, 151756, Control_c, 13, 11, 113
25, 151778, Control_c, 13, 11, 114
25, 151800, Control_c, 13, 11, 115
25, 151808, Note_on_c, 13, 81, 0
25, 151808, Note_on_c, 13, 81, 105
25, 151822, Control_c, 13, 11, 116
25, 151844, Control_c, 13, 11, 117
25, 151866, Control_c, 13, 11, 118
25, 151888, Control_c, 13, 11, 119
25, 151910, Control_c, 13, 11, 120
25, 151932, Control_c, 13, 11, 121
25, 151936, Note_on_c, 13, 81, 0
25, 151936, Note_on_c, 13, 80, 108
25, 151954, Control_c, 13, 11, 122
25, 151976, Control_c, 13, 11, 123
25, 151998, Control_c, 13, 11, 124
25, 152020, Control_c, 13, 11, 125
25, 152042, Control_c, 13, 11, 126
25, 152062, Note_on_c, 13, 80, 0
25, 152064, Control_c, 13, 11, 127
25, 152064, Control_c, 13, 11, 92
25, 152064, Note_on_c, 13, 82, 112
25, 152192, Note_on_c, 13, 82, 0
25, 152192, Note_on_c, 13, 82, 113
25, 152320, Note_on_c, 13, 82, 0
25, 152320, Note_on_c, 13, 80, 104
25, 152832, Control_c, 13, 11, 92
25, 152853, Control_c, 13, 11, 93
25, 152875, Control_c, 13, 11, 94
25, 152897, Control_c, 13, 11, 95
25, 152919, Control_c, 13, 11, 96
25, 152941, Control_c, 13, 11, 97
25, 152963, Control_c, 13, 11, 98
25, 152985, Control_c, 13, 11, 99
25, 153007, Control_c, 13, 11, 100
25, 153029, Control_c, 13, 11, 101
25, 153051, Control_c, 13, 11, 102
25, 153073, Control_c, 13, 11, 103
25, 153095, Control_c, 13, 11, 104
25, 153117, Control_c, 13, 11, 105
25, 153139, Control_c, 13, 11, 106
25, 153161, Control_c, 13, 11, 107
25, 153183, Control_c, 13, 11, 108
25, 153205, Control_c, 13, 11, 109
25, 153216, Note_on_c, 13, 80, 0
25, 153216, Note_on_c, 13, 82, 113
25, 153226, Control_c, 13, 11, 110
25, 153248, Control_c, 13, 11, 111
25, 153270, Control_c, 13, 11, 112
25, 153292, Control_c, 13, 11, 113
25, 153314, Control_c, 13, 11, 114
25, 153336, Control_c, 13, 11, 115
25, 153344, Note_on_c, 13, 82, 0
25, 153344, Note_on_c, 13, 82, 109
25, 153358, Control_c, 13, 11, 116
25, 153380, Control_c, 13, 11, 117
25, 153402, Control_c, 13, 11, 118
25, 153424, Control_c, 13, 11, 119
25, 153446, Control_c, 13, 11, 120
25, 153468, Control_c, 13, 11, 121
25, 153472, Note_on_c, 13, 82, 0
25, 153472, Note_on_c, 13, 80, 107
25, 153490, Control_c, 13, 11, 122
25, 153512, Control_c, 13, 11, 123
25, 153534, Control_c, 13, 11, 124
25, 153556, Control_c, 13, 11, 125
25, 153578, Control_c, 13, 11, 126
25, 153598, Note_on_c, 13, 80, 0
25, 153600, Control_c, 13, 11, 127
25, 153600, Note_on_c, 13, 83, 96
25, 153668, Note_on_c, 13, 83, 0
25, 153696, Note_on_c, 13, 83, 93
25, 153764, Note_on_c, 13, 83, 0
25, 153792, Note_on_c, 13, 83, 91
25, 153860, Note_on_c, 13, 83, 0
25, 153888, Note_on_c, 13, 82, 88
25, 153956, Note_on_c, 13, 82, 0
25, 153984, Note_on_c, 13, 81, 95
25, 154052, Note_on_c, 13, 81, 0
25, 154080, Note_on_c, 13, 81, 94
25, 154148, Note_on_c, 13, 81, 0
25, 154176, Note_on_c, 13, 81, 88
25, 154244, Note_on_c, 13, 81, 0
25, 154272, Note_on_c, 13, 80, 97
25, 154340, Note_on_c, 13, 80, 0
25, 154368, Note_on_c, 13, 79, 95
25, 154436, Note_on_c, 13, 79, 0
25, 154464, Note_on_c, 13, 79, 90
25, 154532, Note_on_c, 13, 79, 0
25, 154560, Note_on_c, 13, 79, 89
25, 154628, Note_on_c, 13, 79, 0
25, 154656, Note_on_c, 13, 78, 97
25, 154724, Note_on_c, 13, 78, 0
25, 154752, Note_on_c, 13, 77, 87
25, 154820, Note_on_c, 13, 77, 0
25, 154848, Note_on_c, 13, 77, 95
25, 154916, Note_on_c, 13, 77, 0
25, 154944, Note_on_c, 13, 77, 87
25, 155012, Note_on_c, 13, 77, 0
25, 155040, Note_on_c, 13, 76, 91
25, 155108, Note_on_c, 13, 76, 0
25, 155136, Note_on_c, 13, 75, 88
25, 155204, Note_on_c, 13, 75, 0
25, 155232, Note_on_c, 13, 75, 96
25, 155300, Note_on_c, 13, 75, 0
25, 155328, Note_on_c, 13, 75, 89
25, 155396, Note_on_c, 13, 75, 0
25, 155424, Note_on_c, 13, 74, 91
25, 155492, Note_on_c, 13, 74, 0
25, 155520, Note_on_c, 13, 73, 95
25, 155588, Note_on_c, 13, 73, 0
25, 155616, Note_on_c, 13, 73, 92
25, 155684, Note_on_c, 13, 73, 0
25, 155712, Note_on_c, 13, 73, 97
25, 155780, Note_on_c, 13, 73, 0
25, 155808, Note_on_c, 13, 72, 98
25, 155876, Note_on_c, 13, 72, 0
25, 155904, Note_on_c, 13, 71, 97
25, 155972, Note_on_c, 13, 71, 0
25, 156000, Note_on_c, 13, 71, 104
25, 156068, Note_on_c, 13, 71, 0
25, 156096, Note_on_c, 13, 71, 100
25, 156164, Note_on_c, 13, 71, 0
25, 156192, Note_on_c, 13, 70, 102
25, 156260, Note_on_c, 13, 70, 0
25, 156288, Note_on_c, 13, 69, 102
25, 156356, Note_on_c, 13, 69, 0
25, 156384, Note_on_c, 13, 68, 104
25, 156452, Note_on_c, 13, 68, 0
25, 156480, Note_on_c, 13, 67, 106
25, 156548, Note_on_c, 13, 67, 0
25, 156576, Note_on_c, 13, 66, 105
25, 156608, Note_on_c, 13, 66, 0
25, 156672, Note_on_c, 13, 54, 106
25, 157056, Note_on_c, 13, 54, 0
25, 157056, Note_on_c, 13, 57, 108
25, 157392, Note_on_c, 13, 57, 0
25, 157440, Note_on_c, 13, 54, 111
25, 157824, Note_on_c, 13, 54, 0
25, 157824, Control_c, 13, 11, 92
25, 157824, Note_on_c, 13, 57, 103
25, 157834, Control_c, 13, 11, 93
25, 157845, Control_c, 13, 11, 94
25, 157856, Control_c, 13, 11, 95
25, 157867, Control_c, 13, 11, 96
25, 157878, Control_c, 13, 11, 97
25, 157889, Control_c, 13, 11, 98
25, 157900, Control_c, 13, 11, 99
25, 157911, Control_c, 13, 11, 100
25, 157922, Control_c, 13, 11, 101
25, 157933, Control_c, 13, 11, 102
25, 157944, Control_c, 13, 11, 103
25, 157952, Note_on_c, 13, 57, 0
25, 157952, Note_on_c, 13, 61, 105
25, 157955, Control_c, 13, 11, 104
25, 157966, Control_c, 13, 11, 105
25, 157977, Control_c, 13, 11, 106
25, 157988, Control_c, 13, 11, 107
25, 157999, Control_c, 13, 11, 108
25, 158010, Control_c, 13, 11, 109
25, 158021, Control_c, 13, 11, 110
25, 158032, Control_c, 13, 11, 111
25, 158043, Control_c, 13, 11, 112
25, 158054, Control_c, 13, 11, 113
25, 158065, Control_c, 13, 11, 114
25, 158076, Control_c, 13, 11, 115
25, 158080, Note_on_c, 13, 61, 0
25, 158080, Note_on_c, 13, 59, 109
25, 158087, Control_c, 13, 11, 116
25, 158098, Control_c, 13, 11, 117
25, 158109, Control_c, 13, 11, 118
25, 158120, Control_c, 13, 11, 119
25, 158131, Control_c, 13, 11, 120
25, 158142, Control_c, 13, 11, 121
25, 158153, Control_c, 13, 11, 122
25, 158164, Control_c, 13, 11, 123
25, 158175, Control_c, 13, 11, 124
25, 158186, Control_c, 13, 11, 125
25, 158197, Control_c, 13, 11, 126
25, 158206, Note_on_c, 13, 59, 0
25, 158208, Control_c, 13, 11, 127
25, 158208, Note_on_c, 13, 54, 90
25, 158592, Note_on_c, 13, 54, 0
25, 158592, Note_on_c, 13, 57, 93
25, 158928, Note_on_c, 13, 57, 0
25, 158976, Note_on_c, 13, 54, 90
25, 159504, Note_on_c, 13, 54, 0
25, 159744, Program_c, 13, 48
25, 161280, Control_c, 13, 11, 127
25, 161280, Note_on_c, 13, 57, 46
25, 161304, Control_c, 13, 11, 126
25, 161328, Control_c, 13, 11, 125
25, 161353, Control_c, 13, 11, 124
25, 161377, Control_c, 13, 11, 123
25, 161401, Control_c, 13, 11, 122
25, 161426, Control_c, 13, 11, 121
25, 161450, Control_c, 13, 11, 120
25, 161475, Control_c, 13, 11, 119
25, 161499, Control_c, 13, 11, 118
25, 161523, Control_c, 13, 11, 117
25, 161548, Control_c, 13, 11, 116
25, 161568, Note_on_c, 13, 57, 0
25, 161568, Note_on_c, 13, 56, 46
25, 161572, Control_c, 13, 11, 115
25, 161596, Control_c, 13, 11, 114
25, 161621, Control_c, 13, 11, 113
25, 161645, Control_c, 13, 11, 112
25, 161664, Note_on_c, 13, 56, 0
25, 161664, Note_on_c, 13, 55, 45
25, 161670, Control_c, 13, 11, 111
25, 161694, Control_c, 13, 11, 110
25, 161718, Control_c, 13, 11, 109
25, 161743, Control_c, 13, 11, 108
25, 161767, Control_c, 13, 11, 107
25, 161792, Control_c, 13, 11, 106
25, 161816, Control_c, 13, 11, 105
25, 161840, Control_c, 13, 11, 104
25, 161865, Control_c, 13, 11, 103
25, 161889, Control_c, 13, 11, 102
25, 161913, Control_c, 13, 11, 101
25, 161938, Control_c, 13, 11, 100
25, 161952, Note_on_c, 13, 55, 0
25, 161952, Note_on_c, 13, 56, 43
25, 161962, Control_c, 13, 11, 99
25, 161987, Control_c, 13, 11, 98
25, 162011, Control_c, 13, 11, 97
25, 162035, Control_c, 13, 11, 96
25, 162048, Note_on_c, 13, 56, 0
25, 162048, Note_on_c, 13, 57, 49
25, 162060, Control_c, 13, 11, 95
25, 162084, Control_c, 13, 11, 94
25, 162108, Control_c, 13, 11, 93
25, 162133, Control_c, 13, 11, 92
25, 162157, Control_c, 13, 11, 91
25, 162182, Control_c, 13, 11, 90
25, 162206, Control_c, 13, 11, 89
25, 162230, Control_c, 13, 11, 88
25, 162255, Control_c, 13, 11, 87
25, 162279, Control_c, 13, 11, 86
25, 162304, Control_c, 13, 11, 85
25, 162328, Control_c, 13, 11, 84
25, 162336, Note_on_c, 13, 57, 0
25, 162336, Note_on_c, 13, 56, 47
25, 162352, Control_c, 13, 11, 83
25, 162377, Control_c, 13, 11, 82
25, 162401, Control_c, 13, 11, 81
25, 162425, Control_c, 13, 11, 80
25, 162432, Note_on_c, 13, 56, 0
25, 162432, Note_on_c, 13, 55, 48
25, 162450, Control_c, 13, 11, 79
25, 162474, Control_c, 13, 11, 78
25, 162499, Control_c, 13, 11, 77
25, 162523, Note_on_c, 13, 55, 0
25, 162523, Control_c, 13, 11, 76
25, 162547, Control_c, 13, 11, 75
25, 162560, Note_on_c, 13, 54, 46
25, 162572, Control_c, 13, 11, 74
25, 162596, Control_c, 13, 11, 73
25, 162620, Control_c, 13, 11, 72
25, 162645, Control_c, 13, 11, 71
25, 162651, Note_on_c, 13, 54, 0
25, 162669, Control_c, 13, 11, 70
25, 162688, Note_on_c, 13, 53, 40
25, 162694, Control_c, 13, 11, 69
25, 162718, Control_c, 13, 11, 68
25, 162742, Control_c, 13, 11, 67
25, 162767, Control_c, 13, 11, 66
25, 162779, Note_on_c, 13, 53, 0
25, 162791, Control_c, 13, 11, 65
25, 162816, Control_c, 13, 11, 64
25, 162816, Note_on_c, 13, 52, 41
25, 162910, Note_on_c, 13, 52, 0
25, 163584, Control_c, 13, 11, 127
25, 165120, Program_c, 13, 45
25, 165216, Note_on_c, 13, 58, 31
25, 165310, Note_on_c, 13, 58, 0
25, 165312, Note_on_c, 13, 58, 28
25, 165406, Note_on_c, 13, 58, 0
25, 165408, Note_on_c, 13, 61, 44
25, 165502, Note_on_c, 13, 61, 0
25, 165504, Note_on_c, 13, 63, 50
25, 165598, Note_on_c, 13, 63, 0
25, 165600, Note_on_c, 13, 64, 62
25, 165694, Note_on_c, 13, 64, 0
25, 165696, Note_on_c, 13, 68, 84
25, 165790, Note_on_c, 13, 68, 0
25, 165792, Note_on_c, 13, 70, 94
25, 165886, Note_on_c, 13, 70, 0
25, 166656, Program_c, 13, 45
25, 167040, Note_on_c, 13, 66, 110
25, 167134, Note_on_c, 13, 66, 0
25, 167424, Program_c, 13, 48
25, 167904, Note_on_c, 13, 58, 26
25, 167950, Note_on_c, 13, 58, 0
25, 167952, Note_on_c, 13, 58, 31
25, 167998, Note_on_c, 13, 58, 0
25, 168000, Note_on_c, 13, 59, 30
25, 168046, Note_on_c, 13, 59, 0
25, 168048, Note_on_c, 13, 59, 35
25, 168094, Note_on_c, 13, 59, 0
25, 168096, Note_on_c, 13, 61, 44
25, 168142, Note_on_c, 13, 61, 0
25, 168144, Note_on_c, 13, 61, 49
25, 168190, Note_on_c, 13, 61, 0
25, 168192, Note_on_c, 13, 63, 53
25, 168238, Note_on_c, 13, 63, 0
25, 168240, Note_on_c, 13, 63, 58
25, 168286, Note_on_c, 13, 63, 0
25, 168288, Note_on_c, 13, 64, 66
25, 168334, Note_on_c, 13, 64, 0
25, 168336, Note_on_c, 13, 64, 71
25, 168382, Note_on_c, 13, 64, 0
25, 168768, Note_on_c, 13, 68, 40
25, 168814, Note_on_c, 13, 68, 0
25, 168816, Note_on_c, 13, 68, 44
25, 168862, Note_on_c, 13, 68, 0
25, 168864, Note_on_c, 13, 70, 72
25, 168910, Note_on_c, 13, 70, 0
25, 168912, Note_on_c, 13, 70, 96
25, 168958, Note_on_c, 13, 70, 0
25, 170496, Control_c, 13, 11, 75
25, 170496, Note_on_c, 13, 69, 72
25, 170498, Control_c, 13, 11, 76
25, 170501, Control_c, 13, 11, 77
25, 170504, Control_c, 13, 11, 78
25, 170507, Control_c, 13, 11, 79
25, 170510, Control_c, 13, 11, 80
25, 170513, Control_c, 13, 11, 81
25, 170516, Control_c, 13, 11, 82
25, 170519, Control_c, 13, 11, 83
25, 170522, Control_c, 13, 11, 84
25, 170525, Control_c, 13, 11, 85
25, 170528, Control_c, 13, 11, 86
25, 170530, Control_c, 13, 11, 87
25, 170533, Control_c, 13, 11, 88
25, 170536, Control_c, 13, 11, 89
25, 170539, Control_c, 13, 11, 90
25, 170542, Control_c, 13, 11, 91
25, 170544, Note_on_c, 13, 69, 0
25, 170544, Note_on_c, 13, 67, 79
25, 170545, Control_c, 13, 11, 92
25, 170548, Control_c, 13, 11, 93
25, 170551, Control_c, 13, 11, 94
25, 170554, Control_c, 13, 11, 95
25, 170557, Control_c, 13, 11, 96
25, 170560, Control_c, 13, 11, 97
25, 170562, Control_c, 13, 11, 98
25, 170565, Control_c, 13, 11, 99
25, 170568, Control_c, 13, 11, 100
25, 170571, Control_c, 13, 11, 101
25, 170574, Control_c, 13, 11, 102
25, 170577, Control_c, 13, 11, 103
25, 170580, Control_c, 13, 11, 104
25, 170583, Control_c, 13, 11, 105
25, 170586, Control_c, 13, 11, 106
25, 170589, Control_c, 13, 11, 107
25, 170592, Control_c, 13, 11, 108
25, 170594, Control_c, 13, 11, 107
25, 170597, Control_c, 13, 11, 106
25, 170600, Control_c, 13, 11, 105
25, 170603, Control_c, 13, 11, 104
25, 170606, Control_c, 13, 11, 103
25, 170609, Control_c, 13, 11, 102
25, 170612, Control_c, 13, 11, 101
25, 170615, Control_c, 13, 11, 100
25, 170618, Control_c, 13, 11, 99
25, 170621, Control_c, 13, 11, 98
25, 170624, Control_c, 13, 11, 97
25, 170626, Control_c, 13, 11, 96
25, 170629, Control_c, 13, 11, 95
25, 170632, Control_c, 13, 11, 94
25, 170635, Control_c, 13, 11, 93
25, 170638, Control_c, 13, 11, 92
25, 170641, Control_c, 13, 11, 91
25, 170644, Control_c, 13, 11, 90
25, 170647, Control_c, 13, 11, 89
25, 170650, Control_c, 13, 11, 88
25, 170653, Control_c, 13, 11, 87
25, 170656, Control_c, 13, 11, 86
25, 170658, Control_c, 13, 11, 85
25, 170661, Control_c, 13, 11, 84
25, 170664, Control_c, 13, 11, 83
25, 170667, Control_c, 13, 11, 82
25, 170670, Control_c, 13, 11, 81
25, 170673, Control_c, 13, 11, 80
25, 170676, Control_c, 13, 11, 79
25, 170679, Control_c, 13, 11, 78
25, 170682, Control_c, 13, 11, 77
25, 170685, Control_c, 13, 11, 76
25, 170688, Control_c, 13, 11, 75
25, 171264, Control_c, 13, 11, 75
25, 171278, Control_c, 13, 11, 76
25, 171293, Control_c, 13, 11, 77
25, 171308, Control_c, 13, 11, 78
25, 171323, Control_c, 13, 11, 79
25, 171337, Control_c, 13, 11, 80
25, 171352, Control_c, 13, 11, 81
25, 171367, Control_c, 13, 11, 82
25, 171382, Control_c, 13, 11, 83
25, 171396, Control_c, 13, 11, 84
25, 171411, Control_c, 13, 11, 85
25, 171426, Control_c, 13, 11, 86
25, 171441, Control_c, 13, 11, 87
25, 171456, Control_c, 13, 11, 88
25, 171470, Control_c, 13, 11, 89
25, 171485, Control_c, 13, 11, 90
25, 171500, Control_c, 13, 11, 91
25, 171515, Control_c, 13, 11, 92
25, 171529, Control_c, 13, 11, 93
25, 171544, Control_c, 13, 11, 94
25, 171559, Control_c, 13, 11, 95
25, 171574, Control_c, 13, 11, 96
25, 171588, Control_c, 13, 11, 97
25, 171603, Control_c, 13, 11, 98
25, 171618, Control_c, 13, 11, 99
25, 171633, Control_c, 13, 11, 100
25, 171648, Note_on_c, 13, 67, 0
25, 171648, Control_c, 13, 11, 101
25, 171648, Note_on_c, 13, 69, 71
25, 171662, Control_c, 13, 11, 102
25, 171677, Control_c, 13, 11, 103
25, 171692, Control_c, 13, 11, 104
25, 171707, Control_c, 13, 11, 105
25, 171721, Control_c, 13, 11, 106
25, 171736, Control_c, 13, 11, 107
25, 171751, Control_c, 13, 11, 108
25, 171766, Control_c, 13, 11, 109
25, 171780, Control_c, 13, 11, 110
25, 171795, Control_c, 13, 11, 111
25, 171810, Control_c, 13, 11, 112
25, 171825, Control_c, 13, 11, 113
25, 171840, Control_c, 13, 11, 114
25, 171854, Control_c, 13, 11, 115
25, 171869, Control_c, 13, 11, 116
25, 171884, Control_c, 13, 11, 117
25, 171899, Control_c, 13, 11, 118
25, 171913, Control_c, 13, 11, 119
25, 171928, Control_c, 13, 11, 120
25, 171943, Control_c, 13, 11, 121
25, 171958, Control_c, 13, 11, 122
25, 171972, Control_c, 13, 11, 123
25, 171984, Note_on_c, 13, 69, 0
25, 171987, Control_c, 13, 11, 124
25, 172002, Control_c, 13, 11, 125
25, 172017, Control_c, 13, 11, 126
25, 172032, Control_c, 13, 11, 127
25, 172032, Control_c, 13, 11, 75
25, 172032, Note_on_c, 13, 69, 74
25, 172034, Control_c, 13, 11, 76
25, 172037, Control_c, 13, 11, 77
25, 172040, Control_c, 13, 11, 78
25, 172043, Control_c, 13, 11, 79
25, 172046, Control_c, 13, 11, 80
25, 172049, Control_c, 13, 11, 81
25, 172052, Control_c, 13, 11, 82
25, 172055, Control_c, 13, 11, 83
25, 172058, Control_c, 13, 11, 84
25, 172061, Control_c, 13, 11, 85
25, 172064, Control_c, 13, 11, 86
25, 172066, Control_c, 13, 11, 87
25, 172069, Control_c, 13, 11, 88
25, 172072, Control_c, 13, 11, 89
25, 172075, Control_c, 13, 11, 90
25, 172078, Control_c, 13, 11, 91
25, 172080, Note_on_c, 13, 69, 0
25, 172080, Note_on_c, 13, 67, 75
25, 172081, Control_c, 13, 11, 92
25, 172084, Control_c, 13, 11, 93
25, 172087, Control_c, 13, 11, 94
25, 172090, Control_c, 13, 11, 95
25, 172093, Control_c, 13, 11, 96
25, 172096, Control_c, 13, 11, 97
25, 172098, Control_c, 13, 11, 98
25, 172101, Control_c, 13, 11, 99
25, 172104, Control_c, 13, 11, 100
25, 172107, Control_c, 13, 11, 101
25, 172110, Control_c, 13, 11, 102
25, 172113, Control_c, 13, 11, 103
25, 172116, Control_c, 13, 11, 104
25, 172119, Control_c, 13, 11, 105
25, 172122, Control_c, 13, 11, 106
25, 172125, Control_c, 13, 11, 107
25, 172128, Control_c, 13, 11, 108
25, 172130, Control_c, 13, 11, 107
25, 172133, Control_c, 13, 11, 106
25, 172136, Control_c, 13, 11, 105
25, 172139, Control_c, 13, 11, 104
25, 172142, Control_c, 13, 11, 103
25, 172145, Control_c, 13, 11, 102
25, 172148, Control_c, 13, 11, 101
25, 172151, Control_c, 13, 11, 100
25, 172154, Control_c, 13, 11, 99
25, 172157, Control_c, 13, 11, 98
25, 172160, Control_c, 13, 11, 97
25, 172162, Control_c, 13, 11, 96
25, 172165, Control_c, 13, 11, 95
25, 172168, Control_c, 13, 11, 94
25, 172171, Control_c, 13, 11, 93
25, 172174, Control_c, 13, 11, 92
25, 172177, Control_c, 13, 11, 91
25, 172180, Control_c, 13, 11, 90
25, 172183, Control_c, 13, 11, 89
25, 172186, Control_c, 13, 11, 88
25, 172189, Control_c, 13, 11, 87
25, 172192, Control_c, 13, 11, 86
25, 172194, Control_c, 13, 11, 85
25, 172197, Control_c, 13, 11, 84
25, 172200, Control_c, 13, 11, 83
25, 172203, Control_c, 13, 11, 82
25, 172206, Control_c, 13, 11, 81
25, 172209, Control_c, 13, 11, 80
25, 172212, Control_c, 13, 11, 79
25, 172215, Control_c, 13, 11, 78
25, 172218, Control_c, 13, 11, 77
25, 172221, Control_c, 13, 11, 76
25, 172224, Control_c, 13, 11, 75
25, 172800, Control_c, 13, 11, 75
25, 172814, Control_c, 13, 11, 76
25, 172829, Control_c, 13, 11, 77
25, 172844, Control_c, 13, 11, 78
25, 172859, Control_c, 13, 11, 79
25, 172873, Control_c, 13, 11, 80
25, 172888, Control_c, 13, 11, 81
25, 172903, Control_c, 13, 11, 82
25, 172918, Control_c, 13, 11, 83
25, 172932, Control_c, 13, 11, 84
25, 172947, Control_c, 13, 11, 85
25, 172962, Control_c, 13, 11, 86
25, 172977, Control_c, 13, 11, 87
25, 172992, Control_c, 13, 11, 88
25, 173006, Control_c, 13, 11, 89
25, 173021, Control_c, 13, 11, 90
25, 173036, Control_c, 13, 11, 91
25, 173051, Control_c, 13, 11, 92
25, 173065, Control_c, 13, 11, 93
25, 173080, Control_c, 13, 11, 94
25, 173095, Control_c, 13, 11, 95
25, 173110, Control_c, 13, 11, 96
25, 173124, Control_c, 13, 11, 97
25, 173139, Control_c, 13, 11, 98
25, 173154, Control_c, 13, 11, 99
25, 173169, Control_c, 13, 11, 100
25, 173184, Note_on_c, 13, 67, 0
25, 173184, Control_c, 13, 11, 101
25, 173184, Note_on_c, 13, 70, 79
25, 173198, Control_c, 13, 11, 102
25, 173213, Control_c, 13, 11, 103
25, 173228, Control_c, 13, 11, 104
25, 173243, Control_c, 13, 11, 105
25, 173257, Control_c, 13, 11, 106
25, 173272, Control_c, 13, 11, 107
25, 173287, Control_c, 13, 11, 108
25, 173302, Control_c, 13, 11, 109
25, 173316, Control_c, 13, 11, 110
25, 173331, Control_c, 13, 11, 111
25, 173346, Control_c, 13, 11, 112
25, 173361, Control_c, 13, 11, 113
25, 173376, Control_c, 13, 11, 114
25, 173390, Control_c, 13, 11, 115
25, 173405, Control_c, 13, 11, 116
25, 173420, Control_c, 13, 11, 117
25, 173435, Control_c, 13, 11, 118
25, 173449, Control_c, 13, 11, 119
25, 173464, Control_c, 13, 11, 120
25, 173479, Control_c, 13, 11, 121
25, 173494, Control_c, 13, 11, 122
25, 173508, Control_c, 13, 11, 123
25, 173520, Note_on_c, 13, 70, 0
25, 173523, Control_c, 13, 11, 124
25, 173538, Control_c, 13, 11, 125
25, 173553, Control_c, 13, 11, 126
25, 173568, Control_c, 13, 11, 127
25, 173568, Program_c, 13, 45
25, 173760, Note_on_c, 13, 55, 27
25, 173854, Note_on_c, 13, 55, 0
25, 174144, Note_on_c, 13, 55, 34
25, 174238, Note_on_c, 13, 55, 0
25, 174528, Note_on_c, 13, 55, 27
25, 174622, Note_on_c, 13, 55, 0
25, 174912, Note_on_c, 13, 55, 28
25, 175006, Note_on_c, 13, 55, 0
25, 175296, Note_on_c, 13, 55, 31
25, 175390, Note_on_c, 13, 55, 0
25, 175680, Note_on_c, 13, 55, 32
25, 175774, Note_on_c, 13, 55, 0
25, 176064, Note_on_c, 13, 55, 35
25, 176158, Note_on_c, 13, 55, 0
25, 176448, Note_on_c, 13, 55, 27
25, 176542, Note_on_c, 13, 55, 0
25, 176832, Note_on_c, 13, 55, 32
25, 176926, Note_on_c, 13, 55, 0
25, 177216, Note_on_c, 13, 55, 34
25, 177310, Note_on_c, 13, 55, 0
25, 177408, Control_c, 13, 11, 75
25, 177408, Program_c, 13, 48
25, 177408, Note_on_c, 13, 69, 75
25, 177410, Control_c, 13, 11, 76
25, 177413, Control_c, 13, 11, 77
25, 177416, Control_c, 13, 11, 78
25, 177419, Control_c, 13, 11, 79
25, 177422, Control_c, 13, 11, 80
25, 177425, Control_c, 13, 11, 81
25, 177428, Control_c, 13, 11, 82
25, 177431, Control_c, 13, 11, 83
25, 177434, Control_c, 13, 11, 84
25, 177437, Control_c, 13, 11, 85
25, 177440, Control_c, 13, 11, 86
25, 177442, Control_c, 13, 11, 87
25, 177445, Control_c, 13, 11, 88
25, 177448, Control_c, 13, 11, 89
25, 177451, Control_c, 13, 11, 90
25, 177454, Control_c, 13, 11, 91
25, 177456, Note_on_c, 13, 69, 0
25, 177456, Note_on_c, 13, 67, 73
25, 177457, Control_c, 13, 11, 92
25, 177460, Control_c, 13, 11, 93
25, 177463, Control_c, 13, 11, 94
25, 177466, Control_c, 13, 11, 95
25, 177469, Control_c, 13, 11, 96
25, 177472, Control_c, 13, 11, 97
25, 177474, Control_c, 13, 11, 98
25, 177477, Control_c, 13, 11, 99
25, 177480, Control_c, 13, 11, 100
25, 177483, Control_c, 13, 11, 101
25, 177486, Control_c, 13, 11, 102
25, 177489, Control_c, 13, 11, 103
25, 177492, Control_c, 13, 11, 104
25, 177495, Control_c, 13, 11, 105
25, 177498, Control_c, 13, 11, 106
25, 177501, Control_c, 13, 11, 107
25, 177504, Control_c, 13, 11, 108
25, 177506, Control_c, 13, 11, 107
25, 177509, Control_c, 13, 11, 106
25, 177512, Control_c, 13, 11, 105
25, 177515, Control_c, 13, 11, 104
25, 177518, Control_c, 13, 11, 103
25, 177521, Control_c, 13, 11, 102
25, 177524, Control_c, 13, 11, 101
25, 177527, Control_c, 13, 11, 100
25, 177530, Control_c, 13, 11, 99
25, 177533, Control_c, 13, 11, 98
25, 177536, Control_c, 13, 11, 97
25, 177538, Control_c, 13, 11, 96
25, 177541, Control_c, 13, 11, 95
25, 177544, Control_c, 13, 11, 94
25, 177547, Control_c, 13, 11, 93
25, 177550, Control_c, 13, 11, 92
25, 177553, Control_c, 13, 11, 91
25, 177556, Control_c, 13, 11, 90
25, 177559, Control_c, 13, 11, 89
25, 177562, Control_c, 13, 11, 88
25, 177565, Control_c, 13, 11, 87
25, 177568, Control_c, 13, 11, 86
25, 177570, Control_c, 13, 11, 85
25, 177573, Control_c, 13, 11, 84
25, 177576, Control_c, 13, 11, 83
25, 177579, Control_c, 13, 11, 82
25, 177582, Control_c, 13, 11, 81
25, 177585, Control_c, 13, 11, 80
25, 177588, Control_c, 13, 11, 79
25, 177591, Control_c, 13, 11, 78
25, 177594, Control_c, 13, 11, 77
25, 177597, Control_c, 13, 11, 76
25, 177600, Control_c, 13, 11, 75
25, 178176, Control_c, 13, 11, 75
25, 178190, Control_c, 13, 11, 76
25, 178205, Control_c, 13, 11, 77
25, 178220, Control_c, 13, 11, 78
25, 178235, Control_c, 13, 11, 79
25, 178249, Control_c, 13, 11, 80
25, 178264, Control_c, 13, 11, 81
25, 178279, Control_c, 13, 11, 82
25, 178294, Control_c, 13, 11, 83
25, 178308, Control_c, 13, 11, 84
25, 178323, Control_c, 13, 11, 85
25, 178338, Control_c, 13, 11, 86
25, 178353, Control_c, 13, 11, 87
25, 178368, Control_c, 13, 11, 88
25, 178382, Control_c, 13, 11, 89
25, 178397, Control_c, 13, 11, 90
25, 178412, Control_c, 13, 11, 91
25, 178427, Control_c, 13, 11, 92
25, 178441, Control_c, 13, 11, 93
25, 178456, Control_c, 13, 11, 94
25, 178471, Control_c, 13, 11, 95
25, 178486, Control_c, 13, 11, 96
25, 178500, Control_c, 13, 11, 97
25, 178515, Control_c, 13, 11, 98
25, 178530, Control_c, 13, 11, 99
25, 178545, Control_c, 13, 11, 100
25, 178560, Note_on_c, 13, 67, 0
25, 178560, Control_c, 13, 11, 101
25, 178560, Note_on_c, 13, 69, 80
25, 178574, Control_c, 13, 11, 102
25, 178589, Control_c, 13, 11, 103
25, 178604, Control_c, 13, 11, 104
25, 178619, Control_c, 13, 11, 105
25, 178633, Control_c, 13, 11, 106
25, 178648, Control_c, 13, 11, 107
25, 178663, Control_c, 13, 11, 108
25, 178678, Control_c, 13, 11, 109
25, 178692, Control_c, 13, 11, 110
25, 178707, Control_c, 13, 11, 111
25, 178722, Control_c, 13, 11, 112
25, 178737, Control_c, 13, 11, 113
25, 178752, Control_c, 13, 11, 114
25, 178766, Control_c, 13, 11, 115
25, 178781, Control_c, 13, 11, 116
25, 178796, Control_c, 13, 11, 117
25, 178811, Control_c, 13, 11, 118
25, 178825, Control_c, 13, 11, 119
25, 178840, Control_c, 13, 11, 120
25, 178855, Control_c, 13, 11, 121
25, 178870, Control_c, 13, 11, 122
25, 178884, Control_c, 13, 11, 123
25, 178896, Note_on_c, 13, 69, 0
25, 178899, Control_c, 13, 11, 124
25, 178914, Control_c, 13, 11, 125
25, 178929, Control_c, 13, 11, 126
25, 178944, Control_c, 13, 11, 127
25, 178944, Control_c, 13, 11, 75
25, 178944, Note_on_c, 13, 69, 72
25, 178946, Control_c, 13, 11, 76
25, 178949, Control_c, 13, 11, 77
25, 178952, Control_c, 13, 11, 78
25, 178955, Control_c, 13, 11, 79
25, 178958, Control_c, 13, 11, 80
25, 178961, Control_c, 13, 11, 81
25, 178964, Control_c, 13, 11, 82
25, 178967, Control_c, 13, 11, 83
25, 178970, Control_c, 13, 11, 84
25, 178973, Control_c, 13, 11, 85
25, 178976, Control_c, 13, 11, 86
25, 178978, Control_c, 13, 11, 87
25, 178981, Control_c, 13, 11, 88
25, 178984, Control_c, 13, 11, 89
25, 178987, Control_c, 13, 11, 90
25, 178990, Control_c, 13, 11, 91
25, 178992, Note_on_c, 13, 69, 0
25, 178992, Note_on_c, 13, 67, 79
25, 178993, Control_c, 13, 11, 92
25, 178996, Control_c, 13, 11, 93
25, 178999, Control_c, 13, 11, 94
25, 179002, Control_c, 13, 11, 95
25, 179005, Control_c, 13, 11, 96
25, 179008, Control_c, 13, 11, 97
25, 179010, Control_c, 13, 11, 98
25, 179013, Control_c, 13, 11, 99
25, 179016, Control_c, 13, 11, 100
25, 179019, Control_c, 13, 11, 101
25, 179022, Control_c, 13, 11, 102
25, 179025, Control_c, 13, 11, 103
25, 179028, Control_c, 13, 11, 104
25, 179031, Control_c, 13, 11, 105
25, 179034, Control_c, 13, 11, 106
25, 179037, Control_c, 13, 11, 107
25, 179040, Control_c, 13, 11, 108
25, 179042, Control_c, 13, 11, 107
25, 179045, Control_c, 13, 11, 106
25, 179048, Control_c, 13, 11, 105
25, 179051, Control_c, 13, 11, 104
25, 179054, Control_c, 13, 11, 103
25, 179057, Control_c, 13, 11, 102
25, 179060, Control_c, 13, 11, 101
25, 179063, Control_c, 13, 11, 100
25, 179066, Control_c, 13, 11, 99
25, 179069, Control_c, 13, 11, 98
25, 179072, Control_c, 13, 11, 97
25, 179074, Control_c, 13, 11, 96
25, 179077, Control_c, 13, 11, 95
25, 179080, Control_c, 13, 11, 94
25, 179083, Control_c, 13, 11, 93
25, 179086, Control_c, 13, 11, 92
25, 179089, Control_c, 13, 11, 91
25, 179092, Control_c, 13, 11, 90
25, 179095, Control_c, 13, 11, 89
25, 179098, Control_c, 13, 11, 88
25, 179101, Control_c, 13, 11, 87
25, 179104, Control_c, 13, 11, 86
25, 179106, Control_c, 13, 11, 85
25, 179109, Control_c, 13, 11, 84
25, 179112, Control_c, 13, 11, 83
25, 179115, Control_c, 13, 11, 82
25, 179118, Control_c, 13, 11, 81
25, 179121, Control_c, 13, 11, 80
25, 179124, Control_c, 13, 11, 79
25, 179127, Control_c, 13, 11, 78
25, 179130, Control_c, 13, 11, 77
25, 179133, Control_c, 13, 11, 76
25, 179136, Control_c, 13, 11, 75
25, 179712, Control_c, 13, 11, 75
25, 179726, Control_c, 13, 11, 76
25, 179741, Control_c, 13, 11, 77
25, 179756, Control_c, 13, 11, 78
25, 179771, Control_c, 13, 11, 79
25, 179785, Control_c, 13, 11, 80
25, 179800, Control_c, 13, 11, 81
25, 179815, Control_c, 13, 11, 82
25, 179830, Control_c, 13, 11, 83
25, 179844, Control_c, 13, 11, 84
25, 179859, Control_c, 13, 11, 85
25, 179874, Control_c, 13, 11, 86
25, 179889, Control_c, 13, 11, 87
25, 179904, Control_c, 13, 11, 88
25, 179918, Control_c, 13, 11, 89
25, 179933, Control_c, 13, 11, 90
25, 179948, Control_c, 13, 11, 91
25, 179963, Control_c, 13, 11, 92
25, 179977, Control_c, 13, 11, 93
25, 179992, Control_c, 13, 11, 94
25, 180007, Control_c, 13, 11, 95
25, 180022, Control_c, 13, 11, 96
25, 180036, Control_c, 13, 11, 97
25, 180051, Control_c, 13, 11, 98
25, 180066, Control_c, 13, 11, 99
25, 180081, Control_c, 13, 11, 100
25, 180096, Note_on_c, 13, 67, 0
25, 180096, Control_c, 13, 11, 101
25, 180096, Note_on_c, 13, 70, 77
25, 180110, Control_c, 13, 11, 102
25, 180125, Control_c, 13, 11, 103
25, 180140, Control_c, 13, 11, 104
25, 180155, Control_c, 13, 11, 105
25, 180169, Control_c, 13, 11, 106
25, 180184, Control_c, 13, 11, 107
25, 180199, Control_c, 13, 11, 108
25, 180214, Control_c, 13, 11, 109
25, 180228, Control_c, 13, 11, 110
25, 180243, Control_c, 13, 11, 111
25, 180258, Control_c, 13, 11, 112
25, 180273, Control_c, 13, 11, 113
25, 180288, Control_c, 13, 11, 114
25, 180302, Control_c, 13, 11, 115
25, 180317, Control_c, 13, 11, 116
25, 180332, Control_c, 13, 11, 117
25, 180347, Control_c, 13, 11, 118
25, 180361, Control_c, 13, 11, 119
25, 180376, Control_c, 13, 11, 120
25, 180391, Control_c, 13, 11, 121
25, 180406, Control_c, 13, 11, 122
25, 180420, Control_c, 13, 11, 123
25, 180432, Note_on_c, 13, 70, 0
25, 180435, Control_c, 13, 11, 124
25, 180450, Control_c, 13, 11, 125
25, 180465, Control_c, 13, 11, 126
25, 180480, Control_c, 13, 11, 127
25, 180576, Note_on_c, 13, 67, 75
25, 180670, Note_on_c, 13, 67, 0
25, 180768, Note_on_c, 13, 67, 73
25, 180862, Note_on_c, 13, 67, 0
25, 180960, Note_on_c, 13, 67, 71
25, 181054, Note_on_c, 13, 67, 0
25, 181152, Note_on_c, 13, 67, 77
25, 181246, Note_on_c, 13, 67, 0
25, 181344, Note_on_c, 13, 67, 71
25, 181438, Note_on_c, 13, 67, 0
25, 181536, Note_on_c, 13, 67, 71
25, 181630, Note_on_c, 13, 67, 0
25, 181728, Note_on_c, 13, 67, 75
25, 181822, Note_on_c, 13, 67, 0
25, 181920, Note_on_c, 13, 67, 75
25, 182014, Note_on_c, 13, 67, 0
25, 182112, Note_on_c, 13, 67, 77
25, 182206, Note_on_c, 13, 67, 0
25, 182304, Note_on_c, 13, 67, 77
25, 182398, Note_on_c, 13, 67, 0
25, 182496, Note_on_c, 13, 67, 74
25, 182590, Note_on_c, 13, 67, 0
25, 182784, Control_c, 13, 11, 92
25, 182784, Program_c, 13, 44
25, 182784, Note_on_c, 13, 67, 77
25, 182789, Control_c, 13, 11, 93
25, 182794, Control_c, 13, 11, 94
25, 182800, Control_c, 13, 11, 95
25, 182805, Control_c, 13, 11, 96
25, 182811, Control_c, 13, 11, 97
25, 182816, Control_c, 13, 11, 98
25, 182822, Control_c, 13, 11, 99
25, 182827, Control_c, 13, 11, 100
25, 182833, Control_c, 13, 11, 101
25, 182838, Control_c, 13, 11, 102
25, 182844, Control_c, 13, 11, 103
25, 182849, Control_c, 13, 11, 104
25, 182855, Control_c, 13, 11, 105
25, 182860, Control_c, 13, 11, 106
25, 182866, Control_c, 13, 11, 107
25, 182871, Control_c, 13, 11, 108
25, 182877, Control_c, 13, 11, 109
25, 182882, Control_c, 13, 11, 110
25, 182888, Control_c, 13, 11, 111
25, 182893, Control_c, 13, 11, 112
25, 182899, Control_c, 13, 11, 113
25, 182904, Control_c, 13, 11, 114
25, 182910, Control_c, 13, 11, 115
25, 182915, Control_c, 13, 11, 116
25, 182921, Control_c, 13, 11, 117
25, 182926, Control_c, 13, 11, 118
25, 182932, Control_c, 13, 11, 119
25, 182937, Control_c, 13, 11, 120
25, 182943, Control_c, 13, 11, 121
25, 182948, Control_c, 13, 11, 122
25, 182954, Control_c, 13, 11, 123
25, 182959, Control_c, 13, 11, 124
25, 182965, Control_c, 13, 11, 125
25, 182970, Control_c, 13, 11, 126
25, 182976, Control_c, 13, 11, 127
25, 182979, Control_c, 13, 11, 126
25, 182982, Control_c, 13, 11, 125
25, 182985, Control_c, 13, 11, 124
25, 182988, Control_c, 13, 11, 123
25, 182991, Control_c, 13, 11, 122
25, 182994, Control_c, 13, 11, 121
25, 182997, Control_c, 13, 11, 120
25, 183000, Control_c, 13, 11, 119
25, 183003, Control_c, 13, 11, 118
25, 183006, Control_c, 13, 11, 117
25, 183009, Control_c, 13, 11, 116
25, 183012, Control_c, 13, 11, 115
25, 183015, Control_c, 13, 11, 114
25, 183018, Control_c, 13, 11, 113
25, 183021, Control_c, 13, 11, 112
25, 183024, Control_c, 13, 11, 111
25, 183027, Control_c, 13, 11, 110
25, 183030, Control_c, 13, 11, 109
25, 183033, Control_c, 13, 11, 108
25, 183036, Control_c, 13, 11, 107
25, 183040, Control_c, 13, 11, 106
25, 183043, Control_c, 13, 11, 105
25, 183046, Control_c, 13, 11, 104
25, 183049, Control_c, 13, 11, 103
25, 183052, Control_c, 13, 11, 102
25, 183055, Control_c, 13, 11, 101
25, 183058, Control_c, 13, 11, 100
25, 183061, Control_c, 13, 11, 99
25, 183064, Control_c, 13, 11, 98
25, 183067, Control_c, 13, 11, 97
25, 183070, Control_c, 13, 11, 96
25, 183073, Control_c, 13, 11, 95
25, 183076, Control_c, 13, 11, 94
25, 183079, Control_c, 13, 11, 93
25, 183082, Control_c, 13, 11, 92
25, 183085, Control_c, 13, 11, 91
25, 183088, Control_c, 13, 11, 90
25, 183091, Control_c, 13, 11, 89
25, 183094, Control_c, 13, 11, 88
25, 183097, Control_c, 13, 11, 87
25, 183100, Control_c, 13, 11, 86
25, 183104, Control_c, 13, 11, 85
25, 183107, Control_c, 13, 11, 84
25, 183110, Control_c, 13, 11, 83
25, 183113, Control_c, 13, 11, 82
25, 183116, Control_c, 13, 11, 81
25, 183119, Control_c, 13, 11, 80
25, 183122, Control_c, 13, 11, 79
25, 183125, Control_c, 13, 11, 78
25, 183128, Control_c, 13, 11, 77
25, 183131, Control_c, 13, 11, 76
25, 183134, Control_c, 13, 11, 75
25, 183137, Control_c, 13, 11, 74
25, 183140, Control_c, 13, 11, 73
25, 183143, Control_c, 13, 11, 72
25, 183146, Control_c, 13, 11, 71
25, 183149, Control_c, 13, 11, 70
25, 183152, Control_c, 13, 11, 69
25, 183155, Control_c, 13, 11, 68
25, 183158, Control_c, 13, 11, 67
25, 183161, Control_c, 13, 11, 66
25, 183164, Control_c, 13, 11, 65
25, 183168, Control_c, 13, 11, 64
25, 184320, Note_on_c, 13, 67, 0
25, 184320, Control_c, 13, 11, 64
25, 184320, Note_on_c, 13, 68, 78
25, 184344, Control_c, 13, 11, 65
25, 184368, Control_c, 13, 11, 66
25, 184393, Control_c, 13, 11, 67
25, 184417, Control_c, 13, 11, 68
25, 184441, Control_c, 13, 11, 69
25, 184466, Control_c, 13, 11, 70
25, 184490, Control_c, 13, 11, 71
25, 184515, Control_c, 13, 11, 72
25, 184539, Control_c, 13, 11, 73
25, 184563, Control_c, 13, 11, 74
25, 184588, Control_c, 13, 11, 75
25, 184612, Control_c, 13, 11, 76
25, 184636, Control_c, 13, 11, 77
25, 184661, Control_c, 13, 11, 78
25, 184685, Control_c, 13, 11, 79
25, 184710, Control_c, 13, 11, 80
25, 184734, Control_c, 13, 11, 81
25, 184758, Control_c, 13, 11, 82
25, 184783, Control_c, 13, 11, 83
25, 184807, Control_c, 13, 11, 84
25, 184832, Control_c, 13, 11, 85
25, 184856, Control_c, 13, 11, 86
25, 184880, Control_c, 13, 11, 87
25, 184905, Control_c, 13, 11, 88
25, 184929, Control_c, 13, 11, 89
25, 184953, Control_c, 13, 11, 90
25, 184978, Control_c, 13, 11, 91
25, 185002, Control_c, 13, 11, 92
25, 185027, Control_c, 13, 11, 93
25, 185051, Control_c, 13, 11, 94
25, 185075, Control_c, 13, 11, 95
25, 185088, Note_on_c, 13, 68, 0
25, 185088, Note_on_c, 13, 70, 111
25, 185100, Control_c, 13, 11, 96
25, 185124, Control_c, 13, 11, 97
25, 185148, Control_c, 13, 11, 98
25, 185173, Control_c, 13, 11, 99
25, 185197, Control_c, 13, 11, 100
25, 185222, Control_c, 13, 11, 101
25, 185246, Control_c, 13, 11, 102
25, 185270, Control_c, 13, 11, 103
25, 185295, Control_c, 13, 11, 104
25, 185319, Control_c, 13, 11, 105
25, 185344, Control_c, 13, 11, 106
25, 185368, Control_c, 13, 11, 107
25, 185392, Control_c, 13, 11, 108
25, 185417, Control_c, 13, 11, 109
25, 185441, Control_c, 13, 11, 110
25, 185465, Control_c, 13, 11, 111
25, 185490, Control_c, 13, 11, 112
25, 185514, Control_c, 13, 11, 113
25, 185539, Control_c, 13, 11, 114
25, 185563, Control_c, 13, 11, 115
25, 185587, Control_c, 13, 11, 116
25, 185612, Control_c, 13, 11, 117
25, 185636, Control_c, 13, 11, 118
25, 185660, Control_c, 13, 11, 119
25, 185685, Control_c, 13, 11, 120
25, 185709, Control_c, 13, 11, 121
25, 185734, Control_c, 13, 11, 122
25, 185758, Control_c, 13, 11, 123
25, 185782, Control_c, 13, 11, 124
25, 185807, Control_c, 13, 11, 125
25, 185831, Control_c, 13, 11, 126
25, 185856, Note_on_c, 13, 70, 0
25, 185856, Control_c, 13, 11, 127
25, 185856, Control_c, 13, 11, 92
25, 185856, Note_on_c, 13, 67, 104
25, 185861, Control_c, 13, 11, 93
25, 185866, Control_c, 13, 11, 94
25, 185872, Control_c, 13, 11, 95
25, 185877, Control_c, 13, 11, 96
25, 185883, Control_c, 13, 11, 97
25, 185888, Control_c, 13, 11, 98
25, 185894, Control_c, 13, 11, 99
25, 185899, Control_c, 13, 11, 100
25, 185905, Control_c, 13, 11, 101
25, 185910, Control_c, 13, 11, 102
25, 185916, Control_c, 13, 11, 103
25, 185921, Control_c, 13, 11, 104
25, 185927, Control_c, 13, 11, 105
25, 185932, Control_c, 13, 11, 106
25, 185938, Control_c, 13, 11, 107
25, 185943, Control_c, 13, 11, 108
25, 185949, Control_c, 13, 11, 109
25, 185954, Control_c, 13, 11, 110
25, 185960, Control_c, 13, 11, 111
25, 185965, Control_c, 13, 11, 112
25, 185971, Control_c, 13, 11, 113
25, 185976, Control_c, 13, 11, 114
25, 185982, Control_c, 13, 11, 115
25, 185987, Control_c, 13, 11, 116
25, 185993, Control_c, 13, 11, 117
25, 185998, Control_c, 13, 11, 118
25, 186004, Control_c, 13, 11, 119
25, 186009, Control_c, 13, 11, 120
25, 186015, Control_c, 13, 11, 121
25, 186020, Control_c, 13, 11, 122
25, 186026, Control_c, 13, 11, 123
25, 186031, Control_c, 13, 11, 124
25, 186037, Control_c, 13, 11, 125
25, 186042, Control_c, 13, 11, 126
25, 186048, Control_c, 13, 11, 127
25, 186051, Control_c, 13, 11, 126
25, 186054, Control_c, 13, 11, 125
25, 186057, Control_c, 13, 11, 124
25, 186060, Control_c, 13, 11, 123
25, 186063, Control_c, 13, 11, 122
25, 186066, Control_c, 13, 11, 121
25, 186069, Control_c, 13, 11, 120
25, 186072, Control_c, 13, 11, 119
25, 186075, Control_c, 13, 11, 118
25, 186078, Control_c, 13, 11, 117
25, 186081, Control_c, 13, 11, 116
25, 186084, Control_c, 13, 11, 115
25, 186087, Control_c, 13, 11, 114
25, 186090, Control_c, 13, 11, 113
25, 186093, Control_c, 13, 11, 112
25, 186096, Control_c, 13, 11, 111
25, 186099, Control_c, 13, 11, 110
25, 186102, Control_c, 13, 11, 109
25, 186105, Control_c, 13, 11, 108
25, 186108, Control_c, 13, 11, 107
25, 186112, Control_c, 13, 11, 106
25, 186115, Control_c, 13, 11, 105
25, 186118, Control_c, 13, 11, 104
25, 186121, Control_c, 13, 11, 103
25, 186124, Control_c, 13, 11, 102
25, 186127, Control_c, 13, 11, 101
25, 186130, Control_c, 13, 11, 100
25, 186133, Control_c, 13, 11, 99
25, 186136, Control_c, 13, 11, 98
25, 186139, Control_c, 13, 11, 97
25, 186142, Control_c, 13, 11, 96
25, 186145, Control_c, 13, 11, 95
25, 186148, Control_c, 13, 11, 94
25, 186151, Control_c, 13, 11, 93
25, 186154, Control_c, 13, 11, 92
25, 186157, Control_c, 13, 11, 91
25, 186160, Control_c, 13, 11, 90
25, 186163, Control_c, 13, 11, 89
25, 186166, Control_c, 13, 11, 88
25, 186169, Control_c, 13, 11, 87
25, 186172, Control_c, 13, 11, 86
25, 186176, Control_c, 13, 11, 85
25, 186179, Control_c, 13, 11, 84
25, 186182, Control_c, 13, 11, 83
25, 186185, Control_c, 13, 11, 82
25, 186188, Control_c, 13, 11, 81
25, 186191, Control_c, 13, 11, 80
25, 186194, Control_c, 13, 11, 79
25, 186197, Control_c, 13, 11, 78
25, 186200, Control_c, 13, 11, 77
25, 186203, Control_c, 13, 11, 76
25, 186206, Control_c, 13, 11, 75
25, 186209, Control_c, 13, 11, 74
25, 186212, Control_c, 13, 11, 73
25, 186215, Control_c, 13, 11, 72
25, 186218, Control_c, 13, 11, 71
25, 186221, Control_c, 13, 11, 70
25, 186224, Control_c, 13, 11, 69
25, 186227, Control_c, 13, 11, 68
25, 186230, Control_c, 13, 11, 67
25, 186233, Control_c, 13, 11, 66
25, 186236, Control_c, 13, 11, 65
25, 186240, Control_c, 13, 11, 64
25, 187392, Note_on_c, 13, 67, 0
25, 187392, Control_c, 13, 11, 64
25, 187392, Note_on_c, 13, 68, 109
25, 187416, Control_c, 13, 11, 65
25, 187440, Control_c, 13, 11, 66
25, 187465, Control_c, 13, 11, 67
25, 187489, Control_c, 13, 11, 68
25, 187513, Control_c, 13, 11, 69
25, 187538, Control_c, 13, 11, 70
25, 187562, Control_c, 13, 11, 71
25, 187587, Control_c, 13, 11, 72
25, 187611, Control_c, 13, 11, 73
25, 187635, Control_c, 13, 11, 74
25, 187660, Control_c, 13, 11, 75
25, 187684, Control_c, 13, 11, 76
25, 187708, Control_c, 13, 11, 77
25, 187733, Control_c, 13, 11, 78
25, 187757, Control_c, 13, 11, 79
25, 187782, Control_c, 13, 11, 80
25, 187806, Control_c, 13, 11, 81
25, 187830, Control_c, 13, 11, 82
25, 187855, Control_c, 13, 11, 83
25, 187879, Control_c, 13, 11, 84
25, 187904, Control_c, 13, 11, 85
25, 187928, Control_c, 13, 11, 86
25, 187952, Control_c, 13, 11, 87
25, 187977, Control_c, 13, 11, 88
25, 188001, Control_c, 13, 11, 89
25, 188025, Control_c, 13, 11, 90
25, 188050, Control_c, 13, 11, 91
25, 188074, Control_c, 13, 11, 92
25, 188099, Control_c, 13, 11, 93
25, 188123, Control_c, 13, 11, 94
25, 188147, Control_c, 13, 11, 95
25, 188160, Note_on_c, 13, 68, 0
25, 188160, Note_on_c, 13, 67, 108
25, 188172, Control_c, 13, 11, 96
25, 188196, Control_c, 13, 11, 97
25, 188220, Control_c, 13, 11, 98
25, 188245, Control_c, 13, 11, 99
25, 188269, Control_c, 13, 11, 100
25, 188294, Control_c, 13, 11, 101
25, 188318, Control_c, 13, 11, 102
25, 188342, Control_c, 13, 11, 103
25, 188367, Control_c, 13, 11, 104
25, 188391, Control_c, 13, 11, 105
25, 188416, Control_c, 13, 11, 106
25, 188440, Control_c, 13, 11, 107
25, 188464, Control_c, 13, 11, 108
25, 188489, Control_c, 13, 11, 109
25, 188513, Control_c, 13, 11, 110
25, 188537, Control_c, 13, 11, 111
25, 188544, Note_on_c, 13, 67, 0
25, 188544, Note_on_c, 13, 68, 104
25, 188562, Control_c, 13, 11, 112
25, 188586, Control_c, 13, 11, 113
25, 188611, Control_c, 13, 11, 114
25, 188635, Control_c, 13, 11, 115
25, 188659, Control_c, 13, 11, 116
25, 188684, Control_c, 13, 11, 117
25, 188708, Control_c, 13, 11, 118
25, 188732, Control_c, 13, 11, 119
25, 188757, Control_c, 13, 11, 120
25, 188781, Control_c, 13, 11, 121
25, 188806, Control_c, 13, 11, 122
25, 188830, Control_c, 13, 11, 123
25, 188854, Control_c, 13, 11, 124
25, 188879, Control_c, 13, 11, 125
25, 188903, Control_c, 13, 11, 126
25, 188928, Note_on_c, 13, 68, 0
25, 188928, Control_c, 13, 11, 127
25, 188928, Program_c, 13, 48
25, 189056, Note_on_c, 13, 64, 28
25, 189118, Note_on_c, 13, 64, 0
25, 189120, Note_on_c, 13, 61, 28
25, 189182, Note_on_c, 13, 61, 0
25, 189184, Note_on_c, 13, 64, 32
25, 189246, Note_on_c, 13, 64, 0
25, 189248, Note_on_c, 13, 61, 25
25, 189290, Note_on_c, 13, 61, 0
25, 189440, Note_on_c, 13, 64, 27
25, 189502, Note_on_c, 13, 64, 0
25, 189504, Note_on_c, 13, 61, 34
25, 189566, Note_on_c, 13, 61, 0
25, 189568, Note_on_c, 13, 64, 25
25, 189630, Note_on_c, 13, 64, 0
25, 189632, Note_on_c, 13, 61, 35
25, 189674, Note_on_c, 13, 61, 0
25, 189824, Note_on_c, 13, 64, 34
25, 189886, Note_on_c, 13, 64, 0
25, 189888, Note_on_c, 13, 61, 25
25, 189950, Note_on_c, 13, 61, 0
25, 189952, Note_on_c, 13, 64, 25
25, 190014, Note_on_c, 13, 64, 0
25, 190016, Note_on_c, 13, 61, 31
25, 190058, Note_on_c, 13, 61, 0
25, 190208, Note_on_c, 13, 64, 34
25, 190270, Note_on_c, 13, 64, 0
25, 190272, Note_on_c, 13, 61, 25
25, 190334, Note_on_c, 13, 61, 0
25, 190336, Note_on_c, 13, 64, 25
25, 190398, Note_on_c, 13, 64, 0
25, 190400, Note_on_c, 13, 61, 31
25, 190442, Note_on_c, 13, 61, 0
25, 190592, Note_on_c, 13, 64, 34
25, 190654, Note_on_c, 13, 64, 0
25, 190656, Note_on_c, 13, 61, 31
25, 190718, Note_on_c, 13, 61, 0
25, 190720, Note_on_c, 13, 64, 33
25, 190782, Note_on_c, 13, 64, 0
25, 190784, Note_on_c, 13, 61, 25
25, 190826, Note_on_c, 13, 61, 0
25, 190976, Note_on_c, 13, 64, 27
25, 191038, Note_on_c, 13, 64, 0
25, 191040, Note_on_c, 13, 61, 29
25, 191102, Note_on_c, 13, 61, 0
25, 191104, Note_on_c, 13, 64, 30
25, 191166, Note_on_c, 13, 64, 0
25, 191168, Note_on_c, 13, 61, 26
25, 191210, Note_on_c, 13, 61, 0
25, 191360, Note_on_c, 13, 64, 29
25, 191422, Note_on_c, 13, 64, 0
25, 191424, Note_on_c, 13, 61, 32
25, 191486, Note_on_c, 13, 61, 0
25, 191488, Note_on_c, 13, 64, 32
25, 191550, Note_on_c, 13, 64, 0
25, 191552, Note_on_c, 13, 61, 35
25, 191594, Note_on_c, 13, 61, 0
25, 191744, Note_on_c, 13, 64, 25
25, 191806, Note_on_c, 13, 64, 0
25, 191808, Note_on_c, 13, 61, 29
25, 191870, Note_on_c, 13, 61, 0
25, 191872, Note_on_c, 13, 64, 29
25, 191934, Note_on_c, 13, 64, 0
25, 191936, Note_on_c, 13, 61, 28
25, 191978, Note_on_c, 13, 61, 0
25, 192128, Note_on_c, 13, 65, 32
25, 192190, Note_on_c, 13, 65, 0
25, 192192, Note_on_c, 13, 62, 32
25, 192254, Note_on_c, 13, 62, 0
25, 192256, Note_on_c, 13, 65, 33
25, 192318, Note_on_c, 13, 65, 0
25, 192320, Note_on_c, 13, 62, 25
25, 192362, Note_on_c, 13, 62, 0
25, 192512, Note_on_c, 13, 66, 34
25, 192574, Note_on_c, 13, 66, 0
25, 192576, Note_on_c, 13, 63, 28
25, 192638, Note_on_c, 13, 63, 0
25, 192640, Note_on_c, 13, 66, 34
25, 192702, Note_on_c, 13, 66, 0
25, 192704, Note_on_c, 13, 63, 25
25, 192746, Note_on_c, 13, 63, 0
25, 192896, Note_on_c, 13, 59, 25
25, 192958, Note_on_c, 13, 59, 0
25, 192960, Note_on_c, 13, 56, 27
25, 193022, Note_on_c, 13, 56, 0
25, 193024, Note_on_c, 13, 59, 31
25, 193086, Note_on_c, 13, 59, 0
25, 193088, Note_on_c, 13, 56, 25
25, 193130, Note_on_c, 13, 56, 0
25, 193280, Note_on_c, 13, 61, 35
25, 193342, Note_on_c, 13, 61, 0
25, 193344, Note_on_c, 13, 58, 29
25, 193406, Note_on_c, 13, 58, 0
25, 193408, Note_on_c, 13, 61, 26
25, 193470, Note_on_c, 13, 61, 0
25, 193472, Note_on_c, 13, 58, 26
25, 193514, Note_on_c, 13, 58, 0
25, 193664, Note_on_c, 13, 56, 34
25, 193726, Note_on_c, 13, 56, 0
25, 193728, Note_on_c, 13, 60, 35
25, 193790, Note_on_c, 13, 60, 0
25, 193792, Note_on_c, 13, 56, 29
25, 193854, Note_on_c, 13, 56, 0
25, 193856, Note_on_c, 13, 55, 27
25, 193898, Note_on_c, 13, 55, 0
25, 194048, Note_on_c, 13, 54, 30
25, 194110, Note_on_c, 13, 54, 0
25, 194112, Note_on_c, 13, 58, 29
25, 194174, Note_on_c, 13, 58, 0
25, 194176, Note_on_c, 13, 54, 28
25, 194238, Note_on_c, 13, 54, 0
25, 194240, Note_on_c, 13, 53, 25
25, 194282, Note_on_c, 13, 53, 0
25, 194432, Note_on_c, 13, 52, 26
25, 194494, Note_on_c, 13, 52, 0
25, 194496, Note_on_c, 13, 48, 29
25, 194558, Note_on_c, 13, 48, 0
25, 194560, Note_on_c, 13, 56, 35
25, 194622, Note_on_c, 13, 56, 0
25, 194624, Note_on_c, 13, 52, 26
25, 194666, Note_on_c, 13, 52, 0
25, 194816, Note_on_c, 13, 56, 32
25, 194878, Note_on_c, 13, 56, 0
25, 194880, Note_on_c, 13, 52, 29
25, 194942, Note_on_c, 13, 52, 0
25, 194944, Note_on_c, 13, 60, 27
25, 195006, Note_on_c, 13, 60, 0
25, 195008, Note_on_c, 13, 56, 34
25, 195050, Note_on_c, 13, 56, 0
25, 195200, Note_on_c, 13, 52, 25
25, 195262, Note_on_c, 13, 52, 0
25, 195264, Note_on_c, 13, 48, 27
25, 195326, Note_on_c, 13, 48, 0
25, 195328, Note_on_c, 13, 56, 30
25, 195390, Note_on_c, 13, 56, 0
25, 195392, Note_on_c, 13, 52, 33
25, 195434, Note_on_c, 13, 52, 0
25, 195520, Note_on_c, 13, 60, 34
25, 195582, Note_on_c, 13, 60, 0
25, 195584, Note_on_c, 13, 64, 26
25, 195626, Note_on_c, 13, 64, 0
25, 195712, Note_on_c, 13, 60, 31
25, 195774, Note_on_c, 13, 60, 0
25, 195776, Note_on_c, 13, 64, 33
25, 195818, Note_on_c, 13, 64, 0
25, 195968, Note_on_c, 13, 65, 43
25, 196030, Note_on_c, 13, 65, 0
25, 196032, Note_on_c, 13, 61, 45
25, 196094, Note_on_c, 13, 61, 0
25, 196096, Note_on_c, 13, 65, 47
25, 196158, Note_on_c, 13, 65, 0
25, 196160, Note_on_c, 13, 61, 46
25, 196202, Note_on_c, 13, 61, 0
25, 196352, Note_on_c, 13, 65, 48
25, 196414, Note_on_c, 13, 65, 0
25, 196416, Note_on_c, 13, 61, 46
25, 196478, Note_on_c, 13, 61, 0
25, 196480, Note_on_c, 13, 65, 41
25, 196542, Note_on_c, 13, 65, 0
25, 196544, Note_on_c, 13, 61, 47
25, 196586, Note_on_c, 13, 61, 0
25, 196736, Note_on_c, 13, 65, 49
25, 196798, Note_on_c, 13, 65, 0
25, 196800, Note_on_c, 13, 61, 40
25, 196862, Note_on_c, 13, 61, 0
25, 196864, Note_on_c, 13, 65, 45
25, 196926, Note_on_c, 13, 65, 0
25, 196928, Note_on_c, 13, 61, 48
25, 196970, Note_on_c, 13, 61, 0
25, 197120, Note_on_c, 13, 65, 44
25, 197182, Note_on_c, 13, 65, 0
25, 197184, Note_on_c, 13, 61, 41
25, 197246, Note_on_c, 13, 61, 0
25, 197248, Note_on_c, 13, 65, 47
25, 197310, Note_on_c, 13, 65, 0
25, 197312, Note_on_c, 13, 61, 42
25, 197354, Note_on_c, 13, 61, 0
25, 197504, Note_on_c, 13, 65, 46
25, 197566, Note_on_c, 13, 65, 0
25, 197568, Note_on_c, 13, 61, 41
25, 197630, Note_on_c, 13, 61, 0
25, 197632, Note_on_c, 13, 65, 49
25, 197694, Note_on_c, 13, 65, 0
25, 197696, Note_on_c, 13, 61, 43
25, 197738, Note_on_c, 13, 61, 0
25, 197888, Note_on_c, 13, 65, 41
25, 197950, Note_on_c, 13, 65, 0
25, 197952, Note_on_c, 13, 61, 49
25, 198014, Note_on_c, 13, 61, 0
25, 198016, Note_on_c, 13, 65, 50
25, 198078, Note_on_c, 13, 65, 0
25, 198080, Note_on_c, 13, 61, 43
25, 198122, Note_on_c, 13, 61, 0
25, 198272, Note_on_c, 13, 65, 43
25, 198334, Note_on_c, 13, 65, 0
25, 198336, Note_on_c, 13, 61, 44
25, 198398, Note_on_c, 13, 61, 0
25, 198400, Note_on_c, 13, 65, 50
25, 198462, Note_on_c, 13, 65, 0
25, 198464, Note_on_c, 13, 61, 43
25, 198506, Note_on_c, 13, 61, 0
25, 198656, Note_on_c, 13, 65, 43
25, 198718, Note_on_c, 13, 65, 0
25, 198720, Note_on_c, 13, 61, 50
25, 198782, Note_on_c, 13, 61, 0
25, 198784, Note_on_c, 13, 65, 40
25, 198846, Note_on_c, 13, 65, 0
25, 198848, Note_on_c, 13, 61, 43
25, 198890, Note_on_c, 13, 61, 0
25, 199040, Note_on_c, 13, 63, 76
25, 199082, Note_on_c, 13, 63, 0
25, 199104, Note_on_c, 13, 63, 72
25, 199146, Note_on_c, 13, 63, 0
25, 199168, Note_on_c, 13, 63, 78
25, 199210, Note_on_c, 13, 63, 0
25, 199232, Note_on_c, 13, 70, 80
25, 199274, Note_on_c, 13, 70, 0
25, 199424, Note_on_c, 13, 63, 78
25, 199466, Note_on_c, 13, 63, 0
25, 199488, Note_on_c, 13, 63, 77
25, 199530, Note_on_c, 13, 63, 0
25, 199552, Note_on_c, 13, 63, 73
25, 199594, Note_on_c, 13, 63, 0
25, 199616, Note_on_c, 13, 70, 75
25, 199658, Note_on_c, 13, 70, 0
25, 199808, Note_on_c, 13, 63, 72
25, 199850, Note_on_c, 13, 63, 0
25, 199872, Note_on_c, 13, 63, 78
25, 199914, Note_on_c, 13, 63, 0
25, 199936, Note_on_c, 13, 63, 76
25, 199978, Note_on_c, 13, 63, 0
25, 200000, Note_on_c, 13, 70, 72
25, 200042, Note_on_c, 13, 70, 0
25, 200192, Note_on_c, 13, 63, 76
25, 200234, Note_on_c, 13, 63, 0
25, 200256, Note_on_c, 13, 63, 79
25, 200298, Note_on_c, 13, 63, 0
25, 200320, Note_on_c, 13, 63, 70
25, 200362, Note_on_c, 13, 63, 0
25, 200384, Note_on_c, 13, 70, 78
25, 200426, Note_on_c, 13, 70, 0
25, 200576, Note_on_c, 13, 63, 71
25, 200618, Note_on_c, 13, 63, 0
25, 200640, Note_on_c, 13, 63, 74
25, 200682, Note_on_c, 13, 63, 0
25, 200704, Note_on_c, 13, 63, 78
25, 200746, Note_on_c, 13, 63, 0
25, 200768, Note_on_c, 13, 70, 79
25, 200810, Note_on_c, 13, 70, 0
25, 200960, Note_on_c, 13, 63, 71
25, 201002, Note_on_c, 13, 63, 0
25, 201024, Note_on_c, 13, 63, 78
25, 201066, Note_on_c, 13, 63, 0
25, 201088, Note_on_c, 13, 63, 77
25, 201130, Note_on_c, 13, 63, 0
25, 201152, Note_on_c, 13, 70, 75
25, 201194, Note_on_c, 13, 70, 0
25, 201344, Note_on_c, 13, 63, 71
25, 201386, Note_on_c, 13, 63, 0
25, 201408, Note_on_c, 13, 63, 79
25, 201450, Note_on_c, 13, 63, 0
25, 201472, Note_on_c, 13, 63, 70
25, 201514, Note_on_c, 13, 63, 0
25, 201536, Note_on_c, 13, 70, 73
25, 201578, Note_on_c, 13, 70, 0
25, 201728, Note_on_c, 13, 63, 79
25, 201770, Note_on_c, 13, 63, 0
25, 201792, Note_on_c, 13, 63, 74
25, 201834, Note_on_c, 13, 63, 0
25, 201856, Note_on_c, 13, 63, 79
25, 201898, Note_on_c, 13, 63, 0
25, 201920, Note_on_c, 13, 70, 76
25, 201962, Note_on_c, 13, 70, 0
25, 202112, Note_on_c, 13, 68, 78
25, 202154, Note_on_c, 13, 68, 0
25, 202176, Note_on_c, 13, 68, 78
25, 202218, Note_on_c, 13, 68, 0
25, 202240, Note_on_c, 13, 68, 72
25, 202282, Note_on_c, 13, 68, 0
25, 202304, Note_on_c, 13, 70, 76
25, 202346, Note_on_c, 13, 70, 0
25, 202496, Note_on_c, 13, 68, 74
25, 202538, Note_on_c, 13, 68, 0
25, 202560, Note_on_c, 13, 68, 72
25, 202602, Note_on_c, 13, 68, 0
25, 202624, Note_on_c, 13, 68, 77
25, 202666, Note_on_c, 13, 68, 0
25, 202688, Note_on_c, 13, 70, 70
25, 202730, Note_on_c, 13, 70, 0
25, 202880, Note_on_c, 13, 68, 75
25, 202922, Note_on_c, 13, 68, 0
25, 202944, Note_on_c, 13, 68, 73
25, 202986, Note_on_c, 13, 68, 0
25, 203008, Note_on_c, 13, 68, 72
25, 203050, Note_on_c, 13, 68, 0
25, 203072, Note_on_c, 13, 70, 76
25, 203114, Note_on_c, 13, 70, 0
25, 203264, Note_on_c, 13, 72, 80
25, 203306, Note_on_c, 13, 72, 0
25, 203328, Note_on_c, 13, 72, 71
25, 203370, Note_on_c, 13, 72, 0
25, 203392, Note_on_c, 13, 72, 80
25, 203434, Note_on_c, 13, 72, 0
25, 203456, Note_on_c, 13, 72, 70
25, 203498, Note_on_c, 13, 72, 0
25, 203648, Note_on_c, 13, 68, 73
25, 203690, Note_on_c, 13, 68, 0
25, 203712, Note_on_c, 13, 68, 72
25, 203754, Note_on_c, 13, 68, 0
25, 203776, Note_on_c, 13, 68, 64
25, 203818, Note_on_c, 13, 68, 0
25, 203840, Note_on_c, 13, 70, 60
25, 203882, Note_on_c, 13, 70, 0
25, 204032, Note_on_c, 13, 68, 57
25, 204074, Note_on_c, 13, 68, 0
25, 204096, Note_on_c, 13, 68, 51
25, 204138, Note_on_c, 13, 68, 0
25, 204160, Note_on_c, 13, 68, 44
25, 204202, Note_on_c, 13, 68, 0
25, 204224, Note_on_c, 13, 70, 43
25, 204266, Note_on_c, 13, 70, 0
25, 204416, Note_on_c, 13, 70, 70
25, 204458, Note_on_c, 13, 70, 0
25, 204480, Note_on_c, 13, 70, 71
25, 204522, Note_on_c, 13, 70, 0
25, 204544, Note_on_c, 13, 70, 70
25, 204586, Note_on_c, 13, 70, 0
25, 204608, Note_on_c, 13, 72, 70
25, 204650, Note_on_c, 13, 72, 0
25, 204800, Note_on_c, 13, 70, 71
25, 204842, Note_on_c, 13, 70, 0
25, 204864, Note_on_c, 13, 70, 74
25, 204906, Note_on_c, 13, 70, 0
25, 204928, Note_on_c, 13, 70, 71
25, 204970, Note_on_c, 13, 70, 0
25, 204992, Note_on_c, 13, 72, 73
25, 205034, Note_on_c, 13, 72, 0
25, 205184, Note_on_c, 13, 63, 74
25, 205226, Note_on_c, 13, 63, 0
25, 205248, Note_on_c, 13, 63, 79
25, 205290, Note_on_c, 13, 63, 0
25, 205312, Note_on_c, 13, 63, 77
25, 205354, Note_on_c, 13, 63, 0
25, 205376, Note_on_c, 13, 70, 78
25, 205418, Note_on_c, 13, 70, 0
25, 205568, Note_on_c, 13, 63, 79
25, 205610, Note_on_c, 13, 63, 0
25, 205632, Note_on_c, 13, 63, 77
25, 205674, Note_on_c, 13, 63, 0
25, 205696, Note_on_c, 13, 63, 74
25, 205738, Note_on_c, 13, 63, 0
25, 205760, Note_on_c, 13, 70, 79
25, 205802, Note_on_c, 13, 70, 0
25, 205952, Note_on_c, 13, 63, 74
25, 205994, Note_on_c, 13, 63, 0
25, 206016, Note_on_c, 13, 63, 77
25, 206058, Note_on_c, 13, 63, 0
25, 206080, Note_on_c, 13, 63, 80
25, 206122, Note_on_c, 13, 63, 0
25, 206144, Note_on_c, 13, 70, 75
25, 206186, Note_on_c, 13, 70, 0
25, 206336, Note_on_c, 13, 63, 79
25, 206378, Note_on_c, 13, 63, 0
25, 206400, Note_on_c, 13, 63, 72
25, 206442, Note_on_c, 13, 63, 0
25, 206464, Note_on_c, 13, 63, 79
25, 206506, Note_on_c, 13, 63, 0
25, 206528, Note_on_c, 13, 70, 76
25, 206570, Note_on_c, 13, 70, 0
25, 206720, Note_on_c, 13, 63, 72
25, 206762, Note_on_c, 13, 63, 0
25, 206784, Note_on_c, 13, 63, 75
25, 206826, Note_on_c, 13, 63, 0
25, 206848, Note_on_c, 13, 63, 78
25, 206890, Note_on_c, 13, 63, 0
25, 206912, Note_on_c, 13, 70, 75
25, 206954, Note_on_c, 13, 70, 0
25, 207104, Note_on_c, 13, 63, 75
25, 207146, Note_on_c, 13, 63, 0
25, 207168, Note_on_c, 13, 63, 79
25, 207210, Note_on_c, 13, 63, 0
25, 207232, Note_on_c, 13, 63, 74
25, 207274, Note_on_c, 13, 63, 0
25, 207296, Note_on_c, 13, 70, 70
25, 207338, Note_on_c, 13, 70, 0
25, 207488, Note_on_c, 13, 63, 76
25, 207530, Note_on_c, 13, 63, 0
25, 207552, Note_on_c, 13, 63, 82
25, 207594, Note_on_c, 13, 63, 0
25, 207616, Note_on_c, 13, 63, 80
25, 207658, Note_on_c, 13, 63, 0
25, 207680, Note_on_c, 13, 70, 88
25, 207722, Note_on_c, 13, 70, 0
25, 207872, Note_on_c, 13, 63, 97
25, 207914, Note_on_c, 13, 63, 0
25, 207936, Note_on_c, 13, 63, 96
25, 207978, Note_on_c, 13, 63, 0
25, 208000, Note_on_c, 13, 63, 101
25, 208042, Note_on_c, 13, 63, 0
25, 208064, Note_on_c, 13, 70, 109
25, 208106, Note_on_c, 13, 70, 0
25, 208512, Note_on_c, 13, 68, 106
25, 208558, Note_on_c, 13, 68, 0
25, 208560, Note_on_c, 13, 70, 108
25, 208606, Note_on_c, 13, 70, 0
25, 208608, Note_on_c, 13, 68, 109
25, 208654, Note_on_c, 13, 68, 0
25, 208656, Note_on_c, 13, 65, 106
25, 208702, Note_on_c, 13, 65, 0
25, 208704, Note_on_c, 13, 63, 105
25, 208750, Note_on_c, 13, 63, 0
25, 208752, Note_on_c, 13, 65, 106
25, 208798, Note_on_c, 13, 65, 0
25, 208800, Note_on_c, 13, 63, 106
25, 208846, Note_on_c, 13, 63, 0
25, 208848, Note_on_c, 13, 61, 111
25, 208894, Note_on_c, 13, 61, 0
25, 208896, Note_on_c, 13, 68, 107
25, 208942, Note_on_c, 13, 68, 0
25, 208944, Note_on_c, 13, 70, 111
25, 208990, Note_on_c, 13, 70, 0
25, 208992, Note_on_c, 13, 68, 110
25, 209038, Note_on_c, 13, 68, 0
25, 209040, Note_on_c, 13, 65, 109
25, 209086, Note_on_c, 13, 65, 0
25, 209088, Note_on_c, 13, 63, 112
25, 209134, Note_on_c, 13, 63, 0
25, 209136, Note_on_c, 13, 65, 109
25, 209182, Note_on_c, 13, 65, 0
25, 209184, Note_on_c, 13, 63, 112
25, 209230, Note_on_c, 13, 63, 0
25, 209232, Note_on_c, 13, 61, 104
25, 209278, Note_on_c, 13, 61, 0
25, 209280, Note_on_c, 13, 56, 106
25, 209326, Note_on_c, 13, 56, 0
25, 209328, Note_on_c, 13, 58, 94
25, 209374, Note_on_c, 13, 58, 0
25, 209376, Note_on_c, 13, 56, 86
25, 209422, Note_on_c, 13, 56, 0
25, 209424, Note_on_c, 13, 53, 79
25, 209470, Note_on_c, 13, 53, 0
25, 209472, Note_on_c, 13, 51, 74
25, 209518, Note_on_c, 13, 51, 0
25, 209520, Note_on_c, 13, 53, 62
25, 209566, Note_on_c, 13, 53, 0
25, 209568, Note_on_c, 13, 51, 51
25, 209614, Note_on_c, 13, 51, 0
25, 209616, Note_on_c, 13, 49, 42
25, 209662, Note_on_c, 13, 49, 0
25, 209856, Program_c, 13, 45
25, 209856, Note_on_c, 13, 57, 87
25, 209950, Note_on_c, 13, 57, 0
25, 210048, Program_c, 13, 48
25, 210048, Note_on_c, 13, 63, 50
25, 210094, Note_on_c, 13, 63, 0
25, 210096, Note_on_c, 13, 61, 46
25, 210142, Note_on_c, 13, 61, 0
25, 210144, Note_on_c, 13, 63, 57
25, 210190, Note_on_c, 13, 63, 0
25, 210192, Note_on_c, 13, 65, 62
25, 210238, Note_on_c, 13, 65, 0
25, 210240, Note_on_c, 13, 63, 70
25, 210286, Note_on_c, 13, 63, 0
25, 210288, Note_on_c, 13, 61, 71
25, 210334, Note_on_c, 13, 61, 0
25, 210336, Note_on_c, 13, 58, 83
25, 210382, Note_on_c, 13, 58, 0
25, 210384, Note_on_c, 13, 61, 93
25, 210430, Note_on_c, 13, 61, 0
25, 210624, Program_c, 13, 45
25, 210624, Note_on_c, 13, 57, 89
25, 210718, Note_on_c, 13, 57, 0
25, 210816, Program_c, 13, 48
25, 210816, Note_on_c, 13, 63, 48
25, 210862, Note_on_c, 13, 63, 0
25, 210864, Note_on_c, 13, 61, 49
25, 210910, Note_on_c, 13, 61, 0
25, 210912, Note_on_c, 13, 63, 50
25, 210958, Note_on_c, 13, 63, 0
25, 210960, Note_on_c, 13, 65, 58
25, 211006, Note_on_c, 13, 65, 0
25, 211008, Note_on_c, 13, 63, 67
25, 211054, Note_on_c, 13, 63, 0
25, 211056, Note_on_c, 13, 61, 80
25, 211102, Note_on_c, 13, 61, 0
25, 211104, Note_on_c, 13, 58, 79
25, 211150, Note_on_c, 13, 58, 0
25, 211152, Note_on_c, 13, 61, 95
25, 211198, Note_on_c, 13, 61, 0
25, 211648, Note_on_c, 13, 54, 72
25, 211710, Note_on_c, 13, 54, 0
25, 211712, Note_on_c, 13, 56, 79
25, 211774, Note_on_c, 13, 56, 0
25, 211776, Note_on_c, 13, 61, 84
25, 211838, Note_on_c, 13, 61, 0
25, 211840, Note_on_c, 13, 63, 80
25, 211902, Note_on_c, 13, 63, 0
25, 211904, Note_on_c, 13, 66, 87
25, 211966, Note_on_c, 13, 66, 0
25, 212416, Note_on_c, 13, 66, 94
25, 212478, Note_on_c, 13, 66, 0
25, 212480, Note_on_c, 13, 68, 95
25, 212542, Note_on_c, 13, 68, 0
25, 212544, Note_on_c, 13, 73, 97
25, 212606, Note_on_c, 13, 73, 0
25, 212608, Note_on_c, 13, 75, 105
25, 212670, Note_on_c, 13, 75, 0
25, 212672, Note_on_c, 13, 78, 102
25, 212734, Note_on_c, 13, 78, 0
25, 212736, Note_on_c, 13, 80, 113
25, 212896, Note_on_c, 13, 80, 0
25, 213120, Note_on_c, 13, 68, 109
25, 213166, Note_on_c, 13, 68, 0
25, 213168, Note_on_c, 13, 70, 113
25, 213214, Note_on_c, 13, 70, 0
25, 213216, Note_on_c, 13, 68, 107
25, 213262, Note_on_c, 13, 68, 0
25, 213264, Note_on_c, 13, 65, 105
25, 213310, Note_on_c, 13, 65, 0
25, 213312, Note_on_c, 13, 63, 108
25, 213358, Note_on_c, 13, 63, 0
25, 213360, Note_on_c, 13, 65, 110
25, 213406, Note_on_c, 13, 65, 0
25, 213408, Note_on_c, 13, 63, 107
25, 213454, Note_on_c, 13, 63, 0
25, 213456, Note_on_c, 13, 61, 107
25, 213502, Note_on_c, 13, 61, 0
25, 213504, Note_on_c, 13, 68, 103
25, 213550, Note_on_c, 13, 68, 0
25, 213552, Note_on_c, 13, 70, 113
25, 213598, Note_on_c, 13, 70, 0
25, 213600, Note_on_c, 13, 68, 111
25, 213646, Note_on_c, 13, 68, 0
25, 213648, Note_on_c, 13, 65, 112
25, 213694, Note_on_c, 13, 65, 0
25, 213696, Note_on_c, 13, 63, 107
25, 213742, Note_on_c, 13, 63, 0
25, 213744, Note_on_c, 13, 65, 103
25, 213790, Note_on_c, 13, 65, 0
25, 213792, Note_on_c, 13, 63, 111
25, 213838, Note_on_c, 13, 63, 0
25, 213840, Note_on_c, 13, 61, 112
25, 213886, Note_on_c, 13, 61, 0
25, 213888, Note_on_c, 13, 56, 105
25, 213934, Note_on_c, 13, 56, 0
25, 213936, Note_on_c, 13, 58, 101
25, 213982, Note_on_c, 13, 58, 0
25, 213984, Note_on_c, 13, 56, 94
25, 214030, Note_on_c, 13, 56, 0
25, 214032, Note_on_c, 13, 53, 88
25, 214078, Note_on_c, 13, 53, 0
25, 214080, Note_on_c, 13, 51, 83
25, 214126, Note_on_c, 13, 51, 0
25, 214128, Note_on_c, 13, 53, 78
25, 214174, Note_on_c, 13, 53, 0
25, 214176, Note_on_c, 13, 51, 69
25, 214222, Note_on_c, 13, 51, 0
25, 214224, Note_on_c, 13, 49, 66
25, 214270, Note_on_c, 13, 49, 0
25, 214368, Note_on_c, 13, 53, 48
25, 214368, Note_on_c, 13, 58, 50
25, 214462, Note_on_c, 13, 53, 0
25, 214462, Note_on_c, 13, 58, 0
25, 214560, Note_on_c, 13, 55, 44
25, 214560, Note_on_c, 13, 58, 48
25, 214654, Note_on_c, 13, 55, 0
25, 214654, Note_on_c, 13, 58, 0
25, 214752, Note_on_c, 13, 53, 49
25, 214752, Note_on_c, 13, 58, 44
25, 214846, Note_on_c, 13, 53, 0
25, 214846, Note_on_c, 13, 58, 0
25, 214944, Note_on_c, 13, 55, 50
25, 214944, Note_on_c, 13, 58, 46
25, 215038, Note_on_c, 13, 55, 0
25, 215038, Note_on_c, 13, 58, 0
25, 215136, Note_on_c, 13, 53, 57
25, 215136, Note_on_c, 13, 58, 53
25, 215230, Note_on_c, 13, 53, 0
25, 215230, Note_on_c, 13, 58, 0
25, 215328, Note_on_c, 13, 55, 54
25, 215328, Note_on_c, 13, 58, 49
25, 215422, Note_on_c, 13, 55, 0
25, 215422, Note_on_c, 13, 58, 0
25, 215520, Note_on_c, 13, 53, 58
25, 215520, Note_on_c, 13, 58, 53
25, 215614, Note_on_c, 13, 53, 0
25, 215614, Note_on_c, 13, 58, 0
25, 215712, Note_on_c, 13, 55, 57
25, 215712, Note_on_c, 13, 58, 60
25, 215806, Note_on_c, 13, 55, 0
25, 215806, Note_on_c, 13, 58, 0
25, 215936, Note_on_c, 13, 58, 58
25, 216062, Note_on_c, 13, 58, 0
25, 216064, Note_on_c, 13, 60, 66
25, 216190, Note_on_c, 13, 60, 0
25, 216192, Note_on_c, 13, 63, 67
25, 216318, Note_on_c, 13, 63, 0
25, 216320, Note_on_c, 13, 61, 70
25, 216446, Note_on_c, 13, 61, 0
25, 216448, Note_on_c, 13, 60, 67
25, 216574, Note_on_c, 13, 60, 0
25, 216576, Note_on_c, 13, 58, 71
25, 216702, Note_on_c, 13, 58, 0
25, 216704, Note_on_c, 13, 58, 72
25, 216830, Note_on_c, 13, 58, 0
25, 216832, Note_on_c, 13, 60, 81
25, 216958, Note_on_c, 13, 60, 0
25, 216960, Note_on_c, 13, 63, 78
25, 217086, Note_on_c, 13, 63, 0
25, 217088, Note_on_c, 13, 61, 85
25, 217214, Note_on_c, 13, 61, 0
25, 217216, Note_on_c, 13, 60, 92
25, 217342, Note_on_c, 13, 60, 0
25, 217344, Note_on_c, 13, 58, 90
25, 217470, Note_on_c, 13, 58, 0
25, 217472, Note_on_c, 13, 58, 93
25, 217598, Note_on_c, 13, 58, 0
25, 217600, Note_on_c, 13, 60, 93
25, 217726, Note_on_c, 13, 60, 0
25, 217728, Note_on_c, 13, 63, 90
25, 217854, Note_on_c, 13, 63, 0
25, 217856, Note_on_c, 13, 61, 90
25, 217982, Note_on_c, 13, 61, 0
25, 217984, Note_on_c, 13, 60, 89
25, 218110, Note_on_c, 13, 60, 0
25, 218112, Note_on_c, 13, 58, 97
25, 218238, Note_on_c, 13, 58, 0
25, 218240, Note_on_c, 13, 58, 95
25, 218366, Note_on_c, 13, 58, 0
25, 218368, Note_on_c, 13, 60, 92
25, 218494, Note_on_c, 13, 60, 0
25, 218496, Note_on_c, 13, 63, 89
25, 218622, Note_on_c, 13, 63, 0
25, 218624, Note_on_c, 13, 61, 93
25, 218750, Note_on_c, 13, 61, 0
25, 218752, Note_on_c, 13, 58, 96
25, 218878, Note_on_c, 13, 58, 0
25, 218880, Note_on_c, 13, 67, 92
25, 218926, Note_on_c, 13, 67, 0
25, 218928, Note_on_c, 13, 65, 88
25, 218974, Note_on_c, 13, 65, 0
25, 218976, Note_on_c, 13, 67, 94
25, 219022, Note_on_c, 13, 67, 0
25, 219024, Note_on_c, 13, 69, 91
25, 219070, Note_on_c, 13, 69, 0
25, 219072, Note_on_c, 13, 67, 96
25, 219118, Note_on_c, 13, 67, 0
25, 219120, Note_on_c, 13, 65, 97
25, 219166, Note_on_c, 13, 65, 0
25, 219168, Note_on_c, 13, 62, 93
25, 219214, Note_on_c, 13, 62, 0
25, 219216, Note_on_c, 13, 65, 96
25, 219262, Note_on_c, 13, 65, 0
25, 219264, Note_on_c, 13, 67, 93
25, 219310, Note_on_c, 13, 67, 0
25, 219312, Note_on_c, 13, 65, 88
25, 219358, Note_on_c, 13, 65, 0
25, 219360, Note_on_c, 13, 67, 89
25, 219406, Note_on_c, 13, 67, 0
25, 219408, Note_on_c, 13, 69, 97
25, 219454, Note_on_c, 13, 69, 0
25, 219456, Note_on_c, 13, 67, 90
25, 219502, Note_on_c, 13, 67, 0
25, 219504, Note_on_c, 13, 65, 95
25, 219550, Note_on_c, 13, 65, 0
25, 219552, Note_on_c, 13, 62, 90
25, 219598, Note_on_c, 13, 62, 0
25, 219600, Note_on_c, 13, 65, 92
25, 219646, Note_on_c, 13, 65, 0
25, 219648, Note_on_c, 13, 67, 96
25, 219694, Note_on_c, 13, 67, 0
25, 219696, Note_on_c, 13, 65, 89
25, 219742, Note_on_c, 13, 65, 0
25, 219744, Note_on_c, 13, 67, 93
25, 219790, Note_on_c, 13, 67, 0
25, 219792, Note_on_c, 13, 69, 98
25, 219838, Note_on_c, 13, 69, 0
25, 219840, Note_on_c, 13, 67, 98
25, 219886, Note_on_c, 13, 67, 0
25, 219888, Note_on_c, 13, 65, 93
25, 219934, Note_on_c, 13, 65, 0
25, 219936, Note_on_c, 13, 62, 100
25, 219982, Note_on_c, 13, 62, 0
25, 219984, Note_on_c, 13, 65, 98
25, 220030, Note_on_c, 13, 65, 0
25, 220032, Note_on_c, 13, 67, 94
25, 220078, Note_on_c, 13, 67, 0
25, 220080, Note_on_c, 13, 65, 105
25, 220126, Note_on_c, 13, 65, 0
25, 220128, Note_on_c, 13, 67, 96
25, 220174, Note_on_c, 13, 67, 0
25, 220176, Note_on_c, 13, 69, 100
25, 220222, Note_on_c, 13, 69, 0
25, 220224, Note_on_c, 13, 67, 99
25, 220270, Note_on_c, 13, 67, 0
25, 220272, Note_on_c, 13, 65, 108
25, 220318, Note_on_c, 13, 65, 0
25, 220320, Note_on_c, 13, 62, 104
25, 220366, Note_on_c, 13, 62, 0
25, 220368, Note_on_c, 13, 65, 101
25, 220414, Note_on_c, 13, 65, 0
25, 220416, Note_on_c, 13, 75, 110
25, 220484, Note_on_c, 13, 75, 0
25, 220512, Note_on_c, 13, 77, 106
25, 220580, Note_on_c, 13, 77, 0
25, 220608, Note_on_c, 13, 80, 106
25, 220670, Note_on_c, 13, 80, 0
25, 220672, Note_on_c, 13, 78, 113
25, 220734, Note_on_c, 13, 78, 0
25, 220736, Note_on_c, 13, 77, 107
25, 220798, Note_on_c, 13, 77, 0
25, 220800, Note_on_c, 13, 75, 109
25, 220868, Note_on_c, 13, 75, 0
25, 220896, Note_on_c, 13, 77, 107
25, 220964, Note_on_c, 13, 77, 0
25, 220992, Note_on_c, 13, 80, 107
25, 221054, Note_on_c, 13, 80, 0
25, 221056, Note_on_c, 13, 78, 110
25, 221118, Note_on_c, 13, 78, 0
25, 221120, Note_on_c, 13, 77, 111
25, 221182, Note_on_c, 13, 77, 0
25, 221184, Note_on_c, 13, 75, 106
25, 221252, Note_on_c, 13, 75, 0
25, 221280, Note_on_c, 13, 77, 113
25, 221348, Note_on_c, 13, 77, 0
25, 221376, Note_on_c, 13, 80, 106
25, 221438, Note_on_c, 13, 80, 0
25, 221440, Note_on_c, 13, 78, 109
25, 221502, Note_on_c, 13, 78, 0
25, 221504, Note_on_c, 13, 77, 107
25, 221566, Note_on_c, 13, 77, 0
25, 221568, Note_on_c, 13, 75, 110
25, 221636, Note_on_c, 13, 75, 0
25, 221664, Note_on_c, 13, 77, 112
25, 221732, Note_on_c, 13, 77, 0
25, 221760, Note_on_c, 13, 80, 110
25, 221822, Note_on_c, 13, 80, 0
25, 221824, Note_on_c, 13, 78, 109
25, 221886, Note_on_c, 13, 78, 0
25, 221888, Note_on_c, 13, 77, 108
25, 221950, Note_on_c, 13, 77, 0
25, 221952, Note_on_c, 13, 75, 111
25, 222020, Note_on_c, 13, 75, 0
25, 222048, Note_on_c, 13, 77, 106
25, 222116, Note_on_c, 13, 77, 0
25, 222144, Note_on_c, 13, 80, 113
25, 222206, Note_on_c, 13, 80, 0
25, 222208, Note_on_c, 13, 78, 112
25, 222270, Note_on_c, 13, 78, 0
25, 222272, Note_on_c, 13, 77, 107
25, 222334, Note_on_c, 13, 77, 0
25, 222336, Note_on_c, 13, 75, 103
25, 222404, Note_on_c, 13, 75, 0
25, 222432, Note_on_c, 13, 77, 113
25, 222500, Note_on_c, 13, 77, 0
25, 222528, Note_on_c, 13, 80, 103
25, 222590, Note_on_c, 13, 80, 0
25, 222592, Note_on_c, 13, 78, 112
25, 222654, Note_on_c, 13, 78, 0
25, 222656, Note_on_c, 13, 77, 108
25, 222718, Note_on_c, 13, 77, 0
25, 222720, Note_on_c, 13, 75, 111
25, 222788, Note_on_c, 13, 75, 0
25, 222816, Note_on_c, 13, 77, 108
25, 222884, Note_on_c, 13, 77, 0
25, 222912, Note_on_c, 13, 80, 109
25, 222974, Note_on_c, 13, 80, 0
25, 222976, Note_on_c, 13, 78, 105
25, 223038, Note_on_c, 13, 78, 0
25, 223040, Note_on_c, 13, 77, 105
25, 223102, Note_on_c, 13, 77, 0
25, 223104, Note_on_c, 13, 75, 104
25, 223172, Note_on_c, 13, 75, 0
25, 223200, Note_on_c, 13, 77, 112
25, 223268, Note_on_c, 13, 77, 0
25, 223296, Note_on_c, 13, 80, 113
25, 223358, Note_on_c, 13, 80, 0
25, 223360, Note_on_c, 13, 78, 110
25, 223422, Note_on_c, 13, 78, 0
25, 223424, Note_on_c, 13, 80, 108
25, 223486, Note_on_c, 13, 80, 0
25, 223488, Program_c, 13, 44
25, 223488, Note_on_c, 13, 80, 127
25, 224976, Note_on_c, 13, 80, 0
25, 225024, Program_c, 13, 48
25, 225024, Note_on_c, 13, 80, 122
25, 225118, Note_on_c, 13, 80, 0
25, 225216, Note_on_c, 13, 61, 123
25, 225310, Note_on_c, 13, 61, 0
25, 225310, End_track
26, 0, Start_track
26, 0, Title_t, "Viole II"
26, 0, MIDI_port, 0
26, 208, Control_c, 13, 0, 0
26, 209, Control_c, 13, 32, 0
26, 210, Program_c, 13, 48
26, 211, Control_c, 13, 7, 127
26, 212, Control_c, 13, 91, 127
26, 113664, Note_on_c, 13, 58, 76
26, 113856, Note_on_c, 13, 58, 0
26, 113856, Note_on_c, 13, 56, 77
26, 114048, Note_on_c, 13, 56, 0
26, 114048, Note_on_c, 13, 54, 76
26, 114176, Note_on_c, 13, 54, 0
26, 114176, Note_on_c, 13, 51, 75
26, 114304, Note_on_c, 13, 51, 0
26, 114304, Note_on_c, 13, 54, 74
26, 114430, Note_on_c, 13, 54, 0
26, 117504, Note_on_c, 13, 58, 41
26, 117696, Note_on_c, 13, 58, 0
26, 117696, Note_on_c, 13, 57, 37
26, 117888, Note_on_c, 13, 57, 0
26, 117888, Note_on_c, 13, 56, 31
26, 118080, Note_on_c, 13, 56, 0
26, 118080, Note_on_c, 13, 55, 32
26, 118240, Note_on_c, 13, 55, 0
26, 118464, Note_on_c, 13, 50, 87
26, 118558, Note_on_c, 13, 50, 0
26, 142080, Note_on_c, 13, 57, 28
26, 142126, Note_on_c, 13, 57, 0
26, 142128, Note_on_c, 13, 57, 35
26, 142174, Note_on_c, 13, 57, 0
26, 142176, Note_on_c, 13, 57, 28
26, 142222, Note_on_c, 13, 57, 0
26, 142224, Note_on_c, 13, 57, 25
26, 142270, Note_on_c, 13, 57, 0
26, 142272, Note_on_c, 13, 57, 30
26, 142318, Note_on_c, 13, 57, 0
26, 142320, Note_on_c, 13, 57, 26
26, 142366, Note_on_c, 13, 57, 0
26, 142368, Note_on_c, 13, 57, 31
26, 142414, Note_on_c, 13, 57, 0
26, 142416, Note_on_c, 13, 57, 32
26, 142462, Note_on_c, 13, 57, 0
26, 142464, Note_on_c, 13, 64, 25
26, 142510, Note_on_c, 13, 64, 0
26, 142512, Note_on_c, 13, 64, 31
26, 142558, Note_on_c, 13, 64, 0
26, 142560, Note_on_c, 13, 64, 22
26, 142606, Note_on_c, 13, 64, 0
26, 142608, Note_on_c, 13, 64, 25
26, 142654, Note_on_c, 13, 64, 0
26, 142656, Note_on_c, 13, 64, 25
26, 142702, Note_on_c, 13, 64, 0
26, 142704, Note_on_c, 13, 64, 25
26, 142750, Note_on_c, 13, 64, 0
26, 142752, Note_on_c, 13, 64, 19
26, 142798, Note_on_c, 13, 64, 0
26, 142800, Note_on_c, 13, 64, 20
26, 142846, Note_on_c, 13, 64, 0
26, 148992, Note_on_c, 13, 72, 70
26, 149038, Note_on_c, 13, 72, 0
26, 149040, Note_on_c, 13, 72, 76
26, 149086, Note_on_c, 13, 72, 0
26, 149088, Note_on_c, 13, 72, 74
26, 149134, Note_on_c, 13, 72, 0
26, 149136, Note_on_c, 13, 72, 77
26, 149182, Note_on_c, 13, 72, 0
26, 149184, Note_on_c, 13, 72, 71
26, 149230, Note_on_c, 13, 72, 0
26, 149232, Note_on_c, 13, 72, 79
26, 149278, Note_on_c, 13, 72, 0
26, 149280, Note_on_c, 13, 72, 79
26, 149326, Note_on_c, 13, 72, 0
26, 149328, Note_on_c, 13, 72, 79
26, 149374, Note_on_c, 13, 72, 0
26, 149376, Note_on_c, 13, 72, 74
26, 149422, Note_on_c, 13, 72, 0
26, 149424, Note_on_c, 13, 72, 73
26, 149470, Note_on_c, 13, 72, 0
26, 149472, Note_on_c, 13, 72, 74
26, 149518, Note_on_c, 13, 72, 0
26, 149520, Note_on_c, 13, 72, 70
26, 149566, Note_on_c, 13, 72, 0
26, 149568, Note_on_c, 13, 72, 74
26, 149614, Note_on_c, 13, 72, 0
26, 149616, Note_on_c, 13, 72, 73
26, 149662, Note_on_c, 13, 72, 0
26, 149664, Note_on_c, 13, 72, 77
26, 149710, Note_on_c, 13, 72, 0
26, 149712, Note_on_c, 13, 72, 71
26, 149758, Note_on_c, 13, 72, 0
26, 149760, Note_on_c, 13, 72, 80
26, 149806, Note_on_c, 13, 72, 0
26, 149808, Note_on_c, 13, 72, 79
26, 149854, Note_on_c, 13, 72, 0
26, 149856, Note_on_c, 13, 72, 84
26, 149902, Note_on_c, 13, 72, 0
26, 149904, Note_on_c, 13, 72, 84
26, 149950, Note_on_c, 13, 72, 0
26, 149952, Note_on_c, 13, 72, 84
26, 149998, Note_on_c, 13, 72, 0
26, 150000, Note_on_c, 13, 72, 83
26, 150046, Note_on_c, 13, 72, 0
26, 150048, Note_on_c, 13, 72, 84
26, 150094, Note_on_c, 13, 72, 0
26, 150096, Note_on_c, 13, 72, 86
26, 150142, Note_on_c, 13, 72, 0
26, 150144, Note_on_c, 13, 71, 90
26, 150190, Note_on_c, 13, 71, 0
26, 150192, Note_on_c, 13, 71, 88
26, 150238, Note_on_c, 13, 71, 0
26, 150240, Note_on_c, 13, 71, 89
26, 150286, Note_on_c, 13, 71, 0
26, 150288, Note_on_c, 13, 71, 86
26, 150334, Note_on_c, 13, 71, 0
26, 150336, Note_on_c, 13, 71, 92
26, 150382, Note_on_c, 13, 71, 0
26, 150384, Note_on_c, 13, 71, 91
26, 150430, Note_on_c, 13, 71, 0
26, 150432, Note_on_c, 13, 71, 89
26, 150478, Note_on_c, 13, 71, 0
26, 150480, Note_on_c, 13, 71, 97
26, 150526, Note_on_c, 13, 71, 0
26, 180576, Note_on_c, 13, 61, 88
26, 180670, Note_on_c, 13, 61, 0
26, 180768, Note_on_c, 13, 58, 93
26, 180862, Note_on_c, 13, 58, 0
26, 180960, Note_on_c, 13, 61, 87
26, 181054, Note_on_c, 13, 61, 0
26, 181152, Note_on_c, 13, 58, 95
26, 181246, Note_on_c, 13, 58, 0
26, 181344, Note_on_c, 13, 61, 97
26, 181438, Note_on_c, 13, 61, 0
26, 181536, Note_on_c, 13, 58, 88
26, 181630, Note_on_c, 13, 58, 0
26, 181728, Note_on_c, 13, 61, 92
26, 181822, Note_on_c, 13, 61, 0
26, 181920, Note_on_c, 13, 58, 96
26, 182014, Note_on_c, 13, 58, 0
26, 182112, Note_on_c, 13, 63, 91
26, 182206, Note_on_c, 13, 63, 0
26, 182304, Note_on_c, 13, 58, 88
26, 182398, Note_on_c, 13, 58, 0
26, 182496, Note_on_c, 13, 63, 91
26, 182590, Note_on_c, 13, 63, 0
26, 189056, Note_on_c, 13, 61, 25
26, 189118, Note_on_c, 13, 61, 0
26, 189120, Note_on_c, 13, 64, 29
26, 189182, Note_on_c, 13, 64, 0
26, 189184, Note_on_c, 13, 61, 31
26, 189246, Note_on_c, 13, 61, 0
26, 189248, Note_on_c, 13, 64, 35
26, 189290, Note_on_c, 13, 64, 0
26, 189440, Note_on_c, 13, 61, 35
26, 189502, Note_on_c, 13, 61, 0
26, 189504, Note_on_c, 13, 64, 35
26, 189566, Note_on_c, 13, 64, 0
26, 189568, Note_on_c, 13, 61, 34
26, 189630, Note_on_c, 13, 61, 0
26, 189632, Note_on_c, 13, 64, 29
26, 189674, Note_on_c, 13, 64, 0
26, 189824, Note_on_c, 13, 61, 32
26, 189886, Note_on_c, 13, 61, 0
26, 189888, Note_on_c, 13, 64, 26
26, 189950, Note_on_c, 13, 64, 0
26, 189952, Note_on_c, 13, 61, 27
26, 190014, Note_on_c, 13, 61, 0
26, 190016, Note_on_c, 13, 64, 29
26, 190058, Note_on_c, 13, 64, 0
26, 190208, Note_on_c, 13, 61, 27
26, 190270, Note_on_c, 13, 61, 0
26, 190272, Note_on_c, 13, 64, 28
26, 190334, Note_on_c, 13, 64, 0
26, 190336, Note_on_c, 13, 61, 34
26, 190398, Note_on_c, 13, 61, 0
26, 190400, Note_on_c, 13, 64, 32
26, 190442, Note_on_c, 13, 64, 0
26, 190592, Note_on_c, 13, 61, 31
26, 190654, Note_on_c, 13, 61, 0
26, 190656, Note_on_c, 13, 64, 28
26, 190718, Note_on_c, 13, 64, 0
26, 190720, Note_on_c, 13, 61, 34
26, 190782, Note_on_c, 13, 61, 0
26, 190784, Note_on_c, 13, 64, 34
26, 190826, Note_on_c, 13, 64, 0
26, 190976, Note_on_c, 13, 61, 33
26, 191038, Note_on_c, 13, 61, 0
26, 191040, Note_on_c, 13, 64, 31
26, 191102, Note_on_c, 13, 64, 0
26, 191104, Note_on_c, 13, 61, 25
26, 191166, Note_on_c, 13, 61, 0
26, 191168, Note_on_c, 13, 64, 35
26, 191210, Note_on_c, 13, 64, 0
26, 191360, Note_on_c, 13, 61, 31
26, 191422, Note_on_c, 13, 61, 0
26, 191424, Note_on_c, 13, 64, 28
26, 191486, Note_on_c, 13, 64, 0
26, 191488, Note_on_c, 13, 61, 28
26, 191550, Note_on_c, 13, 61, 0
26, 191552, Note_on_c, 13, 64, 32
26, 191594, Note_on_c, 13, 64, 0
26, 191744, Note_on_c, 13, 61, 28
26, 191806, Note_on_c, 13, 61, 0
26, 191808, Note_on_c, 13, 64, 34
26, 191870, Note_on_c, 13, 64, 0
26, 191872, Note_on_c, 13, 61, 30
26, 191934, Note_on_c, 13, 61, 0
26, 191936, Note_on_c, 13, 64, 34
26, 191978, Note_on_c, 13, 64, 0
26, 192128, Note_on_c, 13, 62, 28
26, 192190, Note_on_c, 13, 62, 0
26, 192192, Note_on_c, 13, 65, 25
26, 192254, Note_on_c, 13, 65, 0
26, 192256, Note_on_c, 13, 62, 27
26, 192318, Note_on_c, 13, 62, 0
26, 192320, Note_on_c, 13, 65, 34
26, 192362, Note_on_c, 13, 65, 0
26, 192512, Note_on_c, 13, 63, 25
26, 192574, Note_on_c, 13, 63, 0
26, 192576, Note_on_c, 13, 66, 32
26, 192638, Note_on_c, 13, 66, 0
26, 192640, Note_on_c, 13, 63, 33
26, 192702, Note_on_c, 13, 63, 0
26, 192704, Note_on_c, 13, 66, 32
26, 192746, Note_on_c, 13, 66, 0
26, 192896, Note_on_c, 13, 56, 29
26, 192958, Note_on_c, 13, 56, 0
26, 192960, Note_on_c, 13, 59, 27
26, 193022, Note_on_c, 13, 59, 0
26, 193024, Note_on_c, 13, 56, 32
26, 193086, Note_on_c, 13, 56, 0
26, 193088, Note_on_c, 13, 59, 33
26, 193130, Note_on_c, 13, 59, 0
26, 193280, Note_on_c, 13, 58, 27
26, 193342, Note_on_c, 13, 58, 0
26, 193344, Note_on_c, 13, 61, 33
26, 193406, Note_on_c, 13, 61, 0
26, 193408, Note_on_c, 13, 58, 29
26, 193470, Note_on_c, 13, 58, 0
26, 193472, Note_on_c, 13, 61, 25
26, 193514, Note_on_c, 13, 61, 0
26, 193664, Note_on_c, 13, 60, 34
26, 193726, Note_on_c, 13, 60, 0
26, 193728, Note_on_c, 13, 56, 35
26, 193790, Note_on_c, 13, 56, 0
26, 193792, Note_on_c, 13, 60, 30
26, 193854, Note_on_c, 13, 60, 0
26, 193856, Note_on_c, 13, 59, 27
26, 193898, Note_on_c, 13, 59, 0
26, 194048, Note_on_c, 13, 58, 32
26, 194110, Note_on_c, 13, 58, 0
26, 194112, Note_on_c, 13, 54, 31
26, 194174, Note_on_c, 13, 54, 0
26, 194176, Note_on_c, 13, 58, 35
26, 194238, Note_on_c, 13, 58, 0
26, 194240, Note_on_c, 13, 57, 35
26, 194282, Note_on_c, 13, 57, 0
26, 194432, Note_on_c, 13, 48, 31
26, 194494, Note_on_c, 13, 48, 0
26, 194496, Note_on_c, 13, 52, 33
26, 194558, Note_on_c, 13, 52, 0
26, 194560, Note_on_c, 13, 48, 35
26, 194622, Note_on_c, 13, 48, 0
26, 194624, Note_on_c, 13, 56, 30
26, 194666, Note_on_c, 13, 56, 0
26, 194816, Note_on_c, 13, 52, 27
26, 194878, Note_on_c, 13, 52, 0
26, 194880, Note_on_c, 13, 56, 25
26, 194942, Note_on_c, 13, 56, 0
26, 194944, Note_on_c, 13, 52, 32
26, 195006, Note_on_c, 13, 52, 0
26, 195008, Note_on_c, 13, 60, 34
26, 195050, Note_on_c, 13, 60, 0
26, 195200, Note_on_c, 13, 48, 35
26, 195262, Note_on_c, 13, 48, 0
26, 195264, Note_on_c, 13, 52, 26
26, 195326, Note_on_c, 13, 52, 0
26, 195328, Note_on_c, 13, 48, 29
26, 195390, Note_on_c, 13, 48, 0
26, 195392, Note_on_c, 13, 56, 34
26, 195434, Note_on_c, 13, 56, 0
26, 195520, Note_on_c, 13, 64, 35
26, 195582, Note_on_c, 13, 64, 0
26, 195584, Note_on_c, 13, 60, 34
26, 195626, Note_on_c, 13, 60, 0
26, 195712, Note_on_c, 13, 64, 27
26, 195774, Note_on_c, 13, 64, 0
26, 195776, Note_on_c, 13, 60, 35
26, 195818, Note_on_c, 13, 60, 0
26, 195968, Note_on_c, 13, 61, 50
26, 196030, Note_on_c, 13, 61, 0
26, 196032, Note_on_c, 13, 65, 43
26, 196094, Note_on_c, 13, 65, 0
26, 196096, Note_on_c, 13, 61, 41
26, 196158, Note_on_c, 13, 61, 0
26, 196160, Note_on_c, 13, 65, 45
26, 196202, Note_on_c, 13, 65, 0
26, 196352, Note_on_c, 13, 61, 48
26, 196414, Note_on_c, 13, 61, 0
26, 196416, Note_on_c, 13, 65, 41
26, 196478, Note_on_c, 13, 65, 0
26, 196480, Note_on_c, 13, 61, 47
26, 196542, Note_on_c, 13, 61, 0
26, 196544, Note_on_c, 13, 65, 42
26, 196586, Note_on_c, 13, 65, 0
26, 196736, Note_on_c, 13, 61, 44
26, 196798, Note_on_c, 13, 61, 0
26, 196800, Note_on_c, 13, 65, 50
26, 196862, Note_on_c, 13, 65, 0
26, 196864, Note_on_c, 13, 61, 47
26, 196926, Note_on_c, 13, 61, 0
26, 196928, Note_on_c, 13, 65, 46
26, 196970, Note_on_c, 13, 65, 0
26, 197120, Note_on_c, 13, 61, 41
26, 197182, Note_on_c, 13, 61, 0
26, 197184, Note_on_c, 13, 65, 50
26, 197246, Note_on_c, 13, 65, 0
26, 197248, Note_on_c, 13, 61, 43
26, 197310, Note_on_c, 13, 61, 0
26, 197312, Note_on_c, 13, 65, 44
26, 197354, Note_on_c, 13, 65, 0
26, 197504, Note_on_c, 13, 61, 50
26, 197566, Note_on_c, 13, 61, 0
26, 197568, Note_on_c, 13, 65, 41
26, 197630, Note_on_c, 13, 65, 0
26, 197632, Note_on_c, 13, 61, 50
26, 197694, Note_on_c, 13, 61, 0
26, 197696, Note_on_c, 13, 65, 45
26, 197738, Note_on_c, 13, 65, 0
26, 197888, Note_on_c, 13, 61, 45
26, 197950, Note_on_c, 13, 61, 0
26, 197952, Note_on_c, 13, 65, 45
26, 198014, Note_on_c, 13, 65, 0
26, 198016, Note_on_c, 13, 61, 46
26, 198078, Note_on_c, 13, 61, 0
26, 198080, Note_on_c, 13, 65, 45
26, 198122, Note_on_c, 13, 65, 0
26, 198272, Note_on_c, 13, 61, 42
26, 198334, Note_on_c, 13, 61, 0
26, 198336, Note_on_c, 13, 65, 42
26, 198398, Note_on_c, 13, 65, 0
26, 198400, Note_on_c, 13, 61, 47
26, 198462, Note_on_c, 13, 61, 0
26, 198464, Note_on_c, 13, 65, 42
26, 198506, Note_on_c, 13, 65, 0
26, 198656, Note_on_c, 13, 61, 47
26, 198718, Note_on_c, 13, 61, 0
26, 198720, Note_on_c, 13, 65, 47
26, 198782, Note_on_c, 13, 65, 0
26, 198784, Note_on_c, 13, 61, 42
26, 198846, Note_on_c, 13, 61, 0
26, 198848, Note_on_c, 13, 65, 48
26, 198890, Note_on_c, 13, 65, 0
26, 199040, Note_on_c, 13, 58, 71
26, 199082, Note_on_c, 13, 58, 0
26, 199104, Note_on_c, 13, 58, 79
26, 199146, Note_on_c, 13, 58, 0
26, 199168, Note_on_c, 13, 58, 77
26, 199210, Note_on_c, 13, 58, 0
26, 199232, Note_on_c, 13, 58, 79
26, 199274, Note_on_c, 13, 58, 0
26, 199424, Note_on_c, 13, 58, 72
26, 199466, Note_on_c, 13, 58, 0
26, 199488, Note_on_c, 13, 58, 78
26, 199530, Note_on_c, 13, 58, 0
26, 199552, Note_on_c, 13, 58, 74
26, 199594, Note_on_c, 13, 58, 0
26, 199616, Note_on_c, 13, 58, 74
26, 199658, Note_on_c, 13, 58, 0
26, 199808, Note_on_c, 13, 58, 70
26, 199850, Note_on_c, 13, 58, 0
26, 199872, Note_on_c, 13, 58, 79
26, 199914, Note_on_c, 13, 58, 0
26, 199936, Note_on_c, 13, 58, 74
26, 199978, Note_on_c, 13, 58, 0
26, 200000, Note_on_c, 13, 58, 79
26, 200042, Note_on_c, 13, 58, 0
26, 200192, Note_on_c, 13, 58, 76
26, 200234, Note_on_c, 13, 58, 0
26, 200256, Note_on_c, 13, 58, 76
26, 200298, Note_on_c, 13, 58, 0
26, 200320, Note_on_c, 13, 58, 70
26, 200362, Note_on_c, 13, 58, 0
26, 200384, Note_on_c, 13, 58, 73
26, 200426, Note_on_c, 13, 58, 0
26, 200576, Note_on_c, 13, 58, 80
26, 200618, Note_on_c, 13, 58, 0
26, 200640, Note_on_c, 13, 58, 77
26, 200682, Note_on_c, 13, 58, 0
26, 200704, Note_on_c, 13, 58, 71
26, 200746, Note_on_c, 13, 58, 0
26, 200768, Note_on_c, 13, 58, 76
26, 200810, Note_on_c, 13, 58, 0
26, 200960, Note_on_c, 13, 58, 71
26, 201002, Note_on_c, 13, 58, 0
26, 201024, Note_on_c, 13, 58, 76
26, 201066, Note_on_c, 13, 58, 0
26, 201088, Note_on_c, 13, 58, 78
26, 201130, Note_on_c, 13, 58, 0
26, 201152, Note_on_c, 13, 58, 71
26, 201194, Note_on_c, 13, 58, 0
26, 201344, Note_on_c, 13, 58, 71
26, 201386, Note_on_c, 13, 58, 0
26, 201408, Note_on_c, 13, 58, 70
26, 201450, Note_on_c, 13, 58, 0
26, 201472, Note_on_c, 13, 58, 72
26, 201514, Note_on_c, 13, 58, 0
26, 201536, Note_on_c, 13, 58, 70
26, 201578, Note_on_c, 13, 58, 0
26, 201728, Note_on_c, 13, 58, 73
26, 201770, Note_on_c, 13, 58, 0
26, 201792, Note_on_c, 13, 58, 77
26, 201834, Note_on_c, 13, 58, 0
26, 201856, Note_on_c, 13, 58, 80
26, 201898, Note_on_c, 13, 58, 0
26, 201920, Note_on_c, 13, 58, 76
26, 201962, Note_on_c, 13, 58, 0
26, 202112, Note_on_c, 13, 61, 74
26, 202154, Note_on_c, 13, 61, 0
26, 202176, Note_on_c, 13, 61, 70
26, 202218, Note_on_c, 13, 61, 0
26, 202240, Note_on_c, 13, 61, 76
26, 202282, Note_on_c, 13, 61, 0
26, 202304, Note_on_c, 13, 63, 70
26, 202346, Note_on_c, 13, 63, 0
26, 202496, Note_on_c, 13, 61, 73
26, 202538, Note_on_c, 13, 61, 0
26, 202560, Note_on_c, 13, 61, 71
26, 202602, Note_on_c, 13, 61, 0
26, 202624, Note_on_c, 13, 61, 73
26, 202666, Note_on_c, 13, 61, 0
26, 202688, Note_on_c, 13, 63, 77
26, 202730, Note_on_c, 13, 63, 0
26, 202880, Note_on_c, 13, 61, 80
26, 202922, Note_on_c, 13, 61, 0
26, 202944, Note_on_c, 13, 61, 78
26, 202986, Note_on_c, 13, 61, 0
26, 203008, Note_on_c, 13, 61, 70
26, 203050, Note_on_c, 13, 61, 0
26, 203072, Note_on_c, 13, 63, 72
26, 203114, Note_on_c, 13, 63, 0
26, 203264, Note_on_c, 13, 65, 72
26, 203306, Note_on_c, 13, 65, 0
26, 203328, Note_on_c, 13, 65, 73
26, 203370, Note_on_c, 13, 65, 0
26, 203392, Note_on_c, 13, 65, 75
26, 203434, Note_on_c, 13, 65, 0
26, 203456, Note_on_c, 13, 65, 72
26, 203498, Note_on_c, 13, 65, 0
26, 203648, Note_on_c, 13, 61, 73
26, 203690, Note_on_c, 13, 61, 0
26, 203712, Note_on_c, 13, 61, 67
26, 203754, Note_on_c, 13, 61, 0
26, 203776, Note_on_c, 13, 61, 67
26, 203818, Note_on_c, 13, 61, 0
26, 203840, Note_on_c, 13, 63, 63
26, 203882, Note_on_c, 13, 63, 0
26, 204032, Note_on_c, 13, 61, 57
26, 204074, Note_on_c, 13, 61, 0
26, 204096, Note_on_c, 13, 61, 48
26, 204138, Note_on_c, 13, 61, 0
26, 204160, Note_on_c, 13, 61, 44
26, 204202, Note_on_c, 13, 61, 0
26, 204224, Note_on_c, 13, 63, 42
26, 204266, Note_on_c, 13, 63, 0
26, 204416, Note_on_c, 13, 63, 75
26, 204458, Note_on_c, 13, 63, 0
26, 204480, Note_on_c, 13, 63, 80
26, 204522, Note_on_c, 13, 63, 0
26, 204544, Note_on_c, 13, 63, 80
26, 204586, Note_on_c, 13, 63, 0
26, 204608, Note_on_c, 13, 65, 75
26, 204650, Note_on_c, 13, 65, 0
26, 204800, Note_on_c, 13, 63, 77
26, 204842, Note_on_c, 13, 63, 0
26, 204864, Note_on_c, 13, 63, 79
26, 204906, Note_on_c, 13, 63, 0
26, 204928, Note_on_c, 13, 63, 75
26, 204970, Note_on_c, 13, 63, 0
26, 204992, Note_on_c, 13, 65, 74
26, 205034, Note_on_c, 13, 65, 0
26, 205184, Note_on_c, 13, 58, 71
26, 205226, Note_on_c, 13, 58, 0
26, 205248, Note_on_c, 13, 58, 73
26, 205290, Note_on_c, 13, 58, 0
26, 205312, Note_on_c, 13, 58, 70
26, 205354, Note_on_c, 13, 58, 0
26, 205376, Note_on_c, 13, 58, 77
26, 205418, Note_on_c, 13, 58, 0
26, 205568, Note_on_c, 13, 58, 73
26, 205610, Note_on_c, 13, 58, 0
26, 205632, Note_on_c, 13, 58, 79
26, 205674, Note_on_c, 13, 58, 0
26, 205696, Note_on_c, 13, 58, 73
26, 205738, Note_on_c, 13, 58, 0
26, 205760, Note_on_c, 13, 61, 75
26, 205802, Note_on_c, 13, 61, 0
26, 205952, Note_on_c, 13, 58, 76
26, 205994, Note_on_c, 13, 58, 0
26, 206016, Note_on_c, 13, 58, 72
26, 206058, Note_on_c, 13, 58, 0
26, 206080, Note_on_c, 13, 58, 79
26, 206122, Note_on_c, 13, 58, 0
26, 206144, Note_on_c, 13, 58, 73
26, 206186, Note_on_c, 13, 58, 0
26, 206336, Note_on_c, 13, 58, 72
26, 206378, Note_on_c, 13, 58, 0
26, 206400, Note_on_c, 13, 58, 70
26, 206442, Note_on_c, 13, 58, 0
26, 206464, Note_on_c, 13, 58, 79
26, 206506, Note_on_c, 13, 58, 0
26, 206528, Note_on_c, 13, 58, 71
26, 206570, Note_on_c, 13, 58, 0
26, 206720, Note_on_c, 13, 58, 76
26, 206762, Note_on_c, 13, 58, 0
26, 206784, Note_on_c, 13, 58, 74
26, 206826, Note_on_c, 13, 58, 0
26, 206848, Note_on_c, 13, 58, 73
26, 206890, Note_on_c, 13, 58, 0
26, 206912, Note_on_c, 13, 58, 74
26, 206954, Note_on_c, 13, 58, 0
26, 207104, Note_on_c, 13, 58, 77
26, 207146, Note_on_c, 13, 58, 0
26, 207168, Note_on_c, 13, 58, 74
26, 207210, Note_on_c, 13, 58, 0
26, 207232, Note_on_c, 13, 58, 74
26, 207274, Note_on_c, 13, 58, 0
26, 207296, Note_on_c, 13, 58, 78
26, 207338, Note_on_c, 13, 58, 0
26, 207488, Note_on_c, 13, 58, 82
26, 207530, Note_on_c, 13, 58, 0
26, 207552, Note_on_c, 13, 58, 83
26, 207594, Note_on_c, 13, 58, 0
26, 207616, Note_on_c, 13, 58, 79
26, 207658, Note_on_c, 13, 58, 0
26, 207680, Note_on_c, 13, 58, 86
26, 207722, Note_on_c, 13, 58, 0
26, 207872, Note_on_c, 13, 58, 98
26, 207914, Note_on_c, 13, 58, 0
26, 207936, Note_on_c, 13, 58, 94
26, 207978, Note_on_c, 13, 58, 0
26, 208000, Note_on_c, 13, 58, 100
26, 208042, Note_on_c, 13, 58, 0
26, 208064, Note_on_c, 13, 58, 103
26, 208106, Note_on_c, 13, 58, 0
26, 208106, End_track
27, 0, Start_track
27, 0, Title_t, "Violoncelli I"
27, 0, MIDI_port, 0
27, 2784, Control_c, 14, 11, 64
27, 2784, Note_on_c, 14, 42, 55
27, 2787, Control_c, 14, 11, 65
27, 2790, Control_c, 14, 11, 66
27, 2793, Control_c, 14, 11, 67
27, 2796, Control_c, 14, 11, 68
27, 2799, Control_c, 14, 11, 69
27, 2802, Control_c, 14, 11, 70
27, 2805, Control_c, 14, 11, 71
27, 2808, Control_c, 14, 11, 72
27, 2811, Control_c, 14, 11, 73
27, 2814, Control_c, 14, 11, 74
27, 2817, Control_c, 14, 11, 75
27, 2820, Control_c, 14, 11, 76
27, 2823, Control_c, 14, 11, 77
27, 2826, Control_c, 14, 11, 78
27, 2829, Control_c, 14, 11, 79
27, 2832, Control_c, 14, 11, 80
27, 2835, Control_c, 14, 11, 81
27, 2838, Control_c, 14, 11, 82
27, 2841, Control_c, 14, 11, 83
27, 2844, Control_c, 14, 11, 84
27, 2848, Control_c, 14, 11, 85
27, 2851, Control_c, 14, 11, 86
27, 2854, Control_c, 14, 11, 87
27, 2857, Control_c, 14, 11, 88
27, 2860, Control_c, 14, 11, 89
27, 2863, Control_c, 14, 11, 90
27, 2866, Control_c, 14, 11, 91
27, 2869, Control_c, 14, 11, 92
27, 2872, Control_c, 14, 11, 93
27, 2875, Control_c, 14, 11, 94
27, 2878, Control_c, 14, 11, 95
27, 2880, Note_on_c, 14, 42, 0
27, 2880, Note_on_c, 14, 43, 59
27, 2881, Control_c, 14, 11, 96
27, 2884, Control_c, 14, 11, 97
27, 2887, Control_c, 14, 11, 98
27, 2890, Control_c, 14, 11, 99
27, 2893, Control_c, 14, 11, 100
27, 2896, Control_c, 14, 11, 101
27, 2899, Control_c, 14, 11, 102
27, 2902, Control_c, 14, 11, 103
27, 2905, Control_c, 14, 11, 104
27, 2908, Control_c, 14, 11, 105
27, 2912, Control_c, 14, 11, 106
27, 2915, Control_c, 14, 11, 107
27, 2918, Control_c, 14, 11, 108
27, 2921, Control_c, 14, 11, 109
27, 2924, Control_c, 14, 11, 110
27, 2927, Control_c, 14, 11, 111
27, 2930, Control_c, 14, 11, 112
27, 2933, Control_c, 14, 11, 113
27, 2936, Control_c, 14, 11, 114
27, 2939, Control_c, 14, 11, 115
27, 2942, Control_c, 14, 11, 116
27, 2944, Note_on_c, 14, 43, 0
27, 2944, Note_on_c, 14, 44, 65
27, 2945, Control_c, 14, 11, 117
27, 2948, Control_c, 14, 11, 118
27, 2951, Control_c, 14, 11, 119
27, 2954, Control_c, 14, 11, 120
27, 2957, Control_c, 14, 11, 121
27, 2960, Control_c, 14, 11, 122
27, 2963, Control_c, 14, 11, 123
27, 2966, Control_c, 14, 11, 124
27, 2969, Control_c, 14, 11, 125
27, 2972, Control_c, 14, 11, 126
27, 2976, Control_c, 14, 11, 127
27, 2979, Control_c, 14, 11, 126
27, 2982, Control_c, 14, 11, 125
27, 2985, Control_c, 14, 11, 124
27, 2988, Control_c, 14, 11, 123
27, 2991, Control_c, 14, 11, 122
27, 2994, Control_c, 14, 11, 121
27, 2997, Control_c, 14, 11, 120
27, 3000, Control_c, 14, 11, 119
27, 3003, Control_c, 14, 11, 118
27, 3006, Control_c, 14, 11, 117
27, 3008, Note_on_c, 14, 44, 0
27, 3008, Note_on_c, 14, 45, 63
27, 3009, Control_c, 14, 11, 116
27, 3012, Control_c, 14, 11, 115
27, 3015, Control_c, 14, 11, 114
27, 3018, Control_c, 14, 11, 113
27, 3021, Control_c, 14, 11, 112
27, 3024, Control_c, 14, 11, 111
27, 3027, Control_c, 14, 11, 110
27, 3030, Control_c, 14, 11, 109
27, 3033, Control_c, 14, 11, 108
27, 3036, Control_c, 14, 11, 107
27, 3040, Control_c, 14, 11, 106
27, 3043, Control_c, 14, 11, 105
27, 3046, Control_c, 14, 11, 104
27, 3049, Control_c, 14, 11, 103
27, 3052, Control_c, 14, 11, 102
27, 3055, Control_c, 14, 11, 101
27, 3058, Control_c, 14, 11, 100
27, 3061, Control_c, 14, 11, 99
27, 3064, Control_c, 14, 11, 98
27, 3067, Control_c, 14, 11, 97
27, 3070, Control_c, 14, 11, 96
27, 3072, Note_on_c, 14, 45, 0
27, 3072, Note_on_c, 14, 51, 65
27, 3073, Control_c, 14, 11, 95
27, 3076, Control_c, 14, 11, 94
27, 3079, Control_c, 14, 11, 93
27, 3082, Control_c, 14, 11, 92
27, 3085, Control_c, 14, 11, 91
27, 3088, Control_c, 14, 11, 90
27, 3091, Control_c, 14, 11, 89
27, 3094, Control_c, 14, 11, 88
27, 3097, Control_c, 14, 11, 87
27, 3100, Control_c, 14, 11, 86
27, 3104, Control_c, 14, 11, 85
27, 3107, Control_c, 14, 11, 84
27, 3110, Control_c, 14, 11, 83
27, 3113, Control_c, 14, 11, 82
27, 3116, Control_c, 14, 11, 81
27, 3119, Control_c, 14, 11, 80
27, 3122, Control_c, 14, 11, 79
27, 3125, Control_c, 14, 11, 78
27, 3128, Control_c, 14, 11, 77
27, 3131, Control_c, 14, 11, 76
27, 3134, Control_c, 14, 11, 75
27, 3137, Control_c, 14, 11, 74
27, 3140, Control_c, 14, 11, 73
27, 3143, Control_c, 14, 11, 72
27, 3146, Control_c, 14, 11, 71
27, 3149, Control_c, 14, 11, 70
27, 3152, Control_c, 14, 11, 69
27, 3155, Control_c, 14, 11, 68
27, 3158, Control_c, 14, 11, 67
27, 3161, Control_c, 14, 11, 66
27, 3164, Control_c, 14, 11, 65
27, 3168, Note_on_c, 14, 51, 0
27, 3168, Control_c, 14, 11, 64
27, 3168, Note_on_c, 14, 45, 62
27, 3200, Note_on_c, 14, 45, 0
27, 4320, Control_c, 14, 11, 64
27, 4320, Note_on_c, 14, 42, 58
27, 4323, Control_c, 14, 11, 65
27, 4326, Control_c, 14, 11, 66
27, 4329, Control_c, 14, 11, 67
27, 4332, Control_c, 14, 11, 68
27, 4335, Control_c, 14, 11, 69
27, 4338, Control_c, 14, 11, 70
27, 4341, Control_c, 14, 11, 71
27, 4344, Control_c, 14, 11, 72
27, 4347, Control_c, 14, 11, 73
27, 4350, Control_c, 14, 11, 74
27, 4353, Control_c, 14, 11, 75
27, 4356, Control_c, 14, 11, 76
27, 4359, Control_c, 14, 11, 77
27, 4362, Control_c, 14, 11, 78
27, 4365, Control_c, 14, 11, 79
27, 4368, Control_c, 14, 11, 80
27, 4371, Control_c, 14, 11, 81
27, 4374, Control_c, 14, 11, 82
27, 4377, Control_c, 14, 11, 83
27, 4380, Control_c, 14, 11, 84
27, 4384, Control_c, 14, 11, 85
27, 4387, Control_c, 14, 11, 86
27, 4390, Control_c, 14, 11, 87
27, 4393, Control_c, 14, 11, 88
27, 4396, Control_c, 14, 11, 89
27, 4399, Control_c, 14, 11, 90
27, 4402, Control_c, 14, 11, 91
27, 4405, Control_c, 14, 11, 92
27, 4408, Control_c, 14, 11, 93
27, 4411, Control_c, 14, 11, 94
27, 4414, Control_c, 14, 11, 95
27, 4416, Note_on_c, 14, 42, 0
27, 4416, Note_on_c, 14, 43, 60
27, 4417, Control_c, 14, 11, 96
27, 4420, Control_c, 14, 11, 97
27, 4423, Control_c, 14, 11, 98
27, 4426, Control_c, 14, 11, 99
27, 4429, Control_c, 14, 11, 100
27, 4432, Control_c, 14, 11, 101
27, 4435, Control_c, 14, 11, 102
27, 4438, Control_c, 14, 11, 103
27, 4441, Control_c, 14, 11, 104
27, 4444, Control_c, 14, 11, 105
27, 4448, Control_c, 14, 11, 106
27, 4451, Control_c, 14, 11, 107
27, 4454, Control_c, 14, 11, 108
27, 4457, Control_c, 14, 11, 109
27, 4460, Control_c, 14, 11, 110
27, 4463, Control_c, 14, 11, 111
27, 4466, Control_c, 14, 11, 112
27, 4469, Control_c, 14, 11, 113
27, 4472, Control_c, 14, 11, 114
27, 4475, Control_c, 14, 11, 115
27, 4478, Control_c, 14, 11, 116
27, 4480, Note_on_c, 14, 43, 0
27, 4480, Note_on_c, 14, 44, 55
27, 4481, Control_c, 14, 11, 117
27, 4484, Control_c, 14, 11, 118
27, 4487, Control_c, 14, 11, 119
27, 4490, Control_c, 14, 11, 120
27, 4493, Control_c, 14, 11, 121
27, 4496, Control_c, 14, 11, 122
27, 4499, Control_c, 14, 11, 123
27, 4502, Control_c, 14, 11, 124
27, 4505, Control_c, 14, 11, 125
27, 4508, Control_c, 14, 11, 126
27, 4512, Control_c, 14, 11, 127
27, 4515, Control_c, 14, 11, 126
27, 4518, Control_c, 14, 11, 125
27, 4521, Control_c, 14, 11, 124
27, 4524, Control_c, 14, 11, 123
27, 4527, Control_c, 14, 11, 122
27, 4530, Control_c, 14, 11, 121
27, 4533, Control_c, 14, 11, 120
27, 4536, Control_c, 14, 11, 119
27, 4539, Control_c, 14, 11, 118
27, 4542, Control_c, 14, 11, 117
27, 4544, Note_on_c, 14, 44, 0
27, 4544, Note_on_c, 14, 45, 59
27, 4545, Control_c, 14, 11, 116
27, 4548, Control_c, 14, 11, 115
27, 4551, Control_c, 14, 11, 114
27, 4554, Control_c, 14, 11, 113
27, 4557, Control_c, 14, 11, 112
27, 4560, Control_c, 14, 11, 111
27, 4563, Control_c, 14, 11, 110
27, 4566, Control_c, 14, 11, 109
27, 4569, Control_c, 14, 11, 108
27, 4572, Control_c, 14, 11, 107
27, 4576, Control_c, 14, 11, 106
27, 4579, Control_c, 14, 11, 105
27, 4582, Control_c, 14, 11, 104
27, 4585, Control_c, 14, 11, 103
27, 4588, Control_c, 14, 11, 102
27, 4591, Control_c, 14, 11, 101
27, 4594, Control_c, 14, 11, 100
27, 4597, Control_c, 14, 11, 99
27, 4600, Control_c, 14, 11, 98
27, 4603, Control_c, 14, 11, 97
27, 4606, Control_c, 14, 11, 96
27, 4608, Note_on_c, 14, 45, 0
27, 4608, Note_on_c, 14, 51, 56
27, 4609, Control_c, 14, 11, 95
27, 4612, Control_c, 14, 11, 94
27, 4615, Control_c, 14, 11, 93
27, 4618, Control_c, 14, 11, 92
27, 4621, Control_c, 14, 11, 91
27, 4624, Control_c, 14, 11, 90
27, 4627, Control_c, 14, 11, 89
27, 4630, Control_c, 14, 11, 88
27, 4633, Control_c, 14, 11, 87
27, 4636, Control_c, 14, 11, 86
27, 4640, Control_c, 14, 11, 85
27, 4643, Control_c, 14, 11, 84
27, 4646, Control_c, 14, 11, 83
27, 4649, Control_c, 14, 11, 82
27, 4652, Control_c, 14, 11, 81
27, 4655, Control_c, 14, 11, 80
27, 4658, Control_c, 14, 11, 79
27, 4661, Control_c, 14, 11, 78
27, 4664, Control_c, 14, 11, 77
27, 4667, Control_c, 14, 11, 76
27, 4670, Control_c, 14, 11, 75
27, 4673, Control_c, 14, 11, 74
27, 4676, Control_c, 14, 11, 73
27, 4679, Control_c, 14, 11, 72
27, 4682, Control_c, 14, 11, 71
27, 4685, Control_c, 14, 11, 70
27, 4688, Control_c, 14, 11, 69
27, 4691, Control_c, 14, 11, 68
27, 4694, Control_c, 14, 11, 67
27, 4697, Control_c, 14, 11, 66
27, 4700, Control_c, 14, 11, 65
27, 4704, Note_on_c, 14, 51, 0
27, 4704, Control_c, 14, 11, 64
27, 4704, Note_on_c, 14, 45, 65
27, 4736, Note_on_c, 14, 45, 0
27, 5376, Control_c, 14, 11, 127
27, 5856, Note_on_c, 14, 42, 32
27, 5950, Note_on_c, 14, 42, 0
27, 5952, Note_on_c, 14, 43, 28
27, 6014, Note_on_c, 14, 43, 0
27, 6016, Note_on_c, 14, 44, 25
27, 6078, Note_on_c, 14, 44, 0
27, 6080, Note_on_c, 14, 45, 27
27, 6142, Note_on_c, 14, 45, 0
27, 6144, Note_on_c, 14, 51, 26
27, 6238, Note_on_c, 14, 51, 0
27, 6240, Note_on_c, 14, 42, 29
27, 6272, Note_on_c, 14, 42, 0
27, 6336, Note_on_c, 14, 43, 35
27, 6398, Note_on_c, 14, 43, 0
27, 6400, Note_on_c, 14, 44, 36
27, 6462, Note_on_c, 14, 44, 0
27, 6464, Note_on_c, 14, 45, 37
27, 6526, Note_on_c, 14, 45, 0
27, 6528, Note_on_c, 14, 51, 42
27, 6622, Note_on_c, 14, 51, 0
27, 6624, Note_on_c, 14, 42, 47
27, 6656, Note_on_c, 14, 42, 0
27, 6720, Note_on_c, 14, 43, 44
27, 6782, Note_on_c, 14, 43, 0
27, 6784, Note_on_c, 14, 44, 46
27, 6846, Note_on_c, 14, 44, 0
27, 6848, Note_on_c, 14, 45, 49
27, 6910, Note_on_c, 14, 45, 0
27, 6912, Note_on_c, 14, 51, 48
27, 7006, Note_on_c, 14, 51, 0
27, 7008, Note_on_c, 14, 42, 58
27, 7040, Note_on_c, 14, 42, 0
27, 7104, Note_on_c, 14, 43, 62
27, 7166, Note_on_c, 14, 43, 0
27, 7168, Note_on_c, 14, 44, 65
27, 7230, Note_on_c, 14, 44, 0
27, 7232, Note_on_c, 14, 45, 59
27, 7294, Note_on_c, 14, 45, 0
27, 7296, Note_on_c, 14, 51, 67
27, 7390, Note_on_c, 14, 51, 0
27, 7392, Note_on_c, 14, 42, 65
27, 7424, Note_on_c, 14, 42, 0
27, 7488, Note_on_c, 14, 43, 72
27, 7550, Note_on_c, 14, 43, 0
27, 7552, Note_on_c, 14, 44, 74
27, 7614, Note_on_c, 14, 44, 0
27, 7616, Note_on_c, 14, 45, 73
27, 7678, Note_on_c, 14, 45, 0
27, 12000, Control_c, 14, 11, 64
27, 12000, Note_on_c, 14, 42, 64
27, 12003, Control_c, 14, 11, 65
27, 12006, Control_c, 14, 11, 66
27, 12009, Control_c, 14, 11, 67
27, 12012, Control_c, 14, 11, 68
27, 12015, Control_c, 14, 11, 69
27, 12018, Control_c, 14, 11, 70
27, 12021, Control_c, 14, 11, 71
27, 12024, Control_c, 14, 11, 72
27, 12027, Control_c, 14, 11, 73
27, 12030, Control_c, 14, 11, 74
27, 12033, Control_c, 14, 11, 75
27, 12036, Control_c, 14, 11, 76
27, 12039, Control_c, 14, 11, 77
27, 12042, Control_c, 14, 11, 78
27, 12045, Control_c, 14, 11, 79
27, 12048, Control_c, 14, 11, 80
27, 12051, Control_c, 14, 11, 81
27, 12054, Control_c, 14, 11, 82
27, 12057, Control_c, 14, 11, 83
27, 12060, Control_c, 14, 11, 84
27, 12064, Control_c, 14, 11, 85
27, 12067, Control_c, 14, 11, 86
27, 12070, Control_c, 14, 11, 87
27, 12073, Control_c, 14, 11, 88
27, 12076, Control_c, 14, 11, 89
27, 12079, Control_c, 14, 11, 90
27, 12082, Control_c, 14, 11, 91
27, 12085, Control_c, 14, 11, 92
27, 12088, Control_c, 14, 11, 93
27, 12091, Control_c, 14, 11, 94
27, 12094, Control_c, 14, 11, 95
27, 12096, Note_on_c, 14, 42, 0
27, 12096, Note_on_c, 14, 43, 65
27, 12097, Control_c, 14, 11, 96
27, 12100, Control_c, 14, 11, 97
27, 12103, Control_c, 14, 11, 98
27, 12106, Control_c, 14, 11, 99
27, 12109, Control_c, 14, 11, 100
27, 12112, Control_c, 14, 11, 101
27, 12115, Control_c, 14, 11, 102
27, 12118, Control_c, 14, 11, 103
27, 12121, Control_c, 14, 11, 104
27, 12124, Control_c, 14, 11, 105
27, 12128, Control_c, 14, 11, 106
27, 12131, Control_c, 14, 11, 107
27, 12134, Control_c, 14, 11, 108
27, 12137, Control_c, 14, 11, 109
27, 12140, Control_c, 14, 11, 110
27, 12143, Control_c, 14, 11, 111
27, 12146, Control_c, 14, 11, 112
27, 12149, Control_c, 14, 11, 113
27, 12152, Control_c, 14, 11, 114
27, 12155, Control_c, 14, 11, 115
27, 12158, Control_c, 14, 11, 116
27, 12160, Note_on_c, 14, 43, 0
27, 12160, Note_on_c, 14, 44, 64
27, 12161, Control_c, 14, 11, 117
27, 12164, Control_c, 14, 11, 118
27, 12167, Control_c, 14, 11, 119
27, 12170, Control_c, 14, 11, 120
27, 12173, Control_c, 14, 11, 121
27, 12176, Control_c, 14, 11, 122
27, 12179, Control_c, 14, 11, 123
27, 12182, Control_c, 14, 11, 124
27, 12185, Control_c, 14, 11, 125
27, 12188, Control_c, 14, 11, 126
27, 12192, Control_c, 14, 11, 127
27, 12195, Control_c, 14, 11, 126
27, 12198, Control_c, 14, 11, 125
27, 12201, Control_c, 14, 11, 124
27, 12204, Control_c, 14, 11, 123
27, 12207, Control_c, 14, 11, 122
27, 12210, Control_c, 14, 11, 121
27, 12213, Control_c, 14, 11, 120
27, 12216, Control_c, 14, 11, 119
27, 12219, Control_c, 14, 11, 118
27, 12222, Control_c, 14, 11, 117
27, 12224, Note_on_c, 14, 44, 0
27, 12224, Note_on_c, 14, 45, 61
27, 12225, Control_c, 14, 11, 116
27, 12228, Control_c, 14, 11, 115
27, 12231, Control_c, 14, 11, 114
27, 12234, Control_c, 14, 11, 113
27, 12237, Control_c, 14, 11, 112
27, 12240, Control_c, 14, 11, 111
27, 12243, Control_c, 14, 11, 110
27, 12246, Control_c, 14, 11, 109
27, 12249, Control_c, 14, 11, 108
27, 12252, Control_c, 14, 11, 107
27, 12256, Control_c, 14, 11, 106
27, 12259, Control_c, 14, 11, 105
27, 12262, Control_c, 14, 11, 104
27, 12265, Control_c, 14, 11, 103
27, 12268, Control_c, 14, 11, 102
27, 12271, Control_c, 14, 11, 101
27, 12274, Control_c, 14, 11, 100
27, 12277, Control_c, 14, 11, 99
27, 12280, Control_c, 14, 11, 98
27, 12283, Control_c, 14, 11, 97
27, 12286, Control_c, 14, 11, 96
27, 12288, Note_on_c, 14, 45, 0
27, 12288, Note_on_c, 14, 51, 62
27, 12289, Control_c, 14, 11, 95
27, 12292, Control_c, 14, 11, 94
27, 12295, Control_c, 14, 11, 93
27, 12298, Control_c, 14, 11, 92
27, 12301, Control_c, 14, 11, 91
27, 12304, Control_c, 14, 11, 90
27, 12307, Control_c, 14, 11, 89
27, 12310, Control_c, 14, 11, 88
27, 12313, Control_c, 14, 11, 87
27, 12316, Control_c, 14, 11, 86
27, 12320, Control_c, 14, 11, 85
27, 12323, Control_c, 14, 11, 84
27, 12326, Control_c, 14, 11, 83
27, 12329, Control_c, 14, 11, 82
27, 12332, Control_c, 14, 11, 81
27, 12335, Control_c, 14, 11, 80
27, 12338, Control_c, 14, 11, 79
27, 12341, Control_c, 14, 11, 78
27, 12344, Control_c, 14, 11, 77
27, 12347, Control_c, 14, 11, 76
27, 12350, Control_c, 14, 11, 75
27, 12353, Control_c, 14, 11, 74
27, 12356, Control_c, 14, 11, 73
27, 12359, Control_c, 14, 11, 72
27, 12362, Control_c, 14, 11, 71
27, 12365, Control_c, 14, 11, 70
27, 12368, Control_c, 14, 11, 69
27, 12371, Control_c, 14, 11, 68
27, 12374, Control_c, 14, 11, 67
27, 12377, Control_c, 14, 11, 66
27, 12380, Control_c, 14, 11, 65
27, 12384, Note_on_c, 14, 51, 0
27, 12384, Control_c, 14, 11, 64
27, 12384, Note_on_c, 14, 45, 65
27, 12416, Note_on_c, 14, 45, 0
27, 13536, Control_c, 14, 11, 64
27, 13536, Note_on_c, 14, 42, 64
27, 13539, Control_c, 14, 11, 65
27, 13542, Control_c, 14, 11, 66
27, 13545, Control_c, 14, 11, 67
27, 13548, Control_c, 14, 11, 68
27, 13551, Control_c, 14, 11, 69
27, 13554, Control_c, 14, 11, 70
27, 13557, Control_c, 14, 11, 71
27, 13560, Control_c, 14, 11, 72
27, 13563, Control_c, 14, 11, 73
27, 13566, Control_c, 14, 11, 74
27, 13569, Control_c, 14, 11, 75
27, 13572, Control_c, 14, 11, 76
27, 13575, Control_c, 14, 11, 77
27, 13578, Control_c, 14, 11, 78
27, 13581, Control_c, 14, 11, 79
27, 13584, Control_c, 14, 11, 80
27, 13587, Control_c, 14, 11, 81
27, 13590, Control_c, 14, 11, 82
27, 13593, Control_c, 14, 11, 83
27, 13596, Control_c, 14, 11, 84
27, 13600, Control_c, 14, 11, 85
27, 13603, Control_c, 14, 11, 86
27, 13606, Control_c, 14, 11, 87
27, 13609, Control_c, 14, 11, 88
27, 13612, Control_c, 14, 11, 89
27, 13615, Control_c, 14, 11, 90
27, 13618, Control_c, 14, 11, 91
27, 13621, Control_c, 14, 11, 92
27, 13624, Control_c, 14, 11, 93
27, 13627, Control_c, 14, 11, 94
27, 13630, Control_c, 14, 11, 95
27, 13632, Note_on_c, 14, 42, 0
27, 13632, Note_on_c, 14, 43, 59
27, 13633, Control_c, 14, 11, 96
27, 13636, Control_c, 14, 11, 97
27, 13639, Control_c, 14, 11, 98
27, 13642, Control_c, 14, 11, 99
27, 13645, Control_c, 14, 11, 100
27, 13648, Control_c, 14, 11, 101
27, 13651, Control_c, 14, 11, 102
27, 13654, Control_c, 14, 11, 103
27, 13657, Control_c, 14, 11, 104
27, 13660, Control_c, 14, 11, 105
27, 13664, Control_c, 14, 11, 106
27, 13667, Control_c, 14, 11, 107
27, 13670, Control_c, 14, 11, 108
27, 13673, Control_c, 14, 11, 109
27, 13676, Control_c, 14, 11, 110
27, 13679, Control_c, 14, 11, 111
27, 13682, Control_c, 14, 11, 112
27, 13685, Control_c, 14, 11, 113
27, 13688, Control_c, 14, 11, 114
27, 13691, Control_c, 14, 11, 115
27, 13694, Control_c, 14, 11, 116
27, 13696, Note_on_c, 14, 43, 0
27, 13696, Note_on_c, 14, 44, 64
27, 13697, Control_c, 14, 11, 117
27, 13700, Control_c, 14, 11, 118
27, 13703, Control_c, 14, 11, 119
27, 13706, Control_c, 14, 11, 120
27, 13709, Control_c, 14, 11, 121
27, 13712, Control_c, 14, 11, 122
27, 13715, Control_c, 14, 11, 123
27, 13718, Control_c, 14, 11, 124
27, 13721, Control_c, 14, 11, 125
27, 13724, Control_c, 14, 11, 126
27, 13728, Control_c, 14, 11, 127
27, 13731, Control_c, 14, 11, 126
27, 13734, Control_c, 14, 11, 125
27, 13737, Control_c, 14, 11, 124
27, 13740, Control_c, 14, 11, 123
27, 13743, Control_c, 14, 11, 122
27, 13746, Control_c, 14, 11, 121
27, 13749, Control_c, 14, 11, 120
27, 13752, Control_c, 14, 11, 119
27, 13755, Control_c, 14, 11, 118
27, 13758, Control_c, 14, 11, 117
27, 13760, Note_on_c, 14, 44, 0
27, 13760, Note_on_c, 14, 45, 57
27, 13761, Control_c, 14, 11, 116
27, 13764, Control_c, 14, 11, 115
27, 13767, Control_c, 14, 11, 114
27, 13770, Control_c, 14, 11, 113
27, 13773, Control_c, 14, 11, 112
27, 13776, Control_c, 14, 11, 111
27, 13779, Control_c, 14, 11, 110
27, 13782, Control_c, 14, 11, 109
27, 13785, Control_c, 14, 11, 108
27, 13788, Control_c, 14, 11, 107
27, 13792, Control_c, 14, 11, 106
27, 13795, Control_c, 14, 11, 105
27, 13798, Control_c, 14, 11, 104
27, 13801, Control_c, 14, 11, 103
27, 13804, Control_c, 14, 11, 102
27, 13807, Control_c, 14, 11, 101
27, 13810, Control_c, 14, 11, 100
27, 13813, Control_c, 14, 11, 99
27, 13816, Control_c, 14, 11, 98
27, 13819, Control_c, 14, 11, 97
27, 13822, Control_c, 14, 11, 96
27, 13824, Note_on_c, 14, 45, 0
27, 13824, Note_on_c, 14, 51, 60
27, 13825, Control_c, 14, 11, 95
27, 13828, Control_c, 14, 11, 94
27, 13831, Control_c, 14, 11, 93
27, 13834, Control_c, 14, 11, 92
27, 13837, Control_c, 14, 11, 91
27, 13840, Control_c, 14, 11, 90
27, 13843, Control_c, 14, 11, 89
27, 13846, Control_c, 14, 11, 88
27, 13849, Control_c, 14, 11, 87
27, 13852, Control_c, 14, 11, 86
27, 13856, Control_c, 14, 11, 85
27, 13859, Control_c, 14, 11, 84
27, 13862, Control_c, 14, 11, 83
27, 13865, Control_c, 14, 11, 82
27, 13868, Control_c, 14, 11, 81
27, 13871, Control_c, 14, 11, 80
27, 13874, Control_c, 14, 11, 79
27, 13877, Control_c, 14, 11, 78
27, 13880, Control_c, 14, 11, 77
27, 13883, Control_c, 14, 11, 76
27, 13886, Control_c, 14, 11, 75
27, 13889, Control_c, 14, 11, 74
27, 13892, Control_c, 14, 11, 73
27, 13895, Control_c, 14, 11, 72
27, 13898, Control_c, 14, 11, 71
27, 13901, Control_c, 14, 11, 70
27, 13904, Control_c, 14, 11, 69
27, 13907, Control_c, 14, 11, 68
27, 13910, Control_c, 14, 11, 67
27, 13913, Control_c, 14, 11, 66
27, 13916, Control_c, 14, 11, 65
27, 13920, Note_on_c, 14, 51, 0
27, 13920, Control_c, 14, 11, 64
27, 13920, Note_on_c, 14, 45, 64
27, 13952, Note_on_c, 14, 45, 0
27, 14208, Control_c, 14, 11, 127
27, 14592, Program_c, 14, 45
27, 14592, Note_on_c, 14, 48, 90
27, 14686, Note_on_c, 14, 48, 0
27, 16512, Note_on_c, 14, 48, 88
27, 16606, Note_on_c, 14, 48, 0
27, 17664, Program_c, 14, 48
27, 17856, Note_on_c, 14, 48, 34
27, 17856, Note_on_c, 14, 50, 32
27, 17898, Note_on_c, 14, 48, 0
27, 17898, Note_on_c, 14, 50, 0
27, 17920, Note_on_c, 14, 48, 26
27, 17920, Note_on_c, 14, 50, 27
27, 17962, Note_on_c, 14, 48, 0
27, 17962, Note_on_c, 14, 50, 0
27, 17984, Note_on_c, 14, 48, 29
27, 17984, Note_on_c, 14, 50, 35
27, 18026, Note_on_c, 14, 48, 0
27, 18026, Note_on_c, 14, 50, 0
27, 18048, Note_on_c, 14, 48, 39
27, 18048, Note_on_c, 14, 50, 35
27, 18090, Note_on_c, 14, 48, 0
27, 18090, Note_on_c, 14, 50, 0
27, 18112, Note_on_c, 14, 48, 37
27, 18112, Note_on_c, 14, 50, 41
27, 18154, Note_on_c, 14, 48, 0
27, 18154, Note_on_c, 14, 50, 0
27, 18176, Note_on_c, 14, 48, 50
27, 18176, Note_on_c, 14, 50, 46
27, 18218, Note_on_c, 14, 48, 0
27, 18218, Note_on_c, 14, 50, 0
27, 18240, Note_on_c, 14, 47, 47
27, 18240, Note_on_c, 14, 51, 49
27, 18282, Note_on_c, 14, 47, 0
27, 18282, Note_on_c, 14, 51, 0
27, 18304, Note_on_c, 14, 47, 54
27, 18304, Note_on_c, 14, 51, 57
27, 18346, Note_on_c, 14, 47, 0
27, 18346, Note_on_c, 14, 51, 0
27, 18368, Note_on_c, 14, 47, 56
27, 18368, Note_on_c, 14, 51, 62
27, 18410, Note_on_c, 14, 47, 0
27, 18410, Note_on_c, 14, 51, 0
27, 18624, Note_on_c, 14, 54, 30
27, 18624, Note_on_c, 14, 56, 30
27, 18666, Note_on_c, 14, 54, 0
27, 18666, Note_on_c, 14, 56, 0
27, 18688, Note_on_c, 14, 54, 27
27, 18688, Note_on_c, 14, 56, 25
27, 18730, Note_on_c, 14, 54, 0
27, 18730, Note_on_c, 14, 56, 0
27, 18752, Note_on_c, 14, 54, 31
27, 18752, Note_on_c, 14, 56, 29
27, 18794, Note_on_c, 14, 54, 0
27, 18794, Note_on_c, 14, 56, 0
27, 18816, Note_on_c, 14, 54, 36
27, 18816, Note_on_c, 14, 56, 41
27, 18858, Note_on_c, 14, 54, 0
27, 18858, Note_on_c, 14, 56, 0
27, 18880, Note_on_c, 14, 54, 47
27, 18880, Note_on_c, 14, 56, 38
27, 18922, Note_on_c, 14, 54, 0
27, 18922, Note_on_c, 14, 56, 0
27, 18944, Note_on_c, 14, 54, 48
27, 18944, Note_on_c, 14, 56, 42
27, 18986, Note_on_c, 14, 54, 0
27, 18986, Note_on_c, 14, 56, 0
27, 19008, Note_on_c, 14, 53, 46
27, 19008, Note_on_c, 14, 57, 48
27, 19050, Note_on_c, 14, 53, 0
27, 19050, Note_on_c, 14, 57, 0
27, 19072, Note_on_c, 14, 53, 55
27, 19072, Note_on_c, 14, 57, 60
27, 19114, Note_on_c, 14, 53, 0
27, 19114, Note_on_c, 14, 57, 0
27, 19136, Note_on_c, 14, 53, 60
27, 19136, Note_on_c, 14, 57, 65
27, 19178, Note_on_c, 14, 53, 0
27, 19178, Note_on_c, 14, 57, 0
27, 19264, Note_on_c, 14, 48, 27
27, 19264, Note_on_c, 14, 50, 29
27, 19306, Note_on_c, 14, 48, 0
27, 19306, Note_on_c, 14, 50, 0
27, 19328, Note_on_c, 14, 48, 25
27, 19328, Note_on_c, 14, 50, 28
27, 19370, Note_on_c, 14, 48, 0
27, 19370, Note_on_c, 14, 50, 0
27, 19392, Note_on_c, 14, 47, 32
27, 19392, Note_on_c, 14, 51, 32
27, 19434, Note_on_c, 14, 47, 0
27, 19434, Note_on_c, 14, 51, 0
27, 19456, Note_on_c, 14, 47, 39
27, 19456, Note_on_c, 14, 51, 42
27, 19498, Note_on_c, 14, 47, 0
27, 19498, Note_on_c, 14, 51, 0
27, 19520, Note_on_c, 14, 47, 52
27, 19520, Note_on_c, 14, 51, 52
27, 19562, Note_on_c, 14, 47, 0
27, 19562, Note_on_c, 14, 51, 0
27, 19648, Note_on_c, 14, 54, 63
27, 19648, Note_on_c, 14, 56, 59
27, 19690, Note_on_c, 14, 54, 0
27, 19690, Note_on_c, 14, 56, 0
27, 19712, Note_on_c, 14, 54, 62
27, 19712, Note_on_c, 14, 56, 57
27, 19754, Note_on_c, 14, 54, 0
27, 19754, Note_on_c, 14, 56, 0
27, 19776, Note_on_c, 14, 54, 51
27, 19776, Note_on_c, 14, 56, 57
27, 19818, Note_on_c, 14, 54, 0
27, 19818, Note_on_c, 14, 56, 0
27, 19840, Note_on_c, 14, 54, 42
27, 19840, Note_on_c, 14, 56, 49
27, 19882, Note_on_c, 14, 54, 0
27, 19882, Note_on_c, 14, 56, 0
27, 19904, Note_on_c, 14, 53, 34
27, 19904, Note_on_c, 14, 57, 36
27, 19946, Note_on_c, 14, 53, 0
27, 19946, Note_on_c, 14, 57, 0
27, 19968, Program_c, 14, 44
27, 19968, Note_on_c, 14, 45, 26
27, 19968, Note_on_c, 14, 47, 34
27, 21456, Note_on_c, 14, 45, 0
27, 21456, Note_on_c, 14, 47, 0
27, 21504, Program_c, 14, 48
27, 21696, Note_on_c, 14, 48, 26
27, 21696, Note_on_c, 14, 50, 34
27, 21738, Note_on_c, 14, 48, 0
27, 21738, Note_on_c, 14, 50, 0
27, 21760, Note_on_c, 14, 48, 32
27, 21760, Note_on_c, 14, 50, 34
27, 21802, Note_on_c, 14, 48, 0
27, 21802, Note_on_c, 14, 50, 0
27, 21824, Note_on_c, 14, 48, 36
27, 21824, Note_on_c, 14, 50, 34
27, 21866, Note_on_c, 14, 48, 0
27, 21866, Note_on_c, 14, 50, 0
27, 21888, Note_on_c, 14, 48, 42
27, 21888, Note_on_c, 14, 50, 35
27, 21930, Note_on_c, 14, 48, 0
27, 21930, Note_on_c, 14, 50, 0
27, 21952, Note_on_c, 14, 48, 40
27, 21952, Note_on_c, 14, 50, 42
27, 21994, Note_on_c, 14, 48, 0
27, 21994, Note_on_c, 14, 50, 0
27, 22016, Note_on_c, 14, 48, 43
27, 22016, Note_on_c, 14, 50, 42
27, 22058, Note_on_c, 14, 48, 0
27, 22058, Note_on_c, 14, 50, 0
27, 22080, Note_on_c, 14, 47, 51
27, 22080, Note_on_c, 14, 51, 49
27, 22122, Note_on_c, 14, 47, 0
27, 22122, Note_on_c, 14, 51, 0
27, 22144, Note_on_c, 14, 47, 52
27, 22144, Note_on_c, 14, 51, 55
27, 22186, Note_on_c, 14, 47, 0
27, 22186, Note_on_c, 14, 51, 0
27, 22208, Note_on_c, 14, 47, 63
27, 22208, Note_on_c, 14, 51, 62
27, 22250, Note_on_c, 14, 47, 0
27, 22250, Note_on_c, 14, 51, 0
27, 22464, Note_on_c, 14, 54, 28
27, 22464, Note_on_c, 14, 56, 31
27, 22506, Note_on_c, 14, 54, 0
27, 22506, Note_on_c, 14, 56, 0
27, 22528, Note_on_c, 14, 54, 33
27, 22528, Note_on_c, 14, 56, 31
27, 22570, Note_on_c, 14, 54, 0
27, 22570, Note_on_c, 14, 56, 0
27, 22592, Note_on_c, 14, 54, 39
27, 22592, Note_on_c, 14, 56, 34
27, 22634, Note_on_c, 14, 54, 0
27, 22634, Note_on_c, 14, 56, 0
27, 22656, Note_on_c, 14, 54, 43
27, 22656, Note_on_c, 14, 56, 33
27, 22698, Note_on_c, 14, 54, 0
27, 22698, Note_on_c, 14, 56, 0
27, 22720, Note_on_c, 14, 54, 47
27, 22720, Note_on_c, 14, 56, 40
27, 22762, Note_on_c, 14, 54, 0
27, 22762, Note_on_c, 14, 56, 0
27, 22784, Note_on_c, 14, 54, 49
27, 22784, Note_on_c, 14, 56, 50
27, 22826, Note_on_c, 14, 54, 0
27, 22826, Note_on_c, 14, 56, 0
27, 22848, Note_on_c, 14, 53, 48
27, 22848, Note_on_c, 14, 57, 51
27, 22890, Note_on_c, 14, 53, 0
27, 22890, Note_on_c, 14, 57, 0
27, 22912, Note_on_c, 14, 53, 60
27, 22912, Note_on_c, 14, 57, 58
27, 22954, Note_on_c, 14, 53, 0
27, 22954, Note_on_c, 14, 57, 0
27, 22976, Note_on_c, 14, 53, 62
27, 22976, Note_on_c, 14, 57, 56
27, 23018, Note_on_c, 14, 53, 0
27, 23018, Note_on_c, 14, 57, 0
27, 23104, Note_on_c, 14, 48, 28
27, 23104, Note_on_c, 14, 50, 25
27, 23146, Note_on_c, 14, 48, 0
27, 23146, Note_on_c, 14, 50, 0
27, 23168, Note_on_c, 14, 48, 25
27, 23168, Note_on_c, 14, 50, 28
27, 23210, Note_on_c, 14, 48, 0
27, 23210, Note_on_c, 14, 50, 0
27, 23232, Note_on_c, 14, 47, 36
27, 23232, Note_on_c, 14, 51, 31
27, 23274, Note_on_c, 14, 47, 0
27, 23274, Note_on_c, 14, 51, 0
27, 23296, Note_on_c, 14, 47, 32
27, 23296, Note_on_c, 14, 51, 36
27, 23338, Note_on_c, 14, 47, 0
27, 23338, Note_on_c, 14, 51, 0
27, 23360, Note_on_c, 14, 47, 44
27, 23360, Note_on_c, 14, 51, 41
27, 23402, Note_on_c, 14, 47, 0
27, 23402, Note_on_c, 14, 51, 0
27, 23488, Note_on_c, 14, 54, 44
27, 23488, Note_on_c, 14, 56, 44
27, 23530, Note_on_c, 14, 54, 0
27, 23530, Note_on_c, 14, 56, 0
27, 23552, Note_on_c, 14, 54, 47
27, 23552, Note_on_c, 14, 56, 53
27, 23594, Note_on_c, 14, 54, 0
27, 23594, Note_on_c, 14, 56, 0
27, 23616, Note_on_c, 14, 54, 50
27, 23616, Note_on_c, 14, 56, 53
27, 23658, Note_on_c, 14, 54, 0
27, 23658, Note_on_c, 14, 56, 0
27, 23680, Note_on_c, 14, 54, 53
27, 23680, Note_on_c, 14, 56, 58
27, 23722, Note_on_c, 14, 54, 0
27, 23722, Note_on_c, 14, 56, 0
27, 23744, Note_on_c, 14, 53, 57
27, 23744, Note_on_c, 14, 57, 62
27, 23786, Note_on_c, 14, 53, 0
27, 23786, Note_on_c, 14, 57, 0
27, 23808, Program_c, 14, 45
27, 24000, Note_on_c, 14, 66, 87
27, 24160, Note_on_c, 14, 66, 0
27, 29952, Control_c, 14, 11, 127
27, 30144, Program_c, 14, 45
27, 30144, Note_on_c, 14, 54, 80
27, 30304, Note_on_c, 14, 54, 0
27, 30912, Note_on_c, 14, 54, 70
27, 31072, Note_on_c, 14, 54, 0
27, 31680, Note_on_c, 14, 54, 76
27, 31840, Note_on_c, 14, 54, 0
27, 32256, Program_c, 14, 44
27, 32256, Note_on_c, 14, 57, 71
27, 32592, Note_on_c, 14, 57, 0
27, 32640, Note_on_c, 14, 60, 77
27, 32976, Note_on_c, 14, 60, 0
27, 33024, Note_on_c, 14, 60, 71
27, 33360, Note_on_c, 14, 60, 0
27, 33408, Note_on_c, 14, 63, 76
27, 33744, Note_on_c, 14, 63, 0
27, 33792, Program_c, 14, 48
27, 33888, Note_on_c, 14, 44, 40
27, 33920, Note_on_c, 14, 44, 0
27, 33936, Note_on_c, 14, 44, 50
27, 33968, Note_on_c, 14, 44, 0
27, 33984, Note_on_c, 14, 45, 44
27, 34016, Note_on_c, 14, 45, 0
27, 34032, Note_on_c, 14, 45, 52
27, 34064, Note_on_c, 14, 45, 0
27, 34080, Note_on_c, 14, 47, 53
27, 34112, Note_on_c, 14, 47, 0
27, 34128, Note_on_c, 14, 47, 56
27, 34160, Note_on_c, 14, 47, 0
27, 34176, Note_on_c, 14, 48, 51
27, 34208, Note_on_c, 14, 48, 0
27, 34224, Note_on_c, 14, 48, 52
27, 34256, Note_on_c, 14, 48, 0
27, 34272, Note_on_c, 14, 50, 65
27, 34304, Note_on_c, 14, 50, 0
27, 34320, Note_on_c, 14, 50, 65
27, 34352, Note_on_c, 14, 50, 0
27, 34368, Note_on_c, 14, 54, 62
27, 34400, Note_on_c, 14, 54, 0
27, 34416, Note_on_c, 14, 54, 71
27, 34448, Note_on_c, 14, 54, 0
27, 34464, Note_on_c, 14, 56, 68
27, 34496, Note_on_c, 14, 56, 0
27, 34512, Note_on_c, 14, 56, 71
27, 34544, Note_on_c, 14, 56, 0
27, 34656, Note_on_c, 14, 44, 46
27, 34688, Note_on_c, 14, 44, 0
27, 34704, Note_on_c, 14, 44, 47
27, 34736, Note_on_c, 14, 44, 0
27, 34752, Note_on_c, 14, 45, 50
27, 34784, Note_on_c, 14, 45, 0
27, 34800, Note_on_c, 14, 45, 45
27, 34832, Note_on_c, 14, 45, 0
27, 34848, Note_on_c, 14, 47, 50
27, 34880, Note_on_c, 14, 47, 0
27, 34896, Note_on_c, 14, 47, 48
27, 34928, Note_on_c, 14, 47, 0
27, 34944, Note_on_c, 14, 48, 56
27, 34976, Note_on_c, 14, 48, 0
27, 34992, Note_on_c, 14, 48, 52
27, 35024, Note_on_c, 14, 48, 0
27, 35040, Note_on_c, 14, 50, 65
27, 35072, Note_on_c, 14, 50, 0
27, 35088, Note_on_c, 14, 50, 59
27, 35120, Note_on_c, 14, 50, 0
27, 35136, Note_on_c, 14, 54, 63
27, 35168, Note_on_c, 14, 54, 0
27, 35184, Note_on_c, 14, 54, 74
27, 35216, Note_on_c, 14, 54, 0
27, 35232, Note_on_c, 14, 56, 70
27, 35264, Note_on_c, 14, 56, 0
27, 35280, Note_on_c, 14, 56, 71
27, 35312, Note_on_c, 14, 56, 0
27, 35424, Note_on_c, 14, 44, 46
27, 35456, Note_on_c, 14, 44, 0
27, 35472, Note_on_c, 14, 44, 40
27, 35504, Note_on_c, 14, 44, 0
27, 35520, Note_on_c, 14, 45, 44
27, 35552, Note_on_c, 14, 45, 0
27, 35568, Note_on_c, 14, 45, 50
27, 35600, Note_on_c, 14, 45, 0
27, 35616, Note_on_c, 14, 47, 55
27, 35648, Note_on_c, 14, 47, 0
27, 35664, Note_on_c, 14, 47, 51
27, 35696, Note_on_c, 14, 47, 0
27, 35712, Note_on_c, 14, 48, 55
27, 35744, Note_on_c, 14, 48, 0
27, 35760, Note_on_c, 14, 48, 62
27, 35792, Note_on_c, 14, 48, 0
27, 35808, Note_on_c, 14, 50, 63
27, 35840, Note_on_c, 14, 50, 0
27, 35856, Note_on_c, 14, 50, 66
27, 35888, Note_on_c, 14, 50, 0
27, 35904, Note_on_c, 14, 54, 71
27, 35936, Note_on_c, 14, 54, 0
27, 35952, Note_on_c, 14, 54, 66
27, 35984, Note_on_c, 14, 54, 0
27, 36000, Note_on_c, 14, 56, 68
27, 36032, Note_on_c, 14, 56, 0
27, 36048, Note_on_c, 14, 56, 74
27, 36080, Note_on_c, 14, 56, 0
27, 36192, Note_on_c, 14, 44, 43
27, 36224, Note_on_c, 14, 44, 0
27, 36240, Note_on_c, 14, 44, 44
27, 36272, Note_on_c, 14, 44, 0
27, 36288, Note_on_c, 14, 45, 42
27, 36320, Note_on_c, 14, 45, 0
27, 36336, Note_on_c, 14, 45, 48
27, 36368, Note_on_c, 14, 45, 0
27, 36384, Note_on_c, 14, 47, 46
27, 36416, Note_on_c, 14, 47, 0
27, 36432, Note_on_c, 14, 47, 57
27, 36464, Note_on_c, 14, 47, 0
27, 36480, Note_on_c, 14, 48, 54
27, 36512, Note_on_c, 14, 48, 0
27, 36528, Note_on_c, 14, 48, 61
27, 36560, Note_on_c, 14, 48, 0
27, 36576, Note_on_c, 14, 50, 58
27, 36608, Note_on_c, 14, 50, 0
27, 36624, Note_on_c, 14, 50, 65
27, 36656, Note_on_c, 14, 50, 0
27, 36672, Note_on_c, 14, 54, 70
27, 36704, Note_on_c, 14, 54, 0
27, 36720, Note_on_c, 14, 54, 65
27, 36752, Note_on_c, 14, 54, 0
27, 36768, Note_on_c, 14, 56, 76
27, 36800, Note_on_c, 14, 56, 0
27, 36816, Note_on_c, 14, 56, 73
27, 36848, Note_on_c, 14, 56, 0
27, 36960, Note_on_c, 14, 44, 43
27, 36992, Note_on_c, 14, 44, 0
27, 37008, Note_on_c, 14, 44, 45
27, 37040, Note_on_c, 14, 44, 0
27, 37056, Note_on_c, 14, 45, 52
27, 37088, Note_on_c, 14, 45, 0
27, 37104, Note_on_c, 14, 45, 52
27, 37136, Note_on_c, 14, 45, 0
27, 37152, Note_on_c, 14, 47, 47
27, 37184, Note_on_c, 14, 47, 0
27, 37200, Note_on_c, 14, 47, 55
27, 37232, Note_on_c, 14, 47, 0
27, 37248, Note_on_c, 14, 48, 58
27, 37280, Note_on_c, 14, 48, 0
27, 37296, Note_on_c, 14, 48, 54
27, 37328, Note_on_c, 14, 48, 0
27, 37344, Note_on_c, 14, 50, 58
27, 37376, Note_on_c, 14, 50, 0
27, 37392, Note_on_c, 14, 50, 62
27, 37424, Note_on_c, 14, 50, 0
27, 37440, Note_on_c, 14, 54, 65
27, 37472, Note_on_c, 14, 54, 0
27, 37488, Note_on_c, 14, 54, 66
27, 37520, Note_on_c, 14, 54, 0
27, 37536, Note_on_c, 14, 56, 72
27, 37568, Note_on_c, 14, 56, 0
27, 37584, Note_on_c, 14, 56, 73
27, 37616, Note_on_c, 14, 56, 0
27, 37728, Note_on_c, 14, 44, 45
27, 37760, Note_on_c, 14, 44, 0
27, 37776, Note_on_c, 14, 44, 47
27, 37808, Note_on_c, 14, 44, 0
27, 37824, Note_on_c, 14, 45, 50
27, 37856, Note_on_c, 14, 45, 0
27, 37872, Note_on_c, 14, 45, 45
27, 37904, Note_on_c, 14, 45, 0
27, 37920, Note_on_c, 14, 47, 52
27, 37952, Note_on_c, 14, 47, 0
27, 37968, Note_on_c, 14, 47, 55
27, 38000, Note_on_c, 14, 47, 0
27, 38016, Note_on_c, 14, 48, 60
27, 38048, Note_on_c, 14, 48, 0
27, 38064, Note_on_c, 14, 48, 54
27, 38096, Note_on_c, 14, 48, 0
27, 38112, Note_on_c, 14, 50, 61
27, 38144, Note_on_c, 14, 50, 0
27, 38160, Note_on_c, 14, 50, 65
27, 38192, Note_on_c, 14, 50, 0
27, 38208, Note_on_c, 14, 54, 62
27, 38240, Note_on_c, 14, 54, 0
27, 38256, Note_on_c, 14, 54, 71
27, 38288, Note_on_c, 14, 54, 0
27, 38304, Note_on_c, 14, 56, 71
27, 38336, Note_on_c, 14, 56, 0
27, 38352, Note_on_c, 14, 56, 80
27, 38384, Note_on_c, 14, 56, 0
27, 38496, Note_on_c, 14, 44, 48
27, 38528, Note_on_c, 14, 44, 0
27, 38544, Note_on_c, 14, 44, 40
27, 38576, Note_on_c, 14, 44, 0
27, 38592, Note_on_c, 14, 45, 45
27, 38624, Note_on_c, 14, 45, 0
27, 38640, Note_on_c, 14, 45, 47
27, 38672, Note_on_c, 14, 45, 0
27, 38688, Note_on_c, 14, 47, 51
27, 38720, Note_on_c, 14, 47, 0
27, 38736, Note_on_c, 14, 47, 54
27, 38768, Note_on_c, 14, 47, 0
27, 38784, Note_on_c, 14, 48, 55
27, 38816, Note_on_c, 14, 48, 0
27, 38832, Note_on_c, 14, 48, 61
27, 38864, Note_on_c, 14, 48, 0
27, 38880, Note_on_c, 14, 50, 59
27, 38912, Note_on_c, 14, 50, 0
27, 38928, Note_on_c, 14, 50, 62
27, 38960, Note_on_c, 14, 50, 0
27, 38976, Note_on_c, 14, 54, 62
27, 39008, Note_on_c, 14, 54, 0
27, 39024, Note_on_c, 14, 54, 65
27, 39056, Note_on_c, 14, 54, 0
27, 39072, Note_on_c, 14, 56, 67
27, 39104, Note_on_c, 14, 56, 0
27, 39120, Note_on_c, 14, 56, 76
27, 39152, Note_on_c, 14, 56, 0
27, 39264, Note_on_c, 14, 44, 50
27, 39296, Note_on_c, 14, 44, 0
27, 39312, Note_on_c, 14, 44, 48
27, 39344, Note_on_c, 14, 44, 0
27, 39360, Note_on_c, 14, 45, 45
27, 39392, Note_on_c, 14, 45, 0
27, 39408, Note_on_c, 14, 45, 53
27, 39440, Note_on_c, 14, 45, 0
27, 39456, Note_on_c, 14, 47, 56
27, 39488, Note_on_c, 14, 47, 0
27, 39504, Note_on_c, 14, 47, 49
27, 39536, Note_on_c, 14, 47, 0
27, 39552, Note_on_c, 14, 48, 53
27, 39584, Note_on_c, 14, 48, 0
27, 39600, Note_on_c, 14, 48, 54
27, 39632, Note_on_c, 14, 48, 0
27, 39648, Note_on_c, 14, 50, 60
27, 39680, Note_on_c, 14, 50, 0
27, 39696, Note_on_c, 14, 50, 59
27, 39728, Note_on_c, 14, 50, 0
27, 39744, Note_on_c, 14, 54, 70
27, 39776, Note_on_c, 14, 54, 0
27, 39792, Note_on_c, 14, 54, 68
27, 39824, Note_on_c, 14, 54, 0
27, 39840, Note_on_c, 14, 56, 68
27, 39872, Note_on_c, 14, 56, 0
27, 39888, Note_on_c, 14, 56, 78
27, 39920, Note_on_c, 14, 56, 0
27, 40032, Note_on_c, 14, 44, 77
27, 40064, Note_on_c, 14, 44, 0
27, 40080, Note_on_c, 14, 44, 77
27, 40112, Note_on_c, 14, 44, 0
27, 40128, Note_on_c, 14, 45, 79
27, 40160, Note_on_c, 14, 45, 0
27, 40176, Note_on_c, 14, 45, 80
27, 40208, Note_on_c, 14, 45, 0
27, 40224, Note_on_c, 14, 47, 79
27, 40256, Note_on_c, 14, 47, 0
27, 40272, Note_on_c, 14, 47, 82
27, 40304, Note_on_c, 14, 47, 0
27, 40320, Note_on_c, 14, 48, 82
27, 40352, Note_on_c, 14, 48, 0
27, 40368, Note_on_c, 14, 48, 81
27, 40400, Note_on_c, 14, 48, 0
27, 40416, Note_on_c, 14, 50, 81
27, 40448, Note_on_c, 14, 50, 0
27, 40464, Note_on_c, 14, 50, 87
27, 40496, Note_on_c, 14, 50, 0
27, 40512, Note_on_c, 14, 54, 90
27, 40544, Note_on_c, 14, 54, 0
27, 40560, Note_on_c, 14, 54, 85
27, 40592, Note_on_c, 14, 54, 0
27, 40608, Note_on_c, 14, 56, 93
27, 40640, Note_on_c, 14, 56, 0
27, 40656, Note_on_c, 14, 56, 88
27, 40688, Note_on_c, 14, 56, 0
27, 40800, Note_on_c, 14, 44, 49
27, 40832, Note_on_c, 14, 44, 0
27, 40848, Note_on_c, 14, 44, 50
27, 40880, Note_on_c, 14, 44, 0
27, 40896, Note_on_c, 14, 45, 42
27, 40928, Note_on_c, 14, 45, 0
27, 40944, Note_on_c, 14, 45, 51
27, 40976, Note_on_c, 14, 45, 0
27, 40992, Note_on_c, 14, 47, 54
27, 41024, Note_on_c, 14, 47, 0
27, 41040, Note_on_c, 14, 47, 50
27, 41072, Note_on_c, 14, 47, 0
27, 41088, Note_on_c, 14, 48, 54
27, 41120, Note_on_c, 14, 48, 0
27, 41136, Note_on_c, 14, 48, 54
27, 41168, Note_on_c, 14, 48, 0
27, 41184, Note_on_c, 14, 50, 55
27, 41216, Note_on_c, 14, 50, 0
27, 41232, Note_on_c, 14, 50, 62
27, 41264, Note_on_c, 14, 50, 0
27, 41280, Note_on_c, 14, 54, 65
27, 41312, Note_on_c, 14, 54, 0
27, 41328, Note_on_c, 14, 54, 71
27, 41360, Note_on_c, 14, 54, 0
27, 41376, Note_on_c, 14, 56, 75
27, 41408, Note_on_c, 14, 56, 0
27, 41424, Note_on_c, 14, 56, 79
27, 41456, Note_on_c, 14, 56, 0
27, 41568, Note_on_c, 14, 60, 89
27, 41600, Note_on_c, 14, 60, 0
27, 41664, Note_on_c, 14, 62, 87
27, 41696, Note_on_c, 14, 62, 0
27, 41760, Note_on_c, 14, 64, 90
27, 41792, Note_on_c, 14, 64, 0
27, 41856, Note_on_c, 14, 48, 95
27, 41888, Note_on_c, 14, 48, 0
27, 41952, Note_on_c, 14, 50, 93
27, 41984, Note_on_c, 14, 50, 0
27, 42048, Note_on_c, 14, 52, 98
27, 42080, Note_on_c, 14, 52, 0
27, 42144, Note_on_c, 14, 36, 102
27, 42176, Note_on_c, 14, 36, 0
27, 42240, Note_on_c, 14, 38, 97
27, 42272, Note_on_c, 14, 38, 0
27, 42336, Note_on_c, 14, 40, 103
27, 42368, Note_on_c, 14, 40, 0
27, 42816, Note_on_c, 14, 43, 109
27, 42910, Note_on_c, 14, 43, 0
27, 43200, Program_c, 14, 45
27, 43200, Note_on_c, 14, 44, 110
27, 43294, Note_on_c, 14, 44, 0
27, 43776, Program_c, 14, 48
27, 43872, Note_on_c, 14, 49, 40
27, 43966, Note_on_c, 14, 49, 0
27, 43968, Note_on_c, 14, 50, 45
27, 44030, Note_on_c, 14, 50, 0
27, 44032, Note_on_c, 14, 51, 46
27, 44094, Note_on_c, 14, 51, 0
27, 44096, Note_on_c, 14, 52, 43
27, 44138, Note_on_c, 14, 52, 0
27, 44256, Note_on_c, 14, 49, 42
27, 44350, Note_on_c, 14, 49, 0
27, 44352, Note_on_c, 14, 50, 40
27, 44414, Note_on_c, 14, 50, 0
27, 44416, Note_on_c, 14, 51, 41
27, 44478, Note_on_c, 14, 51, 0
27, 44480, Note_on_c, 14, 52, 41
27, 44522, Note_on_c, 14, 52, 0
27, 44640, Note_on_c, 14, 49, 44
27, 44734, Note_on_c, 14, 49, 0
27, 44736, Note_on_c, 14, 50, 44
27, 44798, Note_on_c, 14, 50, 0
27, 44800, Note_on_c, 14, 51, 46
27, 44862, Note_on_c, 14, 51, 0
27, 44864, Note_on_c, 14, 52, 45
27, 44906, Note_on_c, 14, 52, 0
27, 45024, Note_on_c, 14, 49, 45
27, 45118, Note_on_c, 14, 49, 0
27, 45120, Note_on_c, 14, 50, 41
27, 45182, Note_on_c, 14, 50, 0
27, 45184, Note_on_c, 14, 51, 50
27, 45246, Note_on_c, 14, 51, 0
27, 45248, Note_on_c, 14, 52, 49
27, 45290, Note_on_c, 14, 52, 0
27, 45408, Note_on_c, 14, 49, 41
27, 45502, Note_on_c, 14, 49, 0
27, 45504, Note_on_c, 14, 50, 46
27, 45566, Note_on_c, 14, 50, 0
27, 45568, Note_on_c, 14, 51, 44
27, 45630, Note_on_c, 14, 51, 0
27, 45632, Note_on_c, 14, 52, 49
27, 45674, Note_on_c, 14, 52, 0
27, 45792, Note_on_c, 14, 49, 44
27, 45886, Note_on_c, 14, 49, 0
27, 45888, Note_on_c, 14, 50, 42
27, 45950, Note_on_c, 14, 50, 0
27, 45952, Note_on_c, 14, 51, 45
27, 46014, Note_on_c, 14, 51, 0
27, 46016, Note_on_c, 14, 52, 44
27, 46058, Note_on_c, 14, 52, 0
27, 46176, Note_on_c, 14, 49, 50
27, 46270, Note_on_c, 14, 49, 0
27, 46272, Note_on_c, 14, 50, 47
27, 46334, Note_on_c, 14, 50, 0
27, 46336, Note_on_c, 14, 51, 44
27, 46398, Note_on_c, 14, 51, 0
27, 46400, Note_on_c, 14, 52, 47
27, 46442, Note_on_c, 14, 52, 0
27, 46560, Note_on_c, 14, 49, 46
27, 46654, Note_on_c, 14, 49, 0
27, 46656, Note_on_c, 14, 50, 41
27, 46718, Note_on_c, 14, 50, 0
27, 46720, Note_on_c, 14, 51, 40
27, 46782, Note_on_c, 14, 51, 0
27, 46784, Note_on_c, 14, 52, 47
27, 46826, Note_on_c, 14, 52, 0
27, 46944, Note_on_c, 14, 50, 41
27, 47038, Note_on_c, 14, 50, 0
27, 47040, Note_on_c, 14, 51, 48
27, 47102, Note_on_c, 14, 51, 0
27, 47104, Note_on_c, 14, 52, 41
27, 47166, Note_on_c, 14, 52, 0
27, 47168, Note_on_c, 14, 53, 42
27, 47210, Note_on_c, 14, 53, 0
27, 47328, Note_on_c, 14, 51, 47
27, 47422, Note_on_c, 14, 51, 0
27, 47424, Note_on_c, 14, 52, 46
27, 47486, Note_on_c, 14, 52, 0
27, 47488, Note_on_c, 14, 53, 48
27, 47550, Note_on_c, 14, 53, 0
27, 47552, Note_on_c, 14, 54, 43
27, 47594, Note_on_c, 14, 54, 0
27, 47712, Note_on_c, 14, 44, 49
27, 47806, Note_on_c, 14, 44, 0
27, 47808, Note_on_c, 14, 45, 41
27, 47870, Note_on_c, 14, 45, 0
27, 47872, Note_on_c, 14, 46, 46
27, 47934, Note_on_c, 14, 46, 0
27, 47936, Note_on_c, 14, 47, 45
27, 47978, Note_on_c, 14, 47, 0
27, 48096, Note_on_c, 14, 46, 42
27, 48190, Note_on_c, 14, 46, 0
27, 48192, Note_on_c, 14, 47, 49
27, 48254, Note_on_c, 14, 47, 0
27, 48256, Note_on_c, 14, 48, 46
27, 48318, Note_on_c, 14, 48, 0
27, 48320, Note_on_c, 14, 49, 47
27, 48362, Note_on_c, 14, 49, 0
27, 48480, Note_on_c, 14, 56, 53
27, 48574, Note_on_c, 14, 56, 0
27, 48576, Note_on_c, 14, 60, 53
27, 48638, Note_on_c, 14, 60, 0
27, 48640, Note_on_c, 14, 56, 59
27, 48702, Note_on_c, 14, 56, 0
27, 48704, Note_on_c, 14, 55, 59
27, 48746, Note_on_c, 14, 55, 0
27, 48864, Note_on_c, 14, 54, 65
27, 48958, Note_on_c, 14, 54, 0
27, 48960, Note_on_c, 14, 58, 67
27, 49022, Note_on_c, 14, 58, 0
27, 49024, Note_on_c, 14, 54, 66
27, 49086, Note_on_c, 14, 54, 0
27, 49088, Note_on_c, 14, 53, 76
27, 49130, Note_on_c, 14, 53, 0
27, 49216, Note_on_c, 14, 52, 73
27, 49278, Note_on_c, 14, 52, 0
27, 49280, Note_on_c, 14, 48, 78
27, 49342, Note_on_c, 14, 48, 0
27, 49344, Note_on_c, 14, 46, 88
27, 49406, Note_on_c, 14, 46, 0
27, 49408, Note_on_c, 14, 45, 90
27, 49470, Note_on_c, 14, 45, 0
27, 49472, Note_on_c, 14, 44, 89
27, 49534, Note_on_c, 14, 44, 0
27, 49536, Note_on_c, 14, 43, 92
27, 50448, Note_on_c, 14, 43, 0
27, 50784, Note_on_c, 14, 49, 50
27, 50878, Note_on_c, 14, 49, 0
27, 50880, Note_on_c, 14, 50, 41
27, 50942, Note_on_c, 14, 50, 0
27, 50944, Note_on_c, 14, 51, 49
27, 51006, Note_on_c, 14, 51, 0
27, 51008, Note_on_c, 14, 52, 45
27, 51050, Note_on_c, 14, 52, 0
27, 51168, Note_on_c, 14, 49, 44
27, 51262, Note_on_c, 14, 49, 0
27, 51264, Note_on_c, 14, 50, 49
27, 51326, Note_on_c, 14, 50, 0
27, 51328, Note_on_c, 14, 51, 47
27, 51390, Note_on_c, 14, 51, 0
27, 51392, Note_on_c, 14, 52, 45
27, 51434, Note_on_c, 14, 52, 0
27, 51552, Note_on_c, 14, 49, 49
27, 51646, Note_on_c, 14, 49, 0
27, 51648, Note_on_c, 14, 50, 42
27, 51710, Note_on_c, 14, 50, 0
27, 51712, Note_on_c, 14, 51, 48
27, 51774, Note_on_c, 14, 51, 0
27, 51776, Note_on_c, 14, 52, 45
27, 51818, Note_on_c, 14, 52, 0
27, 51936, Note_on_c, 14, 49, 40
27, 52030, Note_on_c, 14, 49, 0
27, 52032, Note_on_c, 14, 50, 40
27, 52094, Note_on_c, 14, 50, 0
27, 52096, Note_on_c, 14, 51, 43
27, 52158, Note_on_c, 14, 51, 0
27, 52160, Note_on_c, 14, 52, 44
27, 52202, Note_on_c, 14, 52, 0
27, 52320, Note_on_c, 14, 49, 43
27, 52414, Note_on_c, 14, 49, 0
27, 52416, Note_on_c, 14, 50, 44
27, 52478, Note_on_c, 14, 50, 0
27, 52480, Note_on_c, 14, 51, 45
27, 52542, Note_on_c, 14, 51, 0
27, 52544, Note_on_c, 14, 52, 42
27, 52586, Note_on_c, 14, 52, 0
27, 52704, Note_on_c, 14, 49, 42
27, 52798, Note_on_c, 14, 49, 0
27, 52800, Note_on_c, 14, 50, 49
27, 52862, Note_on_c, 14, 50, 0
27, 52864, Note_on_c, 14, 51, 44
27, 52926, Note_on_c, 14, 51, 0
27, 52928, Note_on_c, 14, 52, 47
27, 52970, Note_on_c, 14, 52, 0
27, 53088, Note_on_c, 14, 49, 45
27, 53182, Note_on_c, 14, 49, 0
27, 53184, Note_on_c, 14, 50, 40
27, 53246, Note_on_c, 14, 50, 0
27, 53248, Note_on_c, 14, 51, 49
27, 53310, Note_on_c, 14, 51, 0
27, 53312, Note_on_c, 14, 52, 42
27, 53354, Note_on_c, 14, 52, 0
27, 53472, Note_on_c, 14, 49, 46
27, 53566, Note_on_c, 14, 49, 0
27, 53568, Note_on_c, 14, 50, 41
27, 53630, Note_on_c, 14, 50, 0
27, 53632, Note_on_c, 14, 51, 40
27, 53694, Note_on_c, 14, 51, 0
27, 53696, Note_on_c, 14, 52, 45
27, 53738, Note_on_c, 14, 52, 0
27, 53856, Note_on_c, 14, 50, 41
27, 53950, Note_on_c, 14, 50, 0
27, 53952, Note_on_c, 14, 51, 42
27, 54014, Note_on_c, 14, 51, 0
27, 54016, Note_on_c, 14, 52, 48
27, 54078, Note_on_c, 14, 52, 0
27, 54080, Note_on_c, 14, 53, 46
27, 54122, Note_on_c, 14, 53, 0
27, 54240, Note_on_c, 14, 51, 54
27, 54334, Note_on_c, 14, 51, 0
27, 54336, Note_on_c, 14, 52, 50
27, 54398, Note_on_c, 14, 52, 0
27, 54400, Note_on_c, 14, 53, 51
27, 54462, Note_on_c, 14, 53, 0
27, 54464, Note_on_c, 14, 54, 57
27, 54506, Note_on_c, 14, 54, 0
27, 54624, Note_on_c, 14, 44, 60
27, 54718, Note_on_c, 14, 44, 0
27, 54720, Note_on_c, 14, 45, 70
27, 54782, Note_on_c, 14, 45, 0
27, 54784, Note_on_c, 14, 46, 73
27, 54846, Note_on_c, 14, 46, 0
27, 54848, Note_on_c, 14, 47, 71
27, 54890, Note_on_c, 14, 47, 0
27, 55008, Note_on_c, 14, 46, 79
27, 55102, Note_on_c, 14, 46, 0
27, 55104, Note_on_c, 14, 47, 73
27, 55166, Note_on_c, 14, 47, 0
27, 55168, Note_on_c, 14, 48, 68
27, 55230, Note_on_c, 14, 48, 0
27, 55232, Note_on_c, 14, 49, 74
27, 55274, Note_on_c, 14, 49, 0
27, 55392, Note_on_c, 14, 46, 61
27, 55486, Note_on_c, 14, 46, 0
27, 55488, Note_on_c, 14, 47, 56
27, 55550, Note_on_c, 14, 47, 0
27, 55552, Note_on_c, 14, 48, 48
27, 55614, Note_on_c, 14, 48, 0
27, 55616, Note_on_c, 14, 49, 47
27, 55658, Note_on_c, 14, 49, 0
27, 55872, Note_on_c, 14, 46, 44
27, 55904, Note_on_c, 14, 46, 0
27, 56064, Control_c, 14, 11, 92
27, 56064, Note_on_c, 14, 68, 65
27, 56069, Control_c, 14, 11, 93
27, 56074, Control_c, 14, 11, 94
27, 56080, Control_c, 14, 11, 95
27, 56085, Control_c, 14, 11, 96
27, 56091, Control_c, 14, 11, 97
27, 56096, Control_c, 14, 11, 98
27, 56102, Control_c, 14, 11, 99
27, 56107, Control_c, 14, 11, 100
27, 56112, Note_on_c, 14, 68, 0
27, 56112, Note_on_c, 14, 66, 58
27, 56113, Control_c, 14, 11, 101
27, 56118, Control_c, 14, 11, 102
27, 56124, Control_c, 14, 11, 103
27, 56129, Control_c, 14, 11, 104
27, 56135, Control_c, 14, 11, 105
27, 56140, Control_c, 14, 11, 106
27, 56146, Control_c, 14, 11, 107
27, 56151, Control_c, 14, 11, 108
27, 56157, Control_c, 14, 11, 109
27, 56162, Control_c, 14, 11, 110
27, 56168, Control_c, 14, 11, 111
27, 56173, Control_c, 14, 11, 112
27, 56179, Control_c, 14, 11, 113
27, 56184, Control_c, 14, 11, 114
27, 56190, Control_c, 14, 11, 115
27, 56195, Control_c, 14, 11, 116
27, 56201, Control_c, 14, 11, 117
27, 56206, Control_c, 14, 11, 118
27, 56212, Control_c, 14, 11, 119
27, 56217, Control_c, 14, 11, 120
27, 56223, Control_c, 14, 11, 121
27, 56228, Control_c, 14, 11, 122
27, 56234, Control_c, 14, 11, 123
27, 56239, Control_c, 14, 11, 124
27, 56245, Control_c, 14, 11, 125
27, 56250, Control_c, 14, 11, 126
27, 56256, Control_c, 14, 11, 127
27, 56261, Control_c, 14, 11, 126
27, 56266, Control_c, 14, 11, 125
27, 56272, Control_c, 14, 11, 124
27, 56277, Control_c, 14, 11, 123
27, 56283, Control_c, 14, 11, 122
27, 56288, Control_c, 14, 11, 121
27, 56294, Control_c, 14, 11, 120
27, 56299, Control_c, 14, 11, 119
27, 56305, Control_c, 14, 11, 118
27, 56310, Control_c, 14, 11, 117
27, 56316, Control_c, 14, 11, 116
27, 56321, Control_c, 14, 11, 115
27, 56327, Control_c, 14, 11, 114
27, 56332, Control_c, 14, 11, 113
27, 56338, Control_c, 14, 11, 112
27, 56343, Control_c, 14, 11, 111
27, 56349, Control_c, 14, 11, 110
27, 56354, Control_c, 14, 11, 109
27, 56360, Control_c, 14, 11, 108
27, 56365, Control_c, 14, 11, 107
27, 56371, Control_c, 14, 11, 106
27, 56376, Control_c, 14, 11, 105
27, 56382, Control_c, 14, 11, 104
27, 56387, Control_c, 14, 11, 103
27, 56393, Control_c, 14, 11, 102
27, 56398, Control_c, 14, 11, 101
27, 56404, Control_c, 14, 11, 100
27, 56409, Control_c, 14, 11, 99
27, 56415, Control_c, 14, 11, 98
27, 56420, Control_c, 14, 11, 97
27, 56426, Control_c, 14, 11, 96
27, 56431, Control_c, 14, 11, 95
27, 56437, Control_c, 14, 11, 94
27, 56442, Control_c, 14, 11, 93
27, 56448, Control_c, 14, 11, 92
27, 56832, Control_c, 14, 11, 92
27, 56842, Control_c, 14, 11, 93
27, 56853, Control_c, 14, 11, 94
27, 56864, Control_c, 14, 11, 95
27, 56875, Control_c, 14, 11, 96
27, 56886, Control_c, 14, 11, 97
27, 56897, Control_c, 14, 11, 98
27, 56908, Control_c, 14, 11, 99
27, 56919, Control_c, 14, 11, 100
27, 56930, Control_c, 14, 11, 101
27, 56941, Control_c, 14, 11, 102
27, 56952, Control_c, 14, 11, 103
27, 56963, Control_c, 14, 11, 104
27, 56974, Control_c, 14, 11, 105
27, 56985, Control_c, 14, 11, 106
27, 56996, Control_c, 14, 11, 107
27, 57007, Control_c, 14, 11, 108
27, 57018, Control_c, 14, 11, 109
27, 57029, Control_c, 14, 11, 110
27, 57040, Control_c, 14, 11, 111
27, 57051, Control_c, 14, 11, 112
27, 57062, Control_c, 14, 11, 113
27, 57073, Control_c, 14, 11, 114
27, 57084, Control_c, 14, 11, 115
27, 57095, Control_c, 14, 11, 116
27, 57106, Control_c, 14, 11, 117
27, 57117, Control_c, 14, 11, 118
27, 57128, Control_c, 14, 11, 119
27, 57139, Control_c, 14, 11, 120
27, 57150, Control_c, 14, 11, 121
27, 57161, Control_c, 14, 11, 122
27, 57172, Control_c, 14, 11, 123
27, 57183, Control_c, 14, 11, 124
27, 57194, Control_c, 14, 11, 125
27, 57205, Control_c, 14, 11, 126
27, 57216, Note_on_c, 14, 66, 0
27, 57216, Control_c, 14, 11, 127
27, 57216, Note_on_c, 14, 68, 60
27, 57552, Note_on_c, 14, 68, 0
27, 57600, Control_c, 14, 11, 92
27, 57600, Note_on_c, 14, 68, 61
27, 57605, Control_c, 14, 11, 93
27, 57610, Control_c, 14, 11, 94
27, 57616, Control_c, 14, 11, 95
27, 57621, Control_c, 14, 11, 96
27, 57627, Control_c, 14, 11, 97
27, 57632, Control_c, 14, 11, 98
27, 57638, Control_c, 14, 11, 99
27, 57643, Control_c, 14, 11, 100
27, 57648, Note_on_c, 14, 68, 0
27, 57648, Note_on_c, 14, 66, 60
27, 57649, Control_c, 14, 11, 101
27, 57654, Control_c, 14, 11, 102
27, 57660, Control_c, 14, 11, 103
27, 57665, Control_c, 14, 11, 104
27, 57671, Control_c, 14, 11, 105
27, 57676, Control_c, 14, 11, 106
27, 57682, Control_c, 14, 11, 107
27, 57687, Control_c, 14, 11, 108
27, 57693, Control_c, 14, 11, 109
27, 57698, Control_c, 14, 11, 110
27, 57704, Control_c, 14, 11, 111
27, 57709, Control_c, 14, 11, 112
27, 57715, Control_c, 14, 11, 113
27, 57720, Control_c, 14, 11, 114
27, 57726, Control_c, 14, 11, 115
27, 57731, Control_c, 14, 11, 116
27, 57737, Control_c, 14, 11, 117
27, 57742, Control_c, 14, 11, 118
27, 57748, Control_c, 14, 11, 119
27, 57753, Control_c, 14, 11, 120
27, 57759, Control_c, 14, 11, 121
27, 57764, Control_c, 14, 11, 122
27, 57770, Control_c, 14, 11, 123
27, 57775, Control_c, 14, 11, 124
27, 57781, Control_c, 14, 11, 125
27, 57786, Control_c, 14, 11, 126
27, 57792, Control_c, 14, 11, 127
27, 57797, Control_c, 14, 11, 126
27, 57802, Control_c, 14, 11, 125
27, 57808, Control_c, 14, 11, 124
27, 57813, Control_c, 14, 11, 123
27, 57819, Control_c, 14, 11, 122
27, 57824, Control_c, 14, 11, 121
27, 57830, Control_c, 14, 11, 120
27, 57835, Control_c, 14, 11, 119
27, 57841, Control_c, 14, 11, 118
27, 57846, Control_c, 14, 11, 117
27, 57852, Control_c, 14, 11, 116
27, 57857, Control_c, 14, 11, 115
27, 57863, Control_c, 14, 11, 114
27, 57868, Control_c, 14, 11, 113
27, 57874, Control_c, 14, 11, 112
27, 57879, Control_c, 14, 11, 111
27, 57885, Control_c, 14, 11, 110
27, 57890, Control_c, 14, 11, 109
27, 57896, Control_c, 14, 11, 108
27, 57901, Control_c, 14, 11, 107
27, 57907, Control_c, 14, 11, 106
27, 57912, Control_c, 14, 11, 105
27, 57918, Control_c, 14, 11, 104
27, 57923, Control_c, 14, 11, 103
27, 57929, Control_c, 14, 11, 102
27, 57934, Control_c, 14, 11, 101
27, 57940, Control_c, 14, 11, 100
27, 57945, Control_c, 14, 11, 99
27, 57951, Control_c, 14, 11, 98
27, 57956, Control_c, 14, 11, 97
27, 57962, Control_c, 14, 11, 96
27, 57967, Control_c, 14, 11, 95
27, 57973, Control_c, 14, 11, 94
27, 57978, Control_c, 14, 11, 93
27, 57984, Control_c, 14, 11, 92
27, 58368, Control_c, 14, 11, 92
27, 58389, Control_c, 14, 11, 93
27, 58411, Control_c, 14, 11, 94
27, 58433, Control_c, 14, 11, 95
27, 58455, Control_c, 14, 11, 96
27, 58477, Control_c, 14, 11, 97
27, 58499, Control_c, 14, 11, 98
27, 58521, Control_c, 14, 11, 99
27, 58543, Control_c, 14, 11, 100
27, 58565, Control_c, 14, 11, 101
27, 58587, Control_c, 14, 11, 102
27, 58609, Control_c, 14, 11, 103
27, 58631, Control_c, 14, 11, 104
27, 58653, Control_c, 14, 11, 105
27, 58675, Control_c, 14, 11, 106
27, 58697, Control_c, 14, 11, 107
27, 58719, Control_c, 14, 11, 108
27, 58741, Control_c, 14, 11, 109
27, 58752, Note_on_c, 14, 66, 0
27, 58752, Note_on_c, 14, 68, 60
27, 58762, Control_c, 14, 11, 110
27, 58784, Control_c, 14, 11, 111
27, 58806, Control_c, 14, 11, 112
27, 58828, Control_c, 14, 11, 113
27, 58850, Control_c, 14, 11, 114
27, 58872, Control_c, 14, 11, 115
27, 58894, Control_c, 14, 11, 116
27, 58916, Control_c, 14, 11, 117
27, 58938, Control_c, 14, 11, 118
27, 58944, Note_on_c, 14, 68, 0
27, 58944, Note_on_c, 14, 71, 64
27, 58960, Control_c, 14, 11, 119
27, 58982, Control_c, 14, 11, 120
27, 59004, Control_c, 14, 11, 121
27, 59026, Control_c, 14, 11, 122
27, 59048, Control_c, 14, 11, 123
27, 59070, Control_c, 14, 11, 124
27, 59092, Control_c, 14, 11, 125
27, 59104, Note_on_c, 14, 71, 0
27, 59114, Control_c, 14, 11, 126
27, 59136, Control_c, 14, 11, 127
27, 59136, Control_c, 14, 11, 92
27, 59136, Note_on_c, 14, 68, 64
27, 59141, Control_c, 14, 11, 93
27, 59146, Control_c, 14, 11, 94
27, 59152, Control_c, 14, 11, 95
27, 59157, Control_c, 14, 11, 96
27, 59163, Control_c, 14, 11, 97
27, 59168, Control_c, 14, 11, 98
27, 59174, Control_c, 14, 11, 99
27, 59179, Control_c, 14, 11, 100
27, 59184, Note_on_c, 14, 68, 0
27, 59184, Note_on_c, 14, 66, 56
27, 59185, Control_c, 14, 11, 101
27, 59190, Control_c, 14, 11, 102
27, 59196, Control_c, 14, 11, 103
27, 59201, Control_c, 14, 11, 104
27, 59207, Control_c, 14, 11, 105
27, 59212, Control_c, 14, 11, 106
27, 59218, Control_c, 14, 11, 107
27, 59223, Control_c, 14, 11, 108
27, 59229, Control_c, 14, 11, 109
27, 59234, Control_c, 14, 11, 110
27, 59240, Control_c, 14, 11, 111
27, 59245, Control_c, 14, 11, 112
27, 59251, Control_c, 14, 11, 113
27, 59256, Control_c, 14, 11, 114
27, 59262, Control_c, 14, 11, 115
27, 59267, Control_c, 14, 11, 116
27, 59273, Control_c, 14, 11, 117
27, 59278, Control_c, 14, 11, 118
27, 59284, Control_c, 14, 11, 119
27, 59289, Control_c, 14, 11, 120
27, 59295, Control_c, 14, 11, 121
27, 59300, Control_c, 14, 11, 122
27, 59306, Control_c, 14, 11, 123
27, 59311, Control_c, 14, 11, 124
27, 59317, Control_c, 14, 11, 125
27, 59322, Control_c, 14, 11, 126
27, 59328, Control_c, 14, 11, 127
27, 59333, Control_c, 14, 11, 126
27, 59338, Control_c, 14, 11, 125
27, 59344, Control_c, 14, 11, 124
27, 59349, Control_c, 14, 11, 123
27, 59355, Control_c, 14, 11, 122
27, 59360, Control_c, 14, 11, 121
27, 59366, Control_c, 14, 11, 120
27, 59371, Control_c, 14, 11, 119
27, 59377, Control_c, 14, 11, 118
27, 59382, Control_c, 14, 11, 117
27, 59388, Control_c, 14, 11, 116
27, 59393, Control_c, 14, 11, 115
27, 59399, Control_c, 14, 11, 114
27, 59404, Control_c, 14, 11, 113
27, 59410, Control_c, 14, 11, 112
27, 59415, Control_c, 14, 11, 111
27, 59421, Control_c, 14, 11, 110
27, 59426, Control_c, 14, 11, 109
27, 59432, Control_c, 14, 11, 108
27, 59437, Control_c, 14, 11, 107
27, 59443, Control_c, 14, 11, 106
27, 59448, Control_c, 14, 11, 105
27, 59454, Control_c, 14, 11, 104
27, 59459, Control_c, 14, 11, 103
27, 59465, Control_c, 14, 11, 102
27, 59470, Control_c, 14, 11, 101
27, 59476, Control_c, 14, 11, 100
27, 59481, Control_c, 14, 11, 99
27, 59487, Control_c, 14, 11, 98
27, 59492, Control_c, 14, 11, 97
27, 59498, Control_c, 14, 11, 96
27, 59503, Control_c, 14, 11, 95
27, 59509, Control_c, 14, 11, 94
27, 59514, Control_c, 14, 11, 93
27, 59520, Control_c, 14, 11, 92
27, 60288, Note_on_c, 14, 66, 0
27, 60288, Note_on_c, 14, 68, 59
27, 60624, Note_on_c, 14, 68, 0
27, 60672, Control_c, 14, 11, 64
27, 60672, Note_on_c, 14, 63, 90
27, 60684, Control_c, 14, 11, 65
27, 60696, Control_c, 14, 11, 66
27, 60708, Control_c, 14, 11, 67
27, 60720, Note_on_c, 14, 63, 0
27, 60720, Control_c, 14, 11, 68
27, 60720, Note_on_c, 14, 64, 96
27, 60732, Control_c, 14, 11, 69
27, 60745, Control_c, 14, 11, 70
27, 60757, Control_c, 14, 11, 71
27, 60769, Control_c, 14, 11, 72
27, 60781, Control_c, 14, 11, 73
27, 60793, Control_c, 14, 11, 74
27, 60806, Control_c, 14, 11, 75
27, 60818, Control_c, 14, 11, 76
27, 60830, Control_c, 14, 11, 77
27, 60842, Control_c, 14, 11, 78
27, 60854, Control_c, 14, 11, 79
27, 60867, Control_c, 14, 11, 80
27, 60879, Control_c, 14, 11, 81
27, 60891, Control_c, 14, 11, 82
27, 60903, Control_c, 14, 11, 83
27, 60915, Control_c, 14, 11, 84
27, 60928, Control_c, 14, 11, 85
27, 60940, Control_c, 14, 11, 86
27, 60952, Control_c, 14, 11, 87
27, 60964, Control_c, 14, 11, 88
27, 60976, Control_c, 14, 11, 89
27, 60988, Control_c, 14, 11, 90
27, 61001, Control_c, 14, 11, 91
27, 61013, Control_c, 14, 11, 92
27, 61025, Control_c, 14, 11, 93
27, 61037, Control_c, 14, 11, 94
27, 61049, Control_c, 14, 11, 95
27, 61062, Control_c, 14, 11, 96
27, 61074, Control_c, 14, 11, 97
27, 61086, Control_c, 14, 11, 98
27, 61098, Control_c, 14, 11, 99
27, 61110, Control_c, 14, 11, 100
27, 61123, Control_c, 14, 11, 101
27, 61135, Control_c, 14, 11, 102
27, 61147, Control_c, 14, 11, 103
27, 61159, Control_c, 14, 11, 104
27, 61171, Control_c, 14, 11, 105
27, 61184, Control_c, 14, 11, 106
27, 61196, Control_c, 14, 11, 107
27, 61208, Control_c, 14, 11, 108
27, 61220, Control_c, 14, 11, 109
27, 61232, Control_c, 14, 11, 110
27, 61244, Control_c, 14, 11, 111
27, 61257, Control_c, 14, 11, 112
27, 61269, Control_c, 14, 11, 113
27, 61281, Control_c, 14, 11, 114
27, 61293, Control_c, 14, 11, 115
27, 61305, Control_c, 14, 11, 116
27, 61318, Control_c, 14, 11, 117
27, 61330, Control_c, 14, 11, 118
27, 61342, Control_c, 14, 11, 119
27, 61354, Control_c, 14, 11, 120
27, 61366, Control_c, 14, 11, 121
27, 61379, Control_c, 14, 11, 122
27, 61391, Control_c, 14, 11, 123
27, 61403, Control_c, 14, 11, 124
27, 61415, Control_c, 14, 11, 125
27, 61427, Control_c, 14, 11, 126
27, 61440, Control_c, 14, 11, 127
27, 61824, Note_on_c, 14, 64, 0
27, 61824, Note_on_c, 14, 68, 91
27, 62160, Note_on_c, 14, 68, 0
27, 62208, Control_c, 14, 11, 92
27, 62208, Note_on_c, 14, 48, 103
27, 62229, Control_c, 14, 11, 93
27, 62251, Control_c, 14, 11, 94
27, 62273, Control_c, 14, 11, 95
27, 62295, Control_c, 14, 11, 96
27, 62317, Control_c, 14, 11, 97
27, 62339, Control_c, 14, 11, 98
27, 62361, Control_c, 14, 11, 99
27, 62383, Control_c, 14, 11, 100
27, 62405, Control_c, 14, 11, 101
27, 62427, Control_c, 14, 11, 102
27, 62449, Control_c, 14, 11, 103
27, 62471, Control_c, 14, 11, 104
27, 62493, Control_c, 14, 11, 105
27, 62515, Control_c, 14, 11, 106
27, 62537, Control_c, 14, 11, 107
27, 62559, Control_c, 14, 11, 108
27, 62581, Control_c, 14, 11, 109
27, 62602, Control_c, 14, 11, 110
27, 62624, Control_c, 14, 11, 111
27, 62646, Control_c, 14, 11, 112
27, 62668, Control_c, 14, 11, 113
27, 62690, Control_c, 14, 11, 114
27, 62712, Control_c, 14, 11, 115
27, 62734, Control_c, 14, 11, 116
27, 62756, Control_c, 14, 11, 117
27, 62778, Control_c, 14, 11, 118
27, 62784, Note_on_c, 14, 48, 0
27, 62784, Note_on_c, 14, 45, 106
27, 62800, Control_c, 14, 11, 119
27, 62822, Control_c, 14, 11, 120
27, 62844, Control_c, 14, 11, 121
27, 62866, Control_c, 14, 11, 122
27, 62888, Control_c, 14, 11, 123
27, 62910, Control_c, 14, 11, 124
27, 62932, Control_c, 14, 11, 125
27, 62944, Note_on_c, 14, 45, 0
27, 62954, Control_c, 14, 11, 126
27, 62976, Control_c, 14, 11, 127
27, 62976, Control_c, 14, 11, 92
27, 62976, Note_on_c, 14, 44, 108
27, 62997, Control_c, 14, 11, 93
27, 63019, Control_c, 14, 11, 94
27, 63041, Control_c, 14, 11, 95
27, 63063, Control_c, 14, 11, 96
27, 63085, Control_c, 14, 11, 97
27, 63107, Control_c, 14, 11, 98
27, 63129, Control_c, 14, 11, 99
27, 63151, Control_c, 14, 11, 100
27, 63173, Control_c, 14, 11, 101
27, 63195, Control_c, 14, 11, 102
27, 63217, Control_c, 14, 11, 103
27, 63239, Control_c, 14, 11, 104
27, 63261, Control_c, 14, 11, 105
27, 63283, Control_c, 14, 11, 106
27, 63305, Control_c, 14, 11, 107
27, 63327, Control_c, 14, 11, 108
27, 63349, Control_c, 14, 11, 109
27, 63370, Control_c, 14, 11, 110
27, 63392, Control_c, 14, 11, 111
27, 63414, Control_c, 14, 11, 112
27, 63436, Control_c, 14, 11, 113
27, 63458, Control_c, 14, 11, 114
27, 63480, Control_c, 14, 11, 115
27, 63502, Control_c, 14, 11, 116
27, 63524, Control_c, 14, 11, 117
27, 63546, Control_c, 14, 11, 118
27, 63552, Note_on_c, 14, 44, 0
27, 63552, Note_on_c, 14, 41, 113
27, 63568, Control_c, 14, 11, 119
27, 63590, Control_c, 14, 11, 120
27, 63612, Control_c, 14, 11, 121
27, 63634, Control_c, 14, 11, 122
27, 63656, Control_c, 14, 11, 123
27, 63678, Control_c, 14, 11, 124
27, 63700, Control_c, 14, 11, 125
27, 63712, Note_on_c, 14, 41, 0
27, 63722, Control_c, 14, 11, 126
27, 63744, Control_c, 14, 11, 127
27, 63744, Note_on_c, 14, 40, 50
27, 63786, Note_on_c, 14, 40, 0
27, 63808, Note_on_c, 14, 40, 43
27, 63850, Note_on_c, 14, 40, 0
27, 63872, Note_on_c, 14, 40, 54
27, 63914, Note_on_c, 14, 40, 0
27, 63936, Note_on_c, 14, 39, 56
27, 63978, Note_on_c, 14, 39, 0
27, 64000, Note_on_c, 14, 39, 57
27, 64042, Note_on_c, 14, 39, 0
27, 64064, Note_on_c, 14, 39, 58
27, 64106, Note_on_c, 14, 39, 0
27, 64128, Note_on_c, 14, 38, 66
27, 64170, Note_on_c, 14, 38, 0
27, 64192, Note_on_c, 14, 38, 67
27, 64234, Note_on_c, 14, 38, 0
27, 64256, Note_on_c, 14, 38, 81
27, 64298, Note_on_c, 14, 38, 0
27, 64320, Note_on_c, 14, 37, 84
27, 64362, Note_on_c, 14, 37, 0
27, 64384, Note_on_c, 14, 37, 86
27, 64426, Note_on_c, 14, 37, 0
27, 64448, Note_on_c, 14, 37, 91
27, 64490, Note_on_c, 14, 37, 0
27, 64512, Note_on_c, 14, 40, 42
27, 64554, Note_on_c, 14, 40, 0
27, 64576, Note_on_c, 14, 40, 47
27, 64618, Note_on_c, 14, 40, 0
27, 64640, Note_on_c, 14, 40, 46
27, 64682, Note_on_c, 14, 40, 0
27, 64704, Note_on_c, 14, 39, 55
27, 64746, Note_on_c, 14, 39, 0
27, 64768, Note_on_c, 14, 39, 61
27, 64810, Note_on_c, 14, 39, 0
27, 64832, Note_on_c, 14, 39, 58
27, 64874, Note_on_c, 14, 39, 0
27, 64896, Note_on_c, 14, 38, 62
27, 64938, Note_on_c, 14, 38, 0
27, 64960, Note_on_c, 14, 38, 70
27, 65002, Note_on_c, 14, 38, 0
27, 65024, Note_on_c, 14, 38, 72
27, 65066, Note_on_c, 14, 38, 0
27, 65088, Note_on_c, 14, 37, 77
27, 65130, Note_on_c, 14, 37, 0
27, 65152, Note_on_c, 14, 37, 81
27, 65194, Note_on_c, 14, 37, 0
27, 65216, Note_on_c, 14, 37, 83
27, 65258, Note_on_c, 14, 37, 0
27, 65280, Note_on_c, 14, 36, 87
27, 65374, Note_on_c, 14, 36, 0
27, 66048, Note_on_c, 14, 60, 94
27, 66208, Note_on_c, 14, 60, 0
27, 67584, Program_c, 14, 45
27, 67584, Note_on_c, 14, 60, 92
27, 67678, Note_on_c, 14, 60, 0
27, 68352, Program_c, 14, 48
27, 69504, Note_on_c, 14, 46, 65
27, 69504, Note_on_c, 14, 50, 59
27, 69598, Note_on_c, 14, 46, 0
27, 69598, Note_on_c, 14, 50, 0
27, 69600, Note_on_c, 14, 46, 59
27, 69600, Note_on_c, 14, 50, 64
27, 69630, Note_on_c, 14, 46, 0
27, 69630, Note_on_c, 14, 50, 0
27, 69632, Note_on_c, 14, 46, 54
27, 69632, Note_on_c, 14, 50, 64
27, 69758, Note_on_c, 14, 46, 0
27, 69758, Note_on_c, 14, 50, 0
27, 69760, Note_on_c, 14, 46, 51
27, 69760, Note_on_c, 14, 50, 52
27, 69822, Note_on_c, 14, 46, 0
27, 69822, Note_on_c, 14, 50, 0
27, 69824, Note_on_c, 14, 46, 49
27, 69824, Note_on_c, 14, 50, 44
27, 69886, Note_on_c, 14, 46, 0
27, 69886, Note_on_c, 14, 50, 0
27, 69888, Note_on_c, 14, 49, 42
27, 69918, Note_on_c, 14, 49, 0
27, 69920, Note_on_c, 14, 51, 41
27, 69950, Note_on_c, 14, 51, 0
27, 69952, Note_on_c, 14, 49, 43
27, 69982, Note_on_c, 14, 49, 0
27, 69984, Note_on_c, 14, 51, 48
27, 70014, Note_on_c, 14, 51, 0
27, 70016, Note_on_c, 14, 49, 44
27, 70046, Note_on_c, 14, 49, 0
27, 70048, Note_on_c, 14, 51, 50
27, 70078, Note_on_c, 14, 51, 0
27, 70080, Note_on_c, 14, 49, 54
27, 70110, Note_on_c, 14, 49, 0
27, 70112, Note_on_c, 14, 51, 52
27, 70142, Note_on_c, 14, 51, 0
27, 70144, Note_on_c, 14, 49, 52
27, 70174, Note_on_c, 14, 49, 0
27, 70176, Note_on_c, 14, 51, 57
27, 70206, Note_on_c, 14, 51, 0
27, 70208, Note_on_c, 14, 49, 61
27, 70238, Note_on_c, 14, 49, 0
27, 70240, Note_on_c, 14, 51, 63
27, 70270, Note_on_c, 14, 51, 0
27, 70272, Note_on_c, 14, 49, 59
27, 70366, Note_on_c, 14, 49, 0
27, 71424, Note_on_c, 14, 45, 47
27, 71466, Note_on_c, 14, 45, 0
27, 71488, Note_on_c, 14, 45, 48
27, 71530, Note_on_c, 14, 45, 0
27, 71552, Note_on_c, 14, 45, 46
27, 71594, Note_on_c, 14, 45, 0
27, 71616, Note_on_c, 14, 44, 57
27, 71658, Note_on_c, 14, 44, 0
27, 71680, Note_on_c, 14, 44, 53
27, 71722, Note_on_c, 14, 44, 0
27, 71744, Note_on_c, 14, 44, 59
27, 71786, Note_on_c, 14, 44, 0
27, 71808, Note_on_c, 14, 43, 64
27, 71850, Note_on_c, 14, 43, 0
27, 71872, Note_on_c, 14, 43, 67
27, 71914, Note_on_c, 14, 43, 0
27, 71936, Note_on_c, 14, 43, 78
27, 71978, Note_on_c, 14, 43, 0
27, 72000, Note_on_c, 14, 42, 83
27, 72042, Note_on_c, 14, 42, 0
27, 72064, Note_on_c, 14, 42, 91
27, 72106, Note_on_c, 14, 42, 0
27, 72128, Note_on_c, 14, 42, 88
27, 72170, Note_on_c, 14, 42, 0
27, 72192, Note_on_c, 14, 45, 44
27, 72234, Note_on_c, 14, 45, 0
27, 72256, Note_on_c, 14, 45, 48
27, 72298, Note_on_c, 14, 45, 0
27, 72320, Note_on_c, 14, 45, 46
27, 72362, Note_on_c, 14, 45, 0
27, 72384, Note_on_c, 14, 44, 56
27, 72426, Note_on_c, 14, 44, 0
27, 72448, Note_on_c, 14, 44, 52
27, 72490, Note_on_c, 14, 44, 0
27, 72512, Note_on_c, 14, 44, 59
27, 72554, Note_on_c, 14, 44, 0
27, 72576, Note_on_c, 14, 43, 68
27, 72618, Note_on_c, 14, 43, 0
27, 72640, Note_on_c, 14, 43, 71
27, 72682, Note_on_c, 14, 43, 0
27, 72704, Note_on_c, 14, 43, 69
27, 72746, Note_on_c, 14, 43, 0
27, 72768, Note_on_c, 14, 42, 77
27, 72810, Note_on_c, 14, 42, 0
27, 72832, Note_on_c, 14, 42, 81
27, 72874, Note_on_c, 14, 42, 0
27, 72896, Note_on_c, 14, 42, 87
27, 72938, Note_on_c, 14, 42, 0
27, 72960, Note_on_c, 14, 41, 92
27, 73054, Note_on_c, 14, 41, 0
27, 75264, Control_c, 14, 11, 127
27, 76032, Program_c, 14, 45
27, 76032, Note_on_c, 14, 41, 75
27, 76152, Note_on_c, 14, 41, 0
27, 76224, Note_on_c, 14, 43, 80
27, 76344, Note_on_c, 14, 43, 0
27, 76416, Note_on_c, 14, 47, 74
27, 76891, Note_on_c, 14, 47, 0
27, 76928, Note_on_c, 14, 45, 74
27, 77019, Note_on_c, 14, 45, 0
27, 77056, Note_on_c, 14, 43, 70
27, 77147, Note_on_c, 14, 43, 0
27, 77184, Note_on_c, 14, 41, 79
27, 77304, Note_on_c, 14, 41, 0
27, 77376, Note_on_c, 14, 39, 74
27, 77496, Note_on_c, 14, 39, 0
27, 77568, Note_on_c, 14, 37, 76
27, 77688, Note_on_c, 14, 37, 0
27, 77760, Note_on_c, 14, 41, 76
27, 78096, Note_on_c, 14, 41, 0
27, 78144, Note_on_c, 14, 43, 70
27, 78264, Note_on_c, 14, 43, 0
27, 78336, Note_on_c, 14, 47, 74
27, 78592, Note_on_c, 14, 47, 0
27, 78592, Note_on_c, 14, 45, 72
27, 78848, Note_on_c, 14, 45, 0
27, 78848, Note_on_c, 14, 43, 77
27, 79104, Note_on_c, 14, 43, 0
27, 79104, Note_on_c, 14, 41, 76
27, 79440, Note_on_c, 14, 41, 0
27, 80640, Note_on_c, 14, 45, 73
27, 80760, Note_on_c, 14, 45, 0
27, 80832, Note_on_c, 14, 47, 71
27, 80952, Note_on_c, 14, 47, 0
27, 81024, Note_on_c, 14, 51, 75
27, 81534, Note_on_c, 14, 51, 0
27, 81536, Note_on_c, 14, 49, 72
27, 81627, Note_on_c, 14, 49, 0
27, 81664, Note_on_c, 14, 47, 72
27, 81755, Note_on_c, 14, 47, 0
27, 81792, Note_on_c, 14, 45, 77
27, 81912, Note_on_c, 14, 45, 0
27, 81984, Note_on_c, 14, 43, 79
27, 82104, Note_on_c, 14, 43, 0
27, 82176, Note_on_c, 14, 41, 73
27, 82296, Note_on_c, 14, 41, 0
27, 82368, Note_on_c, 14, 45, 75
27, 82704, Note_on_c, 14, 45, 0
27, 82752, Note_on_c, 14, 47, 76
27, 82872, Note_on_c, 14, 47, 0
27, 82944, Note_on_c, 14, 51, 77
27, 83200, Note_on_c, 14, 51, 0
27, 83200, Note_on_c, 14, 49, 74
27, 83456, Note_on_c, 14, 49, 0
27, 83456, Note_on_c, 14, 47, 71
27, 83712, Note_on_c, 14, 47, 0
27, 83712, Program_c, 14, 48
27, 83712, Note_on_c, 14, 45, 70
27, 85200, Note_on_c, 14, 45, 0
27, 85248, Note_on_c, 14, 47, 72
27, 85368, Note_on_c, 14, 47, 0
27, 85440, Note_on_c, 14, 49, 75
27, 85560, Note_on_c, 14, 49, 0
27, 85632, Note_on_c, 14, 53, 75
27, 86142, Note_on_c, 14, 53, 0
27, 86144, Note_on_c, 14, 51, 74
27, 86235, Note_on_c, 14, 51, 0
27, 86272, Note_on_c, 14, 49, 74
27, 86363, Note_on_c, 14, 49, 0
27, 86400, Note_on_c, 14, 47, 78
27, 86520, Note_on_c, 14, 47, 0
27, 86592, Note_on_c, 14, 45, 76
27, 86712, Note_on_c, 14, 45, 0
27, 86784, Note_on_c, 14, 43, 80
27, 86904, Note_on_c, 14, 43, 0
27, 86976, Note_on_c, 14, 47, 73
27, 87312, Note_on_c, 14, 47, 0
27, 87360, Note_on_c, 14, 49, 75
27, 87480, Note_on_c, 14, 49, 0
27, 87552, Note_on_c, 14, 53, 76
27, 87680, Note_on_c, 14, 53, 0
27, 87680, Note_on_c, 14, 51, 78
27, 87808, Note_on_c, 14, 51, 0
27, 87808, Note_on_c, 14, 49, 73
27, 87936, Note_on_c, 14, 49, 0
27, 87936, Note_on_c, 14, 48, 91
27, 89040, Note_on_c, 14, 48, 0
27, 89088, Note_on_c, 14, 47, 50
27, 89208, Note_on_c, 14, 47, 0
27, 89280, Note_on_c, 14, 49, 42
27, 89400, Note_on_c, 14, 49, 0
27, 89472, Note_on_c, 14, 53, 47
27, 89982, Note_on_c, 14, 53, 0
27, 89984, Note_on_c, 14, 51, 64
27, 90075, Note_on_c, 14, 51, 0
27, 90112, Note_on_c, 14, 49, 59
27, 90203, Note_on_c, 14, 49, 0
27, 90240, Note_on_c, 14, 47, 60
27, 90360, Note_on_c, 14, 47, 0
27, 90432, Note_on_c, 14, 45, 66
27, 90552, Note_on_c, 14, 45, 0
27, 90624, Note_on_c, 14, 43, 74
27, 90744, Note_on_c, 14, 43, 0
27, 90816, Note_on_c, 14, 47, 79
27, 91152, Note_on_c, 14, 47, 0
27, 91200, Note_on_c, 14, 49, 90
27, 91320, Note_on_c, 14, 49, 0
27, 91392, Note_on_c, 14, 53, 89
27, 91518, Note_on_c, 14, 53, 0
27, 91520, Note_on_c, 14, 51, 91
27, 91646, Note_on_c, 14, 51, 0
27, 91648, Note_on_c, 14, 49, 97
27, 91774, Note_on_c, 14, 49, 0
27, 91776, Program_c, 14, 44
27, 91776, Note_on_c, 14, 36, 106
27, 93648, Note_on_c, 14, 36, 0
27, 93696, Program_c, 14, 48
27, 93792, Note_on_c, 14, 42, 108
27, 93824, Note_on_c, 14, 42, 0
27, 93840, Note_on_c, 14, 42, 112
27, 93872, Note_on_c, 14, 42, 0
27, 93888, Note_on_c, 14, 44, 106
27, 93920, Note_on_c, 14, 44, 0
27, 93936, Note_on_c, 14, 44, 109
27, 93968, Note_on_c, 14, 44, 0
27, 93984, Note_on_c, 14, 46, 113
27, 94016, Note_on_c, 14, 46, 0
27, 94032, Note_on_c, 14, 46, 115
27, 94064, Note_on_c, 14, 46, 0
27, 94080, Note_on_c, 14, 48, 113
27, 94112, Note_on_c, 14, 48, 0
27, 94128, Note_on_c, 14, 48, 112
27, 94160, Note_on_c, 14, 48, 0
27, 94176, Note_on_c, 14, 50, 118
27, 94208, Note_on_c, 14, 50, 0
27, 94224, Note_on_c, 14, 50, 119
27, 94256, Note_on_c, 14, 50, 0
27, 94272, Note_on_c, 14, 54, 120
27, 94304, Note_on_c, 14, 54, 0
27, 94320, Note_on_c, 14, 54, 125
27, 94352, Note_on_c, 14, 54, 0
27, 94368, Note_on_c, 14, 56, 127
27, 94400, Note_on_c, 14, 56, 0
27, 94416, Note_on_c, 14, 56, 123
27, 94448, Note_on_c, 14, 56, 0
27, 94560, Note_on_c, 14, 54, 103
27, 94592, Note_on_c, 14, 54, 0
27, 94608, Note_on_c, 14, 54, 107
27, 94640, Note_on_c, 14, 54, 0
27, 94656, Note_on_c, 14, 56, 108
27, 94688, Note_on_c, 14, 56, 0
27, 94704, Note_on_c, 14, 56, 110
27, 94736, Note_on_c, 14, 56, 0
27, 94752, Note_on_c, 14, 58, 108
27, 94784, Note_on_c, 14, 58, 0
27, 94800, Note_on_c, 14, 58, 110
27, 94832, Note_on_c, 14, 58, 0
27, 94848, Note_on_c, 14, 60, 116
27, 94880, Note_on_c, 14, 60, 0
27, 94896, Note_on_c, 14, 60, 111
27, 94928, Note_on_c, 14, 60, 0
27, 94944, Note_on_c, 14, 62, 120
27, 94976, Note_on_c, 14, 62, 0
27, 94992, Note_on_c, 14, 62, 121
27, 95024, Note_on_c, 14, 62, 0
27, 95040, Note_on_c, 14, 66, 125
27, 95072, Note_on_c, 14, 66, 0
27, 95088, Note_on_c, 14, 66, 127
27, 95120, Note_on_c, 14, 66, 0
27, 95136, Note_on_c, 14, 68, 122
27, 95168, Note_on_c, 14, 68, 0
27, 95184, Note_on_c, 14, 68, 127
27, 95216, Note_on_c, 14, 68, 0
27, 95232, Program_c, 14, 44
27, 95232, Note_on_c, 14, 36, 87
27, 96768, Control_c, 14, 11, 127
27, 96799, Control_c, 14, 11, 126
27, 96831, Control_c, 14, 11, 125
27, 96863, Control_c, 14, 11, 124
27, 96894, Control_c, 14, 11, 123
27, 96926, Control_c, 14, 11, 122
27, 96958, Control_c, 14, 11, 121
27, 96989, Control_c, 14, 11, 120
27, 97021, Control_c, 14, 11, 119
27, 97024, Note_on_c, 14, 36, 0
27, 97053, Control_c, 14, 11, 118
27, 97056, Note_on_c, 14, 37, 95
27, 97084, Control_c, 14, 11, 117
27, 97116, Control_c, 14, 11, 116
27, 97148, Control_c, 14, 11, 115
27, 97150, Note_on_c, 14, 37, 0
27, 97152, Note_on_c, 14, 38, 89
27, 97179, Control_c, 14, 11, 114
27, 97211, Control_c, 14, 11, 113
27, 97243, Control_c, 14, 11, 112
27, 97274, Control_c, 14, 11, 111
27, 97306, Control_c, 14, 11, 110
27, 97338, Control_c, 14, 11, 109
27, 97369, Control_c, 14, 11, 108
27, 97401, Control_c, 14, 11, 107
27, 97433, Control_c, 14, 11, 106
27, 97464, Control_c, 14, 11, 105
27, 97496, Control_c, 14, 11, 104
27, 97528, Control_c, 14, 11, 103
27, 97559, Control_c, 14, 11, 102
27, 97591, Control_c, 14, 11, 101
27, 97623, Control_c, 14, 11, 100
27, 97654, Control_c, 14, 11, 99
27, 97686, Control_c, 14, 11, 98
27, 97718, Control_c, 14, 11, 97
27, 97749, Control_c, 14, 11, 96
27, 97781, Control_c, 14, 11, 95
27, 97792, Note_on_c, 14, 38, 0
27, 97813, Control_c, 14, 11, 94
27, 97824, Note_on_c, 14, 39, 89
27, 97844, Control_c, 14, 11, 93
27, 97876, Control_c, 14, 11, 92
27, 97908, Control_c, 14, 11, 91
27, 97918, Note_on_c, 14, 39, 0
27, 97920, Note_on_c, 14, 40, 95
27, 97939, Control_c, 14, 11, 90
27, 97971, Control_c, 14, 11, 89
27, 98003, Control_c, 14, 11, 88
27, 98034, Control_c, 14, 11, 87
27, 98066, Control_c, 14, 11, 86
27, 98098, Control_c, 14, 11, 85
27, 98129, Control_c, 14, 11, 84
27, 98161, Control_c, 14, 11, 83
27, 98176, Note_on_c, 14, 40, 0
27, 98193, Control_c, 14, 11, 82
27, 98208, Note_on_c, 14, 41, 95
27, 98224, Control_c, 14, 11, 81
27, 98256, Control_c, 14, 11, 80
27, 98288, Control_c, 14, 11, 79
27, 98302, Note_on_c, 14, 41, 0
27, 98304, Note_on_c, 14, 36, 97
27, 98319, Control_c, 14, 11, 78
27, 98351, Control_c, 14, 11, 77
27, 98383, Control_c, 14, 11, 76
27, 98414, Control_c, 14, 11, 75
27, 98446, Control_c, 14, 11, 74
27, 98478, Control_c, 14, 11, 73
27, 98509, Control_c, 14, 11, 72
27, 98541, Control_c, 14, 11, 71
27, 98573, Control_c, 14, 11, 70
27, 98604, Control_c, 14, 11, 69
27, 98636, Control_c, 14, 11, 68
27, 98668, Control_c, 14, 11, 67
27, 98699, Control_c, 14, 11, 66
27, 98731, Control_c, 14, 11, 65
27, 98763, Control_c, 14, 11, 64
27, 98794, Control_c, 14, 11, 63
27, 98826, Control_c, 14, 11, 62
27, 98858, Control_c, 14, 11, 61
27, 98889, Control_c, 14, 11, 60
27, 98921, Control_c, 14, 11, 59
27, 98953, Control_c, 14, 11, 58
27, 98984, Control_c, 14, 11, 57
27, 99016, Control_c, 14, 11, 56
27, 99048, Control_c, 14, 11, 55
27, 99079, Control_c, 14, 11, 54
27, 99111, Control_c, 14, 11, 53
27, 99143, Control_c, 14, 11, 52
27, 99174, Control_c, 14, 11, 51
27, 99206, Control_c, 14, 11, 50
27, 99238, Control_c, 14, 11, 49
27, 99269, Control_c, 14, 11, 48
27, 99301, Control_c, 14, 11, 47
27, 99333, Control_c, 14, 11, 46
27, 99364, Control_c, 14, 11, 45
27, 99396, Control_c, 14, 11, 44
27, 99428, Control_c, 14, 11, 43
27, 99459, Control_c, 14, 11, 42
27, 99491, Control_c, 14, 11, 41
27, 99523, Control_c, 14, 11, 40
27, 99554, Control_c, 14, 11, 39
27, 99586, Control_c, 14, 11, 38
27, 99618, Control_c, 14, 11, 37
27, 99649, Control_c, 14, 11, 36
27, 99681, Control_c, 14, 11, 35
27, 99713, Control_c, 14, 11, 34
27, 99744, Control_c, 14, 11, 33
27, 99776, Control_c, 14, 11, 32
27, 99808, Control_c, 14, 11, 31
27, 99840, Control_c, 14, 11, 30
27, 101328, Note_on_c, 14, 36, 0
27, 101376, Program_c, 14, 48
27, 101376, Note_on_c, 14, 36, 91
27, 101536, Note_on_c, 14, 36, 0
27, 102912, Control_c, 14, 11, 127
27, 102912, Note_on_c, 14, 48, 27
27, 102958, Note_on_c, 14, 48, 0
27, 102960, Note_on_c, 14, 49, 29
27, 103006, Note_on_c, 14, 49, 0
27, 103008, Note_on_c, 14, 48, 30
27, 103054, Note_on_c, 14, 48, 0
27, 103056, Note_on_c, 14, 49, 31
27, 103102, Note_on_c, 14, 49, 0
27, 103104, Note_on_c, 14, 48, 25
27, 103150, Note_on_c, 14, 48, 0
27, 103152, Note_on_c, 14, 49, 31
27, 103198, Note_on_c, 14, 49, 0
27, 103200, Note_on_c, 14, 48, 31
27, 103246, Note_on_c, 14, 48, 0
27, 103248, Note_on_c, 14, 49, 25
27, 103294, Note_on_c, 14, 49, 0
27, 103296, Note_on_c, 14, 48, 33
27, 103342, Note_on_c, 14, 48, 0
27, 103344, Note_on_c, 14, 49, 30
27, 103390, Note_on_c, 14, 49, 0
27, 103392, Note_on_c, 14, 48, 35
27, 103438, Note_on_c, 14, 48, 0
27, 103440, Note_on_c, 14, 49, 35
27, 103486, Note_on_c, 14, 49, 0
27, 103488, Note_on_c, 14, 48, 32
27, 103534, Note_on_c, 14, 48, 0
27, 103536, Note_on_c, 14, 49, 33
27, 103582, Note_on_c, 14, 49, 0
27, 103584, Note_on_c, 14, 48, 27
27, 103630, Note_on_c, 14, 48, 0
27, 103632, Note_on_c, 14, 49, 33
27, 103678, Note_on_c, 14, 49, 0
27, 103680, Note_on_c, 14, 48, 33
27, 103726, Note_on_c, 14, 48, 0
27, 103728, Note_on_c, 14, 49, 35
27, 103774, Note_on_c, 14, 49, 0
27, 103776, Note_on_c, 14, 48, 32
27, 103822, Note_on_c, 14, 48, 0
27, 103824, Note_on_c, 14, 49, 29
27, 103870, Note_on_c, 14, 49, 0
27, 103872, Note_on_c, 14, 48, 32
27, 103918, Note_on_c, 14, 48, 0
27, 103920, Note_on_c, 14, 49, 34
27, 103966, Note_on_c, 14, 49, 0
27, 103968, Note_on_c, 14, 48, 26
27, 104014, Note_on_c, 14, 48, 0
27, 104016, Note_on_c, 14, 49, 32
27, 104062, Note_on_c, 14, 49, 0
27, 104064, Note_on_c, 14, 48, 28
27, 104110, Note_on_c, 14, 48, 0
27, 104112, Note_on_c, 14, 49, 32
27, 104158, Note_on_c, 14, 49, 0
27, 104160, Note_on_c, 14, 48, 25
27, 104206, Note_on_c, 14, 48, 0
27, 104208, Note_on_c, 14, 49, 31
27, 104254, Note_on_c, 14, 49, 0
27, 104256, Note_on_c, 14, 48, 35
27, 104302, Note_on_c, 14, 48, 0
27, 104304, Note_on_c, 14, 49, 27
27, 104350, Note_on_c, 14, 49, 0
27, 104352, Note_on_c, 14, 48, 27
27, 104398, Note_on_c, 14, 48, 0
27, 104400, Note_on_c, 14, 49, 25
27, 104446, Note_on_c, 14, 49, 0
27, 104448, Note_on_c, 14, 48, 31
27, 104494, Note_on_c, 14, 48, 0
27, 104496, Note_on_c, 14, 49, 26
27, 104542, Note_on_c, 14, 49, 0
27, 104544, Note_on_c, 14, 48, 25
27, 104590, Note_on_c, 14, 48, 0
27, 104592, Note_on_c, 14, 49, 32
27, 104638, Note_on_c, 14, 49, 0
27, 104640, Note_on_c, 14, 48, 28
27, 104686, Note_on_c, 14, 48, 0
27, 104688, Note_on_c, 14, 49, 28
27, 104734, Note_on_c, 14, 49, 0
27, 104736, Note_on_c, 14, 48, 31
27, 104782, Note_on_c, 14, 48, 0
27, 104784, Note_on_c, 14, 49, 35
27, 104830, Note_on_c, 14, 49, 0
27, 104832, Note_on_c, 14, 48, 34
27, 104878, Note_on_c, 14, 48, 0
27, 104880, Note_on_c, 14, 49, 34
27, 104926, Note_on_c, 14, 49, 0
27, 104928, Note_on_c, 14, 48, 31
27, 104974, Note_on_c, 14, 48, 0
27, 104976, Note_on_c, 14, 49, 32
27, 105022, Note_on_c, 14, 49, 0
27, 105024, Note_on_c, 14, 48, 29
27, 105070, Note_on_c, 14, 48, 0
27, 105072, Note_on_c, 14, 49, 28
27, 105118, Note_on_c, 14, 49, 0
27, 105120, Note_on_c, 14, 48, 33
27, 105166, Note_on_c, 14, 48, 0
27, 105168, Note_on_c, 14, 49, 28
27, 105214, Note_on_c, 14, 49, 0
27, 105216, Note_on_c, 14, 48, 32
27, 105262, Note_on_c, 14, 48, 0
27, 105264, Note_on_c, 14, 46, 25
27, 105310, Note_on_c, 14, 46, 0
27, 105312, Note_on_c, 14, 48, 30
27, 105358, Note_on_c, 14, 48, 0
27, 105360, Note_on_c, 14, 46, 29
27, 105406, Note_on_c, 14, 46, 0
27, 105408, Note_on_c, 14, 48, 32
27, 105454, Note_on_c, 14, 48, 0
27, 105456, Note_on_c, 14, 46, 39
27, 105502, Note_on_c, 14, 46, 0
27, 105504, Note_on_c, 14, 48, 40
27, 105550, Note_on_c, 14, 48, 0
27, 105552, Note_on_c, 14, 46, 43
27, 105598, Note_on_c, 14, 46, 0
27, 105600, Note_on_c, 14, 48, 46
27, 105646, Note_on_c, 14, 48, 0
27, 105648, Note_on_c, 14, 46, 46
27, 105694, Note_on_c, 14, 46, 0
27, 105696, Note_on_c, 14, 48, 44
27, 105742, Note_on_c, 14, 48, 0
27, 105744, Note_on_c, 14, 46, 48
27, 105790, Note_on_c, 14, 46, 0
27, 105792, Note_on_c, 14, 48, 47
27, 105838, Note_on_c, 14, 48, 0
27, 105840, Note_on_c, 14, 46, 55
27, 105886, Note_on_c, 14, 46, 0
27, 105888, Note_on_c, 14, 48, 52
27, 105934, Note_on_c, 14, 48, 0
27, 105936, Note_on_c, 14, 46, 64
27, 105982, Note_on_c, 14, 46, 0
27, 105984, Note_on_c, 14, 44, 34
27, 106752, Control_c, 14, 11, 127
27, 106758, Control_c, 14, 11, 126
27, 106764, Control_c, 14, 11, 125
27, 106770, Control_c, 14, 11, 124
27, 106776, Control_c, 14, 11, 123
27, 106782, Control_c, 14, 11, 122
27, 106788, Control_c, 14, 11, 121
27, 106794, Control_c, 14, 11, 120
27, 106800, Control_c, 14, 11, 119
27, 106806, Control_c, 14, 11, 118
27, 106812, Control_c, 14, 11, 117
27, 106819, Control_c, 14, 11, 116
27, 106825, Control_c, 14, 11, 115
27, 106831, Control_c, 14, 11, 114
27, 106837, Control_c, 14, 11, 113
27, 106843, Control_c, 14, 11, 112
27, 106849, Control_c, 14, 11, 111
27, 106855, Control_c, 14, 11, 110
27, 106861, Control_c, 14, 11, 109
27, 106867, Control_c, 14, 11, 108
27, 106873, Control_c, 14, 11, 107
27, 106880, Control_c, 14, 11, 106
27, 106886, Control_c, 14, 11, 105
27, 106892, Control_c, 14, 11, 104
27, 106898, Control_c, 14, 11, 103
27, 106904, Control_c, 14, 11, 102
27, 106910, Control_c, 14, 11, 101
27, 106916, Control_c, 14, 11, 100
27, 106922, Control_c, 14, 11, 99
27, 106928, Control_c, 14, 11, 98
27, 106934, Control_c, 14, 11, 97
27, 106940, Control_c, 14, 11, 96
27, 106947, Control_c, 14, 11, 95
27, 106953, Control_c, 14, 11, 94
27, 106959, Control_c, 14, 11, 93
27, 106965, Control_c, 14, 11, 92
27, 106971, Control_c, 14, 11, 91
27, 106977, Control_c, 14, 11, 90
27, 106983, Control_c, 14, 11, 89
27, 106989, Control_c, 14, 11, 88
27, 106995, Control_c, 14, 11, 87
27, 107001, Control_c, 14, 11, 86
27, 107008, Control_c, 14, 11, 85
27, 107014, Control_c, 14, 11, 84
27, 107020, Control_c, 14, 11, 83
27, 107026, Control_c, 14, 11, 82
27, 107032, Control_c, 14, 11, 81
27, 107038, Control_c, 14, 11, 80
27, 107044, Control_c, 14, 11, 79
27, 107050, Control_c, 14, 11, 78
27, 107056, Control_c, 14, 11, 77
27, 107062, Control_c, 14, 11, 76
27, 107068, Control_c, 14, 11, 75
27, 107075, Control_c, 14, 11, 74
27, 107081, Control_c, 14, 11, 73
27, 107087, Control_c, 14, 11, 72
27, 107088, Note_on_c, 14, 44, 0
27, 107093, Control_c, 14, 11, 71
27, 107099, Control_c, 14, 11, 70
27, 107105, Control_c, 14, 11, 69
27, 107111, Control_c, 14, 11, 68
27, 107117, Control_c, 14, 11, 67
27, 107123, Control_c, 14, 11, 66
27, 107129, Control_c, 14, 11, 65
27, 107136, Control_c, 14, 11, 64
27, 107520, Control_c, 14, 11, 127
27, 107520, Note_on_c, 14, 39, 27
27, 107566, Note_on_c, 14, 39, 0
27, 107568, Note_on_c, 14, 41, 27
27, 107614, Note_on_c, 14, 41, 0
27, 107616, Note_on_c, 14, 39, 34
27, 107662, Note_on_c, 14, 39, 0
27, 107664, Note_on_c, 14, 41, 26
27, 107710, Note_on_c, 14, 41, 0
27, 107712, Note_on_c, 14, 39, 26
27, 107758, Note_on_c, 14, 39, 0
27, 107760, Note_on_c, 14, 41, 27
27, 107806, Note_on_c, 14, 41, 0
27, 107808, Note_on_c, 14, 39, 26
27, 107854, Note_on_c, 14, 39, 0
27, 107856, Note_on_c, 14, 41, 33
27, 107902, Note_on_c, 14, 41, 0
27, 107904, Note_on_c, 14, 39, 34
27, 107950, Note_on_c, 14, 39, 0
27, 107952, Note_on_c, 14, 41, 30
27, 107998, Note_on_c, 14, 41, 0
27, 108000, Note_on_c, 14, 39, 28
27, 108046, Note_on_c, 14, 39, 0
27, 108048, Note_on_c, 14, 41, 35
27, 108094, Note_on_c, 14, 41, 0
27, 108096, Note_on_c, 14, 39, 30
27, 108142, Note_on_c, 14, 39, 0
27, 108144, Note_on_c, 14, 41, 26
27, 108190, Note_on_c, 14, 41, 0
27, 108192, Note_on_c, 14, 39, 27
27, 108238, Note_on_c, 14, 39, 0
27, 108240, Note_on_c, 14, 41, 33
27, 108286, Note_on_c, 14, 41, 0
27, 108288, Note_on_c, 14, 42, 26
27, 108334, Note_on_c, 14, 42, 0
27, 108336, Note_on_c, 14, 44, 33
27, 108382, Note_on_c, 14, 44, 0
27, 108384, Note_on_c, 14, 42, 31
27, 108430, Note_on_c, 14, 42, 0
27, 108432, Note_on_c, 14, 44, 28
27, 108478, Note_on_c, 14, 44, 0
27, 108480, Note_on_c, 14, 42, 32
27, 108526, Note_on_c, 14, 42, 0
27, 108528, Note_on_c, 14, 44, 30
27, 108574, Note_on_c, 14, 44, 0
27, 108576, Note_on_c, 14, 42, 27
27, 108622, Note_on_c, 14, 42, 0
27, 108624, Note_on_c, 14, 44, 34
27, 108670, Note_on_c, 14, 44, 0
27, 108672, Note_on_c, 14, 42, 26
27, 108718, Note_on_c, 14, 42, 0
27, 108720, Note_on_c, 14, 44, 30
27, 108766, Note_on_c, 14, 44, 0
27, 108768, Note_on_c, 14, 42, 25
27, 108814, Note_on_c, 14, 42, 0
27, 108816, Note_on_c, 14, 44, 26
27, 108862, Note_on_c, 14, 44, 0
27, 108864, Note_on_c, 14, 42, 35
27, 108910, Note_on_c, 14, 42, 0
27, 108912, Note_on_c, 14, 44, 30
27, 108958, Note_on_c, 14, 44, 0
27, 108960, Note_on_c, 14, 42, 26
27, 109006, Note_on_c, 14, 42, 0
27, 109008, Note_on_c, 14, 44, 32
27, 109054, Note_on_c, 14, 44, 0
27, 109056, Note_on_c, 14, 42, 27
27, 109102, Note_on_c, 14, 42, 0
27, 109104, Note_on_c, 14, 41, 35
27, 109150, Note_on_c, 14, 41, 0
27, 109152, Note_on_c, 14, 42, 35
27, 109198, Note_on_c, 14, 42, 0
27, 109200, Note_on_c, 14, 41, 36
27, 109246, Note_on_c, 14, 41, 0
27, 109248, Note_on_c, 14, 42, 35
27, 109294, Note_on_c, 14, 42, 0
27, 109296, Note_on_c, 14, 41, 43
27, 109342, Note_on_c, 14, 41, 0
27, 109344, Note_on_c, 14, 42, 45
27, 109390, Note_on_c, 14, 42, 0
27, 109392, Note_on_c, 14, 41, 38
27, 109438, Note_on_c, 14, 41, 0
27, 109440, Note_on_c, 14, 42, 47
27, 109486, Note_on_c, 14, 42, 0
27, 109488, Note_on_c, 14, 41, 41
27, 109534, Note_on_c, 14, 41, 0
27, 109536, Note_on_c, 14, 42, 43
27, 109582, Note_on_c, 14, 42, 0
27, 109584, Note_on_c, 14, 41, 47
27, 109630, Note_on_c, 14, 41, 0
27, 109632, Note_on_c, 14, 42, 50
27, 109678, Note_on_c, 14, 42, 0
27, 109680, Note_on_c, 14, 41, 52
27, 109726, Note_on_c, 14, 41, 0
27, 109728, Note_on_c, 14, 42, 61
27, 109774, Note_on_c, 14, 42, 0
27, 109776, Note_on_c, 14, 41, 55
27, 109822, Note_on_c, 14, 41, 0
27, 109824, Note_on_c, 14, 41, 62
27, 109870, Note_on_c, 14, 41, 0
27, 109872, Note_on_c, 14, 39, 60
27, 109918, Note_on_c, 14, 39, 0
27, 109920, Note_on_c, 14, 41, 63
27, 109966, Note_on_c, 14, 41, 0
27, 109968, Note_on_c, 14, 39, 57
27, 110014, Note_on_c, 14, 39, 0
27, 110016, Note_on_c, 14, 41, 50
27, 110062, Note_on_c, 14, 41, 0
27, 110064, Note_on_c, 14, 39, 51
27, 110110, Note_on_c, 14, 39, 0
27, 110112, Note_on_c, 14, 41, 48
27, 110158, Note_on_c, 14, 41, 0
27, 110160, Note_on_c, 14, 39, 46
27, 110206, Note_on_c, 14, 39, 0
27, 110208, Note_on_c, 14, 41, 51
27, 110254, Note_on_c, 14, 41, 0
27, 110256, Note_on_c, 14, 39, 47
27, 110302, Note_on_c, 14, 39, 0
27, 110304, Note_on_c, 14, 41, 37
27, 110350, Note_on_c, 14, 41, 0
27, 110352, Note_on_c, 14, 39, 43
27, 110398, Note_on_c, 14, 39, 0
27, 110400, Note_on_c, 14, 41, 38
27, 110446, Note_on_c, 14, 41, 0
27, 110448, Note_on_c, 14, 39, 40
27, 110494, Note_on_c, 14, 39, 0
27, 110496, Note_on_c, 14, 41, 30
27, 110542, Note_on_c, 14, 41, 0
27, 110544, Note_on_c, 14, 39, 31
27, 110590, Note_on_c, 14, 39, 0
27, 110592, Note_on_c, 14, 38, 30
27, 111360, Control_c, 14, 11, 127
27, 111372, Control_c, 14, 11, 126
27, 111384, Control_c, 14, 11, 125
27, 111396, Control_c, 14, 11, 124
27, 111408, Control_c, 14, 11, 123
27, 111420, Control_c, 14, 11, 122
27, 111433, Control_c, 14, 11, 121
27, 111445, Control_c, 14, 11, 120
27, 111457, Control_c, 14, 11, 119
27, 111469, Control_c, 14, 11, 118
27, 111481, Control_c, 14, 11, 117
27, 111494, Control_c, 14, 11, 116
27, 111506, Control_c, 14, 11, 115
27, 111518, Control_c, 14, 11, 114
27, 111530, Control_c, 14, 11, 113
27, 111542, Control_c, 14, 11, 112
27, 111555, Control_c, 14, 11, 111
27, 111567, Control_c, 14, 11, 110
27, 111579, Control_c, 14, 11, 109
27, 111591, Control_c, 14, 11, 108
27, 111603, Control_c, 14, 11, 107
27, 111616, Control_c, 14, 11, 106
27, 111628, Control_c, 14, 11, 105
27, 111640, Control_c, 14, 11, 104
27, 111652, Control_c, 14, 11, 103
27, 111664, Control_c, 14, 11, 102
27, 111676, Control_c, 14, 11, 101
27, 111689, Control_c, 14, 11, 100
27, 111701, Control_c, 14, 11, 99
27, 111713, Control_c, 14, 11, 98
27, 111725, Control_c, 14, 11, 97
27, 111737, Control_c, 14, 11, 96
27, 111750, Control_c, 14, 11, 95
27, 111762, Control_c, 14, 11, 94
27, 111774, Control_c, 14, 11, 93
27, 111786, Control_c, 14, 11, 92
27, 111798, Control_c, 14, 11, 91
27, 111811, Control_c, 14, 11, 90
27, 111823, Control_c, 14, 11, 89
27, 111835, Control_c, 14, 11, 88
27, 111847, Control_c, 14, 11, 87
27, 111859, Control_c, 14, 11, 86
27, 111872, Control_c, 14, 11, 85
27, 111884, Control_c, 14, 11, 84
27, 111896, Control_c, 14, 11, 83
27, 111908, Control_c, 14, 11, 82
27, 111920, Control_c, 14, 11, 81
27, 111932, Control_c, 14, 11, 80
27, 111945, Control_c, 14, 11, 79
27, 111957, Control_c, 14, 11, 78
27, 111969, Control_c, 14, 11, 77
27, 111981, Control_c, 14, 11, 76
27, 111993, Control_c, 14, 11, 75
27, 112006, Control_c, 14, 11, 74
27, 112018, Control_c, 14, 11, 73
27, 112030, Control_c, 14, 11, 72
27, 112042, Control_c, 14, 11, 71
27, 112054, Control_c, 14, 11, 70
27, 112067, Control_c, 14, 11, 69
27, 112079, Control_c, 14, 11, 68
27, 112080, Note_on_c, 14, 38, 0
27, 112091, Control_c, 14, 11, 67
27, 112103, Control_c, 14, 11, 66
27, 112115, Control_c, 14, 11, 65
27, 112128, Control_c, 14, 11, 64
27, 112896, Control_c, 14, 11, 127
27, 114432, Note_on_c, 14, 51, 72
27, 114624, Note_on_c, 14, 51, 0
27, 114624, Note_on_c, 14, 49, 73
27, 114816, Note_on_c, 14, 49, 0
27, 114816, Note_on_c, 14, 47, 59
27, 114944, Note_on_c, 14, 47, 0
27, 114944, Note_on_c, 14, 44, 53
27, 115072, Note_on_c, 14, 44, 0
27, 115072, Note_on_c, 14, 47, 56
27, 115198, Note_on_c, 14, 47, 0
27, 115200, Note_on_c, 14, 48, 46
27, 115392, Note_on_c, 14, 48, 0
27, 115392, Note_on_c, 14, 49, 42
27, 115584, Note_on_c, 14, 49, 0
27, 115584, Note_on_c, 14, 46, 40
27, 115675, Note_on_c, 14, 46, 0
27, 115712, Note_on_c, 14, 44, 50
27, 115803, Note_on_c, 14, 44, 0
27, 115840, Note_on_c, 14, 46, 70
27, 115931, Note_on_c, 14, 46, 0
27, 115968, Note_on_c, 14, 58, 74
27, 116160, Note_on_c, 14, 58, 0
27, 116160, Note_on_c, 14, 57, 71
27, 116352, Note_on_c, 14, 57, 0
27, 116352, Note_on_c, 14, 56, 66
27, 116544, Note_on_c, 14, 56, 0
27, 116544, Note_on_c, 14, 55, 51
27, 116704, Note_on_c, 14, 55, 0
27, 116736, Note_on_c, 14, 48, 42
27, 116928, Note_on_c, 14, 48, 0
27, 116928, Note_on_c, 14, 49, 40
27, 117120, Note_on_c, 14, 49, 0
27, 117120, Note_on_c, 14, 46, 39
27, 117248, Note_on_c, 14, 46, 0
27, 117248, Note_on_c, 14, 44, 39
27, 117376, Note_on_c, 14, 44, 0
27, 117376, Note_on_c, 14, 46, 38
27, 117504, Note_on_c, 14, 46, 0
27, 117504, Note_on_c, 14, 48, 40
27, 117696, Note_on_c, 14, 48, 0
27, 117696, Note_on_c, 14, 49, 39
27, 117888, Note_on_c, 14, 49, 0
27, 117888, Note_on_c, 14, 46, 34
27, 118080, Note_on_c, 14, 46, 0
27, 118080, Note_on_c, 14, 49, 28
27, 118240, Note_on_c, 14, 49, 0
27, 118272, Note_on_c, 14, 44, 95
27, 118302, Note_on_c, 14, 44, 0
27, 118304, Note_on_c, 14, 45, 97
27, 118334, Note_on_c, 14, 45, 0
27, 118336, Note_on_c, 14, 44, 90
27, 118366, Note_on_c, 14, 44, 0
27, 118368, Note_on_c, 14, 45, 93
27, 118398, Note_on_c, 14, 45, 0
27, 118400, Note_on_c, 14, 44, 87
27, 118430, Note_on_c, 14, 44, 0
27, 118432, Note_on_c, 14, 45, 88
27, 118462, Note_on_c, 14, 45, 0
27, 118464, Note_on_c, 14, 44, 87
27, 118494, Note_on_c, 14, 44, 0
27, 118496, Note_on_c, 14, 45, 89
27, 118526, Note_on_c, 14, 45, 0
27, 118528, Note_on_c, 14, 44, 84
27, 118558, Note_on_c, 14, 44, 0
27, 118560, Note_on_c, 14, 45, 82
27, 118590, Note_on_c, 14, 45, 0
27, 118592, Note_on_c, 14, 44, 82
27, 118622, Note_on_c, 14, 44, 0
27, 118624, Note_on_c, 14, 45, 77
27, 118654, Note_on_c, 14, 45, 0
27, 118656, Note_on_c, 14, 44, 77
27, 118686, Note_on_c, 14, 44, 0
27, 118688, Note_on_c, 14, 45, 76
27, 118718, Note_on_c, 14, 45, 0
27, 118720, Note_on_c, 14, 44, 82
27, 118750, Note_on_c, 14, 44, 0
27, 118752, Note_on_c, 14, 45, 75
27, 118782, Note_on_c, 14, 45, 0
27, 118784, Note_on_c, 14, 44, 81
27, 118814, Note_on_c, 14, 44, 0
27, 118816, Note_on_c, 14, 45, 79
27, 118846, Note_on_c, 14, 45, 0
27, 118848, Note_on_c, 14, 44, 71
27, 118878, Note_on_c, 14, 44, 0
27, 118880, Note_on_c, 14, 45, 66
27, 118910, Note_on_c, 14, 45, 0
27, 118912, Note_on_c, 14, 44, 63
27, 118942, Note_on_c, 14, 44, 0
27, 118944, Note_on_c, 14, 45, 69
27, 118974, Note_on_c, 14, 45, 0
27, 118976, Note_on_c, 14, 44, 60
27, 119006, Note_on_c, 14, 44, 0
27, 119008, Note_on_c, 14, 45, 63
27, 119038, Note_on_c, 14, 45, 0
27, 119040, Note_on_c, 14, 44, 59
27, 119070, Note_on_c, 14, 44, 0
27, 119072, Note_on_c, 14, 45, 63
27, 119102, Note_on_c, 14, 45, 0
27, 119104, Note_on_c, 14, 44, 58
27, 119134, Note_on_c, 14, 44, 0
27, 119136, Note_on_c, 14, 45, 55
27, 119166, Note_on_c, 14, 45, 0
27, 119168, Note_on_c, 14, 44, 65
27, 119198, Note_on_c, 14, 44, 0
27, 119200, Note_on_c, 14, 45, 65
27, 119230, Note_on_c, 14, 45, 0
27, 119232, Note_on_c, 14, 44, 63
27, 119262, Note_on_c, 14, 44, 0
27, 119264, Note_on_c, 14, 45, 62
27, 119294, Note_on_c, 14, 45, 0
27, 119296, Note_on_c, 14, 44, 56
27, 119326, Note_on_c, 14, 44, 0
27, 119328, Note_on_c, 14, 45, 64
27, 119358, Note_on_c, 14, 45, 0
27, 119360, Note_on_c, 14, 44, 64
27, 119390, Note_on_c, 14, 44, 0
27, 119392, Note_on_c, 14, 45, 57
27, 119422, Note_on_c, 14, 45, 0
27, 119424, Note_on_c, 14, 44, 59
27, 119454, Note_on_c, 14, 44, 0
27, 119456, Note_on_c, 14, 45, 59
27, 119486, Note_on_c, 14, 45, 0
27, 119488, Note_on_c, 14, 44, 57
27, 119518, Note_on_c, 14, 44, 0
27, 119520, Note_on_c, 14, 45, 56
27, 119550, Note_on_c, 14, 45, 0
27, 119552, Note_on_c, 14, 44, 49
27, 119582, Note_on_c, 14, 44, 0
27, 119584, Note_on_c, 14, 45, 52
27, 119614, Note_on_c, 14, 45, 0
27, 119616, Note_on_c, 14, 44, 49
27, 119646, Note_on_c, 14, 44, 0
27, 119648, Note_on_c, 14, 45, 55
27, 119678, Note_on_c, 14, 45, 0
27, 119680, Note_on_c, 14, 44, 45
27, 119710, Note_on_c, 14, 44, 0
27, 119712, Note_on_c, 14, 45, 47
27, 119742, Note_on_c, 14, 45, 0
27, 119744, Note_on_c, 14, 44, 44
27, 119774, Note_on_c, 14, 44, 0
27, 119776, Note_on_c, 14, 45, 44
27, 119806, Note_on_c, 14, 45, 0
27, 119808, Note_on_c, 14, 44, 50
27, 119838, Note_on_c, 14, 44, 0
27, 119840, Note_on_c, 14, 46, 48
27, 119870, Note_on_c, 14, 46, 0
27, 119872, Note_on_c, 14, 44, 50
27, 119902, Note_on_c, 14, 44, 0
27, 119904, Note_on_c, 14, 46, 42
27, 119934, Note_on_c, 14, 46, 0
27, 119936, Note_on_c, 14, 44, 50
27, 119966, Note_on_c, 14, 44, 0
27, 119968, Note_on_c, 14, 46, 48
27, 119998, Note_on_c, 14, 46, 0
27, 120000, Note_on_c, 14, 44, 46
27, 120030, Note_on_c, 14, 44, 0
27, 120032, Note_on_c, 14, 46, 40
27, 120062, Note_on_c, 14, 46, 0
27, 120064, Note_on_c, 14, 44, 47
27, 120094, Note_on_c, 14, 44, 0
27, 120096, Note_on_c, 14, 46, 44
27, 120126, Note_on_c, 14, 46, 0
27, 120128, Note_on_c, 14, 44, 44
27, 120158, Note_on_c, 14, 44, 0
27, 120160, Note_on_c, 14, 46, 46
27, 120190, Note_on_c, 14, 46, 0
27, 120192, Note_on_c, 14, 44, 46
27, 120222, Note_on_c, 14, 44, 0
27, 120224, Note_on_c, 14, 46, 45
27, 120254, Note_on_c, 14, 46, 0
27, 120256, Note_on_c, 14, 44, 36
27, 120286, Note_on_c, 14, 44, 0
27, 120288, Note_on_c, 14, 46, 43
27, 120318, Note_on_c, 14, 46, 0
27, 120320, Note_on_c, 14, 44, 40
27, 120350, Note_on_c, 14, 44, 0
27, 120352, Note_on_c, 14, 46, 40
27, 120382, Note_on_c, 14, 46, 0
27, 120384, Note_on_c, 14, 44, 31
27, 120414, Note_on_c, 14, 44, 0
27, 120416, Note_on_c, 14, 46, 32
27, 120446, Note_on_c, 14, 46, 0
27, 120448, Note_on_c, 14, 44, 35
27, 120478, Note_on_c, 14, 44, 0
27, 120480, Note_on_c, 14, 46, 30
27, 120510, Note_on_c, 14, 46, 0
27, 120512, Note_on_c, 14, 44, 27
27, 120542, Note_on_c, 14, 44, 0
27, 120544, Note_on_c, 14, 46, 29
27, 120574, Note_on_c, 14, 46, 0
27, 120576, Note_on_c, 14, 44, 27
27, 120606, Note_on_c, 14, 44, 0
27, 120608, Note_on_c, 14, 46, 25
27, 120638, Note_on_c, 14, 46, 0
27, 120640, Note_on_c, 14, 44, 28
27, 120670, Note_on_c, 14, 44, 0
27, 120672, Note_on_c, 14, 46, 30
27, 120702, Note_on_c, 14, 46, 0
27, 120704, Note_on_c, 14, 44, 31
27, 120734, Note_on_c, 14, 44, 0
27, 120736, Note_on_c, 14, 46, 26
27, 120766, Note_on_c, 14, 46, 0
27, 120768, Note_on_c, 14, 44, 25
27, 120798, Note_on_c, 14, 44, 0
27, 120800, Note_on_c, 14, 46, 28
27, 120830, Note_on_c, 14, 46, 0
27, 120832, Note_on_c, 14, 44, 25
27, 120862, Note_on_c, 14, 44, 0
27, 120864, Note_on_c, 14, 46, 27
27, 120894, Note_on_c, 14, 46, 0
27, 120896, Note_on_c, 14, 44, 31
27, 120926, Note_on_c, 14, 44, 0
27, 120928, Note_on_c, 14, 46, 33
27, 120958, Note_on_c, 14, 46, 0
27, 120960, Note_on_c, 14, 44, 27
27, 120990, Note_on_c, 14, 44, 0
27, 120992, Note_on_c, 14, 46, 29
27, 121022, Note_on_c, 14, 46, 0
27, 121024, Note_on_c, 14, 44, 33
27, 121054, Note_on_c, 14, 44, 0
27, 121056, Note_on_c, 14, 46, 32
27, 121086, Note_on_c, 14, 46, 0
27, 121088, Note_on_c, 14, 44, 32
27, 121118, Note_on_c, 14, 44, 0
27, 121120, Note_on_c, 14, 46, 28
27, 121150, Note_on_c, 14, 46, 0
27, 121152, Note_on_c, 14, 44, 31
27, 121182, Note_on_c, 14, 44, 0
27, 121184, Note_on_c, 14, 46, 26
27, 121214, Note_on_c, 14, 46, 0
27, 121216, Note_on_c, 14, 44, 34
27, 121246, Note_on_c, 14, 44, 0
27, 121248, Note_on_c, 14, 46, 32
27, 121278, Note_on_c, 14, 46, 0
27, 121280, Note_on_c, 14, 44, 25
27, 121310, Note_on_c, 14, 44, 0
27, 121312, Note_on_c, 14, 46, 25
27, 121342, Note_on_c, 14, 46, 0
27, 121344, Note_on_c, 14, 44, 26
27, 121390, Note_on_c, 14, 44, 0
27, 121392, Note_on_c, 14, 37, 28
27, 121438, Note_on_c, 14, 37, 0
27, 121440, Note_on_c, 14, 44, 29
27, 121486, Note_on_c, 14, 44, 0
27, 121488, Note_on_c, 14, 37, 20
27, 121534, Note_on_c, 14, 37, 0
27, 121536, Note_on_c, 14, 44, 21
27, 121582, Note_on_c, 14, 44, 0
27, 121584, Note_on_c, 14, 37, 25
27, 121630, Note_on_c, 14, 37, 0
27, 121632, Note_on_c, 14, 44, 26
27, 121678, Note_on_c, 14, 44, 0
27, 121680, Note_on_c, 14, 37, 26
27, 121726, Note_on_c, 14, 37, 0
27, 121728, Note_on_c, 14, 44, 27
27, 121774, Note_on_c, 14, 44, 0
27, 121776, Note_on_c, 14, 37, 26
27, 121822, Note_on_c, 14, 37, 0
27, 121824, Note_on_c, 14, 44, 28
27, 121870, Note_on_c, 14, 44, 0
27, 121872, Note_on_c, 14, 37, 28
27, 121918, Note_on_c, 14, 37, 0
27, 121920, Note_on_c, 14, 44, 26
27, 121966, Note_on_c, 14, 44, 0
27, 121968, Note_on_c, 14, 37, 24
27, 122014, Note_on_c, 14, 37, 0
27, 122016, Note_on_c, 14, 44, 25
27, 122062, Note_on_c, 14, 44, 0
27, 122064, Note_on_c, 14, 37, 20
27, 122110, Note_on_c, 14, 37, 0
27, 122112, Note_on_c, 14, 44, 30
27, 122158, Note_on_c, 14, 44, 0
27, 122160, Note_on_c, 14, 37, 24
27, 122206, Note_on_c, 14, 37, 0
27, 122208, Note_on_c, 14, 44, 23
27, 122254, Note_on_c, 14, 44, 0
27, 122256, Note_on_c, 14, 37, 26
27, 122302, Note_on_c, 14, 37, 0
27, 122304, Note_on_c, 14, 44, 26
27, 122350, Note_on_c, 14, 44, 0
27, 122352, Note_on_c, 14, 37, 22
27, 122398, Note_on_c, 14, 37, 0
27, 122400, Note_on_c, 14, 44, 26
27, 122446, Note_on_c, 14, 44, 0
27, 122448, Note_on_c, 14, 37, 29
27, 122494, Note_on_c, 14, 37, 0
27, 122496, Note_on_c, 14, 44, 23
27, 122542, Note_on_c, 14, 44, 0
27, 122544, Note_on_c, 14, 37, 20
27, 122590, Note_on_c, 14, 37, 0
27, 122592, Note_on_c, 14, 44, 25
27, 122638, Note_on_c, 14, 44, 0
27, 122640, Note_on_c, 14, 37, 22
27, 122686, Note_on_c, 14, 37, 0
27, 122688, Note_on_c, 14, 44, 29
27, 122734, Note_on_c, 14, 44, 0
27, 122736, Note_on_c, 14, 37, 28
27, 122782, Note_on_c, 14, 37, 0
27, 122784, Note_on_c, 14, 44, 26
27, 122830, Note_on_c, 14, 44, 0
27, 122832, Note_on_c, 14, 37, 22
27, 122878, Note_on_c, 14, 37, 0
27, 122880, Note_on_c, 14, 37, 29
27, 122926, Note_on_c, 14, 37, 0
27, 122928, Note_on_c, 14, 44, 23
27, 122974, Note_on_c, 14, 44, 0
27, 122976, Note_on_c, 14, 37, 24
27, 123022, Note_on_c, 14, 37, 0
27, 123024, Note_on_c, 14, 44, 23
27, 123070, Note_on_c, 14, 44, 0
27, 123072, Note_on_c, 14, 37, 22
27, 123118, Note_on_c, 14, 37, 0
27, 123120, Note_on_c, 14, 44, 21
27, 123166, Note_on_c, 14, 44, 0
27, 123168, Note_on_c, 14, 37, 29
27, 123214, Note_on_c, 14, 37, 0
27, 123216, Note_on_c, 14, 44, 22
27, 123262, Note_on_c, 14, 44, 0
27, 123264, Note_on_c, 14, 37, 20
27, 123310, Note_on_c, 14, 37, 0
27, 123312, Note_on_c, 14, 44, 24
27, 123358, Note_on_c, 14, 44, 0
27, 123360, Note_on_c, 14, 37, 26
27, 123406, Note_on_c, 14, 37, 0
27, 123408, Note_on_c, 14, 44, 27
27, 123454, Note_on_c, 14, 44, 0
27, 123456, Note_on_c, 14, 37, 21
27, 123502, Note_on_c, 14, 37, 0
27, 123504, Note_on_c, 14, 44, 27
27, 123550, Note_on_c, 14, 44, 0
27, 123552, Note_on_c, 14, 37, 30
27, 123598, Note_on_c, 14, 37, 0
27, 123600, Note_on_c, 14, 44, 20
27, 123646, Note_on_c, 14, 44, 0
27, 123648, Note_on_c, 14, 37, 23
27, 123694, Note_on_c, 14, 37, 0
27, 123696, Note_on_c, 14, 44, 23
27, 123742, Note_on_c, 14, 44, 0
27, 123744, Note_on_c, 14, 37, 25
27, 123790, Note_on_c, 14, 37, 0
27, 123792, Note_on_c, 14, 44, 24
27, 123838, Note_on_c, 14, 44, 0
27, 123840, Note_on_c, 14, 37, 22
27, 123886, Note_on_c, 14, 37, 0
27, 123888, Note_on_c, 14, 44, 30
27, 123934, Note_on_c, 14, 44, 0
27, 123936, Note_on_c, 14, 37, 25
27, 123982, Note_on_c, 14, 37, 0
27, 123984, Note_on_c, 14, 44, 27
27, 124030, Note_on_c, 14, 44, 0
27, 124032, Note_on_c, 14, 37, 28
27, 124078, Note_on_c, 14, 37, 0
27, 124080, Note_on_c, 14, 44, 28
27, 124126, Note_on_c, 14, 44, 0
27, 124128, Note_on_c, 14, 37, 30
27, 124174, Note_on_c, 14, 37, 0
27, 124176, Note_on_c, 14, 44, 25
27, 124222, Note_on_c, 14, 44, 0
27, 124224, Note_on_c, 14, 37, 23
27, 124270, Note_on_c, 14, 37, 0
27, 124272, Note_on_c, 14, 44, 28
27, 124318, Note_on_c, 14, 44, 0
27, 124320, Note_on_c, 14, 37, 21
27, 124366, Note_on_c, 14, 37, 0
27, 124368, Note_on_c, 14, 44, 26
27, 124414, Note_on_c, 14, 44, 0
27, 124416, Note_on_c, 14, 37, 25
27, 124462, Note_on_c, 14, 37, 0
27, 124464, Note_on_c, 14, 44, 25
27, 124510, Note_on_c, 14, 44, 0
27, 124512, Note_on_c, 14, 37, 22
27, 124558, Note_on_c, 14, 37, 0
27, 124560, Note_on_c, 14, 44, 24
27, 124606, Note_on_c, 14, 44, 0
27, 124608, Note_on_c, 14, 37, 20
27, 124654, Note_on_c, 14, 37, 0
27, 124656, Note_on_c, 14, 44, 20
27, 124702, Note_on_c, 14, 44, 0
27, 124704, Note_on_c, 14, 37, 22
27, 124750, Note_on_c, 14, 37, 0
27, 124752, Note_on_c, 14, 44, 30
27, 124798, Note_on_c, 14, 44, 0
27, 124800, Note_on_c, 14, 37, 22
27, 124846, Note_on_c, 14, 37, 0
27, 124848, Note_on_c, 14, 44, 24
27, 124894, Note_on_c, 14, 44, 0
27, 124896, Note_on_c, 14, 37, 30
27, 124942, Note_on_c, 14, 37, 0
27, 124944, Note_on_c, 14, 44, 30
27, 124990, Note_on_c, 14, 44, 0
27, 124992, Note_on_c, 14, 37, 26
27, 125038, Note_on_c, 14, 37, 0
27, 125040, Note_on_c, 14, 44, 23
27, 125086, Note_on_c, 14, 44, 0
27, 125088, Note_on_c, 14, 37, 22
27, 125134, Note_on_c, 14, 37, 0
27, 125136, Note_on_c, 14, 44, 27
27, 125182, Note_on_c, 14, 44, 0
27, 125184, Note_on_c, 14, 37, 30
27, 125230, Note_on_c, 14, 37, 0
27, 125232, Note_on_c, 14, 44, 21
27, 125278, Note_on_c, 14, 44, 0
27, 125280, Note_on_c, 14, 37, 25
27, 125326, Note_on_c, 14, 37, 0
27, 125328, Note_on_c, 14, 44, 26
27, 125374, Note_on_c, 14, 44, 0
27, 125376, Note_on_c, 14, 37, 20
27, 125422, Note_on_c, 14, 37, 0
27, 125424, Note_on_c, 14, 44, 26
27, 125470, Note_on_c, 14, 44, 0
27, 125472, Note_on_c, 14, 37, 27
27, 125518, Note_on_c, 14, 37, 0
27, 125520, Note_on_c, 14, 44, 23
27, 125566, Note_on_c, 14, 44, 0
27, 125568, Note_on_c, 14, 37, 26
27, 125614, Note_on_c, 14, 37, 0
27, 125616, Note_on_c, 14, 44, 21
27, 125662, Note_on_c, 14, 44, 0
27, 125664, Note_on_c, 14, 37, 24
27, 125710, Note_on_c, 14, 37, 0
27, 125712, Note_on_c, 14, 44, 27
27, 125758, Note_on_c, 14, 44, 0
27, 125760, Note_on_c, 14, 37, 27
27, 125806, Note_on_c, 14, 37, 0
27, 125808, Note_on_c, 14, 44, 26
27, 125854, Note_on_c, 14, 44, 0
27, 125856, Note_on_c, 14, 37, 25
27, 125902, Note_on_c, 14, 37, 0
27, 125904, Note_on_c, 14, 44, 30
27, 125950, Note_on_c, 14, 44, 0
27, 125952, Note_on_c, 14, 37, 23
27, 125998, Note_on_c, 14, 37, 0
27, 126000, Note_on_c, 14, 44, 29
27, 126046, Note_on_c, 14, 44, 0
27, 126048, Note_on_c, 14, 37, 30
27, 126094, Note_on_c, 14, 37, 0
27, 126096, Note_on_c, 14, 44, 24
27, 126142, Note_on_c, 14, 44, 0
27, 126144, Note_on_c, 14, 37, 23
27, 126190, Note_on_c, 14, 37, 0
27, 126192, Note_on_c, 14, 44, 20
27, 126238, Note_on_c, 14, 44, 0
27, 126240, Note_on_c, 14, 37, 30
27, 126286, Note_on_c, 14, 37, 0
27, 126288, Note_on_c, 14, 44, 20
27, 126334, Note_on_c, 14, 44, 0
27, 126336, Note_on_c, 14, 37, 27
27, 126382, Note_on_c, 14, 37, 0
27, 126384, Note_on_c, 14, 44, 21
27, 126430, Note_on_c, 14, 44, 0
27, 126432, Note_on_c, 14, 37, 21
27, 126478, Note_on_c, 14, 37, 0
27, 126480, Note_on_c, 14, 44, 25
27, 126526, Note_on_c, 14, 44, 0
27, 126528, Note_on_c, 14, 37, 28
27, 126574, Note_on_c, 14, 37, 0
27, 126576, Note_on_c, 14, 44, 30
27, 126622, Note_on_c, 14, 44, 0
27, 126624, Note_on_c, 14, 37, 21
27, 126670, Note_on_c, 14, 37, 0
27, 126672, Note_on_c, 14, 44, 24
27, 126718, Note_on_c, 14, 44, 0
27, 126720, Note_on_c, 14, 37, 25
27, 126766, Note_on_c, 14, 37, 0
27, 126768, Note_on_c, 14, 44, 21
27, 126814, Note_on_c, 14, 44, 0
27, 126816, Note_on_c, 14, 37, 21
27, 126862, Note_on_c, 14, 37, 0
27, 126864, Note_on_c, 14, 44, 27
27, 126910, Note_on_c, 14, 44, 0
27, 126912, Note_on_c, 14, 37, 21
27, 126958, Note_on_c, 14, 37, 0
27, 126960, Note_on_c, 14, 44, 29
27, 127006, Note_on_c, 14, 44, 0
27, 127008, Note_on_c, 14, 37, 22
27, 127054, Note_on_c, 14, 37, 0
27, 127056, Note_on_c, 14, 44, 25
27, 127102, Note_on_c, 14, 44, 0
27, 127104, Note_on_c, 14, 37, 20
27, 127150, Note_on_c, 14, 37, 0
27, 127152, Note_on_c, 14, 44, 23
27, 127198, Note_on_c, 14, 44, 0
27, 127200, Note_on_c, 14, 37, 29
27, 127246, Note_on_c, 14, 37, 0
27, 127248, Note_on_c, 14, 44, 27
27, 127294, Note_on_c, 14, 44, 0
27, 127296, Note_on_c, 14, 37, 29
27, 127342, Note_on_c, 14, 37, 0
27, 127344, Note_on_c, 14, 44, 24
27, 127390, Note_on_c, 14, 44, 0
27, 127392, Note_on_c, 14, 37, 25
27, 127438, Note_on_c, 14, 37, 0
27, 127440, Note_on_c, 14, 44, 26
27, 127486, Note_on_c, 14, 44, 0
27, 127488, Note_on_c, 14, 37, 23
27, 127534, Note_on_c, 14, 37, 0
27, 127536, Note_on_c, 14, 44, 21
27, 127582, Note_on_c, 14, 44, 0
27, 127584, Note_on_c, 14, 37, 22
27, 127630, Note_on_c, 14, 37, 0
27, 127632, Note_on_c, 14, 44, 24
27, 127678, Note_on_c, 14, 44, 0
27, 127680, Note_on_c, 14, 37, 30
27, 127726, Note_on_c, 14, 37, 0
27, 127728, Note_on_c, 14, 44, 22
27, 127774, Note_on_c, 14, 44, 0
27, 127776, Note_on_c, 14, 37, 26
27, 127822, Note_on_c, 14, 37, 0
27, 127824, Note_on_c, 14, 44, 28
27, 127870, Note_on_c, 14, 44, 0
27, 127872, Note_on_c, 14, 37, 21
27, 127918, Note_on_c, 14, 37, 0
27, 127920, Note_on_c, 14, 44, 27
27, 127966, Note_on_c, 14, 44, 0
27, 127968, Note_on_c, 14, 37, 25
27, 128014, Note_on_c, 14, 37, 0
27, 128016, Note_on_c, 14, 44, 24
27, 128062, Note_on_c, 14, 44, 0
27, 128064, Note_on_c, 14, 37, 30
27, 128110, Note_on_c, 14, 37, 0
27, 128112, Note_on_c, 14, 44, 21
27, 128158, Note_on_c, 14, 44, 0
27, 128160, Note_on_c, 14, 37, 28
27, 128206, Note_on_c, 14, 37, 0
27, 128208, Note_on_c, 14, 44, 21
27, 128254, Note_on_c, 14, 44, 0
27, 128256, Note_on_c, 14, 37, 25
27, 128302, Note_on_c, 14, 37, 0
27, 128304, Note_on_c, 14, 44, 28
27, 128350, Note_on_c, 14, 44, 0
27, 128352, Note_on_c, 14, 37, 22
27, 128398, Note_on_c, 14, 37, 0
27, 128400, Note_on_c, 14, 44, 27
27, 128446, Note_on_c, 14, 44, 0
27, 128448, Note_on_c, 14, 37, 21
27, 128494, Note_on_c, 14, 37, 0
27, 128496, Note_on_c, 14, 44, 29
27, 128542, Note_on_c, 14, 44, 0
27, 128544, Note_on_c, 14, 37, 28
27, 128590, Note_on_c, 14, 37, 0
27, 128592, Note_on_c, 14, 44, 21
27, 128638, Note_on_c, 14, 44, 0
27, 128640, Note_on_c, 14, 37, 27
27, 128686, Note_on_c, 14, 37, 0
27, 128688, Note_on_c, 14, 44, 23
27, 128734, Note_on_c, 14, 44, 0
27, 128736, Note_on_c, 14, 37, 24
27, 128782, Note_on_c, 14, 37, 0
27, 128784, Note_on_c, 14, 44, 20
27, 128830, Note_on_c, 14, 44, 0
27, 128832, Note_on_c, 14, 37, 21
27, 128878, Note_on_c, 14, 37, 0
27, 128880, Note_on_c, 14, 44, 24
27, 128926, Note_on_c, 14, 44, 0
27, 128928, Note_on_c, 14, 37, 22
27, 128974, Note_on_c, 14, 37, 0
27, 128976, Note_on_c, 14, 44, 23
27, 129022, Note_on_c, 14, 44, 0
27, 129024, Note_on_c, 14, 37, 22
27, 129070, Note_on_c, 14, 37, 0
27, 129072, Note_on_c, 14, 44, 28
27, 129118, Note_on_c, 14, 44, 0
27, 129120, Note_on_c, 14, 37, 22
27, 129166, Note_on_c, 14, 37, 0
27, 129168, Note_on_c, 14, 44, 22
27, 129214, Note_on_c, 14, 44, 0
27, 129216, Note_on_c, 14, 37, 21
27, 129262, Note_on_c, 14, 37, 0
27, 129264, Note_on_c, 14, 44, 25
27, 129310, Note_on_c, 14, 44, 0
27, 129312, Note_on_c, 14, 37, 29
27, 129358, Note_on_c, 14, 37, 0
27, 129360, Note_on_c, 14, 44, 26
27, 129406, Note_on_c, 14, 44, 0
27, 129408, Note_on_c, 14, 37, 21
27, 129454, Note_on_c, 14, 37, 0
27, 129456, Note_on_c, 14, 44, 26
27, 129502, Note_on_c, 14, 44, 0
27, 129504, Note_on_c, 14, 37, 29
27, 129550, Note_on_c, 14, 37, 0
27, 129552, Note_on_c, 14, 44, 25
27, 129598, Note_on_c, 14, 44, 0
27, 129600, Note_on_c, 14, 37, 20
27, 129646, Note_on_c, 14, 37, 0
27, 129648, Note_on_c, 14, 44, 25
27, 129694, Note_on_c, 14, 44, 0
27, 129696, Note_on_c, 14, 37, 26
27, 129742, Note_on_c, 14, 37, 0
27, 129744, Note_on_c, 14, 44, 20
27, 129790, Note_on_c, 14, 44, 0
27, 129792, Note_on_c, 14, 37, 27
27, 129838, Note_on_c, 14, 37, 0
27, 129840, Note_on_c, 14, 44, 23
27, 129886, Note_on_c, 14, 44, 0
27, 129888, Note_on_c, 14, 37, 30
27, 129934, Note_on_c, 14, 37, 0
27, 129936, Note_on_c, 14, 44, 29
27, 129982, Note_on_c, 14, 44, 0
27, 129984, Note_on_c, 14, 37, 21
27, 130030, Note_on_c, 14, 37, 0
27, 130032, Note_on_c, 14, 44, 29
27, 130078, Note_on_c, 14, 44, 0
27, 130080, Note_on_c, 14, 37, 27
27, 130126, Note_on_c, 14, 37, 0
27, 130128, Note_on_c, 14, 44, 25
27, 130174, Note_on_c, 14, 44, 0
27, 130176, Note_on_c, 14, 37, 28
27, 130222, Note_on_c, 14, 37, 0
27, 130224, Note_on_c, 14, 44, 26
27, 130270, Note_on_c, 14, 44, 0
27, 130272, Note_on_c, 14, 37, 24
27, 130318, Note_on_c, 14, 37, 0
27, 130320, Note_on_c, 14, 44, 24
27, 130366, Note_on_c, 14, 44, 0
27, 130368, Note_on_c, 14, 37, 20
27, 130414, Note_on_c, 14, 37, 0
27, 130416, Note_on_c, 14, 44, 27
27, 130462, Note_on_c, 14, 44, 0
27, 130464, Note_on_c, 14, 37, 26
27, 130510, Note_on_c, 14, 37, 0
27, 130512, Note_on_c, 14, 44, 23
27, 130558, Note_on_c, 14, 44, 0
27, 130560, Note_on_c, 14, 37, 21
27, 130606, Note_on_c, 14, 37, 0
27, 130608, Note_on_c, 14, 44, 27
27, 130654, Note_on_c, 14, 44, 0
27, 130656, Note_on_c, 14, 37, 22
27, 130702, Note_on_c, 14, 37, 0
27, 130704, Note_on_c, 14, 44, 27
27, 130750, Note_on_c, 14, 44, 0
27, 130752, Note_on_c, 14, 37, 26
27, 130798, Note_on_c, 14, 37, 0
27, 130800, Note_on_c, 14, 44, 21
27, 130846, Note_on_c, 14, 44, 0
27, 130848, Note_on_c, 14, 37, 20
27, 130894, Note_on_c, 14, 37, 0
27, 130896, Note_on_c, 14, 44, 20
27, 130942, Note_on_c, 14, 44, 0
27, 130944, Note_on_c, 14, 37, 24
27, 130990, Note_on_c, 14, 37, 0
27, 130992, Note_on_c, 14, 44, 22
27, 131038, Note_on_c, 14, 44, 0
27, 131040, Note_on_c, 14, 37, 22
27, 131086, Note_on_c, 14, 37, 0
27, 131088, Note_on_c, 14, 44, 24
27, 131134, Note_on_c, 14, 44, 0
27, 131136, Note_on_c, 14, 37, 30
27, 131182, Note_on_c, 14, 37, 0
27, 131184, Note_on_c, 14, 44, 30
27, 131230, Note_on_c, 14, 44, 0
27, 131232, Note_on_c, 14, 37, 20
27, 131278, Note_on_c, 14, 37, 0
27, 131280, Note_on_c, 14, 44, 28
27, 131326, Note_on_c, 14, 44, 0
27, 131328, Note_on_c, 14, 37, 24
27, 131374, Note_on_c, 14, 37, 0
27, 131376, Note_on_c, 14, 44, 24
27, 131422, Note_on_c, 14, 44, 0
27, 131424, Note_on_c, 14, 37, 28
27, 131470, Note_on_c, 14, 37, 0
27, 131472, Note_on_c, 14, 44, 28
27, 131518, Note_on_c, 14, 44, 0
27, 131520, Note_on_c, 14, 37, 29
27, 131566, Note_on_c, 14, 37, 0
27, 131568, Note_on_c, 14, 44, 28
27, 131614, Note_on_c, 14, 44, 0
27, 131616, Note_on_c, 14, 37, 21
27, 131662, Note_on_c, 14, 37, 0
27, 131664, Note_on_c, 14, 44, 20
27, 131710, Note_on_c, 14, 44, 0
27, 131712, Note_on_c, 14, 37, 27
27, 131758, Note_on_c, 14, 37, 0
27, 131760, Note_on_c, 14, 44, 22
27, 131806, Note_on_c, 14, 44, 0
27, 131808, Note_on_c, 14, 37, 24
27, 131854, Note_on_c, 14, 37, 0
27, 131856, Note_on_c, 14, 44, 20
27, 131902, Note_on_c, 14, 44, 0
27, 131904, Note_on_c, 14, 37, 20
27, 131950, Note_on_c, 14, 37, 0
27, 131952, Note_on_c, 14, 44, 29
27, 131998, Note_on_c, 14, 44, 0
27, 132000, Note_on_c, 14, 37, 24
27, 132046, Note_on_c, 14, 37, 0
27, 132048, Note_on_c, 14, 44, 21
27, 132094, Note_on_c, 14, 44, 0
27, 132096, Note_on_c, 14, 37, 24
27, 132142, Note_on_c, 14, 37, 0
27, 132144, Note_on_c, 14, 44, 25
27, 132190, Note_on_c, 14, 44, 0
27, 132192, Note_on_c, 14, 37, 26
27, 132238, Note_on_c, 14, 37, 0
27, 132240, Note_on_c, 14, 44, 21
27, 132286, Note_on_c, 14, 44, 0
27, 132288, Note_on_c, 14, 37, 30
27, 132334, Note_on_c, 14, 37, 0
27, 132336, Note_on_c, 14, 44, 23
27, 132382, Note_on_c, 14, 44, 0
27, 132384, Note_on_c, 14, 37, 20
27, 132430, Note_on_c, 14, 37, 0
27, 132432, Note_on_c, 14, 44, 22
27, 132478, Note_on_c, 14, 44, 0
27, 132480, Note_on_c, 14, 37, 23
27, 132526, Note_on_c, 14, 37, 0
27, 132528, Note_on_c, 14, 44, 26
27, 132574, Note_on_c, 14, 44, 0
27, 132576, Note_on_c, 14, 37, 26
27, 132622, Note_on_c, 14, 37, 0
27, 132624, Note_on_c, 14, 44, 27
27, 132670, Note_on_c, 14, 44, 0
27, 132672, Note_on_c, 14, 37, 29
27, 132718, Note_on_c, 14, 37, 0
27, 132720, Note_on_c, 14, 44, 24
27, 132766, Note_on_c, 14, 44, 0
27, 132768, Note_on_c, 14, 37, 30
27, 132814, Note_on_c, 14, 37, 0
27, 132816, Note_on_c, 14, 44, 21
27, 132862, Note_on_c, 14, 44, 0
27, 132864, Note_on_c, 14, 37, 25
27, 132910, Note_on_c, 14, 37, 0
27, 132912, Note_on_c, 14, 44, 26
27, 132958, Note_on_c, 14, 44, 0
27, 132960, Note_on_c, 14, 37, 22
27, 133006, Note_on_c, 14, 37, 0
27, 133008, Note_on_c, 14, 44, 26
27, 133054, Note_on_c, 14, 44, 0
27, 133056, Note_on_c, 14, 37, 23
27, 133102, Note_on_c, 14, 37, 0
27, 133104, Note_on_c, 14, 44, 22
27, 133150, Note_on_c, 14, 44, 0
27, 133152, Note_on_c, 14, 37, 30
27, 133198, Note_on_c, 14, 37, 0
27, 133200, Note_on_c, 14, 44, 22
27, 133246, Note_on_c, 14, 44, 0
27, 133248, Note_on_c, 14, 37, 26
27, 133294, Note_on_c, 14, 37, 0
27, 133296, Note_on_c, 14, 44, 29
27, 133342, Note_on_c, 14, 44, 0
27, 133344, Note_on_c, 14, 37, 21
27, 133390, Note_on_c, 14, 37, 0
27, 133392, Note_on_c, 14, 44, 22
27, 133438, Note_on_c, 14, 44, 0
27, 133440, Note_on_c, 14, 37, 27
27, 133486, Note_on_c, 14, 37, 0
27, 133488, Note_on_c, 14, 44, 21
27, 133534, Note_on_c, 14, 44, 0
27, 133536, Note_on_c, 14, 37, 29
27, 133582, Note_on_c, 14, 37, 0
27, 133584, Note_on_c, 14, 44, 23
27, 133630, Note_on_c, 14, 44, 0
27, 133632, Note_on_c, 14, 37, 24
27, 133678, Note_on_c, 14, 37, 0
27, 133680, Note_on_c, 14, 44, 23
27, 133726, Note_on_c, 14, 44, 0
27, 133728, Note_on_c, 14, 37, 21
27, 133774, Note_on_c, 14, 37, 0
27, 133776, Note_on_c, 14, 44, 23
27, 133822, Note_on_c, 14, 44, 0
27, 133824, Note_on_c, 14, 37, 22
27, 133870, Note_on_c, 14, 37, 0
27, 133872, Note_on_c, 14, 44, 26
27, 133918, Note_on_c, 14, 44, 0
27, 133920, Note_on_c, 14, 37, 25
27, 133966, Note_on_c, 14, 37, 0
27, 133968, Note_on_c, 14, 44, 26
27, 134014, Note_on_c, 14, 44, 0
27, 134016, Note_on_c, 14, 37, 26
27, 134062, Note_on_c, 14, 37, 0
27, 134064, Note_on_c, 14, 44, 28
27, 134110, Note_on_c, 14, 44, 0
27, 134112, Note_on_c, 14, 37, 25
27, 134158, Note_on_c, 14, 37, 0
27, 134160, Note_on_c, 14, 44, 26
27, 134206, Note_on_c, 14, 44, 0
27, 134208, Note_on_c, 14, 37, 23
27, 134254, Note_on_c, 14, 37, 0
27, 134256, Note_on_c, 14, 44, 29
27, 134302, Note_on_c, 14, 44, 0
27, 134304, Note_on_c, 14, 37, 24
27, 134350, Note_on_c, 14, 37, 0
27, 134352, Note_on_c, 14, 44, 25
27, 134398, Note_on_c, 14, 44, 0
27, 134400, Note_on_c, 14, 37, 22
27, 134446, Note_on_c, 14, 37, 0
27, 134448, Note_on_c, 14, 44, 29
27, 134494, Note_on_c, 14, 44, 0
27, 134496, Note_on_c, 14, 37, 22
27, 134542, Note_on_c, 14, 37, 0
27, 134544, Note_on_c, 14, 44, 24
27, 134590, Note_on_c, 14, 44, 0
27, 134592, Note_on_c, 14, 37, 30
27, 134638, Note_on_c, 14, 37, 0
27, 134640, Note_on_c, 14, 44, 22
27, 134686, Note_on_c, 14, 44, 0
27, 134688, Note_on_c, 14, 37, 26
27, 134734, Note_on_c, 14, 37, 0
27, 134736, Note_on_c, 14, 44, 30
27, 134782, Note_on_c, 14, 44, 0
27, 134784, Note_on_c, 14, 37, 29
27, 134830, Note_on_c, 14, 37, 0
27, 134832, Note_on_c, 14, 44, 26
27, 134878, Note_on_c, 14, 44, 0
27, 134880, Note_on_c, 14, 37, 27
27, 134926, Note_on_c, 14, 37, 0
27, 134928, Note_on_c, 14, 44, 29
27, 134974, Note_on_c, 14, 44, 0
27, 134976, Note_on_c, 14, 37, 21
27, 135022, Note_on_c, 14, 37, 0
27, 135024, Note_on_c, 14, 44, 23
27, 135070, Note_on_c, 14, 44, 0
27, 135072, Note_on_c, 14, 37, 23
27, 135118, Note_on_c, 14, 37, 0
27, 135120, Note_on_c, 14, 44, 24
27, 135166, Note_on_c, 14, 44, 0
27, 135168, Note_on_c, 14, 37, 24
27, 135214, Note_on_c, 14, 37, 0
27, 135216, Note_on_c, 14, 44, 22
27, 135262, Note_on_c, 14, 44, 0
27, 135264, Note_on_c, 14, 37, 27
27, 135310, Note_on_c, 14, 37, 0
27, 135312, Note_on_c, 14, 44, 21
27, 135358, Note_on_c, 14, 44, 0
27, 135360, Note_on_c, 14, 37, 22
27, 135406, Note_on_c, 14, 37, 0
27, 135408, Note_on_c, 14, 44, 20
27, 135454, Note_on_c, 14, 44, 0
27, 135456, Note_on_c, 14, 37, 20
27, 135502, Note_on_c, 14, 37, 0
27, 135504, Note_on_c, 14, 44, 30
27, 135550, Note_on_c, 14, 44, 0
27, 135552, Note_on_c, 14, 37, 25
27, 135598, Note_on_c, 14, 37, 0
27, 135600, Note_on_c, 14, 44, 22
27, 135646, Note_on_c, 14, 44, 0
27, 135648, Note_on_c, 14, 37, 24
27, 135694, Note_on_c, 14, 37, 0
27, 135696, Note_on_c, 14, 44, 24
27, 135742, Note_on_c, 14, 44, 0
27, 135744, Note_on_c, 14, 37, 25
27, 135790, Note_on_c, 14, 37, 0
27, 135792, Note_on_c, 14, 44, 24
27, 135838, Note_on_c, 14, 44, 0
27, 135840, Note_on_c, 14, 37, 27
27, 135886, Note_on_c, 14, 37, 0
27, 135888, Note_on_c, 14, 44, 22
27, 135934, Note_on_c, 14, 44, 0
27, 135936, Note_on_c, 14, 37, 22
27, 135982, Note_on_c, 14, 37, 0
27, 135984, Note_on_c, 14, 44, 27
27, 136030, Note_on_c, 14, 44, 0
27, 136032, Note_on_c, 14, 37, 25
27, 136078, Note_on_c, 14, 37, 0
27, 136080, Note_on_c, 14, 44, 30
27, 136126, Note_on_c, 14, 44, 0
27, 136128, Note_on_c, 14, 37, 30
27, 136174, Note_on_c, 14, 37, 0
27, 136176, Note_on_c, 14, 44, 28
27, 136222, Note_on_c, 14, 44, 0
27, 136224, Note_on_c, 14, 37, 24
27, 136270, Note_on_c, 14, 37, 0
27, 136272, Note_on_c, 14, 44, 22
27, 136318, Note_on_c, 14, 44, 0
27, 136320, Note_on_c, 14, 37, 25
27, 136366, Note_on_c, 14, 37, 0
27, 136368, Note_on_c, 14, 44, 25
27, 136414, Note_on_c, 14, 44, 0
27, 136416, Note_on_c, 14, 37, 20
27, 136462, Note_on_c, 14, 37, 0
27, 136464, Note_on_c, 14, 44, 30
27, 136510, Note_on_c, 14, 44, 0
27, 136512, Note_on_c, 14, 37, 30
27, 136558, Note_on_c, 14, 37, 0
27, 136560, Note_on_c, 14, 44, 29
27, 136606, Note_on_c, 14, 44, 0
27, 136608, Note_on_c, 14, 37, 24
27, 136654, Note_on_c, 14, 37, 0
27, 136656, Note_on_c, 14, 44, 27
27, 136702, Note_on_c, 14, 44, 0
27, 136704, Note_on_c, 14, 37, 23
27, 136750, Note_on_c, 14, 37, 0
27, 136752, Note_on_c, 14, 44, 20
27, 136798, Note_on_c, 14, 44, 0
27, 136800, Note_on_c, 14, 37, 25
27, 136846, Note_on_c, 14, 37, 0
27, 136848, Note_on_c, 14, 44, 29
27, 136894, Note_on_c, 14, 44, 0
27, 136896, Note_on_c, 14, 37, 26
27, 136942, Note_on_c, 14, 37, 0
27, 136944, Note_on_c, 14, 44, 25
27, 136990, Note_on_c, 14, 44, 0
27, 136992, Note_on_c, 14, 37, 26
27, 137038, Note_on_c, 14, 37, 0
27, 137040, Note_on_c, 14, 44, 23
27, 137086, Note_on_c, 14, 44, 0
27, 137088, Note_on_c, 14, 37, 26
27, 137134, Note_on_c, 14, 37, 0
27, 137136, Note_on_c, 14, 44, 24
27, 137182, Note_on_c, 14, 44, 0
27, 137184, Note_on_c, 14, 37, 22
27, 137230, Note_on_c, 14, 37, 0
27, 137232, Note_on_c, 14, 44, 23
27, 137278, Note_on_c, 14, 44, 0
27, 137280, Note_on_c, 14, 37, 21
27, 137326, Note_on_c, 14, 37, 0
27, 137328, Note_on_c, 14, 44, 21
27, 137374, Note_on_c, 14, 44, 0
27, 137376, Note_on_c, 14, 37, 28
27, 137422, Note_on_c, 14, 37, 0
27, 137424, Note_on_c, 14, 44, 25
27, 137470, Note_on_c, 14, 44, 0
27, 137472, Note_on_c, 14, 37, 28
27, 137518, Note_on_c, 14, 37, 0
27, 137520, Note_on_c, 14, 44, 23
27, 137566, Note_on_c, 14, 44, 0
27, 137568, Note_on_c, 14, 37, 26
27, 137614, Note_on_c, 14, 37, 0
27, 137616, Note_on_c, 14, 44, 24
27, 137662, Note_on_c, 14, 44, 0
27, 137664, Note_on_c, 14, 37, 27
27, 137710, Note_on_c, 14, 37, 0
27, 137712, Note_on_c, 14, 44, 20
27, 137758, Note_on_c, 14, 44, 0
27, 137760, Note_on_c, 14, 37, 25
27, 137806, Note_on_c, 14, 37, 0
27, 137808, Note_on_c, 14, 44, 27
27, 137854, Note_on_c, 14, 44, 0
27, 137856, Note_on_c, 14, 37, 21
27, 137902, Note_on_c, 14, 37, 0
27, 137904, Note_on_c, 14, 44, 30
27, 137950, Note_on_c, 14, 44, 0
27, 137952, Note_on_c, 14, 37, 29
27, 137998, Note_on_c, 14, 37, 0
27, 138000, Note_on_c, 14, 44, 20
27, 138046, Note_on_c, 14, 44, 0
27, 138048, Note_on_c, 14, 37, 25
27, 138094, Note_on_c, 14, 37, 0
27, 138096, Note_on_c, 14, 44, 25
27, 138142, Note_on_c, 14, 44, 0
27, 138144, Note_on_c, 14, 37, 28
27, 138190, Note_on_c, 14, 37, 0
27, 138192, Note_on_c, 14, 44, 21
27, 138238, Note_on_c, 14, 44, 0
27, 138240, Note_on_c, 14, 52, 47
27, 138286, Note_on_c, 14, 52, 0
27, 138288, Note_on_c, 14, 52, 44
27, 138334, Note_on_c, 14, 52, 0
27, 138336, Note_on_c, 14, 52, 50
27, 138382, Note_on_c, 14, 52, 0
27, 138384, Note_on_c, 14, 52, 45
27, 138430, Note_on_c, 14, 52, 0
27, 138432, Note_on_c, 14, 52, 53
27, 138478, Note_on_c, 14, 52, 0
27, 138480, Note_on_c, 14, 52, 50
27, 138526, Note_on_c, 14, 52, 0
27, 138528, Note_on_c, 14, 52, 45
27, 138574, Note_on_c, 14, 52, 0
27, 138576, Note_on_c, 14, 52, 47
27, 138622, Note_on_c, 14, 52, 0
27, 138624, Note_on_c, 14, 59, 50
27, 138670, Note_on_c, 14, 59, 0
27, 138672, Note_on_c, 14, 59, 53
27, 138718, Note_on_c, 14, 59, 0
27, 138720, Note_on_c, 14, 59, 59
27, 138766, Note_on_c, 14, 59, 0
27, 138768, Note_on_c, 14, 59, 60
27, 138814, Note_on_c, 14, 59, 0
27, 138816, Note_on_c, 14, 59, 52
27, 138862, Note_on_c, 14, 59, 0
27, 138864, Note_on_c, 14, 59, 57
27, 138910, Note_on_c, 14, 59, 0
27, 138912, Note_on_c, 14, 59, 63
27, 138958, Note_on_c, 14, 59, 0
27, 138960, Note_on_c, 14, 59, 57
27, 139006, Note_on_c, 14, 59, 0
27, 139008, Note_on_c, 14, 64, 60
27, 139054, Note_on_c, 14, 64, 0
27, 139056, Note_on_c, 14, 64, 61
27, 139102, Note_on_c, 14, 64, 0
27, 139104, Note_on_c, 14, 64, 68
27, 139150, Note_on_c, 14, 64, 0
27, 139152, Note_on_c, 14, 64, 69
27, 139198, Note_on_c, 14, 64, 0
27, 139200, Note_on_c, 14, 64, 72
27, 139246, Note_on_c, 14, 64, 0
27, 139248, Note_on_c, 14, 64, 72
27, 139294, Note_on_c, 14, 64, 0
27, 139296, Note_on_c, 14, 64, 70
27, 139342, Note_on_c, 14, 64, 0
27, 139344, Note_on_c, 14, 64, 68
27, 139390, Note_on_c, 14, 64, 0
27, 139392, Note_on_c, 14, 59, 73
27, 139438, Note_on_c, 14, 59, 0
27, 139440, Note_on_c, 14, 59, 80
27, 139486, Note_on_c, 14, 59, 0
27, 139488, Note_on_c, 14, 59, 73
27, 139534, Note_on_c, 14, 59, 0
27, 139536, Note_on_c, 14, 59, 62
27, 139582, Note_on_c, 14, 59, 0
27, 139584, Note_on_c, 14, 59, 68
27, 139630, Note_on_c, 14, 59, 0
27, 139632, Note_on_c, 14, 59, 56
27, 139678, Note_on_c, 14, 59, 0
27, 139680, Note_on_c, 14, 59, 57
27, 139726, Note_on_c, 14, 59, 0
27, 139728, Note_on_c, 14, 59, 53
27, 139774, Note_on_c, 14, 59, 0
27, 139776, Note_on_c, 14, 52, 43
27, 139822, Note_on_c, 14, 52, 0
27, 139824, Note_on_c, 14, 52, 42
27, 139870, Note_on_c, 14, 52, 0
27, 139872, Note_on_c, 14, 52, 44
27, 139918, Note_on_c, 14, 52, 0
27, 139920, Note_on_c, 14, 52, 46
27, 139966, Note_on_c, 14, 52, 0
27, 139968, Note_on_c, 14, 52, 43
27, 140014, Note_on_c, 14, 52, 0
27, 140016, Note_on_c, 14, 52, 53
27, 140062, Note_on_c, 14, 52, 0
27, 140064, Note_on_c, 14, 52, 45
27, 140110, Note_on_c, 14, 52, 0
27, 140112, Note_on_c, 14, 52, 49
27, 140158, Note_on_c, 14, 52, 0
27, 140160, Note_on_c, 14, 59, 47
27, 140206, Note_on_c, 14, 59, 0
27, 140208, Note_on_c, 14, 59, 51
27, 140254, Note_on_c, 14, 59, 0
27, 140256, Note_on_c, 14, 59, 58
27, 140302, Note_on_c, 14, 59, 0
27, 140304, Note_on_c, 14, 59, 52
27, 140350, Note_on_c, 14, 59, 0
27, 140352, Note_on_c, 14, 59, 52
27, 140398, Note_on_c, 14, 59, 0
27, 140400, Note_on_c, 14, 59, 59
27, 140446, Note_on_c, 14, 59, 0
27, 140448, Note_on_c, 14, 59, 59
27, 140494, Note_on_c, 14, 59, 0
27, 140496, Note_on_c, 14, 59, 61
27, 140542, Note_on_c, 14, 59, 0
27, 140544, Note_on_c, 14, 64, 60
27, 140590, Note_on_c, 14, 64, 0
27, 140592, Note_on_c, 14, 64, 60
27, 140638, Note_on_c, 14, 64, 0
27, 140640, Note_on_c, 14, 64, 58
27, 140686, Note_on_c, 14, 64, 0
27, 140688, Note_on_c, 14, 64, 63
27, 140734, Note_on_c, 14, 64, 0
27, 140736, Note_on_c, 14, 64, 66
27, 140782, Note_on_c, 14, 64, 0
27, 140784, Note_on_c, 14, 64, 73
27, 140830, Note_on_c, 14, 64, 0
27, 140832, Note_on_c, 14, 64, 72
27, 140878, Note_on_c, 14, 64, 0
27, 140880, Note_on_c, 14, 64, 76
27, 140926, Note_on_c, 14, 64, 0
27, 140928, Note_on_c, 14, 59, 77
27, 140974, Note_on_c, 14, 59, 0
27, 140976, Note_on_c, 14, 59, 66
27, 141022, Note_on_c, 14, 59, 0
27, 141024, Note_on_c, 14, 59, 64
27, 141070, Note_on_c, 14, 59, 0
27, 141072, Note_on_c, 14, 59, 65
27, 141118, Note_on_c, 14, 59, 0
27, 141120, Note_on_c, 14, 59, 55
27, 141166, Note_on_c, 14, 59, 0
27, 141168, Note_on_c, 14, 59, 50
27, 141214, Note_on_c, 14, 59, 0
27, 141216, Note_on_c, 14, 59, 47
27, 141262, Note_on_c, 14, 59, 0
27, 141264, Note_on_c, 14, 59, 34
27, 141310, Note_on_c, 14, 59, 0
27, 141312, Note_on_c, 14, 52, 32
27, 141358, Note_on_c, 14, 52, 0
27, 141360, Note_on_c, 14, 52, 27
27, 141406, Note_on_c, 14, 52, 0
27, 141408, Note_on_c, 14, 52, 32
27, 141454, Note_on_c, 14, 52, 0
27, 141456, Note_on_c, 14, 52, 31
27, 141502, Note_on_c, 14, 52, 0
27, 141504, Note_on_c, 14, 52, 31
27, 141550, Note_on_c, 14, 52, 0
27, 141552, Note_on_c, 14, 52, 28
27, 141598, Note_on_c, 14, 52, 0
27, 141600, Note_on_c, 14, 52, 34
27, 141646, Note_on_c, 14, 52, 0
27, 141648, Note_on_c, 14, 52, 32
27, 141694, Note_on_c, 14, 52, 0
27, 141696, Note_on_c, 14, 59, 35
27, 141742, Note_on_c, 14, 59, 0
27, 141744, Note_on_c, 14, 59, 29
27, 141790, Note_on_c, 14, 59, 0
27, 141792, Note_on_c, 14, 59, 29
27, 141838, Note_on_c, 14, 59, 0
27, 141840, Note_on_c, 14, 59, 32
27, 141886, Note_on_c, 14, 59, 0
27, 141888, Note_on_c, 14, 59, 25
27, 141934, Note_on_c, 14, 59, 0
27, 141936, Note_on_c, 14, 59, 28
27, 141982, Note_on_c, 14, 59, 0
27, 141984, Note_on_c, 14, 59, 26
27, 142030, Note_on_c, 14, 59, 0
27, 142032, Note_on_c, 14, 59, 28
27, 142078, Note_on_c, 14, 59, 0
27, 142848, Note_on_c, 14, 52, 29
27, 142894, Note_on_c, 14, 52, 0
27, 142896, Note_on_c, 14, 52, 28
27, 142942, Note_on_c, 14, 52, 0
27, 142944, Note_on_c, 14, 52, 35
27, 142990, Note_on_c, 14, 52, 0
27, 142992, Note_on_c, 14, 52, 30
27, 143038, Note_on_c, 14, 52, 0
27, 143040, Note_on_c, 14, 52, 32
27, 143086, Note_on_c, 14, 52, 0
27, 143088, Note_on_c, 14, 52, 27
27, 143134, Note_on_c, 14, 52, 0
27, 143136, Note_on_c, 14, 52, 27
27, 143182, Note_on_c, 14, 52, 0
27, 143184, Note_on_c, 14, 52, 27
27, 143230, Note_on_c, 14, 52, 0
27, 143232, Note_on_c, 14, 59, 35
27, 143278, Note_on_c, 14, 59, 0
27, 143280, Note_on_c, 14, 59, 34
27, 143326, Note_on_c, 14, 59, 0
27, 143328, Note_on_c, 14, 59, 25
27, 143374, Note_on_c, 14, 59, 0
27, 143376, Note_on_c, 14, 59, 28
27, 143422, Note_on_c, 14, 59, 0
27, 143424, Note_on_c, 14, 59, 33
27, 143470, Note_on_c, 14, 59, 0
27, 143472, Note_on_c, 14, 59, 26
27, 143518, Note_on_c, 14, 59, 0
27, 143520, Note_on_c, 14, 59, 31
27, 143566, Note_on_c, 14, 59, 0
27, 143568, Note_on_c, 14, 59, 30
27, 143614, Note_on_c, 14, 59, 0
27, 144384, Note_on_c, 14, 36, 46
27, 144430, Note_on_c, 14, 36, 0
27, 144432, Note_on_c, 14, 36, 47
27, 144478, Note_on_c, 14, 36, 0
27, 144480, Note_on_c, 14, 36, 50
27, 144526, Note_on_c, 14, 36, 0
27, 144528, Note_on_c, 14, 36, 45
27, 144574, Note_on_c, 14, 36, 0
27, 144576, Note_on_c, 14, 36, 41
27, 144622, Note_on_c, 14, 36, 0
27, 144624, Note_on_c, 14, 36, 49
27, 144670, Note_on_c, 14, 36, 0
27, 144672, Note_on_c, 14, 36, 44
27, 144718, Note_on_c, 14, 36, 0
27, 144720, Note_on_c, 14, 36, 41
27, 144766, Note_on_c, 14, 36, 0
27, 144768, Note_on_c, 14, 42, 48
27, 144814, Note_on_c, 14, 42, 0
27, 144816, Note_on_c, 14, 42, 48
27, 144862, Note_on_c, 14, 42, 0
27, 144864, Note_on_c, 14, 42, 44
27, 144910, Note_on_c, 14, 42, 0
27, 144912, Note_on_c, 14, 42, 48
27, 144958, Note_on_c, 14, 42, 0
27, 144960, Note_on_c, 14, 42, 46
27, 145006, Note_on_c, 14, 42, 0
27, 145008, Note_on_c, 14, 42, 50
27, 145054, Note_on_c, 14, 42, 0
27, 145056, Note_on_c, 14, 42, 46
27, 145102, Note_on_c, 14, 42, 0
27, 145104, Note_on_c, 14, 42, 46
27, 145150, Note_on_c, 14, 42, 0
27, 145152, Note_on_c, 14, 36, 44
27, 145198, Note_on_c, 14, 36, 0
27, 145200, Note_on_c, 14, 36, 45
27, 145246, Note_on_c, 14, 36, 0
27, 145248, Note_on_c, 14, 36, 49
27, 145294, Note_on_c, 14, 36, 0
27, 145296, Note_on_c, 14, 36, 50
27, 145342, Note_on_c, 14, 36, 0
27, 145344, Note_on_c, 14, 36, 45
27, 145390, Note_on_c, 14, 36, 0
27, 145392, Note_on_c, 14, 36, 47
27, 145438, Note_on_c, 14, 36, 0
27, 145440, Note_on_c, 14, 36, 41
27, 145486, Note_on_c, 14, 36, 0
27, 145488, Note_on_c, 14, 36, 44
27, 145534, Note_on_c, 14, 36, 0
27, 145536, Note_on_c, 14, 42, 45
27, 145582, Note_on_c, 14, 42, 0
27, 145584, Note_on_c, 14, 42, 47
27, 145630, Note_on_c, 14, 42, 0
27, 145632, Note_on_c, 14, 42, 50
27, 145678, Note_on_c, 14, 42, 0
27, 145680, Note_on_c, 14, 42, 50
27, 145726, Note_on_c, 14, 42, 0
27, 145728, Note_on_c, 14, 42, 47
27, 145774, Note_on_c, 14, 42, 0
27, 145776, Note_on_c, 14, 42, 46
27, 145822, Note_on_c, 14, 42, 0
27, 145824, Note_on_c, 14, 42, 48
27, 145870, Note_on_c, 14, 42, 0
27, 145872, Note_on_c, 14, 42, 48
27, 145918, Note_on_c, 14, 42, 0
27, 145920, Note_on_c, 14, 48, 42
27, 145966, Note_on_c, 14, 48, 0
27, 145968, Note_on_c, 14, 48, 43
27, 146014, Note_on_c, 14, 48, 0
27, 146016, Note_on_c, 14, 48, 44
27, 146062, Note_on_c, 14, 48, 0
27, 146064, Note_on_c, 14, 48, 42
27, 146110, Note_on_c, 14, 48, 0
27, 146112, Note_on_c, 14, 48, 43
27, 146158, Note_on_c, 14, 48, 0
27, 146160, Note_on_c, 14, 48, 44
27, 146206, Note_on_c, 14, 48, 0
27, 146208, Note_on_c, 14, 48, 45
27, 146254, Note_on_c, 14, 48, 0
27, 146256, Note_on_c, 14, 48, 41
27, 146302, Note_on_c, 14, 48, 0
27, 146304, Note_on_c, 14, 54, 44
27, 146350, Note_on_c, 14, 54, 0
27, 146352, Note_on_c, 14, 54, 50
27, 146398, Note_on_c, 14, 54, 0
27, 146400, Note_on_c, 14, 54, 46
27, 146446, Note_on_c, 14, 54, 0
27, 146448, Note_on_c, 14, 54, 47
27, 146494, Note_on_c, 14, 54, 0
27, 146496, Note_on_c, 14, 54, 44
27, 146542, Note_on_c, 14, 54, 0
27, 146544, Note_on_c, 14, 54, 41
27, 146590, Note_on_c, 14, 54, 0
27, 146592, Note_on_c, 14, 54, 50
27, 146638, Note_on_c, 14, 54, 0
27, 146640, Note_on_c, 14, 54, 40
27, 146686, Note_on_c, 14, 54, 0
27, 146688, Note_on_c, 14, 48, 49
27, 146734, Note_on_c, 14, 48, 0
27, 146736, Note_on_c, 14, 48, 43
27, 146782, Note_on_c, 14, 48, 0
27, 146784, Note_on_c, 14, 48, 48
27, 146830, Note_on_c, 14, 48, 0
27, 146832, Note_on_c, 14, 48, 45
27, 146878, Note_on_c, 14, 48, 0
27, 146880, Note_on_c, 14, 48, 42
27, 146926, Note_on_c, 14, 48, 0
27, 146928, Note_on_c, 14, 48, 43
27, 146974, Note_on_c, 14, 48, 0
27, 146976, Note_on_c, 14, 48, 41
27, 147022, Note_on_c, 14, 48, 0
27, 147024, Note_on_c, 14, 48, 44
27, 147070, Note_on_c, 14, 48, 0
27, 147072, Note_on_c, 14, 54, 41
27, 147118, Note_on_c, 14, 54, 0
27, 147120, Note_on_c, 14, 54, 40
27, 147166, Note_on_c, 14, 54, 0
27, 147168, Note_on_c, 14, 54, 47
27, 147214, Note_on_c, 14, 54, 0
27, 147216, Note_on_c, 14, 54, 41
27, 147262, Note_on_c, 14, 54, 0
27, 147264, Note_on_c, 14, 54, 44
27, 147310, Note_on_c, 14, 54, 0
27, 147312, Note_on_c, 14, 54, 43
27, 147358, Note_on_c, 14, 54, 0
27, 147360, Note_on_c, 14, 54, 48
27, 147406, Note_on_c, 14, 54, 0
27, 147408, Note_on_c, 14, 54, 45
27, 147454, Note_on_c, 14, 54, 0
27, 147456, Note_on_c, 14, 57, 46
27, 147502, Note_on_c, 14, 57, 0
27, 147504, Note_on_c, 14, 57, 46
27, 147550, Note_on_c, 14, 57, 0
27, 147552, Note_on_c, 14, 57, 45
27, 147598, Note_on_c, 14, 57, 0
27, 147600, Note_on_c, 14, 57, 43
27, 147646, Note_on_c, 14, 57, 0
27, 147648, Note_on_c, 14, 57, 47
27, 147694, Note_on_c, 14, 57, 0
27, 147696, Note_on_c, 14, 57, 52
27, 147742, Note_on_c, 14, 57, 0
27, 147744, Note_on_c, 14, 57, 49
27, 147790, Note_on_c, 14, 57, 0
27, 147792, Note_on_c, 14, 57, 45
27, 147838, Note_on_c, 14, 57, 0
27, 147840, Note_on_c, 14, 57, 49
27, 147886, Note_on_c, 14, 57, 0
27, 147888, Note_on_c, 14, 57, 49
27, 147934, Note_on_c, 14, 57, 0
27, 147936, Note_on_c, 14, 57, 48
27, 147982, Note_on_c, 14, 57, 0
27, 147984, Note_on_c, 14, 57, 54
27, 148030, Note_on_c, 14, 57, 0
27, 148032, Note_on_c, 14, 57, 51
27, 148078, Note_on_c, 14, 57, 0
27, 148080, Note_on_c, 14, 57, 58
27, 148126, Note_on_c, 14, 57, 0
27, 148128, Note_on_c, 14, 57, 54
27, 148174, Note_on_c, 14, 57, 0
27, 148176, Note_on_c, 14, 57, 61
27, 148222, Note_on_c, 14, 57, 0
27, 148224, Note_on_c, 14, 60, 61
27, 148270, Note_on_c, 14, 60, 0
27, 148272, Note_on_c, 14, 60, 56
27, 148318, Note_on_c, 14, 60, 0
27, 148320, Note_on_c, 14, 60, 62
27, 148366, Note_on_c, 14, 60, 0
27, 148368, Note_on_c, 14, 60, 56
27, 148414, Note_on_c, 14, 60, 0
27, 148416, Note_on_c, 14, 60, 61
27, 148462, Note_on_c, 14, 60, 0
27, 148464, Note_on_c, 14, 60, 60
27, 148510, Note_on_c, 14, 60, 0
27, 148512, Note_on_c, 14, 60, 61
27, 148558, Note_on_c, 14, 60, 0
27, 148560, Note_on_c, 14, 60, 60
27, 148606, Note_on_c, 14, 60, 0
27, 148608, Note_on_c, 14, 60, 61
27, 148654, Note_on_c, 14, 60, 0
27, 148656, Note_on_c, 14, 60, 64
27, 148702, Note_on_c, 14, 60, 0
27, 148704, Note_on_c, 14, 60, 63
27, 148750, Note_on_c, 14, 60, 0
27, 148752, Note_on_c, 14, 60, 67
27, 148798, Note_on_c, 14, 60, 0
27, 148800, Note_on_c, 14, 60, 66
27, 148846, Note_on_c, 14, 60, 0
27, 148848, Note_on_c, 14, 60, 71
27, 148894, Note_on_c, 14, 60, 0
27, 148896, Note_on_c, 14, 60, 70
27, 148942, Note_on_c, 14, 60, 0
27, 148944, Note_on_c, 14, 60, 76
27, 148990, Note_on_c, 14, 60, 0
27, 148992, Note_on_c, 14, 57, 76
27, 149038, Note_on_c, 14, 57, 0
27, 149040, Note_on_c, 14, 57, 77
27, 149086, Note_on_c, 14, 57, 0
27, 149088, Note_on_c, 14, 57, 79
27, 149134, Note_on_c, 14, 57, 0
27, 149136, Note_on_c, 14, 57, 72
27, 149182, Note_on_c, 14, 57, 0
27, 149184, Note_on_c, 14, 57, 75
27, 149230, Note_on_c, 14, 57, 0
27, 149232, Note_on_c, 14, 57, 79
27, 149278, Note_on_c, 14, 57, 0
27, 149280, Note_on_c, 14, 57, 78
27, 149326, Note_on_c, 14, 57, 0
27, 149328, Note_on_c, 14, 57, 74
27, 149374, Note_on_c, 14, 57, 0
27, 149376, Note_on_c, 14, 57, 77
27, 149422, Note_on_c, 14, 57, 0
27, 149424, Note_on_c, 14, 57, 75
27, 149470, Note_on_c, 14, 57, 0
27, 149472, Note_on_c, 14, 57, 74
27, 149518, Note_on_c, 14, 57, 0
27, 149520, Note_on_c, 14, 57, 73
27, 149566, Note_on_c, 14, 57, 0
27, 149568, Note_on_c, 14, 57, 76
27, 149614, Note_on_c, 14, 57, 0
27, 149616, Note_on_c, 14, 57, 75
27, 149662, Note_on_c, 14, 57, 0
27, 149664, Note_on_c, 14, 57, 72
27, 149710, Note_on_c, 14, 57, 0
27, 149712, Note_on_c, 14, 57, 72
27, 149758, Note_on_c, 14, 57, 0
27, 149760, Note_on_c, 14, 60, 80
27, 149806, Note_on_c, 14, 60, 0
27, 149808, Note_on_c, 14, 60, 82
27, 149854, Note_on_c, 14, 60, 0
27, 149856, Note_on_c, 14, 60, 74
27, 149902, Note_on_c, 14, 60, 0
27, 149904, Note_on_c, 14, 60, 75
27, 149950, Note_on_c, 14, 60, 0
27, 149952, Note_on_c, 14, 60, 84
27, 149998, Note_on_c, 14, 60, 0
27, 150000, Note_on_c, 14, 60, 86
27, 150046, Note_on_c, 14, 60, 0
27, 150048, Note_on_c, 14, 60, 84
27, 150094, Note_on_c, 14, 60, 0
27, 150096, Note_on_c, 14, 60, 89
27, 150142, Note_on_c, 14, 60, 0
27, 150144, Note_on_c, 14, 64, 90
27, 150190, Note_on_c, 14, 64, 0
27, 150192, Note_on_c, 14, 64, 87
27, 150238, Note_on_c, 14, 64, 0
27, 150240, Note_on_c, 14, 64, 89
27, 150286, Note_on_c, 14, 64, 0
27, 150288, Note_on_c, 14, 64, 87
27, 150334, Note_on_c, 14, 64, 0
27, 150336, Note_on_c, 14, 64, 85
27, 150382, Note_on_c, 14, 64, 0
27, 150384, Note_on_c, 14, 64, 91
27, 150430, Note_on_c, 14, 64, 0
27, 150432, Note_on_c, 14, 64, 86
27, 150478, Note_on_c, 14, 64, 0
27, 150480, Note_on_c, 14, 64, 95
27, 150526, Note_on_c, 14, 64, 0
27, 150528, Note_on_c, 14, 65, 90
27, 150590, Note_on_c, 14, 65, 0
27, 150592, Note_on_c, 14, 65, 87
27, 150654, Note_on_c, 14, 65, 0
27, 150656, Note_on_c, 14, 61, 91
27, 150718, Note_on_c, 14, 61, 0
27, 150720, Note_on_c, 14, 61, 89
27, 150782, Note_on_c, 14, 61, 0
27, 150784, Note_on_c, 14, 53, 93
27, 150846, Note_on_c, 14, 53, 0
27, 150848, Note_on_c, 14, 53, 92
27, 150910, Note_on_c, 14, 53, 0
27, 150912, Note_on_c, 14, 53, 87
27, 150974, Note_on_c, 14, 53, 0
27, 150976, Note_on_c, 14, 53, 96
27, 151038, Note_on_c, 14, 53, 0
27, 151040, Note_on_c, 14, 49, 95
27, 151102, Note_on_c, 14, 49, 0
27, 151104, Note_on_c, 14, 49, 96
27, 151166, Note_on_c, 14, 49, 0
27, 151168, Note_on_c, 14, 53, 97
27, 151230, Note_on_c, 14, 53, 0
27, 151232, Note_on_c, 14, 53, 97
27, 151294, Note_on_c, 14, 53, 0
27, 151296, Note_on_c, 14, 65, 88
27, 151358, Note_on_c, 14, 65, 0
27, 151360, Note_on_c, 14, 65, 91
27, 151422, Note_on_c, 14, 65, 0
27, 151424, Note_on_c, 14, 61, 93
27, 151486, Note_on_c, 14, 61, 0
27, 151488, Note_on_c, 14, 61, 97
27, 151550, Note_on_c, 14, 61, 0
27, 151552, Note_on_c, 14, 53, 94
27, 151614, Note_on_c, 14, 53, 0
27, 151616, Note_on_c, 14, 53, 96
27, 151678, Note_on_c, 14, 53, 0
27, 151680, Note_on_c, 14, 53, 87
27, 151742, Note_on_c, 14, 53, 0
27, 151744, Note_on_c, 14, 53, 89
27, 151806, Note_on_c, 14, 53, 0
27, 151808, Note_on_c, 14, 49, 93
27, 151870, Note_on_c, 14, 49, 0
27, 151872, Note_on_c, 14, 49, 90
27, 151934, Note_on_c, 14, 49, 0
27, 151936, Note_on_c, 14, 53, 97
27, 151998, Note_on_c, 14, 53, 0
27, 152000, Note_on_c, 14, 53, 94
27, 152062, Note_on_c, 14, 53, 0
27, 152064, Note_on_c, 14, 65, 87
27, 152126, Note_on_c, 14, 65, 0
27, 152128, Note_on_c, 14, 65, 90
27, 152190, Note_on_c, 14, 65, 0
27, 152192, Note_on_c, 14, 61, 88
27, 152254, Note_on_c, 14, 61, 0
27, 152256, Note_on_c, 14, 61, 94
27, 152318, Note_on_c, 14, 61, 0
27, 152320, Note_on_c, 14, 53, 90
27, 152382, Note_on_c, 14, 53, 0
27, 152384, Note_on_c, 14, 53, 88
27, 152446, Note_on_c, 14, 53, 0
27, 152448, Note_on_c, 14, 53, 91
27, 152510, Note_on_c, 14, 53, 0
27, 152512, Note_on_c, 14, 53, 88
27, 152574, Note_on_c, 14, 53, 0
27, 152576, Note_on_c, 14, 49, 94
27, 152638, Note_on_c, 14, 49, 0
27, 152640, Note_on_c, 14, 49, 97
27, 152702, Note_on_c, 14, 49, 0
27, 152704, Note_on_c, 14, 53, 88
27, 152766, Note_on_c, 14, 53, 0
27, 152768, Note_on_c, 14, 53, 95
27, 152830, Note_on_c, 14, 53, 0
27, 152832, Note_on_c, 14, 65, 89
27, 152894, Note_on_c, 14, 65, 0
27, 152896, Note_on_c, 14, 65, 98
27, 152958, Note_on_c, 14, 65, 0
27, 152960, Note_on_c, 14, 61, 99
27, 153022, Note_on_c, 14, 61, 0
27, 153024, Note_on_c, 14, 61, 97
27, 153086, Note_on_c, 14, 61, 0
27, 153088, Note_on_c, 14, 53, 97
27, 153150, Note_on_c, 14, 53, 0
27, 153152, Note_on_c, 14, 53, 98
27, 153214, Note_on_c, 14, 53, 0
27, 153216, Note_on_c, 14, 53, 100
27, 153278, Note_on_c, 14, 53, 0
27, 153280, Note_on_c, 14, 53, 103
27, 153342, Note_on_c, 14, 53, 0
27, 153344, Note_on_c, 14, 49, 102
27, 153406, Note_on_c, 14, 49, 0
27, 153408, Note_on_c, 14, 49, 103
27, 153470, Note_on_c, 14, 49, 0
27, 153472, Note_on_c, 14, 53, 110
27, 153534, Note_on_c, 14, 53, 0
27, 153536, Note_on_c, 14, 53, 113
27, 153598, Note_on_c, 14, 53, 0
27, 153600, Note_on_c, 14, 53, 97
27, 153646, Note_on_c, 14, 53, 0
27, 153648, Note_on_c, 14, 53, 96
27, 153694, Note_on_c, 14, 53, 0
27, 153696, Note_on_c, 14, 53, 96
27, 153742, Note_on_c, 14, 53, 0
27, 153744, Note_on_c, 14, 53, 95
27, 153790, Note_on_c, 14, 53, 0
27, 153792, Note_on_c, 14, 53, 89
27, 153838, Note_on_c, 14, 53, 0
27, 153840, Note_on_c, 14, 53, 88
27, 153886, Note_on_c, 14, 53, 0
27, 153888, Note_on_c, 14, 53, 95
27, 153934, Note_on_c, 14, 53, 0
27, 153936, Note_on_c, 14, 53, 92
27, 153982, Note_on_c, 14, 53, 0
27, 153984, Note_on_c, 14, 54, 87
27, 154030, Note_on_c, 14, 54, 0
27, 154032, Note_on_c, 14, 54, 91
27, 154078, Note_on_c, 14, 54, 0
27, 154080, Note_on_c, 14, 54, 93
27, 154126, Note_on_c, 14, 54, 0
27, 154128, Note_on_c, 14, 54, 93
27, 154174, Note_on_c, 14, 54, 0
27, 154176, Note_on_c, 14, 54, 94
27, 154222, Note_on_c, 14, 54, 0
27, 154224, Note_on_c, 14, 54, 93
27, 154270, Note_on_c, 14, 54, 0
27, 154272, Note_on_c, 14, 54, 88
27, 154318, Note_on_c, 14, 54, 0
27, 154320, Note_on_c, 14, 54, 94
27, 154366, Note_on_c, 14, 54, 0
27, 154368, Note_on_c, 14, 55, 91
27, 154414, Note_on_c, 14, 55, 0
27, 154416, Note_on_c, 14, 55, 89
27, 154462, Note_on_c, 14, 55, 0
27, 154464, Note_on_c, 14, 55, 92
27, 154510, Note_on_c, 14, 55, 0
27, 154512, Note_on_c, 14, 55, 92
27, 154558, Note_on_c, 14, 55, 0
27, 154560, Note_on_c, 14, 55, 97
27, 154606, Note_on_c, 14, 55, 0
27, 154608, Note_on_c, 14, 55, 87
27, 154654, Note_on_c, 14, 55, 0
27, 154656, Note_on_c, 14, 55, 95
27, 154702, Note_on_c, 14, 55, 0
27, 154704, Note_on_c, 14, 55, 94
27, 154750, Note_on_c, 14, 55, 0
27, 154752, Note_on_c, 14, 56, 93
27, 154798, Note_on_c, 14, 56, 0
27, 154800, Note_on_c, 14, 56, 87
27, 154846, Note_on_c, 14, 56, 0
27, 154848, Note_on_c, 14, 56, 91
27, 154894, Note_on_c, 14, 56, 0
27, 154896, Note_on_c, 14, 56, 93
27, 154942, Note_on_c, 14, 56, 0
27, 154944, Note_on_c, 14, 56, 88
27, 154990, Note_on_c, 14, 56, 0
27, 154992, Note_on_c, 14, 56, 95
27, 155038, Note_on_c, 14, 56, 0
27, 155040, Note_on_c, 14, 56, 94
27, 155086, Note_on_c, 14, 56, 0
27, 155088, Note_on_c, 14, 56, 95
27, 155134, Note_on_c, 14, 56, 0
27, 155136, Note_on_c, 14, 57, 93
27, 155182, Note_on_c, 14, 57, 0
27, 155184, Note_on_c, 14, 57, 97
27, 155230, Note_on_c, 14, 57, 0
27, 155232, Note_on_c, 14, 57, 95
27, 155278, Note_on_c, 14, 57, 0
27, 155280, Note_on_c, 14, 57, 88
27, 155326, Note_on_c, 14, 57, 0
27, 155328, Note_on_c, 14, 57, 90
27, 155374, Note_on_c, 14, 57, 0
27, 155376, Note_on_c, 14, 57, 95
27, 155422, Note_on_c, 14, 57, 0
27, 155424, Note_on_c, 14, 57, 88
27, 155470, Note_on_c, 14, 57, 0
27, 155472, Note_on_c, 14, 57, 96
27, 155518, Note_on_c, 14, 57, 0
27, 155520, Note_on_c, 14, 58, 96
27, 155566, Note_on_c, 14, 58, 0
27, 155568, Note_on_c, 14, 58, 97
27, 155614, Note_on_c, 14, 58, 0
27, 155616, Note_on_c, 14, 58, 95
27, 155662, Note_on_c, 14, 58, 0
27, 155664, Note_on_c, 14, 58, 88
27, 155710, Note_on_c, 14, 58, 0
27, 155712, Note_on_c, 14, 58, 93
27, 155758, Note_on_c, 14, 58, 0
27, 155760, Note_on_c, 14, 58, 94
27, 155806, Note_on_c, 14, 58, 0
27, 155808, Note_on_c, 14, 58, 89
27, 155854, Note_on_c, 14, 58, 0
27, 155856, Note_on_c, 14, 58, 96
27, 155902, Note_on_c, 14, 58, 0
27, 155904, Note_on_c, 14, 59, 93
27, 155950, Note_on_c, 14, 59, 0
27, 155952, Note_on_c, 14, 59, 89
27, 155998, Note_on_c, 14, 59, 0
27, 156000, Note_on_c, 14, 59, 87
27, 156046, Note_on_c, 14, 59, 0
27, 156048, Note_on_c, 14, 59, 95
27, 156094, Note_on_c, 14, 59, 0
27, 156096, Note_on_c, 14, 59, 87
27, 156142, Note_on_c, 14, 59, 0
27, 156144, Note_on_c, 14, 59, 87
27, 156190, Note_on_c, 14, 59, 0
27, 156192, Note_on_c, 14, 59, 93
27, 156238, Note_on_c, 14, 59, 0
27, 156240, Note_on_c, 14, 59, 89
27, 156286, Note_on_c, 14, 59, 0
27, 156288, Note_on_c, 14, 60, 92
27, 156334, Note_on_c, 14, 60, 0
27, 156336, Note_on_c, 14, 60, 93
27, 156382, Note_on_c, 14, 60, 0
27, 156384, Note_on_c, 14, 60, 92
27, 156430, Note_on_c, 14, 60, 0
27, 156432, Note_on_c, 14, 60, 91
27, 156478, Note_on_c, 14, 60, 0
27, 156480, Note_on_c, 14, 60, 93
27, 156526, Note_on_c, 14, 60, 0
27, 156528, Note_on_c, 14, 60, 94
27, 156574, Note_on_c, 14, 60, 0
27, 156576, Note_on_c, 14, 60, 97
27, 156622, Note_on_c, 14, 60, 0
27, 156624, Note_on_c, 14, 60, 95
27, 156670, Note_on_c, 14, 60, 0
27, 156672, Note_on_c, 14, 44, 110
27, 156800, Note_on_c, 14, 44, 0
27, 156800, Note_on_c, 14, 45, 112
27, 156928, Note_on_c, 14, 45, 0
27, 156928, Note_on_c, 14, 46, 109
27, 157056, Note_on_c, 14, 46, 0
27, 157056, Note_on_c, 14, 47, 103
27, 157248, Note_on_c, 14, 47, 0
27, 157248, Note_on_c, 14, 45, 104
27, 157408, Note_on_c, 14, 45, 0
27, 157440, Note_on_c, 14, 44, 113
27, 157568, Note_on_c, 14, 44, 0
27, 157568, Note_on_c, 14, 45, 104
27, 157696, Note_on_c, 14, 45, 0
27, 157696, Note_on_c, 14, 46, 110
27, 157824, Note_on_c, 14, 46, 0
27, 157824, Control_c, 14, 11, 92
27, 157824, Note_on_c, 14, 47, 107
27, 157834, Control_c, 14, 11, 93
27, 157845, Control_c, 14, 11, 94
27, 157856, Control_c, 14, 11, 95
27, 157867, Control_c, 14, 11, 96
27, 157878, Control_c, 14, 11, 97
27, 157889, Control_c, 14, 11, 98
27, 157900, Control_c, 14, 11, 99
27, 157911, Control_c, 14, 11, 100
27, 157922, Control_c, 14, 11, 101
27, 157933, Control_c, 14, 11, 102
27, 157944, Control_c, 14, 11, 103
27, 157955, Control_c, 14, 11, 104
27, 157966, Control_c, 14, 11, 105
27, 157977, Control_c, 14, 11, 106
27, 157988, Control_c, 14, 11, 107
27, 157999, Control_c, 14, 11, 108
27, 158010, Control_c, 14, 11, 109
27, 158021, Control_c, 14, 11, 110
27, 158032, Control_c, 14, 11, 111
27, 158043, Control_c, 14, 11, 112
27, 158054, Control_c, 14, 11, 113
27, 158065, Control_c, 14, 11, 114
27, 158076, Control_c, 14, 11, 115
27, 158080, Note_on_c, 14, 47, 0
27, 158080, Note_on_c, 14, 49, 104
27, 158087, Control_c, 14, 11, 116
27, 158098, Control_c, 14, 11, 117
27, 158109, Control_c, 14, 11, 118
27, 158120, Control_c, 14, 11, 119
27, 158131, Control_c, 14, 11, 120
27, 158142, Control_c, 14, 11, 121
27, 158153, Control_c, 14, 11, 122
27, 158164, Control_c, 14, 11, 123
27, 158175, Control_c, 14, 11, 124
27, 158186, Control_c, 14, 11, 125
27, 158197, Control_c, 14, 11, 126
27, 158206, Note_on_c, 14, 49, 0
27, 158208, Control_c, 14, 11, 127
27, 158208, Note_on_c, 14, 44, 91
27, 158336, Note_on_c, 14, 44, 0
27, 158336, Note_on_c, 14, 45, 94
27, 158464, Note_on_c, 14, 45, 0
27, 158464, Note_on_c, 14, 46, 94
27, 158592, Note_on_c, 14, 46, 0
27, 158592, Note_on_c, 14, 47, 89
27, 158784, Note_on_c, 14, 47, 0
27, 158784, Note_on_c, 14, 45, 97
27, 158976, Note_on_c, 14, 45, 0
27, 158976, Note_on_c, 14, 44, 89
27, 159136, Note_on_c, 14, 44, 0
27, 159744, Note_on_c, 14, 61, 80
27, 160032, Note_on_c, 14, 61, 0
27, 160032, Note_on_c, 14, 60, 80
27, 160128, Note_on_c, 14, 60, 0
27, 160128, Note_on_c, 14, 59, 75
27, 160416, Note_on_c, 14, 59, 0
27, 160416, Note_on_c, 14, 60, 77
27, 160512, Note_on_c, 14, 60, 0
27, 160512, Note_on_c, 14, 61, 70
27, 160800, Note_on_c, 14, 61, 0
27, 160800, Note_on_c, 14, 60, 79
27, 160896, Note_on_c, 14, 60, 0
27, 160896, Note_on_c, 14, 59, 75
27, 160987, Note_on_c, 14, 59, 0
27, 161024, Note_on_c, 14, 63, 90
27, 161115, Note_on_c, 14, 63, 0
27, 161152, Note_on_c, 14, 65, 93
27, 161243, Note_on_c, 14, 65, 0
27, 161280, Control_c, 14, 11, 127
27, 161280, Note_on_c, 14, 47, 49
27, 161304, Control_c, 14, 11, 126
27, 161328, Control_c, 14, 11, 125
27, 161353, Control_c, 14, 11, 124
27, 161377, Control_c, 14, 11, 123
27, 161401, Control_c, 14, 11, 122
27, 161426, Control_c, 14, 11, 121
27, 161450, Control_c, 14, 11, 120
27, 161475, Control_c, 14, 11, 119
27, 161499, Control_c, 14, 11, 118
27, 161523, Control_c, 14, 11, 117
27, 161548, Control_c, 14, 11, 116
27, 161568, Note_on_c, 14, 47, 0
27, 161568, Note_on_c, 14, 48, 43
27, 161572, Control_c, 14, 11, 115
27, 161596, Control_c, 14, 11, 114
27, 161621, Control_c, 14, 11, 113
27, 161645, Control_c, 14, 11, 112
27, 161664, Note_on_c, 14, 48, 0
27, 161664, Note_on_c, 14, 49, 49
27, 161670, Control_c, 14, 11, 111
27, 161694, Control_c, 14, 11, 110
27, 161718, Control_c, 14, 11, 109
27, 161743, Control_c, 14, 11, 108
27, 161767, Control_c, 14, 11, 107
27, 161792, Control_c, 14, 11, 106
27, 161816, Control_c, 14, 11, 105
27, 161840, Control_c, 14, 11, 104
27, 161865, Control_c, 14, 11, 103
27, 161889, Control_c, 14, 11, 102
27, 161913, Control_c, 14, 11, 101
27, 161938, Control_c, 14, 11, 100
27, 161952, Note_on_c, 14, 49, 0
27, 161952, Note_on_c, 14, 48, 44
27, 161962, Control_c, 14, 11, 99
27, 161987, Control_c, 14, 11, 98
27, 162011, Control_c, 14, 11, 97
27, 162035, Control_c, 14, 11, 96
27, 162048, Note_on_c, 14, 48, 0
27, 162048, Note_on_c, 14, 47, 44
27, 162060, Control_c, 14, 11, 95
27, 162084, Control_c, 14, 11, 94
27, 162108, Control_c, 14, 11, 93
27, 162133, Control_c, 14, 11, 92
27, 162157, Control_c, 14, 11, 91
27, 162182, Control_c, 14, 11, 90
27, 162206, Control_c, 14, 11, 89
27, 162230, Control_c, 14, 11, 88
27, 162255, Control_c, 14, 11, 87
27, 162279, Control_c, 14, 11, 86
27, 162304, Control_c, 14, 11, 85
27, 162328, Control_c, 14, 11, 84
27, 162336, Note_on_c, 14, 47, 0
27, 162336, Note_on_c, 14, 48, 45
27, 162352, Control_c, 14, 11, 83
27, 162377, Control_c, 14, 11, 82
27, 162401, Control_c, 14, 11, 81
27, 162425, Control_c, 14, 11, 80
27, 162432, Note_on_c, 14, 48, 0
27, 162432, Note_on_c, 14, 49, 45
27, 162450, Control_c, 14, 11, 79
27, 162474, Control_c, 14, 11, 78
27, 162499, Control_c, 14, 11, 77
27, 162523, Note_on_c, 14, 49, 0
27, 162523, Control_c, 14, 11, 76
27, 162547, Control_c, 14, 11, 75
27, 162560, Note_on_c, 14, 50, 42
27, 162572, Control_c, 14, 11, 74
27, 162596, Control_c, 14, 11, 73
27, 162620, Control_c, 14, 11, 72
27, 162645, Control_c, 14, 11, 71
27, 162651, Note_on_c, 14, 50, 0
27, 162669, Control_c, 14, 11, 70
27, 162688, Note_on_c, 14, 51, 50
27, 162694, Control_c, 14, 11, 69
27, 162718, Control_c, 14, 11, 68
27, 162742, Control_c, 14, 11, 67
27, 162767, Control_c, 14, 11, 66
27, 162779, Note_on_c, 14, 51, 0
27, 162791, Control_c, 14, 11, 65
27, 162816, Control_c, 14, 11, 64
27, 162816, Note_on_c, 14, 52, 42
27, 162910, Note_on_c, 14, 52, 0
27, 163584, Control_c, 14, 11, 127
27, 164352, Program_c, 14, 45
27, 164448, Note_on_c, 14, 46, 32
27, 164542, Note_on_c, 14, 46, 0
27, 164544, Note_on_c, 14, 46, 35
27, 164638, Note_on_c, 14, 46, 0
27, 164640, Note_on_c, 14, 49, 41
27, 164734, Note_on_c, 14, 49, 0
27, 164736, Note_on_c, 14, 51, 52
27, 164830, Note_on_c, 14, 51, 0
27, 164832, Note_on_c, 14, 52, 69
27, 164926, Note_on_c, 14, 52, 0
27, 164928, Note_on_c, 14, 56, 79
27, 165022, Note_on_c, 14, 56, 0
27, 165024, Note_on_c, 14, 58, 92
27, 165118, Note_on_c, 14, 58, 0
27, 165216, Note_on_c, 14, 46, 31
27, 165310, Note_on_c, 14, 46, 0
27, 165312, Note_on_c, 14, 46, 30
27, 165406, Note_on_c, 14, 46, 0
27, 165408, Note_on_c, 14, 49, 37
27, 165502, Note_on_c, 14, 49, 0
27, 165504, Note_on_c, 14, 51, 49
27, 165598, Note_on_c, 14, 51, 0
27, 165600, Note_on_c, 14, 52, 68
27, 165694, Note_on_c, 14, 52, 0
27, 165696, Note_on_c, 14, 56, 83
27, 165790, Note_on_c, 14, 56, 0
27, 165792, Note_on_c, 14, 58, 90
27, 165886, Note_on_c, 14, 58, 0
27, 166656, Program_c, 14, 45
27, 167040, Note_on_c, 14, 64, 103
27, 167134, Note_on_c, 14, 64, 0
27, 167424, Program_c, 14, 48
27, 167904, Note_on_c, 14, 46, 34
27, 167950, Note_on_c, 14, 46, 0
27, 167952, Note_on_c, 14, 46, 29
27, 167998, Note_on_c, 14, 46, 0
27, 168000, Note_on_c, 14, 47, 40
27, 168046, Note_on_c, 14, 47, 0
27, 168048, Note_on_c, 14, 47, 36
27, 168094, Note_on_c, 14, 47, 0
27, 168096, Note_on_c, 14, 49, 50
27, 168142, Note_on_c, 14, 49, 0
27, 168144, Note_on_c, 14, 49, 48
27, 168190, Note_on_c, 14, 49, 0
27, 168192, Note_on_c, 14, 51, 61
27, 168238, Note_on_c, 14, 51, 0
27, 168240, Note_on_c, 14, 51, 61
27, 168286, Note_on_c, 14, 51, 0
27, 168288, Note_on_c, 14, 52, 69
27, 168334, Note_on_c, 14, 52, 0
27, 168336, Note_on_c, 14, 52, 75
27, 168382, Note_on_c, 14, 52, 0
27, 168768, Note_on_c, 14, 56, 50
27, 168814, Note_on_c, 14, 56, 0
27, 168816, Note_on_c, 14, 56, 43
27, 168862, Note_on_c, 14, 56, 0
27, 168864, Note_on_c, 14, 58, 63
27, 168910, Note_on_c, 14, 58, 0
27, 168912, Note_on_c, 14, 58, 87
27, 168958, Note_on_c, 14, 58, 0
27, 169728, Program_c, 14, 45
27, 169728, Note_on_c, 14, 65, 44
27, 169822, Note_on_c, 14, 65, 0
27, 170112, Note_on_c, 14, 53, 43
27, 170206, Note_on_c, 14, 53, 0
27, 170688, Note_on_c, 14, 41, 40
27, 170848, Note_on_c, 14, 41, 0
27, 171072, Note_on_c, 14, 41, 37
27, 171232, Note_on_c, 14, 41, 0
27, 171456, Note_on_c, 14, 41, 36
27, 171616, Note_on_c, 14, 41, 0
27, 171840, Note_on_c, 14, 41, 41
27, 172000, Note_on_c, 14, 41, 0
27, 172224, Note_on_c, 14, 41, 41
27, 172384, Note_on_c, 14, 41, 0
27, 172608, Note_on_c, 14, 41, 42
27, 172768, Note_on_c, 14, 41, 0
27, 172992, Note_on_c, 14, 41, 41
27, 173152, Note_on_c, 14, 41, 0
27, 173376, Note_on_c, 14, 41, 33
27, 173536, Note_on_c, 14, 41, 0
27, 173760, Note_on_c, 14, 45, 32
27, 173760, Note_on_c, 14, 57, 32
27, 173854, Note_on_c, 14, 45, 0
27, 173854, Note_on_c, 14, 57, 0
27, 174144, Note_on_c, 14, 45, 31
27, 174144, Note_on_c, 14, 57, 35
27, 174238, Note_on_c, 14, 45, 0
27, 174238, Note_on_c, 14, 57, 0
27, 174528, Note_on_c, 14, 45, 25
27, 174528, Note_on_c, 14, 57, 35
27, 174622, Note_on_c, 14, 45, 0
27, 174622, Note_on_c, 14, 57, 0
27, 174912, Note_on_c, 14, 45, 29
27, 174912, Note_on_c, 14, 57, 31
27, 175006, Note_on_c, 14, 45, 0
27, 175006, Note_on_c, 14, 57, 0
27, 175296, Note_on_c, 14, 45, 27
27, 175296, Note_on_c, 14, 57, 34
27, 175390, Note_on_c, 14, 45, 0
27, 175390, Note_on_c, 14, 57, 0
27, 175680, Note_on_c, 14, 45, 29
27, 175680, Note_on_c, 14, 57, 32
27, 175774, Note_on_c, 14, 45, 0
27, 175774, Note_on_c, 14, 57, 0
27, 176064, Note_on_c, 14, 46, 26
27, 176064, Note_on_c, 14, 58, 25
27, 176158, Note_on_c, 14, 46, 0
27, 176158, Note_on_c, 14, 58, 0
27, 176448, Note_on_c, 14, 46, 29
27, 176448, Note_on_c, 14, 58, 33
27, 176542, Note_on_c, 14, 46, 0
27, 176542, Note_on_c, 14, 58, 0
27, 176832, Note_on_c, 14, 46, 25
27, 176832, Note_on_c, 14, 58, 30
27, 176926, Note_on_c, 14, 46, 0
27, 176926, Note_on_c, 14, 58, 0
27, 177216, Note_on_c, 14, 46, 32
27, 177216, Note_on_c, 14, 58, 25
27, 177310, Note_on_c, 14, 46, 0
27, 177310, Note_on_c, 14, 58, 0
27, 177600, Note_on_c, 14, 45, 46
27, 177694, Note_on_c, 14, 45, 0
27, 177792, Note_on_c, 14, 52, 47
27, 177886, Note_on_c, 14, 52, 0
27, 177984, Note_on_c, 14, 57, 59
27, 178078, Note_on_c, 14, 57, 0
27, 178176, Note_on_c, 14, 64, 74
27, 178270, Note_on_c, 14, 64, 0
27, 178368, Note_on_c, 14, 57, 65
27, 178462, Note_on_c, 14, 57, 0
27, 178560, Note_on_c, 14, 52, 55
27, 178654, Note_on_c, 14, 52, 0
27, 178752, Note_on_c, 14, 45, 42
27, 178846, Note_on_c, 14, 45, 0
27, 179136, Note_on_c, 14, 45, 40
27, 179230, Note_on_c, 14, 45, 0
27, 179328, Note_on_c, 14, 52, 56
27, 179422, Note_on_c, 14, 52, 0
27, 179520, Note_on_c, 14, 57, 66
27, 179614, Note_on_c, 14, 57, 0
27, 179712, Note_on_c, 14, 64, 72
27, 179806, Note_on_c, 14, 64, 0
27, 179904, Note_on_c, 14, 57, 71
27, 179998, Note_on_c, 14, 57, 0
27, 180096, Note_on_c, 14, 52, 52
27, 180190, Note_on_c, 14, 52, 0
27, 180288, Note_on_c, 14, 45, 46
27, 180382, Note_on_c, 14, 45, 0
27, 180672, Note_on_c, 14, 46, 73
27, 180766, Note_on_c, 14, 46, 0
27, 180864, Note_on_c, 14, 51, 75
27, 180958, Note_on_c, 14, 51, 0
27, 181056, Note_on_c, 14, 58, 88
27, 181150, Note_on_c, 14, 58, 0
27, 181248, Note_on_c, 14, 63, 90
27, 181342, Note_on_c, 14, 63, 0
27, 181440, Note_on_c, 14, 58, 86
27, 181534, Note_on_c, 14, 58, 0
27, 181632, Note_on_c, 14, 51, 87
27, 181726, Note_on_c, 14, 51, 0
27, 181824, Note_on_c, 14, 46, 80
27, 181918, Note_on_c, 14, 46, 0
27, 182016, Program_c, 14, 48
27, 182208, Note_on_c, 14, 46, 76
27, 182254, Note_on_c, 14, 46, 0
27, 182256, Note_on_c, 14, 46, 75
27, 182302, Note_on_c, 14, 46, 0
27, 182304, Note_on_c, 14, 46, 78
27, 182350, Note_on_c, 14, 46, 0
27, 182352, Note_on_c, 14, 46, 83
27, 182398, Note_on_c, 14, 46, 0
27, 182400, Note_on_c, 14, 51, 85
27, 182446, Note_on_c, 14, 51, 0
27, 182448, Note_on_c, 14, 51, 83
27, 182494, Note_on_c, 14, 51, 0
27, 182496, Note_on_c, 14, 51, 95
27, 182542, Note_on_c, 14, 51, 0
27, 182544, Note_on_c, 14, 51, 98
27, 182590, Note_on_c, 14, 51, 0
27, 182592, Note_on_c, 14, 58, 93
27, 182638, Note_on_c, 14, 58, 0
27, 182640, Note_on_c, 14, 58, 104
27, 182686, Note_on_c, 14, 58, 0
27, 182688, Note_on_c, 14, 58, 107
27, 182734, Note_on_c, 14, 58, 0
27, 182736, Note_on_c, 14, 58, 102
27, 182782, Note_on_c, 14, 58, 0
27, 182784, Control_c, 14, 11, 92
27, 182784, Note_on_c, 14, 65, 113
27, 182789, Control_c, 14, 11, 93
27, 182794, Control_c, 14, 11, 94
27, 182800, Control_c, 14, 11, 95
27, 182805, Control_c, 14, 11, 96
27, 182811, Control_c, 14, 11, 97
27, 182816, Control_c, 14, 11, 98
27, 182822, Control_c, 14, 11, 99
27, 182827, Control_c, 14, 11, 100
27, 182830, Note_on_c, 14, 65, 0
27, 182832, Note_on_c, 14, 64, 108
27, 182833, Control_c, 14, 11, 101
27, 182838, Control_c, 14, 11, 102
27, 182844, Control_c, 14, 11, 103
27, 182849, Control_c, 14, 11, 104
27, 182855, Control_c, 14, 11, 105
27, 182860, Control_c, 14, 11, 106
27, 182866, Control_c, 14, 11, 107
27, 182871, Control_c, 14, 11, 108
27, 182877, Control_c, 14, 11, 109
27, 182882, Control_c, 14, 11, 110
27, 182888, Control_c, 14, 11, 111
27, 182893, Control_c, 14, 11, 112
27, 182899, Control_c, 14, 11, 113
27, 182904, Control_c, 14, 11, 114
27, 182910, Control_c, 14, 11, 115
27, 182915, Control_c, 14, 11, 116
27, 182921, Control_c, 14, 11, 117
27, 182926, Control_c, 14, 11, 118
27, 182932, Control_c, 14, 11, 119
27, 182937, Control_c, 14, 11, 120
27, 182943, Control_c, 14, 11, 121
27, 182948, Control_c, 14, 11, 122
27, 182954, Control_c, 14, 11, 123
27, 182959, Control_c, 14, 11, 124
27, 182965, Control_c, 14, 11, 125
27, 182970, Control_c, 14, 11, 126
27, 182976, Control_c, 14, 11, 127
27, 183552, Control_c, 14, 11, 92
27, 183573, Control_c, 14, 11, 93
27, 183595, Control_c, 14, 11, 94
27, 183617, Control_c, 14, 11, 95
27, 183639, Control_c, 14, 11, 96
27, 183661, Control_c, 14, 11, 97
27, 183683, Control_c, 14, 11, 98
27, 183705, Control_c, 14, 11, 99
27, 183727, Control_c, 14, 11, 100
27, 183749, Control_c, 14, 11, 101
27, 183771, Control_c, 14, 11, 102
27, 183793, Control_c, 14, 11, 103
27, 183815, Control_c, 14, 11, 104
27, 183837, Control_c, 14, 11, 105
27, 183859, Control_c, 14, 11, 106
27, 183881, Control_c, 14, 11, 107
27, 183903, Control_c, 14, 11, 108
27, 183925, Control_c, 14, 11, 109
27, 183936, Note_on_c, 14, 64, 0
27, 183936, Note_on_c, 14, 65, 107
27, 183946, Control_c, 14, 11, 110
27, 183968, Control_c, 14, 11, 111
27, 183990, Control_c, 14, 11, 112
27, 184012, Control_c, 14, 11, 113
27, 184034, Control_c, 14, 11, 114
27, 184056, Control_c, 14, 11, 115
27, 184078, Control_c, 14, 11, 116
27, 184100, Control_c, 14, 11, 117
27, 184122, Control_c, 14, 11, 118
27, 184144, Control_c, 14, 11, 119
27, 184166, Control_c, 14, 11, 120
27, 184188, Control_c, 14, 11, 121
27, 184210, Control_c, 14, 11, 122
27, 184232, Control_c, 14, 11, 123
27, 184254, Control_c, 14, 11, 124
27, 184272, Note_on_c, 14, 65, 0
27, 184276, Control_c, 14, 11, 125
27, 184298, Control_c, 14, 11, 126
27, 184320, Control_c, 14, 11, 127
27, 184320, Control_c, 14, 11, 92
27, 184320, Note_on_c, 14, 65, 107
27, 184325, Control_c, 14, 11, 93
27, 184330, Control_c, 14, 11, 94
27, 184336, Control_c, 14, 11, 95
27, 184341, Control_c, 14, 11, 96
27, 184347, Control_c, 14, 11, 97
27, 184352, Control_c, 14, 11, 98
27, 184358, Control_c, 14, 11, 99
27, 184363, Control_c, 14, 11, 100
27, 184366, Note_on_c, 14, 65, 0
27, 184368, Note_on_c, 14, 64, 105
27, 184369, Control_c, 14, 11, 101
27, 184374, Control_c, 14, 11, 102
27, 184380, Control_c, 14, 11, 103
27, 184385, Control_c, 14, 11, 104
27, 184391, Control_c, 14, 11, 105
27, 184396, Control_c, 14, 11, 106
27, 184402, Control_c, 14, 11, 107
27, 184407, Control_c, 14, 11, 108
27, 184413, Control_c, 14, 11, 109
27, 184418, Control_c, 14, 11, 110
27, 184424, Control_c, 14, 11, 111
27, 184429, Control_c, 14, 11, 112
27, 184435, Control_c, 14, 11, 113
27, 184440, Control_c, 14, 11, 114
27, 184446, Control_c, 14, 11, 115
27, 184451, Control_c, 14, 11, 116
27, 184457, Control_c, 14, 11, 117
27, 184462, Control_c, 14, 11, 118
27, 184468, Control_c, 14, 11, 119
27, 184473, Control_c, 14, 11, 120
27, 184479, Control_c, 14, 11, 121
27, 184484, Control_c, 14, 11, 122
27, 184490, Control_c, 14, 11, 123
27, 184495, Control_c, 14, 11, 124
27, 184501, Control_c, 14, 11, 125
27, 184506, Control_c, 14, 11, 126
27, 184512, Control_c, 14, 11, 127
27, 185088, Control_c, 14, 11, 92
27, 185109, Control_c, 14, 11, 93
27, 185131, Control_c, 14, 11, 94
27, 185153, Control_c, 14, 11, 95
27, 185175, Control_c, 14, 11, 96
27, 185197, Control_c, 14, 11, 97
27, 185219, Control_c, 14, 11, 98
27, 185241, Control_c, 14, 11, 99
27, 185263, Control_c, 14, 11, 100
27, 185285, Control_c, 14, 11, 101
27, 185307, Control_c, 14, 11, 102
27, 185329, Control_c, 14, 11, 103
27, 185351, Control_c, 14, 11, 104
27, 185373, Control_c, 14, 11, 105
27, 185395, Control_c, 14, 11, 106
27, 185417, Control_c, 14, 11, 107
27, 185439, Control_c, 14, 11, 108
27, 185461, Control_c, 14, 11, 109
27, 185472, Note_on_c, 14, 64, 0
27, 185472, Note_on_c, 14, 65, 104
27, 185482, Control_c, 14, 11, 110
27, 185504, Control_c, 14, 11, 111
27, 185526, Control_c, 14, 11, 112
27, 185548, Control_c, 14, 11, 113
27, 185570, Control_c, 14, 11, 114
27, 185592, Control_c, 14, 11, 115
27, 185614, Control_c, 14, 11, 116
27, 185636, Control_c, 14, 11, 117
27, 185658, Control_c, 14, 11, 118
27, 185664, Note_on_c, 14, 65, 0
27, 185664, Note_on_c, 14, 68, 105
27, 185680, Control_c, 14, 11, 119
27, 185702, Control_c, 14, 11, 120
27, 185724, Control_c, 14, 11, 121
27, 185746, Control_c, 14, 11, 122
27, 185768, Control_c, 14, 11, 123
27, 185790, Control_c, 14, 11, 124
27, 185812, Control_c, 14, 11, 125
27, 185824, Note_on_c, 14, 68, 0
27, 185834, Control_c, 14, 11, 126
27, 185856, Control_c, 14, 11, 127
27, 185856, Control_c, 14, 11, 92
27, 185856, Note_on_c, 14, 65, 107
27, 185861, Control_c, 14, 11, 93
27, 185866, Control_c, 14, 11, 94
27, 185872, Control_c, 14, 11, 95
27, 185877, Control_c, 14, 11, 96
27, 185883, Control_c, 14, 11, 97
27, 185888, Control_c, 14, 11, 98
27, 185894, Control_c, 14, 11, 99
27, 185899, Control_c, 14, 11, 100
27, 185904, Note_on_c, 14, 65, 0
27, 185904, Note_on_c, 14, 64, 111
27, 185905, Control_c, 14, 11, 101
27, 185910, Control_c, 14, 11, 102
27, 185916, Control_c, 14, 11, 103
27, 185921, Control_c, 14, 11, 104
27, 185927, Control_c, 14, 11, 105
27, 185932, Control_c, 14, 11, 106
27, 185938, Control_c, 14, 11, 107
27, 185943, Control_c, 14, 11, 108
27, 185949, Control_c, 14, 11, 109
27, 185954, Control_c, 14, 11, 110
27, 185960, Control_c, 14, 11, 111
27, 185965, Control_c, 14, 11, 112
27, 185971, Control_c, 14, 11, 113
27, 185976, Control_c, 14, 11, 114
27, 185982, Control_c, 14, 11, 115
27, 185987, Control_c, 14, 11, 116
27, 185993, Control_c, 14, 11, 117
27, 185998, Control_c, 14, 11, 118
27, 186004, Control_c, 14, 11, 119
27, 186009, Control_c, 14, 11, 120
27, 186015, Control_c, 14, 11, 121
27, 186020, Control_c, 14, 11, 122
27, 186026, Control_c, 14, 11, 123
27, 186031, Control_c, 14, 11, 124
27, 186037, Control_c, 14, 11, 125
27, 186042, Control_c, 14, 11, 126
27, 186048, Control_c, 14, 11, 127
27, 186051, Control_c, 14, 11, 126
27, 186054, Control_c, 14, 11, 125
27, 186057, Control_c, 14, 11, 124
27, 186060, Control_c, 14, 11, 123
27, 186063, Control_c, 14, 11, 122
27, 186066, Control_c, 14, 11, 121
27, 186069, Control_c, 14, 11, 120
27, 186072, Control_c, 14, 11, 119
27, 186075, Control_c, 14, 11, 118
27, 186078, Control_c, 14, 11, 117
27, 186081, Control_c, 14, 11, 116
27, 186084, Control_c, 14, 11, 115
27, 186087, Control_c, 14, 11, 114
27, 186090, Control_c, 14, 11, 113
27, 186093, Control_c, 14, 11, 112
27, 186096, Control_c, 14, 11, 111
27, 186099, Control_c, 14, 11, 110
27, 186102, Control_c, 14, 11, 109
27, 186105, Control_c, 14, 11, 108
27, 186108, Control_c, 14, 11, 107
27, 186112, Control_c, 14, 11, 106
27, 186115, Control_c, 14, 11, 105
27, 186118, Control_c, 14, 11, 104
27, 186121, Control_c, 14, 11, 103
27, 186124, Control_c, 14, 11, 102
27, 186127, Control_c, 14, 11, 101
27, 186130, Control_c, 14, 11, 100
27, 186133, Control_c, 14, 11, 99
27, 186136, Control_c, 14, 11, 98
27, 186139, Control_c, 14, 11, 97
27, 186142, Control_c, 14, 11, 96
27, 186145, Control_c, 14, 11, 95
27, 186148, Control_c, 14, 11, 94
27, 186151, Control_c, 14, 11, 93
27, 186154, Control_c, 14, 11, 92
27, 186157, Control_c, 14, 11, 91
27, 186160, Control_c, 14, 11, 90
27, 186163, Control_c, 14, 11, 89
27, 186166, Control_c, 14, 11, 88
27, 186169, Control_c, 14, 11, 87
27, 186172, Control_c, 14, 11, 86
27, 186176, Control_c, 14, 11, 85
27, 186179, Control_c, 14, 11, 84
27, 186182, Control_c, 14, 11, 83
27, 186185, Control_c, 14, 11, 82
27, 186188, Control_c, 14, 11, 81
27, 186191, Control_c, 14, 11, 80
27, 186194, Control_c, 14, 11, 79
27, 186197, Control_c, 14, 11, 78
27, 186200, Control_c, 14, 11, 77
27, 186203, Control_c, 14, 11, 76
27, 186206, Control_c, 14, 11, 75
27, 186209, Control_c, 14, 11, 74
27, 186212, Control_c, 14, 11, 73
27, 186215, Control_c, 14, 11, 72
27, 186218, Control_c, 14, 11, 71
27, 186221, Control_c, 14, 11, 70
27, 186224, Control_c, 14, 11, 69
27, 186227, Control_c, 14, 11, 68
27, 186230, Control_c, 14, 11, 67
27, 186233, Control_c, 14, 11, 66
27, 186236, Control_c, 14, 11, 65
27, 186240, Control_c, 14, 11, 64
27, 187008, Note_on_c, 14, 64, 0
27, 187008, Note_on_c, 14, 65, 105
27, 187344, Note_on_c, 14, 65, 0
27, 187392, Control_c, 14, 11, 64
27, 187392, Note_on_c, 14, 65, 110
27, 187416, Control_c, 14, 11, 65
27, 187440, Note_on_c, 14, 65, 0
27, 187440, Control_c, 14, 11, 66
27, 187440, Note_on_c, 14, 64, 108
27, 187465, Control_c, 14, 11, 67
27, 187489, Control_c, 14, 11, 68
27, 187513, Control_c, 14, 11, 69
27, 187538, Control_c, 14, 11, 70
27, 187562, Control_c, 14, 11, 71
27, 187587, Control_c, 14, 11, 72
27, 187611, Control_c, 14, 11, 73
27, 187635, Control_c, 14, 11, 74
27, 187660, Control_c, 14, 11, 75
27, 187684, Control_c, 14, 11, 76
27, 187708, Control_c, 14, 11, 77
27, 187733, Control_c, 14, 11, 78
27, 187757, Control_c, 14, 11, 79
27, 187782, Control_c, 14, 11, 80
27, 187806, Control_c, 14, 11, 81
27, 187830, Control_c, 14, 11, 82
27, 187855, Control_c, 14, 11, 83
27, 187879, Control_c, 14, 11, 84
27, 187904, Control_c, 14, 11, 85
27, 187928, Control_c, 14, 11, 86
27, 187952, Control_c, 14, 11, 87
27, 187977, Control_c, 14, 11, 88
27, 188001, Control_c, 14, 11, 89
27, 188025, Control_c, 14, 11, 90
27, 188050, Control_c, 14, 11, 91
27, 188074, Control_c, 14, 11, 92
27, 188099, Control_c, 14, 11, 93
27, 188123, Control_c, 14, 11, 94
27, 188147, Control_c, 14, 11, 95
27, 188172, Control_c, 14, 11, 96
27, 188196, Control_c, 14, 11, 97
27, 188220, Control_c, 14, 11, 98
27, 188245, Control_c, 14, 11, 99
27, 188269, Control_c, 14, 11, 100
27, 188294, Control_c, 14, 11, 101
27, 188318, Control_c, 14, 11, 102
27, 188342, Control_c, 14, 11, 103
27, 188367, Control_c, 14, 11, 104
27, 188391, Control_c, 14, 11, 105
27, 188416, Control_c, 14, 11, 106
27, 188440, Control_c, 14, 11, 107
27, 188464, Control_c, 14, 11, 108
27, 188489, Control_c, 14, 11, 109
27, 188513, Control_c, 14, 11, 110
27, 188537, Control_c, 14, 11, 111
27, 188544, Note_on_c, 14, 64, 0
27, 188544, Note_on_c, 14, 65, 112
27, 188562, Control_c, 14, 11, 112
27, 188586, Control_c, 14, 11, 113
27, 188611, Control_c, 14, 11, 114
27, 188635, Control_c, 14, 11, 115
27, 188659, Control_c, 14, 11, 116
27, 188684, Control_c, 14, 11, 117
27, 188708, Control_c, 14, 11, 118
27, 188732, Control_c, 14, 11, 119
27, 188736, Note_on_c, 14, 65, 0
27, 188736, Note_on_c, 14, 68, 103
27, 188757, Control_c, 14, 11, 120
27, 188781, Control_c, 14, 11, 121
27, 188806, Control_c, 14, 11, 122
27, 188830, Control_c, 14, 11, 123
27, 188854, Control_c, 14, 11, 124
27, 188879, Control_c, 14, 11, 125
27, 188896, Note_on_c, 14, 68, 0
27, 188903, Control_c, 14, 11, 126
27, 188928, Control_c, 14, 11, 127
27, 188928, Program_c, 14, 48
27, 189056, Note_on_c, 14, 51, 35
27, 189118, Note_on_c, 14, 51, 0
27, 189120, Note_on_c, 14, 63, 29
27, 189182, Note_on_c, 14, 63, 0
27, 189184, Note_on_c, 14, 51, 33
27, 189246, Note_on_c, 14, 51, 0
27, 189248, Note_on_c, 14, 63, 34
27, 189290, Note_on_c, 14, 63, 0
27, 189440, Note_on_c, 14, 51, 25
27, 189502, Note_on_c, 14, 51, 0
27, 189504, Note_on_c, 14, 63, 28
27, 189566, Note_on_c, 14, 63, 0
27, 189568, Note_on_c, 14, 51, 30
27, 189630, Note_on_c, 14, 51, 0
27, 189632, Note_on_c, 14, 63, 30
27, 189674, Note_on_c, 14, 63, 0
27, 189824, Note_on_c, 14, 51, 32
27, 189886, Note_on_c, 14, 51, 0
27, 189888, Note_on_c, 14, 63, 27
27, 189950, Note_on_c, 14, 63, 0
27, 189952, Note_on_c, 14, 51, 31
27, 190014, Note_on_c, 14, 51, 0
27, 190016, Note_on_c, 14, 63, 26
27, 190058, Note_on_c, 14, 63, 0
27, 190208, Note_on_c, 14, 51, 34
27, 190270, Note_on_c, 14, 51, 0
27, 190272, Note_on_c, 14, 63, 31
27, 190334, Note_on_c, 14, 63, 0
27, 190336, Note_on_c, 14, 51, 32
27, 190398, Note_on_c, 14, 51, 0
27, 190400, Note_on_c, 14, 63, 26
27, 190442, Note_on_c, 14, 63, 0
27, 190592, Note_on_c, 14, 51, 35
27, 190654, Note_on_c, 14, 51, 0
27, 190656, Note_on_c, 14, 63, 31
27, 190718, Note_on_c, 14, 63, 0
27, 190720, Note_on_c, 14, 51, 25
27, 190782, Note_on_c, 14, 51, 0
27, 190784, Note_on_c, 14, 63, 28
27, 190826, Note_on_c, 14, 63, 0
27, 190976, Note_on_c, 14, 51, 31
27, 191038, Note_on_c, 14, 51, 0
27, 191040, Note_on_c, 14, 63, 26
27, 191102, Note_on_c, 14, 63, 0
27, 191104, Note_on_c, 14, 51, 34
27, 191166, Note_on_c, 14, 51, 0
27, 191168, Note_on_c, 14, 63, 26
27, 191210, Note_on_c, 14, 63, 0
27, 191360, Note_on_c, 14, 51, 29
27, 191422, Note_on_c, 14, 51, 0
27, 191424, Note_on_c, 14, 63, 31
27, 191486, Note_on_c, 14, 63, 0
27, 191488, Note_on_c, 14, 51, 25
27, 191550, Note_on_c, 14, 51, 0
27, 191552, Note_on_c, 14, 63, 34
27, 191594, Note_on_c, 14, 63, 0
27, 191744, Note_on_c, 14, 51, 25
27, 191806, Note_on_c, 14, 51, 0
27, 191808, Note_on_c, 14, 63, 33
27, 191870, Note_on_c, 14, 63, 0
27, 191872, Note_on_c, 14, 51, 28
27, 191934, Note_on_c, 14, 51, 0
27, 191936, Note_on_c, 14, 63, 30
27, 191978, Note_on_c, 14, 63, 0
27, 192128, Note_on_c, 14, 51, 27
27, 192190, Note_on_c, 14, 51, 0
27, 192192, Note_on_c, 14, 63, 32
27, 192254, Note_on_c, 14, 63, 0
27, 192256, Note_on_c, 14, 51, 35
27, 192318, Note_on_c, 14, 51, 0
27, 192320, Note_on_c, 14, 63, 32
27, 192362, Note_on_c, 14, 63, 0
27, 192512, Note_on_c, 14, 51, 28
27, 192574, Note_on_c, 14, 51, 0
27, 192576, Note_on_c, 14, 63, 28
27, 192638, Note_on_c, 14, 63, 0
27, 192640, Note_on_c, 14, 51, 33
27, 192702, Note_on_c, 14, 51, 0
27, 192704, Note_on_c, 14, 63, 31
27, 192746, Note_on_c, 14, 63, 0
27, 192896, Note_on_c, 14, 51, 26
27, 192958, Note_on_c, 14, 51, 0
27, 192960, Note_on_c, 14, 63, 35
27, 193022, Note_on_c, 14, 63, 0
27, 193024, Note_on_c, 14, 51, 34
27, 193086, Note_on_c, 14, 51, 0
27, 193088, Note_on_c, 14, 63, 35
27, 193130, Note_on_c, 14, 63, 0
27, 193280, Note_on_c, 14, 51, 29
27, 193342, Note_on_c, 14, 51, 0
27, 193344, Note_on_c, 14, 63, 30
27, 193406, Note_on_c, 14, 63, 0
27, 193408, Note_on_c, 14, 51, 34
27, 193470, Note_on_c, 14, 51, 0
27, 193472, Note_on_c, 14, 63, 29
27, 193514, Note_on_c, 14, 63, 0
27, 193664, Note_on_c, 14, 51, 33
27, 193726, Note_on_c, 14, 51, 0
27, 193728, Note_on_c, 14, 63, 27
27, 193790, Note_on_c, 14, 63, 0
27, 193792, Note_on_c, 14, 51, 35
27, 193854, Note_on_c, 14, 51, 0
27, 193856, Note_on_c, 14, 63, 30
27, 193898, Note_on_c, 14, 63, 0
27, 194048, Note_on_c, 14, 51, 27
27, 194110, Note_on_c, 14, 51, 0
27, 194112, Note_on_c, 14, 63, 27
27, 194174, Note_on_c, 14, 63, 0
27, 194176, Note_on_c, 14, 51, 26
27, 194238, Note_on_c, 14, 51, 0
27, 194240, Note_on_c, 14, 63, 29
27, 194282, Note_on_c, 14, 63, 0
27, 194432, Note_on_c, 14, 51, 32
27, 194494, Note_on_c, 14, 51, 0
27, 194496, Note_on_c, 14, 63, 34
27, 194558, Note_on_c, 14, 63, 0
27, 194560, Note_on_c, 14, 51, 35
27, 194622, Note_on_c, 14, 51, 0
27, 194624, Note_on_c, 14, 63, 29
27, 194666, Note_on_c, 14, 63, 0
27, 194816, Note_on_c, 14, 51, 28
27, 194878, Note_on_c, 14, 51, 0
27, 194880, Note_on_c, 14, 63, 27
27, 194942, Note_on_c, 14, 63, 0
27, 194944, Note_on_c, 14, 51, 29
27, 195006, Note_on_c, 14, 51, 0
27, 195008, Note_on_c, 14, 63, 32
27, 195050, Note_on_c, 14, 63, 0
27, 195200, Note_on_c, 14, 51, 31
27, 195262, Note_on_c, 14, 51, 0
27, 195264, Note_on_c, 14, 63, 29
27, 195326, Note_on_c, 14, 63, 0
27, 195328, Note_on_c, 14, 51, 28
27, 195390, Note_on_c, 14, 51, 0
27, 195392, Note_on_c, 14, 63, 34
27, 195434, Note_on_c, 14, 63, 0
27, 195584, Note_on_c, 14, 51, 31
27, 195646, Note_on_c, 14, 51, 0
27, 195648, Note_on_c, 14, 63, 29
27, 195710, Note_on_c, 14, 63, 0
27, 195712, Note_on_c, 14, 51, 33
27, 195774, Note_on_c, 14, 51, 0
27, 195776, Note_on_c, 14, 63, 25
27, 195818, Note_on_c, 14, 63, 0
27, 195968, Note_on_c, 14, 51, 44
27, 196030, Note_on_c, 14, 51, 0
27, 196032, Note_on_c, 14, 63, 42
27, 196094, Note_on_c, 14, 63, 0
27, 196096, Note_on_c, 14, 51, 48
27, 196158, Note_on_c, 14, 51, 0
27, 196160, Note_on_c, 14, 63, 40
27, 196202, Note_on_c, 14, 63, 0
27, 196352, Note_on_c, 14, 51, 48
27, 196414, Note_on_c, 14, 51, 0
27, 196416, Note_on_c, 14, 63, 44
27, 196478, Note_on_c, 14, 63, 0
27, 196480, Note_on_c, 14, 51, 42
27, 196542, Note_on_c, 14, 51, 0
27, 196544, Note_on_c, 14, 63, 43
27, 196586, Note_on_c, 14, 63, 0
27, 196736, Note_on_c, 14, 51, 41
27, 196798, Note_on_c, 14, 51, 0
27, 196800, Note_on_c, 14, 63, 41
27, 196862, Note_on_c, 14, 63, 0
27, 196864, Note_on_c, 14, 51, 40
27, 196926, Note_on_c, 14, 51, 0
27, 196928, Note_on_c, 14, 63, 40
27, 196970, Note_on_c, 14, 63, 0
27, 197120, Note_on_c, 14, 51, 42
27, 197182, Note_on_c, 14, 51, 0
27, 197184, Note_on_c, 14, 63, 48
27, 197246, Note_on_c, 14, 63, 0
27, 197248, Note_on_c, 14, 51, 50
27, 197310, Note_on_c, 14, 51, 0
27, 197312, Note_on_c, 14, 63, 43
27, 197354, Note_on_c, 14, 63, 0
27, 197504, Note_on_c, 14, 51, 44
27, 197566, Note_on_c, 14, 51, 0
27, 197568, Note_on_c, 14, 63, 40
27, 197630, Note_on_c, 14, 63, 0
27, 197632, Note_on_c, 14, 51, 42
27, 197694, Note_on_c, 14, 51, 0
27, 197696, Note_on_c, 14, 63, 49
27, 197738, Note_on_c, 14, 63, 0
27, 197888, Note_on_c, 14, 51, 46
27, 197950, Note_on_c, 14, 51, 0
27, 197952, Note_on_c, 14, 63, 41
27, 198014, Note_on_c, 14, 63, 0
27, 198016, Note_on_c, 14, 51, 47
27, 198078, Note_on_c, 14, 51, 0
27, 198080, Note_on_c, 14, 63, 42
27, 198122, Note_on_c, 14, 63, 0
27, 198272, Note_on_c, 14, 51, 42
27, 198334, Note_on_c, 14, 51, 0
27, 198336, Note_on_c, 14, 63, 42
27, 198398, Note_on_c, 14, 63, 0
27, 198400, Note_on_c, 14, 51, 40
27, 198462, Note_on_c, 14, 51, 0
27, 198464, Note_on_c, 14, 63, 44
27, 198506, Note_on_c, 14, 63, 0
27, 198656, Note_on_c, 14, 51, 44
27, 198718, Note_on_c, 14, 51, 0
27, 198720, Note_on_c, 14, 63, 50
27, 198782, Note_on_c, 14, 63, 0
27, 198784, Note_on_c, 14, 51, 46
27, 198846, Note_on_c, 14, 51, 0
27, 198848, Note_on_c, 14, 63, 50
27, 198890, Note_on_c, 14, 63, 0
27, 199040, Note_on_c, 14, 53, 76
27, 199040, Note_on_c, 14, 60, 77
27, 199082, Note_on_c, 14, 53, 0
27, 199082, Note_on_c, 14, 60, 0
27, 199104, Note_on_c, 14, 53, 79
27, 199104, Note_on_c, 14, 60, 78
27, 199146, Note_on_c, 14, 53, 0
27, 199146, Note_on_c, 14, 60, 0
27, 199168, Note_on_c, 14, 53, 79
27, 199168, Note_on_c, 14, 60, 72
27, 199210, Note_on_c, 14, 53, 0
27, 199210, Note_on_c, 14, 60, 0
27, 199232, Note_on_c, 14, 53, 79
27, 199232, Note_on_c, 14, 60, 70
27, 199274, Note_on_c, 14, 53, 0
27, 199274, Note_on_c, 14, 60, 0
27, 199424, Note_on_c, 14, 53, 72
27, 199424, Note_on_c, 14, 60, 72
27, 199466, Note_on_c, 14, 53, 0
27, 199466, Note_on_c, 14, 60, 0
27, 199488, Note_on_c, 14, 53, 76
27, 199488, Note_on_c, 14, 60, 77
27, 199530, Note_on_c, 14, 53, 0
27, 199530, Note_on_c, 14, 60, 0
27, 199552, Note_on_c, 14, 53, 80
27, 199552, Note_on_c, 14, 60, 73
27, 199594, Note_on_c, 14, 53, 0
27, 199594, Note_on_c, 14, 60, 0
27, 199616, Note_on_c, 14, 53, 72
27, 199616, Note_on_c, 14, 60, 79
27, 199658, Note_on_c, 14, 53, 0
27, 199658, Note_on_c, 14, 60, 0
27, 199808, Note_on_c, 14, 53, 80
27, 199808, Note_on_c, 14, 60, 79
27, 199850, Note_on_c, 14, 53, 0
27, 199850, Note_on_c, 14, 60, 0
27, 199872, Note_on_c, 14, 53, 76
27, 199872, Note_on_c, 14, 60, 74
27, 199914, Note_on_c, 14, 53, 0
27, 199914, Note_on_c, 14, 60, 0
27, 199936, Note_on_c, 14, 53, 76
27, 199936, Note_on_c, 14, 60, 70
27, 199978, Note_on_c, 14, 53, 0
27, 199978, Note_on_c, 14, 60, 0
27, 200000, Note_on_c, 14, 53, 72
27, 200000, Note_on_c, 14, 60, 79
27, 200042, Note_on_c, 14, 53, 0
27, 200042, Note_on_c, 14, 60, 0
27, 200192, Note_on_c, 14, 53, 79
27, 200192, Note_on_c, 14, 62, 72
27, 200234, Note_on_c, 14, 53, 0
27, 200234, Note_on_c, 14, 62, 0
27, 200256, Note_on_c, 14, 53, 73
27, 200256, Note_on_c, 14, 62, 76
27, 200298, Note_on_c, 14, 53, 0
27, 200298, Note_on_c, 14, 62, 0
27, 200320, Note_on_c, 14, 53, 71
27, 200320, Note_on_c, 14, 62, 73
27, 200362, Note_on_c, 14, 53, 0
27, 200362, Note_on_c, 14, 62, 0
27, 200384, Note_on_c, 14, 53, 72
27, 200384, Note_on_c, 14, 62, 73
27, 200426, Note_on_c, 14, 53, 0
27, 200426, Note_on_c, 14, 62, 0
27, 200576, Note_on_c, 14, 53, 71
27, 200576, Note_on_c, 14, 62, 77
27, 200618, Note_on_c, 14, 53, 0
27, 200618, Note_on_c, 14, 62, 0
27, 200640, Note_on_c, 14, 53, 72
27, 200640, Note_on_c, 14, 62, 72
27, 200682, Note_on_c, 14, 53, 0
27, 200682, Note_on_c, 14, 62, 0
27, 200704, Note_on_c, 14, 53, 73
27, 200704, Note_on_c, 14, 62, 72
27, 200746, Note_on_c, 14, 53, 0
27, 200746, Note_on_c, 14, 62, 0
27, 200768, Note_on_c, 14, 53, 76
27, 200768, Note_on_c, 14, 62, 78
27, 200810, Note_on_c, 14, 53, 0
27, 200810, Note_on_c, 14, 62, 0
27, 200960, Note_on_c, 14, 53, 70
27, 200960, Note_on_c, 14, 62, 70
27, 201002, Note_on_c, 14, 53, 0
27, 201002, Note_on_c, 14, 62, 0
27, 201024, Note_on_c, 14, 53, 75
27, 201024, Note_on_c, 14, 62, 72
27, 201066, Note_on_c, 14, 53, 0
27, 201066, Note_on_c, 14, 62, 0
27, 201088, Note_on_c, 14, 53, 75
27, 201088, Note_on_c, 14, 62, 75
27, 201130, Note_on_c, 14, 53, 0
27, 201130, Note_on_c, 14, 62, 0
27, 201152, Note_on_c, 14, 53, 76
27, 201152, Note_on_c, 14, 62, 80
27, 201194, Note_on_c, 14, 53, 0
27, 201194, Note_on_c, 14, 62, 0
27, 201344, Note_on_c, 14, 53, 78
27, 201344, Note_on_c, 14, 60, 76
27, 201386, Note_on_c, 14, 53, 0
27, 201386, Note_on_c, 14, 60, 0
27, 201408, Note_on_c, 14, 53, 70
27, 201408, Note_on_c, 14, 60, 70
27, 201450, Note_on_c, 14, 53, 0
27, 201450, Note_on_c, 14, 60, 0
27, 201472, Note_on_c, 14, 53, 76
27, 201472, Note_on_c, 14, 60, 78
27, 201514, Note_on_c, 14, 53, 0
27, 201514, Note_on_c, 14, 60, 0
27, 201536, Note_on_c, 14, 53, 74
27, 201536, Note_on_c, 14, 60, 75
27, 201578, Note_on_c, 14, 53, 0
27, 201578, Note_on_c, 14, 60, 0
27, 201728, Note_on_c, 14, 53, 79
27, 201728, Note_on_c, 14, 60, 74
27, 201770, Note_on_c, 14, 53, 0
27, 201770, Note_on_c, 14, 60, 0
27, 201792, Note_on_c, 14, 53, 71
27, 201792, Note_on_c, 14, 60, 71
27, 201834, Note_on_c, 14, 53, 0
27, 201834, Note_on_c, 14, 60, 0
27, 201856, Note_on_c, 14, 53, 75
27, 201856, Note_on_c, 14, 60, 73
27, 201898, Note_on_c, 14, 53, 0
27, 201898, Note_on_c, 14, 60, 0
27, 201920, Note_on_c, 14, 53, 74
27, 201920, Note_on_c, 14, 60, 74
27, 201962, Note_on_c, 14, 53, 0
27, 201962, Note_on_c, 14, 60, 0
27, 202112, Note_on_c, 14, 56, 76
27, 202112, Note_on_c, 14, 65, 77
27, 202154, Note_on_c, 14, 56, 0
27, 202154, Note_on_c, 14, 65, 0
27, 202176, Note_on_c, 14, 56, 70
27, 202176, Note_on_c, 14, 65, 80
27, 202218, Note_on_c, 14, 56, 0
27, 202218, Note_on_c, 14, 65, 0
27, 202240, Note_on_c, 14, 56, 72
27, 202240, Note_on_c, 14, 65, 79
27, 202282, Note_on_c, 14, 56, 0
27, 202282, Note_on_c, 14, 65, 0
27, 202304, Note_on_c, 14, 56, 70
27, 202304, Note_on_c, 14, 65, 76
27, 202346, Note_on_c, 14, 56, 0
27, 202346, Note_on_c, 14, 65, 0
27, 202496, Note_on_c, 14, 56, 77
27, 202496, Note_on_c, 14, 65, 78
27, 202538, Note_on_c, 14, 56, 0
27, 202538, Note_on_c, 14, 65, 0
27, 202560, Note_on_c, 14, 56, 78
27, 202560, Note_on_c, 14, 65, 77
27, 202602, Note_on_c, 14, 56, 0
27, 202602, Note_on_c, 14, 65, 0
27, 202624, Note_on_c, 14, 56, 75
27, 202624, Note_on_c, 14, 65, 71
27, 202666, Note_on_c, 14, 56, 0
27, 202666, Note_on_c, 14, 65, 0
27, 202688, Note_on_c, 14, 56, 73
27, 202688, Note_on_c, 14, 65, 80
27, 202730, Note_on_c, 14, 56, 0
27, 202730, Note_on_c, 14, 65, 0
27, 202880, Note_on_c, 14, 56, 74
27, 202880, Note_on_c, 14, 65, 74
27, 202922, Note_on_c, 14, 56, 0
27, 202922, Note_on_c, 14, 65, 0
27, 202944, Note_on_c, 14, 56, 78
27, 202944, Note_on_c, 14, 65, 79
27, 202986, Note_on_c, 14, 56, 0
27, 202986, Note_on_c, 14, 65, 0
27, 203008, Note_on_c, 14, 56, 75
27, 203008, Note_on_c, 14, 65, 74
27, 203050, Note_on_c, 14, 56, 0
27, 203050, Note_on_c, 14, 65, 0
27, 203072, Note_on_c, 14, 56, 78
27, 203072, Note_on_c, 14, 65, 76
27, 203114, Note_on_c, 14, 56, 0
27, 203114, Note_on_c, 14, 65, 0
27, 203264, Note_on_c, 14, 58, 72
27, 203264, Note_on_c, 14, 66, 74
27, 203306, Note_on_c, 14, 58, 0
27, 203306, Note_on_c, 14, 66, 0
27, 203328, Note_on_c, 14, 58, 74
27, 203328, Note_on_c, 14, 66, 74
27, 203370, Note_on_c, 14, 58, 0
27, 203370, Note_on_c, 14, 66, 0
27, 203392, Note_on_c, 14, 58, 71
27, 203392, Note_on_c, 14, 66, 79
27, 203434, Note_on_c, 14, 58, 0
27, 203434, Note_on_c, 14, 66, 0
27, 203456, Note_on_c, 14, 58, 80
27, 203456, Note_on_c, 14, 66, 71
27, 203498, Note_on_c, 14, 58, 0
27, 203498, Note_on_c, 14, 66, 0
27, 203648, Note_on_c, 14, 56, 73
27, 203648, Note_on_c, 14, 65, 72
27, 203690, Note_on_c, 14, 56, 0
27, 203690, Note_on_c, 14, 65, 0
27, 203712, Note_on_c, 14, 56, 65
27, 203712, Note_on_c, 14, 65, 65
27, 203754, Note_on_c, 14, 56, 0
27, 203754, Note_on_c, 14, 65, 0
27, 203776, Note_on_c, 14, 56, 63
27, 203776, Note_on_c, 14, 65, 68
27, 203818, Note_on_c, 14, 56, 0
27, 203818, Note_on_c, 14, 65, 0
27, 203840, Note_on_c, 14, 56, 60
27, 203840, Note_on_c, 14, 65, 68
27, 203882, Note_on_c, 14, 56, 0
27, 203882, Note_on_c, 14, 65, 0
27, 204032, Note_on_c, 14, 56, 53
27, 204032, Note_on_c, 14, 65, 54
27, 204074, Note_on_c, 14, 56, 0
27, 204074, Note_on_c, 14, 65, 0
27, 204096, Note_on_c, 14, 56, 48
27, 204096, Note_on_c, 14, 65, 51
27, 204138, Note_on_c, 14, 56, 0
27, 204138, Note_on_c, 14, 65, 0
27, 204160, Note_on_c, 14, 56, 45
27, 204160, Note_on_c, 14, 65, 45
27, 204202, Note_on_c, 14, 56, 0
27, 204202, Note_on_c, 14, 65, 0
27, 204224, Note_on_c, 14, 56, 40
27, 204224, Note_on_c, 14, 65, 47
27, 204266, Note_on_c, 14, 56, 0
27, 204266, Note_on_c, 14, 65, 0
27, 204416, Note_on_c, 14, 60, 74
27, 204416, Note_on_c, 14, 66, 70
27, 204458, Note_on_c, 14, 60, 0
27, 204458, Note_on_c, 14, 66, 0
27, 204480, Note_on_c, 14, 60, 72
27, 204480, Note_on_c, 14, 66, 77
27, 204522, Note_on_c, 14, 60, 0
27, 204522, Note_on_c, 14, 66, 0
27, 204544, Note_on_c, 14, 60, 79
27, 204544, Note_on_c, 14, 66, 72
27, 204586, Note_on_c, 14, 60, 0
27, 204586, Note_on_c, 14, 66, 0
27, 204608, Note_on_c, 14, 60, 75
27, 204608, Note_on_c, 14, 66, 79
27, 204650, Note_on_c, 14, 60, 0
27, 204650, Note_on_c, 14, 66, 0
27, 204800, Note_on_c, 14, 60, 75
27, 204800, Note_on_c, 14, 66, 74
27, 204842, Note_on_c, 14, 60, 0
27, 204842, Note_on_c, 14, 66, 0
27, 204864, Note_on_c, 14, 60, 77
27, 204864, Note_on_c, 14, 66, 71
27, 204906, Note_on_c, 14, 60, 0
27, 204906, Note_on_c, 14, 66, 0
27, 204928, Note_on_c, 14, 60, 76
27, 204928, Note_on_c, 14, 66, 71
27, 204970, Note_on_c, 14, 60, 0
27, 204970, Note_on_c, 14, 66, 0
27, 204992, Note_on_c, 14, 60, 71
27, 204992, Note_on_c, 14, 66, 76
27, 205034, Note_on_c, 14, 60, 0
27, 205034, Note_on_c, 14, 66, 0
27, 205184, Note_on_c, 14, 53, 78
27, 205184, Note_on_c, 14, 60, 80
27, 205226, Note_on_c, 14, 53, 0
27, 205226, Note_on_c, 14, 60, 0
27, 205248, Note_on_c, 14, 53, 73
27, 205248, Note_on_c, 14, 60, 71
27, 205290, Note_on_c, 14, 53, 0
27, 205290, Note_on_c, 14, 60, 0
27, 205312, Note_on_c, 14, 53, 76
27, 205312, Note_on_c, 14, 60, 76
27, 205354, Note_on_c, 14, 53, 0
27, 205354, Note_on_c, 14, 60, 0
27, 205376, Note_on_c, 14, 53, 72
27, 205376, Note_on_c, 14, 60, 77
27, 205418, Note_on_c, 14, 53, 0
27, 205418, Note_on_c, 14, 60, 0
27, 205568, Note_on_c, 14, 53, 77
27, 205568, Note_on_c, 14, 60, 80
27, 205610, Note_on_c, 14, 53, 0
27, 205610, Note_on_c, 14, 60, 0
27, 205632, Note_on_c, 14, 53, 74
27, 205632, Note_on_c, 14, 60, 78
27, 205674, Note_on_c, 14, 53, 0
27, 205674, Note_on_c, 14, 60, 0
27, 205696, Note_on_c, 14, 53, 73
27, 205696, Note_on_c, 14, 60, 70
27, 205738, Note_on_c, 14, 53, 0
27, 205738, Note_on_c, 14, 60, 0
27, 205760, Note_on_c, 14, 53, 76
27, 205760, Note_on_c, 14, 60, 73
27, 205802, Note_on_c, 14, 53, 0
27, 205802, Note_on_c, 14, 60, 0
27, 205952, Note_on_c, 14, 53, 78
27, 205952, Note_on_c, 14, 60, 70
27, 205994, Note_on_c, 14, 53, 0
27, 205994, Note_on_c, 14, 60, 0
27, 206016, Note_on_c, 14, 53, 76
27, 206016, Note_on_c, 14, 60, 79
27, 206058, Note_on_c, 14, 53, 0
27, 206058, Note_on_c, 14, 60, 0
27, 206080, Note_on_c, 14, 53, 79
27, 206080, Note_on_c, 14, 60, 75
27, 206122, Note_on_c, 14, 53, 0
27, 206122, Note_on_c, 14, 60, 0
27, 206144, Note_on_c, 14, 53, 79
27, 206144, Note_on_c, 14, 60, 70
27, 206186, Note_on_c, 14, 53, 0
27, 206186, Note_on_c, 14, 60, 0
27, 206336, Note_on_c, 14, 53, 77
27, 206336, Note_on_c, 14, 62, 77
27, 206378, Note_on_c, 14, 53, 0
27, 206378, Note_on_c, 14, 62, 0
27, 206400, Note_on_c, 14, 53, 77
27, 206400, Note_on_c, 14, 62, 74
27, 206442, Note_on_c, 14, 53, 0
27, 206442, Note_on_c, 14, 62, 0
27, 206464, Note_on_c, 14, 53, 70
27, 206464, Note_on_c, 14, 62, 75
27, 206506, Note_on_c, 14, 53, 0
27, 206506, Note_on_c, 14, 62, 0
27, 206528, Note_on_c, 14, 53, 74
27, 206528, Note_on_c, 14, 62, 77
27, 206570, Note_on_c, 14, 53, 0
27, 206570, Note_on_c, 14, 62, 0
27, 206720, Note_on_c, 14, 53, 79
27, 206720, Note_on_c, 14, 62, 73
27, 206762, Note_on_c, 14, 53, 0
27, 206762, Note_on_c, 14, 62, 0
27, 206784, Note_on_c, 14, 53, 72
27, 206784, Note_on_c, 14, 62, 80
27, 206826, Note_on_c, 14, 53, 0
27, 206826, Note_on_c, 14, 62, 0
27, 206848, Note_on_c, 14, 53, 73
27, 206848, Note_on_c, 14, 62, 75
27, 206890, Note_on_c, 14, 53, 0
27, 206890, Note_on_c, 14, 62, 0
27, 206912, Note_on_c, 14, 53, 75
27, 206912, Note_on_c, 14, 62, 72
27, 206954, Note_on_c, 14, 53, 0
27, 206954, Note_on_c, 14, 62, 0
27, 207104, Note_on_c, 14, 53, 78
27, 207104, Note_on_c, 14, 62, 76
27, 207146, Note_on_c, 14, 53, 0
27, 207146, Note_on_c, 14, 62, 0
27, 207168, Note_on_c, 14, 53, 77
27, 207168, Note_on_c, 14, 62, 77
27, 207210, Note_on_c, 14, 53, 0
27, 207210, Note_on_c, 14, 62, 0
27, 207232, Note_on_c, 14, 53, 75
27, 207232, Note_on_c, 14, 62, 72
27, 207274, Note_on_c, 14, 53, 0
27, 207274, Note_on_c, 14, 62, 0
27, 207296, Note_on_c, 14, 53, 73
27, 207296, Note_on_c, 14, 62, 78
27, 207338, Note_on_c, 14, 53, 0
27, 207338, Note_on_c, 14, 62, 0
27, 207488, Note_on_c, 14, 53, 75
27, 207488, Note_on_c, 14, 60, 82
27, 207530, Note_on_c, 14, 53, 0
27, 207530, Note_on_c, 14, 60, 0
27, 207552, Note_on_c, 14, 53, 85
27, 207552, Note_on_c, 14, 60, 86
27, 207594, Note_on_c, 14, 53, 0
27, 207594, Note_on_c, 14, 60, 0
27, 207616, Note_on_c, 14, 53, 79
27, 207616, Note_on_c, 14, 60, 79
27, 207658, Note_on_c, 14, 53, 0
27, 207658, Note_on_c, 14, 60, 0
27, 207680, Note_on_c, 14, 53, 90
27, 207680, Note_on_c, 14, 60, 88
27, 207722, Note_on_c, 14, 53, 0
27, 207722, Note_on_c, 14, 60, 0
27, 207872, Note_on_c, 14, 53, 100
27, 207872, Note_on_c, 14, 60, 91
27, 207914, Note_on_c, 14, 53, 0
27, 207914, Note_on_c, 14, 60, 0
27, 207936, Note_on_c, 14, 53, 98
27, 207936, Note_on_c, 14, 60, 94
27, 207978, Note_on_c, 14, 53, 0
27, 207978, Note_on_c, 14, 60, 0
27, 208000, Note_on_c, 14, 53, 100
27, 208000, Note_on_c, 14, 60, 104
27, 208042, Note_on_c, 14, 53, 0
27, 208042, Note_on_c, 14, 60, 0
27, 208064, Note_on_c, 14, 53, 100
27, 208064, Note_on_c, 14, 60, 104
27, 208106, Note_on_c, 14, 53, 0
27, 208106, Note_on_c, 14, 60, 0
27, 208128, Note_on_c, 14, 44, 113
27, 208848, Note_on_c, 14, 44, 0
27, 208896, Note_on_c, 14, 63, 109
27, 208942, Note_on_c, 14, 63, 0
27, 208944, Note_on_c, 14, 65, 105
27, 208990, Note_on_c, 14, 65, 0
27, 208992, Note_on_c, 14, 63, 112
27, 209038, Note_on_c, 14, 63, 0
27, 209040, Note_on_c, 14, 60, 111
27, 209086, Note_on_c, 14, 60, 0
27, 209088, Note_on_c, 14, 58, 112
27, 209134, Note_on_c, 14, 58, 0
27, 209136, Note_on_c, 14, 60, 105
27, 209182, Note_on_c, 14, 60, 0
27, 209184, Note_on_c, 14, 58, 106
27, 209230, Note_on_c, 14, 58, 0
27, 209232, Note_on_c, 14, 56, 105
27, 209278, Note_on_c, 14, 56, 0
27, 209280, Note_on_c, 14, 51, 108
27, 209326, Note_on_c, 14, 51, 0
27, 209328, Note_on_c, 14, 53, 98
27, 209374, Note_on_c, 14, 53, 0
27, 209376, Note_on_c, 14, 51, 89
27, 209422, Note_on_c, 14, 51, 0
27, 209424, Note_on_c, 14, 48, 81
27, 209470, Note_on_c, 14, 48, 0
27, 209472, Note_on_c, 14, 46, 70
27, 209518, Note_on_c, 14, 46, 0
27, 209520, Note_on_c, 14, 48, 66
27, 209566, Note_on_c, 14, 48, 0
27, 209568, Note_on_c, 14, 46, 58
27, 209614, Note_on_c, 14, 46, 0
27, 209616, Note_on_c, 14, 44, 44
27, 209662, Note_on_c, 14, 44, 0
27, 209856, Program_c, 14, 45
27, 209856, Note_on_c, 14, 52, 97
27, 209950, Note_on_c, 14, 52, 0
27, 210048, Program_c, 14, 48
27, 210048, Note_on_c, 14, 58, 40
27, 210094, Note_on_c, 14, 58, 0
27, 210096, Note_on_c, 14, 56, 40
27, 210142, Note_on_c, 14, 56, 0
27, 210144, Note_on_c, 14, 58, 55
27, 210190, Note_on_c, 14, 58, 0
27, 210192, Note_on_c, 14, 60, 63
27, 210238, Note_on_c, 14, 60, 0
27, 210240, Note_on_c, 14, 58, 63
27, 210286, Note_on_c, 14, 58, 0
27, 210288, Note_on_c, 14, 56, 71
27, 210334, Note_on_c, 14, 56, 0
27, 210336, Note_on_c, 14, 53, 89
27, 210382, Note_on_c, 14, 53, 0
27, 210384, Note_on_c, 14, 56, 96
27, 210430, Note_on_c, 14, 56, 0
27, 210624, Program_c, 14, 45
27, 210624, Note_on_c, 14, 52, 91
27, 210718, Note_on_c, 14, 52, 0
27, 210816, Program_c, 14, 48
27, 210816, Note_on_c, 14, 58, 43
27, 210862, Note_on_c, 14, 58, 0
27, 210864, Note_on_c, 14, 56, 46
27, 210910, Note_on_c, 14, 56, 0
27, 210912, Note_on_c, 14, 58, 49
27, 210958, Note_on_c, 14, 58, 0
27, 210960, Note_on_c, 14, 60, 64
27, 211006, Note_on_c, 14, 60, 0
27, 211008, Note_on_c, 14, 58, 71
27, 211054, Note_on_c, 14, 58, 0
27, 211056, Note_on_c, 14, 56, 79
27, 211102, Note_on_c, 14, 56, 0
27, 211104, Note_on_c, 14, 53, 87
27, 211150, Note_on_c, 14, 53, 0
27, 211152, Note_on_c, 14, 56, 93
27, 211198, Note_on_c, 14, 56, 0
27, 211648, Note_on_c, 14, 54, 78
27, 211710, Note_on_c, 14, 54, 0
27, 211712, Note_on_c, 14, 56, 73
27, 211774, Note_on_c, 14, 56, 0
27, 211776, Note_on_c, 14, 61, 77
27, 211838, Note_on_c, 14, 61, 0
27, 211840, Note_on_c, 14, 63, 81
27, 211902, Note_on_c, 14, 63, 0
27, 211904, Note_on_c, 14, 66, 82
27, 211966, Note_on_c, 14, 66, 0
27, 212416, Note_on_c, 14, 66, 94
27, 212478, Note_on_c, 14, 66, 0
27, 212480, Note_on_c, 14, 68, 93
27, 212542, Note_on_c, 14, 68, 0
27, 212544, Note_on_c, 14, 73, 97
27, 212606, Note_on_c, 14, 73, 0
27, 212608, Note_on_c, 14, 75, 97
27, 212670, Note_on_c, 14, 75, 0
27, 212672, Note_on_c, 14, 78, 99
27, 212734, Note_on_c, 14, 78, 0
27, 212736, Note_on_c, 14, 80, 107
27, 212896, Note_on_c, 14, 80, 0
27, 213504, Note_on_c, 14, 56, 113
27, 213550, Note_on_c, 14, 56, 0
27, 213552, Note_on_c, 14, 58, 111
27, 213598, Note_on_c, 14, 58, 0
27, 213600, Note_on_c, 14, 56, 109
27, 213646, Note_on_c, 14, 56, 0
27, 213648, Note_on_c, 14, 53, 108
27, 213694, Note_on_c, 14, 53, 0
27, 213696, Note_on_c, 14, 51, 109
27, 213742, Note_on_c, 14, 51, 0
27, 213744, Note_on_c, 14, 53, 111
27, 213790, Note_on_c, 14, 53, 0
27, 213792, Note_on_c, 14, 51, 112
27, 213838, Note_on_c, 14, 51, 0
27, 213840, Note_on_c, 14, 49, 110
27, 213886, Note_on_c, 14, 49, 0
27, 213888, Note_on_c, 14, 44, 105
27, 213934, Note_on_c, 14, 44, 0
27, 213936, Note_on_c, 14, 46, 96
27, 213982, Note_on_c, 14, 46, 0
27, 213984, Note_on_c, 14, 44, 89
27, 214030, Note_on_c, 14, 44, 0
27, 214032, Note_on_c, 14, 41, 84
27, 214078, Note_on_c, 14, 41, 0
27, 214080, Note_on_c, 14, 39, 76
27, 214126, Note_on_c, 14, 39, 0
27, 214128, Note_on_c, 14, 41, 68
27, 214174, Note_on_c, 14, 41, 0
27, 214176, Note_on_c, 14, 39, 65
27, 214222, Note_on_c, 14, 39, 0
27, 214224, Note_on_c, 14, 37, 54
27, 214270, Note_on_c, 14, 37, 0
27, 214272, Note_on_c, 14, 46, 49
27, 214398, Note_on_c, 14, 46, 0
27, 214400, Note_on_c, 14, 46, 45
27, 214526, Note_on_c, 14, 46, 0
27, 214528, Note_on_c, 14, 48, 48
27, 214654, Note_on_c, 14, 48, 0
27, 214656, Note_on_c, 14, 51, 46
27, 214782, Note_on_c, 14, 51, 0
27, 214784, Note_on_c, 14, 49, 51
27, 214910, Note_on_c, 14, 49, 0
27, 214912, Note_on_c, 14, 48, 51
27, 215038, Note_on_c, 14, 48, 0
27, 215040, Note_on_c, 14, 46, 52
27, 215166, Note_on_c, 14, 46, 0
27, 215168, Note_on_c, 14, 46, 53
27, 215294, Note_on_c, 14, 46, 0
27, 215296, Note_on_c, 14, 48, 59
27, 215422, Note_on_c, 14, 48, 0
27, 215424, Note_on_c, 14, 51, 63
27, 215550, Note_on_c, 14, 51, 0
27, 215552, Note_on_c, 14, 49, 68
27, 215678, Note_on_c, 14, 49, 0
27, 215680, Note_on_c, 14, 48, 65
27, 215806, Note_on_c, 14, 48, 0
27, 215808, Note_on_c, 14, 46, 66
27, 215934, Note_on_c, 14, 46, 0
27, 215936, Note_on_c, 14, 46, 74
27, 216062, Note_on_c, 14, 46, 0
27, 216064, Note_on_c, 14, 48, 69
27, 216190, Note_on_c, 14, 48, 0
27, 216192, Note_on_c, 14, 51, 73
27, 216318, Note_on_c, 14, 51, 0
27, 216320, Note_on_c, 14, 49, 70
27, 216446, Note_on_c, 14, 49, 0
27, 216448, Note_on_c, 14, 48, 72
27, 216574, Note_on_c, 14, 48, 0
27, 216576, Note_on_c, 14, 46, 74
27, 216702, Note_on_c, 14, 46, 0
27, 216704, Note_on_c, 14, 46, 83
27, 216830, Note_on_c, 14, 46, 0
27, 216832, Note_on_c, 14, 48, 79
27, 216958, Note_on_c, 14, 48, 0
27, 216960, Note_on_c, 14, 51, 85
27, 217086, Note_on_c, 14, 51, 0
27, 217088, Note_on_c, 14, 49, 91
27, 217214, Note_on_c, 14, 49, 0
27, 217216, Note_on_c, 14, 48, 85
27, 217342, Note_on_c, 14, 48, 0
27, 217344, Note_on_c, 14, 46, 97
27, 217470, Note_on_c, 14, 46, 0
27, 217472, Note_on_c, 14, 46, 87
27, 217598, Note_on_c, 14, 46, 0
27, 217600, Note_on_c, 14, 48, 95
27, 217726, Note_on_c, 14, 48, 0
27, 217728, Note_on_c, 14, 51, 95
27, 217854, Note_on_c, 14, 51, 0
27, 217856, Note_on_c, 14, 49, 94
27, 217982, Note_on_c, 14, 49, 0
27, 217984, Note_on_c, 14, 48, 96
27, 218110, Note_on_c, 14, 48, 0
27, 218112, Note_on_c, 14, 46, 91
27, 218238, Note_on_c, 14, 46, 0
27, 218240, Note_on_c, 14, 46, 94
27, 218366, Note_on_c, 14, 46, 0
27, 218368, Note_on_c, 14, 48, 96
27, 218494, Note_on_c, 14, 48, 0
27, 218496, Note_on_c, 14, 51, 93
27, 218622, Note_on_c, 14, 51, 0
27, 218624, Note_on_c, 14, 49, 92
27, 218750, Note_on_c, 14, 49, 0
27, 218752, Note_on_c, 14, 46, 91
27, 218878, Note_on_c, 14, 46, 0
27, 218880, Control_c, 14, 11, 92
27, 218880, Note_on_c, 14, 43, 127
27, 218880, Note_on_c, 14, 50, 127
27, 219648, Control_c, 14, 11, 92
27, 219669, Control_c, 14, 11, 93
27, 219691, Control_c, 14, 11, 94
27, 219713, Control_c, 14, 11, 95
27, 219735, Control_c, 14, 11, 96
27, 219757, Control_c, 14, 11, 97
27, 219779, Control_c, 14, 11, 98
27, 219801, Control_c, 14, 11, 99
27, 219823, Control_c, 14, 11, 100
27, 219845, Control_c, 14, 11, 101
27, 219867, Control_c, 14, 11, 102
27, 219889, Control_c, 14, 11, 103
27, 219911, Control_c, 14, 11, 104
27, 219933, Control_c, 14, 11, 105
27, 219955, Control_c, 14, 11, 106
27, 219977, Control_c, 14, 11, 107
27, 219999, Control_c, 14, 11, 108
27, 220021, Control_c, 14, 11, 109
27, 220042, Control_c, 14, 11, 110
27, 220064, Control_c, 14, 11, 111
27, 220086, Control_c, 14, 11, 112
27, 220108, Control_c, 14, 11, 113
27, 220130, Control_c, 14, 11, 114
27, 220152, Control_c, 14, 11, 115
27, 220174, Control_c, 14, 11, 116
27, 220196, Control_c, 14, 11, 117
27, 220218, Control_c, 14, 11, 118
27, 220240, Control_c, 14, 11, 119
27, 220262, Control_c, 14, 11, 120
27, 220284, Control_c, 14, 11, 121
27, 220306, Control_c, 14, 11, 122
27, 220328, Control_c, 14, 11, 123
27, 220350, Control_c, 14, 11, 124
27, 220368, Note_on_c, 14, 43, 0
27, 220368, Note_on_c, 14, 50, 0
27, 220372, Control_c, 14, 11, 125
27, 220394, Control_c, 14, 11, 126
27, 220416, Control_c, 14, 11, 127
27, 220416, Program_c, 14, 45
27, 220416, Note_on_c, 14, 44, 103
27, 220542, Note_on_c, 14, 44, 0
27, 220544, Note_on_c, 14, 37, 110
27, 220670, Note_on_c, 14, 37, 0
27, 220672, Note_on_c, 14, 44, 110
27, 220798, Note_on_c, 14, 44, 0
27, 220800, Note_on_c, 14, 37, 103
27, 220926, Note_on_c, 14, 37, 0
27, 220928, Note_on_c, 14, 44, 111
27, 221054, Note_on_c, 14, 44, 0
27, 221056, Note_on_c, 14, 37, 108
27, 221182, Note_on_c, 14, 37, 0
27, 221184, Note_on_c, 14, 44, 107
27, 221310, Note_on_c, 14, 44, 0
27, 221312, Note_on_c, 14, 37, 113
27, 221438, Note_on_c, 14, 37, 0
27, 221440, Note_on_c, 14, 44, 104
27, 221566, Note_on_c, 14, 44, 0
27, 221568, Note_on_c, 14, 37, 103
27, 221694, Note_on_c, 14, 37, 0
27, 221696, Note_on_c, 14, 44, 110
27, 221822, Note_on_c, 14, 44, 0
27, 221824, Note_on_c, 14, 37, 111
27, 221950, Note_on_c, 14, 37, 0
27, 221952, Note_on_c, 14, 44, 111
27, 222078, Note_on_c, 14, 44, 0
27, 222080, Note_on_c, 14, 37, 109
27, 222206, Note_on_c, 14, 37, 0
27, 222208, Note_on_c, 14, 44, 105
27, 222334, Note_on_c, 14, 44, 0
27, 222336, Note_on_c, 14, 37, 107
27, 222462, Note_on_c, 14, 37, 0
27, 222464, Note_on_c, 14, 44, 112
27, 222590, Note_on_c, 14, 44, 0
27, 222592, Note_on_c, 14, 37, 112
27, 222718, Note_on_c, 14, 37, 0
27, 222720, Note_on_c, 14, 44, 109
27, 222846, Note_on_c, 14, 44, 0
27, 222848, Note_on_c, 14, 37, 107
27, 222974, Note_on_c, 14, 37, 0
27, 222976, Note_on_c, 14, 44, 104
27, 223102, Note_on_c, 14, 44, 0
27, 223104, Note_on_c, 14, 37, 107
27, 223230, Note_on_c, 14, 37, 0
27, 223232, Note_on_c, 14, 44, 108
27, 223358, Note_on_c, 14, 44, 0
27, 223360, Note_on_c, 14, 37, 103
27, 223486, Note_on_c, 14, 37, 0
27, 223488, Program_c, 14, 44
27, 223488, Note_on_c, 14, 61, 127
27, 224976, Note_on_c, 14, 61, 0
27, 225024, Program_c, 14, 48
27, 225024, Note_on_c, 14, 61, 123
27, 225118, Note_on_c, 14, 61, 0
27, 225216, Note_on_c, 14, 37, 123
27, 225310, Note_on_c, 14, 37, 0
27, 225310, End_track
28, 0, Start_track
28, 0, Title_t, "Violoncelli II"
28, 0, MIDI_port, 0
28, 214, Control_c, 14, 0, 0
28, 215, Control_c, 14, 32, 0
28, 216, Program_c, 14, 48
28, 217, Control_c, 14, 7, 127
28, 218, Control_c, 14, 10, 74
28, 219, Control_c, 14, 91, 127
28, 14592, Note_on_c, 14, 36, 96
28, 14686, Note_on_c, 14, 36, 0
28, 16512, Note_on_c, 14, 36, 96
28, 16606, Note_on_c, 14, 36, 0
28, 17856, Note_on_c, 14, 38, 31
28, 17898, Note_on_c, 14, 38, 0
28, 17920, Note_on_c, 14, 38, 26
28, 17962, Note_on_c, 14, 38, 0
28, 17984, Note_on_c, 14, 38, 30
28, 18026, Note_on_c, 14, 38, 0
28, 18048, Note_on_c, 14, 38, 40
28, 18090, Note_on_c, 14, 38, 0
28, 18112, Note_on_c, 14, 38, 43
28, 18154, Note_on_c, 14, 38, 0
28, 18176, Note_on_c, 14, 38, 42
28, 18218, Note_on_c, 14, 38, 0
28, 18240, Note_on_c, 14, 39, 51
28, 18282, Note_on_c, 14, 39, 0
28, 18304, Note_on_c, 14, 39, 51
28, 18346, Note_on_c, 14, 39, 0
28, 18368, Note_on_c, 14, 39, 64
28, 18410, Note_on_c, 14, 39, 0
28, 18624, Note_on_c, 14, 44, 35
28, 18666, Note_on_c, 14, 44, 0
28, 18688, Note_on_c, 14, 44, 35
28, 18730, Note_on_c, 14, 44, 0
28, 18752, Note_on_c, 14, 44, 32
28, 18794, Note_on_c, 14, 44, 0
28, 18816, Note_on_c, 14, 44, 33
28, 18858, Note_on_c, 14, 44, 0
28, 18880, Note_on_c, 14, 44, 40
28, 18922, Note_on_c, 14, 44, 0
28, 18944, Note_on_c, 14, 44, 49
28, 18986, Note_on_c, 14, 44, 0
28, 19008, Note_on_c, 14, 45, 55
28, 19050, Note_on_c, 14, 45, 0
28, 19072, Note_on_c, 14, 45, 58
28, 19114, Note_on_c, 14, 45, 0
28, 19136, Note_on_c, 14, 45, 62
28, 19178, Note_on_c, 14, 45, 0
28, 19264, Note_on_c, 14, 38, 26
28, 19306, Note_on_c, 14, 38, 0
28, 19328, Note_on_c, 14, 38, 35
28, 19370, Note_on_c, 14, 38, 0
28, 19392, Note_on_c, 14, 39, 39
28, 19434, Note_on_c, 14, 39, 0
28, 19456, Note_on_c, 14, 39, 44
28, 19498, Note_on_c, 14, 39, 0
28, 19520, Note_on_c, 14, 39, 57
28, 19562, Note_on_c, 14, 39, 0
28, 19648, Note_on_c, 14, 44, 64
28, 19690, Note_on_c, 14, 44, 0
28, 19712, Note_on_c, 14, 44, 58
28, 19754, Note_on_c, 14, 44, 0
28, 19776, Note_on_c, 14, 44, 53
28, 19818, Note_on_c, 14, 44, 0
28, 19840, Note_on_c, 14, 44, 51
28, 19882, Note_on_c, 14, 44, 0
28, 19904, Note_on_c, 14, 45, 43
28, 19946, Note_on_c, 14, 45, 0
28, 19968, Note_on_c, 14, 38, 35
28, 21456, Note_on_c, 14, 38, 0
28, 21696, Note_on_c, 14, 38, 29
28, 21738, Note_on_c, 14, 38, 0
28, 21760, Note_on_c, 14, 38, 29
28, 21802, Note_on_c, 14, 38, 0
28, 21824, Note_on_c, 14, 38, 29
28, 21866, Note_on_c, 14, 38, 0
28, 21888, Note_on_c, 14, 38, 35
28, 21930, Note_on_c, 14, 38, 0
28, 21952, Note_on_c, 14, 38, 46
28, 21994, Note_on_c, 14, 38, 0
28, 22016, Note_on_c, 14, 38, 44
28, 22058, Note_on_c, 14, 38, 0
28, 22080, Note_on_c, 14, 39, 53
28, 22122, Note_on_c, 14, 39, 0
28, 22144, Note_on_c, 14, 39, 57
28, 22186, Note_on_c, 14, 39, 0
28, 22208, Note_on_c, 14, 39, 65
28, 22250, Note_on_c, 14, 39, 0
28, 22464, Note_on_c, 14, 44, 27
28, 22506, Note_on_c, 14, 44, 0
28, 22528, Note_on_c, 14, 44, 28
28, 22570, Note_on_c, 14, 44, 0
28, 22592, Note_on_c, 14, 44, 35
28, 22634, Note_on_c, 14, 44, 0
28, 22656, Note_on_c, 14, 44, 33
28, 22698, Note_on_c, 14, 44, 0
28, 22720, Note_on_c, 14, 44, 39
28, 22762, Note_on_c, 14, 44, 0
28, 22784, Note_on_c, 14, 44, 47
28, 22826, Note_on_c, 14, 44, 0
28, 22848, Note_on_c, 14, 45, 46
28, 22890, Note_on_c, 14, 45, 0
28, 22912, Note_on_c, 14, 45, 53
28, 22954, Note_on_c, 14, 45, 0
28, 22976, Note_on_c, 14, 45, 57
28, 23018, Note_on_c, 14, 45, 0
28, 23104, Note_on_c, 14, 38, 31
28, 23146, Note_on_c, 14, 38, 0
28, 23168, Note_on_c, 14, 38, 35
28, 23210, Note_on_c, 14, 38, 0
28, 23232, Note_on_c, 14, 39, 35
28, 23274, Note_on_c, 14, 39, 0
28, 23296, Note_on_c, 14, 39, 40
28, 23338, Note_on_c, 14, 39, 0
28, 23360, Note_on_c, 14, 39, 39
28, 23402, Note_on_c, 14, 39, 0
28, 23488, Note_on_c, 14, 44, 42
28, 23530, Note_on_c, 14, 44, 0
28, 23552, Note_on_c, 14, 44, 49
28, 23594, Note_on_c, 14, 44, 0
28, 23616, Note_on_c, 14, 44, 53
28, 23658, Note_on_c, 14, 44, 0
28, 23680, Note_on_c, 14, 44, 53
28, 23722, Note_on_c, 14, 44, 0
28, 23744, Note_on_c, 14, 45, 65
28, 23786, Note_on_c, 14, 45, 0
28, 102912, Note_on_c, 14, 36, 35
28, 102958, Note_on_c, 14, 36, 0
28, 102960, Note_on_c, 14, 37, 27
28, 103006, Note_on_c, 14, 37, 0
28, 103008, Note_on_c, 14, 36, 30
28, 103054, Note_on_c, 14, 36, 0
28, 103056, Note_on_c, 14, 37, 27
28, 103102, Note_on_c, 14, 37, 0
28, 103104, Note_on_c, 14, 36, 29
28, 103150, Note_on_c, 14, 36, 0
28, 103152, Note_on_c, 14, 37, 29
28, 103198, Note_on_c, 14, 37, 0
28, 103200, Note_on_c, 14, 36, 34
28, 103246, Note_on_c, 14, 36, 0
28, 103248, Note_on_c, 14, 37, 33
28, 103294, Note_on_c, 14, 37, 0
28, 103296, Note_on_c, 14, 36, 32
28, 103342, Note_on_c, 14, 36, 0
28, 103344, Note_on_c, 14, 37, 33
28, 103390, Note_on_c, 14, 37, 0
28, 103392, Note_on_c, 14, 36, 35
28, 103438, Note_on_c, 14, 36, 0
28, 103440, Note_on_c, 14, 37, 35
28, 103486, Note_on_c, 14, 37, 0
28, 103488, Note_on_c, 14, 36, 29
28, 103534, Note_on_c, 14, 36, 0
28, 103536, Note_on_c, 14, 37, 33
28, 103582, Note_on_c, 14, 37, 0
28, 103584, Note_on_c, 14, 36, 26
28, 103630, Note_on_c, 14, 36, 0
28, 103632, Note_on_c, 14, 37, 27
28, 103678, Note_on_c, 14, 37, 0
28, 103680, Note_on_c, 14, 36, 25
28, 103726, Note_on_c, 14, 36, 0
28, 103728, Note_on_c, 14, 37, 34
28, 103774, Note_on_c, 14, 37, 0
28, 103776, Note_on_c, 14, 36, 28
28, 103822, Note_on_c, 14, 36, 0
28, 103824, Note_on_c, 14, 37, 26
28, 103870, Note_on_c, 14, 37, 0
28, 103872, Note_on_c, 14, 36, 35
28, 103918, Note_on_c, 14, 36, 0
28, 103920, Note_on_c, 14, 37, 26
28, 103966, Note_on_c, 14, 37, 0
28, 103968, Note_on_c, 14, 36, 27
28, 104014, Note_on_c, 14, 36, 0
28, 104016, Note_on_c, 14, 37, 28
28, 104062, Note_on_c, 14, 37, 0
28, 104064, Note_on_c, 14, 36, 25
28, 104110, Note_on_c, 14, 36, 0
28, 104112, Note_on_c, 14, 37, 25
28, 104158, Note_on_c, 14, 37, 0
28, 104160, Note_on_c, 14, 36, 29
28, 104206, Note_on_c, 14, 36, 0
28, 104208, Note_on_c, 14, 37, 34
28, 104254, Note_on_c, 14, 37, 0
28, 104256, Note_on_c, 14, 36, 33
28, 104302, Note_on_c, 14, 36, 0
28, 104304, Note_on_c, 14, 37, 29
28, 104350, Note_on_c, 14, 37, 0
28, 104352, Note_on_c, 14, 36, 33
28, 104398, Note_on_c, 14, 36, 0
28, 104400, Note_on_c, 14, 37, 28
28, 104446, Note_on_c, 14, 37, 0
28, 104448, Note_on_c, 14, 36, 28
28, 104494, Note_on_c, 14, 36, 0
28, 104496, Note_on_c, 14, 37, 28
28, 104542, Note_on_c, 14, 37, 0
28, 104544, Note_on_c, 14, 36, 32
28, 104590, Note_on_c, 14, 36, 0
28, 104592, Note_on_c, 14, 37, 32
28, 104638, Note_on_c, 14, 37, 0
28, 104640, Note_on_c, 14, 36, 26
28, 104686, Note_on_c, 14, 36, 0
28, 104688, Note_on_c, 14, 37, 27
28, 104734, Note_on_c, 14, 37, 0
28, 104736, Note_on_c, 14, 36, 29
28, 104782, Note_on_c, 14, 36, 0
28, 104784, Note_on_c, 14, 37, 25
28, 104830, Note_on_c, 14, 37, 0
28, 104832, Note_on_c, 14, 36, 34
28, 104878, Note_on_c, 14, 36, 0
28, 104880, Note_on_c, 14, 37, 26
28, 104926, Note_on_c, 14, 37, 0
28, 104928, Note_on_c, 14, 36, 30
28, 104974, Note_on_c, 14, 36, 0
28, 104976, Note_on_c, 14, 37, 34
28, 105022, Note_on_c, 14, 37, 0
28, 105024, Note_on_c, 14, 36, 32
28, 105070, Note_on_c, 14, 36, 0
28, 105072, Note_on_c, 14, 37, 34
28, 105118, Note_on_c, 14, 37, 0
28, 105120, Note_on_c, 14, 36, 34
28, 105166, Note_on_c, 14, 36, 0
28, 105168, Note_on_c, 14, 37, 33
28, 105214, Note_on_c, 14, 37, 0
28, 115200, Note_on_c, 14, 46, 42
28, 115392, Note_on_c, 14, 46, 0
28, 115392, Note_on_c, 14, 44, 46
28, 115584, Note_on_c, 14, 44, 0
28, 115584, Note_on_c, 14, 42, 41
28, 115675, Note_on_c, 14, 42, 0
28, 115712, Note_on_c, 14, 39, 56
28, 115803, Note_on_c, 14, 39, 0
28, 115840, Note_on_c, 14, 36, 63
28, 115931, Note_on_c, 14, 36, 0
28, 115968, Note_on_c, 14, 54, 74
28, 116352, Note_on_c, 14, 54, 0
28, 116352, Note_on_c, 14, 53, 79
28, 116544, Note_on_c, 14, 53, 0
28, 116544, Note_on_c, 14, 52, 52
28, 116704, Note_on_c, 14, 52, 0
28, 116736, Note_on_c, 14, 46, 33
28, 116928, Note_on_c, 14, 46, 0
28, 116928, Note_on_c, 14, 44, 33
28, 117120, Note_on_c, 14, 44, 0
28, 117120, Note_on_c, 14, 42, 33
28, 117248, Note_on_c, 14, 42, 0
28, 117248, Note_on_c, 14, 39, 37
28, 117376, Note_on_c, 14, 39, 0
28, 117376, Note_on_c, 14, 42, 33
28, 117504, Note_on_c, 14, 42, 0
28, 117504, Note_on_c, 14, 46, 41
28, 117696, Note_on_c, 14, 46, 0
28, 117696, Note_on_c, 14, 45, 37
28, 117888, Note_on_c, 14, 45, 0
28, 117888, Note_on_c, 14, 44, 35
28, 118080, Note_on_c, 14, 44, 0
28, 118080, Note_on_c, 14, 43, 27
28, 118240, Note_on_c, 14, 43, 0
28, 138240, Note_on_c, 14, 45, 50
28, 138286, Note_on_c, 14, 45, 0
28, 138288, Note_on_c, 14, 45, 50
28, 138334, Note_on_c, 14, 45, 0
28, 138336, Note_on_c, 14, 45, 46
28, 138382, Note_on_c, 14, 45, 0
28, 138384, Note_on_c, 14, 45, 46
28, 138430, Note_on_c, 14, 45, 0
28, 138432, Note_on_c, 14, 45, 53
28, 138478, Note_on_c, 14, 45, 0
28, 138480, Note_on_c, 14, 45, 47
28, 138526, Note_on_c, 14, 45, 0
28, 138528, Note_on_c, 14, 45, 53
28, 138574, Note_on_c, 14, 45, 0
28, 138576, Note_on_c, 14, 45, 48
28, 138622, Note_on_c, 14, 45, 0
28, 138624, Note_on_c, 14, 52, 50
28, 138670, Note_on_c, 14, 52, 0
28, 138672, Note_on_c, 14, 52, 52
28, 138718, Note_on_c, 14, 52, 0
28, 138720, Note_on_c, 14, 52, 50
28, 138766, Note_on_c, 14, 52, 0
28, 138768, Note_on_c, 14, 52, 51
28, 138814, Note_on_c, 14, 52, 0
28, 138816, Note_on_c, 14, 52, 54
28, 138862, Note_on_c, 14, 52, 0
28, 138864, Note_on_c, 14, 52, 62
28, 138910, Note_on_c, 14, 52, 0
28, 138912, Note_on_c, 14, 52, 55
28, 138958, Note_on_c, 14, 52, 0
28, 138960, Note_on_c, 14, 52, 59
28, 139006, Note_on_c, 14, 52, 0
28, 139008, Note_on_c, 14, 57, 58
28, 139054, Note_on_c, 14, 57, 0
28, 139056, Note_on_c, 14, 57, 59
28, 139102, Note_on_c, 14, 57, 0
28, 139104, Note_on_c, 14, 57, 65
28, 139150, Note_on_c, 14, 57, 0
28, 139152, Note_on_c, 14, 57, 68
28, 139198, Note_on_c, 14, 57, 0
28, 139200, Note_on_c, 14, 57, 67
28, 139246, Note_on_c, 14, 57, 0
28, 139248, Note_on_c, 14, 57, 74
28, 139294, Note_on_c, 14, 57, 0
28, 139296, Note_on_c, 14, 57, 67
28, 139342, Note_on_c, 14, 57, 0
28, 139344, Note_on_c, 14, 57, 69
28, 139390, Note_on_c, 14, 57, 0
28, 139392, Note_on_c, 14, 52, 77
28, 139438, Note_on_c, 14, 52, 0
28, 139440, Note_on_c, 14, 52, 74
28, 139486, Note_on_c, 14, 52, 0
28, 139488, Note_on_c, 14, 52, 74
28, 139534, Note_on_c, 14, 52, 0
28, 139536, Note_on_c, 14, 52, 62
28, 139582, Note_on_c, 14, 52, 0
28, 139584, Note_on_c, 14, 52, 68
28, 139630, Note_on_c, 14, 52, 0
28, 139632, Note_on_c, 14, 52, 55
28, 139678, Note_on_c, 14, 52, 0
28, 139680, Note_on_c, 14, 52, 55
28, 139726, Note_on_c, 14, 52, 0
28, 139728, Note_on_c, 14, 52, 50
28, 139774, Note_on_c, 14, 52, 0
28, 139776, Note_on_c, 14, 45, 45
28, 139822, Note_on_c, 14, 45, 0
28, 139824, Note_on_c, 14, 45, 50
28, 139870, Note_on_c, 14, 45, 0
28, 139872, Note_on_c, 14, 45, 47
28, 139918, Note_on_c, 14, 45, 0
28, 139920, Note_on_c, 14, 45, 51
28, 139966, Note_on_c, 14, 45, 0
28, 139968, Note_on_c, 14, 45, 43
28, 140014, Note_on_c, 14, 45, 0
28, 140016, Note_on_c, 14, 45, 44
28, 140062, Note_on_c, 14, 45, 0
28, 140064, Note_on_c, 14, 45, 48
28, 140110, Note_on_c, 14, 45, 0
28, 140112, Note_on_c, 14, 45, 50
28, 140158, Note_on_c, 14, 45, 0
28, 140160, Note_on_c, 14, 52, 47
28, 140206, Note_on_c, 14, 52, 0
28, 140208, Note_on_c, 14, 52, 50
28, 140254, Note_on_c, 14, 52, 0
28, 140256, Note_on_c, 14, 52, 59
28, 140302, Note_on_c, 14, 52, 0
28, 140304, Note_on_c, 14, 52, 50
28, 140350, Note_on_c, 14, 52, 0
28, 140352, Note_on_c, 14, 52, 51
28, 140398, Note_on_c, 14, 52, 0
28, 140400, Note_on_c, 14, 52, 54
28, 140446, Note_on_c, 14, 52, 0
28, 140448, Note_on_c, 14, 52, 56
28, 140494, Note_on_c, 14, 52, 0
28, 140496, Note_on_c, 14, 52, 57
28, 140542, Note_on_c, 14, 52, 0
28, 140544, Note_on_c, 14, 57, 63
28, 140590, Note_on_c, 14, 57, 0
28, 140592, Note_on_c, 14, 57, 66
28, 140638, Note_on_c, 14, 57, 0
28, 140640, Note_on_c, 14, 57, 64
28, 140686, Note_on_c, 14, 57, 0
28, 140688, Note_on_c, 14, 57, 61
28, 140734, Note_on_c, 14, 57, 0
28, 140736, Note_on_c, 14, 57, 66
28, 140782, Note_on_c, 14, 57, 0
28, 140784, Note_on_c, 14, 57, 73
28, 140830, Note_on_c, 14, 57, 0
28, 140832, Note_on_c, 14, 57, 70
28, 140878, Note_on_c, 14, 57, 0
28, 140880, Note_on_c, 14, 57, 73
28, 140926, Note_on_c, 14, 57, 0
28, 140928, Note_on_c, 14, 52, 73
28, 140974, Note_on_c, 14, 52, 0
28, 140976, Note_on_c, 14, 52, 65
28, 141022, Note_on_c, 14, 52, 0
28, 141024, Note_on_c, 14, 52, 64
28, 141070, Note_on_c, 14, 52, 0
28, 141072, Note_on_c, 14, 52, 62
28, 141118, Note_on_c, 14, 52, 0
28, 141120, Note_on_c, 14, 52, 52
28, 141166, Note_on_c, 14, 52, 0
28, 141168, Note_on_c, 14, 52, 53
28, 141214, Note_on_c, 14, 52, 0
28, 141216, Note_on_c, 14, 52, 45
28, 141262, Note_on_c, 14, 52, 0
28, 141264, Note_on_c, 14, 52, 32
28, 141310, Note_on_c, 14, 52, 0
28, 141312, Note_on_c, 14, 45, 25
28, 141358, Note_on_c, 14, 45, 0
28, 141360, Note_on_c, 14, 45, 31
28, 141406, Note_on_c, 14, 45, 0
28, 141408, Note_on_c, 14, 45, 34
28, 141454, Note_on_c, 14, 45, 0
28, 141456, Note_on_c, 14, 45, 25
28, 141502, Note_on_c, 14, 45, 0
28, 141504, Note_on_c, 14, 45, 31
28, 141550, Note_on_c, 14, 45, 0
28, 141552, Note_on_c, 14, 45, 32
28, 141598, Note_on_c, 14, 45, 0
28, 141600, Note_on_c, 14, 45, 34
28, 141646, Note_on_c, 14, 45, 0
28, 141648, Note_on_c, 14, 45, 25
28, 141694, Note_on_c, 14, 45, 0
28, 141696, Note_on_c, 14, 52, 28
28, 141742, Note_on_c, 14, 52, 0
28, 141744, Note_on_c, 14, 52, 26
28, 141790, Note_on_c, 14, 52, 0
28, 141792, Note_on_c, 14, 52, 35
28, 141838, Note_on_c, 14, 52, 0
28, 141840, Note_on_c, 14, 52, 32
28, 141886, Note_on_c, 14, 52, 0
28, 141888, Note_on_c, 14, 52, 26
28, 141934, Note_on_c, 14, 52, 0
28, 141936, Note_on_c, 14, 52, 30
28, 141982, Note_on_c, 14, 52, 0
28, 141984, Note_on_c, 14, 52, 33
28, 142030, Note_on_c, 14, 52, 0
28, 142032, Note_on_c, 14, 52, 29
28, 142078, Note_on_c, 14, 52, 0
28, 142848, Note_on_c, 14, 45, 27
28, 142894, Note_on_c, 14, 45, 0
28, 142896, Note_on_c, 14, 45, 33
28, 142942, Note_on_c, 14, 45, 0
28, 142944, Note_on_c, 14, 45, 26
28, 142990, Note_on_c, 14, 45, 0
28, 142992, Note_on_c, 14, 45, 34
28, 143038, Note_on_c, 14, 45, 0
28, 143040, Note_on_c, 14, 45, 35
28, 143086, Note_on_c, 14, 45, 0
28, 143088, Note_on_c, 14, 45, 32
28, 143134, Note_on_c, 14, 45, 0
28, 143136, Note_on_c, 14, 45, 33
28, 143182, Note_on_c, 14, 45, 0
28, 143184, Note_on_c, 14, 45, 33
28, 143230, Note_on_c, 14, 45, 0
28, 143232, Note_on_c, 14, 52, 35
28, 143278, Note_on_c, 14, 52, 0
28, 143280, Note_on_c, 14, 52, 31
28, 143326, Note_on_c, 14, 52, 0
28, 143328, Note_on_c, 14, 52, 32
28, 143374, Note_on_c, 14, 52, 0
28, 143376, Note_on_c, 14, 52, 30
28, 143422, Note_on_c, 14, 52, 0
28, 143424, Note_on_c, 14, 52, 31
28, 143470, Note_on_c, 14, 52, 0
28, 143472, Note_on_c, 14, 52, 34
28, 143518, Note_on_c, 14, 52, 0
28, 143520, Note_on_c, 14, 52, 25
28, 143566, Note_on_c, 14, 52, 0
28, 143568, Note_on_c, 14, 52, 26
28, 143614, Note_on_c, 14, 52, 0
28, 173760, Note_on_c, 14, 40, 34
28, 173854, Note_on_c, 14, 40, 0
28, 174144, Note_on_c, 14, 40, 26
28, 174238, Note_on_c, 14, 40, 0
28, 174528, Note_on_c, 14, 40, 33
28, 174622, Note_on_c, 14, 40, 0
28, 174912, Note_on_c, 14, 40, 31
28, 175006, Note_on_c, 14, 40, 0
28, 175296, Note_on_c, 14, 40, 28
28, 175390, Note_on_c, 14, 40, 0
28, 175680, Note_on_c, 14, 40, 27
28, 175774, Note_on_c, 14, 40, 0
28, 176064, Note_on_c, 14, 39, 33
28, 176158, Note_on_c, 14, 39, 0
28, 176448, Note_on_c, 14, 39, 30
28, 176542, Note_on_c, 14, 39, 0
28, 176832, Note_on_c, 14, 39, 27
28, 176926, Note_on_c, 14, 39, 0
28, 177216, Note_on_c, 14, 39, 30
28, 177310, Note_on_c, 14, 39, 0
28, 177310, End_track
29, 0, Start_track
29, 0, Title_t, "Contrabbassi I"
29, 0, MIDI_port, 0
29, 2784, Control_c, 15, 11, 64
29, 2784, Note_on_c, 15, 30, 64
29, 2787, Control_c, 15, 11, 65
29, 2790, Control_c, 15, 11, 66
29, 2793, Control_c, 15, 11, 67
29, 2796, Control_c, 15, 11, 68
29, 2799, Control_c, 15, 11, 69
29, 2802, Control_c, 15, 11, 70
29, 2805, Control_c, 15, 11, 71
29, 2808, Control_c, 15, 11, 72
29, 2811, Control_c, 15, 11, 73
29, 2814, Control_c, 15, 11, 74
29, 2817, Control_c, 15, 11, 75
29, 2820, Control_c, 15, 11, 76
29, 2823, Control_c, 15, 11, 77
29, 2826, Control_c, 15, 11, 78
29, 2829, Control_c, 15, 11, 79
29, 2832, Control_c, 15, 11, 80
29, 2835, Control_c, 15, 11, 81
29, 2838, Control_c, 15, 11, 82
29, 2841, Control_c, 15, 11, 83
29, 2844, Control_c, 15, 11, 84
29, 2848, Control_c, 15, 11, 85
29, 2851, Control_c, 15, 11, 86
29, 2854, Control_c, 15, 11, 87
29, 2857, Control_c, 15, 11, 88
29, 2860, Control_c, 15, 11, 89
29, 2863, Control_c, 15, 11, 90
29, 2866, Control_c, 15, 11, 91
29, 2869, Control_c, 15, 11, 92
29, 2872, Control_c, 15, 11, 93
29, 2875, Control_c, 15, 11, 94
29, 2878, Control_c, 15, 11, 95
29, 2880, Note_on_c, 15, 30, 0
29, 2880, Note_on_c, 15, 31, 64
29, 2881, Control_c, 15, 11, 96
29, 2884, Control_c, 15, 11, 97
29, 2887, Control_c, 15, 11, 98
29, 2890, Control_c, 15, 11, 99
29, 2893, Control_c, 15, 11, 100
29, 2896, Control_c, 15, 11, 101
29, 2899, Control_c, 15, 11, 102
29, 2902, Control_c, 15, 11, 103
29, 2905, Control_c, 15, 11, 104
29, 2908, Control_c, 15, 11, 105
29, 2912, Control_c, 15, 11, 106
29, 2915, Control_c, 15, 11, 107
29, 2918, Control_c, 15, 11, 108
29, 2921, Control_c, 15, 11, 109
29, 2924, Control_c, 15, 11, 110
29, 2927, Control_c, 15, 11, 111
29, 2930, Control_c, 15, 11, 112
29, 2933, Control_c, 15, 11, 113
29, 2936, Control_c, 15, 11, 114
29, 2939, Control_c, 15, 11, 115
29, 2942, Control_c, 15, 11, 116
29, 2944, Note_on_c, 15, 31, 0
29, 2944, Note_on_c, 15, 32, 61
29, 2945, Control_c, 15, 11, 117
29, 2948, Control_c, 15, 11, 118
29, 2951, Control_c, 15, 11, 119
29, 2954, Control_c, 15, 11, 120
29, 2957, Control_c, 15, 11, 121
29, 2960, Control_c, 15, 11, 122
29, 2963, Control_c, 15, 11, 123
29, 2966, Control_c, 15, 11, 124
29, 2969, Control_c, 15, 11, 125
29, 2972, Control_c, 15, 11, 126
29, 2976, Control_c, 15, 11, 127
29, 2979, Control_c, 15, 11, 126
29, 2982, Control_c, 15, 11, 125
29, 2985, Control_c, 15, 11, 124
29, 2988, Control_c, 15, 11, 123
29, 2991, Control_c, 15, 11, 122
29, 2994, Control_c, 15, 11, 121
29, 2997, Control_c, 15, 11, 120
29, 3000, Control_c, 15, 11, 119
29, 3003, Control_c, 15, 11, 118
29, 3006, Control_c, 15, 11, 117
29, 3008, Note_on_c, 15, 32, 0
29, 3008, Note_on_c, 15, 33, 56
29, 3009, Control_c, 15, 11, 116
29, 3012, Control_c, 15, 11, 115
29, 3015, Control_c, 15, 11, 114
29, 3018, Control_c, 15, 11, 113
29, 3021, Control_c, 15, 11, 112
29, 3024, Control_c, 15, 11, 111
29, 3027, Control_c, 15, 11, 110
29, 3030, Control_c, 15, 11, 109
29, 3033, Control_c, 15, 11, 108
29, 3036, Control_c, 15, 11, 107
29, 3040, Control_c, 15, 11, 106
29, 3043, Control_c, 15, 11, 105
29, 3046, Control_c, 15, 11, 104
29, 3049, Control_c, 15, 11, 103
29, 3052, Control_c, 15, 11, 102
29, 3055, Control_c, 15, 11, 101
29, 3058, Control_c, 15, 11, 100
29, 3061, Control_c, 15, 11, 99
29, 3064, Control_c, 15, 11, 98
29, 3067, Control_c, 15, 11, 97
29, 3070, Control_c, 15, 11, 96
29, 3072, Note_on_c, 15, 33, 0
29, 3072, Note_on_c, 15, 39, 56
29, 3073, Control_c, 15, 11, 95
29, 3076, Control_c, 15, 11, 94
29, 3079, Control_c, 15, 11, 93
29, 3082, Control_c, 15, 11, 92
29, 3085, Control_c, 15, 11, 91
29, 3088, Control_c, 15, 11, 90
29, 3091, Control_c, 15, 11, 89
29, 3094, Control_c, 15, 11, 88
29, 3097, Control_c, 15, 11, 87
29, 3100, Control_c, 15, 11, 86
29, 3104, Control_c, 15, 11, 85
29, 3107, Control_c, 15, 11, 84
29, 3110, Control_c, 15, 11, 83
29, 3113, Control_c, 15, 11, 82
29, 3116, Control_c, 15, 11, 81
29, 3119, Control_c, 15, 11, 80
29, 3122, Control_c, 15, 11, 79
29, 3125, Control_c, 15, 11, 78
29, 3128, Control_c, 15, 11, 77
29, 3131, Control_c, 15, 11, 76
29, 3134, Control_c, 15, 11, 75
29, 3137, Control_c, 15, 11, 74
29, 3140, Control_c, 15, 11, 73
29, 3143, Control_c, 15, 11, 72
29, 3146, Control_c, 15, 11, 71
29, 3149, Control_c, 15, 11, 70
29, 3152, Control_c, 15, 11, 69
29, 3155, Control_c, 15, 11, 68
29, 3158, Control_c, 15, 11, 67
29, 3161, Control_c, 15, 11, 66
29, 3164, Control_c, 15, 11, 65
29, 3168, Note_on_c, 15, 39, 0
29, 3168, Control_c, 15, 11, 64
29, 3168, Note_on_c, 15, 33, 62
29, 3200, Note_on_c, 15, 33, 0
29, 4320, Control_c, 15, 11, 64
29, 4320, Note_on_c, 15, 30, 61
29, 4323, Control_c, 15, 11, 65
29, 4326, Control_c, 15, 11, 66
29, 4329, Control_c, 15, 11, 67
29, 4332, Control_c, 15, 11, 68
29, 4335, Control_c, 15, 11, 69
29, 4338, Control_c, 15, 11, 70
29, 4341, Control_c, 15, 11, 71
29, 4344, Control_c, 15, 11, 72
29, 4347, Control_c, 15, 11, 73
29, 4350, Control_c, 15, 11, 74
29, 4353, Control_c, 15, 11, 75
29, 4356, Control_c, 15, 11, 76
29, 4359, Control_c, 15, 11, 77
29, 4362, Control_c, 15, 11, 78
29, 4365, Control_c, 15, 11, 79
29, 4368, Control_c, 15, 11, 80
29, 4371, Control_c, 15, 11, 81
29, 4374, Control_c, 15, 11, 82
29, 4377, Control_c, 15, 11, 83
29, 4380, Control_c, 15, 11, 84
29, 4384, Control_c, 15, 11, 85
29, 4387, Control_c, 15, 11, 86
29, 4390, Control_c, 15, 11, 87
29, 4393, Control_c, 15, 11, 88
29, 4396, Control_c, 15, 11, 89
29, 4399, Control_c, 15, 11, 90
29, 4402, Control_c, 15, 11, 91
29, 4405, Control_c, 15, 11, 92
29, 4408, Control_c, 15, 11, 93
29, 4411, Control_c, 15, 11, 94
29, 4414, Control_c, 15, 11, 95
29, 4416, Note_on_c, 15, 30, 0
29, 4416, Note_on_c, 15, 31, 56
29, 4417, Control_c, 15, 11, 96
29, 4420, Control_c, 15, 11, 97
29, 4423, Control_c, 15, 11, 98
29, 4426, Control_c, 15, 11, 99
29, 4429, Control_c, 15, 11, 100
29, 4432, Control_c, 15, 11, 101
29, 4435, Control_c, 15, 11, 102
29, 4438, Control_c, 15, 11, 103
29, 4441, Control_c, 15, 11, 104
29, 4444, Control_c, 15, 11, 105
29, 4448, Control_c, 15, 11, 106
29, 4451, Control_c, 15, 11, 107
29, 4454, Control_c, 15, 11, 108
29, 4457, Control_c, 15, 11, 109
29, 4460, Control_c, 15, 11, 110
29, 4463, Control_c, 15, 11, 111
29, 4466, Control_c, 15, 11, 112
29, 4469, Control_c, 15, 11, 113
29, 4472, Control_c, 15, 11, 114
29, 4475, Control_c, 15, 11, 115
29, 4478, Control_c, 15, 11, 116
29, 4480, Note_on_c, 15, 31, 0
29, 4480, Note_on_c, 15, 32, 61
29, 4481, Control_c, 15, 11, 117
29, 4484, Control_c, 15, 11, 118
29, 4487, Control_c, 15, 11, 119
29, 4490, Control_c, 15, 11, 120
29, 4493, Control_c, 15, 11, 121
29, 4496, Control_c, 15, 11, 122
29, 4499, Control_c, 15, 11, 123
29, 4502, Control_c, 15, 11, 124
29, 4505, Control_c, 15, 11, 125
29, 4508, Control_c, 15, 11, 126
29, 4512, Control_c, 15, 11, 127
29, 4515, Control_c, 15, 11, 126
29, 4518, Control_c, 15, 11, 125
29, 4521, Control_c, 15, 11, 124
29, 4524, Control_c, 15, 11, 123
29, 4527, Control_c, 15, 11, 122
29, 4530, Control_c, 15, 11, 121
29, 4533, Control_c, 15, 11, 120
29, 4536, Control_c, 15, 11, 119
29, 4539, Control_c, 15, 11, 118
29, 4542, Control_c, 15, 11, 117
29, 4544, Note_on_c, 15, 32, 0
29, 4544, Note_on_c, 15, 33, 56
29, 4545, Control_c, 15, 11, 116
29, 4548, Control_c, 15, 11, 115
29, 4551, Control_c, 15, 11, 114
29, 4554, Control_c, 15, 11, 113
29, 4557, Control_c, 15, 11, 112
29, 4560, Control_c, 15, 11, 111
29, 4563, Control_c, 15, 11, 110
29, 4566, Control_c, 15, 11, 109
29, 4569, Control_c, 15, 11, 108
29, 4572, Control_c, 15, 11, 107
29, 4576, Control_c, 15, 11, 106
29, 4579, Control_c, 15, 11, 105
29, 4582, Control_c, 15, 11, 104
29, 4585, Control_c, 15, 11, 103
29, 4588, Control_c, 15, 11, 102
29, 4591, Control_c, 15, 11, 101
29, 4594, Control_c, 15, 11, 100
29, 4597, Control_c, 15, 11, 99
29, 4600, Control_c, 15, 11, 98
29, 4603, Control_c, 15, 11, 97
29, 4606, Control_c, 15, 11, 96
29, 4608, Note_on_c, 15, 33, 0
29, 4608, Note_on_c, 15, 39, 64
29, 4609, Control_c, 15, 11, 95
29, 4612, Control_c, 15, 11, 94
29, 4615, Control_c, 15, 11, 93
29, 4618, Control_c, 15, 11, 92
29, 4621, Control_c, 15, 11, 91
29, 4624, Control_c, 15, 11, 90
29, 4627, Control_c, 15, 11, 89
29, 4630, Control_c, 15, 11, 88
29, 4633, Control_c, 15, 11, 87
29, 4636, Control_c, 15, 11, 86
29, 4640, Control_c, 15, 11, 85
29, 4643, Control_c, 15, 11, 84
29, 4646, Control_c, 15, 11, 83
29, 4649, Control_c, 15, 11, 82
29, 4652, Control_c, 15, 11, 81
29, 4655, Control_c, 15, 11, 80
29, 4658, Control_c, 15, 11, 79
29, 4661, Control_c, 15, 11, 78
29, 4664, Control_c, 15, 11, 77
29, 4667, Control_c, 15, 11, 76
29, 4670, Control_c, 15, 11, 75
29, 4673, Control_c, 15, 11, 74
29, 4676, Control_c, 15, 11, 73
29, 4679, Control_c, 15, 11, 72
29, 4682, Control_c, 15, 11, 71
29, 4685, Control_c, 15, 11, 70
29, 4688, Control_c, 15, 11, 69
29, 4691, Control_c, 15, 11, 68
29, 4694, Control_c, 15, 11, 67
29, 4697, Control_c, 15, 11, 66
29, 4700, Control_c, 15, 11, 65
29, 4704, Note_on_c, 15, 39, 0
29, 4704, Control_c, 15, 11, 64
29, 4704, Note_on_c, 15, 33, 65
29, 4736, Note_on_c, 15, 33, 0
29, 5376, Control_c, 15, 11, 127
29, 5856, Note_on_c, 15, 30, 35
29, 5950, Note_on_c, 15, 30, 0
29, 5952, Note_on_c, 15, 31, 28
29, 6014, Note_on_c, 15, 31, 0
29, 6016, Note_on_c, 15, 32, 25
29, 6078, Note_on_c, 15, 32, 0
29, 6080, Note_on_c, 15, 33, 28
29, 6142, Note_on_c, 15, 33, 0
29, 6144, Note_on_c, 15, 39, 33
29, 6238, Note_on_c, 15, 39, 0
29, 6240, Note_on_c, 15, 30, 37
29, 6272, Note_on_c, 15, 30, 0
29, 6336, Note_on_c, 15, 31, 38
29, 6398, Note_on_c, 15, 31, 0
29, 6400, Note_on_c, 15, 32, 39
29, 6462, Note_on_c, 15, 32, 0
29, 6464, Note_on_c, 15, 33, 35
29, 6526, Note_on_c, 15, 33, 0
29, 6528, Note_on_c, 15, 39, 46
29, 6622, Note_on_c, 15, 39, 0
29, 6624, Note_on_c, 15, 30, 46
29, 6656, Note_on_c, 15, 30, 0
29, 6720, Note_on_c, 15, 31, 46
29, 6782, Note_on_c, 15, 31, 0
29, 6784, Note_on_c, 15, 32, 53
29, 6846, Note_on_c, 15, 32, 0
29, 6848, Note_on_c, 15, 33, 54
29, 6910, Note_on_c, 15, 33, 0
29, 6912, Note_on_c, 15, 39, 50
29, 7006, Note_on_c, 15, 39, 0
29, 7008, Note_on_c, 15, 30, 55
29, 7040, Note_on_c, 15, 30, 0
29, 7104, Note_on_c, 15, 31, 63
29, 7166, Note_on_c, 15, 31, 0
29, 7168, Note_on_c, 15, 32, 65
29, 7230, Note_on_c, 15, 32, 0
29, 7232, Note_on_c, 15, 33, 67
29, 7294, Note_on_c, 15, 33, 0
29, 7296, Note_on_c, 15, 39, 63
29, 7390, Note_on_c, 15, 39, 0
29, 7392, Note_on_c, 15, 30, 66
29, 7424, Note_on_c, 15, 30, 0
29, 7488, Note_on_c, 15, 31, 65
29, 7550, Note_on_c, 15, 31, 0
29, 7552, Note_on_c, 15, 32, 69
29, 7614, Note_on_c, 15, 32, 0
29, 7616, Note_on_c, 15, 33, 79
29, 7678, Note_on_c, 15, 33, 0
29, 7680, Program_c, 15, 44
29, 7680, Note_on_c, 15, 36, 28
29, 10704, Note_on_c, 15, 36, 0
29, 11520, Program_c, 15, 48
29, 12000, Control_c, 15, 11, 64
29, 12000, Note_on_c, 15, 30, 63
29, 12003, Control_c, 15, 11, 65
29, 12006, Control_c, 15, 11, 66
29, 12009, Control_c, 15, 11, 67
29, 12012, Control_c, 15, 11, 68
29, 12015, Control_c, 15, 11, 69
29, 12018, Control_c, 15, 11, 70
29, 12021, Control_c, 15, 11, 71
29, 12024, Control_c, 15, 11, 72
29, 12027, Control_c, 15, 11, 73
29, 12030, Control_c, 15, 11, 74
29, 12033, Control_c, 15, 11, 75
29, 12036, Control_c, 15, 11, 76
29, 12039, Control_c, 15, 11, 77
29, 12042, Control_c, 15, 11, 78
29, 12045, Control_c, 15, 11, 79
29, 12048, Control_c, 15, 11, 80
29, 12051, Control_c, 15, 11, 81
29, 12054, Control_c, 15, 11, 82
29, 12057, Control_c, 15, 11, 83
29, 12060, Control_c, 15, 11, 84
29, 12064, Control_c, 15, 11, 85
29, 12067, Control_c, 15, 11, 86
29, 12070, Control_c, 15, 11, 87
29, 12073, Control_c, 15, 11, 88
29, 12076, Control_c, 15, 11, 89
29, 12079, Control_c, 15, 11, 90
29, 12082, Control_c, 15, 11, 91
29, 12085, Control_c, 15, 11, 92
29, 12088, Control_c, 15, 11, 93
29, 12091, Control_c, 15, 11, 94
29, 12094, Control_c, 15, 11, 95
29, 12096, Note_on_c, 15, 30, 0
29, 12096, Note_on_c, 15, 31, 62
29, 12097, Control_c, 15, 11, 96
29, 12100, Control_c, 15, 11, 97
29, 12103, Control_c, 15, 11, 98
29, 12106, Control_c, 15, 11, 99
29, 12109, Control_c, 15, 11, 100
29, 12112, Control_c, 15, 11, 101
29, 12115, Control_c, 15, 11, 102
29, 12118, Control_c, 15, 11, 103
29, 12121, Control_c, 15, 11, 104
29, 12124, Control_c, 15, 11, 105
29, 12128, Control_c, 15, 11, 106
29, 12131, Control_c, 15, 11, 107
29, 12134, Control_c, 15, 11, 108
29, 12137, Control_c, 15, 11, 109
29, 12140, Control_c, 15, 11, 110
29, 12143, Control_c, 15, 11, 111
29, 12146, Control_c, 15, 11, 112
29, 12149, Control_c, 15, 11, 113
29, 12152, Control_c, 15, 11, 114
29, 12155, Control_c, 15, 11, 115
29, 12158, Control_c, 15, 11, 116
29, 12160, Note_on_c, 15, 31, 0
29, 12160, Note_on_c, 15, 32, 65
29, 12161, Control_c, 15, 11, 117
29, 12164, Control_c, 15, 11, 118
29, 12167, Control_c, 15, 11, 119
29, 12170, Control_c, 15, 11, 120
29, 12173, Control_c, 15, 11, 121
29, 12176, Control_c, 15, 11, 122
29, 12179, Control_c, 15, 11, 123
29, 12182, Control_c, 15, 11, 124
29, 12185, Control_c, 15, 11, 125
29, 12188, Control_c, 15, 11, 126
29, 12192, Control_c, 15, 11, 127
29, 12195, Control_c, 15, 11, 126
29, 12198, Control_c, 15, 11, 125
29, 12201, Control_c, 15, 11, 124
29, 12204, Control_c, 15, 11, 123
29, 12207, Control_c, 15, 11, 122
29, 12210, Control_c, 15, 11, 121
29, 12213, Control_c, 15, 11, 120
29, 12216, Control_c, 15, 11, 119
29, 12219, Control_c, 15, 11, 118
29, 12222, Control_c, 15, 11, 117
29, 12224, Note_on_c, 15, 32, 0
29, 12224, Note_on_c, 15, 33, 57
29, 12225, Control_c, 15, 11, 116
29, 12228, Control_c, 15, 11, 115
29, 12231, Control_c, 15, 11, 114
29, 12234, Control_c, 15, 11, 113
29, 12237, Control_c, 15, 11, 112
29, 12240, Control_c, 15, 11, 111
29, 12243, Control_c, 15, 11, 110
29, 12246, Control_c, 15, 11, 109
29, 12249, Control_c, 15, 11, 108
29, 12252, Control_c, 15, 11, 107
29, 12256, Control_c, 15, 11, 106
29, 12259, Control_c, 15, 11, 105
29, 12262, Control_c, 15, 11, 104
29, 12265, Control_c, 15, 11, 103
29, 12268, Control_c, 15, 11, 102
29, 12271, Control_c, 15, 11, 101
29, 12274, Control_c, 15, 11, 100
29, 12277, Control_c, 15, 11, 99
29, 12280, Control_c, 15, 11, 98
29, 12283, Control_c, 15, 11, 97
29, 12286, Control_c, 15, 11, 96
29, 12288, Note_on_c, 15, 33, 0
29, 12288, Note_on_c, 15, 39, 58
29, 12289, Control_c, 15, 11, 95
29, 12292, Control_c, 15, 11, 94
29, 12295, Control_c, 15, 11, 93
29, 12298, Control_c, 15, 11, 92
29, 12301, Control_c, 15, 11, 91
29, 12304, Control_c, 15, 11, 90
29, 12307, Control_c, 15, 11, 89
29, 12310, Control_c, 15, 11, 88
29, 12313, Control_c, 15, 11, 87
29, 12316, Control_c, 15, 11, 86
29, 12320, Control_c, 15, 11, 85
29, 12323, Control_c, 15, 11, 84
29, 12326, Control_c, 15, 11, 83
29, 12329, Control_c, 15, 11, 82
29, 12332, Control_c, 15, 11, 81
29, 12335, Control_c, 15, 11, 80
29, 12338, Control_c, 15, 11, 79
29, 12341, Control_c, 15, 11, 78
29, 12344, Control_c, 15, 11, 77
29, 12347, Control_c, 15, 11, 76
29, 12350, Control_c, 15, 11, 75
29, 12353, Control_c, 15, 11, 74
29, 12356, Control_c, 15, 11, 73
29, 12359, Control_c, 15, 11, 72
29, 12362, Control_c, 15, 11, 71
29, 12365, Control_c, 15, 11, 70
29, 12368, Control_c, 15, 11, 69
29, 12371, Control_c, 15, 11, 68
29, 12374, Control_c, 15, 11, 67
29, 12377, Control_c, 15, 11, 66
29, 12380, Control_c, 15, 11, 65
29, 12384, Note_on_c, 15, 39, 0
29, 12384, Control_c, 15, 11, 64
29, 12384, Note_on_c, 15, 33, 61
29, 12416, Note_on_c, 15, 33, 0
29, 13536, Control_c, 15, 11, 64
29, 13536, Note_on_c, 15, 30, 55
29, 13539, Control_c, 15, 11, 65
29, 13542, Control_c, 15, 11, 66
29, 13545, Control_c, 15, 11, 67
29, 13548, Control_c, 15, 11, 68
29, 13551, Control_c, 15, 11, 69
29, 13554, Control_c, 15, 11, 70
29, 13557, Control_c, 15, 11, 71
29, 13560, Control_c, 15, 11, 72
29, 13563, Control_c, 15, 11, 73
29, 13566, Control_c, 15, 11, 74
29, 13569, Control_c, 15, 11, 75
29, 13572, Control_c, 15, 11, 76
29, 13575, Control_c, 15, 11, 77
29, 13578, Control_c, 15, 11, 78
29, 13581, Control_c, 15, 11, 79
29, 13584, Control_c, 15, 11, 80
29, 13587, Control_c, 15, 11, 81
29, 13590, Control_c, 15, 11, 82
29, 13593, Control_c, 15, 11, 83
29, 13596, Control_c, 15, 11, 84
29, 13600, Control_c, 15, 11, 85
29, 13603, Control_c, 15, 11, 86
29, 13606, Control_c, 15, 11, 87
29, 13609, Control_c, 15, 11, 88
29, 13612, Control_c, 15, 11, 89
29, 13615, Control_c, 15, 11, 90
29, 13618, Control_c, 15, 11, 91
29, 13621, Control_c, 15, 11, 92
29, 13624, Control_c, 15, 11, 93
29, 13627, Control_c, 15, 11, 94
29, 13630, Control_c, 15, 11, 95
29, 13632, Note_on_c, 15, 30, 0
29, 13632, Note_on_c, 15, 31, 57
29, 13633, Control_c, 15, 11, 96
29, 13636, Control_c, 15, 11, 97
29, 13639, Control_c, 15, 11, 98
29, 13642, Control_c, 15, 11, 99
29, 13645, Control_c, 15, 11, 100
29, 13648, Control_c, 15, 11, 101
29, 13651, Control_c, 15, 11, 102
29, 13654, Control_c, 15, 11, 103
29, 13657, Control_c, 15, 11, 104
29, 13660, Control_c, 15, 11, 105
29, 13664, Control_c, 15, 11, 106
29, 13667, Control_c, 15, 11, 107
29, 13670, Control_c, 15, 11, 108
29, 13673, Control_c, 15, 11, 109
29, 13676, Control_c, 15, 11, 110
29, 13679, Control_c, 15, 11, 111
29, 13682, Control_c, 15, 11, 112
29, 13685, Control_c, 15, 11, 113
29, 13688, Control_c, 15, 11, 114
29, 13691, Control_c, 15, 11, 115
29, 13694, Control_c, 15, 11, 116
29, 13696, Note_on_c, 15, 31, 0
29, 13696, Note_on_c, 15, 32, 61
29, 13697, Control_c, 15, 11, 117
29, 13700, Control_c, 15, 11, 118
29, 13703, Control_c, 15, 11, 119
29, 13706, Control_c, 15, 11, 120
29, 13709, Control_c, 15, 11, 121
29, 13712, Control_c, 15, 11, 122
29, 13715, Control_c, 15, 11, 123
29, 13718, Control_c, 15, 11, 124
29, 13721, Control_c, 15, 11, 125
29, 13724, Control_c, 15, 11, 126
29, 13728, Control_c, 15, 11, 127
29, 13731, Control_c, 15, 11, 126
29, 13734, Control_c, 15, 11, 125
29, 13737, Control_c, 15, 11, 124
29, 13740, Control_c, 15, 11, 123
29, 13743, Control_c, 15, 11, 122
29, 13746, Control_c, 15, 11, 121
29, 13749, Control_c, 15, 11, 120
29, 13752, Control_c, 15, 11, 119
29, 13755, Control_c, 15, 11, 118
29, 13758, Control_c, 15, 11, 117
29, 13760, Note_on_c, 15, 32, 0
29, 13760, Note_on_c, 15, 33, 56
29, 13761, Control_c, 15, 11, 116
29, 13764, Control_c, 15, 11, 115
29, 13767, Control_c, 15, 11, 114
29, 13770, Control_c, 15, 11, 113
29, 13773, Control_c, 15, 11, 112
29, 13776, Control_c, 15, 11, 111
29, 13779, Control_c, 15, 11, 110
29, 13782, Control_c, 15, 11, 109
29, 13785, Control_c, 15, 11, 108
29, 13788, Control_c, 15, 11, 107
29, 13792, Control_c, 15, 11, 106
29, 13795, Control_c, 15, 11, 105
29, 13798, Control_c, 15, 11, 104
29, 13801, Control_c, 15, 11, 103
29, 13804, Control_c, 15, 11, 102
29, 13807, Control_c, 15, 11, 101
29, 13810, Control_c, 15, 11, 100
29, 13813, Control_c, 15, 11, 99
29, 13816, Control_c, 15, 11, 98
29, 13819, Control_c, 15, 11, 97
29, 13822, Control_c, 15, 11, 96
29, 13824, Note_on_c, 15, 33, 0
29, 13824, Note_on_c, 15, 39, 58
29, 13825, Control_c, 15, 11, 95
29, 13828, Control_c, 15, 11, 94
29, 13831, Control_c, 15, 11, 93
29, 13834, Control_c, 15, 11, 92
29, 13837, Control_c, 15, 11, 91
29, 13840, Control_c, 15, 11, 90
29, 13843, Control_c, 15, 11, 89
29, 13846, Control_c, 15, 11, 88
29, 13849, Control_c, 15, 11, 87
29, 13852, Control_c, 15, 11, 86
29, 13856, Control_c, 15, 11, 85
29, 13859, Control_c, 15, 11, 84
29, 13862, Control_c, 15, 11, 83
29, 13865, Control_c, 15, 11, 82
29, 13868, Control_c, 15, 11, 81
29, 13871, Control_c, 15, 11, 80
29, 13874, Control_c, 15, 11, 79
29, 13877, Control_c, 15, 11, 78
29, 13880, Control_c, 15, 11, 77
29, 13883, Control_c, 15, 11, 76
29, 13886, Control_c, 15, 11, 75
29, 13889, Control_c, 15, 11, 74
29, 13892, Control_c, 15, 11, 73
29, 13895, Control_c, 15, 11, 72
29, 13898, Control_c, 15, 11, 71
29, 13901, Control_c, 15, 11, 70
29, 13904, Control_c, 15, 11, 69
29, 13907, Control_c, 15, 11, 68
29, 13910, Control_c, 15, 11, 67
29, 13913, Control_c, 15, 11, 66
29, 13916, Control_c, 15, 11, 65
29, 13920, Note_on_c, 15, 39, 0
29, 13920, Control_c, 15, 11, 64
29, 13920, Note_on_c, 15, 33, 57
29, 13952, Note_on_c, 15, 33, 0
29, 14208, Control_c, 15, 11, 127
29, 14592, Program_c, 15, 45
29, 14592, Note_on_c, 15, 29, 93
29, 14686, Note_on_c, 15, 29, 0
29, 16512, Note_on_c, 15, 29, 97
29, 16606, Note_on_c, 15, 29, 0
29, 17664, Program_c, 15, 48
29, 17856, Note_on_c, 15, 36, 32
29, 17898, Note_on_c, 15, 36, 0
29, 17920, Note_on_c, 15, 36, 34
29, 17962, Note_on_c, 15, 36, 0
29, 17984, Note_on_c, 15, 36, 34
29, 18026, Note_on_c, 15, 36, 0
29, 18048, Note_on_c, 15, 36, 35
29, 18090, Note_on_c, 15, 36, 0
29, 18112, Note_on_c, 15, 36, 43
29, 18154, Note_on_c, 15, 36, 0
29, 18176, Note_on_c, 15, 36, 47
29, 18218, Note_on_c, 15, 36, 0
29, 18240, Note_on_c, 15, 35, 47
29, 18282, Note_on_c, 15, 35, 0
29, 18304, Note_on_c, 15, 35, 60
29, 18346, Note_on_c, 15, 35, 0
29, 18368, Note_on_c, 15, 35, 65
29, 18410, Note_on_c, 15, 35, 0
29, 18624, Note_on_c, 15, 42, 27
29, 18666, Note_on_c, 15, 42, 0
29, 18688, Note_on_c, 15, 42, 30
29, 18730, Note_on_c, 15, 42, 0
29, 18752, Note_on_c, 15, 42, 31
29, 18794, Note_on_c, 15, 42, 0
29, 18816, Note_on_c, 15, 42, 37
29, 18858, Note_on_c, 15, 42, 0
29, 18880, Note_on_c, 15, 42, 41
29, 18922, Note_on_c, 15, 42, 0
29, 18944, Note_on_c, 15, 42, 50
29, 18986, Note_on_c, 15, 42, 0
29, 19008, Note_on_c, 15, 41, 53
29, 19050, Note_on_c, 15, 41, 0
29, 19072, Note_on_c, 15, 41, 57
29, 19114, Note_on_c, 15, 41, 0
29, 19136, Note_on_c, 15, 41, 63
29, 19178, Note_on_c, 15, 41, 0
29, 19264, Note_on_c, 15, 36, 35
29, 19306, Note_on_c, 15, 36, 0
29, 19328, Note_on_c, 15, 36, 35
29, 19370, Note_on_c, 15, 36, 0
29, 19392, Note_on_c, 15, 35, 36
29, 19434, Note_on_c, 15, 35, 0
29, 19456, Note_on_c, 15, 35, 47
29, 19498, Note_on_c, 15, 35, 0
29, 19520, Note_on_c, 15, 35, 48
29, 19562, Note_on_c, 15, 35, 0
29, 19648, Note_on_c, 15, 42, 57
29, 19690, Note_on_c, 15, 42, 0
29, 19712, Note_on_c, 15, 42, 55
29, 19754, Note_on_c, 15, 42, 0
29, 19776, Note_on_c, 15, 42, 57
29, 19818, Note_on_c, 15, 42, 0
29, 19840, Note_on_c, 15, 42, 44
29, 19882, Note_on_c, 15, 42, 0
29, 19904, Note_on_c, 15, 41, 34
29, 19946, Note_on_c, 15, 41, 0
29, 19968, Program_c, 15, 44
29, 19968, Note_on_c, 15, 35, 35
29, 21456, Note_on_c, 15, 35, 0
29, 21504, Program_c, 15, 48
29, 21696, Note_on_c, 15, 36, 26
29, 21738, Note_on_c, 15, 36, 0
29, 21760, Note_on_c, 15, 36, 27
29, 21802, Note_on_c, 15, 36, 0
29, 21824, Note_on_c, 15, 36, 32
29, 21866, Note_on_c, 15, 36, 0
29, 21888, Note_on_c, 15, 36, 33
29, 21930, Note_on_c, 15, 36, 0
29, 21952, Note_on_c, 15, 36, 37
29, 21994, Note_on_c, 15, 36, 0
29, 22016, Note_on_c, 15, 36, 45
29, 22058, Note_on_c, 15, 36, 0
29, 22080, Note_on_c, 15, 35, 54
29, 22122, Note_on_c, 15, 35, 0
29, 22144, Note_on_c, 15, 35, 58
29, 22186, Note_on_c, 15, 35, 0
29, 22208, Note_on_c, 15, 35, 59
29, 22250, Note_on_c, 15, 35, 0
29, 22464, Note_on_c, 15, 42, 33
29, 22506, Note_on_c, 15, 42, 0
29, 22528, Note_on_c, 15, 42, 28
29, 22570, Note_on_c, 15, 42, 0
29, 22592, Note_on_c, 15, 42, 32
29, 22634, Note_on_c, 15, 42, 0
29, 22656, Note_on_c, 15, 42, 36
29, 22698, Note_on_c, 15, 42, 0
29, 22720, Note_on_c, 15, 42, 44
29, 22762, Note_on_c, 15, 42, 0
29, 22784, Note_on_c, 15, 42, 48
29, 22826, Note_on_c, 15, 42, 0
29, 22848, Note_on_c, 15, 41, 46
29, 22890, Note_on_c, 15, 41, 0
29, 22912, Note_on_c, 15, 41, 52
29, 22954, Note_on_c, 15, 41, 0
29, 22976, Note_on_c, 15, 41, 59
29, 23018, Note_on_c, 15, 41, 0
29, 23104, Note_on_c, 15, 36, 25
29, 23146, Note_on_c, 15, 36, 0
29, 23168, Note_on_c, 15, 36, 34
29, 23210, Note_on_c, 15, 36, 0
29, 23232, Note_on_c, 15, 35, 29
29, 23274, Note_on_c, 15, 35, 0
29, 23296, Note_on_c, 15, 35, 36
29, 23338, Note_on_c, 15, 35, 0
29, 23360, Note_on_c, 15, 35, 43
29, 23402, Note_on_c, 15, 35, 0
29, 23488, Note_on_c, 15, 42, 47
29, 23530, Note_on_c, 15, 42, 0
29, 23552, Note_on_c, 15, 42, 52
29, 23594, Note_on_c, 15, 42, 0
29, 23616, Note_on_c, 15, 42, 56
29, 23658, Note_on_c, 15, 42, 0
29, 23680, Note_on_c, 15, 42, 59
29, 23722, Note_on_c, 15, 42, 0
29, 23744, Note_on_c, 15, 41, 57
29, 23786, Note_on_c, 15, 41, 0
29, 33792, Program_c, 15, 48
29, 33888, Note_on_c, 15, 32, 46
29, 33920, Note_on_c, 15, 32, 0
29, 33936, Note_on_c, 15, 32, 41
29, 33968, Note_on_c, 15, 32, 0
29, 33984, Note_on_c, 15, 33, 48
29, 34016, Note_on_c, 15, 33, 0
29, 34032, Note_on_c, 15, 33, 47
29, 34064, Note_on_c, 15, 33, 0
29, 34080, Note_on_c, 15, 35, 50
29, 34112, Note_on_c, 15, 35, 0
29, 34128, Note_on_c, 15, 35, 57
29, 34160, Note_on_c, 15, 35, 0
29, 34176, Note_on_c, 15, 36, 50
29, 34208, Note_on_c, 15, 36, 0
29, 34224, Note_on_c, 15, 36, 52
29, 34256, Note_on_c, 15, 36, 0
29, 34272, Note_on_c, 15, 38, 55
29, 34304, Note_on_c, 15, 38, 0
29, 34320, Note_on_c, 15, 38, 58
29, 34352, Note_on_c, 15, 38, 0
29, 34368, Note_on_c, 15, 42, 65
29, 34400, Note_on_c, 15, 42, 0
29, 34416, Note_on_c, 15, 42, 64
29, 34448, Note_on_c, 15, 42, 0
29, 34464, Note_on_c, 15, 44, 75
29, 34496, Note_on_c, 15, 44, 0
29, 34512, Note_on_c, 15, 44, 76
29, 34544, Note_on_c, 15, 44, 0
29, 34656, Note_on_c, 15, 32, 46
29, 34688, Note_on_c, 15, 32, 0
29, 34704, Note_on_c, 15, 32, 40
29, 34736, Note_on_c, 15, 32, 0
29, 34752, Note_on_c, 15, 33, 52
29, 34784, Note_on_c, 15, 33, 0
29, 34800, Note_on_c, 15, 33, 54
29, 34832, Note_on_c, 15, 33, 0
29, 34848, Note_on_c, 15, 35, 51
29, 34880, Note_on_c, 15, 35, 0
29, 34896, Note_on_c, 15, 35, 52
29, 34928, Note_on_c, 15, 35, 0
29, 34944, Note_on_c, 15, 36, 60
29, 34976, Note_on_c, 15, 36, 0
29, 34992, Note_on_c, 15, 36, 55
29, 35024, Note_on_c, 15, 36, 0
29, 35040, Note_on_c, 15, 38, 63
29, 35072, Note_on_c, 15, 38, 0
29, 35088, Note_on_c, 15, 38, 60
29, 35120, Note_on_c, 15, 38, 0
29, 35136, Note_on_c, 15, 42, 64
29, 35168, Note_on_c, 15, 42, 0
29, 35184, Note_on_c, 15, 42, 68
29, 35216, Note_on_c, 15, 42, 0
29, 35232, Note_on_c, 15, 44, 68
29, 35264, Note_on_c, 15, 44, 0
29, 35280, Note_on_c, 15, 44, 71
29, 35312, Note_on_c, 15, 44, 0
29, 35424, Note_on_c, 15, 32, 43
29, 35456, Note_on_c, 15, 32, 0
29, 35472, Note_on_c, 15, 32, 50
29, 35504, Note_on_c, 15, 32, 0
29, 35520, Note_on_c, 15, 33, 44
29, 35552, Note_on_c, 15, 33, 0
29, 35568, Note_on_c, 15, 33, 49
29, 35600, Note_on_c, 15, 33, 0
29, 35616, Note_on_c, 15, 35, 49
29, 35648, Note_on_c, 15, 35, 0
29, 35664, Note_on_c, 15, 35, 51
29, 35696, Note_on_c, 15, 35, 0
29, 35712, Note_on_c, 15, 36, 57
29, 35744, Note_on_c, 15, 36, 0
29, 35760, Note_on_c, 15, 36, 60
29, 35792, Note_on_c, 15, 36, 0
29, 35808, Note_on_c, 15, 38, 60
29, 35840, Note_on_c, 15, 38, 0
29, 35856, Note_on_c, 15, 38, 68
29, 35888, Note_on_c, 15, 38, 0
29, 35904, Note_on_c, 15, 42, 62
29, 35936, Note_on_c, 15, 42, 0
29, 35952, Note_on_c, 15, 42, 65
29, 35984, Note_on_c, 15, 42, 0
29, 36000, Note_on_c, 15, 44, 74
29, 36032, Note_on_c, 15, 44, 0
29, 36048, Note_on_c, 15, 44, 74
29, 36080, Note_on_c, 15, 44, 0
29, 36192, Note_on_c, 15, 32, 48
29, 36224, Note_on_c, 15, 32, 0
29, 36240, Note_on_c, 15, 32, 40
29, 36272, Note_on_c, 15, 32, 0
29, 36288, Note_on_c, 15, 33, 52
29, 36320, Note_on_c, 15, 33, 0
29, 36336, Note_on_c, 15, 33, 45
29, 36368, Note_on_c, 15, 33, 0
29, 36384, Note_on_c, 15, 35, 51
29, 36416, Note_on_c, 15, 35, 0
29, 36432, Note_on_c, 15, 35, 53
29, 36464, Note_on_c, 15, 35, 0
29, 36480, Note_on_c, 15, 36, 55
29, 36512, Note_on_c, 15, 36, 0
29, 36528, Note_on_c, 15, 36, 62
29, 36560, Note_on_c, 15, 36, 0
29, 36576, Note_on_c, 15, 38, 61
29, 36608, Note_on_c, 15, 38, 0
29, 36624, Note_on_c, 15, 38, 67
29, 36656, Note_on_c, 15, 38, 0
29, 36672, Note_on_c, 15, 42, 61
29, 36704, Note_on_c, 15, 42, 0
29, 36720, Note_on_c, 15, 42, 64
29, 36752, Note_on_c, 15, 42, 0
29, 36768, Note_on_c, 15, 44, 70
29, 36800, Note_on_c, 15, 44, 0
29, 36816, Note_on_c, 15, 44, 74
29, 36848, Note_on_c, 15, 44, 0
29, 36960, Note_on_c, 15, 32, 40
29, 36992, Note_on_c, 15, 32, 0
29, 37008, Note_on_c, 15, 32, 42
29, 37040, Note_on_c, 15, 32, 0
29, 37056, Note_on_c, 15, 33, 52
29, 37088, Note_on_c, 15, 33, 0
29, 37104, Note_on_c, 15, 33, 44
29, 37136, Note_on_c, 15, 33, 0
29, 37152, Note_on_c, 15, 35, 46
29, 37184, Note_on_c, 15, 35, 0
29, 37200, Note_on_c, 15, 35, 50
29, 37232, Note_on_c, 15, 35, 0
29, 37248, Note_on_c, 15, 36, 53
29, 37280, Note_on_c, 15, 36, 0
29, 37296, Note_on_c, 15, 36, 55
29, 37328, Note_on_c, 15, 36, 0
29, 37344, Note_on_c, 15, 38, 63
29, 37376, Note_on_c, 15, 38, 0
29, 37392, Note_on_c, 15, 38, 68
29, 37424, Note_on_c, 15, 38, 0
29, 37440, Note_on_c, 15, 42, 67
29, 37472, Note_on_c, 15, 42, 0
29, 37488, Note_on_c, 15, 42, 65
29, 37520, Note_on_c, 15, 42, 0
29, 37536, Note_on_c, 15, 44, 71
29, 37568, Note_on_c, 15, 44, 0
29, 37584, Note_on_c, 15, 44, 79
29, 37616, Note_on_c, 15, 44, 0
29, 37728, Note_on_c, 15, 32, 44
29, 37760, Note_on_c, 15, 32, 0
29, 37776, Note_on_c, 15, 32, 45
29, 37808, Note_on_c, 15, 32, 0
29, 37824, Note_on_c, 15, 33, 45
29, 37856, Note_on_c, 15, 33, 0
29, 37872, Note_on_c, 15, 33, 44
29, 37904, Note_on_c, 15, 33, 0
29, 37920, Note_on_c, 15, 35, 50
29, 37952, Note_on_c, 15, 35, 0
29, 37968, Note_on_c, 15, 35, 55
29, 38000, Note_on_c, 15, 35, 0
29, 38016, Note_on_c, 15, 36, 53
29, 38048, Note_on_c, 15, 36, 0
29, 38064, Note_on_c, 15, 36, 62
29, 38096, Note_on_c, 15, 36, 0
29, 38112, Note_on_c, 15, 38, 63
29, 38144, Note_on_c, 15, 38, 0
29, 38160, Note_on_c, 15, 38, 59
29, 38192, Note_on_c, 15, 38, 0
29, 38208, Note_on_c, 15, 42, 61
29, 38240, Note_on_c, 15, 42, 0
29, 38256, Note_on_c, 15, 42, 70
29, 38288, Note_on_c, 15, 42, 0
29, 38304, Note_on_c, 15, 44, 76
29, 38336, Note_on_c, 15, 44, 0
29, 38352, Note_on_c, 15, 44, 70
29, 38384, Note_on_c, 15, 44, 0
29, 38496, Note_on_c, 15, 32, 46
29, 38528, Note_on_c, 15, 32, 0
29, 38544, Note_on_c, 15, 32, 47
29, 38576, Note_on_c, 15, 32, 0
29, 38592, Note_on_c, 15, 33, 51
29, 38624, Note_on_c, 15, 33, 0
29, 38640, Note_on_c, 15, 33, 44
29, 38672, Note_on_c, 15, 33, 0
29, 38688, Note_on_c, 15, 35, 49
29, 38720, Note_on_c, 15, 35, 0
29, 38736, Note_on_c, 15, 35, 49
29, 38768, Note_on_c, 15, 35, 0
29, 38784, Note_on_c, 15, 36, 60
29, 38816, Note_on_c, 15, 36, 0
29, 38832, Note_on_c, 15, 36, 59
29, 38864, Note_on_c, 15, 36, 0
29, 38880, Note_on_c, 15, 38, 56
29, 38912, Note_on_c, 15, 38, 0
29, 38928, Note_on_c, 15, 38, 63
29, 38960, Note_on_c, 15, 38, 0
29, 38976, Note_on_c, 15, 42, 69
29, 39008, Note_on_c, 15, 42, 0
29, 39024, Note_on_c, 15, 42, 68
29, 39056, Note_on_c, 15, 42, 0
29, 39072, Note_on_c, 15, 44, 69
29, 39104, Note_on_c, 15, 44, 0
29, 39120, Note_on_c, 15, 44, 78
29, 39152, Note_on_c, 15, 44, 0
29, 39264, Note_on_c, 15, 32, 41
29, 39296, Note_on_c, 15, 32, 0
29, 39312, Note_on_c, 15, 32, 49
29, 39344, Note_on_c, 15, 32, 0
29, 39360, Note_on_c, 15, 33, 52
29, 39392, Note_on_c, 15, 33, 0
29, 39408, Note_on_c, 15, 33, 51
29, 39440, Note_on_c, 15, 33, 0
29, 39456, Note_on_c, 15, 35, 54
29, 39488, Note_on_c, 15, 35, 0
29, 39504, Note_on_c, 15, 35, 56
29, 39536, Note_on_c, 15, 35, 0
29, 39552, Note_on_c, 15, 36, 60
29, 39584, Note_on_c, 15, 36, 0
29, 39600, Note_on_c, 15, 36, 58
29, 39632, Note_on_c, 15, 36, 0
29, 39648, Note_on_c, 15, 38, 62
29, 39680, Note_on_c, 15, 38, 0
29, 39696, Note_on_c, 15, 38, 63
29, 39728, Note_on_c, 15, 38, 0
29, 39744, Note_on_c, 15, 42, 67
29, 39776, Note_on_c, 15, 42, 0
29, 39792, Note_on_c, 15, 42, 73
29, 39824, Note_on_c, 15, 42, 0
29, 39840, Note_on_c, 15, 44, 67
29, 39872, Note_on_c, 15, 44, 0
29, 39888, Note_on_c, 15, 44, 71
29, 39920, Note_on_c, 15, 44, 0
29, 40032, Note_on_c, 15, 32, 79
29, 40064, Note_on_c, 15, 32, 0
29, 40080, Note_on_c, 15, 32, 71
29, 40112, Note_on_c, 15, 32, 0
29, 40128, Note_on_c, 15, 33, 79
29, 40160, Note_on_c, 15, 33, 0
29, 40176, Note_on_c, 15, 33, 78
29, 40208, Note_on_c, 15, 33, 0
29, 40224, Note_on_c, 15, 35, 76
29, 40256, Note_on_c, 15, 35, 0
29, 40272, Note_on_c, 15, 35, 76
29, 40304, Note_on_c, 15, 35, 0
29, 40320, Note_on_c, 15, 36, 83
29, 40352, Note_on_c, 15, 36, 0
29, 40368, Note_on_c, 15, 36, 81
29, 40400, Note_on_c, 15, 36, 0
29, 40416, Note_on_c, 15, 38, 79
29, 40448, Note_on_c, 15, 38, 0
29, 40464, Note_on_c, 15, 38, 84
29, 40496, Note_on_c, 15, 38, 0
29, 40512, Note_on_c, 15, 42, 88
29, 40544, Note_on_c, 15, 42, 0
29, 40560, Note_on_c, 15, 42, 84
29, 40592, Note_on_c, 15, 42, 0
29, 40608, Note_on_c, 15, 44, 91
29, 40640, Note_on_c, 15, 44, 0
29, 40656, Note_on_c, 15, 44, 87
29, 40688, Note_on_c, 15, 44, 0
29, 40800, Note_on_c, 15, 32, 40
29, 40832, Note_on_c, 15, 32, 0
29, 40848, Note_on_c, 15, 32, 43
29, 40880, Note_on_c, 15, 32, 0
29, 40896, Note_on_c, 15, 33, 46
29, 40928, Note_on_c, 15, 33, 0
29, 40944, Note_on_c, 15, 33, 45
29, 40976, Note_on_c, 15, 33, 0
29, 40992, Note_on_c, 15, 35, 49
29, 41024, Note_on_c, 15, 35, 0
29, 41040, Note_on_c, 15, 35, 54
29, 41072, Note_on_c, 15, 35, 0
29, 41088, Note_on_c, 15, 36, 52
29, 41120, Note_on_c, 15, 36, 0
29, 41136, Note_on_c, 15, 36, 61
29, 41168, Note_on_c, 15, 36, 0
29, 41184, Note_on_c, 15, 38, 61
29, 41216, Note_on_c, 15, 38, 0
29, 41232, Note_on_c, 15, 38, 58
29, 41264, Note_on_c, 15, 38, 0
29, 41280, Note_on_c, 15, 42, 63
29, 41312, Note_on_c, 15, 42, 0
29, 41328, Note_on_c, 15, 42, 65
29, 41360, Note_on_c, 15, 42, 0
29, 41376, Note_on_c, 15, 44, 76
29, 41408, Note_on_c, 15, 44, 0
29, 41424, Note_on_c, 15, 44, 74
29, 41456, Note_on_c, 15, 44, 0
29, 42816, Note_on_c, 15, 31, 107
29, 42910, Note_on_c, 15, 31, 0
29, 43200, Program_c, 15, 45
29, 43200, Note_on_c, 15, 32, 111
29, 43294, Note_on_c, 15, 32, 0
29, 43776, Program_c, 15, 48
29, 43872, Note_on_c, 15, 37, 48
29, 43966, Note_on_c, 15, 37, 0
29, 43968, Note_on_c, 15, 38, 50
29, 44030, Note_on_c, 15, 38, 0
29, 44032, Note_on_c, 15, 39, 43
29, 44094, Note_on_c, 15, 39, 0
29, 44096, Note_on_c, 15, 40, 46
29, 44138, Note_on_c, 15, 40, 0
29, 44256, Note_on_c, 15, 37, 40
29, 44350, Note_on_c, 15, 37, 0
29, 44352, Note_on_c, 15, 38, 40
29, 44414, Note_on_c, 15, 38, 0
29, 44416, Note_on_c, 15, 39, 45
29, 44478, Note_on_c, 15, 39, 0
29, 44480, Note_on_c, 15, 40, 41
29, 44522, Note_on_c, 15, 40, 0
29, 44640, Note_on_c, 15, 37, 50
29, 44734, Note_on_c, 15, 37, 0
29, 44736, Note_on_c, 15, 38, 47
29, 44798, Note_on_c, 15, 38, 0
29, 44800, Note_on_c, 15, 39, 41
29, 44862, Note_on_c, 15, 39, 0
29, 44864, Note_on_c, 15, 40, 48
29, 44906, Note_on_c, 15, 40, 0
29, 45024, Note_on_c, 15, 37, 47
29, 45118, Note_on_c, 15, 37, 0
29, 45120, Note_on_c, 15, 38, 46
29, 45182, Note_on_c, 15, 38, 0
29, 45184, Note_on_c, 15, 39, 48
29, 45246, Note_on_c, 15, 39, 0
29, 45248, Note_on_c, 15, 40, 42
29, 45290, Note_on_c, 15, 40, 0
29, 45408, Note_on_c, 15, 37, 45
29, 45502, Note_on_c, 15, 37, 0
29, 45504, Note_on_c, 15, 38, 44
29, 45566, Note_on_c, 15, 38, 0
29, 45568, Note_on_c, 15, 39, 48
29, 45630, Note_on_c, 15, 39, 0
29, 45632, Note_on_c, 15, 40, 46
29, 45674, Note_on_c, 15, 40, 0
29, 45792, Note_on_c, 15, 37, 46
29, 45886, Note_on_c, 15, 37, 0
29, 45888, Note_on_c, 15, 38, 40
29, 45950, Note_on_c, 15, 38, 0
29, 45952, Note_on_c, 15, 39, 44
29, 46014, Note_on_c, 15, 39, 0
29, 46016, Note_on_c, 15, 40, 41
29, 46058, Note_on_c, 15, 40, 0
29, 46176, Note_on_c, 15, 37, 44
29, 46270, Note_on_c, 15, 37, 0
29, 46272, Note_on_c, 15, 38, 47
29, 46334, Note_on_c, 15, 38, 0
29, 46336, Note_on_c, 15, 39, 44
29, 46398, Note_on_c, 15, 39, 0
29, 46400, Note_on_c, 15, 40, 46
29, 46442, Note_on_c, 15, 40, 0
29, 46560, Note_on_c, 15, 37, 42
29, 46654, Note_on_c, 15, 37, 0
29, 46656, Note_on_c, 15, 38, 40
29, 46718, Note_on_c, 15, 38, 0
29, 46720, Note_on_c, 15, 39, 45
29, 46782, Note_on_c, 15, 39, 0
29, 46784, Note_on_c, 15, 40, 41
29, 46826, Note_on_c, 15, 40, 0
29, 46944, Note_on_c, 15, 38, 40
29, 47038, Note_on_c, 15, 38, 0
29, 47040, Note_on_c, 15, 39, 47
29, 47102, Note_on_c, 15, 39, 0
29, 47104, Note_on_c, 15, 40, 50
29, 47166, Note_on_c, 15, 40, 0
29, 47168, Note_on_c, 15, 41, 49
29, 47210, Note_on_c, 15, 41, 0
29, 47328, Note_on_c, 15, 39, 47
29, 47422, Note_on_c, 15, 39, 0
29, 47424, Note_on_c, 15, 40, 40
29, 47486, Note_on_c, 15, 40, 0
29, 47488, Note_on_c, 15, 41, 41
29, 47550, Note_on_c, 15, 41, 0
29, 47552, Note_on_c, 15, 42, 49
29, 47594, Note_on_c, 15, 42, 0
29, 47712, Note_on_c, 15, 32, 42
29, 47806, Note_on_c, 15, 32, 0
29, 47808, Note_on_c, 15, 33, 46
29, 47870, Note_on_c, 15, 33, 0
29, 47872, Note_on_c, 15, 34, 49
29, 47934, Note_on_c, 15, 34, 0
29, 47936, Note_on_c, 15, 35, 46
29, 47978, Note_on_c, 15, 35, 0
29, 48096, Note_on_c, 15, 34, 42
29, 48190, Note_on_c, 15, 34, 0
29, 48192, Note_on_c, 15, 35, 44
29, 48254, Note_on_c, 15, 35, 0
29, 48256, Note_on_c, 15, 36, 48
29, 48318, Note_on_c, 15, 36, 0
29, 48320, Note_on_c, 15, 37, 48
29, 48362, Note_on_c, 15, 37, 0
29, 48480, Note_on_c, 15, 44, 46
29, 48574, Note_on_c, 15, 44, 0
29, 48576, Note_on_c, 15, 48, 50
29, 48638, Note_on_c, 15, 48, 0
29, 48640, Note_on_c, 15, 44, 54
29, 48702, Note_on_c, 15, 44, 0
29, 48704, Note_on_c, 15, 43, 58
29, 48746, Note_on_c, 15, 43, 0
29, 48864, Note_on_c, 15, 42, 65
29, 48958, Note_on_c, 15, 42, 0
29, 48960, Note_on_c, 15, 46, 67
29, 49022, Note_on_c, 15, 46, 0
29, 49024, Note_on_c, 15, 42, 68
29, 49086, Note_on_c, 15, 42, 0
29, 49088, Note_on_c, 15, 41, 71
29, 49130, Note_on_c, 15, 41, 0
29, 49216, Note_on_c, 15, 40, 76
29, 49278, Note_on_c, 15, 40, 0
29, 49280, Note_on_c, 15, 36, 82
29, 49342, Note_on_c, 15, 36, 0
29, 49344, Note_on_c, 15, 34, 80
29, 49406, Note_on_c, 15, 34, 0
29, 49408, Note_on_c, 15, 33, 86
29, 49470, Note_on_c, 15, 33, 0
29, 49472, Note_on_c, 15, 32, 90
29, 49534, Note_on_c, 15, 32, 0
29, 49536, Note_on_c, 15, 31, 95
29, 50448, Note_on_c, 15, 31, 0
29, 50784, Note_on_c, 15, 37, 47
29, 50878, Note_on_c, 15, 37, 0
29, 50880, Note_on_c, 15, 38, 43
29, 50942, Note_on_c, 15, 38, 0
29, 50944, Note_on_c, 15, 39, 40
29, 51006, Note_on_c, 15, 39, 0
29, 51008, Note_on_c, 15, 40, 48
29, 51050, Note_on_c, 15, 40, 0
29, 51168, Note_on_c, 15, 37, 43
29, 51262, Note_on_c, 15, 37, 0
29, 51264, Note_on_c, 15, 38, 46
29, 51326, Note_on_c, 15, 38, 0
29, 51328, Note_on_c, 15, 39, 40
29, 51390, Note_on_c, 15, 39, 0
29, 51392, Note_on_c, 15, 40, 40
29, 51434, Note_on_c, 15, 40, 0
29, 51552, Note_on_c, 15, 37, 45
29, 51646, Note_on_c, 15, 37, 0
29, 51648, Note_on_c, 15, 38, 43
29, 51710, Note_on_c, 15, 38, 0
29, 51712, Note_on_c, 15, 39, 43
29, 51774, Note_on_c, 15, 39, 0
29, 51776, Note_on_c, 15, 40, 41
29, 51818, Note_on_c, 15, 40, 0
29, 51936, Note_on_c, 15, 37, 40
29, 52030, Note_on_c, 15, 37, 0
29, 52032, Note_on_c, 15, 38, 42
29, 52094, Note_on_c, 15, 38, 0
29, 52096, Note_on_c, 15, 39, 43
29, 52158, Note_on_c, 15, 39, 0
29, 52160, Note_on_c, 15, 40, 45
29, 52202, Note_on_c, 15, 40, 0
29, 52320, Note_on_c, 15, 37, 43
29, 52414, Note_on_c, 15, 37, 0
29, 52416, Note_on_c, 15, 38, 43
29, 52478, Note_on_c, 15, 38, 0
29, 52480, Note_on_c, 15, 39, 43
29, 52542, Note_on_c, 15, 39, 0
29, 52544, Note_on_c, 15, 40, 46
29, 52586, Note_on_c, 15, 40, 0
29, 52704, Note_on_c, 15, 37, 50
29, 52798, Note_on_c, 15, 37, 0
29, 52800, Note_on_c, 15, 38, 43
29, 52862, Note_on_c, 15, 38, 0
29, 52864, Note_on_c, 15, 39, 48
29, 52926, Note_on_c, 15, 39, 0
29, 52928, Note_on_c, 15, 40, 47
29, 52970, Note_on_c, 15, 40, 0
29, 53088, Note_on_c, 15, 37, 49
29, 53182, Note_on_c, 15, 37, 0
29, 53184, Note_on_c, 15, 38, 40
29, 53246, Note_on_c, 15, 38, 0
29, 53248, Note_on_c, 15, 39, 47
29, 53310, Note_on_c, 15, 39, 0
29, 53312, Note_on_c, 15, 40, 46
29, 53354, Note_on_c, 15, 40, 0
29, 53472, Note_on_c, 15, 37, 40
29, 53566, Note_on_c, 15, 37, 0
29, 53568, Note_on_c, 15, 38, 43
29, 53630, Note_on_c, 15, 38, 0
29, 53632, Note_on_c, 15, 39, 48
29, 53694, Note_on_c, 15, 39, 0
29, 53696, Note_on_c, 15, 40, 45
29, 53738, Note_on_c, 15, 40, 0
29, 53856, Note_on_c, 15, 38, 40
29, 53950, Note_on_c, 15, 38, 0
29, 53952, Note_on_c, 15, 39, 42
29, 54014, Note_on_c, 15, 39, 0
29, 54016, Note_on_c, 15, 40, 51
29, 54078, Note_on_c, 15, 40, 0
29, 54080, Note_on_c, 15, 41, 54
29, 54122, Note_on_c, 15, 41, 0
29, 54240, Note_on_c, 15, 39, 48
29, 54334, Note_on_c, 15, 39, 0
29, 54336, Note_on_c, 15, 40, 57
29, 54398, Note_on_c, 15, 40, 0
29, 54400, Note_on_c, 15, 41, 52
29, 54462, Note_on_c, 15, 41, 0
29, 54464, Note_on_c, 15, 42, 57
29, 54506, Note_on_c, 15, 42, 0
29, 54624, Note_on_c, 15, 32, 68
29, 54718, Note_on_c, 15, 32, 0
29, 54720, Note_on_c, 15, 33, 63
29, 54782, Note_on_c, 15, 33, 0
29, 54784, Note_on_c, 15, 34, 69
29, 54846, Note_on_c, 15, 34, 0
29, 54848, Note_on_c, 15, 35, 69
29, 54890, Note_on_c, 15, 35, 0
29, 55008, Note_on_c, 15, 34, 71
29, 55102, Note_on_c, 15, 34, 0
29, 55104, Note_on_c, 15, 35, 75
29, 55166, Note_on_c, 15, 35, 0
29, 55168, Note_on_c, 15, 36, 68
29, 55230, Note_on_c, 15, 36, 0
29, 55232, Note_on_c, 15, 37, 64
29, 55274, Note_on_c, 15, 37, 0
29, 55392, Note_on_c, 15, 34, 58
29, 55486, Note_on_c, 15, 34, 0
29, 55488, Note_on_c, 15, 35, 48
29, 55550, Note_on_c, 15, 35, 0
29, 55552, Note_on_c, 15, 36, 50
29, 55614, Note_on_c, 15, 36, 0
29, 55616, Note_on_c, 15, 37, 42
29, 55658, Note_on_c, 15, 37, 0
29, 55872, Note_on_c, 15, 34, 46
29, 55904, Note_on_c, 15, 34, 0
29, 56064, Note_on_c, 15, 45, 45
29, 56064, Note_on_c, 15, 52, 42
29, 56158, Note_on_c, 15, 45, 0
29, 56158, Note_on_c, 15, 52, 0
29, 56448, Note_on_c, 15, 45, 48
29, 56448, Note_on_c, 15, 52, 49
29, 56542, Note_on_c, 15, 45, 0
29, 56542, Note_on_c, 15, 52, 0
29, 56832, Note_on_c, 15, 45, 40
29, 56832, Note_on_c, 15, 52, 42
29, 56926, Note_on_c, 15, 45, 0
29, 56926, Note_on_c, 15, 52, 0
29, 57216, Note_on_c, 15, 45, 42
29, 57216, Note_on_c, 15, 52, 50
29, 57310, Note_on_c, 15, 45, 0
29, 57310, Note_on_c, 15, 52, 0
29, 57600, Note_on_c, 15, 45, 48
29, 57600, Note_on_c, 15, 52, 44
29, 57694, Note_on_c, 15, 45, 0
29, 57694, Note_on_c, 15, 52, 0
29, 57984, Note_on_c, 15, 45, 47
29, 57984, Note_on_c, 15, 52, 44
29, 58078, Note_on_c, 15, 45, 0
29, 58078, Note_on_c, 15, 52, 0
29, 58368, Note_on_c, 15, 45, 40
29, 58368, Note_on_c, 15, 52, 48
29, 58462, Note_on_c, 15, 45, 0
29, 58462, Note_on_c, 15, 52, 0
29, 58752, Note_on_c, 15, 45, 49
29, 58752, Note_on_c, 15, 52, 40
29, 58846, Note_on_c, 15, 45, 0
29, 58846, Note_on_c, 15, 52, 0
29, 59136, Note_on_c, 15, 45, 46
29, 59136, Note_on_c, 15, 52, 49
29, 59230, Note_on_c, 15, 45, 0
29, 59230, Note_on_c, 15, 52, 0
29, 59520, Note_on_c, 15, 45, 47
29, 59520, Note_on_c, 15, 52, 50
29, 59614, Note_on_c, 15, 45, 0
29, 59614, Note_on_c, 15, 52, 0
29, 59904, Note_on_c, 15, 45, 40
29, 59904, Note_on_c, 15, 52, 47
29, 59998, Note_on_c, 15, 45, 0
29, 59998, Note_on_c, 15, 52, 0
29, 60288, Note_on_c, 15, 45, 41
29, 60288, Note_on_c, 15, 52, 46
29, 60382, Note_on_c, 15, 45, 0
29, 60382, Note_on_c, 15, 52, 0
29, 60672, Note_on_c, 15, 45, 40
29, 60766, Note_on_c, 15, 45, 0
29, 61056, Note_on_c, 15, 45, 57
29, 61056, Note_on_c, 15, 53, 55
29, 61150, Note_on_c, 15, 45, 0
29, 61150, Note_on_c, 15, 53, 0
29, 61440, Note_on_c, 15, 45, 81
29, 61440, Note_on_c, 15, 53, 71
29, 61534, Note_on_c, 15, 45, 0
29, 61534, Note_on_c, 15, 53, 0
29, 61824, Note_on_c, 15, 45, 95
29, 61824, Note_on_c, 15, 52, 89
29, 61918, Note_on_c, 15, 45, 0
29, 61918, Note_on_c, 15, 52, 0
29, 62208, Program_c, 15, 48
29, 62208, Control_c, 15, 11, 92
29, 62208, Note_on_c, 15, 36, 103
29, 62229, Control_c, 15, 11, 93
29, 62251, Control_c, 15, 11, 94
29, 62273, Control_c, 15, 11, 95
29, 62295, Control_c, 15, 11, 96
29, 62317, Control_c, 15, 11, 97
29, 62339, Control_c, 15, 11, 98
29, 62361, Control_c, 15, 11, 99
29, 62383, Control_c, 15, 11, 100
29, 62405, Control_c, 15, 11, 101
29, 62427, Control_c, 15, 11, 102
29, 62449, Control_c, 15, 11, 103
29, 62471, Control_c, 15, 11, 104
29, 62493, Control_c, 15, 11, 105
29, 62515, Control_c, 15, 11, 106
29, 62537, Control_c, 15, 11, 107
29, 62559, Control_c, 15, 11, 108
29, 62581, Control_c, 15, 11, 109
29, 62602, Control_c, 15, 11, 110
29, 62624, Control_c, 15, 11, 111
29, 62646, Control_c, 15, 11, 112
29, 62668, Control_c, 15, 11, 113
29, 62690, Control_c, 15, 11, 114
29, 62712, Control_c, 15, 11, 115
29, 62734, Control_c, 15, 11, 116
29, 62756, Control_c, 15, 11, 117
29, 62778, Control_c, 15, 11, 118
29, 62784, Note_on_c, 15, 36, 0
29, 62784, Note_on_c, 15, 33, 111
29, 62800, Control_c, 15, 11, 119
29, 62822, Control_c, 15, 11, 120
29, 62844, Control_c, 15, 11, 121
29, 62866, Control_c, 15, 11, 122
29, 62888, Control_c, 15, 11, 123
29, 62910, Control_c, 15, 11, 124
29, 62932, Control_c, 15, 11, 125
29, 62944, Note_on_c, 15, 33, 0
29, 62954, Control_c, 15, 11, 126
29, 62976, Control_c, 15, 11, 127
29, 62976, Control_c, 15, 11, 92
29, 62976, Note_on_c, 15, 32, 110
29, 62997, Control_c, 15, 11, 93
29, 63019, Control_c, 15, 11, 94
29, 63041, Control_c, 15, 11, 95
29, 63063, Control_c, 15, 11, 96
29, 63085, Control_c, 15, 11, 97
29, 63107, Control_c, 15, 11, 98
29, 63129, Control_c, 15, 11, 99
29, 63151, Control_c, 15, 11, 100
29, 63173, Control_c, 15, 11, 101
29, 63195, Control_c, 15, 11, 102
29, 63217, Control_c, 15, 11, 103
29, 63239, Control_c, 15, 11, 104
29, 63261, Control_c, 15, 11, 105
29, 63283, Control_c, 15, 11, 106
29, 63305, Control_c, 15, 11, 107
29, 63327, Control_c, 15, 11, 108
29, 63349, Control_c, 15, 11, 109
29, 63370, Control_c, 15, 11, 110
29, 63392, Control_c, 15, 11, 111
29, 63414, Control_c, 15, 11, 112
29, 63436, Control_c, 15, 11, 113
29, 63458, Control_c, 15, 11, 114
29, 63480, Control_c, 15, 11, 115
29, 63502, Control_c, 15, 11, 116
29, 63524, Control_c, 15, 11, 117
29, 63546, Control_c, 15, 11, 118
29, 63552, Note_on_c, 15, 32, 0
29, 63552, Note_on_c, 15, 29, 107
29, 63568, Control_c, 15, 11, 119
29, 63590, Control_c, 15, 11, 120
29, 63612, Control_c, 15, 11, 121
29, 63634, Control_c, 15, 11, 122
29, 63656, Control_c, 15, 11, 123
29, 63678, Control_c, 15, 11, 124
29, 63700, Control_c, 15, 11, 125
29, 63712, Note_on_c, 15, 29, 0
29, 63722, Control_c, 15, 11, 126
29, 63744, Control_c, 15, 11, 127
29, 64512, Note_on_c, 15, 40, 40
29, 64606, Note_on_c, 15, 40, 0
29, 64704, Note_on_c, 15, 39, 47
29, 64798, Note_on_c, 15, 39, 0
29, 64896, Note_on_c, 15, 38, 67
29, 64990, Note_on_c, 15, 38, 0
29, 65088, Note_on_c, 15, 37, 74
29, 65182, Note_on_c, 15, 37, 0
29, 65280, Note_on_c, 15, 36, 92
29, 65374, Note_on_c, 15, 36, 0
29, 71424, Control_c, 15, 11, 127
29, 72192, Note_on_c, 15, 33, 41
29, 72286, Note_on_c, 15, 33, 0
29, 72384, Note_on_c, 15, 32, 46
29, 72478, Note_on_c, 15, 32, 0
29, 72576, Note_on_c, 15, 31, 68
29, 72670, Note_on_c, 15, 31, 0
29, 72768, Note_on_c, 15, 30, 82
29, 72862, Note_on_c, 15, 30, 0
29, 72960, Note_on_c, 15, 29, 96
29, 73054, Note_on_c, 15, 29, 0
29, 75264, Control_c, 15, 11, 127
29, 80640, Program_c, 15, 45
29, 80640, Note_on_c, 15, 33, 70
29, 80760, Note_on_c, 15, 33, 0
29, 80832, Note_on_c, 15, 35, 74
29, 80952, Note_on_c, 15, 35, 0
29, 81024, Note_on_c, 15, 39, 80
29, 81534, Note_on_c, 15, 39, 0
29, 81536, Note_on_c, 15, 37, 74
29, 81627, Note_on_c, 15, 37, 0
29, 81664, Note_on_c, 15, 35, 77
29, 81755, Note_on_c, 15, 35, 0
29, 81792, Note_on_c, 15, 33, 73
29, 81912, Note_on_c, 15, 33, 0
29, 81984, Note_on_c, 15, 31, 70
29, 82104, Note_on_c, 15, 31, 0
29, 82176, Note_on_c, 15, 29, 70
29, 82296, Note_on_c, 15, 29, 0
29, 82368, Note_on_c, 15, 33, 76
29, 82704, Note_on_c, 15, 33, 0
29, 82752, Note_on_c, 15, 35, 74
29, 82872, Note_on_c, 15, 35, 0
29, 82944, Note_on_c, 15, 39, 70
29, 83200, Note_on_c, 15, 39, 0
29, 83200, Note_on_c, 15, 37, 73
29, 83456, Note_on_c, 15, 37, 0
29, 83456, Note_on_c, 15, 35, 76
29, 83712, Note_on_c, 15, 35, 0
29, 83712, Program_c, 15, 48
29, 83712, Note_on_c, 15, 33, 77
29, 85200, Note_on_c, 15, 33, 0
29, 85248, Note_on_c, 15, 35, 77
29, 85368, Note_on_c, 15, 35, 0
29, 85440, Note_on_c, 15, 37, 71
29, 85560, Note_on_c, 15, 37, 0
29, 85632, Note_on_c, 15, 41, 73
29, 86142, Note_on_c, 15, 41, 0
29, 86144, Note_on_c, 15, 39, 74
29, 86235, Note_on_c, 15, 39, 0
29, 86272, Note_on_c, 15, 37, 78
29, 86363, Note_on_c, 15, 37, 0
29, 86400, Note_on_c, 15, 35, 77
29, 86520, Note_on_c, 15, 35, 0
29, 86592, Note_on_c, 15, 33, 75
29, 86712, Note_on_c, 15, 33, 0
29, 86784, Note_on_c, 15, 31, 79
29, 86904, Note_on_c, 15, 31, 0
29, 86976, Note_on_c, 15, 35, 79
29, 87312, Note_on_c, 15, 35, 0
29, 87360, Note_on_c, 15, 37, 71
29, 87480, Note_on_c, 15, 37, 0
29, 87552, Note_on_c, 15, 41, 71
29, 87680, Note_on_c, 15, 41, 0
29, 87680, Note_on_c, 15, 39, 70
29, 87808, Note_on_c, 15, 39, 0
29, 87808, Note_on_c, 15, 37, 78
29, 87936, Note_on_c, 15, 37, 0
29, 87936, Note_on_c, 15, 36, 89
29, 89040, Note_on_c, 15, 36, 0
29, 89088, Note_on_c, 15, 35, 49
29, 89208, Note_on_c, 15, 35, 0
29, 89280, Note_on_c, 15, 37, 46
29, 89400, Note_on_c, 15, 37, 0
29, 89472, Note_on_c, 15, 41, 53
29, 89982, Note_on_c, 15, 41, 0
29, 89984, Note_on_c, 15, 39, 58
29, 90075, Note_on_c, 15, 39, 0
29, 90112, Note_on_c, 15, 37, 63
29, 90203, Note_on_c, 15, 37, 0
29, 90240, Note_on_c, 15, 35, 69
29, 90360, Note_on_c, 15, 35, 0
29, 90432, Note_on_c, 15, 33, 72
29, 90552, Note_on_c, 15, 33, 0
29, 90624, Note_on_c, 15, 31, 68
29, 90744, Note_on_c, 15, 31, 0
29, 90816, Note_on_c, 15, 35, 78
29, 91152, Note_on_c, 15, 35, 0
29, 91200, Note_on_c, 15, 37, 87
29, 91320, Note_on_c, 15, 37, 0
29, 91392, Note_on_c, 15, 41, 94
29, 91518, Note_on_c, 15, 41, 0
29, 91520, Note_on_c, 15, 39, 87
29, 91646, Note_on_c, 15, 39, 0
29, 91648, Note_on_c, 15, 37, 99
29, 91774, Note_on_c, 15, 37, 0
29, 91776, Program_c, 15, 44
29, 91776, Note_on_c, 15, 30, 111
29, 93648, Note_on_c, 15, 30, 0
29, 93696, Program_c, 15, 48
29, 93792, Note_on_c, 15, 42, 106
29, 93824, Note_on_c, 15, 42, 0
29, 93840, Note_on_c, 15, 42, 106
29, 93872, Note_on_c, 15, 42, 0
29, 93888, Note_on_c, 15, 44, 107
29, 93920, Note_on_c, 15, 44, 0
29, 93936, Note_on_c, 15, 44, 112
29, 93968, Note_on_c, 15, 44, 0
29, 93984, Note_on_c, 15, 46, 106
29, 94016, Note_on_c, 15, 46, 0
29, 94032, Note_on_c, 15, 46, 113
29, 94064, Note_on_c, 15, 46, 0
29, 94080, Note_on_c, 15, 48, 116
29, 94112, Note_on_c, 15, 48, 0
29, 94128, Note_on_c, 15, 48, 116
29, 94160, Note_on_c, 15, 48, 0
29, 94176, Note_on_c, 15, 50, 121
29, 94208, Note_on_c, 15, 50, 0
29, 94224, Note_on_c, 15, 50, 121
29, 94256, Note_on_c, 15, 50, 0
29, 94272, Note_on_c, 15, 54, 125
29, 94304, Note_on_c, 15, 54, 0
29, 94320, Note_on_c, 15, 54, 123
29, 94352, Note_on_c, 15, 54, 0
29, 94368, Note_on_c, 15, 56, 120
29, 94400, Note_on_c, 15, 56, 0
29, 94416, Note_on_c, 15, 56, 127
29, 94448, Note_on_c, 15, 56, 0
29, 95232, Program_c, 15, 44
29, 95232, Note_on_c, 15, 30, 92
29, 96768, Control_c, 15, 11, 127
29, 96799, Control_c, 15, 11, 126
29, 96831, Control_c, 15, 11, 125
29, 96863, Control_c, 15, 11, 124
29, 96894, Control_c, 15, 11, 123
29, 96926, Control_c, 15, 11, 122
29, 96958, Control_c, 15, 11, 121
29, 96989, Control_c, 15, 11, 120
29, 97021, Control_c, 15, 11, 119
29, 97024, Note_on_c, 15, 30, 0
29, 97053, Control_c, 15, 11, 118
29, 97056, Note_on_c, 15, 31, 89
29, 97084, Control_c, 15, 11, 117
29, 97116, Control_c, 15, 11, 116
29, 97148, Control_c, 15, 11, 115
29, 97150, Note_on_c, 15, 31, 0
29, 97152, Note_on_c, 15, 32, 94
29, 97179, Control_c, 15, 11, 114
29, 97211, Control_c, 15, 11, 113
29, 97243, Control_c, 15, 11, 112
29, 97274, Control_c, 15, 11, 111
29, 97306, Control_c, 15, 11, 110
29, 97338, Control_c, 15, 11, 109
29, 97369, Control_c, 15, 11, 108
29, 97401, Control_c, 15, 11, 107
29, 97433, Control_c, 15, 11, 106
29, 97464, Control_c, 15, 11, 105
29, 97496, Control_c, 15, 11, 104
29, 97528, Control_c, 15, 11, 103
29, 97559, Control_c, 15, 11, 102
29, 97591, Control_c, 15, 11, 101
29, 97623, Control_c, 15, 11, 100
29, 97654, Control_c, 15, 11, 99
29, 97686, Control_c, 15, 11, 98
29, 97718, Control_c, 15, 11, 97
29, 97749, Control_c, 15, 11, 96
29, 97781, Control_c, 15, 11, 95
29, 97792, Note_on_c, 15, 32, 0
29, 97813, Control_c, 15, 11, 94
29, 97824, Note_on_c, 15, 33, 96
29, 97844, Control_c, 15, 11, 93
29, 97876, Control_c, 15, 11, 92
29, 97908, Control_c, 15, 11, 91
29, 97918, Note_on_c, 15, 33, 0
29, 97920, Note_on_c, 15, 34, 89
29, 97939, Control_c, 15, 11, 90
29, 97971, Control_c, 15, 11, 89
29, 98003, Control_c, 15, 11, 88
29, 98034, Control_c, 15, 11, 87
29, 98066, Control_c, 15, 11, 86
29, 98098, Control_c, 15, 11, 85
29, 98129, Control_c, 15, 11, 84
29, 98161, Control_c, 15, 11, 83
29, 98176, Note_on_c, 15, 34, 0
29, 98193, Control_c, 15, 11, 82
29, 98208, Note_on_c, 15, 35, 90
29, 98224, Control_c, 15, 11, 81
29, 98256, Control_c, 15, 11, 80
29, 98288, Control_c, 15, 11, 79
29, 98302, Note_on_c, 15, 35, 0
29, 98304, Note_on_c, 15, 30, 93
29, 98319, Control_c, 15, 11, 78
29, 98351, Control_c, 15, 11, 77
29, 98383, Control_c, 15, 11, 76
29, 98414, Control_c, 15, 11, 75
29, 98446, Control_c, 15, 11, 74
29, 98478, Control_c, 15, 11, 73
29, 98509, Control_c, 15, 11, 72
29, 98541, Control_c, 15, 11, 71
29, 98560, Note_on_c, 15, 30, 0
29, 98573, Control_c, 15, 11, 70
29, 98592, Note_on_c, 15, 31, 92
29, 98604, Control_c, 15, 11, 69
29, 98636, Control_c, 15, 11, 68
29, 98668, Control_c, 15, 11, 67
29, 98686, Note_on_c, 15, 31, 0
29, 98688, Note_on_c, 15, 32, 88
29, 98699, Control_c, 15, 11, 66
29, 98731, Control_c, 15, 11, 65
29, 98763, Control_c, 15, 11, 64
29, 98794, Control_c, 15, 11, 63
29, 98826, Control_c, 15, 11, 62
29, 98858, Control_c, 15, 11, 61
29, 98889, Control_c, 15, 11, 60
29, 98921, Control_c, 15, 11, 59
29, 98953, Control_c, 15, 11, 58
29, 98984, Control_c, 15, 11, 57
29, 99016, Control_c, 15, 11, 56
29, 99048, Control_c, 15, 11, 55
29, 99079, Control_c, 15, 11, 54
29, 99111, Control_c, 15, 11, 53
29, 99143, Control_c, 15, 11, 52
29, 99174, Control_c, 15, 11, 51
29, 99206, Control_c, 15, 11, 50
29, 99238, Control_c, 15, 11, 49
29, 99269, Control_c, 15, 11, 48
29, 99301, Control_c, 15, 11, 47
29, 99328, Note_on_c, 15, 32, 0
29, 99333, Control_c, 15, 11, 46
29, 99360, Note_on_c, 15, 32, 87
29, 99364, Control_c, 15, 11, 45
29, 99396, Control_c, 15, 11, 44
29, 99428, Control_c, 15, 11, 43
29, 99454, Note_on_c, 15, 32, 0
29, 99456, Note_on_c, 15, 34, 96
29, 99459, Control_c, 15, 11, 42
29, 99491, Control_c, 15, 11, 41
29, 99523, Control_c, 15, 11, 40
29, 99554, Control_c, 15, 11, 39
29, 99586, Control_c, 15, 11, 38
29, 99618, Control_c, 15, 11, 37
29, 99649, Control_c, 15, 11, 36
29, 99681, Control_c, 15, 11, 35
29, 99712, Note_on_c, 15, 34, 0
29, 99713, Control_c, 15, 11, 34
29, 99744, Control_c, 15, 11, 33
29, 99744, Note_on_c, 15, 35, 91
29, 99776, Control_c, 15, 11, 32
29, 99808, Control_c, 15, 11, 31
29, 99838, Note_on_c, 15, 35, 0
29, 99840, Control_c, 15, 11, 30
29, 99840, Note_on_c, 15, 36, 91
29, 100000, Note_on_c, 15, 36, 0
29, 102912, Control_c, 15, 11, 127
29, 104448, Program_c, 15, 48
29, 105216, Note_on_c, 15, 36, 33
29, 105262, Note_on_c, 15, 36, 0
29, 105264, Note_on_c, 15, 34, 32
29, 105310, Note_on_c, 15, 34, 0
29, 105312, Note_on_c, 15, 36, 35
29, 105358, Note_on_c, 15, 36, 0
29, 105360, Note_on_c, 15, 34, 29
29, 105406, Note_on_c, 15, 34, 0
29, 105408, Note_on_c, 15, 36, 35
29, 105454, Note_on_c, 15, 36, 0
29, 105456, Note_on_c, 15, 34, 43
29, 105502, Note_on_c, 15, 34, 0
29, 105504, Note_on_c, 15, 36, 35
29, 105550, Note_on_c, 15, 36, 0
29, 105552, Note_on_c, 15, 34, 38
29, 105598, Note_on_c, 15, 34, 0
29, 105600, Note_on_c, 15, 36, 40
29, 105646, Note_on_c, 15, 36, 0
29, 105648, Note_on_c, 15, 34, 43
29, 105694, Note_on_c, 15, 34, 0
29, 105696, Note_on_c, 15, 36, 51
29, 105742, Note_on_c, 15, 36, 0
29, 105744, Note_on_c, 15, 34, 47
29, 105790, Note_on_c, 15, 34, 0
29, 105792, Note_on_c, 15, 36, 53
29, 105838, Note_on_c, 15, 36, 0
29, 105840, Note_on_c, 15, 34, 58
29, 105886, Note_on_c, 15, 34, 0
29, 105888, Note_on_c, 15, 36, 52
29, 105934, Note_on_c, 15, 36, 0
29, 105936, Note_on_c, 15, 34, 63
29, 105982, Note_on_c, 15, 34, 0
29, 105984, Note_on_c, 15, 32, 32
29, 106752, Control_c, 15, 11, 127
29, 106758, Control_c, 15, 11, 126
29, 106764, Control_c, 15, 11, 125
29, 106770, Control_c, 15, 11, 124
29, 106776, Control_c, 15, 11, 123
29, 106782, Control_c, 15, 11, 122
29, 106788, Control_c, 15, 11, 121
29, 106794, Control_c, 15, 11, 120
29, 106800, Control_c, 15, 11, 119
29, 106806, Control_c, 15, 11, 118
29, 106812, Control_c, 15, 11, 117
29, 106819, Control_c, 15, 11, 116
29, 106825, Control_c, 15, 11, 115
29, 106831, Control_c, 15, 11, 114
29, 106837, Control_c, 15, 11, 113
29, 106843, Control_c, 15, 11, 112
29, 106849, Control_c, 15, 11, 111
29, 106855, Control_c, 15, 11, 110
29, 106861, Control_c, 15, 11, 109
29, 106867, Control_c, 15, 11, 108
29, 106873, Control_c, 15, 11, 107
29, 106880, Control_c, 15, 11, 106
29, 106886, Control_c, 15, 11, 105
29, 106892, Control_c, 15, 11, 104
29, 106898, Control_c, 15, 11, 103
29, 106904, Control_c, 15, 11, 102
29, 106910, Control_c, 15, 11, 101
29, 106916, Control_c, 15, 11, 100
29, 106922, Control_c, 15, 11, 99
29, 106928, Control_c, 15, 11, 98
29, 106934, Control_c, 15, 11, 97
29, 106940, Control_c, 15, 11, 96
29, 106947, Control_c, 15, 11, 95
29, 106953, Control_c, 15, 11, 94
29, 106959, Control_c, 15, 11, 93
29, 106965, Control_c, 15, 11, 92
29, 106971, Control_c, 15, 11, 91
29, 106977, Control_c, 15, 11, 90
29, 106983, Control_c, 15, 11, 89
29, 106989, Control_c, 15, 11, 88
29, 106995, Control_c, 15, 11, 87
29, 107001, Control_c, 15, 11, 86
29, 107008, Control_c, 15, 11, 85
29, 107014, Control_c, 15, 11, 84
29, 107020, Control_c, 15, 11, 83
29, 107026, Control_c, 15, 11, 82
29, 107032, Control_c, 15, 11, 81
29, 107038, Control_c, 15, 11, 80
29, 107044, Control_c, 15, 11, 79
29, 107050, Control_c, 15, 11, 78
29, 107056, Control_c, 15, 11, 77
29, 107062, Control_c, 15, 11, 76
29, 107068, Control_c, 15, 11, 75
29, 107075, Control_c, 15, 11, 74
29, 107081, Control_c, 15, 11, 73
29, 107087, Control_c, 15, 11, 72
29, 107088, Note_on_c, 15, 32, 0
29, 107093, Control_c, 15, 11, 71
29, 107099, Control_c, 15, 11, 70
29, 107105, Control_c, 15, 11, 69
29, 107111, Control_c, 15, 11, 68
29, 107117, Control_c, 15, 11, 67
29, 107123, Control_c, 15, 11, 66
29, 107129, Control_c, 15, 11, 65
29, 107136, Control_c, 15, 11, 64
29, 110592, Program_c, 15, 45
29, 110592, Note_on_c, 15, 38, 30
29, 110752, Note_on_c, 15, 38, 0
29, 111360, Control_c, 15, 11, 127
29, 112128, Program_c, 15, 48
29, 112128, Note_on_c, 15, 30, 35
29, 113616, Note_on_c, 15, 30, 0
29, 118272, Program_c, 15, 45
29, 118272, Note_on_c, 15, 30, 90
29, 118366, Note_on_c, 15, 30, 0
29, 120576, Program_c, 15, 48
29, 121344, Control_c, 15, 11, 127
29, 121344, Note_on_c, 15, 37, 46
29, 124368, Note_on_c, 15, 37, 0
29, 124416, Note_on_c, 15, 37, 45
29, 125904, Note_on_c, 15, 37, 0
29, 125952, Note_on_c, 15, 37, 44
29, 128976, Note_on_c, 15, 37, 0
29, 129024, Note_on_c, 15, 37, 40
29, 132048, Note_on_c, 15, 37, 0
29, 132096, Note_on_c, 15, 37, 45
29, 135120, Note_on_c, 15, 37, 0
29, 135168, Control_c, 15, 11, 45
29, 135168, Note_on_c, 15, 37, 92
29, 136704, Control_c, 15, 11, 45
29, 136722, Control_c, 15, 11, 46
29, 136741, Control_c, 15, 11, 47
29, 136760, Control_c, 15, 11, 48
29, 136778, Control_c, 15, 11, 49
29, 136797, Control_c, 15, 11, 50
29, 136816, Control_c, 15, 11, 51
29, 136835, Control_c, 15, 11, 52
29, 136853, Control_c, 15, 11, 53
29, 136872, Control_c, 15, 11, 54
29, 136891, Control_c, 15, 11, 55
29, 136910, Control_c, 15, 11, 56
29, 136928, Control_c, 15, 11, 57
29, 136947, Control_c, 15, 11, 58
29, 136966, Control_c, 15, 11, 59
29, 136984, Control_c, 15, 11, 60
29, 137003, Control_c, 15, 11, 61
29, 137022, Control_c, 15, 11, 62
29, 137041, Control_c, 15, 11, 63
29, 137059, Control_c, 15, 11, 64
29, 137078, Control_c, 15, 11, 65
29, 137097, Control_c, 15, 11, 66
29, 137116, Control_c, 15, 11, 67
29, 137134, Control_c, 15, 11, 68
29, 137153, Control_c, 15, 11, 69
29, 137172, Control_c, 15, 11, 70
29, 137191, Control_c, 15, 11, 71
29, 137209, Control_c, 15, 11, 72
29, 137228, Control_c, 15, 11, 73
29, 137247, Control_c, 15, 11, 74
29, 137265, Control_c, 15, 11, 75
29, 137284, Control_c, 15, 11, 76
29, 137303, Control_c, 15, 11, 77
29, 137322, Control_c, 15, 11, 78
29, 137340, Control_c, 15, 11, 79
29, 137359, Control_c, 15, 11, 80
29, 137378, Control_c, 15, 11, 81
29, 137397, Control_c, 15, 11, 82
29, 137415, Control_c, 15, 11, 83
29, 137434, Control_c, 15, 11, 84
29, 137453, Control_c, 15, 11, 85
29, 137471, Control_c, 15, 11, 86
29, 137490, Control_c, 15, 11, 87
29, 137509, Control_c, 15, 11, 88
29, 137528, Control_c, 15, 11, 89
29, 137546, Control_c, 15, 11, 90
29, 137565, Control_c, 15, 11, 91
29, 137584, Control_c, 15, 11, 92
29, 137603, Control_c, 15, 11, 93
29, 137621, Control_c, 15, 11, 94
29, 137640, Control_c, 15, 11, 95
29, 137659, Control_c, 15, 11, 96
29, 137678, Control_c, 15, 11, 97
29, 137696, Control_c, 15, 11, 98
29, 137715, Control_c, 15, 11, 99
29, 137734, Control_c, 15, 11, 100
29, 137752, Control_c, 15, 11, 101
29, 137771, Control_c, 15, 11, 102
29, 137790, Control_c, 15, 11, 103
29, 137809, Control_c, 15, 11, 104
29, 137827, Control_c, 15, 11, 105
29, 137846, Control_c, 15, 11, 106
29, 137865, Control_c, 15, 11, 107
29, 137884, Control_c, 15, 11, 108
29, 137902, Control_c, 15, 11, 109
29, 137921, Control_c, 15, 11, 110
29, 137940, Control_c, 15, 11, 111
29, 137959, Control_c, 15, 11, 112
29, 137977, Control_c, 15, 11, 113
29, 137996, Control_c, 15, 11, 114
29, 138015, Control_c, 15, 11, 115
29, 138033, Control_c, 15, 11, 116
29, 138052, Control_c, 15, 11, 117
29, 138071, Control_c, 15, 11, 118
29, 138090, Control_c, 15, 11, 119
29, 138108, Control_c, 15, 11, 120
29, 138127, Control_c, 15, 11, 121
29, 138146, Control_c, 15, 11, 122
29, 138165, Control_c, 15, 11, 123
29, 138183, Control_c, 15, 11, 124
29, 138202, Control_c, 15, 11, 125
29, 138221, Control_c, 15, 11, 126
29, 138240, Control_c, 15, 11, 127
29, 138400, Note_on_c, 15, 37, 0
29, 139776, Program_c, 15, 45
29, 139776, Note_on_c, 15, 37, 48
29, 139936, Note_on_c, 15, 37, 0
29, 141312, Program_c, 15, 48
29, 141312, Note_on_c, 15, 36, 32
29, 142800, Note_on_c, 15, 36, 0
29, 142848, Note_on_c, 15, 36, 26
29, 144336, Note_on_c, 15, 36, 0
29, 150528, Note_on_c, 15, 37, 95
29, 152016, Note_on_c, 15, 37, 0
29, 152064, Note_on_c, 15, 37, 91
29, 153552, Note_on_c, 15, 37, 0
29, 153600, Note_on_c, 15, 37, 95
29, 155088, Note_on_c, 15, 37, 0
29, 155136, Note_on_c, 15, 37, 91
29, 156624, Note_on_c, 15, 37, 0
29, 156672, Note_on_c, 15, 37, 112
29, 157056, Note_on_c, 15, 37, 0
29, 157056, Note_on_c, 15, 42, 108
29, 157392, Note_on_c, 15, 42, 0
29, 157440, Note_on_c, 15, 37, 105
29, 157824, Note_on_c, 15, 37, 0
29, 157824, Control_c, 15, 11, 92
29, 157824, Note_on_c, 15, 42, 110
29, 157834, Control_c, 15, 11, 93
29, 157845, Control_c, 15, 11, 94
29, 157856, Control_c, 15, 11, 95
29, 157867, Control_c, 15, 11, 96
29, 157878, Control_c, 15, 11, 97
29, 157889, Control_c, 15, 11, 98
29, 157900, Control_c, 15, 11, 99
29, 157911, Control_c, 15, 11, 100
29, 157922, Control_c, 15, 11, 101
29, 157933, Control_c, 15, 11, 102
29, 157944, Control_c, 15, 11, 103
29, 157955, Control_c, 15, 11, 104
29, 157966, Control_c, 15, 11, 105
29, 157977, Control_c, 15, 11, 106
29, 157988, Control_c, 15, 11, 107
29, 157999, Control_c, 15, 11, 108
29, 158010, Control_c, 15, 11, 109
29, 158021, Control_c, 15, 11, 110
29, 158032, Control_c, 15, 11, 111
29, 158043, Control_c, 15, 11, 112
29, 158054, Control_c, 15, 11, 113
29, 158065, Control_c, 15, 11, 114
29, 158076, Control_c, 15, 11, 115
29, 158080, Note_on_c, 15, 42, 0
29, 158080, Note_on_c, 15, 44, 105
29, 158087, Control_c, 15, 11, 116
29, 158098, Control_c, 15, 11, 117
29, 158109, Control_c, 15, 11, 118
29, 158120, Control_c, 15, 11, 119
29, 158131, Control_c, 15, 11, 120
29, 158142, Control_c, 15, 11, 121
29, 158153, Control_c, 15, 11, 122
29, 158164, Control_c, 15, 11, 123
29, 158175, Control_c, 15, 11, 124
29, 158186, Control_c, 15, 11, 125
29, 158197, Control_c, 15, 11, 126
29, 158206, Note_on_c, 15, 44, 0
29, 158208, Control_c, 15, 11, 127
29, 158208, Note_on_c, 15, 37, 93
29, 158592, Note_on_c, 15, 37, 0
29, 158592, Note_on_c, 15, 42, 96
29, 158928, Note_on_c, 15, 42, 0
29, 158976, Control_c, 15, 11, 127
29, 158976, Note_on_c, 15, 37, 88
29, 158997, Control_c, 15, 11, 126
29, 159019, Control_c, 15, 11, 125
29, 159041, Control_c, 15, 11, 124
29, 159063, Control_c, 15, 11, 123
29, 159085, Control_c, 15, 11, 122
29, 159107, Control_c, 15, 11, 121
29, 159129, Control_c, 15, 11, 120
29, 159151, Control_c, 15, 11, 119
29, 159173, Control_c, 15, 11, 118
29, 159195, Control_c, 15, 11, 117
29, 159217, Control_c, 15, 11, 116
29, 159239, Control_c, 15, 11, 115
29, 159261, Control_c, 15, 11, 114
29, 159283, Control_c, 15, 11, 113
29, 159305, Control_c, 15, 11, 112
29, 159327, Control_c, 15, 11, 111
29, 159349, Control_c, 15, 11, 110
29, 159370, Control_c, 15, 11, 109
29, 159392, Control_c, 15, 11, 108
29, 159414, Control_c, 15, 11, 107
29, 159436, Control_c, 15, 11, 106
29, 159458, Control_c, 15, 11, 105
29, 159480, Control_c, 15, 11, 104
29, 159502, Control_c, 15, 11, 103
29, 159524, Control_c, 15, 11, 102
29, 159546, Control_c, 15, 11, 101
29, 159568, Control_c, 15, 11, 100
29, 159590, Control_c, 15, 11, 99
29, 159612, Control_c, 15, 11, 98
29, 159634, Control_c, 15, 11, 97
29, 159656, Control_c, 15, 11, 96
29, 159678, Control_c, 15, 11, 95
29, 159696, Note_on_c, 15, 37, 0
29, 159700, Control_c, 15, 11, 94
29, 159722, Control_c, 15, 11, 93
29, 159744, Control_c, 15, 11, 92
29, 159744, Control_c, 15, 11, 127
29, 159744, Note_on_c, 15, 39, 70
29, 160128, Note_on_c, 15, 39, 0
29, 160128, Note_on_c, 15, 33, 74
29, 160512, Note_on_c, 15, 33, 0
29, 160512, Note_on_c, 15, 39, 78
29, 160896, Note_on_c, 15, 39, 0
29, 160896, Note_on_c, 15, 33, 72
29, 161232, Note_on_c, 15, 33, 0
29, 161280, Control_c, 15, 11, 127
29, 161280, Note_on_c, 15, 39, 48
29, 161304, Control_c, 15, 11, 126
29, 161328, Control_c, 15, 11, 125
29, 161353, Control_c, 15, 11, 124
29, 161377, Control_c, 15, 11, 123
29, 161401, Control_c, 15, 11, 122
29, 161426, Control_c, 15, 11, 121
29, 161450, Control_c, 15, 11, 120
29, 161475, Control_c, 15, 11, 119
29, 161499, Control_c, 15, 11, 118
29, 161523, Control_c, 15, 11, 117
29, 161548, Control_c, 15, 11, 116
29, 161572, Control_c, 15, 11, 115
29, 161596, Control_c, 15, 11, 114
29, 161621, Control_c, 15, 11, 113
29, 161645, Control_c, 15, 11, 112
29, 161664, Note_on_c, 15, 39, 0
29, 161664, Note_on_c, 15, 33, 48
29, 161670, Control_c, 15, 11, 111
29, 161694, Control_c, 15, 11, 110
29, 161718, Control_c, 15, 11, 109
29, 161743, Control_c, 15, 11, 108
29, 161767, Control_c, 15, 11, 107
29, 161792, Control_c, 15, 11, 106
29, 161816, Control_c, 15, 11, 105
29, 161840, Control_c, 15, 11, 104
29, 161865, Control_c, 15, 11, 103
29, 161889, Control_c, 15, 11, 102
29, 161913, Control_c, 15, 11, 101
29, 161938, Control_c, 15, 11, 100
29, 161962, Control_c, 15, 11, 99
29, 161987, Control_c, 15, 11, 98
29, 162011, Control_c, 15, 11, 97
29, 162035, Control_c, 15, 11, 96
29, 162048, Note_on_c, 15, 33, 0
29, 162048, Note_on_c, 15, 39, 44
29, 162060, Control_c, 15, 11, 95
29, 162084, Control_c, 15, 11, 94
29, 162108, Control_c, 15, 11, 93
29, 162133, Control_c, 15, 11, 92
29, 162157, Control_c, 15, 11, 91
29, 162182, Control_c, 15, 11, 90
29, 162206, Control_c, 15, 11, 89
29, 162230, Control_c, 15, 11, 88
29, 162255, Control_c, 15, 11, 87
29, 162279, Control_c, 15, 11, 86
29, 162304, Control_c, 15, 11, 85
29, 162328, Control_c, 15, 11, 84
29, 162352, Control_c, 15, 11, 83
29, 162377, Control_c, 15, 11, 82
29, 162401, Control_c, 15, 11, 81
29, 162425, Control_c, 15, 11, 80
29, 162450, Control_c, 15, 11, 79
29, 162474, Control_c, 15, 11, 78
29, 162499, Control_c, 15, 11, 77
29, 162523, Control_c, 15, 11, 76
29, 162547, Control_c, 15, 11, 75
29, 162572, Control_c, 15, 11, 74
29, 162576, Note_on_c, 15, 39, 0
29, 162596, Control_c, 15, 11, 73
29, 162620, Control_c, 15, 11, 72
29, 162645, Control_c, 15, 11, 71
29, 162669, Control_c, 15, 11, 70
29, 162694, Control_c, 15, 11, 69
29, 162718, Control_c, 15, 11, 68
29, 162742, Control_c, 15, 11, 67
29, 162767, Control_c, 15, 11, 66
29, 162791, Control_c, 15, 11, 65
29, 162816, Control_c, 15, 11, 64
29, 163584, Control_c, 15, 11, 127
29, 164352, Program_c, 15, 45
29, 164448, Note_on_c, 15, 34, 34
29, 164542, Note_on_c, 15, 34, 0
29, 164544, Note_on_c, 15, 34, 33
29, 164638, Note_on_c, 15, 34, 0
29, 164640, Note_on_c, 15, 37, 40
29, 164734, Note_on_c, 15, 37, 0
29, 164736, Note_on_c, 15, 39, 58
29, 164830, Note_on_c, 15, 39, 0
29, 164832, Note_on_c, 15, 40, 65
29, 164926, Note_on_c, 15, 40, 0
29, 164928, Note_on_c, 15, 44, 75
29, 165022, Note_on_c, 15, 44, 0
29, 165024, Note_on_c, 15, 46, 87
29, 165118, Note_on_c, 15, 46, 0
29, 167424, Program_c, 15, 48
29, 167904, Note_on_c, 15, 34, 28
29, 167950, Note_on_c, 15, 34, 0
29, 167952, Note_on_c, 15, 34, 30
29, 167998, Note_on_c, 15, 34, 0
29, 168000, Note_on_c, 15, 35, 40
29, 168046, Note_on_c, 15, 35, 0
29, 168048, Note_on_c, 15, 35, 38
29, 168094, Note_on_c, 15, 35, 0
29, 168096, Note_on_c, 15, 37, 41
29, 168142, Note_on_c, 15, 37, 0
29, 168144, Note_on_c, 15, 37, 47
29, 168190, Note_on_c, 15, 37, 0
29, 168192, Note_on_c, 15, 39, 55
29, 168238, Note_on_c, 15, 39, 0
29, 168240, Note_on_c, 15, 39, 63
29, 168286, Note_on_c, 15, 39, 0
29, 168288, Note_on_c, 15, 40, 68
29, 168334, Note_on_c, 15, 40, 0
29, 168336, Note_on_c, 15, 40, 76
29, 168382, Note_on_c, 15, 40, 0
29, 177408, Program_c, 15, 45
29, 177600, Note_on_c, 15, 33, 42
29, 177694, Note_on_c, 15, 33, 0
29, 177792, Note_on_c, 15, 40, 48
29, 177886, Note_on_c, 15, 40, 0
29, 177984, Note_on_c, 15, 45, 64
29, 178078, Note_on_c, 15, 45, 0
29, 178176, Note_on_c, 15, 52, 78
29, 178270, Note_on_c, 15, 52, 0
29, 178368, Note_on_c, 15, 45, 73
29, 178462, Note_on_c, 15, 45, 0
29, 178560, Note_on_c, 15, 40, 59
29, 178654, Note_on_c, 15, 40, 0
29, 178752, Note_on_c, 15, 33, 40
29, 178846, Note_on_c, 15, 33, 0
29, 179136, Note_on_c, 15, 33, 44
29, 179230, Note_on_c, 15, 33, 0
29, 179328, Note_on_c, 15, 40, 51
29, 179422, Note_on_c, 15, 40, 0
29, 179520, Note_on_c, 15, 45, 60
29, 179614, Note_on_c, 15, 45, 0
29, 179712, Note_on_c, 15, 52, 74
29, 179806, Note_on_c, 15, 52, 0
29, 179904, Note_on_c, 15, 45, 65
29, 179998, Note_on_c, 15, 45, 0
29, 180096, Note_on_c, 15, 40, 58
29, 180190, Note_on_c, 15, 40, 0
29, 180288, Note_on_c, 15, 33, 45
29, 180382, Note_on_c, 15, 33, 0
29, 180672, Note_on_c, 15, 34, 71
29, 180766, Note_on_c, 15, 34, 0
29, 180864, Note_on_c, 15, 39, 73
29, 180958, Note_on_c, 15, 39, 0
29, 181056, Note_on_c, 15, 46, 89
29, 181150, Note_on_c, 15, 46, 0
29, 181248, Note_on_c, 15, 51, 88
29, 181342, Note_on_c, 15, 51, 0
29, 181440, Note_on_c, 15, 46, 96
29, 181534, Note_on_c, 15, 46, 0
29, 181632, Note_on_c, 15, 39, 86
29, 181726, Note_on_c, 15, 39, 0
29, 181824, Note_on_c, 15, 34, 81
29, 181918, Note_on_c, 15, 34, 0
29, 182016, Program_c, 15, 48
29, 182208, Note_on_c, 15, 34, 76
29, 182254, Note_on_c, 15, 34, 0
29, 182256, Note_on_c, 15, 34, 75
29, 182302, Note_on_c, 15, 34, 0
29, 182304, Note_on_c, 15, 34, 78
29, 182350, Note_on_c, 15, 34, 0
29, 182352, Note_on_c, 15, 34, 78
29, 182398, Note_on_c, 15, 34, 0
29, 182400, Note_on_c, 15, 39, 72
29, 182446, Note_on_c, 15, 39, 0
29, 182448, Note_on_c, 15, 39, 74
29, 182494, Note_on_c, 15, 39, 0
29, 182496, Note_on_c, 15, 39, 70
29, 182542, Note_on_c, 15, 39, 0
29, 182544, Note_on_c, 15, 39, 74
29, 182590, Note_on_c, 15, 39, 0
29, 182592, Note_on_c, 15, 46, 80
29, 182638, Note_on_c, 15, 46, 0
29, 182640, Note_on_c, 15, 46, 78
29, 182686, Note_on_c, 15, 46, 0
29, 182688, Note_on_c, 15, 46, 78
29, 182734, Note_on_c, 15, 46, 0
29, 182736, Note_on_c, 15, 46, 75
29, 182782, Note_on_c, 15, 46, 0
29, 188928, Program_c, 15, 48
29, 188928, Note_on_c, 15, 32, 32
29, 188990, Note_on_c, 15, 32, 0
29, 188992, Note_on_c, 15, 32, 30
29, 189034, Note_on_c, 15, 32, 0
29, 189056, Note_on_c, 15, 32, 35
29, 189118, Note_on_c, 15, 32, 0
29, 189120, Note_on_c, 15, 32, 26
29, 189214, Note_on_c, 15, 32, 0
29, 189312, Note_on_c, 15, 32, 35
29, 189374, Note_on_c, 15, 32, 0
29, 189376, Note_on_c, 15, 32, 25
29, 189418, Note_on_c, 15, 32, 0
29, 189440, Note_on_c, 15, 32, 34
29, 189502, Note_on_c, 15, 32, 0
29, 189504, Note_on_c, 15, 32, 33
29, 189598, Note_on_c, 15, 32, 0
29, 189696, Note_on_c, 15, 32, 31
29, 189758, Note_on_c, 15, 32, 0
29, 189760, Note_on_c, 15, 32, 34
29, 189802, Note_on_c, 15, 32, 0
29, 189824, Note_on_c, 15, 32, 25
29, 189886, Note_on_c, 15, 32, 0
29, 189888, Note_on_c, 15, 32, 32
29, 189982, Note_on_c, 15, 32, 0
29, 190080, Note_on_c, 15, 32, 33
29, 190142, Note_on_c, 15, 32, 0
29, 190144, Note_on_c, 15, 32, 34
29, 190186, Note_on_c, 15, 32, 0
29, 190208, Note_on_c, 15, 32, 31
29, 190270, Note_on_c, 15, 32, 0
29, 190272, Note_on_c, 15, 32, 27
29, 190366, Note_on_c, 15, 32, 0
29, 190464, Note_on_c, 15, 32, 34
29, 190526, Note_on_c, 15, 32, 0
29, 190528, Note_on_c, 15, 32, 31
29, 190570, Note_on_c, 15, 32, 0
29, 190592, Note_on_c, 15, 32, 32
29, 190654, Note_on_c, 15, 32, 0
29, 190656, Note_on_c, 15, 32, 25
29, 190750, Note_on_c, 15, 32, 0
29, 190848, Note_on_c, 15, 32, 30
29, 190910, Note_on_c, 15, 32, 0
29, 190912, Note_on_c, 15, 32, 28
29, 190954, Note_on_c, 15, 32, 0
29, 190976, Note_on_c, 15, 32, 31
29, 191038, Note_on_c, 15, 32, 0
29, 191040, Note_on_c, 15, 32, 29
29, 191134, Note_on_c, 15, 32, 0
29, 191232, Note_on_c, 15, 32, 27
29, 191294, Note_on_c, 15, 32, 0
29, 191296, Note_on_c, 15, 32, 27
29, 191338, Note_on_c, 15, 32, 0
29, 191360, Note_on_c, 15, 32, 32
29, 191422, Note_on_c, 15, 32, 0
29, 191424, Note_on_c, 15, 32, 32
29, 191518, Note_on_c, 15, 32, 0
29, 191616, Note_on_c, 15, 32, 34
29, 191678, Note_on_c, 15, 32, 0
29, 191680, Note_on_c, 15, 32, 25
29, 191722, Note_on_c, 15, 32, 0
29, 191744, Note_on_c, 15, 32, 35
29, 191806, Note_on_c, 15, 32, 0
29, 191808, Note_on_c, 15, 32, 35
29, 191902, Note_on_c, 15, 32, 0
29, 192000, Note_on_c, 15, 32, 31
29, 192062, Note_on_c, 15, 32, 0
29, 192064, Note_on_c, 15, 32, 28
29, 192106, Note_on_c, 15, 32, 0
29, 192128, Note_on_c, 15, 32, 29
29, 192190, Note_on_c, 15, 32, 0
29, 192192, Note_on_c, 15, 32, 25
29, 192286, Note_on_c, 15, 32, 0
29, 192384, Note_on_c, 15, 32, 28
29, 192446, Note_on_c, 15, 32, 0
29, 192448, Note_on_c, 15, 32, 34
29, 192490, Note_on_c, 15, 32, 0
29, 192512, Note_on_c, 15, 32, 28
29, 192574, Note_on_c, 15, 32, 0
29, 192576, Note_on_c, 15, 32, 25
29, 192670, Note_on_c, 15, 32, 0
29, 192768, Note_on_c, 15, 32, 28
29, 192830, Note_on_c, 15, 32, 0
29, 192832, Note_on_c, 15, 32, 33
29, 192874, Note_on_c, 15, 32, 0
29, 192896, Note_on_c, 15, 32, 33
29, 192958, Note_on_c, 15, 32, 0
29, 192960, Note_on_c, 15, 32, 34
29, 193054, Note_on_c, 15, 32, 0
29, 193152, Note_on_c, 15, 32, 28
29, 193214, Note_on_c, 15, 32, 0
29, 193216, Note_on_c, 15, 32, 33
29, 193258, Note_on_c, 15, 32, 0
29, 193280, Note_on_c, 15, 32, 33
29, 193342, Note_on_c, 15, 32, 0
29, 193344, Note_on_c, 15, 32, 30
29, 193438, Note_on_c, 15, 32, 0
29, 193536, Note_on_c, 15, 32, 35
29, 193598, Note_on_c, 15, 32, 0
29, 193600, Note_on_c, 15, 32, 29
29, 193642, Note_on_c, 15, 32, 0
29, 193664, Note_on_c, 15, 32, 26
29, 193726, Note_on_c, 15, 32, 0
29, 193728, Note_on_c, 15, 32, 26
29, 193822, Note_on_c, 15, 32, 0
29, 193920, Note_on_c, 15, 32, 29
29, 193982, Note_on_c, 15, 32, 0
29, 193984, Note_on_c, 15, 32, 25
29, 194026, Note_on_c, 15, 32, 0
29, 194048, Note_on_c, 15, 32, 29
29, 194110, Note_on_c, 15, 32, 0
29, 194112, Note_on_c, 15, 32, 33
29, 194206, Note_on_c, 15, 32, 0
29, 194304, Note_on_c, 15, 32, 31
29, 194366, Note_on_c, 15, 32, 0
29, 194368, Note_on_c, 15, 32, 26
29, 194410, Note_on_c, 15, 32, 0
29, 194432, Note_on_c, 15, 32, 27
29, 194494, Note_on_c, 15, 32, 0
29, 194496, Note_on_c, 15, 32, 30
29, 194590, Note_on_c, 15, 32, 0
29, 194688, Note_on_c, 15, 32, 25
29, 194750, Note_on_c, 15, 32, 0
29, 194752, Note_on_c, 15, 32, 27
29, 194794, Note_on_c, 15, 32, 0
29, 194816, Note_on_c, 15, 32, 29
29, 194878, Note_on_c, 15, 32, 0
29, 194880, Note_on_c, 15, 32, 33
29, 194974, Note_on_c, 15, 32, 0
29, 195072, Note_on_c, 15, 32, 35
29, 195134, Note_on_c, 15, 32, 0
29, 195136, Note_on_c, 15, 32, 35
29, 195178, Note_on_c, 15, 32, 0
29, 195200, Note_on_c, 15, 32, 27
29, 195262, Note_on_c, 15, 32, 0
29, 195264, Note_on_c, 15, 32, 25
29, 195358, Note_on_c, 15, 32, 0
29, 195456, Note_on_c, 15, 32, 33
29, 195518, Note_on_c, 15, 32, 0
29, 195520, Note_on_c, 15, 32, 34
29, 195562, Note_on_c, 15, 32, 0
29, 195584, Note_on_c, 15, 32, 31
29, 195646, Note_on_c, 15, 32, 0
29, 195648, Note_on_c, 15, 32, 33
29, 195742, Note_on_c, 15, 32, 0
29, 195840, Note_on_c, 15, 32, 45
29, 195902, Note_on_c, 15, 32, 0
29, 195904, Note_on_c, 15, 32, 45
29, 195946, Note_on_c, 15, 32, 0
29, 195968, Note_on_c, 15, 32, 48
29, 196030, Note_on_c, 15, 32, 0
29, 196032, Note_on_c, 15, 32, 48
29, 196126, Note_on_c, 15, 32, 0
29, 196224, Note_on_c, 15, 32, 43
29, 196286, Note_on_c, 15, 32, 0
29, 196288, Note_on_c, 15, 32, 44
29, 196330, Note_on_c, 15, 32, 0
29, 196352, Note_on_c, 15, 32, 47
29, 196414, Note_on_c, 15, 32, 0
29, 196416, Note_on_c, 15, 32, 41
29, 196510, Note_on_c, 15, 32, 0
29, 196608, Note_on_c, 15, 32, 44
29, 196670, Note_on_c, 15, 32, 0
29, 196672, Note_on_c, 15, 32, 48
29, 196714, Note_on_c, 15, 32, 0
29, 196736, Note_on_c, 15, 32, 46
29, 196798, Note_on_c, 15, 32, 0
29, 196800, Note_on_c, 15, 32, 48
29, 196894, Note_on_c, 15, 32, 0
29, 196992, Note_on_c, 15, 32, 48
29, 197054, Note_on_c, 15, 32, 0
29, 197056, Note_on_c, 15, 32, 41
29, 197098, Note_on_c, 15, 32, 0
29, 197120, Note_on_c, 15, 32, 44
29, 197182, Note_on_c, 15, 32, 0
29, 197184, Note_on_c, 15, 32, 47
29, 197278, Note_on_c, 15, 32, 0
29, 197376, Note_on_c, 15, 32, 46
29, 197438, Note_on_c, 15, 32, 0
29, 197440, Note_on_c, 15, 32, 44
29, 197482, Note_on_c, 15, 32, 0
29, 197504, Note_on_c, 15, 32, 42
29, 197566, Note_on_c, 15, 32, 0
29, 197568, Note_on_c, 15, 32, 46
29, 197662, Note_on_c, 15, 32, 0
29, 197760, Note_on_c, 15, 32, 46
29, 197822, Note_on_c, 15, 32, 0
29, 197824, Note_on_c, 15, 32, 45
29, 197866, Note_on_c, 15, 32, 0
29, 197888, Note_on_c, 15, 32, 42
29, 197950, Note_on_c, 15, 32, 0
29, 197952, Note_on_c, 15, 32, 41
29, 198046, Note_on_c, 15, 32, 0
29, 198144, Note_on_c, 15, 32, 48
29, 198206, Note_on_c, 15, 32, 0
29, 198208, Note_on_c, 15, 32, 46
29, 198250, Note_on_c, 15, 32, 0
29, 198272, Note_on_c, 15, 32, 46
29, 198334, Note_on_c, 15, 32, 0
29, 198336, Note_on_c, 15, 32, 44
29, 198430, Note_on_c, 15, 32, 0
29, 198528, Note_on_c, 15, 32, 50
29, 198590, Note_on_c, 15, 32, 0
29, 198592, Note_on_c, 15, 32, 49
29, 198634, Note_on_c, 15, 32, 0
29, 198656, Note_on_c, 15, 32, 45
29, 198718, Note_on_c, 15, 32, 0
29, 198720, Note_on_c, 15, 32, 43
29, 198814, Note_on_c, 15, 32, 0
29, 199040, Note_on_c, 15, 34, 72
29, 199082, Note_on_c, 15, 34, 0
29, 199104, Note_on_c, 15, 34, 74
29, 199146, Note_on_c, 15, 34, 0
29, 199168, Note_on_c, 15, 34, 79
29, 199210, Note_on_c, 15, 34, 0
29, 199232, Note_on_c, 15, 34, 77
29, 199274, Note_on_c, 15, 34, 0
29, 199424, Note_on_c, 15, 34, 71
29, 199466, Note_on_c, 15, 34, 0
29, 199488, Note_on_c, 15, 34, 75
29, 199530, Note_on_c, 15, 34, 0
29, 199552, Note_on_c, 15, 34, 74
29, 199594, Note_on_c, 15, 34, 0
29, 199616, Note_on_c, 15, 34, 74
29, 199658, Note_on_c, 15, 34, 0
29, 199808, Note_on_c, 15, 34, 70
29, 199850, Note_on_c, 15, 34, 0
29, 199872, Note_on_c, 15, 34, 73
29, 199914, Note_on_c, 15, 34, 0
29, 199936, Note_on_c, 15, 34, 79
29, 199978, Note_on_c, 15, 34, 0
29, 200000, Note_on_c, 15, 34, 70
29, 200042, Note_on_c, 15, 34, 0
29, 200192, Note_on_c, 15, 39, 78
29, 200234, Note_on_c, 15, 39, 0
29, 200256, Note_on_c, 15, 39, 74
29, 200298, Note_on_c, 15, 39, 0
29, 200320, Note_on_c, 15, 39, 80
29, 200362, Note_on_c, 15, 39, 0
29, 200384, Note_on_c, 15, 39, 72
29, 200426, Note_on_c, 15, 39, 0
29, 200576, Note_on_c, 15, 39, 80
29, 200618, Note_on_c, 15, 39, 0
29, 200640, Note_on_c, 15, 39, 72
29, 200682, Note_on_c, 15, 39, 0
29, 200704, Note_on_c, 15, 39, 79
29, 200746, Note_on_c, 15, 39, 0
29, 200768, Note_on_c, 15, 39, 77
29, 200810, Note_on_c, 15, 39, 0
29, 200960, Note_on_c, 15, 39, 70
29, 201002, Note_on_c, 15, 39, 0
29, 201024, Note_on_c, 15, 39, 74
29, 201066, Note_on_c, 15, 39, 0
29, 201088, Note_on_c, 15, 39, 77
29, 201130, Note_on_c, 15, 39, 0
29, 201152, Note_on_c, 15, 39, 75
29, 201194, Note_on_c, 15, 39, 0
29, 201344, Note_on_c, 15, 34, 78
29, 201386, Note_on_c, 15, 34, 0
29, 201408, Note_on_c, 15, 34, 80
29, 201450, Note_on_c, 15, 34, 0
29, 201472, Note_on_c, 15, 34, 76
29, 201514, Note_on_c, 15, 34, 0
29, 201536, Note_on_c, 15, 34, 78
29, 201578, Note_on_c, 15, 34, 0
29, 201728, Note_on_c, 15, 34, 72
29, 201770, Note_on_c, 15, 34, 0
29, 201792, Note_on_c, 15, 34, 75
29, 201834, Note_on_c, 15, 34, 0
29, 201856, Note_on_c, 15, 34, 76
29, 201898, Note_on_c, 15, 34, 0
29, 201920, Note_on_c, 15, 34, 71
29, 201962, Note_on_c, 15, 34, 0
29, 202112, Note_on_c, 15, 30, 71
29, 202154, Note_on_c, 15, 30, 0
29, 202176, Note_on_c, 15, 30, 76
29, 202218, Note_on_c, 15, 30, 0
29, 202240, Note_on_c, 15, 30, 74
29, 202282, Note_on_c, 15, 30, 0
29, 202304, Note_on_c, 15, 30, 70
29, 202346, Note_on_c, 15, 30, 0
29, 202496, Note_on_c, 15, 30, 72
29, 202538, Note_on_c, 15, 30, 0
29, 202560, Note_on_c, 15, 30, 74
29, 202602, Note_on_c, 15, 30, 0
29, 202624, Note_on_c, 15, 30, 71
29, 202666, Note_on_c, 15, 30, 0
29, 202688, Note_on_c, 15, 30, 79
29, 202730, Note_on_c, 15, 30, 0
29, 202880, Note_on_c, 15, 30, 75
29, 202922, Note_on_c, 15, 30, 0
29, 202944, Note_on_c, 15, 30, 72
29, 202986, Note_on_c, 15, 30, 0
29, 203008, Note_on_c, 15, 30, 80
29, 203050, Note_on_c, 15, 30, 0
29, 203072, Note_on_c, 15, 30, 74
29, 203114, Note_on_c, 15, 30, 0
29, 203264, Note_on_c, 15, 29, 77
29, 203306, Note_on_c, 15, 29, 0
29, 203328, Note_on_c, 15, 29, 80
29, 203370, Note_on_c, 15, 29, 0
29, 203392, Note_on_c, 15, 29, 70
29, 203434, Note_on_c, 15, 29, 0
29, 203456, Note_on_c, 15, 29, 73
29, 203498, Note_on_c, 15, 29, 0
29, 203648, Note_on_c, 15, 29, 68
29, 203690, Note_on_c, 15, 29, 0
29, 203712, Note_on_c, 15, 29, 72
29, 203754, Note_on_c, 15, 29, 0
29, 203776, Note_on_c, 15, 29, 67
29, 203818, Note_on_c, 15, 29, 0
29, 203840, Note_on_c, 15, 29, 63
29, 203882, Note_on_c, 15, 29, 0
29, 204032, Note_on_c, 15, 29, 59
29, 204074, Note_on_c, 15, 29, 0
29, 204096, Note_on_c, 15, 29, 55
29, 204138, Note_on_c, 15, 29, 0
29, 204160, Note_on_c, 15, 29, 53
29, 204202, Note_on_c, 15, 29, 0
29, 204224, Note_on_c, 15, 29, 43
29, 204266, Note_on_c, 15, 29, 0
29, 204416, Note_on_c, 15, 34, 72
29, 204458, Note_on_c, 15, 34, 0
29, 204480, Note_on_c, 15, 34, 77
29, 204522, Note_on_c, 15, 34, 0
29, 204544, Note_on_c, 15, 34, 72
29, 204586, Note_on_c, 15, 34, 0
29, 204608, Note_on_c, 15, 34, 74
29, 204650, Note_on_c, 15, 34, 0
29, 204800, Note_on_c, 15, 34, 75
29, 204842, Note_on_c, 15, 34, 0
29, 204864, Note_on_c, 15, 34, 74
29, 204906, Note_on_c, 15, 34, 0
29, 204928, Note_on_c, 15, 34, 80
29, 204970, Note_on_c, 15, 34, 0
29, 204992, Note_on_c, 15, 34, 79
29, 205034, Note_on_c, 15, 34, 0
29, 205184, Note_on_c, 15, 34, 79
29, 205226, Note_on_c, 15, 34, 0
29, 205248, Note_on_c, 15, 34, 70
29, 205290, Note_on_c, 15, 34, 0
29, 205312, Note_on_c, 15, 34, 72
29, 205354, Note_on_c, 15, 34, 0
29, 205376, Note_on_c, 15, 34, 75
29, 205418, Note_on_c, 15, 34, 0
29, 205568, Note_on_c, 15, 34, 73
29, 205610, Note_on_c, 15, 34, 0
29, 205632, Note_on_c, 15, 34, 77
29, 205674, Note_on_c, 15, 34, 0
29, 205696, Note_on_c, 15, 34, 70
29, 205738, Note_on_c, 15, 34, 0
29, 205760, Note_on_c, 15, 34, 78
29, 205802, Note_on_c, 15, 34, 0
29, 205952, Note_on_c, 15, 34, 78
29, 205994, Note_on_c, 15, 34, 0
29, 206016, Note_on_c, 15, 34, 75
29, 206058, Note_on_c, 15, 34, 0
29, 206080, Note_on_c, 15, 34, 75
29, 206122, Note_on_c, 15, 34, 0
29, 206144, Note_on_c, 15, 34, 80
29, 206186, Note_on_c, 15, 34, 0
29, 206336, Note_on_c, 15, 39, 78
29, 206378, Note_on_c, 15, 39, 0
29, 206400, Note_on_c, 15, 39, 74
29, 206442, Note_on_c, 15, 39, 0
29, 206464, Note_on_c, 15, 39, 72
29, 206506, Note_on_c, 15, 39, 0
29, 206528, Note_on_c, 15, 39, 72
29, 206570, Note_on_c, 15, 39, 0
29, 206720, Note_on_c, 15, 39, 79
29, 206762, Note_on_c, 15, 39, 0
29, 206784, Note_on_c, 15, 39, 80
29, 206826, Note_on_c, 15, 39, 0
29, 206848, Note_on_c, 15, 39, 75
29, 206890, Note_on_c, 15, 39, 0
29, 206912, Note_on_c, 15, 39, 77
29, 206954, Note_on_c, 15, 39, 0
29, 207104, Note_on_c, 15, 39, 72
29, 207146, Note_on_c, 15, 39, 0
29, 207168, Note_on_c, 15, 39, 79
29, 207210, Note_on_c, 15, 39, 0
29, 207232, Note_on_c, 15, 39, 78
29, 207274, Note_on_c, 15, 39, 0
29, 207296, Note_on_c, 15, 39, 70
29, 207338, Note_on_c, 15, 39, 0
29, 207488, Note_on_c, 15, 34, 75
29, 207530, Note_on_c, 15, 34, 0
29, 207552, Note_on_c, 15, 34, 79
29, 207594, Note_on_c, 15, 34, 0
29, 207616, Note_on_c, 15, 34, 87
29, 207658, Note_on_c, 15, 34, 0
29, 207680, Note_on_c, 15, 34, 86
29, 207722, Note_on_c, 15, 34, 0
29, 207872, Note_on_c, 15, 34, 100
29, 207914, Note_on_c, 15, 34, 0
29, 207936, Note_on_c, 15, 34, 96
29, 207978, Note_on_c, 15, 34, 0
29, 208000, Note_on_c, 15, 34, 107
29, 208042, Note_on_c, 15, 34, 0
29, 208064, Note_on_c, 15, 34, 102
29, 208106, Note_on_c, 15, 34, 0
29, 208128, Note_on_c, 15, 36, 104
29, 209056, Note_on_c, 15, 36, 0
29, 209280, Note_on_c, 15, 42, 110
29, 209326, Note_on_c, 15, 42, 0
29, 209328, Note_on_c, 15, 44, 99
29, 209374, Note_on_c, 15, 44, 0
29, 209376, Note_on_c, 15, 42, 93
29, 209422, Note_on_c, 15, 42, 0
29, 209424, Note_on_c, 15, 39, 79
29, 209470, Note_on_c, 15, 39, 0
29, 209472, Note_on_c, 15, 37, 68
29, 209518, Note_on_c, 15, 37, 0
29, 209520, Note_on_c, 15, 39, 58
29, 209566, Note_on_c, 15, 39, 0
29, 209568, Note_on_c, 15, 37, 57
29, 209614, Note_on_c, 15, 37, 0
29, 209616, Note_on_c, 15, 36, 49
29, 209662, Note_on_c, 15, 36, 0
29, 209856, Program_c, 15, 45
29, 209856, Note_on_c, 15, 33, 87
29, 209950, Note_on_c, 15, 33, 0
29, 210048, Program_c, 15, 48
29, 210048, Note_on_c, 15, 37, 43
29, 210094, Note_on_c, 15, 37, 0
29, 210096, Note_on_c, 15, 36, 44
29, 210142, Note_on_c, 15, 36, 0
29, 210144, Note_on_c, 15, 37, 53
29, 210190, Note_on_c, 15, 37, 0
29, 210192, Note_on_c, 15, 39, 62
29, 210238, Note_on_c, 15, 39, 0
29, 210240, Note_on_c, 15, 37, 67
29, 210286, Note_on_c, 15, 37, 0
29, 210288, Note_on_c, 15, 36, 72
29, 210334, Note_on_c, 15, 36, 0
29, 210336, Note_on_c, 15, 34, 85
29, 210382, Note_on_c, 15, 34, 0
29, 210384, Note_on_c, 15, 36, 93
29, 210430, Note_on_c, 15, 36, 0
29, 210624, Program_c, 15, 45
29, 210624, Note_on_c, 15, 33, 88
29, 210718, Note_on_c, 15, 33, 0
29, 210816, Program_c, 15, 48
29, 210816, Note_on_c, 15, 37, 48
29, 210862, Note_on_c, 15, 37, 0
29, 210864, Note_on_c, 15, 36, 49
29, 210910, Note_on_c, 15, 36, 0
29, 210912, Note_on_c, 15, 37, 50
29, 210958, Note_on_c, 15, 37, 0
29, 210960, Note_on_c, 15, 39, 59
29, 211006, Note_on_c, 15, 39, 0
29, 211008, Note_on_c, 15, 37, 67
29, 211054, Note_on_c, 15, 37, 0
29, 211056, Note_on_c, 15, 36, 75
29, 211102, Note_on_c, 15, 36, 0
29, 211104, Note_on_c, 15, 34, 79
29, 211150, Note_on_c, 15, 34, 0
29, 211152, Note_on_c, 15, 36, 95
29, 211198, Note_on_c, 15, 36, 0
29, 212736, Note_on_c, 15, 36, 103
29, 213664, Note_on_c, 15, 36, 0
29, 213888, Note_on_c, 15, 42, 106
29, 213934, Note_on_c, 15, 42, 0
29, 213936, Note_on_c, 15, 44, 106
29, 213982, Note_on_c, 15, 44, 0
29, 213984, Note_on_c, 15, 42, 92
29, 214030, Note_on_c, 15, 42, 0
29, 214032, Note_on_c, 15, 39, 81
29, 214078, Note_on_c, 15, 39, 0
29, 214080, Note_on_c, 15, 37, 74
29, 214126, Note_on_c, 15, 37, 0
29, 214128, Note_on_c, 15, 39, 64
29, 214174, Note_on_c, 15, 39, 0
29, 214176, Note_on_c, 15, 37, 66
29, 214222, Note_on_c, 15, 37, 0
29, 214224, Note_on_c, 15, 36, 53
29, 214270, Note_on_c, 15, 36, 0
29, 214272, Note_on_c, 15, 32, 45
29, 214398, Note_on_c, 15, 32, 0
29, 214400, Note_on_c, 15, 32, 41
29, 214526, Note_on_c, 15, 32, 0
29, 214528, Note_on_c, 15, 34, 43
29, 214654, Note_on_c, 15, 34, 0
29, 214656, Note_on_c, 15, 37, 51
29, 214782, Note_on_c, 15, 37, 0
29, 214784, Note_on_c, 15, 36, 52
29, 214910, Note_on_c, 15, 36, 0
29, 214912, Note_on_c, 15, 34, 55
29, 215038, Note_on_c, 15, 34, 0
29, 215040, Note_on_c, 15, 32, 52
29, 215166, Note_on_c, 15, 32, 0
29, 215168, Note_on_c, 15, 32, 52
29, 215294, Note_on_c, 15, 32, 0
29, 215296, Note_on_c, 15, 34, 55
29, 215422, Note_on_c, 15, 34, 0
29, 215424, Note_on_c, 15, 37, 64
29, 215550, Note_on_c, 15, 37, 0
29, 215552, Note_on_c, 15, 36, 66
29, 215678, Note_on_c, 15, 36, 0
29, 215680, Note_on_c, 15, 34, 64
29, 215806, Note_on_c, 15, 34, 0
29, 215808, Note_on_c, 15, 32, 66
29, 215934, Note_on_c, 15, 32, 0
29, 215936, Note_on_c, 15, 32, 74
29, 216062, Note_on_c, 15, 32, 0
29, 216064, Note_on_c, 15, 34, 70
29, 216190, Note_on_c, 15, 34, 0
29, 216192, Note_on_c, 15, 37, 71
29, 216318, Note_on_c, 15, 37, 0
29, 216320, Note_on_c, 15, 36, 71
29, 216446, Note_on_c, 15, 36, 0
29, 216448, Note_on_c, 15, 34, 72
29, 216574, Note_on_c, 15, 34, 0
29, 216576, Note_on_c, 15, 32, 82
29, 216702, Note_on_c, 15, 32, 0
29, 216704, Note_on_c, 15, 32, 77
29, 216830, Note_on_c, 15, 32, 0
29, 216832, Note_on_c, 15, 34, 85
29, 216958, Note_on_c, 15, 34, 0
29, 216960, Note_on_c, 15, 37, 82
29, 217086, Note_on_c, 15, 37, 0
29, 217088, Note_on_c, 15, 36, 89
29, 217214, Note_on_c, 15, 36, 0
29, 217216, Note_on_c, 15, 34, 89
29, 217342, Note_on_c, 15, 34, 0
29, 217344, Note_on_c, 15, 32, 93
29, 217470, Note_on_c, 15, 32, 0
29, 217472, Note_on_c, 15, 32, 87
29, 217598, Note_on_c, 15, 32, 0
29, 217600, Note_on_c, 15, 34, 96
29, 217726, Note_on_c, 15, 34, 0
29, 217728, Note_on_c, 15, 37, 89
29, 217854, Note_on_c, 15, 37, 0
29, 217856, Note_on_c, 15, 36, 90
29, 217982, Note_on_c, 15, 36, 0
29, 217984, Note_on_c, 15, 34, 95
29, 218110, Note_on_c, 15, 34, 0
29, 218112, Note_on_c, 15, 32, 87
29, 218238, Note_on_c, 15, 32, 0
29, 218240, Note_on_c, 15, 32, 95
29, 218366, Note_on_c, 15, 32, 0
29, 218368, Note_on_c, 15, 34, 87
29, 218494, Note_on_c, 15, 34, 0
29, 218496, Note_on_c, 15, 37, 88
29, 218622, Note_on_c, 15, 37, 0
29, 218624, Note_on_c, 15, 36, 91
29, 218750, Note_on_c, 15, 36, 0
29, 218752, Note_on_c, 15, 32, 90
29, 218878, Note_on_c, 15, 32, 0
29, 218880, Control_c, 15, 11, 92
29, 218880, Note_on_c, 15, 31, 124
29, 219648, Control_c, 15, 11, 92
29, 219669, Control_c, 15, 11, 93
29, 219691, Control_c, 15, 11, 94
29, 219713, Control_c, 15, 11, 95
29, 219735, Control_c, 15, 11, 96
29, 219757, Control_c, 15, 11, 97
29, 219779, Control_c, 15, 11, 98
29, 219801, Control_c, 15, 11, 99
29, 219823, Control_c, 15, 11, 100
29, 219845, Control_c, 15, 11, 101
29, 219867, Control_c, 15, 11, 102
29, 219889, Control_c, 15, 11, 103
29, 219911, Control_c, 15, 11, 104
29, 219933, Control_c, 15, 11, 105
29, 219955, Control_c, 15, 11, 106
29, 219977, Control_c, 15, 11, 107
29, 219999, Control_c, 15, 11, 108
29, 220021, Control_c, 15, 11, 109
29, 220042, Control_c, 15, 11, 110
29, 220064, Control_c, 15, 11, 111
29, 220086, Control_c, 15, 11, 112
29, 220108, Control_c, 15, 11, 113
29, 220130, Control_c, 15, 11, 114
29, 220152, Control_c, 15, 11, 115
29, 220174, Control_c, 15, 11, 116
29, 220196, Control_c, 15, 11, 117
29, 220218, Control_c, 15, 11, 118
29, 220240, Control_c, 15, 11, 119
29, 220262, Control_c, 15, 11, 120
29, 220284, Control_c, 15, 11, 121
29, 220306, Control_c, 15, 11, 122
29, 220328, Control_c, 15, 11, 123
29, 220350, Control_c, 15, 11, 124
29, 220368, Note_on_c, 15, 31, 0
29, 220372, Control_c, 15, 11, 125
29, 220394, Control_c, 15, 11, 126
29, 220416, Control_c, 15, 11, 127
29, 220416, Program_c, 15, 45
29, 220416, Note_on_c, 15, 44, 113
29, 220542, Note_on_c, 15, 44, 0
29, 220544, Note_on_c, 15, 37, 112
29, 220670, Note_on_c, 15, 37, 0
29, 220672, Note_on_c, 15, 44, 112
29, 220798, Note_on_c, 15, 44, 0
29, 220800, Note_on_c, 15, 37, 108
29, 220926, Note_on_c, 15, 37, 0
29, 220928, Note_on_c, 15, 44, 107
29, 221054, Note_on_c, 15, 44, 0
29, 221056, Note_on_c, 15, 37, 108
29, 221182, Note_on_c, 15, 37, 0
29, 221184, Note_on_c, 15, 44, 108
29, 221310, Note_on_c, 15, 44, 0
29, 221312, Note_on_c, 15, 37, 110
29, 221438, Note_on_c, 15, 37, 0
29, 221440, Note_on_c, 15, 44, 111
29, 221566, Note_on_c, 15, 44, 0
29, 221568, Note_on_c, 15, 37, 113
29, 221694, Note_on_c, 15, 37, 0
29, 221696, Note_on_c, 15, 44, 112
29, 221822, Note_on_c, 15, 44, 0
29, 221824, Note_on_c, 15, 37, 109
29, 221950, Note_on_c, 15, 37, 0
29, 221952, Note_on_c, 15, 44, 105
29, 222078, Note_on_c, 15, 44, 0
29, 222080, Note_on_c, 15, 37, 112
29, 222206, Note_on_c, 15, 37, 0
29, 222208, Note_on_c, 15, 44, 103
29, 222334, Note_on_c, 15, 44, 0
29, 222336, Note_on_c, 15, 37, 103
29, 222462, Note_on_c, 15, 37, 0
29, 222464, Note_on_c, 15, 44, 111
29, 222590, Note_on_c, 15, 44, 0
29, 222592, Note_on_c, 15, 37, 103
29, 222718, Note_on_c, 15, 37, 0
29, 222720, Note_on_c, 15, 44, 109
29, 222846, Note_on_c, 15, 44, 0
29, 222848, Note_on_c, 15, 37, 105
29, 222974, Note_on_c, 15, 37, 0
29, 222976, Note_on_c, 15, 44, 113
29, 223102, Note_on_c, 15, 44, 0
29, 223104, Note_on_c, 15, 37, 111
29, 223230, Note_on_c, 15, 37, 0
29, 223232, Note_on_c, 15, 44, 109
29, 223358, Note_on_c, 15, 44, 0
29, 223360, Note_on_c, 15, 37, 105
29, 223486, Note_on_c, 15, 37, 0
29, 225216, Note_on_c, 15, 37, 103
29, 225310, Note_on_c, 15, 37, 0
29, 225310, End_track
30, 0, Start_track
30, 0, Title_t, "Contrabbassi II"
30, 0, MIDI_port, 0
30, 221, Control_c, 15, 0, 0
30, 222, Control_c, 15, 32, 0
30, 223, Program_c, 15, 48
30, 224, Control_c, 15, 7, 127
30, 225, Control_c, 15, 10, 84
30, 226, Control_c, 15, 91, 127
30, 7680, Note_on_c, 15, 30, 29
30, 10704, Note_on_c, 15, 30, 0
30, 17856, Note_on_c, 15, 30, 33
30, 17898, Note_on_c, 15, 30, 0
30, 17920, Note_on_c, 15, 30, 29
30, 17962, Note_on_c, 15, 30, 0
30, 17984, Note_on_c, 15, 30, 37
30, 18026, Note_on_c, 15, 30, 0
30, 18048, Note_on_c, 15, 30, 40
30, 18090, Note_on_c, 15, 30, 0
30, 18112, Note_on_c, 15, 30, 43
30, 18154, Note_on_c, 15, 30, 0
30, 18176, Note_on_c, 15, 30, 41
30, 18218, Note_on_c, 15, 30, 0
30, 18240, Note_on_c, 15, 29, 50
30, 18282, Note_on_c, 15, 29, 0
30, 18304, Note_on_c, 15, 29, 59
30, 18346, Note_on_c, 15, 29, 0
30, 18368, Note_on_c, 15, 29, 64
30, 18410, Note_on_c, 15, 29, 0
30, 18624, Note_on_c, 15, 36, 30
30, 18666, Note_on_c, 15, 36, 0
30, 18688, Note_on_c, 15, 36, 25
30, 18730, Note_on_c, 15, 36, 0
30, 18752, Note_on_c, 15, 36, 31
30, 18794, Note_on_c, 15, 36, 0
30, 18816, Note_on_c, 15, 36, 37
30, 18858, Note_on_c, 15, 36, 0
30, 18880, Note_on_c, 15, 36, 41
30, 18922, Note_on_c, 15, 36, 0
30, 18944, Note_on_c, 15, 36, 43
30, 18986, Note_on_c, 15, 36, 0
30, 19008, Note_on_c, 15, 35, 52
30, 19050, Note_on_c, 15, 35, 0
30, 19072, Note_on_c, 15, 35, 59
30, 19114, Note_on_c, 15, 35, 0
30, 19136, Note_on_c, 15, 35, 65
30, 19178, Note_on_c, 15, 35, 0
30, 19264, Note_on_c, 15, 30, 32
30, 19306, Note_on_c, 15, 30, 0
30, 19328, Note_on_c, 15, 30, 33
30, 19370, Note_on_c, 15, 30, 0
30, 19392, Note_on_c, 15, 29, 41
30, 19434, Note_on_c, 15, 29, 0
30, 19456, Note_on_c, 15, 29, 39
30, 19498, Note_on_c, 15, 29, 0
30, 19520, Note_on_c, 15, 29, 47
30, 19562, Note_on_c, 15, 29, 0
30, 19648, Note_on_c, 15, 36, 65
30, 19690, Note_on_c, 15, 36, 0
30, 19712, Note_on_c, 15, 36, 58
30, 19754, Note_on_c, 15, 36, 0
30, 19776, Note_on_c, 15, 36, 56
30, 19818, Note_on_c, 15, 36, 0
30, 19840, Note_on_c, 15, 36, 46
30, 19882, Note_on_c, 15, 36, 0
30, 19904, Note_on_c, 15, 35, 40
30, 19946, Note_on_c, 15, 35, 0
30, 19968, Note_on_c, 15, 29, 34
30, 21456, Note_on_c, 15, 29, 0
30, 21696, Note_on_c, 15, 30, 33
30, 21738, Note_on_c, 15, 30, 0
30, 21760, Note_on_c, 15, 30, 29
30, 21802, Note_on_c, 15, 30, 0
30, 21824, Note_on_c, 15, 30, 33
30, 21866, Note_on_c, 15, 30, 0
30, 21888, Note_on_c, 15, 30, 33
30, 21930, Note_on_c, 15, 30, 0
30, 21952, Note_on_c, 15, 30, 45
30, 21994, Note_on_c, 15, 30, 0
30, 22016, Note_on_c, 15, 30, 41
30, 22058, Note_on_c, 15, 30, 0
30, 22080, Note_on_c, 15, 29, 55
30, 22122, Note_on_c, 15, 29, 0
30, 22144, Note_on_c, 15, 29, 52
30, 22186, Note_on_c, 15, 29, 0
30, 22208, Note_on_c, 15, 29, 56
30, 22250, Note_on_c, 15, 29, 0
30, 22464, Note_on_c, 15, 36, 35
30, 22506, Note_on_c, 15, 36, 0
30, 22528, Note_on_c, 15, 36, 30
30, 22570, Note_on_c, 15, 36, 0
30, 22592, Note_on_c, 15, 36, 29
30, 22634, Note_on_c, 15, 36, 0
30, 22656, Note_on_c, 15, 36, 36
30, 22698, Note_on_c, 15, 36, 0
30, 22720, Note_on_c, 15, 36, 47
30, 22762, Note_on_c, 15, 36, 0
30, 22784, Note_on_c, 15, 36, 44
30, 22826, Note_on_c, 15, 36, 0
30, 22848, Note_on_c, 15, 35, 51
30, 22890, Note_on_c, 15, 35, 0
30, 22912, Note_on_c, 15, 35, 50
30, 22954, Note_on_c, 15, 35, 0
30, 22976, Note_on_c, 15, 35, 56
30, 23018, Note_on_c, 15, 35, 0
30, 23104, Note_on_c, 15, 30, 32
30, 23146, Note_on_c, 15, 30, 0
30, 23168, Note_on_c, 15, 30, 26
30, 23210, Note_on_c, 15, 30, 0
30, 23232, Note_on_c, 15, 29, 36
30, 23274, Note_on_c, 15, 29, 0
30, 23296, Note_on_c, 15, 29, 39
30, 23338, Note_on_c, 15, 29, 0
30, 23360, Note_on_c, 15, 29, 42
30, 23402, Note_on_c, 15, 29, 0
30, 23488, Note_on_c, 15, 36, 49
30, 23530, Note_on_c, 15, 36, 0
30, 23552, Note_on_c, 15, 36, 48
30, 23594, Note_on_c, 15, 36, 0
30, 23616, Note_on_c, 15, 36, 53
30, 23658, Note_on_c, 15, 36, 0
30, 23680, Note_on_c, 15, 36, 55
30, 23722, Note_on_c, 15, 36, 0
30, 23744, Note_on_c, 15, 35, 57
30, 23786, Note_on_c, 15, 35, 0
30, 56064, Program_c, 15, 45
30, 56064, Note_on_c, 15, 33, 58
30, 56158, Note_on_c, 15, 33, 0
30, 56448, Note_on_c, 15, 33, 58
30, 56542, Note_on_c, 15, 33, 0
30, 56832, Note_on_c, 15, 33, 56
30, 56926, Note_on_c, 15, 33, 0
30, 57216, Note_on_c, 15, 33, 62
30, 57310, Note_on_c, 15, 33, 0
30, 57600, Note_on_c, 15, 33, 58
30, 57694, Note_on_c, 15, 33, 0
30, 57984, Note_on_c, 15, 33, 59
30, 58078, Note_on_c, 15, 33, 0
30, 58368, Note_on_c, 15, 33, 60
30, 58462, Note_on_c, 15, 33, 0
30, 58752, Note_on_c, 15, 33, 61
30, 58846, Note_on_c, 15, 33, 0
30, 59136, Note_on_c, 15, 33, 64
30, 59230, Note_on_c, 15, 33, 0
30, 59520, Note_on_c, 15, 33, 63
30, 59614, Note_on_c, 15, 33, 0
30, 59904, Note_on_c, 15, 33, 63
30, 59998, Note_on_c, 15, 33, 0
30, 60288, Note_on_c, 15, 33, 62
30, 60382, Note_on_c, 15, 33, 0
30, 60672, Note_on_c, 15, 33, 63
30, 60766, Note_on_c, 15, 33, 0
30, 61056, Note_on_c, 15, 33, 57
30, 61150, Note_on_c, 15, 33, 0
30, 61440, Note_on_c, 15, 33, 65
30, 61534, Note_on_c, 15, 33, 0
30, 61824, Note_on_c, 15, 33, 63
30, 61918, Note_on_c, 15, 33, 0
30, 69120, Program_c, 15, 48
30, 69888, Control_c, 15, 11, 75
30, 69888, Note_on_c, 15, 33, 60
30, 69902, Control_c, 15, 11, 76
30, 69917, Control_c, 15, 11, 77
30, 69932, Control_c, 15, 11, 78
30, 69947, Control_c, 15, 11, 79
30, 69961, Control_c, 15, 11, 80
30, 69976, Control_c, 15, 11, 81
30, 69991, Control_c, 15, 11, 82
30, 70006, Control_c, 15, 11, 83
30, 70020, Control_c, 15, 11, 84
30, 70035, Control_c, 15, 11, 85
30, 70050, Control_c, 15, 11, 86
30, 70065, Control_c, 15, 11, 87
30, 70080, Control_c, 15, 11, 88
30, 70094, Control_c, 15, 11, 89
30, 70109, Control_c, 15, 11, 90
30, 70124, Control_c, 15, 11, 91
30, 70139, Control_c, 15, 11, 92
30, 70153, Control_c, 15, 11, 93
30, 70168, Control_c, 15, 11, 94
30, 70183, Control_c, 15, 11, 95
30, 70198, Control_c, 15, 11, 96
30, 70212, Control_c, 15, 11, 97
30, 70227, Control_c, 15, 11, 98
30, 70242, Control_c, 15, 11, 99
30, 70257, Control_c, 15, 11, 100
30, 70272, Control_c, 15, 11, 101
30, 70286, Control_c, 15, 11, 102
30, 70301, Control_c, 15, 11, 103
30, 70316, Control_c, 15, 11, 104
30, 70331, Control_c, 15, 11, 105
30, 70345, Control_c, 15, 11, 106
30, 70360, Control_c, 15, 11, 107
30, 70375, Control_c, 15, 11, 108
30, 70390, Control_c, 15, 11, 109
30, 70404, Control_c, 15, 11, 110
30, 70419, Control_c, 15, 11, 111
30, 70434, Control_c, 15, 11, 112
30, 70449, Control_c, 15, 11, 113
30, 70464, Control_c, 15, 11, 114
30, 70478, Control_c, 15, 11, 115
30, 70493, Control_c, 15, 11, 116
30, 70508, Control_c, 15, 11, 117
30, 70523, Control_c, 15, 11, 118
30, 70537, Control_c, 15, 11, 119
30, 70552, Control_c, 15, 11, 120
30, 70567, Control_c, 15, 11, 121
30, 70582, Control_c, 15, 11, 122
30, 70596, Control_c, 15, 11, 123
30, 70611, Control_c, 15, 11, 124
30, 70626, Control_c, 15, 11, 125
30, 70641, Control_c, 15, 11, 126
30, 70656, Control_c, 15, 11, 127
30, 70670, Control_c, 15, 11, 126
30, 70685, Control_c, 15, 11, 125
30, 70700, Control_c, 15, 11, 124
30, 70715, Control_c, 15, 11, 123
30, 70729, Control_c, 15, 11, 122
30, 70744, Control_c, 15, 11, 121
30, 70759, Control_c, 15, 11, 120
30, 70774, Control_c, 15, 11, 119
30, 70788, Control_c, 15, 11, 118
30, 70803, Control_c, 15, 11, 117
30, 70818, Control_c, 15, 11, 116
30, 70833, Control_c, 15, 11, 115
30, 70848, Control_c, 15, 11, 114
30, 70862, Control_c, 15, 11, 113
30, 70877, Control_c, 15, 11, 112
30, 70892, Control_c, 15, 11, 111
30, 70907, Control_c, 15, 11, 110
30, 70921, Control_c, 15, 11, 109
30, 70936, Control_c, 15, 11, 108
30, 70951, Control_c, 15, 11, 107
30, 70966, Control_c, 15, 11, 106
30, 70980, Control_c, 15, 11, 105
30, 70995, Control_c, 15, 11, 104
30, 71010, Control_c, 15, 11, 103
30, 71025, Control_c, 15, 11, 102
30, 71040, Control_c, 15, 11, 101
30, 71054, Control_c, 15, 11, 100
30, 71069, Control_c, 15, 11, 99
30, 71084, Control_c, 15, 11, 98
30, 71099, Control_c, 15, 11, 97
30, 71113, Control_c, 15, 11, 96
30, 71128, Control_c, 15, 11, 95
30, 71143, Control_c, 15, 11, 94
30, 71158, Control_c, 15, 11, 93
30, 71172, Control_c, 15, 11, 92
30, 71187, Control_c, 15, 11, 91
30, 71202, Control_c, 15, 11, 90
30, 71217, Control_c, 15, 11, 89
30, 71232, Control_c, 15, 11, 88
30, 71246, Control_c, 15, 11, 87
30, 71261, Control_c, 15, 11, 86
30, 71276, Control_c, 15, 11, 85
30, 71291, Control_c, 15, 11, 84
30, 71305, Control_c, 15, 11, 83
30, 71320, Control_c, 15, 11, 82
30, 71335, Control_c, 15, 11, 81
30, 71350, Control_c, 15, 11, 80
30, 71364, Control_c, 15, 11, 79
30, 71376, Note_on_c, 15, 33, 0
30, 71379, Control_c, 15, 11, 78
30, 71394, Control_c, 15, 11, 77
30, 71409, Control_c, 15, 11, 76
30, 71424, Control_c, 15, 11, 75
30, 71424, End_track
31, 0, Start_track
31, 0, Title_t, "by Claude Debussy (1862-1918)"
31, 0, MIDI_port, 0
31, 0, System_exclusive, 7, 127, 127, 4, 1, 127, 127, 247
31, 16, System_exclusive, 5, 126, 127, 9, 1, 247
31, 92, System_exclusive, 8, 67, 16, 76, 0, 0, 126, 0, 247
31, 115, System_exclusive, 8, 67, 16, 76, 2, 1, 86, 0, 247
31, 123, System_exclusive, 8, 67, 16, 76, 2, 1, 90, 1, 247
31, 131, System_exclusive, 8, 67, 16, 76, 8, 0, 20, 127, 247
31, 137, System_exclusive, 8, 67, 16, 76, 8, 1, 20, 127, 247
31, 145, System_exclusive, 8, 67, 16, 76, 8, 2, 20, 127, 247
31, 153, System_exclusive, 8, 67, 16, 76, 8, 3, 20, 127, 247
31, 161, System_exclusive, 8, 67, 16, 76, 8, 4, 20, 127, 247
31, 169, System_exclusive, 8, 67, 16, 76, 8, 5, 20, 127, 247
31, 176, System_exclusive, 8, 67, 16, 76, 8, 6, 20, 127, 247
31, 184, System_exclusive, 8, 67, 16, 76, 8, 7, 20, 127, 247
31, 192, System_exclusive, 8, 67, 16, 76, 8, 8, 20, 127, 247
31, 200, System_exclusive, 8, 67, 16, 76, 8, 9, 20, 127, 247
31, 208, System_exclusive, 8, 67, 16, 76, 8, 10, 20, 127, 247
31, 214, System_exclusive, 8, 67, 16, 76, 8, 11, 20, 127, 247
31, 222, System_exclusive, 8, 67, 16, 76, 8, 12, 20, 127, 247
31, 230, System_exclusive, 8, 67, 16, 76, 8, 13, 20, 127, 247
31, 238, System_exclusive, 8, 67, 16, 76, 8, 14, 20, 127, 247
31, 246, System_exclusive, 8, 67, 16, 76, 8, 15, 20, 127, 247
31, 252, System_exclusive, 8, 67, 16, 76, 2, 1, 12, 0, 247
31, 260, System_exclusive, 9, 67, 16, 76, 2, 1, 64, 3, 0, 247
31, 268, System_exclusive, 8, 67, 16, 76, 2, 1, 86, 64, 247
31, 268, End_track
32, 0, Start_track
32, 0, Title_t, "Copyright © 2005 by Dario Galimberti"
32, 0, MIDI_port, 0
32, 0, End_track
0, 0, End_of_file
