0, 0, Header, 1, 7, 1024
1, 0, Start_track
1, 0, Time_signature, 3, 2, 24, 8
1, 0, Key_signature, 0, "major"
1, 0, Tempo, 666666
1, 3072, Time_signature, 3, 2, 24, 8
1, 3072, Key_signature, 0, "major"
1, 6144, Time_signature, 3, 2, 24, 8
1, 6144, Key_signature, 0, "major"
1, 9216, Time_signature, 3, 2, 24, 8
1, 9216, Key_signature, 0, "major"
1, 12288, Time_signature, 3, 2, 24, 8
1, 12288, Key_signature, 0, "major"
1, 15360, Time_signature, 3, 2, 24, 8
1, 15360, Key_signature, 0, "major"
1, 18432, Time_signature, 3, 2, 24, 8
1, 18432, Key_signature, 0, "major"
1, 21504, Time_signature, 3, 2, 24, 8
1, 21504, Key_signature, 0, "major"
1, 24576, Time_signature, 3, 2, 24, 8
1, 24576, Key_signature, 0, "major"
1, 27648, Time_signature, 3, 2, 24, 8
1, 27648, Key_signature, 0, "major"
1, 30720, Time_signature, 3, 2, 24, 8
1, 30720, Key_signature, 0, "major"
1, 33792, Time_signature, 3, 2, 24, 8
1, 33792, Key_signature, 0, "major"
1, 36864, Time_signature, 3, 2, 24, 8
1, 36864, Key_signature, 0, "major"
1, 39936, Time_signature, 3, 2, 24, 8
1, 39936, Key_signature, 0, "major"
1, 43008, Time_signature, 3, 2, 24, 8
1, 43008, Key_signature, 0, "major"
1, 46080, Time_signature, 3, 2, 24, 8
1, 46080, Key_signature, 0, "major"
1, 49152, Time_signature, 3, 2, 24, 8
1, 49152, Key_signature, 0, "major"
1, 52224, Time_signature, 3, 2, 24, 8
1, 52224, Key_signature, 0, "major"
1, 55296, Time_signature, 3, 2, 24, 8
1, 55296, Key_signature, 0, "major"
1, 58368, Time_signature, 3, 2, 24, 8
1, 58368, Key_signature, 0, "major"
1, 61440, Time_signature, 3, 2, 24, 8
1, 61440, Key_signature, 0, "major"
1, 64512, Time_signature, 3, 2, 24, 8
1, 64512, Key_signature, 0, "major"
1, 67584, Time_signature, 3, 2, 24, 8
1, 67584, Key_signature, 0, "major"
1, 70656, Time_signature, 3, 2, 24, 8
1, 70656, Key_signature, 0, "major"
1, 73728, Time_signature, 3, 2, 24, 8
1, 73728, Key_signature, 0, "major"
1, 76800, Time_signature, 3, 2, 24, 8
1, 76800, Key_signature, 0, "major"
1, 79872, Time_signature, 3, 2, 24, 8
1, 79872, Key_signature, 0, "major"
1, 82944, Time_signature, 3, 2, 24, 8
1, 82944, Key_signature, 0, "major"
1, 86016, Time_signature, 3, 2, 24, 8
1, 86016, Key_signature, 0, "major"
1, 89088, Time_signature, 3, 2, 24, 8
1, 89088, Key_signature, 0, "major"
1, 92160, Time_signature, 3, 2, 24, 8
1, 92160, Key_signature, 0, "major"
1, 95232, Time_signature, 3, 2, 24, 8
1, 95232, Key_signature, 0, "major"
1, 98304, Time_signature, 3, 2, 24, 8
1, 98304, Key_signature, 0, "major"
1, 101376, Time_signature, 3, 2, 24, 8
1, 101376, Key_signature, 0, "major"
1, 104448, Time_signature, 3, 2, 24, 8
1, 104448, Key_signature, 0, "major"
1, 107520, Time_signature, 3, 2, 24, 8
1, 107520, Key_signature, 0, "major"
1, 110592, Time_signature, 3, 2, 24, 8
1, 110592, Key_signature, 0, "major"
1, 113664, Time_signature, 3, 2, 24, 8
1, 113664, Key_signature, 0, "major"
1, 116736, Time_signature, 3, 2, 24, 8
1, 116736, Key_signature, 0, "major"
1, 119808, Time_signature, 3, 2, 24, 8
1, 119808, Key_signature, 0, "major"
1, 122880, Time_signature, 3, 2, 24, 8
1, 122880, Key_signature, 0, "major"
1, 125952, Time_signature, 3, 2, 24, 8
1, 125952, Key_signature, 0, "major"
1, 129024, Time_signature, 3, 2, 24, 8
1, 129024, Key_signature, 0, "major"
1, 132096, Time_signature, 3, 2, 24, 8
1, 132096, Key_signature, 0, "major"
1, 135168, Time_signature, 3, 2, 24, 8
1, 135168, Key_signature, 0, "major"
1, 135168, End_track
2, 0, Start_track
2, 0, Title_t, "Grand Piano"
2, 0, Program_c, 1, 1
2, 0, Control_c, 1, 65, 65
2, 0, Program_c, 1, 4
2, 0, Note_on_c, 1, 71, 45
2, 2731, Note_off_c, 1, 71, 0
2, 2731, Note_on_c, 1, 74, 45
2, 3072, Control_c, 1, 65, 65
2, 3072, Program_c, 1, 4
2, 3072, Note_off_c, 1, 74, 0
2, 3072, Note_on_c, 1, 73, 45
2, 4608, Note_off_c, 1, 73, 0
2, 4608, Note_on_c, 1, 70, 45
2, 6144, Control_c, 1, 65, 65
2, 6144, Program_c, 1, 4
2, 6144, Note_off_c, 1, 70, 0
2, 6656, Note_on_c, 1, 71, 45
2, 7680, Note_off_c, 1, 71, 0
2, 7680, Note_on_c, 1, 60, 45
2, 8704, Note_off_c, 1, 60, 0
2, 8704, Note_on_c, 1, 70, 45
2, 9216, Control_c, 1, 65, 65
2, 9216, Program_c, 1, 4
2, 9216, Note_off_c, 1, 70, 0
2, 9216, Note_on_c, 1, 69, 45
2, 9728, Note_off_c, 1, 69, 0
2, 9728, Note_on_c, 1, 71, 45
2, 9984, Note_off_c, 1, 71, 0
2, 9984, Note_on_c, 1, 60, 45
2, 10240, Note_off_c, 1, 60, 0
2, 11264, Note_on_c, 1, 71, 45
2, 11776, Note_off_c, 1, 71, 0
2, 12032, Note_on_c, 1, 74, 45
2, 12288, Control_c, 1, 65, 65
2, 12288, Program_c, 1, 4
2, 12288, Note_off_c, 1, 74, 0
2, 12288, Note_on_c, 1, 73, 45
2, 14336, Note_off_c, 1, 73, 0
2, 14336, Note_on_c, 1, 70, 45
2, 15360, Control_c, 1, 65, 65
2, 15360, Program_c, 1, 4
2, 16384, Note_off_c, 1, 70, 0
2, 16384, Note_on_c, 1, 74, 45
2, 17920, Note_off_c, 1, 74, 0
2, 17920, Note_on_c, 1, 70, 45
2, 18432, Control_c, 1, 65, 65
2, 18432, Program_c, 1, 4
2, 19456, Note_off_c, 1, 70, 0
2, 19456, Note_on_c, 1, 75, 45
2, 20480, Note_off_c, 1, 75, 0
2, 20480, Note_on_c, 1, 70, 45
2, 21504, Control_c, 1, 65, 65
2, 21504, Program_c, 1, 4
2, 21504, Note_off_c, 1, 70, 0
2, 21504, Note_on_c, 1, 76, 45
2, 22187, Note_off_c, 1, 76, 0
2, 22187, Note_on_c, 1, 70, 45
2, 22869, Note_off_c, 1, 70, 0
2, 22869, Note_on_c, 1, 77, 45
2, 23552, Note_off_c, 1, 77, 0
2, 23552, Note_on_c, 1, 70, 45
2, 24064, Note_off_c, 1, 70, 0
2, 24064, Note_on_c, 1, 78, 45
2, 24320, Note_off_c, 1, 78, 0
2, 24320, Note_on_c, 1, 70, 45
2, 24576, Control_c, 1, 65, 65
2, 24576, Program_c, 1, 4
2, 24576, Note_off_c, 1, 70, 0
2, 24576, Note_on_c, 1, 79, 45
2, 24832, Note_off_c, 1, 79, 0
2, 24832, Note_on_c, 1, 68, 45
2, 25088, Note_off_c, 1, 68, 0
2, 25088, Note_on_c, 1, 67, 45
2, 25344, Note_off_c, 1, 67, 0
2, 25344, Note_on_c, 1, 77, 45
2, 25600, Note_off_c, 1, 77, 0
2, 25600, Note_on_c, 1, 76, 45
2, 25856, Note_off_c, 1, 76, 0
2, 25856, Note_on_c, 1, 73, 45
2, 26112, Note_off_c, 1, 73, 0
2, 26112, Note_on_c, 1, 72, 45
2, 26368, Note_off_c, 1, 72, 0
2, 26368, Note_on_c, 1, 63, 45
2, 26624, Note_off_c, 1, 63, 0
2, 26624, Note_on_c, 1, 74, 45
2, 26880, Note_off_c, 1, 74, 0
2, 26880, Note_on_c, 1, 78, 45
2, 27136, Note_off_c, 1, 78, 0
2, 27648, Control_c, 1, 65, 65
2, 27648, Program_c, 1, 4
2, 27904, Note_on_c, 1, 72, 45
2, 28160, Note_off_c, 1, 72, 0
2, 28160, Note_on_c, 1, 63, 45
2, 28416, Note_off_c, 1, 63, 0
2, 28416, Note_on_c, 1, 74, 45
2, 28672, Note_off_c, 1, 74, 0
2, 28672, Note_on_c, 1, 77, 45
2, 29696, Note_off_c, 1, 77, 0
2, 29696, Note_on_c, 1, 74, 45
2, 29952, Note_off_c, 1, 74, 0
2, 29952, Note_on_c, 1, 65, 45
2, 30208, Note_off_c, 1, 65, 0
2, 30208, Note_on_c, 1, 75, 45
2, 30464, Note_off_c, 1, 75, 0
2, 30464, Note_on_c, 1, 77, 45
2, 30720, Control_c, 1, 65, 65
2, 30720, Program_c, 1, 4
2, 30720, Note_off_c, 1, 77, 0
2, 31061, Note_on_c, 1, 67, 45
2, 31232, Note_off_c, 1, 67, 0
2, 31232, Note_on_c, 1, 69, 45
2, 31403, Note_off_c, 1, 69, 0
2, 31403, Note_on_c, 1, 67, 45
2, 31573, Note_off_c, 1, 67, 0
2, 31573, Note_on_c, 1, 74, 45
2, 31744, Note_off_c, 1, 74, 0
2, 31744, Note_on_c, 1, 80, 45
2, 31915, Note_off_c, 1, 80, 0
2, 31915, Note_on_c, 1, 74, 45
2, 32085, Note_off_c, 1, 74, 0
2, 32085, Note_on_c, 1, 72, 45
2, 32256, Note_off_c, 1, 72, 0
2, 32256, Note_on_c, 1, 67, 45
2, 32597, Note_off_c, 1, 67, 0
2, 32597, Note_on_c, 1, 66, 45
2, 33792, Control_c, 1, 65, 65
2, 33792, Program_c, 1, 4
2, 35328, Note_off_c, 1, 66, 0
2, 35328, Note_on_c, 1, 74, 45
2, 35584, Note_off_c, 1, 74, 0
2, 35584, Note_on_c, 1, 72, 45
2, 35840, Note_off_c, 1, 72, 0
2, 35840, Note_on_c, 1, 67, 45
2, 36096, Note_off_c, 1, 67, 0
2, 36096, Note_on_c, 1, 65, 45
2, 36352, Note_off_c, 1, 65, 0
2, 36352, Note_on_c, 1, 77, 45
2, 36608, Note_off_c, 1, 77, 0
2, 36608, Note_on_c, 1, 75, 45
2, 36864, Control_c, 1, 65, 65
2, 36864, Program_c, 1, 4
2, 36864, Note_off_c, 1, 75, 0
2, 37547, Note_on_c, 1, 71, 45
2, 38229, Note_off_c, 1, 71, 0
2, 38229, Note_on_c, 1, 71, 45
2, 38912, Note_off_c, 1, 71, 0
2, 38912, Note_on_c, 1, 69, 45
2, 39936, Control_c, 1, 65, 65
2, 39936, Program_c, 1, 4
2, 40960, Note_off_c, 1, 69, 0
2, 40960, Note_on_c, 1, 71, 45
2, 42496, Note_off_c, 1, 71, 0
2, 42496, Note_on_c, 1, 68, 45
2, 43008, Control_c, 1, 65, 65
2, 43008, Program_c, 1, 4
2, 44032, Note_off_c, 1, 68, 0
2, 44032, Note_on_c, 1, 71, 45
2, 45056, Note_off_c, 1, 71, 0
2, 45056, Note_on_c, 1, 67, 45
2, 46080, Control_c, 1, 65, 65
2, 46080, Program_c, 1, 4
2, 46080, Note_off_c, 1, 67, 0
2, 46080, Note_on_c, 1, 71, 45
2, 46763, Note_off_c, 1, 71, 0
2, 46763, Note_on_c, 1, 66, 45
2, 47445, Note_off_c, 1, 66, 0
2, 47445, Note_on_c, 1, 71, 45
2, 48128, Note_off_c, 1, 71, 0
2, 48128, Note_on_c, 1, 65, 45
2, 48640, Note_off_c, 1, 65, 0
2, 48640, Note_on_c, 1, 71, 45
2, 48896, Note_off_c, 1, 71, 0
2, 48896, Note_on_c, 1, 64, 45
2, 49152, Control_c, 1, 65, 65
2, 49152, Program_c, 1, 4
2, 49152, Note_off_c, 1, 64, 0
2, 51712, Note_on_c, 1, 63, 45
2, 51968, Note_off_c, 1, 63, 0
2, 51968, Note_on_c, 1, 69, 45
2, 52224, Control_c, 1, 65, 65
2, 52224, Program_c, 1, 4
2, 52224, Note_off_c, 1, 69, 0
2, 52224, Note_on_c, 1, 70, 45
2, 52480, Note_off_c, 1, 70, 0
2, 52480, Note_on_c, 1, 76, 45
2, 53248, Note_off_c, 1, 76, 0
2, 53248, Note_on_c, 1, 63, 45
2, 53504, Note_off_c, 1, 63, 0
2, 53504, Note_on_c, 1, 69, 45
2, 53760, Note_off_c, 1, 69, 0
2, 53760, Note_on_c, 1, 70, 45
2, 54016, Note_off_c, 1, 70, 0
2, 54016, Note_on_c, 1, 76, 45
2, 54272, Note_off_c, 1, 76, 0
2, 54272, Note_on_c, 1, 80, 45
2, 54955, Note_off_c, 1, 80, 0
2, 54955, Note_on_c, 1, 74, 45
2, 55296, Control_c, 1, 65, 65
2, 55296, Program_c, 1, 4
2, 55637, Note_off_c, 1, 74, 0
2, 55637, Note_on_c, 1, 72, 45
2, 56320, Note_off_c, 1, 72, 0
2, 56320, Note_on_c, 1, 67, 45
2, 57003, Note_off_c, 1, 67, 0
2, 57003, Note_on_c, 1, 66, 45
2, 57344, Note_off_c, 1, 66, 0
2, 57344, Note_on_c, 1, 80, 45
2, 58027, Note_off_c, 1, 80, 0
2, 58027, Note_on_c, 1, 74, 45
2, 58368, Control_c, 1, 65, 65
2, 58368, Program_c, 1, 4
2, 58709, Note_off_c, 1, 74, 0
2, 58709, Note_on_c, 1, 72, 45
2, 59392, Note_off_c, 1, 72, 0
2, 60416, Note_on_c, 1, 67, 45
2, 61440, Control_c, 1, 65, 65
2, 61440, Program_c, 1, 4
2, 61952, Note_off_c, 1, 67, 0
2, 61952, Note_on_c, 1, 66, 45
2, 63488, Note_off_c, 1, 66, 0
2, 63488, Note_on_c, 1, 68, 45
2, 64512, Control_c, 1, 65, 65
2, 64512, Program_c, 1, 4
2, 67584, Control_c, 1, 65, 65
2, 67584, Program_c, 1, 4
2, 67584, Note_off_c, 1, 68, 0
2, 69632, Note_on_c, 1, 69, 45
2, 70656, Control_c, 1, 65, 65
2, 70656, Program_c, 1, 4
2, 70656, Note_off_c, 1, 69, 0
2, 70656, Note_on_c, 1, 72, 45
2, 71680, Note_off_c, 1, 72, 0
2, 71680, Note_on_c, 1, 71, 45
2, 72704, Note_off_c, 1, 71, 0
2, 72704, Note_on_c, 1, 74, 45
2, 73728, Control_c, 1, 65, 65
2, 73728, Program_c, 1, 4
2, 76800, Control_c, 1, 65, 65
2, 76800, Program_c, 1, 4
2, 79872, Control_c, 1, 65, 65
2, 79872, Program_c, 1, 4
2, 79872, Note_off_c, 1, 74, 0
2, 80896, Note_on_c, 1, 61, 45
2, 82944, Control_c, 1, 65, 65
2, 82944, Program_c, 1, 4
2, 84992, Note_off_c, 1, 61, 0
2, 84992, Note_on_c, 1, 67, 45
2, 86016, Control_c, 1, 65, 65
2, 86016, Program_c, 1, 4
2, 88064, Note_off_c, 1, 67, 0
2, 88064, Note_on_c, 1, 61, 45
2, 89088, Control_c, 1, 65, 65
2, 89088, Program_c, 1, 4
2, 90624, Note_off_c, 1, 61, 0
2, 90624, Note_on_c, 1, 71, 45
2, 92160, Control_c, 1, 65, 65
2, 92160, Program_c, 1, 4
2, 92160, Note_off_c, 1, 71, 0
2, 94208, Note_on_c, 1, 61, 45
2, 95232, Control_c, 1, 65, 65
2, 95232, Program_c, 1, 4
2, 98304, Control_c, 1, 65, 65
2, 98304, Program_c, 1, 4
2, 98304, Note_off_c, 1, 61, 0
2, 99840, Note_on_c, 1, 67, 45
2, 100352, Note_off_c, 1, 67, 0
2, 100352, Note_on_c, 1, 67, 45
2, 100693, Note_off_c, 1, 67, 0
2, 100693, Note_on_c, 1, 64, 45
2, 101035, Note_off_c, 1, 64, 0
2, 101035, Note_on_c, 1, 61, 45
2, 101376, Control_c, 1, 65, 65
2, 101376, Program_c, 1, 4
2, 102912, Note_off_c, 1, 61, 0
2, 102912, Note_on_c, 1, 72, 45
2, 104448, Control_c, 1, 65, 65
2, 104448, Program_c, 1, 4
2, 107520, Control_c, 1, 65, 65
2, 107520, Program_c, 1, 4
2, 107520, Note_off_c, 1, 72, 0
2, 107776, Note_on_c, 1, 79, 45
2, 107904, Note_off_c, 1, 79, 0
2, 107904, Note_on_c, 1, 78, 45
2, 108032, Note_off_c, 1, 78, 0
2, 108032, Note_on_c, 1, 75, 45
2, 108288, Note_off_c, 1, 75, 0
2, 108288, Note_on_c, 1, 76, 45
2, 108544, Note_off_c, 1, 76, 0
2, 108544, Note_on_c, 1, 79, 45
2, 108800, Note_off_c, 1, 79, 0
2, 108800, Note_on_c, 1, 72, 45
2, 109056, Note_off_c, 1, 72, 0
2, 109056, Note_on_c, 1, 71, 45
2, 109312, Note_off_c, 1, 71, 0
2, 109312, Note_on_c, 1, 76, 45
2, 109568, Note_off_c, 1, 76, 0
2, 109568, Note_on_c, 1, 70, 45
2, 109824, Note_off_c, 1, 70, 0
2, 109824, Note_on_c, 1, 69, 45
2, 110080, Note_off_c, 1, 69, 0
2, 110592, Control_c, 1, 65, 65
2, 110592, Program_c, 1, 4
2, 110592, Note_on_c, 1, 63, 45
2, 110848, Note_off_c, 1, 63, 0
2, 110848, Note_on_c, 1, 69, 45
2, 111104, Note_off_c, 1, 69, 0
2, 111104, Note_on_c, 1, 70, 45
2, 111360, Note_off_c, 1, 70, 0
2, 111360, Note_on_c, 1, 76, 45
2, 111616, Note_off_c, 1, 76, 0
2, 111616, Note_on_c, 1, 63, 45
2, 111872, Note_off_c, 1, 63, 0
2, 111872, Note_on_c, 1, 69, 45
2, 112128, Note_off_c, 1, 69, 0
2, 112128, Note_on_c, 1, 70, 45
2, 112384, Note_off_c, 1, 70, 0
2, 112384, Note_on_c, 1, 76, 45
2, 112640, Note_off_c, 1, 76, 0
2, 113664, Control_c, 1, 65, 65
2, 113664, Program_c, 1, 4
2, 114688, Note_on_c, 1, 63, 45
2, 114944, Note_off_c, 1, 63, 0
2, 114944, Note_on_c, 1, 69, 45
2, 115200, Note_off_c, 1, 69, 0
2, 115200, Note_on_c, 1, 70, 45
2, 115456, Note_off_c, 1, 70, 0
2, 115456, Note_on_c, 1, 75, 45
2, 115712, Note_off_c, 1, 75, 0
2, 115712, Note_on_c, 1, 80, 45
2, 115883, Note_off_c, 1, 80, 0
2, 115883, Note_on_c, 1, 74, 45
2, 116053, Note_off_c, 1, 74, 0
2, 116053, Note_on_c, 1, 72, 45
2, 116224, Note_off_c, 1, 72, 0
2, 116224, Note_on_c, 1, 67, 45
2, 116480, Note_off_c, 1, 67, 0
2, 116480, Note_on_c, 1, 66, 45
2, 116736, Control_c, 1, 65, 65
2, 116736, Program_c, 1, 4
2, 116736, Note_off_c, 1, 66, 0
2, 116736, Note_on_c, 1, 61, 45
2, 119040, Note_off_c, 1, 61, 0
2, 119040, Note_on_c, 1, 68, 45
2, 119296, Note_off_c, 1, 68, 0
2, 119296, Note_on_c, 1, 76, 45
2, 119552, Note_off_c, 1, 76, 0
2, 119552, Note_on_c, 1, 72, 45
2, 119808, Control_c, 1, 65, 65
2, 119808, Program_c, 1, 4
2, 119808, Note_off_c, 1, 72, 0
2, 119808, Note_on_c, 1, 67, 45
2, 120491, Note_off_c, 1, 67, 0
2, 120491, Note_on_c, 1, 66, 45
2, 121173, Note_off_c, 1, 66, 0
2, 121173, Note_on_c, 1, 61, 45
2, 122880, Control_c, 1, 65, 65
2, 122880, Program_c, 1, 4
2, 123904, Note_off_c, 1, 61, 0
2, 125952, Control_c, 1, 65, 65
2, 125952, Program_c, 1, 4
2, 125952, Note_on_c, 1, 70, 45
2, 129024, Control_c, 1, 65, 65
2, 129024, Program_c, 1, 4
2, 129024, Note_off_c, 1, 70, 0
2, 132096, Control_c, 1, 65, 65
2, 132096, Program_c, 1, 4
2, 135168, Control_c, 1, 65, 65
2, 135168, End_track
3, 0, Start_track
3, 0, Title_t, "Acoustic Bass"
3, 0, Program_c, 4, 63
3, 0, Program_c, 4, 63
3, 0, Note_on_c, 4, 41, 64
3, 2816, Note_off_c, 4, 41, 0
3, 3072, Program_c, 4, 63
3, 3072, Note_on_c, 4, 47, 64
3, 6144, Program_c, 4, 63
3, 6144, Note_off_c, 4, 47, 0
3, 6144, Note_on_c, 4, 41, 64
3, 9216, Program_c, 4, 63
3, 9216, Note_off_c, 4, 41, 0
3, 9216, Note_on_c, 4, 43, 64
3, 10240, Note_off_c, 4, 43, 0
3, 11264, Note_on_c, 4, 43, 64
3, 12288, Program_c, 4, 63
3, 12288, Note_off_c, 4, 43, 0
3, 12288, Note_on_c, 4, 47, 64
3, 15360, Program_c, 4, 63
3, 15360, Note_off_c, 4, 47, 0
3, 15360, Note_on_c, 4, 46, 64
3, 18432, Program_c, 4, 63
3, 18432, Note_off_c, 4, 46, 0
3, 18432, Note_on_c, 4, 45, 64
3, 21504, Program_c, 4, 63
3, 21504, Note_off_c, 4, 45, 0
3, 21504, Note_on_c, 4, 40, 64
3, 22528, Note_off_c, 4, 40, 0
3, 22528, Note_on_c, 4, 47, 64
3, 23552, Note_off_c, 4, 47, 0
3, 23552, Note_on_c, 4, 40, 64
3, 24576, Program_c, 4, 63
3, 24576, Note_off_c, 4, 40, 0
3, 24576, Note_on_c, 4, 43, 64
3, 27648, Program_c, 4, 63
3, 27648, Note_off_c, 4, 43, 0
3, 27648, Note_on_c, 4, 43, 64
3, 30720, Program_c, 4, 63
3, 30720, Note_off_c, 4, 43, 0
3, 30720, Note_on_c, 4, 44, 64
3, 33792, Program_c, 4, 63
3, 33792, Note_off_c, 4, 44, 0
3, 33792, Note_on_c, 4, 41, 64
3, 36864, Program_c, 4, 63
3, 36864, Note_off_c, 4, 41, 0
3, 36864, Note_on_c, 4, 38, 64
3, 39936, Program_c, 4, 63
3, 43008, Program_c, 4, 63
3, 43008, Note_off_c, 4, 38, 0
3, 43008, Note_on_c, 4, 38, 64
3, 46080, Program_c, 4, 63
3, 49152, Program_c, 4, 63
3, 49152, Note_off_c, 4, 38, 0
3, 49152, Note_on_c, 4, 44, 64
3, 52224, Program_c, 4, 63
3, 55296, Program_c, 4, 63
3, 55296, Note_off_c, 4, 44, 0
3, 55296, Note_on_c, 4, 42, 64
3, 58368, Program_c, 4, 63
3, 61440, Program_c, 4, 63
3, 61440, Note_off_c, 4, 42, 0
3, 61440, Note_on_c, 4, 40, 64
3, 62464, Note_off_c, 4, 40, 0
3, 62464, Note_on_c, 4, 47, 64
3, 63488, Note_off_c, 4, 47, 0
3, 63488, Note_on_c, 4, 40, 64
3, 64512, Program_c, 4, 63
3, 64512, Note_off_c, 4, 40, 0
3, 64512, Note_on_c, 4, 39, 64
3, 67584, Program_c, 4, 63
3, 67584, Note_off_c, 4, 39, 0
3, 67584, Note_on_c, 4, 45, 64
3, 70656, Program_c, 4, 63
3, 70656, Note_off_c, 4, 45, 0
3, 70656, Note_on_c, 4, 45, 64
3, 73728, Program_c, 4, 63
3, 73728, Note_off_c, 4, 45, 0
3, 73728, Note_on_c, 4, 45, 64
3, 76800, Program_c, 4, 63
3, 79872, Program_c, 4, 63
3, 79872, Note_off_c, 4, 45, 0
3, 79872, Note_on_c, 4, 43, 64
3, 82944, Program_c, 4, 63
3, 82944, Note_off_c, 4, 43, 0
3, 82944, Note_on_c, 4, 41, 64
3, 86016, Program_c, 4, 63
3, 86016, Note_off_c, 4, 41, 0
3, 86016, Note_on_c, 4, 43, 64
3, 89088, Program_c, 4, 63
3, 89088, Note_off_c, 4, 43, 0
3, 89088, Note_on_c, 4, 41, 64
3, 92160, Program_c, 4, 63
3, 92160, Note_off_c, 4, 41, 0
3, 92160, Note_on_c, 4, 39, 64
3, 95232, Program_c, 4, 63
3, 95232, Note_off_c, 4, 39, 0
3, 95232, Note_on_c, 4, 38, 64
3, 98304, Program_c, 4, 63
3, 98304, Note_off_c, 4, 38, 0
3, 98304, Note_on_c, 4, 43, 64
3, 101376, Program_c, 4, 63
3, 101376, Note_off_c, 4, 43, 0
3, 101376, Note_on_c, 4, 43, 64
3, 104448, Program_c, 4, 63
3, 107520, Program_c, 4, 63
3, 107520, Note_off_c, 4, 43, 0
3, 107520, Note_on_c, 4, 44, 64
3, 110592, Program_c, 4, 63
3, 110592, Note_off_c, 4, 44, 0
3, 110592, Note_on_c, 4, 46, 64
3, 112640, Note_off_c, 4, 46, 0
3, 113664, Program_c, 4, 63
3, 114688, Note_on_c, 4, 46, 64
3, 116736, Program_c, 4, 63
3, 116736, Note_off_c, 4, 46, 0
3, 116736, Note_on_c, 4, 46, 64
3, 119808, Program_c, 4, 63
3, 119808, Note_off_c, 4, 46, 0
3, 119808, Note_on_c, 4, 46, 64
3, 122880, Program_c, 4, 63
3, 122880, Note_off_c, 4, 46, 0
3, 122880, Note_on_c, 4, 46, 64
3, 125952, Program_c, 4, 63
3, 125952, Note_off_c, 4, 46, 0
3, 129024, Program_c, 4, 63
3, 132096, Program_c, 4, 63
3, 135168, End_track
4, 0, Start_track
4, 0, Title_t, "Jazz Guitar"
4, 0, Program_c, 3, 107
4, 0, Program_c, 3, 104
4, 0, Note_on_c, 3, 71, 45
4, 2731, Note_off_c, 3, 71, 0
4, 2731, Note_on_c, 3, 74, 45
4, 3072, Program_c, 3, 104
4, 3072, Note_off_c, 3, 74, 0
4, 3072, Note_on_c, 3, 73, 45
4, 4608, Note_off_c, 3, 73, 0
4, 4608, Note_on_c, 3, 70, 45
4, 6144, Program_c, 3, 104
4, 6144, Note_off_c, 3, 70, 0
4, 6656, Note_on_c, 3, 71, 45
4, 7680, Note_off_c, 3, 71, 0
4, 7680, Note_on_c, 3, 60, 45
4, 8704, Note_off_c, 3, 60, 0
4, 8704, Note_on_c, 3, 70, 45
4, 9216, Program_c, 3, 104
4, 9216, Note_off_c, 3, 70, 0
4, 9216, Note_on_c, 3, 69, 45
4, 9728, Note_off_c, 3, 69, 0
4, 9728, Note_on_c, 3, 71, 45
4, 9984, Note_off_c, 3, 71, 0
4, 9984, Note_on_c, 3, 60, 45
4, 10240, Note_off_c, 3, 60, 0
4, 11264, Note_on_c, 3, 71, 45
4, 11776, Note_off_c, 3, 71, 0
4, 12032, Note_on_c, 3, 74, 45
4, 12288, Program_c, 3, 104
4, 12288, Note_off_c, 3, 74, 0
4, 12288, Note_on_c, 3, 73, 45
4, 14336, Note_off_c, 3, 73, 0
4, 14336, Note_on_c, 3, 70, 45
4, 15360, Program_c, 3, 104
4, 16384, Note_off_c, 3, 70, 0
4, 16384, Note_on_c, 3, 74, 45
4, 17920, Note_off_c, 3, 74, 0
4, 17920, Note_on_c, 3, 70, 45
4, 18432, Program_c, 3, 104
4, 19456, Note_off_c, 3, 70, 0
4, 19456, Note_on_c, 3, 75, 45
4, 20480, Note_off_c, 3, 75, 0
4, 20480, Note_on_c, 3, 70, 45
4, 21504, Program_c, 3, 104
4, 21504, Note_off_c, 3, 70, 0
4, 21504, Note_on_c, 3, 76, 45
4, 22187, Note_off_c, 3, 76, 0
4, 22187, Note_on_c, 3, 70, 45
4, 22869, Note_off_c, 3, 70, 0
4, 22869, Note_on_c, 3, 77, 45
4, 23552, Note_off_c, 3, 77, 0
4, 23552, Note_on_c, 3, 70, 45
4, 24064, Note_off_c, 3, 70, 0
4, 24064, Note_on_c, 3, 78, 45
4, 24320, Note_off_c, 3, 78, 0
4, 24320, Note_on_c, 3, 70, 45
4, 24576, Program_c, 3, 104
4, 24576, Note_off_c, 3, 70, 0
4, 24576, Note_on_c, 3, 79, 45
4, 24832, Note_off_c, 3, 79, 0
4, 24832, Note_on_c, 3, 68, 45
4, 25088, Note_off_c, 3, 68, 0
4, 25088, Note_on_c, 3, 67, 45
4, 25344, Note_off_c, 3, 67, 0
4, 25344, Note_on_c, 3, 77, 45
4, 25600, Note_off_c, 3, 77, 0
4, 25600, Note_on_c, 3, 76, 45
4, 25856, Note_off_c, 3, 76, 0
4, 25856, Note_on_c, 3, 73, 45
4, 26112, Note_off_c, 3, 73, 0
4, 26112, Note_on_c, 3, 72, 45
4, 26368, Note_off_c, 3, 72, 0
4, 26368, Note_on_c, 3, 63, 45
4, 26624, Note_off_c, 3, 63, 0
4, 26624, Note_on_c, 3, 74, 45
4, 26880, Note_off_c, 3, 74, 0
4, 26880, Note_on_c, 3, 78, 45
4, 27136, Note_off_c, 3, 78, 0
4, 27648, Program_c, 3, 104
4, 27904, Note_on_c, 3, 72, 45
4, 28160, Note_off_c, 3, 72, 0
4, 28160, Note_on_c, 3, 63, 45
4, 28416, Note_off_c, 3, 63, 0
4, 28416, Note_on_c, 3, 74, 45
4, 28672, Note_off_c, 3, 74, 0
4, 28672, Note_on_c, 3, 77, 45
4, 29696, Note_off_c, 3, 77, 0
4, 29696, Note_on_c, 3, 74, 45
4, 29952, Note_off_c, 3, 74, 0
4, 29952, Note_on_c, 3, 65, 45
4, 30208, Note_off_c, 3, 65, 0
4, 30208, Note_on_c, 3, 75, 45
4, 30464, Note_off_c, 3, 75, 0
4, 30464, Note_on_c, 3, 77, 45
4, 30720, Program_c, 3, 104
4, 30720, Note_off_c, 3, 77, 0
4, 31061, Note_on_c, 3, 67, 45
4, 31232, Note_off_c, 3, 67, 0
4, 31232, Note_on_c, 3, 69, 45
4, 31403, Note_off_c, 3, 69, 0
4, 31403, Note_on_c, 3, 67, 45
4, 31573, Note_off_c, 3, 67, 0
4, 31573, Note_on_c, 3, 74, 45
4, 31744, Note_off_c, 3, 74, 0
4, 31744, Note_on_c, 3, 80, 45
4, 31915, Note_off_c, 3, 80, 0
4, 31915, Note_on_c, 3, 74, 45
4, 32085, Note_off_c, 3, 74, 0
4, 32085, Note_on_c, 3, 72, 45
4, 32256, Note_off_c, 3, 72, 0
4, 32256, Note_on_c, 3, 67, 45
4, 32597, Note_off_c, 3, 67, 0
4, 32597, Note_on_c, 3, 66, 45
4, 33792, Program_c, 3, 104
4, 35328, Note_off_c, 3, 66, 0
4, 35328, Note_on_c, 3, 74, 45
4, 35584, Note_off_c, 3, 74, 0
4, 35584, Note_on_c, 3, 72, 45
4, 35840, Note_off_c, 3, 72, 0
4, 35840, Note_on_c, 3, 67, 45
4, 36096, Note_off_c, 3, 67, 0
4, 36096, Note_on_c, 3, 65, 45
4, 36352, Note_off_c, 3, 65, 0
4, 36352, Note_on_c, 3, 77, 45
4, 36608, Note_off_c, 3, 77, 0
4, 36608, Note_on_c, 3, 75, 45
4, 36864, Program_c, 3, 104
4, 36864, Note_off_c, 3, 75, 0
4, 37547, Note_on_c, 3, 71, 45
4, 38229, Note_off_c, 3, 71, 0
4, 38229, Note_on_c, 3, 71, 45
4, 38912, Note_off_c, 3, 71, 0
4, 38912, Note_on_c, 3, 69, 45
4, 39936, Program_c, 3, 104
4, 40960, Note_off_c, 3, 69, 0
4, 40960, Note_on_c, 3, 71, 45
4, 42496, Note_off_c, 3, 71, 0
4, 42496, Note_on_c, 3, 68, 45
4, 43008, Program_c, 3, 104
4, 44032, Note_off_c, 3, 68, 0
4, 44032, Note_on_c, 3, 71, 45
4, 45056, Note_off_c, 3, 71, 0
4, 45056, Note_on_c, 3, 67, 45
4, 46080, Program_c, 3, 104
4, 46080, Note_off_c, 3, 67, 0
4, 46080, Note_on_c, 3, 71, 45
4, 46763, Note_off_c, 3, 71, 0
4, 46763, Note_on_c, 3, 66, 45
4, 47445, Note_off_c, 3, 66, 0
4, 47445, Note_on_c, 3, 71, 45
4, 48128, Note_off_c, 3, 71, 0
4, 48128, Note_on_c, 3, 65, 45
4, 48640, Note_off_c, 3, 65, 0
4, 48640, Note_on_c, 3, 71, 45
4, 48896, Note_off_c, 3, 71, 0
4, 48896, Note_on_c, 3, 64, 45
4, 49152, Program_c, 3, 104
4, 49152, Note_off_c, 3, 64, 0
4, 51712, Note_on_c, 3, 63, 45
4, 51968, Note_off_c, 3, 63, 0
4, 51968, Note_on_c, 3, 69, 45
4, 52224, Program_c, 3, 104
4, 52224, Note_off_c, 3, 69, 0
4, 52224, Note_on_c, 3, 70, 45
4, 52480, Note_off_c, 3, 70, 0
4, 52480, Note_on_c, 3, 76, 45
4, 53248, Note_off_c, 3, 76, 0
4, 53248, Note_on_c, 3, 63, 45
4, 53504, Note_off_c, 3, 63, 0
4, 53504, Note_on_c, 3, 69, 45
4, 53760, Note_off_c, 3, 69, 0
4, 53760, Note_on_c, 3, 70, 45
4, 54016, Note_off_c, 3, 70, 0
4, 54016, Note_on_c, 3, 76, 45
4, 54272, Note_off_c, 3, 76, 0
4, 54272, Note_on_c, 3, 80, 45
4, 54955, Note_off_c, 3, 80, 0
4, 54955, Note_on_c, 3, 74, 45
4, 55296, Program_c, 3, 104
4, 55637, Note_off_c, 3, 74, 0
4, 55637, Note_on_c, 3, 72, 45
4, 56320, Note_off_c, 3, 72, 0
4, 56320, Note_on_c, 3, 67, 45
4, 57003, Note_off_c, 3, 67, 0
4, 57003, Note_on_c, 3, 66, 45
4, 57344, Note_off_c, 3, 66, 0
4, 57344, Note_on_c, 3, 80, 45
4, 58027, Note_off_c, 3, 80, 0
4, 58027, Note_on_c, 3, 74, 45
4, 58368, Program_c, 3, 104
4, 58709, Note_off_c, 3, 74, 0
4, 58709, Note_on_c, 3, 72, 45
4, 59392, Note_off_c, 3, 72, 0
4, 60416, Note_on_c, 3, 67, 45
4, 61440, Program_c, 3, 104
4, 61952, Note_off_c, 3, 67, 0
4, 61952, Note_on_c, 3, 66, 45
4, 63488, Note_off_c, 3, 66, 0
4, 63488, Note_on_c, 3, 68, 45
4, 64512, Program_c, 3, 104
4, 67584, Program_c, 3, 104
4, 67584, Note_off_c, 3, 68, 0
4, 69632, Note_on_c, 3, 69, 45
4, 70656, Program_c, 3, 104
4, 70656, Note_off_c, 3, 69, 0
4, 70656, Note_on_c, 3, 72, 45
4, 71680, Note_off_c, 3, 72, 0
4, 71680, Note_on_c, 3, 71, 45
4, 72704, Note_off_c, 3, 71, 0
4, 72704, Note_on_c, 3, 74, 45
4, 73728, Program_c, 3, 104
4, 76800, Program_c, 3, 104
4, 79872, Program_c, 3, 104
4, 79872, Note_off_c, 3, 74, 0
4, 80896, Note_on_c, 3, 61, 45
4, 82944, Program_c, 3, 104
4, 84992, Note_off_c, 3, 61, 0
4, 84992, Note_on_c, 3, 67, 45
4, 86016, Program_c, 3, 104
4, 88064, Note_off_c, 3, 67, 0
4, 88064, Note_on_c, 3, 61, 45
4, 89088, Program_c, 3, 104
4, 90624, Note_off_c, 3, 61, 0
4, 90624, Note_on_c, 3, 71, 45
4, 92160, Program_c, 3, 104
4, 92160, Note_off_c, 3, 71, 0
4, 94208, Note_on_c, 3, 61, 45
4, 95232, Program_c, 3, 104
4, 98304, Program_c, 3, 104
4, 98304, Note_off_c, 3, 61, 0
4, 99840, Note_on_c, 3, 67, 45
4, 100352, Note_off_c, 3, 67, 0
4, 100352, Note_on_c, 3, 67, 45
4, 100693, Note_off_c, 3, 67, 0
4, 100693, Note_on_c, 3, 64, 45
4, 101035, Note_off_c, 3, 64, 0
4, 101035, Note_on_c, 3, 61, 45
4, 101376, Program_c, 3, 104
4, 102912, Note_off_c, 3, 61, 0
4, 102912, Note_on_c, 3, 72, 45
4, 104448, Program_c, 3, 104
4, 107520, Program_c, 3, 104
4, 107520, Note_off_c, 3, 72, 0
4, 107776, Note_on_c, 3, 79, 45
4, 107904, Note_off_c, 3, 79, 0
4, 107904, Note_on_c, 3, 78, 45
4, 108032, Note_off_c, 3, 78, 0
4, 108032, Note_on_c, 3, 75, 45
4, 108288, Note_off_c, 3, 75, 0
4, 108288, Note_on_c, 3, 76, 45
4, 108544, Note_off_c, 3, 76, 0
4, 108544, Note_on_c, 3, 79, 45
4, 108800, Note_off_c, 3, 79, 0
4, 108800, Note_on_c, 3, 72, 45
4, 109056, Note_off_c, 3, 72, 0
4, 109056, Note_on_c, 3, 71, 45
4, 109312, Note_off_c, 3, 71, 0
4, 109312, Note_on_c, 3, 76, 45
4, 109568, Note_off_c, 3, 76, 0
4, 109568, Note_on_c, 3, 70, 45
4, 109824, Note_off_c, 3, 70, 0
4, 109824, Note_on_c, 3, 69, 45
4, 110080, Note_off_c, 3, 69, 0
4, 110592, Program_c, 3, 104
4, 110592, Note_on_c, 3, 63, 45
4, 110848, Note_off_c, 3, 63, 0
4, 110848, Note_on_c, 3, 69, 45
4, 111104, Note_off_c, 3, 69, 0
4, 111104, Note_on_c, 3, 70, 45
4, 111360, Note_off_c, 3, 70, 0
4, 111360, Note_on_c, 3, 76, 45
4, 111616, Note_off_c, 3, 76, 0
4, 111616, Note_on_c, 3, 63, 45
4, 111872, Note_off_c, 3, 63, 0
4, 111872, Note_on_c, 3, 69, 45
4, 112128, Note_off_c, 3, 69, 0
4, 112128, Note_on_c, 3, 70, 45
4, 112384, Note_off_c, 3, 70, 0
4, 112384, Note_on_c, 3, 76, 45
4, 112640, Note_off_c, 3, 76, 0
4, 113664, Program_c, 3, 104
4, 114688, Note_on_c, 3, 63, 45
4, 114944, Note_off_c, 3, 63, 0
4, 114944, Note_on_c, 3, 69, 45
4, 115200, Note_off_c, 3, 69, 0
4, 115200, Note_on_c, 3, 70, 45
4, 115456, Note_off_c, 3, 70, 0
4, 115456, Note_on_c, 3, 75, 45
4, 115712, Note_off_c, 3, 75, 0
4, 115712, Note_on_c, 3, 80, 45
4, 115883, Note_off_c, 3, 80, 0
4, 115883, Note_on_c, 3, 74, 45
4, 116053, Note_off_c, 3, 74, 0
4, 116053, Note_on_c, 3, 72, 45
4, 116224, Note_off_c, 3, 72, 0
4, 116224, Note_on_c, 3, 67, 45
4, 116480, Note_off_c, 3, 67, 0
4, 116480, Note_on_c, 3, 66, 45
4, 116736, Program_c, 3, 104
4, 116736, Note_off_c, 3, 66, 0
4, 116736, Note_on_c, 3, 61, 45
4, 119040, Note_off_c, 3, 61, 0
4, 119040, Note_on_c, 3, 68, 45
4, 119296, Note_off_c, 3, 68, 0
4, 119296, Note_on_c, 3, 76, 45
4, 119552, Note_off_c, 3, 76, 0
4, 119552, Note_on_c, 3, 72, 45
4, 119808, Program_c, 3, 104
4, 119808, Note_off_c, 3, 72, 0
4, 119808, Note_on_c, 3, 67, 45
4, 120491, Note_off_c, 3, 67, 0
4, 120491, Note_on_c, 3, 66, 45
4, 121173, Note_off_c, 3, 66, 0
4, 121173, Note_on_c, 3, 61, 45
4, 122880, Program_c, 3, 104
4, 123904, Note_off_c, 3, 61, 0
4, 125952, Program_c, 3, 104
4, 125952, Note_on_c, 3, 70, 45
4, 129024, Program_c, 3, 104
4, 129024, Note_off_c, 3, 70, 0
4, 132096, Program_c, 3, 104
4, 135168, Program_c, 3, 104
4, 135168, End_track
5, 0, Start_track
5, 0, Title_t, "Hammond Organ"
5, 0, Program_c, 2, 90
5, 0, Control_c, 2, 5, 5
5, 0, Control_c, 2, 12, 12
5, 0, Control_c, 2, 65, 65
5, 0, Note_on_c, 2, 71, 45
5, 2731, Note_off_c, 2, 71, 0
5, 2731, Note_on_c, 2, 74, 45
5, 3072, Control_c, 2, 5, 5
5, 3072, Control_c, 2, 12, 12
5, 3072, Control_c, 2, 65, 65
5, 3072, Note_off_c, 2, 74, 0
5, 3072, Note_on_c, 2, 73, 45
5, 4608, Note_off_c, 2, 73, 0
5, 4608, Note_on_c, 2, 70, 45
5, 6144, Control_c, 2, 5, 5
5, 6144, Control_c, 2, 12, 12
5, 6144, Control_c, 2, 65, 65
5, 6144, Note_off_c, 2, 70, 0
5, 6656, Note_on_c, 2, 71, 45
5, 7680, Note_off_c, 2, 71, 0
5, 7680, Note_on_c, 2, 60, 45
5, 8704, Note_off_c, 2, 60, 0
5, 8704, Note_on_c, 2, 70, 45
5, 9216, Control_c, 2, 5, 5
5, 9216, Control_c, 2, 12, 12
5, 9216, Control_c, 2, 65, 65
5, 9216, Note_off_c, 2, 70, 0
5, 9216, Note_on_c, 2, 69, 45
5, 9728, Note_off_c, 2, 69, 0
5, 9728, Note_on_c, 2, 71, 45
5, 9984, Note_off_c, 2, 71, 0
5, 9984, Note_on_c, 2, 60, 45
5, 10240, Note_off_c, 2, 60, 0
5, 11264, Note_on_c, 2, 71, 45
5, 11776, Note_off_c, 2, 71, 0
5, 12032, Note_on_c, 2, 74, 45
5, 12288, Control_c, 2, 5, 5
5, 12288, Control_c, 2, 12, 12
5, 12288, Control_c, 2, 65, 65
5, 12288, Note_off_c, 2, 74, 0
5, 12288, Note_on_c, 2, 73, 45
5, 14336, Note_off_c, 2, 73, 0
5, 14336, Note_on_c, 2, 70, 45
5, 15360, Control_c, 2, 5, 5
5, 15360, Control_c, 2, 12, 12
5, 15360, Control_c, 2, 65, 65
5, 16384, Note_off_c, 2, 70, 0
5, 16384, Note_on_c, 2, 74, 45
5, 17920, Note_off_c, 2, 74, 0
5, 17920, Note_on_c, 2, 70, 45
5, 18432, Control_c, 2, 5, 5
5, 18432, Control_c, 2, 12, 12
5, 18432, Control_c, 2, 65, 65
5, 19456, Note_off_c, 2, 70, 0
5, 19456, Note_on_c, 2, 75, 45
5, 20480, Note_off_c, 2, 75, 0
5, 20480, Note_on_c, 2, 70, 45
5, 21504, Control_c, 2, 5, 5
5, 21504, Control_c, 2, 12, 12
5, 21504, Control_c, 2, 65, 65
5, 21504, Note_off_c, 2, 70, 0
5, 21504, Note_on_c, 2, 76, 45
5, 22187, Note_off_c, 2, 76, 0
5, 22187, Note_on_c, 2, 70, 45
5, 22869, Note_off_c, 2, 70, 0
5, 22869, Note_on_c, 2, 77, 45
5, 23552, Note_off_c, 2, 77, 0
5, 23552, Note_on_c, 2, 70, 45
5, 24064, Note_off_c, 2, 70, 0
5, 24064, Note_on_c, 2, 78, 45
5, 24320, Note_off_c, 2, 78, 0
5, 24320, Note_on_c, 2, 70, 45
5, 24576, Control_c, 2, 5, 5
5, 24576, Control_c, 2, 12, 12
5, 24576, Control_c, 2, 65, 65
5, 24576, Note_off_c, 2, 70, 0
5, 24576, Note_on_c, 2, 79, 45
5, 24832, Note_off_c, 2, 79, 0
5, 24832, Note_on_c, 2, 68, 45
5, 25088, Note_off_c, 2, 68, 0
5, 25088, Note_on_c, 2, 67, 45
5, 25344, Note_off_c, 2, 67, 0
5, 25344, Note_on_c, 2, 77, 45
5, 25600, Note_off_c, 2, 77, 0
5, 25600, Note_on_c, 2, 76, 45
5, 25856, Note_off_c, 2, 76, 0
5, 25856, Note_on_c, 2, 73, 45
5, 26112, Note_off_c, 2, 73, 0
5, 26112, Note_on_c, 2, 72, 45
5, 26368, Note_off_c, 2, 72, 0
5, 26368, Note_on_c, 2, 63, 45
5, 26624, Note_off_c, 2, 63, 0
5, 26624, Note_on_c, 2, 74, 45
5, 26880, Note_off_c, 2, 74, 0
5, 26880, Note_on_c, 2, 78, 45
5, 27136, Note_off_c, 2, 78, 0
5, 27648, Control_c, 2, 5, 5
5, 27648, Control_c, 2, 12, 12
5, 27648, Control_c, 2, 65, 65
5, 27904, Note_on_c, 2, 72, 45
5, 28160, Note_off_c, 2, 72, 0
5, 28160, Note_on_c, 2, 63, 45
5, 28416, Note_off_c, 2, 63, 0
5, 28416, Note_on_c, 2, 74, 45
5, 28672, Note_off_c, 2, 74, 0
5, 28672, Note_on_c, 2, 77, 45
5, 29696, Note_off_c, 2, 77, 0
5, 29696, Note_on_c, 2, 74, 45
5, 29952, Note_off_c, 2, 74, 0
5, 29952, Note_on_c, 2, 65, 45
5, 30208, Note_off_c, 2, 65, 0
5, 30208, Note_on_c, 2, 75, 45
5, 30464, Note_off_c, 2, 75, 0
5, 30464, Note_on_c, 2, 77, 45
5, 30720, Control_c, 2, 5, 5
5, 30720, Control_c, 2, 12, 12
5, 30720, Control_c, 2, 65, 65
5, 30720, Note_off_c, 2, 77, 0
5, 31061, Note_on_c, 2, 67, 45
5, 31232, Note_off_c, 2, 67, 0
5, 31232, Note_on_c, 2, 69, 45
5, 31403, Note_off_c, 2, 69, 0
5, 31403, Note_on_c, 2, 67, 45
5, 31573, Note_off_c, 2, 67, 0
5, 31573, Note_on_c, 2, 74, 45
5, 31744, Note_off_c, 2, 74, 0
5, 31744, Note_on_c, 2, 80, 45
5, 31915, Note_off_c, 2, 80, 0
5, 31915, Note_on_c, 2, 74, 45
5, 32085, Note_off_c, 2, 74, 0
5, 32085, Note_on_c, 2, 72, 45
5, 32256, Note_off_c, 2, 72, 0
5, 32256, Note_on_c, 2, 67, 45
5, 32597, Note_off_c, 2, 67, 0
5, 32597, Note_on_c, 2, 66, 45
5, 33792, Control_c, 2, 5, 5
5, 33792, Control_c, 2, 12, 12
5, 33792, Control_c, 2, 65, 65
5, 35328, Note_off_c, 2, 66, 0
5, 35328, Note_on_c, 2, 74, 45
5, 35584, Note_off_c, 2, 74, 0
5, 35584, Note_on_c, 2, 72, 45
5, 35840, Note_off_c, 2, 72, 0
5, 35840, Note_on_c, 2, 67, 45
5, 36096, Note_off_c, 2, 67, 0
5, 36096, Note_on_c, 2, 65, 45
5, 36352, Note_off_c, 2, 65, 0
5, 36352, Note_on_c, 2, 77, 45
5, 36608, Note_off_c, 2, 77, 0
5, 36608, Note_on_c, 2, 75, 45
5, 36864, Control_c, 2, 5, 5
5, 36864, Control_c, 2, 12, 12
5, 36864, Control_c, 2, 65, 65
5, 36864, Note_off_c, 2, 75, 0
5, 37547, Note_on_c, 2, 71, 45
5, 38229, Note_off_c, 2, 71, 0
5, 38229, Note_on_c, 2, 71, 45
5, 38912, Note_off_c, 2, 71, 0
5, 38912, Note_on_c, 2, 69, 45
5, 39936, Control_c, 2, 5, 5
5, 39936, Control_c, 2, 12, 12
5, 39936, Control_c, 2, 65, 65
5, 40960, Note_off_c, 2, 69, 0
5, 40960, Note_on_c, 2, 71, 45
5, 42496, Note_off_c, 2, 71, 0
5, 42496, Note_on_c, 2, 68, 45
5, 43008, Control_c, 2, 5, 5
5, 43008, Control_c, 2, 12, 12
5, 43008, Control_c, 2, 65, 65
5, 44032, Note_off_c, 2, 68, 0
5, 44032, Note_on_c, 2, 71, 45
5, 45056, Note_off_c, 2, 71, 0
5, 45056, Note_on_c, 2, 67, 45
5, 46080, Control_c, 2, 5, 5
5, 46080, Control_c, 2, 12, 12
5, 46080, Control_c, 2, 65, 65
5, 46080, Note_off_c, 2, 67, 0
5, 46080, Note_on_c, 2, 71, 45
5, 46763, Note_off_c, 2, 71, 0
5, 46763, Note_on_c, 2, 66, 45
5, 47445, Note_off_c, 2, 66, 0
5, 47445, Note_on_c, 2, 71, 45
5, 48128, Note_off_c, 2, 71, 0
5, 48128, Note_on_c, 2, 65, 45
5, 48640, Note_off_c, 2, 65, 0
5, 48640, Note_on_c, 2, 71, 45
5, 48896, Note_off_c, 2, 71, 0
5, 48896, Note_on_c, 2, 64, 45
5, 49152, Control_c, 2, 5, 5
5, 49152, Control_c, 2, 12, 12
5, 49152, Control_c, 2, 65, 65
5, 49152, Note_off_c, 2, 64, 0
5, 51712, Note_on_c, 2, 63, 45
5, 51968, Note_off_c, 2, 63, 0
5, 51968, Note_on_c, 2, 69, 45
5, 52224, Control_c, 2, 5, 5
5, 52224, Control_c, 2, 12, 12
5, 52224, Control_c, 2, 65, 65
5, 52224, Note_off_c, 2, 69, 0
5, 52224, Note_on_c, 2, 70, 45
5, 52480, Note_off_c, 2, 70, 0
5, 52480, Note_on_c, 2, 76, 45
5, 53248, Note_off_c, 2, 76, 0
5, 53248, Note_on_c, 2, 63, 45
5, 53504, Note_off_c, 2, 63, 0
5, 53504, Note_on_c, 2, 69, 45
5, 53760, Note_off_c, 2, 69, 0
5, 53760, Note_on_c, 2, 70, 45
5, 54016, Note_off_c, 2, 70, 0
5, 54016, Note_on_c, 2, 76, 45
5, 54272, Note_off_c, 2, 76, 0
5, 54272, Note_on_c, 2, 80, 45
5, 54955, Note_off_c, 2, 80, 0
5, 54955, Note_on_c, 2, 74, 45
5, 55296, Control_c, 2, 5, 5
5, 55296, Control_c, 2, 12, 12
5, 55296, Control_c, 2, 65, 65
5, 55637, Note_off_c, 2, 74, 0
5, 55637, Note_on_c, 2, 72, 45
5, 56320, Note_off_c, 2, 72, 0
5, 56320, Note_on_c, 2, 67, 45
5, 57003, Note_off_c, 2, 67, 0
5, 57003, Note_on_c, 2, 66, 45
5, 57344, Note_off_c, 2, 66, 0
5, 57344, Note_on_c, 2, 80, 45
5, 58027, Note_off_c, 2, 80, 0
5, 58027, Note_on_c, 2, 74, 45
5, 58368, Control_c, 2, 5, 5
5, 58368, Control_c, 2, 12, 12
5, 58368, Control_c, 2, 65, 65
5, 58709, Note_off_c, 2, 74, 0
5, 58709, Note_on_c, 2, 72, 45
5, 59392, Note_off_c, 2, 72, 0
5, 60416, Note_on_c, 2, 67, 45
5, 61440, Control_c, 2, 5, 5
5, 61440, Control_c, 2, 12, 12
5, 61440, Control_c, 2, 65, 65
5, 61952, Note_off_c, 2, 67, 0
5, 61952, Note_on_c, 2, 66, 45
5, 63488, Note_off_c, 2, 66, 0
5, 63488, Note_on_c, 2, 68, 45
5, 64512, Control_c, 2, 5, 5
5, 64512, Control_c, 2, 12, 12
5, 64512, Control_c, 2, 65, 65
5, 67584, Control_c, 2, 5, 5
5, 67584, Control_c, 2, 12, 12
5, 67584, Control_c, 2, 65, 65
5, 67584, Note_off_c, 2, 68, 0
5, 69632, Note_on_c, 2, 69, 45
5, 70656, Control_c, 2, 5, 5
5, 70656, Control_c, 2, 12, 12
5, 70656, Control_c, 2, 65, 65
5, 70656, Note_off_c, 2, 69, 0
5, 70656, Note_on_c, 2, 72, 45
5, 71680, Note_off_c, 2, 72, 0
5, 71680, Note_on_c, 2, 71, 45
5, 72704, Note_off_c, 2, 71, 0
5, 72704, Note_on_c, 2, 74, 45
5, 73728, Control_c, 2, 5, 5
5, 73728, Control_c, 2, 12, 12
5, 73728, Control_c, 2, 65, 65
5, 76800, Control_c, 2, 5, 5
5, 76800, Control_c, 2, 12, 12
5, 76800, Control_c, 2, 65, 65
5, 79872, Control_c, 2, 5, 5
5, 79872, Control_c, 2, 12, 12
5, 79872, Control_c, 2, 65, 65
5, 79872, Note_off_c, 2, 74, 0
5, 80896, Note_on_c, 2, 61, 45
5, 82944, Control_c, 2, 5, 5
5, 82944, Control_c, 2, 12, 12
5, 82944, Control_c, 2, 65, 65
5, 84992, Note_off_c, 2, 61, 0
5, 84992, Note_on_c, 2, 67, 45
5, 86016, Control_c, 2, 5, 5
5, 86016, Control_c, 2, 12, 12
5, 86016, Control_c, 2, 65, 65
5, 88064, Note_off_c, 2, 67, 0
5, 88064, Note_on_c, 2, 61, 45
5, 89088, Control_c, 2, 5, 5
5, 89088, Control_c, 2, 12, 12
5, 89088, Control_c, 2, 65, 65
5, 90624, Note_off_c, 2, 61, 0
5, 90624, Note_on_c, 2, 71, 45
5, 92160, Control_c, 2, 5, 5
5, 92160, Control_c, 2, 12, 12
5, 92160, Control_c, 2, 65, 65
5, 92160, Note_off_c, 2, 71, 0
5, 94208, Note_on_c, 2, 61, 45
5, 95232, Control_c, 2, 5, 5
5, 95232, Control_c, 2, 12, 12
5, 95232, Control_c, 2, 65, 65
5, 98304, Control_c, 2, 5, 5
5, 98304, Control_c, 2, 12, 12
5, 98304, Control_c, 2, 65, 65
5, 98304, Note_off_c, 2, 61, 0
5, 99840, Note_on_c, 2, 67, 45
5, 100352, Note_off_c, 2, 67, 0
5, 100352, Note_on_c, 2, 67, 45
5, 100693, Note_off_c, 2, 67, 0
5, 100693, Note_on_c, 2, 64, 45
5, 101035, Note_off_c, 2, 64, 0
5, 101035, Note_on_c, 2, 61, 45
5, 101376, Control_c, 2, 5, 5
5, 101376, Control_c, 2, 12, 12
5, 101376, Control_c, 2, 65, 65
5, 102912, Note_off_c, 2, 61, 0
5, 102912, Note_on_c, 2, 72, 45
5, 104448, Control_c, 2, 5, 5
5, 104448, Control_c, 2, 12, 12
5, 104448, Control_c, 2, 65, 65
5, 107520, Control_c, 2, 5, 5
5, 107520, Control_c, 2, 12, 12
5, 107520, Control_c, 2, 65, 65
5, 107520, Note_off_c, 2, 72, 0
5, 107776, Note_on_c, 2, 79, 45
5, 107904, Note_off_c, 2, 79, 0
5, 107904, Note_on_c, 2, 78, 45
5, 108032, Note_off_c, 2, 78, 0
5, 108032, Note_on_c, 2, 75, 45
5, 108288, Note_off_c, 2, 75, 0
5, 108288, Note_on_c, 2, 76, 45
5, 108544, Note_off_c, 2, 76, 0
5, 108544, Note_on_c, 2, 79, 45
5, 108800, Note_off_c, 2, 79, 0
5, 108800, Note_on_c, 2, 72, 45
5, 109056, Note_off_c, 2, 72, 0
5, 109056, Note_on_c, 2, 71, 45
5, 109312, Note_off_c, 2, 71, 0
5, 109312, Note_on_c, 2, 76, 45
5, 109568, Note_off_c, 2, 76, 0
5, 109568, Note_on_c, 2, 70, 45
5, 109824, Note_off_c, 2, 70, 0
5, 109824, Note_on_c, 2, 69, 45
5, 110080, Note_off_c, 2, 69, 0
5, 110592, Control_c, 2, 5, 5
5, 110592, Control_c, 2, 12, 12
5, 110592, Control_c, 2, 65, 65
5, 110592, Note_on_c, 2, 63, 45
5, 110848, Note_off_c, 2, 63, 0
5, 110848, Note_on_c, 2, 69, 45
5, 111104, Note_off_c, 2, 69, 0
5, 111104, Note_on_c, 2, 70, 45
5, 111360, Note_off_c, 2, 70, 0
5, 111360, Note_on_c, 2, 76, 45
5, 111616, Note_off_c, 2, 76, 0
5, 111616, Note_on_c, 2, 63, 45
5, 111872, Note_off_c, 2, 63, 0
5, 111872, Note_on_c, 2, 69, 45
5, 112128, Note_off_c, 2, 69, 0
5, 112128, Note_on_c, 2, 70, 45
5, 112384, Note_off_c, 2, 70, 0
5, 112384, Note_on_c, 2, 76, 45
5, 112640, Note_off_c, 2, 76, 0
5, 113664, Control_c, 2, 5, 5
5, 113664, Control_c, 2, 12, 12
5, 113664, Control_c, 2, 65, 65
5, 114688, Note_on_c, 2, 63, 45
5, 114944, Note_off_c, 2, 63, 0
5, 114944, Note_on_c, 2, 69, 45
5, 115200, Note_off_c, 2, 69, 0
5, 115200, Note_on_c, 2, 70, 45
5, 115456, Note_off_c, 2, 70, 0
5, 115456, Note_on_c, 2, 75, 45
5, 115712, Note_off_c, 2, 75, 0
5, 115712, Note_on_c, 2, 80, 45
5, 115883, Note_off_c, 2, 80, 0
5, 115883, Note_on_c, 2, 74, 45
5, 116053, Note_off_c, 2, 74, 0
5, 116053, Note_on_c, 2, 72, 45
5, 116224, Note_off_c, 2, 72, 0
5, 116224, Note_on_c, 2, 67, 45
5, 116480, Note_off_c, 2, 67, 0
5, 116480, Note_on_c, 2, 66, 45
5, 116736, Control_c, 2, 5, 5
5, 116736, Control_c, 2, 12, 12
5, 116736, Control_c, 2, 65, 65
5, 116736, Note_off_c, 2, 66, 0
5, 116736, Note_on_c, 2, 61, 45
5, 119040, Note_off_c, 2, 61, 0
5, 119040, Note_on_c, 2, 68, 45
5, 119296, Note_off_c, 2, 68, 0
5, 119296, Note_on_c, 2, 76, 45
5, 119552, Note_off_c, 2, 76, 0
5, 119552, Note_on_c, 2, 72, 45
5, 119808, Control_c, 2, 5, 5
5, 119808, Control_c, 2, 12, 12
5, 119808, Control_c, 2, 65, 65
5, 119808, Note_off_c, 2, 72, 0
5, 119808, Note_on_c, 2, 67, 45
5, 120491, Note_off_c, 2, 67, 0
5, 120491, Note_on_c, 2, 66, 45
5, 121173, Note_off_c, 2, 66, 0
5, 121173, Note_on_c, 2, 61, 45
5, 122880, Control_c, 2, 5, 5
5, 122880, Control_c, 2, 12, 12
5, 122880, Control_c, 2, 65, 65
5, 123904, Note_off_c, 2, 61, 0
5, 125952, Control_c, 2, 5, 5
5, 125952, Control_c, 2, 12, 12
5, 125952, Control_c, 2, 65, 65
5, 125952, Note_on_c, 2, 70, 45
5, 129024, Control_c, 2, 5, 5
5, 129024, Control_c, 2, 12, 12
5, 129024, Control_c, 2, 65, 65
5, 129024, Note_off_c, 2, 70, 0
5, 132096, Control_c, 2, 5, 5
5, 132096, Control_c, 2, 12, 12
5, 132096, Control_c, 2, 65, 65
5, 135168, Control_c, 2, 5, 5
5, 135168, Control_c, 2, 12, 12
5, 135168, Control_c, 2, 65, 65
5, 135168, End_track
6, 0, Start_track
6, 0, Title_t, "Mallet Perc"
6, 0, Program_c, 0, 12
6, 0, Program_c, 0, 10
6, 0, Note_on_c, 0, 71, 70
6, 2731, Note_off_c, 0, 71, 0
6, 2731, Note_on_c, 0, 74, 70
6, 3072, Program_c, 0, 10
6, 3072, Note_off_c, 0, 74, 0
6, 3072, Note_on_c, 0, 73, 70
6, 4608, Note_off_c, 0, 73, 0
6, 4608, Note_on_c, 0, 70, 70
6, 6144, Program_c, 0, 10
6, 6144, Note_off_c, 0, 70, 0
6, 6656, Note_on_c, 0, 71, 70
6, 7680, Note_off_c, 0, 71, 0
6, 7680, Note_on_c, 0, 60, 70
6, 8704, Note_off_c, 0, 60, 0
6, 8704, Note_on_c, 0, 70, 70
6, 9216, Program_c, 0, 10
6, 9216, Note_off_c, 0, 70, 0
6, 9216, Note_on_c, 0, 69, 70
6, 9728, Note_off_c, 0, 69, 0
6, 9728, Note_on_c, 0, 71, 70
6, 9984, Note_off_c, 0, 71, 0
6, 9984, Note_on_c, 0, 60, 70
6, 10240, Note_off_c, 0, 60, 0
6, 11264, Note_on_c, 0, 71, 70
6, 11776, Note_off_c, 0, 71, 0
6, 12032, Note_on_c, 0, 74, 70
6, 12288, Program_c, 0, 10
6, 12288, Note_off_c, 0, 74, 0
6, 12288, Note_on_c, 0, 73, 70
6, 14336, Note_off_c, 0, 73, 0
6, 14336, Note_on_c, 0, 70, 70
6, 15360, Program_c, 0, 10
6, 16384, Note_off_c, 0, 70, 0
6, 16384, Note_on_c, 0, 74, 70
6, 17920, Note_off_c, 0, 74, 0
6, 17920, Note_on_c, 0, 70, 70
6, 18432, Program_c, 0, 10
6, 19456, Note_off_c, 0, 70, 0
6, 19456, Note_on_c, 0, 75, 70
6, 20480, Note_off_c, 0, 75, 0
6, 20480, Note_on_c, 0, 70, 70
6, 21504, Program_c, 0, 10
6, 21504, Note_off_c, 0, 70, 0
6, 21504, Note_on_c, 0, 76, 70
6, 22187, Note_off_c, 0, 76, 0
6, 22187, Note_on_c, 0, 70, 70
6, 22869, Note_off_c, 0, 70, 0
6, 22869, Note_on_c, 0, 77, 70
6, 23552, Note_off_c, 0, 77, 0
6, 23552, Note_on_c, 0, 70, 70
6, 24064, Note_off_c, 0, 70, 0
6, 24064, Note_on_c, 0, 78, 70
6, 24320, Note_off_c, 0, 78, 0
6, 24320, Note_on_c, 0, 70, 70
6, 24576, Program_c, 0, 10
6, 24576, Note_off_c, 0, 70, 0
6, 24576, Note_on_c, 0, 79, 70
6, 24832, Note_off_c, 0, 79, 0
6, 24832, Note_on_c, 0, 68, 70
6, 25088, Note_off_c, 0, 68, 0
6, 25088, Note_on_c, 0, 67, 70
6, 25344, Note_off_c, 0, 67, 0
6, 25344, Note_on_c, 0, 77, 70
6, 25600, Note_off_c, 0, 77, 0
6, 25600, Note_on_c, 0, 76, 70
6, 25856, Note_off_c, 0, 76, 0
6, 25856, Note_on_c, 0, 73, 70
6, 26112, Note_off_c, 0, 73, 0
6, 26112, Note_on_c, 0, 72, 70
6, 26368, Note_off_c, 0, 72, 0
6, 26368, Note_on_c, 0, 63, 70
6, 26624, Note_off_c, 0, 63, 0
6, 26624, Note_on_c, 0, 74, 70
6, 26880, Note_off_c, 0, 74, 0
6, 26880, Note_on_c, 0, 78, 70
6, 27136, Note_off_c, 0, 78, 0
6, 27648, Program_c, 0, 10
6, 27904, Note_on_c, 0, 72, 70
6, 28160, Note_off_c, 0, 72, 0
6, 28160, Note_on_c, 0, 63, 70
6, 28416, Note_off_c, 0, 63, 0
6, 28416, Note_on_c, 0, 74, 70
6, 28672, Note_off_c, 0, 74, 0
6, 28672, Note_on_c, 0, 77, 70
6, 29696, Note_off_c, 0, 77, 0
6, 29696, Note_on_c, 0, 74, 70
6, 29952, Note_off_c, 0, 74, 0
6, 29952, Note_on_c, 0, 65, 70
6, 30208, Note_off_c, 0, 65, 0
6, 30208, Note_on_c, 0, 75, 70
6, 30464, Note_off_c, 0, 75, 0
6, 30464, Note_on_c, 0, 77, 70
6, 30720, Program_c, 0, 10
6, 30720, Note_off_c, 0, 77, 0
6, 31061, Note_on_c, 0, 67, 70
6, 31232, Note_off_c, 0, 67, 0
6, 31232, Note_on_c, 0, 69, 70
6, 31403, Note_off_c, 0, 69, 0
6, 31403, Note_on_c, 0, 67, 70
6, 31573, Note_off_c, 0, 67, 0
6, 31573, Note_on_c, 0, 74, 70
6, 31744, Note_off_c, 0, 74, 0
6, 31744, Note_on_c, 0, 80, 70
6, 31915, Note_off_c, 0, 80, 0
6, 31915, Note_on_c, 0, 74, 70
6, 32085, Note_off_c, 0, 74, 0
6, 32085, Note_on_c, 0, 72, 70
6, 32256, Note_off_c, 0, 72, 0
6, 32256, Note_on_c, 0, 67, 70
6, 32597, Note_off_c, 0, 67, 0
6, 32597, Note_on_c, 0, 66, 70
6, 33792, Program_c, 0, 10
6, 35328, Note_off_c, 0, 66, 0
6, 35328, Note_on_c, 0, 74, 70
6, 35584, Note_off_c, 0, 74, 0
6, 35584, Note_on_c, 0, 72, 70
6, 35840, Note_off_c, 0, 72, 0
6, 35840, Note_on_c, 0, 67, 70
6, 36096, Note_off_c, 0, 67, 0
6, 36096, Note_on_c, 0, 65, 70
6, 36352, Note_off_c, 0, 65, 0
6, 36352, Note_on_c, 0, 77, 70
6, 36608, Note_off_c, 0, 77, 0
6, 36608, Note_on_c, 0, 75, 70
6, 36864, Program_c, 0, 10
6, 36864, Note_off_c, 0, 75, 0
6, 37547, Note_on_c, 0, 71, 70
6, 38229, Note_off_c, 0, 71, 0
6, 38229, Note_on_c, 0, 71, 70
6, 38912, Note_off_c, 0, 71, 0
6, 38912, Note_on_c, 0, 69, 70
6, 39936, Program_c, 0, 10
6, 40960, Note_off_c, 0, 69, 0
6, 40960, Note_on_c, 0, 71, 70
6, 42496, Note_off_c, 0, 71, 0
6, 42496, Note_on_c, 0, 68, 70
6, 43008, Program_c, 0, 10
6, 44032, Note_off_c, 0, 68, 0
6, 44032, Note_on_c, 0, 71, 70
6, 45056, Note_off_c, 0, 71, 0
6, 45056, Note_on_c, 0, 67, 70
6, 46080, Program_c, 0, 10
6, 46080, Note_off_c, 0, 67, 0
6, 46080, Note_on_c, 0, 71, 70
6, 46763, Note_off_c, 0, 71, 0
6, 46763, Note_on_c, 0, 66, 70
6, 47445, Note_off_c, 0, 66, 0
6, 47445, Note_on_c, 0, 71, 70
6, 48128, Note_off_c, 0, 71, 0
6, 48128, Note_on_c, 0, 65, 70
6, 48640, Note_off_c, 0, 65, 0
6, 48640, Note_on_c, 0, 71, 70
6, 48896, Note_off_c, 0, 71, 0
6, 48896, Note_on_c, 0, 64, 70
6, 49152, Program_c, 0, 10
6, 49152, Note_off_c, 0, 64, 0
6, 51712, Note_on_c, 0, 63, 70
6, 51968, Note_off_c, 0, 63, 0
6, 51968, Note_on_c, 0, 69, 70
6, 52224, Program_c, 0, 10
6, 52224, Note_off_c, 0, 69, 0
6, 52224, Note_on_c, 0, 70, 70
6, 52480, Note_off_c, 0, 70, 0
6, 52480, Note_on_c, 0, 76, 70
6, 53248, Note_off_c, 0, 76, 0
6, 53248, Note_on_c, 0, 63, 70
6, 53504, Note_off_c, 0, 63, 0
6, 53504, Note_on_c, 0, 69, 70
6, 53760, Note_off_c, 0, 69, 0
6, 53760, Note_on_c, 0, 70, 70
6, 54016, Note_off_c, 0, 70, 0
6, 54016, Note_on_c, 0, 76, 70
6, 54272, Note_off_c, 0, 76, 0
6, 54272, Note_on_c, 0, 80, 70
6, 54955, Note_off_c, 0, 80, 0
6, 54955, Note_on_c, 0, 74, 70
6, 55296, Program_c, 0, 10
6, 55637, Note_off_c, 0, 74, 0
6, 55637, Note_on_c, 0, 72, 70
6, 56320, Note_off_c, 0, 72, 0
6, 56320, Note_on_c, 0, 67, 70
6, 57003, Note_off_c, 0, 67, 0
6, 57003, Note_on_c, 0, 66, 70
6, 57344, Note_off_c, 0, 66, 0
6, 57344, Note_on_c, 0, 80, 70
6, 58027, Note_off_c, 0, 80, 0
6, 58027, Note_on_c, 0, 74, 70
6, 58368, Program_c, 0, 10
6, 58709, Note_off_c, 0, 74, 0
6, 58709, Note_on_c, 0, 72, 70
6, 59392, Note_off_c, 0, 72, 0
6, 60416, Note_on_c, 0, 67, 70
6, 61440, Program_c, 0, 10
6, 61952, Note_off_c, 0, 67, 0
6, 61952, Note_on_c, 0, 66, 70
6, 63488, Note_off_c, 0, 66, 0
6, 63488, Note_on_c, 0, 68, 70
6, 64512, Program_c, 0, 10
6, 67584, Program_c, 0, 10
6, 67584, Note_off_c, 0, 68, 0
6, 69632, Note_on_c, 0, 69, 70
6, 70656, Program_c, 0, 10
6, 70656, Note_off_c, 0, 69, 0
6, 70656, Note_on_c, 0, 72, 70
6, 71680, Note_off_c, 0, 72, 0
6, 71680, Note_on_c, 0, 71, 70
6, 72704, Note_off_c, 0, 71, 0
6, 72704, Note_on_c, 0, 74, 70
6, 73728, Program_c, 0, 10
6, 76800, Program_c, 0, 10
6, 79872, Program_c, 0, 10
6, 79872, Note_off_c, 0, 74, 0
6, 80896, Note_on_c, 0, 61, 70
6, 82944, Program_c, 0, 10
6, 84992, Note_off_c, 0, 61, 0
6, 84992, Note_on_c, 0, 67, 70
6, 86016, Program_c, 0, 10
6, 88064, Note_off_c, 0, 67, 0
6, 88064, Note_on_c, 0, 61, 70
6, 89088, Program_c, 0, 10
6, 90624, Note_off_c, 0, 61, 0
6, 90624, Note_on_c, 0, 71, 70
6, 92160, Program_c, 0, 10
6, 92160, Note_off_c, 0, 71, 0
6, 94208, Note_on_c, 0, 61, 70
6, 95232, Program_c, 0, 10
6, 98304, Program_c, 0, 10
6, 98304, Note_off_c, 0, 61, 0
6, 99840, Note_on_c, 0, 67, 70
6, 100352, Note_off_c, 0, 67, 0
6, 100352, Note_on_c, 0, 67, 70
6, 100693, Note_off_c, 0, 67, 0
6, 100693, Note_on_c, 0, 64, 70
6, 101035, Note_off_c, 0, 64, 0
6, 101035, Note_on_c, 0, 61, 70
6, 101376, Program_c, 0, 10
6, 102912, Note_off_c, 0, 61, 0
6, 102912, Note_on_c, 0, 72, 70
6, 104448, Program_c, 0, 10
6, 107520, Program_c, 0, 10
6, 107520, Note_off_c, 0, 72, 0
6, 107776, Note_on_c, 0, 79, 70
6, 107904, Note_off_c, 0, 79, 0
6, 107904, Note_on_c, 0, 78, 70
6, 108032, Note_off_c, 0, 78, 0
6, 108032, Note_on_c, 0, 75, 70
6, 108288, Note_off_c, 0, 75, 0
6, 108288, Note_on_c, 0, 76, 70
6, 108544, Note_off_c, 0, 76, 0
6, 108544, Note_on_c, 0, 79, 70
6, 108800, Note_off_c, 0, 79, 0
6, 108800, Note_on_c, 0, 72, 70
6, 109056, Note_off_c, 0, 72, 0
6, 109056, Note_on_c, 0, 71, 70
6, 109312, Note_off_c, 0, 71, 0
6, 109312, Note_on_c, 0, 76, 70
6, 109568, Note_off_c, 0, 76, 0
6, 109568, Note_on_c, 0, 70, 70
6, 109824, Note_off_c, 0, 70, 0
6, 109824, Note_on_c, 0, 69, 70
6, 110080, Note_off_c, 0, 69, 0
6, 110592, Program_c, 0, 10
6, 110592, Note_on_c, 0, 63, 70
6, 110848, Note_off_c, 0, 63, 0
6, 110848, Note_on_c, 0, 69, 70
6, 111104, Note_off_c, 0, 69, 0
6, 111104, Note_on_c, 0, 70, 70
6, 111360, Note_off_c, 0, 70, 0
6, 111360, Note_on_c, 0, 76, 70
6, 111616, Note_off_c, 0, 76, 0
6, 111616, Note_on_c, 0, 63, 70
6, 111872, Note_off_c, 0, 63, 0
6, 111872, Note_on_c, 0, 69, 70
6, 112128, Note_off_c, 0, 69, 0
6, 112128, Note_on_c, 0, 70, 70
6, 112384, Note_off_c, 0, 70, 0
6, 112384, Note_on_c, 0, 76, 70
6, 112640, Note_off_c, 0, 76, 0
6, 113664, Program_c, 0, 10
6, 114688, Note_on_c, 0, 63, 70
6, 114944, Note_off_c, 0, 63, 0
6, 114944, Note_on_c, 0, 69, 70
6, 115200, Note_off_c, 0, 69, 0
6, 115200, Note_on_c, 0, 70, 70
6, 115456, Note_off_c, 0, 70, 0
6, 115456, Note_on_c, 0, 75, 70
6, 115712, Note_off_c, 0, 75, 0
6, 115712, Note_on_c, 0, 80, 70
6, 115883, Note_off_c, 0, 80, 0
6, 115883, Note_on_c, 0, 74, 70
6, 116053, Note_off_c, 0, 74, 0
6, 116053, Note_on_c, 0, 72, 70
6, 116224, Note_off_c, 0, 72, 0
6, 116224, Note_on_c, 0, 67, 70
6, 116480, Note_off_c, 0, 67, 0
6, 116480, Note_on_c, 0, 66, 70
6, 116736, Program_c, 0, 10
6, 116736, Note_off_c, 0, 66, 0
6, 116736, Note_on_c, 0, 61, 70
6, 119040, Note_off_c, 0, 61, 0
6, 119040, Note_on_c, 0, 68, 70
6, 119296, Note_off_c, 0, 68, 0
6, 119296, Note_on_c, 0, 76, 70
6, 119552, Note_off_c, 0, 76, 0
6, 119552, Note_on_c, 0, 72, 70
6, 119808, Program_c, 0, 10
6, 119808, Note_off_c, 0, 72, 0
6, 119808, Note_on_c, 0, 67, 70
6, 120491, Note_off_c, 0, 67, 0
6, 120491, Note_on_c, 0, 66, 70
6, 121173, Note_off_c, 0, 66, 0
6, 121173, Note_on_c, 0, 61, 70
6, 122880, Program_c, 0, 10
6, 123904, Note_off_c, 0, 61, 0
6, 125952, Program_c, 0, 10
6, 125952, Note_on_c, 0, 70, 70
6, 129024, Program_c, 0, 10
6, 129024, Note_off_c, 0, 70, 0
6, 132096, Program_c, 0, 10
6, 135168, End_track
7, 0, Start_track
7, 0, Title_t, "Drums"
7, 0, Program_c, 9, 9
7, 0, Note_on_c, 9, 42, 70
7, 0, Note_on_c, 9, 36, 110
7, 0, Note_on_c, 9, 38, 90
7, 1024, Note_off_c, 9, 42, 0
7, 1024, Note_on_c, 9, 42, 70
7, 1024, Note_off_c, 9, 36, 0
7, 1024, Note_off_c, 9, 38, 0
7, 1024, Note_on_c, 9, 36, 110
7, 1024, Note_on_c, 9, 38, 90
7, 1536, Note_off_c, 9, 36, 0
7, 1536, Note_off_c, 9, 38, 0
7, 1536, Note_on_c, 9, 35, 110
7, 2048, Note_off_c, 9, 42, 0
7, 2048, Note_on_c, 9, 42, 70
7, 2048, Note_off_c, 9, 35, 0
7, 2048, Note_on_c, 9, 36, 110
7, 2048, Note_on_c, 9, 38, 90
7, 3072, Note_off_c, 9, 42, 0
7, 3072, Note_off_c, 9, 36, 0
7, 3072, Note_off_c, 9, 38, 0
7, 3072, Note_on_c, 9, 42, 70
7, 3072, Note_on_c, 9, 36, 110
7, 3072, Note_on_c, 9, 38, 90
7, 4096, Note_off_c, 9, 42, 0
7, 4096, Note_on_c, 9, 42, 70
7, 4096, Note_off_c, 9, 36, 0
7, 4096, Note_off_c, 9, 38, 0
7, 4096, Note_on_c, 9, 36, 110
7, 4096, Note_on_c, 9, 38, 90
7, 4608, Note_off_c, 9, 36, 0
7, 4608, Note_off_c, 9, 38, 0
7, 4608, Note_on_c, 9, 35, 110
7, 5120, Note_off_c, 9, 42, 0
7, 5120, Note_on_c, 9, 42, 70
7, 5120, Note_off_c, 9, 35, 0
7, 5120, Note_on_c, 9, 36, 110
7, 5120, Note_on_c, 9, 38, 90
7, 6144, Note_off_c, 9, 42, 0
7, 6144, Note_off_c, 9, 36, 0
7, 6144, Note_off_c, 9, 38, 0
7, 6144, Note_on_c, 9, 42, 70
7, 6144, Note_on_c, 9, 36, 110
7, 6144, Note_on_c, 9, 38, 90
7, 7168, Note_off_c, 9, 42, 0
7, 7168, Note_on_c, 9, 42, 70
7, 7168, Note_off_c, 9, 36, 0
7, 7168, Note_off_c, 9, 38, 0
7, 7168, Note_on_c, 9, 36, 110
7, 7168, Note_on_c, 9, 38, 90
7, 7680, Note_off_c, 9, 36, 0
7, 7680, Note_off_c, 9, 38, 0
7, 7680, Note_on_c, 9, 35, 110
7, 8192, Note_off_c, 9, 42, 0
7, 8192, Note_on_c, 9, 42, 70
7, 8192, Note_off_c, 9, 35, 0
7, 8192, Note_on_c, 9, 36, 110
7, 8192, Note_on_c, 9, 38, 90
7, 9216, Note_off_c, 9, 42, 0
7, 9216, Note_off_c, 9, 36, 0
7, 9216, Note_off_c, 9, 38, 0
7, 9216, Note_on_c, 9, 42, 70
7, 9216, Note_on_c, 9, 36, 110
7, 9216, Note_on_c, 9, 38, 90
7, 10240, Note_off_c, 9, 42, 0
7, 10240, Note_on_c, 9, 42, 70
7, 10240, Note_off_c, 9, 36, 0
7, 10240, Note_off_c, 9, 38, 0
7, 10240, Note_on_c, 9, 36, 110
7, 10240, Note_on_c, 9, 38, 90
7, 10752, Note_off_c, 9, 36, 0
7, 10752, Note_off_c, 9, 38, 0
7, 10752, Note_on_c, 9, 35, 110
7, 11264, Note_off_c, 9, 42, 0
7, 11264, Note_on_c, 9, 42, 70
7, 11264, Note_off_c, 9, 35, 0
7, 11264, Note_on_c, 9, 36, 110
7, 11264, Note_on_c, 9, 38, 90
7, 12288, Note_off_c, 9, 42, 0
7, 12288, Note_off_c, 9, 36, 0
7, 12288, Note_off_c, 9, 38, 0
7, 12288, Note_on_c, 9, 42, 70
7, 12288, Note_on_c, 9, 36, 110
7, 12288, Note_on_c, 9, 38, 90
7, 13312, Note_off_c, 9, 42, 0
7, 13312, Note_on_c, 9, 42, 70
7, 13312, Note_off_c, 9, 36, 0
7, 13312, Note_off_c, 9, 38, 0
7, 13312, Note_on_c, 9, 36, 110
7, 13312, Note_on_c, 9, 38, 90
7, 13824, Note_off_c, 9, 36, 0
7, 13824, Note_off_c, 9, 38, 0
7, 13824, Note_on_c, 9, 35, 110
7, 14336, Note_off_c, 9, 42, 0
7, 14336, Note_on_c, 9, 42, 70
7, 14336, Note_off_c, 9, 35, 0
7, 14336, Note_on_c, 9, 36, 110
7, 14336, Note_on_c, 9, 38, 90
7, 15360, Note_off_c, 9, 42, 0
7, 15360, Note_off_c, 9, 36, 0
7, 15360, Note_off_c, 9, 38, 0
7, 15360, Note_on_c, 9, 42, 70
7, 15360, Note_on_c, 9, 36, 110
7, 15360, Note_on_c, 9, 38, 90
7, 16384, Note_off_c, 9, 42, 0
7, 16384, Note_on_c, 9, 42, 70
7, 16384, Note_off_c, 9, 36, 0
7, 16384, Note_off_c, 9, 38, 0
7, 16384, Note_on_c, 9, 36, 110
7, 16384, Note_on_c, 9, 38, 90
7, 16896, Note_off_c, 9, 36, 0
7, 16896, Note_off_c, 9, 38, 0
7, 16896, Note_on_c, 9, 35, 110
7, 17408, Note_off_c, 9, 42, 0
7, 17408, Note_on_c, 9, 42, 70
7, 17408, Note_off_c, 9, 35, 0
7, 17408, Note_on_c, 9, 36, 110
7, 17408, Note_on_c, 9, 38, 90
7, 18432, Note_off_c, 9, 42, 0
7, 18432, Note_off_c, 9, 36, 0
7, 18432, Note_off_c, 9, 38, 0
7, 18432, Note_on_c, 9, 42, 70
7, 18432, Note_on_c, 9, 36, 110
7, 18432, Note_on_c, 9, 38, 90
7, 19456, Note_off_c, 9, 42, 0
7, 19456, Note_on_c, 9, 42, 70
7, 19456, Note_off_c, 9, 36, 0
7, 19456, Note_off_c, 9, 38, 0
7, 19456, Note_on_c, 9, 36, 110
7, 19456, Note_on_c, 9, 38, 90
7, 19968, Note_off_c, 9, 36, 0
7, 19968, Note_off_c, 9, 38, 0
7, 19968, Note_on_c, 9, 35, 110
7, 20480, Note_off_c, 9, 42, 0
7, 20480, Note_on_c, 9, 42, 70
7, 20480, Note_off_c, 9, 35, 0
7, 20480, Note_on_c, 9, 36, 110
7, 20480, Note_on_c, 9, 38, 90
7, 21504, Note_off_c, 9, 42, 0
7, 21504, Note_off_c, 9, 36, 0
7, 21504, Note_off_c, 9, 38, 0
7, 21504, Note_on_c, 9, 42, 70
7, 21504, Note_on_c, 9, 36, 110
7, 21504, Note_on_c, 9, 38, 90
7, 22528, Note_off_c, 9, 42, 0
7, 22528, Note_on_c, 9, 42, 70
7, 22528, Note_off_c, 9, 36, 0
7, 22528, Note_off_c, 9, 38, 0
7, 22528, Note_on_c, 9, 36, 110
7, 22528, Note_on_c, 9, 38, 90
7, 23040, Note_off_c, 9, 36, 0
7, 23040, Note_off_c, 9, 38, 0
7, 23040, Note_on_c, 9, 35, 110
7, 23552, Note_off_c, 9, 42, 0
7, 23552, Note_on_c, 9, 42, 70
7, 23552, Note_off_c, 9, 35, 0
7, 23552, Note_on_c, 9, 36, 110
7, 23552, Note_on_c, 9, 38, 90
7, 24576, Note_off_c, 9, 42, 0
7, 24576, Note_off_c, 9, 36, 0
7, 24576, Note_off_c, 9, 38, 0
7, 24576, Note_on_c, 9, 42, 70
7, 24576, Note_on_c, 9, 36, 110
7, 24576, Note_on_c, 9, 38, 90
7, 25600, Note_off_c, 9, 42, 0
7, 25600, Note_on_c, 9, 42, 70
7, 25600, Note_off_c, 9, 36, 0
7, 25600, Note_off_c, 9, 38, 0
7, 25600, Note_on_c, 9, 36, 110
7, 25600, Note_on_c, 9, 38, 90
7, 26112, Note_off_c, 9, 36, 0
7, 26112, Note_off_c, 9, 38, 0
7, 26112, Note_on_c, 9, 35, 110
7, 26624, Note_off_c, 9, 42, 0
7, 26624, Note_on_c, 9, 42, 70
7, 26624, Note_off_c, 9, 35, 0
7, 26624, Note_on_c, 9, 36, 110
7, 26624, Note_on_c, 9, 38, 90
7, 27648, Note_off_c, 9, 42, 0
7, 27648, Note_off_c, 9, 36, 0
7, 27648, Note_off_c, 9, 38, 0
7, 27648, Note_on_c, 9, 42, 70
7, 27648, Note_on_c, 9, 36, 110
7, 27648, Note_on_c, 9, 38, 90
7, 28672, Note_off_c, 9, 42, 0
7, 28672, Note_on_c, 9, 42, 70
7, 28672, Note_off_c, 9, 36, 0
7, 28672, Note_off_c, 9, 38, 0
7, 28672, Note_on_c, 9, 36, 110
7, 28672, Note_on_c, 9, 38, 90
7, 29184, Note_off_c, 9, 36, 0
7, 29184, Note_off_c, 9, 38, 0
7, 29184, Note_on_c, 9, 35, 110
7, 29696, Note_off_c, 9, 42, 0
7, 29696, Note_on_c, 9, 42, 70
7, 29696, Note_off_c, 9, 35, 0
7, 29696, Note_on_c, 9, 36, 110
7, 29696, Note_on_c, 9, 38, 90
7, 30720, Note_off_c, 9, 42, 0
7, 30720, Note_off_c, 9, 36, 0
7, 30720, Note_off_c, 9, 38, 0
7, 30720, Note_on_c, 9, 42, 70
7, 30720, Note_on_c, 9, 36, 110
7, 30720, Note_on_c, 9, 38, 90
7, 31744, Note_off_c, 9, 42, 0
7, 31744, Note_on_c, 9, 42, 70
7, 31744, Note_off_c, 9, 36, 0
7, 31744, Note_off_c, 9, 38, 0
7, 31744, Note_on_c, 9, 36, 110
7, 31744, Note_on_c, 9, 38, 90
7, 32256, Note_off_c, 9, 36, 0
7, 32256, Note_off_c, 9, 38, 0
7, 32256, Note_on_c, 9, 35, 110
7, 32768, Note_off_c, 9, 42, 0
7, 32768, Note_on_c, 9, 42, 70
7, 32768, Note_off_c, 9, 35, 0
7, 32768, Note_on_c, 9, 36, 110
7, 32768, Note_on_c, 9, 38, 90
7, 33792, Note_off_c, 9, 42, 0
7, 33792, Note_off_c, 9, 36, 0
7, 33792, Note_off_c, 9, 38, 0
7, 33792, Note_on_c, 9, 42, 70
7, 33792, Note_on_c, 9, 36, 110
7, 33792, Note_on_c, 9, 38, 90
7, 34816, Note_off_c, 9, 42, 0
7, 34816, Note_on_c, 9, 42, 70
7, 34816, Note_off_c, 9, 36, 0
7, 34816, Note_off_c, 9, 38, 0
7, 34816, Note_on_c, 9, 36, 110
7, 34816, Note_on_c, 9, 38, 90
7, 35328, Note_off_c, 9, 36, 0
7, 35328, Note_off_c, 9, 38, 0
7, 35328, Note_on_c, 9, 35, 110
7, 35840, Note_off_c, 9, 42, 0
7, 35840, Note_on_c, 9, 42, 70
7, 35840, Note_off_c, 9, 35, 0
7, 35840, Note_on_c, 9, 36, 110
7, 35840, Note_on_c, 9, 38, 90
7, 36864, Note_off_c, 9, 42, 0
7, 36864, Note_off_c, 9, 36, 0
7, 36864, Note_off_c, 9, 38, 0
7, 36864, Note_on_c, 9, 42, 70
7, 36864, Note_on_c, 9, 36, 110
7, 36864, Note_on_c, 9, 38, 90
7, 37888, Note_off_c, 9, 42, 0
7, 37888, Note_on_c, 9, 42, 70
7, 37888, Note_off_c, 9, 36, 0
7, 37888, Note_off_c, 9, 38, 0
7, 37888, Note_on_c, 9, 36, 110
7, 37888, Note_on_c, 9, 38, 90
7, 38400, Note_off_c, 9, 36, 0
7, 38400, Note_off_c, 9, 38, 0
7, 38400, Note_on_c, 9, 35, 110
7, 38912, Note_off_c, 9, 42, 0
7, 38912, Note_on_c, 9, 42, 70
7, 38912, Note_off_c, 9, 35, 0
7, 38912, Note_on_c, 9, 36, 110
7, 38912, Note_on_c, 9, 38, 90
7, 39936, Note_off_c, 9, 42, 0
7, 39936, Note_off_c, 9, 36, 0
7, 39936, Note_off_c, 9, 38, 0
7, 39936, Note_on_c, 9, 42, 70
7, 39936, Note_on_c, 9, 36, 110
7, 39936, Note_on_c, 9, 38, 90
7, 40960, Note_off_c, 9, 42, 0
7, 40960, Note_on_c, 9, 42, 70
7, 40960, Note_off_c, 9, 36, 0
7, 40960, Note_off_c, 9, 38, 0
7, 40960, Note_on_c, 9, 36, 110
7, 40960, Note_on_c, 9, 38, 90
7, 41472, Note_off_c, 9, 36, 0
7, 41472, Note_off_c, 9, 38, 0
7, 41472, Note_on_c, 9, 35, 110
7, 41984, Note_off_c, 9, 42, 0
7, 41984, Note_on_c, 9, 42, 70
7, 41984, Note_off_c, 9, 35, 0
7, 41984, Note_on_c, 9, 36, 110
7, 41984, Note_on_c, 9, 38, 90
7, 43008, Note_off_c, 9, 42, 0
7, 43008, Note_off_c, 9, 36, 0
7, 43008, Note_off_c, 9, 38, 0
7, 43008, Note_on_c, 9, 42, 70
7, 43008, Note_on_c, 9, 36, 110
7, 43008, Note_on_c, 9, 38, 90
7, 44032, Note_off_c, 9, 42, 0
7, 44032, Note_on_c, 9, 42, 70
7, 44032, Note_off_c, 9, 36, 0
7, 44032, Note_off_c, 9, 38, 0
7, 44032, Note_on_c, 9, 36, 110
7, 44032, Note_on_c, 9, 38, 90
7, 44544, Note_off_c, 9, 36, 0
7, 44544, Note_off_c, 9, 38, 0
7, 44544, Note_on_c, 9, 35, 110
7, 45056, Note_off_c, 9, 42, 0
7, 45056, Note_on_c, 9, 42, 70
7, 45056, Note_off_c, 9, 35, 0
7, 45056, Note_on_c, 9, 36, 110
7, 45056, Note_on_c, 9, 38, 90
7, 46080, Note_off_c, 9, 42, 0
7, 46080, Note_off_c, 9, 36, 0
7, 46080, Note_off_c, 9, 38, 0
7, 46080, Note_on_c, 9, 42, 70
7, 46080, Note_on_c, 9, 36, 110
7, 46080, Note_on_c, 9, 38, 90
7, 47104, Note_off_c, 9, 42, 0
7, 47104, Note_on_c, 9, 42, 70
7, 47104, Note_off_c, 9, 36, 0
7, 47104, Note_off_c, 9, 38, 0
7, 47104, Note_on_c, 9, 36, 110
7, 47104, Note_on_c, 9, 38, 90
7, 47616, Note_off_c, 9, 36, 0
7, 47616, Note_off_c, 9, 38, 0
7, 47616, Note_on_c, 9, 35, 110
7, 48128, Note_off_c, 9, 42, 0
7, 48128, Note_on_c, 9, 42, 70
7, 48128, Note_off_c, 9, 35, 0
7, 48128, Note_on_c, 9, 36, 110
7, 48128, Note_on_c, 9, 38, 90
7, 49152, Note_off_c, 9, 42, 0
7, 49152, Note_off_c, 9, 36, 0
7, 49152, Note_off_c, 9, 38, 0
7, 49152, Note_on_c, 9, 42, 70
7, 49152, Note_on_c, 9, 36, 110
7, 49152, Note_on_c, 9, 38, 90
7, 50176, Note_off_c, 9, 42, 0
7, 50176, Note_on_c, 9, 42, 70
7, 50176, Note_off_c, 9, 36, 0
7, 50176, Note_off_c, 9, 38, 0
7, 50176, Note_on_c, 9, 36, 110
7, 50176, Note_on_c, 9, 38, 90
7, 50688, Note_off_c, 9, 36, 0
7, 50688, Note_off_c, 9, 38, 0
7, 50688, Note_on_c, 9, 35, 110
7, 51200, Note_off_c, 9, 42, 0
7, 51200, Note_on_c, 9, 42, 70
7, 51200, Note_off_c, 9, 35, 0
7, 51200, Note_on_c, 9, 36, 110
7, 51200, Note_on_c, 9, 38, 90
7, 52224, Note_off_c, 9, 42, 0
7, 52224, Note_off_c, 9, 36, 0
7, 52224, Note_off_c, 9, 38, 0
7, 52224, Note_on_c, 9, 42, 70
7, 52224, Note_on_c, 9, 36, 110
7, 52224, Note_on_c, 9, 38, 90
7, 53248, Note_off_c, 9, 42, 0
7, 53248, Note_on_c, 9, 42, 70
7, 53248, Note_off_c, 9, 36, 0
7, 53248, Note_off_c, 9, 38, 0
7, 53248, Note_on_c, 9, 36, 110
7, 53248, Note_on_c, 9, 38, 90
7, 53760, Note_off_c, 9, 36, 0
7, 53760, Note_off_c, 9, 38, 0
7, 53760, Note_on_c, 9, 35, 110
7, 54272, Note_off_c, 9, 42, 0
7, 54272, Note_on_c, 9, 42, 70
7, 54272, Note_off_c, 9, 35, 0
7, 54272, Note_on_c, 9, 36, 110
7, 54272, Note_on_c, 9, 38, 90
7, 55296, Note_off_c, 9, 42, 0
7, 55296, Note_off_c, 9, 36, 0
7, 55296, Note_off_c, 9, 38, 0
7, 55296, Note_on_c, 9, 42, 70
7, 55296, Note_on_c, 9, 36, 110
7, 55296, Note_on_c, 9, 38, 90
7, 56320, Note_off_c, 9, 42, 0
7, 56320, Note_on_c, 9, 42, 70
7, 56320, Note_off_c, 9, 36, 0
7, 56320, Note_off_c, 9, 38, 0
7, 56320, Note_on_c, 9, 36, 110
7, 56320, Note_on_c, 9, 38, 90
7, 56832, Note_off_c, 9, 36, 0
7, 56832, Note_off_c, 9, 38, 0
7, 56832, Note_on_c, 9, 35, 110
7, 57344, Note_off_c, 9, 42, 0
7, 57344, Note_on_c, 9, 42, 70
7, 57344, Note_off_c, 9, 35, 0
7, 57344, Note_on_c, 9, 36, 110
7, 57344, Note_on_c, 9, 38, 90
7, 58368, Note_off_c, 9, 42, 0
7, 58368, Note_off_c, 9, 36, 0
7, 58368, Note_off_c, 9, 38, 0
7, 58368, Note_on_c, 9, 42, 70
7, 58368, Note_on_c, 9, 36, 110
7, 58368, Note_on_c, 9, 38, 90
7, 59392, Note_off_c, 9, 42, 0
7, 59392, Note_on_c, 9, 42, 70
7, 59392, Note_off_c, 9, 36, 0
7, 59392, Note_off_c, 9, 38, 0
7, 59392, Note_on_c, 9, 36, 110
7, 59392, Note_on_c, 9, 38, 90
7, 59904, Note_off_c, 9, 36, 0
7, 59904, Note_off_c, 9, 38, 0
7, 59904, Note_on_c, 9, 35, 110
7, 60416, Note_off_c, 9, 42, 0
7, 60416, Note_on_c, 9, 42, 70
7, 60416, Note_off_c, 9, 35, 0
7, 60416, Note_on_c, 9, 36, 110
7, 60416, Note_on_c, 9, 38, 90
7, 61440, Note_off_c, 9, 42, 0
7, 61440, Note_off_c, 9, 36, 0
7, 61440, Note_off_c, 9, 38, 0
7, 61440, Note_on_c, 9, 42, 70
7, 61440, Note_on_c, 9, 36, 110
7, 61440, Note_on_c, 9, 38, 90
7, 62464, Note_off_c, 9, 42, 0
7, 62464, Note_on_c, 9, 42, 70
7, 62464, Note_off_c, 9, 36, 0
7, 62464, Note_off_c, 9, 38, 0
7, 62464, Note_on_c, 9, 36, 110
7, 62464, Note_on_c, 9, 38, 90
7, 62976, Note_off_c, 9, 36, 0
7, 62976, Note_off_c, 9, 38, 0
7, 62976, Note_on_c, 9, 35, 110
7, 63488, Note_off_c, 9, 42, 0
7, 63488, Note_on_c, 9, 42, 70
7, 63488, Note_off_c, 9, 35, 0
7, 63488, Note_on_c, 9, 36, 110
7, 63488, Note_on_c, 9, 38, 90
7, 64512, Note_off_c, 9, 42, 0
7, 64512, Note_off_c, 9, 36, 0
7, 64512, Note_off_c, 9, 38, 0
7, 64512, Note_on_c, 9, 42, 70
7, 64512, Note_on_c, 9, 36, 110
7, 64512, Note_on_c, 9, 38, 90
7, 65536, Note_off_c, 9, 42, 0
7, 65536, Note_on_c, 9, 42, 70
7, 65536, Note_off_c, 9, 36, 0
7, 65536, Note_off_c, 9, 38, 0
7, 65536, Note_on_c, 9, 36, 110
7, 65536, Note_on_c, 9, 38, 90
7, 66048, Note_off_c, 9, 36, 0
7, 66048, Note_off_c, 9, 38, 0
7, 66048, Note_on_c, 9, 35, 110
7, 66560, Note_off_c, 9, 42, 0
7, 66560, Note_on_c, 9, 42, 70
7, 66560, Note_off_c, 9, 35, 0
7, 66560, Note_on_c, 9, 36, 110
7, 66560, Note_on_c, 9, 38, 90
7, 67584, Note_off_c, 9, 42, 0
7, 67584, Note_off_c, 9, 36, 0
7, 67584, Note_off_c, 9, 38, 0
7, 67584, Note_on_c, 9, 42, 70
7, 67584, Note_on_c, 9, 36, 110
7, 67584, Note_on_c, 9, 38, 90
7, 68608, Note_off_c, 9, 42, 0
7, 68608, Note_on_c, 9, 42, 70
7, 68608, Note_off_c, 9, 36, 0
7, 68608, Note_off_c, 9, 38, 0
7, 68608, Note_on_c, 9, 36, 110
7, 68608, Note_on_c, 9, 38, 90
7, 69120, Note_off_c, 9, 36, 0
7, 69120, Note_off_c, 9, 38, 0
7, 69120, Note_on_c, 9, 35, 110
7, 69632, Note_off_c, 9, 42, 0
7, 69632, Note_on_c, 9, 42, 70
7, 69632, Note_off_c, 9, 35, 0
7, 69632, Note_on_c, 9, 36, 110
7, 69632, Note_on_c, 9, 38, 90
7, 70656, Note_off_c, 9, 42, 0
7, 70656, Note_off_c, 9, 36, 0
7, 70656, Note_off_c, 9, 38, 0
7, 70656, Note_on_c, 9, 42, 70
7, 70656, Note_on_c, 9, 36, 110
7, 70656, Note_on_c, 9, 38, 90
7, 71680, Note_off_c, 9, 42, 0
7, 71680, Note_on_c, 9, 42, 70
7, 71680, Note_off_c, 9, 36, 0
7, 71680, Note_off_c, 9, 38, 0
7, 71680, Note_on_c, 9, 36, 110
7, 71680, Note_on_c, 9, 38, 90
7, 72192, Note_off_c, 9, 36, 0
7, 72192, Note_off_c, 9, 38, 0
7, 72192, Note_on_c, 9, 35, 110
7, 72704, Note_off_c, 9, 42, 0
7, 72704, Note_on_c, 9, 42, 70
7, 72704, Note_off_c, 9, 35, 0
7, 72704, Note_on_c, 9, 36, 110
7, 72704, Note_on_c, 9, 38, 90
7, 73728, Note_off_c, 9, 42, 0
7, 73728, Note_off_c, 9, 36, 0
7, 73728, Note_off_c, 9, 38, 0
7, 73728, Note_on_c, 9, 42, 70
7, 73728, Note_on_c, 9, 36, 110
7, 73728, Note_on_c, 9, 38, 90
7, 74752, Note_off_c, 9, 42, 0
7, 74752, Note_on_c, 9, 42, 70
7, 74752, Note_off_c, 9, 36, 0
7, 74752, Note_off_c, 9, 38, 0
7, 74752, Note_on_c, 9, 36, 110
7, 74752, Note_on_c, 9, 38, 90
7, 75264, Note_off_c, 9, 36, 0
7, 75264, Note_off_c, 9, 38, 0
7, 75264, Note_on_c, 9, 35, 110
7, 75776, Note_off_c, 9, 42, 0
7, 75776, Note_on_c, 9, 42, 70
7, 75776, Note_off_c, 9, 35, 0
7, 75776, Note_on_c, 9, 36, 110
7, 75776, Note_on_c, 9, 38, 90
7, 76800, Note_off_c, 9, 42, 0
7, 76800, Note_off_c, 9, 36, 0
7, 76800, Note_off_c, 9, 38, 0
7, 76800, Note_on_c, 9, 42, 70
7, 76800, Note_on_c, 9, 36, 110
7, 76800, Note_on_c, 9, 38, 90
7, 77824, Note_off_c, 9, 42, 0
7, 77824, Note_on_c, 9, 42, 70
7, 77824, Note_off_c, 9, 36, 0
7, 77824, Note_off_c, 9, 38, 0
7, 77824, Note_on_c, 9, 36, 110
7, 77824, Note_on_c, 9, 38, 90
7, 78336, Note_off_c, 9, 36, 0
7, 78336, Note_off_c, 9, 38, 0
7, 78336, Note_on_c, 9, 35, 110
7, 78848, Note_off_c, 9, 42, 0
7, 78848, Note_on_c, 9, 42, 70
7, 78848, Note_off_c, 9, 35, 0
7, 78848, Note_on_c, 9, 36, 110
7, 78848, Note_on_c, 9, 38, 90
7, 79872, Note_off_c, 9, 42, 0
7, 79872, Note_off_c, 9, 36, 0
7, 79872, Note_off_c, 9, 38, 0
7, 79872, Note_on_c, 9, 42, 70
7, 79872, Note_on_c, 9, 36, 110
7, 79872, Note_on_c, 9, 38, 90
7, 80896, Note_off_c, 9, 42, 0
7, 80896, Note_on_c, 9, 42, 70
7, 80896, Note_off_c, 9, 36, 0
7, 80896, Note_off_c, 9, 38, 0
7, 80896, Note_on_c, 9, 36, 110
7, 80896, Note_on_c, 9, 38, 90
7, 81408, Note_off_c, 9, 36, 0
7, 81408, Note_off_c, 9, 38, 0
7, 81408, Note_on_c, 9, 35, 110
7, 81920, Note_off_c, 9, 42, 0
7, 81920, Note_on_c, 9, 42, 70
7, 81920, Note_off_c, 9, 35, 0
7, 81920, Note_on_c, 9, 36, 110
7, 81920, Note_on_c, 9, 38, 90
7, 82944, Note_off_c, 9, 42, 0
7, 82944, Note_off_c, 9, 36, 0
7, 82944, Note_off_c, 9, 38, 0
7, 82944, Note_on_c, 9, 42, 70
7, 82944, Note_on_c, 9, 36, 110
7, 82944, Note_on_c, 9, 38, 90
7, 83968, Note_off_c, 9, 42, 0
7, 83968, Note_on_c, 9, 42, 70
7, 83968, Note_off_c, 9, 36, 0
7, 83968, Note_off_c, 9, 38, 0
7, 83968, Note_on_c, 9, 36, 110
7, 83968, Note_on_c, 9, 38, 90
7, 84480, Note_off_c, 9, 36, 0
7, 84480, Note_off_c, 9, 38, 0
7, 84480, Note_on_c, 9, 35, 110
7, 84992, Note_off_c, 9, 42, 0
7, 84992, Note_on_c, 9, 42, 70
7, 84992, Note_off_c, 9, 35, 0
7, 84992, Note_on_c, 9, 36, 110
7, 84992, Note_on_c, 9, 38, 90
7, 86016, Note_off_c, 9, 42, 0
7, 86016, Note_off_c, 9, 36, 0
7, 86016, Note_off_c, 9, 38, 0
7, 86016, Note_on_c, 9, 42, 70
7, 86016, Note_on_c, 9, 36, 110
7, 86016, Note_on_c, 9, 38, 90
7, 87040, Note_off_c, 9, 42, 0
7, 87040, Note_on_c, 9, 42, 70
7, 87040, Note_off_c, 9, 36, 0
7, 87040, Note_off_c, 9, 38, 0
7, 87040, Note_on_c, 9, 36, 110
7, 87040, Note_on_c, 9, 38, 90
7, 87552, Note_off_c, 9, 36, 0
7, 87552, Note_off_c, 9, 38, 0
7, 87552, Note_on_c, 9, 35, 110
7, 88064, Note_off_c, 9, 42, 0
7, 88064, Note_on_c, 9, 42, 70
7, 88064, Note_off_c, 9, 35, 0
7, 88064, Note_on_c, 9, 36, 110
7, 88064, Note_on_c, 9, 38, 90
7, 89088, Note_off_c, 9, 42, 0
7, 89088, Note_off_c, 9, 36, 0
7, 89088, Note_off_c, 9, 38, 0
7, 89088, Note_on_c, 9, 42, 70
7, 89088, Note_on_c, 9, 36, 110
7, 89088, Note_on_c, 9, 38, 90
7, 90112, Note_off_c, 9, 42, 0
7, 90112, Note_on_c, 9, 42, 70
7, 90112, Note_off_c, 9, 36, 0
7, 90112, Note_off_c, 9, 38, 0
7, 90112, Note_on_c, 9, 36, 110
7, 90112, Note_on_c, 9, 38, 90
7, 90624, Note_off_c, 9, 36, 0
7, 90624, Note_off_c, 9, 38, 0
7, 90624, Note_on_c, 9, 35, 110
7, 91136, Note_off_c, 9, 42, 0
7, 91136, Note_on_c, 9, 42, 70
7, 91136, Note_off_c, 9, 35, 0
7, 91136, Note_on_c, 9, 36, 110
7, 91136, Note_on_c, 9, 38, 90
7, 92160, Note_off_c, 9, 42, 0
7, 92160, Note_off_c, 9, 36, 0
7, 92160, Note_off_c, 9, 38, 0
7, 92160, Note_on_c, 9, 42, 70
7, 92160, Note_on_c, 9, 36, 110
7, 92160, Note_on_c, 9, 38, 90
7, 93184, Note_off_c, 9, 42, 0
7, 93184, Note_on_c, 9, 42, 70
7, 93184, Note_off_c, 9, 36, 0
7, 93184, Note_off_c, 9, 38, 0
7, 93184, Note_on_c, 9, 36, 110
7, 93184, Note_on_c, 9, 38, 90
7, 93696, Note_off_c, 9, 36, 0
7, 93696, Note_off_c, 9, 38, 0
7, 93696, Note_on_c, 9, 35, 110
7, 94208, Note_off_c, 9, 42, 0
7, 94208, Note_on_c, 9, 42, 70
7, 94208, Note_off_c, 9, 35, 0
7, 94208, Note_on_c, 9, 36, 110
7, 94208, Note_on_c, 9, 38, 90
7, 95232, Note_off_c, 9, 42, 0
7, 95232, Note_off_c, 9, 36, 0
7, 95232, Note_off_c, 9, 38, 0
7, 95232, Note_on_c, 9, 42, 70
7, 95232, Note_on_c, 9, 36, 110
7, 95232, Note_on_c, 9, 38, 90
7, 96256, Note_off_c, 9, 42, 0
7, 96256, Note_on_c, 9, 42, 70
7, 96256, Note_off_c, 9, 36, 0
7, 96256, Note_off_c, 9, 38, 0
7, 96256, Note_on_c, 9, 36, 110
7, 96256, Note_on_c, 9, 38, 90
7, 96768, Note_off_c, 9, 36, 0
7, 96768, Note_off_c, 9, 38, 0
7, 96768, Note_on_c, 9, 35, 110
7, 97280, Note_off_c, 9, 42, 0
7, 97280, Note_on_c, 9, 42, 70
7, 97280, Note_off_c, 9, 35, 0
7, 97280, Note_on_c, 9, 36, 110
7, 97280, Note_on_c, 9, 38, 90
7, 98304, Note_off_c, 9, 42, 0
7, 98304, Note_off_c, 9, 36, 0
7, 98304, Note_off_c, 9, 38, 0
7, 98304, Note_on_c, 9, 42, 70
7, 98304, Note_on_c, 9, 36, 110
7, 98304, Note_on_c, 9, 38, 90
7, 99328, Note_off_c, 9, 42, 0
7, 99328, Note_on_c, 9, 42, 70
7, 99328, Note_off_c, 9, 36, 0
7, 99328, Note_off_c, 9, 38, 0
7, 99328, Note_on_c, 9, 36, 110
7, 99328, Note_on_c, 9, 38, 90
7, 99840, Note_off_c, 9, 36, 0
7, 99840, Note_off_c, 9, 38, 0
7, 99840, Note_on_c, 9, 35, 110
7, 100352, Note_off_c, 9, 42, 0
7, 100352, Note_on_c, 9, 42, 70
7, 100352, Note_off_c, 9, 35, 0
7, 100352, Note_on_c, 9, 36, 110
7, 100352, Note_on_c, 9, 38, 90
7, 101376, Note_off_c, 9, 42, 0
7, 101376, Note_off_c, 9, 36, 0
7, 101376, Note_off_c, 9, 38, 0
7, 101376, Note_on_c, 9, 42, 70
7, 101376, Note_on_c, 9, 36, 110
7, 101376, Note_on_c, 9, 38, 90
7, 102400, Note_off_c, 9, 42, 0
7, 102400, Note_on_c, 9, 42, 70
7, 102400, Note_off_c, 9, 36, 0
7, 102400, Note_off_c, 9, 38, 0
7, 102400, Note_on_c, 9, 36, 110
7, 102400, Note_on_c, 9, 38, 90
7, 102912, Note_off_c, 9, 36, 0
7, 102912, Note_off_c, 9, 38, 0
7, 102912, Note_on_c, 9, 35, 110
7, 103424, Note_off_c, 9, 42, 0
7, 103424, Note_on_c, 9, 42, 70
7, 103424, Note_off_c, 9, 35, 0
7, 103424, Note_on_c, 9, 36, 110
7, 103424, Note_on_c, 9, 38, 90
7, 104448, Note_off_c, 9, 42, 0
7, 104448, Note_off_c, 9, 36, 0
7, 104448, Note_off_c, 9, 38, 0
7, 104448, Note_on_c, 9, 42, 70
7, 104448, Note_on_c, 9, 36, 110
7, 104448, Note_on_c, 9, 38, 90
7, 105472, Note_off_c, 9, 42, 0
7, 105472, Note_on_c, 9, 42, 70
7, 105472, Note_off_c, 9, 36, 0
7, 105472, Note_off_c, 9, 38, 0
7, 105472, Note_on_c, 9, 36, 110
7, 105472, Note_on_c, 9, 38, 90
7, 105984, Note_off_c, 9, 36, 0
7, 105984, Note_off_c, 9, 38, 0
7, 105984, Note_on_c, 9, 35, 110
7, 106496, Note_off_c, 9, 42, 0
7, 106496, Note_on_c, 9, 42, 70
7, 106496, Note_off_c, 9, 35, 0
7, 106496, Note_on_c, 9, 36, 110
7, 106496, Note_on_c, 9, 38, 90
7, 107520, Note_off_c, 9, 42, 0
7, 107520, Note_off_c, 9, 36, 0
7, 107520, Note_off_c, 9, 38, 0
7, 107520, Note_on_c, 9, 42, 70
7, 107520, Note_on_c, 9, 36, 110
7, 107520, Note_on_c, 9, 38, 90
7, 108544, Note_off_c, 9, 42, 0
7, 108544, Note_on_c, 9, 42, 70
7, 108544, Note_off_c, 9, 36, 0
7, 108544, Note_off_c, 9, 38, 0
7, 108544, Note_on_c, 9, 36, 110
7, 108544, Note_on_c, 9, 38, 90
7, 109056, Note_off_c, 9, 36, 0
7, 109056, Note_off_c, 9, 38, 0
7, 109056, Note_on_c, 9, 35, 110
7, 109568, Note_off_c, 9, 42, 0
7, 109568, Note_on_c, 9, 42, 70
7, 109568, Note_off_c, 9, 35, 0
7, 109568, Note_on_c, 9, 36, 110
7, 109568, Note_on_c, 9, 38, 90
7, 110592, Note_off_c, 9, 42, 0
7, 110592, Note_off_c, 9, 36, 0
7, 110592, Note_off_c, 9, 38, 0
7, 110592, Note_on_c, 9, 42, 70
7, 110592, Note_on_c, 9, 36, 110
7, 110592, Note_on_c, 9, 38, 90
7, 111616, Note_off_c, 9, 42, 0
7, 111616, Note_on_c, 9, 42, 70
7, 111616, Note_off_c, 9, 36, 0
7, 111616, Note_off_c, 9, 38, 0
7, 111616, Note_on_c, 9, 36, 110
7, 111616, Note_on_c, 9, 38, 90
7, 112128, Note_off_c, 9, 36, 0
7, 112128, Note_off_c, 9, 38, 0
7, 112128, Note_on_c, 9, 35, 110
7, 112640, Note_off_c, 9, 42, 0
7, 112640, Note_on_c, 9, 42, 70
7, 112640, Note_off_c, 9, 35, 0
7, 112640, Note_on_c, 9, 36, 110
7, 112640, Note_on_c, 9, 38, 90
7, 113664, Note_off_c, 9, 42, 0
7, 113664, Note_off_c, 9, 36, 0
7, 113664, Note_off_c, 9, 38, 0
7, 113664, Note_on_c, 9, 42, 70
7, 113664, Note_on_c, 9, 36, 110
7, 113664, Note_on_c, 9, 38, 90
7, 114688, Note_off_c, 9, 42, 0
7, 114688, Note_on_c, 9, 42, 70
7, 114688, Note_off_c, 9, 36, 0
7, 114688, Note_off_c, 9, 38, 0
7, 114688, Note_on_c, 9, 36, 110
7, 114688, Note_on_c, 9, 38, 90
7, 115200, Note_off_c, 9, 36, 0
7, 115200, Note_off_c, 9, 38, 0
7, 115200, Note_on_c, 9, 35, 110
7, 115712, Note_off_c, 9, 42, 0
7, 115712, Note_on_c, 9, 42, 70
7, 115712, Note_off_c, 9, 35, 0
7, 115712, Note_on_c, 9, 36, 110
7, 115712, Note_on_c, 9, 38, 90
7, 116736, Note_off_c, 9, 42, 0
7, 116736, Note_off_c, 9, 36, 0
7, 116736, Note_off_c, 9, 38, 0
7, 116736, Note_on_c, 9, 42, 70
7, 116736, Note_on_c, 9, 36, 110
7, 116736, Note_on_c, 9, 38, 90
7, 117760, Note_off_c, 9, 42, 0
7, 117760, Note_on_c, 9, 42, 70
7, 117760, Note_off_c, 9, 36, 0
7, 117760, Note_off_c, 9, 38, 0
7, 117760, Note_on_c, 9, 36, 110
7, 117760, Note_on_c, 9, 38, 90
7, 118272, Note_off_c, 9, 36, 0
7, 118272, Note_off_c, 9, 38, 0
7, 118272, Note_on_c, 9, 35, 110
7, 118784, Note_off_c, 9, 42, 0
7, 118784, Note_on_c, 9, 42, 70
7, 118784, Note_off_c, 9, 35, 0
7, 118784, Note_on_c, 9, 36, 110
7, 118784, Note_on_c, 9, 38, 90
7, 119808, Note_off_c, 9, 42, 0
7, 119808, Note_off_c, 9, 36, 0
7, 119808, Note_off_c, 9, 38, 0
7, 119808, Note_on_c, 9, 42, 70
7, 119808, Note_on_c, 9, 36, 110
7, 119808, Note_on_c, 9, 38, 90
7, 120832, Note_off_c, 9, 42, 0
7, 120832, Note_on_c, 9, 42, 70
7, 120832, Note_off_c, 9, 36, 0
7, 120832, Note_off_c, 9, 38, 0
7, 120832, Note_on_c, 9, 36, 110
7, 120832, Note_on_c, 9, 38, 90
7, 121344, Note_off_c, 9, 36, 0
7, 121344, Note_off_c, 9, 38, 0
7, 121344, Note_on_c, 9, 35, 110
7, 121856, Note_off_c, 9, 42, 0
7, 121856, Note_on_c, 9, 42, 70
7, 121856, Note_off_c, 9, 35, 0
7, 121856, Note_on_c, 9, 36, 110
7, 121856, Note_on_c, 9, 38, 90
7, 122880, Note_off_c, 9, 42, 0
7, 122880, Note_off_c, 9, 36, 0
7, 122880, Note_off_c, 9, 38, 0
7, 122880, Note_on_c, 9, 42, 70
7, 122880, Note_on_c, 9, 36, 110
7, 122880, Note_on_c, 9, 38, 90
7, 123904, Note_off_c, 9, 42, 0
7, 123904, Note_on_c, 9, 42, 70
7, 123904, Note_off_c, 9, 36, 0
7, 123904, Note_off_c, 9, 38, 0
7, 123904, Note_on_c, 9, 36, 110
7, 123904, Note_on_c, 9, 38, 90
7, 124416, Note_off_c, 9, 36, 0
7, 124416, Note_off_c, 9, 38, 0
7, 124416, Note_on_c, 9, 35, 110
7, 124928, Note_off_c, 9, 42, 0
7, 124928, Note_on_c, 9, 42, 70
7, 124928, Note_off_c, 9, 35, 0
7, 124928, Note_on_c, 9, 36, 110
7, 124928, Note_on_c, 9, 38, 90
7, 125952, Note_off_c, 9, 42, 0
7, 125952, Note_off_c, 9, 36, 0
7, 125952, Note_off_c, 9, 38, 0
7, 125952, Note_on_c, 9, 42, 70
7, 125952, Note_on_c, 9, 36, 110
7, 125952, Note_on_c, 9, 38, 90
7, 126464, Note_off_c, 9, 36, 0
7, 126464, Note_off_c, 9, 38, 0
7, 126464, Note_on_c, 9, 35, 110
7, 126976, Note_off_c, 9, 42, 0
7, 126976, Note_on_c, 9, 42, 64
7, 126976, Note_off_c, 9, 35, 0
7, 126976, Note_on_c, 9, 36, 110
7, 126976, Note_on_c, 9, 38, 90
7, 127488, Note_off_c, 9, 36, 0
7, 127488, Note_off_c, 9, 38, 0
7, 127488, Note_on_c, 9, 35, 110
7, 128000, Note_off_c, 9, 42, 0
7, 128000, Note_on_c, 9, 42, 50
7, 128000, Note_off_c, 9, 35, 0
7, 128000, Note_on_c, 9, 38, 90
7, 128341, Note_off_c, 9, 38, 0
7, 128341, Note_on_c, 9, 36, 100
7, 128683, Note_off_c, 9, 36, 0
7, 128683, Note_on_c, 9, 36, 90
7, 129024, Note_off_c, 9, 42, 0
7, 129024, Note_off_c, 9, 36, 0
7, 129024, Note_on_c, 9, 42, 40
7, 129024, Note_on_c, 9, 36, 75
7, 129024, Note_on_c, 9, 38, 70
7, 129536, Note_off_c, 9, 36, 0
7, 129536, Note_off_c, 9, 38, 0
7, 129536, Note_on_c, 9, 35, 60
7, 130048, Note_off_c, 9, 42, 0
7, 130048, Note_on_c, 9, 42, 30
7, 130048, Note_off_c, 9, 35, 0
7, 130048, Note_on_c, 9, 36, 45
7, 130048, Note_on_c, 9, 38, 50
7, 130560, Note_off_c, 9, 36, 0
7, 130560, Note_off_c, 9, 38, 0
7, 130560, Note_on_c, 9, 35, 30
7, 131072, Note_off_c, 9, 42, 0
7, 131072, Note_on_c, 9, 42, 20
7, 131072, Note_off_c, 9, 35, 0
7, 131072, Note_on_c, 9, 38, 35
7, 131413, Note_off_c, 9, 38, 0
7, 131413, Note_on_c, 9, 36, 20
7, 131755, Note_off_c, 9, 36, 0
7, 131755, Note_on_c, 9, 36, 15
7, 132096, Note_off_c, 9, 42, 0
7, 132096, Note_off_c, 9, 36, 0
7, 132096, Note_on_c, 9, 42, 10
7, 132096, Note_on_c, 9, 36, 10
7, 132096, Note_on_c, 9, 38, 18
7, 132608, Note_off_c, 9, 36, 0
7, 132608, Note_off_c, 9, 38, 0
7, 132608, Note_on_c, 9, 35, 5
7, 133120, Note_off_c, 9, 42, 0
7, 133120, Note_on_c, 9, 42, 5
7, 133120, Note_off_c, 9, 35, 0
7, 133120, Note_on_c, 9, 36, 4
7, 133120, Note_on_c, 9, 38, 12
7, 133632, Note_off_c, 9, 36, 0
7, 133632, Note_off_c, 9, 38, 0
7, 133632, Note_on_c, 9, 35, 3
7, 134144, Note_off_c, 9, 42, 0
7, 134144, Note_on_c, 9, 42, 1
7, 134144, Note_off_c, 9, 35, 0
7, 134144, Note_on_c, 9, 38, 5
7, 134485, Note_off_c, 9, 38, 0
7, 134485, Note_on_c, 9, 36, 2
7, 134827, Note_off_c, 9, 36, 0
7, 134827, Note_on_c, 9, 36, 1
7, 135168, Note_off_c, 9, 42, 0
7, 135168, Note_off_c, 9, 36, 0
7, 135168, End_track
0, 0, End_of_file
