0, 0, Header, 1, 2, 240
1, 0, Start_track
1, 0, Time_signature, 1, 2, 24, 8
1, 0, Tempo, 500000
1, 108, Marker_t, "interpreted by (P) 1997-1999 S.D. Rodrian  WTC Book1 Prelude & Fugue in cm"
1, 4896, Marker_t, "Copyright 1997-99 (P) S.D.Rodrian -  NOT to be reproduced or sold sans permission !"
1, 9996, Marker_t, "This file may be freely distributed on the WWW, as long as it's not modified. SDR"
1, 14796, Marker_t, "SDRodrian@aol.com  626 Lalor Trenton NJ 08611 http://members.aol.com/sdrodrian"
1, 19824, Marker_t, "1121 Deutz Ave Trenton NJ 08611 http://www.geocities.com/Paris/LeftBank/3214"
1, 19824, End_track
2, 0, Start_track
2, 0, Title_t, "untitled"
2, 0, Program_c, 0, 0
2, 0, Control_c, 0, 7, 127
2, 0, Control_c, 0, 10, 76
2, 0, Program_c, 1, 0
2, 0, Control_c, 1, 7, 127
2, 0, Control_c, 1, 10, 75
2, 0, Program_c, 2, 0
2, 0, Control_c, 2, 7, 127
2, 0, Control_c, 2, 10, 74
2, 0, Program_c, 3, 0
2, 0, Control_c, 3, 7, 127
2, 0, Control_c, 3, 10, 66
2, 0, Program_c, 4, 0
2, 0, Control_c, 4, 7, 127
2, 0, Control_c, 4, 10, 58
2, 120, Control_c, 0, 32, 0
2, 120, Control_c, 0, 10, 77
2, 120, Control_c, 0, 7, 127
2, 120, Control_c, 0, 91, 91
2, 120, Control_c, 0, 64, 0
2, 120, Control_c, 0, 93, 28
2, 120, Control_c, 0, 0, 0
2, 360, Control_c, 1, 32, 0
2, 360, Control_c, 1, 10, 76
2, 360, Control_c, 1, 7, 127
2, 360, Control_c, 1, 91, 91
2, 360, Control_c, 1, 64, 0
2, 360, Control_c, 1, 93, 28
2, 360, Control_c, 1, 0, 0
2, 636, Control_c, 2, 32, 0
2, 636, Control_c, 2, 10, 75
2, 636, Control_c, 2, 93, 28
2, 636, Control_c, 2, 64, 0
2, 636, Control_c, 2, 91, 91
2, 636, Control_c, 2, 7, 127
2, 636, Control_c, 2, 0, 0
2, 888, Control_c, 3, 32, 0
2, 888, Control_c, 3, 10, 67
2, 888, Control_c, 3, 93, 28
2, 888, Control_c, 3, 64, 0
2, 888, Control_c, 3, 91, 91
2, 888, Control_c, 3, 7, 127
2, 888, Control_c, 3, 0, 0
2, 1116, Control_c, 4, 32, 0
2, 1116, Control_c, 4, 10, 58
2, 1116, Control_c, 4, 93, 28
2, 1116, Control_c, 4, 91, 91
2, 1116, Control_c, 4, 64, 0
2, 1116, Control_c, 4, 7, 127
2, 1116, Control_c, 4, 0, 0
2, 2626, Note_on_c, 1, 72, 112
2, 2626, Note_on_c, 4, 48, 107
2, 2629, Note_on_c, 1, 72, 55
2, 2727, Note_off_c, 4, 48, 1
2, 2728, Note_on_c, 0, 63, 127
2, 2729, Note_on_c, 3, 55, 123
2, 2819, Note_off_c, 1, 72, 1
2, 2819, Note_off_c, 1, 72, 1
2, 2826, Note_on_c, 4, 53, 123
2, 2827, Note_on_c, 3, 62, 123
2, 2830, Note_off_c, 3, 55, 1
2, 2831, Note_off_c, 0, 63, 1
2, 2921, Note_on_c, 3, 55, 123
2, 2922, Note_on_c, 0, 63, 127
2, 2925, Note_off_c, 3, 62, 1
2, 2926, Note_off_c, 4, 53, 1
2, 3012, Note_on_c, 3, 60, 123
2, 3012, Note_on_c, 4, 51, 123
2, 3014, Note_off_c, 0, 63, 1
2, 3015, Note_off_c, 3, 55, 1
2, 3107, Note_on_c, 0, 63, 127
2, 3107, Note_on_c, 3, 55, 123
2, 3110, Note_off_c, 3, 60, 1
2, 3111, Note_off_c, 4, 51, 1
2, 3197, Note_on_c, 3, 62, 123
2, 3197, Note_on_c, 4, 53, 123
2, 3200, Note_off_c, 3, 55, 1
2, 3200, Note_off_c, 0, 63, 1
2, 3289, Note_on_c, 0, 63, 127
2, 3289, Note_on_c, 3, 55, 123
2, 3293, Note_off_c, 4, 53, 1
2, 3293, Note_off_c, 3, 62, 1
2, 3382, Note_on_c, 2, 72, 127
2, 3384, Note_on_c, 4, 48, 123
2, 3385, Note_on_c, 1, 72, 64
2, 3386, Note_off_c, 3, 55, 1
2, 3386, Note_off_c, 0, 63, 1
2, 3470, Note_off_c, 2, 72, 1
2, 3471, Note_off_c, 4, 48, 1
2, 3473, Note_off_c, 1, 72, 1
2, 3482, Note_on_c, 0, 63, 127
2, 3482, Note_on_c, 3, 55, 123
2, 3572, Note_on_c, 4, 53, 123
2, 3573, Note_on_c, 3, 62, 123
2, 3575, Note_off_c, 0, 63, 1
2, 3576, Note_off_c, 3, 55, 1
2, 3662, Note_on_c, 3, 55, 123
2, 3663, Note_on_c, 0, 63, 127
2, 3666, Note_off_c, 3, 62, 1
2, 3667, Note_off_c, 4, 53, 1
2, 3754, Note_on_c, 3, 60, 123
2, 3754, Note_on_c, 4, 51, 123
2, 3756, Note_off_c, 0, 63, 1
2, 3757, Note_off_c, 3, 55, 1
2, 3851, Note_on_c, 3, 55, 123
2, 3852, Note_on_c, 0, 63, 127
2, 3853, Note_off_c, 3, 60, 1
2, 3854, Note_off_c, 4, 51, 1
2, 3942, Note_on_c, 4, 53, 123
2, 3943, Note_on_c, 3, 62, 123
2, 3945, Note_off_c, 0, 63, 1
2, 3945, Note_off_c, 3, 55, 1
2, 4034, Note_on_c, 3, 55, 123
2, 4035, Note_on_c, 0, 63, 127
2, 4037, Note_off_c, 3, 62, 1
2, 4037, Note_off_c, 4, 53, 1
2, 4127, Note_on_c, 4, 48, 123
2, 4129, Note_on_c, 1, 68, 127
2, 4129, Note_on_c, 2, 68, 64
2, 4130, Note_off_c, 3, 55, 1
2, 4130, Note_off_c, 0, 63, 1
2, 4130, Note_on_c, 0, 68, 62
2, 4222, Note_off_c, 4, 48, 1
2, 4223, Note_on_c, 2, 65, 127
2, 4223, Note_on_c, 3, 56, 123
2, 4224, Note_off_c, 2, 68, 1
2, 4224, Note_off_c, 1, 68, 1
2, 4225, Note_off_c, 0, 68, 1
2, 4312, Note_on_c, 2, 64, 127
2, 4312, Note_on_c, 3, 55, 123
2, 4314, Note_off_c, 2, 65, 1
2, 4315, Note_off_c, 3, 56, 1
2, 4402, Note_on_c, 3, 56, 123
2, 4403, Note_on_c, 2, 65, 127
2, 4404, Note_off_c, 2, 64, 1
2, 4405, Note_off_c, 3, 55, 1
2, 4492, Note_on_c, 4, 53, 123
2, 4493, Note_on_c, 3, 60, 123
2, 4495, Note_off_c, 2, 65, 1
2, 4495, Note_off_c, 3, 56, 1
2, 4588, Note_on_c, 3, 56, 123
2, 4589, Note_on_c, 2, 65, 127
2, 4591, Note_off_c, 3, 60, 1
2, 4592, Note_off_c, 4, 53, 1
2, 4677, Note_on_c, 2, 64, 127
2, 4677, Note_on_c, 3, 55, 123
2, 4680, Note_off_c, 2, 65, 1
2, 4680, Note_off_c, 3, 56, 1
2, 4767, Note_on_c, 2, 65, 127
2, 4767, Note_on_c, 3, 56, 123
2, 4769, Note_off_c, 2, 64, 1
2, 4770, Note_off_c, 3, 55, 1
2, 4860, Note_on_c, 4, 48, 123
2, 4862, Note_on_c, 1, 68, 127
2, 4862, Note_on_c, 2, 68, 64
2, 4863, Note_on_c, 0, 68, 62
2, 4864, Note_off_c, 3, 56, 1
2, 4864, Note_off_c, 2, 65, 1
2, 4955, Note_off_c, 4, 48, 1
2, 4956, Note_on_c, 2, 65, 127
2, 4956, Note_on_c, 3, 56, 123
2, 4958, Note_off_c, 2, 68, 1
2, 4958, Note_off_c, 1, 68, 1
2, 4959, Note_off_c, 0, 68, 1
2, 5045, Note_on_c, 3, 55, 123
2, 5046, Note_on_c, 2, 64, 127
2, 5048, Note_off_c, 2, 65, 1
2, 5049, Note_off_c, 3, 56, 1
2, 5134, Note_on_c, 2, 65, 127
2, 5134, Note_on_c, 3, 56, 123
2, 5136, Note_off_c, 2, 64, 1
2, 5137, Note_off_c, 3, 55, 1
2, 5222, Note_on_c, 3, 60, 123
2, 5222, Note_on_c, 4, 53, 123
2, 5225, Note_off_c, 3, 56, 1
2, 5225, Note_off_c, 2, 65, 1
2, 5314, Note_on_c, 3, 56, 123
2, 5315, Note_on_c, 2, 65, 127
2, 5317, Note_off_c, 4, 53, 1
2, 5317, Note_off_c, 3, 60, 1
2, 5404, Note_on_c, 3, 55, 123
2, 5405, Note_on_c, 2, 64, 127
2, 5407, Note_off_c, 2, 65, 1
2, 5408, Note_off_c, 3, 56, 1
2, 5497, Note_on_c, 3, 56, 123
2, 5498, Note_on_c, 2, 65, 127
2, 5500, Note_off_c, 2, 64, 1
2, 5501, Note_off_c, 3, 55, 1
2, 5591, Note_on_c, 4, 48, 123
2, 5593, Note_on_c, 1, 71, 127
2, 5594, Note_off_c, 2, 65, 1
2, 5595, Note_off_c, 3, 56, 1
2, 5596, Note_on_c, 2, 71, 52
2, 5597, Note_on_c, 0, 71, 45
2, 5688, Note_off_c, 4, 48, 1
2, 5689, Note_on_c, 3, 56, 123
2, 5690, Note_on_c, 2, 65, 127
2, 5691, Note_off_c, 1, 71, 1
2, 5694, Note_off_c, 2, 71, 1
2, 5695, Note_off_c, 0, 71, 1
2, 5777, Note_on_c, 0, 63, 127
2, 5777, Note_on_c, 3, 55, 123
2, 5780, Note_off_c, 3, 56, 1
2, 5780, Note_off_c, 2, 65, 1
2, 5865, Note_on_c, 3, 56, 123
2, 5866, Note_on_c, 2, 65, 127
2, 5868, Note_off_c, 3, 55, 1
2, 5868, Note_off_c, 0, 63, 1
2, 5952, Note_on_c, 4, 53, 123
2, 5953, Note_on_c, 3, 62, 123
2, 5955, Note_off_c, 2, 65, 1
2, 5956, Note_off_c, 3, 56, 1
2, 6048, Note_on_c, 2, 65, 127
2, 6048, Note_on_c, 3, 56, 123
2, 6050, Note_off_c, 3, 62, 1
2, 6051, Note_off_c, 4, 53, 1
2, 6137, Note_on_c, 0, 63, 127
2, 6137, Note_on_c, 3, 55, 123
2, 6140, Note_off_c, 3, 56, 1
2, 6140, Note_off_c, 2, 65, 1
2, 6225, Note_on_c, 3, 56, 123
2, 6226, Note_on_c, 2, 65, 127
2, 6228, Note_off_c, 3, 55, 1
2, 6228, Note_off_c, 0, 63, 1
2, 6315, Note_on_c, 4, 48, 123
2, 6317, Note_off_c, 2, 65, 1
2, 6317, Note_on_c, 1, 71, 127
2, 6317, Note_on_c, 2, 71, 64
2, 6318, Note_off_c, 3, 56, 1
2, 6318, Note_on_c, 0, 71, 49
2, 6409, Note_off_c, 4, 48, 1
2, 6409, Note_on_c, 3, 56, 123
2, 6410, Note_on_c, 2, 65, 127
2, 6411, Note_off_c, 2, 71, 1
2, 6411, Note_off_c, 1, 71, 1
2, 6412, Note_off_c, 0, 71, 1
2, 6499, Note_on_c, 0, 63, 127
2, 6499, Note_on_c, 3, 55, 123
2, 6502, Note_off_c, 3, 56, 1
2, 6502, Note_off_c, 2, 65, 1
2, 6588, Note_on_c, 2, 65, 127
2, 6588, Note_on_c, 3, 56, 123
2, 6591, Note_off_c, 3, 55, 1
2, 6591, Note_off_c, 0, 63, 1
2, 6677, Note_on_c, 3, 62, 123
2, 6677, Note_on_c, 4, 53, 123
2, 6679, Note_off_c, 2, 65, 1
2, 6680, Note_off_c, 3, 56, 1
2, 6771, Note_on_c, 2, 65, 127
2, 6771, Note_on_c, 3, 56, 123
2, 6773, Note_off_c, 3, 62, 1
2, 6774, Note_off_c, 4, 53, 1
2, 6860, Note_on_c, 3, 55, 123
2, 6861, Note_on_c, 0, 63, 127
2, 6863, Note_off_c, 3, 56, 1
2, 6863, Note_off_c, 2, 65, 1
2, 6950, Note_on_c, 3, 56, 123
2, 6951, Note_on_c, 2, 65, 127
2, 6953, Note_off_c, 0, 63, 1
2, 6953, Note_off_c, 3, 55, 1
2, 7041, Note_on_c, 4, 48, 123
2, 7043, Note_off_c, 2, 65, 1
2, 7043, Note_on_c, 1, 72, 127
2, 7043, Note_on_c, 2, 72, 64
2, 7044, Note_off_c, 3, 56, 1
2, 7044, Note_on_c, 0, 72, 62
2, 7137, Note_on_c, 2, 67, 127
2, 7137, Note_on_c, 4, 51, 123
2, 7139, Note_off_c, 4, 48, 1
2, 7141, Note_off_c, 2, 72, 1
2, 7141, Note_off_c, 1, 72, 1
2, 7142, Note_off_c, 0, 72, 1
2, 7229, Note_off_c, 4, 51, 1
2, 7229, Note_off_c, 2, 67, 1
2, 7229, Note_on_c, 2, 65, 127
2, 7229, Note_on_c, 4, 50, 123
2, 7318, Note_on_c, 4, 51, 123
2, 7319, Note_on_c, 2, 67, 127
2, 7321, Note_off_c, 4, 50, 1
2, 7321, Note_off_c, 2, 65, 1
2, 7406, Note_on_c, 3, 55, 123
2, 7407, Note_on_c, 0, 63, 127
2, 7410, Note_off_c, 2, 67, 1
2, 7411, Note_off_c, 4, 51, 1
2, 7502, Note_on_c, 4, 51, 123
2, 7503, Note_on_c, 2, 67, 127
2, 7505, Note_off_c, 0, 63, 1
2, 7506, Note_off_c, 3, 55, 1
2, 7593, Note_on_c, 2, 65, 127
2, 7593, Note_on_c, 4, 50, 123
2, 7596, Note_off_c, 2, 67, 1
2, 7596, Note_off_c, 4, 51, 1
2, 7683, Note_on_c, 2, 67, 127
2, 7683, Note_on_c, 4, 51, 123
2, 7686, Note_off_c, 4, 50, 1
2, 7686, Note_off_c, 2, 65, 1
2, 7775, Note_on_c, 4, 48, 123
2, 7776, Note_on_c, 1, 72, 127
2, 7777, Note_on_c, 2, 72, 52
2, 7778, Note_off_c, 4, 51, 1
2, 7778, Note_off_c, 2, 67, 1
2, 7778, Note_on_c, 0, 72, 45
2, 7870, Note_off_c, 4, 48, 1
2, 7871, Note_on_c, 4, 51, 123
2, 7872, Note_on_c, 2, 67, 127
2, 7873, Note_off_c, 1, 72, 1
2, 7874, Note_off_c, 2, 72, 1
2, 7875, Note_off_c, 0, 72, 1
2, 7957, Note_on_c, 4, 50, 123
2, 7958, Note_on_c, 2, 65, 127
2, 7960, Note_off_c, 2, 67, 1
2, 7961, Note_off_c, 4, 51, 1
2, 8046, Note_on_c, 2, 67, 127
2, 8046, Note_on_c, 4, 51, 123
2, 8049, Note_off_c, 2, 65, 1
2, 8050, Note_off_c, 4, 50, 1
2, 8133, Note_on_c, 3, 55, 123
2, 8134, Note_on_c, 0, 63, 127
2, 8136, Note_off_c, 4, 51, 1
2, 8136, Note_off_c, 2, 67, 1
2, 8229, Note_on_c, 4, 51, 123
2, 8230, Note_on_c, 2, 67, 127
2, 8232, Note_off_c, 3, 55, 1
2, 8232, Note_off_c, 0, 63, 1
2, 8318, Note_on_c, 4, 50, 123
2, 8319, Note_on_c, 2, 65, 127
2, 8321, Note_off_c, 2, 67, 1
2, 8322, Note_off_c, 4, 51, 1
2, 8407, Note_on_c, 2, 67, 127
2, 8407, Note_on_c, 4, 51, 123
2, 8410, Note_off_c, 4, 50, 1
2, 8410, Note_off_c, 2, 65, 1
2, 8498, Note_on_c, 4, 48, 123
2, 8499, Note_on_c, 1, 75, 127
2, 8499, Note_on_c, 2, 75, 64
2, 8500, Note_on_c, 0, 75, 68
2, 8501, Note_off_c, 4, 51, 1
2, 8501, Note_off_c, 2, 67, 1
2, 8594, Note_on_c, 2, 68, 127
2, 8594, Note_on_c, 3, 60, 123
2, 8595, Note_off_c, 4, 48, 1
2, 8598, Note_off_c, 2, 75, 1
2, 8598, Note_off_c, 1, 75, 1
2, 8599, Note_off_c, 0, 75, 1
2, 8682, Note_off_c, 2, 68, 1
2, 8684, Note_off_c, 3, 60, 1
2, 8684, Note_on_c, 2, 67, 127
2, 8684, Note_on_c, 3, 58, 123
2, 8775, Note_off_c, 2, 67, 1
2, 8775, Note_on_c, 2, 68, 127
2, 8775, Note_on_c, 3, 60, 123
2, 8776, Note_off_c, 3, 58, 1
2, 8865, Note_on_c, 3, 56, 123
2, 8866, Note_on_c, 0, 63, 127
2, 8867, Note_off_c, 2, 68, 1
2, 8870, Note_off_c, 3, 60, 1
2, 8955, Note_on_c, 3, 60, 123
2, 8956, Note_on_c, 2, 68, 127
2, 8959, Note_off_c, 3, 56, 1
2, 8959, Note_off_c, 0, 63, 1
2, 9047, Note_off_c, 2, 68, 1
2, 9047, Note_on_c, 3, 58, 123
2, 9048, Note_on_c, 2, 67, 127
2, 9049, Note_off_c, 3, 60, 1
2, 9141, Note_on_c, 2, 68, 127
2, 9141, Note_on_c, 3, 60, 123
2, 9144, Note_off_c, 3, 58, 1
2, 9144, Note_off_c, 2, 67, 1
2, 9231, Note_off_c, 2, 68, 1
2, 9232, Note_on_c, 4, 48, 123
2, 9233, Note_off_c, 3, 60, 1
2, 9233, Note_on_c, 1, 75, 127
2, 9233, Note_on_c, 2, 75, 64
2, 9234, Note_on_c, 0, 75, 58
2, 9329, Note_on_c, 2, 68, 127
2, 9329, Note_on_c, 3, 60, 123
2, 9330, Note_off_c, 4, 48, 1
2, 9332, Note_off_c, 2, 75, 1
2, 9332, Note_off_c, 1, 75, 1
2, 9333, Note_off_c, 0, 75, 1
2, 9416, Note_off_c, 2, 68, 1
2, 9419, Note_off_c, 3, 60, 1
2, 9419, Note_on_c, 2, 67, 127
2, 9419, Note_on_c, 3, 58, 123
2, 9510, Note_on_c, 3, 60, 123
2, 9511, Note_off_c, 2, 67, 1
2, 9511, Note_on_c, 2, 68, 127
2, 9512, Note_off_c, 3, 58, 1
2, 9598, Note_on_c, 3, 56, 123
2, 9599, Note_on_c, 0, 63, 127
2, 9601, Note_off_c, 2, 68, 1
2, 9604, Note_off_c, 3, 60, 1
2, 9696, Note_on_c, 2, 68, 127
2, 9696, Note_on_c, 3, 60, 123
2, 9697, Note_off_c, 0, 63, 1
2, 9698, Note_off_c, 3, 56, 1
2, 9786, Note_off_c, 2, 68, 1
2, 9786, Note_on_c, 3, 58, 123
2, 9787, Note_on_c, 2, 67, 127
2, 9789, Note_off_c, 3, 60, 1
2, 9877, Note_on_c, 2, 68, 127
2, 9877, Note_on_c, 3, 60, 123
2, 9880, Note_off_c, 3, 58, 1
2, 9880, Note_off_c, 2, 67, 1
2, 9970, Note_off_c, 2, 68, 1
2, 9971, Note_on_c, 4, 48, 123
2, 9973, Note_on_c, 1, 74, 127
2, 9974, Note_off_c, 3, 60, 1
2, 9974, Note_on_c, 2, 74, 64
2, 9975, Note_on_c, 0, 74, 62
2, 10063, Note_off_c, 4, 48, 1
2, 10064, Note_on_c, 3, 57, 123
2, 10065, Note_on_c, 2, 66, 127
2, 10066, Note_off_c, 1, 74, 1
2, 10067, Note_off_c, 2, 74, 1
2, 10068, Note_off_c, 0, 74, 1
2, 10152, Note_on_c, 3, 55, 123
2, 10153, Note_on_c, 2, 64, 127
2, 10156, Note_off_c, 2, 66, 1
2, 10157, Note_off_c, 3, 57, 1
2, 10242, Note_on_c, 2, 66, 127
2, 10242, Note_on_c, 3, 57, 123
2, 10245, Note_off_c, 2, 64, 1
2, 10245, Note_off_c, 3, 55, 1
2, 10331, Note_on_c, 4, 54, 123
2, 10332, Note_on_c, 3, 62, 123
2, 10334, Note_off_c, 3, 57, 1
2, 10334, Note_off_c, 2, 66, 1
2, 10426, Note_on_c, 3, 57, 123
2, 10427, Note_on_c, 2, 66, 127
2, 10429, Note_off_c, 3, 62, 1
2, 10429, Note_off_c, 4, 54, 1
2, 10513, Note_on_c, 3, 55, 123
2, 10514, Note_on_c, 2, 64, 127
2, 10516, Note_off_c, 2, 66, 1
2, 10517, Note_off_c, 3, 57, 1
2, 10603, Note_on_c, 2, 66, 127
2, 10603, Note_on_c, 3, 57, 123
2, 10606, Note_off_c, 3, 55, 1
2, 10606, Note_off_c, 2, 64, 1
2, 10692, Note_on_c, 4, 48, 123
2, 10693, Note_on_c, 1, 74, 127
2, 10693, Note_on_c, 2, 74, 64
2, 10694, Note_off_c, 3, 57, 1
2, 10694, Note_off_c, 2, 66, 1
2, 10694, Note_on_c, 0, 74, 62
2, 10786, Note_off_c, 4, 48, 1
2, 10787, Note_on_c, 3, 57, 123
2, 10788, Note_on_c, 2, 66, 127
2, 10789, Note_off_c, 2, 74, 1
2, 10789, Note_off_c, 1, 74, 1
2, 10790, Note_off_c, 0, 74, 1
2, 10874, Note_on_c, 3, 55, 123
2, 10875, Note_on_c, 2, 64, 127
2, 10877, Note_off_c, 2, 66, 1
2, 10878, Note_off_c, 3, 57, 1
2, 10963, Note_on_c, 2, 66, 127
2, 10963, Note_on_c, 3, 57, 123
2, 10966, Note_off_c, 2, 64, 1
2, 10966, Note_off_c, 3, 55, 1
2, 11051, Note_on_c, 3, 62, 123
2, 11051, Note_on_c, 4, 54, 123
2, 11054, Note_off_c, 3, 57, 1
2, 11054, Note_off_c, 2, 66, 1
2, 11146, Note_on_c, 3, 57, 123
2, 11147, Note_on_c, 2, 66, 127
2, 11149, Note_off_c, 4, 54, 1
2, 11149, Note_off_c, 3, 62, 1
2, 11234, Note_on_c, 2, 64, 127
2, 11234, Note_on_c, 3, 55, 123
2, 11236, Note_off_c, 2, 66, 1
2, 11237, Note_off_c, 3, 57, 1
2, 11322, Note_on_c, 3, 57, 123
2, 11323, Note_on_c, 2, 66, 127
2, 11325, Note_off_c, 3, 55, 1
2, 11325, Note_off_c, 2, 64, 1
2, 11411, Note_on_c, 4, 46, 123
2, 11413, Note_on_c, 1, 74, 127
2, 11414, Note_off_c, 2, 66, 1
2, 11414, Note_off_c, 3, 57, 1
2, 11414, Note_on_c, 2, 74, 64
2, 11415, Note_on_c, 0, 74, 62
2, 11504, Note_off_c, 2, 74, 1
2, 11504, Note_off_c, 4, 46, 1
2, 11505, Note_off_c, 0, 74, 1
2, 11505, Note_on_c, 2, 67, 127
2, 11505, Note_on_c, 3, 58, 123
2, 11509, Note_off_c, 1, 74, 1
2, 11593, Note_on_c, 2, 66, 127
2, 11593, Note_on_c, 3, 57, 123
2, 11596, Note_off_c, 2, 67, 1
2, 11597, Note_off_c, 3, 58, 1
2, 11683, Note_on_c, 3, 58, 123
2, 11684, Note_on_c, 2, 67, 127
2, 11687, Note_off_c, 3, 57, 1
2, 11687, Note_off_c, 2, 66, 1
2, 11774, Note_on_c, 3, 55, 123
2, 11775, Note_on_c, 3, 62, 123
2, 11778, Note_off_c, 3, 58, 1
2, 11778, Note_off_c, 2, 67, 1
2, 11871, Note_on_c, 3, 58, 123
2, 11872, Note_on_c, 2, 67, 127
2, 11874, Note_off_c, 3, 62, 1
2, 11875, Note_off_c, 3, 55, 1
2, 11959, Note_on_c, 2, 66, 127
2, 11959, Note_on_c, 3, 57, 123
2, 11962, Note_off_c, 2, 67, 1
2, 11962, Note_off_c, 3, 58, 1
2, 12047, Note_on_c, 3, 58, 123
2, 12048, Note_on_c, 2, 67, 127
2, 12051, Note_off_c, 3, 57, 1
2, 12051, Note_off_c, 2, 66, 1
2, 12137, Note_on_c, 4, 46, 123
2, 12138, Note_on_c, 1, 74, 127
2, 12138, Note_on_c, 2, 74, 64
2, 12139, Note_off_c, 2, 67, 1
2, 12139, Note_on_c, 0, 74, 70
2, 12140, Note_off_c, 3, 58, 1
2, 12229, Note_off_c, 4, 46, 1
2, 12230, Note_on_c, 3, 58, 123
2, 12231, Note_on_c, 2, 67, 127
2, 12232, Note_off_c, 2, 74, 1
2, 12232, Note_off_c, 1, 74, 1
2, 12233, Note_off_c, 0, 74, 1
2, 12318, Note_on_c, 2, 66, 127
2, 12318, Note_on_c, 3, 57, 123
2, 12321, Note_off_c, 3, 58, 1
2, 12321, Note_off_c, 2, 67, 1
2, 12405, Note_on_c, 3, 58, 123
2, 12406, Note_on_c, 2, 67, 127
2, 12408, Note_off_c, 3, 57, 1
2, 12408, Note_off_c, 2, 66, 1
2, 12496, Note_on_c, 3, 55, 123
2, 12497, Note_on_c, 3, 62, 123
2, 12499, Note_off_c, 2, 67, 1
2, 12500, Note_off_c, 3, 58, 1
2, 12592, Note_on_c, 3, 58, 123
2, 12593, Note_on_c, 2, 67, 127
2, 12595, Note_off_c, 3, 62, 1
2, 12596, Note_off_c, 3, 55, 1
2, 12683, Note_on_c, 2, 66, 127
2, 12683, Note_on_c, 3, 57, 123
2, 12685, Note_off_c, 2, 67, 1
2, 12686, Note_off_c, 3, 58, 1
2, 12772, Note_on_c, 2, 67, 127
2, 12772, Note_on_c, 3, 58, 123
2, 12775, Note_off_c, 3, 57, 1
2, 12775, Note_off_c, 2, 66, 1
2, 12864, Note_on_c, 4, 46, 123
2, 12865, Note_on_c, 1, 72, 127
2, 12866, Note_on_c, 2, 72, 64
2, 12867, Note_off_c, 3, 58, 1
2, 12867, Note_off_c, 2, 67, 1
2, 12867, Note_on_c, 0, 72, 70
2, 12951, Note_off_c, 0, 72, 1
2, 12956, Note_off_c, 4, 46, 1
2, 12957, Note_on_c, 3, 55, 123
2, 12958, Note_on_c, 2, 64, 127
2, 12959, Note_off_c, 1, 72, 1
2, 12960, Note_off_c, 2, 72, 1
2, 13044, Note_on_c, 4, 53, 123
2, 13045, Note_on_c, 3, 62, 123
2, 13047, Note_off_c, 2, 64, 1
2, 13048, Note_off_c, 3, 55, 1
2, 13134, Note_on_c, 2, 64, 127
2, 13134, Note_on_c, 3, 55, 123
2, 13137, Note_off_c, 3, 62, 1
2, 13137, Note_off_c, 4, 53, 1
2, 13225, Note_on_c, 3, 60, 123
2, 13225, Note_on_c, 4, 52, 123
2, 13228, Note_off_c, 3, 55, 1
2, 13228, Note_off_c, 2, 64, 1
2, 13322, Note_on_c, 2, 64, 127
2, 13322, Note_on_c, 3, 55, 123
2, 13325, Note_off_c, 4, 52, 1
2, 13325, Note_off_c, 3, 60, 1
2, 13411, Note_on_c, 3, 62, 123
2, 13411, Note_on_c, 4, 53, 123
2, 13413, Note_off_c, 2, 64, 1
2, 13414, Note_off_c, 3, 55, 1
2, 13498, Note_on_c, 3, 55, 123
2, 13499, Note_on_c, 2, 64, 127
2, 13500, Note_off_c, 3, 62, 1
2, 13501, Note_off_c, 4, 53, 1
2, 13587, Note_on_c, 4, 46, 123
2, 13588, Note_on_c, 1, 72, 127
2, 13589, Note_on_c, 2, 72, 64
2, 13590, Note_off_c, 2, 64, 1
2, 13590, Note_off_c, 3, 55, 1
2, 13590, Note_on_c, 0, 72, 70
2, 13654, Note_off_c, 0, 72, 1
2, 13681, Note_off_c, 4, 46, 1
2, 13682, Note_on_c, 2, 64, 127
2, 13682, Note_on_c, 3, 55, 123
2, 13687, Note_off_c, 2, 72, 1
2, 13689, Note_off_c, 1, 72, 1
2, 13771, Note_on_c, 3, 62, 123
2, 13771, Note_on_c, 4, 53, 123
2, 13773, Note_off_c, 2, 64, 1
2, 13774, Note_off_c, 3, 55, 1
2, 13859, Note_on_c, 3, 55, 123
2, 13860, Note_on_c, 2, 64, 127
2, 13861, Note_off_c, 3, 62, 1
2, 13862, Note_off_c, 4, 53, 1
2, 13948, Note_on_c, 4, 52, 123
2, 13949, Note_on_c, 3, 60, 123
2, 13952, Note_off_c, 3, 55, 1
2, 13952, Note_off_c, 2, 64, 1
2, 14042, Note_on_c, 3, 55, 123
2, 14043, Note_on_c, 2, 64, 127
2, 14045, Note_off_c, 3, 60, 1
2, 14045, Note_off_c, 4, 52, 1
2, 14131, Note_on_c, 3, 62, 123
2, 14131, Note_on_c, 4, 53, 123
2, 14134, Note_off_c, 2, 64, 1
2, 14134, Note_off_c, 3, 55, 1
2, 14223, Note_off_c, 3, 62, 1
2, 14223, Note_on_c, 2, 64, 127
2, 14224, Note_off_c, 4, 53, 1
2, 14224, Note_on_c, 3, 55, 123
2, 14313, Note_on_c, 4, 44, 123
2, 14314, Note_on_c, 1, 72, 127
2, 14314, Note_on_c, 2, 72, 64
2, 14315, Note_on_c, 0, 72, 70
2, 14318, Note_off_c, 2, 64, 1
2, 14319, Note_off_c, 3, 55, 1
2, 14375, Note_off_c, 0, 72, 1
2, 14405, Note_off_c, 4, 44, 1
2, 14406, Note_on_c, 3, 56, 123
2, 14407, Note_on_c, 2, 65, 127
2, 14414, Note_off_c, 2, 72, 1
2, 14416, Note_off_c, 1, 72, 1
2, 14494, Note_on_c, 2, 64, 127
2, 14494, Note_on_c, 3, 55, 123
2, 14496, Note_off_c, 2, 65, 1
2, 14497, Note_off_c, 3, 56, 1
2, 14580, Note_on_c, 2, 65, 127
2, 14580, Note_on_c, 3, 56, 123
2, 14583, Note_off_c, 3, 55, 1
2, 14583, Note_off_c, 2, 64, 1
2, 14668, Note_on_c, 4, 53, 123
2, 14669, Note_on_c, 3, 60, 123
2, 14672, Note_off_c, 2, 65, 1
2, 14673, Note_off_c, 3, 56, 1
2, 14767, Note_on_c, 3, 56, 123
2, 14768, Note_on_c, 2, 65, 127
2, 14770, Note_off_c, 3, 60, 1
2, 14771, Note_off_c, 4, 53, 1
2, 14855, Note_on_c, 2, 64, 127
2, 14855, Note_on_c, 3, 55, 123
2, 14857, Note_off_c, 2, 65, 1
2, 14858, Note_off_c, 3, 56, 1
2, 14943, Note_on_c, 2, 65, 127
2, 14943, Note_on_c, 3, 56, 123
2, 14946, Note_off_c, 3, 55, 1
2, 14946, Note_off_c, 2, 64, 1
2, 15031, Note_on_c, 4, 44, 123
2, 15032, Note_on_c, 1, 72, 127
2, 15032, Note_on_c, 2, 72, 64
2, 15033, Note_off_c, 2, 65, 1
2, 15033, Note_on_c, 0, 72, 70
2, 15034, Note_off_c, 3, 56, 1
2, 15095, Note_off_c, 0, 72, 1
2, 15126, Note_off_c, 4, 44, 1
2, 15127, Note_on_c, 3, 56, 123
2, 15128, Note_on_c, 2, 65, 127
2, 15136, Note_off_c, 2, 72, 1
2, 15138, Note_off_c, 1, 72, 1
2, 15214, Note_on_c, 2, 64, 127
2, 15214, Note_on_c, 3, 55, 123
2, 15216, Note_off_c, 2, 65, 1
2, 15217, Note_off_c, 3, 56, 1
2, 15301, Note_on_c, 2, 65, 127
2, 15301, Note_on_c, 3, 56, 123
2, 15304, Note_off_c, 3, 55, 1
2, 15304, Note_off_c, 2, 64, 1
2, 15391, Note_on_c, 4, 53, 123
2, 15392, Note_on_c, 3, 60, 123
2, 15394, Note_off_c, 2, 65, 1
2, 15395, Note_off_c, 3, 56, 1
2, 15486, Note_on_c, 2, 65, 127
2, 15486, Note_on_c, 3, 56, 123
2, 15488, Note_off_c, 3, 60, 1
2, 15489, Note_off_c, 4, 53, 1
2, 15574, Note_on_c, 2, 64, 127
2, 15574, Note_on_c, 3, 55, 123
2, 15576, Note_off_c, 2, 65, 1
2, 15577, Note_off_c, 3, 56, 1
2, 15661, Note_on_c, 2, 65, 127
2, 15661, Note_on_c, 3, 56, 123
2, 15664, Note_off_c, 3, 55, 1
2, 15664, Note_off_c, 2, 64, 1
2, 15750, Note_on_c, 4, 44, 123
2, 15752, Note_off_c, 2, 65, 1
2, 15752, Note_on_c, 1, 70, 127
2, 15752, Note_on_c, 2, 70, 64
2, 15753, Note_off_c, 3, 56, 1
2, 15753, Note_on_c, 0, 70, 62
2, 15835, Note_off_c, 0, 70, 1
2, 15842, Note_off_c, 4, 44, 1
2, 15844, Note_on_c, 2, 65, 127
2, 15844, Note_on_c, 4, 50, 123
2, 15848, Note_off_c, 2, 70, 1
2, 15850, Note_off_c, 1, 70, 1
2, 15931, Note_on_c, 0, 63, 127
2, 15931, Note_on_c, 4, 48, 123
2, 15934, Note_off_c, 4, 50, 1
2, 15934, Note_off_c, 2, 65, 1
2, 16020, Note_off_c, 4, 48, 1
2, 16020, Note_on_c, 2, 65, 127
2, 16020, Note_on_c, 4, 50, 123
2, 16022, Note_off_c, 0, 63, 1
2, 16109, Note_on_c, 3, 62, 123
2, 16109, Note_on_c, 4, 53, 123
2, 16111, Note_off_c, 2, 65, 1
2, 16112, Note_off_c, 4, 50, 1
2, 16206, Note_on_c, 2, 65, 127
2, 16206, Note_on_c, 4, 50, 123
2, 16209, Note_off_c, 4, 53, 1
2, 16209, Note_off_c, 3, 62, 1
2, 16295, Note_on_c, 0, 63, 127
2, 16296, Note_on_c, 4, 48, 123
2, 16297, Note_off_c, 2, 65, 1
2, 16298, Note_off_c, 4, 50, 1
2, 16383, Note_off_c, 4, 48, 1
2, 16384, Note_on_c, 2, 65, 127
2, 16384, Note_on_c, 4, 50, 123
2, 16386, Note_off_c, 0, 63, 1
2, 16473, Note_on_c, 4, 44, 123
2, 16475, Note_on_c, 1, 70, 127
2, 16475, Note_on_c, 2, 70, 64
2, 16476, Note_off_c, 4, 50, 1
2, 16476, Note_off_c, 2, 65, 1
2, 16476, Note_on_c, 0, 70, 62
2, 16546, Note_off_c, 0, 70, 1
2, 16566, Note_off_c, 4, 44, 1
2, 16567, Note_on_c, 2, 65, 127
2, 16567, Note_on_c, 4, 50, 123
2, 16574, Note_off_c, 2, 70, 1
2, 16576, Note_off_c, 1, 70, 1
2, 16654, Note_on_c, 0, 63, 127
2, 16655, Note_on_c, 4, 48, 123
2, 16657, Note_off_c, 4, 50, 1
2, 16657, Note_off_c, 2, 65, 1
2, 16743, Note_off_c, 4, 48, 1
2, 16744, Note_on_c, 2, 65, 127
2, 16744, Note_on_c, 4, 50, 123
2, 16746, Note_off_c, 0, 63, 1
2, 16836, Note_on_c, 3, 62, 123
2, 16836, Note_on_c, 4, 53, 123
2, 16838, Note_off_c, 2, 65, 1
2, 16839, Note_off_c, 4, 50, 1
2, 16931, Note_on_c, 2, 65, 127
2, 16931, Note_on_c, 4, 50, 123
2, 16933, Note_off_c, 3, 62, 1
2, 16934, Note_off_c, 4, 53, 1
2, 17019, Note_on_c, 0, 63, 127
2, 17019, Note_on_c, 4, 48, 123
2, 17022, Note_off_c, 4, 50, 1
2, 17022, Note_off_c, 2, 65, 1
2, 17108, Note_off_c, 4, 48, 1
2, 17109, Note_on_c, 2, 65, 127
2, 17109, Note_on_c, 4, 50, 123
2, 17111, Note_off_c, 0, 63, 1
2, 17197, Note_on_c, 4, 43, 123
2, 17198, Note_on_c, 1, 70, 127
2, 17198, Note_on_c, 2, 70, 64
2, 17199, Note_on_c, 0, 70, 62
2, 17200, Note_off_c, 2, 65, 1
2, 17201, Note_off_c, 4, 50, 1
2, 17267, Note_off_c, 0, 70, 1
2, 17291, Note_off_c, 4, 43, 1
2, 17292, Note_on_c, 2, 67, 127
2, 17292, Note_on_c, 4, 51, 123
2, 17304, Note_off_c, 2, 70, 1
2, 17306, Note_off_c, 1, 70, 1
2, 17382, Note_on_c, 2, 65, 127
2, 17382, Note_on_c, 4, 50, 123
2, 17385, Note_off_c, 4, 51, 1
2, 17385, Note_off_c, 2, 67, 1
2, 17471, Note_on_c, 4, 51, 123
2, 17472, Note_on_c, 2, 67, 127
2, 17474, Note_off_c, 4, 50, 1
2, 17474, Note_off_c, 2, 65, 1
2, 17559, Note_on_c, 3, 55, 123
2, 17560, Note_on_c, 0, 63, 127
2, 17562, Note_off_c, 2, 67, 1
2, 17563, Note_off_c, 4, 51, 1
2, 17651, Note_on_c, 2, 67, 127
2, 17651, Note_on_c, 4, 51, 123
2, 17653, Note_off_c, 0, 63, 1
2, 17654, Note_off_c, 3, 55, 1
2, 17739, Note_on_c, 2, 65, 127
2, 17739, Note_on_c, 4, 50, 123
2, 17742, Note_off_c, 4, 51, 1
2, 17742, Note_off_c, 2, 67, 1
2, 17826, Note_on_c, 4, 51, 123
2, 17827, Note_on_c, 2, 67, 127
2, 17829, Note_off_c, 2, 65, 1
2, 17830, Note_off_c, 4, 50, 1
2, 17916, Note_on_c, 4, 43, 123
2, 17918, Note_off_c, 2, 67, 1
2, 17918, Note_on_c, 1, 70, 127
2, 17918, Note_on_c, 2, 70, 64
2, 17919, Note_off_c, 4, 51, 1
2, 17919, Note_on_c, 0, 70, 62
2, 17987, Note_off_c, 0, 70, 1
2, 18007, Note_off_c, 4, 43, 1
2, 18008, Note_on_c, 2, 67, 127
2, 18008, Note_on_c, 4, 51, 123
2, 18018, Note_off_c, 2, 70, 1
2, 18020, Note_off_c, 1, 70, 1
2, 18095, Note_on_c, 2, 65, 127
2, 18095, Note_on_c, 4, 50, 123
2, 18097, Note_off_c, 2, 67, 1
2, 18098, Note_off_c, 4, 51, 1
2, 18183, Note_on_c, 2, 67, 127
2, 18183, Note_on_c, 4, 51, 123
2, 18185, Note_off_c, 2, 65, 1
2, 18186, Note_off_c, 4, 50, 1
2, 18272, Note_on_c, 0, 63, 127
2, 18272, Note_on_c, 3, 55, 123
2, 18275, Note_off_c, 4, 51, 1
2, 18275, Note_off_c, 2, 67, 1
2, 18364, Note_on_c, 4, 51, 123
2, 18365, Note_on_c, 2, 67, 127
2, 18367, Note_off_c, 3, 55, 1
2, 18367, Note_off_c, 0, 63, 1
2, 18455, Note_on_c, 2, 65, 127
2, 18455, Note_on_c, 4, 50, 123
2, 18457, Note_off_c, 2, 67, 1
2, 18457, Note_off_c, 4, 51, 1
2, 18542, Note_on_c, 2, 67, 127
2, 18542, Note_on_c, 4, 51, 123
2, 18544, Note_off_c, 2, 65, 1
2, 18545, Note_off_c, 4, 50, 1
2, 18630, Note_on_c, 4, 48, 123
2, 18631, Note_on_c, 1, 68, 127
2, 18631, Note_on_c, 2, 68, 64
2, 18632, Note_on_c, 0, 68, 91
2, 18633, Note_off_c, 4, 51, 1
2, 18633, Note_off_c, 2, 67, 1
2, 18721, Note_off_c, 4, 48, 1
2, 18722, Note_on_c, 4, 51, 123
2, 18723, Note_on_c, 2, 67, 127
2, 18725, Note_off_c, 0, 68, 1
2, 18726, Note_off_c, 2, 68, 1
2, 18728, Note_off_c, 1, 68, 1
2, 18810, Note_on_c, 2, 65, 127
2, 18810, Note_on_c, 4, 50, 123
2, 18813, Note_off_c, 2, 67, 1
2, 18813, Note_off_c, 4, 51, 1
2, 18899, Note_on_c, 4, 51, 123
2, 18900, Note_on_c, 2, 67, 127
2, 18902, Note_off_c, 4, 50, 1
2, 18902, Note_off_c, 2, 65, 1
2, 18988, Note_on_c, 3, 56, 123
2, 18989, Note_on_c, 0, 63, 127
2, 18991, Note_off_c, 2, 67, 1
2, 18992, Note_off_c, 4, 51, 1
2, 19081, Note_on_c, 4, 51, 123
2, 19082, Note_on_c, 2, 67, 127
2, 19084, Note_off_c, 0, 63, 1
2, 19085, Note_off_c, 3, 56, 1
2, 19169, Note_on_c, 2, 65, 127
2, 19169, Note_on_c, 4, 50, 123
2, 19173, Note_off_c, 2, 67, 1
2, 19173, Note_off_c, 4, 51, 1
2, 19258, Note_on_c, 4, 51, 123
2, 19259, Note_on_c, 2, 67, 127
2, 19261, Note_off_c, 4, 50, 1
2, 19261, Note_off_c, 2, 65, 1
2, 19349, Note_on_c, 4, 48, 123
2, 19350, Note_on_c, 1, 68, 127
2, 19350, Note_on_c, 2, 68, 64
2, 19351, Note_off_c, 2, 67, 1
2, 19351, Note_on_c, 0, 68, 101
2, 19352, Note_off_c, 4, 51, 1
2, 19441, Note_off_c, 4, 48, 1
2, 19442, Note_on_c, 4, 51, 123
2, 19443, Note_on_c, 2, 67, 127
2, 19445, Note_off_c, 0, 68, 1
2, 19446, Note_off_c, 2, 68, 1
2, 19448, Note_off_c, 1, 68, 1
2, 19529, Note_on_c, 2, 65, 127
2, 19529, Note_on_c, 4, 50, 123
2, 19532, Note_off_c, 2, 67, 1
2, 19532, Note_off_c, 4, 51, 1
2, 19616, Note_on_c, 4, 51, 123
2, 19617, Note_on_c, 2, 67, 127
2, 19619, Note_off_c, 2, 65, 1
2, 19620, Note_off_c, 4, 50, 1
2, 19703, Note_on_c, 0, 63, 127
2, 19703, Note_on_c, 3, 56, 123
2, 19705, Note_off_c, 2, 67, 1
2, 19706, Note_off_c, 4, 51, 1
2, 19797, Note_on_c, 2, 67, 127
2, 19797, Note_on_c, 4, 51, 123
2, 19800, Note_off_c, 3, 56, 1
2, 19800, Note_off_c, 0, 63, 1
2, 19884, Note_on_c, 2, 65, 127
2, 19884, Note_on_c, 4, 50, 123
2, 19887, Note_off_c, 4, 51, 1
2, 19887, Note_off_c, 2, 67, 1
2, 19971, Note_on_c, 4, 51, 123
2, 19972, Note_on_c, 2, 67, 127
2, 19975, Note_off_c, 2, 65, 1
2, 19976, Note_off_c, 4, 50, 1
2, 20062, Note_on_c, 4, 50, 123
2, 20064, Note_off_c, 2, 67, 1
2, 20064, Note_on_c, 1, 68, 127
2, 20064, Note_on_c, 2, 68, 64
2, 20065, Note_off_c, 4, 51, 1
2, 20065, Note_on_c, 0, 68, 106
2, 20158, Note_off_c, 2, 68, 1
2, 20158, Note_on_c, 4, 53, 123
2, 20159, Note_on_c, 3, 62, 123
2, 20160, Note_off_c, 4, 50, 1
2, 20162, Note_off_c, 1, 68, 1
2, 20165, Note_off_c, 0, 68, 1
2, 20247, Note_on_c, 3, 60, 123
2, 20247, Note_on_c, 4, 51, 123
2, 20250, Note_off_c, 4, 53, 1
2, 20250, Note_off_c, 3, 62, 1
2, 20336, Note_on_c, 4, 53, 123
2, 20337, Note_on_c, 3, 62, 123
2, 20339, Note_off_c, 3, 60, 1
2, 20340, Note_off_c, 4, 51, 1
2, 20425, Note_on_c, 3, 56, 123
2, 20425, Note_on_c, 3, 58, 123
2, 20427, Note_off_c, 3, 62, 1
2, 20428, Note_off_c, 4, 53, 1
2, 20521, Note_on_c, 3, 62, 123
2, 20521, Note_on_c, 4, 53, 123
2, 20524, Note_off_c, 3, 58, 1
2, 20524, Note_off_c, 3, 56, 1
2, 20608, Note_on_c, 3, 60, 123
2, 20608, Note_on_c, 4, 51, 123
2, 20611, Note_off_c, 4, 53, 1
2, 20611, Note_off_c, 3, 62, 1
2, 20696, Note_on_c, 3, 62, 123
2, 20696, Note_on_c, 4, 53, 123
2, 20698, Note_off_c, 3, 60, 1
2, 20699, Note_off_c, 4, 51, 1
2, 20786, Note_on_c, 4, 50, 123
2, 20788, Note_off_c, 3, 62, 1
2, 20788, Note_on_c, 1, 68, 127
2, 20788, Note_on_c, 2, 68, 64
2, 20789, Note_off_c, 4, 53, 1
2, 20789, Note_on_c, 0, 68, 84
2, 20882, Note_on_c, 4, 53, 123
2, 20883, Note_on_c, 3, 62, 123
2, 20885, Note_off_c, 4, 50, 1
2, 20886, Note_off_c, 2, 68, 1
2, 20886, Note_off_c, 0, 68, 1
2, 20888, Note_off_c, 1, 68, 1
2, 20970, Note_on_c, 4, 51, 123
2, 20971, Note_on_c, 3, 60, 123
2, 20973, Note_off_c, 3, 62, 1
2, 20973, Note_off_c, 4, 53, 1
2, 21059, Note_on_c, 3, 62, 123
2, 21059, Note_on_c, 4, 53, 123
2, 21061, Note_off_c, 3, 60, 1
2, 21061, Note_off_c, 4, 51, 1
2, 21147, Note_on_c, 3, 56, 123
2, 21147, Note_on_c, 3, 58, 123
2, 21150, Note_off_c, 4, 53, 1
2, 21150, Note_off_c, 3, 62, 1
2, 21244, Note_on_c, 3, 62, 123
2, 21244, Note_on_c, 4, 53, 123
2, 21247, Note_off_c, 3, 58, 1
2, 21247, Note_off_c, 3, 56, 1
2, 21332, Note_on_c, 4, 51, 123
2, 21333, Note_on_c, 3, 60, 123
2, 21335, Note_off_c, 4, 53, 1
2, 21335, Note_off_c, 3, 62, 1
2, 21422, Note_on_c, 4, 53, 123
2, 21423, Note_on_c, 3, 62, 123
2, 21425, Note_off_c, 3, 60, 1
2, 21426, Note_off_c, 4, 51, 1
2, 21512, Note_on_c, 4, 51, 123
2, 21514, Note_on_c, 1, 67, 127
2, 21514, Note_on_c, 2, 67, 64
2, 21515, Note_on_c, 0, 67, 56
2, 21516, Note_off_c, 3, 62, 1
2, 21516, Note_off_c, 4, 53, 1
2, 21587, Note_off_c, 0, 67, 1
2, 21605, Note_off_c, 4, 51, 1
2, 21607, Note_on_c, 3, 58, 123
2, 21607, Note_on_c, 3, 55, 123
2, 21612, Note_off_c, 2, 67, 1
2, 21614, Note_off_c, 1, 67, 1
2, 21694, Note_off_c, 3, 55, 1
2, 21695, Note_off_c, 3, 58, 1
2, 21695, Note_on_c, 3, 56, 123
2, 21696, Note_on_c, 4, 53, 123
2, 21782, Note_off_c, 4, 53, 1
2, 21783, Note_off_c, 3, 56, 1
2, 21784, Note_on_c, 3, 58, 123
2, 21785, Note_on_c, 3, 55, 123
2, 21874, Note_off_c, 3, 58, 1
2, 21874, Note_off_c, 3, 55, 1
2, 21876, Note_on_c, 3, 56, 123
2, 21878, Note_on_c, 1, 63, 127
2, 21878, Note_on_c, 2, 63, 70
2, 21879, Note_on_c, 0, 63, 77
2, 21975, Note_off_c, 3, 56, 1
2, 21976, Note_on_c, 3, 58, 123
2, 21977, Note_on_c, 3, 55, 123
2, 21978, Note_off_c, 2, 63, 1
2, 21978, Note_off_c, 1, 63, 1
2, 21979, Note_off_c, 0, 63, 1
2, 22062, Note_off_c, 3, 55, 1
2, 22062, Note_off_c, 3, 58, 1
2, 22064, Note_on_c, 3, 56, 123
2, 22064, Note_on_c, 4, 53, 123
2, 22150, Note_off_c, 4, 53, 1
2, 22151, Note_off_c, 3, 56, 1
2, 22151, Note_on_c, 3, 58, 123
2, 22152, Note_on_c, 3, 55, 123
2, 22240, Note_off_c, 3, 55, 1
2, 22241, Note_off_c, 3, 58, 1
2, 22242, Note_on_c, 4, 51, 123
2, 22243, Note_on_c, 1, 67, 127
2, 22243, Note_on_c, 2, 67, 77
2, 22244, Note_on_c, 0, 67, 84
2, 22325, Note_off_c, 0, 67, 1
2, 22334, Note_off_c, 4, 51, 1
2, 22335, Note_on_c, 3, 58, 123
2, 22336, Note_on_c, 3, 55, 123
2, 22352, Note_off_c, 2, 67, 1
2, 22354, Note_off_c, 1, 67, 1
2, 22423, Note_off_c, 3, 55, 1
2, 22423, Note_off_c, 3, 58, 1
2, 22424, Note_on_c, 3, 56, 123
2, 22425, Note_on_c, 4, 53, 123
2, 22511, Note_off_c, 4, 53, 1
2, 22512, Note_off_c, 3, 56, 1
2, 22513, Note_on_c, 3, 55, 123
2, 22513, Note_on_c, 3, 58, 123
2, 22599, Note_off_c, 3, 55, 1
2, 22600, Note_off_c, 3, 58, 1
2, 22601, Note_on_c, 3, 56, 123
2, 22602, Note_on_c, 1, 63, 127
2, 22602, Note_on_c, 2, 63, 77
2, 22603, Note_on_c, 0, 63, 84
2, 22698, Note_off_c, 3, 56, 1
2, 22700, Note_on_c, 3, 58, 123
2, 22700, Note_on_c, 3, 55, 123
2, 22701, Note_off_c, 2, 63, 1
2, 22701, Note_off_c, 1, 63, 1
2, 22702, Note_off_c, 0, 63, 1
2, 22787, Note_off_c, 3, 55, 1
2, 22787, Note_off_c, 3, 58, 1
2, 22789, Note_on_c, 3, 56, 123
2, 22789, Note_on_c, 4, 53, 123
2, 22876, Note_off_c, 4, 53, 1
2, 22876, Note_off_c, 3, 56, 1
2, 22878, Note_on_c, 3, 58, 123
2, 22879, Note_on_c, 3, 55, 123
2, 22965, Note_off_c, 3, 55, 1
2, 22966, Note_off_c, 3, 58, 1
2, 22967, Note_on_c, 4, 51, 123
2, 22969, Note_on_c, 1, 65, 127
2, 22969, Note_on_c, 2, 65, 70
2, 22970, Note_on_c, 0, 65, 77
2, 23058, Note_off_c, 4, 51, 1
2, 23061, Note_off_c, 0, 65, 1
2, 23061, Note_on_c, 3, 60, 123
2, 23061, Note_on_c, 3, 57, 123
2, 23080, Note_off_c, 2, 65, 1
2, 23082, Note_off_c, 1, 65, 1
2, 23147, Note_off_c, 3, 57, 1
2, 23147, Note_off_c, 3, 60, 1
2, 23149, Note_on_c, 3, 58, 123
2, 23149, Note_on_c, 3, 55, 123
2, 23236, Note_off_c, 3, 55, 1
2, 23236, Note_off_c, 3, 58, 1
2, 23237, Note_on_c, 3, 60, 123
2, 23238, Note_on_c, 3, 57, 123
2, 23327, Note_off_c, 3, 60, 1
2, 23327, Note_off_c, 3, 57, 1
2, 23328, Note_on_c, 3, 57, 123
2, 23329, Note_on_c, 4, 53, 123
2, 23413, Note_off_c, 3, 57, 1
2, 23426, Note_off_c, 4, 53, 1
2, 23427, Note_on_c, 3, 60, 123
2, 23428, Note_on_c, 3, 57, 123
2, 23515, Note_off_c, 3, 57, 1
2, 23515, Note_off_c, 3, 60, 1
2, 23516, Note_on_c, 3, 55, 123
2, 23516, Note_on_c, 3, 58, 123
2, 23603, Note_off_c, 3, 58, 1
2, 23603, Note_off_c, 3, 55, 1
2, 23605, Note_on_c, 3, 60, 123
2, 23605, Note_on_c, 3, 57, 123
2, 23694, Note_off_c, 3, 57, 1
2, 23695, Note_off_c, 3, 60, 1
2, 23696, Note_on_c, 4, 51, 123
2, 23697, Note_on_c, 1, 65, 127
2, 23697, Note_on_c, 2, 65, 64
2, 23698, Note_on_c, 0, 65, 70
2, 23772, Note_off_c, 0, 65, 1
2, 23789, Note_off_c, 4, 51, 1
2, 23790, Note_on_c, 3, 60, 123
2, 23791, Note_on_c, 3, 57, 123
2, 23822, Note_off_c, 2, 65, 1
2, 23824, Note_off_c, 1, 65, 1
2, 23877, Note_off_c, 3, 57, 1
2, 23877, Note_off_c, 3, 60, 1
2, 23879, Note_on_c, 3, 58, 123
2, 23879, Note_on_c, 3, 55, 123
2, 23966, Note_off_c, 3, 55, 1
2, 23966, Note_off_c, 3, 58, 1
2, 23968, Note_on_c, 3, 57, 123
2, 23968, Note_on_c, 3, 60, 123
2, 24057, Note_off_c, 3, 57, 1
2, 24058, Note_off_c, 3, 60, 1
2, 24058, Note_on_c, 3, 57, 123
2, 24059, Note_on_c, 4, 53, 123
2, 24141, Note_off_c, 3, 57, 1
2, 24153, Note_off_c, 4, 53, 1
2, 24154, Note_on_c, 3, 60, 123
2, 24155, Note_on_c, 3, 57, 123
2, 24241, Note_off_c, 3, 57, 1
2, 24242, Note_off_c, 3, 60, 1
2, 24242, Note_on_c, 3, 58, 123
2, 24243, Note_on_c, 3, 55, 123
2, 24331, Note_off_c, 3, 55, 1
2, 24331, Note_off_c, 3, 58, 1
2, 24333, Note_on_c, 3, 60, 123
2, 24333, Note_on_c, 3, 57, 123
2, 24420, Note_off_c, 3, 57, 1
2, 24420, Note_off_c, 3, 60, 1
2, 24421, Note_on_c, 4, 50, 123
2, 24423, Note_on_c, 1, 65, 127
2, 24423, Note_on_c, 2, 65, 64
2, 24424, Note_on_c, 0, 65, 70
2, 24486, Note_off_c, 0, 65, 1
2, 24515, Note_on_c, 4, 53, 123
2, 24516, Note_on_c, 3, 62, 123
2, 24518, Note_off_c, 4, 50, 1
2, 24548, Note_off_c, 2, 65, 1
2, 24550, Note_off_c, 1, 65, 1
2, 24603, Note_on_c, 4, 51, 123
2, 24604, Note_on_c, 3, 60, 123
2, 24606, Note_off_c, 3, 62, 1
2, 24607, Note_off_c, 4, 53, 1
2, 24692, Note_on_c, 3, 62, 123
2, 24692, Note_on_c, 4, 53, 123
2, 24695, Note_off_c, 3, 60, 1
2, 24695, Note_off_c, 4, 51, 1
2, 24778, Note_on_c, 3, 59, 123
2, 24779, Note_on_c, 3, 56, 123
2, 24781, Note_off_c, 4, 53, 1
2, 24781, Note_off_c, 3, 62, 1
2, 24874, Note_on_c, 3, 62, 123
2, 24874, Note_on_c, 4, 53, 123
2, 24876, Note_off_c, 3, 56, 1
2, 24876, Note_off_c, 3, 59, 1
2, 24962, Note_on_c, 4, 51, 123
2, 24963, Note_on_c, 3, 60, 123
2, 24965, Note_off_c, 3, 62, 1
2, 24966, Note_off_c, 4, 53, 1
2, 25052, Note_on_c, 3, 62, 123
2, 25052, Note_on_c, 4, 53, 123
2, 25055, Note_off_c, 3, 60, 1
2, 25055, Note_off_c, 4, 51, 1
2, 25141, Note_on_c, 4, 50, 123
2, 25142, Note_on_c, 1, 65, 127
2, 25142, Note_on_c, 2, 65, 64
2, 25143, Note_on_c, 0, 65, 70
2, 25144, Note_off_c, 4, 53, 1
2, 25144, Note_off_c, 3, 62, 1
2, 25216, Note_off_c, 0, 65, 1
2, 25236, Note_on_c, 3, 62, 123
2, 25236, Note_on_c, 4, 53, 123
2, 25239, Note_off_c, 4, 50, 1
2, 25270, Note_off_c, 2, 65, 1
2, 25272, Note_off_c, 1, 65, 1
2, 25325, Note_on_c, 3, 60, 123
2, 25325, Note_on_c, 4, 51, 123
2, 25327, Note_off_c, 3, 62, 1
2, 25328, Note_off_c, 4, 53, 1
2, 25412, Note_on_c, 4, 53, 123
2, 25413, Note_on_c, 3, 62, 123
2, 25415, Note_off_c, 4, 51, 1
2, 25415, Note_off_c, 3, 60, 1
2, 25500, Note_on_c, 3, 59, 123
2, 25500, Note_on_c, 3, 56, 123
2, 25502, Note_off_c, 4, 53, 1
2, 25502, Note_off_c, 3, 62, 1
2, 25601, Note_on_c, 4, 53, 123
2, 25602, Note_on_c, 3, 62, 123
2, 25604, Note_off_c, 3, 56, 1
2, 25604, Note_off_c, 3, 59, 1
2, 25692, Note_on_c, 3, 60, 123
2, 25692, Note_on_c, 4, 51, 123
2, 25694, Note_off_c, 4, 53, 1
2, 25694, Note_off_c, 3, 62, 1
2, 25781, Note_on_c, 3, 62, 123
2, 25781, Note_on_c, 4, 53, 123
2, 25784, Note_off_c, 4, 51, 1
2, 25784, Note_off_c, 3, 60, 1
2, 25873, Note_on_c, 4, 48, 123
2, 25875, Note_on_c, 1, 65, 127
2, 25875, Note_on_c, 2, 65, 64
2, 25876, Note_on_c, 0, 65, 70
2, 25877, Note_off_c, 4, 53, 1
2, 25877, Note_off_c, 3, 62, 1
2, 25938, Note_off_c, 0, 65, 1
2, 25966, Note_off_c, 4, 48, 1
2, 25967, Note_on_c, 3, 62, 123
2, 25967, Note_on_c, 4, 53, 123
2, 26012, Note_off_c, 2, 65, 1
2, 26014, Note_off_c, 1, 65, 1
2, 26055, Note_on_c, 4, 52, 123
2, 26056, Note_on_c, 3, 60, 123
2, 26058, Note_off_c, 4, 53, 1
2, 26058, Note_off_c, 3, 62, 1
2, 26142, Note_on_c, 3, 62, 123
2, 26142, Note_on_c, 4, 53, 123
2, 26145, Note_off_c, 3, 60, 1
2, 26145, Note_off_c, 4, 52, 1
2, 26232, Note_on_c, 3, 56, 123
2, 26232, Note_on_c, 3, 59, 123
2, 26235, Note_off_c, 4, 53, 1
2, 26235, Note_off_c, 3, 62, 1
2, 26330, Note_on_c, 3, 62, 123
2, 26330, Note_on_c, 4, 53, 123
2, 26333, Note_off_c, 3, 59, 1
2, 26333, Note_off_c, 3, 56, 1
2, 26415, Note_on_c, 4, 52, 123
2, 26416, Note_on_c, 3, 60, 123
2, 26418, Note_off_c, 3, 62, 1
2, 26419, Note_off_c, 4, 53, 1
2, 26503, Note_on_c, 3, 62, 123
2, 26503, Note_on_c, 4, 53, 123
2, 26506, Note_off_c, 3, 60, 1
2, 26506, Note_off_c, 4, 52, 1
2, 26591, Note_on_c, 2, 65, 64
2, 26591, Note_on_c, 4, 48, 123
2, 26592, Note_on_c, 0, 65, 70
2, 26592, Note_on_c, 1, 65, 127
2, 26593, Note_off_c, 4, 53, 1
2, 26593, Note_off_c, 3, 62, 1
2, 26666, Note_off_c, 0, 65, 1
2, 26685, Note_off_c, 4, 48, 1
2, 26686, Note_on_c, 3, 62, 123
2, 26686, Note_on_c, 4, 53, 123
2, 26729, Note_off_c, 2, 65, 1
2, 26731, Note_off_c, 1, 65, 1
2, 26773, Note_on_c, 4, 52, 123
2, 26774, Note_on_c, 3, 60, 123
2, 26776, Note_off_c, 3, 62, 1
2, 26777, Note_off_c, 4, 53, 1
2, 26862, Note_on_c, 3, 62, 123
2, 26862, Note_on_c, 4, 53, 123
2, 26865, Note_off_c, 3, 60, 1
2, 26865, Note_off_c, 4, 52, 1
2, 26953, Note_on_c, 3, 56, 123
2, 26953, Note_on_c, 3, 59, 123
2, 26957, Note_off_c, 4, 53, 1
2, 26957, Note_off_c, 3, 62, 1
2, 27047, Note_on_c, 4, 53, 123
2, 27048, Note_on_c, 3, 62, 123
2, 27050, Note_off_c, 3, 59, 1
2, 27050, Note_off_c, 3, 56, 1
2, 27133, Note_on_c, 4, 52, 123
2, 27134, Note_on_c, 3, 60, 123
2, 27136, Note_off_c, 3, 62, 1
2, 27137, Note_off_c, 4, 53, 1
2, 27221, Note_on_c, 3, 62, 123
2, 27221, Note_on_c, 4, 53, 123
2, 27223, Note_off_c, 3, 60, 1
2, 27223, Note_off_c, 4, 52, 1
2, 27311, Note_on_c, 4, 48, 123
2, 27313, Note_on_c, 1, 63, 127
2, 27313, Note_on_c, 2, 63, 64
2, 27314, Note_off_c, 4, 53, 1
2, 27314, Note_off_c, 3, 62, 1
2, 27314, Note_on_c, 0, 63, 62
2, 27393, Note_off_c, 0, 63, 1
2, 27409, Note_off_c, 4, 48, 1
2, 27409, Note_on_c, 4, 51, 123
2, 27410, Note_on_c, 3, 60, 123
2, 27412, Note_off_c, 2, 63, 1
2, 27416, Note_off_c, 1, 63, 1
2, 27500, Note_on_c, 3, 59, 123
2, 27500, Note_on_c, 4, 50, 123
2, 27502, Note_off_c, 3, 60, 1
2, 27503, Note_off_c, 4, 51, 1
2, 27587, Note_on_c, 4, 51, 123
2, 27588, Note_on_c, 3, 60, 123
2, 27589, Note_off_c, 3, 59, 1
2, 27590, Note_off_c, 4, 50, 1
2, 27672, Note_on_c, 4, 53, 123
2, 27673, Note_on_c, 3, 55, 123
2, 27676, Note_off_c, 4, 51, 1
2, 27676, Note_off_c, 3, 60, 1
2, 27770, Note_on_c, 4, 51, 123
2, 27771, Note_on_c, 3, 60, 123
2, 27773, Note_off_c, 3, 55, 1
2, 27773, Note_off_c, 4, 53, 1
2, 27859, Note_on_c, 3, 59, 123
2, 27859, Note_on_c, 4, 50, 123
2, 27861, Note_off_c, 3, 60, 1
2, 27862, Note_off_c, 4, 51, 1
2, 27946, Note_on_c, 4, 51, 123
2, 27947, Note_on_c, 3, 60, 123
2, 27948, Note_off_c, 3, 59, 1
2, 27949, Note_off_c, 4, 50, 1
2, 28035, Note_on_c, 4, 46, 123
2, 28036, Note_on_c, 1, 63, 127
2, 28036, Note_on_c, 2, 63, 64
2, 28037, Note_off_c, 3, 60, 1
2, 28037, Note_off_c, 4, 51, 1
2, 28037, Note_on_c, 0, 63, 84
2, 28111, Note_off_c, 0, 63, 1
2, 28128, Note_off_c, 4, 46, 1
2, 28128, Note_on_c, 3, 60, 123
2, 28128, Note_on_c, 4, 51, 123
2, 28131, Note_off_c, 2, 63, 1
2, 28135, Note_off_c, 1, 63, 1
2, 28217, Note_on_c, 3, 59, 123
2, 28217, Note_on_c, 4, 50, 123
2, 28220, Note_off_c, 4, 51, 1
2, 28220, Note_off_c, 3, 60, 1
2, 28305, Note_on_c, 4, 51, 123
2, 28306, Note_on_c, 3, 60, 123
2, 28308, Note_off_c, 4, 50, 1
2, 28308, Note_off_c, 3, 59, 1
2, 28394, Note_on_c, 4, 53, 123
2, 28395, Note_on_c, 3, 55, 123
2, 28397, Note_off_c, 3, 60, 1
2, 28398, Note_off_c, 4, 51, 1
2, 28494, Note_on_c, 4, 51, 123
2, 28495, Note_on_c, 3, 60, 123
2, 28497, Note_off_c, 3, 55, 1
2, 28497, Note_off_c, 4, 53, 1
2, 28583, Note_on_c, 3, 59, 123
2, 28583, Note_on_c, 4, 50, 123
2, 28585, Note_off_c, 3, 60, 1
2, 28586, Note_off_c, 4, 51, 1
2, 28672, Note_on_c, 3, 60, 123
2, 28672, Note_on_c, 4, 51, 123
2, 28675, Note_off_c, 4, 50, 1
2, 28675, Note_off_c, 3, 59, 1
2, 28763, Note_on_c, 4, 53, 123
2, 28764, Note_on_c, 4, 44, 123
2, 28766, Note_off_c, 4, 51, 1
2, 28766, Note_off_c, 3, 60, 1
2, 28854, Note_off_c, 4, 44, 1
2, 28855, Note_on_c, 0, 63, 127
2, 28855, Note_on_c, 4, 48, 123
2, 28857, Note_off_c, 4, 53, 1
2, 28942, Note_off_c, 4, 48, 1
2, 28942, Note_on_c, 3, 62, 123
2, 28943, Note_on_c, 4, 47, 123
2, 28944, Note_off_c, 0, 63, 1
2, 29028, Note_off_c, 4, 47, 1
2, 29028, Note_on_c, 0, 63, 127
2, 29029, Note_on_c, 4, 48, 123
2, 29031, Note_off_c, 3, 62, 1
2, 29114, Note_on_c, 4, 50, 123
2, 29116, Note_off_c, 4, 48, 1
2, 29116, Note_on_c, 1, 65, 127
2, 29116, Note_on_c, 2, 65, 64
2, 29117, Note_on_c, 0, 65, 74
2, 29119, Note_off_c, 0, 63, 1
2, 29211, Note_off_c, 4, 50, 1
2, 29211, Note_on_c, 0, 63, 127
2, 29212, Note_on_c, 4, 48, 123
2, 29214, Note_off_c, 2, 65, 1
2, 29214, Note_off_c, 1, 65, 1
2, 29215, Note_off_c, 0, 65, 1
2, 29299, Note_off_c, 4, 48, 1
2, 29299, Note_on_c, 3, 62, 123
2, 29300, Note_on_c, 4, 47, 123
2, 29302, Note_off_c, 0, 63, 1
2, 29386, Note_off_c, 4, 47, 1
2, 29387, Note_on_c, 0, 63, 127
2, 29387, Note_on_c, 4, 48, 123
2, 29389, Note_off_c, 3, 62, 1
2, 29474, Note_off_c, 4, 48, 1
2, 29475, Note_on_c, 4, 44, 123
2, 29475, Note_on_c, 4, 53, 123
2, 29478, Note_off_c, 0, 63, 1
2, 29568, Note_off_c, 4, 44, 1
2, 29569, Note_on_c, 0, 63, 127
2, 29569, Note_on_c, 4, 48, 123
2, 29571, Note_off_c, 4, 53, 1
2, 29654, Note_off_c, 4, 48, 1
2, 29654, Note_on_c, 3, 62, 123
2, 29655, Note_on_c, 4, 47, 123
2, 29658, Note_off_c, 0, 63, 1
2, 29743, Note_off_c, 4, 47, 1
2, 29743, Note_on_c, 0, 63, 127
2, 29743, Note_on_c, 4, 48, 123
2, 29746, Note_off_c, 3, 62, 1
2, 29832, Note_on_c, 4, 50, 123
2, 29834, Note_on_c, 1, 65, 127
2, 29834, Note_on_c, 2, 65, 64
2, 29835, Note_off_c, 4, 48, 1
2, 29835, Note_on_c, 0, 65, 74
2, 29838, Note_off_c, 0, 63, 1
2, 29929, Note_off_c, 4, 50, 1
2, 29930, Note_on_c, 0, 63, 127
2, 29930, Note_on_c, 4, 48, 123
2, 29932, Note_off_c, 2, 65, 1
2, 29932, Note_off_c, 1, 65, 1
2, 29933, Note_off_c, 0, 65, 1
2, 30018, Note_off_c, 4, 48, 1
2, 30019, Note_on_c, 3, 62, 123
2, 30019, Note_on_c, 4, 47, 123
2, 30021, Note_off_c, 0, 63, 1
2, 30107, Note_off_c, 4, 47, 1
2, 30107, Note_on_c, 0, 63, 127
2, 30108, Note_on_c, 4, 48, 123
2, 30109, Note_off_c, 3, 62, 1
2, 30194, Note_off_c, 4, 48, 1
2, 30194, Note_on_c, 4, 54, 123
2, 30195, Note_on_c, 4, 45, 123
2, 30196, Note_off_c, 0, 63, 1
2, 30287, Note_off_c, 4, 45, 1
2, 30288, Note_on_c, 3, 60, 123
2, 30288, Note_on_c, 4, 51, 123
2, 30289, Note_off_c, 4, 54, 1
2, 30375, Note_on_c, 4, 50, 123
2, 30376, Note_on_c, 3, 59, 123
2, 30378, Note_off_c, 4, 51, 1
2, 30378, Note_off_c, 3, 60, 1
2, 30464, Note_on_c, 3, 60, 123
2, 30464, Note_on_c, 4, 51, 123
2, 30467, Note_off_c, 3, 59, 1
2, 30467, Note_off_c, 4, 50, 1
2, 30552, Note_on_c, 4, 48, 123
2, 30554, Note_on_c, 1, 63, 127
2, 30555, Note_on_c, 2, 63, 70
2, 30556, Note_off_c, 4, 51, 1
2, 30556, Note_off_c, 3, 60, 1
2, 30556, Note_on_c, 0, 63, 92
2, 30649, Note_off_c, 4, 48, 1
2, 30649, Note_on_c, 4, 51, 123
2, 30650, Note_on_c, 3, 60, 123
2, 30654, Note_off_c, 1, 63, 1
2, 30655, Note_off_c, 2, 63, 1
2, 30656, Note_off_c, 0, 63, 1
2, 30737, Note_on_c, 4, 50, 123
2, 30738, Note_on_c, 3, 59, 123
2, 30740, Note_off_c, 4, 51, 1
2, 30740, Note_off_c, 3, 60, 1
2, 30825, Note_on_c, 3, 60, 123
2, 30825, Note_on_c, 4, 51, 123
2, 30828, Note_off_c, 3, 59, 1
2, 30828, Note_off_c, 4, 50, 1
2, 30913, Note_on_c, 4, 45, 123
2, 30913, Note_on_c, 4, 54, 123
2, 30916, Note_off_c, 4, 51, 1
2, 30916, Note_off_c, 3, 60, 1
2, 31005, Note_off_c, 4, 45, 1
2, 31006, Note_on_c, 3, 60, 123
2, 31006, Note_on_c, 4, 51, 123
2, 31008, Note_off_c, 4, 54, 1
2, 31093, Note_on_c, 4, 50, 123
2, 31094, Note_on_c, 3, 59, 123
2, 31096, Note_off_c, 3, 60, 1
2, 31097, Note_off_c, 4, 51, 1
2, 31182, Note_on_c, 3, 60, 123
2, 31182, Note_on_c, 4, 51, 123
2, 31185, Note_off_c, 3, 59, 1
2, 31185, Note_off_c, 4, 50, 1
2, 31271, Note_on_c, 4, 48, 123
2, 31272, Note_on_c, 1, 63, 127
2, 31273, Note_on_c, 2, 63, 70
2, 31274, Note_off_c, 4, 51, 1
2, 31274, Note_off_c, 3, 60, 1
2, 31274, Note_on_c, 0, 63, 92
2, 31365, Note_off_c, 4, 48, 1
2, 31366, Note_on_c, 4, 51, 123
2, 31366, Note_on_c, 3, 60, 123
2, 31370, Note_off_c, 1, 63, 1
2, 31371, Note_off_c, 2, 63, 1
2, 31372, Note_off_c, 0, 63, 1
2, 31452, Note_on_c, 4, 50, 123
2, 31453, Note_on_c, 3, 59, 123
2, 31455, Note_off_c, 3, 60, 1
2, 31456, Note_off_c, 4, 51, 1
2, 31540, Note_on_c, 3, 60, 123
2, 31540, Note_on_c, 4, 51, 123
2, 31543, Note_off_c, 3, 59, 1
2, 31543, Note_off_c, 4, 50, 1
2, 31628, Note_on_c, 4, 43, 123
2, 31630, Note_off_c, 3, 60, 1
2, 31630, Note_on_c, 1, 63, 127
2, 31631, Note_off_c, 4, 51, 1
2, 31631, Note_on_c, 2, 63, 70
2, 31632, Note_on_c, 0, 63, 92
2, 31693, Note_off_c, 0, 63, 1
2, 31719, Note_off_c, 4, 43, 1
2, 31720, Note_on_c, 3, 60, 123
2, 31720, Note_on_c, 4, 51, 123
2, 31722, Note_off_c, 2, 63, 1
2, 31727, Note_off_c, 1, 63, 1
2, 31808, Note_on_c, 3, 59, 123
2, 31808, Note_on_c, 4, 50, 123
2, 31811, Note_off_c, 4, 51, 1
2, 31811, Note_off_c, 3, 60, 1
2, 31896, Note_on_c, 3, 60, 123
2, 31896, Note_on_c, 4, 51, 123
2, 31899, Note_off_c, 4, 50, 1
2, 31899, Note_off_c, 3, 59, 1
2, 31985, Note_on_c, 4, 53, 123
2, 31986, Note_on_c, 3, 55, 123
2, 31988, Note_off_c, 3, 60, 1
2, 31989, Note_off_c, 4, 51, 1
2, 32083, Note_on_c, 3, 60, 123
2, 32083, Note_on_c, 4, 51, 123
2, 32085, Note_off_c, 3, 55, 1
2, 32086, Note_off_c, 4, 53, 1
2, 32170, Note_on_c, 3, 59, 123
2, 32170, Note_on_c, 4, 50, 123
2, 32172, Note_off_c, 3, 60, 1
2, 32173, Note_off_c, 4, 51, 1
2, 32256, Note_on_c, 4, 51, 123
2, 32257, Note_on_c, 3, 60, 123
2, 32259, Note_off_c, 4, 50, 1
2, 32259, Note_off_c, 3, 59, 1
2, 32346, Note_on_c, 4, 43, 123
2, 32347, Note_on_c, 1, 63, 127
2, 32348, Note_off_c, 3, 60, 1
2, 32348, Note_on_c, 2, 63, 70
2, 32349, Note_off_c, 4, 51, 1
2, 32349, Note_on_c, 0, 63, 92
2, 32411, Note_off_c, 0, 63, 1
2, 32437, Note_off_c, 4, 43, 1
2, 32437, Note_on_c, 3, 60, 123
2, 32437, Note_on_c, 4, 51, 123
2, 32439, Note_off_c, 2, 63, 1
2, 32444, Note_off_c, 1, 63, 1
2, 32523, Note_on_c, 4, 50, 123
2, 32524, Note_on_c, 3, 59, 123
2, 32526, Note_off_c, 4, 51, 1
2, 32526, Note_off_c, 3, 60, 1
2, 32612, Note_on_c, 3, 60, 123
2, 32612, Note_on_c, 4, 51, 123
2, 32614, Note_off_c, 3, 59, 1
2, 32615, Note_off_c, 4, 50, 1
2, 32700, Note_on_c, 3, 55, 123
2, 32700, Note_on_c, 4, 53, 123
2, 32704, Note_off_c, 4, 51, 1
2, 32704, Note_off_c, 3, 60, 1
2, 32796, Note_on_c, 3, 60, 123
2, 32796, Note_on_c, 4, 51, 123
2, 32799, Note_off_c, 4, 53, 1
2, 32799, Note_off_c, 3, 55, 1
2, 32883, Note_on_c, 4, 50, 123
2, 32884, Note_on_c, 3, 59, 123
2, 32886, Note_off_c, 4, 51, 1
2, 32886, Note_off_c, 3, 60, 1
2, 32971, Note_on_c, 3, 60, 123
2, 32971, Note_on_c, 4, 51, 123
2, 32974, Note_off_c, 3, 59, 1
2, 32974, Note_off_c, 4, 50, 1
2, 33058, Note_on_c, 4, 43, 123
2, 33059, Note_on_c, 1, 66, 127
2, 33060, Note_off_c, 4, 51, 1
2, 33060, Note_off_c, 3, 60, 1
2, 33060, Note_on_c, 2, 66, 64
2, 33061, Note_on_c, 0, 66, 70
2, 33134, Note_off_c, 0, 66, 1
2, 33152, Note_off_c, 4, 43, 1
2, 33153, Note_on_c, 3, 60, 123
2, 33153, Note_on_c, 4, 51, 123
2, 33193, Note_off_c, 2, 66, 1
2, 33195, Note_off_c, 1, 66, 1
2, 33239, Note_on_c, 3, 59, 123
2, 33239, Note_on_c, 4, 50, 123
2, 33241, Note_off_c, 3, 60, 1
2, 33242, Note_off_c, 4, 51, 1
2, 33326, Note_on_c, 3, 60, 123
2, 33326, Note_on_c, 4, 51, 123
2, 33329, Note_off_c, 4, 50, 1
2, 33329, Note_off_c, 3, 59, 1
2, 33415, Note_on_c, 3, 57, 123
2, 33416, Note_on_c, 4, 48, 123
2, 33418, Note_off_c, 3, 60, 1
2, 33419, Note_off_c, 4, 51, 1
2, 33504, Note_off_c, 4, 48, 1
2, 33505, Note_on_c, 3, 60, 123
2, 33505, Note_on_c, 4, 51, 123
2, 33508, Note_off_c, 3, 57, 1
2, 33594, Note_on_c, 3, 59, 123
2, 33594, Note_on_c, 4, 50, 123
2, 33597, Note_off_c, 4, 51, 1
2, 33597, Note_off_c, 3, 60, 1
2, 33682, Note_on_c, 4, 51, 123
2, 33683, Note_on_c, 3, 60, 123
2, 33685, Note_off_c, 4, 50, 1
2, 33685, Note_off_c, 3, 59, 1
2, 33772, Note_on_c, 4, 43, 123
2, 33773, Note_on_c, 1, 66, 127
2, 33774, Note_off_c, 3, 60, 1
2, 33774, Note_on_c, 2, 66, 64
2, 33775, Note_off_c, 4, 51, 1
2, 33775, Note_on_c, 0, 66, 70
2, 33849, Note_off_c, 0, 66, 1
2, 33866, Note_off_c, 4, 43, 1
2, 33867, Note_on_c, 3, 60, 123
2, 33867, Note_on_c, 4, 51, 123
2, 33901, Note_off_c, 2, 66, 1
2, 33903, Note_off_c, 1, 66, 1
2, 33954, Note_on_c, 3, 59, 123
2, 33954, Note_on_c, 4, 50, 123
2, 33957, Note_off_c, 4, 51, 1
2, 33957, Note_off_c, 3, 60, 1
2, 34041, Note_on_c, 4, 51, 123
2, 34042, Note_on_c, 3, 60, 123
2, 34044, Note_off_c, 4, 50, 1
2, 34044, Note_off_c, 3, 59, 1
2, 34129, Note_on_c, 3, 57, 123
2, 34130, Note_on_c, 4, 48, 123
2, 34132, Note_off_c, 3, 60, 1
2, 34133, Note_off_c, 4, 51, 1
2, 34222, Note_off_c, 4, 48, 1
2, 34222, Note_on_c, 4, 51, 123
2, 34223, Note_on_c, 3, 60, 123
2, 34225, Note_off_c, 3, 57, 1
2, 34313, Note_on_c, 3, 59, 123
2, 34313, Note_on_c, 4, 50, 123
2, 34316, Note_off_c, 3, 60, 1
2, 34316, Note_off_c, 4, 51, 1
2, 34400, Note_on_c, 4, 51, 123
2, 34401, Note_on_c, 3, 60, 123
2, 34403, Note_off_c, 3, 59, 1
2, 34404, Note_off_c, 4, 50, 1
2, 34488, Note_on_c, 4, 43, 123
2, 34490, Note_off_c, 3, 60, 1
2, 34490, Note_on_c, 1, 67, 127
2, 34491, Note_off_c, 4, 51, 1
2, 34491, Note_on_c, 2, 67, 64
2, 34492, Note_on_c, 0, 67, 70
2, 34571, Note_off_c, 0, 67, 1
2, 34580, Note_off_c, 4, 43, 1
2, 34581, Note_on_c, 3, 60, 123
2, 34581, Note_on_c, 4, 51, 123
2, 34609, Note_off_c, 2, 67, 1
2, 34611, Note_off_c, 1, 67, 1
2, 34668, Note_on_c, 3, 59, 123
2, 34668, Note_on_c, 4, 50, 123
2, 34670, Note_off_c, 4, 51, 1
2, 34670, Note_off_c, 3, 60, 1
2, 34755, Note_on_c, 3, 60, 123
2, 34755, Note_on_c, 4, 51, 123
2, 34757, Note_off_c, 3, 59, 1
2, 34758, Note_off_c, 4, 50, 1
2, 34841, Note_on_c, 3, 62, 123
2, 34842, Note_on_c, 4, 53, 123
2, 34843, Note_on_c, 3, 62, 62
2, 34844, Note_off_c, 4, 51, 1
2, 34844, Note_off_c, 3, 60, 1
2, 34936, Note_on_c, 4, 51, 123
2, 34937, Note_on_c, 3, 60, 123
2, 34939, Note_off_c, 4, 53, 1
2, 34939, Note_off_c, 3, 62, 1
2, 34941, Note_off_c, 3, 62, 1
2, 35023, Note_on_c, 3, 59, 123
2, 35023, Note_on_c, 4, 50, 123
2, 35025, Note_off_c, 3, 60, 1
2, 35026, Note_off_c, 4, 51, 1
2, 35111, Note_on_c, 4, 51, 123
2, 35112, Note_on_c, 3, 60, 123
2, 35114, Note_off_c, 4, 50, 1
2, 35114, Note_off_c, 3, 59, 1
2, 35198, Note_on_c, 4, 43, 123
2, 35199, Note_on_c, 1, 67, 127
2, 35199, Note_on_c, 2, 67, 64
2, 35200, Note_off_c, 3, 60, 1
2, 35200, Note_off_c, 4, 51, 1
2, 35200, Note_on_c, 0, 67, 70
2, 35291, Note_off_c, 4, 43, 1
2, 35291, Note_on_c, 4, 51, 123
2, 35292, Note_on_c, 3, 60, 123
2, 35294, Note_off_c, 0, 67, 1
2, 35308, Note_off_c, 2, 67, 1
2, 35310, Note_off_c, 1, 67, 1
2, 35379, Note_on_c, 3, 59, 123
2, 35379, Note_on_c, 4, 50, 123
2, 35381, Note_off_c, 3, 60, 1
2, 35382, Note_off_c, 4, 51, 1
2, 35466, Note_on_c, 4, 51, 123
2, 35467, Note_on_c, 3, 60, 123
2, 35469, Note_off_c, 3, 59, 1
2, 35470, Note_off_c, 4, 50, 1
2, 35553, Note_on_c, 3, 62, 123
2, 35553, Note_on_c, 4, 53, 123
2, 35555, Note_on_c, 3, 62, 62
2, 35556, Note_off_c, 4, 51, 1
2, 35556, Note_off_c, 3, 60, 1
2, 35646, Note_on_c, 3, 60, 123
2, 35646, Note_on_c, 4, 51, 123
2, 35649, Note_off_c, 4, 53, 1
2, 35649, Note_off_c, 3, 62, 1
2, 35651, Note_off_c, 3, 62, 1
2, 35734, Note_on_c, 4, 50, 123
2, 35735, Note_on_c, 3, 59, 123
2, 35737, Note_off_c, 4, 51, 1
2, 35737, Note_off_c, 3, 60, 1
2, 35820, Note_on_c, 3, 60, 123
2, 35820, Note_on_c, 4, 51, 123
2, 35822, Note_off_c, 3, 59, 1
2, 35823, Note_off_c, 4, 50, 1
2, 35909, Note_on_c, 4, 43, 123
2, 35911, Note_on_c, 1, 68, 127
2, 35911, Note_on_c, 2, 68, 64
2, 35912, Note_off_c, 4, 51, 1
2, 35912, Note_off_c, 3, 60, 1
2, 35912, Note_on_c, 0, 68, 70
2, 36002, Note_off_c, 4, 43, 1
2, 36002, Note_off_c, 0, 68, 1
2, 36003, Note_on_c, 3, 60, 123
2, 36003, Note_on_c, 4, 51, 123
2, 36006, Note_off_c, 2, 68, 1
2, 36008, Note_off_c, 1, 68, 1
2, 36091, Note_on_c, 4, 50, 123
2, 36092, Note_on_c, 3, 59, 123
2, 36094, Note_off_c, 3, 60, 1
2, 36095, Note_off_c, 4, 51, 1
2, 36180, Note_on_c, 3, 60, 123
2, 36180, Note_on_c, 4, 51, 123
2, 36182, Note_off_c, 3, 59, 1
2, 36183, Note_off_c, 4, 50, 1
2, 36268, Note_on_c, 3, 62, 123
2, 36268, Note_on_c, 4, 53, 123
2, 36270, Note_on_c, 3, 62, 62
2, 36271, Note_off_c, 4, 51, 1
2, 36271, Note_off_c, 3, 60, 1
2, 36361, Note_on_c, 3, 60, 123
2, 36361, Note_on_c, 4, 51, 123
2, 36364, Note_off_c, 4, 53, 1
2, 36364, Note_off_c, 3, 62, 1
2, 36366, Note_off_c, 3, 62, 1
2, 36450, Note_on_c, 4, 50, 123
2, 36451, Note_on_c, 3, 59, 123
2, 36453, Note_off_c, 3, 60, 1
2, 36454, Note_off_c, 4, 51, 1
2, 36538, Note_on_c, 3, 60, 123
2, 36538, Note_on_c, 4, 51, 123
2, 36540, Note_off_c, 3, 59, 1
2, 36541, Note_off_c, 4, 50, 1
2, 36624, Note_on_c, 2, 68, 127
2, 36624, Note_on_c, 4, 43, 123
2, 36627, Note_off_c, 4, 51, 1
2, 36627, Note_off_c, 3, 60, 1
2, 36627, Note_on_c, 0, 68, 70
2, 36628, Note_on_c, 1, 68, 64
2, 36709, Note_off_c, 0, 68, 1
2, 36719, Note_off_c, 4, 43, 1
2, 36720, Note_off_c, 2, 68, 1
2, 36720, Note_on_c, 3, 60, 123
2, 36720, Note_on_c, 4, 51, 123
2, 36724, Note_off_c, 1, 68, 1
2, 36807, Note_on_c, 4, 50, 123
2, 36808, Note_on_c, 3, 59, 123
2, 36810, Note_off_c, 3, 60, 1
2, 36811, Note_off_c, 4, 51, 1
2, 36896, Note_on_c, 4, 51, 123
2, 36897, Note_on_c, 3, 60, 123
2, 36899, Note_off_c, 3, 59, 1
2, 36899, Note_off_c, 4, 50, 1
2, 36984, Note_on_c, 3, 62, 123
2, 36985, Note_on_c, 4, 53, 123
2, 36986, Note_on_c, 3, 62, 62
2, 36987, Note_off_c, 4, 51, 1
2, 36987, Note_off_c, 3, 60, 1
2, 37081, Note_on_c, 3, 60, 123
2, 37081, Note_on_c, 4, 51, 123
2, 37085, Note_off_c, 4, 53, 1
2, 37085, Note_off_c, 3, 62, 1
2, 37087, Note_off_c, 3, 62, 1
2, 37172, Note_on_c, 3, 59, 123
2, 37172, Note_on_c, 4, 50, 123
2, 37175, Note_off_c, 3, 60, 1
2, 37176, Note_off_c, 4, 51, 1
2, 37263, Note_on_c, 3, 60, 123
2, 37263, Note_on_c, 4, 51, 123
2, 37265, Note_off_c, 3, 59, 1
2, 37266, Note_off_c, 4, 50, 1
2, 37356, Note_on_c, 4, 43, 123
2, 37357, Note_off_c, 3, 60, 1
2, 37358, Note_off_c, 4, 51, 1
2, 37420, Note_off_c, 4, 43, 1
2, 37421, Note_on_c, 4, 47, 123
2, 37481, Note_off_c, 4, 47, 1
2, 37481, Note_on_c, 4, 50, 123
2, 37539, Note_on_c, 4, 53, 123
2, 37541, Note_off_c, 4, 50, 1
2, 37595, Note_on_c, 3, 56, 123
2, 37596, Note_off_c, 4, 53, 1
2, 37650, Note_on_c, 4, 53, 123
2, 37652, Note_off_c, 3, 56, 1
2, 37704, Note_on_c, 4, 52, 123
2, 37705, Note_off_c, 4, 53, 1
2, 37756, Note_on_c, 4, 53, 123
2, 37758, Note_off_c, 4, 52, 1
2, 37808, Note_on_c, 3, 59, 123
2, 37810, Note_off_c, 4, 53, 1
2, 37861, Note_on_c, 4, 53, 123
2, 37863, Note_off_c, 3, 59, 1
2, 37911, Note_on_c, 3, 62, 123
2, 37919, Note_off_c, 4, 53, 1
2, 37971, Note_off_c, 3, 62, 1
2, 37975, Note_on_c, 3, 59, 123
2, 38036, Note_on_c, 3, 56, 123
2, 38038, Note_off_c, 3, 59, 1
2, 38098, Note_on_c, 4, 53, 123
2, 38100, Note_off_c, 3, 56, 1
2, 38162, Note_on_c, 4, 52, 123
2, 38165, Note_off_c, 4, 53, 1
2, 38230, Note_on_c, 4, 53, 123
2, 38232, Note_off_c, 4, 52, 1
2, 38297, Note_on_c, 4, 43, 123
2, 38299, Note_off_c, 4, 53, 1
2, 38357, Note_off_c, 4, 43, 1
2, 38358, Note_on_c, 4, 48, 123
2, 38414, Note_off_c, 4, 48, 1
2, 38414, Note_on_c, 4, 51, 123
2, 38468, Note_on_c, 3, 55, 123
2, 38470, Note_off_c, 4, 51, 1
2, 38520, Note_on_c, 3, 60, 123
2, 38521, Note_off_c, 3, 55, 1
2, 38572, Note_on_c, 3, 55, 123
2, 38573, Note_off_c, 3, 60, 1
2, 38624, Note_on_c, 4, 54, 123
2, 38625, Note_off_c, 3, 55, 1
2, 38675, Note_on_c, 3, 55, 123
2, 38677, Note_off_c, 4, 54, 1
2, 38727, Note_on_c, 0, 63, 127
2, 38728, Note_off_c, 3, 55, 1
2, 38777, Note_on_c, 3, 60, 123
2, 38779, Note_off_c, 0, 63, 1
2, 38828, Note_on_c, 2, 67, 127
2, 38830, Note_off_c, 3, 60, 1
2, 38880, Note_on_c, 0, 63, 127
2, 38881, Note_off_c, 2, 67, 1
2, 38935, Note_on_c, 3, 60, 123
2, 38937, Note_off_c, 0, 63, 1
2, 38993, Note_on_c, 3, 56, 123
2, 38996, Note_off_c, 3, 60, 1
2, 39059, Note_on_c, 3, 55, 123
2, 39062, Note_off_c, 3, 56, 1
2, 39135, Note_on_c, 3, 56, 123
2, 39138, Note_off_c, 3, 55, 1
2, 39211, Note_on_c, 4, 43, 123
2, 39213, Note_off_c, 3, 56, 1
2, 39272, Note_off_c, 4, 43, 1
2, 39272, Note_on_c, 4, 45, 123
2, 39328, Note_off_c, 4, 45, 1
2, 39329, Note_on_c, 4, 54, 123
2, 39381, Note_on_c, 3, 60, 123
2, 39383, Note_off_c, 4, 54, 1
2, 39434, Note_on_c, 0, 63, 127
2, 39435, Note_off_c, 3, 60, 1
2, 39486, Note_on_c, 3, 60, 123
2, 39487, Note_off_c, 0, 63, 1
2, 39536, Note_on_c, 3, 59, 123
2, 39537, Note_off_c, 3, 60, 1
2, 39585, Note_on_c, 3, 60, 123
2, 39586, Note_off_c, 3, 59, 1
2, 39634, Note_on_c, 2, 66, 127
2, 39635, Note_off_c, 3, 60, 1
2, 39683, Note_on_c, 3, 60, 123
2, 39684, Note_off_c, 2, 66, 1
2, 39733, Note_on_c, 2, 69, 125
2, 39734, Note_off_c, 3, 60, 1
2, 39785, Note_off_c, 2, 69, 1
2, 39786, Note_on_c, 2, 66, 127
2, 39840, Note_on_c, 0, 63, 127
2, 39842, Note_off_c, 2, 66, 1
2, 39897, Note_on_c, 3, 60, 123
2, 39898, Note_off_c, 0, 63, 1
2, 39955, Note_on_c, 3, 59, 123
2, 39957, Note_off_c, 3, 60, 1
2, 40017, Note_on_c, 3, 60, 123
2, 40018, Note_off_c, 3, 59, 1
2, 40079, Note_on_c, 4, 43, 123
2, 40081, Note_off_c, 3, 60, 1
2, 40130, Note_on_c, 1, 74, 125
2, 40181, Note_off_c, 1, 74, 1
2, 40181, Note_on_c, 1, 72, 125
2, 40231, Note_off_c, 1, 72, 1
2, 40231, Note_on_c, 1, 74, 125
2, 40282, Note_off_c, 1, 74, 1
2, 40282, Note_on_c, 1, 75, 125
2, 40332, Note_off_c, 1, 75, 1
2, 40332, Note_on_c, 1, 72, 125
2, 40382, Note_off_c, 1, 72, 1
2, 40383, Note_on_c, 1, 71, 125
2, 40433, Note_off_c, 1, 71, 1
2, 40434, Note_on_c, 1, 72, 125
2, 40485, Note_off_c, 1, 72, 1
2, 40486, Note_on_c, 2, 69, 125
2, 40536, Note_off_c, 2, 69, 1
2, 40536, Note_on_c, 1, 72, 125
2, 40588, Note_off_c, 1, 72, 1
2, 40588, Note_on_c, 1, 71, 125
2, 40639, Note_off_c, 1, 71, 1
2, 40639, Note_on_c, 1, 72, 125
2, 40690, Note_off_c, 1, 72, 1
2, 40690, Note_on_c, 1, 74, 125
2, 40740, Note_off_c, 1, 74, 1
2, 40741, Note_on_c, 1, 71, 125
2, 40791, Note_off_c, 1, 71, 1
2, 40792, Note_on_c, 2, 69, 125
2, 40841, Note_off_c, 2, 69, 1
2, 40842, Note_on_c, 1, 71, 125
2, 40892, Note_off_c, 1, 71, 1
2, 40893, Note_on_c, 2, 67, 127
2, 40945, Note_off_c, 4, 43, 1
2, 40945, Note_on_c, 1, 71, 122
2, 40946, Note_on_c, 3, 62, 123
2, 40947, Note_off_c, 2, 67, 1
2, 40999, Note_off_c, 1, 71, 1
2, 40999, Note_on_c, 2, 69, 122
2, 41000, Note_on_c, 3, 60, 123
2, 41001, Note_off_c, 3, 62, 1
2, 41052, Note_off_c, 2, 69, 1
2, 41052, Note_on_c, 1, 71, 122
2, 41052, Note_on_c, 3, 62, 123
2, 41053, Note_off_c, 3, 60, 1
2, 41104, Note_off_c, 1, 71, 1
2, 41105, Note_on_c, 0, 63, 127
2, 41105, Note_on_c, 1, 72, 122
2, 41106, Note_off_c, 3, 62, 1
2, 41157, Note_off_c, 1, 72, 1
2, 41158, Note_on_c, 2, 69, 122
2, 41158, Note_on_c, 3, 60, 123
2, 41159, Note_off_c, 0, 63, 1
2, 41210, Note_off_c, 2, 69, 1
2, 41210, Note_on_c, 3, 59, 123
2, 41211, Note_on_c, 2, 67, 127
2, 41212, Note_off_c, 3, 60, 1
2, 41263, Note_on_c, 2, 69, 122
2, 41263, Note_on_c, 3, 60, 123
2, 41265, Note_off_c, 2, 67, 1
2, 41265, Note_off_c, 3, 59, 1
2, 41315, Note_off_c, 2, 69, 1
2, 41315, Note_on_c, 3, 57, 123
2, 41316, Note_off_c, 3, 60, 1
2, 41316, Note_on_c, 2, 66, 127
2, 41367, Note_on_c, 2, 69, 122
2, 41368, Note_on_c, 3, 60, 123
2, 41369, Note_off_c, 2, 66, 1
2, 41370, Note_off_c, 3, 57, 1
2, 41420, Note_off_c, 2, 69, 1
2, 41421, Note_on_c, 2, 67, 127
2, 41421, Note_on_c, 3, 59, 123
2, 41422, Note_off_c, 3, 60, 1
2, 41474, Note_on_c, 2, 69, 122
2, 41474, Note_on_c, 3, 60, 123
2, 41475, Note_off_c, 3, 59, 1
2, 41475, Note_off_c, 2, 67, 1
2, 41526, Note_off_c, 2, 69, 1
2, 41527, Note_on_c, 1, 71, 122
2, 41527, Note_on_c, 3, 62, 123
2, 41528, Note_off_c, 3, 60, 1
2, 41579, Note_off_c, 1, 71, 1
2, 41579, Note_on_c, 3, 59, 123
2, 41580, Note_off_c, 3, 62, 1
2, 41580, Note_on_c, 2, 67, 127
2, 41631, Note_on_c, 3, 57, 123
2, 41632, Note_on_c, 2, 66, 127
2, 41633, Note_off_c, 2, 67, 1
2, 41634, Note_off_c, 3, 59, 1
2, 41684, Note_on_c, 2, 67, 127
2, 41684, Note_on_c, 3, 59, 123
2, 41685, Note_off_c, 2, 66, 1
2, 41686, Note_off_c, 3, 57, 1
2, 41736, Note_on_c, 3, 62, 123
2, 41737, Note_off_c, 2, 67, 1
2, 41737, Note_on_c, 3, 55, 123
2, 41738, Note_off_c, 3, 59, 1
2, 41789, Note_off_c, 3, 55, 1
2, 41789, Note_off_c, 3, 62, 1
2, 41790, Note_on_c, 0, 79, 113
2, 41790, Note_on_c, 3, 59, 123
2, 41842, Note_off_c, 3, 59, 1
2, 41843, Note_off_c, 0, 79, 1
2, 41843, Note_on_c, 0, 77, 113
2, 41844, Note_on_c, 3, 57, 123
2, 41894, Note_off_c, 3, 57, 1
2, 41896, Note_off_c, 0, 77, 1
2, 41896, Note_on_c, 0, 79, 113
2, 41897, Note_on_c, 3, 59, 123
2, 41947, Note_off_c, 3, 59, 1
2, 41949, Note_off_c, 0, 79, 1
2, 41949, Note_on_c, 0, 80, 113
2, 41950, Note_on_c, 3, 60, 123
2, 42000, Note_off_c, 3, 60, 1
2, 42001, Note_off_c, 0, 80, 1
2, 42002, Note_on_c, 0, 77, 113
2, 42002, Note_on_c, 3, 56, 123
2, 42053, Note_off_c, 3, 56, 1
2, 42054, Note_off_c, 0, 77, 1
2, 42055, Note_on_c, 1, 75, 122
2, 42055, Note_on_c, 3, 55, 123
2, 42107, Note_off_c, 3, 55, 1
2, 42108, Note_off_c, 1, 75, 1
2, 42108, Note_on_c, 0, 77, 113
2, 42109, Note_on_c, 3, 56, 123
2, 42160, Note_off_c, 3, 56, 1
2, 42161, Note_off_c, 0, 77, 1
2, 42161, Note_on_c, 1, 74, 122
2, 42162, Note_on_c, 4, 53, 123
2, 42213, Note_off_c, 4, 53, 1
2, 42215, Note_off_c, 1, 74, 1
2, 42215, Note_on_c, 0, 77, 113
2, 42216, Note_on_c, 3, 57, 123
2, 42266, Note_off_c, 3, 57, 1
2, 42267, Note_off_c, 0, 77, 1
2, 42268, Note_on_c, 1, 75, 122
2, 42268, Note_on_c, 3, 55, 123
2, 42320, Note_off_c, 3, 55, 1
2, 42321, Note_off_c, 1, 75, 1
2, 42322, Note_on_c, 0, 77, 113
2, 42322, Note_on_c, 3, 57, 123
2, 42374, Note_off_c, 3, 57, 1
2, 42376, Note_off_c, 0, 77, 1
2, 42376, Note_on_c, 0, 79, 113
2, 42377, Note_on_c, 3, 59, 123
2, 42428, Note_off_c, 3, 59, 1
2, 42430, Note_off_c, 0, 79, 1
2, 42430, Note_on_c, 1, 75, 122
2, 42431, Note_on_c, 3, 55, 123
2, 42481, Note_off_c, 3, 55, 1
2, 42482, Note_off_c, 1, 75, 1
2, 42483, Note_on_c, 1, 74, 122
2, 42483, Note_on_c, 4, 53, 123
2, 42535, Note_off_c, 4, 53, 1
2, 42536, Note_off_c, 1, 74, 1
2, 42537, Note_on_c, 1, 75, 122
2, 42537, Note_on_c, 3, 55, 123
2, 42589, Note_off_c, 3, 55, 1
2, 42589, Note_off_c, 1, 75, 1
2, 42590, Note_on_c, 1, 72, 122
2, 42590, Note_on_c, 4, 51, 123
2, 42642, Note_off_c, 4, 51, 1
2, 42643, Note_off_c, 1, 72, 1
2, 42643, Note_on_c, 1, 75, 122
2, 42644, Note_on_c, 2, 67, 127
2, 42695, Note_off_c, 2, 67, 1
2, 42696, Note_off_c, 1, 75, 1
2, 42696, Note_on_c, 1, 74, 122
2, 42696, Note_on_c, 2, 65, 127
2, 42747, Note_off_c, 2, 65, 1
2, 42748, Note_off_c, 1, 74, 1
2, 42749, Note_on_c, 1, 75, 122
2, 42749, Note_on_c, 2, 67, 127
2, 42800, Note_off_c, 2, 67, 1
2, 42801, Note_off_c, 1, 75, 1
2, 42802, Note_on_c, 0, 77, 113
2, 42802, Note_on_c, 2, 68, 122
2, 42854, Note_off_c, 2, 68, 1
2, 42854, Note_off_c, 0, 77, 1
2, 42855, Note_on_c, 1, 74, 122
2, 42858, Note_on_c, 2, 65, 127
2, 42907, Note_off_c, 1, 74, 1
2, 42907, Note_on_c, 1, 72, 122
2, 42908, Note_on_c, 0, 63, 127
2, 42910, Note_off_c, 2, 65, 1
2, 42959, Note_off_c, 0, 63, 1
2, 42960, Note_off_c, 1, 72, 1
2, 42960, Note_on_c, 1, 74, 122
2, 42960, Note_on_c, 2, 65, 127
2, 43011, Note_off_c, 2, 65, 1
2, 43012, Note_off_c, 1, 74, 1
2, 43013, Note_on_c, 1, 71, 122
2, 43013, Note_on_c, 3, 62, 123
2, 43065, Note_off_c, 3, 62, 1
2, 43066, Note_off_c, 1, 71, 1
2, 43067, Note_on_c, 1, 74, 122
2, 43067, Note_on_c, 2, 65, 127
2, 43118, Note_off_c, 2, 65, 1
2, 43119, Note_off_c, 1, 74, 1
2, 43119, Note_on_c, 1, 72, 122
2, 43120, Note_on_c, 0, 63, 127
2, 43172, Note_off_c, 0, 63, 1
2, 43173, Note_off_c, 1, 72, 1
2, 43173, Note_on_c, 1, 74, 122
2, 43174, Note_on_c, 2, 65, 127
2, 43224, Note_off_c, 2, 65, 1
2, 43225, Note_off_c, 1, 74, 1
2, 43226, Note_on_c, 1, 75, 122
2, 43226, Note_on_c, 2, 67, 127
2, 43277, Note_off_c, 2, 67, 1
2, 43278, Note_off_c, 1, 75, 1
2, 43279, Note_on_c, 0, 63, 127
2, 43279, Note_on_c, 1, 72, 122
2, 43331, Note_off_c, 0, 63, 1
2, 43332, Note_off_c, 1, 72, 1
2, 43332, Note_on_c, 1, 70, 122
2, 43333, Note_on_c, 3, 62, 123
2, 43384, Note_off_c, 3, 62, 1
2, 43385, Note_off_c, 1, 70, 1
2, 43385, Note_on_c, 1, 72, 122
2, 43386, Note_on_c, 0, 63, 127
2, 43438, Note_off_c, 0, 63, 1
2, 43439, Note_off_c, 1, 72, 1
2, 43439, Note_on_c, 3, 60, 123
2, 43440, Note_on_c, 2, 67, 127
2, 43489, Note_off_c, 2, 67, 1
2, 43490, Note_off_c, 3, 60, 1
2, 43490, Note_on_c, 1, 72, 122
2, 43491, Note_on_c, 0, 63, 127
2, 43540, Note_off_c, 0, 63, 1
2, 43541, Note_off_c, 1, 72, 1
2, 43541, Note_on_c, 1, 71, 122
2, 43542, Note_on_c, 3, 62, 123
2, 43591, Note_off_c, 3, 62, 1
2, 43592, Note_off_c, 1, 71, 1
2, 43592, Note_on_c, 1, 72, 122
2, 43593, Note_on_c, 0, 63, 127
2, 43643, Note_off_c, 0, 63, 1
2, 43643, Note_off_c, 1, 72, 1
2, 43643, Note_on_c, 2, 68, 122
2, 43644, Note_on_c, 2, 65, 127
2, 43693, Note_off_c, 2, 68, 1
2, 43693, Note_off_c, 2, 65, 1
2, 43694, Note_on_c, 0, 77, 122
2, 43694, Note_on_c, 3, 62, 123
2, 43744, Note_off_c, 3, 62, 1
2, 43744, Note_off_c, 0, 77, 1
2, 43745, Note_on_c, 1, 75, 122
2, 43745, Note_on_c, 3, 60, 123
2, 43795, Note_off_c, 3, 60, 1
2, 43795, Note_off_c, 1, 75, 1
2, 43796, Note_on_c, 0, 77, 122
2, 43796, Note_on_c, 3, 62, 123
2, 43846, Note_off_c, 3, 62, 1
2, 43847, Note_off_c, 0, 77, 1
2, 43847, Note_on_c, 0, 63, 127
2, 43847, Note_on_c, 2, 67, 127
2, 43897, Note_off_c, 2, 67, 1
2, 43897, Note_off_c, 0, 63, 1
2, 43897, Note_on_c, 1, 75, 122
2, 43898, Note_on_c, 3, 60, 123
2, 43948, Note_off_c, 3, 60, 1
2, 43949, Note_off_c, 1, 75, 1
2, 43949, Note_on_c, 1, 74, 122
2, 43950, Note_on_c, 3, 59, 123
2, 44000, Note_off_c, 3, 59, 1
2, 44000, Note_off_c, 1, 74, 1
2, 44000, Note_on_c, 1, 75, 122
2, 44001, Note_on_c, 3, 60, 123
2, 44052, Note_off_c, 3, 60, 1
2, 44052, Note_off_c, 1, 75, 1
2, 44052, Note_on_c, 3, 62, 123
2, 44053, Note_on_c, 2, 65, 127
2, 44103, Note_off_c, 2, 65, 1
2, 44103, Note_off_c, 3, 62, 1
2, 44104, Note_on_c, 1, 74, 122
2, 44104, Note_on_c, 3, 59, 123
2, 44155, Note_off_c, 3, 59, 1
2, 44155, Note_off_c, 1, 74, 1
2, 44156, Note_on_c, 1, 72, 122
2, 44157, Note_on_c, 3, 57, 123
2, 44207, Note_off_c, 3, 57, 1
2, 44208, Note_off_c, 1, 72, 1
2, 44208, Note_on_c, 1, 74, 122
2, 44208, Note_on_c, 3, 59, 123
2, 44259, Note_off_c, 3, 59, 1
2, 44259, Note_off_c, 1, 74, 1
2, 44260, Note_on_c, 0, 63, 127
2, 44260, Note_on_c, 3, 60, 123
2, 44310, Note_off_c, 3, 60, 1
2, 44310, Note_off_c, 0, 63, 1
2, 44311, Note_on_c, 0, 63, 127
2, 44311, Note_on_c, 1, 72, 122
2, 44362, Note_off_c, 1, 72, 1
2, 44362, Note_off_c, 0, 63, 1
2, 44363, Note_on_c, 1, 71, 122
2, 44363, Note_on_c, 3, 62, 123
2, 44413, Note_off_c, 3, 62, 1
2, 44414, Note_off_c, 1, 71, 1
2, 44414, Note_on_c, 1, 72, 122
2, 44415, Note_on_c, 0, 63, 127
2, 44465, Note_off_c, 0, 63, 1
2, 44466, Note_off_c, 1, 72, 1
2, 44466, Note_on_c, 2, 68, 122
2, 44467, Note_on_c, 4, 53, 123
2, 44517, Note_off_c, 4, 53, 1
2, 44518, Note_off_c, 2, 68, 1
2, 44518, Note_on_c, 3, 62, 123
2, 44519, Note_on_c, 2, 65, 127
2, 44570, Note_off_c, 2, 65, 1
2, 44570, Note_off_c, 3, 62, 1
2, 44571, Note_on_c, 0, 63, 127
2, 44571, Note_on_c, 3, 60, 123
2, 44622, Note_off_c, 3, 60, 1
2, 44622, Note_off_c, 0, 63, 1
2, 44623, Note_on_c, 2, 65, 127
2, 44623, Note_on_c, 3, 62, 123
2, 44675, Note_off_c, 3, 62, 1
2, 44675, Note_off_c, 2, 65, 1
2, 44676, Note_on_c, 2, 67, 127
2, 44676, Note_on_c, 4, 51, 123
2, 44727, Note_off_c, 2, 67, 1
2, 44728, Note_off_c, 4, 51, 1
2, 44728, Note_on_c, 3, 60, 123
2, 44729, Note_on_c, 0, 63, 127
2, 44780, Note_off_c, 0, 63, 1
2, 44781, Note_off_c, 3, 60, 1
2, 44781, Note_on_c, 3, 59, 123
2, 44782, Note_on_c, 3, 62, 123
2, 44834, Note_off_c, 3, 62, 1
2, 44834, Note_off_c, 3, 59, 1
2, 44835, Note_on_c, 0, 63, 127
2, 44835, Note_on_c, 3, 60, 123
2, 44887, Note_off_c, 3, 60, 1
2, 44887, Note_off_c, 0, 63, 1
2, 44888, Note_on_c, 2, 65, 127
2, 44888, Note_on_c, 4, 50, 123
2, 44940, Note_off_c, 2, 65, 1
2, 44941, Note_off_c, 4, 50, 1
2, 44941, Note_on_c, 3, 59, 123
2, 44942, Note_on_c, 3, 62, 123
2, 44996, Note_off_c, 3, 62, 1
2, 44997, Note_off_c, 3, 59, 1
2, 44997, Note_on_c, 3, 57, 123
2, 44998, Note_on_c, 3, 60, 123
2, 45054, Note_off_c, 3, 60, 1
2, 45054, Note_off_c, 3, 57, 1
2, 45055, Note_on_c, 3, 59, 123
2, 45055, Note_on_c, 3, 62, 123
2, 45119, Note_off_c, 3, 62, 1
2, 45120, Note_off_c, 3, 59, 1
2, 45120, Note_on_c, 4, 48, 123
2, 45187, Note_on_c, 3, 55, 123
2, 45222, Note_on_c, 3, 58, 123
2, 45256, Note_on_c, 3, 60, 123
2, 45290, Note_on_c, 2, 64, 127
2, 46066, Note_off_c, 3, 60, 1
2, 46130, Note_on_c, 3, 60, 123
2, 46190, Note_off_c, 2, 64, 1
2, 46274, Note_on_c, 3, 62, 123
2, 46278, Note_off_c, 3, 60, 1
2, 46354, Note_off_c, 3, 55, 1
2, 46354, Note_off_c, 3, 58, 1
2, 46396, Note_off_c, 3, 62, 1
2, 46404, Note_on_c, 2, 64, 127
2, 46520, Note_off_c, 2, 64, 1
2, 46528, Note_off_c, 4, 48, 1
2, 46528, Note_on_c, 2, 65, 127
2, 46581, Note_off_c, 2, 65, 1
2, 46588, Note_on_c, 2, 67, 127
2, 46641, Note_off_c, 2, 67, 1
2, 46642, Note_on_c, 2, 68, 118
2, 46698, Note_off_c, 2, 68, 1
2, 46702, Note_on_c, 1, 70, 118
2, 46757, Note_on_c, 1, 72, 118
2, 46761, Note_off_c, 1, 70, 1
2, 46816, Note_off_c, 1, 72, 1
2, 46821, Note_on_c, 1, 70, 118
2, 46878, Note_on_c, 2, 68, 118
2, 46882, Note_off_c, 1, 70, 1
2, 46942, Note_off_c, 2, 68, 1
2, 46947, Note_on_c, 2, 67, 127
2, 47010, Note_off_c, 2, 67, 1
2, 47010, Note_on_c, 2, 65, 127
2, 47277, Note_off_c, 2, 65, 1
2, 47285, Note_on_c, 2, 67, 127
2, 47408, Note_off_c, 2, 67, 1
2, 47417, Note_on_c, 2, 64, 127
2, 47546, Note_off_c, 2, 64, 1
2, 47556, Note_on_c, 4, 48, 117
2, 47556, Note_on_c, 2, 65, 127
2, 47574, Note_on_c, 4, 53, 117
2, 47601, Note_on_c, 3, 56, 117
2, 47615, Note_off_c, 2, 65, 1
2, 47615, Note_on_c, 2, 64, 127
2, 47628, Note_on_c, 3, 60, 117
2, 47654, Note_on_c, 2, 65, 127
2, 47672, Note_off_c, 2, 64, 1
2, 48777, Note_off_c, 2, 65, 1
2, 48835, Note_on_c, 2, 67, 127
2, 49026, Note_off_c, 2, 67, 1
2, 49039, Note_on_c, 2, 65, 127
2, 49200, Note_off_c, 2, 65, 1
2, 49212, Note_on_c, 2, 64, 127
2, 49324, Note_off_c, 3, 56, 1
2, 49324, Note_off_c, 3, 60, 1
2, 49329, Note_off_c, 4, 53, 1
2, 49353, Note_off_c, 2, 64, 1
2, 49362, Note_off_c, 4, 48, 1
2, 49363, Note_on_c, 2, 65, 127
2, 49486, Note_off_c, 2, 65, 1
2, 49495, Note_on_c, 2, 67, 127
2, 49603, Note_off_c, 2, 67, 1
2, 49611, Note_on_c, 2, 68, 122
2, 49727, Note_off_c, 2, 68, 1
2, 49728, Note_on_c, 2, 67, 127
2, 49836, Note_off_c, 2, 67, 1
2, 49843, Note_on_c, 2, 65, 127
2, 49904, Note_off_c, 2, 65, 1
2, 49908, Note_on_c, 0, 63, 127
2, 49972, Note_off_c, 0, 63, 1
2, 49977, Note_on_c, 3, 62, 123
2, 50046, Note_off_c, 3, 62, 1
2, 50052, Note_on_c, 0, 63, 127
2, 50124, Note_off_c, 0, 63, 1
2, 50129, Note_on_c, 2, 65, 127
2, 50209, Note_off_c, 2, 65, 1
2, 50215, Note_on_c, 3, 62, 123
2, 50295, Note_off_c, 3, 62, 1
2, 50302, Note_on_c, 0, 63, 127
2, 50390, Note_off_c, 0, 63, 1
2, 50397, Note_on_c, 2, 65, 127
2, 50489, Note_off_c, 2, 65, 1
2, 50496, Note_on_c, 3, 59, 123
2, 50572, Note_on_c, 4, 36, 123
2, 50648, Note_on_c, 4, 47, 123
2, 50717, Note_off_c, 3, 59, 1
2, 50723, Note_on_c, 4, 50, 123
2, 50796, Note_off_c, 4, 50, 1
2, 50799, Note_on_c, 4, 53, 123
2, 50861, Note_off_c, 4, 53, 1
2, 50863, Note_on_c, 3, 56, 123
2, 50922, Note_off_c, 3, 56, 1
2, 50925, Note_on_c, 3, 55, 123
2, 50982, Note_off_c, 3, 55, 1
2, 50984, Note_on_c, 4, 53, 123
2, 51038, Note_off_c, 4, 53, 1
2, 51038, Note_on_c, 3, 59, 123
2, 51089, Note_off_c, 3, 59, 1
2, 51094, Note_on_c, 4, 53, 123
2, 51146, Note_off_c, 4, 53, 1
2, 51148, Note_on_c, 3, 62, 123
2, 51200, Note_off_c, 3, 62, 1
2, 51202, Note_on_c, 4, 53, 123
2, 51254, Note_off_c, 4, 53, 1
2, 51257, Note_on_c, 3, 59, 123
2, 51310, Note_off_c, 3, 59, 1
2, 51312, Note_on_c, 3, 56, 123
2, 51366, Note_off_c, 3, 56, 1
2, 51368, Note_on_c, 3, 55, 123
2, 51423, Note_off_c, 3, 55, 1
2, 51426, Note_on_c, 4, 53, 123
2, 51481, Note_off_c, 4, 53, 1
2, 51483, Note_off_c, 4, 47, 1
2, 51484, Note_off_c, 4, 36, 1
2, 51484, Note_on_c, 4, 52, 123
2, 51535, Note_off_c, 4, 52, 1
2, 51536, Note_on_c, 3, 61, 123
2, 51588, Note_off_c, 3, 61, 1
2, 51588, Note_on_c, 3, 58, 123
2, 51641, Note_off_c, 3, 58, 1
2, 51641, Note_on_c, 3, 55, 123
2, 51690, Note_on_c, 3, 60, 123
2, 51693, Note_off_c, 3, 55, 1
2, 51741, Note_off_c, 3, 60, 1
2, 51744, Note_on_c, 3, 56, 123
2, 51795, Note_off_c, 3, 56, 1
2, 51796, Note_on_c, 4, 53, 123
2, 51847, Note_off_c, 4, 53, 1
2, 51848, Note_on_c, 3, 56, 123
2, 51898, Note_off_c, 3, 56, 1
2, 51899, Note_on_c, 3, 55, 123
2, 51950, Note_off_c, 3, 55, 1
2, 51950, Note_on_c, 3, 58, 123
2, 52001, Note_off_c, 3, 58, 1
2, 52001, Note_on_c, 3, 55, 123
2, 52052, Note_off_c, 3, 55, 1
2, 52052, Note_on_c, 4, 52, 123
2, 52101, Note_on_c, 3, 56, 123
2, 52104, Note_off_c, 4, 52, 1
2, 52151, Note_off_c, 3, 56, 1
2, 52155, Note_on_c, 4, 53, 123
2, 52206, Note_off_c, 4, 53, 1
2, 52207, Note_on_c, 4, 50, 123
2, 52257, Note_off_c, 4, 50, 1
2, 52258, Note_on_c, 4, 53, 123
2, 52309, Note_off_c, 4, 53, 1
2, 52309, Note_on_c, 4, 52, 123
2, 52361, Note_off_c, 4, 52, 1
2, 52361, Note_on_c, 3, 55, 123
2, 52414, Note_off_c, 3, 55, 1
2, 52414, Note_on_c, 4, 52, 123
2, 52466, Note_off_c, 4, 52, 1
2, 52467, Note_on_c, 4, 48, 123
2, 52519, Note_off_c, 4, 48, 1
2, 52520, Note_on_c, 4, 53, 123
2, 52572, Note_off_c, 4, 53, 1
2, 52572, Note_on_c, 4, 50, 123
2, 52625, Note_off_c, 4, 50, 1
2, 52625, Note_on_c, 4, 47, 123
2, 52679, Note_off_c, 4, 47, 1
2, 52679, Note_on_c, 4, 50, 123
2, 52731, Note_off_c, 4, 50, 1
2, 52732, Note_on_c, 4, 36, 123
2, 52785, Note_on_c, 4, 43, 123
2, 52838, Note_on_c, 4, 48, 123
2, 52892, Note_on_c, 4, 50, 123
2, 52945, Note_off_c, 4, 50, 1
2, 52946, Note_on_c, 4, 52, 123
2, 52999, Note_off_c, 4, 52, 1
2, 53000, Note_on_c, 3, 55, 123
2, 53053, Note_off_c, 3, 55, 1
2, 53053, Note_on_c, 3, 58, 123
2, 53107, Note_off_c, 3, 58, 1
2, 53107, Note_on_c, 3, 55, 123
2, 53161, Note_off_c, 3, 55, 1
2, 53161, Note_on_c, 3, 56, 123
2, 53224, Note_off_c, 3, 56, 1
2, 53224, Note_on_c, 3, 60, 123
2, 53291, Note_off_c, 3, 60, 1
2, 53291, Note_on_c, 2, 65, 127
2, 53363, Note_off_c, 2, 65, 1
2, 53363, Note_on_c, 3, 62, 123
2, 53435, Note_off_c, 3, 62, 1
2, 53435, Note_on_c, 2, 65, 127
2, 53511, Note_off_c, 2, 65, 1
2, 53512, Note_on_c, 2, 68, 125
2, 53592, Note_on_c, 1, 72, 125
2, 53595, Note_off_c, 2, 68, 1
2, 53663, Note_on_c, 1, 71, 125
2, 53666, Note_off_c, 1, 72, 1
2, 53741, Note_off_c, 1, 71, 1
2, 53747, Note_on_c, 1, 72, 125
2, 53907, Note_on_c, 2, 67, 127
2, 53928, Note_off_c, 1, 72, 1
2, 54058, Note_off_c, 2, 67, 1
2, 54082, Note_on_c, 2, 65, 127
2, 54277, Note_off_c, 2, 65, 1
2, 54280, Note_on_c, 3, 62, 123
2, 54474, Note_off_c, 3, 62, 1
2, 54490, Note_on_c, 2, 64, 127
2, 54544, Note_off_c, 2, 64, 1
2, 54546, Note_on_c, 3, 62, 123
2, 54600, Note_off_c, 3, 62, 1
2, 54602, Note_on_c, 2, 64, 127
2, 56160, Note_off_c, 4, 36, 1
2, 56160, Note_off_c, 4, 48, 1
2, 56160, Note_off_c, 4, 43, 1
2, 56193, Note_off_c, 2, 64, 1
2, 56486, Note_on_c, 1, 72, 122
2, 56595, Note_off_c, 1, 72, 1
2, 56596, Note_on_c, 1, 71, 122
2, 56704, Note_off_c, 1, 71, 1
2, 56704, Note_on_c, 1, 72, 122
2, 56922, Note_off_c, 1, 72, 1
2, 56922, Note_on_c, 2, 67, 122
2, 57141, Note_off_c, 2, 67, 1
2, 57141, Note_on_c, 2, 68, 122
2, 57359, Note_off_c, 2, 68, 1
2, 57359, Note_on_c, 1, 72, 122
2, 57468, Note_on_c, 1, 71, 122
2, 57473, Note_off_c, 1, 72, 1
2, 57577, Note_off_c, 1, 71, 1
2, 57577, Note_on_c, 1, 72, 122
2, 57796, Note_off_c, 1, 72, 1
2, 57796, Note_on_c, 1, 74, 122
2, 58014, Note_off_c, 1, 74, 1
2, 58014, Note_on_c, 2, 67, 122
2, 58233, Note_off_c, 2, 67, 1
2, 58233, Note_on_c, 1, 72, 122
2, 58341, Note_off_c, 1, 72, 1
2, 58342, Note_on_c, 1, 71, 122
2, 58451, Note_off_c, 1, 71, 1
2, 58451, Note_on_c, 1, 72, 122
2, 58668, Note_off_c, 1, 72, 1
2, 58669, Note_on_c, 1, 74, 122
2, 58886, Note_off_c, 1, 74, 1
2, 58887, Note_on_c, 2, 65, 122
2, 58996, Note_off_c, 2, 65, 1
2, 58996, Note_on_c, 2, 67, 122
2, 59105, Note_off_c, 2, 67, 1
2, 59106, Note_on_c, 2, 68, 122
2, 59541, Note_on_c, 2, 67, 122
2, 59557, Note_off_c, 2, 68, 1
2, 59651, Note_off_c, 2, 67, 1
2, 59651, Note_on_c, 2, 65, 122
2, 59760, Note_off_c, 2, 65, 1
2, 59760, Note_on_c, 0, 63, 122
2, 59867, Note_off_c, 0, 63, 1
2, 59867, Note_on_c, 1, 72, 119
2, 59975, Note_off_c, 1, 72, 1
2, 59975, Note_on_c, 0, 79, 104
2, 59976, Note_on_c, 1, 71, 119
2, 60082, Note_off_c, 1, 71, 1
2, 60083, Note_off_c, 0, 79, 1
2, 60083, Note_on_c, 0, 78, 104
2, 60083, Note_on_c, 2, 69, 122
2, 60190, Note_off_c, 2, 69, 1
2, 60190, Note_off_c, 0, 78, 1
2, 60191, Note_on_c, 0, 79, 116
2, 60191, Note_on_c, 2, 67, 122
2, 60297, Note_off_c, 2, 67, 1
2, 60298, Note_on_c, 2, 65, 122
2, 60405, Note_off_c, 2, 65, 1
2, 60405, Note_off_c, 0, 79, 1
2, 60406, Note_on_c, 0, 63, 122
2, 60406, Note_on_c, 1, 72, 119
2, 60512, Note_off_c, 0, 63, 1
2, 60513, Note_on_c, 3, 62, 117
2, 60620, Note_off_c, 3, 62, 1
2, 60620, Note_off_c, 1, 72, 1
2, 60621, Note_on_c, 1, 75, 119
2, 60621, Note_on_c, 3, 60, 117
2, 60814, Note_off_c, 1, 75, 1
2, 60835, Note_off_c, 3, 60, 1
2, 60835, Note_on_c, 0, 79, 110
2, 60836, Note_on_c, 1, 75, 119
2, 60942, Note_off_c, 0, 79, 1
2, 60943, Note_on_c, 0, 78, 110
2, 61050, Note_off_c, 0, 78, 1
2, 61050, Note_off_c, 1, 75, 1
2, 61051, Note_on_c, 0, 79, 110
2, 61051, Note_on_c, 1, 74, 119
2, 61265, Note_off_c, 1, 74, 1
2, 61265, Note_off_c, 0, 79, 1
2, 61266, Note_on_c, 0, 81, 110
2, 61266, Note_on_c, 1, 72, 119
2, 61480, Note_off_c, 1, 72, 1
2, 61480, Note_off_c, 0, 81, 1
2, 61481, Note_on_c, 1, 70, 122
2, 61481, Note_on_c, 1, 74, 119
2, 61698, Note_off_c, 1, 74, 1
2, 61698, Note_off_c, 1, 70, 1
2, 61699, Note_on_c, 0, 79, 110
2, 61699, Note_on_c, 2, 69, 122
2, 61807, Note_off_c, 0, 79, 1
2, 61808, Note_on_c, 0, 78, 110
2, 61911, Note_off_c, 0, 78, 1
2, 61917, Note_off_c, 2, 69, 1
2, 61917, Note_on_c, 0, 79, 110
2, 61918, Note_on_c, 1, 70, 122
2, 62135, Note_off_c, 0, 79, 1
2, 62135, Note_off_c, 1, 70, 1
2, 62136, Note_on_c, 0, 81, 110
2, 62136, Note_on_c, 1, 72, 119
2, 62353, Note_off_c, 1, 72, 1
2, 62353, Note_off_c, 0, 81, 1
2, 62353, Note_on_c, 1, 72, 119
2, 62354, Note_on_c, 2, 66, 127
2, 62461, Note_off_c, 1, 72, 1
2, 62461, Note_on_c, 1, 74, 119
2, 62569, Note_off_c, 1, 74, 1
2, 62569, Note_off_c, 2, 66, 1
2, 62569, Note_on_c, 1, 75, 119
2, 62570, Note_on_c, 2, 67, 127
2, 62784, Note_off_c, 2, 67, 1
2, 62784, Note_on_c, 2, 69, 122
2, 62999, Note_off_c, 2, 69, 1
2, 63000, Note_off_c, 1, 75, 1
2, 63000, Note_on_c, 2, 66, 127
2, 63000, Note_on_c, 1, 74, 119
2, 63107, Note_off_c, 1, 74, 1
2, 63107, Note_on_c, 1, 72, 119
2, 63220, Note_off_c, 2, 66, 1
2, 63220, Note_off_c, 1, 72, 1
2, 63221, Note_on_c, 1, 70, 122
2, 63222, Note_on_c, 2, 67, 127
2, 63432, Note_off_c, 1, 70, 1
2, 63432, Note_on_c, 1, 75, 119
2, 63540, Note_off_c, 1, 75, 1
2, 63540, Note_on_c, 1, 74, 119
2, 63627, Note_off_c, 2, 67, 1
2, 63647, Note_on_c, 1, 75, 119
2, 63654, Note_off_c, 1, 74, 1
2, 63755, Note_on_c, 3, 60, 123
2, 63861, Note_off_c, 3, 60, 1
2, 63862, Note_off_c, 1, 75, 1
2, 63862, Note_on_c, 2, 67, 127
2, 63863, Note_on_c, 3, 62, 123
2, 63968, Note_off_c, 3, 62, 1
2, 63968, Note_on_c, 0, 63, 127
2, 64073, Note_off_c, 0, 63, 1
2, 64074, Note_off_c, 2, 67, 1
2, 64074, Note_on_c, 2, 68, 122
2, 64075, Note_on_c, 2, 65, 127
2, 64180, Note_off_c, 2, 65, 1
2, 64180, Note_on_c, 2, 67, 127
2, 64285, Note_off_c, 2, 67, 1
2, 64286, Note_off_c, 2, 68, 1
2, 64286, Note_on_c, 0, 77, 119
2, 64287, Note_on_c, 2, 68, 122
2, 64392, Note_on_c, 1, 75, 119
2, 64404, Note_off_c, 0, 77, 1
2, 64491, Note_off_c, 1, 75, 1
2, 64498, Note_on_c, 0, 77, 119
2, 64593, Note_off_c, 2, 68, 1
2, 64604, Note_on_c, 3, 62, 123
2, 64710, Note_off_c, 3, 62, 1
2, 64711, Note_off_c, 0, 77, 1
2, 64711, Note_on_c, 0, 63, 127
2, 64711, Note_on_c, 2, 69, 122
2, 64818, Note_off_c, 0, 63, 1
2, 64818, Note_on_c, 2, 65, 127
2, 64925, Note_off_c, 2, 65, 1
2, 64926, Note_off_c, 2, 69, 1
2, 64926, Note_on_c, 1, 70, 122
2, 64926, Note_on_c, 2, 67, 127
2, 65033, Note_off_c, 2, 67, 1
2, 65033, Note_on_c, 2, 69, 122
2, 65140, Note_off_c, 2, 69, 1
2, 65141, Note_off_c, 1, 70, 1
2, 65141, Note_on_c, 0, 79, 110
2, 65142, Note_on_c, 1, 70, 122
2, 65248, Note_off_c, 0, 79, 1
2, 65248, Note_on_c, 0, 77, 119
2, 65354, Note_off_c, 0, 77, 1
2, 65355, Note_on_c, 0, 79, 110
2, 65461, Note_on_c, 0, 63, 127
2, 65463, Note_off_c, 1, 70, 1
2, 65524, Note_off_c, 0, 79, 1
2, 65567, Note_off_c, 0, 63, 1
2, 65567, Note_on_c, 1, 71, 119
2, 65568, Note_on_c, 2, 65, 127
2, 65672, Note_off_c, 2, 65, 1
2, 65673, Note_on_c, 2, 67, 127
2, 65771, Note_off_c, 1, 71, 1
2, 65779, Note_off_c, 2, 67, 1
2, 65779, Note_on_c, 1, 72, 122
2, 65780, Note_on_c, 2, 68, 122
2, 65884, Note_off_c, 2, 68, 1
2, 65885, Note_on_c, 2, 67, 127
2, 65971, Note_off_c, 1, 72, 1
2, 65990, Note_off_c, 2, 67, 1
2, 65990, Note_on_c, 1, 74, 122
2, 65991, Note_on_c, 2, 65, 127
2, 66096, Note_off_c, 1, 74, 1
2, 66096, Note_off_c, 2, 65, 1
2, 66096, Note_on_c, 1, 75, 122
2, 66097, Note_on_c, 0, 63, 127
2, 66202, Note_off_c, 0, 63, 1
2, 66203, Note_off_c, 1, 75, 1
2, 66203, Note_on_c, 0, 77, 122
2, 66204, Note_on_c, 3, 62, 123
2, 66390, Note_off_c, 3, 62, 1
2, 66413, Note_on_c, 1, 72, 122
2, 66520, Note_off_c, 1, 72, 1
2, 66520, Note_on_c, 1, 71, 122
2, 66625, Note_off_c, 1, 71, 1
2, 66626, Note_on_c, 1, 72, 122
2, 66837, Note_off_c, 0, 77, 1
2, 66837, Note_on_c, 1, 75, 122
2, 66838, Note_on_c, 3, 60, 123
2, 66918, Note_off_c, 1, 72, 1
2, 66944, Note_off_c, 3, 60, 1
2, 66944, Note_off_c, 1, 75, 1
2, 66944, Note_on_c, 1, 74, 122
2, 66945, Note_on_c, 3, 59, 123
2, 67049, Note_off_c, 3, 59, 1
2, 67050, Note_off_c, 1, 74, 1
2, 67050, Note_on_c, 3, 60, 123
2, 67050, Note_on_c, 1, 72, 122
2, 67154, Note_off_c, 1, 72, 1
2, 67155, Note_on_c, 1, 70, 122
2, 67261, Note_off_c, 1, 70, 1
2, 67262, Note_off_c, 3, 60, 1
2, 67262, Note_on_c, 3, 55, 123
2, 67262, Note_on_c, 2, 68, 122
2, 67367, Note_off_c, 2, 68, 1
2, 67368, Note_on_c, 2, 67, 127
2, 67473, Note_off_c, 3, 55, 1
2, 67473, Note_off_c, 2, 67, 1
2, 67474, Note_on_c, 2, 65, 127
2, 67474, Note_on_c, 3, 56, 123
2, 67685, Note_off_c, 3, 56, 1
2, 67685, Note_on_c, 0, 80, 113
2, 67686, Note_on_c, 1, 75, 122
2, 67686, Note_on_c, 3, 60, 123
2, 67707, Note_off_c, 2, 65, 1
2, 67791, Note_off_c, 3, 60, 1
2, 67792, Note_on_c, 3, 59, 123
2, 67870, Note_off_c, 0, 80, 1
2, 67897, Note_off_c, 3, 59, 1
2, 67897, Note_off_c, 1, 75, 1
2, 67898, Note_on_c, 0, 79, 113
2, 67898, Note_on_c, 1, 74, 122
2, 67899, Note_on_c, 3, 60, 123
2, 68063, Note_off_c, 0, 79, 1
2, 68109, Note_off_c, 3, 60, 1
2, 68110, Note_off_c, 1, 74, 1
2, 68110, Note_on_c, 0, 77, 122
2, 68111, Note_on_c, 1, 72, 122
2, 68111, Note_on_c, 3, 62, 123
2, 68278, Note_off_c, 0, 77, 1
2, 68320, Note_off_c, 3, 62, 1
2, 68321, Note_off_c, 1, 72, 1
2, 68321, Note_on_c, 1, 75, 122
2, 68322, Note_on_c, 3, 55, 123
2, 68501, Note_off_c, 1, 75, 1
2, 68532, Note_off_c, 3, 55, 1
2, 68533, Note_on_c, 1, 74, 122
2, 68533, Note_on_c, 2, 68, 122
2, 68534, Note_on_c, 3, 60, 123
2, 68638, Note_off_c, 3, 60, 1
2, 68639, Note_on_c, 3, 59, 123
2, 68703, Note_off_c, 1, 74, 1
2, 68744, Note_off_c, 2, 68, 1
2, 68744, Note_on_c, 1, 75, 122
2, 68745, Note_on_c, 2, 67, 127
2, 68745, Note_on_c, 3, 60, 123
2, 68749, Note_off_c, 3, 59, 1
2, 68912, Note_off_c, 1, 75, 1
2, 68956, Note_off_c, 3, 60, 1
2, 68956, Note_off_c, 2, 67, 1
2, 68957, Note_on_c, 0, 77, 122
2, 68957, Note_on_c, 2, 65, 127
2, 68958, Note_on_c, 3, 62, 123
2, 69154, Note_off_c, 0, 77, 1
2, 69168, Note_off_c, 2, 65, 1
2, 69168, Note_off_c, 3, 62, 1
2, 69168, Note_on_c, 2, 67, 127
2, 69168, Note_on_c, 1, 71, 122
2, 69169, Note_on_c, 4, 53, 123
2, 69274, Note_off_c, 4, 53, 1
2, 69274, Note_on_c, 3, 55, 123
2, 69349, Note_off_c, 1, 71, 1
2, 69379, Note_off_c, 3, 55, 1
2, 69380, Note_off_c, 2, 67, 1
2, 69380, Note_on_c, 1, 72, 122
2, 69381, Note_on_c, 3, 56, 123
2, 69381, Note_on_c, 2, 65, 127
2, 69485, Note_off_c, 2, 65, 1
2, 69485, Note_on_c, 0, 63, 127
2, 69556, Note_off_c, 1, 72, 1
2, 69592, Note_off_c, 0, 63, 1
2, 69592, Note_on_c, 1, 74, 122
2, 69593, Note_on_c, 2, 65, 127
2, 69768, Note_off_c, 1, 74, 1
2, 69807, Note_off_c, 3, 56, 1
2, 69807, Note_off_c, 2, 65, 1
2, 69808, Note_on_c, 1, 71, 122
2, 69808, Note_on_c, 3, 62, 123
2, 69808, Note_on_c, 3, 55, 123
2, 69912, Note_off_c, 3, 55, 1
2, 69917, Note_on_c, 4, 53, 123
2, 70008, Note_off_c, 1, 71, 1
2, 70021, Note_off_c, 4, 53, 1
2, 70027, Note_off_c, 3, 62, 1
2, 70027, Note_on_c, 1, 72, 123
2, 70028, Note_on_c, 2, 67, 127
2, 70028, Note_on_c, 4, 51, 123
2, 70128, Note_off_c, 4, 51, 1
2, 70134, Note_on_c, 3, 60, 123
2, 70224, Note_off_c, 1, 72, 1
2, 70238, Note_off_c, 3, 60, 1
2, 70238, Note_on_c, 0, 79, 114
2, 70239, Note_on_c, 3, 59, 123
2, 70341, Note_off_c, 0, 79, 1
2, 70341, Note_off_c, 3, 59, 1
2, 70342, Note_on_c, 0, 78, 114
2, 70342, Note_on_c, 3, 57, 123
2, 70445, Note_off_c, 3, 57, 1
2, 70446, Note_off_c, 2, 67, 1
2, 70446, Note_on_c, 0, 79, 114
2, 70447, Note_on_c, 3, 55, 123
2, 70452, Note_off_c, 0, 78, 1
2, 70549, Note_off_c, 3, 55, 1
2, 70549, Note_on_c, 4, 53, 123
2, 70600, Note_off_c, 0, 79, 1
2, 70654, Note_off_c, 4, 53, 1
2, 70654, Note_on_c, 1, 74, 123
2, 70655, Note_on_c, 1, 71, 123
2, 70655, Note_on_c, 4, 51, 123
2, 70758, Note_off_c, 4, 51, 1
2, 70759, Note_on_c, 4, 50, 123
2, 70824, Note_off_c, 1, 71, 1
2, 70829, Note_off_c, 1, 74, 1
2, 70863, Note_off_c, 4, 50, 1
2, 70863, Note_on_c, 1, 75, 123
2, 70864, Note_on_c, 1, 72, 123
2, 70864, Note_on_c, 4, 48, 123
2, 70967, Note_off_c, 4, 48, 1
2, 70967, Note_on_c, 4, 50, 123
2, 71041, Note_off_c, 1, 72, 1
2, 71071, Note_off_c, 4, 50, 1
2, 71072, Note_on_c, 1, 72, 123
2, 71072, Note_on_c, 4, 51, 123
2, 71176, Note_off_c, 4, 51, 1
2, 71176, Note_off_c, 1, 72, 1
2, 71177, Note_on_c, 1, 71, 123
2, 71177, Note_on_c, 4, 50, 123
2, 71280, Note_off_c, 4, 50, 1
2, 71281, Note_off_c, 1, 71, 1
2, 71281, Note_on_c, 1, 72, 123
2, 71282, Note_on_c, 4, 48, 123
2, 71290, Note_off_c, 1, 75, 1
2, 71384, Note_off_c, 4, 48, 1
2, 71385, Note_on_c, 4, 46, 123
2, 71489, Note_off_c, 4, 46, 1
2, 71489, Note_off_c, 1, 72, 1
2, 71490, Note_on_c, 1, 76, 123
2, 71490, Note_on_c, 2, 67, 127
2, 71491, Note_on_c, 4, 44, 123
2, 71593, Note_off_c, 4, 44, 1
2, 71594, Note_on_c, 4, 43, 123
2, 71663, Note_off_c, 1, 76, 1
2, 71698, Note_off_c, 4, 43, 1
2, 71698, Note_off_c, 2, 67, 1
2, 71699, Note_on_c, 2, 68, 123
2, 71699, Note_on_c, 0, 77, 123
2, 71699, Note_on_c, 4, 41, 123
2, 71802, Note_off_c, 4, 41, 1
2, 71803, Note_on_c, 3, 58, 123
2, 71856, Note_off_c, 0, 77, 1
2, 71906, Note_off_c, 3, 58, 1
2, 71906, Note_on_c, 0, 77, 123
2, 71907, Note_on_c, 3, 56, 123
2, 72009, Note_off_c, 0, 77, 1
2, 72009, Note_off_c, 3, 56, 1
2, 72010, Note_on_c, 1, 76, 123
2, 72010, Note_on_c, 3, 55, 123
2, 72112, Note_off_c, 3, 55, 1
2, 72113, Note_off_c, 2, 68, 1
2, 72113, Note_on_c, 0, 77, 123
2, 72114, Note_on_c, 4, 53, 123
2, 72126, Note_off_c, 1, 76, 1
2, 72217, Note_off_c, 4, 53, 1
2, 72217, Note_on_c, 4, 51, 123
2, 72279, Note_off_c, 0, 77, 1
2, 72322, Note_off_c, 4, 51, 1
2, 72322, Note_on_c, 1, 72, 123
2, 72323, Note_on_c, 2, 69, 123
2, 72323, Note_on_c, 4, 50, 123
2, 72425, Note_off_c, 4, 50, 1
2, 72426, Note_on_c, 4, 48, 123
2, 72493, Note_off_c, 1, 72, 1
2, 72530, Note_off_c, 2, 69, 1
2, 72530, Note_off_c, 4, 48, 1
2, 72531, Note_on_c, 1, 74, 123
2, 72531, Note_on_c, 1, 70, 123
2, 72532, Note_on_c, 4, 46, 123
2, 72634, Note_off_c, 4, 46, 1
2, 72634, Note_on_c, 4, 48, 123
2, 72736, Note_off_c, 4, 48, 1
2, 72737, Note_off_c, 1, 70, 1
2, 72737, Note_on_c, 1, 70, 123
2, 72738, Note_on_c, 4, 50, 123
2, 72839, Note_off_c, 4, 50, 1
2, 72840, Note_off_c, 1, 70, 1
2, 72840, Note_on_c, 2, 68, 123
2, 72840, Note_on_c, 4, 48, 123
2, 72942, Note_off_c, 4, 48, 1
2, 72942, Note_on_c, 1, 70, 123
2, 72943, Note_on_c, 4, 46, 123
2, 72952, Note_off_c, 2, 68, 1
2, 72964, Note_off_c, 1, 74, 1
2, 73044, Note_off_c, 4, 46, 1
2, 73045, Note_on_c, 4, 44, 123
2, 73148, Note_off_c, 4, 44, 1
2, 73149, Note_off_c, 1, 70, 1
2, 73149, Note_on_c, 1, 74, 123
2, 73150, Note_on_c, 2, 65, 127
2, 73150, Note_on_c, 4, 43, 123
2, 73251, Note_off_c, 4, 43, 1
2, 73251, Note_on_c, 4, 41, 123
2, 73319, Note_off_c, 1, 74, 1
2, 73354, Note_off_c, 4, 41, 1
2, 73354, Note_off_c, 2, 65, 1
2, 73355, Note_on_c, 2, 67, 127
2, 73355, Note_on_c, 1, 75, 123
2, 73356, Note_on_c, 4, 39, 123
2, 73457, Note_off_c, 4, 39, 1
2, 73458, Note_on_c, 3, 56, 123
2, 73513, Note_off_c, 1, 75, 1
2, 73560, Note_off_c, 3, 56, 1
2, 73560, Note_on_c, 1, 75, 123
2, 73561, Note_on_c, 3, 55, 123
2, 73663, Note_off_c, 3, 55, 1
2, 73663, Note_off_c, 1, 75, 1
2, 73664, Note_on_c, 1, 74, 123
2, 73664, Note_on_c, 4, 53, 123
2, 73738, Note_off_c, 1, 74, 1
2, 73767, Note_off_c, 4, 53, 1
2, 73767, Note_off_c, 2, 67, 1
2, 73768, Note_on_c, 1, 75, 123
2, 73768, Note_on_c, 4, 51, 123
2, 73870, Note_off_c, 4, 51, 1
2, 73871, Note_on_c, 4, 49, 123
2, 73946, Note_off_c, 1, 75, 1
2, 73973, Note_off_c, 4, 49, 1
2, 73973, Note_on_c, 1, 70, 123
2, 73974, Note_on_c, 2, 67, 127
2, 73974, Note_on_c, 4, 48, 123
2, 74076, Note_off_c, 4, 48, 1
2, 74076, Note_on_c, 4, 46, 123
2, 74154, Note_off_c, 1, 70, 1
2, 74180, Note_off_c, 4, 46, 1
2, 74181, Note_off_c, 2, 67, 1
2, 74182, Note_on_c, 1, 72, 123
2, 74182, Note_on_c, 2, 68, 123
2, 74182, Note_on_c, 4, 44, 123
2, 74356, Note_off_c, 1, 72, 1
2, 74388, Note_off_c, 4, 44, 1
2, 74388, Note_off_c, 2, 68, 1
2, 74389, Note_on_c, 1, 75, 123
2, 74389, Note_on_c, 2, 68, 123
2, 74390, Note_on_c, 3, 60, 123
2, 74493, Note_off_c, 1, 75, 1
2, 74493, Note_on_c, 1, 74, 123
2, 74598, Note_off_c, 1, 74, 1
2, 74599, Note_off_c, 2, 68, 1
2, 74599, Note_off_c, 3, 60, 1
2, 74600, Note_on_c, 1, 75, 123
2, 74600, Note_on_c, 2, 67, 127
2, 74600, Note_on_c, 3, 58, 123
2, 74770, Note_off_c, 1, 75, 1
2, 74808, Note_off_c, 3, 58, 1
2, 74809, Note_off_c, 2, 67, 1
2, 74809, Note_on_c, 0, 77, 123
2, 74810, Note_on_c, 2, 65, 127
2, 74810, Note_on_c, 3, 56, 123
2, 74987, Note_off_c, 0, 77, 1
2, 75010, Note_off_c, 3, 56, 1
2, 75011, Note_off_c, 2, 65, 1
2, 75011, Note_on_c, 1, 70, 123
2, 75012, Note_on_c, 3, 55, 123
2, 75190, Note_off_c, 1, 70, 1
2, 75221, Note_off_c, 3, 55, 1
2, 75222, Note_on_c, 3, 56, 123
2, 75222, Note_on_c, 1, 75, 123
2, 75223, Note_on_c, 4, 53, 123
2, 75323, Note_off_c, 1, 75, 1
2, 75324, Note_on_c, 1, 74, 123
2, 75425, Note_off_c, 1, 74, 1
2, 75425, Note_off_c, 4, 53, 1
2, 75426, Note_off_c, 3, 56, 1
2, 75426, Note_on_c, 1, 75, 123
2, 75427, Note_on_c, 3, 55, 123
2, 75427, Note_on_c, 3, 58, 123
2, 75605, Note_off_c, 1, 75, 1
2, 75629, Note_off_c, 3, 55, 1
2, 75630, Note_off_c, 3, 58, 1
2, 75630, Note_on_c, 0, 77, 123
2, 75631, Note_on_c, 3, 60, 123
2, 75631, Note_on_c, 3, 56, 123
2, 75800, Note_off_c, 0, 77, 1
2, 75839, Note_off_c, 3, 56, 1
2, 75839, Note_off_c, 3, 60, 1
2, 75840, Note_on_c, 2, 68, 123
2, 75840, Note_on_c, 4, 50, 123
2, 75941, Note_off_c, 2, 68, 1
2, 75942, Note_on_c, 1, 70, 123
2, 76044, Note_off_c, 1, 70, 1
2, 76044, Note_off_c, 4, 50, 1
2, 76045, Note_on_c, 1, 72, 123
2, 76045, Note_on_c, 3, 56, 123
2, 76046, Note_on_c, 4, 51, 123
2, 76148, Note_off_c, 3, 56, 1
2, 76148, Note_on_c, 3, 55, 123
2, 76250, Note_off_c, 3, 55, 1
2, 76251, Note_off_c, 4, 51, 1
2, 76251, Note_on_c, 4, 53, 123
2, 76252, Note_on_c, 3, 56, 123
2, 76458, Note_off_c, 3, 56, 1
2, 76459, Note_off_c, 1, 72, 1
2, 76459, Note_off_c, 4, 53, 1
2, 76459, Note_on_c, 1, 70, 123
2, 76460, Note_on_c, 4, 53, 123
2, 76460, Note_on_c, 4, 50, 123
2, 76564, Note_off_c, 1, 70, 1
2, 76564, Note_on_c, 2, 68, 123
2, 76670, Note_off_c, 2, 68, 1
2, 76671, Note_off_c, 4, 50, 1
2, 76671, Note_off_c, 4, 53, 1
2, 76671, Note_on_c, 2, 67, 127
2, 76672, Note_on_c, 3, 58, 123
2, 76673, Note_on_c, 4, 51, 123
2, 76773, Note_off_c, 2, 67, 1
2, 76774, Note_on_c, 0, 63, 127
2, 76876, Note_off_c, 0, 63, 1
2, 76876, Note_off_c, 4, 51, 1
2, 76877, Note_off_c, 3, 58, 1
2, 76877, Note_on_c, 3, 60, 123
2, 76877, Note_on_c, 2, 65, 127
2, 76878, Note_on_c, 3, 56, 123
2, 76980, Note_off_c, 2, 65, 1
2, 76981, Note_on_c, 2, 67, 127
2, 77085, Note_off_c, 2, 67, 1
2, 77086, Note_off_c, 3, 60, 1
2, 77086, Note_off_c, 3, 56, 1
2, 77087, Note_on_c, 3, 58, 123
2, 77087, Note_on_c, 2, 68, 123
2, 77088, Note_on_c, 3, 55, 123
2, 77191, Note_off_c, 2, 68, 1
2, 77191, Note_on_c, 1, 70, 123
2, 77296, Note_off_c, 1, 70, 1
2, 77297, Note_off_c, 3, 58, 1
2, 77297, Note_off_c, 3, 55, 1
2, 77298, Note_on_c, 1, 72, 123
2, 77298, Note_on_c, 3, 56, 123
2, 77299, Note_on_c, 4, 53, 123
2, 77400, Note_off_c, 1, 72, 1
2, 77400, Note_on_c, 1, 74, 123
2, 77503, Note_off_c, 1, 74, 1
2, 77503, Note_off_c, 4, 53, 1
2, 77504, Note_off_c, 3, 56, 1
2, 77504, Note_on_c, 1, 75, 123
2, 77505, Note_on_c, 3, 55, 123
2, 77505, Note_on_c, 3, 58, 123
2, 77607, Note_off_c, 1, 75, 1
2, 77608, Note_on_c, 1, 74, 123
2, 77713, Note_off_c, 1, 74, 1
2, 77713, Note_off_c, 3, 55, 1
2, 77714, Note_off_c, 3, 58, 1
2, 77714, Note_on_c, 1, 72, 123
2, 77715, Note_on_c, 3, 55, 123
2, 77715, Note_on_c, 4, 51, 123
2, 77819, Note_off_c, 1, 72, 1
2, 77819, Note_on_c, 1, 74, 123
2, 77925, Note_off_c, 1, 74, 1
2, 77926, Note_off_c, 4, 51, 1
2, 77926, Note_off_c, 3, 55, 1
2, 77927, Note_on_c, 1, 75, 123
2, 77927, Note_on_c, 4, 53, 123
2, 77928, Note_on_c, 4, 50, 123
2, 78031, Note_off_c, 1, 75, 1
2, 78031, Note_on_c, 0, 77, 123
2, 78136, Note_off_c, 0, 77, 1
2, 78137, Note_off_c, 4, 53, 1
2, 78137, Note_off_c, 4, 50, 1
2, 78138, Note_on_c, 0, 79, 114
2, 78138, Note_on_c, 4, 51, 123
2, 78139, Note_on_c, 4, 48, 123
2, 78243, Note_off_c, 0, 79, 1
2, 78243, Note_on_c, 0, 81, 114
2, 78348, Note_off_c, 0, 81, 1
2, 78349, Note_off_c, 4, 51, 1
2, 78349, Note_off_c, 4, 48, 1
2, 78350, Note_on_c, 4, 53, 123
2, 78350, Note_on_c, 0, 82, 114
2, 78351, Note_on_c, 4, 50, 123
2, 78451, Note_off_c, 0, 82, 1
2, 78452, Note_on_c, 2, 65, 127
2, 78556, Note_off_c, 2, 65, 1
2, 78556, Note_off_c, 4, 50, 1
2, 78557, Note_off_c, 4, 53, 1
2, 78557, Note_on_c, 2, 67, 127
2, 78558, Note_on_c, 3, 58, 123
2, 78558, Note_on_c, 3, 61, 123
2, 78661, Note_off_c, 2, 67, 1
2, 78661, Note_on_c, 2, 68, 123
2, 78765, Note_off_c, 2, 68, 1
2, 78765, Note_off_c, 3, 58, 1
2, 78766, Note_off_c, 3, 61, 1
2, 78766, Note_on_c, 3, 60, 123
2, 78766, Note_on_c, 1, 70, 123
2, 78767, Note_on_c, 3, 56, 123
2, 78866, Note_off_c, 1, 70, 1
2, 78867, Note_on_c, 1, 72, 123
2, 78968, Note_off_c, 1, 72, 1
2, 78968, Note_off_c, 3, 56, 1
2, 78969, Note_off_c, 3, 60, 1
2, 78970, Note_on_c, 1, 74, 123
2, 78970, Note_on_c, 3, 58, 123
2, 78970, Note_on_c, 3, 55, 123
2, 79071, Note_off_c, 1, 74, 1
2, 79071, Note_on_c, 1, 76, 123
2, 79174, Note_off_c, 1, 76, 1
2, 79174, Note_off_c, 3, 55, 1
2, 79175, Note_off_c, 3, 58, 1
2, 79175, Note_on_c, 0, 77, 123
2, 79176, Note_on_c, 3, 56, 123
2, 79176, Note_on_c, 3, 60, 123
2, 79278, Note_off_c, 0, 77, 1
2, 79279, Note_on_c, 1, 75, 123
2, 79383, Note_off_c, 1, 75, 1
2, 79383, Note_off_c, 3, 56, 1
2, 79384, Note_off_c, 3, 60, 1
2, 79384, Note_on_c, 1, 74, 123
2, 79385, Note_on_c, 3, 56, 123
2, 79385, Note_on_c, 4, 53, 123
2, 79486, Note_off_c, 1, 74, 1
2, 79486, Note_on_c, 1, 75, 123
2, 79587, Note_off_c, 1, 75, 1
2, 79588, Note_off_c, 4, 53, 1
2, 79588, Note_off_c, 3, 56, 1
2, 79589, Note_on_c, 0, 77, 123
2, 79589, Note_on_c, 3, 55, 123
2, 79590, Note_on_c, 4, 51, 123
2, 79691, Note_off_c, 0, 77, 1
2, 79692, Note_on_c, 0, 79, 114
2, 79797, Note_off_c, 0, 79, 1
2, 79797, Note_off_c, 4, 51, 1
2, 79798, Note_off_c, 3, 55, 1
2, 79798, Note_on_c, 0, 81, 114
2, 79799, Note_on_c, 4, 53, 123
2, 79799, Note_on_c, 4, 50, 123
2, 79902, Note_off_c, 0, 81, 1
2, 79903, Note_on_c, 0, 83, 114
2, 80008, Note_off_c, 0, 83, 1
2, 80008, Note_off_c, 4, 50, 1
2, 80009, Note_off_c, 4, 53, 1
2, 80009, Note_on_c, 0, 84, 115
2, 80010, Note_on_c, 3, 55, 123
2, 80010, Note_on_c, 4, 51, 123
2, 80220, Note_off_c, 4, 51, 1
2, 80220, Note_off_c, 3, 55, 1
2, 80221, Note_off_c, 0, 84, 1
2, 80221, Note_on_c, 0, 83, 115
2, 80222, Note_on_c, 2, 67, 127
2, 80327, Note_off_c, 2, 67, 1
2, 80327, Note_off_c, 0, 83, 1
2, 80328, Note_on_c, 0, 81, 115
2, 80328, Note_on_c, 2, 66, 127
2, 80432, Note_off_c, 2, 66, 1
2, 80433, Note_off_c, 0, 81, 1
2, 80433, Note_on_c, 0, 79, 115
2, 80434, Note_on_c, 2, 67, 127
2, 80538, Note_off_c, 0, 79, 1
2, 80538, Note_on_c, 0, 77, 124
2, 80644, Note_off_c, 0, 77, 1
2, 80645, Note_off_c, 2, 67, 1
2, 80645, Note_on_c, 1, 75, 124
2, 80646, Note_on_c, 3, 60, 123
2, 80750, Note_off_c, 1, 75, 1
2, 80750, Note_on_c, 1, 74, 124
2, 80856, Note_off_c, 1, 74, 1
2, 80856, Note_off_c, 3, 60, 1
2, 80856, Note_on_c, 1, 72, 124
2, 80857, Note_on_c, 0, 63, 127
2, 81064, Note_off_c, 1, 72, 1
2, 81064, Note_off_c, 0, 63, 1
2, 81065, Note_on_c, 1, 75, 124
2, 81065, Note_on_c, 2, 67, 127
2, 81066, Note_on_c, 4, 48, 123
2, 81168, Note_off_c, 2, 67, 1
2, 81169, Note_on_c, 2, 66, 127
2, 81273, Note_off_c, 2, 66, 1
2, 81273, Note_off_c, 4, 48, 1
2, 81274, Note_off_c, 1, 75, 1
2, 81274, Note_on_c, 1, 74, 124
2, 81274, Note_on_c, 2, 67, 127
2, 81275, Note_on_c, 4, 46, 123
2, 81482, Note_off_c, 2, 67, 1
2, 81482, Note_off_c, 4, 46, 1
2, 81483, Note_off_c, 1, 74, 1
2, 81483, Note_on_c, 1, 72, 124
2, 81483, Note_on_c, 2, 69, 124
2, 81484, Note_on_c, 4, 45, 123
2, 81690, Note_off_c, 4, 45, 1
2, 81691, Note_off_c, 2, 69, 1
2, 81691, Note_off_c, 1, 72, 1
2, 81692, Note_on_c, 1, 70, 125
2, 81692, Note_on_c, 3, 62, 123
2, 81899, Note_off_c, 3, 62, 1
2, 81899, Note_off_c, 1, 70, 1
2, 81900, Note_on_c, 2, 69, 125
2, 81900, Note_on_c, 4, 51, 123
2, 81900, Note_on_c, 2, 67, 127
2, 82003, Note_off_c, 2, 67, 1
2, 82004, Note_on_c, 2, 66, 127
2, 82108, Note_off_c, 4, 51, 1
2, 82108, Note_off_c, 2, 66, 1
2, 82109, Note_off_c, 2, 69, 1
2, 82109, Note_on_c, 1, 70, 125
2, 82110, Note_on_c, 2, 67, 127
2, 82110, Note_on_c, 4, 50, 123
2, 82284, Note_off_c, 2, 67, 1
2, 82316, Note_off_c, 4, 50, 1
2, 82317, Note_off_c, 1, 70, 1
2, 82317, Note_on_c, 1, 72, 125
2, 82318, Note_on_c, 2, 69, 125
2, 82318, Note_on_c, 4, 48, 123
2, 82506, Note_off_c, 2, 69, 1
2, 82525, Note_off_c, 4, 48, 1
2, 82526, Note_off_c, 1, 72, 1
2, 82526, Note_on_c, 2, 66, 127
2, 82527, Note_on_c, 3, 60, 123
2, 82527, Note_on_c, 4, 50, 123
2, 82629, Note_off_c, 3, 60, 1
2, 82630, Note_on_c, 3, 62, 123
2, 82734, Note_off_c, 3, 62, 1
2, 82734, Note_off_c, 4, 50, 1
2, 82735, Note_off_c, 2, 66, 1
2, 82735, Note_on_c, 2, 67, 127
2, 82736, Note_on_c, 0, 63, 127
2, 82736, Note_on_c, 4, 48, 123
2, 82838, Note_off_c, 4, 48, 1
2, 82839, Note_on_c, 4, 46, 123
2, 82942, Note_off_c, 4, 46, 1
2, 82943, Note_off_c, 2, 67, 1
2, 82943, Note_on_c, 2, 69, 125
2, 82944, Note_on_c, 4, 48, 123
2, 83151, Note_off_c, 4, 48, 1
2, 83152, Note_off_c, 2, 69, 1
2, 83152, Note_off_c, 0, 63, 1
2, 83153, Note_on_c, 2, 66, 127
2, 83153, Note_on_c, 3, 62, 123
2, 83154, Note_on_c, 4, 50, 123
2, 83245, Note_off_c, 3, 62, 1
2, 83256, Note_on_c, 3, 60, 123
2, 83346, Note_off_c, 2, 66, 1
2, 83360, Note_off_c, 3, 60, 1
2, 83361, Note_off_c, 4, 50, 1
2, 83361, Note_on_c, 2, 67, 127
2, 83361, Note_on_c, 3, 58, 123
2, 83362, Note_on_c, 4, 43, 123
2, 83520, Note_off_c, 3, 58, 1
2, 83566, Note_off_c, 4, 43, 1
2, 83567, Note_off_c, 2, 67, 1
2, 83568, Note_on_c, 1, 74, 125
2, 83568, Note_on_c, 3, 58, 123
2, 83669, Note_off_c, 3, 58, 1
2, 83670, Note_off_c, 1, 74, 1
2, 83670, Note_on_c, 3, 57, 123
2, 83670, Note_on_c, 1, 72, 125
2, 83756, Note_off_c, 1, 72, 1
2, 83773, Note_off_c, 3, 57, 1
2, 83773, Note_on_c, 1, 74, 125
2, 83773, Note_on_c, 3, 58, 123
2, 83878, Note_on_c, 3, 62, 123
2, 83981, Note_off_c, 3, 62, 1
2, 83982, Note_off_c, 3, 58, 1
2, 83982, Note_off_c, 1, 74, 1
2, 83983, Note_on_c, 2, 64, 127
2, 83983, Note_on_c, 4, 50, 123
2, 84086, Note_off_c, 2, 64, 1
2, 84086, Note_on_c, 2, 66, 127
2, 84190, Note_off_c, 2, 66, 1
2, 84190, Note_off_c, 4, 50, 1
2, 84191, Note_on_c, 2, 67, 127
2, 84191, Note_on_c, 4, 51, 123
2, 84292, Note_off_c, 2, 67, 1
2, 84293, Note_on_c, 2, 69, 125
2, 84395, Note_off_c, 2, 69, 1
2, 84396, Note_off_c, 4, 51, 1
2, 84396, Note_on_c, 1, 70, 125
2, 84396, Note_on_c, 1, 76, 125
2, 84397, Note_on_c, 3, 60, 123
2, 84498, Note_off_c, 1, 76, 1
2, 84498, Note_off_c, 3, 60, 1
2, 84499, Note_on_c, 1, 74, 125
2, 84499, Note_on_c, 3, 58, 123
2, 84601, Note_off_c, 3, 58, 1
2, 84602, Note_off_c, 1, 74, 1
2, 84602, Note_on_c, 1, 76, 125
2, 84603, Note_on_c, 3, 60, 123
2, 84681, Note_off_c, 1, 70, 1
2, 84705, Note_on_c, 2, 64, 127
2, 84810, Note_off_c, 3, 60, 1
2, 84810, Note_off_c, 2, 64, 1
2, 84811, Note_off_c, 1, 76, 1
2, 84811, Note_on_c, 4, 52, 123
2, 84812, Note_on_c, 2, 65, 127
2, 84913, Note_off_c, 2, 65, 1
2, 84914, Note_on_c, 2, 67, 127
2, 85017, Note_off_c, 2, 67, 1
2, 85018, Note_off_c, 4, 52, 1
2, 85018, Note_on_c, 2, 69, 125
2, 85019, Note_on_c, 4, 53, 123
2, 85120, Note_off_c, 2, 69, 1
2, 85120, Note_on_c, 1, 70, 125
2, 85223, Note_off_c, 1, 70, 1
2, 85223, Note_off_c, 4, 53, 1
2, 85224, Note_on_c, 1, 72, 125
2, 85224, Note_on_c, 0, 78, 119
2, 85224, Note_on_c, 3, 62, 123
2, 85326, Note_off_c, 3, 62, 1
2, 85327, Note_off_c, 0, 78, 1
2, 85327, Note_on_c, 1, 76, 125
2, 85328, Note_on_c, 3, 60, 123
2, 85429, Note_off_c, 3, 60, 1
2, 85429, Note_off_c, 1, 76, 1
2, 85430, Note_on_c, 0, 78, 119
2, 85430, Note_on_c, 3, 62, 123
2, 85514, Note_off_c, 1, 72, 1
2, 85532, Note_on_c, 2, 66, 127
2, 85635, Note_off_c, 2, 66, 1
2, 85635, Note_off_c, 3, 62, 1
2, 85636, Note_off_c, 0, 78, 1
2, 85636, Note_on_c, 4, 54, 123
2, 85637, Note_on_c, 2, 67, 127
2, 85737, Note_off_c, 2, 67, 1
2, 85738, Note_on_c, 2, 69, 125
2, 85840, Note_off_c, 2, 69, 1
2, 85841, Note_off_c, 4, 54, 1
2, 85841, Note_on_c, 1, 70, 125
2, 85841, Note_on_c, 3, 55, 123
2, 86023, Note_off_c, 1, 70, 1
2, 86047, Note_on_c, 0, 63, 127
2, 86047, Note_on_c, 2, 67, 127
2, 86149, Note_off_c, 0, 63, 1
2, 86150, Note_off_c, 2, 67, 1
2, 86150, Note_off_c, 3, 55, 1
2, 86151, Note_on_c, 2, 65, 127
2, 86151, Note_on_c, 3, 62, 123
2, 86252, Note_off_c, 3, 62, 1
2, 86253, Note_off_c, 2, 65, 1
2, 86253, Note_on_c, 2, 67, 127
2, 86254, Note_on_c, 0, 63, 127
2, 86355, Note_on_c, 4, 43, 123
2, 86459, Note_off_c, 0, 63, 1
2, 86459, Note_off_c, 4, 43, 1
2, 86460, Note_off_c, 2, 67, 1
2, 86460, Note_on_c, 3, 55, 123
2, 86460, Note_on_c, 4, 45, 123
2, 86561, Note_off_c, 4, 45, 1
2, 86562, Note_on_c, 4, 47, 123
2, 86663, Note_off_c, 4, 47, 1
2, 86664, Note_off_c, 3, 55, 1
2, 86664, Note_on_c, 3, 56, 123
2, 86664, Note_on_c, 4, 48, 123
2, 86767, Note_off_c, 4, 48, 1
2, 86767, Note_on_c, 4, 50, 123
2, 86869, Note_off_c, 4, 50, 1
2, 86870, Note_off_c, 3, 56, 1
2, 86870, Note_on_c, 2, 69, 125
2, 86871, Note_on_c, 4, 51, 123
2, 86871, Note_on_c, 2, 65, 127
2, 86972, Note_off_c, 2, 65, 1
2, 86973, Note_off_c, 2, 69, 1
2, 86973, Note_on_c, 2, 67, 127
2, 86974, Note_on_c, 0, 63, 127
2, 87076, Note_off_c, 0, 63, 1
2, 87076, Note_off_c, 2, 67, 1
2, 87077, Note_on_c, 2, 69, 125
2, 87077, Note_on_c, 2, 65, 127
2, 87179, Note_off_c, 4, 51, 1
2, 87179, Note_on_c, 4, 45, 123
2, 87281, Note_off_c, 4, 45, 1
2, 87282, Note_off_c, 2, 65, 1
2, 87282, Note_off_c, 2, 69, 1
2, 87283, Note_on_c, 3, 57, 123
2, 87283, Note_on_c, 4, 46, 123
2, 87386, Note_off_c, 4, 46, 1
2, 87386, Note_on_c, 4, 48, 123
2, 87491, Note_off_c, 4, 48, 1
2, 87491, Note_off_c, 3, 57, 1
2, 87492, Note_on_c, 3, 58, 123
2, 87492, Note_on_c, 4, 50, 123
2, 87596, Note_off_c, 4, 50, 1
2, 87597, Note_on_c, 4, 51, 123
2, 87701, Note_off_c, 3, 58, 1
2, 87701, Note_off_c, 4, 51, 1
2, 87702, Note_on_c, 1, 71, 125
2, 87702, Note_on_c, 2, 67, 127
2, 87703, Note_on_c, 4, 53, 123
2, 87804, Note_off_c, 2, 67, 1
2, 87805, Note_off_c, 1, 71, 1
2, 87805, Note_on_c, 2, 69, 125
2, 87806, Note_on_c, 2, 65, 127
2, 87907, Note_off_c, 2, 65, 1
2, 87908, Note_off_c, 2, 69, 1
2, 87908, Note_on_c, 1, 71, 125
2, 87909, Note_on_c, 2, 67, 127
2, 88010, Note_off_c, 4, 53, 1
2, 88010, Note_on_c, 4, 47, 123
2, 88113, Note_off_c, 2, 67, 1
2, 88113, Note_off_c, 4, 47, 1
2, 88114, Note_off_c, 1, 71, 1
2, 88114, Note_on_c, 3, 59, 123
2, 88115, Note_on_c, 4, 48, 123
2, 88217, Note_off_c, 4, 48, 1
2, 88218, Note_on_c, 4, 50, 123
2, 88321, Note_off_c, 4, 50, 1
2, 88322, Note_off_c, 3, 59, 1
2, 88322, Note_on_c, 4, 51, 123
2, 88323, Note_on_c, 3, 60, 123
2, 88424, Note_off_c, 3, 60, 1
2, 88425, Note_on_c, 2, 65, 127
2, 88528, Note_off_c, 2, 65, 1
2, 88528, Note_off_c, 4, 51, 1
2, 88528, Note_on_c, 1, 72, 125
2, 88529, Note_on_c, 0, 63, 127
2, 88631, Note_off_c, 1, 72, 1
2, 88631, Note_off_c, 0, 63, 1
2, 88632, Note_on_c, 1, 71, 125
2, 88632, Note_on_c, 3, 62, 123
2, 88733, Note_off_c, 3, 62, 1
2, 88734, Note_off_c, 1, 71, 1
2, 88734, Note_on_c, 1, 72, 125
2, 88735, Note_on_c, 3, 60, 123
2, 88836, Note_off_c, 3, 60, 1
2, 88836, Note_on_c, 3, 58, 123
2, 88939, Note_off_c, 3, 58, 1
2, 88939, Note_off_c, 1, 72, 1
2, 88940, Note_on_c, 2, 67, 127
2, 88940, Note_on_c, 4, 52, 123
2, 88941, Note_on_c, 3, 56, 123
2, 89042, Note_off_c, 3, 56, 1
2, 89043, Note_on_c, 3, 55, 123
2, 89146, Note_off_c, 3, 55, 1
2, 89147, Note_off_c, 4, 52, 1
2, 89147, Note_off_c, 2, 67, 1
2, 89148, Note_on_c, 2, 68, 125
2, 89148, Note_on_c, 4, 53, 123
2, 89328, Note_off_c, 2, 68, 1
2, 89352, Note_off_c, 4, 53, 1
2, 89353, Note_on_c, 2, 68, 125
2, 89353, Note_on_c, 1, 72, 125
2, 89354, Note_on_c, 4, 41, 123
2, 89454, Note_off_c, 1, 72, 1
2, 89455, Note_on_c, 1, 71, 125
2, 89557, Note_off_c, 1, 71, 1
2, 89557, Note_off_c, 4, 41, 1
2, 89558, Note_off_c, 2, 68, 1
2, 89558, Note_on_c, 1, 72, 125
2, 89559, Note_on_c, 2, 67, 127
2, 89559, Note_on_c, 4, 39, 123
2, 89763, Note_off_c, 4, 39, 1
2, 89764, Note_off_c, 1, 72, 1
2, 89764, Note_off_c, 2, 67, 1
2, 89765, Note_on_c, 1, 74, 125
2, 89765, Note_on_c, 2, 65, 127
2, 89766, Note_on_c, 4, 38, 123
2, 89972, Note_off_c, 4, 38, 1
2, 89972, Note_off_c, 2, 65, 1
2, 89973, Note_off_c, 1, 74, 1
2, 89973, Note_on_c, 2, 67, 127
2, 89974, Note_on_c, 0, 63, 127
2, 90181, Note_off_c, 0, 63, 1
2, 90181, Note_on_c, 1, 72, 125
2, 90182, Note_on_c, 3, 62, 123
2, 90182, Note_on_c, 4, 44, 123
2, 90200, Note_off_c, 2, 67, 1
2, 90285, Note_off_c, 1, 72, 1
2, 90285, Note_on_c, 1, 71, 125
2, 90387, Note_off_c, 1, 71, 1
2, 90388, Note_off_c, 4, 44, 1
2, 90388, Note_off_c, 3, 62, 1
2, 90389, Note_on_c, 0, 63, 127
2, 90389, Note_on_c, 1, 72, 125
2, 90390, Note_on_c, 4, 43, 123
2, 90594, Note_off_c, 4, 43, 1
2, 90595, Note_off_c, 0, 63, 1
2, 90595, Note_on_c, 1, 74, 125
2, 90595, Note_on_c, 2, 65, 127
2, 90596, Note_on_c, 4, 41, 123
2, 90603, Note_off_c, 1, 72, 1
2, 90802, Note_off_c, 2, 65, 1
2, 90802, Note_off_c, 4, 41, 1
2, 90803, Note_on_c, 3, 59, 123
2, 90803, Note_on_c, 2, 65, 127
2, 90804, Note_on_c, 4, 43, 123
2, 90819, Note_off_c, 1, 74, 1
2, 90905, Note_off_c, 2, 65, 1
2, 90906, Note_on_c, 2, 67, 127
2, 91010, Note_off_c, 2, 67, 1
2, 91010, Note_off_c, 4, 43, 1
2, 91011, Note_off_c, 3, 59, 1
2, 91011, Note_on_c, 2, 68, 125
2, 91012, Note_on_c, 3, 60, 123
2, 91012, Note_on_c, 4, 41, 123
2, 91113, Note_off_c, 4, 41, 1
2, 91113, Note_on_c, 4, 39, 123
2, 91215, Note_off_c, 4, 39, 1
2, 91216, Note_off_c, 3, 60, 1
2, 91216, Note_on_c, 3, 62, 123
2, 91217, Note_on_c, 4, 41, 123
2, 91417, Note_off_c, 4, 41, 1
2, 91417, Note_off_c, 3, 62, 1
2, 91418, Note_off_c, 2, 68, 1
2, 91418, Note_on_c, 2, 67, 127
2, 91419, Note_on_c, 3, 59, 123
2, 91419, Note_on_c, 4, 43, 123
2, 91518, Note_off_c, 2, 67, 1
2, 91518, Note_on_c, 2, 65, 127
2, 91620, Note_off_c, 2, 65, 1
2, 91621, Note_off_c, 4, 43, 1
2, 91621, Note_off_c, 3, 59, 1
2, 91622, Note_on_c, 3, 60, 123
2, 91622, Note_on_c, 0, 63, 127
2, 91623, Note_on_c, 4, 48, 123
2, 91723, Note_off_c, 4, 48, 1
2, 91724, Note_on_c, 4, 50, 123
2, 91827, Note_off_c, 4, 50, 1
2, 91827, Note_off_c, 0, 63, 1
2, 91828, Note_on_c, 1, 72, 125
2, 91828, Note_on_c, 4, 51, 123
2, 91930, Note_off_c, 4, 51, 1
2, 91930, Note_off_c, 1, 72, 1
2, 91931, Note_on_c, 1, 71, 125
2, 91931, Note_on_c, 4, 50, 123
2, 92034, Note_off_c, 4, 50, 1
2, 92035, Note_off_c, 1, 71, 1
2, 92035, Note_off_c, 3, 60, 1
2, 92036, Note_on_c, 1, 72, 125
2, 92036, Note_on_c, 4, 48, 123
2, 92139, Note_off_c, 4, 48, 1
2, 92139, Note_on_c, 4, 46, 123
2, 92243, Note_off_c, 1, 72, 1
2, 92243, Note_off_c, 4, 46, 1
2, 92244, Note_on_c, 2, 64, 127
2, 92244, Note_on_c, 2, 67, 127
2, 92244, Note_on_c, 4, 44, 123
2, 92347, Note_off_c, 4, 44, 1
2, 92348, Note_on_c, 4, 43, 123
2, 92452, Note_off_c, 2, 64, 1
2, 92452, Note_off_c, 4, 43, 1
2, 92453, Note_off_c, 2, 67, 1
2, 92453, Note_on_c, 2, 68, 125
2, 92454, Note_on_c, 2, 65, 127
2, 92454, Note_on_c, 4, 41, 123
2, 92555, Note_off_c, 4, 41, 1
2, 92555, Note_on_c, 3, 58, 123
2, 92639, Note_off_c, 2, 65, 1
2, 92655, Note_off_c, 3, 58, 1
2, 92656, Note_on_c, 2, 65, 127
2, 92656, Note_on_c, 3, 56, 123
2, 92757, Note_off_c, 2, 65, 1
2, 92758, Note_off_c, 3, 56, 1
2, 92758, Note_on_c, 3, 55, 123
2, 92759, Note_on_c, 2, 64, 127
2, 92860, Note_off_c, 2, 64, 1
2, 92860, Note_off_c, 3, 55, 1
2, 92861, Note_off_c, 2, 68, 1
2, 92861, Note_on_c, 4, 53, 123
2, 92862, Note_on_c, 2, 65, 127
2, 92964, Note_off_c, 4, 53, 1
2, 92964, Note_on_c, 4, 51, 123
2, 93065, Note_off_c, 4, 51, 1
2, 93065, Note_off_c, 2, 65, 1
2, 93066, Note_on_c, 2, 69, 125
2, 93066, Note_on_c, 3, 60, 123
2, 93066, Note_on_c, 4, 50, 123
2, 93168, Note_off_c, 4, 50, 1
2, 93168, Note_on_c, 4, 48, 123
2, 93271, Note_off_c, 4, 48, 1
2, 93272, Note_off_c, 3, 60, 1
2, 93272, Note_off_c, 2, 69, 1
2, 93273, Note_on_c, 3, 62, 123
2, 93273, Note_on_c, 1, 70, 125
2, 93273, Note_on_c, 4, 46, 123
2, 93376, Note_off_c, 4, 46, 1
2, 93376, Note_on_c, 4, 48, 123
2, 93410, Note_off_c, 1, 70, 1
2, 93480, Note_off_c, 4, 48, 1
2, 93480, Note_on_c, 1, 70, 125
2, 93480, Note_on_c, 4, 50, 123
2, 93583, Note_off_c, 4, 50, 1
2, 93584, Note_off_c, 1, 70, 1
2, 93584, Note_on_c, 2, 69, 125
2, 93585, Note_on_c, 4, 48, 123
2, 93685, Note_off_c, 2, 69, 1
2, 93685, Note_off_c, 4, 48, 1
2, 93686, Note_off_c, 3, 62, 1
2, 93686, Note_on_c, 1, 70, 125
2, 93687, Note_on_c, 4, 46, 123
2, 93786, Note_off_c, 4, 46, 1
2, 93786, Note_on_c, 4, 44, 123
2, 93887, Note_off_c, 1, 70, 1
2, 93887, Note_off_c, 4, 44, 1
2, 93888, Note_on_c, 2, 65, 127
2, 93888, Note_on_c, 3, 62, 123
2, 93888, Note_on_c, 4, 43, 123
2, 93987, Note_off_c, 4, 43, 1
2, 93988, Note_on_c, 4, 41, 123
2, 94089, Note_off_c, 4, 41, 1
2, 94090, Note_off_c, 3, 62, 1
2, 94090, Note_off_c, 2, 65, 1
2, 94091, Note_on_c, 2, 67, 127
2, 94091, Note_on_c, 0, 63, 127
2, 94092, Note_on_c, 4, 39, 123
2, 94189, Note_off_c, 4, 39, 1
2, 94189, Note_on_c, 3, 56, 123
2, 94272, Note_off_c, 0, 63, 1
2, 94289, Note_off_c, 3, 56, 1
2, 94289, Note_on_c, 3, 55, 123
2, 94290, Note_on_c, 0, 63, 127
2, 94390, Note_off_c, 3, 55, 1
2, 94390, Note_off_c, 0, 63, 1
2, 94391, Note_on_c, 3, 62, 123
2, 94391, Note_on_c, 4, 53, 123
2, 94491, Note_off_c, 3, 62, 1
2, 94492, Note_off_c, 4, 53, 1
2, 94492, Note_off_c, 2, 67, 1
2, 94493, Note_on_c, 0, 63, 127
2, 94493, Note_on_c, 4, 51, 123
2, 94592, Note_off_c, 4, 51, 1
2, 94593, Note_on_c, 4, 50, 123
2, 94695, Note_off_c, 4, 50, 1
2, 94695, Note_off_c, 0, 63, 1
2, 94696, Note_on_c, 2, 67, 127
2, 94696, Note_on_c, 3, 58, 123
2, 94697, Note_on_c, 4, 48, 123
2, 94798, Note_off_c, 4, 48, 1
2, 94798, Note_on_c, 4, 46, 123
2, 94900, Note_off_c, 4, 46, 1
2, 94901, Note_off_c, 3, 58, 1
2, 94901, Note_on_c, 3, 60, 123
2, 94902, Note_on_c, 4, 44, 123
2, 95002, Note_off_c, 4, 44, 1
2, 95003, Note_on_c, 4, 46, 123
2, 95104, Note_off_c, 4, 46, 1
2, 95105, Note_off_c, 2, 67, 1
2, 95105, Note_on_c, 2, 68, 125
2, 95105, Note_on_c, 4, 48, 123
2, 95205, Note_off_c, 4, 48, 1
2, 95205, Note_off_c, 2, 68, 1
2, 95206, Note_on_c, 1, 70, 125
2, 95206, Note_on_c, 4, 46, 123
2, 95306, Note_off_c, 4, 46, 1
2, 95306, Note_off_c, 1, 70, 1
2, 95306, Note_on_c, 1, 72, 125
2, 95307, Note_on_c, 4, 44, 123
2, 95406, Note_off_c, 4, 44, 1
2, 95406, Note_off_c, 1, 72, 1
2, 95406, Note_on_c, 1, 71, 125
2, 95407, Note_on_c, 4, 43, 123
2, 95507, Note_off_c, 4, 43, 1
2, 95507, Note_off_c, 1, 71, 1
2, 95508, Note_on_c, 1, 72, 125
2, 95508, Note_on_c, 4, 41, 123
2, 95608, Note_off_c, 4, 41, 1
2, 95609, Note_off_c, 1, 72, 1
2, 95609, Note_on_c, 2, 68, 125
2, 95609, Note_on_c, 4, 39, 123
2, 95710, Note_off_c, 4, 39, 1
2, 95711, Note_off_c, 2, 68, 1
2, 95711, Note_on_c, 2, 65, 127
2, 95712, Note_on_c, 4, 38, 123
2, 95811, Note_off_c, 4, 38, 1
2, 95811, Note_on_c, 3, 55, 123
2, 95913, Note_off_c, 3, 55, 1
2, 95913, Note_off_c, 3, 60, 1
2, 95914, Note_on_c, 3, 62, 123
2, 95914, Note_on_c, 4, 53, 123
2, 96013, Note_off_c, 3, 62, 1
2, 96014, Note_off_c, 4, 53, 1
2, 96014, Note_on_c, 4, 51, 123
2, 96015, Note_on_c, 0, 63, 127
2, 96113, Note_off_c, 0, 63, 1
2, 96114, Note_off_c, 4, 51, 1
2, 96114, Note_on_c, 4, 50, 123
2, 96115, Note_on_c, 2, 65, 127
2, 96214, Note_off_c, 2, 65, 1
2, 96215, Note_off_c, 4, 50, 1
2, 96215, Note_on_c, 0, 63, 127
2, 96216, Note_on_c, 4, 48, 123
2, 96314, Note_off_c, 0, 63, 1
2, 96314, Note_off_c, 4, 48, 1
2, 96315, Note_on_c, 2, 65, 127
2, 96315, Note_on_c, 4, 47, 123
2, 96414, Note_off_c, 4, 47, 1
2, 96414, Note_off_c, 2, 65, 1
2, 96415, Note_on_c, 3, 62, 123
2, 96415, Note_on_c, 4, 45, 123
2, 96514, Note_off_c, 4, 45, 1
2, 96514, Note_off_c, 3, 62, 1
2, 96515, Note_on_c, 3, 59, 123
2, 96515, Note_on_c, 4, 43, 123
2, 96723, Note_off_c, 3, 59, 1
2, 96723, Note_off_c, 2, 65, 1
2, 96724, Note_on_c, 1, 74, 125
2, 96827, Note_off_c, 1, 74, 1
2, 96827, Note_on_c, 1, 72, 125
2, 96931, Note_off_c, 1, 72, 1
2, 96932, Note_off_c, 4, 43, 1
2, 96932, Note_on_c, 1, 74, 125
2, 97140, Note_off_c, 1, 74, 1
2, 97140, Note_on_c, 2, 65, 127
2, 97140, Note_on_c, 3, 59, 123
2, 97346, Note_off_c, 3, 59, 1
2, 97346, Note_off_c, 2, 65, 1
2, 97347, Note_on_c, 0, 63, 127
2, 97347, Note_on_c, 3, 60, 123
2, 97449, Note_on_c, 4, 43, 123
2, 97552, Note_off_c, 4, 43, 1
2, 97552, Note_off_c, 3, 60, 1
2, 97552, Note_off_c, 0, 63, 1
2, 97553, Note_on_c, 1, 75, 125
2, 97553, Note_on_c, 4, 45, 123
2, 97652, Note_off_c, 4, 45, 1
2, 97653, Note_off_c, 1, 75, 1
2, 97654, Note_on_c, 1, 74, 125
2, 97654, Note_on_c, 4, 47, 123
2, 97753, Note_off_c, 4, 47, 1
2, 97753, Note_off_c, 1, 74, 1
2, 97754, Note_on_c, 1, 75, 125
2, 97754, Note_on_c, 4, 48, 123
2, 97853, Note_off_c, 4, 48, 1
2, 97854, Note_on_c, 4, 50, 123
2, 97953, Note_off_c, 4, 50, 1
2, 97954, Note_off_c, 1, 75, 1
2, 97954, Note_on_c, 2, 67, 127
2, 97955, Note_on_c, 0, 63, 127
2, 97955, Note_on_c, 4, 51, 123
2, 98055, Note_off_c, 4, 51, 1
2, 98055, Note_on_c, 4, 53, 123
2, 98157, Note_off_c, 4, 53, 1
2, 98157, Note_off_c, 0, 63, 1
2, 98158, Note_off_c, 2, 67, 1
2, 98158, Note_on_c, 3, 55, 123
2, 98159, Note_on_c, 2, 65, 127
2, 98159, Note_on_c, 3, 62, 123
2, 98259, Note_off_c, 3, 55, 1
2, 98260, Note_on_c, 4, 53, 123
2, 98362, Note_off_c, 4, 53, 1
2, 98363, Note_on_c, 0, 77, 125
2, 98363, Note_on_c, 3, 56, 123
2, 98364, Note_off_c, 2, 65, 1
2, 98365, Note_off_c, 3, 62, 1
2, 98465, Note_off_c, 3, 56, 1
2, 98465, Note_off_c, 0, 77, 1
2, 98466, Note_on_c, 1, 75, 125
2, 98466, Note_on_c, 3, 55, 123
2, 98568, Note_off_c, 3, 55, 1
2, 98568, Note_off_c, 1, 75, 1
2, 98568, Note_on_c, 0, 77, 125
2, 98569, Note_on_c, 4, 53, 123
2, 98671, Note_off_c, 4, 53, 1
2, 98672, Note_on_c, 4, 51, 123
2, 98774, Note_off_c, 4, 51, 1
2, 98774, Note_off_c, 0, 77, 1
2, 98775, Note_on_c, 2, 65, 127
2, 98775, Note_on_c, 2, 68, 125
2, 98776, Note_on_c, 4, 50, 123
2, 98876, Note_off_c, 4, 50, 1
2, 98876, Note_on_c, 4, 48, 123
2, 98976, Note_off_c, 4, 48, 1
2, 98977, Note_off_c, 2, 68, 1
2, 98977, Note_on_c, 2, 67, 127
2, 98978, Note_on_c, 4, 47, 123
2, 99078, Note_off_c, 2, 67, 1
2, 99079, Note_on_c, 0, 77, 125
2, 99180, Note_off_c, 0, 77, 1
2, 99180, Note_off_c, 4, 47, 1
2, 99181, Note_off_c, 2, 65, 1
2, 99181, Note_on_c, 1, 75, 125
2, 99182, Note_on_c, 4, 48, 123
2, 99282, Note_off_c, 4, 48, 1
2, 99282, Note_off_c, 1, 75, 1
2, 99283, Note_on_c, 1, 74, 125
2, 99283, Note_on_c, 4, 47, 123
2, 99383, Note_off_c, 4, 47, 1
2, 99383, Note_off_c, 1, 74, 1
2, 99384, Note_on_c, 1, 72, 125
2, 99384, Note_on_c, 4, 48, 123
2, 99484, Note_off_c, 1, 72, 1
2, 99485, Note_on_c, 1, 71, 125
2, 99587, Note_off_c, 1, 71, 1
2, 99587, Note_off_c, 4, 48, 1
2, 99587, Note_on_c, 2, 69, 125
2, 99588, Note_on_c, 2, 65, 127
2, 99588, Note_on_c, 4, 43, 123
2, 99687, Note_off_c, 2, 69, 1
2, 99687, Note_on_c, 2, 67, 127
2, 99789, Note_off_c, 2, 67, 1
2, 99789, Note_off_c, 4, 43, 1
2, 99790, Note_off_c, 2, 65, 1
2, 99790, Note_on_c, 1, 72, 125
2, 99791, Note_on_c, 0, 63, 127
2, 99791, Note_on_c, 4, 44, 123
2, 99994, Note_off_c, 4, 44, 1
2, 99995, Note_off_c, 0, 63, 1
2, 99996, Note_off_c, 1, 72, 1
2, 99996, Note_on_c, 0, 77, 125
2, 99996, Note_on_c, 2, 68, 125
2, 99996, Note_on_c, 4, 48, 123
2, 100097, Note_off_c, 4, 48, 1
2, 100097, Note_on_c, 4, 47, 123
2, 100200, Note_off_c, 4, 47, 1
2, 100200, Note_off_c, 2, 68, 1
2, 100201, Note_off_c, 0, 77, 1
2, 100201, Note_on_c, 1, 75, 125
2, 100201, Note_on_c, 2, 67, 127
2, 100202, Note_on_c, 4, 48, 123
2, 100406, Note_off_c, 4, 48, 1
2, 100407, Note_off_c, 2, 67, 1
2, 100407, Note_off_c, 1, 75, 1
2, 100408, Note_on_c, 1, 74, 125
2, 100408, Note_on_c, 2, 65, 127
2, 100408, Note_on_c, 4, 50, 123
2, 100612, Note_off_c, 4, 50, 1
2, 100612, Note_off_c, 2, 65, 1
2, 100613, Note_off_c, 1, 74, 1
2, 100613, Note_on_c, 0, 63, 127
2, 100614, Note_on_c, 4, 43, 123
2, 100817, Note_off_c, 4, 43, 1
2, 100818, Note_off_c, 0, 63, 1
2, 100818, Note_on_c, 2, 68, 125
2, 100819, Note_on_c, 3, 62, 123
2, 100819, Note_on_c, 4, 48, 123
2, 100920, Note_off_c, 4, 48, 1
2, 100920, Note_on_c, 4, 47, 123
2, 101024, Note_off_c, 4, 47, 1
2, 101024, Note_off_c, 3, 62, 1
2, 101025, Note_off_c, 2, 68, 1
2, 101025, Note_on_c, 2, 67, 127
2, 101026, Note_on_c, 0, 63, 127
2, 101026, Note_on_c, 4, 48, 123
2, 101229, Note_off_c, 4, 48, 1
2, 101230, Note_off_c, 2, 67, 1
2, 101230, Note_off_c, 0, 63, 1
2, 101231, Note_on_c, 2, 65, 127
2, 101231, Note_on_c, 4, 50, 123
2, 101435, Note_off_c, 4, 50, 1
2, 101435, Note_off_c, 2, 65, 1
2, 101436, Note_on_c, 2, 67, 127
2, 101436, Note_on_c, 3, 59, 123
2, 101436, Note_on_c, 4, 41, 123
2, 101536, Note_off_c, 4, 41, 1
2, 101537, Note_on_c, 4, 43, 123
2, 101639, Note_off_c, 4, 43, 1
2, 101640, Note_off_c, 3, 59, 1
2, 101640, Note_off_c, 2, 67, 1
2, 101640, Note_on_c, 2, 65, 127
2, 101641, Note_on_c, 4, 44, 123
2, 101641, Note_on_c, 3, 60, 123
2, 101743, Note_off_c, 2, 65, 1
2, 101743, Note_on_c, 0, 63, 127
2, 101845, Note_off_c, 0, 63, 1
2, 101846, Note_off_c, 3, 60, 1
2, 101846, Note_on_c, 2, 65, 127
2, 101847, Note_on_c, 3, 62, 123
2, 102035, Note_off_c, 3, 62, 1
2, 102049, Note_off_c, 2, 65, 1
2, 102049, Note_on_c, 3, 59, 123
2, 102050, Note_on_c, 3, 62, 123
2, 102050, Note_on_c, 4, 43, 123
2, 102054, Note_off_c, 4, 44, 1
2, 102150, Note_off_c, 4, 43, 1
2, 102150, Note_on_c, 4, 41, 123
2, 102238, Note_off_c, 3, 59, 1
2, 102252, Note_off_c, 3, 62, 1
2, 102252, Note_off_c, 4, 41, 1
2, 102252, Note_on_c, 2, 68, 125
2, 102253, Note_on_c, 4, 39, 123
2, 102253, Note_on_c, 3, 59, 123
2, 102459, Note_off_c, 3, 59, 1
2, 102459, Note_off_c, 2, 68, 1
2, 102460, Note_on_c, 2, 67, 127
2, 102461, Note_on_c, 3, 60, 123
2, 102671, Note_off_c, 2, 67, 1
2, 102671, Note_off_c, 3, 60, 1
2, 102672, Note_off_c, 4, 39, 1
2, 102886, Note_on_c, 2, 69, 125
2, 102886, Note_on_c, 3, 60, 123
2, 102887, Note_on_c, 4, 51, 123
2, 103101, Note_off_c, 3, 60, 1
2, 103101, Note_off_c, 4, 51, 1
2, 103102, Note_off_c, 2, 69, 1
2, 103102, Note_on_c, 1, 71, 125
2, 103103, Note_on_c, 2, 65, 127
2, 103103, Note_on_c, 4, 50, 123
2, 103208, Note_off_c, 2, 65, 1
2, 103209, Note_on_c, 3, 62, 123
2, 103315, Note_off_c, 3, 62, 1
2, 103315, Note_off_c, 4, 50, 1
2, 103316, Note_off_c, 1, 71, 1
2, 103316, Note_on_c, 1, 72, 125
2, 103317, Note_on_c, 4, 48, 123
2, 103317, Note_on_c, 0, 63, 127
2, 103420, Note_on_c, 3, 60, 123
2, 103431, Note_off_c, 0, 63, 1
2, 103524, Note_off_c, 1, 72, 1
2, 103524, Note_off_c, 4, 48, 1
2, 103525, Note_on_c, 3, 55, 123
2, 103525, Note_on_c, 2, 65, 127
2, 103628, Note_on_c, 0, 63, 127
2, 103638, Note_off_c, 2, 65, 1
2, 103730, Note_off_c, 3, 55, 1
2, 103731, Note_off_c, 3, 60, 1
2, 103731, Note_on_c, 3, 59, 123
2, 103732, Note_on_c, 4, 43, 123
2, 103732, Note_on_c, 3, 62, 123
2, 103741, Note_off_c, 0, 63, 1
2, 103834, Note_on_c, 3, 60, 123
2, 103844, Note_off_c, 3, 62, 1
2, 103918, Note_off_c, 3, 59, 1
2, 103930, Note_off_c, 3, 60, 1
2, 103938, Note_off_c, 4, 43, 1
2, 103939, Note_on_c, 3, 60, 123
2, 103939, Note_on_c, 3, 60, 123
2, 103940, Note_on_c, 4, 48, 104
2, 103943, Note_on_c, 4, 36, 94
2, 104153, Note_on_c, 1, 72, 125
2, 104258, Note_on_c, 1, 71, 125
2, 104269, Note_off_c, 1, 72, 1
2, 104364, Note_on_c, 1, 72, 125
2, 104375, Note_off_c, 1, 71, 1
2, 104406, Note_off_c, 3, 60, 1
2, 104406, Note_off_c, 3, 60, 1
2, 104577, Note_on_c, 2, 64, 127
2, 104577, Note_on_c, 2, 67, 127
2, 104598, Note_off_c, 1, 72, 1
2, 104788, Note_off_c, 2, 67, 1
2, 104788, Note_off_c, 2, 64, 1
2, 104789, Note_on_c, 2, 68, 125
2, 104789, Note_on_c, 2, 65, 127
2, 105004, Note_on_c, 1, 72, 119
2, 105022, Note_off_c, 2, 65, 1
2, 105024, Note_off_c, 2, 68, 1
2, 105111, Note_on_c, 1, 71, 125
2, 105121, Note_off_c, 1, 72, 1
2, 105219, Note_on_c, 1, 72, 119
2, 105229, Note_off_c, 1, 71, 1
2, 105434, Note_off_c, 1, 72, 1
2, 105434, Note_on_c, 1, 74, 119
2, 105435, Note_on_c, 1, 71, 125
2, 105435, Note_on_c, 2, 68, 125
2, 105436, Note_on_c, 2, 65, 127
2, 105632, Note_off_c, 2, 65, 1
2, 105649, Note_off_c, 2, 68, 1
2, 105649, Note_off_c, 1, 71, 1
2, 105650, Note_off_c, 1, 74, 1
2, 105650, Note_on_c, 2, 67, 127
2, 105651, Note_on_c, 2, 65, 127
2, 105864, Note_off_c, 2, 67, 1
2, 105864, Note_off_c, 2, 65, 1
2, 105865, Note_on_c, 0, 63, 127
2, 105865, Note_on_c, 1, 72, 119
2, 105972, Note_off_c, 0, 63, 1
2, 105972, Note_on_c, 1, 71, 125
2, 105972, Note_on_c, 3, 62, 123
2, 105982, Note_off_c, 1, 72, 1
2, 106079, Note_off_c, 3, 62, 1
2, 106080, Note_on_c, 0, 63, 127
2, 106080, Note_on_c, 1, 72, 119
2, 106090, Note_off_c, 1, 71, 1
2, 106324, Note_off_c, 1, 72, 1
2, 106324, Note_off_c, 0, 63, 1
2, 106325, Note_on_c, 1, 74, 119
2, 106325, Note_on_c, 2, 68, 125
2, 106326, Note_on_c, 2, 65, 127
2, 106531, Note_off_c, 2, 65, 1
2, 106547, Note_off_c, 2, 68, 1
2, 106547, Note_off_c, 1, 74, 1
2, 106548, Note_on_c, 2, 65, 127
2, 106552, Note_on_c, 3, 62, 123
2, 106554, Note_on_c, 3, 59, 123
2, 106677, Note_on_c, 2, 67, 127
2, 106689, Note_off_c, 2, 65, 1
2, 106793, Note_on_c, 2, 68, 125
2, 106796, Note_off_c, 3, 62, 1
2, 106798, Note_off_c, 3, 59, 1
2, 106803, Note_off_c, 2, 67, 1
2, 107094, Note_on_c, 3, 62, 123
2, 107094, Note_on_c, 3, 59, 123
2, 107341, Note_off_c, 3, 59, 1
2, 107341, Note_off_c, 3, 62, 1
2, 107342, Note_on_c, 2, 67, 127
2, 107389, Note_off_c, 2, 68, 1
2, 107487, Note_on_c, 2, 65, 127
2, 107503, Note_off_c, 2, 67, 1
2, 107647, Note_on_c, 2, 64, 127
2, 107648, Note_on_c, 3, 55, 123
2, 107648, Note_on_c, 3, 60, 123
2, 107663, Note_off_c, 2, 65, 1
2, 109443, Note_off_c, 2, 64, 1
2, 109443, Note_off_c, 3, 60, 1
2, 109443, Note_off_c, 3, 55, 1
2, 109444, Note_off_c, 4, 48, 1
2, 109454, Note_off_c, 4, 36, 1
2, 109454, End_track
0, 0, End_of_file
