0, 0, Header, 1, 6, 384
1, 0, Start_track
1, 0, Tempo, 500000
1, 0, Time_signature, 6, 3, 24, 8
1, 29968, End_track
2, 0, Start_track
2, 0, Title_t, "Track 1"
2, 4, Note_on_c, 0, 81, 64
2, 164, Note_off_c, 0, 81, 64
2, 196, Note_on_c, 0, 79, 64
2, 276, Note_off_c, 0, 79, 64
2, 292, Note_on_c, 0, 77, 64
2, 371, Note_off_c, 0, 77, 64
2, 388, Note_on_c, 0, 74, 64
2, 548, Note_off_c, 0, 74, 64
2, 579, Note_on_c, 0, 79, 64
2, 740, Note_off_c, 0, 79, 64
2, 771, Note_on_c, 0, 77, 64
2, 852, Note_off_c, 0, 77, 64
2, 867, Note_on_c, 0, 74, 64
2, 948, Note_off_c, 0, 74, 64
2, 963, Note_on_c, 0, 72, 64
2, 1124, Note_off_c, 0, 72, 64
2, 1155, Note_on_c, 0, 77, 64
2, 1315, Note_off_c, 0, 77, 64
2, 1347, Note_on_c, 0, 74, 64
2, 1428, Note_off_c, 0, 74, 64
2, 1443, Note_on_c, 0, 72, 64
2, 1523, Note_off_c, 0, 72, 64
2, 1540, Note_on_c, 0, 71, 64
2, 1700, Note_off_c, 0, 71, 64
2, 1731, Note_on_c, 0, 74, 64
2, 1892, Note_off_c, 0, 74, 64
2, 1924, Note_on_c, 0, 72, 64
2, 2003, Note_off_c, 0, 72, 64
2, 2020, Note_on_c, 0, 71, 64
2, 2100, Note_off_c, 0, 71, 64
2, 2116, Note_on_c, 0, 69, 64
2, 2275, Note_off_c, 0, 69, 64
2, 2500, Note_on_c, 0, 59, 64
2, 2660, Note_off_c, 0, 59, 64
2, 2691, Note_on_c, 0, 62, 64
2, 2852, Note_off_c, 0, 62, 64
2, 2884, Note_on_c, 0, 60, 64
2, 3188, Note_off_c, 0, 60, 64
2, 3267, Note_on_c, 0, 65, 64
2, 3620, Note_off_c, 0, 65, 64
2, 3651, Note_on_c, 0, 62, 64
2, 3812, Note_off_c, 0, 62, 64
2, 3844, Note_on_c, 0, 67, 64
2, 4148, Note_off_c, 0, 67, 64
2, 4227, Note_on_c, 0, 65, 64
2, 4387, Note_off_c, 0, 65, 64
2, 4419, Note_on_c, 0, 69, 64
2, 4579, Note_off_c, 0, 69, 64
2, 4611, Note_on_c, 0, 72, 64
2, 4771, Note_off_c, 0, 72, 64
2, 4803, Note_on_c, 0, 67, 64
2, 4964, Note_off_c, 0, 67, 64
2, 4995, Note_on_c, 0, 74, 64
2, 5155, Note_off_c, 0, 74, 64
2, 5187, Note_on_c, 0, 69, 64
2, 5348, Note_off_c, 0, 69, 64
2, 5380, Note_on_c, 0, 77, 64
2, 5539, Note_off_c, 0, 77, 64
2, 5572, Note_on_c, 0, 72, 64
2, 5732, Note_off_c, 0, 72, 64
2, 5764, Note_on_c, 0, 79, 64
2, 5925, Note_off_c, 0, 79, 64
2, 5956, Note_on_c, 0, 74, 64
2, 6115, Note_off_c, 0, 74, 64
2, 6147, Note_on_c, 0, 81, 64
2, 6307, Note_off_c, 0, 81, 64
2, 6340, Note_on_c, 0, 79, 64
2, 6499, Note_off_c, 0, 79, 64
2, 6531, Note_on_c, 0, 77, 64
2, 6612, Note_off_c, 0, 77, 64
2, 6628, Note_on_c, 0, 74, 64
2, 6708, Note_off_c, 0, 74, 64
2, 6723, Note_on_c, 0, 72, 64
2, 6884, Note_off_c, 0, 72, 64
2, 6915, Note_on_c, 0, 77, 64
2, 7075, Note_off_c, 0, 77, 64
2, 7107, Note_on_c, 0, 76, 64
2, 7187, Note_off_c, 0, 76, 64
2, 7203, Note_on_c, 0, 79, 64
2, 7284, Note_off_c, 0, 79, 64
2, 7300, Note_on_c, 0, 77, 64
2, 7460, Note_off_c, 0, 77, 64
2, 7492, Note_on_c, 0, 76, 64
2, 7652, Note_off_c, 0, 76, 64
2, 7683, Note_on_c, 0, 74, 64
2, 7764, Note_off_c, 0, 74, 64
2, 7779, Note_on_c, 0, 77, 64
2, 7859, Note_off_c, 0, 77, 64
2, 7876, Note_on_c, 0, 76, 64
2, 8036, Note_off_c, 0, 76, 64
2, 8068, Note_on_c, 0, 74, 64
2, 8228, Note_off_c, 0, 74, 64
2, 8260, Note_on_c, 0, 72, 64
2, 8340, Note_off_c, 0, 72, 64
2, 8355, Note_on_c, 0, 76, 64
2, 8436, Note_off_c, 0, 76, 64
2, 8451, Note_on_c, 0, 74, 64
2, 8611, Note_off_c, 0, 74, 64
2, 8643, Note_on_c, 0, 72, 64
2, 8723, Note_off_c, 0, 72, 64
2, 8739, Note_on_c, 0, 74, 64
2, 8820, Note_off_c, 0, 74, 64
2, 8836, Note_on_c, 0, 71, 64
2, 8916, Note_off_c, 0, 71, 64
2, 8931, Note_on_c, 0, 72, 64
2, 9012, Note_off_c, 0, 72, 64
2, 9027, Note_on_c, 0, 69, 64
2, 9107, Note_off_c, 0, 69, 64
2, 9123, Note_on_c, 0, 65, 64
2, 9203, Note_off_c, 0, 65, 64
2, 9220, Note_on_c, 0, 67, 64
2, 9764, Note_off_c, 0, 67, 64
2, 9987, Note_on_c, 0, 72, 64
2, 10052, Note_off_c, 0, 72, 64
2, 10053, Note_on_c, 0, 74, 64
2, 10116, Note_off_c, 0, 74, 64
2, 10117, Note_on_c, 0, 76, 64
2, 10180, Note_off_c, 0, 76, 64
2, 10181, Note_on_c, 0, 77, 64
2, 10243, Note_off_c, 0, 77, 64
2, 10245, Note_on_c, 0, 79, 64
2, 10308, Note_off_c, 0, 79, 64
2, 10308, Note_on_c, 0, 81, 64
2, 10372, Note_off_c, 0, 81, 64
2, 10372, Note_on_c, 0, 83, 64
2, 11444, Note_off_c, 0, 83, 64
2, 11524, Note_on_c, 0, 83, 64
2, 12068, Note_off_c, 0, 83, 64
2, 12100, Note_on_c, 0, 86, 64
2, 12644, Note_off_c, 0, 86, 64
2, 12675, Note_on_c, 0, 83, 64
2, 13284, Note_off_c, 0, 83, 64
2, 13731, Note_on_c, 0, 81, 64
2, 13812, Note_off_c, 0, 81, 64
2, 13827, Note_on_c, 0, 83, 64
2, 14899, Note_off_c, 0, 83, 64
2, 14979, Note_on_c, 0, 81, 64
2, 15140, Note_off_c, 0, 81, 64
2, 15171, Note_on_c, 0, 79, 64
2, 15251, Note_off_c, 0, 79, 64
2, 15268, Note_on_c, 0, 77, 64
2, 15347, Note_off_c, 0, 77, 64
2, 15364, Note_on_c, 0, 74, 64
2, 15524, Note_off_c, 0, 74, 64
2, 15556, Note_on_c, 0, 79, 64
2, 15716, Note_off_c, 0, 79, 64
2, 15747, Note_on_c, 0, 77, 64
2, 15827, Note_off_c, 0, 77, 64
2, 15843, Note_on_c, 0, 74, 64
2, 15923, Note_off_c, 0, 74, 64
2, 15939, Note_on_c, 0, 72, 64
2, 16099, Note_off_c, 0, 72, 64
2, 16131, Note_on_c, 0, 77, 64
2, 16291, Note_off_c, 0, 77, 64
2, 16323, Note_on_c, 0, 74, 64
2, 16404, Note_off_c, 0, 74, 64
2, 16420, Note_on_c, 0, 72, 64
2, 16499, Note_off_c, 0, 72, 64
2, 16515, Note_on_c, 0, 71, 64
2, 16675, Note_off_c, 0, 71, 64
2, 16707, Note_on_c, 0, 74, 64
2, 16867, Note_off_c, 0, 74, 64
2, 16899, Note_on_c, 0, 72, 64
2, 16979, Note_off_c, 0, 72, 64
2, 16995, Note_on_c, 0, 71, 64
2, 17076, Note_off_c, 0, 71, 64
2, 17092, Note_on_c, 0, 69, 64
2, 17252, Note_off_c, 0, 69, 64
2, 17475, Note_on_c, 0, 59, 64
2, 17636, Note_off_c, 0, 59, 64
2, 17668, Note_on_c, 0, 62, 64
2, 17828, Note_off_c, 0, 62, 64
2, 17860, Note_on_c, 0, 60, 64
2, 18163, Note_off_c, 0, 60, 64
2, 18243, Note_on_c, 0, 65, 64
2, 18595, Note_off_c, 0, 65, 64
2, 18627, Note_on_c, 0, 62, 64
2, 18787, Note_off_c, 0, 62, 64
2, 18819, Note_on_c, 0, 67, 64
2, 19123, Note_off_c, 0, 67, 64
2, 19204, Note_on_c, 0, 65, 64
2, 19364, Note_off_c, 0, 65, 64
2, 19396, Note_on_c, 0, 69, 64
2, 19556, Note_off_c, 0, 69, 64
2, 19588, Note_on_c, 0, 72, 64
2, 19748, Note_off_c, 0, 72, 64
2, 19780, Note_on_c, 0, 67, 64
2, 19940, Note_off_c, 0, 67, 64
2, 19971, Note_on_c, 0, 74, 64
2, 20132, Note_off_c, 0, 74, 64
2, 20164, Note_on_c, 0, 69, 64
2, 20324, Note_off_c, 0, 69, 64
2, 20356, Note_on_c, 0, 77, 64
2, 20516, Note_off_c, 0, 77, 64
2, 20548, Note_on_c, 0, 72, 64
2, 20707, Note_off_c, 0, 72, 64
2, 20739, Note_on_c, 0, 79, 64
2, 20900, Note_off_c, 0, 79, 64
2, 20931, Note_on_c, 0, 74, 64
2, 21092, Note_off_c, 0, 74, 64
2, 21124, Note_on_c, 0, 81, 64
2, 21284, Note_off_c, 0, 81, 64
2, 21316, Note_on_c, 0, 79, 64
2, 21476, Note_off_c, 0, 79, 64
2, 21508, Note_on_c, 0, 77, 64
2, 21588, Note_off_c, 0, 77, 64
2, 21604, Note_on_c, 0, 74, 64
2, 21683, Note_off_c, 0, 74, 64
2, 21699, Note_on_c, 0, 72, 64
2, 21860, Note_off_c, 0, 72, 64
2, 21891, Note_on_c, 0, 77, 64
2, 22052, Note_off_c, 0, 77, 64
2, 22083, Note_on_c, 0, 76, 64
2, 22164, Note_off_c, 0, 76, 64
2, 22179, Note_on_c, 0, 79, 64
2, 22260, Note_off_c, 0, 79, 64
2, 22276, Note_on_c, 0, 77, 64
2, 22436, Note_off_c, 0, 77, 64
2, 22468, Note_on_c, 0, 76, 64
2, 22628, Note_off_c, 0, 76, 64
2, 22659, Note_on_c, 0, 74, 64
2, 22740, Note_off_c, 0, 74, 64
2, 22755, Note_on_c, 0, 77, 64
2, 22836, Note_off_c, 0, 77, 64
2, 22852, Note_on_c, 0, 76, 64
2, 23012, Note_off_c, 0, 76, 64
2, 23043, Note_on_c, 0, 74, 64
2, 23204, Note_off_c, 0, 74, 64
2, 23236, Note_on_c, 0, 72, 64
2, 23315, Note_off_c, 0, 72, 64
2, 23332, Note_on_c, 0, 76, 64
2, 23412, Note_off_c, 0, 76, 64
2, 23427, Note_on_c, 0, 74, 64
2, 23588, Note_off_c, 0, 74, 64
2, 23619, Note_on_c, 0, 72, 64
2, 23699, Note_off_c, 0, 72, 64
2, 23716, Note_on_c, 0, 74, 64
2, 23795, Note_off_c, 0, 74, 64
2, 23811, Note_on_c, 0, 71, 64
2, 23892, Note_off_c, 0, 71, 64
2, 23908, Note_on_c, 0, 72, 64
2, 23988, Note_off_c, 0, 72, 64
2, 24003, Note_on_c, 0, 69, 64
2, 24084, Note_off_c, 0, 69, 64
2, 24100, Note_on_c, 0, 65, 64
2, 24180, Note_off_c, 0, 65, 64
2, 24196, Note_on_c, 0, 67, 64
2, 24739, Note_off_c, 0, 67, 64
2, 24964, Note_on_c, 0, 72, 64
2, 25028, Note_off_c, 0, 72, 64
2, 25030, Note_on_c, 0, 74, 64
2, 25091, Note_off_c, 0, 74, 64
2, 25093, Note_on_c, 0, 76, 64
2, 25155, Note_off_c, 0, 76, 64
2, 25157, Note_on_c, 0, 77, 64
2, 25220, Note_off_c, 0, 77, 64
2, 25221, Note_on_c, 0, 79, 64
2, 25284, Note_off_c, 0, 79, 64
2, 25285, Note_on_c, 0, 81, 64
2, 25348, Note_off_c, 0, 81, 64
2, 25349, Note_on_c, 0, 83, 64
2, 26420, Note_off_c, 0, 83, 64
2, 26499, Note_on_c, 0, 83, 64
2, 27044, Note_off_c, 0, 83, 64
2, 27076, Note_on_c, 0, 86, 64
2, 27620, Note_off_c, 0, 86, 64
2, 27652, Note_on_c, 0, 83, 64
2, 28260, Note_off_c, 0, 83, 64
2, 28708, Note_on_c, 0, 81, 64
2, 28788, Note_off_c, 0, 81, 64
2, 28804, Note_on_c, 0, 83, 64
2, 29876, Note_off_c, 0, 83, 64
2, 29968, End_track
3, 0, Start_track
3, 0, Title_t, "Track 2"
3, 4, Note_on_c, 1, 69, 64
3, 163, Note_off_c, 1, 69, 64
3, 196, Note_on_c, 1, 67, 64
3, 276, Note_off_c, 1, 67, 64
3, 292, Note_on_c, 1, 65, 64
3, 372, Note_off_c, 1, 65, 64
3, 388, Note_on_c, 1, 62, 64
3, 549, Note_off_c, 1, 62, 64
3, 581, Note_on_c, 1, 67, 64
3, 740, Note_off_c, 1, 67, 64
3, 772, Note_on_c, 1, 65, 64
3, 851, Note_off_c, 1, 65, 64
3, 868, Note_on_c, 1, 62, 64
3, 948, Note_off_c, 1, 62, 64
3, 963, Note_on_c, 1, 60, 64
3, 1123, Note_off_c, 1, 60, 64
3, 1155, Note_on_c, 1, 65, 64
3, 1317, Note_off_c, 1, 65, 64
3, 1347, Note_on_c, 1, 62, 64
3, 1428, Note_off_c, 1, 62, 64
3, 1443, Note_on_c, 1, 60, 64
3, 1524, Note_off_c, 1, 60, 64
3, 1539, Note_on_c, 1, 59, 64
3, 1699, Note_off_c, 1, 59, 64
3, 1731, Note_on_c, 1, 62, 64
3, 1892, Note_off_c, 1, 62, 64
3, 1924, Note_on_c, 1, 60, 64
3, 2004, Note_off_c, 1, 60, 64
3, 2020, Note_on_c, 1, 59, 64
3, 2100, Note_off_c, 1, 59, 64
3, 2116, Note_on_c, 1, 57, 64
3, 2276, Note_off_c, 1, 57, 64
3, 2500, Note_on_c, 1, 47, 64
3, 2659, Note_off_c, 1, 47, 64
3, 2692, Note_on_c, 1, 50, 64
3, 2851, Note_off_c, 1, 50, 64
3, 2884, Note_on_c, 1, 48, 64
3, 3188, Note_off_c, 1, 48, 64
3, 3268, Note_on_c, 1, 53, 64
3, 3619, Note_off_c, 1, 53, 64
3, 3652, Note_on_c, 1, 50, 64
3, 3811, Note_off_c, 1, 50, 64
3, 3844, Note_on_c, 1, 55, 64
3, 4147, Note_off_c, 1, 55, 64
3, 4228, Note_on_c, 1, 53, 64
3, 4388, Note_off_c, 1, 53, 64
3, 4420, Note_on_c, 1, 57, 64
3, 4580, Note_off_c, 1, 57, 64
3, 4612, Note_on_c, 1, 60, 64
3, 4772, Note_off_c, 1, 60, 64
3, 4804, Note_on_c, 1, 55, 64
3, 4964, Note_off_c, 1, 55, 64
3, 4996, Note_on_c, 1, 62, 64
3, 5155, Note_off_c, 1, 62, 64
3, 5187, Note_on_c, 1, 57, 64
3, 5348, Note_off_c, 1, 57, 64
3, 5380, Note_on_c, 1, 65, 64
3, 5540, Note_off_c, 1, 65, 64
3, 5572, Note_on_c, 1, 60, 64
3, 5732, Note_off_c, 1, 60, 64
3, 5764, Note_on_c, 1, 67, 64
3, 5924, Note_off_c, 1, 67, 64
3, 5956, Note_on_c, 1, 62, 64
3, 6116, Note_off_c, 1, 62, 64
3, 6148, Note_on_c, 1, 69, 64
3, 6308, Note_off_c, 1, 69, 64
3, 6340, Note_on_c, 1, 67, 64
3, 6500, Note_off_c, 1, 67, 64
3, 6532, Note_on_c, 1, 65, 64
3, 6611, Note_off_c, 1, 65, 64
3, 6628, Note_on_c, 1, 62, 64
3, 6708, Note_off_c, 1, 62, 64
3, 6724, Note_on_c, 1, 60, 64
3, 6884, Note_off_c, 1, 60, 64
3, 6916, Note_on_c, 1, 65, 64
3, 7076, Note_off_c, 1, 65, 64
3, 7108, Note_on_c, 1, 64, 64
3, 7188, Note_off_c, 1, 64, 64
3, 7203, Note_on_c, 1, 67, 64
3, 7284, Note_off_c, 1, 67, 64
3, 7300, Note_on_c, 1, 65, 64
3, 7459, Note_off_c, 1, 65, 64
3, 7491, Note_on_c, 1, 64, 64
3, 7651, Note_off_c, 1, 64, 64
3, 7683, Note_on_c, 1, 62, 64
3, 7763, Note_off_c, 1, 62, 64
3, 7780, Note_on_c, 1, 65, 64
3, 7860, Note_off_c, 1, 65, 64
3, 7876, Note_on_c, 1, 64, 64
3, 8036, Note_off_c, 1, 64, 64
3, 8068, Note_on_c, 1, 62, 64
3, 8228, Note_off_c, 1, 62, 64
3, 8260, Note_on_c, 1, 60, 64
3, 8341, Note_off_c, 1, 60, 64
3, 8356, Note_on_c, 1, 64, 64
3, 8436, Note_off_c, 1, 64, 64
3, 8453, Note_on_c, 1, 62, 64
3, 8612, Note_off_c, 1, 62, 64
3, 8643, Note_on_c, 1, 60, 64
3, 8724, Note_off_c, 1, 60, 64
3, 8740, Note_on_c, 1, 62, 64
3, 8820, Note_off_c, 1, 62, 64
3, 8835, Note_on_c, 1, 59, 64
3, 8916, Note_off_c, 1, 59, 64
3, 8931, Note_on_c, 1, 60, 64
3, 9012, Note_off_c, 1, 60, 64
3, 9028, Note_on_c, 1, 57, 64
3, 9108, Note_off_c, 1, 57, 64
3, 9124, Note_on_c, 1, 53, 64
3, 9204, Note_off_c, 1, 53, 64
3, 9220, Note_on_c, 1, 55, 64
3, 9764, Note_off_c, 1, 55, 64
3, 9988, Note_on_c, 1, 57, 64
3, 10052, Note_off_c, 1, 57, 64
3, 10052, Note_on_c, 1, 59, 64
3, 10116, Note_off_c, 1, 59, 64
3, 10116, Note_on_c, 1, 60, 64
3, 10180, Note_off_c, 1, 60, 64
3, 10181, Note_on_c, 1, 62, 64
3, 10244, Note_off_c, 1, 62, 64
3, 10244, Note_on_c, 1, 64, 64
3, 10308, Note_off_c, 1, 64, 64
3, 10308, Note_on_c, 1, 65, 64
3, 10371, Note_off_c, 1, 65, 64
3, 10371, Note_on_c, 1, 67, 64
3, 11443, Note_off_c, 1, 67, 64
3, 11523, Note_on_c, 1, 67, 64
3, 12068, Note_off_c, 1, 67, 64
3, 12100, Note_on_c, 1, 71, 64
3, 12644, Note_off_c, 1, 71, 64
3, 12675, Note_on_c, 1, 67, 64
3, 13284, Note_off_c, 1, 67, 64
3, 13732, Note_on_c, 1, 65, 64
3, 13811, Note_off_c, 1, 65, 64
3, 13828, Note_on_c, 1, 67, 64
3, 14900, Note_off_c, 1, 67, 64
3, 14980, Note_on_c, 1, 69, 64
3, 15140, Note_off_c, 1, 69, 64
3, 15172, Note_on_c, 1, 67, 64
3, 15252, Note_off_c, 1, 67, 64
3, 15268, Note_on_c, 1, 65, 64
3, 15348, Note_off_c, 1, 65, 64
3, 15364, Note_on_c, 1, 62, 64
3, 15524, Note_off_c, 1, 62, 64
3, 15556, Note_on_c, 1, 67, 64
3, 15716, Note_off_c, 1, 67, 64
3, 15749, Note_on_c, 1, 65, 64
3, 15827, Note_off_c, 1, 65, 64
3, 15843, Note_on_c, 1, 62, 64
3, 15924, Note_off_c, 1, 62, 64
3, 15939, Note_on_c, 1, 60, 64
3, 16100, Note_off_c, 1, 60, 64
3, 16132, Note_on_c, 1, 65, 64
3, 16292, Note_off_c, 1, 65, 64
3, 16324, Note_on_c, 1, 62, 64
3, 16404, Note_off_c, 1, 62, 64
3, 16420, Note_on_c, 1, 60, 64
3, 16501, Note_off_c, 1, 60, 64
3, 16516, Note_on_c, 1, 59, 64
3, 16676, Note_off_c, 1, 59, 64
3, 16707, Note_on_c, 1, 62, 64
3, 16867, Note_off_c, 1, 62, 64
3, 16900, Note_on_c, 1, 60, 64
3, 16980, Note_off_c, 1, 60, 64
3, 16996, Note_on_c, 1, 59, 64
3, 17075, Note_off_c, 1, 59, 64
3, 17092, Note_on_c, 1, 57, 64
3, 17252, Note_off_c, 1, 57, 64
3, 17476, Note_on_c, 1, 47, 64
3, 17637, Note_off_c, 1, 47, 64
3, 17669, Note_on_c, 1, 50, 64
3, 17827, Note_off_c, 1, 50, 64
3, 17859, Note_on_c, 1, 48, 64
3, 18164, Note_off_c, 1, 48, 64
3, 18244, Note_on_c, 1, 53, 64
3, 18596, Note_off_c, 1, 53, 64
3, 18628, Note_on_c, 1, 50, 64
3, 18788, Note_off_c, 1, 50, 64
3, 18820, Note_on_c, 1, 55, 64
3, 19123, Note_off_c, 1, 55, 64
3, 19204, Note_on_c, 1, 53, 64
3, 19363, Note_off_c, 1, 53, 64
3, 19396, Note_on_c, 1, 57, 64
3, 19556, Note_off_c, 1, 57, 64
3, 19588, Note_on_c, 1, 60, 64
3, 19747, Note_off_c, 1, 60, 64
3, 19780, Note_on_c, 1, 55, 64
3, 19940, Note_off_c, 1, 55, 64
3, 19972, Note_on_c, 1, 62, 64
3, 20132, Note_off_c, 1, 62, 64
3, 20164, Note_on_c, 1, 57, 64
3, 20324, Note_off_c, 1, 57, 64
3, 20356, Note_on_c, 1, 65, 64
3, 20516, Note_off_c, 1, 65, 64
3, 20548, Note_on_c, 1, 60, 64
3, 20708, Note_off_c, 1, 60, 64
3, 20740, Note_on_c, 1, 67, 64
3, 20900, Note_off_c, 1, 67, 64
3, 20932, Note_on_c, 1, 62, 64
3, 21091, Note_off_c, 1, 62, 64
3, 21124, Note_on_c, 1, 69, 64
3, 21284, Note_off_c, 1, 69, 64
3, 21316, Note_on_c, 1, 67, 64
3, 21476, Note_off_c, 1, 67, 64
3, 21508, Note_on_c, 1, 65, 64
3, 21588, Note_off_c, 1, 65, 64
3, 21603, Note_on_c, 1, 62, 64
3, 21684, Note_off_c, 1, 62, 64
3, 21700, Note_on_c, 1, 60, 64
3, 21860, Note_off_c, 1, 60, 64
3, 21892, Note_on_c, 1, 65, 64
3, 22051, Note_off_c, 1, 65, 64
3, 22083, Note_on_c, 1, 64, 64
3, 22164, Note_off_c, 1, 64, 64
3, 22179, Note_on_c, 1, 67, 64
3, 22260, Note_off_c, 1, 67, 64
3, 22276, Note_on_c, 1, 65, 64
3, 22436, Note_off_c, 1, 65, 64
3, 22468, Note_on_c, 1, 64, 64
3, 22628, Note_off_c, 1, 64, 64
3, 22660, Note_on_c, 1, 62, 64
3, 22740, Note_off_c, 1, 62, 64
3, 22756, Note_on_c, 1, 65, 64
3, 22836, Note_off_c, 1, 65, 64
3, 22852, Note_on_c, 1, 64, 64
3, 23013, Note_off_c, 1, 64, 64
3, 23044, Note_on_c, 1, 62, 64
3, 23204, Note_off_c, 1, 62, 64
3, 23235, Note_on_c, 1, 60, 64
3, 23316, Note_off_c, 1, 60, 64
3, 23332, Note_on_c, 1, 64, 64
3, 23412, Note_off_c, 1, 64, 64
3, 23428, Note_on_c, 1, 62, 64
3, 23587, Note_off_c, 1, 62, 64
3, 23620, Note_on_c, 1, 60, 64
3, 23700, Note_off_c, 1, 60, 64
3, 23716, Note_on_c, 1, 62, 64
3, 23796, Note_off_c, 1, 62, 64
3, 23812, Note_on_c, 1, 59, 64
3, 23892, Note_off_c, 1, 59, 64
3, 23908, Note_on_c, 1, 60, 64
3, 23989, Note_off_c, 1, 60, 64
3, 24004, Note_on_c, 1, 57, 64
3, 24084, Note_off_c, 1, 57, 64
3, 24100, Note_on_c, 1, 53, 64
3, 24179, Note_off_c, 1, 53, 64
3, 24196, Note_on_c, 1, 55, 64
3, 24740, Note_off_c, 1, 55, 64
3, 24964, Note_on_c, 1, 57, 64
3, 25028, Note_off_c, 1, 57, 64
3, 25030, Note_on_c, 1, 59, 64
3, 25093, Note_off_c, 1, 59, 64
3, 25093, Note_on_c, 1, 60, 64
3, 25156, Note_off_c, 1, 60, 64
3, 25156, Note_on_c, 1, 62, 64
3, 25220, Note_off_c, 1, 62, 64
3, 25220, Note_on_c, 1, 64, 64
3, 25284, Note_off_c, 1, 64, 64
3, 25285, Note_on_c, 1, 65, 64
3, 25348, Note_off_c, 1, 65, 64
3, 25348, Note_on_c, 1, 67, 64
3, 26419, Note_off_c, 1, 67, 64
3, 26500, Note_on_c, 1, 67, 64
3, 27044, Note_off_c, 1, 67, 64
3, 27076, Note_on_c, 1, 71, 64
3, 27619, Note_off_c, 1, 71, 64
3, 27652, Note_on_c, 1, 67, 64
3, 28261, Note_off_c, 1, 67, 64
3, 28707, Note_on_c, 1, 65, 64
3, 28788, Note_off_c, 1, 65, 64
3, 28804, Note_on_c, 1, 67, 64
3, 29875, Note_off_c, 1, 67, 64
3, 29968, End_track
4, 0, Start_track
4, 0, Title_t, "Track 3"
4, 5, Note_on_c, 2, 50, 64
4, 308, Note_off_c, 2, 50, 64
4, 388, Note_on_c, 2, 50, 64
4, 548, Note_off_c, 2, 50, 64
4, 579, Note_on_c, 2, 57, 64
4, 740, Note_off_c, 2, 57, 64
4, 772, Note_on_c, 2, 55, 64
4, 1076, Note_off_c, 2, 55, 64
4, 1156, Note_on_c, 2, 50, 64
4, 1460, Note_off_c, 2, 50, 64
4, 1540, Note_on_c, 2, 50, 64
4, 1701, Note_off_c, 2, 50, 64
4, 1732, Note_on_c, 2, 57, 64
4, 1893, Note_off_c, 2, 57, 64
4, 1925, Note_on_c, 2, 55, 64
4, 2228, Note_off_c, 2, 55, 64
4, 2308, Note_on_c, 2, 50, 64
4, 2612, Note_off_c, 2, 50, 64
4, 2691, Note_on_c, 2, 50, 64
4, 2852, Note_off_c, 2, 50, 64
4, 2884, Note_on_c, 2, 57, 64
4, 3044, Note_off_c, 2, 57, 64
4, 3076, Note_on_c, 2, 55, 64
4, 3380, Note_off_c, 2, 55, 64
4, 3461, Note_on_c, 2, 50, 64
4, 3764, Note_off_c, 2, 50, 64
4, 3844, Note_on_c, 2, 50, 64
4, 4004, Note_off_c, 2, 50, 64
4, 4036, Note_on_c, 2, 57, 64
4, 4197, Note_off_c, 2, 57, 64
4, 4228, Note_on_c, 2, 55, 64
4, 4532, Note_off_c, 2, 55, 64
4, 4611, Note_on_c, 2, 50, 64
4, 4917, Note_off_c, 2, 50, 64
4, 4996, Note_on_c, 2, 50, 64
4, 5156, Note_off_c, 2, 50, 64
4, 5188, Note_on_c, 2, 57, 64
4, 5349, Note_off_c, 2, 57, 64
4, 5381, Note_on_c, 2, 55, 64
4, 5684, Note_off_c, 2, 55, 64
4, 5764, Note_on_c, 2, 50, 64
4, 6068, Note_off_c, 2, 50, 64
4, 6148, Note_on_c, 2, 50, 64
4, 6308, Note_off_c, 2, 50, 64
4, 6340, Note_on_c, 2, 57, 64
4, 6500, Note_off_c, 2, 57, 64
4, 6532, Note_on_c, 2, 55, 64
4, 6836, Note_off_c, 2, 55, 64
4, 6916, Note_on_c, 2, 50, 64
4, 7220, Note_off_c, 2, 50, 64
4, 7300, Note_on_c, 2, 50, 64
4, 7460, Note_off_c, 2, 50, 64
4, 7492, Note_on_c, 2, 57, 64
4, 7652, Note_off_c, 2, 57, 64
4, 7684, Note_on_c, 2, 55, 64
4, 7988, Note_off_c, 2, 55, 64
4, 8068, Note_on_c, 2, 50, 64
4, 8372, Note_off_c, 2, 50, 64
4, 8452, Note_on_c, 2, 50, 64
4, 8612, Note_off_c, 2, 50, 64
4, 8644, Note_on_c, 2, 57, 64
4, 8804, Note_off_c, 2, 57, 64
4, 8836, Note_on_c, 2, 55, 64
4, 9140, Note_off_c, 2, 55, 64
4, 9221, Note_on_c, 2, 50, 64
4, 9524, Note_off_c, 2, 50, 64
4, 9605, Note_on_c, 2, 50, 64
4, 9764, Note_off_c, 2, 50, 64
4, 9795, Note_on_c, 2, 57, 64
4, 9955, Note_off_c, 2, 57, 64
4, 9988, Note_on_c, 2, 55, 64
4, 10293, Note_off_c, 2, 55, 64
4, 10372, Note_on_c, 2, 50, 64
4, 10676, Note_off_c, 2, 50, 64
4, 10756, Note_on_c, 2, 50, 64
4, 10916, Note_off_c, 2, 50, 64
4, 10948, Note_on_c, 2, 57, 64
4, 11108, Note_off_c, 2, 57, 64
4, 11140, Note_on_c, 2, 55, 64
4, 11444, Note_off_c, 2, 55, 64
4, 11525, Note_on_c, 2, 50, 64
4, 11828, Note_off_c, 2, 50, 64
4, 11907, Note_on_c, 2, 50, 64
4, 12068, Note_off_c, 2, 50, 64
4, 12100, Note_on_c, 2, 57, 64
4, 12260, Note_off_c, 2, 57, 64
4, 12292, Note_on_c, 2, 55, 64
4, 12596, Note_off_c, 2, 55, 64
4, 12676, Note_on_c, 2, 50, 64
4, 12980, Note_off_c, 2, 50, 64
4, 13060, Note_on_c, 2, 50, 64
4, 13220, Note_off_c, 2, 50, 64
4, 13252, Note_on_c, 2, 57, 64
4, 13412, Note_off_c, 2, 57, 64
4, 13444, Note_on_c, 2, 55, 64
4, 13748, Note_off_c, 2, 55, 64
4, 13828, Note_on_c, 2, 50, 64
4, 14132, Note_off_c, 2, 50, 64
4, 14212, Note_on_c, 2, 50, 64
4, 14372, Note_off_c, 2, 50, 64
4, 14404, Note_on_c, 2, 57, 64
4, 14565, Note_off_c, 2, 57, 64
4, 14596, Note_on_c, 2, 55, 64
4, 14900, Note_off_c, 2, 55, 64
4, 14980, Note_on_c, 2, 50, 64
4, 15284, Note_off_c, 2, 50, 64
4, 15364, Note_on_c, 2, 50, 64
4, 15524, Note_off_c, 2, 50, 64
4, 15556, Note_on_c, 2, 57, 64
4, 15716, Note_off_c, 2, 57, 64
4, 15748, Note_on_c, 2, 55, 64
4, 16052, Note_off_c, 2, 55, 64
4, 16131, Note_on_c, 2, 50, 64
4, 16436, Note_off_c, 2, 50, 64
4, 16516, Note_on_c, 2, 50, 64
4, 16675, Note_off_c, 2, 50, 64
4, 16708, Note_on_c, 2, 57, 64
4, 16868, Note_off_c, 2, 57, 64
4, 16901, Note_on_c, 2, 55, 64
4, 17205, Note_off_c, 2, 55, 64
4, 21892, Note_on_c, 2, 50, 64
4, 22196, Note_off_c, 2, 50, 64
4, 22276, Note_on_c, 2, 50, 64
4, 22436, Note_off_c, 2, 50, 64
4, 22467, Note_on_c, 2, 57, 64
4, 22628, Note_off_c, 2, 57, 64
4, 22660, Note_on_c, 2, 55, 64
4, 22964, Note_off_c, 2, 55, 64
4, 23043, Note_on_c, 2, 50, 64
4, 23348, Note_off_c, 2, 50, 64
4, 23427, Note_on_c, 2, 50, 64
4, 23589, Note_off_c, 2, 50, 64
4, 23620, Note_on_c, 2, 57, 64
4, 23781, Note_off_c, 2, 57, 64
4, 23813, Note_on_c, 2, 55, 64
4, 24117, Note_off_c, 2, 55, 64
4, 24197, Note_on_c, 2, 50, 64
4, 24500, Note_off_c, 2, 50, 64
4, 24580, Note_on_c, 2, 50, 64
4, 24740, Note_off_c, 2, 50, 64
4, 24772, Note_on_c, 2, 57, 64
4, 24932, Note_off_c, 2, 57, 64
4, 24964, Note_on_c, 2, 55, 64
4, 25268, Note_off_c, 2, 55, 64
4, 25348, Note_on_c, 2, 50, 64
4, 25652, Note_off_c, 2, 50, 64
4, 25733, Note_on_c, 2, 50, 64
4, 25893, Note_off_c, 2, 50, 64
4, 25924, Note_on_c, 2, 57, 64
4, 26085, Note_off_c, 2, 57, 64
4, 26117, Note_on_c, 2, 55, 64
4, 26421, Note_off_c, 2, 55, 64
4, 26500, Note_on_c, 2, 50, 64
4, 26805, Note_off_c, 2, 50, 64
4, 26884, Note_on_c, 2, 50, 64
4, 27044, Note_off_c, 2, 50, 64
4, 27076, Note_on_c, 2, 57, 64
4, 27236, Note_off_c, 2, 57, 64
4, 27268, Note_on_c, 2, 55, 64
4, 27572, Note_off_c, 2, 55, 64
4, 27652, Note_on_c, 2, 50, 64
4, 27956, Note_off_c, 2, 50, 64
4, 28036, Note_on_c, 2, 50, 64
4, 28196, Note_off_c, 2, 50, 64
4, 28228, Note_on_c, 2, 57, 64
4, 28388, Note_off_c, 2, 57, 64
4, 28421, Note_on_c, 2, 55, 64
4, 28723, Note_off_c, 2, 55, 64
4, 28804, Note_on_c, 2, 50, 64
4, 29108, Note_off_c, 2, 50, 64
4, 29188, Note_on_c, 2, 50, 64
4, 29348, Note_off_c, 2, 50, 64
4, 29380, Note_on_c, 2, 57, 64
4, 29541, Note_off_c, 2, 57, 64
4, 29572, Note_on_c, 2, 55, 64
4, 29876, Note_off_c, 2, 55, 64
4, 29952, End_track
5, 0, Start_track
5, 0, Title_t, "Track 4"
5, 0, Note_on_c, 3, 38, 93
5, 0, Note_on_c, 3, 59, 107
5, 66, Note_off_c, 3, 59, 107
5, 192, Note_on_c, 3, 59, 87
5, 218, Note_off_c, 3, 38, 93
5, 259, Note_off_c, 3, 59, 87
5, 384, Note_on_c, 3, 38, 85
5, 384, Note_on_c, 3, 59, 107
5, 441, Note_off_c, 3, 59, 107
5, 471, Note_off_c, 3, 38, 85
5, 576, Note_on_c, 3, 38, 82
5, 576, Note_on_c, 3, 59, 107
5, 642, Note_off_c, 3, 59, 107
5, 708, Note_off_c, 3, 38, 82
5, 768, Note_on_c, 3, 59, 87
5, 768, Note_on_c, 3, 41, 89
5, 822, Note_off_c, 3, 59, 87
5, 960, Note_on_c, 3, 59, 102
5, 967, Note_off_c, 3, 41, 89
5, 1032, Note_off_c, 3, 59, 102
5, 1152, Note_on_c, 3, 59, 110
5, 1152, Note_on_c, 3, 38, 98
5, 1218, Note_off_c, 3, 59, 110
5, 1344, Note_on_c, 3, 59, 100
5, 1371, Note_off_c, 3, 38, 98
5, 1403, Note_off_c, 3, 59, 100
5, 1536, Note_on_c, 3, 59, 105
5, 1536, Note_on_c, 3, 38, 91
5, 1599, Note_off_c, 3, 38, 91
5, 1599, Note_off_c, 3, 59, 105
5, 1728, Note_on_c, 3, 59, 107
5, 1728, Note_on_c, 3, 38, 85
5, 1795, Note_off_c, 3, 59, 107
5, 1816, Note_off_c, 3, 38, 85
5, 1920, Note_on_c, 3, 59, 105
5, 1920, Note_on_c, 3, 41, 105
5, 1984, Note_off_c, 3, 59, 105
5, 2098, Note_off_c, 3, 41, 105
5, 2112, Note_on_c, 3, 59, 87
5, 2185, Note_off_c, 3, 59, 87
5, 2304, Note_on_c, 3, 59, 110
5, 2304, Note_on_c, 3, 38, 98
5, 2370, Note_off_c, 3, 59, 110
5, 2496, Note_on_c, 3, 59, 100
5, 2523, Note_off_c, 3, 38, 98
5, 2555, Note_off_c, 3, 59, 100
5, 2688, Note_on_c, 3, 59, 105
5, 2688, Note_on_c, 3, 38, 91
5, 2751, Note_off_c, 3, 38, 91
5, 2751, Note_off_c, 3, 59, 105
5, 2880, Note_on_c, 3, 59, 107
5, 2880, Note_on_c, 3, 38, 85
5, 2947, Note_off_c, 3, 59, 107
5, 2968, Note_off_c, 3, 38, 85
5, 3072, Note_on_c, 3, 59, 105
5, 3072, Note_on_c, 3, 41, 105
5, 3136, Note_off_c, 3, 59, 105
5, 3250, Note_off_c, 3, 41, 105
5, 3264, Note_on_c, 3, 59, 87
5, 3337, Note_off_c, 3, 59, 87
5, 3456, Note_on_c, 3, 59, 102
5, 3456, Note_on_c, 3, 38, 78
5, 3515, Note_off_c, 3, 59, 102
5, 3648, Note_on_c, 3, 59, 91
5, 3665, Note_off_c, 3, 38, 78
5, 3700, Note_off_c, 3, 59, 91
5, 3840, Note_on_c, 3, 38, 87
5, 3840, Note_on_c, 3, 59, 85
5, 3900, Note_off_c, 3, 59, 85
5, 3921, Note_off_c, 3, 38, 87
5, 4032, Note_on_c, 3, 38, 95
5, 4032, Note_on_c, 3, 59, 87
5, 4095, Note_off_c, 3, 59, 87
5, 4130, Note_off_c, 3, 38, 95
5, 4224, Note_on_c, 3, 41, 100
5, 4224, Note_on_c, 3, 59, 95
5, 4284, Note_off_c, 3, 59, 95
5, 4407, Note_off_c, 3, 41, 100
5, 4416, Note_on_c, 3, 59, 87
5, 4470, Note_off_c, 3, 59, 87
5, 4607, Note_on_c, 3, 59, 102
5, 4608, Note_on_c, 3, 38, 93
5, 4608, Note_on_c, 3, 59, 107
5, 4666, Note_off_c, 3, 59, 102
5, 4674, Note_off_c, 3, 59, 107
5, 4800, Note_on_c, 3, 59, 87
5, 4826, Note_off_c, 3, 38, 93
5, 4867, Note_off_c, 3, 59, 87
5, 4992, Note_on_c, 3, 38, 85
5, 4992, Note_on_c, 3, 59, 107
5, 5049, Note_off_c, 3, 59, 107
5, 5079, Note_off_c, 3, 38, 85
5, 5184, Note_on_c, 3, 38, 82
5, 5184, Note_on_c, 3, 59, 107
5, 5250, Note_off_c, 3, 59, 107
5, 5316, Note_off_c, 3, 38, 82
5, 5376, Note_on_c, 3, 59, 87
5, 5376, Note_on_c, 3, 41, 89
5, 5430, Note_off_c, 3, 59, 87
5, 5568, Note_on_c, 3, 59, 102
5, 5575, Note_off_c, 3, 41, 89
5, 5640, Note_off_c, 3, 59, 102
5, 5760, Note_on_c, 3, 59, 110
5, 5760, Note_on_c, 3, 38, 98
5, 5826, Note_off_c, 3, 59, 110
5, 5952, Note_on_c, 3, 59, 100
5, 5979, Note_off_c, 3, 38, 98
5, 6011, Note_off_c, 3, 59, 100
5, 6144, Note_on_c, 3, 59, 105
5, 6144, Note_on_c, 3, 38, 91
5, 6207, Note_off_c, 3, 38, 91
5, 6207, Note_off_c, 3, 59, 105
5, 6336, Note_on_c, 3, 59, 107
5, 6336, Note_on_c, 3, 38, 85
5, 6403, Note_off_c, 3, 59, 107
5, 6424, Note_off_c, 3, 38, 85
5, 6528, Note_on_c, 3, 59, 105
5, 6528, Note_on_c, 3, 41, 105
5, 6592, Note_off_c, 3, 59, 105
5, 6706, Note_off_c, 3, 41, 105
5, 6720, Note_on_c, 3, 59, 87
5, 6793, Note_off_c, 3, 59, 87
5, 6912, Note_on_c, 3, 59, 110
5, 6912, Note_on_c, 3, 38, 98
5, 6978, Note_off_c, 3, 59, 110
5, 7104, Note_on_c, 3, 59, 100
5, 7131, Note_off_c, 3, 38, 98
5, 7163, Note_off_c, 3, 59, 100
5, 7296, Note_on_c, 3, 59, 105
5, 7296, Note_on_c, 3, 38, 91
5, 7359, Note_off_c, 3, 38, 91
5, 7359, Note_off_c, 3, 59, 105
5, 7488, Note_on_c, 3, 59, 107
5, 7488, Note_on_c, 3, 38, 85
5, 7555, Note_off_c, 3, 59, 107
5, 7576, Note_off_c, 3, 38, 85
5, 7680, Note_on_c, 3, 59, 105
5, 7680, Note_on_c, 3, 41, 105
5, 7744, Note_off_c, 3, 59, 105
5, 7858, Note_off_c, 3, 41, 105
5, 7872, Note_on_c, 3, 59, 87
5, 7945, Note_off_c, 3, 59, 87
5, 8064, Note_on_c, 3, 59, 102
5, 8064, Note_on_c, 3, 38, 78
5, 8123, Note_off_c, 3, 59, 102
5, 8256, Note_on_c, 3, 59, 91
5, 8273, Note_off_c, 3, 38, 78
5, 8308, Note_off_c, 3, 59, 91
5, 8448, Note_on_c, 3, 38, 87
5, 8448, Note_on_c, 3, 59, 85
5, 8508, Note_off_c, 3, 59, 85
5, 8529, Note_off_c, 3, 38, 87
5, 8640, Note_on_c, 3, 38, 95
5, 8640, Note_on_c, 3, 59, 87
5, 8703, Note_off_c, 3, 59, 87
5, 8738, Note_off_c, 3, 38, 95
5, 8832, Note_on_c, 3, 41, 100
5, 8832, Note_on_c, 3, 59, 95
5, 8892, Note_off_c, 3, 59, 95
5, 9015, Note_off_c, 3, 41, 100
5, 9024, Note_on_c, 3, 59, 87
5, 9078, Note_off_c, 3, 59, 87
5, 9215, Note_on_c, 3, 59, 102
5, 9216, Note_on_c, 3, 38, 93
5, 9216, Note_on_c, 3, 59, 107
5, 9216, Note_on_c, 3, 38, 93
5, 9216, Note_on_c, 3, 59, 107
5, 9274, Note_off_c, 3, 59, 102
5, 9282, Note_off_c, 3, 59, 107
5, 9282, Note_off_c, 3, 59, 107
5, 9408, Note_on_c, 3, 59, 87
5, 9408, Note_on_c, 3, 59, 87
5, 9434, Note_off_c, 3, 38, 93
5, 9434, Note_off_c, 3, 38, 93
5, 9475, Note_off_c, 3, 59, 87
5, 9475, Note_off_c, 3, 59, 87
5, 9600, Note_on_c, 3, 38, 85
5, 9600, Note_on_c, 3, 59, 107
5, 9600, Note_on_c, 3, 38, 85
5, 9600, Note_on_c, 3, 59, 107
5, 9657, Note_off_c, 3, 59, 107
5, 9657, Note_off_c, 3, 59, 107
5, 9687, Note_off_c, 3, 38, 85
5, 9687, Note_off_c, 3, 38, 85
5, 9792, Note_on_c, 3, 38, 82
5, 9792, Note_on_c, 3, 59, 107
5, 9792, Note_on_c, 3, 38, 82
5, 9792, Note_on_c, 3, 59, 107
5, 9858, Note_off_c, 3, 59, 107
5, 9858, Note_off_c, 3, 59, 107
5, 9924, Note_off_c, 3, 38, 82
5, 9924, Note_off_c, 3, 38, 82
5, 9984, Note_on_c, 3, 59, 87
5, 9984, Note_on_c, 3, 41, 89
5, 9984, Note_on_c, 3, 59, 87
5, 9984, Note_on_c, 3, 41, 89
5, 10038, Note_off_c, 3, 59, 87
5, 10038, Note_off_c, 3, 59, 87
5, 10176, Note_on_c, 3, 59, 102
5, 10176, Note_on_c, 3, 59, 102
5, 10183, Note_off_c, 3, 41, 89
5, 10183, Note_off_c, 3, 41, 89
5, 10248, Note_off_c, 3, 59, 102
5, 10248, Note_off_c, 3, 59, 102
5, 10368, Note_on_c, 3, 59, 110
5, 10368, Note_on_c, 3, 38, 98
5, 10368, Note_on_c, 3, 59, 110
5, 10368, Note_on_c, 3, 38, 98
5, 10434, Note_off_c, 3, 59, 110
5, 10434, Note_off_c, 3, 59, 110
5, 10560, Note_on_c, 3, 59, 100
5, 10560, Note_on_c, 3, 59, 100
5, 10587, Note_off_c, 3, 38, 98
5, 10587, Note_off_c, 3, 38, 98
5, 10619, Note_off_c, 3, 59, 100
5, 10619, Note_off_c, 3, 59, 100
5, 10752, Note_on_c, 3, 59, 105
5, 10752, Note_on_c, 3, 38, 91
5, 10752, Note_on_c, 3, 59, 105
5, 10752, Note_on_c, 3, 38, 91
5, 10815, Note_off_c, 3, 38, 91
5, 10815, Note_off_c, 3, 59, 105
5, 10815, Note_off_c, 3, 38, 91
5, 10815, Note_off_c, 3, 59, 105
5, 10944, Note_on_c, 3, 59, 107
5, 10944, Note_on_c, 3, 38, 85
5, 10944, Note_on_c, 3, 59, 107
5, 10944, Note_on_c, 3, 38, 85
5, 11011, Note_off_c, 3, 59, 107
5, 11011, Note_off_c, 3, 59, 107
5, 11032, Note_off_c, 3, 38, 85
5, 11032, Note_off_c, 3, 38, 85
5, 11136, Note_on_c, 3, 59, 105
5, 11136, Note_on_c, 3, 41, 105
5, 11136, Note_on_c, 3, 59, 105
5, 11136, Note_on_c, 3, 41, 105
5, 11200, Note_off_c, 3, 59, 105
5, 11200, Note_off_c, 3, 59, 105
5, 11314, Note_off_c, 3, 41, 105
5, 11314, Note_off_c, 3, 41, 105
5, 11328, Note_on_c, 3, 59, 87
5, 11328, Note_on_c, 3, 59, 87
5, 11401, Note_off_c, 3, 59, 87
5, 11401, Note_off_c, 3, 59, 87
5, 11520, Note_on_c, 3, 59, 105
5, 11520, Note_on_c, 3, 38, 95
5, 11520, Note_on_c, 3, 59, 110
5, 11520, Note_on_c, 3, 38, 98
5, 11582, Note_off_c, 3, 59, 105
5, 11586, Note_off_c, 3, 59, 110
5, 11712, Note_on_c, 3, 59, 87
5, 11712, Note_on_c, 3, 59, 100
5, 11739, Note_off_c, 3, 38, 98
5, 11753, Note_off_c, 3, 38, 95
5, 11771, Note_off_c, 3, 59, 100
5, 11771, Note_off_c, 3, 59, 87
5, 11904, Note_on_c, 3, 38, 87
5, 11904, Note_on_c, 3, 59, 102
5, 11904, Note_on_c, 3, 59, 105
5, 11904, Note_on_c, 3, 38, 91
5, 11963, Note_off_c, 3, 59, 102
5, 11967, Note_off_c, 3, 38, 91
5, 11967, Note_off_c, 3, 59, 105
5, 12092, Note_off_c, 3, 38, 87
5, 12096, Note_on_c, 3, 38, 102
5, 12096, Note_on_c, 3, 59, 102
5, 12096, Note_on_c, 3, 59, 107
5, 12096, Note_on_c, 3, 38, 85
5, 12161, Note_off_c, 3, 59, 102
5, 12163, Note_off_c, 3, 59, 107
5, 12184, Note_off_c, 3, 38, 85
5, 12244, Note_off_c, 3, 38, 102
5, 12288, Note_on_c, 3, 59, 85
5, 12288, Note_on_c, 3, 59, 105
5, 12288, Note_on_c, 3, 41, 105
5, 12352, Note_off_c, 3, 59, 105
5, 12362, Note_off_c, 3, 59, 85
5, 12466, Note_off_c, 3, 41, 105
5, 12480, Note_on_c, 3, 59, 95
5, 12480, Note_on_c, 3, 59, 87
5, 12532, Note_off_c, 3, 59, 95
5, 12553, Note_off_c, 3, 59, 87
5, 12672, Note_on_c, 3, 59, 102
5, 12672, Note_on_c, 3, 38, 78
5, 12672, Note_on_c, 3, 59, 102
5, 12672, Note_on_c, 3, 38, 78
5, 12731, Note_off_c, 3, 59, 102
5, 12731, Note_off_c, 3, 59, 102
5, 12864, Note_on_c, 3, 59, 91
5, 12864, Note_on_c, 3, 59, 91
5, 12881, Note_off_c, 3, 38, 78
5, 12881, Note_off_c, 3, 38, 78
5, 12916, Note_off_c, 3, 59, 91
5, 12916, Note_off_c, 3, 59, 91
5, 13056, Note_on_c, 3, 38, 87
5, 13056, Note_on_c, 3, 59, 85
5, 13056, Note_on_c, 3, 38, 87
5, 13056, Note_on_c, 3, 59, 85
5, 13116, Note_off_c, 3, 59, 85
5, 13116, Note_off_c, 3, 59, 85
5, 13137, Note_off_c, 3, 38, 87
5, 13137, Note_off_c, 3, 38, 87
5, 13248, Note_on_c, 3, 38, 95
5, 13248, Note_on_c, 3, 59, 87
5, 13248, Note_on_c, 3, 38, 95
5, 13248, Note_on_c, 3, 59, 87
5, 13311, Note_off_c, 3, 59, 87
5, 13311, Note_off_c, 3, 59, 87
5, 13346, Note_off_c, 3, 38, 95
5, 13346, Note_off_c, 3, 38, 95
5, 13440, Note_on_c, 3, 41, 100
5, 13440, Note_on_c, 3, 59, 95
5, 13440, Note_on_c, 3, 41, 100
5, 13440, Note_on_c, 3, 59, 95
5, 13500, Note_off_c, 3, 59, 95
5, 13500, Note_off_c, 3, 59, 95
5, 13623, Note_off_c, 3, 41, 100
5, 13623, Note_off_c, 3, 41, 100
5, 13632, Note_on_c, 3, 59, 87
5, 13632, Note_on_c, 3, 59, 87
5, 13686, Note_off_c, 3, 59, 87
5, 13686, Note_off_c, 3, 59, 87
5, 13823, Note_on_c, 3, 59, 102
5, 13823, Note_on_c, 3, 59, 102
5, 13824, Note_on_c, 3, 59, 110
5, 13824, Note_on_c, 3, 38, 98
5, 13824, Note_on_c, 3, 38, 93
5, 13824, Note_on_c, 3, 59, 107
5, 13882, Note_off_c, 3, 59, 102
5, 13882, Note_off_c, 3, 59, 102
5, 13890, Note_off_c, 3, 59, 107
5, 13890, Note_off_c, 3, 59, 110
5, 14016, Note_on_c, 3, 59, 100
5, 14016, Note_on_c, 3, 59, 87
5, 14042, Note_off_c, 3, 38, 93
5, 14043, Note_off_c, 3, 38, 98
5, 14075, Note_off_c, 3, 59, 100
5, 14083, Note_off_c, 3, 59, 87
5, 14208, Note_on_c, 3, 59, 105
5, 14208, Note_on_c, 3, 38, 91
5, 14208, Note_on_c, 3, 38, 85
5, 14208, Note_on_c, 3, 59, 107
5, 14265, Note_off_c, 3, 59, 107
5, 14271, Note_off_c, 3, 38, 91
5, 14271, Note_off_c, 3, 59, 105
5, 14295, Note_off_c, 3, 38, 85
5, 14400, Note_on_c, 3, 59, 107
5, 14400, Note_on_c, 3, 38, 85
5, 14400, Note_on_c, 3, 38, 82
5, 14400, Note_on_c, 3, 59, 107
5, 14466, Note_off_c, 3, 59, 107
5, 14467, Note_off_c, 3, 59, 107
5, 14488, Note_off_c, 3, 38, 85
5, 14532, Note_off_c, 3, 38, 82
5, 14592, Note_on_c, 3, 59, 105
5, 14592, Note_on_c, 3, 41, 105
5, 14592, Note_on_c, 3, 59, 87
5, 14592, Note_on_c, 3, 41, 89
5, 14646, Note_off_c, 3, 59, 87
5, 14656, Note_off_c, 3, 59, 105
5, 14770, Note_off_c, 3, 41, 105
5, 14784, Note_on_c, 3, 59, 87
5, 14784, Note_on_c, 3, 59, 102
5, 14791, Note_off_c, 3, 41, 89
5, 14856, Note_off_c, 3, 59, 102
5, 14857, Note_off_c, 3, 59, 87
5, 14986, Note_on_c, 3, 41, 105
5, 15027, Note_off_c, 3, 41, 105
5, 15167, Note_on_c, 3, 41, 102
5, 15194, Note_off_c, 3, 41, 102
5, 15252, Note_on_c, 3, 41, 89
5, 15283, Note_off_c, 3, 41, 89
5, 15338, Note_on_c, 3, 41, 102
5, 15378, Note_off_c, 3, 41, 102
5, 15536, Note_on_c, 3, 41, 100
5, 15580, Note_off_c, 3, 41, 100
5, 15730, Note_on_c, 3, 41, 98
5, 15764, Note_off_c, 3, 41, 98
5, 15823, Note_on_c, 3, 41, 89
5, 15852, Note_off_c, 3, 41, 89
5, 15912, Note_on_c, 3, 41, 102
5, 15948, Note_off_c, 3, 41, 102
5, 16110, Note_on_c, 3, 41, 107
5, 16143, Note_off_c, 3, 41, 107
5, 16296, Note_on_c, 3, 41, 89
5, 16331, Note_off_c, 3, 41, 89
5, 16392, Note_on_c, 3, 41, 87
5, 16424, Note_off_c, 3, 41, 87
5, 16488, Note_on_c, 3, 41, 98
5, 16522, Note_off_c, 3, 41, 98
5, 16701, Note_on_c, 3, 41, 105
5, 16735, Note_off_c, 3, 41, 105
5, 16887, Note_on_c, 3, 41, 98
5, 16911, Note_off_c, 3, 41, 98
5, 16983, Note_on_c, 3, 41, 100
5, 17015, Note_off_c, 3, 41, 100
5, 17083, Note_on_c, 3, 41, 98
5, 17119, Note_off_c, 3, 41, 98
5, 17297, Note_on_c, 3, 43, 127
5, 17427, Note_off_c, 3, 43, 127
5, 21888, Note_on_c, 3, 38, 93
5, 21888, Note_on_c, 3, 59, 107
5, 21954, Note_off_c, 3, 59, 107
5, 22080, Note_on_c, 3, 59, 87
5, 22106, Note_off_c, 3, 38, 93
5, 22147, Note_off_c, 3, 59, 87
5, 22272, Note_on_c, 3, 38, 85
5, 22272, Note_on_c, 3, 59, 107
5, 22329, Note_off_c, 3, 59, 107
5, 22359, Note_off_c, 3, 38, 85
5, 22464, Note_on_c, 3, 38, 82
5, 22464, Note_on_c, 3, 59, 107
5, 22530, Note_off_c, 3, 59, 107
5, 22596, Note_off_c, 3, 38, 82
5, 22656, Note_on_c, 3, 59, 87
5, 22656, Note_on_c, 3, 41, 89
5, 22710, Note_off_c, 3, 59, 87
5, 22848, Note_on_c, 3, 59, 102
5, 22855, Note_off_c, 3, 41, 89
5, 22920, Note_off_c, 3, 59, 102
5, 23040, Note_on_c, 3, 59, 107
5, 23040, Note_on_c, 3, 38, 93
5, 23040, Note_on_c, 3, 59, 110
5, 23040, Note_on_c, 3, 38, 98
5, 23106, Note_off_c, 3, 59, 110
5, 23106, Note_off_c, 3, 59, 107
5, 23232, Note_on_c, 3, 59, 87
5, 23232, Note_on_c, 3, 59, 100
5, 23258, Note_off_c, 3, 38, 93
5, 23259, Note_off_c, 3, 38, 98
5, 23291, Note_off_c, 3, 59, 100
5, 23299, Note_off_c, 3, 59, 87
5, 23424, Note_on_c, 3, 59, 107
5, 23424, Note_on_c, 3, 38, 85
5, 23424, Note_on_c, 3, 59, 105
5, 23424, Note_on_c, 3, 38, 91
5, 23481, Note_off_c, 3, 59, 107
5, 23487, Note_off_c, 3, 38, 91
5, 23487, Note_off_c, 3, 59, 105
5, 23511, Note_off_c, 3, 38, 85
5, 23616, Note_on_c, 3, 59, 107
5, 23616, Note_on_c, 3, 38, 82
5, 23616, Note_on_c, 3, 59, 107
5, 23616, Note_on_c, 3, 38, 85
5, 23682, Note_off_c, 3, 59, 107
5, 23683, Note_off_c, 3, 59, 107
5, 23704, Note_off_c, 3, 38, 85
5, 23748, Note_off_c, 3, 38, 82
5, 23808, Note_on_c, 3, 41, 89
5, 23808, Note_on_c, 3, 59, 87
5, 23808, Note_on_c, 3, 59, 105
5, 23808, Note_on_c, 3, 41, 105
5, 23862, Note_off_c, 3, 59, 87
5, 23872, Note_off_c, 3, 59, 105
5, 23986, Note_off_c, 3, 41, 105
5, 24000, Note_on_c, 3, 59, 102
5, 24000, Note_on_c, 3, 59, 87
5, 24007, Note_off_c, 3, 41, 89
5, 24072, Note_off_c, 3, 59, 102
5, 24073, Note_off_c, 3, 59, 87
5, 24192, Note_on_c, 3, 38, 98
5, 24192, Note_on_c, 3, 59, 110
5, 24192, Note_on_c, 3, 59, 105
5, 24192, Note_on_c, 3, 38, 95
5, 24254, Note_off_c, 3, 59, 105
5, 24258, Note_off_c, 3, 59, 110
5, 24384, Note_on_c, 3, 59, 100
5, 24384, Note_on_c, 3, 59, 87
5, 24411, Note_off_c, 3, 38, 98
5, 24425, Note_off_c, 3, 38, 95
5, 24443, Note_off_c, 3, 59, 87
5, 24443, Note_off_c, 3, 59, 100
5, 24576, Note_on_c, 3, 38, 91
5, 24576, Note_on_c, 3, 59, 105
5, 24576, Note_on_c, 3, 38, 87
5, 24576, Note_on_c, 3, 59, 102
5, 24635, Note_off_c, 3, 59, 102
5, 24639, Note_off_c, 3, 59, 105
5, 24639, Note_off_c, 3, 38, 91
5, 24764, Note_off_c, 3, 38, 87
5, 24768, Note_on_c, 3, 38, 85
5, 24768, Note_on_c, 3, 59, 107
5, 24768, Note_on_c, 3, 38, 102
5, 24768, Note_on_c, 3, 59, 102
5, 24833, Note_off_c, 3, 59, 102
5, 24835, Note_off_c, 3, 59, 107
5, 24856, Note_off_c, 3, 38, 85
5, 24916, Note_off_c, 3, 38, 102
5, 24960, Note_on_c, 3, 41, 105
5, 24960, Note_on_c, 3, 59, 105
5, 24960, Note_on_c, 3, 59, 85
5, 25024, Note_off_c, 3, 59, 105
5, 25034, Note_off_c, 3, 59, 85
5, 25138, Note_off_c, 3, 41, 105
5, 25152, Note_on_c, 3, 59, 87
5, 25152, Note_on_c, 3, 59, 95
5, 25204, Note_off_c, 3, 59, 95
5, 25225, Note_off_c, 3, 59, 87
5, 25344, Note_on_c, 3, 38, 98
5, 25344, Note_on_c, 3, 59, 110
5, 25344, Note_on_c, 3, 59, 102
5, 25344, Note_on_c, 3, 38, 78
5, 25403, Note_off_c, 3, 59, 102
5, 25410, Note_off_c, 3, 59, 110
5, 25536, Note_on_c, 3, 59, 100
5, 25536, Note_on_c, 3, 59, 91
5, 25553, Note_off_c, 3, 38, 78
5, 25563, Note_off_c, 3, 38, 98
5, 25588, Note_off_c, 3, 59, 91
5, 25595, Note_off_c, 3, 59, 100
5, 25728, Note_on_c, 3, 38, 91
5, 25728, Note_on_c, 3, 59, 105
5, 25728, Note_on_c, 3, 38, 87
5, 25728, Note_on_c, 3, 59, 85
5, 25788, Note_off_c, 3, 59, 85
5, 25791, Note_off_c, 3, 59, 105
5, 25791, Note_off_c, 3, 38, 91
5, 25809, Note_off_c, 3, 38, 87
5, 25920, Note_on_c, 3, 38, 85
5, 25920, Note_on_c, 3, 59, 107
5, 25920, Note_on_c, 3, 38, 95
5, 25920, Note_on_c, 3, 59, 87
5, 25983, Note_off_c, 3, 59, 87
5, 25987, Note_off_c, 3, 59, 107
5, 26008, Note_off_c, 3, 38, 85
5, 26018, Note_off_c, 3, 38, 95
5, 26112, Note_on_c, 3, 41, 105
5, 26112, Note_on_c, 3, 59, 105
5, 26112, Note_on_c, 3, 41, 100
5, 26112, Note_on_c, 3, 59, 95
5, 26172, Note_off_c, 3, 59, 95
5, 26176, Note_off_c, 3, 59, 105
5, 26290, Note_off_c, 3, 41, 105
5, 26295, Note_off_c, 3, 41, 100
5, 26304, Note_on_c, 3, 59, 87
5, 26304, Note_on_c, 3, 59, 87
5, 26358, Note_off_c, 3, 59, 87
5, 26377, Note_off_c, 3, 59, 87
5, 26495, Note_on_c, 3, 59, 102
5, 26496, Note_on_c, 3, 59, 107
5, 26496, Note_on_c, 3, 38, 93
5, 26496, Note_on_c, 3, 59, 102
5, 26496, Note_on_c, 3, 38, 78
5, 26554, Note_off_c, 3, 59, 102
5, 26555, Note_off_c, 3, 59, 102
5, 26562, Note_off_c, 3, 59, 107
5, 26688, Note_on_c, 3, 59, 87
5, 26688, Note_on_c, 3, 59, 91
5, 26705, Note_off_c, 3, 38, 78
5, 26714, Note_off_c, 3, 38, 93
5, 26740, Note_off_c, 3, 59, 91
5, 26755, Note_off_c, 3, 59, 87
5, 26880, Note_on_c, 3, 59, 107
5, 26880, Note_on_c, 3, 38, 85
5, 26880, Note_on_c, 3, 38, 87
5, 26880, Note_on_c, 3, 59, 85
5, 26937, Note_off_c, 3, 59, 107
5, 26940, Note_off_c, 3, 59, 85
5, 26961, Note_off_c, 3, 38, 87
5, 26967, Note_off_c, 3, 38, 85
5, 27072, Note_on_c, 3, 59, 107
5, 27072, Note_on_c, 3, 38, 82
5, 27072, Note_on_c, 3, 38, 95
5, 27072, Note_on_c, 3, 59, 87
5, 27135, Note_off_c, 3, 59, 87
5, 27138, Note_off_c, 3, 59, 107
5, 27170, Note_off_c, 3, 38, 95
5, 27204, Note_off_c, 3, 38, 82
5, 27264, Note_on_c, 3, 41, 89
5, 27264, Note_on_c, 3, 59, 87
5, 27264, Note_on_c, 3, 41, 100
5, 27264, Note_on_c, 3, 59, 95
5, 27318, Note_off_c, 3, 59, 87
5, 27324, Note_off_c, 3, 59, 95
5, 27447, Note_off_c, 3, 41, 100
5, 27456, Note_on_c, 3, 59, 102
5, 27456, Note_on_c, 3, 59, 87
5, 27463, Note_off_c, 3, 41, 89
5, 27510, Note_off_c, 3, 59, 87
5, 27528, Note_off_c, 3, 59, 102
5, 27647, Note_on_c, 3, 59, 102
5, 27648, Note_on_c, 3, 59, 107
5, 27648, Note_on_c, 3, 38, 93
5, 27648, Note_on_c, 3, 59, 110
5, 27648, Note_on_c, 3, 38, 98
5, 27706, Note_off_c, 3, 59, 102
5, 27714, Note_off_c, 3, 59, 110
5, 27714, Note_off_c, 3, 59, 107
5, 27840, Note_on_c, 3, 59, 87
5, 27840, Note_on_c, 3, 59, 100
5, 27866, Note_off_c, 3, 38, 93
5, 27867, Note_off_c, 3, 38, 98
5, 27899, Note_off_c, 3, 59, 100
5, 27907, Note_off_c, 3, 59, 87
5, 28032, Note_on_c, 3, 59, 107
5, 28032, Note_on_c, 3, 38, 85
5, 28032, Note_on_c, 3, 59, 105
5, 28032, Note_on_c, 3, 38, 91
5, 28089, Note_off_c, 3, 59, 107
5, 28095, Note_off_c, 3, 38, 91
5, 28095, Note_off_c, 3, 59, 105
5, 28119, Note_off_c, 3, 38, 85
5, 28224, Note_on_c, 3, 59, 107
5, 28224, Note_on_c, 3, 38, 82
5, 28224, Note_on_c, 3, 59, 107
5, 28224, Note_on_c, 3, 38, 85
5, 28290, Note_off_c, 3, 59, 107
5, 28291, Note_off_c, 3, 59, 107
5, 28312, Note_off_c, 3, 38, 85
5, 28356, Note_off_c, 3, 38, 82
5, 28416, Note_on_c, 3, 41, 89
5, 28416, Note_on_c, 3, 59, 87
5, 28416, Note_on_c, 3, 59, 105
5, 28416, Note_on_c, 3, 41, 105
5, 28470, Note_off_c, 3, 59, 87
5, 28480, Note_off_c, 3, 59, 105
5, 28594, Note_off_c, 3, 41, 105
5, 28608, Note_on_c, 3, 59, 102
5, 28608, Note_on_c, 3, 59, 87
5, 28615, Note_off_c, 3, 41, 89
5, 28680, Note_off_c, 3, 59, 102
5, 28681, Note_off_c, 3, 59, 87
5, 28800, Note_on_c, 3, 38, 98
5, 28800, Note_on_c, 3, 59, 110
5, 28800, Note_on_c, 3, 59, 105
5, 28800, Note_on_c, 3, 38, 95
5, 28862, Note_off_c, 3, 59, 105
5, 28866, Note_off_c, 3, 59, 110
5, 28992, Note_on_c, 3, 59, 100
5, 28992, Note_on_c, 3, 59, 87
5, 29019, Note_off_c, 3, 38, 98
5, 29033, Note_off_c, 3, 38, 95
5, 29051, Note_off_c, 3, 59, 87
5, 29051, Note_off_c, 3, 59, 100
5, 29184, Note_on_c, 3, 38, 91
5, 29184, Note_on_c, 3, 59, 105
5, 29184, Note_on_c, 3, 38, 87
5, 29184, Note_on_c, 3, 59, 102
5, 29243, Note_off_c, 3, 59, 102
5, 29247, Note_off_c, 3, 59, 105
5, 29247, Note_off_c, 3, 38, 91
5, 29372, Note_off_c, 3, 38, 87
5, 29376, Note_on_c, 3, 38, 85
5, 29376, Note_on_c, 3, 59, 107
5, 29376, Note_on_c, 3, 38, 102
5, 29376, Note_on_c, 3, 59, 102
5, 29441, Note_off_c, 3, 59, 102
5, 29443, Note_off_c, 3, 59, 107
5, 29464, Note_off_c, 3, 38, 85
5, 29524, Note_off_c, 3, 38, 102
5, 29568, Note_on_c, 3, 41, 105
5, 29568, Note_on_c, 3, 59, 105
5, 29568, Note_on_c, 3, 59, 85
5, 29632, Note_off_c, 3, 59, 105
5, 29642, Note_off_c, 3, 59, 85
5, 29746, Note_off_c, 3, 41, 105
5, 29760, Note_on_c, 3, 59, 87
5, 29760, Note_on_c, 3, 59, 95
5, 29812, Note_off_c, 3, 59, 95
5, 29833, Note_off_c, 3, 59, 87
5, 29952, End_track
6, 0, Start_track
6, 0, Title_t, "Track 5"
6, 4, Note_on_c, 4, 81, 64
6, 164, Note_off_c, 4, 81, 64
6, 196, Note_on_c, 4, 79, 64
6, 276, Note_off_c, 4, 79, 64
6, 292, Note_on_c, 4, 77, 64
6, 371, Note_off_c, 4, 77, 64
6, 388, Note_on_c, 4, 74, 64
6, 548, Note_off_c, 4, 74, 64
6, 579, Note_on_c, 4, 79, 64
6, 740, Note_off_c, 4, 79, 64
6, 771, Note_on_c, 4, 77, 64
6, 852, Note_off_c, 4, 77, 64
6, 867, Note_on_c, 4, 74, 64
6, 948, Note_off_c, 4, 74, 64
6, 963, Note_on_c, 4, 72, 64
6, 1124, Note_off_c, 4, 72, 64
6, 1155, Note_on_c, 4, 77, 64
6, 1315, Note_off_c, 4, 77, 64
6, 1347, Note_on_c, 4, 74, 64
6, 1428, Note_off_c, 4, 74, 64
6, 1443, Note_on_c, 4, 72, 64
6, 1523, Note_off_c, 4, 72, 64
6, 1540, Note_on_c, 4, 71, 64
6, 1700, Note_off_c, 4, 71, 64
6, 1731, Note_on_c, 4, 74, 64
6, 1892, Note_off_c, 4, 74, 64
6, 1924, Note_on_c, 4, 72, 64
6, 2003, Note_off_c, 4, 72, 64
6, 2020, Note_on_c, 4, 71, 64
6, 2100, Note_off_c, 4, 71, 64
6, 2116, Note_on_c, 4, 69, 64
6, 2275, Note_off_c, 4, 69, 64
6, 2500, Note_on_c, 4, 59, 64
6, 2660, Note_off_c, 4, 59, 64
6, 2691, Note_on_c, 4, 62, 64
6, 2852, Note_off_c, 4, 62, 64
6, 2884, Note_on_c, 4, 60, 64
6, 3188, Note_off_c, 4, 60, 64
6, 3267, Note_on_c, 4, 65, 64
6, 3620, Note_off_c, 4, 65, 64
6, 3651, Note_on_c, 4, 62, 64
6, 3812, Note_off_c, 4, 62, 64
6, 3844, Note_on_c, 4, 67, 64
6, 4148, Note_off_c, 4, 67, 64
6, 4227, Note_on_c, 4, 65, 64
6, 4387, Note_off_c, 4, 65, 64
6, 4419, Note_on_c, 4, 69, 64
6, 4579, Note_off_c, 4, 69, 64
6, 4611, Note_on_c, 4, 72, 64
6, 4771, Note_off_c, 4, 72, 64
6, 4803, Note_on_c, 4, 67, 64
6, 4964, Note_off_c, 4, 67, 64
6, 4995, Note_on_c, 4, 74, 64
6, 5155, Note_off_c, 4, 74, 64
6, 5187, Note_on_c, 4, 69, 64
6, 5348, Note_off_c, 4, 69, 64
6, 5380, Note_on_c, 4, 77, 64
6, 5539, Note_off_c, 4, 77, 64
6, 5572, Note_on_c, 4, 72, 64
6, 5732, Note_off_c, 4, 72, 64
6, 5764, Note_on_c, 4, 79, 64
6, 5925, Note_off_c, 4, 79, 64
6, 5956, Note_on_c, 4, 74, 64
6, 6115, Note_off_c, 4, 74, 64
6, 6147, Note_on_c, 4, 81, 64
6, 6307, Note_off_c, 4, 81, 64
6, 6340, Note_on_c, 4, 79, 64
6, 6499, Note_off_c, 4, 79, 64
6, 6531, Note_on_c, 4, 77, 64
6, 6612, Note_off_c, 4, 77, 64
6, 6628, Note_on_c, 4, 74, 64
6, 6708, Note_off_c, 4, 74, 64
6, 6723, Note_on_c, 4, 72, 64
6, 6884, Note_off_c, 4, 72, 64
6, 6915, Note_on_c, 4, 77, 64
6, 7075, Note_off_c, 4, 77, 64
6, 7107, Note_on_c, 4, 76, 64
6, 7187, Note_off_c, 4, 76, 64
6, 7203, Note_on_c, 4, 79, 64
6, 7284, Note_off_c, 4, 79, 64
6, 7300, Note_on_c, 4, 77, 64
6, 7460, Note_off_c, 4, 77, 64
6, 7492, Note_on_c, 4, 76, 64
6, 7652, Note_off_c, 4, 76, 64
6, 7683, Note_on_c, 4, 74, 64
6, 7764, Note_off_c, 4, 74, 64
6, 7779, Note_on_c, 4, 77, 64
6, 7859, Note_off_c, 4, 77, 64
6, 7876, Note_on_c, 4, 76, 64
6, 8036, Note_off_c, 4, 76, 64
6, 8068, Note_on_c, 4, 74, 64
6, 8228, Note_off_c, 4, 74, 64
6, 8260, Note_on_c, 4, 72, 64
6, 8340, Note_off_c, 4, 72, 64
6, 8355, Note_on_c, 4, 76, 64
6, 8436, Note_off_c, 4, 76, 64
6, 8451, Note_on_c, 4, 74, 64
6, 8611, Note_off_c, 4, 74, 64
6, 8643, Note_on_c, 4, 72, 64
6, 8723, Note_off_c, 4, 72, 64
6, 8739, Note_on_c, 4, 74, 64
6, 8820, Note_off_c, 4, 74, 64
6, 8836, Note_on_c, 4, 71, 64
6, 8916, Note_off_c, 4, 71, 64
6, 8931, Note_on_c, 4, 72, 64
6, 9012, Note_off_c, 4, 72, 64
6, 9027, Note_on_c, 4, 69, 64
6, 9107, Note_off_c, 4, 69, 64
6, 9123, Note_on_c, 4, 65, 64
6, 9203, Note_off_c, 4, 65, 64
6, 9220, Note_on_c, 4, 67, 64
6, 9764, Note_off_c, 4, 67, 64
6, 9987, Note_on_c, 4, 72, 64
6, 10052, Note_off_c, 4, 72, 64
6, 10053, Note_on_c, 4, 74, 64
6, 10116, Note_off_c, 4, 74, 64
6, 10117, Note_on_c, 4, 76, 64
6, 10180, Note_off_c, 4, 76, 64
6, 10181, Note_on_c, 4, 77, 64
6, 10243, Note_off_c, 4, 77, 64
6, 10245, Note_on_c, 4, 79, 64
6, 10308, Note_off_c, 4, 79, 64
6, 10308, Note_on_c, 4, 81, 64
6, 10372, Note_off_c, 4, 81, 64
6, 10372, Note_on_c, 4, 83, 64
6, 11444, Note_off_c, 4, 83, 64
6, 11524, Note_on_c, 4, 83, 64
6, 12068, Note_off_c, 4, 83, 64
6, 12100, Note_on_c, 4, 86, 64
6, 12644, Note_off_c, 4, 86, 64
6, 12675, Note_on_c, 4, 83, 64
6, 13284, Note_off_c, 4, 83, 64
6, 13731, Note_on_c, 4, 81, 64
6, 13812, Note_off_c, 4, 81, 64
6, 13827, Note_on_c, 4, 83, 64
6, 14899, Note_off_c, 4, 83, 64
6, 14979, Note_on_c, 4, 81, 64
6, 15140, Note_off_c, 4, 81, 64
6, 15171, Note_on_c, 4, 79, 64
6, 15251, Note_off_c, 4, 79, 64
6, 15268, Note_on_c, 4, 77, 64
6, 15347, Note_off_c, 4, 77, 64
6, 15364, Note_on_c, 4, 74, 64
6, 15524, Note_off_c, 4, 74, 64
6, 15556, Note_on_c, 4, 79, 64
6, 15716, Note_off_c, 4, 79, 64
6, 15747, Note_on_c, 4, 77, 64
6, 15827, Note_off_c, 4, 77, 64
6, 15843, Note_on_c, 4, 74, 64
6, 15923, Note_off_c, 4, 74, 64
6, 15939, Note_on_c, 4, 72, 64
6, 16099, Note_off_c, 4, 72, 64
6, 16131, Note_on_c, 4, 77, 64
6, 16291, Note_off_c, 4, 77, 64
6, 16323, Note_on_c, 4, 74, 64
6, 16404, Note_off_c, 4, 74, 64
6, 16420, Note_on_c, 4, 72, 64
6, 16499, Note_off_c, 4, 72, 64
6, 16515, Note_on_c, 4, 71, 64
6, 16675, Note_off_c, 4, 71, 64
6, 16707, Note_on_c, 4, 74, 64
6, 16867, Note_off_c, 4, 74, 64
6, 16899, Note_on_c, 4, 72, 64
6, 16979, Note_off_c, 4, 72, 64
6, 16995, Note_on_c, 4, 71, 64
6, 17076, Note_off_c, 4, 71, 64
6, 17092, Note_on_c, 4, 69, 64
6, 17252, Note_off_c, 4, 69, 64
6, 17475, Note_on_c, 4, 59, 64
6, 17636, Note_off_c, 4, 59, 64
6, 17668, Note_on_c, 4, 62, 64
6, 17828, Note_off_c, 4, 62, 64
6, 17860, Note_on_c, 4, 60, 64
6, 18163, Note_off_c, 4, 60, 64
6, 18243, Note_on_c, 4, 65, 64
6, 18595, Note_off_c, 4, 65, 64
6, 18627, Note_on_c, 4, 62, 64
6, 18787, Note_off_c, 4, 62, 64
6, 18819, Note_on_c, 4, 67, 64
6, 19123, Note_off_c, 4, 67, 64
6, 19204, Note_on_c, 4, 65, 64
6, 19364, Note_off_c, 4, 65, 64
6, 19396, Note_on_c, 4, 69, 64
6, 19556, Note_off_c, 4, 69, 64
6, 19588, Note_on_c, 4, 72, 64
6, 19748, Note_off_c, 4, 72, 64
6, 19780, Note_on_c, 4, 67, 64
6, 19940, Note_off_c, 4, 67, 64
6, 19971, Note_on_c, 4, 74, 64
6, 20132, Note_off_c, 4, 74, 64
6, 20164, Note_on_c, 4, 69, 64
6, 20324, Note_off_c, 4, 69, 64
6, 20356, Note_on_c, 4, 77, 64
6, 20516, Note_off_c, 4, 77, 64
6, 20548, Note_on_c, 4, 72, 64
6, 20707, Note_off_c, 4, 72, 64
6, 20739, Note_on_c, 4, 79, 64
6, 20900, Note_off_c, 4, 79, 64
6, 20931, Note_on_c, 4, 74, 64
6, 21092, Note_off_c, 4, 74, 64
6, 21124, Note_on_c, 4, 81, 64
6, 21284, Note_off_c, 4, 81, 64
6, 21316, Note_on_c, 4, 79, 64
6, 21476, Note_off_c, 4, 79, 64
6, 21508, Note_on_c, 4, 77, 64
6, 21588, Note_off_c, 4, 77, 64
6, 21604, Note_on_c, 4, 74, 64
6, 21683, Note_off_c, 4, 74, 64
6, 21699, Note_on_c, 4, 72, 64
6, 21860, Note_off_c, 4, 72, 64
6, 21891, Note_on_c, 4, 77, 64
6, 22052, Note_off_c, 4, 77, 64
6, 22083, Note_on_c, 4, 76, 64
6, 22164, Note_off_c, 4, 76, 64
6, 22179, Note_on_c, 4, 79, 64
6, 22260, Note_off_c, 4, 79, 64
6, 22276, Note_on_c, 4, 77, 64
6, 22436, Note_off_c, 4, 77, 64
6, 22468, Note_on_c, 4, 76, 64
6, 22628, Note_off_c, 4, 76, 64
6, 22659, Note_on_c, 4, 74, 64
6, 22740, Note_off_c, 4, 74, 64
6, 22755, Note_on_c, 4, 77, 64
6, 22836, Note_off_c, 4, 77, 64
6, 22852, Note_on_c, 4, 76, 64
6, 23012, Note_off_c, 4, 76, 64
6, 23043, Note_on_c, 4, 74, 64
6, 23204, Note_off_c, 4, 74, 64
6, 23236, Note_on_c, 4, 72, 64
6, 23315, Note_off_c, 4, 72, 64
6, 23332, Note_on_c, 4, 76, 64
6, 23412, Note_off_c, 4, 76, 64
6, 23427, Note_on_c, 4, 74, 64
6, 23588, Note_off_c, 4, 74, 64
6, 23619, Note_on_c, 4, 72, 64
6, 23699, Note_off_c, 4, 72, 64
6, 23716, Note_on_c, 4, 74, 64
6, 23795, Note_off_c, 4, 74, 64
6, 23811, Note_on_c, 4, 71, 64
6, 23892, Note_off_c, 4, 71, 64
6, 23908, Note_on_c, 4, 72, 64
6, 23988, Note_off_c, 4, 72, 64
6, 24003, Note_on_c, 4, 69, 64
6, 24084, Note_off_c, 4, 69, 64
6, 24100, Note_on_c, 4, 65, 64
6, 24180, Note_off_c, 4, 65, 64
6, 24196, Note_on_c, 4, 67, 64
6, 24739, Note_off_c, 4, 67, 64
6, 24964, Note_on_c, 4, 72, 64
6, 25028, Note_off_c, 4, 72, 64
6, 25030, Note_on_c, 4, 74, 64
6, 25091, Note_off_c, 4, 74, 64
6, 25093, Note_on_c, 4, 76, 64
6, 25155, Note_off_c, 4, 76, 64
6, 25157, Note_on_c, 4, 77, 64
6, 25220, Note_off_c, 4, 77, 64
6, 25221, Note_on_c, 4, 79, 64
6, 25284, Note_off_c, 4, 79, 64
6, 25285, Note_on_c, 4, 81, 64
6, 25348, Note_off_c, 4, 81, 64
6, 25349, Note_on_c, 4, 83, 64
6, 26420, Note_off_c, 4, 83, 64
6, 26499, Note_on_c, 4, 83, 64
6, 27044, Note_off_c, 4, 83, 64
6, 27076, Note_on_c, 4, 86, 64
6, 27620, Note_off_c, 4, 86, 64
6, 27652, Note_on_c, 4, 83, 64
6, 28260, Note_off_c, 4, 83, 64
6, 28708, Note_on_c, 4, 81, 64
6, 28788, Note_off_c, 4, 81, 64
6, 28804, Note_on_c, 4, 83, 64
6, 29876, Note_off_c, 4, 83, 64
6, 29968, End_track
0, 0, End_of_file
